<?xml version="1.0" encoding="UTF-8" standalone="no"?>
<svg
   xmlns:dc="http://purl.org/dc/elements/1.1/"
   xmlns:cc="http://creativecommons.org/ns#"
   xmlns:rdf="http://www.w3.org/1999/02/22-rdf-syntax-ns#"
   xmlns:svg="http://www.w3.org/2000/svg"
   xmlns="http://www.w3.org/2000/svg"
   xmlns:sodipodi="http://sodipodi.sourceforge.net/DTD/sodipodi-0.dtd"
   xmlns:inkscape="http://www.inkscape.org/namespaces/inkscape"
   height="150"
   width="150"
   viewBox="0 0 149.99999 150"
   version="1.1"
   id="svg5149"
   sodipodi:docname="author-github-invert-72e2ff.svg"
   inkscape:version="1.0 (4035a4fb49, 2020-05-01)">
  <metadata
     id="metadata5155">
    <rdf:RDF>
      <cc:Work
         rdf:about="">
        <dc:format>image/svg+xml</dc:format>
        <dc:type
           rdf:resource="http://purl.org/dc/dcmitype/StillImage" />
        <dc:title />
      </cc:Work>
    </rdf:RDF>
  </metadata>
  <defs
     id="defs5153" />
  <sodipodi:namedview
     fit-margin-bottom="0"
     fit-margin-right="0"
     fit-margin-left="0"
     fit-margin-top="0"
     units="px"
     inkscape:document-rotation="0"
     pagecolor="#ffffff"
     bordercolor="#666666"
     borderopacity="1"
     objecttolerance="10"
     gridtolerance="10"
     guidetolerance="10"
     inkscape:pageopacity="0"
     inkscape:pageshadow="2"
     inkscape:window-width="1920"
     inkscape:window-height="1001"
     id="namedview5151"
     showgrid="false"
     inkscape:zoom="1.7930131"
     inkscape:cx="170.12085"
     inkscape:cy="106.34928"
     inkscape:window-x="-9"
     inkscape:window-y="-9"
     inkscape:window-maximized="1"
     inkscape:current-layer="svg5149" />
  <path
     d="m 50.171372,120.77978 c 0,0.62034 -0.695564,1.11661 -1.57258,1.11661 -0.997984,0.093 -1.69355,-0.40322 -1.69355,-1.11661 0,-0.62034 0.695566,-1.1166 1.572581,-1.1166 0.907259,-0.093 1.693549,0.40321 1.693549,1.1166 z m -9.405243,-1.39576 c -0.211694,0.62034 0.393145,1.33373 1.300405,1.51983 0.786289,0.31016 1.693547,0 1.875,-0.62034 0.181446,-0.62033 -0.393145,-1.33372 -1.300405,-1.61288 -0.786289,-0.21712 -1.663305,0.093 -1.875,0.71339 z m 13.366937,-0.52728 c -0.877017,0.21711 -1.481855,0.80644 -1.39113,1.51982 0.09073,0.62034 0.877016,1.02356 1.784275,0.80644 0.877015,-0.21712 1.481854,-0.80644 1.391129,-1.42677 -0.09073,-0.58934 -0.907258,-0.99254 -1.784274,-0.89949 z M 74.03226,0 C 32.086694,0 0,32.660788 0,75.68122 c 0,34.39773 21.108871,63.83276 51.260082,74.19241 3.870969,0.71338 5.231854,-1.73695 5.231854,-3.75305 0,-1.92305 -0.09073,-12.53081 -0.09073,-19.04437 0,0 -21.169354,4.65253 -25.614918,-9.24303 0,0 -3.447582,-9.02592 -8.407261,-11.35218 0,0 -6.925402,-4.86966 0.483872,-4.77661 0,0 7.530243,0.62034 11.673388,8.00236 6.622983,11.97252 17.721775,8.52964 22.04637,6.48253 0.695566,-4.96271 2.661291,-8.40558 4.838712,-10.45269 -16.905242,-1.92306 -33.961696,-4.43542 -33.961696,-34.273667 0,-8.529647 2.298388,-12.809979 7.137098,-18.268951 C 33.81048,51.177873 31.239916,42.865346 35.38306,32.1335 c 6.320566,-2.016097 20.866938,8.374561 20.866938,8.374561 6.048385,-1.736945 12.550401,-2.636436 18.991931,-2.636436 6.441539,0 12.94355,0.899491 18.991936,2.636436 0,0 14.546375,-10.421675 20.866935,-8.374561 4.14314,10.762863 1.57259,19.044373 0.78629,21.060472 4.83871,5.489989 7.80242,9.770321 7.80242,18.268951 0,29.931297 -17.8125,32.319607 -34.71774,34.273667 2.782263,2.45032 5.141128,7.10286 5.141128,14.39183 0,10.45269 -0.09073,23.38674 -0.09073,25.93012 0,2.0161 1.391128,4.46645 5.231859,3.75305 C 129.49596,139.51398 150,110.07895 150,75.68122 150,32.660788 115.97783,0 74.03226,0 Z M 29.395162,106.97726 c -0.393145,0.31017 -0.30242,1.02356 0.211692,1.61288 0.483873,0.49627 1.179438,0.71339 1.572582,0.31017 0.393145,-0.31017 0.30242,-1.02355 -0.211694,-1.61288 -0.48387,-0.49627 -1.179435,-0.71339 -1.57258,-0.31017 z m -3.266129,-2.51237 c -0.211695,0.40322 0.09073,0.8995 0.695565,1.20967 0.48387,0.31016 1.088709,0.21711 1.300402,-0.21712 0.211695,-0.40322 -0.09073,-0.89949 -0.695565,-1.20967 -0.604837,-0.1861 -1.088707,-0.093 -1.300402,0.21712 z m 9.798388,11.04201 c -0.483873,0.40323 -0.302421,1.33373 0.393145,1.92306 0.695564,0.71339 1.57258,0.80643 1.965725,0.31016 0.393144,-0.40322 0.211694,-1.33373 -0.393145,-1.92304 -0.665324,-0.71339 -1.57258,-0.80644 -1.965725,-0.31018 z m -3.447582,-4.55947 c -0.48387,0.31016 -0.48387,1.1166 0,1.83 0.483872,0.71338 1.300404,1.02355 1.693549,0.71338 0.48387,-0.40322 0.48387,-1.20966 0,-1.92305 -0.423388,-0.71339 -1.209677,-1.02355 -1.693549,-0.62033 z"
     id="path5147"
     style="stroke-width:0.306269;fill:#72e2ff;fill-opacity:1" />
</svg>
