<?xml version="1.0" encoding="UTF-8" standalone="no"?>
<svg
   xmlns:dc="http://purl.org/dc/elements/1.1/"
   xmlns:cc="http://creativecommons.org/ns#"
   xmlns:rdf="http://www.w3.org/1999/02/22-rdf-syntax-ns#"
   xmlns:svg="http://www.w3.org/2000/svg"
   xmlns="http://www.w3.org/2000/svg"
   xmlns:xlink="http://www.w3.org/1999/xlink"
   xmlns:sodipodi="http://sodipodi.sourceforge.net/DTD/sodipodi-0.dtd"
   xmlns:inkscape="http://www.inkscape.org/namespaces/inkscape"
   height="72.247993"
   width="247.289"
   id="Layer_1"
   xml:space="preserve"
   version="1.0"
   viewBox="0 0 247.289 72.24801"
   sodipodi:docname="parchment button2.svg"
   inkscape:version="1.0 (4035a4fb49, 2020-05-01)"><sodipodi:namedview
   inkscape:snap-to-guides="false"
   inkscape:snap-grids="false"
   inkscape:document-rotation="0"
   pagecolor="#ffffff"
   bordercolor="#666666"
   borderopacity="1"
   objecttolerance="10"
   gridtolerance="10"
   guidetolerance="10"
   inkscape:pageopacity="0"
   inkscape:pageshadow="2"
   inkscape:window-width="1920"
   inkscape:window-height="1001"
   id="namedview183"
   showgrid="false"
   inkscape:zoom="3.7210746"
   inkscape:cx="84.80749"
   inkscape:cy="8.0432296"
   inkscape:window-x="-9"
   inkscape:window-y="-9"
   inkscape:window-maximized="1"
   inkscape:current-layer="g966" /><defs
   id="defs61">
<metadata
   id="metadata149">
<rdf:RDF>
      <cc:Work
   rdf:about="">
         <dc:title />
         <dc:description>Parchment Background</dc:description>
         <dc:subject>
          <rdf:Bag>
            <rdf:li>border</rdf:li>
            <rdf:li>background</rdf:li>
		<rdf:li>parchment</rdf:li>
          </rdf:Bag>
         </dc:subject>
         <dc:publisher><cc:Agent
     rdf:about="http://www.openclipart.org/"><dc:title>Open Clip Art Project</dc:title></cc:Agent></dc:publisher>
         <dc:creator><cc:Agent
     rdf:about=""><dc:title>Gerald G.</dc:title></cc:Agent></dc:creator>
         <dc:rights><cc:Agent
     rdf:about="http://web.resource.org/cc/PublicDomain"><dc:title>Public Domain</dc:title></cc:Agent></dc:rights>
         <dc:date>2006/09/25</dc:date>
         <dc:format>image/svg+xml</dc:format>
         <dc:type
   rdf:resource="http://purl.org/dc/dcmitype/StillImage">http://purl.org/dc/dcmitype/StillImage</dc:type>
         <cc:license
   rdf:resource="http://web.resource.org/cc/PublicDomain" />
      </cc:Work>
      <cc:License
   rdf:about="http://web.resource.org/cc/PublicDomain">
         <cc:permits
   rdf:resource="http://web.resource.org/cc/Reproduction" />
         <cc:permits
   rdf:resource="http://web.resource.org/cc/Distribution" />
         <cc:permits
   rdf:resource="http://web.resource.org/cc/DerivativeWorks" />
      </cc:License>
   </rdf:RDF>
</metadata>
	<linearGradient
   id="XMLID_4_"
   y2="142.44"
   gradientUnits="userSpaceOnUse"
   x2="-0.0407"
   gradientTransform="matrix(1.0014038,4.1071441e-4,-0.01589004,0.24685418,-50.213604,216.30672)"
   y1="141.78"
   x1="25.021">
		<stop
   id="stop18"
   style="stop-color:#8d5c34"
   offset=".1286" />
		<stop
   id="stop20"
   style="stop-color:#e8d0a9"
   offset=".29050" />
		<stop
   id="stop22"
   style="stop-color:#e3cba4"
   offset=".5952" />
		<stop
   id="stop24"
   style="stop-color:#8d5c34"
   offset="1" />
	</linearGradient>
	<linearGradient
   spreadMethod="pad"
   id="XMLID_5_"
   y2="135.02"
   gradientUnits="userSpaceOnUse"
   x2="320.67001"
   gradientTransform="matrix(0.67622419,0.02096508,-0.00704254,0.22715562,3.5765549,229.73051)"
   y1="145.44"
   x1="22.266001">
		<stop
   id="stop31"
   style="stop-color:#8d5c34"
   offset="0" />
		<stop
   id="stop33"
   style="stop-color:#d1b38b"
   offset=".0333" />
		<stop
   id="stop35"
   style="stop-color:#e3cba4"
   offset=".91430" />
		<stop
   id="stop37"
   style="stop-color:#8d5c34"
   offset="1" />
	</linearGradient>
	<linearGradient
   id="XMLID_6_"
   y2="143.92"
   gradientUnits="userSpaceOnUse"
   x2="316.14999"
   gradientTransform="matrix(0.98339745,0.10478319,-0.02213791,0.23056347,-142.53149,191.28564)"
   y1="143.67999"
   x1="343.01001">
		<stop
   id="stop42"
   style="stop-color:#8d5c34"
   offset=".0048" />
		<stop
   id="stop44"
   style="stop-color:#93633b"
   offset=".1429" />
		<stop
   id="stop46"
   style="stop-color:#e8d0a9"
   offset=".29520" />
		<stop
   id="stop48"
   style="stop-color:#e3cba4"
   offset=".63810" />
		<stop
   id="stop50"
   style="stop-color:#93633a"
   offset=".93330" />
		<stop
   id="stop52"
   style="stop-color:#8d5c34"
   offset="1" />
	</linearGradient>
		<filter
   id="filter3194"><feGaussianBlur
     id="feGaussianBlur3196"
     stdDeviation="1.5658873"
     inkscape:collect="always" /></filter><linearGradient
   gradientTransform="matrix(1.0000317,-0.00143223,-0.00143223,1.0646311,-46.596034,-27.593073)"
   gradientUnits="userSpaceOnUse"
   y2="265.11441"
   x2="217.42757"
   y1="265.11441"
   x1="15.309459"
   id="linearGradient935"
   xlink:href="#XMLID_5_"
   inkscape:collect="always" /></defs>
<g
   transform="matrix(0.07597082,0.23758495,-3.4282615,0.00526492,992.43104,13.29821)"
   id="g909"><g
     id="g931"><g
       transform="matrix(1.1500642,0.00248777,0.00248777,1.0378561,6.0526951,-8.6984247)"
       id="g1001"><g
         id="g966"><path
           id="path26"
           style="fill:url(#XMLID_4_);fill-rule:evenodd;stroke-width:0.4972"
           d="m -51.139041,284.40326 c 0.451337,-8.69179 0.859196,-18.38832 1.112423,-29.60309 0.253863,-11.22465 0.389238,-23.4089 0.446152,-37.17457 l -1.8e-5,1.2e-4 c 3.374422,-0.33607 6.44903,-0.49503 9.367463,-0.4758 2.881182,0.0456 5.354369,0.2688 7.707978,0.66943 l 6.527194,67.73879 c -1.788703,-0.2155 -3.793231,-0.4385 -6.554345,-0.66921 -2.799389,-0.19617 -6.558318,-0.6075 -9.654056,-0.68036 -3.094125,-0.0901 -6.12809,-0.003 -8.952745,0.19382 z" /><path
           id="path28"
           style="fill:#412318;fill-rule:evenodd;stroke-width:0.470086"
           d="m -35.628498,285.77676 -7.497423,-0.91025 -8.013074,-0.46412 c 1.493609,-0.29232 4.381278,-0.34729 8.707844,-0.19723 4.508749,0.18587 9.947018,0.52339 17.223097,1.14222 -0.224727,0.33851 -1.278935,0.53948 -3.016725,0.60449 -1.703217,0.0892 -4.255425,-7.4e-4 -7.404324,-0.17514 z" /><path
           id="path39"
           style="fill:url(#linearGradient935);fill-opacity:1;fill-rule:evenodd;stroke-width:0.404596"
           d="m -25.909502,284.34988 -5.708324,-65.37472 5e-6,-1.3e-4 c 4.501222,0.22011 8.344605,0.43754 11.921818,0.59382 3.527468,0.18978 6.180125,0.30017 9.075706,0.43497 2.821764,0.15855 5.9184611,0.0911 7.8609232,0.31766 1.81993967,0.24942 2.39305621,0.63343 3.40622039,0.97019 0.94011371,0.33471 1.57936971,0.94726 2.40571501,1.01741 0.7766243,0.10248 1.7129721,-0.21631 2.4275493,-0.49876 0.6419568,-0.27628 1.0926048,-0.67141 1.4493355,-1.18291 2.8270519,-0.0153 5.1659116,-0.002 7.2854186,0.0121 2.021851,0.0203 3.701567,0.0733 5.039158,0.15911 1.215055,0.10835 2.208369,0.29681 2.615854,0.51858 0.356943,0.28108 -0.190566,0.6562 -0.223405,0.93428 -0.05635,0.25072 -0.501457,0.46324 -0.02174,0.71368 0.404559,0.3178 1.921516,0.91449 2.598448,1.02351 0.58566,0.10541 0.616817,-0.25092 1.016183,-0.47338 0.298197,-0.23459 0.528792,-0.47182 1.047339,-0.8297 0.449893,-0.32567 1.09694,-0.68023 1.840783,-1.10108 2.117879,0.0233 4.626643,0.10252 7.521629,0.16805 2.921788,0.0748 7.402048,0.0943 9.690173,0.30596 2.185369,0.2519 2.214934,0.83674 3.397645,1.1181 1.114033,0.31404 2.593484,0.63092 3.419795,0.61344 0.80655,-0.0356 0.698613,-0.49187 1.24131,-0.75361 0.3991,-0.21399 0.183653,-0.47353 1.433192,-0.60849 1.195177,-0.12785 3.147976,-0.24 5.853366,-0.17225 2.629702,0.10892 7.613807,0.47547 9.89356,0.73942 2.184592,0.27777 2.546033,0.4112 3.410778,0.90959 0.735211,0.52867 0.927598,1.54567 1.34288,2.13372 0.401197,0.60552 0.942444,1.05811 1.37137,1.42049 -0.100752,-0.69214 0.01872,-1.28074 0.251265,-1.80476 0.231526,-0.48968 0.783631,-0.83803 1.256731,-1.25907 0.453062,-0.43016 0.783088,-0.82061 1.256691,-1.25847 3.944987,0.0377 7.550017,0.12485 10.909747,0.26608 3.332147,0.15772 6.325142,0.33915 9.072556,0.58289 0.762527,0.52057 1.376837,1.01929 1.754977,1.49313 0.39763,0.50057 0.55344,0.94124 0.56669,1.39483 1.10738,-0.35696 1.8975,-0.7416 2.27566,-1.15695 0.35786,-0.41571 0.37032,-0.82468 0.0396,-1.29702 4.25723,0.23029 8.39461,0.39554 12.51463,0.4646 4.14003,0.0786 8.77037,0.0595 11.91226,0.019 2.9991,-0.0187 3.81122,-0.23709 6.07004,-0.17424 2.16958,0.10314 4.76481,0.45534 7.04642,0.65788 2.16668,0.19938 2.74531,0.31326 6.44236,0.491 3.82524,0.19076 11.82871,0.53956 15.75131,0.64574 3.74598,0.12681 5.93876,0.13501 6.67199,0.0623 l -1.32294,63.4194 c -1.86597,-0.29374 -4.32365,-0.49479 -7.46107,-0.60112 -3.2393,-0.0948 -7.14173,0.0263 -11.33096,0.008 -4.26466,0.0125 -9.18717,0.0682 -13.71986,-0.007 -4.58012,-0.0745 -9.72017,-0.21009 -13.34418,-0.34146 -3.65289,-0.0717 -6.57649,-0.0866 -8.47297,-0.26753 -1.96463,-0.1661 -2.44162,-0.50558 -3.21469,-0.90278 -0.84031,-0.41145 -1.01404,-0.93013 -1.55856,-1.49686 -0.62025,-0.52553 -1.42644,-1.16829 -1.77539,-1.71188 -0.37681,-0.51784 -0.30693,-1.25641 -0.56454,-1.46545 -0.40799,-0.16056 -1.16934,-0.0539 -1.42419,0.3133 -0.20834,0.39528 0.0809,1.34367 -0.0573,1.88157 -0.21306,0.55006 -0.66453,0.92798 -1.25905,1.33525 -0.64948,0.43461 -0.80764,0.95977 -2.44476,1.15258 -1.66496,0.21855 -4.221581,0.15477 -7.677037,0.0457 -3.577185,-0.11296 -7.928684,-0.582 -13.529081,-0.71525 -5.770765,-0.0951 -14.014382,0.10705 -20.103192,0.009 -6.062356,-0.0777 -10.783286,-0.41792 -15.940973,-0.64133 -5.279619,-0.21996 -10.40906,-0.70388 -14.935292,-0.76934 -4.507069,-0.0286 -8.813646,0.47216 -11.931277,0.42698 -3.16572,-0.0661 -4.444001,-0.49861 -7.044286,-0.72838 -2.6992101,-0.18205 -5.4725576,-0.33014 -8.6862299,-0.42193 -0.4600558,-0.8957 -0.8773176,-1.59639 -1.1532297,-2.13766 -0.3495442,-0.52425 -0.61142726,-0.72618 -0.57573621,-1.09785 0.060084,-0.37334 0.31599511,-0.77437 0.86511631,-1.20246 -1.76306452,0.28325 -2.82125988,0.62506 -3.2730044,1.05622 -0.476605,0.44732 0.3357554,0.97649 0.5624633,1.53317 0.20207818,0.56559 0.45158237,1.17383 0.74844937,1.82713 -3.12078927,0.0589 -6.16670397,0.0595 -9.50283427,-0.0119 -3.3856185,-0.0464 -7.5727475,-0.17861 -10.2974065,-0.32514 -2.750036,-0.11346 -4.74341,-0.2466 -5.981477,-0.39948 z" /><path
           id="path54"
           style="fill:url(#XMLID_6_);fill-rule:evenodd;stroke-width:0.478597"
           d="m 163.34586,289.00065 c 1.57277,-17.51822 2.88753,-31.21138 3.73948,-41.94682 0.81524,-10.66321 1.38453,-17.73043 1.4691,-21.61191 l -1e-5,1e-4 c 2.58344,0.71969 5.10177,1.28966 7.84993,1.74226 2.63843,0.45723 5.3271,0.70178 8.20502,0.9411 2.7976,0.24802 5.75231,0.4119 8.85106,0.52407 l -10.44635,62.23713 c -3.25712,0.0885 -5.9804,0.10114 -8.29749,0.0223 -2.32174,-0.0308 -3.80823,-0.17285 -5.5697,-0.45137 -1.86879,-0.29927 -3.89529,-0.81802 -5.80102,-1.45664 z" /><path
           id="path56"
           style="fill:#412318;fill-rule:evenodd;stroke-width:0.646139"
           d="m 170.48366,227.14773 c 5.20871,0.90309 9.60822,1.46703 13.34001,1.76867 3.73439,0.29997 7.68824,0.32731 9.05764,0.0384 1.44583,-0.23183 1.40999,-0.71553 -0.21175,-1.45086 -2.04288,-0.26513 -4.38468,-0.52535 -6.68482,-0.70963 -2.38373,-0.18268 -4.7146,-0.28848 -7.3478,-0.39039 l -6.82753,-1.19145 c -2.44542,-0.20128 -3.70441,-0.10811 -3.91938,0.20488 -0.2602,0.33347 0.62694,0.8838 2.59363,1.73048 z" /></g></g></g></g>
<metadata
   id="metadata180"><rdf:RDF><cc:Work><dc:format>image/svg+xml</dc:format><dc:type
         rdf:resource="http://purl.org/dc/dcmitype/StillImage" /><cc:license
         rdf:resource="http://creativecommons.org/licenses/publicdomain/" /><dc:publisher><cc:Agent
           rdf:about="http://openclipart.org/"><dc:title>Openclipart</dc:title></cc:Agent></dc:publisher><dc:title>Parchment Background or Border</dc:title><dc:date>2010-04-27T15:11:53</dc:date><dc:description /><dc:source>https://openclipart.org/detail/57367/parchment-background-or-border-by-gerald_g-57367</dc:source><dc:creator><cc:Agent><dc:title>Gerald_G</dc:title></cc:Agent></dc:creator><dc:subject><rdf:Bag><rdf:li>background</rdf:li><rdf:li>border</rdf:li><rdf:li>paper</rdf:li><rdf:li>parchment</rdf:li><rdf:li>scroll</rdf:li></rdf:Bag></dc:subject></cc:Work><cc:License
       rdf:about="http://creativecommons.org/licenses/publicdomain/"><cc:permits
         rdf:resource="http://creativecommons.org/ns#Reproduction" /><cc:permits
         rdf:resource="http://creativecommons.org/ns#Distribution" /><cc:permits
         rdf:resource="http://creativecommons.org/ns#DerivativeWorks" /></cc:License></rdf:RDF></metadata></svg>
