<?xml version="1.0" encoding="UTF-8" standalone="no"?>
<svg
   xmlns:dc="http://purl.org/dc/elements/1.1/"
   xmlns:cc="http://creativecommons.org/ns#"
   xmlns:rdf="http://www.w3.org/1999/02/22-rdf-syntax-ns#"
   xmlns:svg="http://www.w3.org/2000/svg"
   xmlns="http://www.w3.org/2000/svg"
   xmlns:sodipodi="http://sodipodi.sourceforge.net/DTD/sodipodi-0.dtd"
   xmlns:inkscape="http://www.inkscape.org/namespaces/inkscape"
   width="151mm"
   height="183mm"
   viewBox="0 0 151 183"
   version="1.1"
   id="svg869"
   inkscape:version="1.0 (4035a4fb49, 2020-05-01)"
   sodipodi:docname="Council.svg">
  <defs
     id="defs863" />
  <sodipodi:namedview
     id="base"
     pagecolor="#ffffff"
     bordercolor="#666666"
     borderopacity="1.0"
     inkscape:pageopacity="0.0"
     inkscape:pageshadow="2"
     inkscape:zoom="0.8038193"
     inkscape:cx="487.91883"
     inkscape:cy="432.13432"
     inkscape:document-units="mm"
     inkscape:current-layer="g75"
     inkscape:document-rotation="0"
     showgrid="false"
     inkscape:window-width="1920"
     inkscape:window-height="1001"
     inkscape:window-x="-9"
     inkscape:window-y="-9"
     inkscape:window-maximized="1" />
  <metadata
     id="metadata866">
    <rdf:RDF>
      <cc:Work
         rdf:about="">
        <dc:format>image/svg+xml</dc:format>
        <dc:type
           rdf:resource="http://purl.org/dc/dcmitype/StillImage" />
        <dc:title></dc:title>
      </cc:Work>
    </rdf:RDF>
  </metadata>
  <g
     inkscape:label="Layer 1"
     inkscape:groupmode="layer"
     id="layer1">
    <g
       id="g75"
       transform="translate(-24.870843,-34.395849)">
      <path
         d="M 25.277459,34.417896 V 184.41789 H 176.1767 V 34.417896 Z m 73.284436,8.450567 c 2.736775,0 4.105285,1.359899 4.105285,4.080373 0,2.720468 1.36804,4.080816 4.10483,4.080816 2.28066,0 4.10527,1.360421 4.10527,3.060722 0,1.700294 -1.82461,3.060281 -4.10527,3.060281 -6.224,0 -5.49175,10.678366 1.18751,17.317805 l 5.29277,5.261235 6.75188,-4.148205 c 17.45416,-10.722986 42.10351,1.583217 45.55819,22.745093 1.60298,9.819237 -5.98394,26.248147 -17.56342,38.032387 l -8.66297,8.81616 2.1911,10.15777 c 4.2732,19.80639 8.27693,18.11812 -42.965175,18.11812 -42.686035,0 -45.156739,-0.20784 -45.156739,-3.80201 0,-2.09123 0.87538,-8.39234 1.94563,-14.00206 l 1.946077,-10.19961 -8.928815,-9.53057 C 26.413504,112.48173 25.992154,90.389775 47.226189,76.024149 56.091547,70.026387 69.319605,69.865683 76.73723,75.665616 l 5.412854,4.232332 6.039834,-4.742377 c 7.535356,-5.916661 8.986396,-18.004916 2.161418,-18.004916 -2.280649,0 -4.104835,-1.359987 -4.104835,-3.060281 0,-1.700301 1.824186,-3.060722 4.104835,-3.060722 2.73678,0 4.105279,-1.360348 4.105279,-4.080816 0,-2.720474 1.368496,-4.080373 4.10528,-4.080373 z"
         style="fill:#000000;stroke-width:0.177905"
         id="rect1655" />
      <text
         id="text1672"
         y="216.86273"
         x="99.719116"
         style="font-size:40.5694px;line-height:1.25;font-family:Garamond;-inkscape-font-specification:Garamond;stroke-width:0.264583"
         xml:space="preserve"><tspan
           id="tspan1674"
           style="font-size:40.5694px;text-align:center;text-anchor:middle;stroke-width:0.264583"
           y="216.86273"
           x="99.719116"
           sodipodi:role="line">Council</tspan></text>
    </g>
  </g>
</svg>
