<?xml version="1.0" encoding="UTF-8" standalone="no"?>
<svg
   xmlns:dc="http://purl.org/dc/elements/1.1/"
   xmlns:cc="http://creativecommons.org/ns#"
   xmlns:rdf="http://www.w3.org/1999/02/22-rdf-syntax-ns#"
   xmlns:svg="http://www.w3.org/2000/svg"
   xmlns="http://www.w3.org/2000/svg"
   xmlns:sodipodi="http://sodipodi.sourceforge.net/DTD/sodipodi-0.dtd"
   xmlns:inkscape="http://www.inkscape.org/namespaces/inkscape"
   width="150mm"
   height="183mm"
   viewBox="0 0 150 183"
   version="1.1"
   id="svg2100"
   inkscape:version="1.0 (4035a4fb49, 2020-05-01)"
   sodipodi:docname="Custom.svg">
  <defs
     id="defs2094" />
  <sodipodi:namedview
     id="base"
     pagecolor="#ffffff"
     bordercolor="#666666"
     borderopacity="1.0"
     inkscape:pageopacity="0.0"
     inkscape:pageshadow="2"
     inkscape:zoom="0.6092492"
     inkscape:cx="691.8213"
     inkscape:cy="499.31133"
     inkscape:document-units="mm"
     inkscape:current-layer="layer1"
     inkscape:document-rotation="0"
     showgrid="false"
     inkscape:window-width="1920"
     inkscape:window-height="1001"
     inkscape:window-x="-9"
     inkscape:window-y="-9"
     inkscape:window-maximized="1" />
  <metadata
     id="metadata2097">
    <rdf:RDF>
      <cc:Work
         rdf:about="">
        <dc:format>image/svg+xml</dc:format>
        <dc:type
           rdf:resource="http://purl.org/dc/dcmitype/StillImage" />
        <dc:title></dc:title>
      </cc:Work>
    </rdf:RDF>
  </metadata>
  <g
     inkscape:label="Layer 1"
     inkscape:groupmode="layer"
     id="layer1">
    <g
       id="g123"
       transform="translate(-25.929177,-23.283342)">
      <path
         sodipodi:nodetypes="cccccssssssccccccsccccscccccssssccs"
         d="M 26.958627,23.341564 V 173.27151 H 176.95863 V 23.341564 Z m 88.309793,12.778604 c 2.2316,0.01209 3.30587,0.04295 4.21777,0.482739 1.82385,0.879581 1.16758,3.462339 1.50958,6.313417 0.5675,4.731072 -0.5144,6.80015 3.85011,6.80015 4.65193,0 5.55686,-1.069936 5.55686,-6.570975 0,-6.504652 0.12684,-6.570973 12.55849,-6.570973 h 12.55851 l 0.0209,13.689498 c 0.0192,12.704504 -0.49702,14.097617 -7.1691,19.358641 l -7.18916,5.668783 2.20535,27.917122 c 1.21301,15.3543 3.21272,28.57353 4.4436,29.37628 10.33192,6.73839 11.63616,8.67987 13.12174,19.53017 l 1.57445,11.49929 H 105.15004 47.773026 l 1.647024,-11.48878 c 1.555677,-10.85029 2.804365,-12.68234 13.320201,-19.54068 1.230876,-0.80275 3.230579,-14.02198 4.443597,-29.37628 L 69.389201,75.291448 62.199685,69.622665 C 55.527617,64.361641 55.011859,62.968528 55.030963,50.264024 l 0.02079,-13.689498 H 67.61025 c 12.43168,0 12.558499,0.06631 12.558499,6.570973 0,5.548865 0.887993,6.570975 5.708442,6.570975 4.841204,0 5.708442,-1.015025 5.708442,-6.680485 v -6.68012 L 107.1437,36.235843 c 3.11139,-0.02395 5.89313,-0.127768 8.12472,-0.115675 z"
         style="fill:#000000;stroke-width:0.167382"
         id="rect2688" />
      <text
         id="text2694"
         y="205.06662"
         x="102.01347"
         style="font-size:40.5694px;line-height:1.25;font-family:Garamond;-inkscape-font-specification:Garamond;text-align:center;text-anchor:middle;stroke-width:0.264583"
         xml:space="preserve"><tspan
           id="tspan2696"
           style="font-size:40.5694px;stroke-width:0.264583"
           y="205.06662"
           x="102.01347"
           sodipodi:role="line">Custom</tspan></text>
    </g>
  </g>
</svg>
