<?xml version="1.0" encoding="UTF-8" standalone="no"?>
<svg
   xmlns:dc="http://purl.org/dc/elements/1.1/"
   xmlns:cc="http://creativecommons.org/ns#"
   xmlns:rdf="http://www.w3.org/1999/02/22-rdf-syntax-ns#"
   xmlns:svg="http://www.w3.org/2000/svg"
   xmlns="http://www.w3.org/2000/svg"
   xmlns:sodipodi="http://sodipodi.sourceforge.net/DTD/sodipodi-0.dtd"
   xmlns:inkscape="http://www.inkscape.org/namespaces/inkscape"
   inkscape:version="1.0 (4035a4fb49, 2020-05-01)"
   sodipodi:docname="game saved successfully.svg"
   id="svg1451"
   version="1.1"
   viewBox="0 0 1962.3949 183.28465"
   height="183.28465"
   width="1962.3949">
  <metadata
     id="metadata1457">
    <rdf:RDF>
      <cc:Work
         rdf:about="">
        <dc:format>image/svg+xml</dc:format>
        <dc:type
           rdf:resource="http://purl.org/dc/dcmitype/StillImage" />
        <dc:title></dc:title>
      </cc:Work>
    </rdf:RDF>
  </metadata>
  <defs
     id="defs1455" />
  <sodipodi:namedview
     inkscape:current-layer="svg1451"
     inkscape:window-maximized="1"
     inkscape:window-y="-9"
     inkscape:window-x="-9"
     inkscape:cy="403.22197"
     inkscape:cx="1315.1221"
     inkscape:zoom="0.78036177"
     fit-margin-bottom="0"
     fit-margin-right="0"
     fit-margin-left="0"
     fit-margin-top="0"
     showgrid="false"
     id="namedview1453"
     inkscape:window-height="1001"
     inkscape:window-width="1920"
     inkscape:pageshadow="2"
     inkscape:pageopacity="0"
     guidetolerance="10"
     gridtolerance="10"
     objecttolerance="10"
     borderopacity="1"
     bordercolor="#666666"
     pagecolor="#ffffff"
     inkscape:document-rotation="0"
     inkscape:snap-global="false" />
  <g
     transform="translate(0.06361736,154.34854)"
     id="fill-group">
    <path
       id="s1-fill"
       style="font-size:40px;font-family:Garamond;fill:#000000;stroke:none;stroke-width:4.92691;stroke-miterlimit:4;stroke-dasharray:none;stroke-opacity:1"
       d="m 592.84758,-141.90604 q 0.76983,6.35109 0.76983,7.31338 l -0.38479,8.56436 q -0.19265,5.48503 -0.48136,7.02469 -0.86605,0.38494 -1.44344,0.38494 l -0.86605,-0.19245 q -3.07932,-13.47201 -10.4889,-19.63065 -7.31341,-6.15864 -17.89857,-6.15864 -10.97006,0 -17.99475,6.15864 -7.02469,6.15864 -7.02469,14.33808 0,6.25486 4.90764,11.45121 4.9077,5.19635 25.11571,15.589049 15.39659,7.986984 22.03639,13.087104 6.63975,5.003892 10.00779,11.643671 3.36798,6.639784 3.36798,14.819223 0,10.296463 -5.3888,19.341963 -5.29259,9.0455 -14.3381,13.66448 -9.04546,4.52275 -23.96094,4.52275 -12.99088,0 -24.92321,-4.13784 -7.02469,-2.50194 -8.56435,-4.0416 -1.53966,-1.53966 -1.53966,-3.27178 0,-1.05851 0.19264,-2.6944 1.34717,-11.35499 1.44339,-18.66837 0.19264,-4.522748 0.67361,-5.292578 0.38479,-0.673602 1.44343,-0.673602 0.86605,0 1.34722,0.673602 0.57738,0.577375 0.76983,2.309489 1.05849,11.836129 10.97006,21.170319 9.81534,9.33418 22.22883,9.33418 7.60208,0 13.95321,-3.17555 6.4473,-3.17554 10.00778,-9.14173 3.65666,-6.0624 3.65666,-11.73989 0,-7.794528 -5.48503,-14.241853 -5.48494,-6.447358 -22.03625,-15.011711 -16.55136,-8.660586 -21.55523,-12.605962 -8.08323,-6.447324 -12.12483,-13.664474 -2.98309,-5.58127 -2.98309,-12.99088 0,-13.37579 10.58517,-22.61374 10.58512,-9.33418 28.38747,-9.33418 9.81529,0 16.93625,2.21326 5.19632,1.73211 10.68135,5.67749 z" />
    <path
       id="a2-fill"
       style="font-size:40px;font-family:Garamond;fill:#000000;stroke:none;stroke-width:4.92691;stroke-miterlimit:4;stroke-dasharray:none;stroke-opacity:1"
       d="m 688.88383,-36.24693 q 0.57739,1.25098 0.57739,1.82835 0,1.44343 -2.30949,5.10012 -2.9831,4.81143 -6.6398,7.02469 -2.30949,1.44344 -6.35108,1.44344 -6.92847,0 -10.39268,-4.23407 -2.11704,-2.50195 -2.98309,-8.94926 l -10.77762,7.50583 q -5.67752,3.27178 -8.66062,4.13784 -4.81142,1.25097 -11.54744,1.25097 -4.90765,0 -7.79452,-2.88686 -2.7906,-2.98309 -2.7906,-7.60207 0,-6.63978 8.08319,-15.87773 8.17945,-9.237958 22.13261,-15.107913 9.81534,-4.13783 12.02861,-5.292574 0.19264,-3.175551 0.19264,-6.928467 0,-12.221046 -3.46426,-16.551336 -3.36799,-4.330296 -9.71907,-4.330296 -6.6398,0 -12.41349,5.196353 -3.56049,3.271773 -5.38881,12.317273 -0.57739,2.501944 -2.21327,5.388808 -4.13786,2.694403 -6.6398,2.694403 -2.11704,0 -3.84915,-1.250972 -0.96227,-0.673602 -0.96227,-1.539659 0,-2.501949 5.29258,-11.258762 5.38881,-8.85304 13.472,-13.18333 8.17946,-4.426518 14.24187,-4.426518 8.27563,0 12.31727,1.53966 4.0416,1.443426 7.12092,5.196346 3.07931,3.752921 3.75292,8.179439 0.38479,2.117034 0.38479,15.10791 l -0.28871,15.300359 0.0961,11.162526 q 0,2.21327 -0.0961,3.75292 -0.0961,2.79064 -0.0961,4.13784 0,3.17555 1.82833,5.10012 1.82837,1.92457 4.33031,1.92457 3.6567,0 6.25486,-3.65668 l 1.15472,-1.53966 q 0.48136,-0.28867 2.11704,-0.67361 z m -28.29125,-2.79063 q 0.67361,-12.22104 0.67361,-17.224936 0,-2.598176 -0.28872,-7.024694 -6.4473,2.309489 -13.66448,7.024694 -7.21714,4.715206 -11.45123,10.873846 -3.07931,4.42652 -3.07931,8.37189 0,3.75293 2.50198,6.25487 2.59816,2.50195 6.4473,2.50195 2.9831,0 7.21714,-2.11704 5.5813,-2.79063 11.64366,-8.66058 z" />
    <path
       id="v-fill"
       style="font-size:40px;font-family:Garamond;fill:#000000;stroke:none;stroke-width:4.92691;stroke-miterlimit:4;stroke-dasharray:none;stroke-opacity:1"
       d="m 687.19982,-99.565414 q 10.68139,0.09622 18.6684,0.673602 5.67748,0 8.27563,-0.192445 1.82838,-0.09622 2.30949,-0.09622 l 10.77762,0.09622 q 2.21326,0.38494 3.56048,0.481162 0.57738,0.192445 1.05849,1.058517 0,0.962285 -0.57733,2.020802 -1.63588,0.481162 -3.36804,0.577369 -7.21713,0.76983 -12.12478,2.213262 -0.6736,0.481162 -0.6736,0.962289 0,0.962285 0.96227,2.983086 0.19264,0.481162 0.86605,2.309489 l 9.6229,23.094888 q 6.4473,15.877743 11.93233,26.751583 3.75293,-7.12093 6.92847,-14.72299 3.17554,-7.60207 9.33418,-23.960952 1.7321,-4.618977 3.27176,-11.451211 0.28872,-1.347205 0.28872,-2.309489 0,-1.154744 -1.34722,-2.501949 -1.25099,-1.443432 -4.33031,-2.309489 -0.67355,-0.09622 -8.75679,-1.443431 -0.67361,-0.38494 -1.25099,-1.058512 v -0.76983 q 0,-0.481162 0.0961,-1.250977 2.30949,-0.288667 3.36799,-0.288667 l 11.355,0.09622 q 1.15472,0 5.48503,-0.288667 15.30037,0 18.37969,0.288667 0.57733,0.192445 1.05849,1.154745 0,0.866057 -0.57738,1.924574 l -2.9831,0.769829 q -1.15472,0.09622 -1.82832,0.192445 -8.27568,0.76983 -10.20023,2.309489 -1.44344,1.058517 -4.52276,9.911558 -1.44344,4.33029 -4.23409,10.970074 l -5.00386,12.124814 q -1.0585,2.598176 -2.30949,5.677499 l -14.91543,34.44987 h -2.88688 q -0.86605,-2.30949 -2.11704,-4.81143 l -7.31336,-15.49282 -17.22497,-40.319831 q -5.19636,-11.739904 -6.25485,-12.702189 -1.0585,-0.962289 -12.31728,-4.041608 -0.57738,-1.539659 -0.57738,-2.213256 z" />
    <path
       id="e2-fill"
       style="font-size:40px;font-family:Garamond;fill:#000000;stroke:none;stroke-width:4.92691;stroke-miterlimit:4;stroke-dasharray:none;stroke-opacity:1"
       d="m 853.19434,-73.968577 -38.5877,0.288668 h -7.3134 q -4.42649,0 -9.04547,0.384939 -0.86605,2.886859 -0.86605,3.945376 l 0.0961,0.962284 v 0.96229 l -0.0961,4.715205 q 0,5.869949 3.65666,14.434305 3.75292,8.46813 10.58517,12.99087 6.92846,4.42653 17.22491,4.71521 5.48508,-0.28866 8.75685,-1.3472 3.27176,-1.05852 9.23795,-4.90767 l 6.92847,-5.67749 0.57738,3.84915 q 0,0.6736 -0.0961,1.44343 -4.33026,5.48504 -10.97006,9.62287 -6.63975,4.13784 -13.47199,6.06241 -3.27182,0.86606 -10.77762,0.86606 -6.83224,0 -13.47204,-2.79063 -9.81534,-4.23407 -15.49282,-13.56825 -5.58125,-9.43042 -5.58125,-22.806202 0,-4.234062 1.53966,-10.873846 1.63588,-6.63978 5.7737,-14.145616 2.79065,-5.100125 6.83224,-8.371898 5.77375,-4.618978 10.10401,-6.447324 6.25486,-2.598174 14.53054,-2.598174 8.94929,0 14.62676,3.271776 7.6983,4.33029 11.45122,11.162529 3.84915,6.832239 3.84915,12.509729 z m -53.69562,-3.464233 h 4.52275 q 4.9077,0 29.25353,-1.539659 3.84915,-0.192445 4.7152,-0.76983 1.73215,-1.828346 1.73215,-3.271778 0,-2.983086 -1.9246,-6.736007 -1.92455,-3.849148 -5.96619,-5.869949 -3.94537,-2.117034 -9.23795,-2.117034 -11.16251,0 -17.89853,8.371898 -5.19636,6.351092 -5.19636,11.932359 z" />
    <path
       id="d-fill"
       style="font-size:40px;font-family:Garamond;fill:#000000;stroke:none;stroke-width:4.92691;stroke-miterlimit:4;stroke-dasharray:none;stroke-opacity:1"
       d="m 929.16689,-93.021862 0.0961,-2.790631 -0.0961,-11.258757 0.0961,-21.26654 q 0,-8.85304 -1.92455,-11.25876 -1.9246,-2.40572 -11.25878,-4.90766 -0.6736,-0.19245 -2.11704,-0.57738 v -1.05851 q 0,-0.96229 0.19264,-2.11703 13.08711,-1.3472 22.51751,-4.52275 l 4.90764,-0.0962 q 0.38479,6.54355 0.38479,14.62676 l -0.38479,37.04805 0.67361,41.763256 -0.28872,22.228824 q 0,6.83224 0.96228,7.6983 1.92459,1.92457 8.46812,2.0208 1.34722,0 3.6567,0.19245 v 1.73212 q 0,0.6736 -0.0961,1.44343 -2.9831,0.6736 -6.15864,1.25097 l -13.95315,2.6944 q -3.07932,0.57737 -4.9077,0.57737 v -9.23795 q -1.63588,0.48116 -5.10009,1.92458 -15.0117,6.35109 -27.61764,6.35109 -7.60207,0 -15.49282,-4.90766 -7.89079,-5.00389 -12.12482,-13.85693 -4.23409,-8.853037 -4.23409,-18.090997 0,-8.275671 2.79065,-15.781507 2.79065,-7.602069 7.31336,-12.605962 2.88687,-3.271773 8.17945,-6.447324 5.29259,-3.271774 8.7568,-4.137831 8.56439,-2.213261 11.45122,-2.213261 12.99088,0 21.36278,3.849148 2.59816,1.250972 3.94537,1.732114 z m 0.0961,59.469342 q 0.38479,-6.44733 0.38479,-26.559124 0,-17.032479 -1.63588,-21.459001 -1.53966,-4.522751 -7.89079,-8.468126 -6.35108,-4.041603 -14.24182,-4.041603 -11.06629,0 -18.76458,8.564353 -7.6983,8.564353 -7.6983,25.30815 0,14.722991 8.27563,23.479801 8.37191,8.75681 20.7854,8.75681 7.12096,0 12.99088,-1.92457 5.86997,-1.92458 7.79452,-3.65669 z" />
    <path
       id="s2-fill"
       style="font-size:40px;font-family:Garamond;fill:#000000;stroke:none;stroke-width:4.92691;stroke-miterlimit:4;stroke-dasharray:none;stroke-opacity:1"
       d="m 1083.229,-141.90604 q 0.7699,6.35109 0.7699,7.31338 l -0.3848,8.56436 q -0.1927,5.48503 -0.4814,7.02469 -0.866,0.38494 -1.4434,0.38494 l -0.8661,-0.19245 q -3.0793,-13.47201 -10.4889,-19.63065 -7.3134,-6.15864 -17.8985,-6.15864 -10.9701,0 -17.9948,6.15864 -7.0247,6.15864 -7.0247,14.33808 0,6.25486 4.9077,11.45121 4.9077,5.19635 25.1157,15.589049 15.3966,7.986984 22.0363,13.087104 6.6398,5.003892 10.0078,11.643671 3.368,6.639784 3.368,14.819223 0,10.296463 -5.3888,19.341963 -5.2926,9.0455 -14.3381,13.66448 -9.0455,4.52275 -23.9609,4.52275 -12.9909,0 -24.9232,-4.13784 -7.0247,-2.50194 -8.5644,-4.0416 -1.5396,-1.53966 -1.5396,-3.27178 0,-1.05851 0.1926,-2.6944 1.3472,-11.35499 1.4434,-18.66837 0.1927,-4.522748 0.6737,-5.292578 0.3847,-0.673602 1.4433,-0.673602 0.8661,0 1.3473,0.673602 0.5773,0.577375 0.7698,2.309489 1.0585,11.836129 10.97,21.170319 9.8154,9.33418 22.2289,9.33418 7.6021,0 13.9531,-3.17555 6.4474,-3.17554 10.0078,-9.14173 3.6567,-6.0624 3.6567,-11.73989 0,-7.794528 -5.485,-14.241853 -5.485,-6.447324 -22.0364,-15.011677 -16.5513,-8.660586 -21.5552,-12.605961 -8.0832,-6.447324 -12.1248,-13.664469 -2.9831,-5.58127 -2.9831,-12.99088 0,-13.37579 10.5852,-22.61375 10.5851,-9.33418 28.3874,-9.33418 9.8153,0 16.9362,2.21326 5.1964,1.73212 10.6814,5.6775 z" />
    <path
       id="u1-fill"
       style="font-size:40px;font-family:Garamond;fill:#000000;stroke:none;stroke-width:4.92691;stroke-miterlimit:4;stroke-dasharray:none;stroke-opacity:1"
       d="m 1104.2069,-98.699352 h 7.2172 l 3.1755,0.192445 2.5019,-0.192445 q 9.9116,0 12.3173,0.192445 l 0.096,1.828347 q 0,13.568246 -0.3848,26.270434 -0.2887,7.505841 -0.2887,8.564353 0,16.936253 1.0585,21.170313 1.1547,4.23406 5.1963,6.83224 4.1379,2.50195 9.9116,2.50195 7.0247,0 13.3758,-2.88686 6.4473,-2.9831 10.97,-7.21716 0.4814,-3.65669 0.4814,-8.08321 0,-14.338074 0.2887,-19.341967 0.096,-2.983091 0.096,-5.196347 0,-15.589052 -1.5397,-17.609854 -1.5396,-2.020801 -11.7399,-3.079318 -3.3679,-0.38494 -4.9076,-0.673602 -0.7698,-1.250972 -0.7698,-1.924574 l 0.2887,-1.058517 q 2.5019,-0.288668 4.9076,-0.288668 l 15.3004,0.192445 q 8.1795,-0.192445 8.6606,-0.192445 1.0585,0 2.0208,0.09622 l 0.1926,7.024694 q -0.6735,14.626762 -0.7698,36.181991 l -0.1926,7.794522 0.3847,13.08711 q 0.8661,1.53966 1.5397,1.82834 1.1547,0.48117 4.7152,0.48117 h 0.8661 q 1.251,0 7.1209,0.57737 0.096,1.25097 0.096,1.82835 v 1.05851 q -12.8943,2.79064 -20.8813,5.58127 -3.1756,1.05851 -5.3888,1.53966 -0.4814,-3.36801 -0.4814,-4.13784 v -7.79452 q 0,-0.48116 -0.096,-2.59818 -1.2509,0.86606 -2.8868,2.11704 -7.6021,5.86994 -16.0702,9.91155 -5.6775,2.79063 -10.9701,2.79063 -10.104,0 -16.4551,-7.50584 -6.4473,-7.50583 -6.4473,-25.596833 0,-0.962289 0.096,-3.464233 0.3848,-4.618977 0.3848,-6.447324 0,-0.673602 -0.096,-4.234063 -0.096,-1.539659 -0.096,-2.694403 0,-0.866058 0.096,-3.849148 0.096,-3.079319 0.096,-4.330291 0,-1.635891 -0.096,-2.886863 l -0.1926,-5.10012 0.096,-2.694404 q 0,-1.539659 -1.5396,-2.790631 -6.0624,-1.635892 -7.987,-1.828347 -1.8284,-0.288667 -3.2718,-0.866057 z" />
    <path
       id="c1-fill"
       style="font-size:40px;font-family:Garamond;fill:#000000;stroke:none;stroke-width:4.92691;stroke-miterlimit:4;stroke-dasharray:none;stroke-opacity:1"
       d="m 1274.5317,-40.76968 0.096,6.25487 q -7.5059,7.98698 -14.8192,11.16253 -7.3134,3.17555 -17.225,3.17555 -10.7776,0 -19.4382,-5.58127 -8.6605,-5.67749 -13.3757,-15.97396 -4.619,-10.29647 -4.619,-20.20803 0,-10.873842 5.5812,-20.496712 5.6775,-9.719098 14.9155,-14.434308 9.3341,-4.81143 23.3836,-4.81143 13.472,0 20.4967,4.618975 3.9453,2.694404 3.9453,6.928466 0,3.079319 -2.0207,5.10012 -2.0209,2.020802 -5.1964,2.020802 -4.8114,0 -10.5852,-5.966177 -3.5604,-3.656693 -6.4473,-5.003893 -2.8869,-1.443431 -6.4473,-1.443431 -8.5644,0 -14.2419,7.024694 -7.8907,10.007784 -7.8907,25.115694 0,15.58905 8.0832,24.827 8.0832,9.23796 18.8608,9.23796 7.5059,0 13.2796,-2.40572 5.87,-2.50194 13.6645,-9.14173 z" />
    <path
       id="c2-fill"
       style="font-size:40px;font-family:Garamond;fill:#000000;stroke:none;stroke-width:4.92691;stroke-miterlimit:4;stroke-dasharray:none;stroke-opacity:1"
       d="m 1356.5186,-40.76968 0.096,6.25487 q -7.5058,7.98698 -14.8192,11.16253 -7.3133,3.17555 -17.2249,3.17555 -10.7776,0 -19.4382,-5.58127 -8.6606,-5.67749 -13.3758,-15.97396 -4.619,-10.29647 -4.619,-20.20803 0,-10.873842 5.5813,-20.496712 5.6775,-9.719098 14.9154,-14.434308 9.3342,-4.81143 23.3836,-4.81143 13.472,0 20.4967,4.618975 3.9454,2.694404 3.9454,6.928466 0,3.079319 -2.0208,5.10012 -2.0208,2.020802 -5.1963,2.020802 -4.8115,0 -10.5852,-5.966177 -3.5605,-3.656693 -6.4474,-5.003893 -2.8868,-1.443431 -6.4473,-1.443431 -8.5643,0 -14.2418,7.024694 -7.8908,10.007784 -7.8908,25.115694 0,15.58905 8.0833,24.827 8.0832,9.23796 18.8608,9.23796 7.5058,0 13.2796,-2.40572 5.8699,-2.50194 13.6644,-9.14173 z" />
    <path
       id="e3-fill"
       style="font-size:40px;font-family:Garamond;fill:#000000;stroke:none;stroke-width:4.92691;stroke-miterlimit:4;stroke-dasharray:none;stroke-opacity:1"
       d="m 1437.8318,-73.968577 -38.5877,0.288668 h -7.3134 q -4.4265,0 -9.0454,0.384939 -0.8661,2.886859 -0.8661,3.945376 l 0.096,0.962284 v 0.96229 l -0.096,4.715205 q 0,5.869949 3.6567,14.434305 3.7529,8.46813 10.5851,12.99087 6.9285,4.42653 17.2249,4.71521 5.4851,-0.28866 8.7569,-1.3472 3.2717,-1.05852 9.2379,-4.90767 l 6.9285,-5.67749 0.5773,3.84915 q 0,0.6736 -0.096,1.44343 -4.3303,5.48504 -10.9701,9.62287 -6.6398,4.13784 -13.472,6.06241 -3.2718,0.86606 -10.7776,0.86606 -6.8322,0 -13.472,-2.79063 -9.8154,-4.23407 -15.4929,-13.56825 -5.5812,-9.43042 -5.5812,-22.806202 0,-4.234062 1.5396,-10.873846 1.6359,-6.63978 5.7737,-14.145616 2.7907,-5.100125 6.8323,-8.371898 5.7737,-4.618978 10.104,-6.447324 6.2549,-2.598174 14.5305,-2.598174 8.9493,0 14.6268,3.271776 7.6983,4.33029 11.4512,11.162529 3.8492,6.832239 3.8492,12.509729 z m -53.6956,-3.464233 h 4.5227 q 4.9077,0 29.2536,-1.539659 3.8491,-0.192445 4.7152,-0.76983 1.7321,-1.828346 1.7321,-3.271778 0,-2.983086 -1.9246,-6.736007 -1.9246,-3.849148 -5.9662,-5.869949 -3.9453,-2.117034 -9.2379,-2.117034 -11.1625,0 -17.8985,8.371898 -5.1964,6.351092 -5.1964,11.932359 z" />
    <path
       id="s3-fill"
       style="font-size:40px;font-family:Garamond;fill:#000000;stroke:none;stroke-width:4.92691;stroke-miterlimit:4;stroke-dasharray:none;stroke-opacity:1"
       d="m 1457.5587,-47.60192 q 3.5605,9.14173 5.3888,11.83614 3.6567,5.48503 8.7568,8.56435 5.1002,2.98309 11.0663,2.98309 5.485,0 10.8738,-4.7152 3.8492,-3.56047 3.8492,-8.27568 0,-6.25486 -4.5227,-11.54744 -4.5228,-5.19635 -17.225,-9.911552 -12.6059,-4.811438 -16.9362,-10.200245 -4.3303,-5.388807 -4.3303,-12.317274 0,-6.543551 3.5604,-11.547444 3.5605,-5.003892 9.8154,-7.505835 6.2548,-2.59818 11.5474,-2.59818 6.8323,0 12.2211,1.05852 5.485,1.05851 9.4304,3.271773 0.7698,4.907665 1.251,14.434308 l 0.1926,3.079318 q -1.251,0.09622 -2.117,0.09622 h -1.3473 q -2.8868,-7.986984 -8.853,-12.605961 -5.8699,-4.715205 -11.6436,-4.715205 -5.7738,0 -9.3342,3.56046 -3.5605,3.464234 -3.5605,9.141728 0,4.33029 2.8869,7.698296 2.8869,3.368006 13.472,7.698296 10.6814,4.330291 15.4928,8.083211 4.9077,3.656688 7.2172,8.949276 2.3095,5.29258 2.3095,10.10401 0,6.63978 -4.4266,12.4135 -4.3303,5.77373 -10.97,8.08321 -6.5438,2.40573 -11.7401,2.40573 -12.2211,0 -22.5176,-4.52275 -0.9622,-0.76983 -1.0585,-2.88686 0,-0.86606 -0.1926,-2.79064 -1.5397,-12.99087 -1.5397,-15.39659 0,-1.15475 0.4809,-1.53966 0.4814,-0.38494 2.502,-0.38494 z" />
    <path
       id="s4-fill"
       style="font-size:40px;font-family:Garamond;fill:#000000;stroke:none;stroke-width:4.92691;stroke-miterlimit:4;stroke-dasharray:none;stroke-opacity:1"
       d="m 1529.5378,-47.60192 q 3.5604,9.14173 5.3888,11.83614 3.6567,5.48503 8.7568,8.56435 5.1001,2.98309 11.0663,2.98309 5.485,0 10.8738,-4.7152 3.8492,-3.56047 3.8492,-8.27568 0,-6.25486 -4.5228,-11.54744 -4.5227,-5.19635 -17.2249,-9.911552 -12.606,-4.811438 -16.9362,-10.200245 -4.3304,-5.388807 -4.3304,-12.317274 0,-6.543551 3.5605,-11.547444 3.5605,-5.003892 9.8153,-7.505835 6.2549,-2.59818 11.5475,-2.59818 6.8322,0 12.221,1.05852 5.485,1.05851 9.4305,3.271773 0.7698,4.907665 1.2509,14.434308 l 0.1926,3.079318 q -1.2509,0.09622 -2.1169,0.09622 h -1.3475 q -2.8868,-7.986984 -8.853,-12.605961 -5.8699,-4.715205 -11.6437,-4.715205 -5.7737,0 -9.3342,3.56046 -3.5604,3.464234 -3.5604,9.141728 0,4.33029 2.8868,7.698296 2.8869,3.368006 13.4721,7.698296 10.6814,4.330291 15.4928,8.083211 4.9076,3.656688 7.2171,8.949276 2.3095,5.29258 2.3095,10.10401 0,6.63978 -4.4265,12.4135 -4.3303,5.77373 -10.9701,8.08321 -6.5435,2.40573 -11.7399,2.40573 -12.221,0 -22.5175,-4.52275 -0.9623,-0.76983 -1.0585,-2.88686 0,-0.86606 -0.1927,-2.79064 -1.5396,-12.99087 -1.5396,-15.39659 0,-1.15475 0.4813,-1.53966 0.4809,-0.38494 2.502,-0.38494 z" />
    <path
       id="f-fill"
       style="font-size:40px;font-family:Garamond;fill:#000000;stroke:none;stroke-width:4.92691;stroke-miterlimit:4;stroke-dasharray:none;stroke-opacity:1"
       d="m 1622.9758,-98.121982 q 23.961,0.577375 25.5007,0.577375 0.1926,2.117029 0.1926,3.175546 0,1.250971 -0.2887,3.75292 -2.4057,0.38494 -4.9077,0.38494 h -3.6567 q -11.9323,0 -16.5513,0.866057 -0.1926,2.213261 -0.1926,3.368005 0,0.481162 0.096,1.443427 0.4808,15.10791 0.4808,18.283456 l -0.1926,24.730776 q 0,5.48503 1.8283,9.14173 1.0586,2.11703 3.9454,3.368 1.8284,0.86606 8.8531,1.73212 5.2925,0.76983 7.1209,1.05851 0,2.02081 -0.2888,3.07932 l -1.3472,0.0962 q -4.6189,-0.28866 -12.0285,-0.48116 l -7.121,-0.28866 -24.2496,0.76982 h -3.1755 l -0.096,-2.98309 q 1.4434,-0.28866 2.117,-0.48116 8.2757,-1.53966 10.6814,-3.46423 0.9623,-0.76983 1.3472,-2.79063 0.1926,-1.15475 0.1926,-10.77762 0,-27.425176 -0.4808,-43.784057 -2.502,-0.76983 -7.6983,-0.962285 -1.9246,0 -6.0624,-0.384939 l -0.1927,-1.058517 q 0,-1.154745 0.9623,-1.924574 0.3848,-0.38494 8.0832,-4.041608 2.9831,-1.3472 4.2341,-3.368001 0.6736,-1.058519 0.7698,-4.426519 0.096,-1.53966 0.5774,-5.29258 1.1547,-9.91156 1.8284,-12.22105 1.7321,-6.44732 5.7737,-12.79841 4.1378,-6.44733 9.9115,-11.25876 4.2341,-3.46424 9.5267,-5.19635 5.3888,-1.73212 12.221,-1.73212 9.1417,0 13.3758,2.98309 2.8869,2.0208 2.8869,5.19635 0,2.69441 -2.0208,4.61898 -2.0209,1.92458 -5.004,1.92458 -3.6566,0 -7.8907,-1.82835 -7.987,-3.17555 -9.0455,-3.46423 -1.8283,-0.48117 -3.7529,-0.48117 -5.2926,0 -9.7191,3.368 -4.3303,3.36801 -5.485,8.27568 -1.1548,4.90766 -1.1548,22.03637 0,6.15863 0.096,11.258754 z" />
    <path
       id="u-fill"
       style="font-size:40px;font-family:Garamond;fill:#000000;stroke:none;stroke-width:4.92691;stroke-miterlimit:4;stroke-dasharray:none;stroke-opacity:1"
       d="m 1654.2502,-98.699352 h 7.2171 l 3.1756,0.192445 2.5019,-0.192445 q 9.9116,0 12.3173,0.192445 l 0.096,1.828347 q 0,13.568246 -0.3848,26.270434 -0.2887,7.505841 -0.2887,8.564353 0,16.936253 1.0585,21.170313 1.1547,4.23406 5.1963,6.83224 4.1379,2.50195 9.9116,2.50195 7.0247,0 13.3758,-2.88686 6.4473,-2.9831 10.9701,-7.21716 0.4808,-3.65669 0.4808,-8.08321 0,-14.338074 0.2887,-19.341967 0.096,-2.983091 0.096,-5.196347 0,-15.589052 -1.5396,-17.609854 -1.5397,-2.020801 -11.7399,-3.079318 -3.3681,-0.38494 -4.9077,-0.673602 -0.7699,-1.250972 -0.7699,-1.924574 l 0.2888,-1.058517 q 2.5019,-0.288668 4.9076,-0.288668 l 15.3004,0.192445 q 8.1794,-0.192445 8.6606,-0.192445 1.0584,0 2.0208,0.09622 l 0.1926,7.024694 q -0.6736,14.626762 -0.7698,36.181991 l -0.1927,7.794522 0.3848,13.08711 q 0.8661,1.53966 1.5397,1.82834 1.1548,0.48117 4.7152,0.48117 h 0.866 q 1.251,0 7.121,0.57737 0.096,1.25097 0.096,1.82835 v 1.05851 q -12.894,2.79064 -20.8809,5.58127 -3.1756,1.05851 -5.3889,1.53966 -0.4813,-3.36801 -0.4813,-4.13784 v -7.79452 q 0,-0.48116 -0.096,-2.59818 -1.251,0.86606 -2.8869,2.11704 -7.602,5.86994 -16.0702,9.91155 -5.6774,2.79063 -10.97,2.79063 -10.104,0 -16.4551,-7.50584 -6.4474,-7.50583 -6.4474,-25.596833 0,-0.962289 0.096,-3.464233 0.3848,-4.618977 0.3848,-6.447324 0,-0.673602 -0.096,-4.234063 -0.096,-1.539659 -0.096,-2.694403 0,-0.866058 0.096,-3.849148 0.096,-3.079319 0.096,-4.330291 0,-1.635891 -0.096,-2.886863 l -0.1926,-5.10012 0.096,-2.694404 q 0,-1.539659 -1.5397,-2.790631 -6.0624,-1.635892 -7.987,-1.828347 -1.8283,-0.288667 -3.2718,-0.866057 z" />
    <path
       id="l1-fill"
       style="font-size:40px;font-family:Garamond;fill:#000000;stroke:none;stroke-width:4.92691;stroke-miterlimit:4;stroke-dasharray:none;stroke-opacity:1"
       d="m 1752.6921,-142.38719 v -2.11702 q 2.6944,-0.86606 5.9662,-1.82835 4.8114,-1.53966 14.2418,-4.7152 h 4.5228 q 0.096,4.61897 0.096,5.29258 0,79.003757 -0.4809,94.20789 -0.2887,8.94927 -0.2887,9.52664 0,10.77762 0.866,12.02859 1.1548,1.73212 7.0247,2.40571 5.9662,0.67361 7.0248,1.34721 0.7698,0.38494 0.7698,1.3472 0,1.05852 -0.4814,1.53966 -0.3847,0.38494 -1.5396,0.38494 -0.6736,0 -10.104,-0.28867 l -12.606,-0.38494 -16.1664,0.6736 q -1.5397,0.0962 -2.3095,-0.57737 -0.5774,-0.48116 -0.5774,-1.34721 0,-0.96228 0.5774,-1.3472 0.6736,-0.48116 6.9284,-1.53966 6.3512,-1.05851 7.2172,-1.73211 0.9623,-0.76983 1.251,-3.27178 0.3848,-3.46423 0.3848,-19.53443 l -0.096,-22.132594 0.2887,-22.902434 -0.096,-22.902432 0.2887,-11.25875 q 0,-3.36801 -1.0585,-4.81144 -1.0585,-1.53966 -4.5227,-2.98309 -5.1964,-2.11703 -7.1209,-3.07932 z" />
    <path
       id="l2-fill"
       style="font-size:40px;font-family:Garamond;fill:#000000;stroke:none;stroke-width:4.92691;stroke-miterlimit:4;stroke-dasharray:none;stroke-opacity:1"
       d="m 1797.7271,-142.38719 v -2.11702 q 2.6945,-0.86606 5.9662,-1.82835 4.8115,-1.53966 14.2419,-4.7152 h 4.5228 q 0.096,4.61897 0.096,5.29258 0,79.003757 -0.4813,94.20789 -0.2887,8.94927 -0.2887,9.52664 0,10.77762 0.866,12.02859 1.1547,1.73212 7.0247,2.40571 5.9662,0.67361 7.0247,1.34721 0.7698,0.38494 0.7698,1.3472 0,1.05852 -0.4813,1.53966 -0.3848,0.38494 -1.5397,0.38494 -0.6736,0 -10.104,-0.28867 l -12.6059,-0.38494 -16.1665,0.6736 q -1.5396,0.0962 -2.3095,-0.57737 -0.5773,-0.48116 -0.5773,-1.34721 0,-0.96228 0.5773,-1.3472 0.6736,-0.48116 6.9285,-1.53966 6.3511,-1.05851 7.2171,-1.73211 0.9624,-0.76983 1.251,-3.27178 0.3848,-3.46423 0.3848,-19.53443 l -0.096,-22.132594 0.2888,-22.902434 -0.096,-22.902432 0.2887,-11.25875 q 0,-3.36801 -1.0585,-4.81144 -1.0585,-1.53966 -4.5227,-2.98309 -5.1964,-2.11703 -7.121,-3.07932 z" />
    <path
       id="y-fill"
       style="font-size:40px;font-family:Garamond;fill:#000000;stroke:none;stroke-width:4.92691;stroke-miterlimit:4;stroke-dasharray:none;stroke-opacity:1"
       d="m 1838.913,-98.988039 q 2.1171,-0.192445 3.5605,-0.192445 h 4.619 l 6.2549,-0.192445 8.1794,0.288667 6.6398,-0.192445 q 5.2926,0 9.5266,0.673602 0.3848,0.962285 0.3848,1.53966 l -0.096,0.769829 q -2.0208,0.962285 -6.2548,1.3472 -5.9662,0.481162 -8.5644,2.117033 l -0.1927,1.058517 q 0,0.962285 0.7698,2.886859 0.4814,1.154744 1.251,3.464233 2.1171,7.120927 9.1418,27.521411 5.1001,14.722993 9.4304,25.308143 2.6943,-5.77372 6.1586,-14.62676 l 8.1795,-22.806202 q 2.6943,-7.505836 4.1378,-15.011677 0.5774,-2.983091 0.5774,-4.715205 0,-1.443432 -1.251,-2.694404 -1.251,-1.250972 -5.0039,-2.117034 -6.8322,-1.732114 -7.4096,-2.117029 -0.5774,-0.481162 -0.6736,-1.924574 0.5774,-0.481162 1.3472,-0.769829 h 5.9662 l 6.4473,0.09622 9.6228,-0.09622 6.1587,0.09622 1.5396,-0.09622 q 0.6736,0 2.2133,0.192445 0.9623,0.481162 0.9623,1.539659 0,0.96229 -0.8661,1.732119 l -1.9245,0.288668 q -5.5813,0.769829 -8.5644,2.886858 -1.6359,1.154745 -2.7906,4.811438 -0.3848,1.347199 -1.251,3.464233 -0.4813,1.154745 -1.4434,3.849148 -0.8661,2.694404 -2.3095,6.351092 l -1.1548,2.694404 -0.096,0.481162 -16.3588,43.110458 -11.9324,32.42907 q -1.1547,2.40572 -2.6944,5.96618 -3.6567,6.83224 -4.3303,7.50584 -2.8869,3.56046 -5.0039,5.00389 l -4.9077,2.11704 q -1.4434,0.38493 -3.0793,0.38493 -4.3302,0 -6.3511,-1.92457 -2.0208,-1.82835 -2.0208,-5.10012 0,-3.07932 2.9831,-5.58127 0.9623,-0.28866 1.9246,-0.76983 l 1.251,-0.28866 q 8.5644,1.53966 10.6814,1.53966 2.0208,-1.05852 2.9831,-2.50195 4.7152,-7.0247 8.0832,-15.68528 3.368,-8.66058 3.368,-11.64367 0,-3.27178 -2.502,-9.52664 l -10.6813,-28.291228 q -2.2133,-5.485034 -13.1833,-35.797077 -0.6736,-1.924574 -1.7321,-2.886863 l -6.5436,-2.405716 -2.0208,-0.38494 q -1.6359,-0.673602 -1.6359,-1.924574 z" />
    <path
       sodipodi:nodetypes="sscccscscscccss"
       id="exclaim-fill"
       style="font-size:40px;font-family:Garamond;fill:#000000;stroke:none;stroke-width:4.92691;stroke-miterlimit:4;stroke-dasharray:none;stroke-opacity:1"
       d="m 1943.1287,-51.06615 c -0.6415,0.1283 -1.1226,0.19245 -1.4434,0.19245 -0.4489,0 -1.1227,-0.0962 -2.0208,-0.28867 l -3.0793,-55.42773 c -0.1927,-3.84915 -0.7378,-8.75681 -1.6359,-14.72299 -1.2831,-7.95491 -1.9246,-13.66448 -1.9246,-17.12871 0,-3.46423 0.8019,-6.06241 2.4057,-7.79453 1.6038,-1.79627 3.5605,-2.6944 5.87,-2.6944 2.5019,0 4.619,0.89813 6.3511,2.6944 1.7321,1.73212 2.5982,4.20199 2.5982,7.40962 0,2.95101 -0.6416,9.9757 -1.9246,21.07408 -2.502,21.298619 -3.8171,35.123477 -3.9454,41.474569 l -0.7698,23.094891 c -0.064,0.51322 -0.2247,1.2189 -0.4814,2.11703 z" />
    <path
       id="crown-fill"
       d="m 1927.8721,-7.00629 c 0,-0.62772 0.2611,-2.51901 0.5806,-4.20287 l 0.5807,-3.06156 -2.6642,-2.86087 c -6.5508,-7.03441 -6.6764,-13.66567 -0.3405,-17.97776 2.6453,-1.80032 6.5922,-1.84856 8.8055,-0.10761 l 1.6151,1.27038 1.8021,-1.42349 c 2.2483,-1.77599 2.6814,-5.4044 0.645,-5.4044 -0.6806,0 -1.2249,-0.40829 -1.2249,-0.91868 0,-0.51036 0.5443,-0.91866 1.2249,-0.91866 0.8165,0 1.2249,-0.4083 1.2249,-1.2249 0,-0.81659 0.4084,-1.2249 1.2249,-1.2249 0.8165,0 1.2248,0.4083 1.2248,1.2249 0,0.81659 0.4085,1.2249 1.225,1.2249 0.6805,0 1.2248,0.40829 1.2248,0.91866 0,0.51038 -0.5443,0.91868 -1.2248,0.91868 -1.8572,0 -1.6387,3.20526 0.3542,5.1982 l 1.5792,1.57919 2.0146,-1.24513 c 5.208,-3.21869 12.5628,0.47525 13.5935,6.82733 0.4784,2.94742 -1.7854,7.8789 -5.2405,11.41614 l -2.5849,2.64631 0.654,3.04897 c 1.275,5.94523 2.4695,5.43848 -12.82,5.43848 -12.7365,0 -13.4739,-0.0624 -13.4739,-1.1413 z m 25.1103,-1.61472 c 0,-0.78436 -1.7012,-0.91867 -11.6364,-0.91867 -9.9353,0 -11.6366,0.13431 -11.6366,0.91867 0,0.78436 1.7013,0.91868 11.6366,0.91868 9.9352,0 11.6364,-0.13431 11.6364,-0.91868 z m -20.2905,-3.77081 c -1.1076,-1.33461 -2.37,-0.96418 -2.37,0.69545 0,1.39565 0.1232,1.46193 1.5263,0.82255 1.1845,-0.53969 1.3734,-0.87968 0.8437,-1.518 z m 19.6781,0.70858 c 0,-1.63419 -1.1125,-2.01099 -2.3332,-0.79028 -0.5795,0.5795 -0.4395,0.90824 0.6431,1.50942 0.7611,0.42273 1.4528,0.77834 1.5369,0.79027 0.084,0.0118 0.1533,-0.6673 0.1533,-1.50941 z m -7.9618,-1.17019 c 0,-0.12105 -0.689,-0.67151 -1.5311,-1.22329 -1.4223,-0.93185 -1.6441,-0.92921 -3.119,0.0375 l -1.5879,1.04044 1.4123,1.06538 c 1.2619,0.95184 1.5943,0.97133 3.1191,0.18284 0.9386,-0.4854 1.7066,-0.98155 1.7066,-1.10258 z m -7.0486,-3.4818 c 3.7604,-0.64374 8.2184,-0.34971 11.8593,0.78217 1.9799,0.61551 2.1751,0.51993 5.3587,-2.6241 5.4495,-5.38184 6.5095,-10.68004 2.8374,-14.18305 -2.7905,-2.66213 -4.7339,-3.09718 -7.7922,-1.74436 -2.9204,1.29187 -5.1313,4.4192 -6.806,9.62736 -0.5297,1.64715 -1.1053,3.40822 -1.2791,3.91349 -0.1739,0.50527 -0.7133,-0.59604 -1.1986,-2.44735 -1.4248,-5.43422 -3.9269,-9.28045 -7.1008,-10.91499 -2.5497,-1.3131 -2.914,-1.35381 -4.8555,-0.54262 -1.1545,0.48235 -2.844,1.76243 -3.7546,2.84461 -3.0292,3.59991 -1.8659,8.10869 3.5405,13.72251 2.2491,2.33547 3.1425,2.88589 4.1901,2.58144 0.7324,-0.21285 2.9827,-0.66963 5.0008,-1.01511 z m -8.0517,-3.7571 c -3.1194,-3.23999 -3.8856,-4.7031 -3.8856,-7.41983 0,-1.62593 0.4454,-2.50427 1.8843,-3.71495 1.0364,-0.87206 2.4469,-1.58556 3.1343,-1.58556 1.9769,0 5.6795,4.22228 7.1364,8.1379 1.9501,5.24114 1.8307,5.73255 -1.5155,6.23433 -1.5588,0.23378 -3.1497,0.54608 -3.5353,0.69405 -0.3857,0.14795 -1.8339,-0.90773 -3.2186,-2.34594 z m 17.6387,1.80106 -3.2797,-0.62884 0.3547,-2.18479 c 0.5939,-3.65968 3.9433,-9.77786 5.9095,-10.79462 2.4375,-1.2605 3.2807,-1.15655 5.4543,0.67241 2.0459,1.72153 2.5254,4.5905 1.2004,7.18207 -0.7664,1.49888 -5.5124,6.58796 -6.0274,6.46309 -0.1823,-0.0443 -1.8077,-0.36346 -3.6116,-0.70932 z m -4.9882,-8.57365 c 0,-0.43406 0.5484,-1.86476 1.2186,-3.17937 1.1071,-2.17166 1.1339,-2.51946 0.2922,-3.80418 -1.1415,-1.74215 -2.7983,-1.81167 -4.2756,-0.17939 -1.0835,1.1974 -1.0772,1.31477 0.2114,3.89488 0.7307,1.46315 1.3286,2.97459 1.3286,3.35875 0,0.38415 0.2754,0.69848 0.6125,0.69848 0.337,0 0.6124,-0.35514 0.6124,-0.78918 z m -1.4857,-4.51905 c -0.5023,-1.30906 0.6189,-2.54043 1.5058,-1.6536 0.6659,0.66591 0.1907,2.67468 -0.6325,2.67468 -0.2646,0 -0.6578,-0.45948 -0.8733,-1.02108 z"
       style="fill:#1a1a1a;fill-opacity:1;stroke:none;stroke-width:0.612449;stroke-opacity:1" />
    <path
       id="g-fill"
       style="font-size:190.124px;line-height:0.5;font-family:Garamond;-inkscape-font-specification:Garamond;text-align:center;text-anchor:middle;fill:#000000;fill-opacity:1;stroke:none;stroke-width:1.58437"
       d="m 116.29653,-137.38359 1.02117,14.11077 q 0.55701,6.40554 0.55701,8.72639 l -2.59935,0.46417 q -6.21988,-14.11077 -15.503278,-21.16615 -9.190564,-7.05538 -22.558657,-7.05538 -16.338781,0 -25.436511,3.99186 -13.182425,5.66287 -22.558657,19.68081 -9.376232,14.01793 -9.376232,33.791564 0,11.41858 3.434857,20.51631 3.434857,9.09773 9.654734,16.988616 6.312711,7.79806 14.853437,13.55376 5.570039,3.8062 13.275259,5.75571 4.363197,1.02117 12.996757,1.02117 5.570039,0 12.34692,-1.57817 6.77688,-1.57818 10.211738,-4.17753 3.434853,-2.69219 4.641703,-6.03421 1.29967,-3.34202 1.29967,-12.99676 0,-16.060277 -2.13518,-18.659629 -2.135182,-2.692185 -13.460927,-3.527691 l -3.713359,-0.278502 -2.506518,0.09283 q -0.557004,-0.09283 -1.485344,-0.278502 l -1.392509,-2.320849 q 0,-0.46417 0.649837,-1.206842 4.827367,-0.742672 20.98048,-0.742672 3.62053,0 11.78992,0.185668 l 9.5619,0.371336 8.63356,-0.09283 q 2.50651,0 6.0342,0.185668 0.64984,0.09283 0.83551,0.371336 0.18567,0.185668 0.18567,0.742672 0,1.021174 -0.46417,2.599351 -3.89903,0.835506 -6.03421,0.835506 l -6.03421,-0.09283 q -3.06352,0 -4.9202,2.135182 -0.92834,1.021173 -0.92834,6.962548 l 0.0928,12.16125 q 0,12.53259 -1.02117,15.96744 -0.557,2.04235 -2.32085,3.71336 -1.76384,1.57818 -7.42672,3.80619 -8.076554,3.24919 -14.667766,4.3632 -12.254086,2.13518 -23.672666,2.13518 -18.381128,0 -30.171043,-4.6417 -11.697052,-4.73453 -20.237778,-13.08959 -8.447892,-8.35506 -12.0684178,-16.895781 -5.4772048,-12.532588 -5.4772048,-25.529345 0,-16.245947 8.5407262,-31.749224 8.6335604,-15.59611 27.7573604,-25.34367 13.460927,-6.86972 36.576588,-6.86972 15.967445,0 26.086351,2.78502 10.21174,2.78502 16.15311,6.31271 z" />
    <path
       id="a1-fill"
       style="font-size:202.378px;line-height:0.5;font-family:Garamond;-inkscape-font-specification:Garamond;text-align:center;text-anchor:middle;fill:#000000;fill-opacity:1;stroke:none;stroke-width:1.68648"
       d="m 222.99272,-39.01012 q 0.59291,1.28463 0.59291,1.87753 0,1.48226 -2.37162,5.23732 -3.06334,4.94087 -6.8184,7.21367 -2.37162,1.48226 -6.52195,1.48226 -7.11485,0 -10.67227,-4.34796 -2.17399,-2.56925 -3.06334,-9.19002 l -11.06755,7.70776 q -5.83023,3.35979 -8.89356,4.24915 -4.94087,1.28462 -11.85809,1.28462 -5.03969,0 -8.00421,-2.96452 -2.8657,-3.06334 -2.8657,-7.80657 0,-6.8184 8.30066,-16.30487 8.39948,-9.486471 22.728,-15.514332 10.07937,-4.249147 12.35217,-5.434956 0.19763,-3.260973 0.19763,-7.114852 0,-12.549807 -3.55742,-16.99659 -3.45861,-4.44678 -9.98056,-4.44678 -6.8184,0 -12.74744,5.336137 -3.65624,3.359791 -5.53377,12.648625 -0.59291,2.569252 -2.2728,5.533774 -4.24915,2.766886 -6.8184,2.766886 -2.17399,0 -3.9527,-1.284626 -0.98817,-0.691721 -0.98817,-1.581078 0,-2.569252 5.43495,-11.561634 5.53378,-9.091199 13.83444,-13.537984 8.39948,-4.5456 14.62497,-4.5456 8.4983,0 12.64863,1.58108 4.15033,1.48226 7.31248,5.336139 3.16216,3.853879 3.85388,8.399478 0.39527,2.173983 0.39527,15.51433 l -0.29645,15.711964 0.0988,11.462819 q 0,2.2728 -0.0988,3.85388 -0.0988,2.8657 -0.0988,4.24914 0,3.26098 1.87753,5.23732 1.87753,1.97635 4.44678,1.97635 3.75506,0 6.42313,-3.75506 l 1.18581,-1.58108 q 0.49409,-0.29645 2.17398,-0.69172 z m -29.05231,-2.8657 q 0.69172,-12.54981 0.69172,-17.688314 0,-2.668069 -0.29645,-7.213669 -6.62076,2.371617 -14.03207,7.213669 -7.4113,4.842052 -11.75927,11.166364 -3.16215,4.5456 -3.16215,8.59711 0,3.85388 2.56925,6.42313 2.66807,2.56926 6.62077,2.56926 3.06333,0 7.4113,-2.17399 5.73141,-2.8657 11.9569,-8.89356 z" />
    <path
       id="m-fill"
       style="font-size:199.402px;line-height:0.5;font-family:Garamond;-inkscape-font-specification:Garamond;text-align:center;text-anchor:middle;fill:#000000;fill-opacity:1;stroke:none;stroke-width:1.66168"
       d="m 236.04218,-26.80182 q 1.55783,-1.07101 4.28403,-1.46047 3.89457,-0.48682 6.03658,-1.55782 1.75256,-1.46047 2.33674,-4.18667 0.68155,-3.50511 0.68155,-24.633154 0,-20.738586 -1.26573,-26.775169 -2.14202,-1.3631 -5.54977,-2.142014 -1.071,-0.194729 -4.47875,-1.071007 v -3.21302 q 5.74449,-1.655193 9.2496,-4.284027 3.60248,-2.628835 9.93116,-10.515339 h 0.58418 q 0.58419,0 1.84992,-0.0974 0.77892,0.0974 1.26574,0.48682 l -0.0974,11.099525 q 0,3.407749 0.19473,7.302319 10.41798,-9.444332 18.69394,-13.241534 5.64712,-2.53147 12.75472,-2.53147 8.47069,0 13.43626,3.21302 4.96558,3.213016 9.44434,11.586342 8.66541,-8.568055 15.67564,-11.975802 7.10759,-3.40775 14.31255,-3.40775 10.90479,0 17.91502,7.10759 6.91286,7.204955 7.10759,21.128043 v 8.081233 l 0.0974,8.860147 -0.0974,22.783227 q -0.0974,3.99194 1.75256,6.03659 0.77891,0.29209 5.93921,1.75256 3.21303,0.87627 3.79721,1.36309 0.58419,0.48683 0.58419,1.3631 0,1.07101 -0.58419,2.53148 h -0.68155 l -9.83379,-0.58419 q -1.75256,-0.0974 -5.54976,-0.0974 -4.67349,0 -13.04681,0.38945 h -4.96558 q -1.071,0 -4.18666,0.0974 -0.0974,-0.87628 -0.0974,-1.55783 0,-0.77892 0.68155,-1.94729 2.62884,-1.16837 7.20496,-1.84992 4.57612,-0.77891 5.64713,-2.62883 1.16837,-1.94729 1.16837,-15.18883 0,-28.722447 -0.68155,-33.298567 -1.16837,-7.302319 -6.23131,-11.391618 -4.96558,-4.186663 -12.55999,-4.186663 -5.84186,0 -11.39162,3.115656 -5.54976,3.018292 -10.9048,9.15224 l -0.0974,2.336742 v 14.896731 l -0.38946,11.586347 q 0,17.720292 0.29209,20.154392 0.38946,2.43411 1.6552,3.60248 1.3631,1.07101 7.69177,1.94729 2.82357,0.38945 4.38139,0.77891 1.16837,0.97364 1.16837,2.53147 0,1.26574 -0.87627,1.75256 h -1.6552 l -4.86821,-0.0974 h -28.333 l -7.78914,0.0974 q -0.19473,-1.46047 -0.19473,-2.14202 l 0.0974,-1.16837 q 2.14201,-1.16837 7.98387,-2.23937 3.01829,-0.48683 6.23131,-1.6552 0.58419,-0.48682 0.87628,-1.26573 0.48682,-1.3631 0.68155,-7.78914 l 0.48682,-11.29426 -0.19473,-12.754709 0.0974,-7.107591 q 0,-11.975803 -4.86821,-17.428201 -4.86821,-5.549763 -12.26789,-5.549763 -6.91287,0 -13.92309,3.407749 -6.91286,3.407749 -11.48898,9.15224 -0.0974,2.726199 -0.0974,4.965577 l 0.38946,32.714388 q 0.0974,10.71007 1.16837,12.26789 1.16837,1.46047 5.06294,2.04465 6.23131,0.87628 8.08123,2.14202 0.87628,0.58418 0.87628,1.75255 0,0.77892 -0.0974,1.84992 -11.09953,-0.77891 -14.89673,-0.77891 -3.89457,0 -7.01023,0.0974 l -4.86821,0.2921 h -3.01829 l -10.9048,0.38945 q -0.19473,-0.68155 -0.19473,-1.16837 0,-0.48682 0.38946,-1.94728 z" />
    <path
       id="e1-fill"
       style="font-size:206.217px;line-height:0.5;font-family:Garamond;-inkscape-font-specification:Garamond;text-align:center;text-anchor:middle;fill:#000000;fill-opacity:1;stroke:none;stroke-width:1.71848"
       d="m 467.0927,-78.982671 -40.37744,0.302075 h -7.65259 q -4.63183,0 -9.46504,0.402768 -0.90622,3.020757 -0.90622,4.128367 l 0.10069,1.006919 v 1.006919 l -0.10069,4.933903 q 0,6.142205 3.82629,15.10378 3.92698,8.86089 11.07611,13.59341 7.24981,4.63183 18.02385,4.9339 5.73943,-0.30207 9.16296,-1.40968 3.42352,-1.10762 9.66642,-5.13529 l 7.24982,-5.94082 0.60415,4.02767 q 0,0.70485 -0.1007,1.51038 -4.53113,5.73944 -11.47887,10.06919 -6.94774,4.32975 -14.09687,6.34359 -3.42352,0.90623 -11.27749,0.90623 -7.14912,0 -14.09686,-2.92007 -10.27058,-4.43044 -16.2114,-14.19755 -5.84013,-9.86781 -5.84013,-23.863983 0,-4.430443 1.61107,-11.378184 1.71177,-6.947741 6.04152,-14.801708 2.92006,-5.33667 7.14912,-8.760195 6.04151,-4.83321 10.57265,-6.74636 6.54497,-2.71868 15.20448,-2.71868 9.36434,0 15.30516,3.42353 8.05535,4.53113 11.98234,11.680256 4.02767,7.149124 4.02767,13.089946 z m -56.18607,-3.624908 h 4.73252 q 5.13528,0 30.61033,-1.611071 4.02768,-0.201384 4.93391,-0.805535 1.81245,-1.913146 1.81245,-3.423524 0,-3.121449 -2.01384,-7.048433 -2.01384,-4.027675 -6.2429,-6.142208 -4.12836,-2.21522 -9.66642,-2.21522 -11.68026,0 -18.72869,8.760196 -5.43736,6.645665 -5.43736,12.485795 z" />
  </g>
  <g
     transform="translate(8.7261777e-5,-146.00003)"
     id="stroke-group">
    <path
       d="m 591.19765,159.47949 q 0.76983,6.35109 0.76983,7.31338 l -0.38479,8.56435 q -0.19264,5.48504 -0.48136,7.0247 -0.86605,0.38494 -1.44343,0.38494 l -0.86606,-0.19245 q -3.07931,-13.47202 -10.48889,-19.63065 -7.31341,-6.15864 -17.89858,-6.15864 -10.97001,0 -17.9947,6.15864 -7.02469,6.15863 -7.02469,14.33807 0,6.25486 4.90765,11.45122 4.90764,5.19634 25.11566,15.58904 15.39659,7.98699 22.03639,13.08711 6.63975,5.00389 10.00778,11.64367 3.36799,6.63978 3.36799,14.81922 0,10.29647 -5.38881,19.34197 -5.29258,9.04549 -14.33809,13.66447 -9.04546,4.52275 -23.96089,4.52275 -12.99088,0 -24.92322,-4.13783 -7.02469,-2.50195 -8.56435,-4.04161 -1.53965,-1.53966 -1.53965,-3.27177 0,-1.05852 0.19264,-2.69441 1.34716,-11.35498 1.44338,-18.66836 0.19265,-4.52275 0.67361,-5.29258 0.38479,-0.67361 1.44344,-0.67361 0.86605,0 1.34721,0.67361 0.57739,0.57737 0.76983,2.30949 1.0585,11.83613 10.97006,21.17031 9.81529,9.33418 22.22879,9.33418 7.60207,0 13.9532,-3.17554 6.44731,-3.17555 10.00779,-9.14173 3.65665,-6.06241 3.65665,-11.7399 0,-7.79452 -5.48503,-14.24185 -5.48493,-6.44736 -22.03624,-15.01171 -16.55131,-8.66059 -21.55523,-12.60596 -8.08319,-6.44733 -12.12478,-13.66447 -2.9831,-5.58127 -2.9831,-12.99088 0,-13.37579 10.58512,-22.61375 10.58517,-9.33418 28.38748,-9.33418 9.81529,0 16.93625,2.21326 5.19631,1.73212 10.68134,5.6775 z"
       style="font-size:40px;font-family:Garamond;fill:none;fill-opacity:1;stroke:#000000;stroke-width:4.92691;stroke-miterlimit:4;stroke-dasharray:none;stroke-opacity:1"
       id="s1-stroke" />
    <path
       d="m 687.23391,265.1386 q 0.57739,1.25097 0.57739,1.82835 0,1.44342 -2.30949,5.10012 -2.9831,4.81143 -6.6398,7.02469 -2.30949,1.44343 -6.35108,1.44343 -6.92847,0 -10.39268,-4.23406 -2.11704,-2.50195 -2.9831,-8.94927 l -10.77761,7.50584 q -5.67752,3.27177 -8.66062,4.13783 -4.81142,1.25097 -11.54744,1.25097 -4.90765,0 -7.79452,-2.88685 -2.7906,-2.9831 -2.7906,-7.60207 0,-6.63978 8.08318,-15.87774 8.17946,-9.23795 22.13262,-15.10791 9.81534,-4.13783 12.0286,-5.29257 0.19264,-3.17555 0.19264,-6.92847 0,-12.22105 -3.46425,-16.55134 -3.36799,-4.33029 -9.71907,-4.33029 -6.6398,0 -12.4135,5.19635 -3.56048,3.27177 -5.38881,12.31728 -0.57738,2.50194 -2.21326,5.3888 -4.13787,2.69441 -6.6398,2.69441 -2.11704,0 -3.84915,-1.25098 -0.96227,-0.6736 -0.96227,-1.53966 0,-2.50194 5.29258,-11.25876 5.38881,-8.85304 13.47199,-13.18333 8.17946,-4.42652 14.24188,-4.42652 8.27563,0 12.31727,1.53966 4.04159,1.44343 7.12091,5.19635 3.07932,3.75292 3.75293,8.17944 0.38479,2.11703 0.38479,15.10791 l -0.28872,15.30036 0.0961,11.16253 q 0,2.21326 -0.0961,3.75292 -0.0961,2.79063 -0.0961,4.13783 0,3.17555 1.82832,5.10012 1.82838,1.92458 4.33032,1.92458 3.6567,0 6.25485,-3.65669 l 1.15472,-1.53966 q 0.48136,-0.28867 2.11705,-0.6736 z m -28.29125,-2.79063 q 0.67361,-12.22105 0.67361,-17.22494 0,-2.59818 -0.28872,-7.0247 -6.4473,2.30949 -13.66449,7.0247 -7.21713,4.7152 -11.45122,10.87384 -3.07932,4.42652 -3.07932,8.3719 0,3.75292 2.50199,6.25486 2.59815,2.50195 6.4473,2.50195 2.9831,0 7.21713,-2.11703 5.58131,-2.79063 11.64367,-8.66058 z"
       style="font-size:40px;font-family:Garamond;fill:none;fill-opacity:1;stroke:#000000;stroke-width:4.92691;stroke-miterlimit:4;stroke-dasharray:none;stroke-opacity:1"
       id="a2-stroke" />
    <path
       d="m 685.54989,201.82011 q 10.6814,0.0962 18.66841,0.6736 5.67747,0 8.27563,-0.19244 1.82838,-0.0962 2.30949,-0.0962 l 10.77761,0.0962 q 2.21327,0.38494 3.56048,0.48116 0.57739,0.19245 1.0585,1.05852 0,0.96228 -0.57733,2.0208 -1.63589,0.48116 -3.36804,0.57737 -7.21713,0.76983 -12.12478,2.21326 -0.67361,0.48116 -0.67361,0.96229 0,0.96228 0.96228,2.98309 0.19264,0.48116 0.86605,2.30948 l 9.6229,23.09489 q 6.4473,15.87774 11.93233,26.75158 3.75292,-7.12092 6.92847,-14.72299 3.17554,-7.60207 9.33417,-23.96095 1.73211,-4.61897 3.27177,-11.45121 0.28871,-1.3472 0.28871,-2.30949 0,-1.15474 -1.34721,-2.50195 -1.25099,-1.44343 -4.33031,-2.30948 -0.67356,-0.0962 -8.75679,-1.44344 -0.67361,-0.38494 -1.25099,-1.05851 v -0.76983 q 0,-0.48116 0.0961,-1.25098 2.30949,-0.28866 3.36799,-0.28866 l 11.35499,0.0962 q 1.15472,0 5.48503,-0.28867 15.30037,0 18.37969,0.28867 0.57734,0.19244 1.0585,1.15474 0,0.86606 -0.57738,1.92458 l -2.9831,0.76983 q -1.15472,0.0962 -1.82833,0.19244 -8.27568,0.76983 -10.20023,2.30949 -1.44343,1.05852 -4.52275,9.91156 -1.44344,4.33029 -4.23409,10.97007 l -5.00387,12.12482 q -1.05849,2.59817 -2.30949,5.67749 l -14.91543,34.44987 h -2.88687 q -0.86605,-2.30948 -2.11704,-4.81143 l -7.31336,-15.49282 -17.22497,-40.31982 q -5.19636,-11.73991 -6.25486,-12.70219 -1.0585,-0.96229 -12.31727,-4.04161 -0.57739,-1.53966 -0.57739,-2.21326 z"
       style="font-size:40px;font-family:Garamond;fill:none;fill-opacity:1;stroke:#000000;stroke-width:4.92691;stroke-miterlimit:4;stroke-dasharray:none;stroke-opacity:1"
       id="v-stroke" />
    <path
       d="m 851.54442,227.41695 -38.5877,0.28867 h -7.31341 q -4.42648,0 -9.04546,0.38493 -0.86605,2.88686 -0.86605,3.94538 l 0.0961,0.96229 v 0.96228 l -0.0961,4.71521 q 0,5.86995 3.65665,14.43431 3.75293,8.46812 10.58517,12.99087 6.92847,4.42652 17.22492,4.71521 5.48508,-0.28867 8.75684,-1.34721 3.27177,-1.05851 9.23796,-4.90766 l 6.92847,-5.67749 0.57738,3.84915 q 0,0.67359 -0.0961,1.44342 -4.33027,5.48504 -10.97006,9.62287 -6.63975,4.13784 -13.472,6.06241 -3.27181,0.86606 -10.77761,0.86606 -6.83225,0 -13.47204,-2.79063 -9.81534,-4.23406 -15.49282,-13.56825 -5.58125,-9.43041 -5.58125,-22.8062 0,-4.23406 1.53966,-10.87384 1.63588,-6.63978 5.77369,-14.14562 2.79066,-5.10012 6.83225,-8.3719 5.77375,-4.61898 10.10401,-6.44732 6.25486,-2.59817 14.53054,-2.59817 8.94928,0 14.62676,3.27177 7.69829,4.33029 11.45122,11.16253 3.84915,6.83224 3.84915,12.50973 z m -53.69563,-3.46424 h 4.52276 q 4.90769,0 29.25352,-1.53965 3.84915,-0.19245 4.7152,-0.76983 1.73216,-1.82835 1.73216,-3.27178 0,-2.98309 -1.9246,-6.73601 -1.92455,-3.84915 -5.96619,-5.86995 -3.94537,-2.11703 -9.23796,-2.11703 -11.1625,0 -17.89852,8.3719 -5.19637,6.35109 -5.19637,11.93235 z"
       style="font-size:40px;font-family:Garamond;fill:none;fill-opacity:1;stroke:#000000;stroke-width:4.92691;stroke-miterlimit:4;stroke-dasharray:none;stroke-opacity:1"
       id="e2-stroke" />
    <path
       d="m 927.51697,208.36366 0.0961,-2.79063 -0.0961,-11.25876 0.0961,-21.26654 q 0,-8.85304 -1.92455,-11.25875 -1.9246,-2.40573 -11.25878,-4.90767 -0.67361,-0.19244 -2.11704,-0.57737 v -1.05852 q 0,-0.96228 0.19264,-2.11703 13.0871,-1.3472 22.5175,-4.52275 l 4.90765,-0.0962 q 0.38479,6.54355 0.38479,14.62676 l -0.38479,37.04805 0.6736,41.76326 -0.28871,22.22883 q 0,6.83223 0.96227,7.6983 1.9246,1.92457 8.46813,2.0208 1.34721,0 3.6567,0.19244 V 275.82 q 0,0.6736 -0.0961,1.44343 -2.9831,0.6736 -6.15864,1.25097 l -13.95316,2.69441 q -3.07931,0.57737 -4.90769,0.57737 v -9.23796 q -1.63588,0.48116 -5.10009,1.92457 -15.0117,6.3511 -27.61764,6.3511 -7.60208,0 -15.49282,-4.90767 -7.89079,-5.00389 -12.12483,-13.85693 -4.23408,-8.85304 -4.23408,-18.091 0,-8.27567 2.79065,-15.7815 2.79065,-7.60207 7.31335,-12.60596 2.88688,-3.27178 8.17946,-6.44733 5.29259,-3.27177 8.75679,-4.13783 8.5644,-2.21326 11.45123,-2.21326 12.99088,0 21.36278,3.84915 2.59816,1.25097 3.94537,1.73211 z m 0.0961,59.46934 q 0.38479,-6.44732 0.38479,-26.55912 0,-17.03248 -1.63588,-21.459 -1.53966,-4.52275 -7.89079,-8.46813 -6.35109,-4.0416 -14.24183,-4.0416 -11.06628,0 -18.76458,8.56435 -7.69829,8.56436 -7.69829,25.30815 0,14.72299 8.27563,23.47981 8.3719,8.7568 20.7854,8.7568 7.12096,0 12.99088,-1.92457 5.86997,-1.92457 7.79452,-3.65669 z"
       style="font-size:40px;font-family:Garamond;fill:none;fill-opacity:1;stroke:#000000;stroke-width:4.92691;stroke-miterlimit:4;stroke-dasharray:none;stroke-opacity:1"
       id="d-stroke" />
    <path
       d="m 1081.5791,159.47949 q 0.7698,6.35109 0.7698,7.31338 l -0.3847,8.56435 q -0.1927,5.48504 -0.4814,7.0247 -0.8661,0.38494 -1.4434,0.38494 l -0.8661,-0.19245 q -3.0793,-13.47202 -10.4889,-19.63065 -7.3134,-6.15864 -17.8986,-6.15864 -10.97,0 -17.9947,6.15864 -7.0247,6.15863 -7.0247,14.33807 0,6.25486 4.9076,11.45122 4.9077,5.19634 25.1158,15.58904 15.3965,7.98699 22.0363,13.08711 6.6398,5.00389 10.0078,11.64367 3.368,6.63978 3.368,14.81922 0,10.29647 -5.3888,19.34197 -5.2926,9.04549 -14.3381,13.66447 -9.0455,4.52275 -23.9609,4.52275 -12.9909,0 -24.9232,-4.13783 -7.0247,-2.50195 -8.5644,-4.04161 -1.5397,-1.53966 -1.5397,-3.27177 0,-1.05852 0.1927,-2.69441 1.3472,-11.35498 1.4434,-18.66836 0.1927,-4.52275 0.6736,-5.29258 0.3848,-0.67361 1.4434,-0.67361 0.8661,0 1.3472,0.67361 0.5774,0.57737 0.7699,2.30949 1.0585,11.83613 10.97,21.17031 9.8154,9.33418 22.2289,9.33418 7.602,0 13.9531,-3.17554 6.4474,-3.17555 10.0078,-9.14173 3.6567,-6.06241 3.6567,-11.7399 0,-7.79452 -5.485,-14.24185 -5.4851,-6.44732 -22.0364,-15.01168 -16.5513,-8.66058 -21.5552,-12.60596 -8.0832,-6.44732 -12.1248,-13.66447 -2.9831,-5.58127 -2.9831,-12.99088 0,-13.37579 10.5851,-22.61374 10.5852,-9.33418 28.3875,-9.33418 9.8153,0 16.9362,2.21326 5.1964,1.73211 10.6814,5.67749 z"
       style="font-size:40px;font-family:Garamond;fill:none;fill-opacity:1;stroke:#000000;stroke-width:4.92691;stroke-miterlimit:4;stroke-dasharray:none;stroke-opacity:1"
       id="s2-stroke" />
    <path
       d="m 1102.557,202.68617 h 7.2171 l 3.1756,0.19245 2.5019,-0.19245 q 9.9116,0 12.3173,0.19245 l 0.096,1.82834 q 0,13.56825 -0.3848,26.27044 -0.2887,7.50584 -0.2887,8.56435 0,16.93625 1.0585,21.17032 1.1547,4.23406 5.1963,6.83224 4.1378,2.50194 9.9116,2.50194 7.0247,0 13.3758,-2.88686 6.4473,-2.98309 10.97,-7.21715 0.4814,-3.65669 0.4814,-8.08321 0,-14.33808 0.2887,-19.34197 0.096,-2.98309 0.096,-5.19635 0,-15.58905 -1.5397,-17.60985 -1.5397,-2.0208 -11.7399,-3.07932 -3.368,-0.38494 -4.9076,-0.6736 -0.7699,-1.25098 -0.7699,-1.92458 l 0.2888,-1.05851 q 2.5019,-0.28867 4.9076,-0.28867 l 15.3004,0.19244 q 8.1794,-0.19244 8.6606,-0.19244 1.0585,0 2.0208,0.0962 l 0.1926,7.02469 q -0.6736,14.62677 -0.7698,36.182 l -0.1927,7.79452 0.3848,13.0871 q 0.8661,1.53966 1.5397,1.82835 1.1547,0.48116 4.7152,0.48116 h 0.866 q 1.251,0 7.1209,0.57738 0.096,1.25097 0.096,1.82834 v 1.05851 q -12.8943,2.79064 -20.8814,5.58127 -3.1755,1.05852 -5.3888,1.53966 -0.4813,-3.368 -0.4813,-4.13783 V 267.833 q 0,-0.48116 -0.096,-2.59817 -1.2509,0.86605 -2.8868,2.11703 -7.6021,5.86995 -16.0702,9.91155 -5.6775,2.79064 -10.9701,2.79064 -10.104,0 -16.4551,-7.50584 -6.4473,-7.50584 -6.4473,-25.59683 0,-0.96229 0.096,-3.46424 0.3847,-4.61898 0.3847,-6.44732 0,-0.6736 -0.096,-4.23406 -0.096,-1.53966 -0.096,-2.69441 0,-0.86606 0.096,-3.84915 0.096,-3.07931 0.096,-4.33029 0,-1.63589 -0.096,-2.88686 l -0.1927,-5.10012 0.096,-2.6944 q 0,-1.53966 -1.5397,-2.79063 -6.0624,-1.6359 -7.9869,-1.82835 -1.8284,-0.28867 -3.2718,-0.86606 z"
       style="font-size:40px;font-family:Garamond;fill:none;fill-opacity:1;stroke:#000000;stroke-width:4.92691;stroke-miterlimit:4;stroke-dasharray:none;stroke-opacity:1"
       id="u1-stroke" />
    <path
       d="m 1272.8818,260.61585 0.096,6.25486 q -7.5059,7.98699 -14.8192,11.16253 -7.3134,3.17555 -17.225,3.17555 -10.7776,0 -19.4382,-5.58126 -8.6606,-5.6775 -13.3758,-15.97397 -4.6189,-10.29647 -4.6189,-20.20803 0,-10.87384 5.5812,-20.49671 5.6775,-9.7191 14.9154,-14.43431 9.3342,-4.81143 23.3837,-4.81143 13.4719,0 20.4966,4.61898 3.9454,2.6944 3.9454,6.92847 0,3.07931 -2.0208,5.10012 -2.0208,2.0208 -5.1963,2.0208 -4.8115,0 -10.5852,-5.96618 -3.5604,-3.65669 -6.4473,-5.00389 -2.8869,-1.44343 -6.4473,-1.44343 -8.5644,0 -14.2419,7.02469 -7.8907,10.00779 -7.8907,25.11569 0,15.58905 8.0832,24.82701 8.0832,9.23795 18.8608,9.23795 7.5059,0 13.2796,-2.40571 5.8699,-2.50195 13.6645,-9.14173 z"
       style="font-size:40px;font-family:Garamond;fill:none;fill-opacity:1;stroke:#000000;stroke-width:4.92691;stroke-miterlimit:4;stroke-dasharray:none;stroke-opacity:1"
       id="c1-stroke" />
    <path
       d="m 1354.8686,260.61585 0.096,6.25486 q -7.5058,7.98699 -14.8192,11.16253 -7.3134,3.17555 -17.2249,3.17555 -10.7776,0 -19.4382,-5.58126 -8.6606,-5.6775 -13.3758,-15.97397 -4.619,-10.29647 -4.619,-20.20803 0,-10.87384 5.5812,-20.49671 5.6776,-9.7191 14.9155,-14.43431 9.3342,-4.81143 23.3836,-4.81143 13.472,0 20.4967,4.61898 3.9454,2.6944 3.9454,6.92847 0,3.07931 -2.0208,5.10012 -2.0208,2.0208 -5.1964,2.0208 -4.8114,0 -10.5851,-5.96618 -3.5605,-3.65669 -6.4474,-5.00389 -2.8868,-1.44343 -6.4473,-1.44343 -8.5643,0 -14.2418,7.02469 -7.8908,10.00779 -7.8908,25.11569 0,15.58905 8.0832,24.82701 8.0832,9.23795 18.8608,9.23795 7.5059,0 13.2796,-2.40571 5.87,-2.50195 13.6645,-9.14173 z"
       style="font-size:40px;font-family:Garamond;fill:none;fill-opacity:1;stroke:#000000;stroke-width:4.92691;stroke-miterlimit:4;stroke-dasharray:none;stroke-opacity:1"
       id="c2-stroke" />
    <path
       d="m 1436.1819,227.41695 -38.5877,0.28867 h -7.3134 q -4.4265,0 -9.0455,0.38493 -0.8661,2.88686 -0.8661,3.94538 l 0.096,0.96229 v 0.96228 l -0.096,4.71521 q 0,5.86995 3.6567,14.43431 3.753,8.46812 10.5852,12.99087 6.9285,4.42652 17.2249,4.71521 5.485,-0.28867 8.7569,-1.34721 3.2717,-1.05851 9.2379,-4.90766 l 6.9285,-5.67749 0.5773,3.84915 q 0,0.67359 -0.096,1.44342 -4.3302,5.48504 -10.97,9.62287 -6.6398,4.13784 -13.472,6.06241 -3.2718,0.86606 -10.7776,0.86606 -6.8323,0 -13.4721,-2.79063 -9.8153,-4.23406 -15.4928,-13.56825 -5.5812,-9.43041 -5.5812,-22.8062 0,-4.23406 1.5396,-10.87384 1.6359,-6.63978 5.7737,-14.14562 2.7907,-5.10012 6.8323,-8.3719 5.7737,-4.61898 10.104,-6.44732 6.2548,-2.59817 14.5305,-2.59817 8.9493,0 14.6268,3.27177 7.6983,4.33029 11.4512,11.16253 3.8491,6.83224 3.8491,12.50973 z m -53.6956,-3.46424 h 4.5227 q 4.9077,0 29.2536,-1.53965 3.8491,-0.19245 4.7152,-0.76983 1.7321,-1.82835 1.7321,-3.27178 0,-2.98309 -1.9246,-6.73601 -1.9246,-3.84915 -5.9662,-5.86995 -3.9454,-2.11703 -9.2379,-2.11703 -11.1625,0 -17.8986,8.3719 -5.1963,6.35109 -5.1963,11.93235 z"
       style="font-size:40px;font-family:Garamond;fill:none;fill-opacity:1;stroke:#000000;stroke-width:4.92691;stroke-miterlimit:4;stroke-dasharray:none;stroke-opacity:1"
       id="e3-stroke" />
    <path
       d="m 1455.9088,253.78361 q 3.5604,9.14173 5.3888,11.83613 3.6567,5.48504 8.7568,8.56435 5.1001,2.9831 11.0663,2.9831 5.485,0 10.8738,-4.71521 3.8492,-3.56046 3.8492,-8.27567 0,-6.25487 -4.5227,-11.54744 -4.5228,-5.19635 -17.225,-9.91156 -12.6059,-4.81143 -16.9363,-10.20024 -4.3302,-5.38881 -4.3302,-12.31728 0,-6.54355 3.5604,-11.54744 3.5605,-5.00389 9.8154,-7.50584 6.2548,-2.59817 11.5474,-2.59817 6.8322,0 12.221,1.05851 5.4851,1.05852 9.4304,3.27178 0.7699,4.90766 1.251,14.43431 l 0.1927,3.07931 q -1.251,0.0962 -2.1171,0.0962 h -1.3472 q -2.8868,-7.98699 -8.853,-12.60596 -5.87,-4.71521 -11.6437,-4.71521 -5.7737,0 -9.3341,3.56046 -3.5605,3.46423 -3.5605,9.14173 0,4.33029 2.8869,7.69829 2.8868,3.36801 13.472,7.6983 10.6813,4.33029 15.4928,8.08321 4.9077,3.65669 7.2171,8.94927 2.3095,5.29258 2.3095,10.10401 0,6.63979 -4.4265,12.41351 -4.3303,5.77372 -10.9701,8.08321 -6.5437,2.40572 -11.74,2.40572 -12.2211,0 -22.5176,-4.52275 -0.9623,-0.76983 -1.0585,-2.88686 0,-0.86606 -0.1926,-2.79063 -1.5397,-12.99088 -1.5397,-15.3966 0,-1.15474 0.4809,-1.53966 0.4813,-0.38494 2.502,-0.38494 z"
       style="font-size:40px;font-family:Garamond;fill:none;fill-opacity:1;stroke:#000000;stroke-width:4.92691;stroke-miterlimit:4;stroke-dasharray:none;stroke-opacity:1"
       id="s3-stroke" />
    <path
       d="m 1527.8878,253.78361 q 3.5605,9.14173 5.3889,11.83613 3.6567,5.48504 8.7567,8.56435 5.1002,2.9831 11.0664,2.9831 5.485,0 10.8738,-4.71521 3.8492,-3.56046 3.8492,-8.27567 0,-6.25487 -4.5228,-11.54744 -4.5227,-5.19635 -17.2249,-9.91156 -12.606,-4.81143 -16.9363,-10.20024 -4.3303,-5.38881 -4.3303,-12.31728 0,-6.54355 3.5605,-11.54744 3.5604,-5.00389 9.8153,-7.50584 6.2549,-2.59817 11.5474,-2.59817 6.8323,0 12.2211,1.05851 5.485,1.05852 9.4304,3.27178 0.7699,4.90766 1.251,14.43431 l 0.1926,3.07931 q -1.2509,0.0962 -2.117,0.0962 h -1.3474 q -2.8869,-7.98699 -8.853,-12.60596 -5.87,-4.71521 -11.6437,-4.71521 -5.7737,0 -9.3342,3.56046 -3.5604,3.46423 -3.5604,9.14173 0,4.33029 2.8868,7.69829 2.8869,3.36801 13.472,7.6983 10.6814,4.33029 15.4929,8.08321 4.9076,3.65669 7.2171,8.94927 2.3095,5.29258 2.3095,10.10401 0,6.63979 -4.4265,12.41351 -4.3303,5.77372 -10.9701,8.08321 -6.5435,2.40572 -11.7399,2.40572 -12.221,0 -22.5175,-4.52275 -0.9623,-0.76983 -1.0585,-2.88686 0,-0.86606 -0.1927,-2.79063 -1.5396,-12.99088 -1.5396,-15.3966 0,-1.15474 0.4813,-1.53966 0.4809,-0.38494 2.5019,-0.38494 z"
       style="font-size:40px;font-family:Garamond;fill:none;fill-opacity:1;stroke:#000000;stroke-width:4.92691;stroke-miterlimit:4;stroke-dasharray:none;stroke-opacity:1"
       id="s4-stroke" />
    <path
       d="m 1621.3259,203.26354 q 23.961,0.57738 25.5006,0.57738 0.1927,2.11703 0.1927,3.17554 0,1.25098 -0.2887,3.75292 -2.4057,0.38494 -4.9077,0.38494 h -3.6567 q -11.9323,0 -16.5513,0.86606 -0.1926,2.21326 -0.1926,3.36801 0,0.48116 0.096,1.44342 0.4809,15.10791 0.4809,18.28346 l -0.1926,24.73077 q 0,5.48504 1.8283,9.14173 1.0585,2.11703 3.9454,3.36801 1.8283,0.86605 8.853,1.73211 5.2926,0.76983 7.1209,1.05852 0,2.0208 -0.2887,3.07932 l -1.3472,0.0962 q -4.619,-0.28867 -12.0285,-0.48116 l -7.121,-0.28867 -24.2496,0.76983 h -3.1756 l -0.096,-2.98309 q 1.4434,-0.28867 2.117,-0.48116 8.2756,-1.53966 10.6814,-3.46424 0.9622,-0.76983 1.3472,-2.79063 0.1926,-1.15474 0.1926,-10.77761 0,-27.42518 -0.4809,-43.78406 -2.5019,-0.76983 -7.6983,-0.96229 -1.9246,0 -6.0624,-0.38494 l -0.1926,-1.05851 q 0,-1.15475 0.9623,-1.92458 0.3848,-0.38494 8.0832,-4.04161 2.9831,-1.34719 4.2341,-3.368 0.6736,-1.05851 0.7698,-4.42652 0.096,-1.53966 0.5774,-5.29257 1.1547,-9.91156 1.8283,-12.22105 1.7321,-6.44732 5.7737,-12.79842 4.1379,-6.44732 9.9116,-11.25876 4.2341,-3.46423 9.5267,-5.19635 5.3888,-1.73211 12.221,-1.73211 9.1417,0 13.3758,2.98309 2.8869,2.0208 2.8869,5.19635 0,2.6944 -2.0209,4.61898 -2.0208,1.92457 -5.0039,1.92457 -3.6566,0 -7.8907,-1.82835 -7.987,-3.17554 -9.0455,-3.46423 -1.8284,-0.48116 -3.7529,-0.48116 -5.2926,0 -9.7191,3.368 -4.3303,3.36801 -5.4851,8.27567 -1.1547,4.90767 -1.1547,22.03637 0,6.15864 0.096,11.25876 z"
       style="font-size:40px;font-family:Garamond;fill:none;fill-opacity:1;stroke:#000000;stroke-width:4.92691;stroke-miterlimit:4;stroke-dasharray:none;stroke-opacity:1"
       id="f-stroke" />
    <path
       d="m 1652.6002,202.68617 h 7.2172 l 3.1756,0.19245 2.5019,-0.19245 q 9.9116,0 12.3173,0.19245 l 0.096,1.82834 q 0,13.56825 -0.3847,26.27044 -0.2888,7.50584 -0.2888,8.56435 0,16.93625 1.0585,21.17032 1.1548,4.23406 5.1964,6.83224 4.1379,2.50194 9.9116,2.50194 7.0247,0 13.3757,-2.88686 6.4474,-2.98309 10.9701,-7.21715 0.4809,-3.65669 0.4809,-8.08321 0,-14.33808 0.2887,-19.34197 0.096,-2.98309 0.096,-5.19635 0,-15.58905 -1.5397,-17.60985 -1.5396,-2.0208 -11.7398,-3.07932 -3.3681,-0.38494 -4.9077,-0.6736 -0.7699,-1.25098 -0.7699,-1.92458 l 0.2887,-1.05851 q 2.502,-0.28867 4.9077,-0.28867 l 15.3004,0.19244 q 8.1794,-0.19244 8.6605,-0.19244 1.0585,0 2.0209,0.0962 l 0.1926,7.02469 q -0.6736,14.62677 -0.7698,36.182 l -0.1927,7.79452 0.3848,13.0871 q 0.8661,1.53966 1.5397,1.82835 1.1547,0.48116 4.7152,0.48116 h 0.866 q 1.251,0 7.121,0.57738 0.096,1.25097 0.096,1.82834 v 1.05851 q -12.894,2.79064 -20.881,5.58127 -3.1755,1.05852 -5.3888,1.53966 -0.4813,-3.368 -0.4813,-4.13783 V 267.833 q 0,-0.48116 -0.096,-2.59817 -1.251,0.86605 -2.8869,2.11703 -7.6021,5.86995 -16.0702,9.91155 -5.6775,2.79064 -10.97,2.79064 -10.1041,0 -16.4551,-7.50584 -6.4474,-7.50584 -6.4474,-25.59683 0,-0.96229 0.096,-3.46424 0.3848,-4.61898 0.3848,-6.44732 0,-0.6736 -0.096,-4.23406 -0.096,-1.53966 -0.096,-2.69441 0,-0.86606 0.096,-3.84915 0.096,-3.07931 0.096,-4.33029 0,-1.63589 -0.096,-2.88686 l -0.1926,-5.10012 0.096,-2.6944 q 0,-1.53966 -1.5396,-2.79063 -6.0624,-1.6359 -7.987,-1.82835 -1.8284,-0.28867 -3.2718,-0.86606 z"
       style="font-size:40px;font-family:Garamond;fill:none;fill-opacity:1;stroke:#000000;stroke-width:4.92691;stroke-miterlimit:4;stroke-dasharray:none;stroke-opacity:1"
       id="u2-stroke" />
    <path
       d="m 1751.0422,158.99834 v -2.11703 q 2.6944,-0.86606 5.9662,-1.82835 4.8114,-1.53965 14.2418,-4.7152 h 4.5228 q 0.096,4.61898 0.096,5.29258 0,79.00376 -0.4809,94.20789 -0.2887,8.94927 -0.2887,9.52665 0,10.77761 0.866,12.02858 1.1548,1.73212 7.0247,2.40572 5.9662,0.6736 7.0247,1.3472 0.7699,0.38494 0.7699,1.3472 0,1.05852 -0.4814,1.53966 -0.3848,0.38494 -1.5396,0.38494 -0.6736,0 -10.104,-0.28867 l -12.606,-0.38494 -16.1665,0.6736 q -1.5396,0.0962 -2.3094,-0.57737 -0.5774,-0.48116 -0.5774,-1.3472 0,-0.96229 0.5774,-1.3472 0.6736,-0.48116 6.9284,-1.53966 6.3511,-1.05852 7.2172,-1.73212 0.9623,-0.76983 1.2509,-3.27177 0.3848,-3.46424 0.3848,-19.53443 l -0.096,-22.1326 0.2887,-22.90243 -0.096,-22.90243 0.2887,-11.25876 q 0,-3.368 -1.0585,-4.81144 -1.0585,-1.53965 -4.5227,-2.98309 -5.1964,-2.11703 -7.1209,-3.07932 z"
       style="font-size:40px;font-family:Garamond;fill:none;fill-opacity:1;stroke:#000000;stroke-width:4.92691;stroke-miterlimit:4;stroke-dasharray:none;stroke-opacity:1"
       id="l1-stroke" />
    <path
       d="m 1796.0772,158.99834 v -2.11703 q 2.6944,-0.86606 5.9662,-1.82835 4.8114,-1.53965 14.2419,-4.7152 h 4.5227 q 0.096,4.61898 0.096,5.29258 0,79.00376 -0.4813,94.20789 -0.2888,8.94927 -0.2888,9.52665 0,10.77761 0.8661,12.02858 1.1547,1.73212 7.0247,2.40572 5.9662,0.6736 7.0247,1.3472 0.7698,0.38494 0.7698,1.3472 0,1.05852 -0.4814,1.53966 -0.3848,0.38494 -1.5396,0.38494 -0.6736,0 -10.104,-0.28867 l -12.606,-0.38494 -16.1664,0.6736 q -1.5397,0.0962 -2.3095,-0.57737 -0.5774,-0.48116 -0.5774,-1.3472 0,-0.96229 0.5774,-1.3472 0.6736,-0.48116 6.9285,-1.53966 6.3511,-1.05852 7.2171,-1.73212 0.9623,-0.76983 1.251,-3.27177 0.3848,-3.46424 0.3848,-19.53443 l -0.096,-22.1326 0.2887,-22.90243 -0.096,-22.90243 0.2887,-11.25876 q 0,-3.368 -1.0585,-4.81144 -1.0586,-1.53965 -4.5228,-2.98309 -5.1963,-2.11703 -7.1209,-3.07932 z"
       style="font-size:40px;font-family:Garamond;fill:none;fill-opacity:1;stroke:#000000;stroke-width:4.92691;stroke-miterlimit:4;stroke-dasharray:none;stroke-opacity:1"
       id="l2-stroke" />
    <path
       d="m 1837.2631,202.39749 q 2.1171,-0.19245 3.5605,-0.19245 h 4.619 l 6.2548,-0.19244 8.1795,0.28866 6.6397,-0.19244 q 5.2926,0 9.5267,0.6736 0.3848,0.96228 0.3848,1.53966 l -0.096,0.76983 q -2.0208,0.96228 -6.2549,1.3472 -5.9662,0.48116 -8.5644,2.11703 l -0.1926,1.05852 q 0,0.96228 0.7698,2.88686 0.4814,1.15474 1.251,3.46423 2.1171,7.12093 9.1417,27.52141 5.1001,14.72299 9.4304,25.30815 2.6944,-5.77373 6.1587,-14.62677 l 8.1794,-22.8062 q 2.6944,-7.50583 4.1379,-15.01167 0.5773,-2.9831 0.5773,-4.71521 0,-1.44343 -1.251,-2.6944 -1.2509,-1.25097 -5.0038,-2.11704 -6.8323,-1.73211 -7.4096,-2.11703 -0.5774,-0.48116 -0.6737,-1.92457 0.5774,-0.48116 1.3473,-0.76983 h 5.9662 l 6.4473,0.0962 9.6228,-0.0962 6.1586,0.0962 1.5397,-0.0962 q 0.6736,0 2.2133,0.19245 0.9623,0.48116 0.9623,1.53965 0,0.96229 -0.8661,1.73212 l -1.9246,0.28867 q -5.5812,0.76983 -8.5643,2.88686 -1.6359,1.15474 -2.7907,4.81144 -0.3848,1.3472 -1.2509,3.46423 -0.4814,1.15475 -1.4434,3.84915 -0.8661,2.6944 -2.3095,6.35109 l -1.1548,2.6944 -0.096,0.48117 -16.3588,43.11045 -11.9324,32.42908 q -1.1547,2.40572 -2.6944,5.96618 -3.6567,6.83224 -4.3303,7.50583 -2.8869,3.56047 -5.0039,5.0039 l -4.9077,2.11703 q -1.4434,0.38494 -3.0793,0.38494 -4.3303,0 -6.3511,-1.92457 -2.0208,-1.82835 -2.0208,-5.10012 0,-3.07932 2.9831,-5.58127 0.9623,-0.28867 1.9246,-0.76983 l 1.2509,-0.28867 q 8.5644,1.53966 10.6814,1.53966 2.0209,-1.05851 2.9831,-2.50194 4.7152,-7.0247 8.0833,-15.68528 3.3679,-8.66058 3.3679,-11.64367 0,-3.27178 -2.5019,-9.52665 l -10.6813,-28.29122 q -2.2133,-5.48504 -13.1834,-35.79708 -0.6736,-1.92457 -1.7321,-2.88686 l -6.5435,-2.40572 -2.0209,-0.38494 q -1.6358,-0.6736 -1.6358,-1.92457 z"
       style="font-size:40px;font-family:Garamond;fill:none;fill-opacity:1;stroke:#000000;stroke-width:4.92691;stroke-miterlimit:4;stroke-dasharray:none;stroke-opacity:1"
       id="y-stroke" />
    <path
       d="m 1941.4788,250.31938 c -0.6415,0.12829 -1.1227,0.19244 -1.4434,0.19244 -0.4489,0 -1.1227,-0.0962 -2.0208,-0.28867 l -3.0793,-55.42773 c -0.1927,-3.84915 -0.7378,-8.75681 -1.6359,-14.72299 -1.2831,-7.9549 -1.9246,-13.66447 -1.9246,-17.1287 0,-3.46424 0.8019,-6.06241 2.4057,-7.79453 1.6038,-1.79627 3.5605,-2.69441 5.87,-2.69441 2.5019,0 4.6189,0.89814 6.351,2.69441 1.7322,1.73212 2.5983,4.20199 2.5983,7.40961 0,2.95101 -0.6416,9.97571 -1.9246,21.07408 -2.502,21.29862 -3.8171,35.12348 -3.9454,41.47457 l -0.7698,23.09489 c -0.064,0.51322 -0.2247,1.2189 -0.4814,2.11704 z"
       style="font-size:40px;font-family:Garamond;fill:none;fill-opacity:1;stroke:#000000;stroke-width:4.92691;stroke-miterlimit:4;stroke-dasharray:none;stroke-opacity:1"
       id="exclaim-stroke"
       sodipodi:nodetypes="sscccscscscccss" />
    <path
       style="fill:none;fill-opacity:1;stroke:#000000;stroke-width:1.72442;stroke-miterlimit:4;stroke-dasharray:none;stroke-opacity:1"
       d="m 1927.9999,293.49462 c 0,-0.62771 0.2611,-2.519 0.5806,-4.20286 l 0.5807,-3.06156 -2.6642,-2.86087 c -6.5508,-7.03441 -6.6764,-13.66567 -0.3405,-17.97776 2.6453,-1.80033 6.5922,-1.84857 8.8055,-0.10761 l 1.6151,1.27038 1.8021,-1.42349 c 2.2483,-1.77599 2.6814,-5.4044 0.645,-5.4044 -0.6806,0 -1.2249,-0.4083 -1.2249,-0.91868 0,-0.51036 0.5443,-0.91867 1.2249,-0.91867 0.8165,0 1.2249,-0.40829 1.2249,-1.22489 0,-0.81659 0.4084,-1.2249 1.2249,-1.2249 0.8165,0 1.2248,0.4083 1.2248,1.2249 0,0.81659 0.4085,1.22489 1.225,1.22489 0.6805,0 1.2248,0.4083 1.2248,0.91867 0,0.51037 -0.5443,0.91868 -1.2248,0.91868 -1.8572,0 -1.6387,3.20525 0.3542,5.1982 l 1.5792,1.57919 2.0146,-1.24513 c 5.208,-3.21869 12.5628,0.47525 13.5935,6.82733 0.4784,2.94742 -1.7854,7.8789 -5.2405,11.41614 l -2.5849,2.6463 0.654,3.04898 c 1.275,5.94523 2.4695,5.43848 -12.82,5.43848 -12.7365,0 -13.4739,-0.0624 -13.4739,-1.1413 z m 25.1103,-1.61471 c 0,-0.78436 -1.7012,-0.91867 -11.6364,-0.91867 -9.9353,0 -11.6366,0.13431 -11.6366,0.91867 0,0.78436 1.7013,0.91867 11.6366,0.91867 9.9352,0 11.6364,-0.1343 11.6364,-0.91867 z m -20.2905,-3.77081 c -1.1076,-1.33461 -2.37,-0.96418 -2.37,0.69545 0,1.39565 0.1232,1.46193 1.5263,0.82254 1.1845,-0.53968 1.3734,-0.87968 0.8437,-1.51799 z m 19.6781,0.70858 c 0,-1.63419 -1.1125,-2.011 -2.3332,-0.79028 -0.5795,0.5795 -0.4395,0.90824 0.6431,1.50942 0.7611,0.42273 1.4528,0.77834 1.5369,0.79027 0.084,0.0118 0.1533,-0.6673 0.1533,-1.50941 z m -7.9618,-1.17019 c 0,-0.12105 -0.689,-0.67151 -1.5311,-1.22329 -1.4223,-0.93185 -1.6441,-0.92921 -3.119,0.0375 l -1.5879,1.04044 1.4123,1.06538 c 1.2619,0.95184 1.5943,0.97132 3.1191,0.18284 0.9386,-0.4854 1.7066,-0.98155 1.7066,-1.10258 z m -7.0486,-3.4818 c 3.7604,-0.64374 8.2184,-0.34971 11.8593,0.78216 1.9799,0.61552 2.1751,0.51994 5.3587,-2.62409 5.4495,-5.38184 6.5095,-10.68004 2.8374,-14.18305 -2.7905,-2.66213 -4.7339,-3.09718 -7.7922,-1.74436 -2.9204,1.29187 -5.1313,4.4192 -6.806,9.62735 -0.5296,1.64716 -1.1053,3.40822 -1.2791,3.9135 -0.1739,0.50527 -0.7132,-0.59604 -1.1986,-2.44735 -1.4248,-5.43423 -3.9269,-9.28045 -7.1008,-10.91499 -2.5497,-1.3131 -2.914,-1.35381 -4.8555,-0.54262 -1.1545,0.48235 -2.844,1.76243 -3.7546,2.84461 -3.0292,3.59991 -1.8658,8.10868 3.5405,13.72251 2.2491,2.33547 3.1425,2.88589 4.1901,2.58143 0.7324,-0.21284 2.9827,-0.66962 5.0008,-1.0151 z m -8.0517,-3.75711 c -3.1194,-3.23998 -3.8856,-4.7031 -3.8856,-7.41982 0,-1.62593 0.4454,-2.50427 1.8843,-3.71496 1.0364,-0.87205 2.4469,-1.58556 3.1343,-1.58556 1.9769,0 5.6795,4.22229 7.1364,8.13791 1.9501,5.24114 1.8307,5.73255 -1.5155,6.23433 -1.5588,0.23378 -3.1497,0.54608 -3.5353,0.69405 -0.3857,0.14795 -1.8339,-0.90773 -3.2186,-2.34595 z m 17.6387,1.80107 -3.2797,-0.62884 0.3547,-2.18479 c 0.5939,-3.65968 3.9433,-9.77787 5.9095,-10.79463 2.4375,-1.26049 3.2807,-1.15654 5.4543,0.67241 2.0459,1.72153 2.5254,4.5905 1.2004,7.18208 -0.7663,1.49888 -5.5124,6.58796 -6.0274,6.46309 -0.1822,-0.0443 -1.8077,-0.36346 -3.6116,-0.70932 z m -4.9882,-8.57365 c 0,-0.43407 0.5484,-1.86476 1.2186,-3.17937 1.1071,-2.17166 1.1339,-2.51946 0.2922,-3.80418 -1.1415,-1.74215 -2.7983,-1.81167 -4.2756,-0.17939 -1.0835,1.19739 -1.0772,1.31477 0.2114,3.89488 0.7307,1.46315 1.3286,2.97458 1.3286,3.35874 0,0.38416 0.2754,0.69848 0.6125,0.69848 0.337,0 0.6124,-0.35513 0.6124,-0.78917 z m -1.4857,-4.51905 c -0.5023,-1.30906 0.6189,-2.54043 1.5058,-1.6536 0.6659,0.66591 0.1907,2.67468 -0.6325,2.67468 -0.2646,0 -0.6578,-0.45948 -0.8733,-1.02108 z"
       id="crown-stroke" />
    <path
       id="g-stroke"
       style="font-size:187.826px;line-height:0.5;font-family:Garamond;-inkscape-font-specification:Garamond;text-align:center;text-anchor:middle;fill:none;stroke:#000000;stroke-width:4.92691;stroke-miterlimit:4;stroke-dasharray:none;stroke-opacity:1"
       d="m 116.24658,164.96688 1.00938,13.93279 q 0.55056,6.32476 0.55056,8.61634 l -2.56931,0.45832 q -6.14797,-13.9328 -15.324031,-20.89921 -9.08431,-6.96639 -22.29785,-6.96639 -16.149883,0 -25.142432,3.94151 -13.030018,5.59145 -22.297848,19.43259 -9.267831,13.84113 -9.267831,33.36539 0,11.27457 3.395146,20.25757 3.395145,8.98298 9.543112,16.77435 6.239728,7.69971 14.681712,13.38282 5.505642,3.75819 13.12178,5.68311 4.312752,1.00831 12.846497,1.00831 5.505642,0 12.204173,-1.55829 6.698531,-1.55827 10.093677,-4.12483 3.395145,-2.65824 4.588035,-5.95811 1.28465,-3.29988 1.28465,-12.83285 0,-15.85772 -2.11049,-18.42429 -2.110503,-2.65823 -13.305307,-3.48319 l -3.670429,-0.275 -2.477539,0.0916 q -0.550563,-0.0916 -1.46817,-0.27498 l -1.376411,-2.29158 q 0,-0.45832 0.642325,-1.19163 4.771556,-0.7333 20.737917,-0.7333 3.578664,0 11.653604,0.18332 l 9.45136,0.36666 8.53375,-0.0916 q 2.47753,0 5.96444,0.18332 0.64232,0.0917 0.82585,0.36666 0.18351,0.18332 0.18351,0.7333 0,1.0083 -0.4588,2.56657 -3.85395,0.82497 -5.96444,0.82497 l -5.96445,-0.0916 q -3.0281,0 -4.86332,2.10826 -0.91761,1.00829 -0.91761,6.87473 l 0.0918,12.00788 q 0,12.37452 -1.00936,15.76606 -0.55057,2.01659 -2.29401,3.66653 -1.74346,1.55827 -7.34087,3.75819 -7.983175,3.2082 -14.498184,4.30817 -12.112412,2.10825 -23.398977,2.10825 -18.168619,0 -29.822227,-4.58315 -11.561838,-4.67485 -20.003823,-12.92453 -8.350223,-8.24969 -11.92889,-16.6827 -5.4138813,-12.37452 -5.4138813,-25.20737 0,-16.04106 8.4419833,-31.3488 8.533746,-15.39941 27.436449,-25.02404 13.305301,-6.78308 36.153715,-6.78308 15.782841,0 25.784755,2.7499 10.09368,2.74989 15.96636,6.2331 z" />
    <path
       id="a1-stroke"
       style="font-size:198.127px;line-height:0.5;font-family:Garamond;-inkscape-font-specification:Garamond;text-align:center;text-anchor:middle;fill:none;stroke:#000000;stroke-width:4.92691;stroke-miterlimit:4;stroke-dasharray:none;stroke-opacity:1"
       d="m 222.56634,262.11776 q 0.57976,1.25913 0.57976,1.84027 0,1.45285 -2.31905,5.13339 -2.99545,4.84282 -6.66728,7.07052 -2.31905,1.45284 -6.37739,1.45284 -6.95716,0 -10.43573,-4.26168 -2.12579,-2.51826 -2.99544,-9.00764 l -10.82224,7.55479 q -5.701,3.29312 -8.69644,4.16484 -4.83136,1.25913 -11.59526,1.25913 -4.92798,0 -7.82679,-2.90569 -2.80219,-3.00255 -2.80219,-7.65167 0,-6.68308 8.11668,-15.9813 8.2133,-9.29821 22.22424,-15.20645 9.85596,-4.16483 12.07839,-5.32711 0.19326,-3.19625 0.19326,-6.97365 0,-12.30076 -3.47859,-16.6593 -3.38195,-4.35854 -9.75934,-4.35854 -6.66726,0 -12.4649,5.23024 -3.5752,3.29312 -5.41111,12.39762 -0.57977,2.51827 -2.22243,5.42396 -4.15496,2.71198 -6.66727,2.71198 -2.1258,0 -3.86509,-1.25914 -0.96627,-0.67799 -0.96627,-1.54969 0,-2.51827 5.31449,-11.3322 5.41113,-8.91079 13.5278,-13.26933 8.21331,-4.45539 14.30082,-4.45539 8.30994,0 12.36828,1.5497 4.05833,1.45285 7.1504,5.23024 3.09207,3.7774 3.76846,8.2328 0.38651,2.13084 0.38651,15.20646 l -0.28988,15.40016 0.0966,11.23534 q 0,2.2277 -0.0966,3.7774 -0.0966,2.80884 -0.0966,4.16482 0,3.19627 1.83591,5.13339 1.83592,1.93714 4.34823,1.93714 3.67182,0 6.28076,-3.68055 l 1.15953,-1.54971 q 0.48313,-0.29056 2.1258,-0.67799 z m -28.40838,-2.80884 q 0.67639,-12.30075 0.67639,-17.33729 0,-2.61512 -0.28989,-7.07051 -6.47402,2.32455 -13.72105,7.07051 -7.24704,4.74596 -11.49863,10.94477 -3.09206,4.4554 -3.09206,8.42651 0,3.7774 2.5123,6.29567 2.60893,2.51826 6.47401,2.51826 2.99545,0 7.24704,-2.13083 5.60437,-2.80884 11.69189,-8.71709 z" />
    <path
       id="m-stroke"
       style="font-size:196.34px;line-height:0.5;font-family:Garamond;-inkscape-font-specification:Garamond;text-align:center;text-anchor:middle;fill:none;fill-opacity:1;stroke:#000000;stroke-width:4.92691;stroke-miterlimit:4;stroke-dasharray:none;stroke-opacity:1"
       d="m 238.36419,273.5394 q 1.54048,-1.05006 4.23633,-1.4319 3.85121,-0.47729 5.96937,-1.52735 1.73305,-1.4319 2.31073,-4.10478 0.67397,-3.43654 0.67397,-24.15132 0,-20.33292 -1.25165,-26.25143 -2.11816,-1.33644 -5.48797,-2.10012 -1.05909,-0.19092 -4.42889,-1.05006 v -3.15017 q 5.68053,-1.62282 9.14662,-4.20023 3.56236,-2.57741 9.82059,-10.30965 h 0.57767 q 0.57769,0 1.82933,-0.0955 0.77024,0.0955 1.25165,0.47729 l -0.0963,10.88242 q 0,3.34109 0.19255,7.15948 10.30199,-9.2596 18.48581,-12.98253 5.58426,-2.48195 12.61272,-2.48195 8.37638,0 13.28667,3.15017 4.91029,3.15017 9.33918,11.35971 8.56895,-8.40045 15.50113,-11.74155 7.02845,-3.34109 14.1532,-3.34109 10.78338,0 17.71556,6.96856 6.8359,7.06403 7.02846,20.71478 v 7.92315 l 0.0963,8.68685 -0.0963,22.33758 q -0.0963,3.91386 1.73304,5.91851 0.77025,0.28638 5.8731,1.71828 3.17725,0.85914 3.75493,1.33643 0.57768,0.4773 0.57768,1.33644 0,1.05005 -0.57768,2.48195 h -0.67396 l -9.72431,-0.57276 q -1.73305,-0.0955 -5.48797,-0.0955 -4.62145,0 -12.90156,0.38184 h -4.91029 q -1.05908,0 -4.14005,0.0955 -0.0963,-0.85913 -0.0963,-1.52736 0,-0.76367 0.67396,-1.90919 2.59957,-1.14552 7.12474,-1.81373 4.52517,-0.76369 5.58426,-2.57742 1.15536,-1.90919 1.15536,-14.89172 0,-28.16064 -0.67397,-32.64725 -1.15536,-7.15949 -6.16193,-11.16879 -4.91029,-4.10477 -12.42015,-4.10477 -5.77682,0 -11.26479,3.05471 -5.48797,2.95925 -10.7834,8.97322 l -0.0963,2.29104 v 14.60534 l -0.38512,11.35971 q 0,17.37369 0.28884,19.76018 0.38512,2.38649 1.63676,3.53201 1.34793,1.05005 7.60614,1.9092 2.79213,0.38183 4.33261,0.76367 1.15536,0.9546 1.15536,2.48196 0,1.24098 -0.86652,1.71827 h -1.63676 l -4.81401,-0.0955 h -28.01756 l -7.70242,0.0955 q -0.19256,-1.43189 -0.19256,-2.10011 l 0.0963,-1.14552 q 2.11817,-1.14552 7.89498,-2.19557 2.98469,-0.4773 6.16194,-1.62282 0.57768,-0.4773 0.86653,-1.24097 0.48139,-1.33644 0.67395,-7.63678 l 0.48141,-11.07334 -0.19256,-12.50523 0.0963,-6.96857 q 0,-11.74155 -4.81402,-17.08729 -4.81401,-5.44122 -12.13131,-5.44122 -6.8359,0 -13.76808,3.34109 -6.8359,3.34109 -11.36107,8.97322 -0.0963,2.67288 -0.0963,4.86845 l 0.38512,32.07449 q 0.0963,10.50058 1.15537,12.02793 1.15536,1.4319 5.00657,2.00465 6.16194,0.85915 7.99126,2.10013 0.86653,0.57275 0.86653,1.71827 0,0.76367 -0.0963,1.81373 -10.97595,-0.76367 -14.73088,-0.76367 -3.85122,0 -6.93218,0.0955 l -4.81402,0.28638 h -2.98469 l -10.78338,0.38183 q -0.19256,-0.66821 -0.19256,-1.14552 0,-0.47729 0.38512,-1.90919 z" />
    <path
       id="e1-stroke"
       style="font-size:201.813px;line-height:0.5;font-family:Garamond;-inkscape-font-specification:Garamond;text-align:center;text-anchor:middle;fill:none;stroke:#000000;stroke-width:4.92691;stroke-miterlimit:4;stroke-dasharray:none;stroke-opacity:1"
       d="m 467.20254,222.75885 -39.44753,0.29613 h -7.47634 q -4.52516,0 -9.24706,0.39484 -0.88536,2.96131 -0.88536,4.04713 l 0.0983,0.98711 v 0.98709 l -0.0983,4.83681 q 0,6.02134 3.73818,14.80656 3.83654,8.68651 10.82101,13.3259 7.08285,4.54068 17.60876,4.83682 5.60726,-0.29614 8.95193,-1.38195 3.34468,-1.08582 9.4438,-5.03423 l 7.08285,-5.82392 0.59024,3.94842 q 0,0.69097 -0.0983,1.48065 -4.42679,5.6265 -11.21451,9.87104 -6.78774,4.24455 -13.77221,6.21876 -3.34468,0.88839 -11.01777,0.88839 -6.98448,0 -13.77221,-2.8626 -10.03404,-4.34326 -15.83803,-13.91816 -5.70563,-9.67362 -5.70563,-23.39436 0,-4.34326 1.57396,-11.15428 1.67234,-6.81101 5.90237,-14.51042 2.85282,-5.23165 6.98448,-8.58781 5.90238,-4.73809 10.32916,-6.61359 6.39424,-2.66518 14.85431,-2.66518 9.14868,0 14.95268,3.35615 7.86983,4.44197 11.70638,11.4504 3.93491,7.00844 3.93491,12.83236 z m -54.89208,-3.55358 h 4.62352 q 5.01702,0 29.90537,-1.57936 3.93492,-0.19742 4.82028,-0.78968 1.7707,-1.8755 1.7707,-3.35615 0,-3.06003 -1.96745,-6.90974 -1.96746,-3.94841 -6.09912,-6.02133 -4.03329,-2.17162 -9.44381,-2.17162 -11.41125,0 -18.29736,8.5878 -5.31213,6.51489 -5.31213,12.24008 z" />
  </g>
</svg>
