<?xml version="1.0" encoding="UTF-8" standalone="no"?>
<svg
   xmlns:dc="http://purl.org/dc/elements/1.1/"
   xmlns:cc="http://creativecommons.org/ns#"
   xmlns:rdf="http://www.w3.org/1999/02/22-rdf-syntax-ns#"
   xmlns:svg="http://www.w3.org/2000/svg"
   xmlns="http://www.w3.org/2000/svg"
   xmlns:sodipodi="http://sodipodi.sourceforge.net/DTD/sodipodi-0.dtd"
   xmlns:inkscape="http://www.inkscape.org/namespaces/inkscape"
   width="412.04016"
   height="37.200741"
   viewBox="0 0 412.04016 37.200741"
   version="1.1"
   id="svg1451"
   sodipodi:docname="theme saved successfully.svg"
   inkscape:version="1.0 (4035a4fb49, 2020-05-01)">
  <metadata
     id="metadata1457">
    <rdf:RDF>
      <cc:Work
         rdf:about="">
        <dc:format>image/svg+xml</dc:format>
        <dc:type
           rdf:resource="http://purl.org/dc/dcmitype/StillImage" />
        <dc:title></dc:title>
      </cc:Work>
    </rdf:RDF>
  </metadata>
  <defs
     id="defs1455" />
  <sodipodi:namedview
     inkscape:snap-global="false"
     inkscape:document-rotation="0"
     pagecolor="#ffffff"
     bordercolor="#666666"
     borderopacity="1"
     objecttolerance="10"
     gridtolerance="10"
     guidetolerance="10"
     inkscape:pageopacity="0"
     inkscape:pageshadow="2"
     inkscape:window-width="1920"
     inkscape:window-height="1001"
     id="namedview1453"
     showgrid="false"
     fit-margin-top="0"
     fit-margin-left="0"
     fit-margin-right="0"
     fit-margin-bottom="0"
     inkscape:zoom="2.2071963"
     inkscape:cx="226.23723"
     inkscape:cy="51.371298"
     inkscape:window-x="-9"
     inkscape:window-y="-9"
     inkscape:window-maximized="1"
     inkscape:current-layer="svg1451" />
  <g
     transform="translate(27.653323,-0.18176188)"
     id="g2523">
    <g
       id="g2479">
      <path
         id="path2048"
         style="font-size:40px;font-family:Garamond;fill:#000000;stroke:none;stroke-width:1;stroke-miterlimit:4;stroke-dasharray:none;stroke-opacity:1"
         d="m 106.52729,2.815982 q 0.15625,1.289062 0.15625,1.484375 l -0.0781,1.738281 q -0.0391,1.113281 -0.0977,1.425781 -0.17578,0.07813 -0.29297,0.07813 l -0.17578,-0.03906 q -0.625,-2.734375 -2.1289,-3.984375 -1.48438,-1.25 -3.63282,-1.25 -2.22656,0 -3.652341,1.25 -1.425781,1.25 -1.425781,2.910156 0,1.269531 0.996093,2.324219 0.996094,1.054687 5.097659,3.164062 3.125,1.621094 4.47266,2.65625 1.34765,1.015625 2.03125,2.363281 0.68359,1.347657 0.68359,3.007813 0,2.089843 -1.09375,3.925781 -1.07422,1.835937 -2.91016,2.773437 -1.83593,0.917969 -4.863281,0.917969 -2.636718,0 -5.058593,-0.839844 -1.425781,-0.507812 -1.738281,-0.820312 -0.3125,-0.3125 -0.3125,-0.664063 0,-0.214843 0.03906,-0.546875 0.273437,-2.304687 0.292968,-3.789062 0.03906,-0.917969 0.136719,-1.074219 0.07813,-0.136719 0.292969,-0.136719 0.175781,0 0.273437,0.136719 0.117188,0.117188 0.15625,0.46875 0.214844,2.402344 2.226563,4.296875 1.992187,1.894531 4.511719,1.894531 1.54297,0 2.83204,-0.644531 1.30859,-0.644531 2.03125,-1.855469 0.74218,-1.230468 0.74218,-2.382812 0,-1.582031 -1.11328,-2.890625 -1.11326,-1.308601 -4.47263,-3.046882 Q 97.093699,13.909731 96.078074,13.10895 94.437449,11.800356 93.617136,10.335513 93.011668,9.2027 93.011668,7.698794 q 0,-2.714844 2.148437,-4.589844 2.148438,-1.894531 5.761725,-1.894531 1.99218,0 3.4375,0.449219 1.05468,0.351562 2.16796,1.152344 z" />
      <path
         id="path2050"
         style="font-size:40px;font-family:Garamond;fill:#000000;stroke:none;stroke-width:1;stroke-miterlimit:4;stroke-dasharray:none;stroke-opacity:1"
         d="m 126.01948,24.261294 q 0.11719,0.253906 0.11719,0.371094 0,0.292968 -0.46875,1.035156 -0.60547,0.976562 -1.34766,1.425781 -0.46875,0.292969 -1.28906,0.292969 -1.40625,0 -2.10937,-0.859375 -0.42969,-0.507813 -0.60547,-1.816406 l -2.1875,1.523437 q -1.15235,0.664063 -1.75782,0.839844 -0.97656,0.253906 -2.34375,0.253906 -0.99609,0 -1.58203,-0.585937 -0.5664,-0.605469 -0.5664,-1.542969 0,-1.347656 1.64062,-3.222656 1.66016,-1.875 4.49219,-3.066407 1.99219,-0.839843 2.44141,-1.074218 0.0391,-0.644532 0.0391,-1.40625 0,-2.480469 -0.70313,-3.359375 -0.68359,-0.878907 -1.97265,-0.878907 -1.34766,0 -2.51953,1.054688 -0.72266,0.664062 -1.09375,2.5 -0.11719,0.507812 -0.44922,1.09375 -0.83985,0.546875 -1.34766,0.546875 -0.42969,0 -0.78125,-0.253906 -0.19531,-0.136719 -0.19531,-0.3125 0,-0.507813 1.07422,-2.285157 1.09375,-1.796875 2.73437,-2.675781 1.66016,-0.898437 2.89063,-0.898437 1.67968,0 2.5,0.3125 0.82031,0.292968 1.44531,1.054687 0.625,0.761719 0.76172,1.660156 0.0781,0.429688 0.0781,3.066407 l -0.0586,3.105468 0.0195,2.265625 q 0,0.449219 -0.0195,0.761719 -0.0195,0.566406 -0.0195,0.839844 0,0.644531 0.37109,1.035156 0.3711,0.390625 0.87891,0.390625 0.74219,0 1.26953,-0.742187 l 0.23437,-0.3125 q 0.0977,-0.05859 0.42969,-0.136719 z m -5.74219,-0.566406 q 0.13672,-2.480469 0.13672,-3.496094 0,-0.527344 -0.0586,-1.425781 -1.30859,0.46875 -2.77344,1.425781 -1.46484,0.957031 -2.32422,2.207031 -0.625,0.898438 -0.625,1.699219 0,0.761719 0.50782,1.269531 0.52734,0.507813 1.30859,0.507813 0.60547,0 1.46484,-0.429688 1.13282,-0.566406 2.36328,-1.757812 z" />
      <path
         id="path2052"
         style="font-size:40px;font-family:Garamond;fill:#000000;stroke:none;stroke-width:1;stroke-miterlimit:4;stroke-dasharray:none;stroke-opacity:1"
         d="m 125.67768,11.409731 q 2.16797,0.01953 3.78907,0.136719 1.15234,0 1.67968,-0.03906 0.3711,-0.01953 0.46875,-0.01953 l 2.1875,0.01953 q 0.44922,0.07813 0.72266,0.09766 0.11719,0.03906 0.21484,0.214844 0,0.195312 -0.11718,0.410156 -0.33203,0.09766 -0.6836,0.117187 -1.46484,0.15625 -2.46093,0.449219 -0.13672,0.09766 -0.13672,0.195313 0,0.195312 0.19531,0.605468 0.0391,0.09766 0.17578,0.46875 l 1.95313,4.6875 q 1.30859,3.222657 2.42187,5.429688 0.76172,-1.445313 1.40625,-2.988281 0.64453,-1.542969 1.89453,-4.863282 0.35156,-0.9375 0.66406,-2.324218 0.0586,-0.273438 0.0586,-0.46875 0,-0.234375 -0.27344,-0.507813 -0.25391,-0.292969 -0.87891,-0.46875 -0.13671,-0.01953 -1.77734,-0.292969 -0.13672,-0.07813 -0.25391,-0.214843 v -0.15625 q 0,-0.09766 0.0195,-0.253907 0.46875,-0.05859 0.68359,-0.05859 l 2.30469,0.01953 q 0.23437,0 1.11328,-0.05859 3.10547,0 3.73047,0.05859 0.11718,0.03906 0.21484,0.234375 0,0.175781 -0.11719,0.390625 l -0.60547,0.15625 q -0.23437,0.01953 -0.37109,0.03906 -1.67969,0.15625 -2.07031,0.46875 -0.29297,0.214844 -0.91797,2.011719 -0.29297,0.878906 -0.85938,2.226563 l -1.01562,2.460937 q -0.21484,0.527344 -0.46875,1.152344 l -3.02734,6.992187 h -0.58594 q -0.17578,-0.46875 -0.42969,-0.976562 l -1.48437,-3.144531 -3.4961,-8.183594 q -1.05469,-2.382813 -1.26953,-2.578125 -0.21484,-0.195313 -2.5,-0.820313 -0.11719,-0.3125 -0.11719,-0.449218 z" />
      <path
         id="path2054"
         style="font-size:40px;font-family:Garamond;fill:#000000;stroke:none;stroke-width:1;stroke-miterlimit:4;stroke-dasharray:none;stroke-opacity:1"
         d="m 159.36909,16.605044 -7.83203,0.05859 h -1.48438 q -0.89843,0 -1.83593,0.07813 -0.17578,0.585937 -0.17578,0.800781 l 0.0195,0.195312 v 0.195313 l -0.0195,0.957031 q 0,1.191406 0.74218,2.929688 0.76172,1.71875 2.14844,2.636718 1.40625,0.898438 3.49609,0.957032 1.11329,-0.05859 1.77735,-0.273438 0.66406,-0.214844 1.875,-0.996094 l 1.40625,-1.152343 0.11719,0.78125 q 0,0.136718 -0.0195,0.292968 -0.8789,1.113282 -2.22656,1.953125 -1.34765,0.839844 -2.73437,1.230469 -0.66407,0.175781 -2.1875,0.175781 -1.38672,0 -2.73438,-0.566406 -1.99219,-0.859375 -3.14453,-2.753906 -1.13281,-1.914063 -1.13281,-4.628906 0,-0.859375 0.3125,-2.207032 0.33203,-1.347656 1.17187,-2.871093 0.56641,-1.035157 1.38672,-1.699219 1.17188,-0.9375 2.05078,-1.308594 1.26953,-0.527343 2.94922,-0.527343 1.81641,0 2.96875,0.664062 1.5625,0.878906 2.32422,2.265625 0.78125,1.386719 0.78125,2.539062 z m -10.89844,-0.703125 h 0.91797 q 0.9961,0 5.9375,-0.3125 0.78125,-0.03906 0.95703,-0.15625 0.35157,-0.371094 0.35157,-0.664063 0,-0.605468 -0.39063,-1.367187 -0.39062,-0.78125 -1.21094,-1.191406 -0.80078,-0.429688 -1.875,-0.429688 -2.26562,0 -3.63281,1.699219 -1.05469,1.289062 -1.05469,2.421875 z" />
      <path
         id="path2056"
         style="font-size:40px;font-family:Garamond;fill:#000000;stroke:none;stroke-width:1;stroke-miterlimit:4;stroke-dasharray:none;stroke-opacity:1"
         d="m 174.78901,12.737856 0.0195,-0.566406 -0.0195,-2.285156 0.0195,-4.316406 q 0,-1.796875 -0.39062,-2.285156 -0.39063,-0.488282 -2.28516,-0.996094 -0.13672,-0.03906 -0.42969,-0.117188 V 1.956607 q 0,-0.195313 0.0391,-0.429688 2.65625,-0.273437 4.57031,-0.917969 l 0.99609,-0.01953 q 0.0781,1.328125 0.0781,2.96875 l -0.0781,7.519531 0.13672,8.476563 -0.0586,4.511719 q 0,1.386718 0.19531,1.5625 0.39063,0.390625 1.71875,0.410156 0.27344,0 0.74219,0.03906 v 0.351563 q 0,0.136719 -0.0195,0.292969 -0.60547,0.136718 -1.25,0.253906 l -2.83203,0.546875 q -0.625,0.117187 -0.9961,0.117187 V 25.7652 q -0.33203,0.09766 -1.03515,0.390625 -3.04688,1.289063 -5.60547,1.289063 -1.54297,0 -3.14453,-0.996094 -1.60157,-1.015625 -2.46094,-2.8125 -0.85938,-1.796875 -0.85938,-3.671875 0,-1.679688 0.56641,-3.203125 0.56641,-1.542969 1.48437,-2.558594 0.58594,-0.664062 1.66016,-1.308594 1.07422,-0.664062 1.77734,-0.839843 1.73829,-0.449219 2.32422,-0.449219 2.63672,0 4.33594,0.78125 0.52734,0.253906 0.80078,0.351562 z m 0.0195,12.070313 q 0.0781,-1.308594 0.0781,-5.390625 0,-3.457031 -0.33203,-4.355469 -0.3125,-0.917969 -1.60157,-1.71875 -1.28906,-0.820312 -2.89062,-0.820312 -2.24609,0 -3.80859,1.738281 -1.5625,1.738281 -1.5625,5.136719 0,2.988281 1.67968,4.765625 1.69922,1.777343 4.21875,1.777343 1.44532,0 2.63672,-0.390625 1.19141,-0.390625 1.58203,-0.742187 z" />
      <path
         id="path2058"
         style="font-size:40px;font-family:Garamond;fill:#000000;stroke:none;stroke-width:1;stroke-miterlimit:4;stroke-dasharray:none;stroke-opacity:1"
         d="m 206.05854,2.815982 q 0.15625,1.289062 0.15625,1.484375 l -0.0781,1.738281 q -0.0391,1.113281 -0.0977,1.425781 -0.17578,0.07813 -0.29297,0.07813 l -0.17578,-0.03906 q -0.625,-2.734375 -2.1289,-3.984375 -1.48438,-1.25 -3.63282,-1.25 -2.22656,0 -3.65234,1.25 -1.42578,1.25 -1.42578,2.910156 0,1.269531 0.99609,2.324219 0.9961,1.054687 5.09766,3.164062 3.125,1.621094 4.47265,2.65625 1.34766,1.015625 2.03125,2.363281 0.6836,1.347657 0.6836,3.007813 0,2.089843 -1.09375,3.925781 -1.07422,1.835937 -2.91016,2.773437 -1.83594,0.917969 -4.86328,0.917969 -2.63672,0 -5.05859,-0.839844 -1.42578,-0.507812 -1.73828,-0.820312 -0.3125,-0.3125 -0.3125,-0.664063 0,-0.214843 0.0391,-0.546875 0.27344,-2.304687 0.29297,-3.789062 0.0391,-0.917969 0.13672,-1.074219 0.0781,-0.136719 0.29296,-0.136719 0.17579,0 0.27344,0.136719 0.11719,0.117188 0.15625,0.46875 0.21485,2.402344 2.22656,4.296875 1.99219,1.894531 4.51172,1.894531 1.54297,0 2.83203,-0.644531 1.3086,-0.644531 2.03125,-1.855469 0.74219,-1.230468 0.74219,-2.382812 0,-1.582031 -1.11328,-2.890625 -1.11328,-1.308594 -4.47266,-3.046875 -3.35937,-1.757813 -4.375,-2.558594 -1.64062,-1.308594 -2.46093,-2.773437 -0.60547,-1.132813 -0.60547,-2.636719 0,-2.714844 2.14844,-4.589844 2.14843,-1.894531 5.76171,-1.894531 1.99219,0 3.4375,0.449219 1.05469,0.351562 2.16797,1.152344 z" />
      <path
         id="path2060"
         style="font-size:40px;font-family:Garamond;fill:#000000;stroke:none;stroke-width:1;stroke-miterlimit:4;stroke-dasharray:none;stroke-opacity:1"
         d="m 210.31636,11.585513 h 1.46484 l 0.64453,0.03906 0.50781,-0.03906 q 2.01172,0 2.5,0.03906 l 0.0195,0.371094 q 0,2.753906 -0.0781,5.332031 -0.0586,1.523438 -0.0586,1.738281 0,3.4375 0.21484,4.296875 0.23437,0.859375 1.05469,1.386719 0.83984,0.507813 2.01172,0.507813 1.42578,0 2.71484,-0.585938 1.30859,-0.605469 2.22656,-1.464844 0.0977,-0.742187 0.0977,-1.640625 0,-2.910156 0.0586,-3.925781 0.0195,-0.605469 0.0195,-1.054687 0,-3.164063 -0.3125,-3.574219 -0.3125,-0.410156 -2.38281,-0.625 -0.68359,-0.07813 -0.99609,-0.136719 -0.15625,-0.253906 -0.15625,-0.390625 l 0.0586,-0.214844 q 0.50781,-0.05859 0.99609,-0.05859 l 3.10547,0.03906 q 1.66016,-0.03906 1.75782,-0.03906 0.21484,0 0.41015,0.01953 l 0.0391,1.425781 q -0.13671,2.96875 -0.15625,7.34375 l -0.0391,1.582031 0.0781,2.65625 q 0.17578,0.3125 0.3125,0.371094 0.23437,0.09766 0.95703,0.09766 h 0.17578 q 0.25391,0 1.44531,0.117188 0.0195,0.253906 0.0195,0.371094 v 0.214843 q -2.61713,0.566407 -4.23823,1.132813 -0.64453,0.214844 -1.09375,0.3125 -0.0977,-0.683594 -0.0977,-0.839844 v -1.582031 q 0,-0.09766 -0.0195,-0.527344 -0.2539,0.175781 -0.58593,0.429688 -1.54297,1.191406 -3.26172,2.011718 -1.15235,0.566407 -2.22656,0.566407 -2.05079,0 -3.33985,-1.523438 -1.30859,-1.523437 -1.30859,-5.195312 0,-0.195313 0.0195,-0.703125 0.0781,-0.9375 0.0781,-1.308594 0,-0.136719 -0.0195,-0.859375 -0.0195,-0.3125 -0.0195,-0.546875 0,-0.175781 0.0195,-0.78125 0.0195,-0.625 0.0195,-0.878906 0,-0.332032 -0.0195,-0.585938 l -0.0391,-1.035156 0.0195,-0.546875 q 0,-0.3125 -0.3125,-0.566406 -1.23047,-0.332032 -1.62109,-0.371094 -0.3711,-0.05859 -0.66406,-0.175781 z" />
      <path
         id="path2062"
         style="font-size:40px;font-family:Garamond;fill:#000000;stroke:none;stroke-width:1;stroke-miterlimit:4;stroke-dasharray:none;stroke-opacity:1"
         d="m 244.88667,23.343325 0.0195,1.269531 q -1.52344,1.621094 -3.00781,2.265625 -1.48438,0.644532 -3.4961,0.644532 -2.1875,0 -3.94531,-1.132813 -1.75781,-1.152344 -2.71484,-3.242187 -0.9375,-2.089844 -0.9375,-4.101563 0,-2.207031 1.13281,-4.160156 1.15234,-1.972656 3.02734,-2.929688 1.89453,-0.976562 4.7461,-0.976562 2.73437,0 4.16015,0.9375 0.80078,0.546875 0.80078,1.40625 0,0.625 -0.41015,1.035156 -0.41016,0.410156 -1.05469,0.410156 -0.97656,0 -2.14844,-1.210937 -0.72265,-0.742188 -1.30859,-1.015625 -0.58594,-0.292969 -1.30859,-0.292969 -1.73829,0 -2.89063,1.425781 -1.60156,2.03125 -1.60156,5.097657 0,3.164062 1.64062,5.039062 1.64063,1.875 3.82813,1.875 1.52344,0 2.69531,-0.488281 1.19141,-0.507812 2.77344,-1.855469 z" />
      <path
         id="path2064"
         style="font-size:40px;font-family:Garamond;fill:#000000;stroke:none;stroke-width:1;stroke-miterlimit:4;stroke-dasharray:none;stroke-opacity:1"
         d="m 261.52729,23.343325 0.0195,1.269531 q -1.52343,1.621094 -3.00781,2.265625 -1.48437,0.644532 -3.49609,0.644532 -2.1875,0 -3.94531,-1.132813 -1.75782,-1.152344 -2.71485,-3.242187 -0.9375,-2.089844 -0.9375,-4.101563 0,-2.207031 1.13281,-4.160156 1.15235,-1.972656 3.02735,-2.929688 1.89453,-0.976562 4.74609,-0.976562 2.73438,0 4.16016,0.9375 0.80078,0.546875 0.80078,1.40625 0,0.625 -0.41016,1.035156 -0.41015,0.410156 -1.05468,0.410156 -0.97657,0 -2.14844,-1.210937 -0.72266,-0.742188 -1.3086,-1.015625 -0.58593,-0.292969 -1.30859,-0.292969 -1.73828,0 -2.89062,1.425781 -1.60157,2.03125 -1.60157,5.097657 0,3.164062 1.64063,5.039062 1.64062,1.875 3.82812,1.875 1.52344,0 2.69532,-0.488281 1.1914,-0.507812 2.77343,-1.855469 z" />
      <path
         id="path2066"
         style="font-size:40px;font-family:Garamond;fill:#000000;stroke:none;stroke-width:1;stroke-miterlimit:4;stroke-dasharray:none;stroke-opacity:1"
         d="m 278.0312,16.605044 -7.83203,0.05859 h -1.48438 q -0.89843,0 -1.83593,0.07813 -0.17579,0.585937 -0.17579,0.800781 l 0.0195,0.195312 v 0.195313 l -0.0195,0.957031 q 0,1.191406 0.74219,2.929688 0.76172,1.71875 2.14844,2.636718 1.40625,0.898438 3.49609,0.957032 1.11328,-0.05859 1.77735,-0.273438 0.66406,-0.214844 1.875,-0.996094 l 1.40625,-1.152343 0.11718,0.78125 q 0,0.136718 -0.0195,0.292968 -0.8789,1.113282 -2.22656,1.953125 -1.34766,0.839844 -2.73437,1.230469 -0.66407,0.175781 -2.1875,0.175781 -1.38672,0 -2.73438,-0.566406 -1.99219,-0.859375 -3.14453,-2.753906 -1.13281,-1.914063 -1.13281,-4.628906 0,-0.859375 0.3125,-2.207032 0.33203,-1.347656 1.17187,-2.871093 0.56641,-1.035157 1.38672,-1.699219 1.17188,-0.9375 2.05078,-1.308594 1.26953,-0.527343 2.94922,-0.527343 1.81641,0 2.96875,0.664062 1.5625,0.878906 2.32422,2.265625 0.78125,1.386719 0.78125,2.539062 z m -10.89844,-0.703125 h 0.91797 q 0.99609,0 5.9375,-0.3125 0.78125,-0.03906 0.95703,-0.15625 0.35156,-0.371094 0.35156,-0.664063 0,-0.605468 -0.39062,-1.367187 -0.39063,-0.78125 -1.21094,-1.191406 -0.80078,-0.429688 -1.875,-0.429688 -2.26562,0 -3.63281,1.699219 -1.05469,1.289062 -1.05469,2.421875 z" />
      <path
         id="path2068"
         style="font-size:40px;font-family:Garamond;fill:#000000;stroke:none;stroke-width:1;stroke-miterlimit:4;stroke-dasharray:none;stroke-opacity:1"
         d="m 282.03511,21.956606 q 0.72265,1.855469 1.09375,2.402344 0.74218,1.113281 1.77734,1.738281 1.03516,0.605469 2.24609,0.605469 1.11328,0 2.20703,-0.957031 0.78125,-0.722656 0.78125,-1.679688 0,-1.269531 -0.91796,-2.34375 -0.91797,-1.054687 -3.4961,-2.011718 -2.55859,-0.976563 -3.4375,-2.070313 -0.8789,-1.09375 -0.8789,-2.5 0,-1.328125 0.72265,-2.34375 0.72266,-1.015625 1.99219,-1.523437 1.26953,-0.527344 2.34375,-0.527344 1.38672,0 2.48047,0.214844 1.11328,0.214843 1.91406,0.664062 0.15625,0.996094 0.25391,2.929688 l 0.0391,0.625 q -0.25391,0.01953 -0.42969,0.01953 h -0.27344 q -0.58593,-1.621094 -1.79687,-2.558594 -1.19141,-0.957031 -2.36328,-0.957031 -1.17188,0 -1.89453,0.722656 -0.72266,0.703125 -0.72266,1.855469 0,0.878906 0.58594,1.5625 0.58594,0.683594 2.73437,1.5625 2.16797,0.878906 3.14453,1.640625 0.9961,0.742187 1.46485,1.816406 0.46875,1.074219 0.46875,2.050781 0,1.347657 -0.89844,2.519532 -0.87891,1.171875 -2.22656,1.640625 -1.32817,0.488282 -2.38285,0.488282 -2.48047,0 -4.57032,-0.917969 -0.19531,-0.15625 -0.21484,-0.585937 0,-0.175782 -0.0391,-0.566407 -0.3125,-2.636718 -0.3125,-3.125 0,-0.234375 0.0976,-0.3125 0.0977,-0.07813 0.50782,-0.07813 z" />
      <path
         id="path2070"
         style="font-size:40px;font-family:Garamond;fill:#000000;stroke:none;stroke-width:1;stroke-miterlimit:4;stroke-dasharray:none;stroke-opacity:1"
         d="m 296.64448,21.956606 q 0.72266,1.855469 1.09375,2.402344 0.74219,1.113281 1.77734,1.738281 1.03516,0.605469 2.2461,0.605469 1.11328,0 2.20703,-0.957031 0.78125,-0.722656 0.78125,-1.679688 0,-1.269531 -0.91797,-2.34375 -0.91797,-1.054687 -3.49609,-2.011718 -2.5586,-0.976563 -3.4375,-2.070313 -0.87891,-1.09375 -0.87891,-2.5 0,-1.328125 0.72266,-2.34375 0.72265,-1.015625 1.99218,-1.523437 1.26954,-0.527344 2.34375,-0.527344 1.38672,0 2.48047,0.214844 1.11328,0.214843 1.91407,0.664062 0.15625,0.996094 0.2539,2.929688 l 0.0391,0.625 q -0.2539,0.01953 -0.42968,0.01953 h -0.27348 q -0.58594,-1.621094 -1.79688,-2.558594 -1.1914,-0.957031 -2.36328,-0.957031 -1.17187,0 -1.89453,0.722656 -0.72265,0.703125 -0.72265,1.855469 0,0.878906 0.58593,1.5625 0.58594,0.683594 2.73438,1.5625 2.16797,0.878906 3.14453,1.640625 0.99609,0.742187 1.46484,1.816406 0.46875,1.074219 0.46875,2.050781 0,1.347657 -0.89843,2.519532 -0.87891,1.171875 -2.22657,1.640625 -1.32812,0.488282 -2.38281,0.488282 -2.48047,0 -4.57031,-0.917969 -0.19531,-0.15625 -0.21485,-0.585937 0,-0.175782 -0.0391,-0.566407 -0.3125,-2.636718 -0.3125,-3.125 0,-0.234375 0.0977,-0.3125 0.0976,-0.07813 0.50781,-0.07813 z" />
      <path
         id="path2072"
         style="font-size:40px;font-family:Garamond;fill:#000000;stroke:none;stroke-width:1;stroke-miterlimit:4;stroke-dasharray:none;stroke-opacity:1"
         d="m 315.60932,11.7027 q 4.86329,0.117188 5.17579,0.117188 0.0391,0.429687 0.0391,0.644531 0,0.253906 -0.0586,0.761719 -0.48828,0.07813 -0.99609,0.07813 h -0.74219 q -2.42187,0 -3.35937,0.175781 -0.0391,0.449219 -0.0391,0.683594 0,0.09766 0.0195,0.292968 0.0976,3.066407 0.0976,3.710938 l -0.0391,5.019531 q 0,1.113281 0.37109,1.855469 0.21485,0.429687 0.80079,0.683594 0.37109,0.175781 1.79687,0.351562 1.07422,0.15625 1.44531,0.214844 0,0.410156 -0.0586,0.625 l -0.27344,0.01953 q -0.9375,-0.05859 -2.4414,-0.09766 l -1.44532,-0.05859 -4.92187,0.15625 h -0.64453 l -0.0195,-0.605469 q 0.29296,-0.05859 0.42968,-0.09766 1.67969,-0.3125 2.16797,-0.703125 0.19531,-0.15625 0.27344,-0.566406 0.0391,-0.234375 0.0391,-2.1875 0,-5.566406 -0.0976,-8.886719 -0.50782,-0.15625 -1.5625,-0.195312 -0.39063,0 -1.23047,-0.07813 l -0.0391,-0.214844 q 0,-0.234375 0.19532,-0.390625 0.0781,-0.07813 1.64062,-0.820313 0.60547,-0.273437 0.85938,-0.683593 0.13672,-0.214844 0.15625,-0.898438 0.0195,-0.3125 0.11718,-1.074218 0.23438,-2.011719 0.3711,-2.480469 0.35156,-1.308594 1.17187,-2.597656 0.83985,-1.308594 2.01172,-2.285157 0.85938,-0.703125 1.9336,-1.054687 1.09375,-0.351563 2.48046,-0.351563 1.85547,0 2.71485,0.605469 0.58594,0.410156 0.58594,1.054688 0,0.546875 -0.41016,0.9375 -0.41016,0.390625 -1.01563,0.390625 -0.74218,0 -1.60156,-0.371094 -1.62109,-0.644531 -1.83594,-0.703125 -0.37109,-0.09766 -0.76171,-0.09766 -1.07422,0 -1.97266,0.683593 -0.87891,0.683594 -1.11328,1.679688 -0.23438,0.996094 -0.23438,4.472656 0,1.25 0.0195,2.285156 z" />
      <path
         id="path2074"
         style="font-size:40px;font-family:Garamond;fill:#000000;stroke:none;stroke-width:1;stroke-miterlimit:4;stroke-dasharray:none;stroke-opacity:1"
         d="m 321.95698,11.585513 h 1.46484 l 0.64454,0.03906 0.50781,-0.03906 q 2.01172,0 2.5,0.03906 l 0.0195,0.371094 q 0,2.753906 -0.0781,5.332031 -0.0586,1.523438 -0.0586,1.738281 0,3.4375 0.21484,4.296875 0.23438,0.859375 1.05469,1.386719 0.83985,0.507813 2.01172,0.507813 1.42578,0 2.71484,-0.585938 1.3086,-0.605469 2.22657,-1.464844 0.0976,-0.742187 0.0976,-1.640625 0,-2.910156 0.0586,-3.925781 0.0195,-0.605469 0.0195,-1.054687 0,-3.164063 -0.3125,-3.574219 -0.3125,-0.410156 -2.38281,-0.625 -0.6836,-0.07813 -0.9961,-0.136719 -0.15625,-0.253906 -0.15625,-0.390625 l 0.0586,-0.214844 q 0.50781,-0.05859 0.99609,-0.05859 l 3.10547,0.03906 q 1.66015,-0.03906 1.75781,-0.03906 0.21484,0 0.41016,0.01953 l 0.0391,1.425781 q -0.13672,2.96875 -0.15625,7.34375 l -0.0391,1.582031 0.0781,2.65625 q 0.17578,0.3125 0.3125,0.371094 0.23438,0.09766 0.95703,0.09766 h 0.17578 q 0.25391,0 1.44532,0.117188 0.0195,0.253906 0.0195,0.371094 v 0.214843 q -2.61705,0.566407 -4.23814,1.132813 -0.64453,0.214844 -1.09375,0.3125 -0.0977,-0.683594 -0.0977,-0.839844 v -1.582031 q 0,-0.09766 -0.0195,-0.527344 -0.25391,0.175781 -0.58594,0.429688 -1.54297,1.191406 -3.26172,2.011718 -1.15234,0.566407 -2.22656,0.566407 -2.05078,0 -3.33984,-1.523438 -1.3086,-1.523437 -1.3086,-5.195312 0,-0.195313 0.0195,-0.703125 0.0781,-0.9375 0.0781,-1.308594 0,-0.136719 -0.0195,-0.859375 -0.0195,-0.3125 -0.0195,-0.546875 0,-0.175781 0.0195,-0.78125 0.0195,-0.625 0.0195,-0.878906 0,-0.332032 -0.0195,-0.585938 l -0.0391,-1.035156 0.0195,-0.546875 q 0,-0.3125 -0.3125,-0.566406 -1.23047,-0.332032 -1.6211,-0.371094 -0.37109,-0.05859 -0.66406,-0.175781 z" />
      <path
         id="path2076"
         style="font-size:40px;font-family:Garamond;fill:#000000;stroke:none;stroke-width:1;stroke-miterlimit:4;stroke-dasharray:none;stroke-opacity:1"
         d="M 341.93745,2.718325 V 2.288638 q 0.54687,-0.175781 1.21094,-0.371094 0.97656,-0.3125 2.89062,-0.957031 h 0.91797 q 0.0195,0.9375 0.0195,1.074219 0,16.035156 -0.0976,19.121093 -0.0586,1.816406 -0.0586,1.933594 0,2.1875 0.17578,2.441406 0.23438,0.351563 1.42578,0.488281 1.21094,0.136719 1.42579,0.273438 0.15625,0.07813 0.15625,0.273437 0,0.214844 -0.0977,0.3125 -0.0781,0.07813 -0.3125,0.07813 -0.13672,0 -2.05078,-0.05859 l -2.5586,-0.07813 -3.28125,0.136718 q -0.3125,0.01953 -0.46875,-0.117187 -0.11718,-0.09766 -0.11718,-0.273438 0,-0.195312 0.11718,-0.273437 0.13672,-0.09766 1.40625,-0.3125 1.28907,-0.214844 1.46485,-0.351563 0.19531,-0.15625 0.2539,-0.664062 0.0781,-0.703125 0.0781,-3.964844 l -0.0195,-4.492187 0.0586,-4.648438 -0.0195,-4.648437 0.0586,-2.285156 q 0,-0.683594 -0.21484,-0.976563 -0.21484,-0.3125 -0.91797,-0.605469 -1.05469,-0.429687 -1.44531,-0.625 z" />
      <path
         id="path2078"
         style="font-size:40px;font-family:Garamond;fill:#000000;stroke:none;stroke-width:1;stroke-miterlimit:4;stroke-dasharray:none;stroke-opacity:1"
         d="M 351.07807,2.718325 V 2.288638 q 0.54688,-0.175781 1.21094,-0.371094 0.97656,-0.3125 2.89063,-0.957031 h 0.91797 q 0.0195,0.9375 0.0195,1.074219 0,16.035156 -0.0977,19.121093 -0.0586,1.816406 -0.0586,1.933594 0,2.1875 0.17578,2.441406 0.23437,0.351563 1.42578,0.488281 1.21094,0.136719 1.42578,0.273438 0.15625,0.07813 0.15625,0.273437 0,0.214844 -0.0977,0.3125 -0.0781,0.07813 -0.3125,0.07813 -0.13671,0 -2.05078,-0.05859 l -2.55859,-0.07813 -3.28125,0.136718 q -0.3125,0.01953 -0.46875,-0.117187 -0.11719,-0.09766 -0.11719,-0.273438 0,-0.195312 0.11719,-0.273437 0.13672,-0.09766 1.40625,-0.3125 1.28906,-0.214844 1.46484,-0.351563 0.19532,-0.15625 0.25391,-0.664062 0.0781,-0.703125 0.0781,-3.964844 l -0.0195,-4.492187 0.0586,-4.648438 -0.0195,-4.648437 0.0586,-2.285156 q 0,-0.683594 -0.21484,-0.976563 -0.21485,-0.3125 -0.91797,-0.605469 -1.05469,-0.429687 -1.44532,-0.625 z" />
      <path
         id="path2080"
         style="font-size:40px;font-family:Garamond;fill:#000000;stroke:none;stroke-width:1;stroke-miterlimit:4;stroke-dasharray:none;stroke-opacity:1"
         d="m 359.43745,11.526919 q 0.42969,-0.03906 0.72266,-0.03906 h 0.9375 l 1.26953,-0.03906 1.66015,0.05859 1.34766,-0.03906 q 1.07422,0 1.93359,0.136719 0.0781,0.195312 0.0781,0.3125 l -0.0195,0.15625 q -0.41016,0.195312 -1.26953,0.273437 -1.21094,0.09766 -1.73829,0.429688 l -0.0391,0.214844 q 0,0.195312 0.15625,0.585937 0.0977,0.234375 0.25391,0.703125 0.42969,1.445313 1.85547,5.585938 1.03515,2.988281 1.91406,5.136718 0.54687,-1.171875 1.25,-2.96875 l 1.66016,-4.628906 q 0.54687,-1.523437 0.83984,-3.046875 0.11719,-0.605469 0.11719,-0.957031 0,-0.292969 -0.25391,-0.546875 -0.25391,-0.253906 -1.01562,-0.429688 -1.38672,-0.351562 -1.50391,-0.429687 -0.11719,-0.09766 -0.13672,-0.390625 0.11719,-0.09766 0.27344,-0.15625 h 1.21094 l 1.30859,0.01953 1.95312,-0.01953 1.25,0.01953 0.3125,-0.01953 q 0.13672,0 0.44922,0.03906 0.19532,0.09766 0.19532,0.3125 0,0.195313 -0.17579,0.351563 l -0.39062,0.05859 q -1.13281,0.15625 -1.73828,0.585937 -0.33203,0.234375 -0.56641,0.976563 -0.0781,0.273437 -0.2539,0.703125 -0.0977,0.234375 -0.29297,0.78125 -0.17578,0.546875 -0.46875,1.289062 l -0.23438,0.546875 -0.0195,0.09766 -3.32031,8.75 -2.42188,6.582031 q -0.23437,0.488282 -0.54687,1.210938 -0.74219,1.386719 -0.87891,1.523437 -0.58594,0.722657 -1.01562,1.015625 l -0.9961,0.429688 q -0.29297,0.07813 -0.625,0.07813 -0.8789,0 -1.28906,-0.390625 -0.41016,-0.371094 -0.41016,-1.035156 0,-0.625 0.60547,-1.132813 0.19532,-0.05859 0.39063,-0.15625 l 0.2539,-0.05859 q 1.73829,0.3125 2.16797,0.3125 0.41016,-0.214844 0.60547,-0.507812 0.95703,-1.425782 1.64063,-3.183594 0.68359,-1.757812 0.68359,-2.363281 0,-0.664063 -0.50781,-1.933594 l -2.16796,-5.742185 q -0.44922,-1.113281 -2.67578,-7.265625 -0.13672,-0.390625 -0.35156,-0.585938 l -1.32813,-0.488281 -0.41016,-0.07813 q -0.33203,-0.136719 -0.33203,-0.390625 z" />
      <path
         sodipodi:nodetypes="sscccscscscccss"
         id="path2082"
         style="font-size:40px;font-family:Garamond;fill:#000000;stroke:none;stroke-width:1;stroke-miterlimit:4;stroke-dasharray:none;stroke-opacity:1"
         d="m 380.58979,21.253481 c -0.13021,0.02604 -0.22786,0.03906 -0.29297,0.03906 -0.0911,0 -0.22786,-0.01953 -0.41015,-0.05859 l -0.625,-11.25 c -0.0391,-0.78125 -0.14974,-1.777343 -0.33203,-2.988281 -0.26042,-1.614583 -0.39063,-2.773437 -0.39063,-3.476562 0,-0.703125 0.16276,-1.230469 0.48828,-1.582032 0.32552,-0.364583 0.72266,-0.546875 1.19141,-0.546875 0.50781,0 0.9375,0.182292 1.28906,0.546875 0.35157,0.351563 0.52735,0.852865 0.52735,1.503907 0,0.598958 -0.13021,2.024739 -0.39063,4.277343 -0.50781,4.322917 -0.77474,7.128907 -0.80078,8.417969 l -0.15625,4.6875 c -0.013,0.104167 -0.0456,0.247396 -0.0977,0.429688 z" />
      <path
         id="path863"
         d="m 377.4932,30.196177 c 0,-0.127406 0.053,-0.511275 0.11785,-0.853043 l 0.11785,-0.621395 -0.54074,-0.580662 c -1.32959,-1.427753 -1.35509,-2.773681 -0.0691,-3.648893 0.5369,-0.365406 1.338,-0.375197 1.78721,-0.02184 l 0.32781,0.257845 0.36577,-0.288922 c 0.45634,-0.360467 0.54424,-1.096915 0.13091,-1.096915 -0.13812,0 -0.24861,-0.08287 -0.24861,-0.186461 0,-0.103587 0.11049,-0.186459 0.24861,-0.186459 0.16574,0 0.24862,-0.08287 0.24862,-0.248613 0,-0.165742 0.0829,-0.248614 0.24861,-0.248614 0.16574,0 0.24861,0.08287 0.24861,0.248614 0,0.165741 0.0829,0.248613 0.24862,0.248613 0.13812,0 0.24861,0.08287 0.24861,0.186459 0,0.103589 -0.11049,0.186461 -0.24861,0.186461 -0.37694,0 -0.3326,0.650561 0.0719,1.055064 l 0.32052,0.320523 0.40891,-0.25272 c 1.05704,-0.653288 2.54982,0.09646 2.75903,1.385722 0.0971,0.598229 -0.36239,1.599156 -1.06366,2.3171 l -0.52464,0.537112 0.13273,0.618841 c 0.25878,1.206686 0.50124,1.103833 -2.60203,1.103833 -2.5851,0 -2.73475,-0.01267 -2.73475,-0.231647 z m 5.09657,-0.327734 c 0,-0.159199 -0.3453,-0.186459 -2.36182,-0.186459 -2.01654,0 -2.36183,0.02726 -2.36183,0.186459 0,0.1592 0.34529,0.186461 2.36183,0.186461 2.01652,0 2.36182,-0.02726 2.36182,-0.186461 z m -4.1183,-0.765349 c -0.22482,-0.270882 -0.48104,-0.195697 -0.48104,0.141153 0,0.28327 0.025,0.296724 0.30979,0.166949 0.24041,-0.109538 0.27876,-0.178546 0.17125,-0.308102 z m 3.994,0.143817 c 0,-0.331686 -0.2258,-0.408165 -0.47357,-0.1604 -0.11762,0.11762 -0.0892,0.184342 0.13053,0.306363 0.15448,0.0858 0.29488,0.157976 0.31195,0.160398 0.0171,0.0024 0.0311,-0.13544 0.0311,-0.306361 z m -1.61599,-0.237509 c 0,-0.02457 -0.13985,-0.136294 -0.31076,-0.248287 -0.28867,-0.189135 -0.3337,-0.188599 -0.63306,0.0076 l -0.32229,0.211175 0.28666,0.216237 c 0.25612,0.193192 0.32359,0.197147 0.63306,0.03711 0.19051,-0.09852 0.34639,-0.199222 0.34639,-0.223787 z m -1.43063,-0.70669 c 0.76324,-0.130659 1.66807,-0.07098 2.40705,0.158753 0.40186,0.124929 0.44147,0.10553 1.08763,-0.532604 1.10608,-1.092336 1.32122,-2.167697 0.57591,-2.878692 -0.56638,-0.540324 -0.96083,-0.628625 -1.58156,-0.354047 -0.59275,0.262206 -1.04149,0.896951 -1.3814,1.954035 -0.1075,0.334318 -0.22433,0.691756 -0.25961,0.79431 -0.0353,0.102553 -0.14477,-0.120976 -0.24328,-0.496731 -0.28918,-1.102968 -0.79703,-1.883625 -1.44123,-2.215383 -0.51751,-0.266515 -0.59145,-0.274778 -0.98551,-0.110133 -0.23432,0.0979 -0.57723,0.357714 -0.76206,0.577362 -0.61482,0.730663 -0.3787,1.645795 0.71861,2.785216 0.45649,0.474024 0.63783,0.585741 0.85046,0.523946 0.14864,-0.0432 0.60538,-0.135911 1.01499,-0.206032 z m -1.63423,-0.762569 c -0.63313,-0.65761 -0.78864,-0.954574 -0.78864,-1.50598 0,-0.330009 0.0904,-0.508284 0.38245,-0.754013 0.21035,-0.176998 0.49663,-0.321816 0.63616,-0.321816 0.40123,0 1.15274,0.856984 1.44845,1.651726 0.39581,1.063779 0.37156,1.163519 -0.3076,1.265363 -0.31639,0.04745 -0.63929,0.110837 -0.71754,0.140869 -0.0783,0.03003 -0.37224,-0.184239 -0.65328,-0.476149 z m 3.58008,0.365557 -0.66568,-0.127634 0.072,-0.44344 c 0.12054,-0.742794 0.80035,-1.984584 1.19942,-2.190953 0.49474,-0.255839 0.66588,-0.234741 1.10705,0.136477 0.41525,0.349414 0.51258,0.93172 0.24364,1.457725 -0.15554,0.304223 -1.11883,1.337138 -1.22335,1.311793 -0.037,-0.009 -0.36691,-0.07377 -0.73305,-0.143968 z m -1.01245,-1.740169 c 0,-0.0881 0.11131,-0.378484 0.24734,-0.645307 0.22471,-0.440775 0.23014,-0.511367 0.0593,-0.772122 -0.23168,-0.3536 -0.56795,-0.367709 -0.86779,-0.03641 -0.21993,0.243031 -0.21864,0.266854 0.0429,0.790531 0.14831,0.296972 0.26966,0.603743 0.26966,0.681715 0,0.07797 0.0559,0.141768 0.12431,0.141768 0.0684,0 0.1243,-0.07208 0.1243,-0.160176 z m -0.30154,-0.917217 c -0.10195,-0.265696 0.12562,-0.515623 0.30563,-0.335627 0.13515,0.135158 0.0387,0.542873 -0.12839,0.542873 -0.0537,0 -0.1335,-0.09326 -0.17724,-0.207246 z"
         style="fill:#1a1a1a;fill-opacity:1;stroke:none;stroke-width:0.124307;stroke-opacity:1" />
      <path
         d="m 106.55323,2.917653 q 0.15625,1.289062 0.15625,1.484375 l -0.0781,1.738281 q -0.0391,1.113281 -0.0977,1.425781 -0.17578,0.07813 -0.29297,0.07813 l -0.17578,-0.03906 q -0.625,-2.734375 -2.1289,-3.984375 -1.48438,-1.25 -3.63282,-1.25 -2.226555,0 -3.652336,1.25 -1.425781,1.25 -1.425781,2.910156 0,1.269531 0.996093,2.324219 0.996094,1.054687 5.097654,3.164062 3.125,1.621094 4.47266,2.65625 1.34765,1.015625 2.03125,2.363281 0.68359,1.347656 0.68359,3.007813 0,2.089843 -1.09375,3.925781 -1.07422,1.835937 -2.91016,2.773437 -1.83593,0.917969 -4.863276,0.917969 -2.636718,0 -5.058593,-0.839844 -1.425781,-0.507812 -1.738281,-0.820312 -0.3125,-0.3125 -0.3125,-0.664063 0,-0.214843 0.03906,-0.546875 0.273437,-2.304687 0.292968,-3.789062 0.03906,-0.917969 0.136719,-1.074219 0.07813,-0.136719 0.292969,-0.136719 0.175781,0 0.273437,0.136719 0.117188,0.117188 0.15625,0.46875 0.214844,2.402344 2.226563,4.296875 1.992187,1.894531 4.511714,1.894531 1.54297,0 2.83204,-0.644531 1.30859,-0.644531 2.03125,-1.855469 0.74218,-1.230468 0.74218,-2.382812 0,-1.582031 -1.11328,-2.890625 -1.11326,-1.308601 -4.47263,-3.046882 -3.359376,-1.757813 -4.375001,-2.558594 -1.640625,-1.308594 -2.460938,-2.773437 -0.605468,-1.132813 -0.605468,-2.636719 0,-2.714844 2.148437,-4.589844 2.148438,-1.894531 5.76172,-1.894531 1.99218,0 3.4375,0.449219 1.05468,0.351562 2.16796,1.152344 z"
         style="font-size:40px;font-family:Garamond;fill:none;fill-opacity:1;stroke:#000000;stroke-width:1;stroke-miterlimit:4;stroke-dasharray:none;stroke-opacity:1"
         id="path2048-7" />
      <path
         d="m 126.04542,24.362965 q 0.11719,0.253906 0.11719,0.371094 0,0.292968 -0.46875,1.035156 -0.60547,0.976562 -1.34766,1.425781 -0.46875,0.292969 -1.28906,0.292969 -1.40625,0 -2.10937,-0.859375 -0.42969,-0.507813 -0.60547,-1.816406 l -2.1875,1.523437 q -1.15235,0.664063 -1.75782,0.839844 -0.97656,0.253906 -2.34375,0.253906 -0.99609,0 -1.58203,-0.585937 -0.5664,-0.605469 -0.5664,-1.542969 0,-1.347656 1.64062,-3.222656 1.66016,-1.875 4.49219,-3.066407 1.99219,-0.839843 2.44141,-1.074218 0.0391,-0.644532 0.0391,-1.40625 0,-2.480469 -0.70313,-3.359375 -0.68359,-0.878907 -1.97265,-0.878907 -1.34766,0 -2.51953,1.054688 -0.72266,0.664062 -1.09375,2.5 -0.11719,0.507812 -0.44922,1.09375 -0.83985,0.546875 -1.34766,0.546875 -0.42969,0 -0.78125,-0.253906 -0.19531,-0.136719 -0.19531,-0.3125 0,-0.507813 1.07422,-2.285157 1.09375,-1.796875 2.73437,-2.675781 1.66016,-0.898437 2.89063,-0.898437 1.67968,0 2.5,0.3125 0.82031,0.292968 1.44531,1.054687 0.625,0.761719 0.76172,1.660156 0.0781,0.429688 0.0781,3.066407 l -0.0586,3.105468 0.0195,2.265625 q 0,0.449219 -0.0195,0.761719 -0.0195,0.566406 -0.0195,0.839844 0,0.644531 0.37109,1.035156 0.3711,0.390625 0.87891,0.390625 0.74219,0 1.26953,-0.742187 l 0.23437,-0.3125 q 0.0977,-0.05859 0.42969,-0.136719 z m -5.74219,-0.566406 q 0.13672,-2.480469 0.13672,-3.496094 0,-0.527344 -0.0586,-1.425781 -1.30859,0.46875 -2.77344,1.425781 -1.46484,0.957031 -2.32422,2.207031 -0.625,0.898438 -0.625,1.699219 0,0.761719 0.50782,1.269531 0.52734,0.507813 1.30859,0.507813 0.60547,0 1.46484,-0.429688 1.13282,-0.566406 2.36328,-1.757812 z"
         style="font-size:40px;font-family:Garamond;fill:none;fill-opacity:1;stroke:#000000;stroke-width:1;stroke-miterlimit:4;stroke-dasharray:none;stroke-opacity:1"
         id="path2050-9" />
      <path
         d="m 125.70362,11.511402 q 2.16797,0.01953 3.78907,0.136719 1.15234,0 1.67968,-0.03906 0.3711,-0.01953 0.46875,-0.01953 l 2.1875,0.01953 q 0.44922,0.07813 0.72266,0.09766 0.11719,0.03906 0.21484,0.214844 0,0.195312 -0.11718,0.410156 -0.33203,0.09766 -0.6836,0.117187 -1.46484,0.15625 -2.46093,0.449219 -0.13672,0.09766 -0.13672,0.195313 0,0.195312 0.19531,0.605468 0.0391,0.09766 0.17578,0.46875 l 1.95313,4.6875 q 1.30859,3.222657 2.42187,5.429688 0.76172,-1.445313 1.40625,-2.988281 0.64453,-1.542969 1.89453,-4.863282 0.35156,-0.9375 0.66406,-2.324218 0.0586,-0.273438 0.0586,-0.46875 0,-0.234375 -0.27344,-0.507813 -0.25391,-0.292969 -0.87891,-0.46875 -0.13671,-0.01953 -1.77734,-0.292969 -0.13672,-0.07813 -0.25391,-0.214843 v -0.15625 q 0,-0.09766 0.0195,-0.253907 0.46875,-0.05859 0.68359,-0.05859 l 2.30469,0.01953 q 0.23437,0 1.11328,-0.05859 3.10547,0 3.73047,0.05859 0.11718,0.03906 0.21484,0.234375 0,0.175781 -0.11719,0.390625 l -0.60547,0.15625 q -0.23437,0.01953 -0.37109,0.03906 -1.67969,0.15625 -2.07031,0.46875 -0.29297,0.214844 -0.91797,2.011719 -0.29297,0.878906 -0.85938,2.226563 l -1.01562,2.460937 q -0.21484,0.527344 -0.46875,1.152344 l -3.02734,6.992187 h -0.58594 q -0.17578,-0.46875 -0.42969,-0.976562 l -1.48437,-3.144531 -3.4961,-8.183594 q -1.05469,-2.382813 -1.26953,-2.578125 -0.21484,-0.195313 -2.5,-0.820313 -0.11719,-0.3125 -0.11719,-0.449218 z"
         style="font-size:40px;font-family:Garamond;fill:none;fill-opacity:1;stroke:#000000;stroke-width:1;stroke-miterlimit:4;stroke-dasharray:none;stroke-opacity:1"
         id="path2052-6" />
      <path
         d="m 159.39503,16.706715 -7.83203,0.05859 h -1.48438 q -0.89843,0 -1.83593,0.07813 -0.17578,0.585937 -0.17578,0.800781 l 0.0195,0.195312 v 0.195313 l -0.0195,0.957031 q 0,1.191406 0.74218,2.929688 0.76172,1.71875 2.14844,2.636718 1.40625,0.898438 3.49609,0.957032 1.11329,-0.05859 1.77735,-0.273438 0.66406,-0.214844 1.875,-0.996094 l 1.40625,-1.152343 0.11719,0.78125 q 0,0.136718 -0.0195,0.292968 -0.8789,1.113282 -2.22656,1.953125 -1.34765,0.839844 -2.73437,1.230469 -0.66407,0.175781 -2.1875,0.175781 -1.38672,0 -2.73438,-0.566406 -1.99219,-0.859375 -3.14453,-2.753906 -1.13281,-1.914063 -1.13281,-4.628906 0,-0.859375 0.3125,-2.207032 0.33203,-1.347656 1.17187,-2.871093 0.56641,-1.035157 1.38672,-1.699219 1.17188,-0.9375 2.05078,-1.308594 1.26953,-0.527343 2.94922,-0.527343 1.81641,0 2.96875,0.664062 1.5625,0.878906 2.32422,2.265625 0.78125,1.386719 0.78125,2.539062 z M 148.49659,16.00359 h 0.91797 q 0.9961,0 5.9375,-0.3125 0.78125,-0.03906 0.95703,-0.15625 0.35157,-0.371094 0.35157,-0.664063 0,-0.605468 -0.39063,-1.367187 -0.39062,-0.78125 -1.21094,-1.191406 -0.80078,-0.429688 -1.875,-0.429688 -2.26562,0 -3.63281,1.699219 -1.05469,1.289062 -1.05469,2.421875 z"
         style="font-size:40px;font-family:Garamond;fill:none;fill-opacity:1;stroke:#000000;stroke-width:1;stroke-miterlimit:4;stroke-dasharray:none;stroke-opacity:1"
         id="path2054-5" />
      <path
         d="m 174.81495,12.839527 0.0195,-0.566406 -0.0195,-2.285156 0.0195,-4.316406 q 0,-1.796875 -0.39062,-2.285156 -0.39063,-0.488282 -2.28516,-0.996094 -0.13672,-0.03906 -0.42969,-0.117188 V 2.058278 q 0,-0.195313 0.0391,-0.429688 2.65625,-0.273437 4.57031,-0.917969 l 0.99609,-0.01953 q 0.0781,1.328125 0.0781,2.96875 l -0.0781,7.519531 0.13672,8.476563 -0.0586,4.511719 q 0,1.386718 0.19531,1.5625 0.39063,0.390625 1.71875,0.410156 0.27344,0 0.74219,0.03906 v 0.351563 q 0,0.136719 -0.0195,0.292969 -0.60547,0.136718 -1.25,0.253906 l -2.83203,0.546875 q -0.625,0.117187 -0.9961,0.117187 v -1.875001 q -0.33203,0.09766 -1.03515,0.390625 -3.04688,1.289063 -5.60547,1.289063 -1.54297,0 -3.14453,-0.996094 -1.60157,-1.015625 -2.46094,-2.8125 -0.85938,-1.796875 -0.85938,-3.671875 0,-1.679688 0.56641,-3.203125 0.56641,-1.542969 1.48437,-2.558594 0.58594,-0.664062 1.66016,-1.308594 1.07422,-0.664062 1.77734,-0.839843 1.73829,-0.449219 2.32422,-0.449219 2.63672,0 4.33594,0.78125 0.52734,0.253906 0.80078,0.351562 z m 0.0195,12.070313 q 0.0781,-1.308594 0.0781,-5.390625 0,-3.457031 -0.33203,-4.355469 -0.3125,-0.917969 -1.60157,-1.71875 -1.28906,-0.820312 -2.89062,-0.820312 -2.24609,0 -3.80859,1.738281 -1.5625,1.738281 -1.5625,5.136719 0,2.988281 1.67968,4.765625 1.69922,1.777343 4.21875,1.777343 1.44532,0 2.63672,-0.390625 1.19141,-0.390625 1.58203,-0.742187 z"
         style="font-size:40px;font-family:Garamond;fill:none;fill-opacity:1;stroke:#000000;stroke-width:1;stroke-miterlimit:4;stroke-dasharray:none;stroke-opacity:1"
         id="path2056-8" />
      <path
         d="m 206.08448,2.917653 q 0.15625,1.289062 0.15625,1.484375 l -0.0781,1.738281 q -0.0391,1.113281 -0.0977,1.425781 -0.17578,0.07813 -0.29297,0.07813 l -0.17578,-0.03906 q -0.625,-2.734375 -2.1289,-3.984375 -1.48438,-1.25 -3.63282,-1.25 -2.22656,0 -3.65234,1.25 -1.42578,1.25 -1.42578,2.910156 0,1.269531 0.99609,2.324219 0.9961,1.054687 5.09766,3.164062 3.125,1.621094 4.47265,2.65625 1.34766,1.015625 2.03125,2.363281 0.6836,1.347656 0.6836,3.007813 0,2.089843 -1.09375,3.925781 -1.07422,1.835937 -2.91016,2.773437 -1.83594,0.917969 -4.86328,0.917969 -2.63672,0 -5.05859,-0.839844 -1.42578,-0.507812 -1.73828,-0.820312 -0.3125,-0.3125 -0.3125,-0.664063 0,-0.214843 0.0391,-0.546875 0.27344,-2.304687 0.29297,-3.789062 0.0391,-0.917969 0.13672,-1.074219 0.0781,-0.136719 0.29296,-0.136719 0.17579,0 0.27344,0.136719 0.11719,0.117188 0.15625,0.46875 0.21485,2.402344 2.22656,4.296875 1.99219,1.894531 4.51172,1.894531 1.54297,0 2.83203,-0.644531 1.3086,-0.644531 2.03125,-1.855469 0.74219,-1.230468 0.74219,-2.382812 0,-1.582031 -1.11328,-2.890625 -1.11328,-1.308594 -4.47266,-3.046875 -3.35937,-1.757813 -4.375,-2.558594 -1.64062,-1.308594 -2.46093,-2.773437 -0.60547,-1.132813 -0.60547,-2.636719 0,-2.714844 2.14844,-4.589844 2.14843,-1.894531 5.76171,-1.894531 1.99219,0 3.4375,0.449219 1.05469,0.351562 2.16797,1.152344 z"
         style="font-size:40px;font-family:Garamond;fill:none;fill-opacity:1;stroke:#000000;stroke-width:1;stroke-miterlimit:4;stroke-dasharray:none;stroke-opacity:1"
         id="path2058-4" />
      <path
         d="m 210.3423,11.687184 h 1.46484 l 0.64453,0.03906 0.50781,-0.03906 q 2.01172,0 2.5,0.03906 l 0.0195,0.371094 q 0,2.753906 -0.0781,5.332031 -0.0586,1.523438 -0.0586,1.738281 0,3.4375 0.21484,4.296875 0.23437,0.859375 1.05469,1.386719 0.83984,0.507813 2.01172,0.507813 1.42578,0 2.71484,-0.585938 1.30859,-0.605469 2.22656,-1.464844 0.0977,-0.742187 0.0977,-1.640625 0,-2.910156 0.0586,-3.925781 0.0195,-0.605469 0.0195,-1.054687 0,-3.164063 -0.3125,-3.574219 -0.3125,-0.410156 -2.38281,-0.625 -0.68359,-0.07813 -0.99609,-0.136719 -0.15625,-0.253906 -0.15625,-0.390625 l 0.0586,-0.214844 q 0.50781,-0.05859 0.99609,-0.05859 l 3.10547,0.03906 q 1.66016,-0.03906 1.75782,-0.03906 0.21484,0 0.41015,0.01953 l 0.0391,1.425781 q -0.13671,2.96875 -0.15625,7.34375 l -0.0391,1.582031 0.0781,2.65625 q 0.17578,0.3125 0.3125,0.371094 0.23437,0.09766 0.95703,0.09766 h 0.17578 q 0.25391,0 1.44531,0.117188 0.0195,0.253906 0.0195,0.371094 v 0.214843 q -2.61713,0.566407 -4.23823,1.132813 -0.64453,0.214844 -1.09375,0.3125 -0.0977,-0.683594 -0.0977,-0.839844 V 24.90984 q 0,-0.09766 -0.0195,-0.527344 -0.2539,0.175781 -0.58593,0.429688 -1.54297,1.191406 -3.26172,2.011718 -1.15235,0.566407 -2.22656,0.566407 -2.05079,0 -3.33985,-1.523438 -1.30859,-1.523437 -1.30859,-5.195312 0,-0.195313 0.0195,-0.703125 0.0781,-0.9375 0.0781,-1.308594 0,-0.136719 -0.0195,-0.859375 -0.0195,-0.3125 -0.0195,-0.546875 0,-0.175781 0.0195,-0.78125 0.0195,-0.625 0.0195,-0.878906 0,-0.332032 -0.0195,-0.585938 l -0.0391,-1.035156 0.0195,-0.546875 q 0,-0.3125 -0.3125,-0.566406 -1.23047,-0.332032 -1.62109,-0.371094 -0.3711,-0.05859 -0.66406,-0.175781 z"
         style="font-size:40px;font-family:Garamond;fill:none;fill-opacity:1;stroke:#000000;stroke-width:1;stroke-miterlimit:4;stroke-dasharray:none;stroke-opacity:1"
         id="path2060-1" />
      <path
         d="m 244.91261,23.444996 0.0195,1.269531 q -1.52344,1.621094 -3.00781,2.265625 -1.48438,0.644532 -3.4961,0.644532 -2.1875,0 -3.94531,-1.132813 -1.75781,-1.152344 -2.71484,-3.242187 -0.9375,-2.089844 -0.9375,-4.101563 0,-2.207031 1.13281,-4.160156 1.15234,-1.972656 3.02734,-2.929688 1.89453,-0.976562 4.7461,-0.976562 2.73437,0 4.16015,0.9375 0.80078,0.546875 0.80078,1.40625 0,0.625 -0.41015,1.035156 -0.41016,0.410156 -1.05469,0.410156 -0.97656,0 -2.14844,-1.210937 -0.72265,-0.742188 -1.30859,-1.015625 -0.58594,-0.292969 -1.30859,-0.292969 -1.73829,0 -2.89063,1.425781 -1.60156,2.03125 -1.60156,5.097657 0,3.164062 1.64062,5.039062 1.64063,1.875 3.82813,1.875 1.52344,0 2.69531,-0.488281 1.19141,-0.507812 2.77344,-1.855469 z"
         style="font-size:40px;font-family:Garamond;fill:none;fill-opacity:1;stroke:#000000;stroke-width:1;stroke-miterlimit:4;stroke-dasharray:none;stroke-opacity:1"
         id="path2062-0" />
      <path
         d="m 261.55323,23.444996 0.0195,1.269531 q -1.52343,1.621094 -3.00781,2.265625 -1.48437,0.644532 -3.49609,0.644532 -2.1875,0 -3.94531,-1.132813 -1.75782,-1.152344 -2.71485,-3.242187 -0.9375,-2.089844 -0.9375,-4.101563 0,-2.207031 1.13281,-4.160156 1.15235,-1.972656 3.02735,-2.929688 1.89453,-0.976562 4.74609,-0.976562 2.73438,0 4.16016,0.9375 0.80078,0.546875 0.80078,1.40625 0,0.625 -0.41016,1.035156 -0.41015,0.410156 -1.05468,0.410156 -0.97657,0 -2.14844,-1.210937 -0.72266,-0.742188 -1.3086,-1.015625 -0.58593,-0.292969 -1.30859,-0.292969 -1.73828,0 -2.89062,1.425781 -1.60157,2.03125 -1.60157,5.097657 0,3.164062 1.64063,5.039062 1.64062,1.875 3.82812,1.875 1.52344,0 2.69532,-0.488281 1.1914,-0.507812 2.77343,-1.855469 z"
         style="font-size:40px;font-family:Garamond;fill:none;fill-opacity:1;stroke:#000000;stroke-width:1;stroke-miterlimit:4;stroke-dasharray:none;stroke-opacity:1"
         id="path2064-7" />
      <path
         d="m 278.05714,16.706715 -7.83203,0.05859 h -1.48438 q -0.89843,0 -1.83593,0.07813 -0.17579,0.585937 -0.17579,0.800781 l 0.0195,0.195312 v 0.195313 l -0.0195,0.957031 q 0,1.191406 0.74219,2.929688 0.76172,1.71875 2.14844,2.636718 1.40625,0.898438 3.49609,0.957032 1.11328,-0.05859 1.77735,-0.273438 0.66406,-0.214844 1.875,-0.996094 l 1.40625,-1.152343 0.11718,0.78125 q 0,0.136718 -0.0195,0.292968 -0.8789,1.113282 -2.22656,1.953125 -1.34766,0.839844 -2.73437,1.230469 -0.66407,0.175781 -2.1875,0.175781 -1.38672,0 -2.73438,-0.566406 -1.99219,-0.859375 -3.14453,-2.753906 -1.13281,-1.914063 -1.13281,-4.628906 0,-0.859375 0.3125,-2.207032 0.33203,-1.347656 1.17187,-2.871093 0.56641,-1.035157 1.38672,-1.699219 1.17188,-0.9375 2.05078,-1.308594 1.26953,-0.527343 2.94922,-0.527343 1.81641,0 2.96875,0.664062 1.5625,0.878906 2.32422,2.265625 0.78125,1.386719 0.78125,2.539062 z M 267.1587,16.00359 h 0.91797 q 0.99609,0 5.9375,-0.3125 0.78125,-0.03906 0.95703,-0.15625 0.35156,-0.371094 0.35156,-0.664063 0,-0.605468 -0.39062,-1.367187 -0.39063,-0.78125 -1.21094,-1.191406 -0.80078,-0.429688 -1.875,-0.429688 -2.26562,0 -3.63281,1.699219 -1.05469,1.289062 -1.05469,2.421875 z"
         style="font-size:40px;font-family:Garamond;fill:none;fill-opacity:1;stroke:#000000;stroke-width:1;stroke-miterlimit:4;stroke-dasharray:none;stroke-opacity:1"
         id="path2066-2" />
      <path
         d="m 282.06105,22.058277 q 0.72265,1.855469 1.09375,2.402344 0.74218,1.113281 1.77734,1.738281 1.03516,0.605469 2.24609,0.605469 1.11328,0 2.20703,-0.957031 0.78125,-0.722656 0.78125,-1.679688 0,-1.269531 -0.91796,-2.34375 -0.91797,-1.054687 -3.4961,-2.011718 -2.55859,-0.976563 -3.4375,-2.070313 -0.8789,-1.09375 -0.8789,-2.5 0,-1.328125 0.72265,-2.34375 0.72266,-1.015625 1.99219,-1.523437 1.26953,-0.527344 2.34375,-0.527344 1.38672,0 2.48047,0.214844 1.11328,0.214843 1.91406,0.664062 0.15625,0.996094 0.25391,2.929688 l 0.0391,0.625 q -0.25391,0.01953 -0.42969,0.01953 h -0.27344 q -0.58593,-1.621094 -1.79687,-2.558594 -1.19141,-0.957031 -2.36328,-0.957031 -1.17188,0 -1.89453,0.722656 -0.72266,0.703125 -0.72266,1.855469 0,0.878906 0.58594,1.5625 0.58594,0.683594 2.73437,1.5625 2.16797,0.878906 3.14453,1.640625 0.9961,0.742187 1.46485,1.816406 0.46875,1.074219 0.46875,2.050781 0,1.347657 -0.89844,2.519532 -0.87891,1.171875 -2.22656,1.640625 -1.32817,0.488282 -2.38285,0.488282 -2.48047,0 -4.57032,-0.917969 -0.19531,-0.15625 -0.21484,-0.585937 0,-0.175782 -0.0391,-0.566407 -0.3125,-2.636718 -0.3125,-3.125 0,-0.234375 0.0976,-0.3125 0.0977,-0.07813 0.50782,-0.07813 z"
         style="font-size:40px;font-family:Garamond;fill:none;fill-opacity:1;stroke:#000000;stroke-width:1;stroke-miterlimit:4;stroke-dasharray:none;stroke-opacity:1"
         id="path2068-3" />
      <path
         d="m 296.67042,22.058277 q 0.72266,1.855469 1.09375,2.402344 0.74219,1.113281 1.77734,1.738281 1.03516,0.605469 2.2461,0.605469 1.11328,0 2.20703,-0.957031 0.78125,-0.722656 0.78125,-1.679688 0,-1.269531 -0.91797,-2.34375 -0.91797,-1.054687 -3.49609,-2.011718 -2.5586,-0.976563 -3.4375,-2.070313 -0.87891,-1.09375 -0.87891,-2.5 0,-1.328125 0.72266,-2.34375 0.72265,-1.015625 1.99218,-1.523437 1.26954,-0.527344 2.34375,-0.527344 1.38672,0 2.48047,0.214844 1.11328,0.214843 1.91407,0.664062 0.15625,0.996094 0.2539,2.929688 l 0.0391,0.625 q -0.2539,0.01953 -0.42968,0.01953 h -0.27348 q -0.58594,-1.621094 -1.79688,-2.558594 -1.1914,-0.957031 -2.36328,-0.957031 -1.17187,0 -1.89453,0.722656 -0.72265,0.703125 -0.72265,1.855469 0,0.878906 0.58593,1.5625 0.58594,0.683594 2.73438,1.5625 2.16797,0.878906 3.14453,1.640625 0.99609,0.742187 1.46484,1.816406 0.46875,1.074219 0.46875,2.050781 0,1.347657 -0.89843,2.519532 -0.87891,1.171875 -2.22657,1.640625 -1.32812,0.488282 -2.38281,0.488282 -2.48047,0 -4.57031,-0.917969 -0.19531,-0.15625 -0.21485,-0.585937 0,-0.175782 -0.0391,-0.566407 -0.3125,-2.636718 -0.3125,-3.125 0,-0.234375 0.0977,-0.3125 0.0976,-0.07813 0.50781,-0.07813 z"
         style="font-size:40px;font-family:Garamond;fill:none;fill-opacity:1;stroke:#000000;stroke-width:1;stroke-miterlimit:4;stroke-dasharray:none;stroke-opacity:1"
         id="path2070-0" />
      <path
         d="m 315.63526,11.804371 q 4.86329,0.117188 5.17579,0.117188 0.0391,0.429687 0.0391,0.644531 0,0.253906 -0.0586,0.761719 -0.48828,0.07813 -0.99609,0.07813 h -0.74219 q -2.42187,0 -3.35937,0.175781 -0.0391,0.449219 -0.0391,0.683594 0,0.09766 0.0195,0.292968 0.0976,3.066407 0.0976,3.710938 l -0.0391,5.019531 q 0,1.113281 0.37109,1.855469 0.21485,0.429687 0.80079,0.683594 0.37109,0.175781 1.79687,0.351562 1.07422,0.15625 1.44531,0.214844 0,0.410156 -0.0586,0.625 l -0.27344,0.01953 q -0.9375,-0.05859 -2.4414,-0.09766 l -1.44532,-0.05859 -4.92187,0.15625 h -0.64453 l -0.0195,-0.605469 q 0.29296,-0.05859 0.42968,-0.09766 1.67969,-0.3125 2.16797,-0.703125 0.19531,-0.15625 0.27344,-0.566406 0.0391,-0.234375 0.0391,-2.1875 0,-5.566406 -0.0976,-8.886719 -0.50782,-0.15625 -1.5625,-0.195312 -0.39063,0 -1.23047,-0.07813 l -0.0391,-0.214844 q 0,-0.234375 0.19532,-0.390625 0.0781,-0.07813 1.64062,-0.820313 0.60547,-0.273437 0.85938,-0.683593 0.13672,-0.214844 0.15625,-0.898438 0.0195,-0.3125 0.11718,-1.074218 0.23438,-2.011719 0.3711,-2.480469 0.35156,-1.308594 1.17187,-2.597656 0.83985,-1.308594 2.01172,-2.285157 0.85938,-0.703125 1.9336,-1.054687 1.09375,-0.351563 2.48046,-0.351563 1.85547,0 2.71485,0.605469 0.58594,0.410156 0.58594,1.054688 0,0.546875 -0.41016,0.9375 -0.41016,0.390625 -1.01563,0.390625 -0.74218,0 -1.60156,-0.371094 -1.62109,-0.644531 -1.83594,-0.703125 -0.37109,-0.09766 -0.76171,-0.09766 -1.07422,0 -1.97266,0.683593 -0.87891,0.683594 -1.11328,1.679688 -0.23438,0.996094 -0.23438,4.472656 0,1.25 0.0195,2.285156 z"
         style="font-size:40px;font-family:Garamond;fill:none;fill-opacity:1;stroke:#000000;stroke-width:1;stroke-miterlimit:4;stroke-dasharray:none;stroke-opacity:1"
         id="path2072-8" />
      <path
         d="m 321.98292,11.687184 h 1.46484 l 0.64454,0.03906 0.50781,-0.03906 q 2.01172,0 2.5,0.03906 l 0.0195,0.371094 q 0,2.753906 -0.0781,5.332031 -0.0586,1.523438 -0.0586,1.738281 0,3.4375 0.21484,4.296875 0.23438,0.859375 1.05469,1.386719 0.83985,0.507813 2.01172,0.507813 1.42578,0 2.71484,-0.585938 1.3086,-0.605469 2.22657,-1.464844 0.0976,-0.742187 0.0976,-1.640625 0,-2.910156 0.0586,-3.925781 0.0195,-0.605469 0.0195,-1.054687 0,-3.164063 -0.3125,-3.574219 -0.3125,-0.410156 -2.38281,-0.625 -0.6836,-0.07813 -0.9961,-0.136719 -0.15625,-0.253906 -0.15625,-0.390625 l 0.0586,-0.214844 q 0.50781,-0.05859 0.99609,-0.05859 l 3.10547,0.03906 q 1.66015,-0.03906 1.75781,-0.03906 0.21484,0 0.41016,0.01953 l 0.0391,1.425781 q -0.13672,2.96875 -0.15625,7.34375 l -0.0391,1.582031 0.0781,2.65625 q 0.17578,0.3125 0.3125,0.371094 0.23438,0.09766 0.95703,0.09766 h 0.17578 q 0.25391,0 1.44532,0.117188 0.0195,0.253906 0.0195,0.371094 v 0.214843 q -2.61705,0.566407 -4.23814,1.132813 -0.64453,0.214844 -1.09375,0.3125 -0.0977,-0.683594 -0.0977,-0.839844 V 24.90984 q 0,-0.09766 -0.0195,-0.527344 -0.25391,0.175781 -0.58594,0.429688 -1.54297,1.191406 -3.26172,2.011718 -1.15234,0.566407 -2.22656,0.566407 -2.05078,0 -3.33984,-1.523438 -1.3086,-1.523437 -1.3086,-5.195312 0,-0.195313 0.0195,-0.703125 0.0781,-0.9375 0.0781,-1.308594 0,-0.136719 -0.0195,-0.859375 -0.0195,-0.3125 -0.0195,-0.546875 0,-0.175781 0.0195,-0.78125 0.0195,-0.625 0.0195,-0.878906 0,-0.332032 -0.0195,-0.585938 l -0.0391,-1.035156 0.0195,-0.546875 q 0,-0.3125 -0.3125,-0.566406 -1.23047,-0.332032 -1.6211,-0.371094 -0.37109,-0.05859 -0.66406,-0.175781 z"
         style="font-size:40px;font-family:Garamond;fill:none;fill-opacity:1;stroke:#000000;stroke-width:1;stroke-miterlimit:4;stroke-dasharray:none;stroke-opacity:1"
         id="path2074-6" />
      <path
         d="M 341.96339,2.819996 V 2.390309 q 0.54687,-0.175781 1.21094,-0.371094 0.97656,-0.3125 2.89062,-0.957031 h 0.91797 q 0.0195,0.9375 0.0195,1.074219 0,16.035156 -0.0976,19.121093 -0.0586,1.816406 -0.0586,1.933594 0,2.1875 0.17578,2.441406 0.23438,0.351563 1.42578,0.488281 1.21094,0.136719 1.42579,0.273438 0.15625,0.07813 0.15625,0.273437 0,0.214844 -0.0977,0.3125 -0.0781,0.07813 -0.3125,0.07813 -0.13672,0 -2.05078,-0.05859 l -2.5586,-0.07813 -3.28125,0.136718 q -0.3125,0.01953 -0.46875,-0.117187 -0.11718,-0.09766 -0.11718,-0.273438 0,-0.195312 0.11718,-0.273437 0.13672,-0.09766 1.40625,-0.3125 1.28907,-0.214844 1.46485,-0.351563 0.19531,-0.15625 0.2539,-0.664062 0.0781,-0.703125 0.0781,-3.964844 l -0.0195,-4.492187 0.0586,-4.648438 -0.0195,-4.648437 0.0586,-2.285156 q 0,-0.683594 -0.21484,-0.976563 -0.21484,-0.3125 -0.91797,-0.605469 -1.05469,-0.429687 -1.44531,-0.625 z"
         style="font-size:40px;font-family:Garamond;fill:none;fill-opacity:1;stroke:#000000;stroke-width:1;stroke-miterlimit:4;stroke-dasharray:none;stroke-opacity:1"
         id="path2076-1" />
      <path
         d="M 351.10401,2.819996 V 2.390309 q 0.54688,-0.175781 1.21094,-0.371094 0.97656,-0.3125 2.89063,-0.957031 h 0.91797 q 0.0195,0.9375 0.0195,1.074219 0,16.035156 -0.0977,19.121093 -0.0586,1.816406 -0.0586,1.933594 0,2.1875 0.17578,2.441406 0.23437,0.351563 1.42578,0.488281 1.21094,0.136719 1.42578,0.273438 0.15625,0.07813 0.15625,0.273437 0,0.214844 -0.0977,0.3125 -0.0781,0.07813 -0.3125,0.07813 -0.13671,0 -2.05078,-0.05859 l -2.55859,-0.07813 -3.28125,0.136718 q -0.3125,0.01953 -0.46875,-0.117187 -0.11719,-0.09766 -0.11719,-0.273438 0,-0.195312 0.11719,-0.273437 0.13672,-0.09766 1.40625,-0.3125 1.28906,-0.214844 1.46484,-0.351563 0.19532,-0.15625 0.25391,-0.664062 0.0781,-0.703125 0.0781,-3.964844 l -0.0195,-4.492187 0.0586,-4.648438 -0.0195,-4.648437 0.0586,-2.285156 q 0,-0.683594 -0.21484,-0.976563 -0.21485,-0.3125 -0.91797,-0.605469 -1.05469,-0.429687 -1.44532,-0.625 z"
         style="font-size:40px;font-family:Garamond;fill:none;fill-opacity:1;stroke:#000000;stroke-width:1;stroke-miterlimit:4;stroke-dasharray:none;stroke-opacity:1"
         id="path2078-5" />
      <path
         d="m 359.46339,11.62859 q 0.42969,-0.03906 0.72266,-0.03906 h 0.9375 l 1.26953,-0.03906 1.66015,0.05859 1.34766,-0.03906 q 1.07422,0 1.93359,0.136719 0.0781,0.195312 0.0781,0.3125 l -0.0195,0.15625 q -0.41016,0.195312 -1.26953,0.273437 -1.21094,0.09766 -1.73829,0.429688 l -0.0391,0.214844 q 0,0.195312 0.15625,0.585937 0.0977,0.234375 0.25391,0.703125 0.42969,1.445313 1.85547,5.585938 1.03515,2.988281 1.91406,5.136718 0.54687,-1.171875 1.25,-2.96875 l 1.66016,-4.628906 q 0.54687,-1.523437 0.83984,-3.046875 0.11719,-0.605469 0.11719,-0.957031 0,-0.292969 -0.25391,-0.546875 -0.25391,-0.253906 -1.01562,-0.429688 -1.38672,-0.351562 -1.50391,-0.429687 -0.11719,-0.09766 -0.13672,-0.390625 0.11719,-0.09766 0.27344,-0.15625 h 1.21094 l 1.30859,0.01953 1.95312,-0.01953 1.25,0.01953 0.3125,-0.01953 q 0.13672,0 0.44922,0.03906 0.19532,0.09766 0.19532,0.3125 0,0.195313 -0.17579,0.351563 l -0.39062,0.05859 q -1.13281,0.15625 -1.73828,0.585937 -0.33203,0.234375 -0.56641,0.976563 -0.0781,0.273437 -0.2539,0.703125 -0.0977,0.234375 -0.29297,0.78125 -0.17578,0.546875 -0.46875,1.289062 l -0.23438,0.546875 -0.0195,0.09766 -3.32031,8.75 -2.42188,6.582031 q -0.23437,0.488282 -0.54687,1.210938 -0.74219,1.386719 -0.87891,1.523437 -0.58594,0.722657 -1.01562,1.015625 l -0.9961,0.429688 q -0.29297,0.07813 -0.625,0.07813 -0.8789,0 -1.28906,-0.390625 -0.41016,-0.371094 -0.41016,-1.035156 0,-0.625 0.60547,-1.132813 0.19532,-0.05859 0.39063,-0.15625 l 0.2539,-0.05859 q 1.73829,0.3125 2.16797,0.3125 0.41016,-0.214843 0.60547,-0.507812 0.95703,-1.425781 1.64063,-3.183594 0.68359,-1.757812 0.68359,-2.363281 0,-0.664063 -0.50781,-1.933594 l -2.16796,-5.742185 q -0.44922,-1.113281 -2.67578,-7.265625 -0.13672,-0.390625 -0.35156,-0.585938 l -1.32813,-0.488281 -0.41016,-0.07813 q -0.33203,-0.136719 -0.33203,-0.390625 z"
         style="font-size:40px;font-family:Garamond;fill:none;fill-opacity:1;stroke:#000000;stroke-width:1;stroke-miterlimit:4;stroke-dasharray:none;stroke-opacity:1"
         id="path2080-6" />
      <path
         d="m 380.61573,21.355152 c -0.13021,0.02604 -0.22786,0.03906 -0.29297,0.03906 -0.0911,0 -0.22786,-0.01953 -0.41015,-0.05859 l -0.625,-11.25 c -0.0391,-0.78125 -0.14974,-1.777343 -0.33203,-2.988281 -0.26042,-1.614583 -0.39063,-2.773437 -0.39063,-3.476562 0,-0.703125 0.16276,-1.230469 0.48828,-1.582032 0.32552,-0.364583 0.72266,-0.546875 1.19141,-0.546875 0.50781,0 0.9375,0.182292 1.28906,0.546875 0.35157,0.351563 0.52735,0.852865 0.52735,1.503907 0,0.598958 -0.13021,2.024739 -0.39063,4.277343 -0.50781,4.322917 -0.77474,7.128907 -0.80078,8.417969 l -0.15625,4.6875 c -0.013,0.104167 -0.0456,0.247396 -0.0977,0.429688 z"
         style="font-size:40px;font-family:Garamond;fill:none;fill-opacity:1;stroke:#000000;stroke-width:1;stroke-miterlimit:4;stroke-dasharray:none;stroke-opacity:1"
         id="path2082-0"
         sodipodi:nodetypes="sscccscscscccss" />
      <path
         style="fill:none;fill-opacity:1;stroke:#000000;stroke-width:0.124307;stroke-opacity:1"
         d="m 377.51914,30.297848 c 0,-0.127406 0.053,-0.511275 0.11785,-0.853043 l 0.11785,-0.621395 -0.54074,-0.580662 c -1.32959,-1.427753 -1.35509,-2.773681 -0.0691,-3.648893 0.5369,-0.365406 1.338,-0.375197 1.78721,-0.02184 l 0.32781,0.257845 0.36577,-0.288922 c 0.45634,-0.360467 0.54424,-1.096915 0.13091,-1.096915 -0.13812,0 -0.24861,-0.08287 -0.24861,-0.186461 0,-0.103587 0.11049,-0.186459 0.24861,-0.186459 0.16574,0 0.24862,-0.08287 0.24862,-0.248613 0,-0.165742 0.0829,-0.248614 0.24861,-0.248614 0.16574,0 0.24861,0.08287 0.24861,0.248614 0,0.165741 0.0829,0.248613 0.24862,0.248613 0.13812,0 0.24861,0.08287 0.24861,0.186459 0,0.103589 -0.11049,0.186461 -0.24861,0.186461 -0.37694,0 -0.3326,0.650561 0.0719,1.055064 l 0.32052,0.320523 0.40891,-0.25272 c 1.05704,-0.653288 2.54982,0.09646 2.75903,1.385722 0.0971,0.598229 -0.36239,1.599156 -1.06366,2.3171 l -0.52464,0.537112 0.13273,0.618841 c 0.25878,1.206686 0.50124,1.103833 -2.60203,1.103833 -2.5851,0 -2.73475,-0.01267 -2.73475,-0.231647 z m 5.09657,-0.327734 c 0,-0.159199 -0.3453,-0.186459 -2.36182,-0.186459 -2.01654,0 -2.36183,0.02726 -2.36183,0.186459 0,0.1592 0.34529,0.186461 2.36183,0.186461 2.01652,0 2.36182,-0.02726 2.36182,-0.186461 z m -4.1183,-0.765349 c -0.22482,-0.270882 -0.48104,-0.195697 -0.48104,0.141153 0,0.28327 0.025,0.296724 0.30979,0.166949 0.24041,-0.109538 0.27876,-0.178546 0.17125,-0.308102 z m 3.994,0.143817 c 0,-0.331686 -0.2258,-0.408165 -0.47357,-0.1604 -0.11762,0.11762 -0.0892,0.184342 0.13053,0.306363 0.15448,0.0858 0.29488,0.157976 0.31195,0.160398 0.0171,0.0024 0.0311,-0.13544 0.0311,-0.306361 z m -1.61599,-0.237509 c 0,-0.02457 -0.13985,-0.136294 -0.31076,-0.248287 -0.28867,-0.189135 -0.3337,-0.188599 -0.63306,0.0076 l -0.32229,0.211175 0.28666,0.216237 c 0.25612,0.193192 0.32359,0.197147 0.63306,0.03711 0.19051,-0.09852 0.34639,-0.199222 0.34639,-0.223787 z m -1.43063,-0.70669 c 0.76324,-0.130659 1.66807,-0.07098 2.40705,0.158753 0.40186,0.124929 0.44147,0.10553 1.08763,-0.532604 1.10608,-1.092336 1.32122,-2.167697 0.57591,-2.878692 -0.56638,-0.540324 -0.96083,-0.628625 -1.58156,-0.354047 -0.59275,0.262206 -1.04149,0.896951 -1.3814,1.954035 -0.1075,0.334318 -0.22433,0.691756 -0.25961,0.79431 -0.0353,0.102553 -0.14477,-0.120976 -0.24328,-0.496731 -0.28918,-1.102968 -0.79703,-1.883625 -1.44123,-2.215383 -0.51751,-0.266515 -0.59145,-0.274778 -0.98551,-0.110133 -0.23432,0.0979 -0.57723,0.357714 -0.76206,0.577362 -0.61482,0.730663 -0.3787,1.645795 0.71861,2.785216 0.45649,0.474024 0.63783,0.585741 0.85046,0.523946 0.14864,-0.0432 0.60538,-0.135911 1.01499,-0.206032 z m -1.63423,-0.762569 c -0.63313,-0.65761 -0.78864,-0.954574 -0.78864,-1.50598 0,-0.330009 0.0904,-0.508284 0.38245,-0.754013 0.21035,-0.176998 0.49663,-0.321816 0.63616,-0.321816 0.40123,0 1.15274,0.856984 1.44845,1.651726 0.39581,1.063779 0.37156,1.163519 -0.3076,1.265363 -0.31639,0.04745 -0.63929,0.110837 -0.71754,0.140869 -0.0783,0.03003 -0.37224,-0.184239 -0.65328,-0.476149 z m 3.58008,0.365557 -0.66568,-0.127634 0.072,-0.44344 c 0.12054,-0.742794 0.80035,-1.984584 1.19942,-2.190953 0.49474,-0.255839 0.66588,-0.234741 1.10705,0.136477 0.41525,0.349414 0.51258,0.93172 0.24364,1.457725 -0.15554,0.304223 -1.11883,1.337138 -1.22335,1.311793 -0.037,-0.009 -0.36691,-0.07377 -0.73305,-0.143968 z m -1.01245,-1.740169 c 0,-0.0881 0.11131,-0.378484 0.24734,-0.645307 0.22471,-0.440775 0.23014,-0.511367 0.0593,-0.772122 -0.23168,-0.3536 -0.56795,-0.367709 -0.86779,-0.03641 -0.21993,0.243031 -0.21864,0.266854 0.0429,0.790531 0.14831,0.296972 0.26966,0.603743 0.26966,0.681715 0,0.07797 0.0559,0.141768 0.12431,0.141768 0.0684,0 0.1243,-0.07208 0.1243,-0.160176 z m -0.30154,-0.917217 c -0.10195,-0.265696 0.12562,-0.515623 0.30563,-0.335627 0.13515,0.135158 0.0387,0.542873 -0.12839,0.542873 -0.0537,0 -0.1335,-0.09326 -0.17724,-0.207246 z"
         id="path863-6" />
    </g>
    <g
       id="g2439"
       transform="translate(-54.028534,50.426551)">
      <path
         d="m 27.692042,-45.250296 0.78093,-2.878981 a 1.6554238,1.6554238 0 0 1 0.2097,-0.734095 0.3904762,0.3904762 0 0 1 0.30516,-0.162047 q 0.34321,0 0.78095,0.82 a 2.6357143,2.6357143 0 0 0 0.53377,0.753033 1.293062,1.293062 0 0 0 0.61014,0.219252 l 0.19075,-0.01953 0.82,0.07634 4.49963,0.05721 5.31948,-0.01855 h 1.56542 l 2.9553,-0.05564 a 3.8116334,3.8116334 0 0 1 0.47659,0.03729 q 1.29656,0.113237 1.60095,0.113237 a 0.59040003,0.59040003 0 0 0 0.45766,-0.187429 q 0.0571,-0.0738 0.62922,-1.2587 0.24795,-0.536905 0.61011,-0.536905 a 1.2633858,1.2633858 0 0 1 0.38132,0.07575 2.8167001,2.8167001 0 0 1 0.0952,0.68099 l -0.0196,0.756939 0.0196,1.608176 q 0,0.585714 -0.0952,3.784105 a 0.91449529,0.91449529 0 0 1 -0.0764,0.378374 0.71144766,0.71144766 0 0 1 -0.36219,0.132566 0.33620001,0.33620001 0 0 1 -0.26689,-0.141744 2.9818716,2.9818716 0 0 1 -0.28602,-0.878573 q -0.38127,-1.701109 -0.95332,-2.438132 a 2.121262,2.121262 0 0 0 -1.09626,-0.680406 q -0.71497,-0.207927 -3.42233,-0.207927 h -3.22142 q -0.0391,0.763185 -0.0391,1.393023 l 0.15249,11.850955 q 0,0.705981 -0.0763,2.67144 l 0.0197,2.538095 -0.0197,1.412158 q 0,0.66791 0.22883,0.95413 0.22882,0.286219 1.23919,0.551938 1.754,0.439089 2.34518,0.534368 a 1.7376191,1.7376191 0 0 1 0.59098,0.152481 v 0.572047 l -2.70718,-0.06695 q -2.23097,-0.0166 -3.35574,-0.08453 l -2.78369,0.133542 -2.04102,0.114214 a 7.9506812,7.9506812 0 0 1 -1.04862,-0.03906 l -0.26606,-0.11343 a 0.91937624,0.91937624 0 0 1 0.17161,-0.562481 q 0.13355,-0.123977 0.7054,-0.200118 a 15.9449,15.9449 0 0 0 1.88757,-0.410001 q 1.08671,-0.295588 1.42994,-0.600553 a 1.0041096,1.0041096 0 0 0 0.26687,-0.572045 q 0.17162,-0.839526 0.17162,-3.298549 v -3.240959 l -0.0764,-7.073476 -0.0762,-1.525201 -0.0197,-5.090638 h -3.06798 q -2.74542,0 -3.33661,0.331904 -0.93519,0.518553 -2.78447,3.033611 -0.61012,0.943 -1.06779,0.943 l -0.17159,-0.03807 a 0.38676669,0.38676669 0 0 1 -0.0762,-0.209685 8.8173432,8.8173432 0 0 1 0.30515,-1.373695 q 0.38132,-1.467214 0.45765,-1.982058 z m 24.06153,21.06834 q 2.2308,-0.400042 2.57401,-0.609533 0.20969,-0.133543 0.20969,-0.609729 l -0.0196,-1.257137 0.0196,-2.229033 -0.0392,-5.676939 0.0197,-2.114626 v -1.505088 l 0.0571,-1.847929 q 0,-4.343464 -0.0858,-5.191187 -0.0858,-0.847724 -0.33365,-1.05741 -0.45764,-0.437919 -2.51684,-0.9143 v -0.09528 a 2.7030715,2.7030715 0 0 1 0.0391,-0.3813 q 0.2669,-0.03905 0.51485,-0.09528 a 3.3653192,3.3653192 0 0 1 0.47658,-0.07634 q 2.26886,-0.648191 3.29856,-1.25831 h 0.9342 q 0.0392,0.534172 0.0392,3.376448 l -0.0197,2.422514 0.0197,3.128302 -0.0764,3.853414 q 0,0.343228 0.0392,0.762992 a 17.975573,17.975573 0 0 1 1.75715,-1.853004 8.6369434,8.6369434 0 0 1 2.11772,-1.269439 6.1142716,6.1142716 0 0 1 2.36864,-0.468573 q 2.34929,0 3.83877,1.980495 0.85904,1.161472 0.85904,3.294059 l -0.0571,1.942422 0.0197,1.08533 -0.0762,1.88522 q -0.0762,2.342854 -0.0762,2.780384 0,0.494732 0.0391,1.33289 l 1.08669,0.247564 q 1.08669,0.228427 1.67787,0.418784 l -0.0197,0.590986 -4.06154,-0.114799 q -0.34322,0 -1.86843,0.07633 -0.9342,0.03906 -1.08669,0.03906 h -0.41936 a 0.62476193,0.62476193 0 0 1 -0.0955,-0.286012 v -0.171611 q 0.2669,-0.343227 0.99144,-0.457248 l 1.14391,-0.266696 a 0.69856194,0.69856194 0 0 0 0.26687,-0.399846 q 0.0763,-0.495124 0.17162,-4.911997 l 0.0392,-1.408839 q 0.0764,-2.227468 -0.34401,-3.693512 a 2.6735905,2.6735905 0 0 0 -1.21341,-1.608762 3.9978907,3.9978907 0 0 0 -2.18785,-0.599771 4.4668526,4.4668526 0 0 0 -1.94884,0.437918 7.4776194,7.4776194 0 0 0 -1.5096,1.123203 6.7263432,6.7263432 0 0 0 -1.22492,1.370183 q -0.22901,0.380129 -0.22901,1.25421 l 0.0197,1.329962 -0.0392,1.387363 q 0,0.171028 0.0571,2.374876 l -0.0197,1.216137 0.0391,1.330156 a 2.1866669,2.1866669 0 0 0 0.0571,0.418005 l 2.68841,0.64624 a 5.9641336,5.9641336 0 0 1 0.62925,0.234284 l 0.0571,0.214762 a 0.90317147,0.90317147 0 0 1 -0.0952,0.312383 q -0.55292,0.01952 -0.83953,0.01952 l -1.48597,-0.01932 -3.27999,0.03905 -2.46,0.07633 q -0.19074,-0.01953 -0.57206,-0.03906 l -0.0195,-0.133545 a 0.7419048,0.7419048 0 0 1 0.15385,-0.380323 z m 34.28106,-9.590293 -7.64551,0.05564 -1.44906,-0.0014 q -0.87699,0 -1.79227,0.07926 a 3.3616096,3.3616096 0 0 0 -0.17162,0.780952 l 0.0197,0.190749 v 0.190747 l -0.0197,0.934213 q 0,1.163034 0.7341,2.850478 a 5.6656144,5.6656144 0 0 0 2.09724,2.574017 q 1.36315,0.886577 3.40338,0.943782 a 7.0172478,7.0172478 0 0 0 1.73509,-0.266889 8.7820051,8.7820051 0 0 0 1.83038,-0.972289 l 1.3727,-1.124959 0.11439,0.7626 a 2.3131811,2.3131811 0 0 1 -0.0196,0.286023 8.3757146,8.3757146 0 0 1 -2.17359,1.906694 10.354648,10.354648 0 0 1 -2.6689,1.201498 9.309148,9.309148 0 0 1 -2.13533,0.171614 6.8333338,6.8333338 0 0 1 -2.67007,-0.552917 6.4986953,6.4986953 0 0 1 -3.05937,-2.697799 q -1.11538,-1.85886 -1.11538,-4.51 a 9.6713146,9.6713146 0 0 1 0.3145,-2.154453 11.328887,11.328887 0 0 1 1.13454,-2.802449 5.4912669,5.4912669 0 0 1 1.3538,-1.659522 8.9540098,8.9540098 0 0 1 2.00194,-1.277443 7.4620003,7.4620003 0 0 1 2.879,-0.514843 q 1.77314,0 2.89811,0.648192 a 5.74781,5.74781 0 0 1 2.27846,2.211654 q 0.75299,1.353782 0.75299,2.479526 z m -10.6389,-0.686453 h 0.89616 q 0.97228,0 5.79619,-0.304963 0.76263,-0.03906 0.93424,-0.152483 a 1.0152381,1.0152381 0 0 0 0.34323,-0.648189 3.0404429,3.0404429 0 0 0 -0.3813,-1.344215 2.627905,2.627905 0 0 0 -1.17261,-1.163035 3.9453715,3.9453715 0 0 0 -1.83991,-0.409998 q -2.21167,0 -3.54631,1.659524 -1.02969,1.25753 -1.02969,2.363359 z m 12.56454,10.105132 a 1.9691714,1.9691714 0 0 1 0.83954,-0.286025 3.7587238,3.7587238 0 0 0 1.18217,-0.304961 1.4109858,1.4109858 0 0 0 0.45762,-0.819999 q 0.13354,-0.686458 0.13354,-4.823751 0,-4.06095 -0.24794,-5.243118 a 3.4641095,3.4641095 0 0 0 -1.0867,-0.41937 q -0.20968,-0.03906 -0.877,-0.209687 v -0.638234 a 5.7382432,5.7382432 0 0 0 1.8286,-0.84167 q 0.69895,-0.516404 1.94359,-2.065816 h 0.11462 q 0.11497,0 0.36369,-0.01952 a 0.48809526,0.48809526 0 0 1 0.24914,0.09528 l -0.0197,2.173585 q 0,0.667325 0.0392,1.429926 2.03651,-1.849491 3.65407,-2.592959 a 6.0221194,6.0221194 0 0 1 2.49318,-0.49571 q 1.655808,0 2.626348,0.629251 0.97052,0.629255 1.84557,2.268472 1.69683,-1.677874 3.07912,-2.345198 a 6.3678861,6.3678861 0 0 1 2.79328,-0.667325 q 2.13528,0 3.50823,1.39361 1.35378,1.412741 1.39184,4.142366 v 1.584553 l 0.0197,1.737619 -0.0197,4.467243 q -0.0197,0.782515 0.34324,1.183533 0.15246,0.0572 1.16303,0.343425 a 2.7499287,2.7499287 0 0 1 0.74364,0.267087 0.32878098,0.32878098 0 0 1 0.11442,0.267085 1.3738905,1.3738905 0 0 1 -0.11442,0.495709 h -0.13313 l -1.92097,-0.114409 q -0.34224,-0.01953 -1.08415,-0.01953 -0.91272,0 -2.54825,0.07633 h -0.97112 q -0.20908,0 -0.81784,0.01953 a 2.7965906,2.7965906 0 0 1 -0.0197,-0.304962 0.80633336,0.80633336 0 0 1 0.13355,-0.3813 5.8419145,5.8419145 0 0 1 1.41097,-0.372319 q 0.89616,-0.143111 1.1154,-0.515623 0.21926,-0.372516 0.21926,-2.968989 0,-5.632618 -0.13374,-6.52993 a 3.5074524,3.5074524 0 0 0 -1.21361,-2.243483 3.7606762,3.7606762 0 0 0 -2.47482,-0.811409 4.5773573,4.5773573 0 0 0 -2.23587,0.600553 8.112143,8.112143 0 0 0 -2.1404,1.801852 l -0.0197,0.457636 v 2.917055 l -0.0763,2.26886 q 0,3.469969 0.0668,3.946739 a 1.0722476,1.0722476 0 0 0 0.32411,0.695829 q 0.25729,0.219254 1.49669,0.390477 a 8.5857909,8.5857909 0 0 1 0.85808,0.15248 0.61480478,0.61480478 0 0 1 0.22879,0.49571 0.35806668,0.35806668 0 0 1 -0.17023,0.342641 h -0.32411 l -0.95333,-0.01953 h -5.548098 l -1.5252,0.01953 a 3.5482572,3.5482572 0 0 1 -0.0392,-0.419369 l 0.0197,-0.22882 q 0.41939,-0.228819 1.56347,-0.438505 a 6.6966669,6.6966669 0 0 0 1.220238,-0.324094 0.58063811,0.58063811 0 0 0 0.17122,-0.246978 q 0.0952,-0.26689 0.13354,-1.5252 l 0.0952,-2.211656 -0.0392,-2.497681 0.0196,-1.391852 q 0,-2.345201 -0.95098,-3.422331 a 3.0609432,3.0609432 0 0 0 -2.395758,-1.077321 6.1093909,6.1093909 0 0 0 -2.7107,0.667322 6.4797575,6.4797575 0 0 0 -2.25421,1.792679 q -0.0197,0.533778 -0.0197,0.972282 l 0.0763,6.40635 q 0.0196,2.097246 0.23839,2.392835 0.21888,0.295592 0.98184,0.410001 1.22024,0.171615 1.58241,0.419371 a 0.38500954,0.38500954 0 0 1 0.17162,0.343229 q 0,0.152482 -0.0196,0.362166 -2.17885,-0.152478 -2.92429,-0.152478 -0.76436,0 -1.37604,0.01953 l -0.95529,0.0572 h -0.59255 l -2.14041,0.07632 a 0.83620479,0.83620479 0 0 1 -0.0392,-0.220423 1.9381288,1.9381288 0 0 1 0.0779,-0.371734 z m 44.443418,-9.418679 -7.64551,0.05564 -1.44906,-0.0014 q -0.87702,0 -1.7923,0.07926 a 3.3616096,3.3616096 0 0 0 -0.17161,0.780952 l 0.0197,0.190749 v 0.190747 l -0.0197,0.934213 q 0,1.163034 0.7341,2.850478 a 5.6656144,5.6656144 0 0 0 2.09724,2.574017 q 1.36315,0.886577 3.40339,0.943782 a 7.0172478,7.0172478 0 0 0 1.73508,-0.266889 8.7816146,8.7816146 0 0 0 1.83037,-0.972289 l 1.37272,-1.124959 0.11441,0.7626 a 2.3120095,2.3120095 0 0 1 -0.0197,0.286023 8.3757146,8.3757146 0 0 1 -2.1736,1.906694 10.354843,10.354843 0 0 1 -2.66889,1.201498 9.309148,9.309148 0 0 1 -2.13533,0.171614 6.8333338,6.8333338 0 0 1 -2.67008,-0.552917 6.4986953,6.4986953 0 0 1 -3.05937,-2.697799 q -1.1154,-1.85886 -1.1154,-4.51 a 9.6713146,9.6713146 0 0 1 0.31453,-2.154453 11.329081,11.329081 0 0 1 1.13454,-2.802449 5.4914622,5.4914622 0 0 1 1.35379,-1.659522 8.9540098,8.9540098 0 0 1 2.00194,-1.277443 7.4620003,7.4620003 0 0 1 2.879,-0.514843 q 1.77315,0 2.8981,0.648192 a 5.74781,5.74781 0 0 1 2.27844,2.211654 q 0.75303,1.353782 0.75303,2.479526 z m -10.63891,-0.686453 h 0.89613 q 0.97229,0 5.79625,-0.304963 0.7626,-0.03906 0.93421,-0.152483 a 1.0152381,1.0152381 0 0 0 0.34324,-0.648189 3.0404429,3.0404429 0 0 0 -0.38133,-1.344215 2.627905,2.627905 0 0 0 -1.17257,-1.163035 3.9453715,3.9453715 0 0 0 -1.83994,-0.409998 q -2.21167,0 -3.5463,1.659524 -1.02969,1.25753 -1.02969,2.363359 z"
         id="Theme-9-8"
         style="fill:none;stroke:#000000;stroke-width:1.10392;stroke-miterlimit:4;stroke-dasharray:none;stroke-opacity:1" />
      <path
         style="stroke-width:0.194673"
         d="m 28.160229,-45.300222 0.775479,-2.882568 a 1.6438174,1.6574862 0 0 1 0.20821,-0.735009 0.38773849,0.39096265 0 0 1 0.303021,-0.162251 q 0.340828,0 0.775477,0.82102 a 2.6172347,2.6389979 0 0 0 0.530043,0.753973 1.283996,1.2946728 0 0 0 0.605844,0.219525 l 0.189409,-0.01955 0.814252,0.07643 4.468096,0.05728 5.282163,-0.01857 h 1.554443 l 2.934604,-0.05571 a 3.7849093,3.816382 0 0 1 0.473235,0.03734 q 1.287489,0.11338 1.58973,0.11338 a 0.58626059,0.59113554 0 0 0 0.454426,-0.187663 q 0.05678,-0.07389 0.62484,-1.260268 0.246215,-0.537574 0.605843,-0.537574 a 1.254528,1.2649598 0 0 1 0.378625,0.07584 2.7969516,2.8202092 0 0 1 0.0946,0.68184 l -0.0194,0.757881 0.0194,1.61018 q 0,0.586443 -0.0946,3.788819 a 0.90808354,0.91563455 0 0 1 -0.07586,0.378842 0.70645953,0.71233397 0 0 1 -0.359627,0.132732 0.33384283,0.33661884 0 0 1 -0.265016,-0.141919 2.960965,2.9855864 0 0 1 -0.284022,-0.879667 q -0.378626,-1.703228 -0.94666,-2.441169 a 2.1063893,2.1239046 0 0 0 -1.088585,-0.681254 q -0.709948,-0.208187 -3.398335,-0.208187 h -3.198839 q -0.03881,0.764136 -0.03881,1.39476 l 0.151417,11.865715 q 0,0.706861 -0.07586,2.674771 l 0.0194,2.541257 -0.0194,1.413918 q 0,0.668742 0.227217,0.955317 0.227219,0.286576 1.230486,0.552625 1.741728,0.439637 2.328761,0.535033 a 1.7254362,1.7397838 0 0 1 0.586845,0.15267 v 0.572761 l -2.68819,-0.06705 q -2.215347,-0.01663 -3.332223,-0.08465 l -2.764188,0.133709 -2.026716,0.114355 a 7.8949373,7.9605862 0 0 1 -1.041272,-0.03909 l -0.264106,-0.113579 a 0.91293026,0.92052157 0 0 1 0.170403,-0.563181 q 0.132606,-0.124131 0.700455,-0.200368 a 15.833107,15.964764 0 0 0 1.874323,-0.410511 q 1.07908,-0.295961 1.419907,-0.601301 a 0.99706953,1.0053605 0 0 0 0.265015,-0.572761 q 0.170415,-0.84057 0.170415,-3.302657 v -3.24499 l -0.07574,-7.082289 -0.07585,-1.5271 -0.0194,-5.096979 H 34.78746 q -2.726195,0 -3.313227,0.332317 -0.928639,0.5192 -2.764968,3.03739 -0.605843,0.944174 -1.060268,0.944174 l -0.170415,-0.03813 a 0.38405497,0.38724851 0 0 1 -0.07574,-0.209947 8.7555227,8.8283277 0 0 1 0.30302,-1.375406 q 0.378624,-1.469042 0.454426,-1.984526 z m 23.892838,21.094585 q 2.215151,-0.400542 2.555967,-0.610293 0.208221,-0.13371 0.208221,-0.610487 l -0.0194,-1.258706 0.0194,-2.23181 -0.03881,-5.68401 0.0194,-2.117259 v -1.506965 l 0.05678,-1.850232 q 0,-4.348872 -0.08507,-5.197653 -0.08507,-0.848779 -0.331324,-1.058725 -0.454426,-0.438466 -2.499162,-0.91544 v -0.0954 a 2.6841198,2.7064391 0 0 1 0.03881,-0.381774 q 0.265016,-0.0391 0.511232,-0.0954 a 3.3417242,3.3695117 0 0 1 0.473235,-0.07643 q 2.252959,-0.648997 3.275421,-1.259877 h 0.927662 q 0.03881,0.534837 0.03881,3.380654 l -0.0194,2.425533 0.0194,3.132196 -0.07574,3.858216 q 0,0.343657 0.03881,0.763941 a 17.849542,17.997966 0 0 1 1.744829,-1.855314 8.5763876,8.647703 0 0 1 2.102901,-1.27102 6.0714031,6.1218888 0 0 1 2.352022,-0.469154 q 2.332826,0 3.811851,1.982962 0.853022,1.16292 0.853022,3.298162 l -0.05678,1.944844 0.0194,1.08668 -0.07575,1.887568 q -0.07586,2.345777 -0.07586,2.783849 0,0.49535 0.03881,1.334551 l 1.079079,0.247871 q 1.079069,0.228714 1.666111,0.419306 l -0.0194,0.591723 -4.033062,-0.114943 q -0.340817,0 -1.855326,0.07643 -0.927663,0.03909 -1.07908,0.03909 h -0.416433 a 0.62038159,0.62554026 0 0 1 -0.0946,-0.28638 v -0.171828 q 0.265016,-0.343656 0.984468,-0.457817 l 1.135872,-0.267028 a 0.69366415,0.69943219 0 0 0 0.265028,-0.400346 q 0.07575,-0.495739 0.170402,-4.918114 l 0.03881,-1.410594 q 0.07574,-2.230246 -0.341605,-3.698115 a 2.6548455,2.6769214 0 0 0 -1.204889,-1.610766 3.9698605,4.0028712 0 0 0 -2.172499,-0.60052 4.4355345,4.4724174 0 0 0 -1.935205,0.438466 7.4251921,7.4869349 0 0 0 -1.498997,1.124605 6.6791832,6.7347228 0 0 0 -1.216335,1.371888 q -0.227416,0.380601 -0.227416,1.25577 l 0.0194,1.33162 -0.03881,1.38909 q 0,0.171242 0.05678,2.377835 l -0.0194,1.217653 0.03881,1.331814 a 2.1713356,2.1893909 0 0 0 0.05678,0.418526 l 2.669576,0.647043 a 5.9223177,5.9715637 0 0 1 0.624852,0.234576 l 0.05678,0.215031 a 0.89683913,0.90429664 0 0 1 -0.0946,0.31277 q -0.549038,0.01957 -0.833643,0.01957 l -1.475539,-0.01935 -3.257003,0.0391 -2.442752,0.07643 q -0.189412,-0.01956 -0.568036,-0.03909 l -0.0194,-0.133712 a 0.73670314,0.74282906 0 0 1 0.152765,-0.380797 z m 34.040729,-9.602239 -7.591925,0.05571 -1.438894,-0.0015 q -0.870869,0 -1.779721,0.07936 a 3.3380407,3.3657976 0 0 0 -0.170413,0.781925 l 0.0194,0.190985 v 0.190985 l -0.0194,0.935378 q 0,1.164483 0.728945,2.854028 a 5.6258916,5.6726727 0 0 0 2.082544,2.577226 q 1.353599,0.887679 3.379535,0.944957 a 6.9680484,7.02599 0 0 0 1.722917,-0.267224 8.7204325,8.7929457 0 0 0 1.817519,-0.973498 l 1.36309,-1.126363 0.11361,0.763552 a 2.2969628,2.3160628 0 0 1 -0.0194,0.286378 8.3169905,8.386149 0 0 1 -2.158346,1.90907 10.282049,10.367548 0 0 1 -2.650196,1.202994 9.2438795,9.3207453 0 0 1 -2.120352,0.171828 6.7854237,6.8418466 0 0 1 -2.651358,-0.553604 6.4531317,6.5067916 0 0 1 -3.037929,-2.70116 q -1.107564,-1.861201 -1.107564,-4.515642 a 9.6035068,9.6833631 0 0 1 0.312325,-2.157135 11.249458,11.343 0 0 1 1.126567,-2.80594 5.4527663,5.4981078 0 0 1 1.344293,-1.661592 8.8912312,8.9651647 0 0 1 1.987931,-1.279033 7.4096825,7.4712964 0 0 1 2.858802,-0.515485 q 1.760714,0 2.877798,0.648999 a 5.7075105,5.7549703 0 0 1 2.262451,2.214412 q 0.747756,1.355467 0.747756,2.482611 z m -10.564324,-0.687312 h 0.889855 q 0.96547,0 5.755596,-0.305342 0.757248,-0.03909 0.927662,-0.152669 a 1.0081201,1.0165029 0 0 0 0.340817,-0.649 3.0191256,3.0442306 0 0 0 -0.378624,-1.345889 2.60948,2.6311787 0 0 0 -1.164375,-1.164482 3.9177096,3.9502866 0 0 0 -1.827032,-0.410511 q -2.196143,0 -3.521439,1.661592 -1.02246,1.259094 -1.02246,2.366301 z m 12.476454,10.117722 a 1.955365,1.9716245 0 0 1 0.833631,-0.286379 3.7323708,3.7634066 0 0 0 1.173878,-0.305342 1.401093,1.4127435 0 0 0 0.454438,-0.821022 q 0.132606,-0.687312 0.132606,-4.829757 0,-4.066012 -0.246216,-5.249651 a 3.4398219,3.4684251 0 0 0 -1.079079,-0.419894 q -0.208211,-0.0391 -0.870858,-0.209948 v -0.639026 a 5.6980109,5.7453916 0 0 0 1.815774,-0.84272 q 0.694054,-0.517051 1.929978,-2.068389 h 0.113794 q 0.114191,0 0.361185,-0.01957 a 0.48467311,0.48870332 0 0 1 0.247378,0.0954 l -0.0194,2.176293 q 0,0.668157 0.03881,1.431707 2.022252,-1.851795 3.628458,-2.596189 A 5.9798968,6.0296216 0 0 1 98.996,-39.458272 q 1.64421,0 2.60793,0.630036 0.96373,0.630035 1.83265,2.271296 1.68492,-1.679966 3.05751,-2.34812 a 6.3232393,6.3758191 0 0 1 2.77369,-0.668157 q 2.12035,0 3.48364,1.395346 1.34429,1.414503 1.3821,4.147529 v 1.586527 l 0.0194,1.739782 -0.0194,4.472808 q -0.0195,0.783489 0.34082,1.185008 0.15141,0.05728 1.15487,0.343851 a 2.7306483,2.7533545 0 0 1 0.73845,0.267419 0.32647581,0.32919056 0 0 1 0.11362,0.26742 1.3642579,1.3756021 0 0 1 -0.11362,0.496326 h -0.13222 l -1.90748,-0.114553 q -0.33985,-0.01955 -1.07655,-0.01955 -0.90634,0 -2.53039,0.07643 h -0.96429 q -0.20764,0 -0.81211,0.01955 a 2.7769831,2.8000746 0 0 1 -0.0194,-0.305341 0.80067998,0.80733789 0 0 1 0.1326,-0.381775 5.8009555,5.8491923 0 0 1 1.4011,-0.372782 q 0.88986,-0.143289 1.10758,-0.516267 0.21772,-0.372979 0.21772,-2.972684 0,-5.639638 -0.13281,-6.53807 a 3.4828611,3.5118222 0 0 0 -1.20509,-2.246276 3.7343094,3.7653613 0 0 0 -2.45749,-0.81242 4.5452644,4.5830597 0 0 0 -2.22019,0.6013 8.0552672,8.1222493 0 0 0 -2.12539,1.804098 l -0.0194,0.458208 v 2.920687 l -0.0758,2.271689 q 0,3.474289 0.0663,3.951654 a 1.0647299,1.0735835 0 0 0 0.32181,0.696695 q 0.25553,0.219526 1.48622,0.390963 a 8.525594,8.596487 0 0 1 0.85204,0.152671 0.61049425,0.61557071 0 0 1 0.22722,0.496328 0.35555619,0.35851275 0 0 1 -0.16906,0.34307 h -0.32182 l -0.94666,-0.01956 h -5.509383 l -1.514502,0.01956 a 3.5233796,3.5526776 0 0 1 -0.03881,-0.419896 l 0.0194,-0.229103 q 0.416433,-0.229104 1.552518,-0.43905 a 6.6497151,6.7050096 0 0 0 1.211677,-0.324499 0.57656713,0.58136147 0 0 0 0.17003,-0.247284 q 0.0945,-0.267224 0.1326,-1.527101 l 0.0946,-2.214412 -0.0388,-2.500792 0.0194,-1.393587 q 0,-2.348123 -0.94433,-3.426592 a 3.0394819,3.0647562 0 0 0 -2.378974,-1.078667 6.0665564,6.1170017 0 0 0 -2.691674,0.668156 6.4343263,6.4878298 0 0 0 -2.238412,1.794908 q -0.0194,0.534447 -0.0194,0.973498 l 0.07586,6.414328 q 0.0194,2.099863 0.236711,2.39582 0.217329,0.295958 0.974974,0.410511 1.211674,0.171828 1.571303,0.419893 a 0.38231015,0.38548919 0 0 1 0.170413,0.343657 q 0,0.152671 -0.0194,0.362617 -2.163586,-0.15267 -2.903777,-0.15267 -0.759003,0 -1.366391,0.01955 l -0.9486,0.05728 H 90.09274 l -2.125394,0.07643 a 0.83034197,0.83724653 0 0 1 -0.03881,-0.220699 1.9245401,1.9405433 0 0 1 0.07739,-0.372195 z m 44.131814,-9.43041 -7.59192,0.05571 -1.43889,-0.0015 q -0.87087,0 -1.77972,0.07936 a 3.3380407,3.3657976 0 0 0 -0.17041,0.781925 l 0.0195,0.190985 v 0.190985 l -0.0195,0.935378 q 0,1.164483 0.72894,2.854028 a 5.6258916,5.6726727 0 0 0 2.08254,2.577226 q 1.35359,0.887679 3.37953,0.944957 a 6.9680484,7.02599 0 0 0 1.72291,-0.267224 8.7200448,8.7925548 0 0 0 1.81754,-0.973498 l 1.36308,-1.126363 0.11362,0.763552 a 2.2957996,2.3148899 0 0 1 -0.0194,0.286378 8.3169905,8.386149 0 0 1 -2.15834,1.90907 10.282243,10.367744 0 0 1 -2.6502,1.202994 9.2438795,9.3207453 0 0 1 -2.12034,0.171828 6.7854237,6.8418466 0 0 1 -2.65136,-0.553604 6.4531317,6.5067916 0 0 1 -3.03794,-2.70116 q -1.10757,-1.861179 -1.10757,-4.515619 a 9.6035068,9.6833631 0 0 1 0.31232,-2.157137 11.249651,11.343195 0 0 1 1.12659,-2.805939 5.4529603,5.4983034 0 0 1 1.34428,-1.661591 8.8912312,8.9651647 0 0 1 1.98794,-1.279033 7.4096825,7.4712964 0 0 1 2.85881,-0.515487 q 1.7607,0 2.87778,0.649 a 5.7075105,5.7549703 0 0 1 2.26245,2.214413 q 0.74776,1.355467 0.74776,2.482611 z m -10.56433,-0.687312 h 0.88987 q 0.96547,0 5.75557,-0.305342 0.75727,-0.03909 0.92769,-0.152669 a 1.0081201,1.0165029 0 0 0 0.34082,-0.649 3.0191256,3.0442306 0 0 0 -0.37862,-1.345889 2.60948,2.6311787 0 0 0 -1.16439,-1.164482 3.9177096,3.9502866 0 0 0 -1.82703,-0.410511 q -2.19614,0 -3.52144,1.661592 -1.02247,1.259094 -1.02247,2.366301 z"
         id="Theme" />
    </g>
  </g>
</svg>
