<svg xmlns="http://www.w3.org/2000/svg" width="82.692" height="58.279" viewBox="0 0 82.692 58.279">
    <path id="text3295" d="M-22.819-20.32a17.012,17.012,0,0,1,.2,2.623q0,.266-.017.714a1.834,1.834,0,0,1-.349.05,1.7,1.7,0,0,1-.282-.033,5.825,5.825,0,0,0-2.274-2.988A6.907,6.907,0,0,0-29.443-21a6.622,6.622,0,0,0-2.075.282A8.664,8.664,0,0,0-34.141-19.3a8.5,8.5,0,0,0-1.909,2.158A10.785,10.785,0,0,0-37.287-14.1a14.645,14.645,0,0,0-.457,3.644A13.916,13.916,0,0,0-36.665-4.59a6.808,6.808,0,0,0,2.955,3.3A8.051,8.051,0,0,0-29.924-.3l.78-.017a12.413,12.413,0,0,0,1.81-.315,8.454,8.454,0,0,0,2-.822A6.6,6.6,0,0,0-23.79-2.789,8.383,8.383,0,0,0-22.5-4.8l.2-.066a.565.565,0,0,1,.249.1q-.017.4-.033.515-.7,2.806-1.013,3.835-.266.066-.664.2a16.514,16.514,0,0,1-5.2.664A15.992,15.992,0,0,1-32.888.091a16.221,16.221,0,0,1-2.839-1.112,9.234,9.234,0,0,1-2.7-2A9.377,9.377,0,0,1-40.3-6.167a11.691,11.691,0,0,1-.714-4.142,11.06,11.06,0,0,1,.564-3.71,12.881,12.881,0,0,1,1.743-3.212,11.028,11.028,0,0,1,2.781-2.706,10.508,10.508,0,0,1,3.561-1.527,19.5,19.5,0,0,1,3.9-.3,11.978,11.978,0,0,1,3.47.49A6.617,6.617,0,0,1-22.819-20.32ZM-20.212.05l-.066-.216a.761.761,0,0,1,.149-.349l.979-.2,1.378-.249a.475.475,0,0,0,.232-.232,4.46,4.46,0,0,0,.1-1.276q0-5.635-.066-6.505a1.914,1.914,0,0,0-.3-1.1,2.4,2.4,0,0,0-1.2-.365,4.1,4.1,0,0,1-.9-.216l.066-.506A9.428,9.428,0,0,0-17.49-12.4a6.214,6.214,0,0,0,1.411-1.964l.564.017q.1.83.1,3.686l-.017.282a2.33,2.33,0,0,0,.033.315,9.621,9.621,0,0,1,1.577-2.108l.382-.382a2.517,2.517,0,0,1,.448-.415,3.962,3.962,0,0,1,1.727-.7,1.575,1.575,0,0,1,1.2.49,1.682,1.682,0,0,1,.465,1.2,1.155,1.155,0,0,1-.332.88,1.471,1.471,0,0,1-1.029.415,3.966,3.966,0,0,1-1.046-.282,4.017,4.017,0,0,0-1.029-.282,1.049,1.049,0,0,0-.647.149A5.637,5.637,0,0,0-14.817-9.6a3.053,3.053,0,0,0-.515,1.561l.083,2.745L-15.215-2a2.5,2.5,0,0,0,.133.732,1.008,1.008,0,0,0,.332.283q1.793.15,2.125.216.232.017.349.033a2.036,2.036,0,0,1,1,.2.268.268,0,0,1,.149.249.487.487,0,0,1-.133.266L-13.107-.05l-.7-.017-1.013.017H-16.51l-.913.05ZM3.594-8.766l-6.657.049H-4.325q-.764,0-1.561.069a2.927,2.927,0,0,0-.149.681l.017.166v.166l-.017.813A6.477,6.477,0,0,0-5.4-4.341,4.933,4.933,0,0,0-3.569-2.1a5.628,5.628,0,0,0,2.963.822A6.11,6.11,0,0,0,.9-1.511,7.647,7.647,0,0,0,2.5-2.357l1.2-.979.1.664a2.014,2.014,0,0,1-.017.249A7.293,7.293,0,0,1,1.884-.764,9.016,9.016,0,0,1-.44.282,8.106,8.106,0,0,1-2.3.432,5.95,5.95,0,0,1-4.624-.05,5.659,5.659,0,0,1-7.288-2.4a7.5,7.5,0,0,1-.971-3.926A8.421,8.421,0,0,1-7.985-8.2,9.864,9.864,0,0,1-7-10.642a4.782,4.782,0,0,1,1.179-1.444A7.8,7.8,0,0,1-4.076-13.2a6.5,6.5,0,0,1,2.507-.448,5.011,5.011,0,0,1,2.523.564,5,5,0,0,1,1.984,1.926A4.507,4.507,0,0,1,3.594-9Zm-9.264-.6h.78q.847,0,5.047-.266a2.1,2.1,0,0,0,.813-.133.885.885,0,0,0,.3-.564A2.647,2.647,0,0,0,.938-11.5,2.288,2.288,0,0,0-.083-12.509a3.435,3.435,0,0,0-1.6-.357,3.764,3.764,0,0,0-3.088,1.444A3.339,3.339,0,0,0-5.669-9.363ZM18.1-2.258a.879.879,0,0,1,.1.315,2.14,2.14,0,0,1-.4.88A3.574,3.574,0,0,1,16.66.149a2.06,2.06,0,0,1-1.1.249,2.181,2.181,0,0,1-1.793-.73,3.11,3.11,0,0,1-.515-1.544L11.4-.581A7.641,7.641,0,0,1,9.9.133,8,8,0,0,1,7.911.349,1.773,1.773,0,0,1,6.574-.158a1.8,1.8,0,0,1-.49-1.3A4.54,4.54,0,0,1,7.491-4.2a10.306,10.306,0,0,1,3.819-2.606q1.7-.714,2.08-.913.033-.548.033-1.2a4.874,4.874,0,0,0-.591-2.855,2.029,2.029,0,0,0-1.69-.747,3.166,3.166,0,0,0-2.148.9A3.964,3.964,0,0,0,8.06-9.5a3.518,3.518,0,0,1-.382.93A2.324,2.324,0,0,1,6.533-8.1a1.108,1.108,0,0,1-.664-.216A.327.327,0,0,1,5.7-8.583a5.725,5.725,0,0,1,.921-1.951,6.1,6.1,0,0,1,2.324-2.274,5.34,5.34,0,0,1,2.449-.755,6.543,6.543,0,0,1,2.125.257,2.87,2.87,0,0,1,1.229.9A2.883,2.883,0,0,1,15.4-10.99a25.948,25.948,0,0,1,.066,2.606l-.05,2.64.017,1.926q0,.382-.017.647-.017.481-.017.714a1.225,1.225,0,0,0,.315.88,1,1,0,0,0,.747.332,1.3,1.3,0,0,0,1.079-.631l.2-.266A1.547,1.547,0,0,1,18.1-2.258Zm-4.865-.481q.116-2.108.116-2.972,0-.448-.05-1.212a11.442,11.442,0,0,0-2.365,1.212A7.01,7.01,0,0,0,8.958-3.835a2.556,2.556,0,0,0-.533,1.444,1.447,1.447,0,0,0,.441,1.079A1.52,1.52,0,0,0,9.974-.88a2.92,2.92,0,0,0,1.25-.365A8.347,8.347,0,0,0,13.239-2.739ZM23.167-16.4l.515.017.066,1.577-.033,2.042q.315.017.4.017.432,0,1.644-.066.78-.05,1.494-.05.332,0,1,.017.033.332.033.531a3.658,3.658,0,0,1-.1.681H27.9l-2.573.083-1.278.033-.3.033a3.163,3.163,0,0,0-.133.963l.05,2.49-.033,4.383a3.992,3.992,0,0,0,.448,2.291,1.51,1.51,0,0,0,1.295.581A9.218,9.218,0,0,0,27-1.046a2.907,2.907,0,0,0,.979-.548h.149a.325.325,0,0,1,.241.091.325.325,0,0,1,.091.241l-.017.116A4.313,4.313,0,0,1,26.812-.008a6.92,6.92,0,0,1-2.449.357,3.021,3.021,0,0,1-1.785-.5,2.211,2.211,0,0,1-.9-1.179,13.48,13.48,0,0,1-.2-2.972l.066-3.735-.017-1.793v-.664q0-.465-.033-.93l-.282-.017-1.361.05-.133.017a.4.4,0,0,1-.274-.083.26.26,0,0,1-.091-.2.438.438,0,0,1,.125-.324,3.085,3.085,0,0,1,.755-.39,3.928,3.928,0,0,0,1-.689,5.457,5.457,0,0,0,.971-1.121,9.83,9.83,0,0,0,.564-1.262Q23.035-16.12,23.167-16.4ZM41.479-8.766l-6.657.049H33.56q-.764,0-1.561.069a2.927,2.927,0,0,0-.149.681l.017.166v.166l-.017.813a6.477,6.477,0,0,0,.639,2.482A4.933,4.933,0,0,0,34.315-2.1a5.628,5.628,0,0,0,2.963.822,6.11,6.11,0,0,0,1.511-.232,7.647,7.647,0,0,0,1.594-.847l1.2-.979.1.664a2.014,2.014,0,0,1-.017.249,7.293,7.293,0,0,1-1.893,1.66A9.016,9.016,0,0,1,37.445.282a8.106,8.106,0,0,1-1.859.149A5.95,5.95,0,0,1,33.261-.05,5.659,5.659,0,0,1,30.6-2.4a7.5,7.5,0,0,1-.971-3.926A8.421,8.421,0,0,1,29.9-8.2a9.864,9.864,0,0,1,.988-2.44,4.781,4.781,0,0,1,1.179-1.444A7.8,7.8,0,0,1,33.809-13.2a6.5,6.5,0,0,1,2.507-.448,5.011,5.011,0,0,1,2.523.564,5,5,0,0,1,1.984,1.926A4.507,4.507,0,0,1,41.479-9Zm-9.264-.6H33q.847,0,5.047-.266a2.1,2.1,0,0,0,.813-.133.885.885,0,0,0,.3-.564,2.647,2.647,0,0,0-.332-1.17A2.288,2.288,0,0,0,37.8-12.509a3.435,3.435,0,0,0-1.6-.357,3.764,3.764,0,0,0-3.088,1.444A3.339,3.339,0,0,0,32.215-9.363Zm-66.182,24.18a3.173,3.173,0,0,1,.382-.05q.564,0,1.859.066.681.017.93.017.365,0,1.544-.066l2.822-.166q1.112-.1,2.59-.1a9.739,9.739,0,0,1,4.15.738,5.183,5.183,0,0,1,2.382,2.313,6.623,6.623,0,0,1,.838,3.134,6.245,6.245,0,0,1-1.826,4.493,6.516,6.516,0,0,1-4.914,1.89,5.1,5.1,0,0,1-1.444-.174,5.158,5.158,0,0,1-1.328-.672.877.877,0,0,1-.382-.448.379.379,0,0,1,.183-.166,1.293,1.293,0,0,1,.481.1,4.347,4.347,0,0,0,1.428.2,5.057,5.057,0,0,0,2.482-.646,4.21,4.21,0,0,0,1.768-1.84,5.553,5.553,0,0,0,.6-2.519,5.407,5.407,0,0,0-.63-2.511,5.35,5.35,0,0,0-1.657-1.948,5.175,5.175,0,0,0-1.781-.7,8.785,8.785,0,0,0-1.864-.282,5.439,5.439,0,0,0-2.436.3l-.017.232.05,1.874-.017.332q-.033.448-.033,1.377,0,3.384.1,4.213v.929l.216,7.581q0,.166-.042.614t-.042.78a4.2,4.2,0,0,0,.133,1.211q.4.116,2.324.547.9.216.979.249a.477.477,0,0,1,.232.216.564.564,0,0,1-.174.324.816.816,0,0,1-.423.075q-.2,0-.93-.083-1.428-.149-2.241-.149l-2.922.116-1.743-.05q-.166,0-.963.033l-.017-.432,2.158-.415a1.383,1.383,0,0,0,.647-.3,1.712,1.712,0,0,0,.166-.912q0-.149.017-.647.017-.348.017-.962,0-1.957-.166-8.344-.066-2.986-.066-6.071v-.282q0-1.194-.365-1.509a6.822,6.822,0,0,0-3.071-.9.766.766,0,0,1-.083-.3A.685.685,0,0,1-33.967,14.816Zm20.752.78a1.256,1.256,0,0,1,.423-.946,1.436,1.436,0,0,1,1.021-.4,1.507,1.507,0,0,1,1.079.448,1.328,1.328,0,0,1,.465.963,1.354,1.354,0,0,1-.465.971,1.493,1.493,0,0,1-1.079.457,1.4,1.4,0,0,1-1.029-.415A1.46,1.46,0,0,1-13.215,15.6Zm-1.395,8.616.017-.49q1.079-.316,1.162-.367a5.437,5.437,0,0,0,1.253-.816,5.654,5.654,0,0,0,1.1-1.233,2.033,2.033,0,0,1,.315-.033l.2.017q.066.8.066,1.162,0,.083-.033.747v.88l.017,4.781-.05,5.063a1.241,1.241,0,0,0,.2.855,3.24,3.24,0,0,0,1.278.54,10.093,10.093,0,0,1,1,.315.523.523,0,0,1,.05.2.544.544,0,0,1-.083.249q-.647-.017-1.66-.083-1.378-.116-1.826-.116-.216,0-2.656.083a8.9,8.9,0,0,0-.963.083,1.151,1.151,0,0,1-.266-.05.365.365,0,0,1-.083-.2q0-.232.315-.365.066-.033,1.693-.381a1.08,1.08,0,0,0,.7-.332,1.761,1.761,0,0,0,.282-1.111q.033-1.276.033-7a5.859,5.859,0,0,0-.1-1.426,1.259,1.259,0,0,0-.44-.456A4.825,4.825,0,0,0-14.609,24.213ZM5.362,27.234l-6.657.049H-2.557q-.764,0-1.561.069a2.927,2.927,0,0,0-.149.681l.017.166v.166l-.017.813a6.477,6.477,0,0,0,.639,2.482A4.933,4.933,0,0,0-1.8,33.9a5.628,5.628,0,0,0,2.963.822,6.11,6.11,0,0,0,1.511-.232,7.647,7.647,0,0,0,1.594-.847l1.2-.979.1.664a2.014,2.014,0,0,1-.017.249,7.293,7.293,0,0,1-1.893,1.66,9.016,9.016,0,0,1-2.324,1.046,8.106,8.106,0,0,1-1.859.149,5.95,5.95,0,0,1-2.324-.481A5.659,5.659,0,0,1-5.52,33.6a7.5,7.5,0,0,1-.971-3.926A8.421,8.421,0,0,1-6.217,27.8a9.864,9.864,0,0,1,.988-2.44,4.782,4.782,0,0,1,1.179-1.444A7.8,7.8,0,0,1-2.308,22.8,6.5,6.5,0,0,1,.2,22.354a5.011,5.011,0,0,1,2.523.564,5,5,0,0,1,1.984,1.926A4.507,4.507,0,0,1,5.362,27Zm-9.264-.6h.78q.847,0,5.047-.266a2.1,2.1,0,0,0,.813-.133.885.885,0,0,0,.3-.564,2.647,2.647,0,0,0-.332-1.17,2.288,2.288,0,0,0-1.021-1.013,3.435,3.435,0,0,0-1.6-.357A3.764,3.764,0,0,0-3,24.578,3.339,3.339,0,0,0-3.9,26.637ZM19.64,32.962l.017,1.079A7.994,7.994,0,0,1,17.1,35.967a7.418,7.418,0,0,1-2.972.548,6.02,6.02,0,0,1-3.354-.971,6.268,6.268,0,0,1-2.3-2.748A8.4,8.4,0,0,1,7.67,29.31a6.935,6.935,0,0,1,.971-3.544,6.252,6.252,0,0,1,2.573-2.49,8.777,8.777,0,0,1,4.026-.822,6.459,6.459,0,0,1,3.536.8,1.4,1.4,0,0,1,.681,1.2,1.193,1.193,0,0,1-.349.88,1.214,1.214,0,0,1-.9.349,2.737,2.737,0,0,1-1.826-1.029,4.213,4.213,0,0,0-1.112-.872,2.523,2.523,0,0,0-1.112-.241A3.034,3.034,0,0,0,11.7,24.744a6.782,6.782,0,0,0-1.361,4.333,6.274,6.274,0,0,0,1.395,4.283,4.212,4.212,0,0,0,3.254,1.594,5.875,5.875,0,0,0,2.3-.423A9.606,9.606,0,0,0,19.64,32.962Zm14.045-5.728-6.657.049H25.766q-.764,0-1.561.069a2.927,2.927,0,0,0-.149.681l.017.166v.166l-.017.813a6.477,6.477,0,0,0,.639,2.482A4.933,4.933,0,0,0,26.521,33.9a5.628,5.628,0,0,0,2.963.822A6.11,6.11,0,0,0,31,34.489a7.647,7.647,0,0,0,1.594-.847l1.2-.979.1.664a2.014,2.014,0,0,1-.017.249,7.293,7.293,0,0,1-1.893,1.66,9.016,9.016,0,0,1-2.324,1.046,8.106,8.106,0,0,1-1.859.149,5.95,5.95,0,0,1-2.324-.481A5.659,5.659,0,0,1,22.8,33.6a7.5,7.5,0,0,1-.971-3.926A8.421,8.421,0,0,1,22.1,27.8a9.864,9.864,0,0,1,.988-2.44,4.782,4.782,0,0,1,1.179-1.444A7.8,7.8,0,0,1,26.015,22.8a6.5,6.5,0,0,1,2.507-.448,4.922,4.922,0,0,1,4.507,2.49A4.507,4.507,0,0,1,33.685,27Zm-9.264-.6h.78q.847,0,5.047-.266a2.1,2.1,0,0,0,.813-.133.885.885,0,0,0,.3-.564,2.647,2.647,0,0,0-.332-1.17,2.288,2.288,0,0,0-1.021-1.013,3.435,3.435,0,0,0-1.6-.357,3.764,3.764,0,0,0-3.088,1.444A3.339,3.339,0,0,0,24.421,26.637Z" transform="translate(41.014 21.765)"/>
</svg>
