<svg xmlns="http://www.w3.org/2000/svg" width="150.258" height="253.099" viewBox="0 0 150.258 253.099">
  <g id="Group_7" data-name="Group 7" transform="translate(-1460.879 -523)">
    <path id="rect3907" d="M29.093,44.548v150h150v-150ZM103,57.992c35.1,0,63.564,26.646,63.564,61.742,0,28.062-17.156,52.076-42.461,60.477-3.214.582-4.378-1.417-4.378-3.062,0-2.075.076-12.627.076-21.154,0-5.946-1.974-9.742-4.3-11.741,14.145-1.594,29.049-3.543,29.049-27.961,0-6.933-2.48-10.425-6.529-14.9.658-1.645,2.809-8.4-.658-17.182-5.289-1.67-17.46,6.832-17.46,6.832a59.782,59.782,0,0,0-31.782,0s-12.171-8.477-17.46-6.832c-3.467,8.755-1.316,15.537-.658,17.182-4.049,4.454-5.972,7.945-5.972,14.9,0,24.343,14.271,26.393,28.416,27.961a14.063,14.063,0,0,0-4.049,8.527c-3.618,1.67-12.905,4.479-18.447-5.289a13.357,13.357,0,0,0-9.767-6.529c-6.2-.076-.4,3.9-.4,3.9,4.15,1.9,7.035,9.261,7.035,9.261,3.72,11.336,21.433,7.541,21.433,7.541,0,5.314.076,13.968.076,15.537,0,1.645-1.139,3.644-4.378,3.062-25.228-8.452-42.89-32.465-42.89-60.527,0-35.1,26.848-61.742,61.945-61.742Zm-39.514,84.97a1.678,1.678,0,0,1,.52.078c.506.253.759.658.582.987a.753.753,0,0,1-1.088.177c-.506-.253-.759-.658-.582-.987a.686.686,0,0,1,.568-.255ZM66.1,145.1a1.346,1.346,0,0,1,.862.424c.43.481.506,1.063.177,1.316-.329.329-.911.152-1.316-.253-.43-.481-.506-1.063-.177-1.316A.6.6,0,0,1,66.1,145.1Zm2.563,3.265a1.262,1.262,0,0,1,.981.652,1.154,1.154,0,0,1,0,1.569c-.329.253-1.012,0-1.417-.582s-.4-1.24,0-1.493A.658.658,0,0,1,68.666,148.36Zm3.074,3.612a1.534,1.534,0,0,1,1.019.506c.506.481.658,1.24.329,1.569-.329.4-1.063.329-1.645-.253-.582-.481-.734-1.24-.329-1.569a.748.748,0,0,1,.626-.253Zm4.618,2.779a1.646,1.646,0,0,1,.374.055c.759.228,1.24.81,1.088,1.316a1.187,1.187,0,0,1-1.569.506c-.759-.152-1.265-.734-1.088-1.24a1.182,1.182,0,0,1,1.195-.638Zm10.261.2c.623.019,1.155.323,1.221.744.076.506-.43.987-1.164,1.164-.759.177-1.417-.152-1.493-.658-.076-.582.43-1.063,1.164-1.24a2.131,2.131,0,0,1,.272-.01Zm-4.863.659c.7-.016,1.276.374,1.276.919,0,.506-.582.911-1.316.911-.835.076-1.417-.329-1.417-.911,0-.506.582-.911,1.316-.911.047-.005.094-.007.141-.009Z" transform="translate(1432.044 478.452)"/>
    <path id="text3916" d="M-74.035-.687A1.111,1.111,0,0,1-73.5-.859H-73q.15,0,.515-.021a8.447,8.447,0,0,0,1.954-.3A3.308,3.308,0,0,0-69.246-2.6a51.706,51.706,0,0,0,2.514-6.209q.666-1.912.838-2.32.537-1.289,1.032-2.707l2.02-5.65q.473-1.332,2.278-6.1.451-1.2,1.1-3.223l.632-.043.751.021A29.681,29.681,0,0,1-56.454-24.9q.386,1.117,1.266,3.33l3.262,8.83,1.738,4.791q1.375,4.082,1.8,5.017A3.636,3.636,0,0,0-47.588-1.7a3.217,3.217,0,0,0,.806.258q.7.172.978.258a8.875,8.875,0,0,1,1.375.473,1.167,1.167,0,0,1,.086.365,1.246,1.246,0,0,1-.064.322Q-45.1,0-45.375,0q-1.1,0-3.867-.064l-2.148-.048-2.6.032q-.258,0-.526-.024t-.462-.024h-.473a1.074,1.074,0,0,1-.43-.129,1.6,1.6,0,0,1,.107-.58,1.381,1.381,0,0,1,.473-.15l2.255-.151a4.033,4.033,0,0,0,1.332-.237,2.052,2.052,0,0,0,.129-.581,9.334,9.334,0,0,0-.559-2Q-52.53-5.035-52.819-6T-55.1-12.375a9.315,9.315,0,0,0-1.547-.151l-4.6.043L-62.6-12.5a13.4,13.4,0,0,0-1.611.107q-.28.645-.366.924l-1.893,5.908a29.833,29.833,0,0,0-1.2,3.717,1.95,1.95,0,0,0,.193.645,9.384,9.384,0,0,0,1.2.236l2.922.258q.236.193.236.344a1.246,1.246,0,0,1-.064.322q-.967.021-1.482.021-1.719,0-4-.107-1.053-.043-1.5-.043t-1.568.043q-.73.043-1.053.043-.516,0-1.332-.064V-.279A1.382,1.382,0,0,1-74.035-.687Zm10.252-12.891q2.3.129,5.242.129,1.676,0,2.943-.107a14.46,14.46,0,0,0-.494-1.568q-1.394-3.737-1.545-4.123l-1.953-4.961L-59.8-24.6q-.129.258-.947,2.212-1.377,3.351-1.979,5.219-.28.838-.581,1.664a11.307,11.307,0,0,0-.376,1.16,3.727,3.727,0,0,1-.226.676Zm20.492-3.287h1.6l.706.043.557-.043q2.2,0,2.74.043l.021.408q0,3.029-.086,5.865-.064,1.676-.064,1.912a25.863,25.863,0,0,0,.248,4.727A2.5,2.5,0,0,0-36.4-2.4a4.1,4.1,0,0,0,2.207.569,7.139,7.139,0,0,0,3-.655,9.078,9.078,0,0,0,2.444-1.6,13.9,13.9,0,0,0,.107-1.8q0-3.2.065-4.318.021-.666.021-1.16,0-3.48-.344-3.932t-2.621-.687q-.752-.086-1.1-.15a.936.936,0,0,1-.172-.43l.064-.236a9.556,9.556,0,0,1,1.1-.064l3.416.043q1.826-.043,1.934-.043.236,0,.451.021l.043,1.568q-.15,3.266-.172,8.078L-26-5.457l.086,2.922a.939.939,0,0,0,.344.408,3.28,3.28,0,0,0,1.053.107h.193q.279,0,1.59.129.021.279.021.408v.236A40.7,40.7,0,0,0-27.371,0a11.953,11.953,0,0,1-1.2.344q-.107-.752-.107-.924V-2.32q0-.107-.021-.58-.279.193-.645.473A19.846,19.846,0,0,1-32.936-.215a5.542,5.542,0,0,1-2.449.623,4.588,4.588,0,0,1-3.674-1.676Q-40.5-2.943-40.5-6.982q0-.215.021-.773.086-1.031.086-1.439,0-.15-.021-.945-.021-.344-.021-.6,0-.193.021-.87t.021-.956q0-.365-.021-.645l-.043-1.139.021-.6a.8.8,0,0,0-.344-.623A17.454,17.454,0,0,0-42.55-16a3.035,3.035,0,0,1-.741-.183Zm26.984-4.361.666.021.086,2.041-.043,2.643q.408.021.516.021.559,0,2.127-.086,1.01-.064,1.934-.064.43,0,1.289.021.043.43.043.688a4.734,4.734,0,0,1-.129.881h-.365l-3.33.107-1.654.043-.387.043a4.094,4.094,0,0,0-.172,1.246l.064,3.223-.043,5.672a5.166,5.166,0,0,0,.58,2.965,1.954,1.954,0,0,0,1.676.752,11.929,11.929,0,0,0,2.105-.344,3.762,3.762,0,0,0,1.268-.709h.193a.421.421,0,0,1,.312.118.421.421,0,0,1,.118.312l-.021.15A5.582,5.582,0,0,1-11.591-.011,8.956,8.956,0,0,1-14.76.451a3.91,3.91,0,0,1-2.31-.645A2.861,2.861,0,0,1-18.24-1.719,17.445,17.445,0,0,1-18.5-5.564l.086-4.834-.021-2.32v-.859q0-.6-.043-1.2l-.365-.021-1.762.064-.172.021a.512.512,0,0,1-.354-.107.336.336,0,0,1-.118-.258.567.567,0,0,1,.161-.419,3.992,3.992,0,0,1,.978-.5,5.083,5.083,0,0,0,1.3-.892,7.062,7.062,0,0,0,1.257-1.45,12.72,12.72,0,0,0,.73-1.633Q-16.479-20.861-16.307-21.227ZM-8.787-.537a13.852,13.852,0,0,0,2.9-.687q.236-.15.236-.687l-.021-1.417.021-2.512-.043-6.4.021-2.383v-1.7l.064-2.082q0-4.894-.1-5.85a1.927,1.927,0,0,0-.376-1.192,7.358,7.358,0,0,0-2.836-1.03v-.107a3.046,3.046,0,0,1,.043-.43q.3-.043.58-.107a3.792,3.792,0,0,1,.537-.086,16.875,16.875,0,0,0,3.717-1.418h1.053q.043.6.043,3.8l-.021,2.73.021,3.525-.086,4.342q0,.387.043.86a20.255,20.255,0,0,1,1.98-2.088,9.732,9.732,0,0,1,2.389-1.431A6.89,6.89,0,0,1,4.051-17.4a5.182,5.182,0,0,1,4.326,2.232,6.151,6.151,0,0,1,.968,3.712L9.281-9.27,9.3-8.047,9.217-5.923Q9.131-3.284,9.131-2.79q0,.558.043,1.5l1.225.279q1.225.257,1.891.472l-.021.666L7.691,0Q7.3,0,5.586.086,4.533.129,4.361.129H3.889a.7.7,0,0,1-.107-.322V-.387A1.7,1.7,0,0,1,4.9-.9l1.289-.3a.787.787,0,0,0,.3-.451q.086-.558.193-5.535l.043-1.587a13.674,13.674,0,0,0-.388-4.162A3.013,3.013,0,0,0,4.97-14.75,4.5,4.5,0,0,0,2.5-15.426a5.033,5.033,0,0,0-2.2.493,8.425,8.425,0,0,0-1.7,1.266,7.579,7.579,0,0,0-1.378,1.545,2.874,2.874,0,0,0-.258,1.413l.021,1.5-.043,1.563q0,.193.064,2.676L-3.008-3.6l.043,1.5A2.464,2.464,0,0,0-2.9-1.63L.129-.9a6.72,6.72,0,0,1,.709.265L.9-.4a1.018,1.018,0,0,1-.107.352Q.172-.021-.15-.021L-1.826-.043-5.521,0-8.293.086Q-8.508.064-8.937.043l-.021-.15A.835.835,0,0,1-8.787-.537Zm23.182-8.1a9.081,9.081,0,0,1,.612-3.126,8.684,8.684,0,0,1,1.858-2.986,8.635,8.635,0,0,1,2.643-1.966,11.337,11.337,0,0,1,4.77-.9,9.021,9.021,0,0,1,6.714,2.75,9.112,9.112,0,0,1,2.7,6.617,8.277,8.277,0,0,1-2.825,6.134A9.932,9.932,0,0,1,23.719.58a9.723,9.723,0,0,1-5.027-1.4,9.037,9.037,0,0,1-3.029-3.115A8.8,8.8,0,0,1,14.395-8.637ZM23.9-.258a6.2,6.2,0,0,0,3.153-.881,6.106,6.106,0,0,0,2.421-2.825,10.572,10.572,0,0,0,.9-4.5,13.142,13.142,0,0,0-.7-3.889,6.469,6.469,0,0,0-2.152-3.319,5.47,5.47,0,0,0-3.411-1.106,7,7,0,0,0-2.895.666,5.531,5.531,0,0,0-2.5,2.557A11.473,11.473,0,0,0,17.7-8.186q0,3.91,1.775,5.919A5.662,5.662,0,0,0,23.9-.258ZM36.158.064l-.086-.279a.985.985,0,0,1,.193-.451l1.268-.257,1.783-.322a.614.614,0,0,0,.3-.3A5.772,5.772,0,0,0,39.746-3.2q0-7.293-.086-8.419a2.477,2.477,0,0,0-.387-1.426,3.1,3.1,0,0,0-1.547-.472,5.311,5.311,0,0,1-1.16-.279l.086-.655a12.2,12.2,0,0,0,3.029-1.594,8.042,8.042,0,0,0,1.826-2.542l.73.021q.129,1.074.129,4.77l-.021.365a3.015,3.015,0,0,0,.043.408,12.451,12.451,0,0,1,2.041-2.729l.494-.494a3.257,3.257,0,0,1,.58-.537,5.128,5.128,0,0,1,2.234-.9,2.038,2.038,0,0,1,1.547.634,2.177,2.177,0,0,1,.6,1.558,1.5,1.5,0,0,1-.43,1.139,1.9,1.9,0,0,1-1.332.537,5.132,5.132,0,0,1-1.354-.365,5.2,5.2,0,0,0-1.332-.365,1.358,1.358,0,0,0-.838.193,7.3,7.3,0,0,0-1.461,1.934,3.951,3.951,0,0,0-.666,2.02l.107,3.553.043,4.264a3.234,3.234,0,0,0,.172.947,1.3,1.3,0,0,0,.43.366q2.32.194,2.75.28.3.021.451.043a2.635,2.635,0,0,1,1.289.258.347.347,0,0,1,.193.322.631.631,0,0,1-.172.344L45.354-.064l-.9-.021-1.311.021H40.949L39.768,0Zm17.2-17.316-1.166-6.359a23.944,23.944,0,0,1-.5-3.566,2.937,2.937,0,0,1,.561-2,1.96,1.96,0,0,1,1.533-.623,2.186,2.186,0,0,1,1.608.634,2.191,2.191,0,0,1,.637,1.622,30.311,30.311,0,0,1-.561,3.953L54.3-17.252Zm7.49,11.795a16.171,16.171,0,0,0,1.2,2.643A6.1,6.1,0,0,0,64-.913a4.75,4.75,0,0,0,2.471.677A3.7,3.7,0,0,0,68.9-1.289a2.447,2.447,0,0,0,.859-1.848,3.887,3.887,0,0,0-1.01-2.578,9.723,9.723,0,0,0-3.835-2.224,8.963,8.963,0,0,1-3.792-2.267,4.269,4.269,0,0,1-.967-2.75,4.334,4.334,0,0,1,.795-2.578,4.87,4.87,0,0,1,2.191-1.687,6.877,6.877,0,0,1,2.578-.569,14.407,14.407,0,0,1,2.739.236,7,7,0,0,1,2.095.73q.172,1.1.279,3.223l.043.688q-.279.021-.473.021h-.3a6.167,6.167,0,0,0-1.966-2.825,4.231,4.231,0,0,0-2.61-1.042,2.839,2.839,0,0,0-2.084.784,2.754,2.754,0,0,0-.795,2.052,2.566,2.566,0,0,0,.645,1.719,8.59,8.59,0,0,0,3.019,1.714A15.714,15.714,0,0,1,69.771-8.7a5.037,5.037,0,0,1,1.6,2.01,5.649,5.649,0,0,1,.516,2.258,4.506,4.506,0,0,1-.978,2.774A5.238,5.238,0,0,1,68.46.161a7.92,7.92,0,0,1-2.632.527A12.363,12.363,0,0,1,60.8-.322a.843.843,0,0,1-.236-.645q0-.193-.043-.623-.344-2.9-.344-3.437a.428.428,0,0,1,.107-.344A1.087,1.087,0,0,1,60.844-5.457ZM-38.479,26.838l.236,3.266q.129,1.482.129,2.02l-.6.107a12.174,12.174,0,0,0-3.577-4.9A8.365,8.365,0,0,0-47.523,25.7a15.049,15.049,0,0,0-5.887.924,12.02,12.02,0,0,0-5.221,4.555A13.74,13.74,0,0,0-60.8,39a13.365,13.365,0,0,0,.795,4.748,14.408,14.408,0,0,0,2.245,3.921,15.29,15.29,0,0,0,3.427,3.147,9.547,9.547,0,0,0,3.072,1.332,14.209,14.209,0,0,0,3.008.236,12.7,12.7,0,0,0,2.857-.365,6.217,6.217,0,0,0,2.363-.978,3.171,3.171,0,0,0,1.085-1.386,10.111,10.111,0,0,0,.29-3.008q0-3.717-.494-4.329t-3.115-.806l-.859-.064-.58.021q-.129-.021-.344-.064l-.322-.537a.488.488,0,0,1,.15-.279,41.434,41.434,0,0,1,4.855-.172q.838,0,2.729.043l2.213.086,2-.021q.58,0,1.4.043a.307.307,0,0,1,.193.075.3.3,0,0,1,.043.183,2.226,2.226,0,0,1-.107.6,7.178,7.178,0,0,1-1.4.193l-1.4-.021a1.435,1.435,0,0,0-1.139.494,3.276,3.276,0,0,0-.215,1.611l.021,2.814a17.1,17.1,0,0,1-.236,3.7,1.787,1.787,0,0,1-.537.849,6.149,6.149,0,0,1-1.719.892,16.67,16.67,0,0,1-3.395,1.01,31.911,31.911,0,0,1-5.479.494,19.018,19.018,0,0,1-6.972-1.085,13.989,13.989,0,0,1-4.684-3.019,12.359,12.359,0,0,1-2.8-3.91,14.623,14.623,0,0,1-1.268-5.908,15.053,15.053,0,0,1,1.987-7.358,14.6,14.6,0,0,1,6.413-5.854,18.8,18.8,0,0,1,8.465-1.59,23.46,23.46,0,0,1,6.048.645A15.4,15.4,0,0,1-38.479,26.838Zm8.314-.322a1.626,1.626,0,0,1,.548-1.225,1.859,1.859,0,0,1,1.321-.516,1.951,1.951,0,0,1,1.4.58,1.719,1.719,0,0,1,.6,1.246,1.753,1.753,0,0,1-.6,1.257,1.933,1.933,0,0,1-1.4.591,1.809,1.809,0,0,1-1.332-.537A1.889,1.889,0,0,1-30.164,26.516Zm-1.8,11.15.021-.634q1.4-.41,1.5-.474A7.036,7.036,0,0,0-28.821,35.5a7.317,7.317,0,0,0,1.429-1.6,2.63,2.63,0,0,1,.408-.043l.258.021q.086,1.031.086,1.5,0,.107-.043.967v1.139l.021,6.188-.064,6.553a1.606,1.606,0,0,0,.258,1.106,4.193,4.193,0,0,0,1.654.7,13.062,13.062,0,0,1,1.289.408.676.676,0,0,1,.064.258.7.7,0,0,1-.107.322q-.838-.021-2.148-.107-1.783-.15-2.363-.15-.279,0-3.437.107a11.524,11.524,0,0,0-1.246.107,1.489,1.489,0,0,1-.344-.064.473.473,0,0,1-.107-.258q0-.3.408-.473.086-.043,2.191-.493a1.4,1.4,0,0,0,.9-.429,2.278,2.278,0,0,0,.365-1.437q.043-1.652.043-9.053a7.583,7.583,0,0,0-.129-1.845,1.63,1.63,0,0,0-.569-.59A6.244,6.244,0,0,0-31.969,37.666Zm14.975-5.973.666.021.086,2.041-.043,2.643q.408.021.516.021.559,0,2.127-.086,1.01-.064,1.934-.064.43,0,1.289.021.043.43.043.688a4.734,4.734,0,0,1-.129.881h-.365l-3.33.107-1.654.043-.387.043a4.094,4.094,0,0,0-.172,1.246l.064,3.223-.043,5.672a5.166,5.166,0,0,0,.58,2.965,1.954,1.954,0,0,0,1.676.752,11.929,11.929,0,0,0,2.105-.344,3.762,3.762,0,0,0,1.268-.709h.193a.421.421,0,0,1,.312.118.421.421,0,0,1,.118.312l-.021.15a5.582,5.582,0,0,1-2.116,1.472,8.956,8.956,0,0,1-3.169.462,3.91,3.91,0,0,1-2.31-.645A2.861,2.861,0,0,1-18.928,51.2a17.445,17.445,0,0,1-.258-3.846l.086-4.834-.021-2.32v-.859q0-.6-.043-1.2l-.365-.021-1.762.064-.172.021a.512.512,0,0,1-.354-.107.336.336,0,0,1-.118-.258.567.567,0,0,1,.161-.419,3.992,3.992,0,0,1,.978-.5,5.083,5.083,0,0,0,1.3-.892,7.062,7.062,0,0,0,1.257-1.45,12.72,12.72,0,0,0,.73-1.633Q-17.166,32.059-16.994,31.693Zm7.52,21.57.021-.473a4.451,4.451,0,0,1,1.7-.516,7.668,7.668,0,0,0,1.934-.4,1.212,1.212,0,0,0,.58-.57,3.661,3.661,0,0,0,.3-1.441l-.043-1.634.021-1.505-.043-1.763q0-1.1.064-2.742t.064-1.752V34.6q0-1.4.064-3.021t.064-2.247a13.685,13.685,0,0,0-.086-2.15.672.672,0,0,0-.322-.43A5.942,5.942,0,0,0-6.7,26.516q-1.01-.086-1.4-.15a.992.992,0,0,1-.107-.387q0-.172.021-.408.516-.043.795-.043l2.02.021q2.148,0,4.555-.172,1.182-.086,3.566-.15a1.686,1.686,0,0,1,.043.365.513.513,0,0,1-.1.333.541.541,0,0,1-.333.161q-2.814.236-3.319.7t-.5,2.353q0,3.48.107,7.176l.086,2.02a20.013,20.013,0,0,0,2.793.215q.73.043.859.043l3.158-.043,2.084.064,5.457-.171a6.911,6.911,0,0,0,1.225-.086q.129-3.726.129-7.215a27.121,27.121,0,0,0-.15-3.961.736.736,0,0,0-.3-.492q-.129-.064-2.234-.342-.365-.043-.687-.107a2.42,2.42,0,0,1-.107-.749,8.648,8.648,0,0,1,.924-.11l1.418.077q1.955.1,3.932.1,1.268,0,4.211-.215a4.029,4.029,0,0,1-.107.773,6.718,6.718,0,0,1-1.955.408,4.039,4.039,0,0,0-1.225.236,1.458,1.458,0,0,0-.408,1.225q0,.215.021.473.021.773.021,1.01V31.93l.021,1.547-.043,2,.021,3.738-.043,3.523q0,1.053.064,3.287l-.021,2.9a5.971,5.971,0,0,0,.258,2.084.79.79,0,0,0,.43.43l1.74.387a5.288,5.288,0,0,1,1.536.526.611.611,0,0,1,.247.483l-.064.258-.107.021a1.208,1.208,0,0,1-.279-.043,27.229,27.229,0,0,0-4.92-.43q-2.02,0-2.868.064t-3.534.473a3.014,3.014,0,0,1-.043-.408,2.63,2.63,0,0,1,.043-.408,5.532,5.532,0,0,1,2.105-.537,2.825,2.825,0,0,0,1.7-.687A1.5,1.5,0,0,0,14.438,50L14.416,46.9q.064-1.4.064-1.525,0-1.826-.064-5.328-.064-.3-.236-.365a34.051,34.051,0,0,0-5.715.086q-1.031.064-1.547.064t-2.159-.054q-1.644-.054-3.04-.054-.752,0-1.268.021-.988.021-1.1.021a.92.92,0,0,0-.677.193,1.042,1.042,0,0,0-.183.709l.021,1.5q0,.365-.107,4.061-.021.752-.021,1.246a22.3,22.3,0,0,0,.215,3.91.945.945,0,0,0,.387.623,8.759,8.759,0,0,0,1.676.451,11.534,11.534,0,0,1,1.5.408l.129.215a.2.2,0,0,1-.086.172.555.555,0,0,1-.365.107q-.172,0-.408-.011t-.924-.032q-1.1-.021-2.729-.15-1.053-.086-1.869-.086-1.375,0-4.4.147Q-9.066,53.264-9.475,53.264ZM23.848,36.055h1.6l.706.043.557-.043q2.2,0,2.74.043l.021.408q0,3.029-.086,5.865-.064,1.676-.064,1.912a25.863,25.863,0,0,0,.248,4.727,2.5,2.5,0,0,0,1.163,1.515,4.1,4.1,0,0,0,2.207.569,7.139,7.139,0,0,0,3-.655,9.078,9.078,0,0,0,2.444-1.6,13.9,13.9,0,0,0,.107-1.8q0-3.2.065-4.318.021-.666.021-1.16,0-3.48-.344-3.932t-2.621-.687q-.752-.086-1.1-.15a.936.936,0,0,1-.172-.43l.064-.236a9.556,9.556,0,0,1,1.1-.064l3.416.043q1.826-.043,1.934-.043.236,0,.451.021l.043,1.568q-.15,3.266-.172,8.078l-.043,1.74.086,2.922a.939.939,0,0,0,.344.408,3.28,3.28,0,0,0,1.053.107h.193q.279,0,1.59.129.021.279.021.408v.236a40.7,40.7,0,0,0-4.662,1.246,11.953,11.953,0,0,1-1.2.344q-.107-.752-.107-.924V50.6q0-.107-.021-.58-.279.193-.645.473A19.846,19.846,0,0,1,34.2,52.705a5.542,5.542,0,0,1-2.449.623,4.588,4.588,0,0,1-3.674-1.676q-1.439-1.676-1.439-5.715,0-.215.021-.773.086-1.031.086-1.439,0-.15-.021-.945-.021-.344-.021-.6,0-.193.021-.87t.021-.956q0-.365-.021-.645l-.043-1.139.021-.6a.8.8,0,0,0-.344-.623,17.455,17.455,0,0,0-1.772-.419,3.035,3.035,0,0,1-.741-.183ZM45.4,25.946v-.109a1.664,1.664,0,0,1,.173-.611,38.154,38.154,0,0,0,5.005-1.267,3.648,3.648,0,0,1,.473-.022,2.006,2.006,0,0,1,.107.451v6.4l-.021,2.041.021,2.277-.043,1.848q0,.107.043.73l1.762-.666q.279-.086,1.848-.559,2-.322,2.32-.322a10.336,10.336,0,0,1,3.867.688,6.663,6.663,0,0,1,2.084,1.429,6.792,6.792,0,0,1,1.525,2.116A9.352,9.352,0,0,1,65.42,43.9a11.763,11.763,0,0,1-.3,3.244,10.443,10.443,0,0,1-1.783,3.395,8.445,8.445,0,0,1-2.943,2.127,9.655,9.655,0,0,1-7.713.15,12.149,12.149,0,0,0-1.955-.73q-.666,0-1.7,1.762l-.623-.021q-.086-1.438-.086-3.541l.043-3.2-.021-1.631.043-4.678-.043-.9.086-2.21V35.775L48.447,35q0-.236-.021-1.867V31.848q.064-3.734-.324-4.313A5.108,5.108,0,0,0,45.4,25.946ZM55.623,52.361A6.46,6.46,0,0,0,60.6,50.524,7.77,7.77,0,0,0,62.3,45.057a7.566,7.566,0,0,0-1.934-5.393A6.279,6.279,0,0,0,55.6,37.6a8.009,8.009,0,0,0-3.459.666q-.838.408-.935.752t-.1,4.6a41.737,41.737,0,0,0,.215,5.908,3.047,3.047,0,0,0,1.332,1.912A5.719,5.719,0,0,0,55.623,52.361Z" transform="translate(1535 722.255)"/>
  </g>
</svg>
