<svg xmlns="http://www.w3.org/2000/svg" width="150" height="253.685" viewBox="0 0 150 253.685">
  <g id="Group_4" data-name="Group 4" transform="translate(-900 -525)">
    <path id="rect910" fill="current" d="M23.589,10.421v150h150v-150Zm82.191,4.764c1.512-.064,2.756,2.136,4.425,6.753,1.746,4.828,5.893,9.238,12.941,13.76,13.191,8.465,23.34,20.307,27.081,31.6,1.916,5.784,2.965,18.569,3.028,36.909.053,15.433.858,31.568,1.79,35.855l1.694,7.794H106.624c-46.687,0-50.116-.253-50.116-3.7,0-13.743,12.9-39.945,19.671-39.945,1.4,0,4.242-1.871,6.311-4.157a14.735,14.735,0,0,1,9.779-4.157c13.677,0,26.653-12.092,26.51-24.7l-.086-7.514L114.1,72.9c-6.8,13.667-13.381,17.594-29.93,17.86-12.82.206-14.2.69-19.264,6.755l-5.455,6.533L51.477,99.24,43.5,94.426l4.784-3.351c4.291-3.006,4.412-3.494,1.168-4.738a6.084,6.084,0,0,0-5.971.967c-4.381,4.381-5.68,2.389-5.68-8.71V67.529l14.3-9.772c7.866-5.375,16.567-11.871,19.334-14.435A143.631,143.631,0,0,1,87.107,31.832c5.85-3.754,12.137-9.115,13.97-11.913,2.014-3.074,3.45-4.682,4.7-4.735Z" transform="translate(876.411 514.579)"/>
    <path id="text916" fill="current" d="M-24.954-26.3A22.015,22.015,0,0,1-24.7-22.9q0,.344-.021.924a2.374,2.374,0,0,1-.451.064,2.2,2.2,0,0,1-.365-.043,7.538,7.538,0,0,0-2.943-3.867,8.939,8.939,0,0,0-5.049-1.354,8.569,8.569,0,0,0-2.686.365,11.212,11.212,0,0,0-3.395,1.837,11,11,0,0,0-2.471,2.793,13.957,13.957,0,0,0-1.6,3.932,18.953,18.953,0,0,0-.591,4.716,18.009,18.009,0,0,0,1.4,7.595,8.811,8.811,0,0,0,3.824,4.275,10.418,10.418,0,0,0,4.9,1.278l1.01-.021A16.064,16.064,0,0,0-30.8-.816,10.94,10.94,0,0,0-28.209-1.88a8.544,8.544,0,0,0,2-1.729,10.849,10.849,0,0,0,1.665-2.6l.258-.086a.732.732,0,0,1,.322.129q-.021.516-.043.666-.9,3.631-1.311,4.963-.344.086-.859.258A21.371,21.371,0,0,1-32.9.58,20.7,20.7,0,0,1-37.984.118a20.991,20.991,0,0,1-3.674-1.439A11.95,11.95,0,0,1-45.149-3.91a12.135,12.135,0,0,1-2.428-4.071,15.129,15.129,0,0,1-.924-5.36,14.313,14.313,0,0,1,.73-4.8A16.67,16.67,0,0,1-45.515-22.3a14.272,14.272,0,0,1,3.6-3.5,13.6,13.6,0,0,1,4.608-1.977,25.241,25.241,0,0,1,5.049-.387,15.5,15.5,0,0,1,4.49.634A8.563,8.563,0,0,1-24.954-26.3Zm3.33,25.76a13.852,13.852,0,0,0,2.9-.687q.236-.15.236-.687l-.021-1.417.021-2.512-.043-6.4.021-2.383v-1.7l.064-2.082q0-4.894-.1-5.85a1.927,1.927,0,0,0-.376-1.192,7.358,7.358,0,0,0-2.836-1.03v-.107a3.046,3.046,0,0,1,.043-.43q.3-.043.58-.107a3.792,3.792,0,0,1,.537-.086,16.875,16.875,0,0,0,3.717-1.418h1.053q.043.6.043,3.8l-.021,2.73.021,3.525-.086,4.342q0,.387.043.86a20.255,20.255,0,0,1,1.98-2.088,9.732,9.732,0,0,1,2.389-1.431A6.89,6.89,0,0,1-8.785-17.4,5.182,5.182,0,0,1-4.46-15.171a6.151,6.151,0,0,1,.968,3.712L-3.556-9.27l.021,1.223L-3.62-5.923q-.086,2.639-.086,3.133,0,.558.043,1.5l1.225.279q1.225.257,1.891.472L-.569.129-5.146,0q-.387,0-2.105.086Q-8.3.129-8.476.129h-.473a.7.7,0,0,1-.107-.322V-.387A1.7,1.7,0,0,1-7.938-.9l1.289-.3a.787.787,0,0,0,.3-.451q.086-.558.193-5.535l.043-1.587A13.674,13.674,0,0,0-6.5-12.937,3.013,3.013,0,0,0-7.867-14.75a4.5,4.5,0,0,0-2.465-.676,5.033,5.033,0,0,0-2.2.493,8.425,8.425,0,0,0-1.7,1.266,7.579,7.579,0,0,0-1.378,1.545,2.874,2.874,0,0,0-.258,1.413l.021,1.5-.043,1.563q0,.193.064,2.676l-.021,1.37.043,1.5a2.464,2.464,0,0,0,.064.471l3.029.728A6.72,6.72,0,0,1-12-.638l.064.242a1.018,1.018,0,0,1-.107.352q-.623.021-.945.021l-1.676-.021-3.7.043L-21.13.086q-.215-.021-.645-.043l-.021-.15A.835.835,0,0,1-21.624-.537ZM17-11.344l-8.615.063-1.633,0q-.988,0-2.02.089a3.788,3.788,0,0,0-.193.881l.021.215v.215L4.544-8.83a8.383,8.383,0,0,0,.827,3.212,6.384,6.384,0,0,0,2.363,2.9,7.283,7.283,0,0,0,3.835,1.063,7.907,7.907,0,0,0,1.955-.3,9.9,9.9,0,0,0,2.063-1.1l1.547-1.268.129.859a2.607,2.607,0,0,1-.021.322A9.437,9.437,0,0,1,14.792-.988,11.668,11.668,0,0,1,11.784.365,10.49,10.49,0,0,1,9.378.559,7.7,7.7,0,0,1,6.37-.064,7.323,7.323,0,0,1,2.922-3.1,9.7,9.7,0,0,1,1.665-8.186a10.9,10.9,0,0,1,.354-2.428A12.766,12.766,0,0,1,3.3-13.771a6.188,6.188,0,0,1,1.525-1.869A10.09,10.09,0,0,1,7.079-17.08a8.408,8.408,0,0,1,3.244-.58,6.485,6.485,0,0,1,3.266.73,6.477,6.477,0,0,1,2.567,2.492A5.833,5.833,0,0,1,17-11.645ZM5.017-12.117h1.01q1.1,0,6.531-.344a2.72,2.72,0,0,0,1.053-.172,1.145,1.145,0,0,0,.387-.73,3.426,3.426,0,0,0-.43-1.515,2.961,2.961,0,0,0-1.321-1.311,4.446,4.446,0,0,0-2.073-.462,4.871,4.871,0,0,0-4,1.869A4.321,4.321,0,0,0,5.017-12.117Zm16.393,6.66a16.171,16.171,0,0,0,1.2,2.643,6.1,6.1,0,0,0,1.955,1.9,4.75,4.75,0,0,0,2.471.677,3.7,3.7,0,0,0,2.428-1.053,2.447,2.447,0,0,0,.859-1.848,3.887,3.887,0,0,0-1.01-2.578A9.723,9.723,0,0,0,25.48-7.938a8.963,8.963,0,0,1-3.792-2.267,4.269,4.269,0,0,1-.967-2.75,4.334,4.334,0,0,1,.795-2.578,4.87,4.87,0,0,1,2.191-1.687,6.877,6.877,0,0,1,2.578-.569,14.407,14.407,0,0,1,2.739.236,7,7,0,0,1,2.095.73q.172,1.1.279,3.223l.043.688q-.279.021-.473.021h-.3A6.167,6.167,0,0,0,28.7-15.716a4.231,4.231,0,0,0-2.61-1.042,2.839,2.839,0,0,0-2.084.784,2.754,2.754,0,0,0-.795,2.052,2.566,2.566,0,0,0,.645,1.719,8.59,8.59,0,0,0,3.019,1.714A15.714,15.714,0,0,1,30.336-8.7a5.037,5.037,0,0,1,1.6,2.01,5.649,5.649,0,0,1,.516,2.258,4.506,4.506,0,0,1-.978,2.774A5.238,5.238,0,0,1,29.025.161a7.92,7.92,0,0,1-2.632.527,12.363,12.363,0,0,1-5.027-1.01.843.843,0,0,1-.236-.645q0-.193-.043-.623-.344-2.9-.344-3.437a.428.428,0,0,1,.107-.344A1.087,1.087,0,0,1,21.409-5.457Zm16.049,0a16.171,16.171,0,0,0,1.2,2.643,6.1,6.1,0,0,0,1.955,1.9,4.75,4.75,0,0,0,2.471.677,3.7,3.7,0,0,0,2.428-1.053,2.447,2.447,0,0,0,.859-1.848,3.887,3.887,0,0,0-1.01-2.578,9.723,9.723,0,0,0-3.835-2.224,8.963,8.963,0,0,1-3.792-2.267,4.269,4.269,0,0,1-.967-2.75,4.334,4.334,0,0,1,.795-2.578,4.87,4.87,0,0,1,2.191-1.687,6.876,6.876,0,0,1,2.578-.569,14.407,14.407,0,0,1,2.739.236,7,7,0,0,1,2.095.73q.172,1.1.279,3.223l.043.688q-.279.021-.473.021h-.3a6.167,6.167,0,0,0-1.966-2.825,4.231,4.231,0,0,0-2.61-1.042,2.839,2.839,0,0,0-2.084.784,2.754,2.754,0,0,0-.795,2.052,2.566,2.566,0,0,0,.645,1.719,8.59,8.59,0,0,0,3.019,1.714A15.714,15.714,0,0,1,46.385-8.7a5.037,5.037,0,0,1,1.6,2.01A5.649,5.649,0,0,1,48.5-4.43a4.506,4.506,0,0,1-.978,2.774A5.238,5.238,0,0,1,45.074.161a7.92,7.92,0,0,1-2.632.527,12.363,12.363,0,0,1-5.027-1.01.843.843,0,0,1-.236-.645q0-.193-.043-.623-.344-2.9-.344-3.437a.428.428,0,0,1,.107-.344A1.087,1.087,0,0,1,37.458-5.457ZM-45.527,52.254A30.177,30.177,0,0,0-42,51.739a1.126,1.126,0,0,0,.513-.644v-.236q0-.536.171-3.885.043-.945.043-1.846l-.064-2.555.043-2.9-.021-5.388.021-3.864a6.36,6.36,0,0,0-.376-2.984,3.19,3.19,0,0,0-2.052-.762,9.724,9.724,0,0,1-1.826-.333A.375.375,0,0,1-45.719,26a1.538,1.538,0,0,1,.064-.387,1.712,1.712,0,0,1,.988-.215q.107,0,.591-.054a8.288,8.288,0,0,1,.913-.054H-41.4l5.65-.064a21.826,21.826,0,0,1,6.714.709,6.186,6.186,0,0,1,3.062,2.4A6.588,6.588,0,0,1-24.836,32.1q0,3.953-4.141,6.037a10.827,10.827,0,0,0-1.116.645q.729,1.545,2.038,3.713l2.724,4.679a26.5,26.5,0,0,0,2.256,3.239A5.152,5.152,0,0,0-21.56,51.5a12.948,12.948,0,0,0,3,.818q.021.215.021.344a3.012,3.012,0,0,1-.021.322q-2.943.043-6.9.043-.279,0-.773-.043-1.525-2.927-3.588-6.434L-33,40.74a3.871,3.871,0,0,0-1.063-1.129,2.333,2.333,0,0,0-1.106-.226L-37,39.406l-.6-.021q-.064.687-.064,2.814v7.347a3.963,3.963,0,0,0,.172,1.139,1.371,1.371,0,0,0,.591.655,12.747,12.747,0,0,0,2.417.741l.881.215a.9.9,0,0,1,.172.58,5.24,5.24,0,0,1-.815.107q-1.93,0-2.723-.043-.408-.021-.665-.021l-2.917.043-2.852-.021q-.193,0-1.951.064l-.429-.086-.043-.215Q-45.826,52.512-45.527,52.254ZM-37.555,38.2q.58.021.859.021a20.363,20.363,0,0,0,3.566-.365,5.834,5.834,0,0,0,2.3-.911,4.756,4.756,0,0,0,1.472-1.877,5.932,5.932,0,0,0,.591-2.573,6.292,6.292,0,0,0-.924-3.088,5.4,5.4,0,0,0-2.4-2.08,9.032,9.032,0,0,0-4.05-.836q-.58,0-1.5.064-.086,1.115-.086,1.715l.107,4.01-.021,1.651Q-37.641,35.608-37.555,38.2Zm19.014-2.148h1.6l.706.043.557-.043q2.2,0,2.74.043l.021.408q0,3.029-.086,5.865-.064,1.676-.064,1.912a25.863,25.863,0,0,0,.248,4.727,2.5,2.5,0,0,0,1.163,1.515,4.1,4.1,0,0,0,2.207.569,7.139,7.139,0,0,0,3-.655A9.078,9.078,0,0,0-4,48.838a13.9,13.9,0,0,0,.107-1.8q0-3.2.065-4.318.021-.666.021-1.16,0-3.48-.344-3.932t-2.621-.687q-.752-.086-1.1-.15a.936.936,0,0,1-.172-.43l.064-.236a9.556,9.556,0,0,1,1.1-.064l3.416.043q1.826-.043,1.934-.043.236,0,.451.021l.043,1.568q-.15,3.266-.172,8.078l-.043,1.74.086,2.922a.939.939,0,0,0,.344.408A3.28,3.28,0,0,0,.236,50.9H.43q.279,0,1.59.129.021.279.021.408v.236A40.7,40.7,0,0,0-2.621,52.92a11.953,11.953,0,0,1-1.2.344q-.107-.752-.107-.924V50.6q0-.107-.021-.58-.279.193-.645.473a19.846,19.846,0,0,1-3.588,2.213,5.542,5.542,0,0,1-2.449.623,4.588,4.588,0,0,1-3.674-1.676q-1.439-1.676-1.439-5.715,0-.215.021-.773.086-1.031.086-1.439,0-.15-.021-.945-.021-.344-.021-.6,0-.193.021-.87t.021-.956q0-.365-.021-.645l-.043-1.139.021-.6a.8.8,0,0,0-.344-.623,17.455,17.455,0,0,0-1.772-.419,3.035,3.035,0,0,1-.741-.183ZM3.416,26.3v-.473q.6-.193,1.332-.408,1.08-.344,3.2-1.053H8.959V25.55q0,17.652-.107,21.049-.064,2-.064,2.129a8.954,8.954,0,0,0,.193,2.688q.258.387,1.579.538a5.461,5.461,0,0,1,1.558.3.308.308,0,0,1,.172.3.463.463,0,0,1-.1.333.5.5,0,0,1-.354.1q-.15,0-2.256-.074l-2.814-.1-3.609.172a.685.685,0,0,1-.516-.132.384.384,0,0,1-.129-.309.365.365,0,0,1,.14-.319A7.832,7.832,0,0,1,4.2,51.889a5.619,5.619,0,0,0,1.611-.4,1.082,1.082,0,0,0,.269-.72q.086-.773.086-4.361l-.021-4.941.064-5.113-.021-5.113.064-2.514a1.918,1.918,0,0,0-.236-1.085,2.362,2.362,0,0,0-1.01-.655Q3.846,26.516,3.416,26.3ZM29.391,41.576l-8.615.063-1.633,0q-.988,0-2.02.089a3.788,3.788,0,0,0-.193.881l.021.215v.215L16.93,44.09a8.383,8.383,0,0,0,.827,3.212,6.384,6.384,0,0,0,2.363,2.9,7.283,7.283,0,0,0,3.835,1.063,7.907,7.907,0,0,0,1.955-.3,9.9,9.9,0,0,0,2.063-1.1L29.52,48.6l.129.859a2.607,2.607,0,0,1-.021.322,9.437,9.437,0,0,1-2.449,2.148,11.668,11.668,0,0,1-3.008,1.354,10.49,10.49,0,0,1-2.406.193,7.7,7.7,0,0,1-3.008-.623,7.323,7.323,0,0,1-3.448-3.04,9.7,9.7,0,0,1-1.257-5.081,10.9,10.9,0,0,1,.354-2.428,12.766,12.766,0,0,1,1.278-3.158,6.188,6.188,0,0,1,1.525-1.869,10.09,10.09,0,0,1,2.256-1.439,8.408,8.408,0,0,1,3.244-.58,6.37,6.37,0,0,1,5.833,3.223,5.833,5.833,0,0,1,.849,2.793ZM17.4,40.8h1.01q1.1,0,6.531-.344A2.72,2.72,0,0,0,26,40.287a1.145,1.145,0,0,0,.387-.73,3.426,3.426,0,0,0-.43-1.515,2.961,2.961,0,0,0-1.321-1.311,4.446,4.446,0,0,0-2.073-.462,4.871,4.871,0,0,0-4,1.869A4.321,4.321,0,0,0,17.4,40.8Zm16.393,6.66A16.171,16.171,0,0,0,35,50.106a6.1,6.1,0,0,0,1.955,1.9,4.75,4.75,0,0,0,2.471.677,3.7,3.7,0,0,0,2.428-1.053,2.447,2.447,0,0,0,.859-1.848,3.887,3.887,0,0,0-1.01-2.578,9.723,9.723,0,0,0-3.835-2.224,8.963,8.963,0,0,1-3.792-2.267,4.269,4.269,0,0,1-.967-2.75,4.334,4.334,0,0,1,.795-2.578A4.87,4.87,0,0,1,36.094,35.7a6.876,6.876,0,0,1,2.578-.569,14.407,14.407,0,0,1,2.739.236,7,7,0,0,1,2.095.73q.172,1.1.279,3.223l.043.688q-.279.021-.473.021h-.3A6.167,6.167,0,0,0,41.089,37.2a4.231,4.231,0,0,0-2.61-1.042,2.839,2.839,0,0,0-2.084.784A2.754,2.754,0,0,0,35.6,39a2.566,2.566,0,0,0,.645,1.719,8.59,8.59,0,0,0,3.019,1.714,15.714,15.714,0,0,1,3.459,1.79,5.037,5.037,0,0,1,1.6,2.01,5.649,5.649,0,0,1,.516,2.258,4.506,4.506,0,0,1-.978,2.774,5.238,5.238,0,0,1-2.449,1.817,7.92,7.92,0,0,1-2.632.527,12.363,12.363,0,0,1-5.027-1.01.843.843,0,0,1-.236-.645q0-.193-.043-.623-.344-2.9-.344-3.437a.428.428,0,0,1,.107-.344A1.087,1.087,0,0,1,33.795,47.463Z" transform="translate(980.375 725.078)"/>
  </g>
</svg>
