<svg xmlns="http://www.w3.org/2000/svg" width="150" height="254.751" viewBox="0 0 150 254.751">
  <g id="Group_5" data-name="Group 5" transform="translate(-1087 -523)">
    <path id="rect1655" fill="current" d="M25.807,35.476v150h150v-150Zm72.848,8.451q4.081,0,4.081,4.08t4.08,4.081c2.267,0,4.081,1.36,4.081,3.061s-1.814,3.06-4.081,3.06c-6.187,0-5.459,10.678,1.18,17.318l5.261,5.261,6.712-4.148c17.35-10.723,41.853,1.583,45.287,22.745,1.593,9.819-5.948,26.248-17.459,38.032l-8.611,8.816,2.178,10.158c4.248,19.806,8.228,18.118-42.709,18.118-42.432,0-44.888-.208-44.888-3.8a112.14,112.14,0,0,1,1.934-14l1.934-10.2-8.876-9.531C26.936,113.54,26.517,91.448,47.625,77.082c8.813-6,21.962-6.158,29.335-.358l5.381,4.232,6-4.742c7.49-5.917,8.933-18,2.149-18-2.267,0-4.08-1.36-4.08-3.06s1.813-3.061,4.08-3.061q4.081,0,4.081-4.081t4.081-4.08Z" transform="translate(1061.193 487.524)"/>
    <path id="text1672" fill="current" d="M-40.981-26.3a22.015,22.015,0,0,1,.258,3.395q0,.344-.021.924a2.373,2.373,0,0,1-.451.064,2.2,2.2,0,0,1-.365-.043A7.538,7.538,0,0,0-44.5-25.824a8.939,8.939,0,0,0-5.049-1.354,8.569,8.569,0,0,0-2.686.365,11.212,11.212,0,0,0-3.395,1.837A11,11,0,0,0-58.1-22.183a13.957,13.957,0,0,0-1.6,3.932,18.953,18.953,0,0,0-.591,4.716A18.009,18.009,0,0,0-58.9-5.94a8.811,8.811,0,0,0,3.824,4.275,10.418,10.418,0,0,0,4.9,1.278l1.01-.021a16.064,16.064,0,0,0,2.342-.408A10.94,10.94,0,0,0-44.236-1.88a8.544,8.544,0,0,0,2-1.729,10.849,10.849,0,0,0,1.665-2.6l.258-.086a.732.732,0,0,1,.322.129q-.021.516-.043.666-.9,3.631-1.311,4.963-.344.086-.859.258A21.371,21.371,0,0,1-48.931.58,20.7,20.7,0,0,1-54.012.118a20.991,20.991,0,0,1-3.674-1.439A11.95,11.95,0,0,1-61.177-3.91,12.135,12.135,0,0,1-63.6-7.981a15.129,15.129,0,0,1-.924-5.36,14.313,14.313,0,0,1,.73-4.8A16.67,16.67,0,0,1-61.542-22.3a14.272,14.272,0,0,1,3.6-3.5,13.6,13.6,0,0,1,4.608-1.977,25.241,25.241,0,0,1,5.049-.387,15.5,15.5,0,0,1,4.49.634A8.563,8.563,0,0,1-40.981-26.3Zm4.061,17.66a9.081,9.081,0,0,1,.612-3.126,8.684,8.684,0,0,1,1.858-2.986,8.635,8.635,0,0,1,2.643-1.966,11.337,11.337,0,0,1,4.77-.9,9.021,9.021,0,0,1,6.714,2.75,9.112,9.112,0,0,1,2.7,6.617,8.277,8.277,0,0,1-2.825,6.134A9.932,9.932,0,0,1-27.6.58a9.723,9.723,0,0,1-5.027-1.4,9.037,9.037,0,0,1-3.029-3.115A8.8,8.8,0,0,1-36.921-8.637Zm9.507,8.379a6.2,6.2,0,0,0,3.153-.881A6.106,6.106,0,0,0-21.84-3.964a10.572,10.572,0,0,0,.9-4.5,13.142,13.142,0,0,0-.7-3.889,6.469,6.469,0,0,0-2.152-3.319A5.47,5.47,0,0,0-27.2-16.779a7,7,0,0,0-2.895.666,5.531,5.531,0,0,0-2.5,2.557,11.473,11.473,0,0,0-1.022,5.371q0,3.91,1.775,5.919A5.662,5.662,0,0,0-27.414-.258Zm12.085-16.607h1.6l.706.043.557-.043q2.2,0,2.74.043l.021.408q0,3.029-.086,5.865-.064,1.676-.064,1.912A25.863,25.863,0,0,0-9.6-3.91,2.5,2.5,0,0,0-8.44-2.4a4.1,4.1,0,0,0,2.207.569,7.139,7.139,0,0,0,3-.655,9.078,9.078,0,0,0,2.444-1.6,13.9,13.9,0,0,0,.107-1.8q0-3.2.065-4.318.021-.666.021-1.16,0-3.48-.344-3.932t-2.621-.687q-.752-.086-1.1-.15a.936.936,0,0,1-.172-.43l.064-.236a9.556,9.556,0,0,1,1.1-.064l3.416.043q1.826-.043,1.934-.043.236,0,.451.021l.043,1.568Q2.03-12.01,2.009-7.2l-.043,1.74.086,2.922a.939.939,0,0,0,.344.408,3.28,3.28,0,0,0,1.053.107h.193q.279,0,1.59.129.021.279.021.408v.236A40.7,40.7,0,0,0,.591,0a11.953,11.953,0,0,1-1.2.344Q-.72-.408-.72-.58V-2.32q0-.107-.021-.58-.279.193-.645.473A19.846,19.846,0,0,1-4.974-.215,5.542,5.542,0,0,1-7.423.408,4.588,4.588,0,0,1-11.1-1.268q-1.439-1.676-1.439-5.715,0-.215.021-.773.086-1.031.086-1.439,0-.15-.021-.945-.021-.344-.021-.6,0-.193.021-.87t.021-.956q0-.365-.021-.645l-.043-1.139.021-.6a.8.8,0,0,0-.344-.623A17.454,17.454,0,0,0-14.588-16a3.035,3.035,0,0,1-.741-.183ZM6.327-.709A10.465,10.465,0,0,1,7.573-.966,3.708,3.708,0,0,0,9.2-1.416a1.733,1.733,0,0,0,.269-1.178l.043-.771q.021-.428.021-1.092L9.485-11.03a2.82,2.82,0,0,0-.344-1.713,3.791,3.791,0,0,0-2.148-.835v-.784A6.49,6.49,0,0,0,9.4-15.483a7.723,7.723,0,0,0,2.063-2.628l.73.021q.064,1.013.064,1.444v1.423l.021.388q.258-.173.6-.431a14.074,14.074,0,0,1,2.643-1.585,12.7,12.7,0,0,1,2.406-.851,6.007,6.007,0,0,1,1.5-.173,4.92,4.92,0,0,1,3.029.946A4.289,4.289,0,0,1,24.105-14.7a21.879,21.879,0,0,1,.376,5.087v3.248q0,.129-.032.86t-.032,1.678a8.4,8.4,0,0,0,.129,1.914,1.288,1.288,0,0,0,.559.56,5.04,5.04,0,0,1,2.406.667v.172a1.512,1.512,0,0,1-.129.537h-.408L24.138-.021,21.345.043Q19.8.086,18.487.021L18.358-.43a.672.672,0,0,1,.15-.344,5.183,5.183,0,0,1,1.633-.344A3.625,3.625,0,0,0,21-1.247a2.4,2.4,0,0,0,.58-.344,2.031,2.031,0,0,0,.258-.86q0-.151-.043-.6-.064-.99-.086-4.927V-9.1l.043-1.721q0-2.776-1.117-3.83a4.173,4.173,0,0,0-2.986-1.054,6.658,6.658,0,0,0-2.814.634,9.518,9.518,0,0,0-2.664,1.9q-.043,1.031-.043,1.762l.064,4.748q0,3.717.107,4.555a.955.955,0,0,0,.15.473,1.424,1.424,0,0,0,.688.279q.516.107,1.192.3t.892.236a.808.808,0,0,1,.58.43l-.021.43H13.524L8.884-.021Q7.272,0,6.843,0H6.306L6.263-.279A2.069,2.069,0,0,1,6.327-.709Zm38.8-3.223.021,1.4A10.345,10.345,0,0,1,41.841-.043,9.6,9.6,0,0,1,38,.666a7.791,7.791,0,0,1-4.34-1.257A8.112,8.112,0,0,1,30.68-4.146a10.877,10.877,0,0,1-1.042-4.512,8.974,8.974,0,0,1,1.257-4.587,8.09,8.09,0,0,1,3.33-3.223,11.358,11.358,0,0,1,5.21-1.063A8.359,8.359,0,0,1,44.011-16.5a1.808,1.808,0,0,1,.881,1.547,1.544,1.544,0,0,1-.451,1.139,1.57,1.57,0,0,1-1.16.451A3.542,3.542,0,0,1,40.917-14.7a5.452,5.452,0,0,0-1.439-1.128,3.265,3.265,0,0,0-1.439-.312,3.926,3.926,0,0,0-3.18,1.568A8.777,8.777,0,0,0,33.1-8.959a8.12,8.12,0,0,0,1.8,5.543,5.45,5.45,0,0,0,4.211,2.063A7.6,7.6,0,0,0,42.088-1.9,12.431,12.431,0,0,0,45.128-3.932ZM49.339-26.4a1.626,1.626,0,0,1,.548-1.225,1.859,1.859,0,0,1,1.321-.516,1.951,1.951,0,0,1,1.4.58,1.719,1.719,0,0,1,.6,1.246,1.753,1.753,0,0,1-.6,1.257,1.933,1.933,0,0,1-1.4.591,1.809,1.809,0,0,1-1.332-.537A1.889,1.889,0,0,1,49.339-26.4Zm-1.8,11.15.021-.634q1.4-.41,1.5-.474a7.036,7.036,0,0,0,1.622-1.056,7.317,7.317,0,0,0,1.429-1.6,2.63,2.63,0,0,1,.408-.043l.258.021q.086,1.031.086,1.5,0,.107-.043.967v1.139l.021,6.188-.064,6.553a1.606,1.606,0,0,0,.258,1.106,4.193,4.193,0,0,0,1.654.7,13.061,13.061,0,0,1,1.289.408.676.676,0,0,1,.064.258.7.7,0,0,1-.107.322Q55.1.086,53.786,0,52-.15,51.423-.15q-.279,0-3.437.107a11.524,11.524,0,0,0-1.246.107A1.489,1.489,0,0,1,46.4,0a.473.473,0,0,1-.107-.258q0-.3.408-.473.086-.043,2.191-.493a1.4,1.4,0,0,0,.9-.429,2.278,2.278,0,0,0,.365-1.437q.043-1.652.043-9.053a7.583,7.583,0,0,0-.129-1.845,1.63,1.63,0,0,0-.569-.59A6.244,6.244,0,0,0,47.534-15.254Zm9.947-11.365v-.473q.6-.193,1.332-.408,1.08-.344,3.2-1.053h1.015v1.183q0,17.652-.107,21.049-.064,2-.064,2.129A8.954,8.954,0,0,0,63.046-1.5q.258.387,1.579.538a5.461,5.461,0,0,1,1.558.3.308.308,0,0,1,.172.3.463.463,0,0,1-.1.333.5.5,0,0,1-.354.1q-.15,0-2.256-.074l-2.814-.1L57.224.064a.685.685,0,0,1-.516-.132.384.384,0,0,1-.129-.309.365.365,0,0,1,.14-.319,7.833,7.833,0,0,1,1.547-.336,5.619,5.619,0,0,0,1.611-.4,1.082,1.082,0,0,0,.269-.72q.086-.773.086-4.361l-.021-4.941.064-5.113-.021-5.113.064-2.514a1.918,1.918,0,0,0-.236-1.085,2.362,2.362,0,0,0-1.01-.655Q57.911-26.4,57.481-26.619ZM-45.527,52.254A30.177,30.177,0,0,0-42,51.739a1.126,1.126,0,0,0,.513-.644v-.236q0-.536.171-3.885.043-.945.043-1.846l-.064-2.555.043-2.9-.021-5.388.021-3.864a6.36,6.36,0,0,0-.376-2.984,3.19,3.19,0,0,0-2.052-.762,9.724,9.724,0,0,1-1.826-.333A.375.375,0,0,1-45.719,26a1.538,1.538,0,0,1,.064-.387,1.712,1.712,0,0,1,.988-.215q.107,0,.591-.054a8.288,8.288,0,0,1,.913-.054H-41.4l5.65-.064a21.826,21.826,0,0,1,6.714.709,6.186,6.186,0,0,1,3.062,2.4A6.588,6.588,0,0,1-24.836,32.1q0,3.953-4.141,6.037a10.827,10.827,0,0,0-1.116.645q.729,1.545,2.038,3.713l2.724,4.679a26.5,26.5,0,0,0,2.256,3.239A5.152,5.152,0,0,0-21.56,51.5a12.948,12.948,0,0,0,3,.818q.021.215.021.344a3.012,3.012,0,0,1-.021.322q-2.943.043-6.9.043-.279,0-.773-.043-1.525-2.927-3.588-6.434L-33,40.74a3.871,3.871,0,0,0-1.063-1.129,2.333,2.333,0,0,0-1.106-.226L-37,39.406l-.6-.021q-.064.687-.064,2.814v7.347a3.963,3.963,0,0,0,.172,1.139,1.371,1.371,0,0,0,.591.655,12.747,12.747,0,0,0,2.417.741l.881.215a.9.9,0,0,1,.172.58,5.24,5.24,0,0,1-.815.107q-1.93,0-2.723-.043-.408-.021-.665-.021l-2.917.043-2.852-.021q-.193,0-1.951.064l-.429-.086-.043-.215Q-45.826,52.512-45.527,52.254ZM-37.555,38.2q.58.021.859.021a20.363,20.363,0,0,0,3.566-.365,5.834,5.834,0,0,0,2.3-.911,4.756,4.756,0,0,0,1.472-1.877,5.932,5.932,0,0,0,.591-2.573,6.292,6.292,0,0,0-.924-3.088,5.4,5.4,0,0,0-2.4-2.08,9.032,9.032,0,0,0-4.05-.836q-.58,0-1.5.064-.086,1.115-.086,1.715l.107,4.01-.021,1.651Q-37.641,35.608-37.555,38.2Zm19.014-2.148h1.6l.706.043.557-.043q2.2,0,2.74.043l.021.408q0,3.029-.086,5.865-.064,1.676-.064,1.912a25.863,25.863,0,0,0,.248,4.727,2.5,2.5,0,0,0,1.163,1.515,4.1,4.1,0,0,0,2.207.569,7.139,7.139,0,0,0,3-.655A9.078,9.078,0,0,0-4,48.838a13.9,13.9,0,0,0,.107-1.8q0-3.2.065-4.318.021-.666.021-1.16,0-3.48-.344-3.932t-2.621-.687q-.752-.086-1.1-.15a.936.936,0,0,1-.172-.43l.064-.236a9.556,9.556,0,0,1,1.1-.064l3.416.043q1.826-.043,1.934-.043.236,0,.451.021l.043,1.568q-.15,3.266-.172,8.078l-.043,1.74.086,2.922a.939.939,0,0,0,.344.408A3.28,3.28,0,0,0,.236,50.9H.43q.279,0,1.59.129.021.279.021.408v.236A40.7,40.7,0,0,0-2.621,52.92a11.953,11.953,0,0,1-1.2.344q-.107-.752-.107-.924V50.6q0-.107-.021-.58-.279.193-.645.473a19.846,19.846,0,0,1-3.588,2.213,5.542,5.542,0,0,1-2.449.623,4.588,4.588,0,0,1-3.674-1.676q-1.439-1.676-1.439-5.715,0-.215.021-.773.086-1.031.086-1.439,0-.15-.021-.945-.021-.344-.021-.6,0-.193.021-.87t.021-.956q0-.365-.021-.645l-.043-1.139.021-.6a.8.8,0,0,0-.344-.623,17.455,17.455,0,0,0-1.772-.419,3.035,3.035,0,0,1-.741-.183ZM3.416,26.3v-.473q.6-.193,1.332-.408,1.08-.344,3.2-1.053H8.959V25.55q0,17.652-.107,21.049-.064,2-.064,2.129a8.954,8.954,0,0,0,.193,2.688q.258.387,1.579.538a5.461,5.461,0,0,1,1.558.3.308.308,0,0,1,.172.3.463.463,0,0,1-.1.333.5.5,0,0,1-.354.1q-.15,0-2.256-.074l-2.814-.1-3.609.172a.685.685,0,0,1-.516-.132.384.384,0,0,1-.129-.309.365.365,0,0,1,.14-.319A7.832,7.832,0,0,1,4.2,51.889a5.619,5.619,0,0,0,1.611-.4,1.082,1.082,0,0,0,.269-.72q.086-.773.086-4.361l-.021-4.941.064-5.113-.021-5.113.064-2.514a1.918,1.918,0,0,0-.236-1.085,2.362,2.362,0,0,0-1.01-.655Q3.846,26.516,3.416,26.3ZM29.391,41.576l-8.615.063-1.633,0q-.988,0-2.02.089a3.788,3.788,0,0,0-.193.881l.021.215v.215L16.93,44.09a8.383,8.383,0,0,0,.827,3.212,6.384,6.384,0,0,0,2.363,2.9,7.283,7.283,0,0,0,3.835,1.063,7.907,7.907,0,0,0,1.955-.3,9.9,9.9,0,0,0,2.063-1.1L29.52,48.6l.129.859a2.607,2.607,0,0,1-.021.322,9.437,9.437,0,0,1-2.449,2.148,11.668,11.668,0,0,1-3.008,1.354,10.49,10.49,0,0,1-2.406.193,7.7,7.7,0,0,1-3.008-.623,7.323,7.323,0,0,1-3.448-3.04,9.7,9.7,0,0,1-1.257-5.081,10.9,10.9,0,0,1,.354-2.428,12.766,12.766,0,0,1,1.278-3.158,6.188,6.188,0,0,1,1.525-1.869,10.09,10.09,0,0,1,2.256-1.439,8.408,8.408,0,0,1,3.244-.58,6.37,6.37,0,0,1,5.833,3.223,5.833,5.833,0,0,1,.849,2.793ZM17.4,40.8h1.01q1.1,0,6.531-.344A2.72,2.72,0,0,0,26,40.287a1.145,1.145,0,0,0,.387-.73,3.426,3.426,0,0,0-.43-1.515,2.961,2.961,0,0,0-1.321-1.311,4.446,4.446,0,0,0-2.073-.462,4.871,4.871,0,0,0-4,1.869A4.321,4.321,0,0,0,17.4,40.8Zm16.393,6.66A16.171,16.171,0,0,0,35,50.106a6.1,6.1,0,0,0,1.955,1.9,4.75,4.75,0,0,0,2.471.677,3.7,3.7,0,0,0,2.428-1.053,2.447,2.447,0,0,0,.859-1.848,3.887,3.887,0,0,0-1.01-2.578,9.723,9.723,0,0,0-3.835-2.224,8.963,8.963,0,0,1-3.792-2.267,4.269,4.269,0,0,1-.967-2.75,4.334,4.334,0,0,1,.795-2.578A4.87,4.87,0,0,1,36.094,35.7a6.876,6.876,0,0,1,2.578-.569,14.407,14.407,0,0,1,2.739.236,7,7,0,0,1,2.095.73q.172,1.1.279,3.223l.043.688q-.279.021-.473.021h-.3A6.167,6.167,0,0,0,41.089,37.2a4.231,4.231,0,0,0-2.61-1.042,2.839,2.839,0,0,0-2.084.784A2.754,2.754,0,0,0,35.6,39a2.566,2.566,0,0,0,.645,1.719,8.59,8.59,0,0,0,3.019,1.714,15.714,15.714,0,0,1,3.459,1.79,5.037,5.037,0,0,1,1.6,2.01,5.649,5.649,0,0,1,.516,2.258,4.506,4.506,0,0,1-.978,2.774,5.238,5.238,0,0,1-2.449,1.817,7.92,7.92,0,0,1-2.632.527,12.363,12.363,0,0,1-5.027-1.01.843.843,0,0,1-.236-.645q0-.193-.043-.623-.344-2.9-.344-3.437a.428.428,0,0,1,.107-.344A1.087,1.087,0,0,1,33.795,47.463Z" transform="translate(1161.886 724.144)"/>
  </g>
</svg>
