<svg xmlns="http://www.w3.org/2000/svg" width="150" height="253.067" viewBox="0 0 150 253.067">
  <g id="Group_3" data-name="Group 3" transform="translate(-713 -525)">
    <path id="rect3289" fill="current" d="M27.877,26.519v150h150v-150ZM81.818,38.547c6.855,0,13.131,14.187,7.78,17.584-1.879,1.193,11.668,32.17,14.069,32.17s15.948-30.977,14.069-32.17c-5.7-3.616,1.041-17.584,8.481-17.584,7.65,0,12.724,13.533,6.927,18.475-2.393,2.041-2.246,5.061.99,20.274,2.092,9.832,4.245,18.331,4.785,18.886s4.166-1.225,8.058-3.954c4.86-3.409,6.735-6.075,5.988-8.513a9.355,9.355,0,0,1,8.893-12c12.063,0,14.5,12.177,3.748,18.7-12.329,7.473-22.735,34.029-20.982,53.547.579,6.444,1.7,13.815,2.482,16.38L148.533,165H58.8l1.429-4.664c2.945-9.613,3.478-28.236,1.032-36.059C55.716,106.556,49.03,94.839,42.043,90.6c-11.052-6.7-8.837-18.888,3.432-18.888a9.355,9.355,0,0,1,8.893,12c-.747,2.438,1.128,5.1,5.988,8.513,3.892,2.73,7.518,4.509,8.058,3.954S71.107,87.128,73.2,77.3c3.236-15.214,3.384-18.234.99-20.274-6.1-5.2-.622-18.475,7.628-18.475Z" transform="translate(685.123 498.481)"/>
    <path id="text3295" fill="current" d="M-29.53-26.3a22.015,22.015,0,0,1,.258,3.395q0,.344-.021.924a2.374,2.374,0,0,1-.451.064,2.2,2.2,0,0,1-.365-.043,7.538,7.538,0,0,0-2.943-3.867A8.939,8.939,0,0,0-38.1-27.178a8.569,8.569,0,0,0-2.686.365,11.212,11.212,0,0,0-3.395,1.837,11,11,0,0,0-2.471,2.793,13.957,13.957,0,0,0-1.6,3.932,18.953,18.953,0,0,0-.591,4.716,18.009,18.009,0,0,0,1.4,7.595,8.811,8.811,0,0,0,3.824,4.275,10.418,10.418,0,0,0,4.9,1.278l1.01-.021a16.064,16.064,0,0,0,2.342-.408A10.94,10.94,0,0,0-32.785-1.88a8.544,8.544,0,0,0,2-1.729,10.849,10.849,0,0,0,1.665-2.6l.258-.086a.732.732,0,0,1,.322.129q-.021.516-.043.666-.9,3.631-1.311,4.963-.344.086-.859.258A21.371,21.371,0,0,1-37.479.58,20.7,20.7,0,0,1-42.561.118a20.991,20.991,0,0,1-3.674-1.439A11.95,11.95,0,0,1-49.726-3.91a12.135,12.135,0,0,1-2.428-4.071,15.129,15.129,0,0,1-.924-5.36,14.313,14.313,0,0,1,.73-4.8A16.67,16.67,0,0,1-50.091-22.3a14.272,14.272,0,0,1,3.6-3.5,13.6,13.6,0,0,1,4.608-1.977,25.241,25.241,0,0,1,5.049-.387,15.5,15.5,0,0,1,4.49.634A8.563,8.563,0,0,1-29.53-26.3ZM-26.157.064l-.086-.279a.985.985,0,0,1,.193-.451l1.268-.257L-23-1.245a.614.614,0,0,0,.3-.3A5.772,5.772,0,0,0-22.569-3.2q0-7.293-.086-8.419a2.477,2.477,0,0,0-.387-1.426,3.1,3.1,0,0,0-1.547-.472,5.311,5.311,0,0,1-1.16-.279l.086-.655a12.2,12.2,0,0,0,3.029-1.594,8.042,8.042,0,0,0,1.826-2.542l.73.021q.129,1.074.129,4.77l-.021.365a3.015,3.015,0,0,0,.043.408,12.451,12.451,0,0,1,2.041-2.729l.494-.494a3.258,3.258,0,0,1,.58-.537,5.128,5.128,0,0,1,2.234-.9,2.038,2.038,0,0,1,1.547.634,2.177,2.177,0,0,1,.6,1.558,1.5,1.5,0,0,1-.43,1.139,1.9,1.9,0,0,1-1.332.537,5.132,5.132,0,0,1-1.354-.365,5.2,5.2,0,0,0-1.332-.365,1.358,1.358,0,0,0-.838.193,7.3,7.3,0,0,0-1.461,1.934,3.951,3.951,0,0,0-.666,2.02l.107,3.553.043,4.264a3.234,3.234,0,0,0,.172.947,1.3,1.3,0,0,0,.43.366q2.32.194,2.75.28.3.021.451.043A2.635,2.635,0,0,1-14.6-.687a.347.347,0,0,1,.193.322.631.631,0,0,1-.172.344l-2.385-.043-.9-.021-1.311.021h-2.191L-22.548,0ZM4.651-11.344l-8.615.063-1.633,0q-.988,0-2.02.089a3.788,3.788,0,0,0-.193.881l.021.215v.215L-7.81-8.83a8.383,8.383,0,0,0,.827,3.212,6.384,6.384,0,0,0,2.363,2.9A7.283,7.283,0,0,0-.784-1.654a7.907,7.907,0,0,0,1.955-.3,9.9,9.9,0,0,0,2.063-1.1L4.78-4.318l.129.859a2.607,2.607,0,0,1-.021.322A9.437,9.437,0,0,1,2.438-.988,11.668,11.668,0,0,1-.569.365,10.49,10.49,0,0,1-2.976.559,7.7,7.7,0,0,1-5.983-.064,7.323,7.323,0,0,1-9.432-3.1a9.7,9.7,0,0,1-1.257-5.081,10.9,10.9,0,0,1,.354-2.428,12.766,12.766,0,0,1,1.278-3.158A6.188,6.188,0,0,1-7.53-15.641,10.09,10.09,0,0,1-5.274-17.08a8.408,8.408,0,0,1,3.244-.58,6.485,6.485,0,0,1,3.266.73A6.477,6.477,0,0,1,3.8-14.437a5.833,5.833,0,0,1,.849,2.793Zm-11.988-.773h1.01q1.1,0,6.531-.344a2.72,2.72,0,0,0,1.053-.172,1.145,1.145,0,0,0,.387-.73,3.426,3.426,0,0,0-.43-1.515A2.961,2.961,0,0,0-.107-16.188a4.446,4.446,0,0,0-2.073-.462,4.871,4.871,0,0,0-4,1.869A4.321,4.321,0,0,0-7.337-12.117Zm30.766,9.2a1.137,1.137,0,0,1,.129.408,2.77,2.77,0,0,1-.516,1.139A4.625,4.625,0,0,1,21.56.193a2.665,2.665,0,0,1-1.418.322,2.822,2.822,0,0,1-2.32-.945,4.024,4.024,0,0,1-.666-2L14.749-.752a9.889,9.889,0,0,1-1.934.924,10.359,10.359,0,0,1-2.578.279A2.294,2.294,0,0,1,8.508-.2a2.325,2.325,0,0,1-.634-1.687,5.875,5.875,0,0,1,1.82-3.545,13.337,13.337,0,0,1,4.942-3.373q2.2-.924,2.692-1.182.043-.709.043-1.547a6.308,6.308,0,0,0-.765-3.7,2.626,2.626,0,0,0-2.187-.967,4.1,4.1,0,0,0-2.78,1.16,5.13,5.13,0,0,0-1.207,2.75,4.553,4.553,0,0,1-.494,1.2,3.007,3.007,0,0,1-1.482.6,1.434,1.434,0,0,1-.859-.279.423.423,0,0,1-.215-.344,7.409,7.409,0,0,1,1.192-2.524,7.89,7.89,0,0,1,3.008-2.943,6.91,6.91,0,0,1,3.169-.978,8.468,8.468,0,0,1,2.75.333,3.714,3.714,0,0,1,1.59,1.171,3.731,3.731,0,0,1,.838,1.826,33.579,33.579,0,0,1,.086,3.373l-.064,3.416.021,2.492q0,.494-.021.838-.021.623-.021.924a1.585,1.585,0,0,0,.408,1.139,1.29,1.29,0,0,0,.967.43,1.685,1.685,0,0,0,1.4-.816l.258-.344A2,2,0,0,1,23.429-2.922Zm-6.3-.623q.151-2.729.151-3.846,0-.58-.064-1.568a14.808,14.808,0,0,0-3.061,1.568,9.072,9.072,0,0,0-2.565,2.428,3.308,3.308,0,0,0-.69,1.869,1.873,1.873,0,0,0,.571,1.4,1.968,1.968,0,0,0,1.433.559,3.778,3.778,0,0,0,1.617-.473A10.8,10.8,0,0,0,17.133-3.545ZM29.981-21.227l.666.021.086,2.041-.043,2.643q.408.021.516.021.559,0,2.127-.086,1.01-.064,1.934-.064.43,0,1.289.021.043.43.043.688a4.734,4.734,0,0,1-.129.881H36.1l-3.33.107-1.654.043-.387.043a4.094,4.094,0,0,0-.172,1.246l.064,3.223-.043,5.672a5.166,5.166,0,0,0,.58,2.965,1.954,1.954,0,0,0,1.676.752,11.929,11.929,0,0,0,2.105-.344,3.762,3.762,0,0,0,1.268-.709h.193a.421.421,0,0,1,.312.118.421.421,0,0,1,.118.312l-.021.15A5.582,5.582,0,0,1,34.7-.011a8.956,8.956,0,0,1-3.169.462,3.91,3.91,0,0,1-2.31-.645,2.861,2.861,0,0,1-1.171-1.525,17.445,17.445,0,0,1-.258-3.846l.086-4.834-.021-2.32v-.859q0-.6-.043-1.2l-.365-.021-1.762.064-.172.021a.512.512,0,0,1-.354-.107.336.336,0,0,1-.118-.258A.567.567,0,0,1,25.2-15.5a3.992,3.992,0,0,1,.978-.5,5.083,5.083,0,0,0,1.3-.892,7.062,7.062,0,0,0,1.257-1.45,12.72,12.72,0,0,0,.73-1.633Q29.81-20.861,29.981-21.227Zm23.7,9.883-8.615.063-1.633,0q-.988,0-2.02.089a3.788,3.788,0,0,0-.193.881l.021.215v.215L41.218-8.83a8.383,8.383,0,0,0,.827,3.212,6.384,6.384,0,0,0,2.363,2.9,7.283,7.283,0,0,0,3.835,1.063,7.907,7.907,0,0,0,1.955-.3,9.9,9.9,0,0,0,2.063-1.1l1.547-1.268.129.859a2.606,2.606,0,0,1-.021.322A9.437,9.437,0,0,1,51.466-.988,11.668,11.668,0,0,1,48.458.365a10.49,10.49,0,0,1-2.406.193,7.7,7.7,0,0,1-3.008-.623A7.323,7.323,0,0,1,39.6-3.1a9.7,9.7,0,0,1-1.257-5.081,10.9,10.9,0,0,1,.354-2.428,12.766,12.766,0,0,1,1.278-3.158A6.188,6.188,0,0,1,41.5-15.641a10.09,10.09,0,0,1,2.256-1.439A8.408,8.408,0,0,1,47-17.66a6.485,6.485,0,0,1,3.266.73,6.477,6.477,0,0,1,2.567,2.492,5.833,5.833,0,0,1,.849,2.793ZM41.69-12.117H42.7q1.1,0,6.531-.344a2.72,2.72,0,0,0,1.053-.172,1.145,1.145,0,0,0,.387-.73,3.426,3.426,0,0,0-.43-1.515,2.961,2.961,0,0,0-1.321-1.311,4.446,4.446,0,0,0-2.073-.462,4.871,4.871,0,0,0-4,1.869A4.321,4.321,0,0,0,41.69-12.117ZM-43.957,25.506a4.106,4.106,0,0,1,.494-.064q.73,0,2.406.086.881.021,1.2.021.473,0,2-.086l3.652-.215q1.439-.129,3.352-.129a12.6,12.6,0,0,1,5.371.955A6.708,6.708,0,0,1-22.4,29.067a8.571,8.571,0,0,1,1.085,4.055,8.082,8.082,0,0,1-2.363,5.814,8.432,8.432,0,0,1-6.359,2.446,6.6,6.6,0,0,1-1.869-.226,6.675,6.675,0,0,1-1.719-.87,1.135,1.135,0,0,1-.494-.58.49.49,0,0,1,.236-.215,1.674,1.674,0,0,1,.623.129,5.626,5.626,0,0,0,1.848.258,6.545,6.545,0,0,0,3.212-.837,5.448,5.448,0,0,0,2.288-2.381,7.186,7.186,0,0,0,.773-3.26,7,7,0,0,0-.815-3.25A6.923,6.923,0,0,0-28.1,27.631a6.7,6.7,0,0,0-2.3-.9,11.369,11.369,0,0,0-2.412-.365q-2.659,0-3.152.386l-.021.3.064,2.426-.021.429q-.043.58-.043,1.782,0,4.379.129,5.452v1.2l.279,9.81q0,.215-.054.794t-.054,1.009a5.436,5.436,0,0,0,.172,1.567q.516.15,3.008.708,1.16.279,1.268.322a.617.617,0,0,1,.3.279.73.73,0,0,1-.226.419,1.056,1.056,0,0,1-.548.1q-.258,0-1.2-.107-1.848-.193-2.9-.193l-3.781.15-2.256-.064q-.215,0-1.246.043l-.021-.559,2.793-.537a1.79,1.79,0,0,0,.838-.386,2.216,2.216,0,0,0,.215-1.181q0-.193.021-.837.021-.451.021-1.245,0-2.533-.215-10.8-.086-3.864-.086-7.857v-.365q0-1.546-.473-1.953-.795-.708-3.975-1.159a.992.992,0,0,1-.107-.387A.886.886,0,0,1-43.957,25.506Zm26.855,1.01a1.626,1.626,0,0,1,.548-1.225,1.859,1.859,0,0,1,1.321-.516,1.951,1.951,0,0,1,1.4.58,1.719,1.719,0,0,1,.6,1.246,1.753,1.753,0,0,1-.6,1.257,1.933,1.933,0,0,1-1.4.591,1.809,1.809,0,0,1-1.332-.537A1.889,1.889,0,0,1-17.1,26.516Zm-1.8,11.15.021-.634q1.4-.41,1.5-.474A7.036,7.036,0,0,0-15.759,35.5a7.317,7.317,0,0,0,1.429-1.6,2.63,2.63,0,0,1,.408-.043l.258.021q.086,1.031.086,1.5,0,.107-.043.967v1.139l.021,6.188-.064,6.553a1.606,1.606,0,0,0,.258,1.106,4.193,4.193,0,0,0,1.654.7,13.061,13.061,0,0,1,1.289.408.676.676,0,0,1,.064.258.7.7,0,0,1-.107.322q-.838-.021-2.148-.107-1.783-.15-2.363-.15-.279,0-3.437.107a11.524,11.524,0,0,0-1.246.107,1.489,1.489,0,0,1-.344-.064.473.473,0,0,1-.107-.258q0-.3.408-.473.086-.043,2.191-.493a1.4,1.4,0,0,0,.9-.429,2.278,2.278,0,0,0,.365-1.437q.043-1.652.043-9.053a7.583,7.583,0,0,0-.129-1.845,1.63,1.63,0,0,0-.569-.59A6.244,6.244,0,0,0-18.906,37.666Zm25.846,3.91-8.615.063-1.633,0q-.988,0-2.02.089a3.788,3.788,0,0,0-.193.881l.021.215v.215l-.021,1.053A8.383,8.383,0,0,0-4.694,47.3a6.384,6.384,0,0,0,2.363,2.9A7.283,7.283,0,0,0,1.5,51.266a7.907,7.907,0,0,0,1.955-.3,9.9,9.9,0,0,0,2.063-1.1L7.068,48.6l.129.859a2.607,2.607,0,0,1-.021.322,9.437,9.437,0,0,1-2.449,2.148,11.668,11.668,0,0,1-3.008,1.354,10.49,10.49,0,0,1-2.406.193A7.7,7.7,0,0,1-3.7,52.856a7.323,7.323,0,0,1-3.448-3.04A9.7,9.7,0,0,1-8.4,44.734a10.9,10.9,0,0,1,.354-2.428,12.766,12.766,0,0,1,1.278-3.158,6.188,6.188,0,0,1,1.525-1.869A10.09,10.09,0,0,1-2.986,35.84a8.408,8.408,0,0,1,3.244-.58,6.485,6.485,0,0,1,3.266.73,6.477,6.477,0,0,1,2.567,2.492,5.833,5.833,0,0,1,.849,2.793ZM-5.049,40.8h1.01q1.1,0,6.531-.344a2.72,2.72,0,0,0,1.053-.172,1.145,1.145,0,0,0,.387-.73,3.426,3.426,0,0,0-.43-1.515,2.961,2.961,0,0,0-1.321-1.311A4.446,4.446,0,0,0,.107,36.27a4.871,4.871,0,0,0-4,1.869A4.321,4.321,0,0,0-5.049,40.8Zm30.465,8.186.021,1.4a10.345,10.345,0,0,1-3.309,2.492,9.6,9.6,0,0,1-3.846.709,7.791,7.791,0,0,1-4.34-1.257,8.112,8.112,0,0,1-2.976-3.556,10.877,10.877,0,0,1-1.042-4.512,8.974,8.974,0,0,1,1.257-4.587,8.09,8.09,0,0,1,3.33-3.223,11.358,11.358,0,0,1,5.21-1.063A8.359,8.359,0,0,1,24.3,36.42a1.808,1.808,0,0,1,.881,1.547,1.544,1.544,0,0,1-.451,1.139,1.57,1.57,0,0,1-1.16.451,3.542,3.542,0,0,1-2.363-1.332A5.452,5.452,0,0,0,19.766,37.1a3.265,3.265,0,0,0-1.439-.312,3.926,3.926,0,0,0-3.18,1.568,8.777,8.777,0,0,0-1.762,5.607,8.12,8.12,0,0,0,1.8,5.543A5.45,5.45,0,0,0,19.4,51.566a7.6,7.6,0,0,0,2.976-.548A12.431,12.431,0,0,0,25.416,48.988Zm18.176-7.412-8.615.063-1.633,0q-.988,0-2.02.089a3.788,3.788,0,0,0-.193.881l.021.215v.215l-.021,1.053a8.383,8.383,0,0,0,.827,3.212,6.384,6.384,0,0,0,2.363,2.9,7.283,7.283,0,0,0,3.835,1.063,7.907,7.907,0,0,0,1.955-.3,9.9,9.9,0,0,0,2.063-1.1L43.721,48.6l.129.859a2.606,2.606,0,0,1-.021.322,9.437,9.437,0,0,1-2.449,2.148,11.668,11.668,0,0,1-3.008,1.354,10.49,10.49,0,0,1-2.406.193,7.7,7.7,0,0,1-3.008-.623,7.323,7.323,0,0,1-3.448-3.04,9.7,9.7,0,0,1-1.257-5.081,10.9,10.9,0,0,1,.354-2.428,12.766,12.766,0,0,1,1.278-3.158,6.188,6.188,0,0,1,1.525-1.869,10.09,10.09,0,0,1,2.256-1.439,8.408,8.408,0,0,1,3.244-.58,6.37,6.37,0,0,1,5.833,3.223,5.833,5.833,0,0,1,.849,2.793ZM31.6,40.8h1.01q1.1,0,6.531-.344a2.72,2.72,0,0,0,1.053-.172,1.145,1.145,0,0,0,.387-.73,3.426,3.426,0,0,0-.43-1.515,2.961,2.961,0,0,0-1.321-1.311,4.446,4.446,0,0,0-2.073-.462,4.871,4.871,0,0,0-4,1.869A4.321,4.321,0,0,0,31.6,40.8Z" transform="translate(783.356 724.481)"/>
  </g>
</svg>
