<svg xmlns="http://www.w3.org/2000/svg" width="150" height="254.782" viewBox="0 0 150 254.782">
  <g id="Group_2" data-name="Group 2" transform="translate(-526 -525)">
    <path id="rect2688" fill="current" d="M26.959,23.342v149.93h150V23.342Zm88.31,12.779c2.232.012,3.306.043,4.218.483,1.824.88,1.168,3.462,1.51,6.313.567,4.731-.514,6.8,3.85,6.8,4.652,0,5.557-1.07,5.557-6.571,0-6.5.127-6.571,12.559-6.571H155.52l.021,13.689c.019,12.7-.5,14.1-7.169,19.359l-7.189,5.669,2.205,27.917c1.213,15.354,3.213,28.574,4.444,29.376,10.332,6.738,11.636,8.68,13.122,19.53l1.574,11.5H47.773l1.647-11.489c1.556-10.85,2.8-12.682,13.32-19.541,1.231-.8,3.231-14.022,4.444-29.376l2.205-27.917L62.2,69.623c-6.672-5.261-7.188-6.654-7.169-19.359l.021-13.689H67.61c12.432,0,12.559.066,12.559,6.571,0,5.549.888,6.571,5.708,6.571,4.841,0,5.708-1.015,5.708-6.68v-6.68l15.558-.12c3.111-.024,5.893-.128,8.125-.116Z" transform="translate(499.041 501.658)"/>
    <path id="text2694" fill="current" d="M-43.527.129a1.307,1.307,0,0,1,.172-.58,19.678,19.678,0,0,1,3.266-.6,1.917,1.917,0,0,0,1.354-.473,5.356,5.356,0,0,0,.258-2.064l.15-5.676-.021-3.849.021-5.031V-19.48q.021-4.537-.043-5.655a2.486,2.486,0,0,0-.173-.6,5.04,5.04,0,0,0-.939-.344q-.378-.086-3.378-.624-.021-.236-.021-.344,0-.129.021-.344.409,0,1.334.049l3.271.123,1.894.043.559-.021q.108,0,.624.043,1.27,0,1.463-.021l1.722-.129q1.743,0,2.453.064a3.843,3.843,0,0,1-.15.838q-.236.043-2.234.118a8.41,8.41,0,0,0-2.3.247q-.494.279-.494,1.719,0,.344-.043,1.4v1.289l.021,3.975v1.354L-34.7-9.2l-.064,6.059L-34.74-1.8q0,.645.215.795.537.021,3.158.043h1.461l3.717-.129a6.758,6.758,0,0,0,2.084-.29,9.949,9.949,0,0,0,2.084-1.45,6.912,6.912,0,0,0,1.375-1.59q.107-.172.365-.516a12.218,12.218,0,0,0,1.1-2.234h.709q-.129.773-.279,1.461-.623,3.029-.859,5.049-.043.43-.086.795l-8.035-.236q-10.355,0-12.289.193-.6.043-1.268.043Zm26.533-8.766a9.081,9.081,0,0,1,.612-3.126,8.684,8.684,0,0,1,1.858-2.986,8.635,8.635,0,0,1,2.643-1.966,11.337,11.337,0,0,1,4.77-.9A9.021,9.021,0,0,1-.4-14.867,9.112,9.112,0,0,1,2.3-8.25,8.277,8.277,0,0,1-.526-2.116,9.932,9.932,0,0,1-7.67.58,9.723,9.723,0,0,1-12.7-.816a9.037,9.037,0,0,1-3.029-3.115A8.8,8.8,0,0,1-16.994-8.637ZM-7.488-.258a6.2,6.2,0,0,0,3.153-.881A6.106,6.106,0,0,0-1.914-3.964a10.572,10.572,0,0,0,.9-4.5,13.142,13.142,0,0,0-.7-3.889,6.469,6.469,0,0,0-2.152-3.319,5.47,5.47,0,0,0-3.411-1.106,7,7,0,0,0-2.895.666,5.531,5.531,0,0,0-2.5,2.557,11.473,11.473,0,0,0-1.022,5.371q0,3.91,1.775,5.919A5.662,5.662,0,0,0-7.488-.258ZM21.355-2.922a1.137,1.137,0,0,1,.129.408,2.77,2.77,0,0,1-.516,1.139A4.625,4.625,0,0,1,19.486.193a2.665,2.665,0,0,1-1.418.322,2.822,2.822,0,0,1-2.32-.945,4.024,4.024,0,0,1-.666-2L12.676-.752a9.889,9.889,0,0,1-1.934.924A10.359,10.359,0,0,1,8.164.451,2.294,2.294,0,0,1,6.435-.2,2.325,2.325,0,0,1,5.8-1.891,5.875,5.875,0,0,1,7.62-5.436a13.337,13.337,0,0,1,4.942-3.373q2.2-.924,2.692-1.182.043-.709.043-1.547a6.308,6.308,0,0,0-.765-3.7,2.626,2.626,0,0,0-2.187-.967,4.1,4.1,0,0,0-2.78,1.16,5.13,5.13,0,0,0-1.207,2.75,4.553,4.553,0,0,1-.494,1.2,3.007,3.007,0,0,1-1.482.6,1.434,1.434,0,0,1-.859-.279.423.423,0,0,1-.215-.344A7.409,7.409,0,0,1,6.5-13.632a7.89,7.89,0,0,1,3.008-2.943,6.91,6.91,0,0,1,3.169-.978,8.468,8.468,0,0,1,2.75.333,3.714,3.714,0,0,1,1.59,1.171,3.731,3.731,0,0,1,.838,1.826,33.579,33.579,0,0,1,.086,3.373l-.064,3.416L17.9-4.941q0,.494-.021.838-.021.623-.021.924a1.585,1.585,0,0,0,.408,1.139,1.29,1.29,0,0,0,.967.43,1.685,1.685,0,0,0,1.4-.816l.258-.344A2,2,0,0,1,21.355-2.922Zm-6.3-.623q.151-2.729.151-3.846,0-.58-.064-1.568a14.808,14.808,0,0,0-3.061,1.568A9.072,9.072,0,0,0,9.52-4.963a3.308,3.308,0,0,0-.69,1.869A1.873,1.873,0,0,0,9.4-1.7a1.968,1.968,0,0,0,1.433.559,3.778,3.778,0,0,0,1.617-.473A10.8,10.8,0,0,0,15.06-3.545ZM37.447-15.6l.021-.623-.021-2.514.021-4.748A4.637,4.637,0,0,0,37.039-26a5.5,5.5,0,0,0-2.514-1.1q-.15-.043-.473-.129v-.236a2.893,2.893,0,0,1,.043-.473,23.391,23.391,0,0,0,5.027-1.01l1.1-.021Q40.3-27.5,40.3-25.7l-.086,8.271.15,9.324L40.3-3.137q0,1.525.215,1.719a2.9,2.9,0,0,0,1.891.451q.3,0,.816.043v.387a2.606,2.606,0,0,1-.021.322q-.666.15-1.375.279l-3.115.6a6.28,6.28,0,0,1-1.1.129V-1.268q-.365.107-1.139.43A15.955,15.955,0,0,1,30.314.58,6.487,6.487,0,0,1,26.855-.526a7.234,7.234,0,0,1-2.707-3.083A9.268,9.268,0,0,1,23.2-7.648a10.117,10.117,0,0,1,.623-3.534,8.54,8.54,0,0,1,1.633-2.8,7.921,7.921,0,0,1,1.826-1.45,7.549,7.549,0,0,1,1.955-.913,12.979,12.979,0,0,1,2.557-.494,11.457,11.457,0,0,1,4.77.859Q37.146-15.705,37.447-15.6ZM37.469-2.32q.086-1.439.086-5.93a19.141,19.141,0,0,0-.353-4.8,4,4,0,0,0-1.766-1.891,5.81,5.81,0,0,0-3.167-.892A5.4,5.4,0,0,0,28.1-13.922a8.225,8.225,0,0,0-1.712,5.65,7.311,7.311,0,0,0,1.851,5.242,6.091,6.091,0,0,0,4.612,1.955,9.2,9.2,0,0,0,2.889-.43A5.28,5.28,0,0,0,37.469-2.32ZM-23.364,26.838l.236,3.266q.129,1.482.129,2.02l-.6.107a12.174,12.174,0,0,0-3.577-4.9A8.365,8.365,0,0,0-32.409,25.7a15.049,15.049,0,0,0-5.887.924,12.02,12.02,0,0,0-5.221,4.555A13.74,13.74,0,0,0-45.687,39a13.365,13.365,0,0,0,.795,4.748,14.408,14.408,0,0,0,2.245,3.921,15.29,15.29,0,0,0,3.427,3.147,9.547,9.547,0,0,0,3.072,1.332,14.209,14.209,0,0,0,3.008.236,12.7,12.7,0,0,0,2.857-.365,6.217,6.217,0,0,0,2.363-.978,3.171,3.171,0,0,0,1.085-1.386,10.111,10.111,0,0,0,.29-3.008q0-3.717-.494-4.329t-3.115-.806l-.859-.064-.58.021q-.129-.021-.344-.064l-.322-.537a.488.488,0,0,1,.15-.279,41.434,41.434,0,0,1,4.855-.172q.838,0,2.729.043l2.213.086,2-.021q.58,0,1.4.043a.307.307,0,0,1,.193.075.3.3,0,0,1,.043.183,2.226,2.226,0,0,1-.107.6,7.178,7.178,0,0,1-1.4.193l-1.4-.021a1.435,1.435,0,0,0-1.139.494,3.276,3.276,0,0,0-.215,1.611l.021,2.814a17.1,17.1,0,0,1-.236,3.7,1.787,1.787,0,0,1-.537.849,6.149,6.149,0,0,1-1.719.892,16.67,16.67,0,0,1-3.395,1.01,31.911,31.911,0,0,1-5.479.494,19.018,19.018,0,0,1-6.972-1.085,13.989,13.989,0,0,1-4.684-3.019,12.359,12.359,0,0,1-2.8-3.91A14.623,14.623,0,0,1-50,39.535a15.053,15.053,0,0,1,1.987-7.358A14.6,14.6,0,0,1-41.6,26.322a18.8,18.8,0,0,1,8.465-1.59,23.46,23.46,0,0,1,6.048.645A15.4,15.4,0,0,1-23.364,26.838ZM-.634,50a1.137,1.137,0,0,1,.129.408,2.77,2.77,0,0,1-.516,1.139A4.625,4.625,0,0,1-2.5,53.113a2.665,2.665,0,0,1-1.418.322,2.822,2.822,0,0,1-2.32-.945,4.024,4.024,0,0,1-.666-2l-2.406,1.676a9.889,9.889,0,0,1-1.934.924,10.359,10.359,0,0,1-2.578.279,2.294,2.294,0,0,1-1.729-.655,2.325,2.325,0,0,1-.634-1.687,5.875,5.875,0,0,1,1.82-3.545,13.337,13.337,0,0,1,4.942-3.373q2.2-.924,2.692-1.182.043-.709.043-1.547a6.308,6.308,0,0,0-.765-3.7,2.626,2.626,0,0,0-2.187-.967,4.1,4.1,0,0,0-2.78,1.16,5.13,5.13,0,0,0-1.207,2.75,4.553,4.553,0,0,1-.494,1.2,3.007,3.007,0,0,1-1.482.6,1.434,1.434,0,0,1-.859-.279.423.423,0,0,1-.215-.344,7.409,7.409,0,0,1,1.192-2.524,7.89,7.89,0,0,1,3.008-2.943,6.91,6.91,0,0,1,3.169-.978,8.468,8.468,0,0,1,2.75.333,3.714,3.714,0,0,1,1.59,1.171A3.731,3.731,0,0,1-4.136,38.7,33.579,33.579,0,0,1-4.05,42.07l-.064,3.416.021,2.492q0,.494-.021.838-.021.623-.021.924a1.585,1.585,0,0,0,.408,1.139,1.29,1.29,0,0,0,.967.43,1.685,1.685,0,0,0,1.4-.816l.258-.344A2,2,0,0,1-.634,50Zm-6.3-.623q.151-2.729.151-3.846,0-.58-.064-1.568A14.807,14.807,0,0,0-9.9,45.529a9.072,9.072,0,0,0-2.565,2.428,3.308,3.308,0,0,0-.69,1.869,1.873,1.873,0,0,0,.571,1.4,1.968,1.968,0,0,0,1.433.559,3.778,3.778,0,0,0,1.617-.473A10.8,10.8,0,0,0-6.929,49.375ZM.634,52.19a2.219,2.219,0,0,1,.945-.322,4.235,4.235,0,0,0,1.332-.344,1.59,1.59,0,0,0,.516-.924,50.061,50.061,0,0,0,.15-5.436A37.526,37.526,0,0,0,3.3,39.256a3.9,3.9,0,0,0-1.225-.473q-.236-.043-.988-.236v-.72a6.466,6.466,0,0,0,2.06-.949,14.078,14.078,0,0,0,2.19-2.328h.129q.13,0,.41-.021a.549.549,0,0,1,.281.107l-.021,2.449q0,.752.043,1.611a17.042,17.042,0,0,1,4.118-2.922,6.786,6.786,0,0,1,2.809-.559,5.388,5.388,0,0,1,2.959.709,6.775,6.775,0,0,1,2.08,2.557,13.68,13.68,0,0,1,3.47-2.643,7.176,7.176,0,0,1,3.147-.752,5.311,5.311,0,0,1,3.953,1.57,6.637,6.637,0,0,1,1.568,4.668v1.786l.021,1.957L30.282,50.1a1.859,1.859,0,0,0,.387,1.334q.172.064,1.311.387a3.1,3.1,0,0,1,.838.3.37.37,0,0,1,.129.3,1.548,1.548,0,0,1-.129.559h-.15L30.5,52.856q-.386-.021-1.222-.021-1.029,0-2.872.086H25.317q-.236,0-.921.021a3.15,3.15,0,0,1-.021-.344.908.908,0,0,1,.15-.43,6.583,6.583,0,0,1,1.59-.419q1.01-.161,1.257-.581a11.341,11.341,0,0,0,.247-3.346q0-6.347-.151-7.358A3.952,3.952,0,0,0,26.1,37.936a4.238,4.238,0,0,0-2.789-.914,5.158,5.158,0,0,0-2.52.677,9.141,9.141,0,0,0-2.412,2.03l-.021.516v3.287l-.086,2.557q0,3.91.075,4.447a1.208,1.208,0,0,0,.365.784,4.211,4.211,0,0,0,1.687.44,9.675,9.675,0,0,1,.967.172.693.693,0,0,1,.258.559.4.4,0,0,1-.193.387h-.365l-1.074-.021H13.739l-1.719.021a4,4,0,0,1-.043-.473L12,52.147a6.658,6.658,0,0,1,1.762-.494,7.545,7.545,0,0,0,1.375-.365.654.654,0,0,0,.193-.279,8.287,8.287,0,0,0,.15-1.719l.107-2.492-.043-2.814.021-1.568a5.739,5.739,0,0,0-1.072-3.856,3.449,3.449,0,0,0-2.7-1.214,6.884,6.884,0,0,0-3.054.752,7.3,7.3,0,0,0-2.54,2.02q-.021.6-.021,1.1l.086,7.219a7.521,7.521,0,0,0,.269,2.7,1.682,1.682,0,0,0,1.106.462,4.876,4.876,0,0,1,1.783.473.434.434,0,0,1,.193.387q0,.172-.021.408-2.455-.172-3.3-.172-.861,0-1.551.021L3.67,52.77H3l-2.412.086a.942.942,0,0,1-.043-.248A2.184,2.184,0,0,1,.634,52.19Zm50.08-10.613-8.615.063-1.633,0q-.988,0-2.02.089a3.788,3.788,0,0,0-.193.881l.021.215v.215l-.021,1.053A8.383,8.383,0,0,0,39.08,47.3a6.384,6.384,0,0,0,2.363,2.9,7.283,7.283,0,0,0,3.835,1.063,7.907,7.907,0,0,0,1.955-.3,9.9,9.9,0,0,0,2.063-1.1L50.843,48.6l.129.859a2.606,2.606,0,0,1-.021.322A9.437,9.437,0,0,1,48.5,51.932a11.668,11.668,0,0,1-3.008,1.354,10.49,10.49,0,0,1-2.406.193,7.7,7.7,0,0,1-3.008-.623,7.323,7.323,0,0,1-3.448-3.04,9.7,9.7,0,0,1-1.257-5.081,10.9,10.9,0,0,1,.354-2.428,12.766,12.766,0,0,1,1.278-3.158,6.188,6.188,0,0,1,1.525-1.869,10.09,10.09,0,0,1,2.256-1.439,8.408,8.408,0,0,1,3.244-.58,6.37,6.37,0,0,1,5.833,3.223,5.833,5.833,0,0,1,.849,2.793ZM38.726,40.8h1.01q1.1,0,6.531-.344a2.72,2.72,0,0,0,1.053-.172,1.145,1.145,0,0,0,.387-.73,3.426,3.426,0,0,0-.43-1.515,2.961,2.961,0,0,0-1.321-1.311,4.446,4.446,0,0,0-2.073-.462,4.871,4.871,0,0,0-4,1.869A4.321,4.321,0,0,0,38.726,40.8Z" transform="translate(599.467 726.304)"/>
  </g>
</svg>
