<svg xmlns="http://www.w3.org/2000/svg" width="150" height="251.89" viewBox="0 0 150 251.89">
  <g id="Group_1" data-name="Group 1" transform="translate(-339 -526)">
    <path fill="current"  id="rect2084" d="M25.051,14.882v150h150v-150ZM101.687,25.3c8.273,0,19.518,9.488,21.4,18.054a21.429,21.429,0,0,1-2.222,14.012L117.176,64.7l10.287,9.006c5.658,4.954,10.279,9.714,10.268,10.578s-4.92,1.877-10.91,2.251l-10.892.68L119.348,99.6c2.746,9.949,6.006,14.93,16.576,25.328,13.164,12.951,18.742,22.358,16.588,27.973-1.68,4.378-99.968,4.378-101.648,0-2.155-5.615,3.424-15.022,16.588-27.973,10.57-10.4,13.83-15.38,16.576-25.328l3.419-12.384-10.892-.68c-5.991-.374-10.9-1.387-10.91-2.251s4.611-5.624,10.268-10.578L86.2,64.7,82.51,57.362a21.428,21.428,0,0,1-2.222-14.012c1.882-8.567,13.127-18.054,21.4-18.054Z" transform="translate(313.949 511.118)"/>
    <path fill="current"  id="text2090" d="M-40.208-26.275l-.021-1.031q3.33,0,4.877-.172.6-.064.838-.064.193,0,.58.021A11.92,11.92,0,0,1-32.259-25.8q.172.193.387.43l4.533,5.006.645.773q1.375,1.611,2.5,2.75T-19.8-12.1L-14.663-6.4q.752.838,1.934,2.084l.021-.344q-.129-2.986-.129-3.158l.086-1.289-.043-2.02v-.924q0-.881-.15-5.436-.021-.623-.172-2.353t-.15-3.04a7.092,7.092,0,0,0-.279-2.75,3.915,3.915,0,0,0-1.826-.58q-.387-.021-1.2-.129a6.014,6.014,0,0,1-1.139-.107.775.775,0,0,1-.344-.365,1.979,1.979,0,0,1,.193-.645,4,4,0,0,1,1.139-.172,9.26,9.26,0,0,1,1.493.15,9.722,9.722,0,0,0,1.6.15q.988,0,3.072-.129,1.182-.086,1.633-.086h.365l-.043.666a2.791,2.791,0,0,1-.945.183,4.923,4.923,0,0,0-1.117.183,2.443,2.443,0,0,0-.924.408,1.683,1.683,0,0,0-.516,1.139l.236,6.789.172,3.115-.021.9.129,4.318q.129,4.426.129,7.691,0,.709-.086,3.072l-1,.086Q-13.3.15-17.729-4.4q-1.032-1.053-1.4-1.482l-1.848-2.127q-1.075-1.182-1.4-1.5l-.473-.473q-2.343-2.664-6.082-6.66-1.01-1.074-2.966-3.352-1.225-1.439-1.548-1.762a7.646,7.646,0,0,0-.881-.73l-.064.73q0,4.189.215,11.559l.15,7.111q.021.9.107,1.74l.752.172q2.041.193,4.018.58a1.992,1.992,0,0,0,.258.193l-.021.816a1.971,1.971,0,0,1-.559.107,4.806,4.806,0,0,1-.58-.043Q-32.173.3-35.224.3-37.372.3-39,.408l-.3.021a5.166,5.166,0,0,1-.559-.043l-.021-.645.559-.258,1.01-.15a10.087,10.087,0,0,0,1.977-.43,1.574,1.574,0,0,0,.666-.451,29.692,29.692,0,0,0,.236-4.34q0-1.332-.064-4.877v-2.922l-.043-6.1a26.478,26.478,0,0,0-.279-4.812,1.423,1.423,0,0,0-.537-.687,4.525,4.525,0,0,0-2.138-.73A14.278,14.278,0,0,1-40.208-26.275ZM10.151-11.344l-8.615.063-1.633,0q-.988,0-2.02.089a3.788,3.788,0,0,0-.193.881l.021.215v.215L-2.31-8.83a8.383,8.383,0,0,0,.827,3.212,6.384,6.384,0,0,0,2.363,2.9A7.283,7.283,0,0,0,4.716-1.654a7.907,7.907,0,0,0,1.955-.3,9.9,9.9,0,0,0,2.063-1.1L10.28-4.318l.129.859a2.607,2.607,0,0,1-.021.322A9.437,9.437,0,0,1,7.938-.988,11.668,11.668,0,0,1,4.931.365,10.49,10.49,0,0,1,2.524.559,7.7,7.7,0,0,1-.483-.064,7.323,7.323,0,0,1-3.932-3.1,9.7,9.7,0,0,1-5.188-8.186a10.9,10.9,0,0,1,.354-2.428,12.766,12.766,0,0,1,1.278-3.158A6.188,6.188,0,0,1-2.03-15.641,10.09,10.09,0,0,1,.226-17.08a8.408,8.408,0,0,1,3.244-.58,6.485,6.485,0,0,1,3.266.73A6.477,6.477,0,0,1,9.3-14.437a5.833,5.833,0,0,1,.849,2.793Zm-11.988-.773h1.01q1.1,0,6.531-.344a2.72,2.72,0,0,0,1.053-.172,1.145,1.145,0,0,0,.387-.73,3.426,3.426,0,0,0-.43-1.515,2.961,2.961,0,0,0-1.321-1.311,4.446,4.446,0,0,0-2.073-.462,4.871,4.871,0,0,0-4,1.869A4.321,4.321,0,0,0-1.837-12.117ZM11.011-16.93l8.25.021a.457.457,0,0,1,.322.086.35.35,0,0,1,.086.258.653.653,0,0,1-.321.6,4.564,4.564,0,0,0-1.86.365.822.822,0,0,0-.364.709,1.878,1.878,0,0,0,.043.408,15.9,15.9,0,0,0,.623,1.525q.73,1.7,2.6,5.5l2.556,5.2a61.8,61.8,0,0,0,3.53-7.1L25.159-12.8q-.214-.473-.546-1.418a3.472,3.472,0,0,0-.514-1.106,4.952,4.952,0,0,0-1.318-.483,5.313,5.313,0,0,1-1.35-.494l-.021-.15a.855.855,0,0,1,.129-.365,3.581,3.581,0,0,1,.816-.129l1.225.021h2.686l.816-.021,2.643.043q.322,0,.537-.021h.365q.129,0,.365.021l-.043.688a2.843,2.843,0,0,1-1.074.279,6.355,6.355,0,0,0-2.17.537.727.727,0,0,0-.236.451,3.6,3.6,0,0,0,.258,1.182q.086.215.452,1.332l2.3,6.059Q31.495-3.674,32.033-2.6a55.131,55.131,0,0,0,2.531-5.951q.579-1.5,1.544-3.588a5.491,5.491,0,0,0,.623-2.268,1.116,1.116,0,0,0-.365-.842,4.087,4.087,0,0,0-1.7-.648,9.009,9.009,0,0,1-1.183-.32.553.553,0,0,1-.107-.273.634.634,0,0,1,.236-.419h.322l1.74-.021q.107,0,.988.032t1.719.032q.645,0,1.482-.043h1.074a.4.4,0,0,1,.183.107.337.337,0,0,1,.054.215,2.3,2.3,0,0,1-.064.516,4.323,4.323,0,0,0-1.654.483,6.59,6.59,0,0,0-1.633,1.944L33.986-4.4Q33.45-3.115,32.121-.451q-.279.559-.418.9A1.2,1.2,0,0,1,31.435.9a.518.518,0,0,1-.343.107,1.392,1.392,0,0,1-.41-.086q-.6-1.182-2.667-6.514Q27.452-7.009,26.975-8,23.482-.7,22.4.967a3.793,3.793,0,0,1-.47.043,3.3,3.3,0,0,1-.447-.043L17.416-7.52,13.7-14.781a2.894,2.894,0,0,0-.6-.816,3.628,3.628,0,0,0-1.289-.387q-.516-.086-.795-.129-.021-.322-.021-.494Q10.989-16.715,11.011-16.93ZM-23.364,26.838l.236,3.266q.129,1.482.129,2.02l-.6.107a12.174,12.174,0,0,0-3.577-4.9A8.365,8.365,0,0,0-32.409,25.7a15.049,15.049,0,0,0-5.887.924,12.02,12.02,0,0,0-5.221,4.555A13.74,13.74,0,0,0-45.687,39a13.365,13.365,0,0,0,.795,4.748,14.408,14.408,0,0,0,2.245,3.921,15.29,15.29,0,0,0,3.427,3.147,9.547,9.547,0,0,0,3.072,1.332,14.209,14.209,0,0,0,3.008.236,12.7,12.7,0,0,0,2.857-.365,6.217,6.217,0,0,0,2.363-.978,3.171,3.171,0,0,0,1.085-1.386,10.111,10.111,0,0,0,.29-3.008q0-3.717-.494-4.329t-3.115-.806l-.859-.064-.58.021q-.129-.021-.344-.064l-.322-.537a.488.488,0,0,1,.15-.279,41.434,41.434,0,0,1,4.855-.172q.838,0,2.729.043l2.213.086,2-.021q.58,0,1.4.043a.307.307,0,0,1,.193.075.3.3,0,0,1,.043.183,2.226,2.226,0,0,1-.107.6,7.178,7.178,0,0,1-1.4.193l-1.4-.021a1.435,1.435,0,0,0-1.139.494,3.276,3.276,0,0,0-.215,1.611l.021,2.814a17.1,17.1,0,0,1-.236,3.7,1.787,1.787,0,0,1-.537.849,6.149,6.149,0,0,1-1.719.892,16.67,16.67,0,0,1-3.395,1.01,31.911,31.911,0,0,1-5.479.494,19.018,19.018,0,0,1-6.972-1.085,13.989,13.989,0,0,1-4.684-3.019,12.359,12.359,0,0,1-2.8-3.91A14.623,14.623,0,0,1-50,39.535a15.053,15.053,0,0,1,1.987-7.358A14.6,14.6,0,0,1-41.6,26.322a18.8,18.8,0,0,1,8.465-1.59,23.46,23.46,0,0,1,6.048.645A15.4,15.4,0,0,1-23.364,26.838ZM-.634,50a1.137,1.137,0,0,1,.129.408,2.77,2.77,0,0,1-.516,1.139A4.625,4.625,0,0,1-2.5,53.113a2.665,2.665,0,0,1-1.418.322,2.822,2.822,0,0,1-2.32-.945,4.024,4.024,0,0,1-.666-2l-2.406,1.676a9.889,9.889,0,0,1-1.934.924,10.359,10.359,0,0,1-2.578.279,2.294,2.294,0,0,1-1.729-.655,2.325,2.325,0,0,1-.634-1.687,5.875,5.875,0,0,1,1.82-3.545,13.337,13.337,0,0,1,4.942-3.373q2.2-.924,2.692-1.182.043-.709.043-1.547a6.308,6.308,0,0,0-.765-3.7,2.626,2.626,0,0,0-2.187-.967,4.1,4.1,0,0,0-2.78,1.16,5.13,5.13,0,0,0-1.207,2.75,4.553,4.553,0,0,1-.494,1.2,3.007,3.007,0,0,1-1.482.6,1.434,1.434,0,0,1-.859-.279.423.423,0,0,1-.215-.344,7.409,7.409,0,0,1,1.192-2.524,7.89,7.89,0,0,1,3.008-2.943,6.91,6.91,0,0,1,3.169-.978,8.468,8.468,0,0,1,2.75.333,3.714,3.714,0,0,1,1.59,1.171A3.731,3.731,0,0,1-4.136,38.7,33.579,33.579,0,0,1-4.05,42.07l-.064,3.416.021,2.492q0,.494-.021.838-.021.623-.021.924a1.585,1.585,0,0,0,.408,1.139,1.29,1.29,0,0,0,.967.43,1.685,1.685,0,0,0,1.4-.816l.258-.344A2,2,0,0,1-.634,50Zm-6.3-.623q.151-2.729.151-3.846,0-.58-.064-1.568A14.807,14.807,0,0,0-9.9,45.529a9.072,9.072,0,0,0-2.565,2.428,3.308,3.308,0,0,0-.69,1.869,1.873,1.873,0,0,0,.571,1.4,1.968,1.968,0,0,0,1.433.559,3.778,3.778,0,0,0,1.617-.473A10.8,10.8,0,0,0-6.929,49.375ZM.634,52.19a2.219,2.219,0,0,1,.945-.322,4.235,4.235,0,0,0,1.332-.344,1.59,1.59,0,0,0,.516-.924,50.061,50.061,0,0,0,.15-5.436A37.526,37.526,0,0,0,3.3,39.256a3.9,3.9,0,0,0-1.225-.473q-.236-.043-.988-.236v-.72a6.466,6.466,0,0,0,2.06-.949,14.078,14.078,0,0,0,2.19-2.328h.129q.13,0,.41-.021a.549.549,0,0,1,.281.107l-.021,2.449q0,.752.043,1.611a17.042,17.042,0,0,1,4.118-2.922,6.786,6.786,0,0,1,2.809-.559,5.388,5.388,0,0,1,2.959.709,6.775,6.775,0,0,1,2.08,2.557,13.68,13.68,0,0,1,3.47-2.643,7.176,7.176,0,0,1,3.147-.752,5.311,5.311,0,0,1,3.953,1.57,6.637,6.637,0,0,1,1.568,4.668v1.786l.021,1.957L30.282,50.1a1.859,1.859,0,0,0,.387,1.334q.172.064,1.311.387a3.1,3.1,0,0,1,.838.3.37.37,0,0,1,.129.3,1.548,1.548,0,0,1-.129.559h-.15L30.5,52.856q-.386-.021-1.222-.021-1.029,0-2.872.086H25.317q-.236,0-.921.021a3.15,3.15,0,0,1-.021-.344.908.908,0,0,1,.15-.43,6.583,6.583,0,0,1,1.59-.419q1.01-.161,1.257-.581a11.341,11.341,0,0,0,.247-3.346q0-6.347-.151-7.358A3.952,3.952,0,0,0,26.1,37.936a4.238,4.238,0,0,0-2.789-.914,5.158,5.158,0,0,0-2.52.677,9.141,9.141,0,0,0-2.412,2.03l-.021.516v3.287l-.086,2.557q0,3.91.075,4.447a1.208,1.208,0,0,0,.365.784,4.211,4.211,0,0,0,1.687.44,9.675,9.675,0,0,1,.967.172.693.693,0,0,1,.258.559.4.4,0,0,1-.193.387h-.365l-1.074-.021H13.739l-1.719.021a4,4,0,0,1-.043-.473L12,52.147a6.658,6.658,0,0,1,1.762-.494,7.545,7.545,0,0,0,1.375-.365.654.654,0,0,0,.193-.279,8.287,8.287,0,0,0,.15-1.719l.107-2.492-.043-2.814.021-1.568a5.739,5.739,0,0,0-1.072-3.856,3.449,3.449,0,0,0-2.7-1.214,6.884,6.884,0,0,0-3.054.752,7.3,7.3,0,0,0-2.54,2.02q-.021.6-.021,1.1l.086,7.219a7.521,7.521,0,0,0,.269,2.7,1.682,1.682,0,0,0,1.106.462,4.876,4.876,0,0,1,1.783.473.434.434,0,0,1,.193.387q0,.172-.021.408-2.455-.172-3.3-.172-.861,0-1.551.021L3.67,52.77H3l-2.412.086a.942.942,0,0,1-.043-.248A2.184,2.184,0,0,1,.634,52.19Zm50.08-10.613-8.615.063-1.633,0q-.988,0-2.02.089a3.788,3.788,0,0,0-.193.881l.021.215v.215l-.021,1.053A8.383,8.383,0,0,0,39.08,47.3a6.384,6.384,0,0,0,2.363,2.9,7.283,7.283,0,0,0,3.835,1.063,7.907,7.907,0,0,0,1.955-.3,9.9,9.9,0,0,0,2.063-1.1L50.843,48.6l.129.859a2.606,2.606,0,0,1-.021.322A9.437,9.437,0,0,1,48.5,51.932a11.668,11.668,0,0,1-3.008,1.354,10.49,10.49,0,0,1-2.406.193,7.7,7.7,0,0,1-3.008-.623,7.323,7.323,0,0,1-3.448-3.04,9.7,9.7,0,0,1-1.257-5.081,10.9,10.9,0,0,1,.354-2.428,12.766,12.766,0,0,1,1.278-3.158,6.188,6.188,0,0,1,1.525-1.869,10.09,10.09,0,0,1,2.256-1.439,8.408,8.408,0,0,1,3.244-.58,6.37,6.37,0,0,1,5.833,3.223,5.833,5.833,0,0,1,.849,2.793ZM38.726,40.8h1.01q1.1,0,6.531-.344a2.72,2.72,0,0,0,1.053-.172,1.145,1.145,0,0,0,.387-.73,3.426,3.426,0,0,0-.43-1.515,2.961,2.961,0,0,0-1.321-1.311,4.446,4.446,0,0,0-2.073-.462,4.871,4.871,0,0,0-4,1.869A4.321,4.321,0,0,0,38.726,40.8Z" transform="translate(415.152 724.412)"/>
  </g>
</svg>
