<svg xmlns="http://www.w3.org/2000/svg" width="150.001" height="252.995" viewBox="0 0 150.001 252.995">
  <g id="Group_6" data-name="Group 6" transform="translate(-1274 -523)">
    <path id="text859" fill="current" d="M-32.871-26.512q.172,1.418.172,1.633l-.086,1.912a13.971,13.971,0,0,1-.107,1.568.832.832,0,0,1-.322.086l-.193-.043a7.778,7.778,0,0,0-2.331-4.383,6.036,6.036,0,0,0-4.007-1.375,5.871,5.871,0,0,0-4.018,1.375,4.149,4.149,0,0,0-1.568,3.2,3.649,3.649,0,0,0,1.1,2.557,24.784,24.784,0,0,0,5.607,3.472,36.274,36.274,0,0,1,4.92,2.906,7.613,7.613,0,0,1,2.234,2.613,7.221,7.221,0,0,1,.752,3.312,8.368,8.368,0,0,1-1.192,4.323A7.721,7.721,0,0,1-35.127-.313,11.912,11.912,0,0,1-40.477.709a16.862,16.862,0,0,1-5.564-.924,6.308,6.308,0,0,1-1.912-.9,1.027,1.027,0,0,1-.344-.73,5.341,5.341,0,0,1,.043-.6,41.347,41.347,0,0,0,.322-4.168,3.708,3.708,0,0,1,.15-1.182.339.339,0,0,1,.322-.15.388.388,0,0,1,.312.14,1.03,1.03,0,0,1,.161.526,7.284,7.284,0,0,0,2.449,4.727A7.015,7.015,0,0,0-39.574-.473a6.934,6.934,0,0,0,3.126-.709,5.291,5.291,0,0,0,2.234-2.052,5.069,5.069,0,0,0,.806-2.61,4.8,4.8,0,0,0-1.225-3.18,17.308,17.308,0,0,0-4.92-3.362,36.7,36.7,0,0,1-4.812-2.8,10.606,10.606,0,0,1-2.707-3.051,6.062,6.062,0,0,1-.666-2.9,6.483,6.483,0,0,1,2.363-5.06,9.268,9.268,0,0,1,6.338-2.073,12.812,12.812,0,0,1,3.781.494A9.006,9.006,0,0,1-32.871-26.512Zm21.463,23.59a1.137,1.137,0,0,1,.129.408,2.77,2.77,0,0,1-.516,1.139A4.625,4.625,0,0,1-13.277.193,2.665,2.665,0,0,1-14.7.516a2.822,2.822,0,0,1-2.32-.945,4.024,4.024,0,0,1-.666-2L-20.088-.752a9.889,9.889,0,0,1-1.934.924A10.359,10.359,0,0,1-24.6.451,2.294,2.294,0,0,1-26.329-.2a2.325,2.325,0,0,1-.634-1.687,5.875,5.875,0,0,1,1.82-3.545A13.337,13.337,0,0,1-20.2-8.809Q-18-9.732-17.51-9.99q.043-.709.043-1.547a6.308,6.308,0,0,0-.765-3.7,2.626,2.626,0,0,0-2.187-.967,4.1,4.1,0,0,0-2.78,1.16,5.13,5.13,0,0,0-1.207,2.75,4.553,4.553,0,0,1-.494,1.2,3.007,3.007,0,0,1-1.482.6,1.434,1.434,0,0,1-.859-.279.423.423,0,0,1-.215-.344,7.409,7.409,0,0,1,1.192-2.524,7.89,7.89,0,0,1,3.008-2.943,6.91,6.91,0,0,1,3.169-.978,8.468,8.468,0,0,1,2.75.333,3.714,3.714,0,0,1,1.59,1.171,3.731,3.731,0,0,1,.838,1.826,33.579,33.579,0,0,1,.086,3.373l-.064,3.416.021,2.492q0,.494-.021.838-.021.623-.021.924A1.585,1.585,0,0,0-14.5-2.041a1.29,1.29,0,0,0,.967.43,1.685,1.685,0,0,0,1.4-.816l.258-.344A2,2,0,0,1-11.408-2.922Zm-6.3-.623q.151-2.729.151-3.846,0-.58-.064-1.568a14.808,14.808,0,0,0-3.061,1.568,9.072,9.072,0,0,0-2.565,2.428,3.308,3.308,0,0,0-.69,1.869,1.873,1.873,0,0,0,.571,1.4,1.968,1.968,0,0,0,1.433.559,3.778,3.778,0,0,0,1.617-.473A10.8,10.8,0,0,0-17.7-3.545Zm6.467-13.535q2.385.025,4.168.172,1.268,0,1.848-.043.408-.021.516-.021l2.406.021q.494.086.795.107a.467.467,0,0,1,.236.236.944.944,0,0,1-.129.451,3.341,3.341,0,0,1-.752.127,15.817,15.817,0,0,0-2.707.488q-.15.106-.15.212a1.755,1.755,0,0,0,.215.657q.043.107.194.516l2.153,5.163Q-1-5.443.226-3.013,1.061-4.6,1.768-6.3T3.847-11.66a20.117,20.117,0,0,0,.729-2.551,2.493,2.493,0,0,0,.064-.513.88.88,0,0,0-.29-.567,2.107,2.107,0,0,0-.978-.5q-.15-.021-1.955-.321a1.068,1.068,0,0,1-.279-.236v-.172A2.35,2.35,0,0,1,1.16-16.8a6.811,6.811,0,0,1,.752-.064l2.535.021q.258,0,1.225-.064,3.416,0,4.1.064a.469.469,0,0,1,.236.258.913.913,0,0,1-.129.43l-.666.171q-.258.021-.408.043a5.294,5.294,0,0,0-2.277.513,6.623,6.623,0,0,0-1.009,2.2q-.322.968-.943,2.452L3.465-8.068,2.95-6.8-.373.9h-.661A11.289,11.289,0,0,0-1.507-.173L-3.139-3.637-6.983-12.65a17.881,17.881,0,0,0-1.4-2.839,13.536,13.536,0,0,0-2.75-.9,1.648,1.648,0,0,1-.129-.494Zm37.877,5.736-8.615.063-1.633,0q-.988,0-2.02.089a3.788,3.788,0,0,0-.193.881l.021.215v.215L14.18-8.83a8.383,8.383,0,0,0,.827,3.212,6.384,6.384,0,0,0,2.363,2.9,7.283,7.283,0,0,0,3.835,1.063,7.907,7.907,0,0,0,1.955-.3,9.9,9.9,0,0,0,2.063-1.1L26.77-4.318l.129.859a2.607,2.607,0,0,1-.021.322A9.437,9.437,0,0,1,24.428-.988,11.668,11.668,0,0,1,21.42.365a10.49,10.49,0,0,1-2.406.193,7.7,7.7,0,0,1-3.008-.623A7.323,7.323,0,0,1,12.558-3.1,9.7,9.7,0,0,1,11.3-8.186a10.9,10.9,0,0,1,.354-2.428,12.766,12.766,0,0,1,1.278-3.158,6.188,6.188,0,0,1,1.525-1.869,10.09,10.09,0,0,1,2.256-1.439,8.408,8.408,0,0,1,3.244-.58,6.485,6.485,0,0,1,3.266.73,6.477,6.477,0,0,1,2.567,2.492,5.833,5.833,0,0,1,.849,2.793Zm-11.988-.773h1.01q1.1,0,6.531-.344a2.72,2.72,0,0,0,1.053-.172,1.145,1.145,0,0,0,.387-.73,3.426,3.426,0,0,0-.43-1.515,2.961,2.961,0,0,0-1.321-1.311,4.446,4.446,0,0,0-2.073-.462,4.871,4.871,0,0,0-4,1.869A4.321,4.321,0,0,0,14.652-12.117ZM43.635-15.6l.021-.623-.021-2.514.021-4.748A4.637,4.637,0,0,0,43.227-26a5.5,5.5,0,0,0-2.514-1.1q-.15-.043-.473-.129v-.236a2.893,2.893,0,0,1,.043-.473,23.391,23.391,0,0,0,5.027-1.01l1.1-.021q.086,1.461.086,3.266l-.086,8.271.15,9.324-.064,4.963q0,1.525.215,1.719A2.9,2.9,0,0,0,48.6-.967q.3,0,.816.043v.387a2.606,2.606,0,0,1-.021.322q-.666.15-1.375.279L44.9.666a6.28,6.28,0,0,1-1.1.129V-1.268q-.365.107-1.139.43A15.955,15.955,0,0,1,36.5.58,6.487,6.487,0,0,1,33.043-.526a7.234,7.234,0,0,1-2.707-3.083,9.268,9.268,0,0,1-.945-4.039,10.117,10.117,0,0,1,.623-3.534,8.54,8.54,0,0,1,1.633-2.8,7.921,7.921,0,0,1,1.826-1.45,7.549,7.549,0,0,1,1.955-.913,12.979,12.979,0,0,1,2.557-.494,11.457,11.457,0,0,1,4.77.859Q43.334-15.705,43.635-15.6ZM43.657-2.32q.086-1.439.086-5.93a19.141,19.141,0,0,0-.353-4.8,4,4,0,0,0-1.766-1.891,5.81,5.81,0,0,0-3.167-.892,5.4,5.4,0,0,0-4.174,1.912,8.225,8.225,0,0,0-1.712,5.65,7.311,7.311,0,0,0,1.851,5.242,6.091,6.091,0,0,0,4.612,1.955,9.2,9.2,0,0,0,2.889-.43A5.28,5.28,0,0,0,43.657-2.32ZM-51.981,25.506a4.106,4.106,0,0,1,.494-.064q.73,0,2.406.086.881.021,1.2.021.473,0,2-.086l3.652-.215q1.439-.129,3.352-.129a12.6,12.6,0,0,1,5.371.955,6.708,6.708,0,0,1,3.083,2.993,8.571,8.571,0,0,1,1.085,4.055A8.082,8.082,0,0,1-31.7,38.937a8.432,8.432,0,0,1-6.359,2.446,6.6,6.6,0,0,1-1.869-.226,6.675,6.675,0,0,1-1.719-.87,1.135,1.135,0,0,1-.494-.58.49.49,0,0,1,.236-.215,1.674,1.674,0,0,1,.623.129,5.626,5.626,0,0,0,1.848.258,6.545,6.545,0,0,0,3.212-.837,5.448,5.448,0,0,0,2.288-2.381,7.186,7.186,0,0,0,.773-3.26,7,7,0,0,0-.815-3.25,6.923,6.923,0,0,0-2.144-2.521,6.7,6.7,0,0,0-2.3-.9,11.369,11.369,0,0,0-2.412-.365q-2.659,0-3.152.386l-.021.3.064,2.426-.021.429q-.043.58-.043,1.782,0,4.379.129,5.452v1.2l.279,9.81q0,.215-.054.794t-.054,1.009a5.436,5.436,0,0,0,.172,1.567q.516.15,3.008.708,1.16.279,1.268.322a.617.617,0,0,1,.3.279.73.73,0,0,1-.226.419,1.056,1.056,0,0,1-.548.1q-.258,0-1.2-.107-1.848-.193-2.9-.193l-3.781.15-2.256-.064q-.215,0-1.246.043l-.021-.559,2.793-.537a1.79,1.79,0,0,0,.838-.386,2.216,2.216,0,0,0,.215-1.181q0-.193.021-.837.021-.451.021-1.245,0-2.533-.215-10.8-.086-3.864-.086-7.857v-.365q0-1.546-.473-1.953Q-48.823,26.752-52,26.3a.992.992,0,0,1-.107-.387A.886.886,0,0,1-51.981,25.506Zm26.855,1.01a1.626,1.626,0,0,1,.548-1.225,1.859,1.859,0,0,1,1.321-.516,1.951,1.951,0,0,1,1.4.58,1.719,1.719,0,0,1,.6,1.246,1.753,1.753,0,0,1-.6,1.257,1.933,1.933,0,0,1-1.4.591,1.809,1.809,0,0,1-1.332-.537A1.889,1.889,0,0,1-25.126,26.516Zm-1.8,11.15.021-.634q1.4-.41,1.5-.474A7.036,7.036,0,0,0-23.783,35.5a7.317,7.317,0,0,0,1.429-1.6,2.63,2.63,0,0,1,.408-.043l.258.021q.086,1.031.086,1.5,0,.107-.043.967v1.139l.021,6.188-.064,6.553a1.606,1.606,0,0,0,.258,1.106,4.193,4.193,0,0,0,1.654.7,13.062,13.062,0,0,1,1.289.408.676.676,0,0,1,.064.258.7.7,0,0,1-.107.322q-.838-.021-2.148-.107-1.783-.15-2.363-.15-.279,0-3.437.107a11.524,11.524,0,0,0-1.246.107,1.489,1.489,0,0,1-.344-.064.473.473,0,0,1-.107-.258q0-.3.408-.473.086-.043,2.191-.493a1.4,1.4,0,0,0,.9-.429,2.278,2.278,0,0,0,.365-1.437q.043-1.652.043-9.053a7.583,7.583,0,0,0-.129-1.845,1.63,1.63,0,0,0-.569-.59A6.244,6.244,0,0,0-26.931,37.666Zm25.846,3.91-8.615.063-1.633,0q-.988,0-2.02.089a3.788,3.788,0,0,0-.193.881l.021.215v.215l-.021,1.053a8.383,8.383,0,0,0,.827,3.212,6.384,6.384,0,0,0,2.363,2.9,7.283,7.283,0,0,0,3.835,1.063,7.907,7.907,0,0,0,1.955-.3,9.9,9.9,0,0,0,2.063-1.1L-.956,48.6l.129.859a2.607,2.607,0,0,1-.021.322A9.437,9.437,0,0,1-3.3,51.932a11.668,11.668,0,0,1-3.008,1.354,10.49,10.49,0,0,1-2.406.193,7.7,7.7,0,0,1-3.008-.623,7.323,7.323,0,0,1-3.448-3.04,9.7,9.7,0,0,1-1.257-5.081,10.9,10.9,0,0,1,.354-2.428,12.766,12.766,0,0,1,1.278-3.158,6.188,6.188,0,0,1,1.525-1.869,10.09,10.09,0,0,1,2.256-1.439,8.408,8.408,0,0,1,3.244-.58,6.485,6.485,0,0,1,3.266.73,6.477,6.477,0,0,1,2.567,2.492,5.833,5.833,0,0,1,.849,2.793ZM-13.073,40.8h1.01q1.1,0,6.531-.344a2.72,2.72,0,0,0,1.053-.172,1.145,1.145,0,0,0,.387-.73,3.426,3.426,0,0,0-.43-1.515,2.961,2.961,0,0,0-1.321-1.311,4.446,4.446,0,0,0-2.073-.462,4.871,4.871,0,0,0-4,1.869A4.321,4.321,0,0,0-13.073,40.8Zm30.465,8.186.021,1.4A10.345,10.345,0,0,1,14.1,52.877a9.6,9.6,0,0,1-3.846.709,7.791,7.791,0,0,1-4.34-1.257,8.112,8.112,0,0,1-2.976-3.556A10.877,10.877,0,0,1,1.9,44.262a8.974,8.974,0,0,1,1.257-4.587,8.09,8.09,0,0,1,3.33-3.223,11.358,11.358,0,0,1,5.21-1.063,8.359,8.359,0,0,1,4.576,1.031,1.808,1.808,0,0,1,.881,1.547,1.544,1.544,0,0,1-.451,1.139,1.57,1.57,0,0,1-1.16.451,3.542,3.542,0,0,1-2.363-1.332A5.452,5.452,0,0,0,11.741,37.1a3.265,3.265,0,0,0-1.439-.312,3.926,3.926,0,0,0-3.18,1.568A8.777,8.777,0,0,0,5.36,43.961a8.12,8.12,0,0,0,1.8,5.543,5.45,5.45,0,0,0,4.211,2.063,7.6,7.6,0,0,0,2.976-.548A12.431,12.431,0,0,0,17.392,48.988Zm18.176-7.412-8.615.063-1.633,0q-.988,0-2.02.089a3.788,3.788,0,0,0-.193.881l.021.215v.215l-.021,1.053a8.383,8.383,0,0,0,.827,3.212A6.384,6.384,0,0,0,26.3,50.2a7.283,7.283,0,0,0,3.835,1.063,7.907,7.907,0,0,0,1.955-.3,9.9,9.9,0,0,0,2.063-1.1L35.7,48.6l.129.859a2.606,2.606,0,0,1-.021.322,9.437,9.437,0,0,1-2.449,2.148,11.668,11.668,0,0,1-3.008,1.354,10.49,10.49,0,0,1-2.406.193,7.7,7.7,0,0,1-3.008-.623,7.323,7.323,0,0,1-3.448-3.04,9.7,9.7,0,0,1-1.257-5.081,10.9,10.9,0,0,1,.354-2.428,12.766,12.766,0,0,1,1.278-3.158,6.188,6.188,0,0,1,1.525-1.869,10.09,10.09,0,0,1,2.256-1.439,8.408,8.408,0,0,1,3.244-.58,6.37,6.37,0,0,1,5.833,3.223,5.833,5.833,0,0,1,.849,2.793ZM23.579,40.8h1.01q1.1,0,6.531-.344a2.72,2.72,0,0,0,1.053-.172,1.145,1.145,0,0,0,.387-.73,3.426,3.426,0,0,0-.43-1.515,2.961,2.961,0,0,0-1.321-1.311,4.446,4.446,0,0,0-2.073-.462,4.871,4.871,0,0,0-4,1.869A4.321,4.321,0,0,0,23.579,40.8Zm16.393,6.66a16.171,16.171,0,0,0,1.2,2.643,6.1,6.1,0,0,0,1.955,1.9,4.75,4.75,0,0,0,2.471.677,3.7,3.7,0,0,0,2.428-1.053,2.447,2.447,0,0,0,.859-1.848,3.887,3.887,0,0,0-1.01-2.578,9.723,9.723,0,0,0-3.835-2.224,8.963,8.963,0,0,1-3.792-2.267,4.269,4.269,0,0,1-.967-2.75,4.334,4.334,0,0,1,.795-2.578A4.87,4.87,0,0,1,42.271,35.7a6.876,6.876,0,0,1,2.578-.569,14.407,14.407,0,0,1,2.739.236,7,7,0,0,1,2.095.73q.172,1.1.279,3.223l.043.688q-.279.021-.473.021h-.3A6.167,6.167,0,0,0,47.266,37.2a4.231,4.231,0,0,0-2.61-1.042,2.839,2.839,0,0,0-2.084.784A2.754,2.754,0,0,0,41.776,39a2.566,2.566,0,0,0,.645,1.719,8.59,8.59,0,0,0,3.019,1.714,15.714,15.714,0,0,1,3.459,1.79,5.037,5.037,0,0,1,1.6,2.01,5.649,5.649,0,0,1,.516,2.258,4.506,4.506,0,0,1-.978,2.774,5.238,5.238,0,0,1-2.449,1.817,7.92,7.92,0,0,1-2.632.527,12.363,12.363,0,0,1-5.027-1.01.843.843,0,0,1-.236-.645q0-.193-.043-.623-.344-2.9-.344-3.437a.428.428,0,0,1,.107-.344A1.087,1.087,0,0,1,39.972,47.463Z" transform="translate(1350.375 722.388)"/>
    <path id="rect52" fill="current" d="M.5-.1v150h150V-.1ZM75.65,10.906A12.784,12.784,0,0,1,81,12.107c5.335,2.431,6.8,11.28,2.564,15.513-1.268,1.268-1.925,2.572-1.461,2.9C96.4,40.567,106.539,49.829,110.321,56.282c6.795,11.594,6.221,19.843-2.236,32.137-6.822,9.917-7.392,13.248-3.752,21.907,1.211,2.881.345,3.409-5.592,3.409-3.864,0-7.025.9-7.025,2,0,3.437,9.472,5.794,23.282,5.794,14.872,0,20.442,3,22.614,12.172l1.268,5.356H117.148c-11.519,0-18.873-.434-24.222-1.929a14.089,14.089,0,0,1-3.358-1.187c-3.758-1.662-6.477-4.147-9.365-7.82l-4.067-5.171-4.067,5.171c-7.177,9.124-13.3,10.935-36.946,10.935H13.391l1.268-5.356c2.172-9.174,7.742-12.172,22.614-12.172,8.1,0,14.7-.812,18.782-2.176,1.135-.61,2.278-1.183,3.416-1.712a2.534,2.534,0,0,0,1.083-1.906c0-1.1-3.161-2-7.025-2-5.938,0-6.8-.528-5.592-3.409,3.64-8.659,3.069-11.991-3.752-21.907-8.842-12.855-9.2-21.1-1.436-33.335C45.81,50.257,53.041,42.91,58.817,38.756S69.7,30.917,70.163,30.565s-.193-1.677-1.461-2.945-2.3-4.777-2.3-7.8c0-5.371,4.121-8.89,9.253-8.915ZM71.259,117.2l-.162.11q.069.077.136.156c.009-.089.02-.179.025-.266Zm16.292,1.783-1.707.053H87.6l-.05-.053Zm7.849,8.708-.019.1.039,0,.023-.1Zm10.893,1.328,0,.019,2.338.266-2.339-.285Zm-65.125,1.656-3.118.029h3.094l.024-.029Z" transform="translate(1273.497 523.103)"/>
  </g>
</svg>
