<svg xmlns="http://www.w3.org/2000/svg" width="1644.005" height="282.426" viewBox="0 0 1644.005 282.426">
  <g id="Title" transform="translate(-97.646 -63.128)">
    <path id="path847" d="M245.707,63.128,242.215,64c-7.957,2-22.884,7.761-22.884,8.84,0,.639,2.373,1.607,5.274,2.151s6.068,1.945,7.036,3.113c2.1,2.529,2.566,18.943,2.042,71.786l-.388,39.082-6.982,1.047c-3.84.576-6.982,1.667-6.982,2.422s9.775,1.375,21.722,1.375c13.886,0,21.72-.577,21.72-1.6,0-1.761-.815-2.118-10.473-4.59l-6.593-1.688V140.222l4.6-5.582c11.066-13.426,31.479-14.226,37.3-1.463,2.592,5.678,3.464,23.238,2.008,40.376l-1.24,14.647-4.967,1.282c-10.991,2.84-6.632,4.337,12.632,4.337,19.834,0,24.768-1.549,12.892-4.05l-6.6-1.388-.775-29.519c-.735-27.955-.968-29.763-4.391-34.13-10.746-13.706-28.837-13.056-45.083,1.621l-6.382,5.765V63.128Zm1477.91.694a1.657,1.657,0,0,0-.457.072c-13.823,3.9-22.106,6.751-22.106,7.614,0,.57,2.613,2.315,5.812,3.879l5.826,2.843.4,53.94.414,53.939-3.513,1.421a56.476,56.476,0,0,1-7.783,2.333c-2.342.5-4.255,1.6-4.255,2.435,0,.921,8.554,1.521,21.72,1.521,21.178,0,28.261-1.784,15.894-4.01-3.2-.577-6.683-1.742-7.754-2.588-1.485-1.185-1.942-15.65-1.942-62.817,0-54.015-.143-60.568-2.263-60.583ZM168.707,66.361c-11.96.057-24.385,1.849-32.865,5.655-11.727,5.263-25.9,19.625-31.916,32.341-9.9,20.923-7.94,48.2,4.784,66.624,7.83,11.339,25.983,21.639,43.128,24.473,9.726,1.608,33.224.506,43.373-2.036l7.686-1.925,2.977-12.092c1.637-6.652,2.446-12.586,1.8-13.189s-1.477-.266-1.841.749-3.049,4.973-5.969,8.8c-7.953,10.415-19.67,15.555-35.612,15.624-29.664.126-45.205-17.31-46.935-52.659-1.579-32.251,7.91-52.611,29.869-64.1,6.177-3.23,9.978-4.067,18.66-4.106,14.542-.066,24.236,4.714,31.5,15.531,2.842,4.231,5.809,7.926,6.593,8.21,1.578.571,1.918-12.5.467-17.906C202.675,69.9,186.187,66.277,168.707,66.361Zm1047.95.015c-9.7-.028-19.567.895-25.143,2.731-33.777,11.119-53.027,47.436-43.7,82.455,6.043,22.7,26.117,39.77,51.442,43.745,10.889,1.709,32.6.871,43.685-1.687l7.9-1.824,3.144-12.527c3.354-13.355,3.01-16.545-1.109-10.289-5.688,8.634-13.071,15.336-20.342,18.465-18.176,7.818-37.984,5.3-50.72-6.435-8.514-7.847-12.481-15.3-15.354-28.86-8.627-40.7,10.866-78.191,42.6-81.95,15.267-1.808,33.971,7.666,38.972,19.74,3.027,7.307,5.262,4.713,4.831-5.6-.447-10.675-1.7-12.081-13.933-15.639-5.27-1.535-13.71-2.3-22.27-2.325Zm-210.745.42a12.609,12.609,0,0,0-7.364,2.212c-7.17,5.022-2.726,13.968,7.413,14.918,4.63.434,5.5,1.143,5.923,4.809.646,5.608-4.647,14.052-11.433,18.246-2.943,1.819-5.352,4.3-5.352,5.508,0,3.57,3.966,2.544,10.983-2.842,14.68-11.268,20-23.334,14.762-33.467a17.373,17.373,0,0,0-14.934-9.38ZM727.35,69.2h-2.088c-7.033.018-17.526.187-33.1.48A1.341,1.341,0,0,0,691,71.111c0,.778,2.966,1.9,6.593,2.5,11.357,1.872,11.931,2.874,5.257,9.169-9.324,8.793-36.293,30.671-49.328,40.016l-11.878,8.515,7.223,5.4c11.011,8.23,53.274,43.769,57.531,48.379l3.761,4.073h-5.6c-6.118,0-13.559,2.321-13.559,4.227h0c0,.661,13.092,1.1,29.092.967s38.341-.3,49.648-.387c19.643-.147,26.161-1.748,15.664-3.849-9.241-1.848-9.069-1.04-9.069-42.783,0-21.087-.453-38.793-1.007-39.346s-3.773,1.493-7.153,4.547a50.738,50.738,0,0,1-11.468,7.777c-5.257,2.2-5.815,5.233-.961,5.233,1.377,0,3.779,1.155,5.339,2.568,2.539,2.3,2.835,5.348,2.813,29.091-.013,14.588-.537,27.325-1.164,28.3s-4.166,2.592-7.864,3.586c-11.587,3.113-21.553-.693-36.719-14.022-5.119-4.5-19.084-16.332-31.031-26.293s-23.045-19.606-24.663-21.433c-2.913-3.289-2.9-3.357,1.535-6.827,2.463-1.928,11.468-9.423,20.009-16.657,23.41-19.822,35.478-27.636,46.055-29.821,4.972-1.027,9.041-2.621,9.041-3.543,0-.882-1.856-1.282-11.747-1.3Zm-96.863.5c-21.032,0-24.825.355-24.825,2.327,0,1.651,1.692,2.334,5.819,2.351,10.984.045,10.423-2.884,10.934,57.073.516,60.379,1.135,56.943-10.647,58.955-3.65.623-6.9,1.931-7.229,2.906h0c-.428,1.285,6.492,1.746,25.139,1.675,17.649-.069,25.554-.624,25.173-1.771-.307-.92-3.506-2.255-7.11-2.967-4.925-.974-6.917-2.256-8.024-5.168-.821-2.158-1.472-26.449-1.472-54.862,0-56.971-.376-55.024,10.97-56.838,13.074-2.091,4.985-3.677-18.728-3.677Zm1047.99,37.237c-.443,0-3.184,2.386-6.1,5.3a36.4,36.4,0,0,1-10.81,7.293c-6.9,2.493-6.926,3.838-.143,6.675,3.456,1.441,5.726,3.635,6.355,6.12.528,2.131.728,14.8.443,28.157-.6,27.2-.7,27.446-12.2,29.285-3.4.543-6.183,1.659-6.183,2.48h0c0,.891,9.168,1.487,22.706,1.475,12.481-.01,22.206-.5,21.62-1.1s-4-2.158-7.568-3.476l-6.5-2.4-.414-39.908c-.223-21.943-.763-39.9-1.213-39.9Zm-857.922,4.654c-1.281,0-2.328.645-2.328,1.433,0,2.82-7.821,10.657-13.171,13.195-3,1.422-5.448,3.122-5.448,3.777s2.46,2.365,5.469,3.8l5.468,2.608-.426,25.052c-.46,27.005-.3,26.523-9.348,28.426-2.346.494-4.267,1.582-4.267,2.42,0,.923,8.664,1.521,22.031,1.521,22.871,0,25.639-1.18,12.013-5.121l-6.892-1.994-.427-26.145c-.481-29.488-.548-29.281,11.42-34.907,12.634-5.939,24.124-3.508,28.956,6.127,2.238,4.461,2.716,9.676,2.716,29.754,0,26.4.118,26.045-9.128,27.548-2.945.48-5.645,1.741-6,2.8-.494,1.481,4.318,1.934,20.559,1.934,15.564,0,21.042-.486,20.6-1.825-.336-1-3.36-2.6-6.723-3.537l-6.116-1.711-.808-29.434c-.484-17.614-1.517-30.679-2.572-32.536-7.806-13.729-24.93-15.57-43.092-4.633a109.162,109.162,0,0,1-9.571,5.409c-.323,0-.588-3.142-.588-6.982,0-5.166-.607-6.979-2.331-6.979Zm671.822,0c-1.285,0-2.328.645-2.328,1.433,0,2.82-7.826,10.657-13.181,13.195-3,1.422-5.444,3.122-5.444,3.777s2.459,2.365,5.472,3.8l5.469,2.608-.428,25.052c-.457,27.005-.3,26.523-9.351,28.426-2.346.494-4.266,1.582-4.266,2.42,0,.923,8.661,1.521,22.027,1.521,22.877,0,25.647-1.18,12.01-5.121l-6.883-1.994-.428-26.145c-.485-29.488-.543-29.281,11.424-34.907,12.624-5.939,24.119-3.508,28.946,6.127,2.242,4.461,2.713,9.676,2.713,29.754.014,26.4.129,26.045-9.125,27.548-2.942.48-5.641,1.741-6,2.8-.486,1.481,4.327,1.934,20.564,1.934,15.565,0,21.049-.486,20.592-1.825-.328-1-3.356-2.6-6.726-3.537l-6.112-1.711-.8-29.434c-.485-17.614-1.528-30.679-2.585-32.536-7.8-13.729-24.919-15.57-43.083-4.633-4.941,2.975-9.254,5.409-9.568,5.409s-.585-3.142-.585-6.982c0-5.166-.611-6.979-2.331-6.979Zm-977.964,1.491c-15.478,0-28.2,8.9-28.2,21.782,0,9.821,4.7,14.878,21.326,22.929,21.814,10.567,27.5,20.432,17.286,29.976-10.283,9.6-27.1,3.115-33.524-12.939-3.791-9.475-5.636-7.2-4.394,5.415.61,6.188,1.387,11.528,1.727,11.871s3.947,1.558,8.016,2.7c9.406,2.648,23.794,1.686,30.108-2.012,8.061-4.721,11.42-10.537,11.42-19.777,0-12.083-4.9-17.648-23.2-26.376-8.037-3.833-15.357-8.357-16.265-10.053a12.722,12.722,0,0,1,11.237-18.8c6.622,0,14.809,5.448,18.016,11.989,3.366,6.866,6.338,6.517,6.312-.74-.036-9.865-1.325-12.248-7.656-14.144a42.625,42.625,0,0,0-12.213-1.821Zm538.383,0c-15.478,0-28.2,8.9-28.2,21.782,0,9.822,4.8,15.042,20.591,22.416,16.137,7.533,21.008,11.889,22.317,19.957.781,4.815.231,6.256-4.011,10.5-4.51,4.51-5.562,4.855-12.691,4.171-9.021-.867-16.3-6.742-20.848-16.836-4.247-9.417-5.918-7.562-4.664,5.177.61,6.188,1.387,11.528,1.728,11.871s3.947,1.558,8.014,2.7c9.485,2.67,23.8,1.678,30.266-2.1,8.257-4.821,12.435-12.345,11.636-20.944-1.031-11.078-6.453-16.992-22.517-24.566-7.447-3.511-14.747-7.9-16.222-9.754a11.649,11.649,0,0,1,1.06-15.853c7.23-7.23,20.838-3.341,27.437,7.842,4.123,6.988,6,6.862,5.971-.4-.036-9.865-1.325-12.248-7.656-14.144a42.616,42.616,0,0,0-12.217-1.819Zm-611.1.117c-10.247.037-20.071,3.718-25.048,10.043-4.79,6.09-4.662,17.7.256,23.42,1.993,2.317,10.146,7.418,18.117,11.335,16.072,7.9,20.771,12.715,20.771,21.3,0,11.011-12.472,16.334-24.69,10.536-5.207-2.47-11.994-10.943-13.892-17.34-.57-1.92-1.686-3.491-2.482-3.491-1.649,0-1.876,8.835-.45,17.467.878,5.317,1.6,6.026,8.128,8.038,27,8.315,49.62-7.811,41.346-29.478-3.11-8.143-8.187-12.271-23.815-19.361-6.246-2.834-12.355-6.579-13.576-8.322-5.578-7.963.541-19.545,10.327-19.545,6.632,0,14.209,4.939,17.8,11.6,5.3,9.844,8.167,6.394,5.929-7.139-.8-4.86-1.721-5.861-6.756-7.37a41.345,41.345,0,0,0-11.973-1.693Zm-77.519.705a34.633,34.633,0,0,0-7.153.731c-18.1,3.881-28.907,18.067-30.3,39.758-1.411,21.98,8.035,36.206,27.16,40.9,8,1.962,18.327.506,26.778-3.777,7.894-4,15.551-10.989,15.551-14.193,0-3-2.163-2.623-5.381.931-4.474,4.945-15.3,8.308-24.032,7.47-16.115-1.549-26.488-14.042-27.732-33.4l-.624-9.7h56.217l-.007-4.267c-.01-5.159-5.479-14.5-11.029-18.834-4.572-3.567-12.117-5.634-19.455-5.619Zm572.379.131c-14.746-.04-27.915,8.982-31.274,23.976-2.649,11.818,1.284,22.722,10.706,29.688,2.555,1.888,4.645,3.93,4.645,4.538s-3.533,2.373-7.85,3.926c-9.328,3.354-11.43,5.506-10.193,10.433.867,3.456,11.438,11.881,14.906,11.881,3.727,0,.982,3.033-7.457,8.243-15.935,9.836-18.177,22.833-5.309,30.785A75.8,75.8,0,0,0,915.8,242.96c9.176,3.416,36.252,1.965,46.328-2.48,9.326-4.116,18.223-13.126,19.728-19.981,1.627-7.406-1.655-16.768-7.351-20.979-7.017-5.187-8.612-5.584-29.167-7.263-20.389-1.667-30.905-4.874-30.905-9.428,0-4.314,8.063-7.714,21.5-9.069,13.7-1.381,19.557-3.971,26.286-11.636,6.593-7.509,8.4-20.324,4.287-30.456-.863-2.127.144-2.231,8.394-.866,10.553,1.745,13.473.417,11.658-5.3-1.041-3.281-1.671-3.413-11.794-2.472-10.025.932-11.234.69-19.3-3.866a38.663,38.663,0,0,0-18.907-5.133Zm377.688.346c-.433,0-.87,0-1.314.01-17.672.237-29.429,7.372-36.949,22.421-6,12.008-6.338,23.177-1.044,34.546,6.125,13.152,16.171,21.326,29.431,23.948,15.815,3.126,33.1-2.422,43.465-13.948,15.391-17.119,13.531-41.241-4.4-57.024-8.433-7.419-15.833-9.974-29.193-9.953Zm303.418.435c-19.721-.084-31.374,6.35-38.614,21.1-10.682,21.728-.514,50.874,20.406,58.528,12.367,4.531,26.775,2.176,38.257-6.252,4.427-3.249,7.483-6.707,7.483-8.464,0-3.89-.228-3.833-8.6,2.065-6.326,4.461-8.325,5.037-17.507,5.042-12.438.007-18.179-3.337-24.662-14.4-8.64-14.739-4.327-41.1,7.925-48.574,7.611-4.64,14.852-3.861,22.149,2.381,8.154,6.974,12.995,8.192,16.636,4.174,3.613-3.99,2.785-7.621-2.642-11.669-3.37-2.519-7.183-3.389-16.793-3.825-1.39-.067-2.73-.1-4.05-.107Zm-302.719,2.827a25.568,25.568,0,0,1,22.927,13.867c10.465,20.514,5.047,49.607-10.739,57.66-10.662,5.439-24.562,3.332-32.115-4.868-11.037-11.983-11.99-41.627-1.791-55.706a26.433,26.433,0,0,1,21.7-10.953Zm-379.177.155c5.979,0,7.778.824,12.825,5.87,4.9,4.9,6.049,7.3,6.957,14.579,1.8,14.377-2.036,25.812-10.039,29.95-8.711,4.5-17.893,2.251-23.924-5.871-2.4-3.233-3.374-7.27-3.8-15.774-1.015-19.856,4.55-28.755,17.972-28.755Zm446.156,0c-7.561,0-12.894.642-12.894,1.552,0,.853,1.589,1.552,3.533,1.552a14.087,14.087,0,0,1,6.806,2.291c3.1,2.173,3.27,3.6,3.257,27.8-.016,28.888,1.505,34.5,11.07,40.875h0c8.911,5.935,22.053,3.459,35.308-6.652,2.74-2.091,5.379-3.8,5.863-3.8s.878,3.217.878,7.149c0,6.189.364,7,2.715,6.056,1.494-.6,7.424-2.245,13.178-3.656,11.928-2.926,13.72-6.033,3.89-6.745l-6.594-.477-.418-32.97-.418-32.97h-15.5c-16.392,0-20.768,2.045-7.69,3.594,4.287.508,8.475,1.344,9.309,1.859.885.547,1.514,11.488,1.514,26.332v25.4l-4.091,3.219c-5.6,4.407-18.738,8.091-24.8,6.953a18.57,18.57,0,0,1-8.6-4.8c-3.54-3.777-3.62-4.541-3.529-33.21l.093-29.344Zm-1017.68.187c7.98-.112,15.117,4.392,17.066,12.638.837,3.534.393,4.525-2.51,5.611-3.79,1.418-33.357,3.174-36.385,2.162s.713-9.119,6.586-14.275a23.745,23.745,0,0,1,15.232-6.137Zm570.9,84.25a197.269,197.269,0,0,1,22.331,1.831c9.211,1.127,15.91,7.032,15.91,14.022,0,8.661-3.71,13.833-13.282,18.517-10.636,5.2-27.559,6.623-37.021,3.106-9.623-3.577-15.565-10.49-15.565-18.106,0-5.339.911-7.2,5.658-11.548,6.013-5.519,11.227-7.841,21.963-7.822Z"/>
    <path id="path863" d="M1320.14,94.574a23.994,23.994,0,0,1,.414-3l.414-2.184-1.9-2.041c-4.672-5.017-4.762-9.747-.243-12.823a5.68,5.68,0,0,1,6.281-.077l1.152.906,1.285-1.015c1.6-1.267,1.912-3.855.46-3.855-.485,0-.874-.291-.874-.655s.388-.655.874-.655a.772.772,0,0,0,.874-.874.874.874,0,1,1,1.747,0,.772.772,0,0,0,.874.874c.485,0,.874.291.874.655s-.388.655-.874.655c-1.325,0-1.169,2.286.253,3.708l1.126,1.126,1.437-.888c3.715-2.3,8.96.339,9.7,4.87.341,2.1-1.273,5.62-3.738,8.143l-1.844,1.887.466,2.175c.909,4.24,1.761,3.879-9.144,3.879-9.084,0-9.61-.045-9.61-.814Zm17.91-1.152c0-.559-1.213-.655-8.3-.655s-8.3.1-8.3.655,1.213.655,8.3.655S1338.05,93.982,1338.05,93.422Zm-14.472-2.69c-.79-.952-1.69-.688-1.69.5,0,1,.088,1.043,1.089.587.843-.388.983-.631.6-1.086Zm14.036.5c0-1.166-.794-1.434-1.664-.564-.413.413-.313.648.459,1.077a11.229,11.229,0,0,0,1.1.564,2.7,2.7,0,0,0,.1-1.076Zm-5.679-.835a4.254,4.254,0,0,0-1.092-.873c-1.014-.665-1.173-.663-2.225.027l-1.133.742,1.007.76c.9.679,1.137.693,2.225.13a4.224,4.224,0,0,0,1.217-.786Zm-5.027-2.483a19.109,19.109,0,0,1,8.459.558c1.412.439,1.551.371,3.822-1.872,3.887-3.839,4.643-7.618,2.024-10.116-1.99-1.9-3.377-2.209-5.558-1.244-2.083.921-3.66,3.152-4.854,6.867-.378,1.175-.788,2.431-.912,2.791s-.509-.425-.855-1.746c-1.016-3.876-2.8-6.619-5.065-7.785-1.819-.937-2.079-.966-3.463-.387a8.514,8.514,0,0,0-2.678,2.029c-2.161,2.568-1.331,5.784,2.525,9.788,1.6,1.666,2.241,2.058,2.989,1.841.522-.152,2.127-.478,3.567-.724Zm-5.743-2.68c-2.225-2.311-2.771-3.355-2.771-5.292a3,3,0,0,1,1.344-2.65,4.707,4.707,0,0,1,2.236-1.131c1.41,0,4.051,3.012,5.09,5.8,1.391,3.738,1.306,4.089-1.081,4.447a20.481,20.481,0,0,0-2.521.5c-.275.106-1.308-.647-2.3-1.673Zm12.581,1.285-2.339-.449.253-1.558c.424-2.61,2.813-6.974,4.215-7.7,1.739-.9,2.34-.825,3.89.48a4.1,4.1,0,0,1,.856,5.123c-.547,1.069-3.932,4.7-4.3,4.61-.13-.032-1.289-.259-2.576-.506Zm-3.558-6.115a8.433,8.433,0,0,1,.869-2.268c.79-1.549.809-1.8.208-2.713-.814-1.243-2-1.292-3.05-.128-.773.854-.768.938.151,2.778a10.264,10.264,0,0,1,.948,2.4.472.472,0,0,0,.437.5.514.514,0,0,0,.439-.568Zm-1.06-3.223c-.358-.934.441-1.812,1.074-1.179.475.475.136,1.908-.451,1.908-.189,0-.469-.328-.623-.728Z" transform="translate(-560.539 -1.981)"/>
    <path id="path863-2" d="M2988.28,96.28a24.063,24.063,0,0,1,.414-3l.414-2.184-1.9-2.041c-4.672-5.017-4.762-9.747-.243-12.823a5.681,5.681,0,0,1,6.281-.077l1.152.906,1.286-1.015c1.6-1.267,1.912-3.855.46-3.855-.486,0-.874-.291-.874-.655s.388-.655.874-.655a.772.772,0,0,0,.874-.874.874.874,0,1,1,1.747,0,.772.772,0,0,0,.874.874c.485,0,.874.291.874.655s-.388.655-.874.655c-1.325,0-1.169,2.286.252,3.708l1.126,1.126,1.437-.888c3.714-2.3,8.96.339,9.7,4.87.341,2.1-1.274,5.62-3.738,8.143l-1.844,1.887.467,2.175c.909,4.24,1.761,3.879-9.144,3.879C2988.81,97.094,2988.28,97.05,2988.28,96.28Zm17.91-1.152c0-.559-1.213-.655-8.3-.655s-8.3.1-8.3.655,1.213.655,8.3.655S3006.19,95.688,3006.19,95.128Zm-14.472-2.69c-.79-.952-1.69-.688-1.69.5,0,1,.088,1.043,1.089.587.843-.388.983-.631.6-1.086Zm14.036.5c0-1.166-.794-1.434-1.665-.564-.413.413-.313.648.459,1.077a11.2,11.2,0,0,0,1.1.564,2.692,2.692,0,0,0,.1-1.076Zm-5.679-.835a4.251,4.251,0,0,0-1.092-.873c-1.014-.665-1.173-.663-2.225.027l-1.133.742,1.007.76c.9.679,1.137.693,2.225.13a4.225,4.225,0,0,0,1.217-.786Zm-5.028-2.483a19.11,19.11,0,0,1,8.459.558c1.412.439,1.551.371,3.822-1.872,3.887-3.839,4.643-7.618,2.024-10.116-1.99-1.9-3.376-2.209-5.558-1.244-2.083.921-3.66,3.152-4.854,6.867-.378,1.175-.788,2.431-.912,2.791s-.509-.425-.855-1.746c-1.016-3.876-2.8-6.619-5.065-7.785-1.819-.937-2.078-.966-3.463-.387a8.518,8.518,0,0,0-2.678,2.029c-2.16,2.568-1.331,5.784,2.525,9.788,1.6,1.666,2.241,2.058,2.989,1.841.522-.152,2.127-.478,3.567-.724Zm-5.743-2.68c-2.225-2.311-2.771-3.355-2.771-5.292a3,3,0,0,1,1.344-2.65,4.708,4.708,0,0,1,2.236-1.131c1.41,0,4.051,3.012,5.09,5.8,1.391,3.738,1.306,4.089-1.081,4.447a20.5,20.5,0,0,0-2.522.5c-.275.106-1.308-.647-2.3-1.673Zm12.581,1.285-2.339-.449.253-1.558c.424-2.61,2.813-6.974,4.215-7.7,1.739-.9,2.34-.825,3.89.48a4.1,4.1,0,0,1,.856,5.123c-.547,1.069-3.932,4.7-4.3,4.61-.13-.032-1.289-.259-2.576-.506Zm-3.558-6.115a8.429,8.429,0,0,1,.869-2.268c.79-1.549.809-1.8.208-2.713-.814-1.243-2-1.292-3.05-.128-.773.854-.768.938.151,2.778a10.251,10.251,0,0,1,.947,2.4.472.472,0,0,0,.437.5.514.514,0,0,0,.437-.563Zm-1.06-3.223c-.358-.934.441-1.812,1.074-1.179.475.475.136,1.908-.451,1.908-.19,0-.47-.328-.62-.729Z" transform="translate(-1328.331 -2.766)"/>
  </g>
  <path id="Path_1" data-name="Path 1" d="M18.425,11.255a15.994,15.994,0,0,1-6.381-1.312A16.368,16.368,0,0,1,6.633,6.164,18.377,18.377,0,0,1,2.912.141,21.893,21.893,0,0,1,1.523-7.876a22.916,22.916,0,0,1,1.363-8.1,18.987,18.987,0,0,1,3.773-6.259,16.536,16.536,0,0,1,5.633-4.015,17.175,17.175,0,0,1,6.943-1.417,16.969,16.969,0,0,1,4.978.682,18.5,18.5,0,0,1,4.244,1.914l1.074-1.783h2.1l.236,13.27H29.716a31.328,31.328,0,0,0-1.257-4.209,16.267,16.267,0,0,0-1.965-3.842,9.528,9.528,0,0,0-2.986-2.793,7.7,7.7,0,0,0-3.955-1.01,10.161,10.161,0,0,0-4.728,1.129,10.766,10.766,0,0,0-3.785,3.333,16.454,16.454,0,0,0-2.384,5.407,28.747,28.747,0,0,0-.864,7.323A22.482,22.482,0,0,0,8.7-1.7a16.942,16.942,0,0,0,2.581,5.236,12.437,12.437,0,0,0,3.969,3.491,10.454,10.454,0,0,0,5.122,1.26,11.022,11.022,0,0,0,3.9-.669,10.476,10.476,0,0,0,3.091-1.77A13.8,13.8,0,0,0,29.666,3.23,14.491,14.491,0,0,0,31.29.03l1.967.944Q31,6.508,27.282,8.881A16.119,16.119,0,0,1,18.425,11.255Zm37.228-23.42A4.343,4.343,0,0,1,55-9.791a2.222,2.222,0,0,1-2.019,1.036,3.068,3.068,0,0,1-2.242-.761,2.314,2.314,0,0,1-.774-1.678,5.513,5.513,0,0,1,.092-1.049q.092-.472.17-.944a5.809,5.809,0,0,0-2.885,1,8.525,8.525,0,0,0-2.806,2.832V5.7a2.824,2.824,0,0,0,.354,1.495A2.141,2.141,0,0,0,46,8.055a7.011,7.011,0,0,0,1.692.393q1.036.131,1.8.184v1.731H35.853V8.632q.6-.052,1.246-.1a4.789,4.789,0,0,0,1.115-.209A1.885,1.885,0,0,0,39.3,7.493a2.946,2.946,0,0,0,.354-1.532V-9.992a3.633,3.633,0,0,0-.38-1.6,3.181,3.181,0,0,0-1.062-1.257,3.581,3.581,0,0,0-1.18-.458,10.489,10.489,0,0,0-1.469-.2v-1.731l8.6-.577.367.367V-11.8h.131a11.767,11.767,0,0,1,3.619-3.226,7.653,7.653,0,0,1,3.645-1.1,3.566,3.566,0,0,1,2.688,1.075A3.983,3.983,0,0,1,55.654-12.165ZM80.83,4.279a13.244,13.244,0,0,1-4.353,4.93,10.961,10.961,0,0,1-6.268,1.836,12.746,12.746,0,0,1-5.468-1.1,10.736,10.736,0,0,1-3.868-2.99A12.7,12.7,0,0,1,58.6,2.548a18.613,18.613,0,0,1-.747-5.324,15.691,15.691,0,0,1,.8-4.944A13.947,13.947,0,0,1,61-12.086a11.359,11.359,0,0,1,3.711-3,10.7,10.7,0,0,1,4.97-1.141,11.962,11.962,0,0,1,4.852.892A8.635,8.635,0,0,1,77.814-12.9a9.737,9.737,0,0,1,1.8,3.462A15.186,15.186,0,0,1,80.2-5.11v1.731H63.075a20.365,20.365,0,0,0,.485,4.626A11.089,11.089,0,0,0,65.095,4.9a7.3,7.3,0,0,0,2.675,2.4,8.254,8.254,0,0,0,3.934.881,7.249,7.249,0,0,0,4.026-1.094,10.819,10.819,0,0,0,3.265-3.941Zm-5.8-9.861a21.367,21.367,0,0,0-.249-3.137,9.6,9.6,0,0,0-.8-2.8,5.319,5.319,0,0,0-1.652-1.961,4.5,4.5,0,0,0-2.7-.758,5.621,5.621,0,0,0-4.576,2.288,10.657,10.657,0,0,0-1.98,6.367ZM108.315,9.891q-1.233.446-2.164.721a7.444,7.444,0,0,1-2.111.275,5.145,5.145,0,0,1-3.265-.957,4.419,4.419,0,0,1-1.56-2.793h-.157A12.791,12.791,0,0,1,95.4,10.022a10.257,10.257,0,0,1-4.708,1,6.664,6.664,0,0,1-4.786-1.783A6.147,6.147,0,0,1,84.03,4.567a7.954,7.954,0,0,1,.42-2.675A6.394,6.394,0,0,1,85.708-.232a6.293,6.293,0,0,1,1.731-1.4,15.126,15.126,0,0,1,2.019-.983q1.18-.446,4.786-1.652A35.876,35.876,0,0,0,99.11-6.159v-2.6a10.992,10.992,0,0,0-.144-1.311,5.491,5.491,0,0,0-.616-1.836,5.223,5.223,0,0,0-1.482-1.692,4.438,4.438,0,0,0-2.714-.721,6.084,6.084,0,0,0-2.242.407,4.069,4.069,0,0,0-1.456.852,7.175,7.175,0,0,0,.249,1.547,8.02,8.02,0,0,1,.249,1.888,2.253,2.253,0,0,1-.826,1.678,3.261,3.261,0,0,1-2.295.761,2.147,2.147,0,0,1-1.928-.931,3.694,3.694,0,0,1-.616-2.085,3.72,3.72,0,0,1,.852-2.308,8.56,8.56,0,0,1,2.216-1.967,12.06,12.06,0,0,1,2.859-1.246,11.216,11.216,0,0,1,3.278-.511,21.477,21.477,0,0,1,3.842.3,7.055,7.055,0,0,1,2.977,1.3,6.049,6.049,0,0,1,2.032,2.636,11.246,11.246,0,0,1,.695,4.288q0,3.75-.079,6.648t-.079,6.334a3.2,3.2,0,0,0,.354,1.626,2.872,2.872,0,0,0,1.088,1.023,2.673,2.673,0,0,0,1.246.262q.852.026,1.744.026ZM99.162-3.956q-2.229.657-3.908,1.288a15.808,15.808,0,0,0-3.121,1.577,7.108,7.108,0,0,0-2.072,2.116,5.385,5.385,0,0,0-.761,2.9,4.1,4.1,0,0,0,1.141,3.206,4.172,4.172,0,0,0,2.9,1.025,5.946,5.946,0,0,0,3.278-.907A9.55,9.55,0,0,0,99,5.111ZM126.857,9.235q-1.7.708-3.226,1.193a12.379,12.379,0,0,1-3.724.485q-3.252,0-4.576-1.639a7.189,7.189,0,0,1-1.324-4.629V-12.873h-4.668v-2.518h4.773v-8.051h4.773v8.051h7.422v2.518h-7.369V1.578a25.9,25.9,0,0,0,.118,2.714,5.049,5.049,0,0,0,.564,1.9,2.7,2.7,0,0,0,1.259,1.154,5.383,5.383,0,0,0,2.255.393q.656,0,1.928-.118a8.482,8.482,0,0,0,1.8-.3ZM152.4,4.279a13.243,13.243,0,0,1-4.353,4.93,10.961,10.961,0,0,1-6.268,1.836,12.746,12.746,0,0,1-5.468-1.1,10.736,10.736,0,0,1-3.868-2.99,12.7,12.7,0,0,1-2.269-4.406,18.612,18.612,0,0,1-.747-5.324,15.691,15.691,0,0,1,.8-4.944,13.948,13.948,0,0,1,2.347-4.367,11.359,11.359,0,0,1,3.711-3,10.7,10.7,0,0,1,4.97-1.141,11.962,11.962,0,0,1,4.852.892,8.635,8.635,0,0,1,3.278,2.439,9.738,9.738,0,0,1,1.8,3.462,15.186,15.186,0,0,1,.59,4.327v1.731H134.646a20.365,20.365,0,0,0,.485,4.626A11.088,11.088,0,0,0,136.665,4.9a7.3,7.3,0,0,0,2.675,2.4,8.254,8.254,0,0,0,3.934.881A7.249,7.249,0,0,0,147.3,7.092a10.819,10.819,0,0,0,3.265-3.941Zm-5.8-9.861a21.37,21.37,0,0,0-.249-3.137,9.6,9.6,0,0,0-.8-2.8,5.319,5.319,0,0,0-1.652-1.961,4.5,4.5,0,0,0-2.7-.758,5.621,5.621,0,0,0-4.576,2.288,10.657,10.657,0,0,0-1.98,6.367Zm43.9,13.27a7.658,7.658,0,0,1,1.652,2.255,7.2,7.2,0,0,1,.6,3.121,7.65,7.65,0,0,1-3.278,6.347,13.639,13.639,0,0,1-4.2,1.914,22.751,22.751,0,0,1-6.032.682q-5.875,0-8.786-1.718a5.5,5.5,0,0,1-2.911-5.022,4.966,4.966,0,0,1,2.1-4.222,9.445,9.445,0,0,1,5.35-1.678V9a16.079,16.079,0,0,1-1.626-.59,6.3,6.3,0,0,1-1.442-.826,4.47,4.47,0,0,1-1.1-1.3,3.731,3.731,0,0,1-.42-1.849,3.883,3.883,0,0,1,.983-2.557,7.747,7.747,0,0,1,2.977-2.006V-.521A10.152,10.152,0,0,1,170.47-3.55a6.94,6.94,0,0,1-1.39-4.288,7.6,7.6,0,0,1,2.741-6.032,10.367,10.367,0,0,1,7.015-2.36,11.812,11.812,0,0,1,2.347.236q1.167.236,2.373.6h9.022v2.518h-6.084v.157a7.61,7.61,0,0,1,1.442,2.491,8.146,8.146,0,0,1,.472,2.675,7.31,7.31,0,0,1-2.767,5.77A9.618,9.618,0,0,1,179.2.581H176.03a4.1,4.1,0,0,0-1.259.761,1.85,1.85,0,0,0-.656,1.495,1.923,1.923,0,0,0,.551,1.482A2.891,2.891,0,0,0,176,5.013a8.324,8.324,0,0,0,1.77.262q1.01.052,2.085.079,1.154.026,3.16.157t2.845.157a6.867,6.867,0,0,1,2.426.577A7.8,7.8,0,0,1,190.507,7.688ZM183.426-7.654a8.535,8.535,0,0,0-1.246-4.891,4,4,0,0,0-3.5-1.823,4.127,4.127,0,0,0-2.111.511,3.94,3.94,0,0,0-1.429,1.456,6.115,6.115,0,0,0-.747,2.085,13.9,13.9,0,0,0-.223,2.5,8.162,8.162,0,0,0,1.272,4.747,3.852,3.852,0,0,0,3.291,1.836,3.936,3.936,0,0,0,3.475-1.823A8.107,8.107,0,0,0,183.426-7.654Zm5.035,21.689a4.02,4.02,0,0,0-.682-2.413,3.455,3.455,0,0,0-2.072-1.285q-.734-.1-3.016-.236t-5.3-.131a7.246,7.246,0,0,0-4.026,1.849,4.747,4.747,0,0,0-1.193,3.344,4.092,4.092,0,0,0,.393,1.757,4.14,4.14,0,0,0,1.364,1.547,7.53,7.53,0,0,0,2.465,1.115,14.2,14.2,0,0,0,3.777.433,10.81,10.81,0,0,0,6.071-1.482A5.042,5.042,0,0,0,188.461,14.035Zm31.733-4.144q-1.233.446-2.164.721a7.444,7.444,0,0,1-2.111.275,5.145,5.145,0,0,1-3.265-.957,4.419,4.419,0,0,1-1.56-2.793h-.157a12.791,12.791,0,0,1-3.658,2.885,10.257,10.257,0,0,1-4.708,1,6.664,6.664,0,0,1-4.786-1.783,6.147,6.147,0,0,1-1.875-4.668,7.954,7.954,0,0,1,.42-2.675,6.394,6.394,0,0,1,1.259-2.124,6.293,6.293,0,0,1,1.731-1.4,15.127,15.127,0,0,1,2.019-.983q1.18-.446,4.786-1.652a35.877,35.877,0,0,0,4.865-1.888v-2.6a11,11,0,0,0-.144-1.311,5.491,5.491,0,0,0-.616-1.836,5.222,5.222,0,0,0-1.482-1.692,4.438,4.438,0,0,0-2.714-.721,6.084,6.084,0,0,0-2.242.407,4.069,4.069,0,0,0-1.456.852,7.175,7.175,0,0,0,.249,1.547,8.019,8.019,0,0,1,.249,1.888,2.253,2.253,0,0,1-.826,1.678,3.26,3.26,0,0,1-2.295.761,2.147,2.147,0,0,1-1.928-.931,3.694,3.694,0,0,1-.616-2.085,3.72,3.72,0,0,1,.852-2.308,8.56,8.56,0,0,1,2.216-1.967,12.061,12.061,0,0,1,2.859-1.246,11.216,11.216,0,0,1,3.278-.511,21.477,21.477,0,0,1,3.842.3,7.055,7.055,0,0,1,2.977,1.3,6.049,6.049,0,0,1,2.032,2.636,11.246,11.246,0,0,1,.7,4.288q0,3.75-.079,6.648t-.079,6.334a3.2,3.2,0,0,0,.354,1.626A2.872,2.872,0,0,0,217.2,7.924a2.673,2.673,0,0,0,1.246.262q.852.026,1.744.026ZM211.042-3.956q-2.229.657-3.908,1.288a15.808,15.808,0,0,0-3.121,1.577,7.108,7.108,0,0,0-2.072,2.116,5.385,5.385,0,0,0-.761,2.9,4.1,4.1,0,0,0,1.141,3.206,4.172,4.172,0,0,0,2.9,1.025,5.946,5.946,0,0,0,3.278-.907,9.55,9.55,0,0,0,2.387-2.142Zm55.966,14.319H254.419V8.632l1.219-.1a4.717,4.717,0,0,0,1.088-.21,1.886,1.886,0,0,0,1.088-.826,2.953,2.953,0,0,0,.354-1.534V-7.392a6.364,6.364,0,0,0-1.246-4.209,3.9,3.9,0,0,0-3.108-1.482,7.274,7.274,0,0,0-2.413.393,7.607,7.607,0,0,0-2.072,1.1,6.629,6.629,0,0,0-1.272,1.246,11.705,11.705,0,0,0-.774,1.115V5.7A3.189,3.189,0,0,0,247.6,7.2a2.04,2.04,0,0,0,1.075.9,8.622,8.622,0,0,0,1.088.354,7.753,7.753,0,0,0,1.272.17v1.731H238.71V8.632q.6-.052,1.167-.1a4.625,4.625,0,0,0,1.036-.21A1.886,1.886,0,0,0,242,7.491a2.952,2.952,0,0,0,.354-1.534V-7.392a6.353,6.353,0,0,0-1.249-4.209,3.911,3.911,0,0,0-3.115-1.482,7.093,7.093,0,0,0-2.418.407,7.922,7.922,0,0,0-2.077,1.115,6.237,6.237,0,0,0-1.288,1.3q-.526.721-.789,1.088V5.643a2.828,2.828,0,0,0,.367,1.495,2.306,2.306,0,0,0,1.1.918,5.4,5.4,0,0,0,1.128.393,8.731,8.731,0,0,0,1.285.184v1.731H222.738V8.632q.6-.052,1.246-.1a4.789,4.789,0,0,0,1.115-.209,1.885,1.885,0,0,0,1.088-.825,2.947,2.947,0,0,0,.354-1.532V-10.1a2.99,2.99,0,0,0-.38-1.506,3.461,3.461,0,0,0-1.062-1.139,4.475,4.475,0,0,0-1.233-.511,7.9,7.9,0,0,0-1.521-.249v-1.731L231-15.81l.367.367v3.7h.184q.656-.656,1.6-1.547a14.284,14.284,0,0,1,1.757-1.442,8.354,8.354,0,0,1,2.295-1.049,10.165,10.165,0,0,1,2.977-.42,7.03,7.03,0,0,1,4.327,1.351,7.7,7.7,0,0,1,2.6,3.265q.942-.918,1.662-1.613a13.748,13.748,0,0,1,1.9-1.482,8.681,8.681,0,0,1,2.343-1.1,10.06,10.06,0,0,1,3-.42,6.585,6.585,0,0,1,5.184,2.151Q263.1-11.9,263.1-7.444V5.7a3.189,3.189,0,0,0,.315,1.508,2.04,2.04,0,0,0,1.075.9,7.092,7.092,0,0,0,1.193.354,10.667,10.667,0,0,0,1.324.17ZM293.05,4.279a13.243,13.243,0,0,1-4.353,4.93,10.961,10.961,0,0,1-6.268,1.836,12.746,12.746,0,0,1-5.468-1.1,10.736,10.736,0,0,1-3.868-2.99,12.7,12.7,0,0,1-2.269-4.406,18.612,18.612,0,0,1-.747-5.324,15.691,15.691,0,0,1,.8-4.944,13.947,13.947,0,0,1,2.347-4.367,11.359,11.359,0,0,1,3.711-3,10.7,10.7,0,0,1,4.97-1.141,11.962,11.962,0,0,1,4.852.892,8.635,8.635,0,0,1,3.278,2.439,9.738,9.738,0,0,1,1.8,3.462,15.186,15.186,0,0,1,.59,4.327v1.731H275.295a20.364,20.364,0,0,0,.485,4.626A11.089,11.089,0,0,0,277.314,4.9a7.3,7.3,0,0,0,2.675,2.4,8.254,8.254,0,0,0,3.934.881,7.249,7.249,0,0,0,4.026-1.094,10.819,10.819,0,0,0,3.265-3.941Zm-5.8-9.861A21.366,21.366,0,0,0,287-8.72a9.6,9.6,0,0,0-.8-2.8,5.319,5.319,0,0,0-1.652-1.961,4.5,4.5,0,0,0-2.7-.758,5.621,5.621,0,0,0-4.576,2.288,10.657,10.657,0,0,0-1.98,6.367ZM313.112-2.3a6.606,6.606,0,0,1,1.652,2.177,7.085,7.085,0,0,1,.577,3.016,7.353,7.353,0,0,1-2.688,5.875,10.388,10.388,0,0,1-6.963,2.282,10.463,10.463,0,0,1-4.157-.813,11.444,11.444,0,0,1-2.714-1.495l-.525,1.7h-1.967l-.262-9h1.81a10.057,10.057,0,0,0,.892,2.395,11.5,11.5,0,0,0,1.652,2.474,9.121,9.121,0,0,0,2.452,1.947,6.532,6.532,0,0,0,3.213.789A5.866,5.866,0,0,0,309.965,7.9a4.053,4.053,0,0,0,1.364-3.285,3.94,3.94,0,0,0-.433-1.9,4.188,4.188,0,0,0-1.272-1.4A10.014,10.014,0,0,0,307.5.227q-1.259-.485-2.806-.957a26.059,26.059,0,0,1-2.741-1.01,10.923,10.923,0,0,1-2.583-1.508A7.392,7.392,0,0,1,297.482-5.5a6.44,6.44,0,0,1-.734-3.147,7.075,7.075,0,0,1,2.36-5.376,8.892,8.892,0,0,1,6.32-2.2,12.887,12.887,0,0,1,3.108.393,10.751,10.751,0,0,1,2.583.944l.6-1.364h1.888L314-7.942h-1.81a8.357,8.357,0,0,0-2.373-4.543,6.176,6.176,0,0,0-4.445-1.751,4.949,4.949,0,0,0-3.383,1.083,3.36,3.36,0,0,0-1.233,2.615,4.258,4.258,0,0,0,.406,1.967,3.62,3.62,0,0,0,1.22,1.338,10.173,10.173,0,0,0,1.98.983q1.193.459,2.95,1.036a25.374,25.374,0,0,1,3.265,1.285A10.71,10.71,0,0,1,313.112-2.3Zm44.322-.525a17.075,17.075,0,0,1-.866,5.363A12.775,12.775,0,0,1,354.1,7.006a11.488,11.488,0,0,1-4.2,3.121,13.479,13.479,0,0,1-5.356,1.023,12.082,12.082,0,0,1-4.7-.931A11.841,11.841,0,0,1,335.88,7.5a12.978,12.978,0,0,1-2.717-4.288,15.192,15.192,0,0,1-1.011-5.678,14.105,14.105,0,0,1,3.531-9.913,11.959,11.959,0,0,1,9.254-3.855,11.926,11.926,0,0,1,8.966,3.659A13.436,13.436,0,0,1,357.434-2.828Zm-5.429.052a23.507,23.507,0,0,0-.394-4.157,13.118,13.118,0,0,0-1.182-3.711,7.255,7.255,0,0,0-2.207-2.609,5.56,5.56,0,0,0-3.337-.983,5.9,5.9,0,0,0-3.455,1,7.353,7.353,0,0,0-2.325,2.727,12.052,12.052,0,0,0-1.182,3.645,24.042,24.042,0,0,0-.342,3.96,24.9,24.9,0,0,0,.407,4.655,13.423,13.423,0,0,0,1.3,3.816A7.426,7.426,0,0,0,341.535,8.2a5.654,5.654,0,0,0,3.35.957,5.848,5.848,0,0,0,5.2-3.173Q352.005,2.81,352.005-2.776Zm28.4-24.311a3.158,3.158,0,0,1-.629,1.993,2.27,2.27,0,0,1-1.914.813,2.9,2.9,0,0,1-1.429-.341,4.467,4.467,0,0,1-1.141-.918,8.5,8.5,0,0,1-.97-1.311q-.446-.734-.761-1.18-1.757.079-2.714,2.447a21.708,21.708,0,0,0-.957,7.55v2.643h6.661v2.518h-6.661V5.7a2.824,2.824,0,0,0,.354,1.495,2.141,2.141,0,0,0,1.115.865,8.045,8.045,0,0,0,1.678.38q1.049.144,1.81.2v1.731H361.211V8.632q.6-.052,1.246-.1a4.774,4.774,0,0,0,1.115-.21,1.886,1.886,0,0,0,1.088-.826,2.953,2.953,0,0,0,.354-1.534v-18.83H359.9v-2.518h5.114V-17.04a14.375,14.375,0,0,1,3.055-9.542,9.564,9.564,0,0,1,7.645-3.652,5.66,5.66,0,0,1,3.514.918A2.742,2.742,0,0,1,380.408-27.087Zm23.131,38.132a10.925,10.925,0,0,1-8.786-3.724Q391.58,3.6,391.58-2.671a14.98,14.98,0,0,1,.852-5.1,14.075,14.075,0,0,1,2.478-4.314,11.576,11.576,0,0,1,3.881-3,11.429,11.429,0,0,1,5.088-1.141,9.917,9.917,0,0,1,6.189,1.823,5.917,5.917,0,0,1,2.387,4.97,4.3,4.3,0,0,1-.629,2.321,2.252,2.252,0,0,1-2.072,1.01,3.414,3.414,0,0,1-2.4-.784,2.341,2.341,0,0,1-.852-1.751,9.824,9.824,0,0,1,.315-2.418,13.261,13.261,0,0,0,.367-1.817,2.315,2.315,0,0,0-1.4-1.085,7.029,7.029,0,0,0-2-.275,5.536,5.536,0,0,0-2.394.538,6.173,6.173,0,0,0-2.21,1.98,10.613,10.613,0,0,0-1.569,3.54,20.626,20.626,0,0,0-.6,5.324,13.565,13.565,0,0,0,2.16,7.96,6.628,6.628,0,0,0,5.669,3.082,7.076,7.076,0,0,0,4.255-1.239,12.082,12.082,0,0,0,3.181-3.718l1.676,1.1a13.549,13.549,0,0,1-4.563,4.9A10.724,10.724,0,0,1,403.539,11.045Zm40.571-.682h-12.72V8.632q.6-.052,1.338-.1a5.026,5.026,0,0,0,1.206-.21,1.886,1.886,0,0,0,1.088-.826,2.953,2.953,0,0,0,.354-1.534v-13.3a6.273,6.273,0,0,0-1.3-4.249,4.049,4.049,0,0,0-3.168-1.495,7.256,7.256,0,0,0-2.537.433,9.551,9.551,0,0,0-2.09,1.062,6.157,6.157,0,0,0-1.367,1.311q-.473.656-.736,1.1V5.7a2.768,2.768,0,0,0,.354,1.469,2.281,2.281,0,0,0,1.088.892,5.784,5.784,0,0,0,1.193.393,9.894,9.894,0,0,0,1.351.184v1.731H415.5V8.632q.6-.052,1.25-.118a6.036,6.036,0,0,0,1.094-.2,1.932,1.932,0,0,0,1.094-.827,2.887,2.887,0,0,0,.365-1.535V-24.173a4.274,4.274,0,0,0-.406-1.785,3.14,3.14,0,0,0-1.062-1.339,3.775,3.775,0,0,0-1.665-.485q-1.193-.144-1.928-.2v-1.678l9.572-.577.367.393V-11.8h.1q.867-.865,1.576-1.534a12.532,12.532,0,0,1,1.865-1.4,9.88,9.88,0,0,1,2.351-1.049,10.221,10.221,0,0,1,3.034-.42,6.619,6.619,0,0,1,5.333,2.19,9.468,9.468,0,0,1,1.865,6.307V5.747a2.914,2.914,0,0,0,.33,1.482,2.162,2.162,0,0,0,1.1.879,8.718,8.718,0,0,0,1.1.354,7.859,7.859,0,0,0,1.281.17Zm26.095-6.084a13.243,13.243,0,0,1-4.354,4.93,10.961,10.961,0,0,1-6.268,1.836,12.747,12.747,0,0,1-5.468-1.1,10.736,10.736,0,0,1-3.868-2.99,12.7,12.7,0,0,1-2.269-4.406,18.613,18.613,0,0,1-.747-5.324,15.692,15.692,0,0,1,.8-4.944,13.947,13.947,0,0,1,2.347-4.367,11.359,11.359,0,0,1,3.711-3,10.7,10.7,0,0,1,4.97-1.141,11.962,11.962,0,0,1,4.852.892,8.635,8.635,0,0,1,3.278,2.439,9.737,9.737,0,0,1,1.8,3.462,15.186,15.186,0,0,1,.59,4.327v1.731H452.45a20.367,20.367,0,0,0,.485,4.626A11.089,11.089,0,0,0,454.47,4.9a7.3,7.3,0,0,0,2.675,2.4,8.254,8.254,0,0,0,3.934.881A7.249,7.249,0,0,0,465.1,7.092a10.819,10.819,0,0,0,3.265-3.941Zm-5.8-9.861a21.37,21.37,0,0,0-.249-3.137,9.6,9.6,0,0,0-.8-2.8,5.319,5.319,0,0,0-1.652-1.961,4.5,4.5,0,0,0-2.7-.758,5.621,5.621,0,0,0-4.576,2.288,10.657,10.657,0,0,0-1.98,6.367ZM490.268-2.3A6.607,6.607,0,0,1,491.92-.127a7.084,7.084,0,0,1,.577,3.016,7.353,7.353,0,0,1-2.688,5.875,10.388,10.388,0,0,1-6.963,2.282,10.463,10.463,0,0,1-4.157-.813,11.445,11.445,0,0,1-2.714-1.495l-.525,1.7h-1.967l-.262-9h1.81a10.059,10.059,0,0,0,.892,2.395,11.5,11.5,0,0,0,1.652,2.474,9.121,9.121,0,0,0,2.452,1.947,6.532,6.532,0,0,0,3.213.789A5.866,5.866,0,0,0,487.121,7.9a4.053,4.053,0,0,0,1.364-3.285,3.94,3.94,0,0,0-.433-1.9,4.189,4.189,0,0,0-1.272-1.4A10.014,10.014,0,0,0,484.656.227Q483.4-.258,481.849-.73a26.061,26.061,0,0,1-2.741-1.01,10.923,10.923,0,0,1-2.583-1.508A7.392,7.392,0,0,1,474.637-5.5a6.44,6.44,0,0,1-.734-3.147,7.075,7.075,0,0,1,2.36-5.376,8.892,8.892,0,0,1,6.32-2.2,12.886,12.886,0,0,1,3.108.393,10.75,10.75,0,0,1,2.583.944l.6-1.364h1.888l.393,8.314h-1.81a8.357,8.357,0,0,0-2.373-4.543,6.176,6.176,0,0,0-4.445-1.751,4.949,4.949,0,0,0-3.383,1.083,3.36,3.36,0,0,0-1.233,2.615,4.259,4.259,0,0,0,.407,1.967,3.62,3.62,0,0,0,1.22,1.338,10.173,10.173,0,0,0,1.98.983q1.193.459,2.95,1.036a25.372,25.372,0,0,1,3.265,1.285A10.71,10.71,0,0,1,490.268-2.3Zm23.21,0A6.607,6.607,0,0,1,515.13-.127a7.084,7.084,0,0,1,.577,3.016,7.353,7.353,0,0,1-2.688,5.875,10.388,10.388,0,0,1-6.963,2.282,10.463,10.463,0,0,1-4.157-.813,11.444,11.444,0,0,1-2.714-1.495l-.525,1.7h-1.967l-.262-9h1.81a10.057,10.057,0,0,0,.892,2.395,11.5,11.5,0,0,0,1.652,2.474,9.12,9.12,0,0,0,2.452,1.947,6.532,6.532,0,0,0,3.213.789A5.866,5.866,0,0,0,510.331,7.9a4.053,4.053,0,0,0,1.364-3.285,3.94,3.94,0,0,0-.433-1.9,4.189,4.189,0,0,0-1.272-1.4A10.013,10.013,0,0,0,507.865.227q-1.259-.485-2.806-.957a26.061,26.061,0,0,1-2.741-1.01,10.925,10.925,0,0,1-2.583-1.508A7.393,7.393,0,0,1,497.847-5.5a6.44,6.44,0,0,1-.734-3.147,7.075,7.075,0,0,1,2.36-5.376,8.892,8.892,0,0,1,6.32-2.2,12.886,12.886,0,0,1,3.108.393,10.751,10.751,0,0,1,2.583.944l.6-1.364h1.888l.393,8.314h-1.81a8.357,8.357,0,0,0-2.373-4.543,6.176,6.176,0,0,0-4.445-1.751,4.949,4.949,0,0,0-3.383,1.083,3.36,3.36,0,0,0-1.233,2.615,4.259,4.259,0,0,0,.406,1.967,3.62,3.62,0,0,0,1.219,1.338,10.176,10.176,0,0,0,1.98.983q1.193.459,2.95,1.036a25.368,25.368,0,0,1,3.265,1.285A10.709,10.709,0,0,1,513.478-2.3ZM571.1-13.817a5.446,5.446,0,0,0-2.373.918,4.607,4.607,0,0,0-1.849,2.439q-1.311,3.855-2.478,7.3t-2.609,7.75q-.472,1.364-.957,2.937t-.879,3.016h-2.237l-6.976-19.06-6.989,19.06h-2.156q-1.967-5.822-3.842-11.552t-3.318-9.979a3.55,3.55,0,0,0-1.6-1.941,5.792,5.792,0,0,0-2.282-.839V-15.5h11.534v1.836a8.522,8.522,0,0,0-1.875.288q-1.01.262-1.01.865a2.269,2.269,0,0,0,.092.446q.092.341.223.734.839,2.748,1.9,6.138t2.739,8.808l6.595-18.591h2.541l6.737,18.332q1.129-3.508,2.245-6.793T564.227-9.6q.184-.681.354-1.244a3.837,3.837,0,0,0,.17-1.115,1.093,1.093,0,0,0-.42-.839,3.44,3.44,0,0,0-1.023-.6,5.588,5.588,0,0,0-1.141-.315,6.038,6.038,0,0,0-.9-.1V-15.5H571.1Zm13.611,24.18H572.224V8.632q.6-.052,1.246-.1a4.79,4.79,0,0,0,1.115-.209,1.885,1.885,0,0,0,1.088-.825,2.947,2.947,0,0,0,.354-1.532V-9.992a3.137,3.137,0,0,0-.38-1.533,3.379,3.379,0,0,0-1.062-1.165,4.862,4.862,0,0,0-1.442-.537,10.7,10.7,0,0,0-1.731-.275v-1.731l9.127-.577.367.367V5.643a2.984,2.984,0,0,0,.352,1.521,2.086,2.086,0,0,0,1.107.892,8.924,8.924,0,0,0,1.12.38,6.9,6.9,0,0,0,1.224.2Zm-3.278-36.375a3.82,3.82,0,0,1-.983,2.609,3.109,3.109,0,0,1-2.426,1.115A3.064,3.064,0,0,1,575.7-23.35a3.471,3.471,0,0,1-.984-2.426,3.611,3.611,0,0,1,.984-2.518,3.048,3.048,0,0,1,2.321-1.075,3.23,3.23,0,0,1,2.452,1.01A3.306,3.306,0,0,1,581.429-26.012ZM603.878,9.235q-1.7.708-3.226,1.193a12.379,12.379,0,0,1-3.724.485q-3.252,0-4.576-1.639a7.189,7.189,0,0,1-1.324-4.629V-12.873h-4.668v-2.518h4.773v-8.051h4.773v8.051h7.422v2.518h-7.369V1.578a25.9,25.9,0,0,0,.118,2.714,5.049,5.049,0,0,0,.564,1.9A2.7,2.7,0,0,0,597.9,7.347a5.383,5.383,0,0,0,2.255.393q.656,0,1.927-.118a8.48,8.48,0,0,0,1.8-.3Zm30.711,1.128h-12.72V8.632q.6-.052,1.337-.1a5.026,5.026,0,0,0,1.206-.21,1.885,1.885,0,0,0,1.088-.826,2.952,2.952,0,0,0,.354-1.534v-13.3a6.273,6.273,0,0,0-1.3-4.249,4.049,4.049,0,0,0-3.168-1.495,7.257,7.257,0,0,0-2.537.433,9.551,9.551,0,0,0-2.09,1.062,6.159,6.159,0,0,0-1.367,1.311q-.473.656-.736,1.1V5.7a2.769,2.769,0,0,0,.354,1.469,2.281,2.281,0,0,0,1.088.892,5.785,5.785,0,0,0,1.193.393,9.9,9.9,0,0,0,1.351.184v1.731H605.976V8.632q.6-.052,1.25-.118a6.035,6.035,0,0,0,1.094-.2,1.931,1.931,0,0,0,1.094-.827,2.887,2.887,0,0,0,.365-1.535V-24.173a4.274,4.274,0,0,0-.407-1.785A3.139,3.139,0,0,0,608.31-27.3a3.775,3.775,0,0,0-1.665-.485q-1.193-.144-1.928-.2v-1.678l9.573-.577.367.393V-11.8h.1q.867-.865,1.576-1.534a12.535,12.535,0,0,1,1.865-1.4,9.882,9.882,0,0,1,2.351-1.049,10.221,10.221,0,0,1,3.034-.42,6.619,6.619,0,0,1,5.333,2.19,9.468,9.468,0,0,1,1.865,6.307V5.747a2.914,2.914,0,0,0,.33,1.482,2.163,2.163,0,0,0,1.1.879,8.716,8.716,0,0,0,1.1.354,7.861,7.861,0,0,0,1.281.17Zm39.706-22.79a13.471,13.471,0,0,1,2.4,4.262,16.688,16.688,0,0,1,.852,5.547,14.813,14.813,0,0,1-1.023,5.6,13.709,13.709,0,0,1-2.7,4.314,12.721,12.721,0,0,1-3.908,2.78,10.968,10.968,0,0,1-4.563.97,11.754,11.754,0,0,1-3.829-.525,9.059,9.059,0,0,1-2.439-1.233h-.21v7.781a3.1,3.1,0,0,0,.367,1.577,2.126,2.126,0,0,0,1.128.92,11.58,11.58,0,0,0,1.8.46,13.031,13.031,0,0,0,1.928.25v1.731h-14.45V20.277q.813-.052,1.574-.131a7.266,7.266,0,0,0,1.364-.262,1.774,1.774,0,0,0,1.1-.918A3.542,3.542,0,0,0,654,17.418V-10.093a3.182,3.182,0,0,0-.393-1.521,3.365,3.365,0,0,0-1.023-1.18,3.714,3.714,0,0,0-1.311-.485,12.276,12.276,0,0,0-1.626-.223v-1.731l8.812-.577.367.315v2.911l.21.052a11.321,11.321,0,0,1,3.383-2.623,8.646,8.646,0,0,1,4.013-1.049,9.587,9.587,0,0,1,4.419,1.023A10.871,10.871,0,0,1,674.294-12.427ZM670.02,6.167a11.832,11.832,0,0,0,1.547-3.777,21.3,21.3,0,0,0,.5-4.8,19.435,19.435,0,0,0-.42-3.96,11.3,11.3,0,0,0-1.311-3.514A7.333,7.333,0,0,0,668-12.348a6.18,6.18,0,0,0-3.462-.944,6.113,6.113,0,0,0-3.3.852,10,10,0,0,0-2.36,2.033V4.882a5.7,5.7,0,0,0,.774,1.469,6.906,6.906,0,0,0,1.193,1.311A7.536,7.536,0,0,0,662.6,8.724a5.832,5.832,0,0,0,2.308.406,5.665,5.665,0,0,0,2.832-.774A6.57,6.57,0,0,0,670.02,6.167Zm23.865,4.2H681.4V8.632q.6-.052,1.246-.1a4.79,4.79,0,0,0,1.115-.209,1.884,1.884,0,0,0,1.088-.825,2.946,2.946,0,0,0,.354-1.532V-9.992a3.137,3.137,0,0,0-.38-1.533,3.379,3.379,0,0,0-1.062-1.165,4.861,4.861,0,0,0-1.442-.537,10.7,10.7,0,0,0-1.731-.275v-1.731l9.127-.577.367.367V5.643a2.984,2.984,0,0,0,.352,1.521,2.086,2.086,0,0,0,1.107.892,8.921,8.921,0,0,0,1.12.38,6.9,6.9,0,0,0,1.224.2Zm-3.278-36.375a3.82,3.82,0,0,1-.983,2.609,3.109,3.109,0,0,1-2.426,1.115,3.064,3.064,0,0,1-2.321-1.062,3.471,3.471,0,0,1-.983-2.426,3.611,3.611,0,0,1,.983-2.518,3.048,3.048,0,0,1,2.321-1.075,3.23,3.23,0,0,1,2.452,1.01A3.306,3.306,0,0,1,690.607-26.012ZM720.059,4.279a13.244,13.244,0,0,1-4.354,4.93,10.961,10.961,0,0,1-6.268,1.836,12.746,12.746,0,0,1-5.468-1.1,10.735,10.735,0,0,1-3.868-2.99,12.7,12.7,0,0,1-2.269-4.406,18.615,18.615,0,0,1-.747-5.324,15.691,15.691,0,0,1,.8-4.944,13.947,13.947,0,0,1,2.347-4.367,11.359,11.359,0,0,1,3.711-3,10.7,10.7,0,0,1,4.97-1.141,11.963,11.963,0,0,1,4.852.892,8.634,8.634,0,0,1,3.278,2.439,9.738,9.738,0,0,1,1.8,3.462,15.186,15.186,0,0,1,.59,4.327v1.731H702.3a20.367,20.367,0,0,0,.485,4.626A11.09,11.09,0,0,0,704.323,4.9,7.3,7.3,0,0,0,707,7.306a8.255,8.255,0,0,0,3.934.881,7.249,7.249,0,0,0,4.026-1.094,10.819,10.819,0,0,0,3.265-3.941Zm-5.8-9.861a21.354,21.354,0,0,0-.249-3.137,9.6,9.6,0,0,0-.8-2.8,5.319,5.319,0,0,0-1.652-1.961,4.5,4.5,0,0,0-2.7-.758,5.621,5.621,0,0,0-4.576,2.288,10.656,10.656,0,0,0-1.98,6.367Zm20.745,16.627a10.924,10.924,0,0,1-8.786-3.724q-3.173-3.724-3.173-9.992a14.984,14.984,0,0,1,.852-5.1,14.074,14.074,0,0,1,2.478-4.314,11.575,11.575,0,0,1,3.881-3,11.429,11.429,0,0,1,5.088-1.141,9.917,9.917,0,0,1,6.189,1.823,5.917,5.917,0,0,1,2.387,4.97,4.3,4.3,0,0,1-.629,2.321,2.252,2.252,0,0,1-2.072,1.01,3.414,3.414,0,0,1-2.4-.784,2.341,2.341,0,0,1-.852-1.751,9.825,9.825,0,0,1,.315-2.418,13.261,13.261,0,0,0,.367-1.817,2.315,2.315,0,0,0-1.4-1.085,7.03,7.03,0,0,0-2-.275,5.537,5.537,0,0,0-2.394.538,6.172,6.172,0,0,0-2.21,1.98,10.613,10.613,0,0,0-1.57,3.54,20.633,20.633,0,0,0-.6,5.324,13.565,13.565,0,0,0,2.16,7.96,6.628,6.628,0,0,0,5.669,3.082,7.075,7.075,0,0,0,4.255-1.239,12.082,12.082,0,0,0,3.181-3.718l1.676,1.1a13.55,13.55,0,0,1-4.563,4.9A10.724,10.724,0,0,1,735.007,11.045Zm35.4-6.766a13.244,13.244,0,0,1-4.353,4.93,10.961,10.961,0,0,1-6.268,1.836,12.746,12.746,0,0,1-5.468-1.1,10.735,10.735,0,0,1-3.868-2.99,12.7,12.7,0,0,1-2.269-4.406,18.612,18.612,0,0,1-.747-5.324,15.691,15.691,0,0,1,.8-4.944,13.947,13.947,0,0,1,2.347-4.367,11.359,11.359,0,0,1,3.711-3,10.7,10.7,0,0,1,4.97-1.141,11.962,11.962,0,0,1,4.852.892A8.634,8.634,0,0,1,767.4-12.9a9.738,9.738,0,0,1,1.8,3.462,15.186,15.186,0,0,1,.59,4.327v1.731H752.657a20.364,20.364,0,0,0,.485,4.626A11.088,11.088,0,0,0,754.677,4.9a7.3,7.3,0,0,0,2.675,2.4,8.254,8.254,0,0,0,3.934.881,7.249,7.249,0,0,0,4.026-1.094,10.819,10.819,0,0,0,3.265-3.941Zm-5.8-9.861a21.362,21.362,0,0,0-.249-3.137,9.6,9.6,0,0,0-.8-2.8,5.319,5.319,0,0,0-1.652-1.961,4.5,4.5,0,0,0-2.7-.758,5.621,5.621,0,0,0-4.576,2.288,10.657,10.657,0,0,0-1.98,6.367ZM790.475-2.3a6.606,6.606,0,0,1,1.652,2.177,7.084,7.084,0,0,1,.577,3.016,7.353,7.353,0,0,1-2.688,5.875,10.388,10.388,0,0,1-6.963,2.282,10.463,10.463,0,0,1-4.157-.813,11.442,11.442,0,0,1-2.714-1.495l-.525,1.7H773.69l-.262-9h1.81a10.058,10.058,0,0,0,.892,2.395,11.51,11.51,0,0,0,1.652,2.474,9.121,9.121,0,0,0,2.452,1.947,6.532,6.532,0,0,0,3.213.789A5.866,5.866,0,0,0,787.328,7.9a4.053,4.053,0,0,0,1.364-3.285,3.941,3.941,0,0,0-.433-1.9,4.189,4.189,0,0,0-1.272-1.4A10.013,10.013,0,0,0,784.862.227Q783.6-.258,782.056-.73a26.066,26.066,0,0,1-2.741-1.01,10.924,10.924,0,0,1-2.583-1.508A7.391,7.391,0,0,1,774.844-5.5a6.44,6.44,0,0,1-.734-3.147,7.075,7.075,0,0,1,2.36-5.376,8.892,8.892,0,0,1,6.32-2.2,12.886,12.886,0,0,1,3.108.393,10.752,10.752,0,0,1,2.583.944l.6-1.364h1.888l.393,8.314h-1.81a8.356,8.356,0,0,0-2.373-4.543,6.176,6.176,0,0,0-4.445-1.751,4.949,4.949,0,0,0-3.383,1.083,3.36,3.36,0,0,0-1.233,2.615,4.259,4.259,0,0,0,.406,1.967,3.621,3.621,0,0,0,1.22,1.338,10.17,10.17,0,0,0,1.98.983q1.193.459,2.95,1.036a25.374,25.374,0,0,1,3.265,1.285A10.711,10.711,0,0,1,790.475-2.3ZM825.539,9.235q-1.7.708-3.226,1.193a12.379,12.379,0,0,1-3.724.485q-3.252,0-4.576-1.639a7.19,7.19,0,0,1-1.324-4.629V-12.873H808.02v-2.518h4.773v-8.051h4.773v8.051h7.422v2.518h-7.369V1.578a25.9,25.9,0,0,0,.118,2.714,5.048,5.048,0,0,0,.564,1.9,2.7,2.7,0,0,0,1.259,1.154,5.384,5.384,0,0,0,2.255.393q.656,0,1.928-.118a8.481,8.481,0,0,0,1.8-.3Zm30.71,1.128H843.53V8.632q.6-.052,1.338-.1a5.026,5.026,0,0,0,1.206-.21,1.886,1.886,0,0,0,1.088-.826,2.952,2.952,0,0,0,.354-1.534v-13.3a6.274,6.274,0,0,0-1.3-4.249,4.049,4.049,0,0,0-3.168-1.495,7.256,7.256,0,0,0-2.536.433,9.548,9.548,0,0,0-2.09,1.062,6.161,6.161,0,0,0-1.367,1.311q-.473.656-.736,1.1V5.7a2.768,2.768,0,0,0,.354,1.469,2.281,2.281,0,0,0,1.088.892,5.786,5.786,0,0,0,1.193.393,9.894,9.894,0,0,0,1.351.184v1.731H827.637V8.632q.6-.052,1.25-.118a6.034,6.034,0,0,0,1.094-.2,1.932,1.932,0,0,0,1.094-.827,2.888,2.888,0,0,0,.365-1.535V-24.173a4.273,4.273,0,0,0-.406-1.785,3.14,3.14,0,0,0-1.062-1.339,3.776,3.776,0,0,0-1.665-.485q-1.193-.144-1.928-.2v-1.678l9.572-.577.367.393V-11.8h.1q.867-.865,1.576-1.534a12.539,12.539,0,0,1,1.865-1.4,9.881,9.881,0,0,1,2.351-1.049,10.22,10.22,0,0,1,3.034-.42,6.618,6.618,0,0,1,5.333,2.19,9.467,9.467,0,0,1,1.865,6.307V5.747a2.914,2.914,0,0,0,.33,1.482,2.162,2.162,0,0,0,1.1.879,8.722,8.722,0,0,0,1.1.354,7.862,7.862,0,0,0,1.281.17Zm27.616-.472q-1.233.446-2.164.721a7.444,7.444,0,0,1-2.111.275,5.145,5.145,0,0,1-3.265-.957,4.419,4.419,0,0,1-1.56-2.793h-.157a12.791,12.791,0,0,1-3.659,2.885,10.257,10.257,0,0,1-4.708,1,6.664,6.664,0,0,1-4.786-1.783,6.147,6.147,0,0,1-1.875-4.668A7.956,7.956,0,0,1,860,1.892a6.393,6.393,0,0,1,1.259-2.124,6.291,6.291,0,0,1,1.731-1.4,15.132,15.132,0,0,1,2.019-.983q1.18-.446,4.786-1.652a35.88,35.88,0,0,0,4.865-1.888v-2.6a11,11,0,0,0-.144-1.311A5.489,5.489,0,0,0,873.9-11.9a5.223,5.223,0,0,0-1.482-1.692,4.438,4.438,0,0,0-2.714-.721,6.085,6.085,0,0,0-2.242.407,4.069,4.069,0,0,0-1.456.852,7.172,7.172,0,0,0,.249,1.547,8.017,8.017,0,0,1,.249,1.888,2.253,2.253,0,0,1-.826,1.678,3.26,3.26,0,0,1-2.295.761,2.147,2.147,0,0,1-1.928-.931,3.694,3.694,0,0,1-.616-2.085,3.72,3.72,0,0,1,.852-2.308,8.559,8.559,0,0,1,2.216-1.967,12.061,12.061,0,0,1,2.859-1.246,11.216,11.216,0,0,1,3.278-.511,21.478,21.478,0,0,1,3.842.3,7.055,7.055,0,0,1,2.977,1.3,6.048,6.048,0,0,1,2.033,2.636,11.247,11.247,0,0,1,.695,4.288q0,3.75-.079,6.648t-.079,6.334a3.2,3.2,0,0,0,.354,1.626,2.872,2.872,0,0,0,1.088,1.023,2.673,2.673,0,0,0,1.246.262q.852.026,1.744.026ZM874.712-3.956q-2.229.657-3.908,1.288a15.808,15.808,0,0,0-3.121,1.577,7.108,7.108,0,0,0-2.072,2.116,5.385,5.385,0,0,0-.761,2.9,4.1,4.1,0,0,0,1.141,3.206,4.172,4.172,0,0,0,2.9,1.025,5.946,5.946,0,0,0,3.278-.907,9.55,9.55,0,0,0,2.387-2.142ZM902.407,9.235q-1.7.708-3.226,1.193a12.379,12.379,0,0,1-3.724.485q-3.252,0-4.576-1.639a7.19,7.19,0,0,1-1.324-4.629V-12.873h-4.668v-2.518h4.773v-8.051h4.773v8.051h7.422v2.518h-7.369V1.578a25.913,25.913,0,0,0,.118,2.714,5.049,5.049,0,0,0,.564,1.9,2.7,2.7,0,0,0,1.259,1.154,5.383,5.383,0,0,0,2.255.393q.656,0,1.928-.118a8.482,8.482,0,0,0,1.8-.3Zm59.769,1.128H949.587V8.632l1.219-.1a4.715,4.715,0,0,0,1.088-.21,1.886,1.886,0,0,0,1.088-.826,2.953,2.953,0,0,0,.354-1.534V-7.392a6.364,6.364,0,0,0-1.246-4.209,3.9,3.9,0,0,0-3.108-1.482,7.274,7.274,0,0,0-2.413.393,7.607,7.607,0,0,0-2.072,1.1,6.628,6.628,0,0,0-1.272,1.246,11.711,11.711,0,0,0-.774,1.115V5.7a3.19,3.19,0,0,0,.315,1.508,2.04,2.04,0,0,0,1.075.9,8.619,8.619,0,0,0,1.088.354,7.753,7.753,0,0,0,1.272.17v1.731H933.878V8.632q.6-.052,1.167-.1a4.624,4.624,0,0,0,1.036-.21,1.886,1.886,0,0,0,1.088-.826,2.953,2.953,0,0,0,.354-1.534V-7.392a6.353,6.353,0,0,0-1.249-4.209,3.911,3.911,0,0,0-3.115-1.482,7.093,7.093,0,0,0-2.418.407,7.922,7.922,0,0,0-2.077,1.115,6.237,6.237,0,0,0-1.288,1.3q-.526.721-.789,1.088V5.643a2.827,2.827,0,0,0,.367,1.495,2.305,2.305,0,0,0,1.1.918,5.4,5.4,0,0,0,1.128.393,8.732,8.732,0,0,0,1.285.184v1.731H917.906V8.632q.6-.052,1.246-.1a4.79,4.79,0,0,0,1.115-.209,1.885,1.885,0,0,0,1.088-.825,2.946,2.946,0,0,0,.354-1.532V-10.1a2.991,2.991,0,0,0-.38-1.506,3.461,3.461,0,0,0-1.062-1.139,4.476,4.476,0,0,0-1.233-.511,7.9,7.9,0,0,0-1.521-.249v-1.731l8.655-.577.367.367v3.7h.184q.656-.656,1.6-1.547a14.278,14.278,0,0,1,1.757-1.442,8.353,8.353,0,0,1,2.295-1.049,10.165,10.165,0,0,1,2.977-.42,7.03,7.03,0,0,1,4.327,1.351,7.7,7.7,0,0,1,2.6,3.265q.943-.918,1.663-1.613a13.742,13.742,0,0,1,1.9-1.482,8.68,8.68,0,0,1,2.343-1.1,10.06,10.06,0,0,1,3-.42,6.585,6.585,0,0,1,5.184,2.151q1.911,2.151,1.911,6.609V5.7a3.19,3.19,0,0,0,.315,1.508,2.039,2.039,0,0,0,1.075.9,7.09,7.09,0,0,0,1.193.354,10.669,10.669,0,0,0,1.324.17Zm28.3-13.192a17.074,17.074,0,0,1-.866,5.363,12.776,12.776,0,0,1-2.468,4.472,11.489,11.489,0,0,1-4.2,3.121,13.48,13.48,0,0,1-5.356,1.023,12.082,12.082,0,0,1-4.7-.931A11.843,11.843,0,0,1,968.919,7.5,12.979,12.979,0,0,1,966.2,3.217a15.194,15.194,0,0,1-1.011-5.678,14.105,14.105,0,0,1,3.531-9.913,11.959,11.959,0,0,1,9.254-3.855,11.926,11.926,0,0,1,8.966,3.659A13.437,13.437,0,0,1,990.473-2.828Zm-5.429.052a23.51,23.51,0,0,0-.394-4.157,13.119,13.119,0,0,0-1.182-3.711,7.255,7.255,0,0,0-2.207-2.609,5.56,5.56,0,0,0-3.337-.983,5.9,5.9,0,0,0-3.455,1,7.352,7.352,0,0,0-2.325,2.727,12.049,12.049,0,0,0-1.182,3.645,24.032,24.032,0,0,0-.342,3.96,24.891,24.891,0,0,0,.407,4.655,13.421,13.421,0,0,0,1.3,3.816A7.426,7.426,0,0,0,974.574,8.2a5.654,5.654,0,0,0,3.349.957,5.848,5.848,0,0,0,5.2-3.173Q985.044,2.81,985.044-2.776Zm34.7-11.12a6.5,6.5,0,0,0-2.242.852,5.035,5.035,0,0,0-1.823,2.269q-1.547,3.514-3.2,7.33t-3.436,8.012q-.525,1.206-1.115,2.859t-1.088,3.173h-2.046Q1002.3,4.436,1000.2-.639t-4.354-10.4a3.914,3.914,0,0,0-1.691-1.875,6.822,6.822,0,0,0-2.347-.852V-15.5h11.968v1.836a9.538,9.538,0,0,0-1.967.327q-1.18.3-1.18.824a1.692,1.692,0,0,0,.131.406q.131.327.263.746,1.072,2.672,3.034,7.467t3.191,7.729q.944-2.253,2.374-5.606t3.082-7.493q.262-.707.5-1.323a3.452,3.452,0,0,0,.236-1.244,1.022,1.022,0,0,0-.433-.8,4.386,4.386,0,0,0-1.036-.615,6.687,6.687,0,0,0-1.18-.393q-.577-.131-.944-.183V-15.5h9.9Zm24.1,18.174a13.243,13.243,0,0,1-4.354,4.93,10.961,10.961,0,0,1-6.268,1.836,12.745,12.745,0,0,1-5.468-1.1,10.736,10.736,0,0,1-3.868-2.99,12.7,12.7,0,0,1-2.268-4.406,18.615,18.615,0,0,1-.747-5.324,15.691,15.691,0,0,1,.8-4.944,13.947,13.947,0,0,1,2.347-4.367,11.36,11.36,0,0,1,3.711-3,10.7,10.7,0,0,1,4.97-1.141,11.962,11.962,0,0,1,4.852.892,8.634,8.634,0,0,1,3.278,2.439,9.735,9.735,0,0,1,1.8,3.462,15.184,15.184,0,0,1,.59,4.327v1.731h-17.125a20.371,20.371,0,0,0,.485,4.626,11.09,11.09,0,0,0,1.534,3.654,7.3,7.3,0,0,0,2.675,2.4,8.254,8.254,0,0,0,3.934.881,7.25,7.25,0,0,0,4.026-1.094,10.82,10.82,0,0,0,3.265-3.941Zm-5.8-9.861a21.362,21.362,0,0,0-.249-3.137,9.6,9.6,0,0,0-.8-2.8,5.319,5.319,0,0,0-1.652-1.961,4.5,4.5,0,0,0-2.7-.758,5.621,5.621,0,0,0-4.577,2.288,10.657,10.657,0,0,0-1.98,6.367Zm49.881,15.945h-12.719V8.632q.6-.052,1.338-.1a5.024,5.024,0,0,0,1.206-.21,1.886,1.886,0,0,0,1.089-.826,2.953,2.953,0,0,0,.354-1.534v-13.3a6.274,6.274,0,0,0-1.3-4.249,4.049,4.049,0,0,0-3.168-1.495,7.256,7.256,0,0,0-2.536.433,9.548,9.548,0,0,0-2.09,1.062,6.158,6.158,0,0,0-1.367,1.311q-.473.656-.736,1.1V5.7a2.768,2.768,0,0,0,.354,1.469,2.28,2.28,0,0,0,1.088.892,5.787,5.787,0,0,0,1.193.393,9.9,9.9,0,0,0,1.351.184v1.731h-12.667V8.632q.6-.052,1.25-.118a6.035,6.035,0,0,0,1.094-.2,1.932,1.932,0,0,0,1.094-.827,2.888,2.888,0,0,0,.365-1.535V-24.173a4.274,4.274,0,0,0-.406-1.785,3.14,3.14,0,0,0-1.062-1.339,3.775,3.775,0,0,0-1.665-.485q-1.193-.144-1.928-.2v-1.678l9.573-.577.367.393V-11.8h.1q.867-.865,1.576-1.534a12.535,12.535,0,0,1,1.865-1.4,9.883,9.883,0,0,1,2.351-1.049,10.221,10.221,0,0,1,3.034-.42,6.618,6.618,0,0,1,5.333,2.19,9.467,9.467,0,0,1,1.865,6.307V5.747a2.914,2.914,0,0,0,.33,1.482,2.161,2.161,0,0,0,1.1.879,8.719,8.719,0,0,0,1.1.354,7.862,7.862,0,0,0,1.281.17Zm28.35-13.192a17.074,17.074,0,0,1-.866,5.363,12.775,12.775,0,0,1-2.468,4.472,11.488,11.488,0,0,1-4.2,3.121,13.479,13.479,0,0,1-5.356,1.023,12.082,12.082,0,0,1-4.7-.931,11.84,11.84,0,0,1-3.964-2.714,12.978,12.978,0,0,1-2.717-4.288A15.2,15.2,0,0,1,1091-2.461a14.105,14.105,0,0,1,3.531-9.913,11.959,11.959,0,0,1,9.254-3.855,11.926,11.926,0,0,1,8.965,3.659A13.436,13.436,0,0,1,1116.278-2.828Zm-5.429.052a23.505,23.505,0,0,0-.394-4.157,13.115,13.115,0,0,0-1.182-3.711,7.255,7.255,0,0,0-2.207-2.609,5.56,5.56,0,0,0-3.337-.983,5.9,5.9,0,0,0-3.455,1,7.352,7.352,0,0,0-2.325,2.727,12.051,12.051,0,0,0-1.182,3.645,24.032,24.032,0,0,0-.342,3.96,24.9,24.9,0,0,0,.407,4.655,13.421,13.421,0,0,0,1.3,3.816A7.426,7.426,0,0,0,1100.38,8.2a5.654,5.654,0,0,0,3.35.957,5.848,5.848,0,0,0,5.2-3.173Q1110.85,2.81,1110.85-2.776Zm47.678-11.041a5.447,5.447,0,0,0-2.373.918,4.606,4.606,0,0,0-1.849,2.439q-1.311,3.855-2.478,7.3t-2.609,7.75q-.472,1.364-.957,2.937t-.879,3.016h-2.237l-6.976-19.06-6.989,19.06h-2.156q-1.967-5.822-3.842-11.552t-3.318-9.979a3.55,3.55,0,0,0-1.6-1.941,5.791,5.791,0,0,0-2.282-.839V-15.5h11.534v1.836a8.521,8.521,0,0,0-1.875.288q-1.01.262-1.01.865a2.274,2.274,0,0,0,.092.446q.092.341.223.734.839,2.748,1.9,6.138t2.739,8.808l6.595-18.591h2.541l6.737,18.332q1.129-3.508,2.245-6.793t1.956-6.164q.184-.681.354-1.244a3.837,3.837,0,0,0,.17-1.115,1.093,1.093,0,0,0-.42-.839,3.439,3.439,0,0,0-1.023-.6,5.591,5.591,0,0,0-1.141-.315,6.035,6.035,0,0,0-.9-.1V-15.5h9.832Zm12.064,32.625a3.132,3.132,0,0,1,.721-2.137,2.287,2.287,0,0,1,1.8-.826,3.1,3.1,0,0,1,1.442.312,4.056,4.056,0,0,1,1.075.806,6.756,6.756,0,0,1,.839,1.067q.446.677.708,1.119a10.464,10.464,0,0,0,3.133-3.69,29.823,29.823,0,0,0,2.635-5.234q-2.491-6.213-4.51-11.116t-4.221-10.146a3.763,3.763,0,0,0-1.678-1.875,6.951,6.951,0,0,0-2.36-.852V-15.5h11.807v1.836a8.406,8.406,0,0,0-1.888.328q-1.1.3-1.1.694a2,2,0,0,0,.118.524q.118.367.276.76.994,2.594,3.034,7.482t3.164,7.822q1.181-2.8,2.455-5.8t2.849-7.088q.184-.5.525-1.376a4.286,4.286,0,0,0,.341-1.507q0-.681-1.193-1.271a7.094,7.094,0,0,0-2.269-.721V-15.5h9.6v1.626a6.45,6.45,0,0,0-2.072.9,4.73,4.73,0,0,0-1.914,2.19q-3.121,7.238-5.547,13.192t-3.685,8.759a48.314,48.314,0,0,1-2.95,5.73,17.19,17.19,0,0,1-2.531,3.239,7.37,7.37,0,0,1-2.19,1.482,5.589,5.589,0,0,1-2.032.38,4.877,4.877,0,0,1-3.213-.97A2.849,2.849,0,0,1,1170.592,18.808Zm53.632-21.636a17.074,17.074,0,0,1-.866,5.363,12.773,12.773,0,0,1-2.468,4.472,11.488,11.488,0,0,1-4.2,3.121,13.479,13.479,0,0,1-5.356,1.023,12.083,12.083,0,0,1-4.7-.931A11.843,11.843,0,0,1,1202.67,7.5a12.978,12.978,0,0,1-2.717-4.288,15.2,15.2,0,0,1-1.011-5.678,14.106,14.106,0,0,1,3.531-9.913,11.959,11.959,0,0,1,9.254-3.855,11.926,11.926,0,0,1,8.966,3.659A13.437,13.437,0,0,1,1224.224-2.828Zm-5.429.052a23.505,23.505,0,0,0-.394-4.157,13.111,13.111,0,0,0-1.182-3.711,7.254,7.254,0,0,0-2.207-2.609,5.56,5.56,0,0,0-3.337-.983,5.9,5.9,0,0,0-3.455,1,7.352,7.352,0,0,0-2.325,2.727,12.054,12.054,0,0,0-1.182,3.645,24.032,24.032,0,0,0-.342,3.96,24.89,24.89,0,0,0,.407,4.655,13.421,13.421,0,0,0,1.3,3.816,7.427,7.427,0,0,0,2.246,2.636,5.654,5.654,0,0,0,3.35.957,5.848,5.848,0,0,0,5.2-3.173Q1218.795,2.81,1218.8-2.776Zm36.873,12.667-8.443.577-.395-.367V6.823h-.157q-.629.656-1.414,1.4a9.935,9.935,0,0,1-1.807,1.351,11.564,11.564,0,0,1-2.278,1.075,10.289,10.289,0,0,1-3.115.367,6.3,6.3,0,0,1-5.224-2.24q-1.793-2.24-1.793-6.51V-10.1a3.225,3.225,0,0,0-.356-1.585,3.3,3.3,0,0,0-1.043-1.114,3.331,3.331,0,0,0-1.188-.458,11.4,11.4,0,0,0-1.5-.2v-1.731l8.628-.629.393.367V2.522a6.184,6.184,0,0,0,1.259,4.222,3.9,3.9,0,0,0,3.016,1.416,6.957,6.957,0,0,0,2.57-.445,7.4,7.4,0,0,0,1.888-1.048,8.856,8.856,0,0,0,1.246-1.165,6.672,6.672,0,0,0,.826-1.14V-10.28a3.128,3.128,0,0,0-.367-1.533,3.428,3.428,0,0,0-1.023-1.139,2.926,2.926,0,0,0-1.4-.38q-.931-.065-2.085-.118v-1.731l9.414-.629.395.367V5.069a2.965,2.965,0,0,0,.367,1.52,3.318,3.318,0,0,0,1.023,1.074,2.912,2.912,0,0,0,1.128.38,13.8,13.8,0,0,0,1.442.118Zm44.453,0-9.047.577-.395-.367V7.688l-.209-.052a10.735,10.735,0,0,1-3.365,2.491,9.361,9.361,0,0,1-4.125.97,9.754,9.754,0,0,1-4.256-.983,10.746,10.746,0,0,1-3.575-2.767,13.67,13.67,0,0,1-2.449-4.353,16.667,16.667,0,0,1-.9-5.612,14.7,14.7,0,0,1,.969-5.324,14.037,14.037,0,0,1,2.672-4.406,11.777,11.777,0,0,1,3.915-2.806,11.357,11.357,0,0,1,4.727-1.049,13.869,13.869,0,0,1,3.549.459,12.706,12.706,0,0,1,3,1.167v-9.013a5.31,5.31,0,0,0-.367-2.01,3.064,3.064,0,0,0-1.023-1.38,5.129,5.129,0,0,0-1.98-.723,25.886,25.886,0,0,0-2.688-.328v-1.626l10.594-.577.394.393V5.015a3.189,3.189,0,0,0,.354,1.56,3.069,3.069,0,0,0,1.036,1.088,3.24,3.24,0,0,0,1.443.393q.944.079,1.731.1Zm-9.494-4.537V-9.778a6.779,6.779,0,0,0-.68-1.469,6.561,6.561,0,0,0-1.178-1.442,6.692,6.692,0,0,0-1.78-1.088,6.068,6.068,0,0,0-2.382-.433,5.416,5.416,0,0,0-2.893.813,7.732,7.732,0,0,0-2.342,2.334,12.038,12.038,0,0,0-1.531,3.737,20.853,20.853,0,0,0-.563,5.022,17.644,17.644,0,0,0,.419,4,10.58,10.58,0,0,0,1.413,3.344,7.289,7.289,0,0,0,2.343,2.36,6.263,6.263,0,0,0,3.39.892,6.117,6.117,0,0,0,3.468-.918A11.22,11.22,0,0,0,1290.628,5.354Zm34.985-1.075a13.242,13.242,0,0,1-4.353,4.93,10.961,10.961,0,0,1-6.268,1.836,12.746,12.746,0,0,1-5.468-1.1,10.734,10.734,0,0,1-3.868-2.99,12.7,12.7,0,0,1-2.269-4.406,18.612,18.612,0,0,1-.747-5.324,15.689,15.689,0,0,1,.8-4.944,13.947,13.947,0,0,1,2.347-4.367,11.36,11.36,0,0,1,3.711-3,10.7,10.7,0,0,1,4.97-1.141,11.963,11.963,0,0,1,4.852.892A8.634,8.634,0,0,1,1322.6-12.9a9.734,9.734,0,0,1,1.8,3.462,15.18,15.18,0,0,1,.59,4.327v1.731h-17.125a20.364,20.364,0,0,0,.485,4.626,11.087,11.087,0,0,0,1.534,3.654,7.3,7.3,0,0,0,2.675,2.4,8.255,8.255,0,0,0,3.934.881,7.249,7.249,0,0,0,4.026-1.094,10.819,10.819,0,0,0,3.265-3.941Zm-5.8-9.861a21.362,21.362,0,0,0-.249-3.137,9.6,9.6,0,0,0-.8-2.8,5.319,5.319,0,0,0-1.652-1.961,4.5,4.5,0,0,0-2.7-.758,5.621,5.621,0,0,0-4.576,2.288,10.657,10.657,0,0,0-1.98,6.367Zm20.745,16.627a10.924,10.924,0,0,1-8.786-3.724Q1328.6,3.6,1328.6-2.671a14.984,14.984,0,0,1,.852-5.1,14.072,14.072,0,0,1,2.478-4.314,11.575,11.575,0,0,1,3.881-3,11.429,11.429,0,0,1,5.088-1.141,9.917,9.917,0,0,1,6.189,1.823,5.917,5.917,0,0,1,2.387,4.97,4.3,4.3,0,0,1-.629,2.321,2.253,2.253,0,0,1-2.072,1.01,3.414,3.414,0,0,1-2.4-.784,2.342,2.342,0,0,1-.852-1.751,9.823,9.823,0,0,1,.315-2.418,13.28,13.28,0,0,0,.367-1.817,2.316,2.316,0,0,0-1.4-1.085,7.03,7.03,0,0,0-2-.275,5.537,5.537,0,0,0-2.394.538,6.173,6.173,0,0,0-2.21,1.98,10.613,10.613,0,0,0-1.569,3.54,20.63,20.63,0,0,0-.6,5.324,13.566,13.566,0,0,0,2.16,7.96,6.628,6.628,0,0,0,5.669,3.082,7.075,7.075,0,0,0,4.255-1.239A12.083,12.083,0,0,0,1349.3,3.23l1.676,1.1a13.55,13.55,0,0,1-4.563,4.9A10.725,10.725,0,0,1,1340.562,11.045Zm24.967-.682h-12.483V8.632q.6-.052,1.246-.1a4.788,4.788,0,0,0,1.115-.209,1.884,1.884,0,0,0,1.088-.825,2.946,2.946,0,0,0,.354-1.532V-9.992a3.138,3.138,0,0,0-.38-1.533,3.38,3.38,0,0,0-1.062-1.165,4.861,4.861,0,0,0-1.442-.537,10.7,10.7,0,0,0-1.731-.275v-1.731l9.126-.577.367.367V5.643a2.984,2.984,0,0,0,.352,1.521,2.087,2.087,0,0,0,1.107.892,8.924,8.924,0,0,0,1.12.38,6.906,6.906,0,0,0,1.224.2Zm-3.278-36.375a3.819,3.819,0,0,1-.984,2.609,3.109,3.109,0,0,1-2.426,1.115,3.064,3.064,0,0,1-2.321-1.062,3.47,3.47,0,0,1-.984-2.426,3.611,3.611,0,0,1,.984-2.518,3.048,3.048,0,0,1,2.321-1.075,3.23,3.23,0,0,1,2.452,1.01A3.306,3.306,0,0,1,1362.25-26.012Zm34.8,35.9-9.047.577-.395-.367V7.688l-.209-.052a10.735,10.735,0,0,1-3.366,2.491,9.36,9.36,0,0,1-4.125.97,9.753,9.753,0,0,1-4.256-.983,10.746,10.746,0,0,1-3.575-2.767,13.672,13.672,0,0,1-2.449-4.353,16.667,16.667,0,0,1-.9-5.612,14.7,14.7,0,0,1,.969-5.324,14.035,14.035,0,0,1,2.672-4.406,11.776,11.776,0,0,1,3.915-2.806,11.359,11.359,0,0,1,4.727-1.049,13.866,13.866,0,0,1,3.549.459,12.7,12.7,0,0,1,3,1.167v-9.013a5.312,5.312,0,0,0-.367-2.01,3.062,3.062,0,0,0-1.023-1.38,5.129,5.129,0,0,0-1.98-.723,25.886,25.886,0,0,0-2.688-.328v-1.626l10.594-.577.394.393V5.015a3.186,3.186,0,0,0,.354,1.56,3.067,3.067,0,0,0,1.036,1.088,3.238,3.238,0,0,0,1.442.393q.944.079,1.731.1Zm-9.494-4.537V-9.778a6.778,6.778,0,0,0-.68-1.469,6.562,6.562,0,0,0-1.178-1.442,6.694,6.694,0,0,0-1.78-1.088,6.068,6.068,0,0,0-2.382-.433,5.415,5.415,0,0,0-2.892.813,7.728,7.728,0,0,0-2.343,2.334,12.044,12.044,0,0,0-1.531,3.737,20.853,20.853,0,0,0-.563,5.022,17.637,17.637,0,0,0,.419,4,10.578,10.578,0,0,0,1.413,3.344,7.292,7.292,0,0,0,2.343,2.36,6.264,6.264,0,0,0,3.39.892,6.115,6.115,0,0,0,3.468-.918A11.217,11.217,0,0,0,1387.558,5.354Zm34.985-1.075a13.244,13.244,0,0,1-4.354,4.93,10.961,10.961,0,0,1-6.268,1.836,12.747,12.747,0,0,1-5.468-1.1,10.736,10.736,0,0,1-3.868-2.99,12.7,12.7,0,0,1-2.269-4.406,18.617,18.617,0,0,1-.747-5.324,15.693,15.693,0,0,1,.8-4.944,13.947,13.947,0,0,1,2.347-4.367,11.359,11.359,0,0,1,3.711-3,10.7,10.7,0,0,1,4.97-1.141,11.961,11.961,0,0,1,4.852.892,8.635,8.635,0,0,1,3.278,2.439,9.739,9.739,0,0,1,1.8,3.462,15.188,15.188,0,0,1,.59,4.327v1.731h-17.125a20.363,20.363,0,0,0,.485,4.626,11.087,11.087,0,0,0,1.534,3.654,7.307,7.307,0,0,0,2.675,2.4,8.254,8.254,0,0,0,3.934.881,7.25,7.25,0,0,0,4.026-1.094,10.819,10.819,0,0,0,3.265-3.941Zm-5.8-9.861a21.363,21.363,0,0,0-.249-3.137,9.6,9.6,0,0,0-.8-2.8,5.316,5.316,0,0,0-1.652-1.961,4.5,4.5,0,0,0-2.7-.758,5.621,5.621,0,0,0-4.576,2.288,10.658,10.658,0,0,0-1.98,6.367Zm17.781,12.929a3.37,3.37,0,0,1-1.062,2.5,3.609,3.609,0,0,1-5.062,0,3.37,3.37,0,0,1-1.062-2.5,3.455,3.455,0,0,1,1.062-2.531,3.546,3.546,0,0,1,5.062,0A3.455,3.455,0,0,1,1434.529,7.347Z" transform="translate(103.974 260.419)"/>
</svg>
