<?xml version="1.0" encoding="UTF-8" standalone="no"?>
<svg
   xmlns:dc="http://purl.org/dc/elements/1.1/"
   xmlns:cc="http://creativecommons.org/ns#"
   xmlns:rdf="http://www.w3.org/1999/02/22-rdf-syntax-ns#"
   xmlns:svg="http://www.w3.org/2000/svg"
   xmlns="http://www.w3.org/2000/svg"
   xmlns:sodipodi="http://sodipodi.sourceforge.net/DTD/sodipodi-0.dtd"
   xmlns:inkscape="http://www.inkscape.org/namespaces/inkscape"
   width="170.655"
   height="54.149948"
   viewBox="0 0 170.65499 54.149949"
   version="1.1"
   id="svg3"
   sodipodi:docname="Play As.svg"
   inkscape:version="1.0 (4035a4fb49, 2020-05-01)">
  <metadata
     id="metadata9">
    <rdf:RDF>
      <cc:Work
         rdf:about="">
        <dc:format>image/svg+xml</dc:format>
        <dc:type
           rdf:resource="http://purl.org/dc/dcmitype/StillImage" />
        <dc:title></dc:title>
      </cc:Work>
    </rdf:RDF>
  </metadata>
  <defs
     id="defs7" />
  <sodipodi:namedview
     fit-margin-bottom="0"
     fit-margin-right="0"
     fit-margin-left="0"
     fit-margin-top="0"
     inkscape:document-rotation="0"
     pagecolor="#ffffff"
     bordercolor="#666666"
     borderopacity="1"
     objecttolerance="10"
     gridtolerance="10"
     guidetolerance="10"
     inkscape:pageopacity="0"
     inkscape:pageshadow="2"
     inkscape:window-width="1920"
     inkscape:window-height="1001"
     id="namedview5"
     showgrid="false"
     inkscape:zoom="2.5026807"
     inkscape:cx="-16.391418"
     inkscape:cy="66.42827"
     inkscape:window-x="-9"
     inkscape:window-y="-9"
     inkscape:window-maximized="1"
     inkscape:current-layer="svg3" />
  <path
     id="Path_3"
     data-name="Path 3"
     d="M 0.175,1.962 A 5.6,5.6 0 0 1 0.849,1.874 q 1,0 3.281,0.117 1.2,0.029 1.641,0.029 0.645,0 2.725,-0.117 l 4.98,-0.293 q 1.963,-0.176 4.57,-0.176 a 17.187,17.187 0 0 1 7.324,1.3 9.147,9.147 0 0 1 4.2,4.082 11.688,11.688 0 0 1 1.484,5.529 11.02,11.02 0 0 1 -3.223,7.929 11.5,11.5 0 0 1 -8.672,3.335 9,9 0 0 1 -2.549,-0.308 9.1,9.1 0 0 1 -2.344,-1.187 1.548,1.548 0 0 1 -0.674,-0.791 0.668,0.668 0 0 1 0.322,-0.293 2.282,2.282 0 0 1 0.85,0.176 7.672,7.672 0 0 0 2.52,0.352 8.925,8.925 0 0 0 4.38,-1.141 7.429,7.429 0 0 0 3.12,-3.247 9.8,9.8 0 0 0 1.055,-4.446 9.541,9.541 0 0 0 -1.111,-4.431 9.441,9.441 0 0 0 -2.924,-3.437 9.132,9.132 0 0 0 -3.143,-1.228 15.5,15.5 0 0 0 -3.289,-0.5 q -3.625,0 -4.3,0.527 l -0.029,0.41 0.088,3.308 -0.029,0.585 q -0.059,0.791 -0.059,2.43 0,5.972 0.176,7.435 v 1.639 l 0.382,13.383 q 0,0.293 -0.073,1.083 -0.073,0.79 -0.074,1.377 a 7.413,7.413 0 0 0 0.232,2.14 q 0.7,0.2 4.1,0.966 1.582,0.381 1.729,0.439 a 0.842,0.842 0 0 1 0.41,0.381 1,1 0 0 1 -0.308,0.571 1.44,1.44 0 0 1 -0.747,0.132 q -0.352,0 -1.641,-0.146 -2.515,-0.267 -3.95,-0.267 L 6.122,39.726 3.046,39.638 q -0.293,0 -1.7,0.059 L 1.318,38.935 5.126,38.203 a 2.441,2.441 0 0 0 1.143,-0.527 3.022,3.022 0 0 0 0.293,-1.61 q 0,-0.263 0.029,-1.142 Q 6.62,34.309 6.62,33.224 6.62,29.77 6.327,18.5 6.21,13.231 6.21,7.786 v -0.5 Q 6.21,5.178 5.565,4.622 4.486,3.661 0.146,3.045 A 1.352,1.352 0 0 1 0,2.518 1.209,1.209 0 0 1 0.175,1.962 Z M 34.159,3.045 V 2.4 q 0.82,-0.264 1.816,-0.557 1.472,-0.469 4.358,-1.436 h 1.384 V 2.02 q 0,24.071 -0.146,28.7 -0.088,2.727 -0.088,2.9 a 12.211,12.211 0 0 0 0.264,3.665 q 0.352,0.528 2.153,0.733 a 7.447,7.447 0 0 1 2.124,0.41 0.42,0.42 0 0 1 0.234,0.41 0.631,0.631 0 0 1 -0.132,0.454 0.682,0.682 0 0 1 -0.483,0.132 q -0.205,0 -3.076,-0.1 l -3.837,-0.125 -4.922,0.234 a 0.934,0.934 0 0 1 -0.7,-0.18 0.523,0.523 0 0 1 -0.176,-0.421 0.5,0.5 0 0 1 0.19,-0.436 10.681,10.681 0 0 1 2.109,-0.458 7.662,7.662 0 0 0 2.2,-0.542 1.475,1.475 0 0 0 0.366,-0.981 q 0.117,-1.055 0.117,-5.947 L 37.885,23.73 37.973,16.757 37.944,9.7840002 38.032,6.356 A 2.615,2.615 0 0 0 37.71,4.877 3.221,3.221 0 0 0 36.333,3.983 Q 34.745,3.339 34.159,3.045 Z m 36.036,32.316 a 1.551,1.551 0 0 1 0.176,0.557 3.777,3.777 0 0 1 -0.7,1.553 6.307,6.307 0 0 1 -2.025,2.138 3.634,3.634 0 0 1 -1.934,0.436 3.849,3.849 0 0 1 -3.164,-1.286 5.488,5.488 0 0 1 -0.908,-2.725 l -3.281,2.286 a 13.485,13.485 0 0 1 -2.637,1.259 14.126,14.126 0 0 1 -3.516,0.381 3.128,3.128 0 0 1 -2.358,-0.894 3.171,3.171 0 0 1 -0.864,-2.3 q 0,-2.021 2.481,-4.834 a 18.187,18.187 0 0 1 6.739,-4.6 q 3,-1.26 3.67,-1.611 0.059,-0.967 0.059,-2.109 0,-3.721 -1.043,-5.039 a 3.581,3.581 0 0 0 -2.983,-1.318 5.588,5.588 0 0 0 -3.791,1.582 7,7 0 0 0 -1.646,3.75 6.208,6.208 0 0 1 -0.674,1.641 4.1,4.1 0 0 1 -2.021,0.82 1.955,1.955 0 0 1 -1.172,-0.381 0.577,0.577 0 0 1 -0.293,-0.469 10.1,10.1 0 0 1 1.626,-3.442 10.759,10.759 0 0 1 4.1,-4.014 9.423,9.423 0 0 1 4.321,-1.333 11.547,11.547 0 0 1 3.75,0.454 5.065,5.065 0 0 1 2.168,1.6 5.088,5.088 0 0 1 1.143,2.49 45.789,45.789 0 0 1 0.117,4.6 l -0.088,4.658 0.029,3.4 q 0,0.674 -0.029,1.143 -0.029,0.85 -0.029,1.26 a 2.161,2.161 0 0 0 0.557,1.553 1.759,1.759 0 0 0 1.318,0.586 2.3,2.3 0 0 0 1.9,-1.113 l 0.352,-0.469 a 2.731,2.731 0 0 1 0.65,-0.21 z m -8.584,-0.85 q 0.206,-3.721 0.206,-5.244 0,-0.791 -0.088,-2.139 a 20.192,20.192 0 0 0 -4.174,2.139 12.371,12.371 0 0 0 -3.5,3.311 4.51,4.51 0 0 0 -0.941,2.549 2.554,2.554 0 0 0 0.779,1.9 2.683,2.683 0 0 0 1.955,0.762 5.152,5.152 0 0 0 2.205,-0.644 14.73,14.73 0 0 0 3.557,-2.634 z M 71.104,16.259 Q 71.749,16.2 72.188,16.2 h 1.406 l 1.9,-0.059 2.49,0.088 2.021,-0.059 a 18.574,18.574 0 0 1 2.9,0.205 1.351,1.351 0 0 1 0.117,0.469 l -0.029,0.234 a 5.935,5.935 0 0 1 -1.9,0.41 6.042,6.042 0 0 0 -2.607,0.645 l -0.059,0.322 a 2.662,2.662 0 0 0 0.235,0.88 q 0.147,0.352 0.383,1.057 0.647,2.172 2.795,8.394 1.559,4.49 2.883,7.719 0.807,-1.771 1.845,-4.487 l 2.46,-6.955 a 27.9,27.9 0 0 0 1.294,-4.557 8.02,8.02 0 0 0 0.176,-1.436 1.148,1.148 0 0 0 -0.381,-0.82 3.3,3.3 0 0 0 -1.523,-0.645 14.863,14.863 0 0 1 -2.256,-0.659 0.765,0.765 0 0 1 -0.205,-0.571 1.405,1.405 0 0 1 0.41,-0.234 h 1.816 l 1.963,0.029 2.93,-0.029 1.875,0.029 0.469,-0.029 a 6.191,6.191 0 0 1 0.674,0.059 0.49,0.49 0 0 1 0.293,0.469 0.694,0.694 0 0 1 -0.264,0.527 l -0.586,0.088 a 5.91,5.91 0 0 0 -2.607,0.879 2.8,2.8 0 0 0 -0.85,1.465 10.658,10.658 0 0 1 -0.381,1.055 q -0.146,0.351 -0.424,1.171 -0.278,0.82 -0.717,1.932 l -0.351,0.819 -0.029,0.146 -4.976,13.115 -3.629,9.866 q -0.352,0.735 -0.821,1.822 a 19.694,19.694 0 0 1 -1.32,2.293 7.891,7.891 0 0 1 -1.522,1.528 l -1.5,0.647 a 3.622,3.622 0 0 1 -0.939,0.118 2.764,2.764 0 0 1 -1.936,-0.576 2.057,2.057 0 0 1 -0.616,-1.58 2.22,2.22 0 0 1 0.91,-1.712 3.659,3.659 0 0 0 0.586,-0.234 l 0.382,-0.088 a 26.693,26.693 0 0 0 3.256,0.469 2.393,2.393 0 0 0 0.91,-0.759 24.636,24.636 0 0 0 2.471,-4.754 12.386,12.386 0 0 0 1.033,-3.539 8.541,8.541 0 0 0 -0.776,-2.9 l -3.258,-8.614 q -0.675,-1.67 -4.02,-10.9 A 2.1,2.1 0 0 0 74.062,18.074 L 72.07,17.345 71.455,17.228 q -0.5,-0.205 -0.5,-0.586 z m 39.315,22.149 a 1.514,1.514 0 0 1 0.732,-0.234 h 0.674 q 0.2,0 0.7,-0.029 a 11.519,11.519 0 0 0 2.665,-0.41 4.511,4.511 0 0 0 1.757,-1.934 70.509,70.509 0 0 0 3.429,-8.467 q 0.909,-2.607 1.143,-3.164 0.732,-1.758 1.407,-3.691 l 2.754,-7.705 q 0.645,-1.816 3.106,-8.32 0.615,-1.641 1.495,-4.395 L 131.143,0 l 1.024,0.029 a 40.475,40.475 0 0 1 2.224,5.361 q 0.527,1.523 1.727,4.5410002 l 4.448,12.0409998 2.37,6.533 q 1.878,5.567 2.464,6.84 a 4.958,4.958 0 0 0 1.086,1.686 4.387,4.387 0 0 0 1.1,0.352 q 0.952,0.234 1.333,0.352 a 12.1,12.1 0 0 1 1.875,0.645 1.592,1.592 0 0 1 0.117,0.5 1.7,1.7 0 0 1 -0.088,0.439 q -0.937,0.026 -1.322,0.026 -1.494,0 -5.273,-0.088 l -2.93,-0.066 -3.545,0.044 q -0.352,0 -0.718,-0.033 -0.366,-0.033 -0.63,-0.033 h -0.645 a 1.465,1.465 0 0 1 -0.586,-0.176 2.185,2.185 0 0 1 0.146,-0.791 1.883,1.883 0 0 1 0.645,-0.205 l 3.075,-0.206 a 5.5,5.5 0 0 0 1.816,-0.323 2.8,2.8 0 0 0 0.176,-0.792 12.728,12.728 0 0 0 -0.762,-2.73 q -0.526,-1.468 -0.921,-2.788 -0.395,-1.32 -3.116,-8.688 a 12.7,12.7 0 0 0 -2.109,-0.206 l -6.27,0.059 -1.846,-0.029 a 18.271,18.271 0 0 0 -2.2,0.146 q -0.381,0.879 -0.5,1.26 l -2.582,8.057 a 40.682,40.682 0 0 0 -1.641,5.068 2.659,2.659 0 0 0 0.264,0.879 12.8,12.8 0 0 0 1.641,0.322 l 3.984,0.352 q 0.322,0.264 0.322,0.469 a 1.7,1.7 0 0 1 -0.088,0.439 q -1.318,0.029 -2.021,0.029 -2.344,0 -5.449,-0.146 -1.436,-0.059 -2.051,-0.059 -0.615,0 -2.139,0.059 -1,0.059 -1.436,0.059 -0.7,0 -1.816,-0.088 v -0.176 a 1.884,1.884 0 0 1 0.123,-0.556 z m 13.98,-17.578 q 3.135,0.176 7.148,0.176 2.285,0 4.014,-0.146 a 19.718,19.718 0 0 0 -0.675,-2.139 q -1.9,-5.1 -2.106,-5.623 l -2.663,-6.765 -0.293,-0.527 q -0.176,0.352 -1.291,3.016 -1.878,4.569 -2.7,7.116 -0.381,1.142 -0.792,2.27 a 15.418,15.418 0 0 0 -0.513,1.582 5.083,5.083 0 0 1 -0.308,0.922 z m 31.2,11.074 a 22.051,22.051 0 0 0 1.641,3.6 8.312,8.312 0 0 0 2.666,2.593 6.477,6.477 0 0 0 3.369,0.923 5.04,5.04 0 0 0 3.311,-1.433 3.337,3.337 0 0 0 1.172,-2.52 5.3,5.3 0 0 0 -1.377,-3.516 13.258,13.258 0 0 0 -5.229,-3.032 q -3.853,-1.45 -5.171,-3.091 a 5.821,5.821 0 0 1 -1.318,-3.75 5.91,5.91 0 0 1 1.084,-3.516 6.641,6.641 0 0 1 2.988,-2.3 9.377,9.377 0 0 1 3.516,-0.776 19.646,19.646 0 0 1 3.735,0.322 9.539,9.539 0 0 1 2.856,1 q 0.234,1.494 0.381,4.395 l 0.059,0.938 q -0.381,0.029 -0.645,0.029 h -0.41 a 8.41,8.41 0 0 0 -2.681,-3.853 5.769,5.769 0 0 0 -3.56,-1.421 3.872,3.872 0 0 0 -2.842,1.069 3.756,3.756 0 0 0 -1.084,2.8 3.5,3.5 0 0 0 0.879,2.344 11.714,11.714 0 0 0 4.116,2.338 21.428,21.428 0 0 1 4.717,2.441 6.869,6.869 0 0 1 2.183,2.742 7.7,7.7 0 0 1 0.7,3.079 6.144,6.144 0 0 1 -1.333,3.783 7.142,7.142 0 0 1 -3.34,2.478 10.8,10.8 0 0 1 -3.589,0.718 16.858,16.858 0 0 1 -6.857,-1.382 1.15,1.15 0 0 1 -0.322,-0.879 q 0,-0.264 -0.059,-0.85 -0.469,-3.955 -0.469,-4.687 a 0.584,0.584 0 0 1 0.146,-0.469 1.482,1.482 0 0 1 0.763,-0.117 z" />
</svg>
