<?xml version="1.0" encoding="UTF-8" standalone="no"?>
<svg
   xmlns:dc="http://purl.org/dc/elements/1.1/"
   xmlns:cc="http://creativecommons.org/ns#"
   xmlns:rdf="http://www.w3.org/1999/02/22-rdf-syntax-ns#"
   xmlns:svg="http://www.w3.org/2000/svg"
   xmlns="http://www.w3.org/2000/svg"
   xmlns:sodipodi="http://sodipodi.sourceforge.net/DTD/sodipodi-0.dtd"
   xmlns:inkscape="http://www.inkscape.org/namespaces/inkscape"
   width="37.860664mm"
   height="12.700029mm"
   viewBox="0 0 37.860664 12.700029"
   version="1.1"
   id="svg8"
   inkscape:version="1.0 (4035a4fb49, 2020-05-01)"
   sodipodi:docname="black.svg">
  <defs
     id="defs2" />
  <sodipodi:namedview
     id="base"
     pagecolor="#ffffff"
     bordercolor="#666666"
     borderopacity="1.0"
     inkscape:pageopacity="0.0"
     inkscape:pageshadow="2"
     inkscape:zoom="1.4"
     inkscape:cx="165.35711"
     inkscape:cy="-4.5909808"
     inkscape:document-units="mm"
     inkscape:current-layer="layer1"
     inkscape:document-rotation="0"
     showgrid="false"
     inkscape:window-width="1920"
     inkscape:window-height="1001"
     inkscape:window-x="-9"
     inkscape:window-y="-9"
     inkscape:window-maximized="1"
     fit-margin-top="0"
     fit-margin-left="0"
     fit-margin-right="0"
     fit-margin-bottom="0" />
  <metadata
     id="metadata5">
    <rdf:RDF>
      <cc:Work
         rdf:about="">
        <dc:format>image/svg+xml</dc:format>
        <dc:type
           rdf:resource="http://purl.org/dc/dcmitype/StillImage" />
        <dc:title></dc:title>
      </cc:Work>
    </rdf:RDF>
  </metadata>
  <g
     inkscape:label="Layer 1"
     inkscape:groupmode="layer"
     id="layer1"
     transform="translate(-12.416735,-162.88202)">
    <path
       style="fill:#000000;stroke-width:0.254114"
       d="m 13.687307,170.29428 v -5.40241 l -0.635287,-0.63529 c -0.349406,-0.3494 -0.635285,-0.67487 -0.635285,-0.72324 0,-0.0483 0.314467,-0.16297 0.698815,-0.25463 0.384347,-0.0917 0.898929,-0.22612 1.143515,-0.29879 0.404018,-0.12005 0.444699,0.11631 0.444699,2.58285 0,2.69257 0.0047,2.71367 0.571758,2.55814 3.063698,-0.84037 5.018741,-0.003 5.553719,2.37764 0.321826,1.43233 -0.113496,2.93978 -1.147561,3.97385 -1.055875,1.05587 -2.359534,1.31834 -3.977759,0.80086 -1.092397,-0.34934 -1.245633,-0.34755 -1.611886,0.0188 -0.370229,0.37023 -0.404728,-0.0558 -0.404728,-4.99767 z m 4.537205,4.42315 c 0.916041,-0.47371 1.307425,-1.38459 1.307425,-3.0428 0,-2.45628 -1.581418,-3.8458 -3.763356,-3.3067 l -0.937759,0.23169 -0.07245,2.60731 c -0.06909,2.48633 -0.04308,2.63667 0.560207,3.23996 0.724205,0.72421 1.829628,0.82712 2.905932,0.27054 z m 8.981679,0.56541 c -0.810993,-0.811 0.212702,-2.40776 2.234485,-3.48537 1.420994,-0.75737 1.526409,-0.8751 1.526409,-1.70476 0,-0.49017 -0.118373,-1.1124 -0.263055,-1.38273 -0.546468,-1.02109 -2.359952,-0.32958 -2.654666,1.01225 -0.165898,0.75532 -0.813606,1.21941 -1.184398,0.84862 -0.317175,-0.31718 0.698119,-1.79037 1.622181,-2.35376 1.047603,-0.63874 2.25136,-0.64669 3.023544,-0.02 0.565687,0.45911 0.596381,0.62944 0.538069,2.98585 -0.03401,1.3744 -0.0033,2.75623 0.06837,3.07069 0.143629,0.63071 0.837043,0.75919 1.37138,0.25411 0.276985,-0.26181 0.285966,-0.22018 0.0511,0.23691 -0.525639,1.02295 -2.132431,1.06701 -2.44977,0.0672 -0.152052,-0.47907 -0.19397,-0.47434 -1.242367,0.14002 -1.176494,0.68947 -2.159559,0.81263 -2.641276,0.33091 z m 3.091338,-0.98409 c 0.562631,-0.44256 0.669556,-0.72805 0.669556,-1.78774 0,-1.22534 -0.01619,-1.25275 -0.571757,-0.96751 -0.892659,0.4583 -2.223502,1.81368 -2.223502,2.2645 0,1.04963 1.094087,1.30223 2.125703,0.49075 z m 6.325183,0.87109 c -0.453357,-0.2235 -1.048626,-0.76934 -1.322815,-1.21299 -1.763341,-2.85314 0.02619,-6.22097 3.316228,-6.24103 1.194742,-0.008 2.515534,0.46193 2.515534,0.89366 0,0.65935 -0.593011,0.69557 -1.678658,0.1025 -0.884266,-0.48305 -1.233254,-0.55126 -1.805206,-0.35285 -0.897586,0.31136 -1.597508,1.67434 -1.598029,3.1119 -10e-4,2.69175 2.105728,4.11803 4.360384,2.95211 0.545324,-0.282 0.746458,-0.30784 0.672653,-0.0864 -0.173136,0.51941 -1.785352,1.25147 -2.742437,1.24527 -0.49135,-0.003 -1.264296,-0.18863 -1.717654,-0.41214 z m -14.104931,-0.12051 0.825871,-0.23846 v -5.32102 -5.32102 l -0.669136,-0.3506 -0.669137,-0.3506 1.162835,-0.2928 c 0.63956,-0.16104 1.22655,-0.29281 1.304424,-0.29281 0.07787,0 0.141588,2.67773 0.141588,5.95052 v 5.95051 l 0.698815,0.25522 c 0.562444,0.20543 0.277307,0.25468 -1.461158,0.25238 -1.765846,-0.003 -2.009277,-0.0464 -1.3341,-0.24132 z m 20.075036,0.0222 c 0.568222,-0.2284 0.571758,-0.26379 0.571758,-5.72526 0,-5.45917 -0.0038,-5.49641 -0.562739,-5.6426 -0.508416,-0.13296 -0.477753,-0.17786 0.317642,-0.4651 1.578211,-0.56997 1.515669,-0.72826 1.515669,3.83627 0,2.52508 0.09756,4.19288 0.245271,4.19288 0.244051,0 1.999489,-1.42001 2.355511,-1.90542 0.330876,-0.45113 0.207923,-0.80568 -0.377282,-1.08791 -0.466629,-0.22504 -0.221333,-0.27709 1.3341,-0.283 1.795911,-0.007 1.861879,0.012 1.143515,0.33079 -0.419289,0.18592 -1.302706,0.81763 -1.963152,1.4038 l -1.200811,1.06574 1.658966,1.95327 c 0.912428,1.0743 1.967375,2.09107 2.344322,2.25946 0.597112,0.26676 0.407241,0.30276 -1.47461,0.27958 -1.187985,-0.015 -1.845506,-0.0743 -1.461159,-0.13251 0.384349,-0.0582 0.698815,-0.26058 0.698815,-0.44968 0,-0.47364 -2.50876,-3.18002 -2.947812,-3.18002 -0.268524,0 -0.355674,0.40673 -0.355674,1.65993 0,1.48391 0.06063,1.68429 0.571757,1.88975 0.421893,0.16958 0.105513,0.22981 -1.207044,0.22981 -1.312558,0 -1.628936,-0.0602 -1.207043,-0.22981 z"
       id="path1464" />
  </g>
</svg>
