<?xml version="1.0" encoding="UTF-8" standalone="no"?>
<svg
   xmlns:dc="http://purl.org/dc/elements/1.1/"
   xmlns:cc="http://creativecommons.org/ns#"
   xmlns:rdf="http://www.w3.org/1999/02/22-rdf-syntax-ns#"
   xmlns:svg="http://www.w3.org/2000/svg"
   xmlns="http://www.w3.org/2000/svg"
   xmlns:sodipodi="http://sodipodi.sourceforge.net/DTD/sodipodi-0.dtd"
   xmlns:inkscape="http://www.inkscape.org/namespaces/inkscape"
   width="97.999672mm"
   height="18.000011mm"
   viewBox="0 0 97.999672 18.000011"
   version="1.1"
   id="svg8"
   inkscape:version="1.0 (4035a4fb49, 2020-05-01)"
   sodipodi:docname="choose-icon-title.svg">
  <defs
     id="defs2" />
  <sodipodi:namedview
     id="base"
     pagecolor="#9c9c9c"
     bordercolor="#666666"
     borderopacity="1.0"
     inkscape:pageopacity="0"
     inkscape:pageshadow="2"
     inkscape:zoom="2.5230782"
     inkscape:cx="208.22902"
     inkscape:cy="-21.380956"
     inkscape:document-units="mm"
     inkscape:current-layer="g983"
     inkscape:document-rotation="0"
     showgrid="false"
     inkscape:window-width="1920"
     inkscape:window-height="1001"
     inkscape:window-x="-9"
     inkscape:window-y="-9"
     inkscape:window-maximized="1"
     fit-margin-top="0"
     fit-margin-left="0"
     fit-margin-right="0"
     fit-margin-bottom="0" />
  <metadata
     id="metadata5">
    <rdf:RDF>
      <cc:Work
         rdf:about="">
        <dc:format>image/svg+xml</dc:format>
        <dc:type
           rdf:resource="http://purl.org/dc/dcmitype/StillImage" />
        <dc:title></dc:title>
      </cc:Work>
    </rdf:RDF>
  </metadata>
  <g
     inkscape:label="Layer 1"
     inkscape:groupmode="layer"
     id="layer1"
     transform="translate(-51.110539,-139.03173)">
    <g
       id="g983"
       transform="translate(19.646426,0.27671023)">
      <g
         transform="matrix(0.99567753,0,0,1.0004639,0.13636766,-0.06437223)"
         id="g884">
        <g
           aria-label="Images"
           id="text835"
           style="font-size:25.4px;line-height:0.5;font-family:sans-serif;-inkscape-font-specification:Tahoma;text-align:center;letter-spacing:1.32556px;text-anchor:middle;fill:#a9a9a9;fill-opacity:1;stroke:#a9a9a9;stroke-width:0.43867;stroke-miterlimit:4;stroke-dasharray:none;stroke-opacity:1"
           transform="matrix(0.69899672,0,0,0.68012878,6.0515771,56.044228)">
          <path
             d="M 43.743095,142.5983 H 36.57454 v -1.88516 h 2.356446 V 126.01636 H 36.57454 v -1.88515 h 7.168555 v 1.88515 H 41.38665 v 14.69678 h 2.356445 z"
             style="font-size:25.4px;fill:#a9a9a9;fill-opacity:1;stroke:#a9a9a9;stroke-width:0.43867;stroke-miterlimit:4;stroke-dasharray:none;stroke-opacity:1"
             id="path837" />
          <path
             d="m 63.634966,142.5983 v -8.01192 q 0,-0.95498 -0.07441,-1.76113 -0.07441,-0.81855 -0.310059,-1.27744 -0.248047,-0.49609 -0.706933,-0.73174 -0.458887,-0.23564 -1.240235,-0.23564 -0.719336,0 -1.550293,0.44648 -0.818554,0.43408 -1.699121,1.26504 0.0124,0.21084 0.02481,0.5085 0.02481,0.28525 0.02481,0.68212 v 9.11573 H 55.77188 v -8.01192 q 0,-0.95498 -0.07441,-1.76113 -0.07441,-0.81855 -0.310059,-1.27744 -0.248047,-0.49609 -0.706933,-0.73174 -0.458887,-0.23564 -1.240235,-0.23564 -0.756543,0 -1.5875,0.47129 -0.830957,0.47128 -1.612304,1.20302 v 10.34356 h -2.331641 v -13.85342 h 2.331641 v 1.53789 q 0.917773,-0.91777 1.810742,-1.41387 0.905371,-0.50849 1.984375,-0.50849 1.227832,0 2.17041,0.5581 0.95498,0.55811 1.451074,1.83555 1.054199,-1.17822 2.058789,-1.78594 1.00459,-0.60771 2.182813,-0.60771 0.892968,0 1.624707,0.28525 0.731738,0.27285 1.277441,0.89297 0.558106,0.63252 0.855762,1.5751 0.310058,0.94258 0.310058,2.36884 v 9.11573 z"
             style="font-size:25.4px;fill:#a9a9a9;fill-opacity:1;stroke:#a9a9a9;stroke-width:0.43867;stroke-miterlimit:4;stroke-dasharray:none;stroke-opacity:1"
             id="path839" />
          <path
             d="m 78.305449,139.18765 v -3.84472 q -0.830957,0.0744 -2.108398,0.21084 -1.265039,0.12402 -2.046387,0.35966 -0.930176,0.28526 -1.53789,0.88057 -0.607715,0.58291 -0.607715,1.63711 0,1.19062 0.669726,1.79834 0.669727,0.60771 1.959571,0.60771 1.103808,0 1.996777,-0.47128 0.892969,-0.4837 1.674316,-1.17823 z m 0,1.93477 q -0.285254,0.21084 -0.768945,0.59531 -0.471289,0.37207 -0.917773,0.59531 -0.620118,0.32246 -1.203028,0.4961 -0.570508,0.17363 -1.612304,0.17363 -0.855762,0 -1.624707,-0.32246 -0.768946,-0.32246 -1.351856,-0.90537 -0.558105,-0.57051 -0.892969,-1.40147 -0.334863,-0.84336 -0.334863,-1.77353 0,-1.43867 0.607715,-2.44326 0.607715,-1.017 1.922363,-1.61231 1.16582,-0.5333 2.75332,-0.73174 1.5875,-0.21084 3.423047,-0.31006 v -0.44648 q 0,-0.81855 -0.248047,-1.31465 -0.248046,-0.50849 -0.694531,-0.78135 -0.446484,-0.28525 -1.091406,-0.37207 -0.644922,-0.0992 -1.327051,-0.0992 -0.806152,0 -1.897558,0.24804 -1.091407,0.23565 -2.182813,0.69453 h -0.136426 v -2.36884 q 0.644922,-0.18604 1.84795,-0.40928 1.203027,-0.22324 2.38125,-0.22324 1.426269,0 2.406054,0.22324 0.979785,0.22324 1.761133,0.80615 0.756543,0.57051 1.128613,1.47588 0.372071,0.90537 0.372071,2.20762 v 9.47539 h -2.319239 z"
             style="font-size:25.4px;fill:#a9a9a9;fill-opacity:1;stroke:#a9a9a9;stroke-width:0.43867;stroke-miterlimit:4;stroke-dasharray:none;stroke-opacity:1"
             id="path841" />
          <path
             d="m 93.571248,138.84039 v -7.60264 q -0.868164,-0.42168 -1.612304,-0.59531 -0.731739,-0.18604 -1.463477,-0.18604 -1.773535,0 -2.790527,1.30225 -1.016992,1.30224 -1.016992,3.7331 0,2.30684 0.768945,3.50987 0.781348,1.20302 2.517676,1.20302 0.905371,0 1.860351,-0.35966 0.967383,-0.35967 1.736328,-1.00459 z m -7.838281,5.97793 q 0.235645,0.0992 0.694531,0.26045 0.458887,0.17363 1.041797,0.32246 0.644922,0.16123 1.190625,0.26045 0.545703,0.0992 1.190625,0.0992 1.079004,0 1.823145,-0.28525 0.756543,-0.28525 1.178222,-0.79375 0.396875,-0.5085 0.558106,-1.17822 0.16123,-0.66973 0.16123,-1.52549 v -1.21543 q -0.942578,0.81855 -1.847949,1.21543 -0.905371,0.38447 -2.269629,0.38447 -2.368847,0 -3.770312,-1.76113 -1.401465,-1.76113 -1.401465,-5.06016 0,-1.72392 0.483691,-3.05097 0.483692,-1.33946 1.302246,-2.26963 0.781348,-0.89297 1.84795,-1.37666 1.066601,-0.48369 2.207617,-0.48369 1.079004,0 1.860351,0.26045 0.79375,0.24804 1.5875,0.71933 l 0.136426,-0.59531 h 2.195215 v 12.27832 q 0,3.52227 -1.537891,5.17178 -1.53789,1.64951 -4.700488,1.64951 -1.016992,0 -2.083594,-0.16123 -1.054199,-0.16123 -1.971972,-0.43408 v -2.43086 z"
             style="font-size:25.4px;fill:#a9a9a9;fill-opacity:1;stroke:#a9a9a9;stroke-width:0.43867;stroke-miterlimit:4;stroke-dasharray:none;stroke-opacity:1"
             id="path843" />
          <path
             d="m 106.61702,142.92076 q -3.31142,0 -5.14697,-1.86035 -1.823144,-1.87276 -1.823144,-5.30821 0,-3.38584 1.773534,-5.38261 1.77354,-2.00918 4.63848,-2.00918 1.28984,0 2.28203,0.37207 0.99219,0.37207 1.73633,1.16582 0.74414,0.79375 1.14101,1.94717 0.39688,1.14101 0.39688,2.80292 v 1.26504 h -9.59942 q 0,2.41846 1.21543,3.6959 1.21543,1.27744 3.36104,1.27744 0.76894,0 1.50068,-0.17363 0.74414,-0.17363 1.33946,-0.44648 0.63251,-0.28526 1.0666,-0.54571 0.43408,-0.27285 0.71933,-0.50849 h 0.13643 v 2.54248 q -0.40928,0.16123 -1.01699,0.40928 -0.60772,0.23564 -1.09141,0.37207 -0.68213,0.18603 -1.24023,0.28525 -0.54571,0.0992 -1.38907,0.0992 z m 2.72852,-8.79326 q -0.0248,-0.94258 -0.22324,-1.62471 -0.19844,-0.68213 -0.57051,-1.15342 -0.40928,-0.5209 -1.0542,-0.79375 -0.63252,-0.27285 -1.5751,-0.27285 -0.93017,0 -1.5875,0.28525 -0.64492,0.27286 -1.17822,0.80616 -0.5209,0.5457 -0.79375,1.21543 -0.27285,0.65732 -0.34727,1.53789 z"
             style="font-size:25.4px;fill:#a9a9a9;fill-opacity:1;stroke:#a9a9a9;stroke-width:0.43867;stroke-miterlimit:4;stroke-dasharray:none;stroke-opacity:1"
             id="path845" />
          <path
             d="m 119.06749,142.93316 q -1.38906,0 -2.60449,-0.37207 -1.20303,-0.37207 -1.99678,-0.79375 v -2.61689 h 0.12402 q 0.29766,0.23564 0.69454,0.52089 0.40927,0.28526 1.079,0.59532 0.59531,0.27285 1.30225,0.48369 0.71933,0.21084 1.48828,0.21084 0.5581,0 1.19062,-0.12403 0.63252,-0.13642 0.94258,-0.33486 0.43408,-0.28525 0.62012,-0.60771 0.19844,-0.32246 0.19844,-0.96739 0,-0.83095 -0.45889,-1.25263 -0.44649,-0.42168 -1.5999,-0.70694 -0.44649,-0.11162 -1.16582,-0.26045 -0.71934,-0.14882 -1.32706,-0.32246 -1.5875,-0.45888 -2.30683,-1.41386 -0.71934,-0.96739 -0.71934,-2.33164 0,-1.87276 1.41387,-3.05098 1.41387,-1.17822 3.75791,-1.17822 1.15342,0 2.31924,0.28525 1.16582,0.28525 1.95957,0.71934 v 2.49287 h -0.12402 q -0.89297,-0.70694 -1.99678,-1.11621 -1.09141,-0.40928 -2.20762,-0.40928 -1.15342,0 -1.94717,0.48369 -0.79375,0.48369 -0.79375,1.46348 0,0.86816 0.47129,1.30224 0.47129,0.42168 1.51309,0.69453 0.5209,0.13643 1.15342,0.27286 0.64492,0.12402 1.35185,0.29765 1.53789,0.38447 2.30684,1.27744 0.78134,0.89297 0.78134,2.43086 0,0.89297 -0.35966,1.69912 -0.34727,0.79375 -1.0294,1.36426 -0.74414,0.62012 -1.68672,0.94258 -0.93017,0.32246 -2.34404,0.32246 z"
             style="font-size:25.4px;fill:#a9a9a9;fill-opacity:1;stroke:#a9a9a9;stroke-width:0.43867;stroke-miterlimit:4;stroke-dasharray:none;stroke-opacity:1"
             id="path847" />
        </g>
        <g
           id="g871"
           transform="matrix(1.0040578,0,0,0.99942575,-26.710044,20.469713)"
           style="fill:#a9a9a9;fill-opacity:1;stroke:none;stroke-width:0.3;stroke-miterlimit:4;stroke-dasharray:none;stroke-opacity:1">
          <g
             transform="translate(3.4880581,-20.722286)"
             id="g928"
             style="fill:#a9a9a9;fill-opacity:1;stroke:none;stroke-width:0.3;stroke-miterlimit:4;stroke-dasharray:none;stroke-opacity:1">
            <path
               id="path854"
               style="fill:#a9a9a9;fill-opacity:1;stroke:none;stroke-width:0.3;stroke-linejoin:round;stroke-miterlimit:4;stroke-dasharray:none;stroke-opacity:1"
               inkscape:transform-center-x="-0.02827905"
               inkscape:transform-center-y="-3.1510533"
               d="m 135.64819,154.50298 -8.7734,0.0391 4.35287,-7.61753 z" />
            <path
               id="path854-8"
               style="fill:#a9a9a9;fill-opacity:1;stroke:none;stroke-width:0.3;stroke-linejoin:round;stroke-miterlimit:4;stroke-dasharray:none;stroke-opacity:1"
               inkscape:transform-center-x="-0.047234403"
               inkscape:transform-center-y="-5.2637592"
               d="m 150.30401,154.43451 -14.6558,0.0653 7.27139,-12.72493 z" />
          </g>
          <path
             transform="matrix(0.26458333,0,0,0.26458333,13.0626,134.28822)"
             d="M 434.41406,-60.226562 V 7.7929688 H 540.10742 V -60.226562 Z m 4,4 h 97.51563 V 4.1425781 h -97.51563 z"
             style="fill:#a9a9a9;fill-opacity:1;stroke:none;stroke-width:1.13386;stroke-linejoin:round;stroke-miterlimit:4;stroke-dasharray:none;stroke-opacity:1"
             id="rect924" />
          <circle
             r="0.97831839"
             cy="123.13869"
             cx="140.97902"
             id="path967"
             style="fill:#a9a9a9;fill-opacity:1;stroke:none;stroke-width:0.3;stroke-linejoin:round;stroke-miterlimit:4;stroke-dasharray:none;stroke-opacity:1" />
        </g>
      </g>
    </g>
  </g>
</svg>
