<?xml version="1.0" encoding="UTF-8" standalone="no"?>
<svg
   xmlns:dc="http://purl.org/dc/elements/1.1/"
   xmlns:cc="http://creativecommons.org/ns#"
   xmlns:rdf="http://www.w3.org/1999/02/22-rdf-syntax-ns#"
   xmlns:svg="http://www.w3.org/2000/svg"
   xmlns="http://www.w3.org/2000/svg"
   xmlns:sodipodi="http://sodipodi.sourceforge.net/DTD/sodipodi-0.dtd"
   xmlns:inkscape="http://www.inkscape.org/namespaces/inkscape"
   sodipodi:docname="range-star.svg"
   inkscape:version="1.0 (4035a4fb49, 2020-05-01)"
   id="svg8"
   version="1.1"
   viewBox="0 0 100 100"
   height="100mm"
   width="100mm">
  <defs
     id="defs2">
    <inkscape:path-effect
       end_linecap_type="zerowidth"
       scale_width="1"
       miter_limit="4"
       linejoin_type="extrp_arc"
       start_linecap_type="zerowidth"
       interpolator_beta="0.2"
       interpolator_type="CubicBezierJohan"
       sort_points="true"
       offset_points="0,0.1322915"
       lpeversion="1"
       is_visible="true"
       id="path-effect859"
       effect="powerstroke" />
    <inkscape:path-effect
       end_linecap_type="zerowidth"
       scale_width="1"
       miter_limit="4"
       linejoin_type="extrp_arc"
       start_linecap_type="zerowidth"
       interpolator_beta="0.2"
       interpolator_type="CubicBezierJohan"
       sort_points="true"
       offset_points="0,0.1322915"
       lpeversion="1"
       is_visible="true"
       id="path-effect841"
       effect="powerstroke" />
  </defs>
  <sodipodi:namedview
     inkscape:window-maximized="1"
     inkscape:window-y="-9"
     inkscape:window-x="-9"
     inkscape:window-height="1001"
     inkscape:window-width="1920"
     showgrid="false"
     inkscape:document-rotation="0"
     inkscape:current-layer="layer1"
     inkscape:document-units="mm"
     inkscape:cy="126.1041"
     inkscape:cx="455.12714"
     inkscape:zoom="1"
     inkscape:pageshadow="2"
     inkscape:pageopacity="0.0"
     borderopacity="1.0"
     bordercolor="#666666"
     pagecolor="#ffffff"
     id="base" />
  <metadata
     id="metadata5">
    <rdf:RDF>
      <cc:Work
         rdf:about="">
        <dc:format>image/svg+xml</dc:format>
        <dc:type
           rdf:resource="http://purl.org/dc/dcmitype/StillImage" />
        <dc:title></dc:title>
      </cc:Work>
    </rdf:RDF>
  </metadata>
  <g
     id="layer1"
     inkscape:groupmode="layer"
     inkscape:label="Layer 1">
    <path
       id="path861"
       d="m 49.540633,63.695348 c -1.113306,-5.248497 -2.135322,-9.653851 -2.271144,-9.789674 -0.135824,-0.135825 -4.541177,-1.157839 -9.789674,-2.271146 -5.248497,-1.113307 -9.542722,-2.086788 -9.542722,-2.163296 0,-0.0765 4.294225,-1.049989 9.542722,-2.163296 5.248497,-1.113307 9.65385,-2.135323 9.789674,-2.271145 0.135822,-0.135824 1.157838,-4.541178 2.271144,-9.789675 1.113308,-5.248497 2.086791,-9.542721 2.163298,-9.542721 0.0765,0 1.049988,4.294224 2.163295,9.542721 1.113306,5.248497 2.135322,9.653851 2.271146,9.789675 0.135824,0.135822 4.541177,1.157838 9.789671,2.271145 5.248502,1.113307 9.54272,2.086789 9.54272,2.163296 0,0.07651 -4.294218,1.049989 -9.54272,2.163296 -5.248494,1.113307 -9.653847,2.135321 -9.789671,2.271146 -0.135824,0.135823 -1.15784,4.541177 -2.271146,9.789674 -1.113307,5.248495 -2.086789,9.542722 -2.163295,9.542722 -0.0765,0 -1.04999,-4.294227 -2.163298,-9.542722 z"
       style="opacity:0.379;fill:#d40000;stroke-width:0.22635" />
  </g>
</svg>
