<?xml version="1.0" encoding="UTF-8" standalone="no"?>
<svg
   xmlns:dc="http://purl.org/dc/elements/1.1/"
   xmlns:cc="http://creativecommons.org/ns#"
   xmlns:rdf="http://www.w3.org/1999/02/22-rdf-syntax-ns#"
   xmlns:svg="http://www.w3.org/2000/svg"
   xmlns="http://www.w3.org/2000/svg"
   xmlns:sodipodi="http://sodipodi.sourceforge.net/DTD/sodipodi-0.dtd"
   xmlns:inkscape="http://www.inkscape.org/namespaces/inkscape"
   width="100mm"
   height="100mm"
   viewBox="0 0 100 100"
   version="1.1"
   id="svg8"
   inkscape:version="1.0 (4035a4fb49, 2020-05-01)"
   sodipodi:docname="range-explo.svg">
  <defs
     id="defs2">
    <inkscape:path-effect
       end_linecap_type="zerowidth"
       scale_width="1"
       miter_limit="4"
       linejoin_type="extrp_arc"
       start_linecap_type="zerowidth"
       interpolator_beta="0.2"
       interpolator_type="CubicBezierJohan"
       sort_points="true"
       offset_points="0,0.1322915"
       lpeversion="1"
       is_visible="true"
       id="path-effect865"
       effect="powerstroke" />
    <inkscape:path-effect
       end_linecap_type="zerowidth"
       scale_width="1"
       miter_limit="4"
       linejoin_type="extrp_arc"
       start_linecap_type="zerowidth"
       interpolator_beta="0.2"
       interpolator_type="CubicBezierJohan"
       sort_points="true"
       offset_points="0,0.1322915"
       lpeversion="1"
       is_visible="true"
       id="path-effect847"
       effect="powerstroke" />
    <inkscape:path-effect
       end_linecap_type="zerowidth"
       scale_width="1"
       miter_limit="4"
       linejoin_type="extrp_arc"
       start_linecap_type="zerowidth"
       interpolator_beta="0.2"
       interpolator_type="CubicBezierJohan"
       sort_points="true"
       offset_points="0,0.1322915"
       lpeversion="1"
       is_visible="true"
       id="path-effect843"
       effect="powerstroke" />
    <inkscape:path-effect
       effect="powerstroke"
       id="path-effect859"
       is_visible="true"
       lpeversion="1"
       offset_points="0,0.1322915"
       sort_points="true"
       interpolator_type="CubicBezierJohan"
       interpolator_beta="0.2"
       start_linecap_type="zerowidth"
       linejoin_type="extrp_arc"
       miter_limit="4"
       scale_width="1"
       end_linecap_type="zerowidth" />
    <inkscape:path-effect
       effect="powerstroke"
       id="path-effect841"
       is_visible="true"
       lpeversion="1"
       offset_points="0,0.1322915"
       sort_points="true"
       interpolator_type="CubicBezierJohan"
       interpolator_beta="0.2"
       start_linecap_type="zerowidth"
       linejoin_type="extrp_arc"
       miter_limit="4"
       scale_width="1"
       end_linecap_type="zerowidth" />
  </defs>
  <sodipodi:namedview
     id="base"
     pagecolor="#ffffff"
     bordercolor="#666666"
     borderopacity="1.0"
     inkscape:pageopacity="0.0"
     inkscape:pageshadow="2"
     inkscape:zoom="0.96588235"
     inkscape:cx="455.12714"
     inkscape:cy="126.1041"
     inkscape:document-units="mm"
     inkscape:current-layer="layer1"
     inkscape:document-rotation="0"
     showgrid="false"
     inkscape:window-width="1920"
     inkscape:window-height="1001"
     inkscape:window-x="-9"
     inkscape:window-y="-9"
     inkscape:window-maximized="1" />
  <metadata
     id="metadata5">
    <rdf:RDF>
      <cc:Work
         rdf:about="">
        <dc:format>image/svg+xml</dc:format>
        <dc:type
           rdf:resource="http://purl.org/dc/dcmitype/StillImage" />
        <dc:title></dc:title>
      </cc:Work>
    </rdf:RDF>
  </metadata>
  <g
     inkscape:label="Layer 1"
     inkscape:groupmode="layer"
     id="layer1">
    <path
       id="path867"
       d="m 48.314194,70.945889 c -0.97319,-1.842912 -1.83846,-3.350141 -1.92282,-3.349396 -0.0844,6.93e-4 -1.43674,1.054138 -3.00529,2.340877 -1.87945,1.541785 -2.91142,2.246868 -3.02645,2.067788 -0.096,-0.149458 -0.31694,-1.769724 -0.49097,-3.60059 -0.17403,-1.830866 -0.39392,-3.449503 -0.48864,-3.596969 -0.12332,-0.191987 -1.18515,0.0311 -3.739471,0.785645 -1.961987,0.579569 -3.589874,1.031993 -3.617526,1.005386 -0.02765,-0.02661 0.419109,-1.712542 0.992804,-3.746521 0.573695,-2.033982 1.006035,-3.734063 0.960756,-3.777959 -0.04528,-0.0439 -1.73617,-0.28354 -3.757538,-0.532543 -2.021368,-0.249001 -3.706037,-0.482389 -3.743709,-0.518636 -0.03767,-0.03625 0.959484,-1.381087 2.215902,-2.98853 1.256419,-1.607443 2.284398,-3.020136 2.284398,-3.139321 0,-0.119182 -1.458626,-1.032363 -3.241391,-2.029291 -1.782765,-0.996926 -3.240213,-1.864629 -3.238773,-1.928227 0.0014,-0.0636 1.460066,-0.930698 3.241391,-1.926891 1.781325,-0.996191 3.238773,-1.909373 3.238773,-2.029291 0,-0.119918 -1.034814,-1.541958 -2.299587,-3.160089 L 26.376466,37.879274 27.130949,37.7308 c 0.414965,-0.08166 2.017611,-0.276852 3.561434,-0.433758 1.543824,-0.156906 2.927137,-0.35065 3.074029,-0.430542 0.183777,-0.09995 -0.05571,-1.297331 -0.767837,-3.839031 -0.569202,-2.031576 -1.013862,-3.712013 -0.988132,-3.734306 0.02573,-0.02229 1.642516,0.434053 3.592858,1.014101 1.950343,0.580048 3.623053,0.980566 3.717133,0.89004 0.0941,-0.09053 0.35198,-1.778296 0.5731,-3.750599 0.22112,-1.972304 0.45987,-3.64165 0.53055,-3.709657 0.0707,-0.06801 1.40772,0.925743 2.97121,2.208332 1.56348,1.28259 2.91172,2.332589 2.99608,2.333333 0.0844,7.4e-4 0.94963,-1.506486 1.92282,-3.349399 0.97318,-1.842913 1.82351,-3.350238 1.88961,-3.349611 0.0661,6.27e-4 0.92166,1.508465 1.90126,3.350751 0.9796,1.842286 1.86064,3.349611 1.95787,3.349611 0.0972,0 1.45263,-1.04409 3.01201,-2.3202 1.95036,-1.596075 2.886,-2.227623 2.99792,-2.02357 0.0895,0.163147 0.30357,1.776318 0.47575,3.584825 0.17218,1.808507 0.39203,3.411145 0.48855,3.561417 0.12767,0.198762 1.1467,-0.01593 3.73919,-0.78779 1.96003,-0.583557 3.59109,-1.034651 3.62458,-1.002433 0.0335,0.03222 -0.3623,1.560803 -0.87953,3.396856 -0.51722,1.836053 -0.97492,3.540099 -1.01712,3.78677 -0.0704,0.411258 0.20841,0.481994 3.35776,0.852041 1.88897,0.221953 3.6007,0.436409 3.80384,0.476569 0.26257,0.05191 -0.29605,0.923812 -1.93229,3.015928 -1.2659,1.6186 -2.30163,3.040423 -2.30163,3.159606 0,0.119183 1.45862,1.032364 3.24139,2.029292 1.78276,0.996926 3.24251,1.864629 3.24388,1.928226 0.001,0.0636 -1.45725,0.943493 -3.24139,1.955324 -1.78414,1.011829 -3.24388,1.899138 -3.24388,1.971799 0,0.07266 1.03174,1.482289 2.29275,3.13251 l 2.29275,3.000401 -0.74765,0.147621 c -0.4112,0.08119 -2.01077,0.276001 -3.5546,0.432906 -1.54382,0.156906 -2.92943,0.350651 -3.07912,0.430541 -0.19027,0.101547 0.0405,1.257042 0.76703,3.839809 0.57156,2.032004 1.01489,3.717939 0.98518,3.746523 -0.0297,0.02858 -1.6539,-0.420634 -3.60931,-0.998265 -1.95542,-0.577629 -3.61653,-0.991321 -3.69137,-0.919316 -0.0748,0.072 -0.3143,1.742046 -0.53215,3.711204 -0.21785,1.969156 -0.45928,3.641085 -0.53652,3.715395 -0.0772,0.07431 -1.42492,-0.908925 -2.99488,-2.184968 -1.56996,-1.276042 -2.91825,-2.320949 -2.9962,-2.322013 -0.078,-0.0012 -0.94321,1.505393 -1.92281,3.347679 -0.9796,1.842286 -1.83517,3.350123 -1.90126,3.350749 -0.0661,6.94e-4 -0.91643,-1.506697 -1.88961,-3.349612 z"
       style="opacity:0.4;fill:#a02c2c;stroke-width:0.235765" />
  </g>
</svg>
