<?xml version="1.0" encoding="UTF-8" standalone="no"?>
<svg
   xmlns:dc="http://purl.org/dc/elements/1.1/"
   xmlns:cc="http://creativecommons.org/ns#"
   xmlns:rdf="http://www.w3.org/1999/02/22-rdf-syntax-ns#"
   xmlns:svg="http://www.w3.org/2000/svg"
   xmlns="http://www.w3.org/2000/svg"
   xmlns:sodipodi="http://sodipodi.sourceforge.net/DTD/sodipodi-0.dtd"
   xmlns:inkscape="http://www.inkscape.org/namespaces/inkscape"
   sodipodi:docname="resign.svg"
   inkscape:version="1.0 (4035a4fb49, 2020-05-01)"
   id="svg8"
   version="1.1"
   viewBox="0 0 137.31755 168.42371"
   height="168.42371mm"
   width="137.31755mm">
  <defs
     id="defs2">
    <inkscape:path-effect
       end_linecap_type="zerowidth"
       scale_width="1"
       miter_limit="4"
       linejoin_type="extrp_arc"
       start_linecap_type="zerowidth"
       interpolator_beta="0.2"
       interpolator_type="CubicBezierJohan"
       sort_points="true"
       offset_points="0,0.1322915"
       lpeversion="1"
       is_visible="true"
       id="path-effect851"
       effect="powerstroke" />
  </defs>
  <sodipodi:namedview
     inkscape:window-maximized="0"
     inkscape:window-y="0"
     inkscape:window-x="64"
     inkscape:window-height="1030"
     inkscape:window-width="1424"
     fit-margin-bottom="0"
     fit-margin-right="0"
     fit-margin-left="0"
     fit-margin-top="0"
     showgrid="false"
     inkscape:document-rotation="0"
     inkscape:current-layer="layer1"
     inkscape:document-units="mm"
     inkscape:cy="561.29334"
     inkscape:cx="108.18963"
     inkscape:zoom="0.49497475"
     inkscape:pageshadow="2"
     inkscape:pageopacity="0.0"
     borderopacity="1.0"
     bordercolor="#666666"
     pagecolor="#ffffff"
     id="base" />
  <metadata
     id="metadata5">
    <rdf:RDF>
      <cc:Work
         rdf:about="">
        <dc:format>image/svg+xml</dc:format>
        <dc:type
           rdf:resource="http://purl.org/dc/dcmitype/StillImage" />
        <dc:title></dc:title>
      </cc:Work>
    </rdf:RDF>
  </metadata>
  <g
     transform="translate(-32.936655,-6.3452862)"
     id="layer1"
     inkscape:groupmode="layer"
     inkscape:label="Layer 1">
    <g
       id="g855">
      <path
         style="fill:#000000;stroke-width:0.211667"
         d="m 77.15592,157.09941 c -3.077173,-3.34754 -7.991002,-9.5554 -8.861181,-11.19473 -0.2569,-0.48397 -0.687903,-1.1903 -0.957785,-1.56962 -0.904092,-1.2707 -1.637263,-3.30219 -1.516249,-4.20127 0.111166,-0.82591 0.186138,-0.92147 2.678447,-3.41378 2.255713,-2.25571 2.654564,-2.58612 3.316468,-2.74741 0.588408,-0.14338 0.825479,-0.31522 1.087744,-0.78841 0.562156,-1.01427 2.062603,-2.36748 3.026024,-2.72909 0.540161,-0.20274 1.692442,-0.27664 2.95165,-0.18931 3.031659,0.21027 5.529401,0.14232 6.310244,-0.17168 0.387887,-0.15598 1.200763,-0.79002 1.867034,-1.45629 1.438224,-1.43823 2.271271,-1.6759 3.978966,-1.13522 0.625232,0.19796 1.183457,0.37115 1.240498,0.38487 0.143962,0.0346 3.741308,-1.72281 5.376734,-2.62673 2.507136,-1.38573 5.671806,-3.29509 7.094576,-4.28042 0.77817,-0.53893 2.05104,-1.42133 2.82858,-1.96089 0.77754,-0.53957 2.3647,-1.78119 3.52702,-2.75916 1.16231,-0.97798 2.8793,-2.41626 3.81552,-3.19617 2.56981,-2.14077 6.66786,-6.3262 9.02409,-9.21649 3.09095,-3.79155 3.01627,-3.6468 2.47353,-4.794226 -0.61786,-1.30627 -0.75121,-2.05597 -0.52883,-2.97323 0.22332,-0.92116 0.93096,-1.68166 1.83146,-1.96828 0.70105,-0.22313 2.3019,-0.0935 2.6065,0.21116 0.1216,0.1216 0.26005,0.0344 0.41243,-0.25965 0.40255,-0.77688 1.09373,-1.27755 1.79387,-1.2994 0.60326,-0.0188 0.70938,-0.0919 0.93922,-0.6468 0.21807,-0.52647 0.38987,-0.67216 1.08444,-0.91968 0.76999,-0.2744 0.86554,-0.36616 1.42528,-1.3687 0.64375,-1.153 1.7444,-3.52599 2.15736,-4.65123 0.13928,-0.37951 0.29431,-0.73109 0.3445,-0.78129 0.0502,-0.0502 0.24723,-0.50632 0.43785,-1.01362 0.75417,-2.00702 1.67792,-4.09556 1.91734,-4.33498 0.35758,-0.35759 2.84769,0.54782 4.20229,1.52797 0.60724,0.43938 1.26965,0.84835 1.47201,0.90882 0.20236,0.0605 1.25105,0.83028 2.3304,1.71071 1.07936,0.88042 2.01525,1.6033 2.07975,1.60639 0.0645,0.003 0.12995,-0.24848 0.14544,-0.55903 0.0192,-0.38554 0.33666,-0.9207 1.00074,-1.68713 1.05513,-1.21775 1.76185,-1.6231 3.18949,-1.82936 l 0.84055,-0.12143 -0.8811,-0.71768 c -0.48461,-0.39472 -1.13639,-0.83295 -1.4484,-0.97383 -0.7372,-0.33289 -0.77716,-0.75829 -0.18442,-1.96373 0.51543,-1.04822 2.90721,-3.55391 3.75632,-3.93522 0.6615,-0.29705 0.93778,-0.0284 1.26673,1.23178 0.3357,1.28602 1.22846,2.56662 1.55893,2.23616 0.49583,-0.49584 1.1532,-2.85416 1.23114,-4.41675 0.0131,-0.26316 0.1995,-0.6096 0.41417,-0.76989 0.3098,-0.23131 0.63526,-0.16592 1.57791,0.31704 0.95728,0.49044 1.6231,1.04376 3.43315,2.85302 1.97364,1.9728 2.32922,2.41463 2.93659,3.64894 0.7972,1.6201 0.66193,2.06921 -0.65407,2.1715 -0.44968,0.0349 -1.02448,0.0787 -1.27731,0.0972 -1.46772,0.10747 -3.16486,0.83177 -3.16486,1.35067 0,0.19771 2.41713,1.28727 2.85573,1.28727 0.16353,0 0.48464,0.1873 0.71356,0.41622 0.32639,0.32639 0.35223,0.52992 0.11974,0.94293 -0.51838,0.92087 -2.82635,2.98296 -3.99183,3.56655 -1.24094,0.62138 -1.28038,0.59973 -2.63181,-1.44452 -0.72966,-1.10372 -1.10181,-1.33232 -1.00413,-0.61678 0.0956,0.70008 -0.71783,2.43076 -1.51894,3.23188 -0.43702,0.43701 -1.12195,0.87517 -1.66263,1.06358 -1.09247,0.38071 -1.10838,0.59846 -0.11801,1.61508 0.36558,0.37529 0.87681,1.00904 1.13605,1.40835 0.25924,0.39931 1.00315,1.53828 1.65313,2.53103 1.43804,2.19643 2.17904,3.88187 1.92348,4.375086 -0.10694,0.20639 -0.84349,0.62105 -1.68838,0.95051 -0.82428,0.32143 -1.55703,0.63819 -1.62835,0.70392 -0.0713,0.0657 -0.5292,0.25878 -1.01753,0.429 -0.48833,0.17023 -0.9414,0.35846 -1.00683,0.41831 -0.0654,0.0598 -0.53526,0.26353 -1.04407,0.45264 -1.47775,0.54924 -4.75132,2.02996 -5.30742,2.40069 -0.32199,0.21466 -0.54751,0.55505 -0.61263,0.92466 -0.12033,0.68303 -0.72603,1.3565 -1.22,1.3565 -0.26098,0 -0.37678,0.23312 -0.47378,0.95373 -0.12526,0.93062 -0.49267,1.39076 -1.39426,1.74616 -0.22753,0.0897 -0.24986,0.37872 -0.0744,0.96361 0.13783,0.45952 0.17474,1.23304 0.082,1.71893 -0.38468,2.01599 -2.35573,2.73785 -4.59973,1.68458 -0.71411,-0.33518 -1.33729,-0.61207 -1.38483,-0.61531 -0.15631,-0.0106 -4.16797,3.22349 -6.6269,5.34248 -4.90018,4.22275 -10.99301,11.24908 -14.82531,17.09674 -3.69028,5.63094 -6.89525,11.51793 -6.61413,12.149 0.27166,0.60982 0.55157,2.44531 0.4558,2.98891 -0.0682,0.38682 -0.47619,0.92921 -1.37588,1.8289 -1.13653,1.13654 -1.30094,1.38981 -1.47609,2.27391 -0.30352,1.53207 -0.33643,2.49644 -0.18191,5.3309 0.16937,3.1069 -0.1267,4.20785 -1.50129,5.58243 -0.50203,0.50203 -1.18592,0.99548 -1.51976,1.09657 -0.52993,0.16045 -0.61114,0.2465 -0.63967,0.67785 -0.026,0.39253 -0.58103,1.07303 -2.70056,3.31078 -2.65237,2.80033 -2.67244,2.81709 -3.45336,2.88434 -1.537827,0.13241 -4.7404,-1.44417 -7.956015,-3.91662 -1.041402,-0.80073 -2.502933,-1.92402 -3.247847,-2.49621 -2.944027,-2.26141 -8.46966,-7.46292 -11.949978,-11.24902 z"
         id="path847" />
      <path
         style="fill:#000000;fill-rule:nonzero;stroke:#000000;stroke-width:2.5;stroke-linecap:butt;stroke-linejoin:miter;stroke-miterlimit:4;stroke-dasharray:none;stroke-opacity:1"
         d="m 163.03428,60.087096 c 0,0 0.11682,-0.06207 0.11682,-0.06207 v 0 c -1.56556,-2.946466 -4.04221,-6.793245 -8.03481,-11.252535 v 0 C 152.074,45.374594 148.23752,41.718837 143.47098,37.965812 l 0,-5e-6 C 135.09108,31.36773 124.39965,24.92455 111.88446,19.623843 l -1e-5,-4e-6 C 99.324337,14.304102 86.216063,10.681701 73.439942,8.8964587 v 0 C 56.230886,6.4917906 42.63752,7.8123 33.180141,9.6904674 42.63621,7.8125601 56.236117,6.5131691 73.432666,8.9481866 v 0 C 86.200618,10.756118 99.294636,14.40375 111.83273,19.7456 l 1e-5,4e-6 c 12.49412,5.323115 23.15675,11.782515 31.50669,18.386896 l 1e-5,4e-6 c 4.74923,3.756407 8.56766,7.411265 11.59336,10.803945 v 0 c 3.9704,4.451949 6.42889,8.2847 7.98466,11.21272 v 0 c 0,0 0.11682,-0.06207 0.11682,-0.06207 z"
         id="path849"
         sodipodi:nodetypes="cc"
         inkscape:original-d="M 163.03428,60.087096 C 147.04801,30.000172 85.836788,-0.76676352 33.180141,9.6904674"
         inkscape:path-effect="#path-effect851" />
    </g>
  </g>
</svg>
