<?xml version="1.0" encoding="UTF-8" standalone="no"?>
<svg
   xmlns:dc="http://purl.org/dc/elements/1.1/"
   xmlns:cc="http://creativecommons.org/ns#"
   xmlns:rdf="http://www.w3.org/1999/02/22-rdf-syntax-ns#"
   xmlns:svg="http://www.w3.org/2000/svg"
   xmlns="http://www.w3.org/2000/svg"
   xmlns:sodipodi="http://sodipodi.sourceforge.net/DTD/sodipodi-0.dtd"
   xmlns:inkscape="http://www.inkscape.org/namespaces/inkscape"
   width="66mm"
   height="74mm"
   viewBox="0 0 66.000004 74"
   version="1.1"
   id="svg8"
   inkscape:version="1.0 (4035a4fb49, 2020-05-01)"
   sodipodi:docname="resign-game-ffffff.svg">
  <defs
     id="defs2">
    <inkscape:path-effect
       effect="powerstroke"
       id="path-effect851"
       is_visible="true"
       lpeversion="1"
       offset_points="0,0.11686757"
       sort_points="true"
       interpolator_type="CubicBezierJohan"
       interpolator_beta="0.2"
       start_linecap_type="zerowidth"
       linejoin_type="extrp_arc"
       miter_limit="4"
       scale_width="1"
       end_linecap_type="zerowidth" />
  </defs>
  <sodipodi:namedview
     id="base"
     pagecolor="#969696"
     bordercolor="#666666"
     borderopacity="1.0"
     inkscape:pageopacity="0"
     inkscape:pageshadow="2"
     inkscape:zoom="1.979899"
     inkscape:cx="177.92625"
     inkscape:cy="167.69806"
     inkscape:document-units="mm"
     inkscape:current-layer="g3380"
     inkscape:document-rotation="0"
     showgrid="false"
     fit-margin-top="0"
     fit-margin-left="0"
     fit-margin-right="0"
     fit-margin-bottom="0"
     inkscape:window-width="1424"
     inkscape:window-height="1030"
     inkscape:window-x="424"
     inkscape:window-y="0"
     inkscape:window-maximized="0" />
  <metadata
     id="metadata5">
    <rdf:RDF>
      <cc:Work
         rdf:about="">
        <dc:format>image/svg+xml</dc:format>
        <dc:type
           rdf:resource="http://purl.org/dc/dcmitype/StillImage" />
        <dc:title></dc:title>
      </cc:Work>
    </rdf:RDF>
  </metadata>
  <g
     inkscape:label="Layer 1"
     inkscape:groupmode="layer"
     id="layer1"
     transform="translate(-39.25058,-8.562597)">
    <g
       id="g855">
      <g
         id="g3380"
         transform="matrix(0.31981091,0,0,0.31981091,32.593398,7.2130206)">
        <path
           style="fill:#ffffff;fill-opacity:1;stroke:none;stroke-width:2.04334;stroke-miterlimit:4;stroke-dasharray:none;stroke-opacity:1"
           d="m 94.386385,148.18192 c -2.024816,-3.11638 -5.140918,-8.78776 -5.619309,-10.2273 -0.141235,-0.42499 -0.39255,-1.05286 -0.558479,-1.39527 -0.555852,-1.14705 -0.870499,-2.88401 -0.650708,-3.59216 0.201904,-0.65053 0.275321,-0.71734 2.622894,-2.38709 2.124715,-1.51124 2.491098,-1.72329 3.046488,-1.76328 0.493724,-0.0355 0.708154,-0.1418 0.983874,-0.48749 0.59099,-0.741 1.98428,-1.62758 2.80991,-1.78801 0.46291,-0.0899 1.40163,0.007 2.40461,0.24881 2.414745,0.58172 4.437025,0.8666 5.109035,0.71972 0.33383,-0.073 1.07518,-0.47343 1.70276,-0.9198 1.3547,-0.96356 2.05841,-1.04183 3.36119,-0.37385 0.47698,0.24457 0.90333,0.46005 0.94743,0.47886 0.11132,0.0475 3.24956,-0.87972 4.69054,-1.38584 2.20905,-0.77589 5.01923,-1.88439 6.29989,-2.48503 0.70045,-0.32852 1.8463,-0.8666 2.54633,-1.19573 0.70002,-0.32913 2.14802,-1.11397 3.21777,-1.74411 1.06975,-0.63014 2.64913,-1.55583 3.50972,-2.05708 2.36223,-1.37589 6.23417,-4.19184 8.52619,-6.20084 3.00672,-2.63546 2.92686,-2.52895 2.64547,-3.52752 -0.32033,-1.1368 -0.32585,-1.75914 -0.0219,-2.46817 0.30525,-0.71203 0.97899,-1.22872 1.74371,-1.33727 0.59535,-0.0845 1.86792,0.23767 2.07198,0.52462 0.0815,0.11455 0.20491,0.0631 0.36771,-0.15317 0.43007,-0.57139 1.0552,-0.88091 1.62245,-0.80331 0.48875,0.0669 0.58422,0.0224 0.84492,-0.39357 0.24733,-0.39465 0.40561,-0.4887 0.99905,-0.59374 0.65789,-0.11644 0.74737,-0.17741 1.33482,-0.90928 0.67561,-0.84171 1.88536,-2.604538 2.37119,-3.455263 0.16386,-0.286923 0.33662,-0.549196 0.38389,-0.582829 0.0473,-0.03364 0.26811,-0.374446 0.49072,-0.75738 0.88074,-1.514989 1.90924,-3.072618 2.13475,-3.233022 0.33683,-0.23957 2.22059,0.828752 3.17903,1.8029 0.42966,0.43669 0.90791,0.856373 1.06278,0.932628 0.15486,0.07628 0.89537,0.839279 1.64554,1.695629 0.75018,0.856344 1.40616,1.566211 1.45771,1.577471 0.0516,0.01123 0.13853,-0.182589 0.19324,-0.430768 0.0679,-0.308111 0.39653,-0.696253 1.03597,-1.223647 1.01596,-0.837958 1.64066,-1.068545 2.81931,-1.040643 l 0.69394,0.01643 -0.61253,-0.698225 c -0.33688,-0.38402 -0.80259,-0.825841 -1.03489,-0.981809 -0.54888,-0.368538 -0.52323,-0.71682 0.11839,-1.607735 0.55795,-0.774716 2.82633,-2.468916 3.56251,-2.660767 0.57353,-0.149451 0.75967,0.104638 0.85342,1.165001 0.0957,1.082108 0.64104,2.235599 0.95232,2.014205 0.46703,-0.332193 1.31754,-2.143473 1.59284,-3.392234 0.0463,-0.210312 0.24368,-0.464174 0.43848,-0.564168 0.28114,-0.144296 0.53455,-0.04734 1.22859,0.470086 0.70483,0.52544 1.1662,1.061926 2.37897,2.766224 1.32237,1.858347 1.54887,2.26279 1.87053,3.340165 0.42219,1.414115 0.2521,1.757679 -0.82243,1.661165 -0.36716,-0.03303 -0.83637,-0.07589 -1.04266,-0.09536 -1.19751,-0.11297 -2.6638,0.239991 -2.73436,0.658195 -0.0269,0.159343 1.77301,1.366151 2.12651,1.425801 0.13179,0.0222 0.36512,0.21685 0.51848,0.43248 0.21867,0.30743 0.21182,0.47498 -0.0317,0.77623 -0.54301,0.67168 -2.6835,2.01976 -3.70218,2.33162 -1.08462,0.33205 -1.11346,0.30924 -1.92466,-1.52208 -0.43797,-0.98876 -0.70682,-1.22361 -0.7254,-0.63364 -0.0182,0.57722 -0.90907,1.86144 -1.66365,2.39816 -0.41164,0.29278 -1.02324,0.55277 -1.48462,0.6311 -0.93224,0.15827 -0.97467,0.3316 -0.31478,1.2856 0.2436,0.35218 0.56945,0.93247 0.72407,1.28954 0.15464,0.35707 0.59931,1.37618 0.98815,2.26466 0.8603,1.96575 1.22832,3.42488 0.95528,3.78764 -0.11424,0.15179 -0.76425,0.38583 -1.48999,0.53646 -0.70803,0.14697 -1.34166,0.30261 -1.40808,0.34589 -0.0664,0.0433 -0.46169,0.1366 -0.87841,0.20738 -0.41671,0.0708 -0.80746,0.16089 -0.86833,0.20023 -0.0608,0.0393 -0.46722,0.1396 -0.90301,0.22282 -1.26567,0.24171 -4.10533,0.98993 -4.60393,1.2131 -0.28869,0.12922 -0.51674,0.37289 -0.61948,0.66192 -0.18991,0.53411 -0.7696,0.99453 -1.16772,0.92736 -0.21033,-0.0355 -0.33536,0.13665 -0.51153,0.70423 -0.2275,0.73299 -0.58619,1.05387 -1.36115,1.2177 -0.19557,0.0414 -0.25287,0.27125 -0.19098,0.7665 0.0486,0.3891 -0.0268,1.01753 -0.16768,1.39651 -0.58417,1.57246 -2.27089,1.88622 -3.93619,0.73219 -0.52996,-0.36724 -0.99456,-0.67514 -1.03242,-0.68422 -0.12454,-0.0298 -3.7975,2.03118 -6.0674,3.40459 -4.5235,2.73695 -10.38943,7.57125 -14.27323,11.76301 -3.73987,4.03639 -7.12343,8.34515 -6.98268,8.89199 0.13602,0.52841 0.11202,2.04578 -0.0391,2.47087 -0.10752,0.30249 -0.51013,0.68413 -1.35757,1.28689 -1.07054,0.76144 -1.23748,0.9432 -1.49886,1.63192 -0.45296,1.19349 -0.61062,1.96624 -0.87152,4.27167 -0.28599,2.52701 -0.67432,3.37406 -1.96908,4.29497 -0.47288,0.33634 -1.09115,0.64103 -1.37395,0.67711 -0.44891,0.0573 -0.52607,0.11556 -0.60772,0.45932 -0.0743,0.31283 -0.61419,0.7858 -2.62671,2.30107 -2.51846,1.89623 -2.53692,1.90701 -3.17543,1.85502 -1.25741,-0.10241 -3.62411,-1.80854 -5.8795,-4.23846 -0.73043,-0.78696 -1.75559,-1.89101 -2.27814,-2.45346 -2.06521,-2.22291 -5.811225,-7.16642 -8.101325,-10.69107 z"
           id="path847" />
        <path
           style="fill:#ffffff;fill-opacity:1;fill-rule:nonzero;stroke:#ffffff;stroke-width:2.20853;stroke-linecap:butt;stroke-linejoin:miter;stroke-miterlimit:4;stroke-dasharray:none;stroke-opacity:1"
           d="m 172.94032,80.567984 c 0,0 0.11273,-0.03082 0.11273,-0.03082 v 0 c -1.70397,-6.232147 -5.33936,-15.366484 -13.20102,-25.712748 v 0 C 154.00064,47.12375 146.4247,39.606332 137.49952,33.291268 l -1e-5,-8e-6 C 128.55531,26.962739 119.1858,22.500106 110.13588,20.042859 v 0 c -12.189826,-3.3098 -21.720245,-2.45682 -28.242075,-0.859598 6.522404,-1.597362 16.055678,-2.430528 28.229935,0.904119 v 0 c 9.03835,2.475693 18.38924,6.957264 27.30816,13.299202 l 10e-6,9e-6 c 8.90052,6.32886 16.44709,13.852801 22.27064,21.551155 v 0 c 7.82408,10.342928 11.42817,19.45489 13.12504,25.66106 v 0 c 0,0 0.11273,-0.03082 0.11273,-0.03082 z"
           id="path849"
           sodipodi:nodetypes="cc"
           inkscape:original-d="M 172.94032,80.567984 C 163.32163,45.388322 118.30889,10.265064 81.893805,19.183261"
           inkscape:path-effect="#path-effect851" />
        <text
           xml:space="preserve"
           style="font-size:47.625px;line-height:0.5;font-family:sans-serif;-inkscape-font-specification:Tahoma;text-align:center;text-anchor:middle;stroke-width:0.264583"
           x="124.91866"
           y="225.45096"
           id="text891"><tspan
             sodipodi:role="line"
             id="tspan889"
             x="124.91866"
             y="225.45096"
             style="font-size:47.625px;fill:#ffffff;stroke-width:0.264583">Resign</tspan></text>
      </g>
    </g>
  </g>
</svg>
