<?xml version="1.0" encoding="UTF-8" standalone="no"?>
<svg
   xmlns:dc="http://purl.org/dc/elements/1.1/"
   xmlns:cc="http://creativecommons.org/ns#"
   xmlns:rdf="http://www.w3.org/1999/02/22-rdf-syntax-ns#"
   xmlns:svg="http://www.w3.org/2000/svg"
   xmlns="http://www.w3.org/2000/svg"
   xmlns:sodipodi="http://sodipodi.sourceforge.net/DTD/sodipodi-0.dtd"
   xmlns:inkscape="http://www.inkscape.org/namespaces/inkscape"
   sodipodi:docname="save-b1faae.svg"
   inkscape:version="1.0 (4035a4fb49, 2020-05-01)"
   id="svg8"
   version="1.1"
   viewBox="0 0 13.229168 17.991666"
   height="68"
   width="50">
  <defs
     id="defs2">
    <inkscape:path-effect
       end_linecap_type="zerowidth"
       scale_width="1"
       miter_limit="4"
       linejoin_type="extrp_arc"
       start_linecap_type="zerowidth"
       interpolator_beta="0.2"
       interpolator_type="CubicBezierJohan"
       sort_points="true"
       offset_points="0,0.12744213"
       lpeversion="1"
       is_visible="true"
       id="path-effect1009"
       effect="powerstroke" />
    <inkscape:path-effect
       only_selected="false"
       apply_with_weight="true"
       apply_no_weight="true"
       helper_size="0"
       steps="2"
       weight="33.333333"
       lpeversion="1"
       is_visible="true"
       id="path-effect1007"
       effect="bspline" />
    <inkscape:path-effect
       effect="powerstroke"
       id="path-effect986"
       is_visible="true"
       lpeversion="1"
       offset_points="0,0.12744213"
       sort_points="true"
       interpolator_type="CubicBezierJohan"
       interpolator_beta="0.2"
       start_linecap_type="zerowidth"
       linejoin_type="extrp_arc"
       miter_limit="4"
       scale_width="1"
       end_linecap_type="zerowidth" />
    <inkscape:path-effect
       effect="bspline"
       id="path-effect984"
       is_visible="true"
       lpeversion="1"
       weight="33.333333"
       steps="2"
       helper_size="0"
       apply_no_weight="true"
       apply_with_weight="true"
       only_selected="false" />
    <inkscape:path-effect
       end_linecap_type="zerowidth"
       scale_width="1"
       miter_limit="4"
       linejoin_type="extrp_arc"
       start_linecap_type="zerowidth"
       interpolator_beta="0.2"
       interpolator_type="CubicBezierJohan"
       sort_points="true"
       offset_points="0,0.12744213"
       lpeversion="1"
       is_visible="true"
       id="path-effect963"
       effect="powerstroke" />
    <inkscape:path-effect
       only_selected="false"
       apply_with_weight="true"
       apply_no_weight="true"
       helper_size="0"
       steps="2"
       weight="33.333333"
       lpeversion="1"
       is_visible="true"
       id="path-effect961"
       effect="bspline" />
    <inkscape:path-effect
       end_linecap_type="zerowidth"
       scale_width="1"
       miter_limit="4"
       linejoin_type="extrp_arc"
       start_linecap_type="zerowidth"
       interpolator_beta="0.2"
       interpolator_type="CubicBezierJohan"
       sort_points="true"
       offset_points="0,0.12744213"
       lpeversion="1"
       is_visible="true"
       id="path-effect951"
       effect="powerstroke" />
    <inkscape:path-effect
       only_selected="false"
       apply_with_weight="true"
       apply_no_weight="true"
       helper_size="0"
       steps="2"
       weight="33.333333"
       lpeversion="1"
       is_visible="true"
       id="path-effect949"
       effect="bspline" />
    <inkscape:path-effect
       end_linecap_type="zerowidth"
       scale_width="1"
       miter_limit="4"
       linejoin_type="extrp_arc"
       start_linecap_type="zerowidth"
       interpolator_beta="0.2"
       interpolator_type="CubicBezierJohan"
       sort_points="true"
       offset_points="0,0.12744213"
       lpeversion="1"
       is_visible="true"
       id="path-effect939"
       effect="powerstroke" />
    <inkscape:path-effect
       only_selected="false"
       apply_with_weight="true"
       apply_no_weight="true"
       helper_size="0"
       steps="2"
       weight="33.333333"
       lpeversion="1"
       is_visible="true"
       id="path-effect937"
       effect="bspline" />
    <inkscape:path-effect
       effect="powerstroke"
       id="path-effect916"
       is_visible="true"
       lpeversion="1"
       offset_points="0,0.12744213"
       sort_points="true"
       interpolator_type="CubicBezierJohan"
       interpolator_beta="0.2"
       start_linecap_type="zerowidth"
       linejoin_type="extrp_arc"
       miter_limit="4"
       scale_width="1"
       end_linecap_type="zerowidth" />
    <inkscape:path-effect
       effect="bspline"
       id="path-effect914"
       is_visible="true"
       lpeversion="1"
       weight="33.333333"
       steps="2"
       helper_size="0"
       apply_no_weight="true"
       apply_with_weight="true"
       only_selected="false" />
  </defs>
  <sodipodi:namedview
     units="px"
     inkscape:window-maximized="0"
     inkscape:window-y="-9"
     inkscape:window-x="951"
     inkscape:window-height="1001"
     inkscape:window-width="960"
     fit-margin-bottom="0"
     fit-margin-right="0"
     fit-margin-left="0"
     fit-margin-top="0"
     showgrid="false"
     inkscape:document-rotation="0"
     inkscape:current-layer="g849"
     inkscape:document-units="mm"
     inkscape:cy="60.617492"
     inkscape:cx="28.264597"
     inkscape:zoom="29.824526"
     inkscape:pageshadow="2"
     inkscape:pageopacity="0"
     borderopacity="1.0"
     bordercolor="#666666"
     pagecolor="#292929"
     id="base" />
  <metadata
     id="metadata5">
    <rdf:RDF>
      <cc:Work
         rdf:about="">
        <dc:format>image/svg+xml</dc:format>
        <dc:type
           rdf:resource="http://purl.org/dc/dcmitype/StillImage" />
        <dc:title />
      </cc:Work>
    </rdf:RDF>
  </metadata>
  <g
     transform="translate(-27.662315,-57.870442)"
     id="layer1"
     inkscape:groupmode="layer"
     inkscape:label="Layer 1">
    <g
       id="g1411">
      <g
         style="stroke:#00cccc;stroke-opacity:1"
         id="g849"
         transform="matrix(0.89960937,0,0,0.89984324,2.8296587,5.8916223)">
        <path
           d="m 30.835129,63.786315 c 0,0 0,0.0101 0,0.0101 v 0 c 1.669029,0 6.676117,-0.0101 8.345146,-0.0101 -1.669029,0 -6.676117,-0.0101 -8.345146,-0.0101 v 0 c 0,0 0,0.0101 0,0.0101 z m 0,-0.752838 c 0,0 0,0.0101 0,0.0101 v 0 c 1.669029,0 6.676117,-0.0101 8.345146,-0.0101 -1.669029,0 -6.676117,-0.0101 -8.345146,-0.0101 v 0 c 0,0 0,0.0101 0,0.0101 z m -0.0035,-0.823264 c 0,0 0,0.0101 0,0.0101 v 0 c 1.669029,0 6.676118,-0.0101 8.345147,-0.0101 -1.669029,0 -6.676118,-0.0101 -8.345147,-0.0101 v 0 c 0,0 0,0.0101 0,0.0101 z m 0.08367,-0.794669 c 0,0 0,0.01011 0,0.01011 v 0 c 1.66903,0 6.676117,-0.01011 8.345148,-0.01011 -1.669031,0 -6.676118,-0.0101 -8.345148,-0.0101 v 0 c 0,0 0,0.0101 0,0.0101 z m 0,-0.836493 c 0,0 0,0.0101 0,0.0101 v 0 c 1.66903,0 6.676117,-0.0101 8.345148,-0.0101 -1.669031,0 -6.676118,-0.01011 -8.345148,-0.01011 v 0 c 0,0 0,0.01011 0,0.01011 z m -0.04798,-0.712096 c 0,0 0,0.0101 0,0.0101 v 0 c 1.66903,0 6.676118,-0.0101 8.345148,-0.0101 -1.66903,0 -6.676118,-0.0101 -8.345148,-0.0101 v 0 c 0,0 0,0.0101 0,0.0101 z m -0.78368,-0.774047 h 9.78323 c 0.133945,0 0.241778,0.109032 0.241778,0.244466 v 5.24864 c 0,0.135433 -0.107833,0.244466 -0.241778,0.244466 h -9.783232 c -0.133945,0 -0.241777,-0.109033 -0.241777,-0.244466 v -5.24864 c 0,-0.135434 0.107832,-0.244466 0.241777,-0.244466 z m 0.691435,6.90473 v 6.034274 h 8.060602 v -6.034274 z m 0.63444,0.744139 h 1.908341 v 3.711221 h -1.908347 z m -3.09752,-7.785097 v 11.689961 l 1.524695,1.524386 H 41.39312 V 58.95668 Z"
           style="fill:none;fill-opacity:1;fill-rule:nonzero;stroke:#b1faae;stroke-width:0.25896764;stroke-linecap:butt;stroke-linejoin:miter;stroke-miterlimit:4;stroke-dasharray:none;stroke-opacity:1"
           id="path912-26-9-1" />
        <text
           xml:space="preserve"
           style="font-size:3.72588px;line-height:0.5;font-family:sans-serif;-inkscape-font-specification:Tahoma;text-align:center;letter-spacing:0px;text-anchor:middle;fill:#00cccc;fill-opacity:1;stroke:none;stroke-width:0.264583;stroke-opacity:1"
           x="34.823593"
           y="77.315773"
           id="text1505"><tspan
             sodipodi:role="line"
             id="tspan1503"
             x="34.823593"
             y="77.315773"
             style="font-size:3.72588px;fill:#b1faae;fill-opacity:1;stroke:none;stroke-width:0.264583;stroke-opacity:1">Save</tspan></text>
      </g>
    </g>
  </g>
</svg>
