<?xml version="1.0" encoding="UTF-8" standalone="no"?>
<svg
   xmlns:dc="http://purl.org/dc/elements/1.1/"
   xmlns:cc="http://creativecommons.org/ns#"
   xmlns:rdf="http://www.w3.org/1999/02/22-rdf-syntax-ns#"
   xmlns:svg="http://www.w3.org/2000/svg"
   xmlns="http://www.w3.org/2000/svg"
   xmlns:sodipodi="http://sodipodi.sourceforge.net/DTD/sodipodi-0.dtd"
   xmlns:inkscape="http://www.inkscape.org/namespaces/inkscape"
   sodipodi:docname="save-5c9fd2.svg"
   inkscape:version="1.0 (4035a4fb49, 2020-05-01)"
   id="svg8"
   version="1.1"
   viewBox="0 0 13.229168 17.991666"
   height="68"
   width="50">
  <defs
     id="defs2">
    <inkscape:path-effect
       end_linecap_type="zerowidth"
       scale_width="1"
       miter_limit="4"
       linejoin_type="extrp_arc"
       start_linecap_type="zerowidth"
       interpolator_beta="0.2"
       interpolator_type="CubicBezierJohan"
       sort_points="true"
       offset_points="0,0.12744213"
       lpeversion="1"
       is_visible="true"
       id="path-effect1009"
       effect="powerstroke" />
    <inkscape:path-effect
       only_selected="false"
       apply_with_weight="true"
       apply_no_weight="true"
       helper_size="0"
       steps="2"
       weight="33.333333"
       lpeversion="1"
       is_visible="true"
       id="path-effect1007"
       effect="bspline" />
    <inkscape:path-effect
       effect="powerstroke"
       id="path-effect986"
       is_visible="true"
       lpeversion="1"
       offset_points="0,0.12744213"
       sort_points="true"
       interpolator_type="CubicBezierJohan"
       interpolator_beta="0.2"
       start_linecap_type="zerowidth"
       linejoin_type="extrp_arc"
       miter_limit="4"
       scale_width="1"
       end_linecap_type="zerowidth" />
    <inkscape:path-effect
       effect="bspline"
       id="path-effect984"
       is_visible="true"
       lpeversion="1"
       weight="33.333333"
       steps="2"
       helper_size="0"
       apply_no_weight="true"
       apply_with_weight="true"
       only_selected="false" />
    <inkscape:path-effect
       end_linecap_type="zerowidth"
       scale_width="1"
       miter_limit="4"
       linejoin_type="extrp_arc"
       start_linecap_type="zerowidth"
       interpolator_beta="0.2"
       interpolator_type="CubicBezierJohan"
       sort_points="true"
       offset_points="0,0.12744213"
       lpeversion="1"
       is_visible="true"
       id="path-effect963"
       effect="powerstroke" />
    <inkscape:path-effect
       only_selected="false"
       apply_with_weight="true"
       apply_no_weight="true"
       helper_size="0"
       steps="2"
       weight="33.333333"
       lpeversion="1"
       is_visible="true"
       id="path-effect961"
       effect="bspline" />
    <inkscape:path-effect
       end_linecap_type="zerowidth"
       scale_width="1"
       miter_limit="4"
       linejoin_type="extrp_arc"
       start_linecap_type="zerowidth"
       interpolator_beta="0.2"
       interpolator_type="CubicBezierJohan"
       sort_points="true"
       offset_points="0,0.12744213"
       lpeversion="1"
       is_visible="true"
       id="path-effect951"
       effect="powerstroke" />
    <inkscape:path-effect
       only_selected="false"
       apply_with_weight="true"
       apply_no_weight="true"
       helper_size="0"
       steps="2"
       weight="33.333333"
       lpeversion="1"
       is_visible="true"
       id="path-effect949"
       effect="bspline" />
    <inkscape:path-effect
       end_linecap_type="zerowidth"
       scale_width="1"
       miter_limit="4"
       linejoin_type="extrp_arc"
       start_linecap_type="zerowidth"
       interpolator_beta="0.2"
       interpolator_type="CubicBezierJohan"
       sort_points="true"
       offset_points="0,0.12744213"
       lpeversion="1"
       is_visible="true"
       id="path-effect939"
       effect="powerstroke" />
    <inkscape:path-effect
       only_selected="false"
       apply_with_weight="true"
       apply_no_weight="true"
       helper_size="0"
       steps="2"
       weight="33.333333"
       lpeversion="1"
       is_visible="true"
       id="path-effect937"
       effect="bspline" />
    <inkscape:path-effect
       effect="powerstroke"
       id="path-effect916"
       is_visible="true"
       lpeversion="1"
       offset_points="0,0.12744213"
       sort_points="true"
       interpolator_type="CubicBezierJohan"
       interpolator_beta="0.2"
       start_linecap_type="zerowidth"
       linejoin_type="extrp_arc"
       miter_limit="4"
       scale_width="1"
       end_linecap_type="zerowidth" />
    <inkscape:path-effect
       effect="bspline"
       id="path-effect914"
       is_visible="true"
       lpeversion="1"
       weight="33.333333"
       steps="2"
       helper_size="0"
       apply_no_weight="true"
       apply_with_weight="true"
       only_selected="false" />
  </defs>
  <sodipodi:namedview
     units="px"
     inkscape:window-maximized="1"
     inkscape:window-y="-9"
     inkscape:window-x="-9"
     inkscape:window-height="1001"
     inkscape:window-width="1920"
     fit-margin-bottom="0"
     fit-margin-right="0"
     fit-margin-left="0"
     fit-margin-top="0"
     showgrid="false"
     inkscape:document-rotation="0"
     inkscape:current-layer="g849"
     inkscape:document-units="mm"
     inkscape:cy="33.633818"
     inkscape:cx="45.093443"
     inkscape:zoom="7.4561314"
     inkscape:pageshadow="2"
     inkscape:pageopacity="0"
     borderopacity="1.0"
     bordercolor="#666666"
     pagecolor="#292929"
     id="base" />
  <metadata
     id="metadata5">
    <rdf:RDF>
      <cc:Work
         rdf:about="">
        <dc:format>image/svg+xml</dc:format>
        <dc:type
           rdf:resource="http://purl.org/dc/dcmitype/StillImage" />
        <dc:title></dc:title>
      </cc:Work>
    </rdf:RDF>
  </metadata>
  <g
     transform="translate(-27.662315,-57.870442)"
     id="layer1"
     inkscape:groupmode="layer"
     inkscape:label="Layer 1">
    <g
       id="g1411">
      <g
         style="stroke:#00cccc;stroke-opacity:1"
         id="g849"
         transform="matrix(0.89960937,0,0,0.89984324,2.8296587,5.8916223)">
        <path
           d="m 30.903696,63.860088 c 0,0 0,0.01022 0,0.01022 v 0 c 1.712207,0 6.848829,-0.01022 8.561036,-0.01022 -1.712207,0 -6.848829,-0.01022 -8.561036,-0.01022 v 0 c 0,0 0,0.01022 0,0.01022 z m 0,-0.763825 c 0,0 0,0.01022 0,0.01022 v 0 c 1.712207,0 6.848829,-0.01022 8.561036,-0.01022 -1.712207,0 -6.848829,-0.01022 -8.561036,-0.01022 v 0 c 0,0 0,0.01022 0,0.01022 z m -0.0036,-0.835278 c 0,0 0,0.01022 0,0.01022 v 0 c 1.712207,0 6.848829,-0.01022 8.561036,-0.01022 -1.712207,0 -6.848829,-0.01022 -8.561036,-0.01022 v 0 c 0,0 0,0.01022 0,0.01022 z m 0.08583,-0.806265 c 0,0 0,0.01022 0,0.01022 v 0 c 1.712208,0 6.848829,-0.01022 8.561037,-0.01022 -1.712208,0 -6.848829,-0.01022 -8.561037,-0.01022 v 0 c 0,0 0,0.01022 0,0.01022 z m 0,-0.848701 c 0,0 0,0.01022 0,0.01022 v 0 c 1.712208,0 6.848829,-0.01022 8.561037,-0.01022 -1.712208,0 -6.848829,-0.01022 -8.561037,-0.01022 v 0 c 0,0 0,0.01022 0,0.01022 z m -0.04921,-0.722487 c 0,0 0,0.01022 0,0.01022 v 0 c 1.712208,0 6.848829,-0.01022 8.561037,-0.01022 -1.712208,0 -6.848829,-0.01022 -8.561037,-0.01022 v 0 c 0,0 0,0.01022 0,0.01022 z M 30.132763,59.09819 h 10.036322 c 0.137411,0 0.248033,0.110623 0.248033,0.248033 v 5.325233 c 0,0.13741 -0.110622,0.248033 -0.248033,0.248033 H 30.13276 c -0.13741,0 -0.248032,-0.110623 -0.248032,-0.248033 v -5.325233 c 0,-0.13741 0.110622,-0.248033 0.248032,-0.248033 z m 0.709322,7.00549 v 6.122332 h 8.26913 V 66.10368 Z m 0.650852,0.754998 h 1.957711 v 3.765379 h -1.957714 z m -3.17765,-7.898705 v 11.860553 l 1.56414,1.546632 H 41.734824 V 58.959973 Z"
           style="fill:none;fill-opacity:1;fill-rule:nonzero;stroke:#5c9fd2;stroke-width:0.264583;stroke-linecap:butt;stroke-linejoin:miter;stroke-miterlimit:4;stroke-dasharray:none;stroke-opacity:1"
           id="path912-26-9-1" />
        <text
           xml:space="preserve"
           style="font-size:5.02708px;line-height:0.5;font-family:sans-serif;-inkscape-font-specification:Tahoma;text-align:center;text-anchor:middle;fill:#00cccc;fill-opacity:1;stroke:none;stroke-width:0.264583;stroke-opacity:1"
           x="35.081764"
           y="77.59182"
           id="text1505"><tspan
             sodipodi:role="line"
             id="tspan1503"
             x="35.081764"
             y="77.59182"
             style="font-size:5.02708px;fill:#5c9fd2;fill-opacity:1;stroke:none;stroke-width:0.264583;stroke-opacity:1">Save</tspan></text>
      </g>
    </g>
  </g>
</svg>
