<?xml version="1.0" encoding="UTF-8" standalone="no"?>
<svg
   xmlns:dc="http://purl.org/dc/elements/1.1/"
   xmlns:cc="http://creativecommons.org/ns#"
   xmlns:rdf="http://www.w3.org/1999/02/22-rdf-syntax-ns#"
   xmlns:svg="http://www.w3.org/2000/svg"
   xmlns="http://www.w3.org/2000/svg"
   xmlns:sodipodi="http://sodipodi.sourceforge.net/DTD/sodipodi-0.dtd"
   xmlns:inkscape="http://www.inkscape.org/namespaces/inkscape"
   sodipodi:docname="theme-create-piece-0cc.svg"
   inkscape:version="1.0 (4035a4fb49, 2020-05-01)"
   id="svg8"
   version="1.1"
   viewBox="0 4 13.229167 17.991668"
   height="68"
   width="50">
  <defs
     id="defs2">
    <inkscape:path-effect
       end_linecap_type="zerowidth"
       scale_width="1"
       miter_limit="4"
       linejoin_type="extrp_arc"
       start_linecap_type="zerowidth"
       interpolator_beta="0.2"
       interpolator_type="CubicBezierJohan"
       sort_points="true"
       offset_points="0,0.13302737"
       lpeversion="1"
       is_visible="true"
       id="path-effect895"
       effect="powerstroke" />
    <inkscape:path-effect
       end_linecap_type="zerowidth"
       scale_width="1"
       miter_limit="4"
       linejoin_type="extrp_arc"
       start_linecap_type="zerowidth"
       interpolator_beta="0.2"
       interpolator_type="CubicBezierJohan"
       sort_points="true"
       offset_points="0,0.1322915"
       lpeversion="1"
       is_visible="true"
       id="path-effect891"
       effect="powerstroke" />
    <inkscape:path-effect
       end_linecap_type="zerowidth"
       scale_width="1"
       miter_limit="4"
       linejoin_type="extrp_arc"
       start_linecap_type="zerowidth"
       interpolator_beta="0.2"
       interpolator_type="CubicBezierJohan"
       sort_points="true"
       offset_points="0,0.1322915"
       lpeversion="1"
       is_visible="true"
       id="path-effect887"
       effect="powerstroke" />
  </defs>
  <sodipodi:namedview
     units="px"
     inkscape:window-maximized="1"
     inkscape:window-y="-9"
     inkscape:window-x="-9"
     inkscape:window-height="1001"
     inkscape:window-width="1920"
     showgrid="false"
     inkscape:document-rotation="0"
     inkscape:current-layer="g839"
     inkscape:document-units="mm"
     inkscape:cy="58.54375"
     inkscape:cx="7.6429143"
     inkscape:zoom="5.7008071"
     inkscape:pageshadow="2"
     inkscape:pageopacity="0"
     borderopacity="1.0"
     bordercolor="#666666"
     pagecolor="#3e3e3e"
     id="base"
     fit-margin-top="0"
     fit-margin-left="0"
     fit-margin-right="0"
     fit-margin-bottom="0"
     viewbox-y="4" />
  <metadata
     id="metadata5">
    <rdf:RDF>
      <cc:Work
         rdf:about="">
        <dc:format>image/svg+xml</dc:format>
        <dc:type
           rdf:resource="http://purl.org/dc/dcmitype/StillImage" />
        <dc:title></dc:title>
      </cc:Work>
    </rdf:RDF>
  </metadata>
  <g
     id="layer1"
     inkscape:groupmode="layer"
     inkscape:label="Layer 1"
     transform="translate(2.1344851,1.1118246)">
    <g
       style="stroke:#00cccc;stroke-opacity:1"
       id="g839"
       transform="matrix(0.9040306,0,0,0.89937602,-0.20386758,0.34836123)">
      <text
         xml:space="preserve"
         style="font-size:5.02708px;line-height:0.5;font-family:sans-serif;-inkscape-font-specification:Tahoma;text-align:center;letter-spacing:-0.161396px;text-anchor:middle;stroke:#00cccc;stroke-width:0.064469;stroke-opacity:1;"
         x="5.189261"
         y="22.718847"
         id="text920"><tspan
           sodipodi:role="line"
           id="tspan918"
           x="5.1085634"
           y="22.718847"
           style="font-size:5.02708px;fill:#00cccc;fill-opacity:1;stroke:#00cccc;stroke-width:0.064469;stroke-opacity:1;">Theme</tspan></text>
      <path
         id="path875"
         style="fill:none;fill-opacity:1;stroke:#00cccc;stroke-width:0.28;stroke-miterlimit:4;stroke-dasharray:none;stroke-opacity:1"
         d="m 7.2344892,9.925072 c -0.00823,0.00261 -0.012511,0.013695 -0.010115,0.034086 0.00381,0.032215 -0.00902,0.046691 -0.053873,0.060734 -0.09047,0.02832 -1.4727007,0.03791 -2.4019438,0.01667 C 4.028087,10.019632 3.933128,10.014002 3.9118623,9.985979 3.8960763,9.965172 3.8741193,9.95873 3.8472753,9.966944 c -0.041408,0.012663 -0.051013,0.031363 -0.027654,0.053871 0.00715,0.0069 0.016086,0.03977 0.019874,0.07308 0.00865,0.07615 0.069957,0.140066 0.1612591,0.168128 0.1923052,0.0591 0.3792874,0.216465 0.6453347,0.543084 0.1159261,0.142318 0.232893,0.384611 0.2681068,0.555312 0.064124,0.310854 0.032158,1.123997 -0.077877,1.980505 -0.1179288,0.917961 -0.1300046,1.183719 -0.078953,1.738782 0.073467,0.798782 0.2244653,1.593672 0.3640598,1.916771 0.067274,0.155709 0.1736234,0.286969 0.2628986,0.324431 0.3111632,0.130573 0.5735181,-0.244819 0.8047981,-1.151573 0.1871227,-0.733627 0.2205144,-1.265905 0.1387522,-2.214153 -0.031932,-0.370343 -0.099473,-1.450401 -0.1199564,-1.918329 -0.020421,-0.466499 0.034352,-0.836175 0.1533573,-1.035183 0.064812,-0.108384 0.2009297,-0.275318 0.276846,-0.339542 0.037625,-0.03183 0.1743902,-0.127115 0.3039613,-0.211731 0.1295729,-0.08462 0.2622479,-0.1831 0.2948029,-0.218827 0.072551,-0.07962 0.097556,-0.186426 0.059078,-0.2521624 -0.023044,-0.039372 -0.047747,-0.058667 -0.061475,-0.054331 z m -1.6778348,5.719689 a 0.20032671,0.47098096 0 0 1 0.00109,0 0.20032671,0.47098096 0 0 1 0.2002888,0.47093 0.20032671,0.47098096 0 0 1 -0.2002893,0.470989 0.20032671,0.47098096 0 0 1 -0.2003467,-0.470989 0.20032671,0.47098096 0 0 1 0.1992694,-0.47093 z M 5.1114571,7.8988028 C 4.1751667,7.8859538 3.9908236,7.8789417 3.9100484,7.8530891 3.8415885,7.8311773 3.8121901,7.8109692 3.8059874,7.781554 3.8012382,7.7590062 3.7829902,7.404618 3.7654468,6.9940257 3.7478285,6.5816853 3.7081082,5.9852188 3.6767162,5.6616094 3.6270919,5.1500358 3.5722912,4.482794 3.5296308,3.8707152 L 3.5167768,3.6862796 3.5812698,3.66015 c 0.055642,-0.022543 0.072961,-0.022241 0.1261891,0.00219 0.05517,0.025353 0.067993,0.025211 0.1212205,-0.00131 0.047883,-0.02386 0.071057,-0.025465 0.1185012,-0.0082 0.049446,0.017984 0.074897,0.014848 0.1574939,-0.019389 0.097702,-0.040499 0.099222,-0.04054 0.1837674,-0.00534 0.07372,0.030724 0.1091277,0.033427 0.2617799,0.019989 0.286158,-0.025193 0.821746,-0.022105 0.8497731,0.00492 0.029416,0.028346 1.1816102,0.059825 1.5471015,0.04227 0.2212466,-0.010623 0.2537758,-0.0076 0.4315178,0.04025 0.1057279,0.028459 0.1948465,0.053575 0.1980413,0.055815 0.013949,0.00978 -0.059527,0.7256086 -0.1027291,1.0008547 -0.026104,0.1663156 -0.052822,0.4427218 -0.059373,0.6142347 -0.00656,0.171512 -0.037448,0.6010036 -0.068658,0.9544254 -0.062514,0.7078524 -0.095992,1.197391 -0.091683,1.3406343 0.00258,0.086401 -0.00184,0.095914 -0.060848,0.1292579 C 7.1583564,7.850548 7.0833307,7.878643 7.0266418,7.893182 6.9118531,7.922627 6.8607371,7.922775 5.111459,7.898762 Z M 7.2412376,7.7432289 C 7.1624728,7.8072939 7.0968963,7.876561 6.9459031,7.9121371 L 3.9529219,7.8726324 3.7719311,7.7432291 3.8816601,10.116496 7.0330018,10.084896 7.2412376,9.99634 Z" />
    </g>
  </g>
</svg>
