<?xml version="1.0" encoding="UTF-8" standalone="no"?>
<svg
   xmlns:dc="http://purl.org/dc/elements/1.1/"
   xmlns:cc="http://creativecommons.org/ns#"
   xmlns:rdf="http://www.w3.org/1999/02/22-rdf-syntax-ns#"
   xmlns:svg="http://www.w3.org/2000/svg"
   xmlns="http://www.w3.org/2000/svg"
   xmlns:sodipodi="http://sodipodi.sourceforge.net/DTD/sodipodi-0.dtd"
   xmlns:inkscape="http://www.inkscape.org/namespaces/inkscape"
   sodipodi:docname="create-piece-theme-button.svg"
   inkscape:version="1.0 (4035a4fb49, 2020-05-01)"
   id="svg8"
   version="1.1"
   viewBox="0 0 55 75"
   height="75mm"
   width="55mm">
  <defs
     id="defs2">
    <inkscape:path-effect
       end_linecap_type="zerowidth"
       scale_width="1"
       miter_limit="4"
       linejoin_type="extrp_arc"
       start_linecap_type="zerowidth"
       interpolator_beta="0.2"
       interpolator_type="CubicBezierJohan"
       sort_points="true"
       offset_points="0,0.13302737"
       lpeversion="1"
       is_visible="true"
       id="path-effect895"
       effect="powerstroke" />
    <inkscape:path-effect
       end_linecap_type="zerowidth"
       scale_width="1"
       miter_limit="4"
       linejoin_type="extrp_arc"
       start_linecap_type="zerowidth"
       interpolator_beta="0.2"
       interpolator_type="CubicBezierJohan"
       sort_points="true"
       offset_points="0,0.1322915"
       lpeversion="1"
       is_visible="true"
       id="path-effect891"
       effect="powerstroke" />
    <inkscape:path-effect
       end_linecap_type="zerowidth"
       scale_width="1"
       miter_limit="4"
       linejoin_type="extrp_arc"
       start_linecap_type="zerowidth"
       interpolator_beta="0.2"
       interpolator_type="CubicBezierJohan"
       sort_points="true"
       offset_points="0,0.1322915"
       lpeversion="1"
       is_visible="true"
       id="path-effect887"
       effect="powerstroke" />
  </defs>
  <sodipodi:namedview
     inkscape:window-maximized="1"
     inkscape:window-y="-9"
     inkscape:window-x="-9"
     inkscape:window-height="1001"
     inkscape:window-width="1920"
     showgrid="false"
     inkscape:document-rotation="0"
     inkscape:current-layer="layer1"
     inkscape:document-units="mm"
     inkscape:cy="100.92302"
     inkscape:cx="271.71621"
     inkscape:zoom="1.3522353"
     inkscape:pageshadow="2"
     inkscape:pageopacity="0"
     borderopacity="1.0"
     bordercolor="#666666"
     pagecolor="#3e3e3e"
     id="base" />
  <metadata
     id="metadata5">
    <rdf:RDF>
      <cc:Work
         rdf:about="">
        <dc:format>image/svg+xml</dc:format>
        <dc:type
           rdf:resource="http://purl.org/dc/dcmitype/StillImage" />
        <dc:title></dc:title>
      </cc:Work>
    </rdf:RDF>
  </metadata>
  <g
     id="layer1"
     inkscape:groupmode="layer"
     inkscape:label="Layer 1">
    <g
       transform="matrix(0.45548548,0,0,0.45548548,-83.246045,-36.002735)"
       id="g916">
      <path
         style="fill:#afabab;fill-opacity:1;fill-rule:nonzero;stroke:none;stroke-width:0.266055px;stroke-linecap:butt;stroke-linejoin:miter;stroke-opacity:1"
         d="m 259.76849,122.07223 c -0.67998,0.574 -1.24611,1.19461 -2.54965,1.51336 l -25.83868,-0.35395 -1.56251,-1.15941 0.9473,21.26367 27.20582,-0.28316 1.79772,-0.79343 z"
         id="path893"
         sodipodi:nodetypes="cccccccc" />
      <path
         style="fill:#4d4d4d;stroke-width:0.169333"
         d="m 241.3819,123.46612 c -8.08308,-0.11512 -9.67453,-0.17796 -10.37187,-0.40958 -0.59102,-0.19631 -0.84482,-0.37738 -0.89837,-0.64093 -0.041,-0.20203 -0.19854,-3.37722 -0.34999,-7.05599 -0.1521,-3.69443 -0.49501,-9.03857 -0.76602,-11.938 -0.42841,-4.583528 -0.90151,-10.561795 -1.2698,-16.045812 l -0.11097,-1.652483 0.55677,-0.234107 c 0.48036,-0.201975 0.62988,-0.199246 1.0894,0.01989 0.47629,0.227125 0.58699,0.225883 1.04651,-0.01174 0.41338,-0.213768 0.61344,-0.228151 1.02303,-0.07355 0.42687,0.161128 0.64659,0.13306 1.35966,-0.173693 0.84347,-0.362853 0.85659,-0.363247 1.58648,-0.04757 0.63643,0.275257 0.94211,0.299476 2.25997,0.17906 2.47043,-0.225729 7.09421,-0.198053 7.33617,0.04391 0.25395,0.253954 10.20095,0.536015 13.35627,0.378736 1.91004,-0.09521 2.19087,-0.06802 3.72533,0.36062 0.91276,0.254974 1.68213,0.480014 1.70971,0.500088 0.12042,0.08765 -0.51389,6.50121 -0.88687,8.967323 -0.22538,1.490133 -0.45604,3.966633 -0.51259,5.503338 -0.0566,1.53669 -0.32328,5.38479 -0.59273,8.55133 -0.53969,6.34212 -0.82871,10.72822 -0.79151,12.01163 0.0224,0.77413 -0.0162,0.85936 -0.5253,1.15811 -0.30223,0.17737 -0.94993,0.42908 -1.43933,0.55936 -0.99098,0.26381 -1.43227,0.26515 -16.53395,0.0501 z"
         id="path899" />
      <path
         id="path875"
         style="fill:#000000;stroke-width:0.639999"
         d="m 981.58203,535.25977 c -0.26875,0.0881 -0.40831,0.46373 -0.33008,1.15429 0.12348,1.09089 -0.29426,1.5811 -1.75781,2.05664 -2.95196,0.95917 -48.05277,1.28381 -78.37305,0.56446 -24.16082,-0.57321 -27.25924,-0.76397 -27.95312,-1.71289 -0.51508,-0.70458 -1.23152,-0.92271 -2.10742,-0.64454 -1.35111,0.42883 -1.66449,1.06208 -0.90235,1.82422 0.23328,0.23331 0.52485,1.34688 0.64844,2.47461 0.28233,2.5787 2.28262,4.74311 5.26172,5.69336 6.27473,2.00149 12.37578,7.33022 21.05664,18.39063 3.78255,4.81935 7.59907,13.0242 8.74805,18.80468 2.09234,10.52652 1.04931,38.06224 -2.54102,67.06641 -3.8479,31.08518 -4.24192,40.08459 -2.57617,58.88086 2.39716,27.04944 7.32408,53.967 11.87891,64.9082 2.19507,5.27278 5.66516,9.71773 8.57812,10.98633 10.15295,4.42163 18.71333,-8.29038 26.25977,-38.99609 6.10563,-24.84299 7.19516,-42.86773 4.52734,-74.97852 -1.0419,-12.541 -3.24569,-49.11538 -3.91406,-64.96094 -0.66637,-15.79717 1.12089,-28.31563 5.0039,-35.05468 2.11476,-3.67026 6.55614,-9.32316 9.03321,-11.49805 1.22766,-1.07792 5.69019,-4.30447 9.91797,-7.16992 4.22785,-2.86549 8.5569,-6.20033 9.61914,-7.41016 2.36727,-2.6962 3.18314,-6.31299 1.92773,-8.53906 -0.75194,-1.33325 -1.55793,-1.98665 -2.00586,-1.83984 z m -54.74609,193.6875 a 6.5364624,15.948968 0 0 1 0.0351,0 6.5364624,15.948968 0 0 1 6.53516,15.94726 6.5364624,15.948968 0 0 1 -6.53516,15.94922 6.5364624,15.948968 0 0 1 -6.53711,-15.94922 6.5364624,15.948968 0 0 1 6.50196,-15.94726 z"
         transform="scale(0.26458333)" />
    </g>
    <text
       id="text920"
       y="71.808563"
       x="28.566896"
       style="font-size:15.1694px;line-height:0.5;font-family:Tahoma;-inkscape-font-specification:Tahoma;text-align:center;text-anchor:middle;stroke-width:0.264583"
       xml:space="preserve"><tspan
         style="fill:#ffffff;stroke-width:0.264583"
         y="71.808563"
         x="28.566896"
         id="tspan918"
         sodipodi:role="line">Theme</tspan></text>
  </g>
</svg>
