<?xml version="1.0" encoding="UTF-8" standalone="no"?>
<svg
   xmlns:dc="http://purl.org/dc/elements/1.1/"
   xmlns:cc="http://creativecommons.org/ns#"
   xmlns:rdf="http://www.w3.org/1999/02/22-rdf-syntax-ns#"
   xmlns:svg="http://www.w3.org/2000/svg"
   xmlns="http://www.w3.org/2000/svg"
   xmlns:sodipodi="http://sodipodi.sourceforge.net/DTD/sodipodi-0.dtd"
   xmlns:inkscape="http://www.inkscape.org/namespaces/inkscape"
   width="122"
   height="78"
   viewBox="0 0 122 77.999998"
   version="1.1"
   id="svg2581"
   sodipodi:docname="Author GitHub.svg"
   inkscape:version="1.0 (4035a4fb49, 2020-05-01)">
  <metadata
     id="metadata2587">
    <rdf:RDF>
      <cc:Work
         rdf:about="">
        <dc:format>image/svg+xml</dc:format>
        <dc:type
           rdf:resource="http://purl.org/dc/dcmitype/StillImage" />
        <dc:title />
      </cc:Work>
    </rdf:RDF>
  </metadata>
  <defs
     id="defs2585" />
  <sodipodi:namedview
     inkscape:document-rotation="0"
     pagecolor="#ffffff"
     bordercolor="#666666"
     borderopacity="1"
     objecttolerance="10"
     gridtolerance="10"
     guidetolerance="10"
     inkscape:pageopacity="0"
     inkscape:pageshadow="2"
     inkscape:window-width="1920"
     inkscape:window-height="1001"
     id="namedview2583"
     showgrid="false"
     inkscape:zoom="1.3383678"
     inkscape:cx="61.535536"
     inkscape:cy="17.052595"
     inkscape:window-x="-9"
     inkscape:window-y="-9"
     inkscape:window-maximized="1"
     inkscape:current-layer="svg2581" />
  <path
     style="fill:#ffffff;fill-opacity:1"
     id="text3916"
     d="m 4.6535,31.625963 a 0.858,0.858 0 0 1 0.415,-0.133 h 0.382 q 0.116,0 0.4,-0.017 a 6.527,6.527 0 0 0 1.512,-0.232 2.556,2.556 0 0 0 1,-1.1 39.955,39.955 0 0 0 1.943,-4.8 q 0.515,-1.478 0.648,-1.793 0.415,-1 0.8,-2.092 l 1.561,-4.366 q 0.365,-1.029 1.76,-4.715 0.349,-0.93 0.847,-2.4899996 l 0.489,-0.033 0.581,0.017 a 22.936,22.936 0 0 1 1.26,3.0379996 q 0.3,0.863 0.978,2.573 l 2.52,6.823 1.343,3.7 q 1.062,3.154 1.395,3.876 a 2.81,2.81 0 0 0 0.614,0.955 2.486,2.486 0 0 0 0.623,0.2 q 0.54,0.133 0.755,0.2 a 6.858,6.858 0 0 1 1.063,0.365 0.9,0.9 0 0 1 0.066,0.282 0.963,0.963 0 0 1 -0.05,0.249 q -0.543,0.024 -0.758,0.024 -0.847,0 -2.988,-0.05 l -1.66,-0.037 -2.009,0.025 q -0.2,0 -0.407,-0.019 -0.207,-0.019 -0.357,-0.019 h -0.365 a 0.83,0.83 0 0 1 -0.332,-0.1 1.238,1.238 0 0 1 0.08,-0.447 1.067,1.067 0 0 1 0.365,-0.116 l 1.745,-0.117 a 3.117,3.117 0 0 0 1.029,-0.183 1.586,1.586 0 0 0 0.1,-0.449 7.213,7.213 0 0 0 -0.432,-1.547 q -0.3,-0.832 -0.522,-1.58 -0.222,-0.748 -1.766,-4.923 a 7.2,7.2 0 0 0 -1.2,-0.116 l -3.553,0.033 -1.046,-0.017 a 10.353,10.353 0 0 0 -1.245,0.083 q -0.216,0.5 -0.282,0.714 l -1.458,4.565 a 23.053,23.053 0 0 0 -0.93,2.872 1.507,1.507 0 0 0 0.149,0.5 7.252,7.252 0 0 0 0.93,0.183 l 2.258,0.2 q 0.183,0.149 0.183,0.266 a 0.963,0.963 0 0 1 -0.05,0.249 q -0.747,0.017 -1.146,0.017 -1.328,0 -3.088,-0.083 -0.813,-0.033 -1.162,-0.033 -0.349,0 -1.212,0.029 -0.564,0.033 -0.813,0.033 -0.4,0 -1.029,-0.05 v -0.1 a 1.068,1.068 0 0 1 0.066,-0.314 z m 7.922,-9.961 q 1.776,0.1 4.051,0.1 1.295,0 2.274,-0.083 a 11.173,11.173 0 0 0 -0.382,-1.211 q -1.078,-2.888 -1.193,-3.186 l -1.509,-3.833 -0.166,-0.3 q -0.1,0.2 -0.732,1.709 -1.064,2.589 -1.529,4.033 -0.216,0.647 -0.449,1.286 a 8.737,8.737 0 0 0 -0.291,0.9 2.88,2.88 0 0 1 -0.175,0.523 z m 15.835,-2.54 h 1.24 l 0.546,0.033 0.43,-0.033 q 1.7,0 2.117,0.033 l 0.017,0.315 q 0,2.341 -0.066,4.532 -0.05,1.295 -0.05,1.478 a 19.985,19.985 0 0 0 0.191,3.652 1.929,1.929 0 0 0 0.9,1.17 3.166,3.166 0 0 0 1.706,0.44 5.516,5.516 0 0 0 2.321,-0.505 7.015,7.015 0 0 0 1.889,-1.237 10.741,10.741 0 0 0 0.083,-1.395 q 0,-2.474 0.05,-3.337 0.017,-0.515 0.017,-0.9 a 8.582,8.582 0 0 0 -0.266,-3.038 q -0.266,-0.349 -2.025,-0.531 -0.581,-0.066 -0.847,-0.116 a 0.723,0.723 0 0 1 -0.133,-0.332 l 0.05,-0.183 a 7.384,7.384 0 0 1 0.847,-0.05 l 2.635,0.036 q 1.411,-0.033 1.494,-0.033 0.183,0 0.349,0.017 l 0.033,1.212 q -0.116,2.523 -0.133,6.242 l -0.033,1.345 0.066,2.258 a 0.726,0.726 0 0 0 0.266,0.315 2.534,2.534 0 0 0 0.813,0.083 h 0.149 q 0.216,0 1.229,0.1 0.017,0.216 0.017,0.315 v 0.183 a 31.447,31.447 0 0 0 -3.6,0.963 9.237,9.237 0 0 1 -0.93,0.266 q -0.083,-0.581 -0.083,-0.714 v -1.345 q 0,-0.083 -0.017,-0.448 -0.216,0.149 -0.5,0.365 a 15.336,15.336 0 0 1 -2.77,1.71 4.283,4.283 0 0 1 -1.893,0.481 3.545,3.545 0 0 1 -2.839,-1.294 q -1.112,-1.295 -1.112,-4.421 0,-0.166 0.017,-0.6 0.066,-0.8 0.066,-1.112 0,-0.116 -0.017,-0.73 -0.017,-0.266 -0.017,-0.465 0,-0.149 0.017,-0.672 0.017,-0.523 0.017,-0.739 0,-0.282 -0.017,-0.5 l -0.033,-0.88 0.017,-0.465 a 0.618,0.618 0 0 0 -0.266,-0.481 13.487,13.487 0 0 0 -1.37,-0.324 2.345,2.345 0 0 1 -0.573,-0.141 z m 20.852,-3.368 0.515,0.017 0.066,1.577 -0.033,2.042 q 0.315,0.017 0.4,0.017 0.432,0 1.644,-0.066 0.78,-0.05 1.494,-0.05 0.332,0 1,0.017 0.033,0.332 0.033,0.531 a 3.658,3.658 0 0 1 -0.1,0.681 h -0.282 l -2.573,0.083 -1.278,0.033 -0.3,0.033 a 3.163,3.163 0 0 0 -0.133,0.963 l 0.05,2.49 -0.033,4.383 a 3.992,3.992 0 0 0 0.448,2.291 1.51,1.51 0 0 0 1.295,0.581 9.218,9.218 0 0 0 1.627,-0.266 2.907,2.907 0 0 0 0.979,-0.548 h 0.149 a 0.325,0.325 0 0 1 0.232,0.091 0.325,0.325 0 0 1 0.091,0.241 l -0.017,0.116 a 4.313,4.313 0 0 1 -1.631,1.135 6.92,6.92 0 0 1 -2.449,0.357 3.021,3.021 0 0 1 -1.785,-0.5 2.211,2.211 0 0 1 -0.9,-1.179 13.48,13.48 0 0 1 -0.2,-2.972 l 0.066,-3.735 -0.017,-1.793 v -0.664 q 0,-0.465 -0.033,-0.93 l -0.282,-0.017 -1.361,0.05 -0.133,0.017 a 0.4,0.4 0 0 1 -0.274,-0.083 0.26,0.26 0 0 1 -0.091,-0.2 0.438,0.438 0 0 1 0.125,-0.324 3.085,3.085 0 0 1 0.755,-0.39 3.928,3.928 0 0 0 1,-0.689 5.457,5.457 0 0 0 0.971,-1.121 9.829,9.829 0 0 0 0.565,-1.258 q 0.267,-0.681 0.4,-0.961 z m 5.81,15.985 a 10.7,10.7 0 0 0 2.241,-0.531 q 0.183,-0.116 0.183,-0.531 l -0.017,-1.095 0.017,-1.941 -0.034,-4.942 0.017,-1.841 v -1.31 l 0.05,-1.609 q 0,-3.782 -0.075,-4.52 a 1.489,1.489 0 0 0 -0.291,-0.921 5.686,5.686 0 0 0 -2.191,-0.8 v -0.083 a 2.354,2.354 0 0 1 0.033,-0.332 q 0.232,-0.033 0.448,-0.083 a 2.93,2.93 0 0 1 0.415,-0.066 13.04,13.04 0 0 0 2.872,-1.1 h 0.813 q 0.033,0.465 0.033,2.94 l -0.017,2.109 0.017,2.724 -0.066,3.355 q 0,0.3 0.033,0.664 a 15.652,15.652 0 0 1 1.53,-1.613 7.52,7.52 0 0 1 1.847,-1.099 5.324,5.324 0 0 1 2.062,-0.408 4,4 0 0 1 3.343,1.724 4.753,4.753 0 0 1 0.748,2.868 l -0.05,1.691 0.017,0.945 -0.066,1.643 q -0.066,2.039 -0.066,2.421 0,0.431 0.033,1.161 l 0.946,0.216 q 0.946,0.2 1.461,0.365 l -0.017,0.514 -3.536,-0.1 q -0.3,0 -1.627,0.066 -0.816,0.034 -0.946,0.034 h -0.37 a 0.544,0.544 0 0 1 -0.083,-0.249 v -0.151 a 1.316,1.316 0 0 1 0.863,-0.4 l 1,-0.232 a 0.608,0.608 0 0 0 0.232,-0.348 q 0.066,-0.431 0.149,-4.277 l 0.039,-1.224 a 10.566,10.566 0 0 0 -0.3,-3.219 2.328,2.328 0 0 0 -1.06,-1.4 3.481,3.481 0 0 0 -1.905,-0.522 3.889,3.889 0 0 0 -1.7,0.381 6.51,6.51 0 0 0 -1.315,0.978 5.857,5.857 0 0 0 -1.061,1.196 2.221,2.221 0 0 0 -0.2,1.092 l 0.017,1.158 -0.033,1.208 q 0,0.149 0.05,2.068 l -0.017,1.059 0.033,1.158 a 1.9,1.9 0 0 0 0.05,0.364 l 2.341,0.56 a 5.193,5.193 0 0 1 0.548,0.2 l 0.052,0.194 a 0.786,0.786 0 0 1 -0.083,0.272 q -0.481,0.017 -0.73,0.017 l -1.298,-0.016 -2.856,0.033 -2.141,0.066 q -0.166,-0.017 -0.5,-0.033 l -0.017,-0.116 a 0.645,0.645 0 0 1 0.135,-0.332 z m 17.913,-6.259 a 7.017,7.017 0 0 1 0.477,-2.415 6.711,6.711 0 0 1 1.432,-2.311 6.673,6.673 0 0 1 2.042,-1.519 8.76,8.76 0 0 1 3.686,-0.7 6.971,6.971 0 0 1 5.188,2.125 7.041,7.041 0 0 1 2.083,5.113 6.4,6.4 0 0 1 -2.183,4.74 7.674,7.674 0 0 1 -5.52,2.089 7.513,7.513 0 0 1 -3.885,-1.079 6.983,6.983 0 0 1 -2.343,-2.407 6.8,6.8 0 0 1 -0.977,-3.636 z m 7.346,6.474 a 4.787,4.787 0 0 0 2.436,-0.68 4.718,4.718 0 0 0 1.871,-2.183 8.169,8.169 0 0 0 0.7,-3.478 10.155,10.155 0 0 0 -0.54,-3 5,5 0 0 0 -1.663,-2.565 4.227,4.227 0 0 0 -2.636,-0.855 5.406,5.406 0 0 0 -2.237,0.515 4.274,4.274 0 0 0 -1.929,1.976 8.865,8.865 0 0 0 -0.79,4.15 6.714,6.714 0 0 0 1.372,4.574 4.375,4.375 0 0 0 3.416,1.546 z m 9.471,0.25 -0.066,-0.216 a 0.761,0.761 0 0 1 0.149,-0.349 l 0.977,-0.199 1.378,-0.249 a 0.475,0.475 0 0 0 0.232,-0.232 4.46,4.46 0 0 0 0.1,-1.276 q 0,-5.635 -0.066,-6.505 a 1.914,1.914 0 0 0 -0.3,-1.1 2.4,2.4 0 0 0 -1.2,-0.365 4.1,4.1 0 0 1 -0.9,-0.216 l 0.066,-0.506 a 9.428,9.428 0 0 0 2.353,-1.237 6.214,6.214 0 0 0 1.411,-1.964 l 0.564,0.017 q 0.1,0.83 0.1,3.686 l -0.017,0.282 a 2.329,2.329 0 0 0 0.033,0.315 9.621,9.621 0 0 1 1.577,-2.108 l 0.382,-0.382 a 2.517,2.517 0 0 1 0.448,-0.415 3.962,3.962 0 0 1 1.727,-0.7 1.575,1.575 0 0 1 1.2,0.49 1.682,1.682 0 0 1 0.465,1.2 1.155,1.155 0 0 1 -0.332,0.88 1.471,1.471 0 0 1 -1.029,0.415 3.966,3.966 0 0 1 -1.046,-0.282 4.017,4.017 0 0 0 -1.029,-0.282 1.049,1.049 0 0 0 -0.647,0.149 5.637,5.637 0 0 0 -1.134,1.499 3.053,3.053 0 0 0 -0.515,1.561 l 0.079,2.749 0.038,3.29 a 2.5,2.5 0 0 0 0.133,0.732 1.008,1.008 0 0 0 0.332,0.283 q 1.793,0.15 2.125,0.216 0.232,0.017 0.349,0.033 a 2.036,2.036 0 0 1 1,0.2 0.268,0.268 0 0 1 0.149,0.249 0.487,0.487 0 0 1 -0.133,0.266 l -1.847,-0.029 -0.7,-0.017 -1.01,0.017 h -1.693 l -0.914,0.05 z m 13.288,-13.381 -0.9,-4.914 a 18.5,18.5 0 0 1 -0.385,-2.755 2.269,2.269 0 0 1 0.434,-1.5439996 1.514,1.514 0 0 1 1.185,-0.481 1.689,1.689 0 0 1 1.243,0.49 1.693,1.693 0 0 1 0.492,1.2529996 23.423,23.423 0 0 1 -0.434,3.055 l -0.9,4.9 z m 5.787,9.114 a 12.5,12.5 0 0 0 0.93,2.042 4.71,4.71 0 0 0 1.511,1.469 3.671,3.671 0 0 0 1.909,0.523 2.856,2.856 0 0 0 1.876,-0.817 1.891,1.891 0 0 0 0.664,-1.428 3,3 0 0 0 -0.78,-1.992 7.513,7.513 0 0 0 -2.963,-1.718 6.926,6.926 0 0 1 -2.93,-1.751 3.3,3.3 0 0 1 -0.747,-2.125 3.349,3.349 0 0 1 0.615,-1.986 3.763,3.763 0 0 1 1.693,-1.3 5.314,5.314 0 0 1 1.992,-0.44 11.132,11.132 0 0 1 2.117,0.183 5.405,5.405 0 0 1 1.618,0.557 q 0.133,0.847 0.216,2.49 l 0.033,0.531 q -0.216,0.017 -0.365,0.017 h -0.232 a 4.766,4.766 0 0 0 -1.519,-2.183 3.269,3.269 0 0 0 -2.017,-0.805 2.194,2.194 0 0 0 -1.61,0.606 2.128,2.128 0 0 0 -0.614,1.585 1.983,1.983 0 0 0 0.5,1.328 6.638,6.638 0 0 0 2.329,1.331 12.142,12.142 0 0 1 2.673,1.383 3.892,3.892 0 0 1 1.236,1.549 4.365,4.365 0 0 1 0.4,1.745 3.482,3.482 0 0 1 -0.755,2.143 4.047,4.047 0 0 1 -1.895,1.404 6.12,6.12 0 0 1 -2.034,0.407 9.553,9.553 0 0 1 -3.885,-0.78 0.652,0.652 0 0 1 -0.183,-0.5 q 0,-0.149 -0.033,-0.481 -0.265,-2.24 -0.265,-2.655 a 0.331,0.331 0 0 1 0.083,-0.266 0.84,0.84 0 0 1 0.433,-0.066 z m -76.748,20.063 0.183,2.523 q 0.1,1.146 0.1,1.561 l -0.465,0.083 a 9.407,9.407 0 0 0 -2.764,-3.785 6.464,6.464 0 0 0 -4.042,-1.262 11.629,11.629 0 0 0 -4.549,0.714 9.288,9.288 0 0 0 -4.034,3.52 10.617,10.617 0 0 0 -1.677,6.043 10.328,10.328 0 0 0 0.614,3.669 11.134,11.134 0 0 0 1.735,3.03 11.815,11.815 0 0 0 2.648,2.432 7.377,7.377 0 0 0 2.373,1.026 10.979,10.979 0 0 0 2.324,0.183 9.809,9.809 0 0 0 2.208,-0.282 4.8,4.8 0 0 0 1.826,-0.755 2.45,2.45 0 0 0 0.838,-1.071 7.813,7.813 0 0 0 0.224,-2.324 q 0,-2.872 -0.382,-3.345 -0.382,-0.473 -2.407,-0.623 l -0.664,-0.05 -0.448,0.017 q -0.1,-0.017 -0.266,-0.05 l -0.249,-0.415 a 0.377,0.377 0 0 1 0.116,-0.216 32.017,32.017 0 0 1 3.752,-0.133 q 0.647,0 2.108,0.033 l 1.71,0.066 1.544,-0.017 q 0.448,0 1.079,0.033 a 0.237,0.237 0 0 1 0.149,0.058 0.23,0.23 0 0 1 0.033,0.141 1.72,1.72 0 0 1 -0.083,0.465 5.547,5.547 0 0 1 -1.079,0.149 l -1.079,-0.017 a 1.109,1.109 0 0 0 -0.88,0.382 2.531,2.531 0 0 0 -0.166,1.245 l 0.017,2.175 a 13.215,13.215 0 0 1 -0.183,2.855 1.381,1.381 0 0 1 -0.415,0.656 4.751,4.751 0 0 1 -1.328,0.689 12.881,12.881 0 0 1 -2.623,0.78 24.658,24.658 0 0 1 -4.233,0.382 14.7,14.7 0 0 1 -5.387,-0.838 10.81,10.81 0 0 1 -3.619,-2.333 9.55,9.55 0 0 1 -2.167,-3.021 11.3,11.3 0 0 1 -0.979,-4.565 11.632,11.632 0 0 1 1.536,-5.686 11.28,11.28 0 0 1 4.956,-4.524 14.531,14.531 0 0 1 6.541,-1.229 18.128,18.128 0 0 1 4.673,0.5 11.9,11.9 0 0 1 2.881,1.131 z m 6.425,-0.249 a 1.256,1.256 0 0 1 0.423,-0.946 1.436,1.436 0 0 1 1.021,-0.4 1.507,1.507 0 0 1 1.079,0.448 1.328,1.328 0 0 1 0.465,0.963 1.354,1.354 0 0 1 -0.465,0.971 1.493,1.493 0 0 1 -1.079,0.457 1.4,1.4 0 0 1 -1.029,-0.415 1.46,1.46 0 0 1 -0.416,-1.075 z m -1.392,8.616 0.017,-0.49 q 1.079,-0.316 1.162,-0.367 a 5.437,5.437 0 0 0 1.253,-0.816 5.654,5.654 0 0 0 1.1,-1.233 2.032,2.032 0 0 1 0.315,-0.033 l 0.2,0.017 q 0.066,0.8 0.066,1.162 0,0.083 -0.033,0.747 v 0.88 l 0.017,4.781 -0.05,5.063 a 1.241,1.241 0 0 0 0.2,0.855 3.24,3.24 0 0 0 1.278,0.54 10.093,10.093 0 0 1 1,0.315 0.523,0.523 0 0 1 0.05,0.2 0.544,0.544 0 0 1 -0.083,0.249 q -0.647,-0.017 -1.66,-0.083 -1.378,-0.116 -1.826,-0.116 -0.216,0 -2.656,0.083 a 8.9,8.9 0 0 0 -0.963,0.083 1.151,1.151 0 0 1 -0.266,-0.05 0.365,0.365 0 0 1 -0.083,-0.2 q 0,-0.232 0.315,-0.365 0.066,-0.033 1.693,-0.381 a 1.08,1.08 0 0 0 0.7,-0.332 1.761,1.761 0 0 0 0.282,-1.111 q 0.033,-1.276 0.033,-7 a 5.859,5.859 0 0 0 -0.1,-1.426 1.259,1.259 0 0 0 -0.44,-0.456 4.825,4.825 0 0 0 -1.521,-0.516 z m 11.568,-4.613 0.515,0.017 0.066,1.577 -0.033,2.042 q 0.315,0.017 0.4,0.017 0.432,0 1.644,-0.066 0.78,-0.05 1.494,-0.05 0.332,0 1,0.017 0.033,0.332 0.033,0.531 a 3.658,3.658 0 0 1 -0.1,0.681 h -0.287 l -2.573,0.083 -1.278,0.033 -0.3,0.033 a 3.163,3.163 0 0 0 -0.133,0.963 l 0.05,2.49 -0.033,4.383 a 3.992,3.992 0 0 0 0.448,2.291 1.51,1.51 0 0 0 1.295,0.581 9.218,9.218 0 0 0 1.624,-0.269 2.907,2.907 0 0 0 0.979,-0.548 h 0.149 a 0.325,0.325 0 0 1 0.241,0.091 0.325,0.325 0 0 1 0.091,0.241 l -0.017,0.116 a 4.313,4.313 0 0 1 -1.635,1.137 6.92,6.92 0 0 1 -2.449,0.357 3.021,3.021 0 0 1 -1.785,-0.5 2.211,2.211 0 0 1 -0.9,-1.179 13.48,13.48 0 0 1 -0.2,-2.972 l 0.066,-3.735 -0.017,-1.793 v -0.664 q 0,-0.465 -0.033,-0.93 l -0.282,-0.017 -1.361,0.05 -0.133,0.017 a 0.4,0.4 0 0 1 -0.274,-0.083 0.26,0.26 0 0 1 -0.091,-0.2 0.438,0.438 0 0 1 0.125,-0.324 3.085,3.085 0 0 1 0.755,-0.39 3.928,3.928 0 0 0 1,-0.689 5.457,5.457 0 0 0 0.971,-1.121 9.829,9.829 0 0 0 0.564,-1.262 q 0.271,-0.676 0.404,-0.956 z m 5.811,16.668 0.021,-0.368 a 3.44,3.44 0 0 1 1.312,-0.4 5.925,5.925 0 0 0 1.488,-0.305 0.936,0.936 0 0 0 0.448,-0.44 2.829,2.829 0 0 0 0.232,-1.113 l -0.033,-1.263 0.017,-1.163 -0.033,-1.362 q 0,-0.847 0.05,-2.119 0.05,-1.272 0.05,-1.354 v -4.537 q 0,-1.08 0.05,-2.334 0.05,-1.254 0.05,-1.736 a 10.574,10.574 0 0 0 -0.066,-1.661 0.52,0.52 0 0 0 -0.249,-0.332 4.592,4.592 0 0 0 -1.2,-0.183 q -0.78,-0.066 -1.079,-0.116 a 0.766,0.766 0 0 1 -0.083,-0.3 q 0,-0.133 0.017,-0.315 0.4,-0.033 0.614,-0.033 l 1.561,0.017 q 1.66,0 3.52,-0.133 0.913,-0.066 2.756,-0.116 a 1.3,1.3 0 0 1 0.033,0.282 0.4,0.4 0 0 1 -0.075,0.257 0.418,0.418 0 0 1 -0.257,0.125 5.788,5.788 0 0 0 -2.565,0.54 q -0.39,0.357 -0.39,1.818 0,2.689 0.083,5.545 l 0.066,1.561 a 15.465,15.465 0 0 0 2.158,0.166 q 0.564,0.033 0.664,0.033 l 2.44,-0.033 1.61,0.05 4.217,-0.132 a 5.34,5.34 0 0 0 0.946,-0.066 q 0.1,-2.879 0.1,-5.576 a 20.957,20.957 0 0 0 -0.116,-3.061 0.569,0.569 0 0 0 -0.232,-0.381 q -0.1,-0.05 -1.727,-0.265 -0.282,-0.033 -0.531,-0.083 a 1.87,1.87 0 0 1 -0.083,-0.579 6.682,6.682 0 0 1 0.714,-0.085 l 1.1,0.059 q 1.511,0.074 3.038,0.074 0.979,0 3.254,-0.166 a 3.114,3.114 0 0 1 -0.083,0.6 5.191,5.191 0 0 1 -1.511,0.315 3.121,3.121 0 0 0 -0.946,0.183 1.127,1.127 0 0 0 -0.315,0.946 q 0,0.166 0.017,0.365 0.017,0.6 0.017,0.78 v 1.906 l 0.017,1.2 -0.033,1.544 0.017,2.889 -0.033,2.723 q 0,0.813 0.05,2.54 l -0.017,2.241 a 4.614,4.614 0 0 0 0.2,1.61 0.61,0.61 0 0 0 0.332,0.332 l 1.345,0.3 a 4.086,4.086 0 0 1 1.187,0.407 0.472,0.472 0 0 1 0.191,0.374 l -0.05,0.2 -0.083,0.017 a 0.933,0.933 0 0 1 -0.216,-0.033 21.04,21.04 0 0 0 -3.8,-0.332 q -1.561,0 -2.216,0.05 -0.655,0.05 -2.739,0.358 a 2.329,2.329 0 0 1 -0.033,-0.315 2.032,2.032 0 0 1 0.033,-0.315 4.274,4.274 0 0 1 1.627,-0.415 2.183,2.183 0 0 0 1.312,-0.531 1.156,1.156 0 0 0 0.315,-0.88 l -0.017,-2.391 q 0.05,-1.079 0.05,-1.179 0,-1.411 -0.05,-4.117 -0.05,-0.232 -0.183,-0.282 a 26.312,26.312 0 0 0 -4.416,0.066 q -0.8,0.05 -1.2,0.05 -0.4,0 -1.668,-0.042 -1.27,-0.042 -2.349,-0.042 -0.581,0 -0.979,0.017 -0.764,0.017 -0.847,0.017 a 0.711,0.711 0 0 0 -0.523,0.149 0.8,0.8 0 0 0 -0.141,0.548 l 0.017,1.162 q 0,0.282 -0.083,3.138 -0.017,0.581 -0.017,0.963 a 17.23,17.23 0 0 0 0.166,3.021 0.73,0.73 0 0 0 0.3,0.481 6.768,6.768 0 0 0 1.295,0.349 8.913,8.913 0 0 1 1.162,0.315 l 0.1,0.166 a 0.158,0.158 0 0 1 -0.066,0.133 0.429,0.429 0 0 1 -0.282,0.083 q -0.133,0 -0.315,-0.008 -0.182,-0.008 -0.708,-0.026 -0.848,-0.015 -2.11,-0.115 -0.813,-0.066 -1.444,-0.066 -1.063,0 -3.4,0.114 -0.452,0.018 -0.767,0.018 z m 25.749,-13.3 h 1.24 l 0.546,0.033 0.43,-0.033 q 1.7,0 2.117,0.033 l 0.017,0.315 q 0,2.341 -0.066,4.532 -0.05,1.295 -0.05,1.478 a 19.985,19.985 0 0 0 0.191,3.652 1.929,1.929 0 0 0 0.9,1.17 3.166,3.166 0 0 0 1.706,0.44 5.516,5.516 0 0 0 2.321,-0.506 7.015,7.015 0 0 0 1.889,-1.237 10.741,10.741 0 0 0 0.083,-1.395 q 0,-2.474 0.05,-3.337 0.017,-0.515 0.017,-0.9 a 8.582,8.582 0 0 0 -0.266,-3.038 q -0.266,-0.349 -2.025,-0.531 -0.581,-0.066 -0.847,-0.116 a 0.723,0.723 0 0 1 -0.133,-0.332 l 0.05,-0.183 a 7.384,7.384 0 0 1 0.847,-0.05 l 2.64,0.033 q 1.411,-0.033 1.494,-0.033 0.183,0 0.349,0.017 l 0.033,1.212 q -0.116,2.523 -0.133,6.242 l -0.033,1.345 0.066,2.258 a 0.726,0.726 0 0 0 0.266,0.315 2.534,2.534 0 0 0 0.813,0.083 h 0.149 q 0.216,0 1.229,0.1 0.017,0.216 0.017,0.315 v 0.183 a 31.447,31.447 0 0 0 -3.6,0.963 9.237,9.237 0 0 1 -0.93,0.266 q -0.083,-0.581 -0.083,-0.714 v -1.341 q 0,-0.083 -0.017,-0.448 -0.216,0.149 -0.5,0.365 a 15.336,15.336 0 0 1 -2.772,1.71 4.283,4.283 0 0 1 -1.893,0.481 3.545,3.545 0 0 1 -2.84,-1.294 q -1.112,-1.295 -1.112,-4.416 0,-0.166 0.017,-0.6 0.066,-0.8 0.066,-1.112 0,-0.116 -0.017,-0.73 -0.017,-0.266 -0.017,-0.465 0,-0.149 0.017,-0.672 0.017,-0.523 0.017,-0.739 0,-0.282 -0.017,-0.5 l -0.033,-0.88 0.017,-0.465 a 0.618,0.618 0 0 0 -0.266,-0.481 13.488,13.488 0 0 0 -1.372,-0.321 2.345,2.345 0 0 1 -0.573,-0.141 z m 16.651,-7.811 v -0.084 a 1.286,1.286 0 0 1 0.133,-0.472 29.482,29.482 0 0 0 3.868,-0.979 2.819,2.819 0 0 1 0.365,-0.017 1.55,1.55 0 0 1 0.083,0.349 v 4.946 l -0.017,1.577 0.017,1.76 -0.028,1.428 q 0,0.083 0.033,0.564 l 1.361,-0.515 1.428,-0.432 q 1.544,-0.249 1.793,-0.249 a 7.987,7.987 0 0 1 2.988,0.531 5.149,5.149 0 0 1 1.61,1.1 5.248,5.248 0 0 1 1.175,1.636 7.226,7.226 0 0 1 0.664,2.723 9.09,9.09 0 0 1 -0.232,2.507 8.07,8.07 0 0 1 -1.378,2.623 6.526,6.526 0 0 1 -2.275,1.647 7.46,7.46 0 0 1 -5.96,0.116 9.389,9.389 0 0 0 -1.511,-0.564 q -0.515,0 -1.312,1.361 l -0.484,-0.013 q -0.066,-1.111 -0.066,-2.736 l 0.033,-2.471 -0.017,-1.26 0.033,-3.615 -0.033,-0.7 0.066,-1.708 v -1.459 l 0.017,-0.6 q 0,-0.182 -0.017,-1.443 v -0.995 a 9.228,9.228 0 0 0 -0.251,-3.333 3.947,3.947 0 0 0 -2.086,-1.223 z m 7.9,20.412 a 4.992,4.992 0 0 0 3.843,-1.419 6,6 0 0 0 1.32,-4.225 5.846,5.846 0 0 0 -1.494,-4.167 4.852,4.852 0 0 0 -3.686,-1.594 6.188,6.188 0 0 0 -2.673,0.515 q -0.647,0.315 -0.722,0.581 -0.075,0.266 -0.067,3.552 a 32.252,32.252 0 0 0 0.166,4.565 2.354,2.354 0 0 0 1.029,1.478 4.419,4.419 0 0 0 2.286,0.713 z" />
</svg>
