<?xml version="1.0" encoding="UTF-8" standalone="no"?>
<svg
   xmlns:dc="http://purl.org/dc/elements/1.1/"
   xmlns:cc="http://creativecommons.org/ns#"
   xmlns:rdf="http://www.w3.org/1999/02/22-rdf-syntax-ns#"
   xmlns:svg="http://www.w3.org/2000/svg"
   xmlns="http://www.w3.org/2000/svg"
   xmlns:sodipodi="http://sodipodi.sourceforge.net/DTD/sodipodi-0.dtd"
   xmlns:inkscape="http://www.inkscape.org/namespaces/inkscape"
   width="122"
   height="78"
   viewBox="0 0 122 77.999998"
   version="1.1"
   id="svg3"
   sodipodi:docname="Council Rules.svg"
   inkscape:version="1.0 (4035a4fb49, 2020-05-01)">
  <metadata
     id="metadata9">
    <rdf:RDF>
      <cc:Work
         rdf:about="">
        <dc:format>image/svg+xml</dc:format>
        <dc:type
           rdf:resource="http://purl.org/dc/dcmitype/StillImage" />
        <dc:title />
      </cc:Work>
    </rdf:RDF>
  </metadata>
  <defs
     id="defs7" />
  <sodipodi:namedview
     inkscape:document-rotation="0"
     pagecolor="#ffffff"
     bordercolor="#666666"
     borderopacity="1"
     objecttolerance="10"
     gridtolerance="10"
     guidetolerance="10"
     inkscape:pageopacity="0"
     inkscape:pageshadow="2"
     inkscape:window-width="1920"
     inkscape:window-height="1001"
     id="namedview5"
     showgrid="false"
     inkscape:zoom="4.2229104"
     inkscape:cx="30.669129"
     inkscape:cy="49.573937"
     inkscape:window-x="-9"
     inkscape:window-y="-9"
     inkscape:window-maximized="1"
     inkscape:current-layer="svg3" />
  <path
     style="fill:#ffffff;fill-opacity:1"
     id="text1672"
     d="m 28.631164,11.443723 a 17.012,17.012 0 0 1 0.2,2.623 q 0,0.266 -0.017,0.714 a 1.834,1.834 0 0 1 -0.349,0.05 1.7,1.7 0 0 1 -0.282,-0.033 5.825,5.825 0 0 0 -2.274,-2.988 6.907,6.907 0 0 0 -3.903,-1.046 6.622,6.622 0 0 0 -2.075,0.282 8.664,8.664 0 0 0 -2.623,1.418 8.5,8.5 0 0 0 -1.91,2.159 10.785,10.785 0 0 0 -1.236,3.041 14.645,14.645 0 0 0 -0.457,3.644 13.916,13.916 0 0 0 1.08,5.866 6.808,6.808 0 0 0 2.955,3.3 8.051,8.051 0 0 0 3.785,0.99 l 0.78,-0.017 a 12.413,12.413 0 0 0 1.81,-0.315 8.454,8.454 0 0 0 2,-0.822 6.6,6.6 0 0 0 1.544,-1.336 8.383,8.383 0 0 0 1.287,-2.01 l 0.2,-0.066 a 0.565,0.565 0 0 1 0.249,0.1 q -0.017,0.4 -0.033,0.515 -0.7,2.806 -1.013,3.835 -0.266,0.066 -0.664,0.2 a 16.514,16.514 0 0 1 -5.2,0.664 15.992,15.992 0 0 1 -3.923,-0.357 16.221,16.221 0 0 1 -2.839,-1.112 9.234,9.234 0 0 1 -2.7,-2 9.377,9.377 0 0 1 -1.876,-3.146 11.691,11.691 0 0 1 -0.714,-4.142 11.06,11.06 0 0 1 0.564,-3.71 12.881,12.881 0 0 1 1.743,-3.212 11.028,11.028 0 0 1 2.781,-2.706 10.508,10.508 0 0 1 3.561,-1.527 19.5,19.5 0 0 1 3.9,-0.3000003 11.978,11.978 0 0 1 3.47,0.4900003 6.617,6.617 0 0 1 2.179,0.954 z m 3.137,13.646 a 7.017,7.017 0 0 1 0.473,-2.416 6.711,6.711 0 0 1 1.436,-2.31 6.673,6.673 0 0 1 2.042,-1.519 8.76,8.76 0 0 1 3.686,-0.7 6.971,6.971 0 0 1 5.188,2.125 7.041,7.041 0 0 1 2.083,5.113 6.4,6.4 0 0 1 -2.178,4.746 7.674,7.674 0 0 1 -5.525,2.083 7.513,7.513 0 0 1 -3.884,-1.079 6.983,6.983 0 0 1 -2.341,-2.407 6.8,6.8 0 0 1 -0.98,-3.636 z m 7.346,6.474 a 4.787,4.787 0 0 0 2.437,-0.68 4.718,4.718 0 0 0 1.871,-2.183 8.169,8.169 0 0 0 0.7,-3.478 10.155,10.155 0 0 0 -0.54,-3 5,5 0 0 0 -1.663,-2.565 4.227,4.227 0 0 0 -2.636,-0.855 5.406,5.406 0 0 0 -2.237,0.515 4.274,4.274 0 0 0 -1.929,1.976 8.865,8.865 0 0 0 -0.79,4.15 6.714,6.714 0 0 0 1.371,4.569 4.375,4.375 0 0 0 3.416,1.551 z m 9.339,-12.833 h 1.24 l 0.546,0.033 0.43,-0.033 q 1.7,0 2.117,0.033 l 0.017,0.315 q 0,2.341 -0.066,4.532 -0.05,1.295 -0.05,1.478 a 19.985,19.985 0 0 0 0.191,3.652 1.929,1.929 0 0 0 0.9,1.17 3.166,3.166 0 0 0 1.706,0.44 5.516,5.516 0 0 0 2.321,-0.506 7.015,7.015 0 0 0 1.887,-1.235 10.741,10.741 0 0 0 0.083,-1.395 q 0,-2.474 0.05,-3.337 0.017,-0.515 0.017,-0.9 a 8.582,8.582 0 0 0 -0.266,-3.034 q -0.266,-0.349 -2.025,-0.531 -0.581,-0.066 -0.847,-0.116 a 0.723,0.723 0 0 1 -0.133,-0.332 l 0.05,-0.183 a 7.384,7.384 0 0 1 0.847,-0.05 l 2.639,0.032 q 1.411,-0.033 1.494,-0.033 0.183,0 0.349,0.017 l 0.033,1.216 q -0.116,2.52 -0.133,6.238 l -0.033,1.345 0.066,2.258 a 0.726,0.726 0 0 0 0.266,0.315 2.534,2.534 0 0 0 0.813,0.083 h 0.149 q 0.216,0 1.229,0.1 0.017,0.216 0.017,0.315 v 0.183 a 31.447,31.447 0 0 0 -3.602,0.963 9.237,9.237 0 0 1 -0.93,0.266 q -0.083,-0.581 -0.083,-0.714 v -1.345 q 0,-0.083 -0.017,-0.448 -0.216,0.149 -0.5,0.365 a 15.336,15.336 0 0 1 -2.77,1.71 4.283,4.283 0 0 1 -1.893,0.481 3.545,3.545 0 0 1 -2.839,-1.294 q -1.112,-1.295 -1.112,-4.421 0,-0.166 0.017,-0.6 0.066,-0.8 0.066,-1.112 0,-0.116 -0.017,-0.73 -0.016,-0.258 -0.016,-0.458 0,-0.149 0.017,-0.672 0.017,-0.523 0.017,-0.739 0,-0.282 -0.017,-0.5 l -0.033,-0.88 0.017,-0.465 a 0.618,0.618 0 0 0 -0.266,-0.481 13.487,13.487 0 0 0 -1.37,-0.324 2.345,2.345 0 0 1 -0.573,-0.141 z m 16.734,12.485 a 8.087,8.087 0 0 1 0.963,-0.2 2.865,2.865 0 0 0 1.253,-0.348 1.339,1.339 0 0 0 0.208,-0.904 l 0.033,-0.6 q 0.017,-0.331 0.017,-0.844 l -0.033,-5.079 a 2.179,2.179 0 0 0 -0.266,-1.324 2.929,2.929 0 0 0 -1.66,-0.645 v -0.608 a 5.015,5.015 0 0 0 1.859,-0.866 5.968,5.968 0 0 0 1.594,-2.034 l 0.564,0.017 q 0.05,0.783 0.05,1.116 v 1.1 l 0.017,0.3 q 0.2,-0.133 0.465,-0.333 a 10.875,10.875 0 0 1 2.042,-1.224 9.813,9.813 0 0 1 1.859,-0.658 4.642,4.642 0 0 1 1.162,-0.133 3.8,3.8 0 0 1 2.341,0.731 3.314,3.314 0 0 1 1.27,1.72 16.907,16.907 0 0 1 0.291,3.931 v 2.51 q 0,0.1 -0.025,0.665 -0.025,0.565 -0.025,1.3 a 6.49,6.49 0 0 0 0.1,1.479 1,1 0 0 0 0.432,0.432 3.9,3.9 0 0 1 1.859,0.515 v 0.132 a 1.168,1.168 0 0 1 -0.1,0.415 h -0.315 l -2.192,-0.032 -2.158,0.05 q -1.194,0.033 -2.208,-0.016 l -0.1,-0.349 a 0.519,0.519 0 0 1 0.114,-0.268 4.005,4.005 0 0 1 1.262,-0.266 2.8,2.8 0 0 0 0.664,-0.1 1.856,1.856 0 0 0 0.448,-0.266 1.57,1.57 0 0 0 0.2,-0.665 q 0,-0.116 -0.033,-0.466 -0.05,-0.765 -0.066,-3.807 v -0.865 l 0.033,-1.33 a 4,4 0 0 0 -0.863,-2.959 3.225,3.225 0 0 0 -2.308,-0.815 5.145,5.145 0 0 0 -2.175,0.49 7.355,7.355 0 0 0 -2.062,1.472 q -0.033,0.8 -0.033,1.361 l 0.05,3.669 q 0,2.872 0.083,3.52 a 0.738,0.738 0 0 0 0.116,0.365 1.1,1.1 0 0 0 0.531,0.216 q 0.4,0.083 0.921,0.232 0.521,0.149 0.689,0.183 a 0.624,0.624 0 0 1 0.453,0.331 l -0.017,0.332 h -1.742 l -3.586,-0.049 q -1.245,0.017 -1.577,0.017 h -0.415 l -0.034,-0.216 a 1.6,1.6 0 0 1 0.05,-0.332 z m 29.982,-2.49 0.017,1.079 a 7.994,7.994 0 0 1 -2.556,1.926 7.418,7.418 0 0 1 -2.972,0.548 6.02,6.02 0 0 1 -3.354,-0.971 6.268,6.268 0 0 1 -2.3,-2.748 8.4,8.4 0 0 1 -0.806,-3.486 6.935,6.935 0 0 1 0.971,-3.544 6.252,6.252 0 0 1 2.573,-2.49 8.777,8.777 0 0 1 4.026,-0.822 6.459,6.459 0 0 1 3.536,0.8 1.4,1.4 0 0 1 0.681,1.2 1.193,1.193 0 0 1 -0.349,0.88 1.214,1.214 0 0 1 -0.9,0.349 2.737,2.737 0 0 1 -1.826,-1.029 4.213,4.213 0 0 0 -1.112,-0.872 2.523,2.523 0 0 0 -1.112,-0.241 3.034,3.034 0 0 0 -2.457,1.212 6.782,6.782 0 0 0 -1.361,4.333 6.274,6.274 0 0 0 1.399,4.274 4.212,4.212 0 0 0 3.254,1.594 5.875,5.875 0 0 0 2.3,-0.423 9.606,9.606 0 0 0 2.349,-1.569 z m 3.254,-17.362 a 1.256,1.256 0 0 1 0.423,-0.946 1.436,1.436 0 0 1 1.021,-0.4 1.507,1.507 0 0 1 1.078996,0.448 1.328,1.328 0 0 1 0.465,0.963 1.354,1.354 0 0 1 -0.465,0.971 1.493,1.493 0 0 1 -1.078996,0.457 1.4,1.4 0 0 1 -1.029,-0.415 1.46,1.46 0 0 1 -0.415,-1.078 z m -1.395,8.616 0.017,-0.49 q 1.079,-0.316 1.162,-0.367 a 5.437,5.437 0 0 0 1.253,-0.816 5.654,5.654 0 0 0 1.099996,-1.233 2.032,2.032 0 0 1 0.315,-0.033 l 0.2,0.017 q 0.066,0.8 0.066,1.162 0,0.083 -0.033,0.747 v 0.88 l 0.017,4.781 -0.05,5.063 a 1.241,1.241 0 0 0 0.2,0.855 3.24,3.24 0 0 0 1.278,0.54 10.093,10.093 0 0 1 1,0.315 0.523,0.523 0 0 1 0.05,0.2 0.544,0.544 0 0 1 -0.083,0.249 q -0.647,-0.02 -1.66,-0.086 -1.378,-0.116 -1.826,-0.116 -0.215996,0 -2.655996,0.083 a 8.9,8.9 0 0 0 -0.963,0.083 1.151,1.151 0 0 1 -0.266,-0.05 0.365,0.365 0 0 1 -0.083,-0.2 q 0,-0.232 0.315,-0.365 0.067,-0.035 1.694,-0.381 a 1.08,1.08 0 0 0 0.7,-0.332 1.761,1.761 0 0 0 0.282,-1.111 q 0.033,-1.276 0.033,-7 a 5.859,5.859 0 0 0 -0.1,-1.426 1.259,1.259 0 0 0 -0.44,-0.456 4.825,4.825 0 0 0 -1.521,-0.516 z m 7.686996,-8.782 v -0.365 q 0.465,-0.149 1.029,-0.315 0.834,-0.266 2.47,-0.8130003 h 0.784 v 0.9140003 q 0,13.64 -0.083,16.265 -0.05,1.545 -0.05,1.645 a 6.919,6.919 0 0 0 0.149,2.077 q 0.2,0.3 1.22,0.415 a 4.22,4.22 0 0 1 1.2,0.233 0.238,0.238 0 0 1 0.133,0.232 0.357,0.357 0 0 1 -0.075,0.257 0.386,0.386 0 0 1 -0.274,0.075 q -0.116,0 -1.743,-0.057 l -2.17,-0.08 -2.789,0.133 a 0.53,0.53 0 0 1 -0.4,-0.1 0.3,0.3 0 0 1 -0.1,-0.238 0.282,0.282 0 0 1 0.108,-0.247 6.052,6.052 0 0 1 1.2,-0.259 4.342,4.342 0 0 0 1.243,-0.306 0.836,0.836 0 0 0 0.208,-0.556 q 0.066,-0.6 0.066,-3.37 l -0.017,-3.818 0.05,-3.951 -0.017,-3.951 0.05,-1.942 a 1.482,1.482 0 0 0 -0.183,-0.838 1.825,1.825 0 0 0 -0.78,-0.506 q -0.896,-0.368 -1.229,-0.537 z m -79.599996,56.055 a 23.318,23.318 0 0 0 2.726,-0.4 0.87,0.87 0 0 0 0.4,-0.5 v -0.183 q 0,-0.415 0.132,-3 0.033,-0.73 0.033,-1.426 l -0.049,-1.98 0.033,-2.239 -0.017,-4.164 0.017,-2.986 a 4.915,4.915 0 0 0 -0.292,-2.301 2.465,2.465 0 0 0 -1.585,-0.589 7.514,7.514 0 0 1 -1.411,-0.257 0.29,0.29 0 0 1 -0.133,-0.265 1.188,1.188 0 0 1 0.05,-0.3 1.323,1.323 0 0 1 0.764,-0.166 q 0.083,0 0.457,-0.042 a 6.4,6.4 0 0 1 0.706,-0.042 h 1.361 l 4.366,-0.05 a 16.865,16.865 0 0 1 5.188,0.548 4.78,4.78 0 0 1 2.366,1.853 5.09,5.09 0 0 1 0.88,2.914 q 0,3.055 -3.2,4.665 a 8.366,8.366 0 0 0 -0.862,0.5 q 0.563,1.194 1.575,2.869 l 2.1,3.615 a 20.474,20.474 0 0 0 1.744,2.5 3.981,3.981 0 0 0 1.171,0.84 10.005,10.005 0 0 0 2.317,0.632 q 0.017,0.166 0.017,0.266 a 2.328,2.328 0 0 1 -0.017,0.249 q -2.274,0.033 -5.329,0.033 -0.216,0 -0.6,-0.033 -1.179,-2.261 -2.772,-4.972 l -2.457,-4.49 a 2.991,2.991 0 0 0 -0.822,-0.872 1.8,1.8 0 0 0 -0.855,-0.174 l -1.411,0.016 -0.465,-0.016 q -0.05,0.531 -0.05,2.175 v 5.677 a 3.062,3.062 0 0 0 0.133,0.88 1.06,1.06 0 0 0 0.457,0.506 9.85,9.85 0 0 0 1.868,0.573 l 0.681,0.166 a 0.7,0.7 0 0 1 0.133,0.448 4.049,4.049 0 0 1 -0.63,0.083 q -1.492,0 -2.1,-0.033 -0.317,-0.017 -0.515,-0.017 l -2.254,0.033 -2.2,-0.017 q -0.149,0 -1.508,0.05 l -0.336,-0.066 -0.033,-0.166 q 0,-0.149 0.231,-0.349 z m 6.16,-10.857 q 0.448,0.017 0.664,0.017 a 15.735,15.735 0 0 0 2.756,-0.282 4.508,4.508 0 0 0 1.776,-0.7 3.675,3.675 0 0 0 1.137,-1.45 4.584,4.584 0 0 0 0.457,-1.989 4.862,4.862 0 0 0 -0.714,-2.386 4.17,4.17 0 0 0 -1.851,-1.607 6.98,6.98 0 0 0 -3.129,-0.646 q -0.448,0 -1.162,0.05 -0.066,0.862 -0.066,1.326 l 0.083,3.1 -0.017,1.276 q 0.003,1.282 0.069,3.287 z m 14.692,-1.66 h 1.24 l 0.546,0.033 0.43,-0.033 q 1.7,0 2.117,0.033 l 0.017,0.315 q 0,2.341 -0.066,4.532 -0.05,1.295 -0.05,1.478 a 19.985,19.985 0 0 0 0.197,3.649 1.929,1.929 0 0 0 0.9,1.17 3.166,3.166 0 0 0 1.706,0.44 5.516,5.516 0 0 0 2.321,-0.506 7.015,7.015 0 0 0 1.889,-1.237 10.741,10.741 0 0 0 0.083,-1.395 q 0,-2.474 0.05,-3.337 0.017,-0.515 0.017,-0.9 a 8.582,8.582 0 0 0 -0.266,-3.034 q -0.266,-0.349 -2.025,-0.531 -0.581,-0.066 -0.847,-0.116 a 0.723,0.723 0 0 1 -0.133,-0.332 l 0.05,-0.183 a 7.384,7.384 0 0 1 0.847,-0.05 l 2.64,0.033 q 1.411,-0.033 1.494,-0.033 0.183,0 0.349,0.017 l 0.025,1.215 q -0.113,2.52 -0.13,6.238 l -0.033,1.345 0.063,2.258 a 0.726,0.726 0 0 0 0.266,0.315 2.534,2.534 0 0 0 0.813,0.083 h 0.153 q 0.216,0 1.229,0.1 0.017,0.216 0.017,0.315 v 0.183 a 31.447,31.447 0 0 0 -3.6,0.963 9.237,9.237 0 0 1 -0.93,0.266 q -0.083,-0.581 -0.083,-0.714 v -1.345 q 0,-0.083 -0.017,-0.448 -0.216,0.149 -0.5,0.365 a 15.336,15.336 0 0 1 -2.772,1.71 4.283,4.283 0 0 1 -1.893,0.481 3.545,3.545 0 0 1 -2.839,-1.295 q -1.112,-1.295 -1.112,-4.416 0,-0.166 0.017,-0.6 0.066,-0.8 0.066,-1.112 0,-0.116 -0.017,-0.73 -0.017,-0.266 -0.017,-0.465 0,-0.149 0.017,-0.672 0.017,-0.523 0.017,-0.739 0,-0.282 -0.017,-0.5 l -0.033,-0.88 0.017,-0.465 a 0.618,0.618 0 0 0 -0.266,-0.481 13.488,13.488 0 0 0 -1.37,-0.324 2.345,2.345 0 0 1 -0.573,-0.141 z m 16.971,-7.541 v -0.365 q 0.465,-0.149 1.029,-0.315 0.834,-0.266 2.47,-0.813 h 0.784 v 0.914 q 0,13.64 -0.083,16.265 -0.05,1.545 -0.05,1.645 a 6.919,6.919 0 0 0 0.149,2.077 q 0.2,0.3 1.22,0.415 a 4.22,4.22 0 0 1 1.2,0.233 0.238,0.238 0 0 1 0.133,0.232 0.357,0.357 0 0 1 -0.075,0.257 0.386,0.386 0 0 1 -0.274,0.075 q -0.116,0 -1.743,-0.057 l -2.175,-0.076 -2.785,0.132 a 0.53,0.53 0 0 1 -0.4,-0.1 0.3,0.3 0 0 1 -0.1,-0.238 0.282,0.282 0 0 1 0.108,-0.247 6.053,6.053 0 0 1 1.2,-0.259 4.342,4.342 0 0 0 1.243,-0.306 0.836,0.836 0 0 0 0.209,-0.56 q 0.066,-0.6 0.066,-3.37 l -0.017,-3.818 0.051,-3.952 -0.017,-3.951 0.05,-1.942 a 1.482,1.482 0 0 0 -0.183,-0.838 1.825,1.825 0 0 0 -0.78,-0.506 q -0.898,-0.363 -1.23,-0.532 z m 20.071,11.8 -6.657,0.049 h -1.262 q -0.764,0 -1.561,0.069 a 2.927,2.927 0 0 0 -0.149,0.681 l 0.017,0.166 v 0.166 l -0.017,0.813 a 6.477,6.477 0 0 0 0.639,2.482 4.933,4.933 0 0 0 1.826,2.243 5.628,5.628 0 0 0 2.963,0.822 6.11,6.11 0 0 0 1.511,-0.232 7.647,7.647 0 0 0 1.594,-0.847 l 1.2,-0.979 0.1,0.664 a 2.015,2.015 0 0 1 -0.017,0.249 7.293,7.293 0 0 1 -1.898,1.659 9.016,9.016 0 0 1 -2.324,1.046 8.106,8.106 0 0 1 -1.859,0.149 5.95,5.95 0 0 1 -2.324,-0.481 5.659,5.659 0 0 1 -2.664,-2.35 7.5,7.5 0 0 1 -0.971,-3.926 8.421,8.421 0 0 1 0.274,-1.876 9.864,9.864 0 0 1 0.988,-2.44 4.782,4.782 0 0 1 1.18,-1.444 7.8,7.8 0 0 1 1.741,-1.114 6.5,6.5 0 0 1 2.507,-0.448 4.922,4.922 0 0 1 4.507,2.49 4.507,4.507 0 0 1 0.656,2.158 z m -9.264,-0.6 h 0.78 q 0.847,0 5.047,-0.266 a 2.1,2.1 0 0 0 0.813,-0.133 0.885,0.885 0 0 0 0.3,-0.564 2.647,2.647 0 0 0 -0.332,-1.17 2.288,2.288 0 0 0 -1.021,-1.013 3.435,3.435 0 0 0 -1.6,-0.357 3.764,3.764 0 0 0 -3.088,1.444 3.339,3.339 0 0 0 -0.899,2.065 z m 12.667,5.146 a 12.5,12.5 0 0 0 0.93,2.042 4.71,4.71 0 0 0 1.511,1.469 3.671,3.671 0 0 0 1.909,0.523 2.856,2.856 0 0 0 1.876,-0.811 1.891,1.891 0 0 0 0.66,-1.424 3,3 0 0 0 -0.78,-1.992 7.513,7.513 0 0 0 -2.963,-1.718 6.926,6.926 0 0 1 -2.93,-1.751 3.3,3.3 0 0 1 -0.747,-2.125 3.349,3.349 0 0 1 0.62,-1.99 3.763,3.763 0 0 1 1.693,-1.3 5.314,5.314 0 0 1 1.992,-0.44 11.132,11.132 0 0 1 2.115,0.177 5.405,5.405 0 0 1 1.618,0.563 q 0.133,0.847 0.216,2.49 l 0.033,0.531 q -0.216,0.017 -0.365,0.017 h -0.232 a 4.766,4.766 0 0 0 -1.519,-2.183 3.269,3.269 0 0 0 -2.017,-0.805 2.194,2.194 0 0 0 -1.61,0.606 2.128,2.128 0 0 0 -0.614,1.585 1.983,1.983 0 0 0 0.5,1.328 6.638,6.638 0 0 0 2.329,1.331 12.142,12.142 0 0 1 2.673,1.383 3.892,3.892 0 0 1 1.237,1.554 4.365,4.365 0 0 1 0.4,1.745 3.482,3.482 0 0 1 -0.755,2.143 4.047,4.047 0 0 1 -1.894,1.399 6.12,6.12 0 0 1 -2.034,0.407 9.553,9.553 0 0 1 -3.885,-0.78 0.652,0.652 0 0 1 -0.183,-0.5 q 0,-0.149 -0.033,-0.481 -0.265,-2.24 -0.265,-2.655 a 0.331,0.331 0 0 1 0.083,-0.266 0.84,0.84 0 0 1 0.431,-0.066 z" />
</svg>
