<?xml version="1.0" encoding="UTF-8" standalone="no"?>
<!-- Created with Inkscape (http://www.inkscape.org/) -->

<svg
   xmlns:dc="http://purl.org/dc/elements/1.1/"
   xmlns:cc="http://creativecommons.org/ns#"
   xmlns:rdf="http://www.w3.org/1999/02/22-rdf-syntax-ns#"
   xmlns:svg="http://www.w3.org/2000/svg"
   xmlns="http://www.w3.org/2000/svg"
   xmlns:sodipodi="http://sodipodi.sourceforge.net/DTD/sodipodi-0.dtd"
   xmlns:inkscape="http://www.inkscape.org/namespaces/inkscape"
   width="100mm"
   height="100mm"
   viewBox="0 0 100 99.999998"
   version="1.1"
   id="svg8"
   inkscape:version="0.92.5 (2060ec1f9f, 2020-04-08)"
   sodipodi:docname="black-dragon.svg">
  <defs
     id="defs2" />
  <sodipodi:namedview
     id="base"
     pagecolor="#ffffff"
     bordercolor="#666666"
     borderopacity="1.0"
     inkscape:pageopacity="0.0"
     inkscape:pageshadow="2"
     inkscape:zoom="0.7"
     inkscape:cx="-111.66046"
     inkscape:cy="501.78911"
     inkscape:document-units="mm"
     inkscape:current-layer="layer1"
     showgrid="false"
     inkscape:window-width="1848"
     inkscape:window-height="1016"
     inkscape:window-x="72"
     inkscape:window-y="27"
     inkscape:window-maximized="1"
     fit-margin-top="0"
     fit-margin-left="0"
     fit-margin-right="0"
     fit-margin-bottom="0" />
  <metadata
     id="metadata5">
    <rdf:RDF>
      <cc:Work
         rdf:about="">
        <dc:format>image/svg+xml</dc:format>
        <dc:type
           rdf:resource="http://purl.org/dc/dcmitype/StillImage" />
        <dc:title></dc:title>
      </cc:Work>
    </rdf:RDF>
  </metadata>
  <g
     inkscape:label="Layer 1"
     inkscape:groupmode="layer"
     id="layer1"
     transform="translate(-19.082532,-141.09344)">
    <path
       style="fill:#000000;stroke:#000000;stroke-width:0.31231827;stroke-miterlimit:4;stroke-dasharray:none;stroke-opacity:1"
       d="m 87.141483,233.51171 c -0.0726,-0.22773 -0.273066,-1.07946 -0.445459,-1.89274 -0.419868,-1.98089 -1.108471,-4.03211 -1.896756,-5.6501 -2.284064,-4.6882 -7.941022,-9.40119 -15.817943,-13.17845 -1.434327,-0.6878 -7.71169,-3.47447 -9.198877,-4.08359 -1.765716,-0.7232 -7.046296,-3.41015 -9.732764,-4.95237 -2.812084,-1.61435 -4.319634,-2.6737 -6.677616,-4.6923 -0.829634,-0.71024 -1.549501,-1.27456 -1.599705,-1.25405 -0.05021,0.0205 -0.559119,0.55629 -1.130922,1.19066 -0.571799,0.63436 -1.071393,1.15339 -1.110205,1.15339 -0.03882,0 -0.404746,-1.26429 -0.813183,-2.80954 -1.077987,-4.07837 -1.568294,-5.70797 -1.716931,-5.70646 -0.07214,8.9e-4 -0.898798,0.37337 -1.837018,0.82807 -0.938218,0.45471 -1.774148,0.82674 -1.857625,0.82674 -0.0973,0 -0.129435,-0.0956 -0.08954,-0.26616 0.03424,-0.14639 0.328544,-1.46392 0.65403,-2.92784 1.161461,-5.22381 1.274675,-5.81029 1.131816,-5.86304 -0.0745,-0.0275 -1.103081,-0.0637 -2.28572,-0.0805 l -2.150264,-0.0305 1.072592,-1.53786 c 0.58992,-0.84581 1.815218,-2.585 2.722876,-3.86485 0.907661,-1.27985 1.657667,-2.36412 1.666683,-2.4095 0.009,-0.0454 -0.833265,-0.33191 -1.871732,-0.63676 -2.256216,-0.66231 -2.261353,-0.66484 -1.979791,-0.97728 0.16581,-0.18399 2.721945,-1.93284 6.917074,-4.73251 0.1674,-0.11171 -0.100409,-0.39384 -1.635538,-1.72297 -0.712703,-0.61706 -1.312035,-1.16444 -1.331852,-1.2164 -0.03998,-0.10483 0.228343,-0.16458 3.452287,-0.7688 3.48926,-0.65394 5.877638,-1.12682 5.923419,-1.17279 0.02297,-0.0231 -0.597965,-0.90141 -1.379924,-1.95182 -0.781952,-1.05041 -1.421734,-1.95412 -1.421734,-2.00826 0,-0.0541 0.225293,-0.0524 0.500654,0.004 0.662471,0.13538 6.685159,0.80518 8.061391,0.8965 l 1.081621,0.0718 -0.639866,-1.97386 c -0.351918,-1.08563 -0.639857,-2.03077 -0.639857,-2.10032 0,-0.21157 0.444593,-0.0434 4.437647,1.67869 2.107236,0.90879 3.95622,1.68382 4.10886,1.72229 0.257026,0.0648 0.273487,0.0407 0.222921,-0.32594 -0.206915,-1.50043 -0.39719,-3.22362 -0.360071,-3.26089 0.02436,-0.0244 1.46853,0.81942 3.209286,1.87529 3.604009,2.18605 4.402364,2.58524 6.688148,3.34418 1.667302,0.55359 1.955147,0.61929 1.955147,0.44633 0,-0.0536 -0.51108,-0.94526 -1.135732,-1.98146 -2.240142,-3.71606 -2.687971,-4.5228 -3.935115,-7.08902 -1.389896,-2.85998 -3.099789,-6.68071 -3.023908,-6.75689 0.0265,-0.0266 0.758175,0.8972 1.625881,2.05297 2.945197,3.92291 4.799482,6.17076 7.874091,9.5453 2.518038,2.76368 6.017865,6.33762 6.206199,6.33762 0.442008,0 0.0522,-0.68405 -1.56436,-2.74542 -0.620302,-0.79098 -1.826285,-2.71989 -3.12794,-5.00299 -1.03253,-1.81106 -1.895316,-3.65982 -3.229612,-6.92033 -0.887167,-2.16788 -1.004389,-2.25025 1.866976,1.31181 4.117279,5.10764 10.153314,11.94159 12.01249,13.60045 0.53877,0.48071 1.350655,1.22149 1.804194,1.64619 0.453539,0.4247 1.622111,1.47169 2.59684,2.32665 3.347234,2.93599 5.22567,5.21907 7.091235,8.61877 0.392728,0.71569 0.957849,1.71535 1.255834,2.22147 0.297976,0.50611 0.541781,0.95391 0.541781,0.99512 0,0.13494 1.653505,2.28756 2.485104,3.23523 0.44735,0.5098 0.81336,0.94607 0.81336,0.96948 0,0.0235 -0.33734,0.021 -0.74964,-0.005 -0.69722,-0.0446 -0.777046,-0.0233 -1.141563,0.30372 l -0.391928,0.35165 0.263315,0.69096 c 0.52233,1.37065 2.179166,3.5256 3.963546,5.15514 1.17055,1.06897 2.07678,1.74229 3.32236,2.46845 1.24126,0.72364 1.40323,0.96373 1.29117,1.91388 -0.22254,1.88691 -1.61955,4.18415 -3.60802,5.93304 -1.71332,1.50689 -6.054216,3.50481 -6.54473,3.01225 -0.0395,-0.0396 0.0875,-0.38896 0.282146,-0.77623 1.169206,-2.32588 1.127235,-3.81563 -0.177324,-6.29442 -0.289645,-0.55035 -0.827346,-1.42006 -1.194893,-1.93268 -0.822355,-1.14694 -2.824624,-3.28587 -3.417255,-3.65047 -0.240805,-0.14816 -0.707634,-0.48877 -1.03738,-0.75692 -0.329756,-0.26815 -1.628521,-1.16819 -2.886155,-2.00008 -2.926526,-1.93584 -5.140258,-3.60812 -6.135777,-4.63508 -0.957469,-0.9877 -1.155513,-1.23112 -2.103581,-2.5856 -1.910406,-2.72931 -4.252781,-5.18917 -6.771159,-7.11076 -1.836735,-1.40147 -2.663461,-1.9044 -4.946385,-3.00902 -2.463887,-1.19219 -3.14819,-1.45503 -5.092627,-1.95603 -2.168082,-0.55862 -3.463204,-0.65787 -6.79494,-0.52072 -2.917557,0.1201 -3.794751,0.27182 -5.842186,1.01043 -3.429594,1.23722 -5.922149,3.53623 -7.387562,6.81395 -0.836892,1.87187 -1.247076,4.6388 -0.979283,6.60573 0.531771,3.90576 3.586923,8.46172 8.279178,12.3462 4.120391,3.41106 7.866803,5.58243 16.344892,9.47324 3.509097,1.6104 5.819251,2.95591 8.478182,4.93798 3.651,2.72158 6.332111,5.46256 7.866271,8.04191 1.454937,2.44616 2.461777,4.65417 2.887085,6.33145 0.241604,0.95281 0.262895,1.29455 0.249175,3.99924 -0.008,1.62658 -0.0647,3.17034 -0.125393,3.43059 l -0.110392,0.47319 z m 7.156956,-51.31698 c 0,-0.052 -0.257384,-0.38477 -0.57196,-0.73934 -0.314576,-0.35456 -0.725414,-0.86167 -0.912968,-1.12691 -0.831436,-1.17575 -2.10705,-2.84248 -2.276273,-2.97417 -0.282076,-0.21951 -0.455109,-0.18095 -0.670713,0.14948 -0.162953,0.24973 -0.174154,0.37589 -0.0656,0.73958 0.187034,0.62688 1.455298,1.9677 2.921656,3.08879 1.148782,0.87828 1.5759,1.11207 1.5759,0.86257 z"
       id="path4758-0"
       inkscape:connector-curvature="0" />
  </g>
</svg>
