<?xml version="1.0" encoding="UTF-8" standalone="no"?>
<!-- Created with Inkscape (http://www.inkscape.org/) -->

<svg
   xmlns:dc="http://purl.org/dc/elements/1.1/"
   xmlns:cc="http://creativecommons.org/ns#"
   xmlns:rdf="http://www.w3.org/1999/02/22-rdf-syntax-ns#"
   xmlns:svg="http://www.w3.org/2000/svg"
   xmlns="http://www.w3.org/2000/svg"
   xmlns:sodipodi="http://sodipodi.sourceforge.net/DTD/sodipodi-0.dtd"
   xmlns:inkscape="http://www.inkscape.org/namespaces/inkscape"
   width="100mm"
   height="100mm"
   viewBox="0 0 100 99.999998"
   version="1.1"
   id="svg8"
   inkscape:version="0.92.5 (2060ec1f9f, 2020-04-08)"
   sodipodi:docname="white-dragon.svg">
  <defs
     id="defs2" />
  <sodipodi:namedview
     id="base"
     pagecolor="#ffffff"
     bordercolor="#666666"
     borderopacity="1.0"
     inkscape:pageopacity="0.0"
     inkscape:pageshadow="2"
     inkscape:zoom="1.4"
     inkscape:cx="155.19797"
     inkscape:cy="260.81812"
     inkscape:document-units="mm"
     inkscape:current-layer="layer1"
     showgrid="false"
     inkscape:window-width="1848"
     inkscape:window-height="1016"
     inkscape:window-x="72"
     inkscape:window-y="27"
     inkscape:window-maximized="1"
     fit-margin-top="0"
     fit-margin-left="0"
     fit-margin-right="0"
     fit-margin-bottom="0" />
  <metadata
     id="metadata5">
    <rdf:RDF>
      <cc:Work
         rdf:about="">
        <dc:format>image/svg+xml</dc:format>
        <dc:type
           rdf:resource="http://purl.org/dc/dcmitype/StillImage" />
        <dc:title></dc:title>
      </cc:Work>
    </rdf:RDF>
  </metadata>
  <g
     inkscape:label="Layer 1"
     inkscape:groupmode="layer"
     id="layer1"
     transform="translate(-22.809491,-143.31959)">
    <path
       style="fill:#ffffff;stroke:#000000;stroke-width:0.31241947;stroke-miterlimit:4;stroke-dasharray:none;stroke-opacity:1"
       d="m 90.901035,235.74354 c -0.07265,-0.22773 -0.27322,-1.07953 -0.445707,-1.8929 -0.420105,-1.98105 -1.109091,-4.03246 -1.897811,-5.6506 -2.285344,-4.68863 -7.945456,-9.40203 -15.826778,-13.17962 -1.435124,-0.68787 -7.715995,-3.47481 -9.20401,-4.08397 -1.766698,-0.72327 -7.050228,-3.41046 -9.738191,-4.95282 -2.813657,-1.6145 -4.32205,-2.67393 -6.681344,-4.69271 -0.830097,-0.7103 -1.550366,-1.27468 -1.600598,-1.25417 -0.05023,0.0205 -0.55943,0.55636 -1.131553,1.19077 -0.572118,0.63442 -1.071992,1.15348 -1.110825,1.15348 -0.03885,0 -0.404972,-1.2644 -0.813637,-2.80978 -1.078589,-4.07874 -1.56917,-5.70849 -1.71789,-5.70697 -0.07218,8.9e-4 -0.899299,0.3734 -1.838041,0.82814 -0.938743,0.45475 -1.775141,0.82682 -1.858665,0.82682 -0.09735,0 -0.129506,-0.0956 -0.08959,-0.26619 0.03426,-0.14641 0.328726,-1.46405 0.654394,-2.9281 1.162109,-5.22428 1.275386,-5.81082 1.132448,-5.86357 -0.07455,-0.0275 -1.103696,-0.0637 -2.286996,-0.0805 l -2.151463,-0.0304 1.07319,-1.538 c 0.590248,-0.84589 1.81623,-2.58522 2.724395,-3.86519 0.908169,-1.27997 1.658592,-2.36433 1.667614,-2.40972 0.009,-0.0454 -0.833729,-0.33195 -1.872776,-0.63683 -2.257475,-0.66237 -2.262616,-0.66491 -1.980896,-0.97736 0.165904,-0.18401 2.723465,-1.933 6.920934,-4.73293 0.167494,-0.11173 -0.100466,-0.39387 -1.636451,-1.72313 -0.7131,-0.61712 -1.312768,-1.16454 -1.332597,-1.21649 -0.04001,-0.10486 0.228472,-0.16461 3.454217,-0.76889 3.491201,-0.65399 5.880914,-1.12692 5.92672,-1.1729 0.02298,-0.0231 -0.598299,-0.90149 -1.380695,-1.95199 -0.782392,-1.0505 -1.422529,-1.9543 -1.422529,-2.00844 0,-0.0541 0.225423,-0.0523 0.500937,0.004 0.662837,0.13539 6.688887,0.80523 8.065893,0.89658 l 1.082223,0.0718 -0.640224,-1.97404 c -0.352119,-1.08573 -0.640219,-2.03096 -0.640219,-2.10051 0,-0.2116 0.444849,-0.0434 4.440126,1.67885 2.108411,0.90886 3.958428,1.68395 4.111153,1.72243 0.257173,0.0648 0.273638,0.0407 0.223049,-0.32597 -0.20703,-1.50057 -0.397412,-3.22391 -0.360272,-3.26118 0.02437,-0.0245 1.469349,0.8195 3.211074,1.87546 3.606026,2.18625 4.404819,2.58547 6.691879,3.34448 1.668236,0.55364 1.956241,0.61935 1.956241,0.44638 0,-0.0536 -0.511363,-0.94535 -1.136364,-1.98164 -2.241397,-3.71642 -2.689468,-4.52323 -3.937306,-7.08968 -1.390682,-2.86024 -3.101524,-6.6813 -3.025605,-6.7575 0.02655,-0.0266 0.758598,0.89728 1.626792,2.05316 2.946835,3.92326 4.802162,6.17132 7.878486,9.54616 2.519446,2.76394 6.02122,6.33817 6.20966,6.33817 0.442255,0 0.05227,-0.6841 -1.565227,-2.74566 -0.620649,-0.79103 -1.827311,-2.72012 -3.129688,-5.00343 -1.033105,-1.81122 -1.896375,-3.66015 -3.231419,-6.92097 -0.88766,-2.16806 -1.004951,-2.25043 1.868022,1.31195 4.119577,5.1081 10.158978,11.94266 12.019197,13.60167 0.539066,0.48075 1.351403,1.2216 1.805192,1.64634 0.453792,0.42473 1.62302,1.47181 2.598287,2.32686 3.349103,2.93625 5.228589,5.21953 7.095189,8.61955 0.39295,0.71576 0.95839,1.7155 1.25654,2.22165 0.29814,0.50617 0.54209,0.95402 0.54209,0.99522 0,0.13494 1.65442,2.28776 2.48647,3.23553 0.4476,0.50983 0.81383,0.94614 0.81383,0.96956 0,0.0234 -0.33753,0.021 -0.75006,-0.006 -0.69762,-0.0446 -0.77748,-0.0233 -1.1422,0.30375 l -0.39215,0.35169 0.26345,0.69101 c 0.52262,1.37079 2.18039,3.52593 3.96577,5.15561 1.1712,1.06908 2.07793,1.74245 3.32422,2.46868 1.24195,0.72373 1.40401,0.96381 1.29187,1.91406 -0.22265,1.88707 -1.62044,4.18452 -3.61002,5.93357 -1.71428,1.50702 -6.05759,3.50513 -6.54838,3.01252 -0.0395,-0.0397 0.0875,-0.38899 0.28231,-0.7763 1.16984,-2.32609 1.12785,-3.81597 -0.17743,-6.29498 -0.28981,-0.55041 -0.82781,-1.4202 -1.19555,-1.93286 -0.822828,-1.14705 -2.826206,-3.28617 -3.419164,-3.65081 -0.240945,-0.14816 -0.708031,-0.48882 -1.037965,-0.75699 -0.329939,-0.26817 -1.629431,-1.16828 -2.887764,-2.00026 -2.92816,-1.936 -5.143118,-3.60845 -6.139193,-4.6355 -0.958006,-0.98779 -1.156158,-1.23123 -2.104764,-2.58583 -1.911469,-2.72954 -4.255156,-5.18961 -6.774935,-7.11138 -1.837755,-1.4016 -2.664946,-1.90457 -4.94914,-3.00929 -2.465266,-1.19229 -3.149954,-1.45516 -5.095476,-1.9562 -2.169291,-0.55868 -3.465133,-0.65793 -6.798734,-0.52078 -2.919179,0.12012 -3.796867,0.27186 -5.845445,1.01052 -3.431509,1.23734 -5.92545,3.53654 -7.391686,6.81456 -0.837355,1.87206 -1.247772,4.63923 -0.979825,6.60634 0.532063,3.90611 3.588924,8.46248 8.283795,12.34731 4.122689,3.41137 7.871196,5.58293 16.35402,9.47408 3.511049,1.61055 5.822499,2.95619 8.482913,4.93843 3.653032,2.72182 6.335645,5.46305 7.870659,8.04263 1.455755,2.44638 2.46315,4.65459 2.888691,6.33202 0.241737,0.9529 0.263041,1.29468 0.249319,3.9996 -0.0082,1.62672 -0.06471,3.17063 -0.125461,3.43091 l -0.110459,0.47322 z m 7.160944,-51.32156 c 0,-0.052 -0.257526,-0.38483 -0.572279,-0.73941 -0.314752,-0.3546 -0.725817,-0.86175 -0.913473,-1.12702 -0.831902,-1.17587 -2.108229,-2.84273 -2.277539,-2.97443 -0.282238,-0.21954 -0.45537,-0.18097 -0.671092,0.14948 -0.163043,0.24977 -0.174246,0.37594 -0.06567,0.73965 0.187139,0.62694 1.456111,1.96788 2.923291,3.08908 1.149417,0.87835 1.57677,1.11215 1.57677,0.86265 z"
       id="path4758"
       inkscape:connector-curvature="0" />
  </g>
</svg>
