<?xml version="1.0" encoding="UTF-8" standalone="no"?>
<svg
   xmlns:dc="http://purl.org/dc/elements/1.1/"
   xmlns:cc="http://creativecommons.org/ns#"
   xmlns:rdf="http://www.w3.org/1999/02/22-rdf-syntax-ns#"
   xmlns:svg="http://www.w3.org/2000/svg"
   xmlns="http://www.w3.org/2000/svg"
   xmlns:sodipodi="http://sodipodi.sourceforge.net/DTD/sodipodi-0.dtd"
   xmlns:inkscape="http://www.inkscape.org/namespaces/inkscape"
   version="1.1"
   width="100"
   height="100"
   id="svg12"
   sodipodi:docname="BN.svg"
   inkscape:version="1.0 (4035a4fb49, 2020-05-01)">
  <metadata
     id="metadata18">
    <rdf:RDF>
      <cc:Work
         rdf:about="">
        <dc:format>image/svg+xml</dc:format>
        <dc:type
           rdf:resource="http://purl.org/dc/dcmitype/StillImage" />
        <dc:title />
      </cc:Work>
    </rdf:RDF>
  </metadata>
  <defs
     id="defs16" />
  <sodipodi:namedview
     inkscape:document-rotation="0"
     pagecolor="#ffffff"
     bordercolor="#666666"
     borderopacity="1"
     objecttolerance="10"
     gridtolerance="10"
     guidetolerance="10"
     inkscape:pageopacity="0"
     inkscape:pageshadow="2"
     inkscape:window-width="1842"
     inkscape:window-height="1051"
     id="namedview14"
     showgrid="false"
     inkscape:zoom="4.3791165"
     inkscape:cx="42.567208"
     inkscape:cy="60.839781"
     inkscape:window-x="69"
     inkscape:window-y="-9"
     inkscape:window-maximized="1"
     inkscape:current-layer="svg12" />
  <g
     style="stroke:#670000;stroke-opacity:1"
     id="g837">
    <path
       d="M 50.373805,19.05349 C 75.448432,21.44155 89.77679,38.157968 88.58276,88.307221 H 33.657387 c 0,-21.492537 23.880597,-15.522388 19.104478,-50.149253"
       style="fill:#ff2a00;fill-opacity:1;fill-rule:evenodd;stroke:#670000;stroke-width:3.58209;stroke-linecap:round;stroke-linejoin:round;stroke-miterlimit:4;stroke-dasharray:none;stroke-opacity:1"
       id="path2" />
    <path
       d="m 55.149924,38.157968 c 0.907463,6.949253 -13.253731,17.6 -19.104477,21.492537 -7.164179,4.776119 -6.734328,10.364179 -11.940299,9.552239 -2.488358,-2.244776 3.367165,-7.259702 0,-7.164179 -2.388059,0 0.453732,2.937313 -2.388059,4.776119 -2.38806,0 -9.559403,2.38806 -9.552239,-9.552239 0,-4.776119 14.328358,-28.656716 14.328358,-28.656716 0,0 4.513433,-4.537314 4.776119,-8.358209 -1.743283,-2.373731 -1.194029,-4.77612 -1.194029,-7.164179 2.388059,-2.38806 7.164179,5.970149 7.164179,5.970149 h 4.776119 c 0,0 1.862687,-4.757015 5.970149,-7.164179 2.38806,0 2.38806,7.164179 2.38806,7.164179"
       style="fill:#ff2a00;fill-opacity:1;fill-rule:evenodd;stroke:#670000;stroke-width:3.58209;stroke-linecap:round;stroke-linejoin:round;stroke-miterlimit:4;stroke-dasharray:none;stroke-opacity:1"
       id="path4" />
    <path
       d="m 20.523059,56.068415 a 1.19403,1.19403 0 1 1 -2.38806,0 1.19403,1.19403 0 1 1 2.38806,0 z"
       style="fill:#cb001e;fill-opacity:1;fill-rule:evenodd;stroke:#670000;stroke-width:3.58209;stroke-linecap:round;stroke-linejoin:round;stroke-miterlimit:4;stroke-dasharray:none;stroke-opacity:1"
       id="path6" />
    <path
       d="m 33.497388,32.784832 a 1.1940036,3.5820107 30.000727 1 1 -2.06806,-1.194029 1.1940036,3.5820107 30.000727 1 1 2.06806,1.194029 z"
       style="fill:#000000;fill-opacity:1;fill-rule:evenodd;stroke:#670000;stroke-width:3.58201;stroke-linecap:round;stroke-linejoin:round;stroke-miterlimit:4;stroke-dasharray:none;stroke-opacity:1"
       id="path8" />
  </g>
</svg>
