<?xml version="1.0" encoding="UTF-8" standalone="no"?>
<svg
   xmlns:dc="http://purl.org/dc/elements/1.1/"
   xmlns:cc="http://creativecommons.org/ns#"
   xmlns:rdf="http://www.w3.org/1999/02/22-rdf-syntax-ns#"
   xmlns:svg="http://www.w3.org/2000/svg"
   xmlns="http://www.w3.org/2000/svg"
   xmlns:sodipodi="http://sodipodi.sourceforge.net/DTD/sodipodi-0.dtd"
   xmlns:inkscape="http://www.inkscape.org/namespaces/inkscape"
   sodipodi:docname="sun tatto.svg"
   inkscape:version="1.0 (4035a4fb49, 2020-05-01)"
   id="svg8"
   version="1.1"
   viewBox="0 0 248.64537 226.16133"
   height="226.16133mm"
   width="248.64537mm">
  <defs
     id="defs2" />
  <sodipodi:namedview
     fit-margin-bottom="0"
     fit-margin-right="0"
     fit-margin-left="0"
     fit-margin-top="0"
     inkscape:window-maximized="1"
     inkscape:window-y="-9"
     inkscape:window-x="-9"
     inkscape:window-height="1001"
     inkscape:window-width="1920"
     showgrid="false"
     inkscape:document-rotation="0"
     inkscape:current-layer="layer1"
     inkscape:document-units="mm"
     inkscape:cy="364.35923"
     inkscape:cx="287.8284"
     inkscape:zoom="0.1767767"
     inkscape:pageshadow="2"
     inkscape:pageopacity="0.0"
     borderopacity="1.0"
     bordercolor="#666666"
     pagecolor="#ffffff"
     id="base" />
  <metadata
     id="metadata5">
    <rdf:RDF>
      <cc:Work
         rdf:about="">
        <dc:format>image/svg+xml</dc:format>
        <dc:type
           rdf:resource="http://purl.org/dc/dcmitype/StillImage" />
        <dc:title></dc:title>
      </cc:Work>
    </rdf:RDF>
  </metadata>
  <g
     transform="translate(-287.05003,-29.737046)"
     id="layer1"
     inkscape:groupmode="layer"
     inkscape:label="Layer 1">
    <path
       d="m 405.55777,29.737103 c -1.57596,0.0052 -3.05175,0.245763 -3.20393,0.642338 -0.19199,0.50033 0.98078,1.571314 1.9947,1.821594 1.4409,0.35569 2.7115,1.399753 3.26647,2.684073 0.56344,1.30389 0.56171,1.456851 -0.0661,5.34541 -0.17623,1.0914 -0.33138,2.282034 -0.34469,2.645834 -0.0133,0.363799 -0.11283,0.727536 -0.22169,0.808736 -0.31503,0.23492 -0.42787,4.011051 -0.1788,5.985681 0.36643,2.905191 0.6783,4.076317 1.71411,6.432166 l 0.9772,2.222087 -0.30179,2.131136 c -0.45186,3.191891 -1.40157,5.651587 -3.3383,8.645466 -1.1057,1.70924 -3.50454,4.259819 -7.43624,7.905979 -2.16242,2.00537 -2.67988,2.69538 -3.70055,4.9351 -0.51195,1.12339 -1.04899,1.94407 -1.27227,1.94407 -1.32787,0 -2.53731,-1.29801 -2.53731,-2.72283 0,-0.3478 -0.36717,-1.36632 -0.81546,-2.26343 -0.91297,-1.82701 -1.95028,-2.59402 -4.47776,-3.30988 -1.87424,-0.53084 -3.14863,-1.84328 -3.96255,-4.080885 -0.52116,-1.43261 -0.58714,-2.017212 -0.47956,-4.25142 0.11047,-2.293932 0.23358,-2.815619 1.07591,-4.556829 0.52315,-1.081439 0.85949,-2.059996 0.74724,-2.174544 -0.38279,-0.39065 -1.58652,0.31633 -2.02623,1.18959 -0.24128,0.4792 -0.8364,1.287987 -1.3224,1.797307 -1.92334,2.015641 -3.79959,8.151141 -3.81579,12.477791 -0.006,1.5621 0.87321,3.88039 1.96267,5.17436 0.46342,0.5504 0.99131,1.37023 1.17306,1.82159 0.30072,0.74686 0.24997,0.98487 -0.56483,2.64584 -0.49244,1.00383 -1.34072,2.53958 -1.88515,3.41271 -0.99673,1.59848 -1.02756,1.79348 -0.61857,3.92018 0.0331,0.17201 -0.11813,0.27104 -0.33641,0.22014 -0.21828,-0.0509 -1.28984,-0.27267 -2.38125,-0.493 -3.17796,-0.64156 -4.21463,-1.50157 -5.29684,-4.39404 -0.68049,-1.81877 -1.717,-2.74126 -4.62504,-4.11706 -2.44351,-1.15604 -3.58754,-1.46782 -6.87916,-1.87431 -4.18304,-0.51657 -4.01797,-0.45489 -5.68958,-2.12648 -1.80468,-1.80468 -2.21145,-2.88995 -2.07378,-5.53507 0.0779,-1.49606 0.0259,-1.74274 -0.3855,-1.82314 -0.69676,-0.13617 -1.14399,0.34395 -2.06758,2.22002 l -0.82579,1.67742 0.28267,2.3921 c 0.2462,2.08229 0.46451,2.7436 1.68466,5.10304 0.77094,1.49083 1.46147,2.77068 1.53427,2.84427 0.0728,0.0736 0.78689,0.84822 1.58698,1.72135 1.81778,1.98372 3.13648,3.01258 5.18728,4.04781 1.64308,0.82943 2.91268,2.04196 3.73001,3.56206 0.38443,0.71456 0.44742,1.42621 0.37982,4.296377 -0.10262,4.35757 -0.293,5.52154 -0.92139,5.64255 -0.86028,0.16568 -1.70993,-0.20291 -2.95744,-1.28261 -2.29951,-1.99022 -2.50566,-2.03373 -8.4212,-1.78491 -0.93395,0.0393 -1.15456,-0.10153 -2.64583,-1.68981 -1.35081,-1.43871 -1.9515,-1.858157 -3.53777,-2.472197 -1.68649,-0.65287 -2.13634,-0.72105 -3.83646,-0.58033 -2.54184,0.21039 -3.51193,0.51888 -5.10046,1.622117 -0.72761,0.50532 -1.76428,1.22005 -2.30374,1.58802 -1.83437,1.25128 -1.93175,2.62492 -0.1328,1.87327 0.57485,-0.24018 1.77163,-0.40256 2.96312,-0.40256 1.95945,0 2.02071,0.0203 3.13056,1.04335 0.62267,0.57395 1.52328,1.82141 2.00091,2.77192 0.98144,1.95311 3.35063,4.32282 4.56458,4.56561 0.41645,0.0833 0.75758,0.25242 0.75758,0.37569 0,0.12326 0.68461,0.42051 1.52135,0.66043 0.83675,0.23991 1.65947,0.54676 1.82883,0.68212 0.53128,0.42464 1.41232,2.55802 1.41232,3.42047 0,1.02849 1.48194,3.86123 2.30063,4.39766 0.3354,0.21975 0.60979,0.53841 0.60979,0.70797 0,0.16957 -0.66243,0.78088 -1.47175,1.35857 -0.80932,0.57768 -2.19308,1.58636 -3.07526,2.24121 -3.14706,2.33606 -2.76435,2.2192 -7.88376,2.40657 -4.56448,0.16706 -4.67967,0.18591 -7.56956,1.23869 -1.61404,0.58798 -4.05482,1.65741 -5.42396,2.37711 -3.46221,1.81991 -4.92199,2.25866 -7.10551,2.13527 -2.04769,-0.1157 -4.15369,-1.06424 -6.62854,-2.98535 -2.71035,-2.10391 -4.34663,-2.64516 -7.75301,-2.56366 -1.39186,0.0333 -2.35098,0.26465 -4.23334,1.02112 -3.80713,1.52997 -6.65432,3.50937 -8.28424,5.75882 -0.42021,0.57994 -1.06144,1.31486 -1.42524,1.6335 -0.36381,0.31863 -1.13771,1.51124 -1.71979,2.64996 -0.58209,1.13872 -1.12213,2.13017 -1.19993,2.20297 -0.0778,0.0728 -0.13729,0.3568 -0.13229,0.63148 0.011,0.60287 0.85875,1.21494 1.14102,0.82373 0.37134,-0.51466 1.79312,-1.35112 2.90318,-1.70791 0.61847,-0.19879 1.12448,-0.46863 1.12448,-0.59945 0,-0.1308 0.11639,-0.16561 0.2589,-0.0775 0.14251,0.0881 0.51911,0.0211 0.83664,-0.14883 0.68445,-0.3663 3.16935,-0.89902 5.38675,-1.15497 0.87313,-0.10078 1.93981,-0.24111 2.3704,-0.31161 0.45128,-0.0739 1.70326,0.16529 2.9564,0.56431 1.80724,0.57546 2.47464,0.95734 3.95532,2.26446 0.97964,0.86481 2.03024,1.92941 2.33474,2.36575 0.7783,1.1153 4.29507,3.93408 5.69164,4.56199 1.62379,0.73008 5.08368,0.9261 6.7939,0.38499 0.71357,-0.22576 1.89291,-0.49059 2.62051,-0.58859 0.72761,-0.098 2.01049,-0.41585 2.85099,-0.7059 1.15386,-0.39818 2.28803,-0.53592 4.63021,-0.56172 6.19697,-0.0683 7.52867,0.47521 11.98531,4.89065 1.66247,1.64708 3.37634,3.24305 3.80856,3.54656 l 0.786,0.5519 -1.0387,2.16214 c -1.40705,2.92814 -2.19935,3.48144 -4.98729,3.48144 -1.21389,0 -2.42878,0.16002 -2.98948,0.3943 -1.33961,0.55972 -3.16718,2.51458 -4.09071,4.37596 -0.51462,1.03722 -1.1635,1.86222 -1.865,2.37039 -1.48825,1.07809 -3.86191,1.93441 -4.71031,1.69913 -0.37168,-0.10305 -0.9786,-0.16335 -1.34875,-0.13385 -0.37015,0.0295 -0.97502,-0.0615 -1.34462,-0.20205 -0.37648,-0.14312 -0.83196,-0.15705 -1.03508,-0.0315 -0.72592,0.44863 0.25547,1.46529 2.61224,2.70577 4.31029,2.26873 6.30408,2.38418 9.91929,0.57413 l 2.07068,-1.03663 2.78329,1.45521 c 2.62273,1.37124 2.88788,1.4533 4.58835,1.4242 2.07153,-0.0354 2.72243,-0.35869 5.63273,-2.79621 1.93912,-1.62412 3.30369,-2.13426 4.05092,-1.51412 0.5518,0.45796 0.40028,3.42117 -0.24237,4.73821 -0.25646,0.5256 -1.37854,1.66971 -2.59467,2.64583 -4.0189,3.22575 -4.60125,3.78011 -5.75934,5.48236 -1.15417,1.69648 -1.15833,1.70956 -0.99012,3.468 0.0929,0.97081 0.24075,2.21192 0.32815,2.75798 0.28477,1.7801 -0.38076,3.32648 -2.20917,5.1356 -0.91195,0.90232 -2.27107,1.9211 -3.04271,2.28048 -1.7277,0.80467 -3.92265,1.51308 -4.6886,1.51308 -0.31746,0 -0.80522,0.12202 -1.08417,0.2713 -0.27894,0.1493 -1.46402,0.39133 -2.63343,0.53796 -2.01165,0.25224 -2.61316,0.19683 -4.82813,-0.44597 -0.29212,-0.0848 -0.46302,0.009 -0.46302,0.25476 0,0.66442 2.74597,2.02779 4.0845,2.02779 0.6502,0 1.45528,0.10485 1.78956,0.23306 0.33427,0.1282 1.40824,0.49722 2.38641,0.8201 1.89018,0.62393 1.64899,0.62737 8.67286,-0.13177 1.40033,-0.15134 3.77133,-1.00994 4.78782,-1.73375 0.39459,-0.28096 0.86572,-0.51056 1.04645,-0.51056 0.18072,0 0.88631,-0.50602 1.56838,-1.12448 0.68207,-0.61847 2.4735,-2.19604 3.98063,-3.50573 1.50712,-1.30969 2.99162,-2.61937 3.29903,-2.91041 1.15545,-1.09393 3.48633,-2.51739 4.73304,-2.89027 1.53154,-0.45806 6.34128,-0.8229 7.63984,-0.57929 l 0.91416,0.17157 -0.88367,2.17816 c -1.01543,2.50364 -1.11311,4.08678 -0.38033,6.14691 l 0.47025,1.32292 -1.78284,1.88619 c -3.15287,3.33573 -3.65875,6.25169 -1.70635,9.83609 0.53066,0.97424 1.23988,2.03252 1.57613,2.35179 0.33626,0.31926 0.82048,1.12869 1.07642,1.79886 0.37169,0.97326 0.57728,1.20276 1.02009,1.13946 0.49286,-0.0704 0.55848,-0.26992 0.59428,-1.79885 0.0221,-0.94588 0.0519,-2.03042 0.0661,-2.40967 0.043,-1.14409 1.71689,-3.0291 3.73724,-4.20905 1.01614,-0.59346 2.09723,-1.34131 2.40243,-1.66191 0.82972,-0.8716 1.72342,-3.01719 2.04484,-4.90823 0.15696,-0.92346 0.41641,-1.83629 0.57619,-2.02882 0.30122,-0.36295 2.52922,-0.77763 5.62188,-1.04645 2.17418,-0.18898 3.00969,-0.48551 3.98477,-1.41386 l 0.74672,-0.71055 0.9493,1.05833 c 0.52218,0.58208 1.9578,2.12243 3.19051,3.42356 1.23269,1.30113 2.43396,2.78941 2.66908,3.3073 0.34782,0.76603 0.4287,1.95339 0.4377,6.36601 l 0.0109,5.42396 0.98857,2.38125 c 1.09983,2.64893 1.65692,3.56218 4.1367,6.7815 0.93793,1.21764 1.9951,2.92397 2.3487,3.7915 0.91731,2.25056 0.72162,5.31272 -0.57465,9.00617 -1.32826,3.78444 -1.68919,6.25664 -1.2423,8.50491 0.54675,2.75071 1.38475,4.58542 3.19722,7.0006 0.91677,1.22165 1.84812,2.37039 2.06964,2.5523 0.96348,0.79114 1.08211,0.45054 0.92191,-2.64583 -0.14129,-2.731 -0.0965,-3.1517 0.5395,-5.09375 0.92904,-2.83701 1.88771,-4.28287 5.25911,-7.93336 1.56574,-1.69536 3.01645,-3.41114 3.2241,-3.81269 0.20765,-0.40155 0.77253,-1.00253 1.2547,-1.33532 0.70222,-0.48466 1.09842,-1.16495 1.99109,-3.41891 1.28525,-3.24519 1.78495,-5.77252 1.59939,-8.08426 -0.14175,-1.76591 -1.09429,-4.75374 -1.76578,-5.53817 -0.2305,-0.26926 -0.65723,-0.98091 -0.94827,-1.58181 -0.35104,-0.72477 -0.75022,-1.14277 -1.18597,-1.24127 -1.38177,-0.31247 -3.14361,-4.89184 -2.41381,-6.27404 0.13577,-0.25714 0.56922,-1.39685 0.96325,-2.53266 0.39402,-1.1358 1.21646,-2.74452 1.8278,-3.57497 1.1382,-1.54613 2.62093,-2.95848 3.10523,-2.95848 0.14931,0 1.02276,-0.7626 1.94097,-1.69447 l 1.66967,-1.69447 1.41179,1.88671 c 0.77672,1.03764 1.90254,2.24673 2.50166,2.68665 1.53494,1.12712 1.70825,1.49591 1.95854,4.16409 0.29789,3.17562 0.92655,4.86512 2.10943,5.66891 1.34597,0.91461 6.34538,2.97054 7.98659,3.28455 2.01622,0.38576 8.23882,-0.46286 8.36952,-1.14153 0.0758,-0.39375 -0.12779,-0.46044 -1.40353,-0.46044 -1.19187,0 -1.67015,-0.13606 -2.3766,-0.67489 -1.68983,-1.2889 -2.05922,-3.16389 -1.02578,-5.20589 0.20068,-0.39653 0.43983,-1.43668 0.53123,-2.31148 0.21097,-2.01845 -0.28942,-3.40527 -2.08256,-5.77433 -2.11205,-2.79041 -2.1885,-3.41698 -0.66352,-5.42757 0.75742,-0.99859 1.75665,-2.95941 2.1363,-4.192 0.11537,-0.37457 0.45799,-0.4162 2.46807,-0.29869 2.47473,0.14469 3.91326,0.68474 4.55321,1.70946 0.34672,0.55519 0.37012,0.64252 0.68006,2.50941 0.23962,1.44336 1.37375,3.20096 2.81998,4.37028 1.51265,1.22301 1.84513,1.37633 4.20285,1.93476 2.97851,0.70547 4.56745,1.67493 5.41982,3.30677 0.64629,1.2373 1.45935,4.05268 1.45935,5.05344 -10e-6,1.35726 0.41748,2.35491 0.98546,2.35438 0.41991,-4.2e-4 1.29908,-1.15014 2.15026,-2.81223 0.45795,-0.89425 1.36219,-7.26259 1.36219,-9.59321 0,-2.79579 -0.75327,-4.86874 -2.65462,-7.3055 -0.79483,-1.01865 -1.69512,-2.05465 -2.00039,-2.30219 -0.30528,-0.24755 -1.24473,-1.4761 -2.08773,-2.73006 l -1.53272,-2.27997 0.007,-3.31297 c 0.004,-1.84616 -0.14795,-3.97596 -0.34313,-4.81056 -0.22949,-0.98143 -0.26076,-1.58879 -0.0904,-1.76217 0.14295,-0.14552 1.35187,-0.26458 2.68614,-0.26458 h 2.42569 l 0.19275,1.11983 c 0.44035,2.55876 1.75002,3.88136 4.53719,4.58318 1.05155,0.26478 1.66408,0.22259 4.22765,-0.29094 1.88298,-0.37722 3.2848,-0.52842 3.7698,-0.40669 1.03483,0.25972 2.68242,2.03675 3.02617,3.26337 0.2843,1.01448 1.39071,2.07476 1.86138,1.78387 0.1536,-0.0949 0.26252,-1.74236 0.26252,-3.97702 0,-4.48068 -0.42161,-5.94062 -2.33474,-8.08788 -1.6917,-1.89873 -4.44749,-3.67626 -5.69888,-3.67626 -0.40222,0 -0.91267,-0.31152 -1.33583,-0.81442 -0.60516,-0.71922 -0.6854,-1.05054 -0.6904,-2.84427 -0.008,-2.79248 -1.14696,-5.99555 -2.47582,-6.96134 -0.41813,-0.30389 0.0878,-0.72311 2.38642,-1.9761 3.17191,-1.72901 4.84987,-2.19089 8.50904,-2.34353 8.27554,-0.34523 10.50174,-0.97525 12.91601,-3.65352 1.78924,-1.9849 5.45338,-3.85647 8.00106,-4.08709 1.62917,-0.14748 6.09418,0.5137 7.53494,1.11569 0.49105,0.20518 1.96797,0.45426 3.28197,0.55346 2.97579,0.22464 5.32012,-0.18591 7.71271,-1.35031 5.12503,-2.4942 10.88315,-8.01129 7.03626,-6.7417 -2.84466,0.93881 -10.19581,0.25228 -13.15113,-1.22835 -0.68689,-0.34413 -1.81799,-0.81588 -2.51355,-1.048 -0.69556,-0.23211 -1.8003,-0.85978 -2.45514,-1.39475 -1.89546,-1.54849 -5.37496,-3.71951 -6.91689,-4.31601 -2.06527,-0.79896 -2.99144,-0.98778 -5.68493,-1.15756 -2.85133,-0.17972 -5.24182,0.1938 -7.02541,1.09761 -0.6994,0.35441 -1.35933,0.67254 -1.46657,0.70693 -0.10726,0.0344 -0.49476,0.36792 -0.86145,0.74104 -0.94683,0.9635 -3.77284,1.92659 -5.18573,1.76734 -0.61986,-0.0699 -1.89898,-0.48775 -2.84221,-0.92914 -1.72559,-0.80751 -3.01868,-1.87233 -7.52047,-6.19239 -1.34539,-1.29108 -2.74437,-2.46126 -3.10885,-2.59984 -0.89959,-0.34202 -0.83602,-0.63711 0.32556,-1.50792 1.88417,-1.41253 2.52446,-2.06867 2.91248,-2.98431 0.21445,-0.50604 0.71993,-1.39902 1.12293,-1.98438 0.85822,-1.24659 1.94479,-1.63528 5.03071,-1.80041 2.53471,-0.13564 4.64959,-1.08626 5.90868,-2.65513 0.48854,-0.60873 1.39929,-2.41608 2.02365,-4.01681 0.97789,-2.50712 1.1392,-3.20372 1.1653,-5.02708 0.0278,-1.94547 -0.0135,-2.1232 -0.51315,-2.1947 -0.42129,-0.0603 -0.76321,0.29704 -1.51877,1.5875 -1.53846,2.62762 -2.59742,3.4592 -4.76405,3.74189 -1.15888,0.1512 -1.47004,0.0586 -3.55224,-1.05782 l -2.28151,-1.22318 -2.2965,0.14831 c -2.66758,0.17282 -3.76813,0.57304 -5.60689,2.03709 -0.73353,0.58404 -1.54534,1.06195 -1.80403,1.06195 -0.25869,0 -1.10691,-0.51834 -1.88464,-1.15187 -0.77773,-0.63353 -1.93562,-1.4184 -2.57297,-1.74356 -1.16278,-0.5932 -1.88847,-0.56979 -3.5357,0.11369 -0.39481,0.16383 -0.46175,0.0419 -0.45475,-0.82838 0.01,-1.20047 0.32334,-1.66743 1.57923,-2.35334 5.06362,-2.765507 5.81826,-3.428057 7.06779,-6.207367 0.29441,-0.65484 1.23547,-2.0099 2.09134,-3.01119 1.20611,-1.41101 2.10846,-2.13615 4.01113,-3.22358 2.99907,-1.71407 6.17886,-3.02565 7.33495,-3.02565 0.9256,0 1.6005,-0.56305 1.37614,-1.14773 -0.0911,-0.23739 -0.80095,-0.4126 -2.08049,-0.51367 -1.06803,-0.0844 -2.46279,-0.34029 -3.09955,-0.56895 -2.1657,-0.77774 -8.23882,-0.25027 -11.14506,0.96789 -1.65281,0.69278 -4.0598,2.37116 -5.95312,4.15117 -1.01865,0.95768 -2.11885,1.89033 -2.4443,2.07223 -0.40512,0.22644 -1.93641,0.33073 -4.85655,0.33073 -2.81079,0 -5.07331,0.14737 -6.63474,0.43304 -1.67305,0.3061 -2.4519,0.35103 -2.65048,0.15245 -0.1816,-0.18161 -0.21484,-0.9024 -0.0935,-2.03502 0.163,-1.52213 0.30112,-1.85683 1.04438,-2.53318 1.03721,-0.94384 2.00919,-2.80778 2.00919,-3.85351 0,-0.42158 -0.11926,-1.18101 -0.26459,-1.68775 -0.26606,-0.92769 0.065,-2.64687 0.50953,-2.64687 0.11223,0 0.77132,-0.56555 1.46503,-1.25677 2.2926,-2.28439 2.86405,-4.49135 2.0376,-7.871353 -0.28465,-1.164169 -0.7681,-2.692368 -1.07435,-3.395657 -0.30624,-0.703281 -0.55656,-1.483347 -0.55656,-1.733227 0,-0.572712 -0.50493,-1.088824 -1.06453,-1.088824 -0.3523,0 -0.42611,0.296616 -0.41031,1.653646 0.0156,1.343289 -0.11488,1.882283 -0.69712,2.872692 -0.96719,1.645232 -1.68424,2.051852 -3.96565,2.248442 -3.75077,0.323192 -5.82641,2.333351 -7.34787,7.115841 -0.42829,1.34628 -1.42072,2.67725 -2.33733,3.13521 -0.66775,0.33364 -2.6775,0.78329 -4.81469,1.07746 -2.16247,0.29764 -2.81862,0.51656 -3.52536,1.17564 -0.73911,0.68925 -0.75208,0.69134 -1.14567,0.16794 -1.14717,-1.52548 -1.45889,-2.54911 -1.32085,-4.331 0.0748,-0.9652 0.20272,-3.06064 0.28422,-4.65656 0.14874,-2.911079 0.34881,-3.864143 1.22473,-5.829103 1.33802,-3.001579 1.76357,-6.153301 1.19683,-8.863541 -0.35606,-1.70273 -0.69764,-2.40455 -2.40813,-4.94285 -1.51321,-2.24555 -2.42221,-3.292586 -3.77237,-4.346506 -3.60951,-2.81757 -3.82735,-3.168331 -3.92793,-6.321061 -0.10476,-3.28373 -0.32552,-4.439375 -1.16117,-6.076115 -1.30005,-2.54637 -3.12458,-4.498385 -5.48287,-5.866824 -1.96394,-1.13962 -2.26696,-1.265477 -4.1708,-1.728577 -0.75361,-0.183311 -1.7354,-0.264617 -2.68098,-0.261483 z m 4.44624,2.314587 c 0.15904,-0.01727 0.50739,0.111993 1.04232,0.388606 0.56869,0.29409 0.77307,0.572427 0.71416,0.971517 -0.0826,0.55942 -0.74414,1.0138 -0.74414,0.51108 0,-0.14649 -0.30797,-0.632824 -0.68471,-1.080554 -0.42406,-0.503966 -0.5321,-0.768449 -0.32763,-0.790649 z m -1.64589,0.752925 c 0.18045,-0.0318 0.60685,0.310668 1.06298,0.980302 1.48996,2.18735 1.95647,3.83616 2.40451,8.49974 0.23029,2.397059 0.3658,2.879843 1.15393,4.111893 1.16504,1.82125 2.43782,2.946308 5.13819,4.540808 2.7595,1.629411 4.08012,3.160781 5.70353,6.615101 2.19924,4.679629 2.18691,6.941515 -0.0739,13.360426 -1.67673,4.760578 -2.24999,7.722938 -2.06189,10.657228 0.18365,2.86488 0.48938,4.36678 1.16686,5.73609 l 0.555,1.12189 -1.36684,-0.17156 c -0.75164,-0.0942 -2.61699,-0.33939 -4.14497,-0.54519 -1.52796,-0.2058 -3.19482,-0.40657 -3.70417,-0.44597 -1.55195,-0.11995 -1.38608,-0.88758 1.21957,-5.64978 1.26737,-2.3163 2.5693,-4.5683 2.89336,-5.00487 0.32405,-0.43656 0.85794,-1.32953 1.18649,-1.98437 0.32856,-0.65485 0.97468,-1.66688 1.43557,-2.24896 1.27452,-1.609619 1.6456,-2.289246 2.24224,-4.106724 0.71118,-2.166351 0.71662,-3.174889 0.0186,-3.35742 -0.29105,-0.07611 -0.53615,-0.213723 -0.54416,-0.305922 -0.008,-0.09217 -0.11269,-1.477118 -0.23151,-3.07785 -0.19354,-2.607199 -0.32262,-3.130933 -1.24126,-5.027083 -0.77811,-1.60611 -1.16937,-2.137216 -1.62109,-2.201416 -0.32742,-0.04652 -0.59532,-0.01892 -0.59532,0.06098 0,0.07996 0.48021,1.349613 1.06661,2.821533 1.04503,2.622981 1.06625,2.74276 1.07745,6.036841 0.0171,5.031759 -0.39658,5.89411 -5.12062,10.676351 -1.41884,1.4363 -2.57969,2.71696 -2.57969,2.84582 0,0.12887 -0.59846,0.91828 -1.33015,1.75441 -0.73167,0.83614 -1.40406,1.82545 -1.49396,2.19832 -0.0899,0.37288 -0.3633,0.97565 -0.60772,1.33945 -0.45176,0.67243 -1.14017,2.24214 -1.09657,2.50011 0.0132,0.0779 -0.21263,0.56264 -0.50178,1.07745 -0.28914,0.51481 -0.52607,1.1553 -0.52607,1.42317 0,0.38811 -0.28211,0.5242 -1.38906,0.66869 -2.27619,0.2971 -3.1842,0.44337 -4.29948,0.69402 -1.74341,0.39183 -1.98427,0.33412 -1.98127,-0.47646 0.004,-1.11105 0.68795,-3.12696 1.62367,-4.78782 1.06449,-1.88942 0.97517,-1.78068 4.09123,-4.95835 3.17098,-3.23372 6.4523,-6.951346 6.45283,-7.310666 1.8e-4,-0.104082 0.32741,-0.580371 0.7276,-1.058852 1.83923,-2.199119 2.51642,-3.858905 2.66134,-6.523114 0.18796,-3.455442 -0.46275,-5.52575 -1.99419,-6.34535 -0.59336,-0.31756 -3.1385,-4.594021 -3.56051,-5.982582 -0.13416,-0.4414 -0.46474,-1.913391 -0.73484,-3.270601 -0.2701,-1.35721 -0.56766,-2.544282 -0.66146,-2.638082 -0.34315,-0.34315 -0.68591,0.633653 -0.53846,1.534273 0.57428,3.50766 0.72206,4.190813 1.06763,4.934583 0.21305,0.458561 0.38706,0.966464 0.38706,1.128614 0,0.16215 0.42809,0.93918 0.95084,1.72651 0.52278,0.78734 1.10674,1.885458 1.2976,2.440678 0.23478,0.682909 0.54488,1.056234 0.9586,1.153934 1.48276,0.35002 2.27982,3.739971 1.52652,6.492112 -0.5861,2.141299 -1.23579,3.360491 -3.11299,5.841502 -2.26162,2.989061 -4.42892,5.415371 -6.25078,6.999061 -1.62936,1.41632 -2.56662,2.58285 -2.88303,3.58789 -0.0988,0.31398 -0.33966,0.63235 -0.53537,0.70745 -0.9235,0.35438 -3.28116,6.26267 -2.49907,6.26267 0.12603,0 0.22893,0.22652 0.22893,0.50333 0,0.32662 -0.29226,0.60523 -0.83303,0.79375 -1.3315,0.46416 -1.36425,0.42353 -1.22473,-1.52653 0.15349,-2.14525 1.34213,-4.74862 2.91765,-6.38979 1.07182,-1.11648 1.23835,-1.58285 0.56483,-1.58285 -0.6962,0 -2.33437,2.0176 -3.53674,4.35633 -1.02304,1.98994 -1.11979,2.34733 -1.09399,4.04213 0.0261,1.7146 -0.0175,1.87167 -0.56534,2.01848 -1.30182,0.34889 -1.33653,0.29636 -1.13791,-1.71928 0.1022,-1.03714 0.2961,-2.17633 0.43098,-2.53111 0.13489,-0.35477 0.24546,-1.03736 0.24546,-1.5167 0,-1.61671 2.39385,-5.54767 4.10104,-6.73447 1.76189,-1.22483 6.08907,-5.69739 7.45433,-7.70496 2.82873,-4.15952 4.87115,-11.416396 3.68866,-13.104626 -0.74292,-1.06068 -1.83258,-4.028378 -2.32905,-6.342249 -0.55247,-2.57487 -0.51338,-4.679412 0.13591,-7.276042 0.20013,-0.800359 0.37237,-1.554597 0.38137,-1.675867 0.0515,-0.660179 0.32807,-0.354322 0.59376,0.656808 0.16637,0.63315 0.6415,2.282443 1.05626,3.664892 0.41478,1.38244 0.94985,3.216007 1.18908,4.074687 0.37227,1.33619 0.67539,1.784855 2.10168,3.113506 2.81406,2.62144 4.22569,6.021917 4.21059,10.142016 -0.0141,3.852442 -0.77932,5.69206 -3.48402,8.37675 -0.53677,0.532785 -1.39237,1.448375 -1.90169,2.034495 -0.50933,0.58613 -1.37855,1.39076 -1.93115,1.78801 -0.97596,0.70159 -1.26232,1.64579 -0.56844,1.87379 0.25958,0.0853 3.25024,-2.80944 6.06526,-5.870962 1.83548,-1.99621 2.71937,-4.019354 3.10214,-7.098273 0.28562,-2.297441 0.26974,-2.803949 -0.13591,-4.350639 -0.79372,-3.026161 -2.14296,-5.454919 -4.16874,-7.504969 -1.0141,-1.026231 -1.89964,-2.173225 -1.98024,-2.564185 -0.2189,-1.06192 -1.15134,-4.332354 -2.00556,-7.034713 -0.41742,-1.32057 -0.76075,-2.937542 -0.76275,-3.593062 -0.002,-0.65553 -0.19243,-1.727434 -0.42271,-2.382284 -0.23027,-0.65484 -0.47192,-1.474564 -0.53692,-1.821594 -0.0651,-0.34703 -0.29441,-0.972102 -0.51004,-1.389063 -0.25844,-0.499773 -0.26696,-0.750931 -0.12661,-0.775663 z m 4.72994,1.255221 c 0.24115,-0.03307 0.67611,0.351678 1.28054,1.144116 0.55743,0.73077 1.34321,1.763443 1.74615,2.294434 0.99754,1.31454 1.54995,3.375932 1.48725,5.551082 -0.0994,3.44669 0.96559,5.527812 3.91449,7.648112 1.69903,1.221621 4.34766,4.466592 5.51801,6.760312 0.3424,0.67105 0.76002,2.009782 0.92811,2.975011 0.36062,2.07086 -0.0764,4.533318 -1.39268,7.843449 -0.78373,1.970881 -1.4777,5.638581 -1.71463,9.062501 -0.18492,2.67235 0.59622,4.92615 2.61018,7.52925 1.79597,2.32136 2.19033,3.01149 2.42466,4.24419 0.19458,1.02365 0.17925,1.02521 -2.86649,0.30489 -1.16416,-0.27532 -2.40795,-0.56918 -2.76418,-0.65268 -0.50193,-0.1177 -0.56329,-0.20413 -0.27233,-0.38395 0.31668,-0.1957 0.32231,-0.41042 0.0357,-1.37098 -1.24317,-4.16602 -1.34753,-4.93562 -1.08055,-7.97781 0.30339,-3.45749 0.4332,-3.9858 2.00556,-8.189159 2.38469,-6.374919 2.4061,-9.288277 0.10336,-13.945919 -1.75134,-3.54234 -2.79411,-4.713475 -6.2296,-6.997506 -4.66435,-3.10102 -5.18822,-3.886863 -5.79499,-8.690942 -0.23529,-1.86309 -0.65572,-4.035986 -0.93431,-4.828646 -0.6833,-1.94407 -0.0493,-1.986487 0.77153,-0.05168 0.32409,0.76399 0.74716,1.746253 0.94051,2.182813 0.19336,0.43657 0.47062,1.944417 0.61598,3.351216 0.29385,2.84412 0.66904,3.784287 1.93477,4.849317 1.14087,0.95999 1.27927,0.415615 0.23099,-0.907955 -0.75803,-0.95708 -0.84536,-1.279053 -1.08262,-3.982703 -0.28051,-3.1967 -0.65215,-4.37374 -1.85312,-5.87406 -0.43001,-0.53717 -0.78186,-1.155329 -0.78186,-1.373559 0,-0.322872 0.0749,-0.493308 0.21962,-0.513147 z m -0.94671,25.772072 c -0.38763,0.02434 -0.48337,0.658439 -0.59945,2.848403 -0.17047,3.21628 -1.05717,5.235131 -2.9068,6.6182 -0.65484,0.489651 -1.22889,1.055182 -1.27589,1.256771 -0.17511,0.75021 1.07505,0.153572 2.82412,-1.348237 0.8363,-0.718079 2.02196,-3.125483 2.38745,-4.846733 0.44411,-2.09147 0.39015,-4.267525 -0.11059,-4.459676 -0.12439,-0.04773 -0.22939,-0.07435 -0.31884,-0.06873 z m -32.27607,5.533511 c 0.24238,-1e-4 0.30318,0.623263 0.23358,2.417424 -0.0825,2.125419 -0.009,2.634832 0.61237,4.21731 1.19225,3.03884 1.88053,3.76611 4.49998,4.75475 1.61558,0.60976 2.46542,1.09676 2.93161,1.68 0.36114,0.45179 0.78188,0.97359 0.93482,1.15962 0.15291,0.18604 0.40898,1.07901 0.56896,1.98438 0.33822,1.91396 0.92505,2.69734 2.54816,3.40134 1.14962,0.49863 1.15346,0.50467 0.99943,1.62161 -0.085,0.61666 -0.23295,1.86331 -0.32815,2.77037 -0.0953,0.90705 -0.30687,1.74578 -0.47025,1.86397 -0.3477,0.25151 -2.69407,1.17758 -4.39819,1.73581 -1.1524,0.37751 -4.23636,2.12097 -5.52575,3.12384 -0.81099,0.63078 -1.09917,0.61272 -1.76786,-0.10955 -0.82389,-0.8899 -1.63624,-1.49362 -2.67839,-1.99058 l -0.93947,-0.44804 0.16691,-1.7973 c 0.12077,-1.29938 0.36485,-2.10651 0.88057,-2.91249 1.21726,-1.9024 2.19108,-4.16527 2.19108,-5.09012 0,-1.23381 -0.35896,-2.05276 -1.41283,-3.221 -1.10277,-1.22244 -1.76579,-2.72234 -1.90635,-4.31291 -0.23755,-2.6882 1.91339,-10.848174 2.85977,-10.848434 z m 72.79556,1.976623 c 0.0614,0.0082 0.11866,0.07658 0.18397,0.19327 0.37397,0.66824 0.79216,2.760245 0.95136,4.760431 0.16832,2.11503 -0.10318,2.62338 -2.76314,5.17488 l -1.72444,1.65416 0.185,2.5213 c 0.16858,2.29667 0.135,2.60276 -0.3793,3.43493 -0.31055,0.50247 -0.84954,1.13783 -1.19786,1.4118 -0.70436,0.55406 -1.18863,2.06998 -1.36839,4.28553 -0.11276,1.38948 -0.181,1.50942 -1.279,2.24895 -0.63792,0.42966 -1.29741,1.10877 -1.46606,1.50895 -0.16867,0.40019 -0.44139,0.70952 -0.60564,0.68782 -0.16424,-0.0217 -1.30988,-0.55136 -2.5461,-1.17719 -1.23624,-0.62582 -3.78053,-1.64982 -5.65392,-2.27532 -3.68413,-1.23004 -3.87263,-1.38938 -3.87263,-3.27783 0,-0.83485 -1.03162,-2.85397 -1.70222,-3.33158 -0.15678,-0.11165 -0.13795,-0.42965 0.0496,-0.84129 0.37833,-0.83035 2.4017,-1.75412 3.86953,-1.76682 1.7456,-0.0151 4.08498,-0.68451 5.10149,-1.45986 1.16536,-0.88886 2.35633,-2.72946 2.59726,-4.01371 0.27252,-1.45271 1.41354,-3.55922 2.33216,-4.30619 1.12069,-0.9113 2.19583,-1.279167 3.80855,-1.302768 2.44397,-0.03586 3.94862,-1.018082 4.89531,-3.195153 0.29603,-0.680802 0.44948,-0.952363 0.58446,-0.93431 z m -32.78818,4.178557 c 0.0179,-0.0038 0.031,-0.0016 0.0393,0.0067 0.13864,0.138654 -1.88134,3.248904 -2.26343,3.485054 -0.50102,0.30964 -1.93454,2.66097 -3.21944,5.2803 -0.71983,1.46744 -1.60037,3.20383 -1.95647,3.85868 -0.35609,0.65484 -0.65074,1.57758 -0.65474,2.05052 -0.005,0.5496 -0.13905,0.8599 -0.37156,0.8599 -0.2001,0 -0.75399,0.0777 -1.23093,0.17311 l -0.86713,0.17363 0.14004,-1.04179 c 0.1322,-0.98572 0.49313,-1.91085 1.94872,-4.9935 0.73217,-1.55056 3.20804,-4.67939 5.34696,-6.75721 0.82977,-0.80606 1.84606,-1.85784 2.25826,-2.33732 0.36068,-0.41955 0.70545,-0.73125 0.83044,-0.758091 z m -72.59402,5.242574 c 0.13062,-0.0147 0.25081,0.196 0.27751,0.6413 0.0218,0.36381 0.0515,0.80548 0.0661,0.98186 0.0146,0.17636 0.35805,0.68238 0.76326,1.12448 0.40521,0.44209 0.99218,1.17547 1.30432,1.62935 0.31214,0.45387 1.05201,1.09146 1.64434,1.41697 0.59233,0.32551 1.40769,1.02568 1.81178,1.55598 0.47718,0.62624 1.53884,1.3816 3.02875,2.15491 1.64765,0.85519 2.43699,1.43633 2.80241,2.06292 0.27982,0.47979 0.45104,0.93027 0.38034,1.00097 -0.0707,0.0707 -0.65036,-0.30836 -1.28829,-0.84181 -1.17828,-0.98529 -1.80936,-1.31641 -3.93774,-2.06602 -0.65483,-0.23062 -1.57196,-0.65252 -2.03761,-0.93741 -1.07085,-0.65517 -3.11698,-3.19602 -3.90983,-4.855 -0.33399,-0.69885 -0.71053,-1.25747 -0.83613,-1.24127 -0.3117,0.0403 -0.53847,-1.02595 -0.40773,-1.91668 0.0669,-0.45588 0.20786,-0.6958 0.33848,-0.71055 z m 71.90414,1.81436 c -0.737,-0.0636 -1.80632,2.59034 -2.00711,5.20743 -0.12876,1.67835 -0.0833,1.94402 0.42013,2.4474 0.6016,0.60159 0.80717,0.65815 1.46916,0.40411 0.59686,-0.22904 0.51819,-0.50256 -0.2434,-0.84956 -0.56465,-0.25728 -0.66146,-0.47775 -0.66146,-1.50689 0,-0.66305 0.31487,-2.15687 0.69919,-3.31969 0.38433,-1.16283 0.62753,-2.18573 0.54053,-2.27273 -0.0678,-0.0678 -0.1408,-0.10349 -0.21704,-0.11007 z m -12.36255,1.67948 c -0.56826,-0.0627 -1.54111,0.8528 -2.16524,2.06964 -0.56993,1.11115 -0.92075,3.35238 -0.67697,4.32377 0.31883,1.2702 0.82445,0.76868 0.85215,-0.84543 0.0308,-1.79628 0.51245,-3.05166 1.68155,-4.38319 0.72415,-0.82475 0.78698,-0.99679 0.41651,-1.13895 -0.0341,-0.0131 -0.0701,-0.0217 -0.108,-0.0258 z m -52.05884,3.25149 c 0.1723,-0.002 0.38081,0.009 0.62632,0.032 3.10629,0.29223 5.28846,0.89417 7.70444,2.12545 2.55715,1.30324 3.23697,2.02536 3.5972,3.82199 0.23355,1.16489 1.76391,2.91152 3.16156,3.60805 0.71496,0.35631 2.32231,0.80276 3.57187,0.99167 2.63256,0.39799 4.86612,1.31665 5.92781,2.43862 l 0.74517,0.78754 -0.632,0.49661 c -0.34753,0.2729 -1.07748,0.73422 -1.62212,1.02526 -0.90991,0.48618 -1.01003,0.49346 -1.23714,0.0904 -0.7491,-1.32929 -2.46875,-3.10773 -3.73931,-3.86695 -1.13076,-0.67569 -1.85052,-0.8983 -3.27835,-1.01389 -2.93922,-0.23794 -3.15685,-0.38765 -4.52375,-3.12023 -0.66256,-1.32453 -1.73609,-3.03435 -2.3859,-3.79925 -1.3615,-1.60265 -3.39982,-2.93468 -3.83078,-2.50372 -0.38937,0.38937 -0.0783,0.7769 1.10846,1.38235 1.28025,0.65313 2.0009,1.60549 3.52175,4.65242 0.6602,1.32267 1.50359,2.76503 1.87379,3.20498 0.75795,0.90078 2.63864,1.5539 3.8039,1.32085 0.44181,-0.0884 1.16472,0.0424 1.78904,0.32401 1.16343,0.52479 3.515,2.54659 4.38785,3.77238 l 0.56585,0.794777 -0.54518,0.54519 c -0.49868,0.49868 -0.62053,0.51442 -1.42421,0.18293 -1.20397,-0.49659 -3.12777,-2.310387 -3.57187,-3.367227 -0.33712,-0.80226 -0.99828,-1.34577 -1.28623,-1.05782 -0.0661,0.0661 0.0694,0.67539 0.30076,1.35444 0.48182,1.41408 2.2558,3.148337 3.71295,3.629227 0.7446,0.24574 0.85795,0.37162 0.60668,0.67438 -0.71022,0.85576 -3.26067,0.13292 -4.18424,-1.18597 -0.26594,-0.37977 -0.68877,-1.317287 -0.93999,-2.083597 -0.40454,-1.23397 -0.7481,-1.63713 -3.00085,-3.52433 -2.4807,-2.07816 -2.55353,-2.17199 -2.96003,-3.78685 -0.66999,-2.66152 -2.46145,-4.47164 -6.16707,-6.23217 -2.29989,-1.09269 -2.88246,-1.70217 -1.67638,-1.71359 z m 123.50564,0.81855 c 1.09333,0.003 3.39307,0.37752 3.39307,0.62322 0,0.10541 -0.45548,0.26446 -1.01234,0.35346 -0.84947,0.13584 -5.6868,2.19319 -7.25589,3.08612 -0.31777,0.18087 -0.61803,0.16689 -0.95808,-0.0455 -0.53672,-0.33519 -0.95116,-0.0575 -2.82411,1.89239 -1.1971,1.24629 -1.06064,1.12295 -3.24063,2.91351 -3.01285,2.47467 -3.60349,2.70373 -7.5954,2.94556 -3.29887,0.19985 -3.52846,0.25253 -5.61878,1.28674 -1.19871,0.59308 -2.30423,1.31139 -2.4567,1.59629 -0.15248,0.2849 -0.42371,0.51831 -0.60255,0.51831 -0.56057,0 -2.02795,-1.17027 -2.03295,-1.62109 -0.006,-0.60264 2.17481,-1.48522 4.53461,-1.83503 1.06888,-0.15844 2.56142,-0.41578 3.31711,-0.57154 0.75568,-0.15574 1.97609,-0.21174 2.71198,-0.12454 1.07782,0.12766 1.3379,0.0817 1.3379,-0.23461 0,-0.216 -0.20835,-0.47261 -0.46302,-0.57051 -0.39183,-0.15059 -0.36131,-0.20633 0.19844,-0.36225 0.36381,-0.10133 1.31477,-0.19582 2.11305,-0.21032 1.94737,-0.0354 4.07253,-1.10543 5.10873,-2.57245 1.68668,-2.38793 7.58242,-5.73692 10.04021,-5.70302 0.98861,0.0136 1.37224,-0.48231 0.69608,-0.9002 -0.20859,-0.12894 -0.18201,-0.24971 0.0884,-0.40101 0.0807,-0.0452 0.26859,-0.0642 0.5209,-0.0636 z m -129.29547,0.0202 c 0.094,-0.018 0.38003,0.25607 0.97462,0.89039 1.29978,1.38658 2.03874,1.8157 4.49792,2.61018 1.3079,0.42252 2.14027,0.92306 3.33933,2.00814 1.43442,1.29808 1.65492,1.64056 2.16421,3.36052 0.31188,1.05329 0.80519,2.33184 1.09606,2.84117 1.41413,2.4763 1.60675,3.1888 1.82934,6.767547 0.23066,3.70856 0.34802,4.03259 2.49546,6.89311 0.18291,0.24365 0.0348,0.57478 -0.51263,1.14619 -0.42333,0.44185 -0.91544,0.80356 -1.094,0.80356 -0.46412,0 -2.37285,-4.12935 -2.75125,-5.95209 -0.21763,-1.04827 -0.25981,-2.61002 -0.13229,-4.90254 0.1698,-3.052867 0.137,-3.477117 -0.35295,-4.584727 -0.91982,-2.07942 -1.76358,-2.92412 -4.29121,-4.29431 -1.3196,-0.71532 -2.65994,-1.59222 -2.97863,-1.94872 l -0.57981,-0.64803 0.77101,0.4837 c 1.87721,1.17874 2.48209,1.44407 3.69487,1.62057 1.81565,0.26424 1.52703,-0.30315 -0.55191,-1.08469 -0.89186,-0.33528 -1.92937,-0.811 -2.30528,-1.0573 -0.40937,-0.26823 -0.967,-0.39364 -1.39062,-0.31264 -0.75929,0.14515 -0.81709,0.0959 -2.69905,-2.32234 -0.56624,-0.7276 -1.11077,-1.62056 -1.21027,-1.98437 -0.0565,-0.20656 -0.0693,-0.32254 -0.0129,-0.33332 z m 126.7964,0.11627 c 0.33186,4.3e-4 0.25163,0.0966 -0.045,0.33435 -0.28248,0.22644 -0.75873,0.41175 -1.05833,0.41186 -0.72847,2.8e-4 -3.63791,1.38912 -5.43998,2.59674 -0.80036,0.53635 -2.10344,1.66881 -2.89595,2.51716 -2.26028,2.41949 -2.90758,2.65661 -7.1546,2.61741 -5.48263,-0.0506 -8.16701,0.27914 -10.26501,1.26091 -0.97268,0.45518 -1.94961,0.99078 -2.17041,1.19062 -0.75846,0.68639 -1.75972,0.92533 -2.281,0.54416 -0.42403,-0.31007 -0.43571,-0.40552 -0.0977,-0.81287 1.05217,-1.26778 3.79015,-2.27533 7.13754,-2.62672 0.80035,-0.084 3.43504,-0.20028 5.85443,-0.25838 5.12078,-0.12305 5.6347,-0.29415 7.77213,-2.58537 1.35743,-1.45507 5.08362,-3.896 6.95513,-4.55631 0.57765,-0.2038 1.7491,-0.44694 2.60346,-0.54054 0.53825,-0.059 0.88609,-0.0933 1.08521,-0.093 z m 1.86603,3.03393 c 0.0905,0.018 -0.22469,0.26507 -0.97048,0.73587 -2.03092,1.28206 -4.87257,4.60026 -6.24716,7.29516 -0.54589,1.07027 -1.57781,2.36043 -2.2872,2.85926 -0.76733,0.53957 -0.63763,-0.19435 0.19275,-1.08986 0.80627,-0.86953 0.7112,-1.72011 -0.13332,-1.19269 -0.28556,0.17833 -0.66104,0.58938 -0.83458,0.91364 -0.33763,0.63088 -2.55644,1.92963 -5.14077,3.009117 -3.10846,1.29842 -3.15911,1.36004 -3.43907,4.19509 -0.1802,1.82467 -0.16247,1.93142 0.28216,1.68259 0.48496,-0.27139 1.16192,-2.10132 1.16892,-3.16157 0.004,-0.60486 0.7085,-1.19412 1.82831,-1.52962 0.57269,-0.17158 0.61596,-0.12979 0.44338,0.43512 -0.10509,0.34399 -0.28947,1.6679 -0.40928,2.94194 -0.18157,1.93104 -0.35619,2.53264 -1.05058,3.61476 -0.45814,0.71395 -0.98742,1.35697 -1.17615,1.42937 -0.20073,0.077 -0.93682,-0.63552 -1.77354,-1.71721 -2.37961,-3.07622 -2.62103,-3.44939 -2.62103,-4.05556 0,-0.8763 1.08221,-2.31394 2.19057,-2.91042 1.16785,-0.62849 1.28333,-1.190617 0.24443,-1.190617 -0.50504,0 -1.09388,0.339597 -1.85208,1.068147 -0.6114,0.58749 -1.11208,1.1747 -1.11208,1.30535 0,0.13064 -0.11185,0.53178 -0.24857,0.89141 -0.24761,0.65126 -0.25554,0.64777 -1.98437,-0.94723 -0.95468,-0.88077 -1.73581,-1.75141 -1.73581,-1.93425 0,-0.460327 2.52632,-2.090527 3.96875,-2.561077 0.72722,-0.23723 2.37086,-0.40258 4.223,-0.42478 2.68461,-0.0321 3.19355,-0.1146 4.4359,-0.72243 1.5108,-0.73917 4.23158,-2.91837 6.17172,-4.94337 0.66226,-0.69122 1.295,-1.25677 1.40663,-1.25677 0.81587,0 -3.90848,4.86119 -6.04666,6.22184 -1.65572,1.05363 -2.77442,1.29899 -5.97845,1.31 -2.47193,0.008 -2.57179,0.033 -4.00234,0.98185 -1.42539,0.94546 -1.92206,1.826667 -1.5906,2.821017 0.18718,0.56153 0.85163,0.32395 0.85163,-0.30438 0,-0.33599 0.14881,-0.80331 0.33073,-1.0387 0.57722,-0.746977 2.5225,-1.580317 3.57084,-1.529617 3.28161,0.15859 5.52514,-0.32574 7.86774,-1.6986 1.17005,-0.68569 4.28994,-3.78883 6.4673,-6.43269 0.74903,-0.9095 1.50651,-1.65526 1.6831,-1.65726 0.17661,-0.002 1.00552,-0.35076 1.84227,-0.77515 0.87696,-0.44474 1.37351,-0.65564 1.46399,-0.63768 z m -66.29569,0.77308 c 0.75233,-0.001 1.55785,0.0393 2.59881,0.11369 2.82224,0.20153 4.7914,0.45016 7.53029,0.95033 4.35917,0.79606 8.80368,1.83971 10.04486,2.35902 0.44173,0.18483 1.39837,0.51778 2.12597,0.73949 5.30142,1.61546 12.22786,5.17936 15.21354,7.827947 0.50931,0.45182 1.56853,1.38711 2.35334,2.07894 4.13262,3.64302 6.09655,5.93002 10.28517,11.97395 2.33223,3.36527 3.71766,6.14172 4.81882,9.65729 0.45579,1.45521 1.04825,3.24114 1.31672,3.96875 0.75579,2.04823 1.02589,3.50983 1.10019,5.95312 0.0425,1.39713 -0.0539,2.47445 -0.25476,2.84428 -0.22068,0.40636 -0.23183,0.59531 -0.0357,0.59531 0.15807,0 0.4599,0.41261 0.67076,0.91726 0.59668,1.42808 0.4851,5.65347 -0.26407,10.0061 -0.68843,3.99969 -0.91783,4.71263 -2.54868,7.91321 -0.57046,1.11954 -1.03766,2.32132 -1.03766,2.67116 0,0.34984 -0.62677,1.63651 -1.3932,2.85926 -0.76641,1.22276 -1.72214,2.7861 -2.1239,3.47369 -0.40175,0.68759 -1.06617,1.58056 -1.47639,1.98437 -1.12108,1.10352 -4.32214,4.62451 -4.95733,5.4529 -1.23843,1.61507 -6.22134,6.52834 -7.03678,6.93859 -0.47946,0.24121 -1.35459,0.90417 -1.9451,1.4733 -1.4105,1.35941 -5.48323,3.56656 -8.71626,4.72374 -6.49246,2.32378 -8.81658,2.98693 -10.91406,3.11402 -1.20054,0.0727 -2.18282,0.22249 -2.18282,0.3328 0,0.11031 -0.2679,0.2644 -0.59531,0.3421 -0.32742,0.0777 -1.25016,0.34351 -2.05052,0.59066 -1.16173,0.35874 -2.61993,0.45642 -7.2316,0.48472 -3.17715,0.0195 -5.80989,0.003 -5.85029,-0.0377 -0.0403,-0.0403 -1.90545,-0.31312 -4.14496,-0.60617 -2.23953,-0.29305 -4.54001,-0.6574 -5.11235,-0.80976 -0.57233,-0.15236 -1.4653,-0.31512 -1.98438,-0.36122 -1.79637,-0.15964 -4.38668,-0.61567 -5.12837,-0.90331 -0.40966,-0.15887 -0.98569,-0.28887 -1.28002,-0.28887 -0.85911,0 -6.81448,-2.62037 -8.69095,-3.82405 -2.00449,-1.28582 -2.42435,-1.56687 -4.86482,-3.252 -1.0024,-0.69216 -2.29115,-1.54035 -2.8639,-1.88464 -0.57274,-0.34428 -1.17105,-0.90983 -1.32912,-1.25677 -0.27725,-0.60851 -0.50899,-0.73764 -1.17667,-0.65474 -0.34911,0.0434 -8.37245,-7.88957 -9.96632,-9.85418 -2.44516,-3.0139 -6.16428,-11.76278 -7.32927,-17.24133 -0.37918,-1.78318 -0.46895,-6.52381 -0.1726,-9.12812 0.10763,-0.94589 0.29791,-3.32714 0.42272,-5.29167 0.24818,-3.90639 0.64753,-5.78329 1.65984,-7.80521 0.36429,-0.7276 1.17727,-2.54331 1.80661,-4.03489 0.62933,-1.49159 1.24403,-2.71198 1.36633,-2.71198 0.1223,0 0.2222,-0.16898 0.2222,-0.37517 0,-0.54442 1.67588,-3.6178 2.7802,-5.09892 5.10092,-6.84136 10.67005,-12.36392 15.87293,-15.739597 6.64755,-4.31299 8.71318,-5.39793 13.31443,-6.99337 6.91029,-2.39611 8.94003,-2.91075 14.99599,-3.80287 1.79872,-0.26498 2.90451,-0.38167 4.1584,-0.38344 z m -50.27083,3.57859 c 0.0381,-0.0105 0.10702,0.0974 0.23409,0.31574 0.15138,0.26015 0.2347,0.59501 0.185,0.74414 -0.14137,0.42411 -0.47719,-0.0536 -0.46819,-0.66611 0.004,-0.25445 0.011,-0.38325 0.0491,-0.39377 z m 0.77773,1.91306 c 0.0489,-0.0225 0.17122,0.0999 0.37052,0.38448 0.22653,0.32341 0.6539,0.58807 0.94929,0.58807 0.29578,0 1.27286,0.7067 2.17506,1.57303 1.20197,1.15419 1.72152,1.87628 1.95182,2.71198 0.53557,1.943487 1.2637,2.831267 2.91972,3.562057 0.83301,0.3676 1.56553,0.71881 1.62832,0.78031 0.0628,0.0615 -0.28772,0.52638 -0.77928,1.03353 -0.70086,0.72311 -1.1032,0.92242 -1.86448,0.92242 -1.76161,0 -2.6006,-1.16505 -3.28662,-4.56406 -0.0808,-0.40018 -0.32296,-0.7276 -0.53847,-0.7276 -0.29182,0 -0.39002,0.3206 -0.38602,1.25677 0.0106,2.2907 1.43777,4.38942 3.22822,4.74751 0.40405,0.0808 0.73432,0.22855 0.73432,0.32815 0,0.0996 -0.64321,0.73618 -1.42936,1.4149 l -1.42938,1.23403 -0.38447,-0.58807 c -1.25147,-1.91496 -1.51805,-2.80781 -1.49655,-5.00849 0.0244,-2.49579 -0.53925,-5.075417 -1.65519,-7.576787 -0.56731,-1.27163 -0.81514,-2.02274 -0.70745,-2.07223 z m 94.15756,0.21239 c 0.87996,0.0105 1.65423,0.0783 2.10943,0.20929 0.46048,0.13253 -0.062,0.24993 -1.71979,0.38654 -2.48881,0.20508 -3.87253,0.46723 -6.08542,1.1529 -0.72761,0.22545 -1.73964,0.73302 -2.24896,1.12758 -0.91341,0.70759 -1.5875,0.78141 -1.5875,0.17415 0,-0.61283 2.79793,-2.02882 5.24722,-2.65565 1.05931,-0.27109 2.8184,-0.41234 4.28502,-0.39481 z m -117.8879,5.83892 c 0.70751,-0.0142 1.36351,0.0401 1.87689,0.17932 1.66163,0.450487 3.38737,1.744087 4.43797,3.326407 l 0.95602,1.44022 2.05775,-0.13125 c 4.89602,-0.3118 5.59938,-0.15085 7.61349,1.74149 1.1728,1.1019 2.74516,1.6175 3.94653,1.2945 0.42409,-0.11401 0.87012,-0.1459 0.99167,-0.0708 0.12155,0.0751 0.70099,1.14203 1.28726,2.3704 0.80462,1.68584 1.19375,2.23345 1.5875,2.23345 0.80486,0 0.62995,0.59724 -0.68936,2.35231 -0.66619,0.88623 -1.65119,2.41578 -2.1885,3.39876 l -0.97668,1.78697 -1.58234,0.31006 c -0.87017,0.17033 -2.1666,0.49817 -2.88096,0.72864 -0.71435,0.23046 -1.56672,0.41909 -1.89446,0.41909 -1.1603,0 -3.00472,-2.84234 -3.69124,-5.68854 -0.69578,-2.88456 -0.88129,-3.05279 -4.67052,-4.23436 -1.90854,-0.59513 -3.85568,-2.27287 -4.98471,-4.29535 -1.8672,-3.34481 -3.54264,-4.83174 -5.44463,-4.83174 -1.26327,0 -1.53353,-0.20412 -1.07693,-0.81236 0.61386,-0.81773 3.20272,-1.474727 5.32525,-1.517217 z m 154.85411,4.384747 c 0.0467,0.014 0.0682,0.0643 0.0682,0.14831 0,0.90404 -2.4727,6.27489 -3.37344,7.3272 -1.18053,1.3792 -2.28361,1.81948 -5.26635,2.10168 -3.59943,0.34054 -4.48216,0.82373 -6.02495,3.29902 -0.85278,1.36825 -1.84656,2.51487 -3.01274,3.47679 -1.75708,1.44933 -1.95179,1.56117 -2.23294,1.28003 -0.0854,-0.0854 -1.50457,-0.18919 -3.15329,-0.231 l -2.99775,-0.076 -1.47485,-2.74557 c -0.81135,-1.50992 -1.94245,-3.44299 -2.51354,-4.29586 -0.57109,-0.85287 -1.27179,-1.92444 -1.55701,-2.38125 -0.28519,-0.45682 -0.61263,-0.8703 -0.7276,-0.91881 -0.4366,-0.18419 -0.15509,-0.74727 0.98857,-1.97817 0.8419,-0.90612 1.23182,-1.58199 1.35392,-2.34559 0.14898,-0.93164 0.31042,-1.13472 1.22938,-1.54616 0.95688,-0.42841 1.16221,-0.43697 2.14457,-0.0909 0.5974,0.21042 1.56196,0.83981 2.14406,1.39888 1.29617,1.24491 1.97606,1.60765 3.01325,1.60765 1.07311,0 2.13864,-0.49884 2.93987,-1.37614 0.82448,-0.90275 2.07617,-1.4179 4.01268,-1.65106 1.8608,-0.22406 3.08353,0.093 5.12113,1.32756 1.48066,0.89716 1.6928,0.95095 3.30419,0.83975 2.07382,-0.14312 3.1623,-0.65463 4.82607,-2.26757 0.68302,-0.66215 1.04853,-0.94473 1.18855,-0.90278 z m -70.44324,11.32644 c -2.60889,0.0167 -3.39384,0.1179 -4.40335,0.56792 -2.16956,0.96714 -5.88728,5.27331 -6.72155,7.78506 -0.2346,0.70627 -0.55441,1.28415 -0.71055,1.28415 -0.15615,0 -0.90162,-0.58391 -1.65623,-1.29759 -1.60053,-1.51372 -3.85204,-2.71935 -6.23063,-3.33571 -1.81421,-0.47011 -2.29752,-0.42876 -5.14852,0.4408 -2.91479,0.88901 -5.24086,2.79283 -6.01204,4.92011 -0.17145,0.47294 -0.37692,0.85343 -0.45682,0.84543 -0.0799,-0.008 -0.49195,-0.72216 -0.91519,-1.5875 -1.39855,-2.85944 -4.44364,-5.23187 -7.4228,-5.7826 -1.55588,-0.28762 -4.85199,-0.15991 -5.83065,0.22583 -0.29104,0.11472 -1.12449,0.34843 -1.85209,0.51935 -1.28937,0.30289 -2.08362,0.91615 -1.90014,1.46657 0.05,0.15003 0.51074,0.39311 1.02423,0.54002 0.51348,0.14691 1.12903,0.43022 1.36787,0.62994 0.23883,0.19974 0.43408,0.27074 0.43408,0.15761 0,-0.11314 0.25859,0.0209 0.57465,0.29817 0.31608,0.27726 0.49003,0.35916 0.38654,0.18191 -0.48056,-0.82308 2.76413,1.29603 4.22196,2.75745 1.39615,1.39958 1.71653,1.90644 2.17558,3.43958 1.66643,5.56544 2.7109,11.11369 3.07785,16.35043 0.52586,7.50456 0.71568,11.34655 0.70538,14.2875 -0.0121,3.46 -0.39588,8.04529 -0.84543,10.10481 -0.34809,1.59474 -0.30405,2.46289 0.12454,2.46289 0.44047,0 1.24132,-1.15661 1.29502,-1.87017 0.0212,-0.28122 0.17561,-0.51108 0.34313,-0.51108 0.16754,0 0.60832,-0.44647 0.97978,-0.99218 0.88549,-1.30084 3.82847,-7.07782 4.13567,-8.11785 0.13196,-0.44677 0.67379,-2.00246 1.20406,-3.45767 1.46266,-4.01391 1.66038,-5.10822 1.98127,-10.98021 0.37299,-6.82539 1.41061,-13.69888 2.30684,-15.27865 0.8041,-1.41739 1.93028,-2.0226 3.69796,-1.988 2.35239,0.0461 3.28072,0.7821 4.78938,3.7977 0.86797,1.73497 1.37989,4.10793 1.39319,6.45749 0.004,0.7276 0.18293,2.09682 0.39739,3.04271 0.21449,0.94588 0.57424,2.91041 0.79892,4.36562 0.22469,1.45521 0.57587,3.5388 0.78083,4.63021 0.20496,1.0914 0.37524,2.55427 0.37724,3.25097 0.002,0.6967 0.0744,1.37929 0.15968,1.51722 0.0852,0.13793 0.2644,0.92466 0.39843,1.74821 0.44559,2.73784 1.00508,4.29181 1.5167,4.21421 0.31345,-0.0475 0.43429,-0.25997 0.37569,-0.65939 -0.12522,-0.85386 0.48451,-4.26099 0.91209,-5.09736 0.20088,-0.39296 0.36855,-1.2264 0.37155,-1.85209 0.003,-0.62568 0.12146,-1.61365 0.26252,-2.19573 0.14104,-0.58208 0.31223,-2.01522 0.38033,-3.1843 0.0681,-1.16908 0.42587,-4.14564 0.7953,-6.61458 0.36943,-2.46895 0.67209,-5.38159 0.67232,-6.47299 6.2e-4,-3.02872 0.91059,-7.45596 1.93838,-9.43199 0.82483,-1.58582 2.8517,-2.73885 4.81417,-2.73885 2.44199,0 4.68815,5.58741 5.95675,14.81667 0.27001,1.96453 0.5641,3.86954 0.6537,4.23333 0.0896,0.3638 0.28932,1.19724 0.4439,1.85209 0.28236,1.19609 0.68209,2.4416 1.57097,4.89479 0.67603,1.86576 0.62775,2.81391 -0.19069,3.72897 -0.37818,0.42281 -0.99247,1.4238 -1.36529,2.22415 -0.37281,0.80037 -1.08417,2.09596 -1.58078,2.87942 -1.11379,1.75722 -2.39112,5.58744 -2.74505,8.23257 -0.14603,1.09147 -0.36947,2.52068 -0.49661,3.17551 -0.44644,2.29937 0.64485,2.1142 1.92287,-0.32607 0.88755,-1.69469 6.04248,-7.25755 6.47661,-6.98924 0.15508,0.0958 0.36451,0.67938 0.46561,1.29708 0.18609,1.13699 2.41052,5.47371 3.86901,7.54269 0.43732,0.62036 1.12287,1.29744 1.52291,1.5043 0.40003,0.20687 1.04716,0.85998 1.43867,1.45159 0.76965,1.16303 1.76268,1.47983 1.76268,0.56224 0,-0.28245 -0.1069,-0.57962 -0.23771,-0.66042 -0.5538,-0.34227 -1.10114,-4.30328 -1.34979,-9.76478 -0.14473,-3.1785 -0.3168,-5.86554 -0.3824,-5.97173 -0.18053,-0.29211 3.30588,-4.62538 5.76605,-7.16649 1.19752,-1.23693 2.94013,-3.32052 3.87263,-4.63021 0.9325,-1.30969 2.0831,-2.84228 2.55644,-3.40547 1.21358,-1.4439 1.94587,-3.79209 1.94561,-6.23735 -1.8e-4,-1.66869 -0.13059,-2.27453 -0.78858,-3.66541 -0.90159,-1.90575 -1.7825,-2.74208 -3.98839,-3.7853 -2.17209,-1.02726 -4.35418,-1.42726 -5.68802,-1.04283 -2.02791,0.58446 -5.9933,2.95183 -6.94738,4.14755 -0.3913,0.49042 -0.84796,0.89193 -1.01492,0.89194 -0.16696,0 -0.43593,-0.76125 -0.5979,-1.69137 -0.16198,-0.93013 -0.51896,-2.26958 -0.79324,-2.97656 -0.27428,-0.70699 -0.98528,-2.5462 -1.57974,-4.08709 -1.47465,-3.82244 -2.24121,-5.12036 -4.16926,-7.06107 -2.42885,-2.44481 -3.46784,-2.84178 -7.37319,-2.81688 z m -64.84307,5.66838 c 0.63675,0 0.45625,0.66654 -1.07332,3.96204 -1.17884,2.53985 -1.23207,2.60526 -2.36626,2.92282 -0.6381,0.17865 -1.29635,0.48818 -1.46245,0.68833 -0.16611,0.20014 -0.3978,0.36431 -0.51521,0.36431 -0.11741,0 -0.90634,0.45861 -1.75338,1.01906 -1.92252,1.27207 -2.81548,1.5436 -5.64152,1.71773 -1.23693,0.0762 -3.61818,0.43354 -5.29166,0.79427 -1.67349,0.36071 -4.14392,0.79511 -5.49011,0.96531 -1.34619,0.17021 -3.46885,0.65706 -4.71702,1.08159 -1.24816,0.42454 -2.38038,0.77204 -2.51613,0.77204 -0.13575,0 -0.75151,0.23081 -1.36839,0.51315 -1.53241,0.70137 -2.85489,0.99492 -5.39864,1.19838 -2.70765,0.21656 -3.48855,0.008 -7.72046,-2.05724 l -3.34863,-1.63401 -3.77031,-0.0935 c -3.25345,-0.0805 -3.77031,-0.0378 -3.77031,0.31264 0,0.67256 0.45737,0.77232 3.81733,0.82992 l 3.22151,0.0548 3.82303,1.7384 c 2.76229,1.25594 4.26295,1.78525 5.41,1.90737 1.79306,0.1909 6.63182,-0.44589 7.7587,-1.02112 1.37639,-0.70259 6.02353,-2.04666 7.85172,-2.27067 1.01865,-0.12481 3.04271,-0.48545 4.49791,-0.8015 3.8321,-0.83227 5.0628,-1.0302 7.97678,-1.28312 2.73001,-0.23695 3.38324,-0.50319 7.23676,-2.94711 0.65485,-0.4153 1.2939,-0.76427 1.41956,-0.77566 0.30392,-0.0277 -0.0341,2.1467 -0.51108,3.28817 -0.20853,0.49908 -0.3793,1.29799 -0.37982,1.7756 -8.9e-4,0.77621 -0.12404,0.91894 -1.15807,1.3441 -1.74433,0.71723 -4.55471,0.87943 -5.84926,0.33745 -1.72549,-0.72241 -3.04632,-0.95207 -3.04632,-0.52968 0,0.81102 2.77635,1.69568 5.29166,1.68568 1.75795,-0.007 2.60576,-0.18512 4.29948,-0.9033 0.40512,-0.17179 0.46302,-0.0321 0.46302,1.11621 0,0.72182 -0.076,2.04385 -0.1695,2.93832 v 5.2e-4 c -0.14194,1.35805 -0.2529,1.62625 -0.67024,1.62625 -0.27488,0 -0.57202,-0.1886 -0.66042,-0.41909 -0.0952,-0.24795 -0.22883,-0.30919 -0.32763,-0.14935 -0.0992,0.16049 -1.02394,-0.24505 -2.27842,-0.99993 -1.93291,-1.16313 -4.75157,-2.33345 -7.80004,-3.23805 -0.76152,-0.22598 -2.52562,-0.34668 -4.89479,-0.33538 -5.62289,0.027 -5.95312,0.0625 -5.95312,0.64441 0,0.27333 0.11906,0.57104 0.26458,0.66094 0.57675,0.35645 0.21119,0.66145 -0.79323,0.66145 -1.39497,0 -5.56407,0.72625 -6.92568,1.20665 -0.59322,0.20931 -1.2768,0.38085 -1.51877,0.38085 -0.24198,0 -0.90709,0.23813 -1.47795,0.52917 -2.0505,1.0454 -5.2116,0.56112 -8.13593,-1.24592 -0.5457,-0.33721 -0.99219,-0.55361 -0.99219,-0.4811 0,0.0725 -0.38696,-0.10438 -0.8599,-0.39275 -0.47295,-0.28836 -1.06071,-0.5245 -1.30638,-0.52503 -0.32278,-7.2e-4 -0.43287,-0.20286 -0.39687,-0.72864 0.0414,-0.60525 -0.12837,-0.81652 -1.00873,-1.25573 -1.91002,-0.95291 -7.89522,-0.81813 -11.78842,0.26562 -0.66306,0.18456 -1.91323,0.79491 -2.77813,1.3565 -2.22423,1.44419 -3.02824,1.77523 -3.02824,1.24644 0,-0.22663 0.31074,-0.7863 0.6904,-1.24386 0.37966,-0.45756 1.06426,-1.29393 1.52135,-1.85828 2.01745,-2.49087 3.59267,-3.65265 7.31325,-5.39295 4.53803,-2.12267 7.26029,-1.80171 11.77396,1.38751 4.59437,3.24625 8.05121,3.76064 12.20391,1.81591 1.06284,-0.49773 2.00428,-1.02178 2.09238,-1.16427 0.0881,-0.14246 0.27123,-0.19067 0.40669,-0.10697 0.13547,0.0837 0.24598,0.007 0.24598,-0.17157 0,-0.17858 0.0705,-0.25458 0.15606,-0.16898 0.0856,0.0856 0.70415,-0.19183 1.3746,-0.61701 0.67044,-0.4252 1.34912,-0.77309 1.50843,-0.77309 0.15931,0 1.41604,-0.37158 2.7926,-0.82527 2.26709,-0.74718 2.86403,-0.83117 6.33914,-0.89607 4.41361,-0.0824 5.96461,-0.45249 7.55251,-1.80247 0.57573,-0.48946 1.78971,-1.39509 2.69803,-2.01228 0.90831,-0.61719 1.72107,-1.23417 1.80557,-1.37098 0.47035,-0.76104 5.51079,-2.61793 7.10603,-2.61793 z m 111.08314,1.46658 c 0.56458,-0.0196 1.36957,0.0778 2.45928,0.26614 3.42838,0.59268 4.26904,1.1011 8.09356,4.89117 1.88985,1.87283 3.99334,3.719 4.67465,4.10311 1.62193,0.91438 4.55311,1.973 5.46375,1.973 1.25181,0 3.38898,-0.75713 5.16868,-1.83037 3.70442,-2.23394 4.42154,-2.49463 7.19284,-2.61586 4.41654,-0.19322 7.6722,0.86394 11.59309,3.76514 0.801,0.59268 1.96185,1.42125 2.57969,1.84123 0.61783,0.41997 1.12293,0.92599 1.12293,1.12448 0,0.43943 0.19045,0.45532 -1.78594,-0.14573 -0.90951,-0.27659 -1.65364,-0.45559 -1.65364,-0.39739 0,0.0582 -0.44649,-0.0669 -0.99219,-0.27853 -2.593,-1.00572 -5.76057,-1.55485 -9.06198,-1.57045 -2.9822,-0.0141 -3.51535,0.0581 -5.42396,0.73535 -1.16417,0.41308 -2.89057,1.1122 -3.83646,1.5534 -0.94588,0.44119 -2.37463,1.03396 -3.175,1.31723 -0.96242,0.34064 -2.39598,0.55118 -4.23333,0.62218 -2.60342,0.10064 -2.88627,0.0598 -4.49792,-0.65112 -0.94588,-0.41726 -2.43417,-1.14453 -3.30729,-1.61644 -1.61086,-0.87066 -5.62978,-1.8506 -7.59747,-1.8526 -1.09786,-9.8e-4 -1.53065,-0.50392 -1.53065,-1.7787 0,-0.41486 -0.29422,-1.64274 -0.65423,-2.72903 -0.36003,-1.0863 -0.65746,-2.22202 -0.66145,-2.52336 -0.006,-0.50287 0.096,-0.53307 1.24953,-0.36897 0.69122,0.0983 1.55911,0.30289 1.92856,0.45423 0.86818,0.35562 6.34583,4.00411 8.05946,5.36815 0.7276,0.57917 2.36471,1.59332 3.63802,2.25361 2.29732,1.1913 2.82728,1.7048 1.75958,1.7048 -0.90539,0 -4.61037,-1.72337 -6.41046,-2.98173 -3.40853,-2.38273 -8.64443,-4.61439 -8.64443,-3.68452 0,0.15432 0.2679,0.36243 0.59531,0.4625 0.32743,0.10008 1.57074,0.64362 2.76263,1.20819 1.19186,0.56457 2.28464,1.02681 2.42827,1.02681 0.14362,0 0.47788,0.26828 0.74311,0.59635 0.26521,0.32807 0.7798,0.72864 1.1436,0.89039 0.36381,0.16174 1.22833,0.7269 1.92081,1.25573 0.69249,0.52883 1.40685,0.96332 1.5875,0.96532 0.18064,0.002 0.80438,0.17581 1.38648,0.38551 1.48828,0.53617 3.21718,0.51872 3.52743,-0.0357 0.19744,-0.35289 0.60735,-0.42988 2.06396,-0.38757 2.45315,0.0712 4.47601,-0.51319 7.63416,-2.20504 3.36949,-1.80508 5.37915,-2.33734 8.33644,-2.20865 2.23815,0.0974 3.49205,0.49763 5.34903,1.70843 0.39429,0.25697 0.81101,0.37164 0.92604,0.25424 0.35229,-0.35959 -1.89169,-2.12618 -3.12591,-2.46083 -4.13168,-1.12025 -9.32962,-0.31739 -12.24111,1.89084 -1.49261,1.13209 -4.01227,1.83037 -6.64921,1.84227 -2.33183,0.0105 -2.43128,-0.0153 -4.81314,-1.24592 -1.33779,-0.69117 -3.20794,-1.87925 -4.15582,-2.64015 -4.19022,-3.36367 -8.7247,-5.66319 -10.47636,-5.31286 -0.6861,0.13723 -0.80492,0.0529 -1.17616,-0.8356 -0.60608,-1.45056 -0.52635,-2.0597 0.71572,-2.10272 z m -116.23321,3.32125 c -0.18706,0.0328 -0.47234,0.20289 -0.8661,0.51263 -1.02874,0.80921 -5.91761,3.05878 -7.72201,3.55327 -0.87313,0.23928 -2.86742,0.50516 -4.43177,0.59066 -2.69078,0.14714 -3.27281,0.35693 -2.66754,0.96221 0.34953,0.34952 3.46812,0.16621 5.7888,-0.34054 3.06746,-0.66983 4.26412,-1.10349 6.86521,-2.48719 2.35876,-1.25479 3.30884,-1.96644 3.30884,-2.4784 0,-0.24074 -0.0884,-0.34542 -0.27543,-0.31264 z m -48.77067,5.53092 c -1.76636,0 -6.0401,1.05728 -7.97161,1.97249 -1.36421,0.64642 -1.31916,0.59618 -0.93689,1.05679 0.28259,0.34052 0.42762,0.3455 1.02991,0.0357 0.9757,-0.50195 4.14248,-1.3919 5.72782,-1.60973 0.72761,-0.1 1.44826,-0.28494 1.60145,-0.41082 0.16275,-0.13375 0.58799,-0.0684 1.02268,0.15709 0.91323,0.47376 0.85648,0.4762 1.05626,-0.0444 0.26492,-0.69034 -0.35182,-1.15704 -1.52962,-1.15704 z m 27.66808,0.82993 c -1.39336,-0.0326 -4.48022,0.82923 -6.88123,2.05414 -0.63216,0.3225 -1.59149,0.55552 -2.28927,0.55552 -1.049,0 -1.20148,0.0714 -1.20148,0.56327 0,0.51911 0.0985,0.54994 1.25677,0.39533 1.88099,-0.25109 2.47036,-0.38554 2.80552,-0.64079 0.47103,-0.35872 3.10893,-1.32335 4.1398,-1.5136 2.0634,-0.38081 2.91041,-0.69022 2.91041,-1.0635 0,-0.22938 -0.27607,-0.33952 -0.74052,-0.35037 z m 171.77969,2.22054 c 2.24478,-0.0349 5.62982,0.57758 9.27437,1.70635 1.30969,0.40563 3.33375,0.99967 4.49792,1.31982 1.16416,0.32016 2.89317,0.86946 3.84214,1.22111 1.74718,0.64745 4.06018,0.91139 3.10317,0.35398 -0.90115,-0.52487 -0.51449,-0.84859 0.79375,-0.66455 3.30972,0.46557 5.62303,0.62837 7.01146,0.49351 0.83674,-0.0812 1.51485,-0.0415 1.50585,0.0884 -0.0197,0.29582 -4.51201,3.46711 -5.37745,3.79615 -0.52059,0.19793 -0.66323,0.15172 -0.76791,-0.24856 -0.1116,-0.42678 -0.26301,-0.46025 -1.15083,-0.25425 -1.32967,0.30846 -5.52443,0.3052 -6.71122,-0.005 -0.50932,-0.1332 -2.05714,-0.55623 -3.43959,-0.94051 -6.27917,-1.74543 -6.59782,-1.8002 -8.67854,-1.48311 -4.00134,0.60979 -8.25262,1.90569 -8.78396,2.67735 -0.30074,0.43676 -1.8478,1.03579 -3.45043,1.33636 -0.93992,0.17628 -2.07343,0.49929 -2.51923,0.71727 -0.64818,0.31693 -1.46963,0.36403 -4.10104,0.23616 -1.80979,-0.0879 -4.00512,-0.30022 -4.87826,-0.47181 -2.21035,-0.43438 -6.96218,-0.33198 -8.80979,0.18965 -0.82967,0.23425 -1.95287,0.71211 -2.49546,1.06196 -0.5426,0.34984 -1.10813,0.63562 -1.25677,0.63562 -0.15599,0 -0.27027,-0.72082 -0.27027,-1.70481 0,-1.46174 0.0839,-1.76351 0.58808,-2.11667 0.74453,-0.52144 2.98591,-0.53375 6.1588,-0.0346 1.30968,0.20603 2.86063,0.436 3.4463,0.5116 0.58567,0.0756 1.39692,0.26367 1.80299,0.41806 1.03587,0.39384 1.233,0.35493 1.233,-0.2434 0,-0.329 -0.22163,-0.57187 -0.59531,-0.65267 -2.26626,-0.49016 -7.38589,-1.05243 -9.65729,-1.06144 l -2.71198,-0.0103 v -1.88619 c 0,-2.35647 0.23051,-2.60783 2.02003,-2.20245 2.8237,0.63964 5.27652,1.36787 5.65288,1.67793 0.21828,0.17984 0.90361,0.54637 1.52291,0.81443 0.6193,0.26807 1.25393,0.64156 1.41025,0.82992 0.15633,0.18836 0.72116,0.48235 1.25522,0.65371 0.53406,0.17136 1.14959,0.45051 1.36787,0.62011 0.99137,0.77026 3.59315,1.3439 5.95313,1.3131 3.97903,-0.052 7.01146,-0.38756 7.01146,-0.77618 0,-0.47851 -0.59975,-0.54828 -2.90318,-0.33796 -3.1315,0.28592 -5.72708,0.24753 -6.53811,-0.0966 -0.65435,-0.27768 -0.35477,-0.33783 2.466,-0.49558 3.09138,-0.17287 3.29313,-0.22113 5.42396,-1.30017 1.21724,-0.6164 2.39573,-1.28196 2.61896,-1.47847 0.22323,-0.19651 1.08952,-0.6597 1.92547,-1.02939 1.19029,-0.52641 1.95376,-0.6718 3.51916,-0.6718 2.48394,0 2.48612,0.37091 0.008,1.20562 -1.72866,0.5822 -2.92881,1.49688 -2.73368,2.08307 0.17007,0.51084 0.92742,0.45757 1.09709,-0.077 0.29034,-0.91476 3.88284,-1.93466 6.89053,-1.95647 1.88505,-0.0137 2.56542,0.13795 6.21771,1.38597 3.89181,1.32987 4.26104,1.40621 7.23574,1.49551 4.10681,0.12325 7.30669,-0.22865 7.76335,-0.85317 0.41081,-0.56181 0.23867,-0.8322 -0.26407,-0.41497 -0.23197,0.19253 -1.99319,0.31173 -4.96765,0.33694 -4.97608,0.0421 -5.02802,0.0321 -11.47631,-2.19987 -1.0395,-0.35982 -2.53733,-0.59093 -4.39611,-0.67903 -2.34977,-0.11137 -2.81468,-0.20341 -2.78898,-0.55035 0.0211,-0.28575 -0.30144,-0.47708 -1.02784,-0.6103 -2.79137,-0.51195 -5.40424,0.0537 -7.9375,1.71824 -0.72762,0.4781 -2.15637,1.25751 -3.175,1.73219 -1.79916,0.83838 -1.93902,0.8609 -4.89479,0.786 -2.99339,-0.0758 -3.04222,-0.0676 -3.02152,0.50902 0.0115,0.32235 -0.0168,0.58652 -0.063,0.58652 -0.0899,0 -2.79498,-1.33591 -6.39651,-3.15846 -2.46561,-1.24771 -4.48772,-1.85354 -6.3407,-1.90014 -2.11055,-0.0531 -2.82063,-0.29618 -2.92023,-0.99891 -0.1598,-1.12717 0.81185,-1.22893 3.83387,-0.40153 0.75001,0.20534 1.55862,0.37362 1.79679,0.37362 0.23817,0 2.00569,0.77187 3.92793,1.71566 3.97528,1.95176 5.17496,2.25497 7.75198,1.95802 2.58418,-0.29778 4.63827,-0.92499 7.38456,-2.25361 2.32742,-1.12597 3.71651,-1.57534 6.82698,-2.20916 0.38569,-0.0786 0.84313,-0.12114 1.36115,-0.12919 z m -198.33724,2.02364 c 1.41083,-0.0147 1.77672,0.0985 2.36109,0.46458 0.57557,0.36054 0.8599,0.74527 0.8599,1.16375 0,0.48374 0.23948,0.71963 1.05833,1.04128 0.78925,0.31003 1.05834,0.56413 1.05834,0.99942 0,0.37603 0.57623,1.11316 1.61954,2.07274 1.14619,1.0542 1.58997,1.64212 1.51877,2.01176 -0.0816,0.42372 -0.62817,-5.9e-4 -2.89699,-2.24999 -2.58914,-2.56697 -2.93213,-2.81559 -4.62762,-3.35276 -2.73615,-0.86674 -4.82872,-1.16882 -6.06475,-0.87489 -0.58208,0.13842 -1.54905,0.25487 -2.14922,0.25787 -0.60017,0.003 -1.59772,0.18531 -2.2164,0.40359 -1.31891,0.46534 -1.32292,0.46582 -1.32292,0.16485 0,-0.36238 2.5943,-1.38862 4.2199,-1.66915 0.80785,-0.13942 2.95693,-0.31054 4.77594,-0.38033 0.74919,-0.0287 1.33581,-0.0478 1.80609,-0.0527 z m 31.33452,0.92295 c 5.09372,0.0822 10.1196,1.70472 14.08751,4.59196 1.12109,0.81577 1.87262,0.99051 2.04432,0.47543 0.0591,-0.17746 0.30132,-0.23613 0.56121,-0.13643 0.39561,0.15182 0.44727,0.50516 0.38137,2.62723 l -0.0765,2.45205 -0.92605,0.0656 c -1.57465,0.11238 -6.48473,-2.67351 -8.43927,-4.78834 -0.34882,-0.37742 -1.06319,-0.82211 -1.5875,-0.98806 -1.29527,-0.40996 -4.26072,-2.06119 -4.26072,-2.37246 0,-0.88408 4.74391,0.56497 6.16344,1.88257 0.26095,0.24221 1.0944,0.775 1.85209,1.18443 0.7577,0.40941 1.91318,1.1935 2.56832,1.74201 1.10503,0.92517 2.79084,1.81901 3.43079,1.81901 0.4655,0 0.29964,-1.06664 -0.19017,-1.22318 -0.87275,-0.27893 -1.58197,-0.68043 -2.21278,-1.25264 -0.34723,-0.31498 -1.4054,-0.9741 -2.35128,-1.46451 -0.94589,-0.49043 -2.20035,-1.35207 -2.78794,-1.91513 -0.64444,-0.61753 -1.32684,-1.02533 -1.71979,-1.02733 -0.3583,-0.002 -1.30648,-0.18983 -2.10685,-0.41857 -1.95306,-0.55817 -2.4104,-0.60193 -3.098,-0.29404 -0.46829,0.20969 -0.53222,0.35959 -0.32143,0.75344 0.14475,0.27039 0.22909,0.49086 0.18759,0.48886 -0.0415,-0.002 -0.67077,-0.19162 -1.39837,-0.4222 -0.72761,-0.23059 -1.97777,-0.49691 -2.77812,-0.59221 -1.04015,-0.12381 -1.45521,-0.28632 -1.45521,-0.56999 0,-0.30906 0.49761,-0.43258 2.24896,-0.55759 0.72755,-0.0519 1.45668,-0.0717 2.18436,-0.0599 z m -24.12824,0.64853 c -0.18088,0.0152 -0.20352,0.12752 -0.12713,0.3266 0.13158,0.34288 1.73854,1.15805 3.41788,1.73374 0.43656,0.14949 1.21046,0.21772 1.71979,0.15141 0.50932,-0.0663 1.37252,-0.1215 1.91823,-0.1235 0.6155,-0.002 0.99295,-0.12814 0.99322,-0.33331 4e-4,-0.23824 -0.46087,-0.30707 -1.65364,-0.24547 -1.34629,0.0696 -2.04738,-0.0658 -3.76515,-0.7276 -1.45999,-0.56244 -2.20175,-0.80714 -2.5032,-0.78187 z m 132.18676,0.1447 c 0.10224,-0.006 0.1819,0.0252 0.22892,0.10128 0.337,0.54528 -0.20699,2.38271 -1.18287,3.99666 -0.55025,0.91 -1.1213,1.69478 -1.26917,1.74408 -0.84141,0.28047 -0.60015,-2.69303 0.33951,-4.18373 0.56498,-0.8963 1.44055,-1.63164 1.88361,-1.65829 z m -112.78691,1.4242 c 1.74699,-0.0106 2.52093,0.14271 4.7625,0.94413 1.47207,0.5263 2.97398,1.10652 3.33778,1.28933 0.36379,0.18281 1.12565,0.53251 1.69292,0.77721 0.87757,0.37855 3.17479,2.02112 3.59874,2.57297 0.24532,0.31934 2.96141,2.07687 3.20962,2.07687 0.13529,0 0.97172,0.30515 1.85881,0.67852 0.99413,0.41842 1.97762,0.64736 2.56366,0.59686 0.90264,-0.0778 0.9674,-0.028 1.26969,0.97513 0.17513,0.58119 0.32729,1.26515 0.33848,1.51981 0.0112,0.25467 -0.0691,0.4486 -0.17828,0.4315 -2.97243,-0.46616 -5.82197,-1.67571 -6.5443,-2.77813 -0.22702,-0.34648 -0.57002,-0.62994 -0.76223,-0.62994 -0.19221,0 -0.9738,-0.59905 -1.73685,-1.33066 -0.76304,-0.7316 -1.98507,-1.63254 -2.71507,-2.00246 -2.28226,-1.15652 -6.40123,-2.23572 -9.18032,-2.40503 -2.98188,-0.18166 -4.62618,0.11122 -7.08742,1.26194 -0.96142,0.4495 -2.17765,0.87518 -2.70268,0.94568 -0.90207,0.12114 -0.92665,0.10533 -0.44132,-0.28732 0.28248,-0.22852 0.61638,-0.41548 0.74207,-0.41548 0.31297,0 3.18489,-1.96619 3.59668,-2.46238 0.67703,-0.81576 -0.217,-0.71552 -1.46657,0.16433 -0.69783,0.49136 -1.84797,1.16686 -2.5554,1.5012 -1.1873,0.56112 -1.51295,0.5947 -4.23334,0.43873 -3.77251,-0.21629 -5.12018,-0.59628 -6.48332,-1.82779 -1.31083,-1.18426 -1.42566,-1.69559 -0.22944,-1.02371 1.5576,0.87485 4.04095,1.62244 5.37124,1.61644 0.71791,-0.003 2.31686,-0.31478 3.55379,-0.69247 3.46413,-1.05776 8.11388,-1.92128 10.42056,-1.93528 z m 177.10391,1.12603 c 1.24742,-0.006 2.49637,0.29508 4.69532,0.99219 4.77394,1.51344 7.63719,1.96652 10.35337,1.63917 1.98234,-0.23891 3.39842,-0.0411 2.34663,0.32763 -0.29104,0.10202 -0.82681,0.29207 -1.19062,0.42272 -1.82286,0.65461 -4.11987,0.72499 -6.50503,0.19947 -1.29693,-0.28574 -2.95383,-0.62267 -3.68143,-0.74879 -0.72761,-0.12614 -1.9638,-0.35674 -2.74764,-0.51263 -2.23252,-0.44401 -3.62363,-0.34019 -5.80171,0.43304 -2.92694,1.03909 -4.3231,1.88263 -6.33346,3.82613 -2.6611,2.57263 -4.06348,2.92586 -12.98681,3.27008 -2.75732,0.10636 -3.17342,0.19391 -5.15937,1.08624 -1.18808,0.53383 -3.35123,1.68774 -4.80643,2.56418 -2.73345,1.64631 -4.94852,2.73142 -7.01146,3.43442 v -5.2e-4 c -0.65483,0.22316 -1.36921,0.47407 -1.5875,0.55708 -0.21827,0.083 -0.55227,0.0516 -0.74259,-0.0698 -0.28275,-0.18039 -0.27568,-0.38557 0.0393,-1.12189 0.8265,-1.93224 1.75858,-4.65136 1.91771,-5.59501 0.0918,-0.54443 0.27322,-0.92418 0.40308,-0.84388 0.52066,0.32179 3.37745,0.37948 5.18883,0.10491 1.77251,-0.26869 3.84612,-0.9576 6.15828,-2.04536 0.97064,-0.45664 2.45875,-0.5025 9.65729,-0.29972 l 3.43958,0.0966 1.71979,-0.88987 c 0.94589,-0.48942 2.30095,-1.35079 3.01119,-1.9141 0.71022,-0.56331 1.51391,-1.02422 1.78594,-1.02422 0.2809,0 0.49454,-0.18645 0.49454,-0.4315 0,-0.67738 -1.71244,-0.2747 -2.76572,0.65009 -1.99418,1.75092 -5.27048,2.82745 -7.8574,2.58227 -6.62493,-0.62787 -8.75904,-0.45285 -11.66854,0.95653 -1.96673,0.9527 -5.56035,1.79886 -7.63933,1.79886 h -1.60094 l 0.18552,-1.12448 c 0.24241,-1.46976 0.4672,-1.70977 1.79473,-1.91978 0.61009,-0.0965 1.58067,-0.41467 2.15697,-0.70694 0.57627,-0.29226 1.58832,-0.62874 2.24896,-0.74776 0.66065,-0.11902 1.91533,-0.3466 2.78846,-0.50591 1.64117,-0.29943 2.51224,-0.24232 6.04873,0.39636 2.78609,0.5032 6.44413,0.48426 7.99072,-0.0408 0.67399,-0.22882 1.98925,-0.57568 2.92282,-0.77102 1.09988,-0.23011 2.13837,-0.67196 2.95072,-1.25522 1.36805,-0.98222 2.53059,-1.48165 4.16409,-1.78852 0.58208,-0.10935 2.01083,-0.40454 3.175,-0.65629 0.95194,-0.20587 1.69998,-0.32028 2.44843,-0.32401 z m -176.50085,2.60346 c 3.76496,0.0693 8.14182,1.18272 10.27172,2.69751 0.64684,0.46003 2.16209,1.65787 3.36776,2.66185 2.63569,2.19478 4.39799,3.05542 6.7355,3.29024 1.929,0.19378 1.93087,0.19586 2.59881,2.39469 0.23801,0.78369 0.33611,1.51571 0.21756,1.62677 -0.11854,0.11107 -0.81133,0.0268 -1.53893,-0.18759 -0.72761,-0.21436 -1.79917,-0.52133 -2.38125,-0.68212 -1.26847,-0.35043 -2.82047,-1.51726 -5.21932,-3.92328 -2.95787,-2.96672 -3.86297,-3.58803 -6.56497,-4.50515 -2.36994,-0.80441 -2.70684,-0.84881 -6.33966,-0.84181 -2.95579,0.006 -4.06199,0.10626 -4.81987,0.43873 -0.54102,0.23734 -1.434,0.43312 -1.98437,0.43512 -0.55038,0.002 -1.92798,0.29952 -3.06131,0.66146 -2.22506,0.7106 -3.94128,0.82282 -5.61258,0.36638 -1.11191,-0.30367 -3.68707,-2.11248 -3.93774,-2.76572 -0.19273,-0.50225 -0.14666,-0.48937 0.83044,0.23151 0.73844,0.54481 1.16194,0.61971 3.77651,0.66921 3.70094,0.0701 5.54523,-0.26217 8.04654,-1.45004 1.56187,-0.74172 2.41448,-0.96964 4.04781,-1.08159 0.50457,-0.0346 1.0295,-0.0461 1.56735,-0.0362 z m -15.02079,1.03611 c 1.75635,-0.0299 5.1955,0.32979 4.52634,0.52865 -0.99454,0.29553 -3.97698,0.24103 -5.02708,-0.092 l -0.92605,-0.29353 0.79375,-0.1049 c 0.16533,-0.0218 0.38213,-0.034 0.63304,-0.0382 z m 158.50867,12.0897 c 0.58178,-3.5e-4 0.8895,0.57578 1.59628,2.05672 0.67541,1.4152 0.79014,1.96705 0.79014,3.79047 0,1.85386 0.0945,2.29037 0.71933,3.32486 0.73721,1.22047 1.24698,1.56042 3.78013,2.52078 1.81334,0.68747 3.9052,2.24486 4.58991,3.41736 0.73402,1.25691 1.47773,4.15379 1.48673,5.79138 0.004,0.76398 -0.0863,1.38906 -0.20103,1.38906 -0.11471,0 -0.65561,-0.53492 -1.20199,-1.18856 -0.56975,-0.68162 -1.29864,-1.25078 -1.70945,-1.33428 -0.39397,-0.0801 -1.07395,-0.23835 -1.51051,-0.35192 -0.49602,-0.12904 -1.28997,-0.0673 -2.11667,0.16485 -0.72758,0.20437 -1.99849,0.48787 -2.82463,0.62993 -2.91932,0.50201 -4.86525,-0.63311 -5.63738,-3.2892 -0.2384,-0.82006 -0.65416,-1.76333 -0.92398,-2.096 -0.45517,-0.5612 -0.66888,-0.60053 -2.96054,-0.54363 -1.35848,0.0338 -2.76991,0.12659 -3.13676,0.20619 -0.60326,0.13094 -0.74231,-0.0141 -1.45521,-1.51671 -0.46403,-0.97808 -1.03342,-1.7686 -1.38389,-1.92236 -0.32743,-0.14365 -0.59531,-0.34787 -0.59531,-0.45372 0,-0.21369 1.08132,-2.22727 1.9513,-3.6344 0.30943,-0.5005 0.80502,-1.57099 1.10174,-2.37867 0.404,-1.09972 0.70303,-1.51425 1.19062,-1.65106 0.35813,-0.10047 1.1869,-0.32277 1.84175,-0.49351 1.96829,-0.51319 3.48758,-1.07266 5.12062,-1.88567 0.69179,-0.34441 1.13973,-0.55169 1.4888,-0.55191 z m -124.42651,0.13746 c 0.1249,7.9e-4 0.27267,0.0307 0.4625,0.076 0.4432,0.1058 1.60334,0.2018 2.57814,0.2129 l 1.7725,0.0202 0.98547,2.389 c 0.54208,1.31409 1.49726,3.44462 2.12235,4.73459 l 1.13637,2.3456 -0.57465,0.46508 c -0.316,0.25589 -0.7094,0.86715 -0.87436,1.35858 -0.26714,0.79582 -0.42738,0.90983 -1.46761,1.04076 -1.61703,0.20353 -3.23548,1.10718 -5.35368,2.98948 -1.75223,1.55709 -1.85134,1.60505 -3.43958,1.67535 -1.52463,0.0675 -1.80855,-0.0197 -4.1951,-1.28933 -3.07615,-1.63649 -4.35256,-1.77979 -5.96139,-0.66869 -2.29796,1.58702 -4.33744,1.91411 -6.1557,0.9865 -0.56641,-0.28896 -1.08917,-0.62088 -1.16116,-0.73742 -0.072,-0.11656 0.81305,-0.6759 1.96628,-1.24333 2.76993,-1.3629 3.81264,-2.26434 4.73563,-4.09277 0.42108,-0.83417 1.19447,-1.89353 1.71876,-2.35387 0.52429,-0.46033 0.85989,-0.84201 0.74569,-0.84801 -0.1142,-0.006 0.20897,-0.23946 0.7183,-0.51831 0.68296,-0.3739 1.47081,-0.5098 3.00137,-0.5178 1.85748,-0.01 2.2256,-0.10093 3.50573,-0.86661 1.08426,-0.64852 1.50223,-1.08057 1.72703,-1.78594 0.1631,-0.51175 0.60425,-1.5058 0.9803,-2.20917 0.48321,-0.90382 0.6521,-1.16508 1.02681,-1.16272 z m 9.34206,10.34872 c 0.19798,0.008 0.4548,0.22106 0.75551,0.64338 0.52592,0.73858 0.53092,0.81729 0.11938,1.865 -0.29894,0.761 -0.58694,1.09399 -0.94568,1.09399 -0.46222,0 -0.49835,0.13028 -0.34882,1.25677 0.0918,0.69122 0.22629,2.32833 0.29869,3.63802 l 0.13126,2.38125 -3.08147,3.175 c -3.48053,3.58577 -4.07472,4.4027 -4.07572,5.61361 -10e-4,1.09858 0.56767,0.92622 1.05679,-0.32039 0.20779,-0.52958 1.77792,-2.30095 3.80183,-4.28863 l 3.44837,-3.38584 0.14624,-3.57188 c 0.086,-2.09919 0.28248,-3.81049 0.47646,-4.15013 0.18154,-0.31786 0.32969,-0.82387 0.32969,-1.12448 0,-0.72266 0.30248,-0.68936 1.05886,0.11576 l 0.62218,0.66197 -0.56276,1.12706 c -0.69996,1.40154 -1.24653,4.58554 -1.00665,5.86425 0.22683,1.20911 0.58353,1.01353 0.81287,-0.44546 0.34078,-2.16787 1.23867,-5.75313 1.44074,-5.75313 0.25005,0 1.60351,1.60601 1.60351,1.90272 0,0.11748 -0.17574,0.21394 -0.39067,0.21394 -0.72358,0 -1.24809,1.18794 -1.0728,2.42931 0.12926,0.91534 0.0408,1.33514 -0.44442,2.11357 -0.6499,1.04263 -2.68608,2.76793 -4.15272,3.51865 -1.36888,0.70068 -3.34164,2.66807 -4.48654,4.47414 -0.56461,0.89067 -1.29514,1.85766 -1.62368,2.14871 -1.16891,1.03551 -2.43461,3.57714 -1.6247,3.26285 0.31656,-0.12285 3.37567,-3.8144 4.74131,-5.72162 1.12706,-1.57402 1.90511,-2.21336 4.42402,-3.63595 1.60299,-0.90532 3.50209,-2.80125 4.00027,-3.99355 0.20116,-0.48145 0.36535,-1.64599 0.36535,-2.58796 0,-0.94197 0.11518,-1.78379 0.2558,-1.87069 0.32187,-0.19892 3.44837,2.8236 3.44837,3.33365 0,0.6284 -1.57322,2.33168 -2.67116,2.89181 -0.56801,0.28977 -1.03301,0.70298 -1.03301,0.91829 0,1.25535 3.51357,-1.04613 4.22713,-2.76882 0.37411,-0.90318 1.06454,-0.81794 1.06454,0.13126 0,1.39904 -3.79383,4.08383 -6.35,4.49378 -2.316,0.37143 -5.01265,1.87255 -6.87917,3.82974 -1.88845,1.98018 -3.72176,4.22697 -4.98936,6.11332 -0.45137,0.6717 -1.32894,1.65204 -1.95027,2.17868 -0.62133,0.52663 -1.38036,1.19761 -1.68671,1.49087 -0.30635,0.29325 -0.62992,0.5333 -0.71882,0.5333 -0.0889,0 -1.73556,0.7739 -3.65921,1.71979 -1.92365,0.94588 -3.76886,1.71979 -4.10001,1.71979 -0.33116,0 -0.82101,0.235 -1.08882,0.52245 -0.47822,0.51331 -1.84427,0.6369 -2.51251,0.22738 -0.39805,-0.24393 1.5362,-1.01466 2.54816,-1.01544 1.24464,-8.6e-4 5.40114,-2.32135 6.0787,-3.3936 0.13913,-0.22016 0.46505,-0.29392 0.8599,-0.19482 0.64785,0.16264 0.75097,0.004 0.64595,-0.99735 -0.028,-0.26714 0.11637,-0.68385 0.32092,-0.92605 0.20455,-0.24217 0.64275,-0.91503 0.9741,-1.49499 0.56438,-0.98787 0.5908,-1.23972 0.41909,-3.98787 -0.211,-3.37685 -0.004,-4.14639 1.58802,-5.90869 1.03956,-1.15066 1.81063,-1.49947 1.08727,-0.49196 -1.49551,2.08298 -2.05557,4.32816 -1.34876,5.40691 0.34642,0.52869 0.41955,1.03237 0.30748,2.11822 -0.17606,1.7058 -0.92536,3.78581 -1.36374,3.78581 -0.17314,0 -0.55584,0.26789 -0.8506,0.59531 -1.65311,1.8363 -0.74809,1.63761 1.2051,-0.26458 1.37947,-1.34345 1.59948,-1.70322 1.88102,-3.07475 0.17539,-0.85424 0.23325,-1.9258 0.12868,-2.38125 -0.10457,-0.45545 -0.20526,-1.43967 -0.22376,-2.18746 -0.0283,-1.142 0.10353,-1.55139 0.82579,-2.55695 0.47294,-0.65845 0.85989,-1.32911 0.85989,-1.49035 0,-0.16123 0.29765,-0.42904 0.66146,-0.59479 0.7975,-0.36337 0.85165,-0.74517 0.13229,-0.93328 -0.50054,-0.1309 -0.75598,-0.60178 -0.33073,-0.60978 0.10914,-0.002 0.95911,-0.64988 1.88878,-1.44022 2.28132,-1.93943 2.99425,-3.19469 3.23391,-5.69475 0.10488,-1.09406 0.3301,-2.52481 0.50074,-3.17965 0.17064,-0.65485 0.32987,-1.59744 0.35347,-2.09444 0.0313,-0.65994 0.18884,-0.98891 0.44338,-0.97876 z m 101.72816,0.72089 0.87178,1.27744 c 1.63508,2.39672 2.36809,4.91352 2.49029,8.54935 0.0756,2.2481 -0.0912,2.93554 -0.41703,1.71979 -0.0878,-0.32742 -0.17035,-1.54781 -0.18345,-2.71198 -0.0131,-1.16417 -0.16353,-2.4995 -0.33435,-2.96726 -0.39865,-1.09157 -2.33529,-3.77658 -2.72541,-3.77858 -0.16407,-7.8e-4 -0.45222,-0.18679 -0.64027,-0.41341 -0.28724,-0.3461 -0.23968,-0.51276 0.29817,-1.04335 z m -1.61179,1.98748 c 0.0795,0.007 0.1481,0.10368 0.23823,0.26975 0.14685,0.27056 0.60434,0.88211 1.01699,1.35909 1.3355,1.54375 1.81178,2.78636 1.81178,4.72736 0,3.36124 1.49533,7.69621 2.90628,8.42584 0.41087,0.21247 1.01472,0.8357 1.34204,1.38493 0.32731,0.54923 1.13791,1.56445 1.80144,2.25567 0.66353,0.69122 1.13713,1.25677 1.05213,1.25677 -0.085,0 -1.06273,-0.59348 -2.17299,-1.31826 -2.32719,-1.51921 -4.48074,-3.58532 -5.51905,-5.29632 -0.39739,-0.65485 -0.87064,-1.39619 -1.05213,-1.64693 -0.27435,-0.37908 -0.246,-0.51718 0.16898,-0.82062 0.43229,-0.31613 0.47784,-0.59391 0.33952,-2.07532 -0.0878,-0.9406 -0.41376,-2.38822 -0.72399,-3.21738 -0.47862,-1.27923 -0.72826,-1.58705 -1.64796,-2.0314 -0.59613,-0.28802 -1.11457,-0.49308 -1.15187,-0.45579 -0.0374,0.0373 0.3235,0.68831 0.8015,1.44643 0.47801,0.75812 1.07235,2.02479 1.32085,2.81481 0.54411,1.72989 0.48288,3.76395 -0.11059,3.68195 -2.32336,-0.32121 -6.00506,-2.0187 -6.58926,-3.03806 -0.3522,-0.61456 -0.31163,-0.70377 0.77928,-1.72134 l 1.15084,-1.07332 0.77101,1.16375 c 0.95087,1.43557 2.82267,3.00447 3.58479,3.00447 0.8432,0 0.70515,-0.27087 -0.82424,-1.61489 -0.76214,-0.66978 -1.65826,-1.73169 -1.99161,-2.36006 l -0.60616,-1.14256 1.02836,-1.07953 c 0.56561,-0.59362 1.30249,-1.53853 1.63763,-2.10013 0.34283,-0.5745 0.50569,-0.81077 0.6382,-0.79891 z m -7.43727,7.74784 0.47335,0.72192 c 0.60534,0.9228 2.85183,2.34102 4.5837,2.89388 2.48655,0.79378 2.78982,1.00713 3.98736,2.80758 1.22872,1.84735 3.33665,3.77931 5.74332,5.26376 1.43533,0.88533 2.32149,1.84164 3.59823,3.88245 0.38693,0.61847 0.88528,1.12447 1.10742,1.125 0.22591,5.6e-4 0.60765,0.49765 0.86662,1.12758 0.53419,1.29937 0.56271,1.51774 0.19843,1.51774 -0.14553,0 -0.26458,-0.12077 -0.26458,-0.2682 0,-0.67365 -2.70083,-2.87838 -4.79971,-3.91811 -2.35669,-1.16745 -3.68599,-2.42923 -5.77432,-5.47873 -0.51419,-0.75088 -1.24648,-1.73083 -1.62678,-2.17765 -0.89091,-1.04675 -3.36931,-2.44481 -4.33358,-2.44481 -0.9593,0 -2.83469,-1.09634 -3.42977,-2.00453 -0.42913,-0.65494 -0.49049,-0.67255 -0.89761,-0.26252 -0.40658,0.40949 -0.33623,0.53701 1.01802,1.8402 1.25213,1.20493 1.64454,1.42548 2.8112,1.57975 1.91917,0.25378 3.97132,1.77738 5.04,3.74189 0.23749,0.43656 1.00867,1.45746 1.71411,2.26911 0.70543,0.81165 1.28261,1.71852 1.28261,2.01487 0,0.72381 1.68354,1.83679 3.12797,2.06809 0.79082,0.12664 1.68777,0.59971 2.91042,1.5353 1.92663,1.47429 2.43031,2.00084 3.12229,3.2644 0.35715,0.65215 0.40109,1.02556 0.20257,1.71773 l -0.25373,0.8847 -0.60307,-1.48673 c -0.33184,-0.81764 -0.923,-1.78618 -1.31361,-2.15284 -0.86306,-0.81013 -4.33063,-2.57401 -5.06016,-2.57401 -0.80354,0 -2.29277,-1.46204 -2.83651,-2.78432 -0.26752,-0.6505 -0.62735,-1.18338 -0.79944,-1.18391 -0.5915,-0.002 -0.64597,1.03972 -0.11679,2.23604 0.29014,0.65601 0.42931,1.25378 0.30903,1.32809 -0.12026,0.0743 -0.64287,-0.33427 -1.16117,-0.90796 -0.68277,-0.75575 -1.13728,-1.68454 -1.65055,-3.37137 -0.9373,-3.08039 -2.05169,-4.26604 -4.77025,-5.07566 -2.08142,-0.61988 -3.89392,-1.9865 -5.03793,-3.79873 -0.75674,-1.19875 -0.72322,-1.27133 1.33686,-2.90319 z m -79.98426,1.3255 0.71571,0.66353 c 0.39349,0.36486 0.66163,0.70793 0.59583,0.76223 -0.86439,0.71379 -2.5757,1.6673 -2.83187,1.57819 -0.29447,-0.10248 -0.44284,0.2299 -0.26458,0.59273 0.13054,0.26572 -1.55762,1.06915 -3.50573,1.66812 -4.00763,1.2322 -7.9375,3.70478 -7.9375,4.99453 0,0.31174 0.13944,0.61354 0.30954,0.67024 0.47545,0.15848 -1.96053,2.32499 -2.44791,2.17713 -0.26139,-0.0793 -0.52701,0.11052 -0.70693,0.50539 -0.44681,0.98064 -1.87571,2.4967 -3.21479,3.41116 -0.66865,0.45662 -1.33501,0.97579 -1.48053,1.15342 -0.14552,0.17763 -0.80036,0.49849 -1.45521,0.71314 -0.9494,0.31119 -1.20687,0.52625 -1.27227,1.06246 -0.0596,0.48881 -0.2764,0.71074 -0.79375,0.81236 -1.56985,0.30841 -3.22565,0.47587 -3.22565,0.32608 0,-0.0873 0.80569,-0.55686 1.79007,-1.04335 3.38211,-1.67149 5.09898,-3.21689 8.7235,-7.85379 2.65684,-3.39892 4.48769,-5.19005 6.20479,-6.06888 1.46085,-0.74767 4.18372,-1.70359 4.18372,-1.46864 0,0.059 0.86321,-0.32859 1.91823,-0.86145 1.14771,-0.57967 2.47603,-1.53637 3.30678,-2.38176 z m 76.16485,1.88671 c 0.0388,0.007 0.0216,0.0619 -0.0357,0.15451 -0.25403,0.41106 0.52675,1.8807 1.64072,3.08922 0.96872,1.05091 1.01338,1.15646 0.44597,1.048 -0.34831,-0.0666 -1.02212,-0.6427 -1.5043,-1.28623 -0.88902,-1.18652 -1.5689,-1.50731 -1.5689,-0.74052 0,1.10002 2.47853,3.27938 3.72949,3.27938 0.26011,0 0.54624,0.11907 0.63614,0.26459 0.28933,0.46816 -2.5823,0.25183 -3.70417,-0.27905 -0.58208,-0.27545 -1.23938,-0.50398 -1.46089,-0.50798 -0.5203,-0.009 -2.3789,-1.53772 -2.3642,-1.94459 0.006,-0.1713 0.86939,-0.90641 1.91823,-1.63401 1.5337,-1.06399 2.15128,-1.4655 2.26756,-1.44332 z m -73.78102,0.093 c 0.13167,0.005 0.25716,0.0483 0.40514,0.11575 0.35843,0.16331 0.65164,0.38894 0.65164,0.50126 0,0.23507 -1.75516,2.12641 -2.52439,2.72025 -1.11497,0.86075 -3.7938,1.82597 -5.83685,2.10271 -1.17906,0.15972 -2.54769,0.40626 -3.04116,0.54778 -0.49347,0.14153 -1.01675,0.25521 -1.16324,0.25321 -0.64611,-0.01 1.05807,-0.75971 5.81877,-2.56005 1.45242,-0.54926 1.44809,-0.54638 3.56464,-2.3027 1.28014,-1.06228 1.73044,-1.39304 2.12545,-1.37821 z m 1.50947,0.69039 1.07848,0.78135 1.07849,0.78135 -0.62528,1.29553 c -1.13685,2.35659 -3.02009,3.49022 -5.79913,3.49022 -0.9434,0 -2.28645,0.11466 -2.98483,0.25529 -0.69839,0.14064 -1.80599,0.31063 -2.46084,0.37723 -2.19915,0.22367 -3.03482,0.5038 -4.54752,1.52446 -0.82772,0.55848 -1.5752,1.1292 -1.6614,1.26866 -0.0862,0.13944 -0.52406,0.51538 -0.97307,0.83509 l -0.81648,0.58136 0.30437,-0.56896 c 0.16749,-0.31294 0.40734,-0.56896 0.53279,-0.56896 0.12544,0 0.56774,-0.29304 0.98288,-0.65112 0.41515,-0.35808 1.11167,-0.96054 1.54823,-1.33842 1.73752,-1.50394 2.81155,-1.93917 5.44721,-2.20762 2.79847,-0.28503 4.25943,-0.85486 6.45904,-2.51974 0.8061,-0.61014 1.54061,-1.4572 1.87999,-2.16834 z m 2.87631,2.11512 c 0.11407,0 4.71959,2.67743 5.00538,2.9099 0.14552,0.11837 1.43584,0.66283 2.86701,1.20975 2.73052,1.04349 3.16172,1.41783 3.48557,3.0241 0.10269,0.50932 0.5491,1.61271 0.99167,2.45205 0.44258,0.83934 0.75718,1.56253 0.69918,1.60714 -1.37305,1.0546 -2.99385,1.7089 -4.61419,1.86345 -1.01298,0.0966 -2.59681,0.31595 -3.52019,0.4873 -1.45269,0.26959 -1.80023,0.45312 -2.57969,1.36375 -0.79875,0.93316 -0.90124,1.22512 -0.90124,2.5771 0,2.38984 -1.09575,4.0687 -3.43958,5.26893 -1.93573,0.99125 -3.8011,2.84196 -4.37234,4.33772 -0.25398,0.66503 -0.56356,1.20923 -0.68782,1.20923 -0.41051,0 -2.05493,-2.75818 -2.2965,-3.85196 -0.53185,-2.40807 0.3762,-4.80785 2.50941,-6.63164 0.70155,-0.5998 1.4779,-1.44121 1.72496,-1.86965 0.43276,-0.75046 0.42548,-0.82995 -0.19844,-2.17661 -0.73626,-1.58915 -0.7755,-2.20742 -0.26923,-4.25556 0.65355,-2.6439 1.60363,-4.38023 2.87579,-5.25549 1.3188,-0.90736 1.77819,-1.53765 2.29185,-3.14503 0.19764,-0.61847 0.3904,-1.12448 0.4284,-1.12448 z m 63.61213,0.7891 c 0.24553,0.006 0.58647,0.30786 1.34514,1.08676 0.75407,0.77418 1.59917,1.37219 2.07378,1.46709 1.36065,0.27213 1.48009,0.69296 0.64389,2.26756 -0.40911,0.77035 -1.00075,1.75813 -1.31517,2.1947 -2.09664,2.91108 -2.14225,4.59976 -0.18345,6.80527 1.44332,1.6251 2.45476,3.68431 2.45876,5.00279 10e-4,0.52812 -0.30536,1.63321 -0.68213,2.45618 -0.58072,1.26848 -0.65642,1.7065 -0.49764,2.87632 0.20364,1.50028 0.96808,3.24398 1.50637,3.43596 0.18584,0.0663 0.26318,0.20134 0.17208,0.30024 -0.34108,0.37024 -2.00381,0.39141 -3.5388,0.045 -1.89125,-0.42685 -6.08339,-2.31674 -6.96495,-3.13986 -1.1518,-1.07545 -1.59763,-2.47931 -1.65623,-5.21415 -0.038,-1.77025 -0.90598,-3.5338 -2.05827,-4.18166 -1.1286,-0.63454 -2.43369,-2.04778 -3.37654,-3.65662 -0.75362,-1.28597 -0.70664,-2.02455 0.25425,-4.00234 0.48542,-0.99915 0.50822,-1.23113 0.20464,-2.07068 -0.188,-0.51993 -0.30137,-0.97416 -0.25167,-1.00976 0.36225,-0.25944 3.02764,-1.21853 3.38636,-1.21853 0.65787,0 7.73134,-2.84379 8.17366,-3.2861 0.10245,-0.10246 0.19432,-0.16087 0.30592,-0.15813 z m 10.65517,1.69395 c 0.18583,0.0151 0.41683,0.10389 0.75137,0.27079 0.46432,0.23162 1.0343,0.42385 1.26659,0.42685 1.09495,0.0152 2.15331,1.48718 2.94711,4.09845 0.98751,3.24854 2.37535,4.72739 4.48655,4.78059 0.65484,0.0165 1.84546,0.29802 2.64583,0.6258 4.06499,1.66477 5.59808,2.83142 5.52318,4.2044 -0.0211,0.38742 0.0525,1.44901 0.16381,2.35851 0.14161,1.15698 0.11403,1.65364 -0.0915,1.65364 -0.16154,0 -0.37528,-0.32742 -0.47542,-0.7276 -0.35692,-1.42629 -1.22657,-3.11864 -1.91099,-3.71863 -1.26436,-1.10839 -3.03906,-2.16835 -3.62976,-2.16835 -0.31998,0 -1.37105,-0.24413 -2.33577,-0.54209 -1.40631,-0.43436 -2.06814,-0.84084 -3.3383,-2.05052 -1.50525,-1.4336 -1.61122,-1.6188 -2.12493,-3.72277 -0.53815,-2.20404 -1.13212,-3.4742 -1.62471,-3.4742 -0.14222,0 -0.5612,-0.23813 -0.93121,-0.52917 -0.36999,-0.29104 -1.01397,-0.52917 -1.43092,-0.52917 -0.83235,0 -0.96903,-0.2897 -0.37104,-0.78599 0.1534,-0.12731 0.29424,-0.18561 0.48008,-0.17054 z m -90.62548,1.22215 c 0.2257,0.0259 -0.28178,0.57303 -1.27486,1.19993 -0.56695,0.3579 -1.12142,0.65112 -1.23196,0.65112 -0.26274,0 0.97779,-1.09638 1.72134,-1.52135 0.42906,-0.24522 0.68289,-0.34145 0.78548,-0.3297 z m 29.12329,1.99523 c 0.10936,-0.003 0.27124,0.0374 0.5085,0.11214 0.40017,0.12606 1.7065,0.30142 2.90318,0.38912 1.19668,0.0877 2.33916,0.22177 2.53834,0.29817 0.25305,0.0971 0.36116,0.63334 0.35916,1.78025 -0.004,2.17996 0.43185,3.37981 1.86448,5.13871 1.19033,1.4614 1.73297,2.52069 3.10162,6.05286 0.76229,1.96732 0.75467,1.79327 0.28474,6.51433 -0.1925,1.93389 0.52362,5.41612 1.93683,9.41958 1.06796,3.02544 2.07059,4.87795 2.55592,4.72219 0.44471,-0.14271 0.4638,-1.25075 0.03,-1.73012 -0.47472,-0.52456 -1.53243,-3.22652 -2.44016,-6.23321 -0.67155,-2.22353 -0.85302,-4.86391 -0.66766,-9.70432 0.0913,-2.38483 0.048,-2.64751 -0.70384,-4.23334 -0.44087,-0.92991 -0.93574,-2.19656 -1.09967,-2.81481 -0.18091,-0.68232 -0.71031,-1.54443 -1.34669,-2.19366 -1.48439,-1.51438 -2.17985,-3.00862 -2.21175,-4.75165 -0.0256,-1.3973 -5.8e-4,-1.45295 0.63459,-1.39785 3.79169,0.32886 6.81948,0.69092 7.14375,0.85421 0.23478,0.11823 0.51604,0.89124 0.68833,1.89291 0.18163,1.05605 0.7491,2.57566 1.50843,4.038 0.66962,1.28956 1.3602,3.01597 1.53479,3.83645 0.40935,1.92354 0.39459,5.69523 -0.0326,8.31681 -0.64897,3.98301 -0.002,7.3635 1.85725,9.71155 0.4427,0.55894 1.051,1.57246 1.35185,2.25258 0.71134,1.6081 1.55856,5.84749 1.55856,7.799 0,2.251 -1.36975,6.42465 -2.28461,6.96082 -0.50909,0.29836 -0.44894,0.7159 0.1018,0.7059 0.80462,-0.0146 1.37866,-0.66852 2.06138,-2.34869 1.43148,-3.52289 1.61411,-5.24197 0.91467,-8.62273 -0.15053,-0.7276 -0.33155,-1.82025 -0.40204,-2.42776 -0.1493,-1.28575 -1.01421,-3.42569 -1.69189,-4.18683 -0.25913,-0.29104 -0.87262,-1.24353 -1.36374,-2.11666 -0.88382,-1.57111 -0.8927,-1.62164 -0.8847,-4.8948 0.005,-1.81901 0.10139,-4.37885 0.21497,-5.68854 0.28089,-3.23889 -0.67672,-7.93247 -2.08359,-10.21178 -0.56673,-0.91816 -0.93555,-1.85735 -0.94155,-2.39623 -0.005,-0.48739 -0.17961,-1.1834 -0.38757,-1.5472 -0.57433,-1.00467 -0.49817,-1.09375 0.8599,-1.00665 l 1.25677,0.0806 0.16536,1.32292 c 0.237,1.89811 1.0805,3.94626 1.67225,4.06022 0.44168,0.0851 0.47347,-0.0333 0.31678,-1.18908 -0.0957,-0.7061 -0.42172,-1.62072 -0.72451,-2.03243 -0.37802,-0.51396 -0.49826,-0.95635 -0.38395,-1.4118 l 0.16639,-0.66353 2.30426,0.18707 c 1.26738,0.10286 2.35467,0.23256 2.41587,0.28836 0.0612,0.0558 -0.13427,0.36924 -0.43408,0.69608 -0.88316,0.96278 -1.8218,3.08259 -2.42311,5.47305 -0.66346,2.63756 -0.7484,4.77852 -0.18965,4.77852 0.24967,0 0.43112,-0.4569 0.55139,-1.38907 0.72759,-5.63931 2.92612,-9.75131 5.42757,-10.15131 0.58163,-0.093 1.0573,-0.0879 1.0573,0.0114 0,0.59452 -1.24044,2.72065 -2.25206,3.85972 -1.6361,1.84216 -2.13656,2.94108 -2.913,6.39702 -0.36969,1.64551 -0.7814,3.40878 -0.91467,3.91811 -0.13327,0.50932 -0.31803,2.23574 -0.41083,3.83646 -0.15155,2.61383 -0.10224,3.13961 0.48679,5.15937 0.36072,1.23693 0.74072,2.66568 0.8444,3.175 0.10368,0.50932 0.48595,1.52135 0.84956,2.24896 1.23387,2.46912 1.92856,5.04019 1.92856,7.1391 0,1.08007 -0.10525,2.23715 -0.23409,2.57142 -0.12883,0.33427 -0.43711,1.3226 -0.68471,2.19573 -0.56089,1.97791 -2.37048,5.73917 -3.43701,7.14375 -0.44198,0.58208 -0.95229,1.32443 -1.13429,1.65003 -2.73908,4.90034 -2.73468,4.88932 -2.26498,5.23276 0.42464,0.31043 0.42482,0.42453 0.002,1.9451 -0.24697,0.88829 -0.44907,2.15261 -0.44907,2.80965 h 5.2e-4 c 0,0.65704 -0.11843,1.19475 -0.26304,1.19475 -0.44541,0 -1.76349,-2.03217 -2.4815,-3.8256 -0.76807,-1.91913 -1.23528,-6.33627 -0.77825,-7.36234 0.50089,-1.12454 1.44822,-4.04051 1.95234,-6.00997 1.17209,-4.579 0.31457,-8.00248 -2.84892,-11.37709 -0.47746,-0.50932 -0.86923,-1.01162 -0.87023,-1.11569 -10e-4,-0.10408 -0.34677,-0.58124 -0.76792,-1.06092 -0.42116,-0.47967 -1.28436,-2.06149 -1.91823,-3.51503 l -1.1529,-2.64273 -0.002,-5.55625 -0.002,-5.55625 -0.80202,-1.38183 c -0.44111,-0.75999 -2.01631,-2.63357 -3.50005,-4.16357 -2.37776,-2.45192 -2.85488,-3.10853 -4.02456,-5.53351 -0.72988,-1.5132 -1.32705,-2.99675 -1.32705,-3.29696 0,-0.29663 0.0368,-0.42375 0.21911,-0.42891 z m 36.79103,0.44286 c 0.93736,0.0105 0.95146,0.79182 0.1571,2.87063 -0.90941,2.3799 -2.43988,4.32128 -3.97547,5.0431 -0.65337,0.30712 -1.6423,1.07476 -2.1978,1.70584 -1.75079,1.98899 -3.5508,4.88409 -3.6375,5.85029 -0.0448,0.49937 -0.26543,1.62502 -0.48989,2.50114 -0.88061,3.43737 -0.36883,5.1088 2.55902,8.3597 2.46651,2.73867 3.11595,4.20599 3.31401,7.48946 0.3102,5.1424 -1.02405,7.89602 -7.3024,15.06988 -1.08251,1.23693 -2.06943,2.36187 -2.19315,2.50011 -0.60661,0.6779 -0.11475,-0.44879 0.83302,-1.90738 0.58208,-0.8958 1.05834,-1.69115 1.05834,-1.76785 0,-0.0767 0.33614,-0.83293 0.74672,-1.68052 1.53607,-3.17104 2.29796,-6.06644 2.27687,-8.65373 -0.0207,-2.54273 -0.31056,-3.65486 -2.03399,-7.80521 -0.51363,-1.23693 -1.05929,-2.84427 -1.21233,-3.57187 -0.15304,-0.7276 -0.4611,-2.09682 -0.68471,-3.04271 -0.33327,-1.4096 -0.35774,-2.22087 -0.13746,-4.49792 0.14782,-1.52797 0.43541,-3.31391 0.63924,-3.96875 0.20383,-0.65485 0.51162,-1.90499 0.68419,-2.77812 0.43325,-2.19191 1.10006,-3.58377 2.44068,-5.09323 1.61025,-1.81304 2.33732,-3.08099 2.39262,-4.17287 0.0456,-0.89965 0.11095,-0.96023 1.46968,-1.35651 2.35086,-0.68564 2.31318,-0.30681 -0.45165,4.53719 -0.66448,1.16416 -1.84351,2.90937 -2.62052,3.87832 -1.01889,1.27058 -1.74571,2.59544 -2.60707,4.75216 -1.13416,2.83977 -1.19735,3.13439 -1.24695,5.85391 -0.0412,2.25967 0.0291,2.91385 0.33228,3.10162 0.21133,0.13078 0.46088,0.19071 0.55448,0.1328 0.0936,-0.0578 0.24212,-1.53921 0.33022,-3.2923 0.14217,-2.8277 0.2649,-3.444 1.08624,-5.45858 0.5092,-1.249 1.43625,-2.94408 2.05982,-3.76722 3.2531,-4.29413 5.47538,-8.30934 5.35316,-9.67124 -0.0746,-0.83178 -0.011,-0.95353 0.49713,-0.95653 0.32048,-0.002 1.01657,-0.0745 1.54719,-0.16226 0.17192,-0.0284 0.32498,-0.0428 0.45888,-0.0413 z m -32.51222,0.79375 c -0.45842,-0.0111 -0.46316,1.17318 0.003,2.9962 0.56883,2.22412 0.951,3.05013 2.45876,5.31854 0.91323,1.37395 1.16509,1.59539 1.62471,1.42576 0.90822,-0.33524 0.76238,-0.92992 -0.59376,-2.42104 -1.64041,-1.80367 -1.85872,-2.23049 -2.54093,-4.96353 -0.30741,-1.23157 -0.6915,-2.28322 -0.8537,-2.33732 -0.0346,-0.0115 -0.0676,-0.0179 -0.0982,-0.0186 z m -39.27616,2.92748 c 0.28645,-0.0272 0.39784,0.51388 0.10852,0.86247 -0.17587,0.21191 -0.41302,0.38551 -0.5271,0.38551 -0.25401,0 -0.0121,-1.01529 0.28578,-1.19941 0.0474,-0.0293 0.0919,-0.0447 0.1328,-0.0486 z m 48.26062,1.54667 c -0.0785,-0.005 -0.15737,-10e-4 -0.23564,0.0114 -0.52283,0.0836 -0.51424,0.14113 0.26045,1.71204 1.92509,3.90365 2.33983,7.07492 1.57148,12.01787 -0.28955,1.86276 -0.52659,3.96532 -0.52659,4.67207 0,2.64126 0.88295,4.83223 3.75326,9.31778 1.12019,1.75049 1.32228,2.84968 1.1374,6.17998 -0.1583,2.85109 -0.54408,5.06631 -1.15032,6.60218 -0.23838,0.60393 -0.21771,0.7276 0.12196,0.7276 0.22507,0 0.6089,-0.20014 0.85318,-0.44441 0.77854,-0.77854 0.69368,0.22036 -0.18965,2.23294 -1.0023,2.28366 -1.94868,6.56603 -1.78181,8.06359 0.0691,0.62019 0.13505,1.80152 0.14625,2.62464 0.0184,1.34982 0.0712,1.48307 0.53743,1.36116 0.47377,-0.12389 0.51485,-0.37 0.49455,-2.95176 -0.0244,-3.09168 0.47576,-5.85281 1.49293,-8.24032 0.66594,-1.56321 1.13802,-4.23334 0.74827,-4.23334 -0.13006,0 -0.37935,0.14267 -0.55397,0.3173 -0.42202,0.42201 -0.40154,0.17524 0.13281,-1.5999 0.33411,-1.10994 0.45402,-2.51955 0.46302,-5.46427 0.0113,-3.52672 -0.0465,-4.06209 -0.51676,-4.80539 -4.83449,-7.64194 -4.8141,-7.56117 -3.83698,-15.17065 0.54404,-4.23672 -0.0739,-8.91093 -1.45779,-11.0231 -0.21631,-0.33015 -0.39378,-0.76852 -0.39378,-0.9741 0,-0.47446 -0.52019,-0.90108 -1.0697,-0.93328 z m -51.31211,1.71618 c 0.0258,-0.002 0.0462,0.002 0.0605,0.0103 0.31986,0.19769 0.004,0.5468 -0.90537,1.00046 -1.20439,0.60083 -1.26625,0.49984 -0.22324,-0.36484 0.44354,-0.36771 0.88767,-0.63259 1.06815,-0.64595 z m 118.9023,5.11648 c 0.0895,0.0148 0.15102,0.15201 0.14521,0.4532 -0.005,0.26679 -0.1843,0.78289 -0.39842,1.1467 -0.38566,0.65523 -0.38873,0.6514 -0.32143,-0.37672 0.0457,-0.69777 0.37765,-1.25584 0.57464,-1.22318 z m -52.37871,16.13906 c -0.11513,-0.0101 -0.21872,0.0244 -0.30593,0.11163 -0.0904,0.0904 0.17645,0.83862 0.59325,1.66243 1.45058,2.86702 1.34966,6.69231 -0.26458,10.00817 -0.64746,1.33003 -0.81182,1.90313 -0.58653,2.04639 0.52563,0.33427 0.98338,0.23107 1.13429,-0.2558 0.079,-0.25467 0.43057,-1.11787 0.78135,-1.91823 0.77486,-1.76793 1.27873,-5.37987 1.0387,-7.44812 -0.21665,-1.86654 -1.58465,-4.13568 -2.39055,-4.20647 z"
       style="fill:#000000;stroke-width:0.264583"
       id="path880-3" />
  </g>
</svg>
