<?xml version="1.0" encoding="UTF-8" standalone="no"?>
<svg
   xmlns:dc="http://purl.org/dc/elements/1.1/"
   xmlns:cc="http://creativecommons.org/ns#"
   xmlns:rdf="http://www.w3.org/1999/02/22-rdf-syntax-ns#"
   xmlns:svg="http://www.w3.org/2000/svg"
   xmlns="http://www.w3.org/2000/svg"
   xmlns:sodipodi="http://sodipodi.sourceforge.net/DTD/sodipodi-0.dtd"
   xmlns:inkscape="http://www.inkscape.org/namespaces/inkscape"
   version="1.1"
   width="100"
   height="100"
   id="svg14"
   sodipodi:docname="WB.svg"
   inkscape:version="1.0 (4035a4fb49, 2020-05-01)">
  <metadata
     id="metadata20">
    <rdf:RDF>
      <cc:Work
         rdf:about="">
        <dc:format>image/svg+xml</dc:format>
        <dc:type
           rdf:resource="http://purl.org/dc/dcmitype/StillImage" />
        <dc:title />
      </cc:Work>
    </rdf:RDF>
  </metadata>
  <defs
     id="defs18" />
  <sodipodi:namedview
     inkscape:document-rotation="0"
     pagecolor="#ffffff"
     bordercolor="#666666"
     borderopacity="1"
     objecttolerance="10"
     gridtolerance="10"
     guidetolerance="10"
     inkscape:pageopacity="0"
     inkscape:pageshadow="2"
     inkscape:window-width="919"
     inkscape:window-height="1033"
     id="namedview16"
     showgrid="false"
     inkscape:zoom="1.0947791"
     inkscape:cx="36.037635"
     inkscape:cy="157.63151"
     inkscape:window-x="78"
     inkscape:window-y="0"
     inkscape:window-maximized="0"
     inkscape:current-layer="svg14" />
  <g
     id="g841"
     style="stroke:#cb0010;stroke-opacity:1;fill:#ffffff;fill-opacity:1">
    <g
       style="stroke:#cb0010;stroke-opacity:1;fill:#ffffff;fill-opacity:1"
       id="g845">
      <g
         id="g8"
         style="fill:#ffffff;fill-opacity:1;fill-rule:evenodd;stroke:#cb0010;stroke-width:1.5;stroke-linecap:butt;stroke-linejoin:round;stroke-miterlimit:4;stroke-dasharray:none;stroke-opacity:1"
         transform="matrix(2.2977744,0,0,2.2977744,-0.72611489,-0.72851235)">
        <path
           id="path2"
           d="m 9,36 c 3.39,-0.97 10.11,0.43 13.5,-2 3.39,2.43 10.11,1.03 13.5,2 0,0 1.65,0.54 3,2 -0.68,0.97 -1.65,0.99 -3,0.5 -3.39,-0.97 -10.11,0.46 -13.5,-1 C 19.11,38.96 12.39,37.53 9,38.5 7.646,38.99 6.677,38.97 6,38 7.354,36.06 9,36 9,36 Z"
           style="fill:#ffffff;fill-opacity:1;stroke:#cb0010;stroke-opacity:1" />
        <path
           id="path4"
           d="m 15,32 c 2.5,2.5 12.5,2.5 15,0 0.5,-1.5 0,-2 0,-2 0,-2.5 -2.5,-4 -2.5,-4 5.5,-1.5 6,-11.5 -5,-15.5 -11,4 -10.5,14 -5,15.5 0,0 -2.5,1.5 -2.5,4 0,0 -0.5,0.5 0,2 z"
           style="fill:#ffffff;fill-opacity:1;stroke:#cb0010;stroke-opacity:1" />
        <path
           id="path6"
           d="m 25,8 a 2.5,2.5 0 1 1 -5,0 2.5,2.5 0 1 1 5,0 z"
           style="fill:#ffffff;fill-opacity:1;stroke:#cb0010;stroke-opacity:1" />
      </g>
      <path
         id="path10"
         style="fill:#ffffff;fill-opacity:1;fill-rule:evenodd;stroke:#cb0010;stroke-width:3.44666;stroke-linecap:round;stroke-linejoin:miter;stroke-miterlimit:4;stroke-dasharray:none;stroke-opacity:1"
         d="M 39.484937,59.013622 H 62.462681 M 33.740501,68.20472 H 68.207117 M 50.973809,34.886991 v 11.488872 m -5.744436,-5.744436 h 11.488872" />
    </g>
  </g>
</svg>
