<?xml version="1.0" encoding="UTF-8" standalone="no"?>
<svg
   xmlns:dc="http://purl.org/dc/elements/1.1/"
   xmlns:cc="http://creativecommons.org/ns#"
   xmlns:rdf="http://www.w3.org/1999/02/22-rdf-syntax-ns#"
   xmlns:svg="http://www.w3.org/2000/svg"
   xmlns="http://www.w3.org/2000/svg"
   xmlns:sodipodi="http://sodipodi.sourceforge.net/DTD/sodipodi-0.dtd"
   xmlns:inkscape="http://www.inkscape.org/namespaces/inkscape"
   version="1.1"
   id="svg839"
   width="680"
   height="680"
   viewBox="0 0 680 680"
   sodipodi:docname="home.svg"
   inkscape:version="1.0 (4035a4fb49, 2020-05-01)">
  <metadata
     id="metadata845">
    <rdf:RDF>
      <cc:Work
         rdf:about="">
        <dc:format>image/svg+xml</dc:format>
        <dc:type
           rdf:resource="http://purl.org/dc/dcmitype/StillImage" />
        <dc:title></dc:title>
      </cc:Work>
    </rdf:RDF>
  </metadata>
  <defs
     id="defs843" />
  <sodipodi:namedview
     inkscape:document-rotation="0"
     pagecolor="#ff0000"
     bordercolor="#666666"
     borderopacity="1"
     objecttolerance="10"
     gridtolerance="10"
     guidetolerance="10"
     inkscape:pageopacity="0"
     inkscape:pageshadow="2"
     inkscape:window-width="1920"
     inkscape:window-height="1001"
     id="namedview841"
     showgrid="false"
     inkscape:zoom="1.3201222"
     inkscape:cx="198.07817"
     inkscape:cy="286.81762"
     inkscape:window-x="-9"
     inkscape:window-y="-9"
     inkscape:window-maximized="1"
     inkscape:current-layer="g847" />
  <g
     inkscape:groupmode="layer"
     inkscape:label="Image"
     id="g847">
    <path
       id="rect1414"
       style="fill:#000000;stroke:none;stroke-width:0.4;stroke-linejoin:round"
       d="M 0.9414062,0.9414062 V 681.78125 H 681.19336 V 0.9414062 Z M 457.26562,78.982422 l 5.66602,0.902344 c 15.09764,2.401021 23.74593,5.093723 30.47656,9.488281 3.95413,2.581726 10.15967,6.222249 13.78907,8.091797 6.2023,3.194886 6.445,3.511696 4.04101,5.269536 -4.57066,3.34216 -12.91406,4.82767 -21.30664,3.79296 -11.09838,-1.36832 -17.5107,-1.17013 -21.97656,0.67969 -3.60542,1.49341 -3.83785,2.08591 -4.25196,10.79883 l -0.4375,9.2168 3.66602,-0.002 c 3.38939,-0.003 3.66602,0.40006 3.66602,5.33008 v 5.33399 h 5.33398 5.33398 v -5.33399 -5.33398 h 11.48829 c 11.26368,0 11.47375,0.0588 10.68554,3 -0.44219,1.65 -0.81225,12.95351 -0.82226,25.11914 l -0.0195,22.11914 -3.33204,1.51953 -3.33398,1.51953 v 38.02734 38.0293 h 12 12 v 6.66602 c 0,6.22222 0.22287,6.66797 3.33398,6.66797 3.06174,0 3.33204,0.4889 3.33204,6 0,5.77778 0.14815,6 4,6 h 4 v 8 8 h 8.66796 8.66602 v -8 -8 h 15.33398 15.33204 v 8 8 h 8.66796 8.66602 v -8 -8 h 15.33398 15.33204 v 11.78515 c 0,6.48244 -0.38971,22.57223 -0.86719,35.75391 l -0.86914,23.96679 -5.13086,2.95313 -5.13281,2.95313 v 111.08007 111.07813 l -3.66602,1.70117 c -15.19443,7.04932 -32.59962,9.54511 -66.69726,9.5625 -25.05899,0.0133 -40.62934,-1.29053 -50.94532,-4.26563 -3.0967,-0.89308 -61.34138,-1.20867 -171.35742,-0.92968 -146.64035,0.37186 -168.18931,0.68301 -179.33398,2.59375 -15.54405,2.66503 -39.33211,3.55152 -60.902348,2.26953 -17.74662,-1.05474 -31.580375,-3.98645 -35.484374,-7.51953 -2.435021,-2.20365 -2.414607,-2.33841 0.777343,-5.08399 1.80346,-1.55128 6.889311,-3.53052 11.300781,-4.39843 l 8.021485,-1.57813 0.796875,-25.62891 c 0.43832,-14.09538 1.344575,-62.52695 2.015625,-107.62695 1.00795,-67.74259 0.911996,-82.23247 -0.552735,-83.33398 -0.975149,-0.73333 -3.618136,-2.35429 -5.873046,-3.60352 l -4.09961,-2.27148 v -34.72852 -34.72851 h 15.333985 15.333984 v 8 8 h 8.666015 8.66602 v -8 -8 h 14.66796 14.66602 v 8 8 h 8.66602 8.66796 v -8 c 0,-7.64444 0.14685,-8 3.33204,-8 3.06173,0 3.33398,-0.48889 3.33398,-6 0,-5.1111 0.39442,-6 2.66602,-6 2.31111,0 2.66796,-0.8902 2.66796,-6.66797 v -6.66602 h 11.33204 11.33398 l -0.008,-38.33398 -0.008,-38.33203 -3.99219,-2.27149 -3.99219,-2.27148 v -24.0625 -24.0625 h 11.33398 11.33204 v 5.33398 c 0,5.20635 0.11237,5.33399 4.66796,5.33399 4.55556,0 4.66602,-0.12765 4.66602,-5.33399 0,-5.03704 0.22223,-5.33398 4,-5.33398 h 4 v -24 c 0,-18.320458 0.39377,-23.995796 1.66602,-23.982425 0.91667,0.0096 7.2658,1.173797 14.10937,2.585937 10.28116,2.121473 14.57272,3.85566 24.69922,9.982422 6.74063,4.078226 12.99149,7.414066 13.89063,7.414066 3.03307,0 1.66308,2.58325 -2.51563,4.74414 -5.81659,3.00787 -17.31472,3.9387 -24.34375,1.9707 -4.96681,-1.39063 -7.07423,-1.30793 -13.36719,0.52148 l -7.47265,2.17188 v 9.29688 9.29492 h 4 c 3.77777,0 4,0.29694 4,5.33398 v 5.33399 h 5.33398 5.33398 v -5.33399 -5.33398 h 10.66602 10.66602 v 25.17187 25.17188 l -4,1.65625 -4,1.6582 v 44.50391 44.50586 h 6.66796 6.66602 v -6.66797 -6.66602 h 16 16 v 6.66602 6.66797 h 10 10 v -6.66797 -6.66602 h 16.66602 16.66796 v 6.66602 6.66797 h 10 10 v -6.66797 -6.66602 h 16.66602 16.66602 v 6.66602 6.66797 h 5.33398 5.33398 V 225.25191 180.6191 l -4,-2.06836 -4,-2.06836 -0.20117,-22.63281 c -0.11,-12.44784 -0.2587,-23.38216 -0.33203,-24.29883 -0.0945,-1.18107 3.0702,-1.78027 10.86524,-2.05469 l 11,-0.38671 v 5.38671 5.38868 h 5.33398 5.33398 v -5.33399 c 0,-5.03704 0.22223,-5.33398 4,-5.33398 h 4 v -24.11719 z" />
  </g>
</svg>
