<?xml version="1.0" encoding="UTF-8" standalone="no"?>
<svg
   xmlns:dc="http://purl.org/dc/elements/1.1/"
   xmlns:cc="http://creativecommons.org/ns#"
   xmlns:rdf="http://www.w3.org/1999/02/22-rdf-syntax-ns#"
   xmlns:svg="http://www.w3.org/2000/svg"
   xmlns="http://www.w3.org/2000/svg"
   xmlns:sodipodi="http://sodipodi.sourceforge.net/DTD/sodipodi-0.dtd"
   xmlns:inkscape="http://www.inkscape.org/namespaces/inkscape"
   width="150mm"
   height="150mm"
   viewBox="0 0 150 150"
   version="1.1"
   id="svg869"
   inkscape:version="1.0 (4035a4fb49, 2020-05-01)"
   sodipodi:docname="council rules.svg">
  <defs
     id="defs863" />
  <sodipodi:namedview
     fit-margin-bottom="0"
     fit-margin-right="0"
     fit-margin-left="0"
     fit-margin-top="0"
     id="base"
     pagecolor="#ffffff"
     bordercolor="#666666"
     borderopacity="1.0"
     inkscape:pageopacity="0.0"
     inkscape:pageshadow="2"
     inkscape:zoom="0.43080424"
     inkscape:cx="1033.9629"
     inkscape:cy="782.67564"
     inkscape:document-units="mm"
     inkscape:current-layer="layer1"
     inkscape:document-rotation="0"
     showgrid="false"
     inkscape:window-width="1920"
     inkscape:window-height="1001"
     inkscape:window-x="-9"
     inkscape:window-y="-9"
     inkscape:window-maximized="1" />
  <metadata
     id="metadata866">
    <rdf:RDF>
      <cc:Work
         rdf:about="">
        <dc:format>image/svg+xml</dc:format>
        <dc:type
           rdf:resource="http://purl.org/dc/dcmitype/StillImage" />
        <dc:title></dc:title>
      </cc:Work>
    </rdf:RDF>
  </metadata>
  <g
     transform="translate(-0.935783,-1.080381)"
     inkscape:label="Layer 1"
     inkscape:groupmode="layer"
     id="layer1">
    <path
       id="rect1655"
       style="fill:#000000;stroke-width:0.177374"
       d="M 0.935783,1.080381 V 151.08038 H 150.93579 V 1.080381 Z m 72.847721,8.450567 c 2.720473,0 4.080823,1.359899 4.080823,4.080373 0,2.720468 1.35989,4.080816 4.08037,4.080816 2.26707,0 4.08081,1.360421 4.08081,3.060722 0,1.700294 -1.81374,3.060281 -4.08081,3.060281 -6.18691,0 -5.45902,10.678366 1.18043,17.317805 l 5.26123,5.261235 6.71165,-4.148205 c 17.350143,-10.722986 41.852603,1.583217 45.286703,22.745093 1.59343,9.819243 -5.94828,26.248153 -17.45876,38.032392 l -8.61134,8.81616 2.17804,10.15777 c 4.24773,19.80639 8.2276,18.11812 -42.709146,18.11812 -42.431661,0 -44.887642,-0.20784 -44.887642,-3.80201 0,-2.09123 0.870164,-8.39234 1.934036,-14.00206 l 1.93448,-10.19961 -8.875607,-9.53057 C 2.065058,79.144221 1.646219,57.05226 22.753717,42.686634 31.566244,36.688872 44.715474,36.528168 52.088896,42.328101 l 5.380598,4.232332 6.003842,-4.742377 c 7.490451,-5.916661 8.932844,-18.004916 2.148537,-18.004916 -2.267058,0 -4.080373,-1.359987 -4.080373,-3.060281 0,-1.700301 1.813315,-3.060722 4.080373,-3.060722 2.720471,0 4.080815,-1.360348 4.080815,-4.080816 0,-2.720474 1.360341,-4.080373 4.080816,-4.080373 z" />
  </g>
</svg>
