<?xml version="1.0" encoding="UTF-8" standalone="no"?>
<svg
   xmlns:dc="http://purl.org/dc/elements/1.1/"
   xmlns:cc="http://creativecommons.org/ns#"
   xmlns:rdf="http://www.w3.org/1999/02/22-rdf-syntax-ns#"
   xmlns:svg="http://www.w3.org/2000/svg"
   xmlns="http://www.w3.org/2000/svg"
   xmlns:sodipodi="http://sodipodi.sourceforge.net/DTD/sodipodi-0.dtd"
   xmlns:inkscape="http://www.inkscape.org/namespaces/inkscape"
   version="1.1"
   id="svg2057"
   width="150"
   height="150"
   viewBox="0 0 150.00001 150.00002"
   sodipodi:docname="create-piece-invert-b1faae.svg"
   inkscape:version="1.0 (4035a4fb49, 2020-05-01)">
  <metadata
     id="metadata2063">
    <rdf:RDF>
      <cc:Work
         rdf:about="">
        <dc:format>image/svg+xml</dc:format>
        <dc:type
           rdf:resource="http://purl.org/dc/dcmitype/StillImage" />
        <dc:title />
      </cc:Work>
    </rdf:RDF>
  </metadata>
  <defs
     id="defs2061" />
  <sodipodi:namedview
     fit-margin-bottom="0"
     fit-margin-right="0"
     fit-margin-left="0"
     fit-margin-top="0"
     units="px"
     inkscape:document-rotation="0"
     pagecolor="#ffffff"
     bordercolor="#666666"
     borderopacity="1"
     objecttolerance="10"
     gridtolerance="10"
     guidetolerance="10"
     inkscape:pageopacity="0"
     inkscape:pageshadow="2"
     inkscape:window-width="1920"
     inkscape:window-height="1001"
     id="namedview2059"
     showgrid="false"
     inkscape:zoom="1.7753551"
     inkscape:cx="139.39285"
     inkscape:cy="-35.835176"
     inkscape:window-x="-9"
     inkscape:window-y="-9"
     inkscape:window-maximized="1"
     inkscape:current-layer="g2065" />
  <g
     transform="translate(-47.019389,-56.879698)"
     inkscape:groupmode="layer"
     inkscape:label="Image"
     id="g2065">
    <path
       style="fill:#b1faae;stroke-width:0.334728;fill-opacity:1"
       d="m 75.320765,206.26781 c 0.502504,-1.41246 1.779659,-7.86899 2.230538,-11.27622 1.272801,-9.61846 1.410375,-22.26184 0.33046,-30.36989 -0.879929,-6.60655 -5.952162,-21.79602 -10.291396,-30.81892 -4.060156,-8.4426 -8.696044,-14.63208 -13.837116,-18.47424 -4.376015,-3.27039 -6.300346,-6.00057 -6.677311,-9.47357 -0.253274,-2.33344 0.332218,-3.96317 1.998888,-5.56396 1.706223,-1.63878 3.690814,-2.323061 6.710127,-2.313633 2.601403,0.0081 4.284143,0.793752 5.839021,2.726083 1.538232,1.91164 2.150207,4.0526 1.841217,6.44139 -0.483278,3.7362 -0.36198,5.73069 0.454947,7.48064 2.196407,4.70496 12.896444,13.03799 17.339621,13.50384 1.470713,0.1542 1.666612,0.079 2.68314,-1.03021 1.295882,-1.414 1.811647,-3.13709 4.057881,-13.55679 3.257516,-15.110763 5.019172,-25.049903 5.335195,-30.100821 0.25634,-4.097071 -0.353494,-6.308487 -2.46611,-8.942753 -0.877265,-1.093882 -1.739272,-2.555491 -1.915575,-3.248022 -1.498643,-5.886857 2.825666,-13.851932 7.755789,-14.285621 1.499745,-0.131929 1.849258,-0.02517 3.054253,0.933027 2.889966,2.298031 5.222966,7.034422 5.461346,11.087455 0.15102,2.567628 0.15067,2.568952 -1.05212,4.021667 -1.18453,1.430625 -1.20081,1.489087 -1.04843,3.764213 0.29335,4.379908 4.56484,16.513643 10.16832,28.884445 4.73553,10.45468 6.12498,12.46629 8.66065,12.53885 2.13996,0.0612 3.48279,-1.4621 6.52512,-7.40224 3.42168,-6.68082 9.86573,-22.983874 11.77379,-29.786957 0.40453,-1.442308 0.74309,-3.503438 0.75239,-4.580288 0.0155,-1.79407 -0.087,-2.083459 -1.22459,-3.458211 -1.23742,-1.495385 -1.24097,-1.508215 -1.08322,-3.914085 0.37951,-5.787587 5.12065,-12.173291 9.03821,-12.173291 1.59907,0 2.71632,0.703989 4.44305,2.799581 1.71507,2.081467 2.78432,4.885819 3.01923,7.918727 0.24992,3.226757 -0.0866,4.519591 -1.6578,6.367072 -2.41522,2.840079 -2.58824,3.435263 -2.55496,8.788745 0.0328,5.274038 0.49676,8.32915 3.53113,23.251747 2.1702,10.6729 3.81704,17.69911 4.60397,19.64301 0.66586,1.64481 1.9544,2.5598 3.60489,2.5598 2.48441,0 10.71694,-5.43576 14.52853,-9.59287 3.51822,-3.83715 3.99874,-5.38777 3.49543,-11.27969 -0.22931,-2.68439 -0.19023,-2.98723 0.61809,-4.78999 1.92425,-4.29153 6.04084,-5.70151 11.20441,-3.837633 6.11636,2.207803 5.88274,10.224303 -0.444,15.235463 -4.72721,3.74425 -6.90758,5.78173 -8.87457,8.293 -11.43725,14.60193 -19.12769,41.17413 -17.70566,61.17704 0.44556,6.26741 1.80138,16.57484 2.68424,20.40656 l 0.70493,3.05944 h -46.91682 c -44.551979,0 -46.905839,-0.0308 -46.699125,-0.61189 z"
       id="path2630" />
  </g>
</svg>
