<?xml version="1.0" encoding="UTF-8" standalone="no"?>
<svg
   xmlns:dc="http://purl.org/dc/elements/1.1/"
   xmlns:cc="http://creativecommons.org/ns#"
   xmlns:rdf="http://www.w3.org/1999/02/22-rdf-syntax-ns#"
   xmlns:svg="http://www.w3.org/2000/svg"
   xmlns="http://www.w3.org/2000/svg"
   xmlns:sodipodi="http://sodipodi.sourceforge.net/DTD/sodipodi-0.dtd"
   xmlns:inkscape="http://www.inkscape.org/namespaces/inkscape"
   width="19.84375mm"
   height="7.9375mm"
   viewBox="0 0 19.84375 7.9375"
   version="1.1"
   id="svg8"
   inkscape:version="1.0 (4035a4fb49, 2020-05-01)"
   sodipodi:docname="my-pieces-reg.svg">
  <defs
     id="defs2" />
  <sodipodi:namedview
     id="base"
     pagecolor="#ffffff"
     bordercolor="#666666"
     borderopacity="1.0"
     inkscape:pageopacity="0.0"
     inkscape:pageshadow="2"
     inkscape:zoom="8"
     inkscape:cx="49.316097"
     inkscape:cy="25.850277"
     inkscape:document-units="mm"
     inkscape:current-layer="layer1"
     inkscape:document-rotation="0"
     showgrid="false"
     fit-margin-top="0"
     fit-margin-left="0"
     fit-margin-right="0"
     fit-margin-bottom="0"
     inkscape:window-width="1920"
     inkscape:window-height="1001"
     inkscape:window-x="-9"
     inkscape:window-y="-9"
     inkscape:window-maximized="1" />
  <metadata
     id="metadata5">
    <rdf:RDF>
      <cc:Work
         rdf:about="">
        <dc:format>image/svg+xml</dc:format>
        <dc:type
           rdf:resource="http://purl.org/dc/dcmitype/StillImage" />
        <dc:title />
      </cc:Work>
    </rdf:RDF>
  </metadata>
  <g
     inkscape:label="Layer 1"
     inkscape:groupmode="layer"
     id="layer1"
     transform="translate(127,80.886909)">
    <path
       transform="matrix(0.26458333,0,0,0.26458333,-127,-80.886909)"
       d="M 0 0 L 0 30 L 75 30 L 75 0 L 0 0 z M 14.806641 3.0019531 C 15.315073 2.9789553 15.853658 3.1178354 16.191406 3.3789062 C 16.316509 3.475511 16.468821 3.6779568 16.578125 3.8945312 C 16.741779 4.2187769 16.75819 4.2979369 16.757812 4.7363281 C 16.757472 5.2895943 16.666895 5.5414898 16.320312 5.9433594 C 15.869906 6.4659622 15.89477 6.5424001 16.689453 7.09375 C 18.602234 8.4211352 20.417327 10.015056 21.220703 11.072266 C 21.600205 11.571685 22.045184 12.426775 22.232422 13.015625 C 22.342028 13.360582 22.35969 13.526435 22.357422 14.193359 C 22.355608 14.889272 22.341204 15.016436 22.207031 15.400391 C 22.003693 15.99372 21.643432 16.655318 21.029297 17.564453 C 19.838859 19.32659 19.691228 20.022446 20.214844 21.376953 C 20.322182 21.654786 20.409778 21.933467 20.410156 21.996094 C 20.41061 22.135445 20.239786 22.177734 19.666016 22.177734 C 18.203527 22.177734 17.568988 22.553483 18.095703 23.107422 C 18.583262 23.620266 19.815248 23.865564 22.289062 23.945312 C 23.156464 23.973281 24.033469 24.023091 24.238281 24.054688 C 25.646193 24.271973 26.290305 24.704908 26.664062 25.683594 C 26.776314 25.977301 27 26.823569 27 26.955078 C 27 26.99567 26.02689 27.004734 23.691406 26.986328 C 20.133283 26.957982 19.466799 26.91584 18.410156 26.654297 C 17.26084 26.369812 16.674484 25.930328 15.542969 24.507812 C 15.275 24.171019 15.03829 23.895521 15.017578 23.894531 C 14.99868 23.893564 14.764869 24.164572 14.5 24.496094 C 13.422872 25.844138 12.809177 26.318027 11.761719 26.615234 C 10.721706 26.910302 9.3304966 26.998938 5.6777344 27 L 3 27 L 3.0351562 26.853516 C 3.3303374 25.639369 3.4728116 25.286473 3.828125 24.892578 C 4.2162069 24.46243 4.877565 24.178785 5.78125 24.054688 C 6.0189823 24.022184 6.8940204 23.973571 7.7246094 23.947266 C 9.8453401 23.880141 10.725451 23.744113 11.513672 23.357422 C 11.952437 23.142178 12.117188 22.973079 12.117188 22.742188 C 12.117188 22.404902 11.652255 22.238506 10.580078 22.193359 C 10.172343 22.175974 9.7803797 22.141086 9.7089844 22.115234 C 9.5536458 22.058919 9.5571351 22.035597 9.8398438 21.292969 C 10.006143 20.856717 10.049966 20.663357 10.072266 20.246094 C 10.116864 19.418317 9.9301262 18.95595 8.984375 17.541016 C 7.9639781 16.014635 7.6712114 15.324823 7.6269531 14.347656 C 7.5967169 13.681326 7.6821351 13.225108 7.9648438 12.554688 C 8.38868 11.548759 9.062288 10.630376 10.140625 9.5859375 C 10.909116 8.8415747 11.254908 8.5658895 12.753906 7.5117188 C 13.390492 7.0640186 13.943871 6.6605434 13.982422 6.6152344 C 14.084469 6.4951966 14.021431 6.3272393 13.740234 5.9746094 C 13.328568 5.4572865 13.166529 4.6593068 13.349609 4.0449219 C 13.476224 3.6201105 13.894422 3.2023572 14.316406 3.0800781 C 14.470545 3.0354136 14.637163 3.0096191 14.806641 3.0019531 z M 44.958984 4.25 L 47.425781 4.25 L 50.585938 11.064453 L 53.693359 4.25 L 56.160156 4.25 L 56.160156 4.4882812 L 55.859375 4.4882812 C 55.486865 4.4882812 55.222514 4.5996011 55.068359 4.8222656 C 54.974123 4.9592861 54.927734 5.271627 54.927734 5.7597656 L 54.927734 11.449219 C 54.927734 11.984458 54.987485 12.318432 55.107422 12.451172 C 55.26591 12.631002 55.516899 12.722656 55.859375 12.722656 L 56.160156 12.722656 L 56.160156 12.958984 L 52.460938 12.958984 L 52.460938 12.722656 L 52.769531 12.722656 C 53.142067 12.722656 53.402889 12.611336 53.552734 12.388672 C 53.646971 12.251651 53.693359 11.937357 53.693359 11.449219 L 53.693359 5.6308594 L 50.335938 12.958984 L 50.123047 12.958984 L 46.757812 5.6308594 L 46.757812 11.449219 C 46.757812 11.984458 46.815987 12.318432 46.931641 12.451172 C 47.090129 12.631002 47.33914 12.722656 47.681641 12.722656 L 47.990234 12.722656 L 47.990234 12.958984 L 44.958984 12.958984 L 44.958984 12.722656 L 45.267578 12.722656 C 45.635805 12.722656 45.896627 12.611336 46.050781 12.388672 C 46.145017 12.251651 46.191406 11.937357 46.191406 11.449219 L 46.191406 5.7597656 C 46.191406 5.3743924 46.150122 5.0951037 46.064453 4.9238281 C 46.004485 4.799658 45.89324 4.696595 45.730469 4.6152344 C 45.571981 4.5295903 45.31431 4.4882812 44.958984 4.4882812 L 44.958984 4.25 z M 56.507812 7.0761719 L 59.25 7.0761719 L 59.25 7.3144531 L 59.115234 7.3144531 C 58.922478 7.3144531 58.776153 7.3557629 58.677734 7.4414062 C 58.583498 7.5227669 58.537109 7.6258299 58.537109 7.75 C 58.537109 7.9170047 58.606693 8.1479162 58.748047 8.4433594 L 60.181641 11.412109 L 61.498047 8.1621094 C 61.570866 7.9865377 61.607422 7.811888 61.607422 7.640625 C 61.607422 7.5635478 61.592484 7.507276 61.5625 7.46875 C 61.528232 7.4216571 61.47321 7.3850758 61.400391 7.359375 C 61.327572 7.3293907 61.199713 7.3144531 61.015625 7.3144531 L 61.015625 7.0761719 L 62.929688 7.0761719 L 62.929688 7.3144531 C 62.771199 7.331587 62.650122 7.3646392 62.564453 7.4160156 C 62.478784 7.467392 62.384053 7.5637742 62.28125 7.7050781 C 62.242699 7.7650214 62.169587 7.9294537 62.0625 8.1992188 L 59.666016 14.070312 C 59.434709 14.639807 59.130624 15.070158 58.753906 15.361328 C 58.381371 15.652498 58.022616 15.798828 57.675781 15.798828 C 57.423158 15.798828 57.215456 15.725666 57.052734 15.580078 C 56.889963 15.434491 56.808594 15.266527 56.808594 15.078125 C 56.808594 14.898295 56.866768 14.753918 56.982422 14.642578 C 57.102359 14.535542 57.265223 14.482422 57.470703 14.482422 C 57.612057 14.482422 57.804822 14.528836 58.048828 14.623047 C 58.220167 14.687274 58.326306 14.71875 58.369141 14.71875 C 58.497645 14.71875 58.637289 14.652268 58.787109 14.519531 C 58.941314 14.386794 59.095896 14.131095 59.25 13.75 L 59.666016 12.728516 L 57.554688 8.2890625 C 57.490436 8.1563255 57.387448 7.9918907 57.246094 7.7949219 C 57.139007 7.645051 57.050957 7.545517 56.982422 7.4941406 C 56.883902 7.4256304 56.724215 7.3658295 56.505859 7.3144531 L 56.507812 7.0761719 z M 44.105469 16.980469 C 44.285374 16.980469 44.436427 17.043421 44.560547 17.171875 C 44.689051 17.296045 44.753906 17.449061 44.753906 17.628906 C 44.753906 17.808736 44.689051 17.963328 44.560547 18.091797 C 44.436326 18.22025 44.285273 18.283203 44.105469 18.283203 C 43.925563 18.283203 43.770981 18.22025 43.642578 18.091797 C 43.514074 17.963343 43.449219 17.808751 43.449219 17.628906 C 43.449219 17.449076 43.510545 17.29606 43.634766 17.171875 C 43.76327 17.043421 43.921381 16.980469 44.105469 16.980469 z M 35.09375 17.404297 L 38.285156 17.404297 C 39.064444 17.404297 39.679294 17.485716 40.128906 17.648438 C 40.578519 17.806869 40.957342 18.075947 41.265625 18.457031 C 41.573934 18.838121 41.728516 19.290106 41.728516 19.8125 C 41.728516 20.523298 41.492514 21.101556 41.021484 21.546875 C 40.554763 21.992194 39.8935 22.214844 39.037109 22.214844 C 38.82722 22.214844 38.59945 22.199906 38.355469 22.169922 C 38.111311 22.139938 37.850514 22.0951 37.572266 22.035156 L 37.572266 24.572266 C 37.572266 25.12035 37.632016 25.46101 37.751953 25.59375 C 37.914725 25.782147 38.160584 25.875 38.490234 25.875 L 38.826172 25.875 L 38.826172 26.113281 L 35.09375 26.113281 L 35.09375 25.875 L 35.421875 25.875 C 35.790127 25.875 36.0525 25.755423 36.210938 25.515625 C 36.296601 25.382888 36.339844 25.068969 36.339844 24.572266 L 36.339844 18.945312 C 36.339844 18.397234 36.281669 18.056568 36.166016 17.923828 C 35.998961 17.735431 35.751525 17.642578 35.421875 17.642578 L 35.09375 17.642578 L 35.09375 17.404297 z M 38.414062 17.923828 C 38.195612 17.923828 37.914741 17.965514 37.572266 18.046875 L 37.572266 21.667969 C 37.799289 21.710778 38.000285 21.744208 38.175781 21.765625 C 38.351403 21.787042 38.500906 21.796875 38.625 21.796875 C 39.070329 21.796875 39.454257 21.625757 39.775391 21.283203 C 40.100833 20.936368 40.263672 20.489493 40.263672 19.941406 C 40.263672 19.5646 40.187408 19.215675 40.033203 18.894531 C 39.878998 18.569104 39.659511 18.326399 39.376953 18.167969 C 39.094345 18.005247 38.773748 17.923828 38.414062 17.923828 z M 49.050781 20.050781 C 49.710183 20.050781 50.251869 20.268323 50.675781 20.705078 C 51.099693 21.137552 51.310547 21.717392 51.310547 22.445312 L 47.246094 22.445312 C 47.241054 23.318824 47.451908 24.00525 47.880859 24.501953 C 48.309055 24.998654 48.812584 25.246094 49.390625 25.246094 C 49.776011 25.246094 50.10997 25.141455 50.392578 24.931641 C 50.679469 24.717543 50.918648 24.353671 51.111328 23.839844 L 51.310547 23.96875 C 51.220594 24.55537 50.959797 25.090361 50.527344 25.574219 C 50.09489 26.053793 49.553204 26.292969 48.902344 26.292969 C 48.195824 26.292969 47.589257 26.018788 47.083984 25.470703 C 46.583021 24.918335 46.333984 24.177221 46.333984 23.248047 C 46.333984 22.241796 46.589701 21.459363 47.103516 20.898438 C 47.621638 20.333224 48.271468 20.050781 49.050781 20.050781 z M 60.714844 20.050781 C 61.374245 20.050781 61.915932 20.268323 62.339844 20.705078 C 62.763756 21.137552 62.974609 21.71739 62.974609 22.445312 L 58.910156 22.445312 C 58.905117 23.318824 59.115971 24.00525 59.544922 24.501953 C 59.973117 24.998654 60.476621 25.246094 61.054688 25.246094 C 61.440046 25.246094 61.774033 25.141455 62.056641 24.931641 C 62.343532 24.717543 62.58271 24.353671 62.775391 23.839844 L 62.974609 23.96875 C 62.884657 24.55537 62.623835 25.090361 62.191406 25.574219 C 61.758928 26.053793 61.217266 26.292969 60.566406 26.292969 C 59.859887 26.292969 59.253294 26.018788 58.748047 25.470703 C 58.247058 24.918335 57.998047 24.177221 57.998047 23.248047 C 57.998047 22.241796 58.253764 21.459365 58.767578 20.898438 C 59.285701 20.333224 59.93553 20.050781 60.714844 20.050781 z M 44.355469 20.056641 L 44.638672 20.056641 L 44.638672 24.783203 C 44.638672 25.151448 44.663442 25.399262 44.714844 25.523438 C 44.770529 25.643319 44.850322 25.733025 44.953125 25.792969 C 45.060212 25.852912 45.252976 25.882812 45.53125 25.882812 L 45.53125 26.113281 L 42.671875 26.113281 L 42.671875 25.882812 C 42.958741 25.882812 43.151506 25.854488 43.25 25.798828 C 43.34852 25.743168 43.426737 25.651886 43.482422 25.523438 C 43.54239 25.394984 43.572266 25.147169 43.572266 24.783203 L 43.572266 22.517578 C 43.572266 21.879571 43.552223 21.465748 43.513672 21.277344 C 43.483688 21.140323 43.437299 21.045517 43.373047 20.994141 C 43.308795 20.938481 43.220745 20.910156 43.109375 20.910156 C 42.989438 20.910156 42.843088 20.943591 42.671875 21.007812 L 42.582031 20.775391 L 44.355469 20.056641 z M 54.933594 20.056641 C 55.51166 20.056641 55.98684 20.211233 56.359375 20.519531 C 56.731885 20.823546 56.917969 21.139042 56.917969 21.46875 C 56.917969 21.631471 56.864899 21.76443 56.757812 21.867188 C 56.655012 21.965679 56.508684 22.015625 56.320312 22.015625 C 56.067692 22.015625 55.878479 21.934206 55.75 21.771484 C 55.677181 21.681557 55.627263 21.510439 55.601562 21.257812 C 55.578888 21.005184 55.492411 20.812424 55.34375 20.679688 C 55.193829 20.551234 54.986127 20.486328 54.720703 20.486328 C 54.292508 20.486328 53.948691 20.646028 53.6875 20.962891 C 53.340665 21.382516 53.167969 21.935612 53.167969 22.625 C 53.167969 23.327234 53.339089 23.948759 53.681641 24.488281 C 54.028475 25.02352 54.495398 25.291016 55.082031 25.291016 C 55.50166 25.291016 55.876953 25.148217 56.210938 24.861328 C 56.446525 24.664364 56.675874 24.307178 56.898438 23.789062 L 57.085938 23.878906 C 56.927449 24.653934 56.616709 25.250294 56.154297 25.669922 C 55.691859 26.085267 55.180073 26.292969 54.619141 26.292969 C 53.951172 26.292969 53.367799 26.012102 52.871094 25.451172 C 52.374388 24.89024 52.126953 24.132602 52.126953 23.177734 C 52.126953 22.252841 52.401137 21.501887 52.949219 20.923828 C 53.501584 20.34577 54.162847 20.056641 54.933594 20.056641 z M 65.769531 20.056641 C 66.000838 20.056641 66.27975 20.106584 66.609375 20.205078 C 66.827832 20.269305 66.974157 20.300781 67.046875 20.300781 C 67.11541 20.300781 67.16848 20.285844 67.207031 20.255859 C 67.245582 20.2259 67.290395 20.159419 67.341797 20.056641 L 67.554688 20.056641 L 67.554688 22.060547 L 67.341797 22.060547 C 67.179025 21.431107 66.969747 21.002334 66.712891 20.775391 C 66.460267 20.548443 66.138068 20.435547 65.744141 20.435547 C 65.444399 20.435547 65.201692 20.51539 65.017578 20.673828 C 64.833389 20.832266 64.740234 21.006538 64.740234 21.199219 C 64.740234 21.439017 64.810195 21.645141 64.947266 21.816406 C 65.080053 21.991953 65.349107 22.178021 65.755859 22.375 L 66.693359 22.832031 C 67.562575 23.255941 67.998047 23.814144 67.998047 24.507812 C 67.998047 25.043052 67.793497 25.474979 67.386719 25.804688 C 66.984224 26.130111 66.534192 26.292969 66.033203 26.292969 C 65.673518 26.292969 65.261266 26.230016 64.798828 26.101562 C 64.657474 26.058754 64.541125 26.037109 64.451172 26.037109 C 64.352652 26.037109 64.276388 26.091805 64.220703 26.203125 L 64.007812 26.203125 L 64.007812 24.103516 L 64.220703 24.103516 C 64.34064 24.702984 64.569961 25.154969 64.908203 25.458984 C 65.246471 25.762999 65.625294 25.914062 66.044922 25.914062 C 66.34038 25.914062 66.579558 25.829466 66.763672 25.658203 C 66.952144 25.482631 67.046875 25.2714 67.046875 25.027344 C 67.046875 24.731893 66.942312 24.484455 66.732422 24.283203 C 66.526816 24.081956 66.112987 23.82783 65.492188 23.519531 C 64.871312 23.211233 64.464165 22.931944 64.271484 22.683594 C 64.078728 22.439512 63.982422 22.130328 63.982422 21.757812 C 63.982422 21.273958 64.14879 20.870347 64.478516 20.544922 C 64.8125 20.219494 65.242867 20.056641 65.769531 20.056641 z M 48.691406 20.505859 C 48.336005 20.505859 48.016983 20.645504 47.734375 20.923828 C 47.456051 21.197872 47.293187 21.581799 47.246094 22.074219 L 49.96875 22.074219 C 49.948593 21.69741 49.90378 21.431493 49.833984 21.277344 C 49.726898 21.037571 49.56561 20.847967 49.351562 20.710938 C 49.141677 20.573917 48.922562 20.505859 48.691406 20.505859 z M 60.353516 20.505859 C 59.998114 20.505859 59.679092 20.645504 59.396484 20.923828 C 59.11816 21.197872 58.957249 21.581799 58.910156 22.074219 L 61.632812 22.074219 C 61.610137 21.69741 61.565322 21.431493 61.498047 21.277344 C 61.39096 21.037571 61.229672 20.847969 61.015625 20.710938 C 60.805735 20.573917 60.584672 20.505859 60.353516 20.505859 z M 14.169922 22.767578 C 14.154804 22.767578 14.064248 22.817451 13.976562 22.878906 L 13.816406 22.990234 L 13.96875 23.169922 C 14.052656 23.268416 14.13981 23.351399 14.162109 23.353516 C 14.184787 23.355678 14.203125 23.224566 14.203125 23.0625 L 14.205078 23.0625 C 14.205078 22.900434 14.18882 22.767578 14.169922 22.767578 z M 17.105469 23.195312 C 16.918004 23.195312 16.896484 23.210494 16.896484 23.330078 C 16.896484 23.458506 16.910469 23.462891 17.234375 23.462891 L 17.574219 23.462891 L 17.445312 23.330078 C 17.351202 23.232491 17.25854 23.195312 17.105469 23.195312 z M 18.775391 24.867188 C 18.669186 24.879282 18.619516 24.918476 18.607422 25 C 18.592304 25.105146 18.635306 25.138464 18.826172 25.171875 C 18.84507 25.17553 18.87639 25.140541 18.894531 25.09375 C 18.965208 24.913844 18.931107 24.849764 18.775391 24.867188 z M 21.056641 25.107422 C 20.736137 25.070383 20.673207 25.099075 20.71875 25.269531 C 20.745207 25.361109 20.800122 25.390414 20.978516 25.40625 C 21.103618 25.417211 21.237217 25.432587 21.275391 25.4375 C 21.316587 25.443169 21.34375 25.384887 21.34375 25.292969 C 21.34375 25.148137 21.328011 25.138716 21.056641 25.107422 z M 7.6152344 25.392578 L 7.6152344 25.552734 C 7.6152344 25.713024 7.6158366 25.714844 7.9355469 25.714844 C 8.1732792 25.714844 8.2787288 25.690297 8.3398438 25.621094 C 8.5322217 25.402826 8.5188768 25.392578 8.0566406 25.392578 L 7.6152344 25.392578 z "
       style="opacity:0.997;fill:#000000;stroke:none;stroke-width:7.80794;stroke-linejoin:round;stroke-miterlimit:4;stroke-dasharray:none"
       id="rect833" />
    <text
       xml:space="preserve"
       style="font-size:2.64583333px;line-height:0.5;font-family:Garamond;-inkscape-font-specification:Garamond;text-align:center;text-anchor:middle;stroke-width:0.264583;"
       x="-113.25111"
       y="-78.430061"
       id="text856"><tspan
         sodipodi:role="line"
         id="tspan854"
         x="-113.25111"
         y="-78.430061"
         style="stroke-width:0.264583;font-size:2.64583333px;" /></text>
    <text
       xml:space="preserve"
       style="font-size:7.9375px;line-height:0.5;font-family:Garamond;-inkscape-font-specification:Garamond;text-align:center;text-anchor:middle;stroke-width:0.264583"
       x="-121.42485"
       y="-68.20108"
       id="text860"><tspan
         sodipodi:role="line"
         id="tspan858"
         x="-121.42485"
         y="-68.20108"
         style="stroke-width:0.264583" /></text>
    <text
       xml:space="preserve"
       style="font-size:2.64583px;line-height:0.5;font-family:Garamond;-inkscape-font-specification:Garamond;text-align:center;text-anchor:middle;stroke-width:0.264583;fill:#00ffff;"
       x="-117.43248"
       y="-77.296135"
       id="text864"><tspan
         sodipodi:role="line"
         id="tspan862"
         x="-117.43248"
         y="-77.296135"
         style="stroke-width:0.264583;fill:#00ffff;" /></text>
  </g>
</svg>
