<?xml version="1.0" encoding="UTF-8" standalone="no"?>
<svg
   xmlns:dc="http://purl.org/dc/elements/1.1/"
   xmlns:cc="http://creativecommons.org/ns#"
   xmlns:rdf="http://www.w3.org/1999/02/22-rdf-syntax-ns#"
   xmlns:svg="http://www.w3.org/2000/svg"
   xmlns="http://www.w3.org/2000/svg"
   xmlns:sodipodi="http://sodipodi.sourceforge.net/DTD/sodipodi-0.dtd"
   xmlns:inkscape="http://www.inkscape.org/namespaces/inkscape"
   inkscape:version="1.0 (4035a4fb49, 2020-05-01)"
   sodipodi:docname="my-pieces-invert-ffffff.svg"
   viewBox="0 0 150 149.99995"
   height="149.99995"
   width="150"
   id="svg1482"
   version="1.1">
  <metadata
     id="metadata1488">
    <rdf:RDF>
      <cc:Work
         rdf:about="">
        <dc:format>image/svg+xml</dc:format>
        <dc:type
           rdf:resource="http://purl.org/dc/dcmitype/StillImage" />
        <dc:title></dc:title>
      </cc:Work>
    </rdf:RDF>
  </metadata>
  <defs
     id="defs1486" />
  <sodipodi:namedview
     inkscape:current-layer="g1490"
     inkscape:window-maximized="1"
     inkscape:window-y="-9"
     inkscape:window-x="-9"
     inkscape:cy="-23.066253"
     inkscape:cx="85.934011"
     inkscape:zoom="1.2553656"
     showgrid="false"
     id="namedview1484"
     inkscape:window-height="1001"
     inkscape:window-width="1920"
     inkscape:pageshadow="2"
     inkscape:pageopacity="0"
     guidetolerance="10"
     gridtolerance="10"
     objecttolerance="10"
     borderopacity="1"
     bordercolor="#666666"
     pagecolor="#ffffff"
     inkscape:document-rotation="0"
     units="px"
     fit-margin-top="0"
     fit-margin-left="0"
     fit-margin-right="0"
     fit-margin-bottom="0" />
  <g
     id="g1490"
     inkscape:label="Image"
     inkscape:groupmode="layer"
     transform="translate(-42.334824,-34.99851)">
    <path
       id="path2055"
       d="m 42.558818,184.0774 c 1.845689,-7.58839 2.735005,-9.78624 4.955937,-12.24807 2.425359,-2.68844 6.56162,-4.46315 12.209724,-5.23874 1.485972,-0.20404 6.949105,-0.50539 12.140301,-0.66967 13.254447,-0.41942 18.754923,-1.2775 23.681308,-3.69428 2.742172,-1.34524 3.776252,-2.39674 3.776252,-3.83979 0,-2.10793 -2.90912,-3.14551 -9.610148,-3.42766 -2.548405,-0.1073 -4.998439,-0.32724 -5.444521,-0.48874 -0.972285,-0.35203 -0.949318,-0.49596 0.819732,-5.13726 1.039231,-2.72653 1.308485,-3.94404 1.448945,-6.55195 0.278655,-5.17357 -0.880046,-8.05673 -6.79191,-16.90005 -6.377473,-9.53983 -8.213096,-13.85625 -8.489779,-19.96353 -0.188675,-4.16456 0.349756,-7.017508 2.115193,-11.207651 2.648919,-6.287026 6.849914,-12.021217 13.589367,-18.548943 4.803129,-4.652235 6.973716,-6.3739 16.342331,-12.962422 3.97882,-2.798127 7.4313,-5.319201 7.67217,-5.602386 0.63819,-0.750287 0.24179,-1.799841 -1.51215,-4.0037 -2.57316,-3.233242 -3.58252,-8.228974 -2.43844,-12.068878 0.79106,-2.655074 3.40212,-5.259123 6.03953,-6.02333 3.85359,-1.116595 8.90259,-0.315084 11.71732,1.860087 0.78124,0.60373 1.73391,1.877274 2.41695,3.231055 1.02256,2.026656 1.1273,2.515594 1.12573,5.25554 -0.002,3.457905 -0.57275,5.03026 -2.73769,7.541927 -2.81539,3.266286 -2.65911,3.754091 2.30649,7.200001 11.95483,8.296135 23.29707,18.253819 28.31822,24.861364 2.37198,3.12138 5.15393,8.463016 6.32434,12.143312 0.68566,2.155987 0.79654,3.199184 0.78319,7.367444 -0.0139,4.34947 -0.1113,5.13517 -0.9336,7.53489 -1.2707,3.70829 -3.52316,7.84807 -7.36173,13.53016 -7.44015,11.01331 -8.37175,15.36778 -5.09894,23.83341 0.67135,1.73657 1.22175,3.47761 1.22309,3.86901 0.003,0.87092 -1.06363,1.13023 -4.64907,1.13023 -9.14023,0 -13.10275,2.34577 -9.81094,5.80798 3.04752,3.20527 10.74552,4.74567 26.20692,5.2441 5.42123,0.17477 10.90417,0.47941 12.18431,0.67698 8.79956,1.35813 12.82482,4.06014 15.16078,10.1769 0.70101,1.83562 2.09679,7.12707 2.09679,7.94901 0,0.25359 -6.08242,0.3111 -20.67897,0.19551 -22.23825,-0.1761 -26.40152,-0.43745 -33.00554,-2.07201 -7.18312,-1.77789 -10.84939,-4.52175 -17.92135,-13.41245 -1.67441,-2.10501 -3.15018,-3.83235 -3.27948,-3.83852 -0.1293,-0.006 -1.58973,1.68414 -3.24537,3.75623 -6.73197,8.42526 -10.56591,11.39421 -17.1127,13.25176 -6.499975,1.84428 -15.18836,2.39257 -38.018096,2.3992 l -16.73849,0.005 z m 33.147586,-7.70232 c 1.200572,-1.36404 1.127241,-1.42326 -1.762051,-1.42326 h -2.766014 v 1.00465 c 0,1.00169 0.0059,1.00465 2.006123,1.00465 1.485278,0 2.140045,-0.15215 2.521942,-0.58604 z m 81.276816,-2.04639 c 0,-0.90532 -0.0985,-0.96939 -1.79194,-1.16506 -2.00271,-0.23144 -2.39386,-0.0417 -2.10853,1.02291 0.15339,0.5723 0.50338,0.75748 1.61905,0.85664 0.78285,0.0696 1.61643,0.15284 1.85238,0.18502 0.25723,0.0351 0.42904,-0.32515 0.42904,-0.89951 z m -15.31,-1.24612 c 0.44222,-1.1244 0.23345,-1.5269 -0.73551,-1.4181 -0.66329,0.0744 -0.97532,0.32151 -1.04973,0.83112 -0.0959,0.65725 0.17069,0.86916 1.35622,1.07785 0.12139,0.0213 0.31445,-0.19953 0.42902,-0.49087 z m -9.0586,-11.02378 c -0.58739,-0.61007 -1.16232,-0.83721 -2.11913,-0.83721 -1.17178,0 -1.31305,0.09 -1.31305,0.83721 0,0.80263 0.0875,0.8372 2.11914,0.8372 h 2.11914 z m -20.24994,-1.67442 c 0,-1.01302 -0.0921,-1.84186 -0.20443,-1.84186 -0.11244,0 -0.65672,0.31424 -1.20953,0.6983 l -1.00509,0.69831 0.95211,1.11937 c 0.52366,0.61567 1.06795,1.13026 1.20952,1.14356 0.14158,0.0133 0.25742,-0.80466 0.25742,-1.81768 z"
       style="fill:#ffffff;stroke-width:0.339028" />
  </g>
</svg>
