<?xml version="1.0" encoding="UTF-8" standalone="no"?>
<svg
   xmlns:dc="http://purl.org/dc/elements/1.1/"
   xmlns:cc="http://creativecommons.org/ns#"
   xmlns:rdf="http://www.w3.org/1999/02/22-rdf-syntax-ns#"
   xmlns:svg="http://www.w3.org/2000/svg"
   xmlns="http://www.w3.org/2000/svg"
   xmlns:sodipodi="http://sodipodi.sourceforge.net/DTD/sodipodi-0.dtd"
   xmlns:inkscape="http://www.inkscape.org/namespaces/inkscape"
   sodipodi:docname="new-game-reg.svg"
   inkscape:version="1.0 (4035a4fb49, 2020-05-01)"
   id="svg8"
   version="1.1"
   viewBox="0 0 19.84375 7.9375"
   height="7.9375mm"
   width="19.84375mm">
  <defs
     id="defs2" />
  <sodipodi:namedview
     inkscape:window-maximized="1"
     inkscape:window-y="-9"
     inkscape:window-x="-9"
     inkscape:window-height="1001"
     inkscape:window-width="1920"
     fit-margin-bottom="0"
     fit-margin-right="0"
     fit-margin-left="0"
     fit-margin-top="0"
     showgrid="false"
     inkscape:document-rotation="0"
     inkscape:current-layer="layer1"
     inkscape:document-units="mm"
     inkscape:cy="11.575424"
     inkscape:cx="23.35831"
     inkscape:zoom="11.313708"
     inkscape:pageshadow="2"
     inkscape:pageopacity="0.0"
     borderopacity="1.0"
     bordercolor="#666666"
     pagecolor="#ffffff"
     id="base" />
  <metadata
     id="metadata5">
    <rdf:RDF>
      <cc:Work
         rdf:about="">
        <dc:format>image/svg+xml</dc:format>
        <dc:type
           rdf:resource="http://purl.org/dc/dcmitype/StillImage" />
        <dc:title />
      </cc:Work>
    </rdf:RDF>
  </metadata>
  <g
     transform="translate(127,80.886909)"
     id="layer1"
     inkscape:groupmode="layer"
     inkscape:label="Layer 1">
    <path
       transform="matrix(0.26458333,0,0,0.26458333,-127,-80.886909)"
       d="M 0 0 L 0 30 L 75 30 L 75 0 L 0 0 z M 15.257812 3.0703125 C 15.708427 3.1032983 16.16892 3.2185542 16.667969 3.4160156 C 17.939969 3.9193126 19.273951 5.0019996 19.722656 5.8945312 C 20.033333 6.5121401 20.031317 7.3542701 19.71875 8.1191406 C 19.644293 8.3008225 19.327637 8.8472719 19.013672 9.3339844 C 18.699971 9.8206893 18.451628 10.23869 18.462891 10.261719 C 18.47045 10.284774 19.238317 10.823041 20.162109 11.458984 C 21.802764 12.588371 23.287109 13.712718 23.287109 13.826172 C 23.287109 13.881466 22.953362 13.950346 22.208984 14.046875 C 22.007158 14.073332 21.041776 14.133641 20.0625 14.181641 C 19.083262 14.229641 18.247069 14.275556 18.205078 14.285156 C 18.127598 14.30292 18.857763 16.476271 19.261719 17.429688 C 19.649952 18.346162 20.271204 19.201028 21.119141 19.988281 C 21.321345 20.176237 21.914262 20.672572 22.4375 21.091797 C 24.605891 22.829064 25.304486 23.454419 26.037109 24.3125 C 26.843963 25.257597 27.214108 26.272131 26.855469 26.552734 C 26.650618 26.713138 25.211965 26.862218 22.716797 26.982422 C 21.227096 27.054157 10.664852 27.09142 8.7753906 27.03125 L 8.7734375 27.03125 C 5.3271887 26.92153 3.2087021 26.741786 3.0488281 26.544922 C 2.9373321 26.407574 2.9979512 25.798431 3.1582031 25.443359 C 3.6035827 24.456306 4.6124713 23.427119 7.0605469 21.462891 C 7.8734855 20.810597 8.7444906 20.075502 8.9960938 19.830078 C 9.7779268 19.067528 10.310617 18.315044 10.679688 17.449219 C 10.866018 17.011867 11.796875 14.411278 11.796875 14.328125 C 11.796875 14.300912 11.146319 14.247788 10.339844 14.210938 C 8.140839 14.110515 6.8477364 13.981363 6.671875 13.84375 C 6.5766309 13.76918 8.0669285 12.629175 9.8964844 11.376953 L 11.523438 10.263672 L 10.898438 9.2714844 C 10.22897 8.2097168 10.056114 7.798942 10.001953 7.1347656 C 9.9565988 6.5834837 10.061741 6.1786792 10.376953 5.6640625 C 11.014673 4.623226 12.488321 3.5974651 13.900391 3.2128906 C 14.366142 3.0860308 14.807198 3.0373267 15.257812 3.0703125 z M 39.078125 4 L 41.414062 4 L 46.675781 10.455078 L 46.675781 5.4921875 C 46.675781 4.9632174 46.618425 4.633138 46.5 4.5019531 C 46.343276 4.3242145 46.094253 4.234375 45.755859 4.234375 L 45.458984 4.234375 L 45.458984 4 L 48.455078 4 L 48.455078 4.234375 L 48.150391 4.234375 C 47.786473 4.234375 47.527365 4.344409 47.375 4.5644531 C 47.282024 4.699861 47.236328 5.0097585 47.236328 5.4921875 L 47.236328 12.746094 L 47.007812 12.746094 L 41.332031 5.8144531 L 41.332031 11.115234 C 41.332031 11.644204 41.389765 11.974284 41.503906 12.105469 C 41.664662 12.283207 41.911732 12.373047 42.246094 12.373047 L 42.550781 12.373047 L 42.550781 12.607422 L 39.554688 12.607422 L 39.554688 12.373047 L 39.853516 12.373047 C 40.221667 12.373047 40.480479 12.263013 40.632812 12.042969 C 40.726041 11.907561 40.773438 11.597663 40.773438 11.115234 L 40.773438 5.1289062 C 40.523737 4.8369158 40.334275 4.6458342 40.203125 4.5527344 C 40.076133 4.459632 39.886369 4.3714188 39.636719 4.2910156 C 39.51401 4.2529432 39.327801 4.234375 39.078125 4.234375 L 39.078125 4 z M 51.8125 6.6152344 C 52.464191 6.6152344 52.999021 6.8300791 53.417969 7.2617188 C 53.836917 7.6891273 54.046875 8.2630216 54.046875 8.9824219 L 50.029297 8.9824219 C 50.024258 9.8457012 50.232263 10.522787 50.65625 11.013672 C 51.079406 11.504557 51.577149 11.75 52.148438 11.75 C 52.529307 11.75 52.85939 11.646823 53.138672 11.439453 C 53.422212 11.227875 53.659172 10.867197 53.849609 10.359375 L 54.046875 10.486328 C 53.95793 11.06608 53.698823 11.596028 53.271484 12.074219 C 52.844095 12.548177 52.309266 12.785156 51.666016 12.785156 C 50.967786 12.785156 50.368492 12.514323 49.869141 11.972656 C 49.374023 11.426759 49.126953 10.693685 49.126953 9.7753906 C 49.126953 8.7809264 49.380855 8.0074885 49.888672 7.453125 C 50.400722 6.8945335 51.042333 6.6152344 51.8125 6.6152344 z M 54.490234 6.7929688 L 56.927734 6.7929688 L 56.927734 7.0273438 C 56.703482 7.0442251 56.556337 7.0849162 56.484375 7.1484375 C 56.416595 7.2119084 56.382813 7.3033742 56.382812 7.421875 C 56.382812 7.5530498 56.418423 7.7102771 56.490234 7.8964844 L 57.734375 11.242188 L 58.984375 8.5195312 L 58.654297 7.6621094 C 58.552754 7.4082032 58.418946 7.232096 58.253906 7.1347656 C 58.16093 7.0755278 57.98841 7.0400425 57.734375 7.0273438 L 57.734375 6.7929688 L 60.501953 6.7929688 L 60.501953 7.0273438 C 60.197273 7.0399417 59.980457 7.0959232 59.853516 7.1933594 C 59.768854 7.2610633 59.726563 7.3675179 59.726562 7.515625 C 59.726562 7.6002612 59.74358 7.6884745 59.777344 7.7773438 L 61.097656 11.115234 L 62.324219 7.8964844 C 62.40888 7.6679741 62.451172 7.486983 62.451172 7.3515625 C 62.451172 7.2711594 62.40888 7.2001891 62.324219 7.1367188 C 62.243841 7.0732479 62.083032 7.0358094 61.841797 7.0273438 L 61.841797 6.7929688 L 63.675781 6.7929688 L 63.675781 7.0273438 C 63.30763 7.082348 63.036787 7.3329998 62.863281 7.7773438 L 60.919922 12.785156 L 60.660156 12.785156 L 59.207031 9.0722656 L 57.511719 12.785156 L 57.277344 12.785156 L 55.410156 7.8984375 C 55.287448 7.5895191 55.167253 7.3811846 55.048828 7.2753906 C 54.930403 7.165356 54.744219 7.082348 54.490234 7.0273438 L 54.490234 6.7929688 z M 51.457031 7.0664062 C 51.105787 7.0664062 50.789048 7.2034517 50.509766 7.4785156 C 50.234692 7.749349 50.073882 8.1285799 50.027344 8.6152344 L 50.029297 8.6152344 L 52.71875 8.6152344 C 52.698593 8.2428375 52.654719 7.9804677 52.585938 7.828125 C 52.480111 7.5911486 52.320928 7.4049517 52.109375 7.2695312 C 51.902005 7.134124 51.685541 7.0664063 51.457031 7.0664062 z M 41.013672 16.802734 C 41.326818 16.802734 41.611326 16.828135 41.865234 16.878906 C 42.123376 16.929678 42.487312 17.041338 42.957031 17.214844 C 43.194134 17.303713 43.353291 17.349609 43.433594 17.349609 C 43.513972 17.349609 43.58179 17.312171 43.636719 17.240234 C 43.695931 17.164064 43.73129 17.018555 43.744141 16.802734 L 43.978516 16.802734 L 44.201172 19.519531 L 43.978516 19.519531 C 43.754264 18.842449 43.464877 18.333007 43.109375 17.990234 C 42.597325 17.495119 41.938797 17.248047 41.134766 17.248047 C 40.038753 17.248047 39.206054 17.681316 38.634766 18.548828 C 38.15658 19.280923 37.917969 20.152675 37.917969 21.164062 C 37.917969 21.985026 38.075199 22.733074 38.392578 23.410156 C 38.709958 24.087238 39.124694 24.584959 39.636719 24.902344 C 40.153002 25.215493 40.682927 25.373047 41.224609 25.373047 C 41.541989 25.373047 41.848317 25.332356 42.144531 25.251953 C 42.440745 25.17155 42.726879 25.053058 43.001953 24.896484 L 43.001953 22.408203 C 43.001953 21.976563 42.96817 21.695638 42.900391 21.564453 C 42.836895 21.429045 42.735294 21.327495 42.595703 21.259766 C 42.460396 21.187829 42.218206 21.150391 41.871094 21.150391 L 41.871094 20.910156 L 45.203125 20.910156 L 45.203125 21.150391 L 45.044922 21.150391 C 44.714843 21.150391 44.487943 21.260425 44.365234 21.480469 C 44.280573 21.637042 44.238281 21.94694 44.238281 22.408203 L 44.238281 25.042969 C 43.751629 25.305339 43.272781 25.496419 42.798828 25.619141 C 42.324875 25.741849 41.796551 25.804687 41.216797 25.804688 C 39.553704 25.804688 38.291004 25.271484 37.427734 24.205078 C 36.780251 23.405275 36.457031 22.482746 36.457031 21.4375 C 36.457031 20.680015 36.63801 19.953775 37.001953 19.259766 C 37.4336 18.434571 38.026062 17.799805 38.779297 17.355469 C 39.409848 16.987305 40.154636 16.802734 41.013672 16.802734 z M 64.431641 19.615234 C 65.083332 19.615234 65.618161 19.830079 66.037109 20.261719 C 66.456057 20.689128 66.666016 21.263022 66.666016 21.982422 L 62.646484 21.982422 C 62.641445 22.845701 62.851403 23.522787 63.275391 24.013672 C 63.698572 24.504557 64.19629 24.75 64.767578 24.75 C 65.148429 24.75 65.478506 24.646823 65.757812 24.439453 C 66.041327 24.227875 66.278312 23.867197 66.46875 23.359375 L 66.666016 23.486328 C 66.577071 24.06608 66.317964 24.596028 65.890625 25.074219 C 65.463236 25.548177 64.928381 25.785156 64.285156 25.785156 C 63.586901 25.785156 62.987632 25.514323 62.488281 24.972656 C 61.993163 24.426759 61.746094 23.693685 61.746094 22.775391 C 61.746094 21.780926 61.999996 21.007488 62.507812 20.453125 C 63.019863 19.894534 63.661474 19.615234 64.431641 19.615234 z M 48.205078 19.621094 C 48.721336 19.621094 49.144531 19.707354 49.474609 19.880859 C 49.72431 20.012034 49.908868 20.21874 50.027344 20.498047 C 50.103438 20.680019 50.140625 21.052415 50.140625 21.615234 L 50.140625 23.587891 C 50.140625 24.142252 50.151718 24.484376 50.171875 24.611328 C 50.192032 24.734037 50.225815 24.815091 50.273438 24.857422 C 50.324332 24.899753 50.382071 24.921875 50.445312 24.921875 C 50.513092 24.921875 50.572401 24.906585 50.623047 24.876953 C 50.711992 24.821948 50.882886 24.667979 51.136719 24.414062 L 51.136719 24.769531 C 50.662741 25.404298 50.208966 25.720703 49.777344 25.720703 C 49.569974 25.720703 49.405912 25.649733 49.283203 25.505859 C 49.16076 25.362297 49.096327 25.117305 49.091797 24.771484 C 48.498391 25.230089 48.124519 25.496645 47.972656 25.568359 C 47.744121 25.674161 47.500326 25.728516 47.242188 25.728516 C 46.840172 25.728516 46.508443 25.589517 46.246094 25.314453 C 45.987952 25.039389 45.857422 24.679038 45.857422 24.230469 C 45.857422 23.946941 45.921836 23.701498 46.048828 23.494141 C 46.222434 23.206383 46.521905 22.935547 46.949219 22.681641 C 47.380866 22.427734 48.097026 22.117839 49.095703 21.753906 L 49.095703 21.525391 C 49.095703 20.945639 49.002611 20.547852 48.816406 20.332031 C 48.634485 20.11622 48.366919 20.007812 48.015625 20.007812 C 47.749017 20.007812 47.537433 20.080735 47.380859 20.224609 C 47.220103 20.368483 47.140625 20.532545 47.140625 20.71875 L 47.152344 21.087891 C 47.152344 21.282561 47.101543 21.433282 47 21.539062 C 46.90274 21.644864 46.772185 21.697266 46.611328 21.697266 C 46.454856 21.697266 46.326279 21.641285 46.224609 21.53125 C 46.12735 21.421215 46.078125 21.272451 46.078125 21.082031 C 46.078125 20.718101 46.264334 20.382813 46.636719 20.078125 C 47.009128 19.773437 47.532221 19.621094 48.205078 19.621094 z M 53.017578 19.621094 L 53.291016 19.621094 L 53.291016 20.859375 C 53.714197 20.436199 53.962894 20.192382 54.039062 20.128906 C 54.229551 19.9681 54.436256 19.842776 54.65625 19.753906 C 54.876219 19.665037 55.092682 19.621094 55.308594 19.621094 C 55.672512 19.621094 55.985672 19.727875 56.248047 19.939453 C 56.510422 20.151031 56.686521 20.457347 56.775391 20.859375 C 57.211246 20.351563 57.580387 20.019854 57.880859 19.863281 C 58.181307 19.702475 58.489261 19.621094 58.806641 19.621094 C 59.115554 19.621094 59.388024 19.702475 59.625 19.863281 C 59.866134 20.019854 60.057524 20.277019 60.197266 20.636719 C 60.290494 20.882161 60.337891 21.268229 60.337891 21.792969 L 60.337891 24.292969 C 60.337891 24.656902 60.364993 24.907553 60.419922 25.042969 C 60.462253 25.136071 60.540155 25.215499 60.654297 25.283203 C 60.768439 25.346674 60.954623 25.378906 61.212891 25.378906 L 61.212891 25.607422 L 58.34375 25.607422 L 58.34375 25.378906 L 58.464844 25.378906 C 58.714545 25.378906 58.909212 25.329757 59.048828 25.232422 C 59.146088 25.164718 59.215484 25.05631 59.257812 24.908203 C 59.27545 24.836266 59.283203 24.631514 59.283203 24.292969 L 59.283203 21.792969 C 59.283203 21.319011 59.227423 20.983723 59.113281 20.789062 C 58.948242 20.518231 58.684256 20.382812 58.320312 20.382812 C 58.096063 20.382812 57.86916 20.44042 57.640625 20.554688 C 57.416373 20.66472 57.143929 20.871103 56.822266 21.175781 L 56.810547 21.246094 L 56.822266 21.519531 L 56.822266 24.292969 C 56.822266 24.690756 56.842435 24.937826 56.884766 25.035156 C 56.93138 25.132492 57.015963 25.215499 57.138672 25.283203 C 57.261381 25.346674 57.471339 25.378906 57.767578 25.378906 L 57.767578 25.607422 L 54.828125 25.607422 L 54.828125 25.378906 C 55.149738 25.378906 55.369806 25.339842 55.488281 25.263672 C 55.61099 25.187502 55.695573 25.074215 55.742188 24.921875 C 55.762343 24.849938 55.773438 24.639977 55.773438 24.292969 L 55.773438 21.792969 C 55.773438 21.319011 55.702091 20.976886 55.5625 20.769531 C 55.376295 20.498698 55.117515 20.363281 54.783203 20.363281 C 54.554668 20.363281 54.327768 20.426119 54.103516 20.548828 C 53.752272 20.735033 53.481453 20.943043 53.291016 21.175781 L 53.291016 24.292969 C 53.291016 24.673829 53.31629 24.920899 53.367188 25.035156 C 53.422115 25.149424 53.500021 25.237637 53.601562 25.296875 C 53.707389 25.35188 53.918999 25.378906 54.236328 25.378906 L 54.236328 25.607422 L 51.361328 25.607422 L 51.361328 25.378906 C 51.627936 25.378906 51.814145 25.35188 51.919922 25.296875 C 52.025749 25.237637 52.105227 25.146169 52.160156 25.023438 C 52.215085 24.896471 52.242187 24.652656 52.242188 24.292969 L 52.242188 22.072266 C 52.242188 21.433271 52.223594 21.020184 52.185547 20.833984 C 52.155815 20.694343 52.110371 20.599625 52.046875 20.548828 C 51.983379 20.493823 51.895266 20.464844 51.785156 20.464844 C 51.666731 20.464844 51.526418 20.497076 51.361328 20.560547 L 51.265625 20.332031 L 53.017578 19.621094 z M 64.076172 20.066406 C 63.724953 20.066406 63.408213 20.203452 63.128906 20.478516 C 62.853832 20.749349 62.693023 21.12858 62.646484 21.615234 L 65.337891 21.615234 C 65.317733 21.242838 65.273866 20.980468 65.205078 20.828125 C 65.099251 20.591149 64.940068 20.404952 64.728516 20.269531 C 64.521146 20.134123 64.304682 20.066406 64.076172 20.066406 z M 49.095703 22.140625 C 48.456711 22.394531 48.043627 22.575847 47.857422 22.681641 C 47.523135 22.867845 47.284524 23.062508 47.140625 23.265625 C 46.996751 23.468762 46.923828 23.690441 46.923828 23.931641 C 46.923828 24.236326 47.015344 24.490232 47.197266 24.693359 C 47.379187 24.892263 47.589145 24.992187 47.826172 24.992188 C 48.147784 24.992188 48.570979 24.780598 49.095703 24.357422 L 49.095703 22.140625 z "
       style="opacity:0.997;fill:#000000;stroke:none;stroke-width:7.80794;stroke-linejoin:round;stroke-miterlimit:4;stroke-dasharray:none"
       id="rect833" />
    <text
       id="text856"
       y="-78.430061"
       x="-113.25111"
       style="font-size:2.64583333px;line-height:0.5;font-family:Garamond;-inkscape-font-specification:Garamond;text-align:center;text-anchor:middle;stroke-width:0.264583;"
       xml:space="preserve"><tspan
         style="stroke-width:0.264583;font-size:2.64583333px;"
         y="-78.430061"
         x="-113.25111"
         id="tspan854"
         sodipodi:role="line" /></text>
    <text
       id="text860"
       y="-68.20108"
       x="-121.42485"
       style="font-size:7.9375px;line-height:0.5;font-family:Garamond;-inkscape-font-specification:Garamond;text-align:center;text-anchor:middle;stroke-width:0.264583"
       xml:space="preserve"><tspan
         style="stroke-width:0.264583"
         y="-68.20108"
         x="-121.42485"
         id="tspan858"
         sodipodi:role="line" /></text>
    <text
       id="text864"
       y="-77.296135"
       x="-117.43248"
       style="font-size:2.64583px;line-height:0.5;font-family:Garamond;-inkscape-font-specification:Garamond;text-align:center;text-anchor:middle;stroke-width:0.264583;fill:#00ffff;"
       xml:space="preserve"><tspan
         style="stroke-width:0.264583;fill:#00ffff;"
         y="-77.296135"
         x="-117.43248"
         id="tspan862"
         sodipodi:role="line" /></text>
  </g>
</svg>
