<?xml version="1.0" encoding="UTF-8" standalone="no"?>
<svg
   xmlns:dc="http://purl.org/dc/elements/1.1/"
   xmlns:cc="http://creativecommons.org/ns#"
   xmlns:rdf="http://www.w3.org/1999/02/22-rdf-syntax-ns#"
   xmlns:svg="http://www.w3.org/2000/svg"
   xmlns="http://www.w3.org/2000/svg"
   xmlns:sodipodi="http://sodipodi.sourceforge.net/DTD/sodipodi-0.dtd"
   xmlns:inkscape="http://www.inkscape.org/namespaces/inkscape"
   sodipodi:docname="council-rules-reg-ffffff.svg"
   inkscape:version="1.0 (4035a4fb49, 2020-05-01)"
   id="svg8"
   version="1.1"
   viewBox="0 0 19.84375 7.9375"
   height="7.9375mm"
   width="19.84375mm">
  <defs
     id="defs2" />
  <sodipodi:namedview
     inkscape:window-maximized="1"
     inkscape:window-y="-9"
     inkscape:window-x="-9"
     inkscape:window-height="1001"
     inkscape:window-width="1920"
     fit-margin-bottom="0"
     fit-margin-right="0"
     fit-margin-left="0"
     fit-margin-top="0"
     showgrid="false"
     inkscape:document-rotation="0"
     inkscape:current-layer="layer1"
     inkscape:document-units="mm"
     inkscape:cy="4.8699546"
     inkscape:cx="32.0561"
     inkscape:zoom="11.313708"
     inkscape:pageshadow="2"
     inkscape:pageopacity="0"
     borderopacity="1.0"
     bordercolor="#666666"
     pagecolor="#8b8b8b"
     id="base"
     showguides="false" />
  <metadata
     id="metadata5">
    <rdf:RDF>
      <cc:Work
         rdf:about="">
        <dc:format>image/svg+xml</dc:format>
        <dc:type
           rdf:resource="http://purl.org/dc/dcmitype/StillImage" />
        <dc:title />
      </cc:Work>
    </rdf:RDF>
  </metadata>
  <g
     transform="translate(127,80.886909)"
     id="layer1"
     inkscape:groupmode="layer"
     inkscape:label="Layer 1">
    <rect
       style="opacity:0.997;fill:#ccad8b;stroke:none;stroke-width:0.18921;stroke-linejoin:round;stroke-dasharray:0.567624, 0.18920999999999999;fill-opacity:1"
       id="rect843-7"
       width="19.84375"
       height="7.9375"
       x="-127"
       y="-80.886909" />
    <path
       id="rect833"
       style="opacity:0.997;fill:#ffffff;fill-opacity:1;stroke:none;stroke-width:7.80794;stroke-linejoin:round;stroke-miterlimit:4;stroke-dasharray:none"
       d="M 0 0 L 0 30 L 75 30 L 75 0 L 0 0 z M 14.972656 3 C 15.153696 3 15.311921 3.0307175 15.380859 3.0800781 C 15.503316 3.1675742 15.598853 3.450639 15.599609 3.7246094 C 15.600214 4.1353571 15.866082 4.403733 16.351562 4.4804688 C 16.546586 4.5114609 16.770315 4.5696777 16.849609 4.6113281 C 17.221515 4.8067297 17.063294 5.2642843 16.597656 5.3378906 C 16.501278 5.3530087 16.336296 5.3794009 16.230469 5.3964844 C 15.945114 5.4424434 15.676937 5.751289 15.59375 6.1308594 C 15.470159 6.6951013 15.66863 7.5062877 16.099609 8.1992188 C 16.199389 8.3596597 16.582151 8.8020438 16.949219 9.1816406 L 17.615234 9.8710938 L 18.347656 9.4101562 C 19.260526 8.8352863 19.48125 8.7221224 20.013672 8.5507812 C 21.830642 7.9660468 24.003375 8.6050345 25.458984 10.154297 C 26.285945 11.034447 26.76241 11.977004 26.953125 13.105469 C 27.125849 14.127079 26.822484 15.421543 26.044922 16.978516 C 25.389098 18.291924 24.696797 19.221452 23.214844 20.777344 L 22.226562 21.814453 L 22.259766 22.035156 C 22.278663 22.155837 22.456514 23.007789 22.654297 23.929688 C 23.046385 25.755732 23.093201 26.19343 22.921875 26.427734 C 22.499173 27.005832 21.345575 27.058503 11.533203 26.958984 C 8.2225638 26.925347 7.6499208 26.896328 7.1640625 26.734375 C 6.9815113 26.673525 6.9783867 26.669057 6.9628906 26.361328 C 6.943993 25.976512 7.0894478 24.932161 7.3945312 23.267578 C 7.5222793 22.571079 7.620021 21.962007 7.6113281 21.912109 C 7.6037691 21.86222 7.1284076 21.304684 6.5566406 20.673828 C 4.9282312 18.877094 4.34046 18.069534 3.734375 16.794922 C 3.1808632 15.630956 2.9570657 14.655882 3.0058594 13.615234 C 3.0398751 12.854072 3.1775818 12.319944 3.5039062 11.644531 C 3.8217645 10.986614 4.1411437 10.55321 4.7519531 9.9570312 C 5.9107941 8.8259736 7.0965147 8.3080344 8.5234375 8.3085938 C 9.1225304 8.3087865 9.6095658 8.3913774 10.085938 8.5722656 C 10.498133 8.7287381 10.708909 8.8638093 11.378906 9.4042969 C 11.704324 9.6668984 11.999376 9.8719873 12.033203 9.859375 C 12.181739 9.8039671 13.347655 8.8086971 13.607422 8.515625 C 14.081148 7.981128 14.416016 7.1506563 14.416016 6.5097656 C 14.416016 5.9255943 14.125705 5.456781 13.722656 5.3925781 C 13.622877 5.3767041 13.457075 5.3505765 13.353516 5.3339844 C 13.149799 5.3014804 12.871094 5.0615341 12.871094 4.9179688 C 12.871094 4.8701577 12.937452 4.7652315 13.017578 4.6835938 C 13.135877 4.5627623 13.225859 4.5282075 13.501953 4.4980469 C 14.094848 4.433228 14.293751 4.2291224 14.367188 3.6191406 C 14.427282 3.1181831 14.543529 3 14.972656 3 z M 66.5 3.9042969 C 66.679906 3.9042969 66.832987 3.9691901 66.957031 4.0976562 C 67.085535 4.2218137 67.148438 4.3748462 67.148438 4.5546875 C 67.148438 4.7345174 67.085913 4.887174 66.957031 5.015625 C 66.832685 5.1440911 66.679603 5.2089844 66.5 5.2089844 C 66.320094 5.2089844 66.1655 5.1440911 66.037109 5.015625 C 65.908605 4.8871589 65.845703 4.7345401 65.845703 4.5546875 C 65.845703 4.3748576 65.906904 4.2218251 66.03125 4.0976562 C 66.159754 3.9691901 66.315861 3.9042969 66.5 3.9042969 z M 70.386719 3.9042969 L 70.675781 3.9042969 L 70.675781 11.708984 C 70.675781 12.077224 70.702063 12.321512 70.751953 12.441406 C 70.807512 12.561293 70.890457 12.652583 71.001953 12.716797 C 71.113449 12.77674 71.320937 12.806641 71.625 12.806641 L 71.625 13.039062 L 68.742188 13.039062 L 68.742188 12.806641 C 69.012046 12.806641 69.196427 12.780168 69.294922 12.724609 C 69.393568 12.668937 69.469454 12.575732 69.525391 12.447266 C 69.58095 12.318799 69.609375 12.072942 69.609375 11.708984 L 69.609375 6.3652344 C 69.609375 5.701538 69.594311 5.2943971 69.564453 5.1445312 C 69.534217 4.9903643 69.484803 4.8857506 69.416016 4.8300781 C 69.351764 4.7744057 69.268819 4.7460938 69.166016 4.7460938 C 69.05452 4.7460938 68.913551 4.7812377 68.742188 4.8496094 L 68.632812 4.625 L 70.386719 3.9042969 z M 35.150391 4.1308594 C 35.779833 4.1308594 36.401351 4.2835159 37.013672 4.5917969 C 37.193577 4.6860205 37.321335 4.734375 37.398438 4.734375 C 37.514091 4.734375 37.613423 4.6927014 37.699219 4.6113281 C 37.810715 4.4957124 37.890256 4.3364052 37.9375 4.1308594 L 38.162109 4.1308594 L 38.361328 7.0917969 L 38.162109 7.0917969 C 37.896787 6.205441 37.517787 5.5673885 37.025391 5.1777344 C 36.532956 4.7880802 35.941339 4.5917969 35.251953 4.5917969 C 34.673912 4.5917969 34.152281 4.7396879 33.685547 5.0351562 C 33.218813 5.3263311 32.849823 5.7932577 32.580078 6.4355469 C 32.314377 7.0778322 32.183594 7.8771676 32.183594 8.8320312 C 32.183594 9.619904 32.309801 10.302803 32.5625 10.880859 C 32.814972 11.458919 33.193934 11.900685 33.699219 12.208984 C 34.208775 12.51728 34.788618 12.671875 35.439453 12.671875 C 36.004681 12.671875 36.503056 12.552273 36.935547 12.3125 C 37.368 12.068456 37.84323 11.586549 38.361328 10.867188 L 38.560547 10.996094 C 38.123822 11.771124 37.6136 12.337587 37.03125 12.697266 C 36.4489 13.056925 35.757762 13.238281 34.957031 13.238281 C 33.514045 13.238281 32.39762 12.701335 31.605469 11.630859 C 31.014577 10.834422 30.71875 9.8973994 30.71875 8.8183594 C 30.71875 7.9491285 30.913027 7.1517538 31.302734 6.4238281 C 31.692366 5.6959025 32.227359 5.1325936 32.908203 4.734375 C 33.59328 4.3318742 34.341118 4.1308594 35.150391 4.1308594 z M 42.318359 6.9824219 C 43.209005 6.9824219 43.923363 7.3195583 44.462891 7.9960938 C 44.921045 8.5741536 45.150391 9.2389446 45.150391 9.9882812 C 45.150391 10.514955 45.024146 11.046418 44.771484 11.585938 C 44.519012 12.12545 44.169951 12.532598 43.724609 12.806641 C 43.283576 13.080694 42.791845 13.21875 42.248047 13.21875 C 41.36171 13.21875 40.657172 12.864722 40.134766 12.158203 C 39.693733 11.563014 39.472656 10.895065 39.472656 10.154297 C 39.472656 9.6147731 39.605695 9.0797837 39.871094 8.5488281 C 40.140952 8.0135866 40.494878 7.6198187 40.931641 7.3671875 C 41.368365 7.1102552 41.830196 6.9824219 42.318359 6.9824219 z M 54.035156 6.9824219 L 54.310547 6.9824219 L 54.308594 8.2285156 C 54.99798 7.3978246 55.656078 6.9824219 56.28125 6.9824219 C 56.60251 6.9824219 56.878144 7.0638916 57.109375 7.2265625 C 57.340682 7.3850003 57.525177 7.6473894 57.662109 8.015625 C 57.75622 8.2725573 57.802734 8.6663138 57.802734 9.1972656 L 57.802734 11.708984 C 57.802734 12.081495 57.832925 12.334056 57.894531 12.466797 C 57.941775 12.573833 58.016337 12.656816 58.119141 12.716797 C 58.226101 12.77674 58.420756 12.806641 58.703125 12.806641 L 58.703125 13.039062 L 55.792969 13.039062 L 55.792969 12.806641 L 55.916016 12.806641 C 56.190031 12.806641 56.379254 12.76692 56.486328 12.685547 C 56.597824 12.599903 56.676041 12.475171 56.71875 12.3125 C 56.737648 12.248286 56.746094 12.047256 56.746094 11.708984 L 56.746094 9.3007812 C 56.746094 8.7655435 56.676511 8.3784564 56.535156 8.1386719 C 56.397959 7.8946278 56.163635 7.7714844 55.833984 7.7714844 C 55.324428 7.7714844 54.817747 8.050792 54.3125 8.6074219 L 54.3125 11.708984 C 54.3125 12.107203 54.33519 12.353061 54.382812 12.447266 C 54.442907 12.571423 54.52415 12.664666 54.626953 12.724609 C 54.733914 12.780282 54.948574 12.806641 55.269531 12.806641 L 55.269531 13.039062 L 52.359375 13.039062 L 52.359375 12.806641 L 52.488281 12.806641 C 52.787998 12.806641 52.989069 12.731927 53.091797 12.582031 C 53.198758 12.427864 53.251953 12.137171 53.251953 11.708984 L 53.251953 9.5253906 C 53.251953 8.8188722 53.236699 8.3885193 53.201172 8.234375 C 53.170936 8.0802081 53.121522 7.9755943 53.052734 7.9199219 C 52.988482 7.8642494 52.902134 7.8359375 52.791016 7.8359375 C 52.671205 7.8359375 52.52643 7.8673131 52.359375 7.9316406 L 52.263672 7.7011719 L 54.035156 6.9824219 z M 62.017578 6.9824219 C 62.595619 6.9824219 63.070811 7.1350784 63.443359 7.4433594 C 63.816021 7.7473846 64.001953 8.0648279 64.001953 8.3945312 C 64.001953 8.5572399 63.949135 8.6902034 63.841797 8.7929688 C 63.738994 8.8914632 63.592744 8.9414062 63.404297 8.9414062 C 63.151824 8.9414062 62.960497 8.8599743 62.832031 8.6972656 C 62.759086 8.6073507 62.711626 8.4362136 62.685547 8.1835938 C 62.666649 7.9309701 62.578915 7.7382095 62.427734 7.6054688 C 62.277687 7.4770026 62.070199 7.4121094 61.804688 7.4121094 C 61.376467 7.4121094 61.03265 7.5698658 60.771484 7.8867188 C 60.424524 8.3063408 60.25 8.8613916 60.25 9.5507812 C 60.25 10.253014 60.421209 10.874546 60.763672 11.414062 C 61.110633 11.9493 61.57748 12.216797 62.164062 12.216797 C 62.583703 12.216797 62.960925 12.072041 63.294922 11.785156 C 63.530386 11.588205 63.759808 11.231003 63.982422 10.712891 L 64.167969 10.802734 C 64.009607 11.577761 63.700669 12.176074 63.238281 12.595703 C 62.775856 13.011047 62.264082 13.21875 61.703125 13.21875 C 61.035131 13.21875 60.451784 12.937892 59.955078 12.376953 C 59.45841 11.816018 59.210938 11.058383 59.210938 10.103516 C 59.210938 9.1786199 59.484945 8.4276692 60.033203 7.8496094 C 60.585581 7.2715495 61.246857 6.9824219 62.017578 6.9824219 z M 66.75 6.9824219 L 67.033203 6.9824219 L 67.033203 11.708984 C 67.033203 12.077224 67.059485 12.323093 67.109375 12.447266 C 67.164934 12.567152 67.244853 12.656854 67.347656 12.716797 C 67.454617 12.77674 67.647381 12.806641 67.925781 12.806641 L 67.925781 13.039062 L 65.068359 13.039062 L 65.068359 12.806641 C 65.355226 12.806641 65.54799 12.780168 65.646484 12.724609 C 65.74513 12.668937 65.821394 12.575732 65.876953 12.447266 C 65.937048 12.318799 65.966797 12.072942 65.966797 11.708984 L 65.966797 9.4414062 C 65.966797 8.8034031 65.947952 8.3895738 65.910156 8.2011719 C 65.87992 8.064164 65.83183 7.9712857 65.767578 7.9199219 C 65.703326 7.8642494 65.615402 7.8359375 65.503906 7.8359375 C 65.384095 7.8359375 65.239723 7.8673131 65.068359 7.9316406 L 64.978516 7.7011719 L 66.75 6.9824219 z M 45.619141 7.1542969 L 47.681641 7.1542969 L 47.681641 11.091797 C 47.681641 11.639881 47.774292 12.000602 47.962891 12.171875 C 48.155647 12.343163 48.388496 12.427734 48.658203 12.427734 C 48.842266 12.427734 49.050094 12.369484 49.28125 12.253906 C 49.516715 12.138291 49.794164 11.919194 50.115234 11.59375 L 50.115234 8.2597656 C 50.115234 7.9257688 50.054034 7.7015457 49.929688 7.5859375 C 49.809876 7.4660509 49.557009 7.4011577 49.171875 7.3925781 L 49.171875 7.1542969 L 51.175781 7.1542969 L 51.175781 10.720703 C 51.175781 11.401532 51.190845 11.818508 51.220703 11.972656 C 51.254719 12.122515 51.306591 12.227166 51.375 12.287109 C 51.447945 12.347053 51.53089 12.376953 51.625 12.376953 C 51.757661 12.376953 51.907315 12.340296 52.074219 12.267578 L 52.164062 12.492188 L 50.404297 13.21875 L 50.115234 13.21875 L 50.115234 11.972656 C 49.609949 12.520744 49.224458 12.864558 48.958984 13.005859 C 48.693662 13.147176 48.412633 13.21875 48.117188 13.21875 C 47.787613 13.21875 47.501894 13.123956 47.257812 12.935547 C 47.017812 12.742867 46.84997 12.497005 46.755859 12.197266 C 46.661749 11.897549 46.615234 11.473866 46.615234 10.925781 L 46.615234 8.2988281 C 46.615234 8.0205037 46.585107 7.8277469 46.525391 7.7207031 C 46.465296 7.6136669 46.37567 7.5322727 46.255859 7.4765625 C 46.140206 7.4166192 45.927437 7.3883073 45.619141 7.3925781 L 45.619141 7.1542969 z M 42.119141 7.3984375 C 41.891991 7.3984375 41.662759 7.4684231 41.431641 7.6054688 C 41.204491 7.7382058 41.020147 7.9722754 40.878906 8.3105469 C 40.737552 8.6488146 40.667969 9.0842788 40.667969 9.6152344 C 40.667969 10.471615 40.835409 11.2092 41.173828 11.830078 C 41.516253 12.450956 41.966789 12.761719 42.523438 12.761719 C 42.93877 12.761719 43.280999 12.590582 43.550781 12.248047 C 43.82064 11.905508 43.955078 11.317399 43.955078 10.482422 C 43.955078 9.4376357 43.730938 8.6150921 43.28125 8.015625 C 42.977376 7.6045598 42.590145 7.3984375 42.119141 7.3984375 z M 54.328125 17.058594 L 54.617188 17.058594 L 54.617188 24.863281 C 54.617188 25.231521 54.643533 25.475809 54.695312 25.595703 C 54.750872 25.71559 54.834194 25.80688 54.945312 25.871094 C 55.056809 25.931037 55.264296 25.960938 55.568359 25.960938 L 55.568359 26.193359 L 52.685547 26.193359 L 52.685547 25.960938 C 52.955405 25.960938 53.137834 25.932588 53.236328 25.876953 C 53.334974 25.821281 53.413191 25.729991 53.46875 25.601562 C 53.524309 25.473096 53.552734 25.227238 53.552734 24.863281 L 53.552734 19.519531 C 53.552734 18.855835 53.537671 18.448698 53.507812 18.298828 C 53.477576 18.144661 53.428162 18.040047 53.359375 17.984375 C 53.295123 17.928703 53.212556 17.900391 53.109375 17.900391 C 52.997879 17.900391 52.856911 17.935535 52.685547 18.003906 L 52.576172 17.779297 L 54.328125 17.058594 z M 37.044922 17.482422 L 40.21875 17.482422 C 41.1436 17.482422 41.823003 17.552407 42.259766 17.689453 C 42.700799 17.82219 43.072966 18.069629 43.376953 18.433594 C 43.685363 18.793291 43.839844 19.223625 43.839844 19.724609 C 43.839844 20.259847 43.665609 20.725204 43.314453 21.119141 C 42.967492 21.513077 42.42752 21.790413 41.695312 21.953125 L 43.494141 24.451172 C 43.905202 25.02495 44.257251 25.407297 44.552734 25.595703 C 44.848293 25.784113 45.233709 25.903714 45.708984 25.955078 L 45.708984 26.193359 L 43.384766 26.193359 L 40.435547 22.121094 C 40.21709 22.129787 40.039276 22.132812 39.902344 22.132812 L 39.722656 22.132812 C 39.658404 22.128655 39.591847 22.125251 39.523438 22.121094 L 39.523438 24.650391 C 39.523438 25.198475 39.583314 25.539138 39.703125 25.671875 C 39.866023 25.860284 40.110167 25.955078 40.435547 25.955078 L 40.777344 25.955078 L 40.777344 26.193359 L 37.044922 26.193359 L 37.044922 25.955078 L 37.373047 25.955078 C 37.741173 25.955078 38.003672 25.835476 38.162109 25.595703 C 38.252062 25.462966 38.296875 25.147096 38.296875 24.650391 L 38.296875 19.025391 C 38.296875 18.477306 38.236999 18.136643 38.117188 18.003906 C 37.950132 17.815497 37.702697 17.720703 37.373047 17.720703 L 37.044922 17.720703 L 37.044922 17.482422 z M 40.533203 17.970703 C 40.284888 17.970703 39.947236 18.012377 39.523438 18.09375 L 39.523438 21.714844 C 39.604697 21.714844 39.676612 21.718125 39.736328 21.722656 L 39.884766 21.722656 C 40.715468 21.722656 41.340162 21.54328 41.759766 21.183594 C 42.183677 20.823934 42.394531 20.365243 42.394531 19.808594 C 42.394531 19.264788 42.223322 18.822643 41.880859 18.484375 C 41.542592 18.141836 41.094123 17.970703 40.533203 17.970703 z M 59.037109 20.128906 C 59.696524 20.128906 60.238198 20.348383 60.662109 20.785156 C 61.086021 21.217629 61.296875 21.797465 61.296875 22.525391 L 57.232422 22.525391 C 57.228642 23.3989 57.438438 24.083376 57.867188 24.580078 C 58.29537 25.07678 58.798874 25.326172 59.376953 25.326172 C 59.762314 25.326172 60.096273 25.219605 60.378906 25.009766 C 60.665772 24.795655 60.904938 24.431799 61.097656 23.917969 L 61.296875 24.046875 C 61.206922 24.633503 60.946125 25.168489 60.513672 25.652344 C 60.081218 26.131917 59.539507 26.373047 58.888672 26.373047 C 58.182127 26.373047 57.577513 26.098881 57.072266 25.550781 C 56.571251 24.998415 56.320312 24.257299 56.320312 23.328125 C 56.320312 22.321875 56.576206 21.537494 57.089844 20.976562 C 57.607941 20.411349 58.257809 20.128906 59.037109 20.128906 z M 64.091797 20.134766 C 64.323104 20.134766 64.60199 20.184709 64.931641 20.283203 C 65.150097 20.347417 65.296347 20.378906 65.369141 20.378906 C 65.43755 20.378906 65.490746 20.363767 65.529297 20.333984 C 65.567848 20.304126 65.612661 20.237531 65.664062 20.134766 L 65.876953 20.134766 L 65.876953 22.138672 L 65.666016 22.138672 C 65.503118 21.509229 65.291824 21.082407 65.035156 20.855469 C 64.782684 20.628508 64.460346 20.513672 64.066406 20.513672 C 63.76669 20.513672 63.523982 20.593478 63.339844 20.751953 C 63.155781 20.910391 63.064453 21.086632 63.064453 21.279297 C 63.064453 21.519108 63.132334 21.725219 63.269531 21.896484 C 63.402193 22.072043 63.67141 22.258108 64.078125 22.455078 L 65.015625 22.910156 C 65.884841 23.334064 66.320312 23.892266 66.320312 24.585938 C 66.320312 25.121175 66.117728 25.555055 65.710938 25.884766 C 65.308456 26.210183 64.856445 26.373047 64.355469 26.373047 C 63.995658 26.373047 63.583557 26.308154 63.121094 26.179688 C 62.979739 26.136865 62.865343 26.115234 62.775391 26.115234 C 62.676745 26.115234 62.598528 26.171896 62.542969 26.283203 L 62.332031 26.283203 L 62.332031 24.181641 L 62.542969 24.181641 C 62.66278 24.781111 62.892201 25.233092 63.230469 25.537109 C 63.568736 25.841135 63.947547 25.994141 64.367188 25.994141 C 64.662747 25.994141 64.901837 25.907616 65.085938 25.736328 C 65.274536 25.560769 65.369141 25.351477 65.369141 25.107422 C 65.369141 24.811976 65.264451 24.56258 65.054688 24.361328 C 64.849081 24.160068 64.435278 23.905956 63.814453 23.597656 C 63.193552 23.28936 62.78643 23.010068 62.59375 22.761719 C 62.400994 22.517675 62.304688 22.210431 62.304688 21.837891 C 62.304688 21.354036 62.47098 20.948472 62.800781 20.623047 C 63.134891 20.29763 63.565082 20.134766 64.091797 20.134766 z M 45.619141 20.308594 L 47.681641 20.308594 L 47.681641 24.246094 C 47.681641 24.794178 47.774292 25.154895 47.962891 25.326172 C 48.155647 25.49746 48.388496 25.582031 48.658203 25.582031 C 48.842266 25.582031 49.050094 25.523781 49.28125 25.408203 C 49.516715 25.292587 49.794164 25.073487 50.115234 24.748047 L 50.115234 21.414062 C 50.115234 21.080066 50.054034 20.855846 49.929688 20.740234 C 49.809876 20.620348 49.557009 20.555455 49.171875 20.546875 L 49.171875 20.308594 L 51.175781 20.308594 L 51.175781 23.873047 C 51.175781 24.553876 51.190845 24.972805 51.220703 25.126953 C 51.254719 25.276811 51.306591 25.381463 51.375 25.441406 C 51.447945 25.50135 51.53089 25.53125 51.625 25.53125 C 51.757661 25.53125 51.907315 25.494593 52.074219 25.421875 L 52.164062 25.646484 L 50.404297 26.373047 L 50.115234 26.373047 L 50.115234 25.126953 C 49.609949 25.675041 49.224458 26.018855 48.958984 26.160156 C 48.693662 26.301473 48.412633 26.373047 48.117188 26.373047 C 47.787613 26.373047 47.501894 26.278253 47.257812 26.089844 C 47.017812 25.897163 46.84997 25.651302 46.755859 25.351562 C 46.661749 25.051846 46.615234 24.628166 46.615234 24.080078 L 46.615234 21.453125 C 46.615234 21.174801 46.585107 20.982044 46.525391 20.875 C 46.465296 20.767964 46.37567 20.686532 46.255859 20.630859 C 46.140206 20.570916 45.927437 20.542604 45.619141 20.546875 L 45.619141 20.308594 z M 58.677734 20.585938 C 58.322459 20.585938 58.003298 20.723625 57.720703 21.001953 C 57.44253 21.276007 57.279515 21.659924 57.232422 22.152344 L 59.955078 22.152344 C 59.93618 21.775525 59.890234 21.509617 59.820312 21.355469 C 59.713352 21.115658 59.551963 20.928031 59.337891 20.791016 C 59.128127 20.654008 58.908852 20.585938 58.677734 20.585938 z "
       transform="matrix(0.26458333,0,0,0.26458333,-127,-80.886909)" />
    <text
       id="text856"
       y="-78.430061"
       x="-113.25111"
       style="font-size:2.64583333px;line-height:0.5;font-family:Garamond;-inkscape-font-specification:Garamond;text-align:center;text-anchor:middle;stroke-width:0.264583;"
       xml:space="preserve"><tspan
         style="stroke-width:0.264583;font-size:2.64583333px;"
         y="-78.430061"
         x="-113.25111"
         id="tspan854"
         sodipodi:role="line" /></text>
    <text
       id="text860"
       y="-68.20108"
       x="-121.42485"
       style="font-size:7.9375px;line-height:0.5;font-family:Garamond;-inkscape-font-specification:Garamond;text-align:center;text-anchor:middle;stroke-width:0.264583"
       xml:space="preserve"><tspan
         style="stroke-width:0.264583"
         y="-68.20108"
         x="-121.42485"
         id="tspan858"
         sodipodi:role="line" /></text>
    <text
       id="text864"
       y="-77.296135"
       x="-117.43248"
       style="font-size:2.64583px;line-height:0.5;font-family:Garamond;-inkscape-font-specification:Garamond;text-align:center;text-anchor:middle;stroke-width:0.264583;fill:#00ffff;"
       xml:space="preserve"><tspan
         style="stroke-width:0.264583;fill:#00ffff;"
         y="-77.296135"
         x="-117.43248"
         id="tspan862"
         sodipodi:role="line" /></text>
  </g>
</svg>
