<?xml version="1.0" encoding="UTF-8" standalone="no"?>
<svg
   xmlns:dc="http://purl.org/dc/elements/1.1/"
   xmlns:cc="http://creativecommons.org/ns#"
   xmlns:rdf="http://www.w3.org/1999/02/22-rdf-syntax-ns#"
   xmlns:svg="http://www.w3.org/2000/svg"
   xmlns="http://www.w3.org/2000/svg"
   xmlns:sodipodi="http://sodipodi.sourceforge.net/DTD/sodipodi-0.dtd"
   xmlns:inkscape="http://www.inkscape.org/namespaces/inkscape"
   width="19.84375mm"
   height="7.9375mm"
   viewBox="0 0 19.84375 7.9375"
   version="1.1"
   id="svg8"
   inkscape:version="1.0 (4035a4fb49, 2020-05-01)"
   sodipodi:docname="create-piece-reg-ffffff.svg">
  <defs
     id="defs2" />
  <sodipodi:namedview
     id="base"
     pagecolor="#ffffff"
     bordercolor="#666666"
     borderopacity="1.0"
     inkscape:pageopacity="0.0"
     inkscape:pageshadow="2"
     inkscape:zoom="16"
     inkscape:cx="38.248286"
     inkscape:cy="20.689149"
     inkscape:document-units="mm"
     inkscape:current-layer="layer1"
     inkscape:document-rotation="0"
     showgrid="false"
     fit-margin-top="0"
     fit-margin-left="0"
     fit-margin-right="0"
     fit-margin-bottom="0"
     inkscape:window-width="1920"
     inkscape:window-height="1001"
     inkscape:window-x="-9"
     inkscape:window-y="-9"
     inkscape:window-maximized="1" />
  <metadata
     id="metadata5">
    <rdf:RDF>
      <cc:Work
         rdf:about="">
        <dc:format>image/svg+xml</dc:format>
        <dc:type
           rdf:resource="http://purl.org/dc/dcmitype/StillImage" />
        <dc:title />
      </cc:Work>
    </rdf:RDF>
  </metadata>
  <g
     inkscape:label="Layer 1"
     inkscape:groupmode="layer"
     id="layer1"
     transform="translate(127,80.886909)">
    <rect
       style="opacity:0.997;fill:#edc9a2;stroke:none;stroke-width:0.189209;stroke-linejoin:round;stroke-dasharray:0.567625, 0.18920899999999999;fill-opacity:1"
       id="rect843-7"
       width="19.84375"
       height="7.9375"
       x="-127"
       y="-80.886909" />
    <path
       transform="matrix(0.26458333,0,0,0.26458333,-127,-80.886909)"
       d="M 0 0 L 0 30 L 75 30 L 75 0 L 0 0 z M 18.775391 2.9082031 C 19.031265 2.9082031 19.210045 3.0201642 19.486328 3.3554688 C 19.760722 3.6884818 19.933135 4.1377782 19.970703 4.6230469 C 20.010766 5.1393266 19.955283 5.3469813 19.705078 5.6425781 C 19.318621 6.0969907 19.289593 6.19227 19.294922 7.0488281 C 19.298701 7.8926719 19.375734 8.3799658 19.861328 10.767578 C 20.208667 12.47524 20.47176 13.601084 20.597656 13.912109 C 20.704239 14.175278 20.909601 14.320312 21.173828 14.320312 C 21.571321 14.320312 22.888182 13.450293 23.498047 12.785156 C 24.06097 12.17121 24.139135 11.923174 24.058594 10.980469 C 24.020798 10.550967 24.02699 10.503282 24.15625 10.214844 C 24.464281 9.5281959 25.123052 9.3033427 25.949219 9.6015625 C 26.927814 9.9547971 26.891177 11.237285 25.878906 12.039062 C 25.122547 12.63814 24.773706 12.963433 24.458984 13.365234 C 22.629051 15.701542 21.397472 19.953831 21.625 23.154297 C 21.696433 24.157081 21.913598 25.804892 22.054688 26.417969 L 22.167969 26.908203 L 14.662109 26.908203 C 7.5338125 26.908203 7.1563823 26.903523 7.1894531 26.810547 C 7.2699571 26.584531 7.474686 25.551015 7.546875 25.005859 C 7.7505915 23.466904 7.7723338 21.443773 7.5996094 20.146484 C 7.458633 19.089437 6.6473864 16.660463 5.953125 15.216797 C 5.3034998 13.865982 4.5608576 12.874513 3.7382812 12.259766 C 3.0381249 11.736505 2.7302431 11.299822 2.6699219 10.744141 C 2.6294809 10.370799 2.7237777 10.109643 2.9902344 9.8535156 C 3.2631163 9.591292 3.5813539 9.4828632 4.0644531 9.484375 C 4.4806547 9.4856449 4.7492784 9.6107414 4.9980469 9.9199219 C 5.2440941 10.225799 5.3421015 10.568967 5.2929688 10.951172 C 5.2154884 11.548965 5.2344627 11.868446 5.3652344 12.148438 C 5.7167304 12.901218 7.4297337 14.234058 8.140625 14.308594 C 8.3760896 14.333161 8.4054995 14.319876 8.5683594 14.142578 C 8.7758554 13.916336 8.8593925 13.641763 9.21875 11.974609 C 9.7399469 9.5568916 10.021696 7.9663493 10.072266 7.1582031 C 10.113462 6.5026705 10.015624 6.1480479 9.6777344 5.7265625 C 9.5375139 5.5515326 9.3994391 5.3178357 9.3710938 5.2070312 C 9.1310937 4.2651363 9.8225418 2.9912633 10.611328 2.921875 C 10.851328 2.9007096 10.908818 2.9188168 11.101562 3.0722656 C 11.56395 3.4399381 11.936474 4.1972156 11.974609 4.8457031 C 11.997287 5.2565227 11.997507 5.255849 11.806641 5.4882812 C 11.616908 5.7171694 11.614483 5.727783 11.638672 6.0917969 C 11.685538 6.7925818 12.369083 8.733559 13.265625 10.712891 C 14.023307 12.385638 14.244658 12.707143 14.650391 12.71875 C 14.992816 12.728577 15.208558 12.48556 15.695312 11.535156 C 16.242777 10.466223 17.272853 7.8560707 17.578125 6.7675781 C 17.642755 6.5368002 17.698085 6.2074498 17.699219 6.0351562 C 17.701638 5.7481022 17.684568 5.7023828 17.503906 5.4824219 C 17.305859 5.2431778 17.305133 5.2403974 17.330078 4.8554688 C 17.390929 3.9294543 18.148594 2.9082031 18.775391 2.9082031 z M 40.150391 4.0058594 C 40.779833 4.0058594 41.401363 4.1584983 42.013672 4.4667969 C 42.193577 4.5610079 42.321436 4.609375 42.398438 4.609375 C 42.514081 4.609375 42.613549 4.5676888 42.699219 4.4863281 C 42.810589 4.370725 42.890382 4.2114002 42.9375 4.0058594 L 43.162109 4.0058594 L 43.361328 6.9667969 L 43.162109 6.9667969 C 42.896635 6.0804397 42.517813 5.4423885 42.025391 5.0527344 C 41.532969 4.6630802 40.941339 4.4667969 40.251953 4.4667969 C 39.673887 4.4667969 39.152268 4.6147065 38.685547 4.9101562 C 38.218826 5.2013285 37.849836 5.6682615 37.580078 6.3105469 C 37.314579 6.9528347 37.183594 7.7521648 37.183594 8.7070312 C 37.183594 9.494904 37.309851 10.177801 37.5625 10.755859 C 37.815124 11.333918 38.193946 11.775688 38.699219 12.083984 C 39.208775 12.392283 39.788618 12.546875 40.439453 12.546875 C 41.004669 12.546875 41.503068 12.427298 41.935547 12.1875 C 42.368026 11.943443 42.84323 11.46155 43.361328 10.742188 L 43.560547 10.871094 C 43.12381 11.646119 42.6136 12.212583 42.03125 12.572266 C 41.4489 12.931946 40.757737 13.113281 39.957031 13.113281 C 38.514033 13.113281 37.397633 12.576337 36.605469 11.505859 C 36.014552 10.709422 35.71875 9.7724019 35.71875 8.6933594 C 35.71875 7.824131 35.913065 7.0267525 36.302734 6.2988281 C 36.692378 5.5709012 37.227384 5.0075936 37.908203 4.609375 C 38.593331 4.2068755 39.341118 4.0058594 40.150391 4.0058594 z M 62.007812 5.0976562 L 62.207031 5.0976562 L 62.207031 7.0292969 L 63.580078 7.0292969 L 63.580078 7.4804688 L 62.207031 7.4804688 L 62.207031 11.294922 C 62.207031 11.676012 62.260101 11.933667 62.367188 12.066406 C 62.478552 12.199143 62.619778 12.265625 62.791016 12.265625 C 62.93237 12.265625 63.068485 12.222363 63.201172 12.136719 C 63.333959 12.046791 63.436947 11.915409 63.509766 11.744141 L 63.761719 11.744141 C 63.611797 12.163769 63.398991 12.481223 63.125 12.695312 C 62.850959 12.905127 62.568519 13.009766 62.277344 13.009766 C 62.080304 13.009766 61.88754 12.956646 61.699219 12.849609 C 61.510746 12.73829 61.371102 12.582119 61.28125 12.380859 C 61.191297 12.175329 61.146484 11.859459 61.146484 11.435547 L 61.146484 7.4804688 L 60.214844 7.4804688 L 60.214844 7.2675781 C 60.450434 7.1733671 60.691566 7.0156201 60.935547 6.7929688 C 61.183988 6.5660207 61.403098 6.2985254 61.595703 5.9902344 C 61.694223 5.8275131 61.832297 5.5301199 62.007812 5.0976562 z M 51.626953 6.8496094 C 52.286355 6.8496094 52.828041 7.0691047 53.251953 7.5058594 C 53.675865 7.9383331 53.888672 8.5181693 53.888672 9.2460938 L 49.822266 9.2460938 C 49.817226 10.119606 50.030033 10.804081 50.458984 11.300781 C 50.88718 11.797484 51.390684 12.046875 51.96875 12.046875 C 52.354111 12.046875 52.688095 11.942236 52.970703 11.732422 C 53.257594 11.518324 53.496773 11.154452 53.689453 10.640625 L 53.888672 10.767578 C 53.798719 11.354201 53.537897 11.889189 53.105469 12.373047 C 52.67299 12.852621 52.131329 13.09375 51.480469 13.09375 C 50.773974 13.09375 50.167382 12.819571 49.662109 12.271484 C 49.16112 11.719119 48.910156 10.978005 48.910156 10.048828 C 48.910156 9.0425801 49.167801 8.2581979 49.681641 7.6972656 C 50.199738 7.1320549 50.84764 6.8496094 51.626953 6.8496094 z M 66.939453 6.8496094 C 67.59888 6.8496094 68.140541 7.0691047 68.564453 7.5058594 C 68.988365 7.9383331 69.201172 8.5181693 69.201172 9.2460938 L 65.134766 9.2460938 C 65.129726 10.119606 65.342533 10.804081 65.771484 11.300781 C 66.199654 11.797484 66.701231 12.046875 67.279297 12.046875 C 67.664683 12.046875 67.998667 11.942236 68.28125 11.732422 C 68.568141 11.518324 68.809248 11.154452 69.001953 10.640625 L 69.201172 10.767578 C 69.111219 11.354201 68.850422 11.889189 68.417969 12.373047 C 67.98549 12.852621 67.443803 13.09375 66.792969 13.09375 C 66.086449 13.09375 65.479882 12.819571 64.974609 12.271484 C 64.47362 11.719119 64.222656 10.978005 64.222656 10.048828 C 64.222656 9.0425798 64.480301 8.2581979 64.994141 7.6972656 C 65.512263 7.1320549 66.160165 6.8496094 66.939453 6.8496094 z M 45.890625 6.8574219 L 46.162109 6.8574219 L 46.162109 8.1796875 C 46.654531 7.2976138 47.159612 6.8574219 47.677734 6.8574219 C 47.913325 6.8574219 48.107665 6.9286313 48.261719 7.0742188 C 48.415923 7.2155218 48.494141 7.3819081 48.494141 7.5703125 C 48.494141 7.7373172 48.437542 7.87854 48.326172 7.9941406 C 48.214802 8.1097438 48.081864 8.1660156 47.927734 8.1660156 C 47.777813 8.1660156 47.608268 8.0948053 47.419922 7.9492188 C 47.235733 7.7993479 47.099618 7.7246094 47.009766 7.7246094 C 46.932663 7.7246094 46.849718 7.7659184 46.759766 7.8515625 C 46.56701 8.027109 46.36759 8.3162379 46.162109 8.71875 L 46.162109 11.539062 C 46.162109 11.864487 46.201817 12.110349 46.283203 12.277344 C 46.338888 12.392947 46.438724 12.489329 46.580078 12.566406 C 46.721432 12.643483 46.92403 12.681641 47.189453 12.681641 L 47.189453 12.914062 L 44.177734 12.914062 L 44.177734 12.681641 C 44.477476 12.681641 44.700116 12.635227 44.845703 12.541016 C 44.95279 12.472505 45.027487 12.362761 45.070312 12.212891 C 45.09047 12.140097 45.099609 11.932395 45.099609 11.589844 L 45.099609 9.3105469 C 45.099609 8.6254395 45.084663 8.2182989 45.054688 8.0898438 C 45.028987 7.9571067 44.977493 7.8607246 44.900391 7.8007812 C 44.827572 7.7408388 44.73637 7.7109375 44.625 7.7109375 C 44.492213 7.7109375 44.342736 7.7424139 44.175781 7.8066406 L 44.111328 7.5761719 L 45.890625 6.8574219 z M 57.097656 6.8574219 C 57.620037 6.8574219 58.048835 6.943569 58.382812 7.1191406 C 58.635461 7.2518776 58.82152 7.4595796 58.941406 7.7421875 C 59.018509 7.9263009 59.056641 8.3035426 59.056641 8.8730469 L 59.056641 10.871094 C 59.056641 11.432024 59.067733 11.775841 59.087891 11.904297 C 59.108048 12.028467 59.141075 12.113415 59.189453 12.15625 C 59.240855 12.199059 59.299029 12.220703 59.363281 12.220703 C 59.431817 12.220703 59.491567 12.203812 59.542969 12.173828 C 59.632922 12.118168 59.807571 11.961998 60.064453 11.705078 L 60.064453 12.066406 C 59.584881 12.708694 59.126215 13.029297 58.689453 13.029297 C 58.479563 13.029297 58.311594 12.956134 58.1875 12.810547 C 58.063546 12.665272 58.000625 12.418281 57.996094 12.068359 C 57.395606 12.53243 57.016959 12.802431 56.863281 12.875 C 56.631974 12.982036 56.384162 13.035156 56.123047 13.035156 C 55.716269 13.035156 55.380708 12.895505 55.115234 12.617188 C 54.854019 12.338863 54.722656 11.973415 54.722656 11.519531 C 54.722656 11.232645 54.787512 10.985205 54.916016 10.775391 C 55.091638 10.484221 55.395722 10.21004 55.828125 9.953125 C 56.264862 9.6962078 56.989455 9.3838694 58 9.015625 L 58 8.7832031 C 58 8.1965827 57.905269 7.7945505 57.716797 7.5761719 C 57.532608 7.3577908 57.261601 7.2480469 56.90625 7.2480469 C 56.636493 7.2480469 56.424038 7.3212095 56.265625 7.4667969 C 56.102853 7.6123843 56.021484 7.7803481 56.021484 7.96875 L 56.03125 8.3398438 C 56.03125 8.5368068 55.981709 8.6898237 55.878906 8.796875 C 55.780387 8.9039112 55.648999 8.9570312 55.486328 8.9570312 C 55.32784 8.9570312 55.196452 8.9003822 55.09375 8.7890625 C 54.99523 8.6777428 54.947266 8.5266798 54.947266 8.3339844 C 54.947266 7.9657374 55.1349 7.6266554 55.511719 7.3183594 C 55.888512 7.0100608 56.416812 6.8574219 57.097656 6.8574219 z M 51.267578 7.3066406 C 50.912202 7.3066406 50.593155 7.446285 50.310547 7.7246094 C 50.032222 7.9986528 49.869384 8.3806273 49.822266 8.8730469 L 52.546875 8.8730469 C 52.526718 8.4962381 52.481905 8.2303212 52.412109 8.0761719 C 52.305023 7.8363734 52.143727 7.6487283 51.929688 7.5117188 C 51.719798 7.3746983 51.498734 7.3066406 51.267578 7.3066406 z M 66.580078 7.3066406 C 66.224677 7.3066406 65.905655 7.446285 65.623047 7.7246094 C 65.344722 7.9986528 65.181859 8.3806273 65.134766 8.8730469 L 67.857422 8.8730469 C 67.837264 8.4962381 67.792452 8.2303212 67.722656 8.0761719 C 67.61557 7.8363734 67.456255 7.6487286 67.242188 7.5117188 C 67.032298 7.3746983 66.811209 7.3066406 66.580078 7.3066406 z M 58 9.40625 C 57.353424 9.6631646 56.934491 9.8460762 56.746094 9.953125 C 56.407826 10.141522 56.167072 10.33743 56.021484 10.542969 C 55.875847 10.748499 55.802734 10.974681 55.802734 11.21875 C 55.802734 11.527049 55.893936 11.782751 56.078125 11.988281 C 56.262314 12.189528 56.475121 12.291016 56.714844 12.291016 C 57.040286 12.291016 57.469052 12.076623 58 11.648438 L 58 9.40625 z M 47.761719 16.933594 C 47.941624 16.933594 48.092677 16.9985 48.216797 17.126953 C 48.345301 17.251123 48.410156 17.402184 48.410156 17.582031 C 48.410156 17.761861 48.345301 17.916456 48.216797 18.044922 C 48.092576 18.173375 47.941523 18.238281 47.761719 18.238281 C 47.581813 18.238281 47.427231 18.173375 47.298828 18.044922 C 47.170324 17.916468 47.105469 17.761874 47.105469 17.582031 C 47.105469 17.402176 47.168748 17.251116 47.292969 17.126953 C 47.421473 16.9985 47.577656 16.933594 47.761719 16.933594 z M 38.75 17.357422 L 41.941406 17.357422 C 42.72072 17.357422 43.335569 17.438845 43.785156 17.601562 C 44.234769 17.76 44.613592 18.031027 44.921875 18.412109 C 45.230184 18.793202 45.384766 19.245187 45.384766 19.767578 C 45.384766 20.478376 45.148739 21.054681 44.677734 21.5 C 44.210988 21.945319 43.549725 22.167969 42.693359 22.167969 C 42.48347 22.167969 42.257678 22.153006 42.013672 22.123047 C 41.769514 22.093063 41.506739 22.048225 41.228516 21.988281 L 41.228516 24.525391 C 41.228516 25.073475 41.288266 25.414135 41.408203 25.546875 C 41.570975 25.735272 41.818787 25.830078 42.148438 25.830078 L 42.482422 25.830078 L 42.482422 26.068359 L 38.75 26.068359 L 38.75 25.830078 L 39.078125 25.830078 C 39.446377 25.830078 39.70875 25.710502 39.867188 25.470703 C 39.952853 25.337966 39.996094 25.022094 39.996094 24.525391 L 39.996094 18.900391 C 39.996094 18.352304 39.937919 18.011646 39.822266 17.878906 C 39.655211 17.690509 39.407775 17.595703 39.078125 17.595703 L 38.75 17.595703 L 38.75 17.357422 z M 42.070312 17.878906 C 41.85186 17.878906 41.570991 17.918639 41.228516 18 L 41.228516 21.623047 C 41.455539 21.665856 41.65656 21.697333 41.832031 21.71875 C 42.007653 21.740167 42.159083 21.751953 42.283203 21.751953 C 42.728507 21.751953 43.110507 21.580832 43.431641 21.238281 C 43.757083 20.891444 43.919922 20.442616 43.919922 19.894531 C 43.919922 19.517722 43.843658 19.1688 43.689453 18.847656 C 43.535248 18.522231 43.315761 18.281477 43.033203 18.123047 C 42.750595 17.960326 42.429972 17.878906 42.070312 17.878906 z M 52.707031 20.003906 C 53.366433 20.003906 53.908119 20.223402 54.332031 20.660156 C 54.755943 21.09263 54.966797 21.672466 54.966797 22.400391 L 50.902344 22.400391 C 50.897304 23.273902 51.108158 23.958378 51.537109 24.455078 C 51.965305 24.951781 52.468834 25.201172 53.046875 25.201172 C 53.432261 25.201172 53.76622 25.09458 54.048828 24.884766 C 54.335719 24.670668 54.574898 24.306796 54.767578 23.792969 L 54.966797 23.921875 C 54.876844 24.508498 54.616022 25.043486 54.183594 25.527344 C 53.751115 26.006918 53.209454 26.248047 52.558594 26.248047 C 51.852074 26.248047 51.247458 25.973868 50.742188 25.425781 C 50.241224 24.873416 49.990234 24.132302 49.990234 23.203125 C 49.990234 22.196876 50.245951 21.412495 50.759766 20.851562 C 51.277888 20.286354 51.927718 20.003906 52.707031 20.003906 z M 64.371094 20.003906 C 65.030495 20.003906 65.572182 20.223402 65.996094 20.660156 C 66.420006 21.09263 66.630859 21.672466 66.630859 22.400391 L 62.566406 22.400391 C 62.561367 23.273902 62.772221 23.958378 63.201172 24.455078 C 63.629367 24.951781 64.132871 25.201172 64.710938 25.201172 C 65.096298 25.201172 65.430283 25.09458 65.712891 24.884766 C 65.999782 24.670668 66.23896 24.306796 66.431641 23.792969 L 66.630859 23.921875 C 66.540907 24.508498 66.280085 25.043486 65.847656 25.527344 C 65.415178 26.006918 64.873516 26.248047 64.222656 26.248047 C 63.516162 26.248047 62.911522 25.973868 62.40625 25.425781 C 61.905261 24.873416 61.654297 24.132302 61.654297 23.203125 C 61.654297 22.196876 61.909989 21.412495 62.423828 20.851562 C 62.941926 20.286352 63.59178 20.003906 64.371094 20.003906 z M 48.011719 20.009766 L 48.294922 20.009766 L 48.294922 24.738281 C 48.294922 25.106526 48.319692 25.352388 48.371094 25.476562 C 48.426779 25.596449 48.506572 25.68615 48.609375 25.746094 C 48.716462 25.806037 48.909226 25.835938 49.1875 25.835938 L 49.1875 26.068359 L 46.328125 26.068359 L 46.328125 25.835938 C 46.615016 25.835938 46.807781 25.807613 46.90625 25.751953 C 47.00477 25.696293 47.082987 25.605016 47.138672 25.476562 C 47.19864 25.348112 47.228516 25.10225 47.228516 24.738281 L 47.228516 22.470703 C 47.228516 21.832699 47.208473 21.418873 47.169922 21.230469 C 47.139938 21.093448 47.093549 21.000595 47.029297 20.949219 C 46.965045 20.893559 46.876995 20.865234 46.765625 20.865234 C 46.645688 20.865234 46.499363 20.896711 46.328125 20.960938 L 46.238281 20.730469 L 48.011719 20.009766 z M 58.589844 20.009766 C 59.16791 20.009766 59.64309 20.164358 60.015625 20.472656 C 60.388135 20.776671 60.574219 21.09412 60.574219 21.423828 C 60.574219 21.586549 60.521149 21.719508 60.414062 21.822266 C 60.31126 21.92076 60.164934 21.96875 59.976562 21.96875 C 59.72394 21.96875 59.534704 21.889284 59.40625 21.726562 C 59.333431 21.636636 59.283513 21.463563 59.257812 21.210938 C 59.235136 20.958304 59.148661 20.765552 59 20.632812 C 58.850079 20.50436 58.64433 20.441406 58.378906 20.441406 C 57.950736 20.441406 57.604966 20.599155 57.34375 20.916016 C 56.996915 21.335644 56.824219 21.89069 56.824219 22.580078 C 56.824219 23.282312 56.995339 23.903837 57.337891 24.443359 C 57.684725 24.978598 58.151648 25.246094 58.738281 25.246094 C 59.15791 25.246094 59.533203 25.101342 59.867188 24.814453 C 60.102777 24.617489 60.332124 24.260302 60.554688 23.742188 L 60.742188 23.832031 C 60.583699 24.607059 60.272934 25.205374 59.810547 25.625 C 59.348084 26.040347 58.836323 26.248047 58.275391 26.248047 C 57.607422 26.248047 57.026002 25.967182 56.529297 25.40625 C 56.032591 24.84532 55.783203 24.08768 55.783203 23.132812 C 55.783203 22.20792 56.057387 21.455012 56.605469 20.876953 C 57.157834 20.298895 57.819097 20.009766 58.589844 20.009766 z M 52.347656 20.460938 C 51.992255 20.460938 51.673233 20.598629 51.390625 20.876953 C 51.112301 21.150997 50.949437 21.534924 50.902344 22.027344 L 53.625 22.027344 C 53.604843 21.650535 53.56003 21.384618 53.490234 21.230469 C 53.383148 20.99067 53.22186 20.803026 53.007812 20.666016 C 52.797925 20.528995 52.578812 20.460937 52.347656 20.460938 z M 64.011719 20.460938 C 63.656317 20.460938 63.33727 20.598629 63.054688 20.876953 C 62.776363 21.150997 62.613524 21.534924 62.566406 22.027344 L 65.289062 22.027344 C 65.266385 21.650535 65.221572 21.384618 65.154297 21.230469 C 65.04721 20.99067 64.885922 20.803026 64.671875 20.666016 C 64.461985 20.528995 64.242875 20.460938 64.011719 20.460938 z "
       style="opacity:0.997;fill:#000000;stroke:none;stroke-width:7.80794;stroke-linejoin:round;stroke-miterlimit:4;stroke-dasharray:none"
       id="rect833" />
    <text
       xml:space="preserve"
       style="font-size:2.64583333px;line-height:0.5;font-family:Garamond;-inkscape-font-specification:Garamond;text-align:center;text-anchor:middle;stroke-width:0.264583;"
       x="-113.25111"
       y="-78.430061"
       id="text856"><tspan
         sodipodi:role="line"
         id="tspan854"
         x="-113.25111"
         y="-78.430061"
         style="stroke-width:0.264583;font-size:2.64583333px;" /></text>
    <text
       xml:space="preserve"
       style="font-size:7.9375px;line-height:0.5;font-family:Garamond;-inkscape-font-specification:Garamond;text-align:center;text-anchor:middle;stroke-width:0.264583"
       x="-121.42485"
       y="-68.20108"
       id="text860"><tspan
         sodipodi:role="line"
         id="tspan858"
         x="-121.42485"
         y="-68.20108"
         style="stroke-width:0.264583" /></text>
    <text
       xml:space="preserve"
       style="font-size:2.64583px;line-height:0.5;font-family:Garamond;-inkscape-font-specification:Garamond;text-align:center;text-anchor:middle;stroke-width:0.264583;fill:#00ffff;"
       x="-117.43248"
       y="-77.296135"
       id="text864"><tspan
         sodipodi:role="line"
         id="tspan862"
         x="-117.43248"
         y="-77.296135"
         style="stroke-width:0.264583;fill:#00ffff;" /></text>
  </g>
</svg>
