<?xml version="1.0" encoding="UTF-8" standalone="no"?>
<!-- Created with Inkscape (http://www.inkscape.org/) -->

<svg
   xmlns:dc="http://purl.org/dc/elements/1.1/"
   xmlns:cc="http://creativecommons.org/ns#"
   xmlns:rdf="http://www.w3.org/1999/02/22-rdf-syntax-ns#"
   xmlns:svg="http://www.w3.org/2000/svg"
   xmlns="http://www.w3.org/2000/svg"
   xmlns:sodipodi="http://sodipodi.sourceforge.net/DTD/sodipodi-0.dtd"
   xmlns:inkscape="http://www.inkscape.org/namespaces/inkscape"
   version="1.1"
   id="svg874"
   width="185"
   height="189"
   viewBox="0 0 185 189"
   sodipodi:docname="help-969696.svg"
   inkscape:version="0.92.4 (5da689c313, 2019-01-14)">
  <metadata
     id="metadata880">
    <rdf:RDF>
      <cc:Work
         rdf:about="">
        <dc:format>image/svg+xml</dc:format>
        <dc:type
           rdf:resource="http://purl.org/dc/dcmitype/StillImage" />
        <dc:title />
      </cc:Work>
    </rdf:RDF>
  </metadata>
  <defs
     id="defs878" />
  <sodipodi:namedview
     pagecolor="#ffffff"
     bordercolor="#666666"
     borderopacity="1"
     objecttolerance="10"
     gridtolerance="10"
     guidetolerance="10"
     inkscape:pageopacity="0"
     inkscape:pageshadow="2"
     inkscape:window-width="1920"
     inkscape:window-height="1017"
     id="namedview876"
     showgrid="false"
     inkscape:zoom="1.7658963"
     inkscape:cx="-103.01802"
     inkscape:cy="88.295137"
     inkscape:window-x="-8"
     inkscape:window-y="-8"
     inkscape:window-maximized="1"
     inkscape:current-layer="svg874" />
  <path
     style="fill:#969696;fill-opacity:1;stroke-width:1.15161753"
     d="m 8.77644,177.15914 c -1.312741,-1.66889 -2.3830769,-3.35314 -2.3785168,-3.74276 0.00458,-0.38963 2.2756548,-9.45918 5.0468838,-20.15456 l 5.038603,-19.44615 -2.694924,-5.88944 C 8.89296,117.22763 7.0753049,107.99361 7.0753049,93.822185 7.0753049,77.731889 8.974621,69.730247 16.369375,54.66719 20.911799,45.41431 23.354025,42.121038 32.202899,33.316129 49.810761,15.795746 68.246523,8.1275558 92.760931,8.1275558 c 24.543319,0 43.001669,7.6841882 60.506059,25.1885732 17.50818,17.508189 25.19241,35.969921 25.18407,60.506056 -0.007,16.090505 -1.90737,24.099165 -9.29857,39.154985 -4.54242,9.25287 -6.98464,12.54616 -15.83353,21.35105 -17.61168,17.5242 -36.05076,25.19241 -60.558029,25.18407 -14.183633,-0.004 -23.412313,-1.82528 -34.141595,-6.73484 l -5.926972,-2.71211 -19.238936,5.06407 c -10.581416,2.78524 -19.92546,5.06408 -20.764552,5.06408 -0.83908,0 -2.599684,-1.36547 -3.912436,-3.03435 z m 90.0037,-38.13598 c 6.4708,-7.36895 -0.42922,-17.85382 -9.324671,-14.1692 -8.836675,3.66028 -6.278769,16.18454 3.305462,16.18454 2.605233,0 4.934257,-0.77981 6.019209,-2.01534 z m -1.412739,-27.92672 c 1.266779,-1.26678 2.303239,-3.78802 2.303239,-5.60277 0,-3.43578 1.80168,-6.237842 9.90829,-15.409872 14.86737,-16.821321 4.8122,-41.174694 -17.000456,-41.174694 -12.002861,0 -21.64796,8.332942 -23.513129,20.314315 -0.611416,3.927579 -0.314044,5.195603 1.687964,7.19761 1.336571,1.33657 3.466585,2.430129 4.733363,2.430129 3.224189,0 6.909706,-4.039893 6.909706,-7.5741 0,-4.274892 5.796864,-9.700163 10.364553,-9.700163 5.490729,0 10.364559,5.378424 10.364559,11.437595 0,4.093001 -0.81362,5.590069 -6.254466,11.508364 -7.39925,8.048525 -9.663651,12.092168 -10.600959,18.930566 -0.574757,4.1933 -0.274296,5.48432 1.746738,7.50535 3.062152,3.06215 6.377306,3.11096 9.350598,0.13767 z"
     id="path1432"
     inkscape:connector-curvature="0" />
</svg>
