<?xml version="1.0" encoding="UTF-8" standalone="no"?>
<svg
   xmlns:dc="http://purl.org/dc/elements/1.1/"
   xmlns:cc="http://creativecommons.org/ns#"
   xmlns:rdf="http://www.w3.org/1999/02/22-rdf-syntax-ns#"
   xmlns:svg="http://www.w3.org/2000/svg"
   xmlns="http://www.w3.org/2000/svg"
   xmlns:sodipodi="http://sodipodi.sourceforge.net/DTD/sodipodi-0.dtd"
   xmlns:inkscape="http://www.inkscape.org/namespaces/inkscape"
   inkscape:version="1.0 (4035a4fb49, 2020-05-01)"
   sodipodi:docname="home.svg"
   viewBox="0 0 566.92913 566.92912"
   height="150mm"
   width="150mm"
   id="svg839"
   version="1.1">
  <metadata
     id="metadata845">
    <rdf:RDF>
      <cc:Work
         rdf:about="">
        <dc:format>image/svg+xml</dc:format>
        <dc:type
           rdf:resource="http://purl.org/dc/dcmitype/StillImage" />
        <dc:title></dc:title>
      </cc:Work>
    </rdf:RDF>
  </metadata>
  <defs
     id="defs843" />
  <sodipodi:namedview
     fit-margin-bottom="0"
     fit-margin-right="0"
     fit-margin-left="0"
     fit-margin-top="0"
     units="mm"
     inkscape:current-layer="g847"
     inkscape:window-maximized="1"
     inkscape:window-y="-9"
     inkscape:window-x="-9"
     inkscape:cy="-79.662468"
     inkscape:cx="127.23701"
     inkscape:zoom="0.45294131"
     showgrid="false"
     id="namedview841"
     inkscape:window-height="1001"
     inkscape:window-width="1920"
     inkscape:pageshadow="2"
     inkscape:pageopacity="0"
     guidetolerance="10"
     gridtolerance="10"
     objecttolerance="10"
     borderopacity="1"
     bordercolor="#666666"
     pagecolor="#ff0000"
     inkscape:document-rotation="0" />
  <g
     transform="translate(3.4741769,-0.94140616)"
     id="g847"
     inkscape:label="Image"
     inkscape:groupmode="layer">
    <path
       d="M -3.4741769,0.94140616 V 567.87054 H 563.45496 V 0.94140616 Z M 376.83123,65.925449 l 4.72212,0.751374 c 12.58253,1.999308 19.7901,4.241496 25.39948,7.900805 3.29542,2.149779 8.46718,5.18121 11.49196,6.737965 5.16906,2.660353 5.37133,2.924158 3.36782,4.387895 -3.80924,2.782986 -10.76271,4.019957 -17.75718,3.158363 -9.24951,-1.139387 -14.5936,-0.974356 -18.3155,0.565972 -3.00479,1.243549 -3.1985,1.736918 -3.54362,8.992085 l -0.36462,7.674752 3.0553,-0.002 c 2.82475,-0.002 3.0553,0.33313 3.0553,4.43831 v 4.44156 h 4.44539 4.4454 v -4.44156 -4.44156 h 9.57446 c 9.38727,0 9.56234,0.049 8.90544,2.49808 -0.36852,1.37394 -0.67694,10.78627 -0.68528,20.91647 l -0.0162,18.41841 -2.77696,1.2653 -2.77857,1.2653 v 31.66502 31.66665 h 10.00093 10.00092 v 5.55073 c 0,5.18119 0.18574,5.55236 2.77858,5.55236 2.55168,0 2.77695,0.4071 2.77695,4.99615 0,4.8111 0.12347,4.99614 3.33364,4.99614 h 3.33365 v 6.66153 6.66153 h 7.22397 7.22235 v -6.66153 -6.66153 h 12.7795 12.77788 v 6.66153 6.66153 h 7.22397 7.22235 v -6.66153 -6.66153 h 12.7795 12.77789 v 9.81339 c 0,5.39787 -0.32479,18.79569 -0.72273,29.77195 l -0.72435,19.95693 -4.27611,2.45905 -4.27774,2.45904 v 92.49536 92.49375 l -3.0553,1.41655 c -12.6632,5.8699 -27.16887,7.94812 -55.5862,7.9626 -20.88442,0.0111 -33.86092,-1.07461 -42.45836,-3.55195 -2.58083,-0.74366 -51.12255,-1.00645 -142.81108,-0.77413 -122.21161,0.30964 -140.17074,0.56873 -149.45882,2.15979 -12.95458,2.21915 -32.779804,2.95732 -50.756664,1.88982 -14.79022,-0.87828 -26.31942,-3.31948 -29.57305,-6.26145 -2.02937,-1.83496 -2.01236,-1.94717 0.64784,-4.23339 1.50303,-1.29174 5.74163,-2.93983 9.41819,-3.66253 l 6.68519,-1.3141 0.66413,-21.34096 c 0.3653,-11.73709 1.12058,-52.06562 1.67984,-89.61998 0.84004,-56.40863 0.76007,-68.47423 -0.46065,-69.39144 -0.8127,-0.61064 -3.0154,-1.9604 -4.89466,-3.00062 l -3.41666,-1.89144 v -28.91812 -28.91812 h 12.7795 12.77951 v 6.66153 6.66153 h 7.22234 7.22236 v -6.66153 -6.66153 h 12.224434 12.22281 v 6.66153 6.66153 h 7.22236 7.22397 v -6.66153 c 0,-6.36546 0.12238,-6.66153 2.77695,-6.66153 2.55168,0 2.77858,-0.40709 2.77858,-4.99614 0,-4.25597 0.32871,-4.99615 2.22189,-4.99615 1.9261,0 2.2235,-0.74126 2.2235,-5.55236 v -5.55073 h 9.44424 9.44586 l -0.007,-31.92036 -0.007,-31.91873 -3.32714,-1.89145 -3.32713,-1.89144 v -20.03662 -20.03663 h 9.44586 9.44424 v 4.44156 c 0,4.33528 0.0936,4.44156 3.89033,4.44156 3.79665,0 3.88871,-0.10629 3.88871,-4.44156 0,-4.1943 0.18521,-4.44156 3.33364,-4.44156 h 3.33364 V 86.105161 c 0,-15.255278 0.32817,-19.98108 1.38848,-19.969946 0.76396,0.008 6.05539,0.97741 11.7589,2.153286 8.56842,1.766531 12.14506,3.210573 20.58459,8.312272 5.61771,3.395901 10.82724,6.173625 11.57659,6.173625 2.5278,0 1.38603,2.151049 -2.09655,3.950402 -4.84761,2.504626 -14.43027,3.27972 -20.28834,1.640984 -4.13939,-1.157965 -5.89573,-1.089102 -11.14035,0.434232 l -6.22779,1.808504 v 7.741428 7.739792 h 3.33364 c 3.14844,0 3.33365,0.24726 3.33365,4.44156 v 4.44156 h 4.44539 4.4454 v -4.44156 -4.44156 h 8.88917 8.88917 v 20.96039 20.96039 l -3.33364,1.37915 -3.33364,1.38077 v 37.058 37.05962 h 5.55715 5.55553 v -5.55236 -5.55073 h 13.33519 13.33456 v 5.55073 5.55236 h 8.33411 8.3341 v -5.55236 -5.55073 h 13.88964 13.89125 v 5.55073 5.55236 h 8.33411 8.3341 v -5.55236 -5.55073 h 13.88964 13.88964 v 5.55073 5.55236 h 4.44539 4.4454 v -37.16534 -37.16534 l -3.33364,-1.7223 -3.33365,-1.7223 -0.16765,-18.84614 c -0.0917,-10.3652 -0.21561,-19.47011 -0.27672,-20.23341 -0.0788,-0.98347 2.55874,-1.48242 9.0552,-1.71093 l 9.16752,-0.32201 v 4.48547 4.4871 h 4.4454 4.44539 v -4.44156 c 0,-4.1943 0.18521,-4.44156 3.33364,-4.44156 h 3.33364 V 86.007578 Z"
       style="fill:#000000;stroke:none;stroke-width:0.33322;stroke-linejoin:round"
       id="rect1414" />
  </g>
</svg>
