<?xml version="1.0" encoding="UTF-8" standalone="no"?>
<svg
   xmlns:dc="http://purl.org/dc/elements/1.1/"
   xmlns:cc="http://creativecommons.org/ns#"
   xmlns:rdf="http://www.w3.org/1999/02/22-rdf-syntax-ns#"
   xmlns:svg="http://www.w3.org/2000/svg"
   xmlns="http://www.w3.org/2000/svg"
   xmlns:sodipodi="http://sodipodi.sourceforge.net/DTD/sodipodi-0.dtd"
   xmlns:inkscape="http://www.inkscape.org/namespaces/inkscape"
   sodipodi:docname="home-reg-ffffff.svg"
   inkscape:version="1.0 (4035a4fb49, 2020-05-01)"
   id="svg8"
   version="1.1"
   viewBox="0 0 19.84375 7.9375"
   height="7.9375mm"
   width="19.84375mm">
  <defs
     id="defs2" />
  <sodipodi:namedview
     inkscape:window-maximized="1"
     inkscape:window-y="-9"
     inkscape:window-x="-9"
     inkscape:window-height="1001"
     inkscape:window-width="1920"
     fit-margin-bottom="0"
     fit-margin-right="0"
     fit-margin-left="0"
     fit-margin-top="0"
     showgrid="false"
     inkscape:document-rotation="0"
     inkscape:current-layer="layer1"
     inkscape:document-units="mm"
     inkscape:cy="11.232362"
     inkscape:cx="32.848402"
     inkscape:zoom="7.9999995"
     inkscape:pageshadow="2"
     inkscape:pageopacity="0.0"
     borderopacity="1.0"
     bordercolor="#666666"
     pagecolor="#ffffff"
     id="base" />
  <metadata
     id="metadata5">
    <rdf:RDF>
      <cc:Work
         rdf:about="">
        <dc:format>image/svg+xml</dc:format>
        <dc:type
           rdf:resource="http://purl.org/dc/dcmitype/StillImage" />
        <dc:title />
      </cc:Work>
    </rdf:RDF>
  </metadata>
  <g
     transform="translate(127,80.886909)"
     id="layer1"
     inkscape:groupmode="layer"
     inkscape:label="Layer 1">
    <rect
       y="-80.886909"
       x="-127"
       height="7.9375"
       width="19.84375"
       id="rect837"
       style="fill:#ccad8b;fill-opacity:1;stroke:none;stroke-width:0.144979;stroke-linejoin:round" />
    <path
       transform="matrix(0.26458333,0,0,0.26458333,-127,-80.886909)"
       id="rect833"
       style="opacity:0.997;fill:#ffffff;fill-opacity:1;stroke:none;stroke-width:7.80794;stroke-linejoin:round;stroke-miterlimit:4;stroke-dasharray:none"
       d="M 0,0 V 30 H 75 V 0 Z m 19.894531,3 0.394531,0.083984 c 0.62846,0.1344756 0.835653,0.237309 1.726563,0.8535156 l 0.132813,0.091797 -0.212891,0.1074219 c -0.174614,0.089272 -0.332846,0.1049747 -0.908203,0.09375 -0.879572,-0.018142 -0.919922,0.011412 -0.919922,0.6269531 0,0.3984945 0.0039,0.4101562 0.132812,0.4101562 0.119433,0 0.132813,0.023479 0.132813,0.2402344 v 0.2402344 h 0.238281 0.238281 V 5.5078125 5.2675781 h 0.458985 0.457031 l -0.0332,0.2792969 c -0.0189,0.1532598 -0.0332,0.6765119 -0.0332,1.1621094 V 7.5917969 L 21.566412,7.6601559 21.4336,7.7285149 V 9.53125 11.333984 h 0.503906 0.501953 v 0.296875 c 0,0.261355 0.013,0.297487 0.121094,0.314453 0.09902,0.01588 0.121163,0.0635 0.134765,0.271485 0.01134,0.223257 0.03355,0.254631 0.171876,0.289062 0.151933,0.03742 0.156248,0.04876 0.15625,0.396485 v 0.359375 l 0.384765,-0.01758 0.384766,-0.01953 0.01563,-0.345703 0.01367,-0.34375 h 0.607422 0.607421 v 0.359375 0.361328 h 0.371094 0.371094 V 12.894531 12.535156 H 26.390625 27 v 0.650391 c 0,0.35811 -0.01626,1.099398 -0.03516,1.646484 l -0.0332,0.994141 -0.205079,0.128906 -0.203124,0.13086 v 5.21289 5.212891 l -0.292969,0.126953 c -0.654955,0.283842 -1.074036,0.33939 -2.570313,0.339844 -1.118324,3.17e-4 -1.531973,-0.02168 -2.02539,-0.111328 -0.589985,-0.106923 -0.952199,-0.111827 -7.451172,-0.08008 -5.7718688,0.02835 -6.9181587,0.04861 -7.3886721,0.126953 C 6.187388,27.01523 4.5440395,27.029979 3.9277344,26.941406 3.5047756,26.878654 3.0305377,26.708747 3.0019531,26.607422 2.9717169,26.503938 3.2897415,26.299853 3.5488281,26.255859 3.6690171,26.23545 3.7928487,26.20168 3.8242188,26.179688 3.890738,26.133275 4.0162498,19.294906 3.9882812,17.25 L 3.96875,15.990234 3.7695312,15.869141 3.5703125,15.75 v -1.607422 -1.607422 h 0.609375 0.6113281 v 0.361328 0.359375 h 0.3710938 0.3710937 v -0.359375 -0.361328 h 0.5820313 0.5839844 v 0.361328 0.359375 h 0.3710937 0.3710937 v -0.294921 c 0,-0.285582 0.016423,-0.323493 0.2382813,-0.533204 0.044976,-0.04256 0.080078,-0.166981 0.080078,-0.277343 0,-0.150426 0.027674,-0.208914 0.1074219,-0.232422 0.086551,-0.02608 0.1054688,-0.0817 0.1054687,-0.304688 V 11.339844 L 8.4375,11.320312 8.9003906,11.302734 8.9121094,9.5175781 8.9238281,7.7324219 8.7382812,7.5957031 8.5507812,7.4589844 V 6.3632812 5.2675781 h 0.4472657 0.4472656 l 0.015625,0.2246094 c 0.015118,0.2122961 0.025741,0.226906 0.2109375,0.2441406 0.191622,0.018142 0.1966387,0.01247 0.2128906,-0.2109375 0.015118,-0.1992189 0.033606,-0.2316063 0.1621094,-0.2480468 0.141732,-0.018142 0.146484,-0.028049 0.146484,-0.3945313 0,-0.2073449 0.01431,-0.7100804 0.0332,-1.1152344 l 0.0332,-0.7363281 0.248046,0.037109 c 0.499465,0.074948 0.871386,0.2254977 1.416016,0.5722656 l 0.556641,0.3554688 -0.148438,0.109375 c -0.124724,0.092182 -0.259807,0.1110635 -0.814453,0.1113281 -0.36548,1.814e-4 -0.753902,0.02251 -0.863281,0.050781 l -0.199219,0.052734 v 0.4726563 0.4746093 h 0.160156 c 0.150426,0 0.158203,0.013274 0.158204,0.2402344 V 5.7480469 H 11.011719 11.25 V 5.5078125 5.2675781 h 0.425781 0.423828 v 1.1640625 1.1660156 l -0.160156,0.0625 -0.158203,0.0625 v 2.1054688 2.105469 h 0.291016 0.292968 v -0.300782 -0.298828 h 0.636719 0.634766 v 0.298828 0.300782 h 0.451172 0.451171 v -0.300782 -0.298828 h 0.66211 0.664062 v 0.298828 0.300782 h 0.423828 0.423829 v -0.300782 -0.298828 h 0.664062 0.662109 v 0.298828 0.300782 h 0.265626 0.263671 V 9.8300781 7.7285156 L 18.382812,7.6269531 18.197266,7.5273438 v -1.09375 c 0,-1.2530079 -0.0418,-1.1644472 0.542968,-1.1660157 h 0.306641 v 0.2402344 0.2402344 h 0.234375 c 0.233575,0 0.236079,-0.0011 0.251953,-0.2246094 0.01512,-0.2057575 0.03071,-0.2269438 0.189453,-0.2441406 l 0.171875,-0.019531 V 4.1308594 Z m 15.898438,7.605469 h 3.732422 v 0.236328 h -0.314453 c -0.205607,0 -0.399922,0.04994 -0.583985,0.148437 -0.132787,0.06851 -0.225942,0.17315 -0.277344,0.314454 -0.0514,0.137017 -0.07617,0.419466 -0.07617,0.847656 v 2.492187 h 4.044921 v -2.492187 c 0,-0.445319 -0.02635,-0.737608 -0.08203,-0.878906 -0.04284,-0.107037 -0.13246,-0.200267 -0.269531,-0.277344 -0.184189,-0.102753 -0.380483,-0.154297 -0.585938,-0.154297 h -0.308593 v -0.236328 h 3.726562 v 0.236328 h -0.308594 c -0.205606,0 -0.399946,0.04994 -0.583984,0.148437 -0.137071,0.06851 -0.231802,0.17315 -0.283203,0.314454 -0.04712,0.137017 -0.07031,0.419466 -0.07031,0.847656 v 5.621094 c 0,0.441035 0.02635,0.731745 0.08203,0.873046 0.04283,0.107037 0.130884,0.198314 0.263672,0.275391 0.188469,0.102753 0.386341,0.154297 0.591796,0.154297 h 0.308594 v 0.238281 h -3.726562 v -0.238281 h 0.308593 c 0.355402,0 0.614623,-0.104639 0.777344,-0.314453 0.107087,-0.137021 0.160156,-0.465891 0.160156,-0.988281 v -2.654297 h -4.044921 v 2.654297 c 0,0.441035 0.02635,0.731745 0.08203,0.873046 0.04283,0.107037 0.134413,0.198314 0.271484,0.275391 0.184189,0.102753 0.378504,0.154297 0.583985,0.154297 h 0.314453 v 0.238281 h -3.732422 v -0.238281 h 0.308593 c 0.35966,0 0.622435,-0.104639 0.785157,-0.314453 0.102803,-0.137021 0.154297,-0.465891 0.154297,-0.988281 v -5.621094 c 0,-0.445319 -0.0283,-0.737608 -0.08398,-0.878906 -0.04283,-0.107037 -0.130884,-0.200267 -0.263672,-0.277344 -0.188472,-0.102753 -0.386341,-0.154297 -0.591797,-0.154297 h -0.3086 z M 65.082031,13.25 c 0.659427,0 1.201114,0.219495 1.625,0.65625 0.423912,0.432474 0.636719,1.012307 0.636719,1.740234 h -4.066406 c -0.005,0.87351 0.205814,1.557985 0.634765,2.054688 0.428196,0.4967 0.9317,0.746094 1.509766,0.746094 0.385361,0 0.719345,-0.104639 1.001953,-0.314454 0.286891,-0.214097 0.528023,-0.577967 0.720703,-1.091796 l 0.199219,0.126953 c -0.08995,0.586623 -0.352728,1.123567 -0.785156,1.607422 -0.432479,0.479574 -0.97414,0.71875 -1.625,0.71875 -0.706495,0 -1.311134,-0.274182 -1.816406,-0.822266 -0.500989,-0.552368 -0.751954,-1.293482 -0.751954,-2.222656 0,-1.006252 0.257645,-1.790633 0.771485,-2.351563 C 63.654816,13.532443 64.302718,13.25 65.082031,13.25 Z m -16.71875,0.0078 c 0.890633,0 1.604993,0.337132 2.144531,1.013672 0.458155,0.578059 0.6875,1.242851 0.6875,1.992188 0,0.526675 -0.126282,1.060089 -0.378906,1.599609 -0.252649,0.539523 -0.601571,0.944709 -1.046875,1.21875 -0.441045,0.274044 -0.932764,0.41211 -1.476562,0.41211 -0.88635,0 -1.590877,-0.354033 -2.113281,-1.060547 -0.441046,-0.595188 -0.66211,-1.263139 -0.66211,-2.003906 0,-0.539523 0.132938,-1.074511 0.398438,-1.605469 0.269757,-0.535239 0.623811,-0.92901 1.060546,-1.181641 0.436763,-0.256915 0.898581,-0.384765 1.386719,-0.384766 z m 5.169922,0 h 0.275391 l 0.002,1.251954 c 0.428195,-0.428193 0.680735,-0.674052 0.757812,-0.738282 0.192756,-0.162721 0.400458,-0.288996 0.623047,-0.378906 0.22274,-0.08993 0.441877,-0.134765 0.660156,-0.134766 0.368252,0 0.685698,0.106215 0.951172,0.320313 0.265474,0.214098 0.443276,0.52486 0.533204,0.931641 0.441044,-0.513832 0.813187,-0.849383 1.117187,-1.007813 0.304025,-0.162721 0.616366,-0.24414 0.9375,-0.244141 0.312592,0 0.59028,0.08142 0.830078,0.244141 0.244158,0.158438 0.436922,0.419247 0.578125,0.783203 0.09424,0.24834 0.140625,0.637001 0.140625,1.167969 v 2.53125 c 0,0.368244 0.0283,0.620792 0.08398,0.757813 0.04283,0.09421 0.120674,0.17563 0.236328,0.24414 0.115653,0.06423 0.305266,0.0957 0.566406,0.0957 v 0.232422 h -2.904297 v -0.232422 h 0.123047 c 0.252623,0 0.44854,-0.04799 0.589844,-0.146484 0.09852,-0.06851 0.170056,-0.178254 0.21289,-0.328125 0.01764,-0.07279 0.02734,-0.280496 0.02734,-0.623047 v -2.53125 c 0,-0.479574 -0.05817,-0.816703 -0.173828,-1.013672 -0.167055,-0.274041 -0.434534,-0.412109 -0.802734,-0.412109 -0.227024,0 -0.456371,0.05823 -0.6875,0.173828 -0.227024,0.11132 -0.502784,0.320597 -0.828126,0.628906 l -0.01172,0.07227 0.01172,0.27539 v 2.806641 c 0,0.4025 0.01967,0.653469 0.0625,0.751953 0.04712,0.09849 0.133593,0.18149 0.257813,0.25 0.12422,0.06423 0.337027,0.0957 0.636719,0.0957 v 0.232422 h -2.97461 v -0.232422 c 0.325418,0 0.548057,-0.03816 0.667969,-0.115234 0.124221,-0.07708 0.210695,-0.191549 0.257813,-0.345703 0.02016,-0.07279 0.0293,-0.285603 0.0293,-0.636719 v -2.53125 c 0,-0.479574 -0.06958,-0.823389 -0.210937,-1.033203 -0.188472,-0.274041 -0.452823,-0.41211 -0.791016,-0.41211 -0.231307,0 -0.460627,0.06333 -0.6875,0.1875 -0.355401,0.188397 -0.629585,0.399254 -0.822265,0.634766 v 3.154297 c 0,0.385371 0.02672,0.63634 0.07813,0.751953 0.05569,0.115603 0.133525,0.203729 0.236328,0.263672 0.107086,0.05566 0.321469,0.08203 0.642578,0.08203 v 0.232422 h -2.908203 v -0.232422 c 0.269757,0 0.457417,-0.02637 0.564453,-0.08203 0.107087,-0.05994 0.188456,-0.153174 0.244141,-0.277344 0.05569,-0.128453 0.08398,-0.374315 0.08398,-0.738281 v -2.248047 c 0,-0.646569 -0.02004,-1.063549 -0.05859,-1.251953 -0.02998,-0.141304 -0.07637,-0.237686 -0.140625,-0.289063 -0.06425,-0.05566 -0.152302,-0.08398 -0.263672,-0.08398 -0.119937,0 -0.262733,0.03148 -0.429687,0.0957 l -0.09766,-0.230469 z m -5.369141,0.416016 c -0.227021,0 -0.456369,0.07001 -0.6875,0.207031 -0.227021,0.132737 -0.411506,0.366806 -0.552734,0.705079 -0.141354,0.33827 -0.210937,0.773731 -0.210937,1.304687 0,0.856383 0.169544,1.595919 0.507812,2.216797 0.342551,0.620878 0.791008,0.929687 1.347656,0.929687 0.415345,0 0.757587,-0.17112 1.027344,-0.513671 C 49.865461,18.180884 50,17.592786 50,16.757812 c 0,-1.044785 -0.224241,-1.867328 -0.673828,-2.466796 -0.304025,-0.411062 -0.691105,-0.617188 -1.16211,-0.617188 z m 16.558594,0.0332 c -0.355376,0 -0.674423,0.139645 -0.957031,0.417969 -0.278324,0.274043 -0.441163,0.656018 -0.488281,1.148438 H 66 c -0.02016,-0.376809 -0.06497,-0.640776 -0.134766,-0.794922 -0.107086,-0.239799 -0.268374,-0.429396 -0.482422,-0.566407 -0.209889,-0.13702 -0.429,-0.205078 -0.660156,-0.205078 z" />
    <text
       id="text856"
       y="-78.430061"
       x="-113.25111"
       style="font-size:2.64583333px;line-height:0.5;font-family:Garamond;-inkscape-font-specification:Garamond;text-align:center;text-anchor:middle;stroke-width:0.264583;"
       xml:space="preserve"><tspan
         style="font-size:2.64583px;stroke-width:0.264583"
         y="-78.430061"
         x="-113.25111"
         id="tspan854"
         sodipodi:role="line" /></text>
    <text
       id="text860"
       y="-68.20108"
       x="-121.42485"
       style="font-size:7.9375px;line-height:0.5;font-family:Garamond;-inkscape-font-specification:Garamond;text-align:center;text-anchor:middle;stroke-width:0.264583"
       xml:space="preserve"><tspan
         style="stroke-width:0.264583"
         y="-68.20108"
         x="-121.42485"
         id="tspan858"
         sodipodi:role="line" /></text>
    <text
       id="text864"
       y="-77.296135"
       x="-117.43248"
       style="font-size:2.64583px;line-height:0.5;font-family:Garamond;-inkscape-font-specification:Garamond;text-align:center;text-anchor:middle;stroke-width:0.264583;fill:#00ffff;"
       xml:space="preserve"><tspan
         style="fill:#00ffff;stroke-width:0.264583"
         y="-77.296135"
         x="-117.43248"
         id="tspan862"
         sodipodi:role="line" /></text>
  </g>
</svg>
