<?xml version="1.0" encoding="UTF-8" standalone="no"?>
<svg
   xmlns:dc="http://purl.org/dc/elements/1.1/"
   xmlns:cc="http://creativecommons.org/ns#"
   xmlns:rdf="http://www.w3.org/1999/02/22-rdf-syntax-ns#"
   xmlns:svg="http://www.w3.org/2000/svg"
   xmlns="http://www.w3.org/2000/svg"
   xmlns:sodipodi="http://sodipodi.sourceforge.net/DTD/sodipodi-0.dtd"
   xmlns:inkscape="http://www.inkscape.org/namespaces/inkscape"
   inkscape:version="1.0 (4035a4fb49, 2020-05-01)"
   sodipodi:docname="home-invert-b6b6b6.svg"
   viewBox="0 0 149.99995 150"
   height="150"
   width="149.99995"
   id="svg841"
   version="1.1">
  <metadata
     id="metadata847">
    <rdf:RDF>
      <cc:Work
         rdf:about="">
        <dc:format>image/svg+xml</dc:format>
        <dc:type
           rdf:resource="http://purl.org/dc/dcmitype/StillImage" />
        <dc:title />
      </cc:Work>
    </rdf:RDF>
  </metadata>
  <defs
     id="defs845" />
  <sodipodi:namedview
     inkscape:current-layer="g849"
     inkscape:window-maximized="1"
     inkscape:window-y="-9"
     inkscape:window-x="-9"
     inkscape:cy="152.26109"
     inkscape:cx="-155.57833"
     inkscape:zoom="0.64679618"
     showgrid="false"
     id="namedview843"
     inkscape:window-height="1001"
     inkscape:window-width="1920"
     inkscape:pageshadow="2"
     inkscape:pageopacity="0"
     guidetolerance="10"
     gridtolerance="10"
     objecttolerance="10"
     borderopacity="1"
     bordercolor="#666666"
     pagecolor="#ffffff"
     inkscape:document-rotation="0" />
  <g
     id="g849"
     inkscape:label="Image"
     inkscape:groupmode="layer">
    <path
       id="path1414"
       d="m 5.8309184,149.63524 c -2.651795,-0.38732 -5.63985301,-1.46755 -5.81918301,-2.10373 -0.182347,-0.64689 1.79653401,-1.91708 3.41514501,-2.1921 0.750151,-0.12746 1.524748,-0.34437 1.721323,-0.48203 0.414244,-0.29009 1.195199,-43.01913 1.019834,-55.799043 l -0.108161,-7.882146 -1.241393,-0.751144 -1.241397,-0.751146 -9.22e-4,-10.040887 -9.21e-4,-10.040891 h 3.809691 3.8096916 v 2.252165 2.252163 h 2.318942 2.318943 v -2.252163 -2.252165 h 3.644062 3.644053 v 2.252165 2.252163 h 2.318943 2.318943 v -1.849993 c 0,-1.78474 0.102624,-2.015491 1.479251,-3.326014 0.279628,-0.266198 0.508411,-1.048831 0.508411,-1.739183 0,-0.9395 0.166634,-1.304557 0.662556,-1.451501 0.540222,-0.160069 0.662553,-0.511994 0.662553,-1.905966 v -1.709647 l 2.898684,-0.108456 2.898672,-0.108452 0.08775,-11.159863 0.08773,-11.159865 -1.160288,-0.851666 -1.160289,-0.851665 -0.004,-6.850327 -0.004,-6.850327 h 2.795858 2.795862 l 0.102812,1.407602 c 0.09688,1.326326 0.173338,1.414244 1.323997,1.522676 1.196053,0.112707 1.223316,0.08568 1.325108,-1.31376 0.09057,-1.244886 0.221223,-1.444128 1.01495,-1.547608 0.885937,-0.115505 0.911014,-0.183625 0.911014,-2.47475 0,-1.295788 0.09831,-4.4276298 0.218467,-6.9596515 l 0.218369,-4.60367202 1.550998,0.23312303 c 3.120116,0.46897778 5.442018,1.40728099 8.843821,3.57387809 l 3.477309,2.2146851 -0.933615,0.6893372 c -0.779545,0.5755715 -1.618591,0.689668 -5.084053,0.6913398 -2.282731,0.00109 -4.709451,0.1465842 -5.392711,0.3232947 l -1.242288,0.321292 v 2.9611076 2.961106 h 0.993832 c 0.938614,0 0.993828,0.08341 0.993828,1.501443 v 1.501442 h 1.490749 1.490749 v -1.501442 -1.501443 h 2.650219 2.650228 v 7.282805 7.282809 l -0.993832,0.392556 -0.993838,0.392552 v 13.157138 13.157137 h 1.822029 1.822026 v -1.876805 -1.8768 h 3.975332 3.975326 v 1.8768 1.876805 h 2.815864 2.815858 v -1.876805 -1.8768 h 4.14097 4.14096 v 1.8768 1.876805 h 2.65022 2.65021 v -1.876805 -1.8768 h 4.14098 4.14097 v 1.8768 1.876805 h 1.65639 1.65639 V 42.694835 29.551154 l -1.15947,-0.626488 -1.15946,-0.626488 v -6.830867 c 0,-7.830939 -0.25721,-7.278829 3.39558,-7.288657 l 1.90485,-0.0052 v 1.501442 1.501443 h 1.47075 c 1.46041,0 1.47148,-0.0099 1.57356,-1.407602 0.0938,-1.285075 0.19654,-1.417841 1.17949,-1.525223 l 1.07663,-0.117622 V 7.0629664 0 l 2.46827,0.52807532 c 3.92564,0.83986688 5.21477,1.47700638 10.78006,5.32786898 l 0.82541,0.5711382 -1.32234,0.6751769 c -1.09173,0.5574419 -2.08148,0.6601158 -5.67598,0.588807 -5.49443,-0.1090016 -5.75031,0.065114 -5.75031,3.9130886 0,2.490395 0.0255,2.569343 0.82821,2.569343 0.74537,0 0.82818,0.150146 0.82818,1.501443 v 1.501442 h 1.49075 1.49075 v -1.501442 -1.501443 h 2.8609 2.86087 l -0.21065,1.741513 c -0.11581,0.957834 -0.21067,4.224503 -0.21067,7.259277 v 5.517762 l -0.82819,0.427565 -0.8282,0.427563 V 40.816033 52.08489 h 3.14715 3.14713 v 1.850697 c 0,1.633458 0.0875,1.864776 0.74536,1.970641 0.61734,0.09934 0.76271,0.389603 0.84616,1.689871 0.0896,1.395761 0.20902,1.596871 1.07666,1.812783 0.94728,0.235746 0.97586,0.308465 0.97586,2.481643 v 2.238787 l 2.40178,-0.110286 2.40176,-0.110285 0.0993,-2.158322 0.0993,-2.158324 h 3.79317 3.79316 v 2.252165 2.252163 h 2.31893 2.31895 V 61.84426 59.592095 h 3.8097 3.80969 v 4.069017 c 0,2.237959 -0.0973,6.866479 -0.21638,10.285605 l -0.21639,6.21659 -1.27437,0.811542 -1.27436,0.811541 v 32.58023 32.58024 l -1.82867,0.79292 c -4.09102,1.77386 -6.71381,2.12068 -16.06031,2.12367 -6.98581,0.002 -9.57005,-0.14066 -12.65249,-0.69959 -3.68532,-0.66825 -5.94823,-0.69226 -46.544517,-0.49379 -36.054226,0.17626 -43.21023,0.29845 -46.149272,0.78809 -3.805133,0.63393 -14.1272826,0.73573 -17.9523086,0.17705 z"
       style="fill:#b6b6b6;stroke-width:0.352632;fill-opacity:1" />
  </g>
</svg>
