<?xml version="1.0" encoding="UTF-8" standalone="no"?>
<svg
   xmlns:dc="http://purl.org/dc/elements/1.1/"
   xmlns:cc="http://creativecommons.org/ns#"
   xmlns:rdf="http://www.w3.org/1999/02/22-rdf-syntax-ns#"
   xmlns:svg="http://www.w3.org/2000/svg"
   xmlns="http://www.w3.org/2000/svg"
   xmlns:sodipodi="http://sodipodi.sourceforge.net/DTD/sodipodi-0.dtd"
   xmlns:inkscape="http://www.inkscape.org/namespaces/inkscape"
   inkscape:version="1.0 (4035a4fb49, 2020-05-01)"
   sodipodi:docname="new-game-invert-707070.svg"
   viewBox="0 0 149.99998 150.00001"
   height="150"
   width="149.99998"
   id="svg3788"
   version="1.1">
  <metadata
     id="metadata3794">
    <rdf:RDF>
      <cc:Work
         rdf:about="">
        <dc:format>image/svg+xml</dc:format>
        <dc:type
           rdf:resource="http://purl.org/dc/dcmitype/StillImage" />
        <dc:title />
      </cc:Work>
    </rdf:RDF>
  </metadata>
  <defs
     id="defs3792" />
  <sodipodi:namedview
     inkscape:current-layer="g3796"
     inkscape:window-maximized="1"
     inkscape:window-y="-9"
     inkscape:window-x="-9"
     inkscape:cy="192.71842"
     inkscape:cx="158.57429"
     inkscape:zoom="1.7147842"
     showgrid="false"
     id="namedview3790"
     inkscape:window-height="1001"
     inkscape:window-width="1920"
     inkscape:pageshadow="2"
     inkscape:pageopacity="0"
     guidetolerance="10"
     gridtolerance="10"
     objecttolerance="10"
     borderopacity="1"
     bordercolor="#666666"
     pagecolor="#ffffff"
     inkscape:document-rotation="0"
     units="px"
     fit-margin-top="0"
     fit-margin-left="0"
     fit-margin-right="0"
     fit-margin-bottom="0" />
  <g
     id="g3796"
     inkscape:label="Image"
     inkscape:groupmode="layer"
     transform="translate(-94.204348,-33.473213)">
    <path
       id="path4361"
       d="m 130.33735,183.28367 c -21.53891,-0.68573 -34.776951,-1.81116 -35.776201,-3.04149 -0.69714,-0.85835 -0.32104,-4.66663 0.68003,-6.88582 2.78286,-6.1691 9.087761,-12.60032 24.388151,-24.87674 5.08106,-4.07684 10.52506,-8.66746 12.09778,-10.20137 4.8865,-4.76591 8.21106,-9.46952 10.518,-14.88093 1.16528,-2.73343 6.98872,-18.99071 6.98872,-19.5104 0,-0.17105 -4.07332,-0.49529 -9.11393,-0.72546 -13.74368,-0.62759 -21.82243,-1.43733 -22.92178,-2.29746 -0.59548,-0.4659 8.72199,-7.594143 20.15649,-15.420508 l 10.16669,-6.958606 -3.90772,-6.197647 c -4.18412,-6.636042 -5.25824,-9.197946 -5.59679,-13.349041 -0.281,-3.445512 0.36253,-5.98293 2.33312,-9.199278 3.98561,-6.505239 13.19843,-12.911862 22.0238,-15.315423 5.822,-1.585606 11.05706,-1.202424 17.2954,1.26594 7.94995,3.14561 16.29566,9.915563 19.1002,15.493894 1.94066,3.860053 1.93077,9.123448 -0.0261,13.903866 -0.46484,1.135553 -2.45131,4.553497 -4.41434,7.595433 -1.96305,3.041937 -3.51148,5.648549 -3.44097,5.79247 0.0705,0.143919 4.85231,3.513681 10.62624,7.488353 10.25398,7.058656 19.52638,14.082827 19.52638,14.791917 0,0.3455 -2.08019,0.7696 -6.73355,1.37276 -1.26213,0.1636 -7.30235,0.54286 -13.42272,0.84279 -6.12036,0.29994 -11.34265,0.59464 -11.60507,0.6549 -0.48489,0.11133 4.0768,13.68797 6.60126,19.64683 2.42663,5.72798 6.30612,11.07462 11.60577,15.99494 1.26511,1.17455 4.97595,4.27931 8.24633,6.89946 13.55239,10.8579 17.91663,14.76235 22.49532,20.12535 5.043,5.90685 7.36225,12.24878 5.12071,14.00255 -1.2813,1.00249 -10.28268,1.93792 -25.87739,2.68921 -9.31074,0.44856 -75.32479,0.67546 -87.13382,0.29951 z"
       style="fill:#707070;stroke-width:0.371436;fill-opacity:1" />
  </g>
</svg>
