<?xml version="1.0" encoding="UTF-8" standalone="no"?>
<svg
   xmlns:dc="http://purl.org/dc/elements/1.1/"
   xmlns:cc="http://creativecommons.org/ns#"
   xmlns:rdf="http://www.w3.org/1999/02/22-rdf-syntax-ns#"
   xmlns:svg="http://www.w3.org/2000/svg"
   xmlns="http://www.w3.org/2000/svg"
   xmlns:sodipodi="http://sodipodi.sourceforge.net/DTD/sodipodi-0.dtd"
   xmlns:inkscape="http://www.inkscape.org/namespaces/inkscape"
   viewBox="0 0 24 24"
   id="Icons_Database"
   overflow="hidden"
   version="1.1"
   sodipodi:docname="load-alt.svg"
   width="24"
   height="24"
   inkscape:version="1.0 (4035a4fb49, 2020-05-01)">
  <metadata
     id="metadata1497">
    <rdf:RDF>
      <cc:Work
         rdf:about="">
        <dc:format>image/svg+xml</dc:format>
        <dc:type
           rdf:resource="http://purl.org/dc/dcmitype/StillImage" />
        <dc:title />
      </cc:Work>
    </rdf:RDF>
  </metadata>
  <defs
     id="defs1495" />
  <sodipodi:namedview
     inkscape:document-rotation="0"
     pagecolor="#ffffff"
     bordercolor="#666666"
     borderopacity="1"
     objecttolerance="10"
     gridtolerance="10"
     guidetolerance="10"
     inkscape:pageopacity="0"
     inkscape:pageshadow="2"
     inkscape:window-width="1787"
     inkscape:window-height="1051"
     id="namedview1493"
     showgrid="false"
     inkscape:zoom="1.6204531"
     inkscape:cx="-286.4144"
     inkscape:cy="-141.88538"
     inkscape:window-x="124"
     inkscape:window-y="-9"
     inkscape:window-maximized="1"
     inkscape:current-layer="Icons_Database" />
  <g
     id="g1500">
    <ellipse
       cx="12"
       cy="2.7236841"
       rx="8.6578951"
       ry="2.4736843"
       id="ellipse1482"
       style="stroke-width:0.309211" />
    <g
       id="g1493"
       transform="translate(-0.1227271)">
      <path
         d="m 3.4645242,5.2018466 v 4.2792965 c 0,1.1771839 3.896361,2.1406249 8.6582028,2.1406249 4.761842,0 8.658203,-0.963441 8.658203,-2.1406249 V 5.2018466 c 0,1.1771834 -3.896361,2.140625 -8.658203,2.140625 -4.7618418,0 -8.6582028,-0.9634416 -8.6582028,-2.140625 z M 18.251633,8.0866122 a 0.87272727,0.87272727 0 0 1 0.03516,0 0.87272727,0.87272727 0 0 1 0.873047,0.8730469 0.87272727,0.87272727 0 0 1 -0.873047,0.873047 0.87272727,0.87272727 0 0 1 -0.873046,-0.873047 0.87272727,0.87272727 0 0 1 0.83789,-0.8730469 z"
         style="stroke-width:0.287623"
         id="path1484" />
      <path
         d="m 3.4645242,11.384952 v 4.28125 c 0,1.177184 3.896361,2.140625 8.6582028,2.140625 4.761842,0 8.658203,-0.963441 8.658203,-2.140625 v -4.28125 c 0,1.177183 -3.896361,2.140625 -8.658203,2.140625 -4.7618418,0 -8.6582028,-0.963442 -8.6582028,-2.140625 z M 18.251633,14.27753 a 0.87272727,0.87272727 0 0 1 0.03516,0 0.87272727,0.87272727 0 0 1 0.873047,0.871094 0.87272727,0.87272727 0 0 1 -0.873047,0.873047 0.87272727,0.87272727 0 0 1 -0.873046,-0.873047 0.87272727,0.87272727 0 0 1 0.83789,-0.871094 z"
         style="stroke-width:0.287623"
         id="path1486" />
      <path
         d="m 3.4645242,17.569034 v 4.28125 c 0,1.177183 3.896361,2.140625 8.6582028,2.140625 4.761842,0 8.658203,-0.963442 8.658203,-2.140625 v -4.28125 c 0,1.177184 -3.896361,2.140625 -8.658203,2.140625 -4.7618418,0 -8.6582028,-0.963441 -8.6582028,-2.140625 z m 14.8222648,2.871094 a 0.87272727,0.87272727 0 0 1 0.873047,0.873047 0.87272727,0.87272727 0 0 1 -0.873047,0.873046 0.87272727,0.87272727 0 0 1 -0.873046,-0.873046 0.87272727,0.87272727 0 0 1 0.873046,-0.873047 z"
         style="stroke-width:0.287623"
         id="path1488" />
    </g>
  </g>
</svg>
