<?xml version="1.0" encoding="UTF-8" standalone="no"?>
<svg
   xmlns:dc="http://purl.org/dc/elements/1.1/"
   xmlns:cc="http://creativecommons.org/ns#"
   xmlns:rdf="http://www.w3.org/1999/02/22-rdf-syntax-ns#"
   xmlns:svg="http://www.w3.org/2000/svg"
   xmlns="http://www.w3.org/2000/svg"
   xmlns:sodipodi="http://sodipodi.sourceforge.net/DTD/sodipodi-0.dtd"
   xmlns:inkscape="http://www.inkscape.org/namespaces/inkscape"
   width="24"
   height="24"
   viewBox="0 0 24 24.000001"
   version="1.1"
   id="svg924"
   sodipodi:docname="save-as-alt.svg"
   inkscape:version="1.0 (4035a4fb49, 2020-05-01)">
  <metadata
     id="metadata930">
    <rdf:RDF>
      <cc:Work
         rdf:about="">
        <dc:format>image/svg+xml</dc:format>
        <dc:type
           rdf:resource="http://purl.org/dc/dcmitype/StillImage" />
        <dc:title />
      </cc:Work>
    </rdf:RDF>
  </metadata>
  <defs
     id="defs928" />
  <sodipodi:namedview
     inkscape:snap-global="false"
     inkscape:document-rotation="0"
     pagecolor="#ffffff"
     bordercolor="#666666"
     borderopacity="1"
     objecttolerance="10"
     gridtolerance="10"
     guidetolerance="10"
     inkscape:pageopacity="0"
     inkscape:pageshadow="2"
     inkscape:window-width="1920"
     inkscape:window-height="1001"
     id="namedview926"
     showgrid="false"
     inkscape:zoom="1.4142136"
     inkscape:cx="-300.01649"
     inkscape:cy="-85.170983"
     inkscape:window-x="-9"
     inkscape:window-y="-9"
     inkscape:window-maximized="1"
     inkscape:current-layer="svg924" />
  <path
     d="m 1.4e-6,-0.999801 v 23.155032 l 2.3356671,2.75095 21.6451305,0.09362 v -6.534107 l 0.0048,-0.573715 h 0.0144 V 15.671534 6.6409274 h -0.012 l -0.0072,-7.6407284 z m 3.559912,2.8061613 H 20.985 V 3.0786148 H 3.5599134 Z m 0,2.4916985 H 8.9537923 V 5.5679127 H 9.3162649 C 9.1026496,5.0384694 9.0330491,4.8356926 9.0666149,4.8021595 a 10.581768,10.561909 8.1082568 0 1 2.0164031,0.7657532 h 6.198041 v 0.0024 h -6.19324 a 10.581768,10.561909 8.1082568 0 1 0.312063,0.1632326 c 0.639904,0.2778659 1.290344,0.5563797 1.437888,0.619324 0.288142,0.1210642 0.275168,0.1078301 1.795559,1.6275257 l 1.257851,1.277056 1.831567,1.826765 c 1.877631,1.879218 3.297893,3.28977 4.174435,4.157631 l 0.576115,0.566513 0.0048,0.420084 c 0.01251,1.171513 -0.457266,1.804497 -1.447489,1.949191 l 0.0072,-0.0096 a 5.8955564,5.8844923 8.1082568 0 1 -0.607321,0.03841 l -0.381677,0.0024 -0.25445,-0.264053 C 19.70994,17.856722 19.479669,17.62451 19.285457,17.42869 l -0.0216,4.956991 H 4.707343 V 12.298858 l 9.460292,0.0168 -0.806561,-0.808962 C 12.585639,10.733251 11.016881,9.145953 10.804563,8.921384 A 8.0685982,8.053456 8.1082568 0 1 9.8995815,6.991397 C 9.5550176,6.1591492 9.4426226,5.8834479 9.3162649,5.5703132 H 3.5599134 Z M 11.721546,6.2904572 11.572717,6.5761144 A 1.2357993,1.2334801 8.1082568 0 1 10.838169,7.296258 l -0.360072,0.168034 0.127226,0.331266 a 2.645442,2.6404773 8.1082568 0 0 0.480096,0.928986 l -0.0048,0.0072 a 0.34768667,0.34703417 8.1082568 0 0 0.146429,0.04081 5.755726,5.7449243 8.1082568 0 0 0.924185,-0.184838 1.1980073,1.195759 8.1082568 0 0 0.573715,-0.523304 5.3891433,5.3790296 8.1082568 0 0 0.338468,-1.142628 c 0.01756,-0.123236 -0.09129,-0.1723925 -1.070614,-0.532907 z m 1.788358,1.1378278 c -0.04917,-0.0032 -0.06465,0.10853 -0.105621,0.396079 l -0.03841,0.268854 1.368274,1.375475 3.293459,3.312663 0.0144,0.0024 c 1.055136,1.060963 2.011617,2.015615 2.119625,2.114823 l 0.194439,0.184838 0.0216,-0.160833 c 0.08304,-0.582573 0.106387,-0.531051 -0.08882,-0.741749 -0.195207,-0.210702 -2.46402,-2.503479 -3.39668,-3.432686 -2.604395,-2.59239 -3.333109,-3.316693 -3.382276,-3.319864 z m -0.247249,1.111422 c -0.04224,-0.02507 -0.124087,0.02771 -0.288058,0.187237 l -0.230446,0.223245 0.220844,0.232847 0.643329,0.65533 1.896379,1.913184 c 0.29185,0.29449 0.333568,0.329511 0.568914,0.566514 l 0.907381,0.0024 2.314064,2.609322 -0.0024,0.55451 c 0.160355,0.15078 0.422485,0.40328 0.422485,0.40328 a 2.3242098,2.319848 8.1082568 0 0 0.376876,-0.328865 L 20.192841,15.45309 19.08622,14.346469 15.651133,10.906581 C 14.371927,9.623185 13.304896,8.564769 13.262655,8.539707 Z m -1.4979,0.607321 a 1.6515117,1.6484124 8.1082568 0 0 -0.237648,0.02881 9.8259275,9.8074873 8.1082568 0 0 0.871375,0.916983 l 1.243448,1.260252 c 0.413504,0.419167 0.649263,0.656254 0.952991,0.962592 l 0.936188,0.0024 c -0.980861,-0.990103 -2.041621,-2.06357 -2.657332,-2.674136 l -0.4993,-0.494499 h -0.422485 a 1.6515117,1.6484124 8.1082568 0 0 -0.187237,-0.0024 z m 9.085817,5.571514 c -5.29e-4,0.0037 -0.01257,0.08534 -0.02641,0.182438 a 2.0747824,2.0708888 8.1082568 0 1 -0.06001,0.429685 1.4701099,1.467351 8.1082568 0 1 -1.40188,1.233848 c -0.03924,0.0067 -0.03759,0.0076 -0.07442,0.0144 l -0.0024,0.451291 a 12.093449,12.070754 8.1082568 0 0 0.792159,0.787357 0.40815391,0.40738793 8.1082568 0 0 0.280856,0.08882 1.7006414,1.6974498 8.1082568 0 0 1.579516,-0.883377 3.4012826,3.3948994 8.1082568 0 0 0.268854,-0.895378 11.023935,11.003246 8.1082568 0 0 -1.356272,-1.409083 z M 5.857173,15.417083 v 6.20044 h 3.4422885 v -6.20044 z"
     style="fill:#000000;fill-opacity:1;stroke-width:1.04342"
     id="path876" />
</svg>
