<?xml version="1.0" encoding="UTF-8" standalone="no"?>
<svg
   xmlns:dc="http://purl.org/dc/elements/1.1/"
   xmlns:cc="http://creativecommons.org/ns#"
   xmlns:rdf="http://www.w3.org/1999/02/22-rdf-syntax-ns#"
   xmlns:svg="http://www.w3.org/2000/svg"
   xmlns="http://www.w3.org/2000/svg"
   xmlns:sodipodi="http://sodipodi.sourceforge.net/DTD/sodipodi-0.dtd"
   xmlns:inkscape="http://www.inkscape.org/namespaces/inkscape"
   inkscape:version="1.0 (4035a4fb49, 2020-05-01)"
   sodipodi:docname="save-alt-alt-alt.svg"
   id="svg924"
   version="1.1"
   viewBox="0 0 24 24.000001"
   height="24"
   width="24">
  <metadata
     id="metadata930">
    <rdf:RDF>
      <cc:Work
         rdf:about="">
        <dc:format>image/svg+xml</dc:format>
        <dc:type
           rdf:resource="http://purl.org/dc/dcmitype/StillImage" />
        <dc:title></dc:title>
      </cc:Work>
    </rdf:RDF>
  </metadata>
  <defs
     id="defs928" />
  <sodipodi:namedview
     inkscape:current-layer="svg924"
     inkscape:window-maximized="1"
     inkscape:window-y="-9"
     inkscape:window-x="-9"
     inkscape:cy="-47.27586"
     inkscape:cx="-49.071128"
     inkscape:zoom="2"
     showgrid="false"
     id="namedview926"
     inkscape:window-height="1001"
     inkscape:window-width="1920"
     inkscape:pageshadow="2"
     inkscape:pageopacity="0"
     guidetolerance="10"
     gridtolerance="10"
     objecttolerance="10"
     borderopacity="1"
     bordercolor="#666666"
     pagecolor="#ffffff"
     inkscape:document-rotation="0"
     inkscape:snap-global="false" />
  <path
     d="M 0 0 L 0 21.373047 L 2.3359375 23.914062 L 23.980469 24 L 23.980469 17.966797 L 23.986328 17.439453 L 24 17.439453 L 24 15.388672 L 24 7.0527344 L 23.988281 7.0527344 L 23.980469 0 L 0 0 z M 4 3.2695312 L 20.103516 3.2695312 L 20.085938 9 L 20.105469 9 L 20.105469 10.5 L 4.0019531 10.5 L 4.0019531 8.3222656 L 4 8.3222656 L 4 7.1367188 L 4.0019531 7.1367188 L 4.0019531 6.078125 L 4 6.078125 L 4 4.8867188 L 4.0019531 4.8867188 L 4.0019531 3.7636719 L 4 3.7636719 L 4 3.2695312 z M 4.7070312 14.007812 L 18.626953 14.007812 L 19.294922 14.705078 L 19.263672 21.585938 L 4.7070312 21.585938 L 4.7070312 14.007812 z M 8.4628906 15.285156 L 5.8574219 15.292969 L 5.8574219 20.876953 L 8.4863281 20.863281 L 8.4628906 15.285156 z "
     style="fill:#000000;fill-opacity:1;stroke-width:1.00249"
     id="path876" />
  <path
     sodipodi:nodetypes="ccscccccscssccccccccscccscccccccsccssccccccccccccscscccccssssccscsssscscscsscccssccccccscssccssscscss"
     d="m -13.901351,17.875001 0.421894,-0.269521 c 0.482392,-0.308491 0.89142,-0.739165 1.043017,-1.095665 0.05735,-0.134868 0.13784,-0.264783 0.177742,-0.289052 0.03995,-0.02425 0.145182,-0.357583 0.234386,-0.740208 0.161227,-0.691755 0.161279,-0.749521 0.138678,-10.3394797 l -0.02148,-9.644189 -0.16407,-0.339832 c 0.341928,0.710844 -0.685277,-0.978481 -0.822303,-0.978481 -0.04983,0 -0.132853,-0.06746 -0.185556,-0.150385 -0.09471,-0.148699 -0.177371,-0.152339 -7.496436,-0.152339 -8.362773,0 -7.772933,-0.04862 -7.154625,0.589823 0.04677,0.0483 0.0748,0.103313 0.123053,0.160151 l 1.638747,2.683499 9.504341,0.07031 v 8.050496 l -14.858102,-0.0059 V 0.43612427 h -2.468863 l -0.927777,-0.929655 c -0.545655,-0.54626397 -1.018481,-0.96530597 -1.052783,-0.93160697 -0.0343,0.03369 -0.07268,3.357023 -0.08398,7.386457 l -0.01953,7.3278657 0.195321,0.363269 c 0.108095,0.199748 0.324164,0.518761 0.480491,0.708959 0.538025,0.654583 2.942508,2.958597 3.377108,3.236214 l 0.435556,0.277374 h 8.742587 z m -16.81327,-1.560492 -0.0059,-3.275275 c -0.02565,-3.8435977 -0.01325,-3.9659557 0.382829,-4.1893067 0.21202,-0.119625 0.726705,-0.128901 6.775701,-0.128901 h 6.54917 l 0.259777,0.253898 c 0.142786,0.140302 0.281306,0.365733 0.308608,0.499982 0.0273,0.13426 0.05078,1.7595637 0.05078,3.6112017 v 3.263556 z m 4.619352,-0.763645 0.04687,-0.04883 c 0.0261,-0.310809 0.05259,-1.710615 0.05859,-3.109265 l 0.0098,-2.5428797 h -1.304748 -1.302794 v 3.1287967 2.550691 l 1.199274,0.01172 z m 2.365343,-10.6890757 c 0.119129,-9.36e-4 0.158579,-0.0559 0.201181,-0.166011 0.07742,-0.20008 -0.0049,-0.811611 -0.152351,-1.136677 -0.06861,-0.151219 -0.241032,-0.761447 -0.394549,-1.394483 -0.04525,-0.186491 -0.106877,-0.372579 -0.138679,-0.414047 -0.03184,-0.04145 -0.08118,-0.20181 -0.10938,-0.355456 -0.02816,-0.153655 -0.102667,-0.372556 -0.16407,-0.48826303 -0.06146,-0.115718 -0.111143,-0.243595 -0.111333,-0.283193 -2.6e-4,-0.03962 -0.871687,-0.930233 -1.935636,-1.97844597 -1.063948,-1.048214 -1.945373,-1.906183 -1.959073,-1.906183 -0.08433,0 -2.931775,2.87564597 -2.931775,2.96083297 0,0.05766 0.924567,1.026047 2.052828,2.15226603 1.51987,1.517119 2.097041,2.047482 2.228617,2.046804 0.09767,-5.9e-4 0.247044,0.03537 0.332048,0.08008 0.08502,0.04471 0.574686,0.200348 1.087939,0.345691 0.513244,0.145332 1.105576,0.314351 1.316468,0.376939 0.36025,0.106952 0.558635,0.161087 0.677765,0.160151 z m -1.253964,-1.123008 c -0.165326,0.01122 -0.380788,-0.03914 -0.728549,-0.144526 -0.295254,-0.08948 -0.675071,-0.197571 -0.843789,-0.242179 -0.168707,-0.0446 -0.32949,-0.117495 -0.359391,-0.162103 -0.07787,-0.116337 0.01049,-0.40917 0.214854,-0.705053 0.0971,-0.140587 0.197465,-0.320307 0.222666,-0.398423 0.02524,-0.07814 0.242243,-0.25863 0.482444,-0.400376 0.240201,-0.141746 0.546792,-0.310912 0.679718,-0.37694 0.233431,-0.115968 0.244336,-0.11393 0.359392,0.05859 0.06551,0.09825 0.143081,0.276234 0.171882,0.394516 0.0288,0.118282 0.07848,0.247583 0.10938,0.289052 0.03091,0.04145 0.08093,0.211179 0.111334,0.37694 0.03034,0.16577 0.08058,0.335472 0.113287,0.37694 0.171247,0.216747 0.132457,0.484329 -0.105474,0.710912 -0.145847,0.138896 -0.262428,0.211424 -0.427754,0.222648 z m -0.138678,-2.351477 c 0.0612,-0.02397 0.04243,-0.04102 -0.04687,-0.04492 -0.08085,-0.0032 -0.125116,0.014 -0.09962,0.03906 0.02548,0.02496 0.09109,0.02767 0.146492,0.0059 z m -7.275724,-2.542879 1.484443,-1.445261 c 0.815817,-0.795761 1.48249,-1.478517 1.48249,-1.517526 0,-0.03899 -0.05715,-0.133219 -0.126959,-0.208976 -0.0698,-0.07579 -0.147182,-0.138667 -0.171883,-0.138667 -0.06538,0 -2.998184,2.890615 -2.998184,2.954973 0,0.02987 0.07502,0.121744 0.166024,0.205071 z m -1.189507,-1.310501 c 0.1856,-0.01323 0.52693,-0.354229 1.457097,-1.273392 0.767205,-0.758127 1.396549,-1.432356 1.396549,-1.497994 0,-0.06568 -0.145262,-0.223639 -0.322281,-0.351551 -0.534474,-0.386183 -0.617202,-0.352653 -1.67781,0.689429 -0.516504,0.507492 -1.002824,1.025848 -1.080128,1.15035 -0.168448,0.271379 -0.182458,0.72049 -0.03125,1.007777 0.09154,0.173934 0.146464,0.283317 0.257823,0.275381 z"
     style="fill:#000000;stroke-width:0.0760149"
     id="path1581" />
</svg>
