<?xml version="1.0" encoding="UTF-8" standalone="no"?>
<svg
   xmlns:dc="http://purl.org/dc/elements/1.1/"
   xmlns:cc="http://creativecommons.org/ns#"
   xmlns:rdf="http://www.w3.org/1999/02/22-rdf-syntax-ns#"
   xmlns:svg="http://www.w3.org/2000/svg"
   xmlns="http://www.w3.org/2000/svg"
   xmlns:sodipodi="http://sodipodi.sourceforge.net/DTD/sodipodi-0.dtd"
   xmlns:inkscape="http://www.inkscape.org/namespaces/inkscape"
   inkscape:version="1.0 (4035a4fb49, 2020-05-01)"
   sodipodi:docname="save-alt2.svg"
   id="svg924"
   version="1.1"
   viewBox="0 0 24 24.000001"
   height="24"
   width="24">
  <metadata
     id="metadata930">
    <rdf:RDF>
      <cc:Work
         rdf:about="">
        <dc:format>image/svg+xml</dc:format>
        <dc:type
           rdf:resource="http://purl.org/dc/dcmitype/StillImage" />
        <dc:title></dc:title>
      </cc:Work>
    </rdf:RDF>
  </metadata>
  <defs
     id="defs928" />
  <sodipodi:namedview
     showguides="false"
     inkscape:current-layer="svg924"
     inkscape:window-maximized="1"
     inkscape:window-y="-9"
     inkscape:window-x="-9"
     inkscape:cy="-54.109818"
     inkscape:cx="-115.12048"
     inkscape:zoom="2.8284271"
     showgrid="false"
     id="namedview926"
     inkscape:window-height="1001"
     inkscape:window-width="1920"
     inkscape:pageshadow="2"
     inkscape:pageopacity="0"
     guidetolerance="10"
     gridtolerance="10"
     objecttolerance="10"
     borderopacity="1"
     bordercolor="#666666"
     pagecolor="#ffffff"
     inkscape:document-rotation="0"
     inkscape:snap-global="false" />
  <path
     sodipodi:nodetypes="ccscccccscssccccccccscccscccccccsccssccccccccccccscscccccssssccscsssscscscsscccssccccccscssccssscscss"
     d="M 2.0263465,-2.109107e-7 1.6044522,0.26952079 C 1.1220601,0.57801179 0.71303268,1.0086858 0.56143578,1.3651858 c -0.057353,0.134868 -0.1378407,0.264783 -0.1777425,0.289052 -0.039952,0.02425 -0.1451817,0.357583 -0.2343858,0.740208 -0.16122735,0.691755 -0.16127912,0.749521 -0.1386782,10.3394782 l 0.021485,9.64419 0.16407,0.339832 c -0.34192814,-0.710844 0.6852769,0.978481 0.82230322,0.978481 0.049832,0 0.132853,0.06746 0.1855554,0.150385 0.094714,0.148699 0.1773716,0.152339 7.4964367,0.152339 8.3627724,0 7.7729324,0.04862 7.1546244,-0.589823 -0.04677,-0.0483 -0.0748,-0.103313 -0.123053,-0.160151 l -1.638747,-2.683499 -9.5043406,-0.07031 v -8.050497 l 14.8581016,0.0059 v 4.988105 h 2.468863 l 0.927777,0.929655 c 0.545655,0.546264 1.018481,0.965306 1.052783,0.931607 0.0343,-0.03369 0.07268,-3.357024 0.08398,-7.386458 l 0.01953,-7.3278642 -0.195321,-0.363269 C 23.696582,4.0227988 23.480513,3.7037858 23.324186,3.5135878 22.786161,2.8590048 20.381678,0.55499079 19.947078,0.27737379 L 19.511522,-2.109107e-7 H 10.768935 Z M 18.839616,1.5604918 l 0.0059,3.275275 c 0.02565,3.843597 0.01325,3.965955 -0.382829,4.189305 -0.21202,0.119625 -0.726705,0.128901 -6.775701,0.128901 H 5.137817 L 4.8780395,8.9000758 C 4.7352529,8.7597738 4.5967329,8.5343428 4.5694317,8.4000938 4.5421307,8.2658338 4.5186487,6.6405308 4.5186487,4.7888928 v -3.263556 z m -4.619352,0.763645 -0.04687,0.04883 c -0.0261,0.310809 -0.05259,1.710615 -0.05859,3.109265 l -0.0098,2.542879 h 1.304748 1.302794 v -3.128796 -2.550691 l -1.199274,-0.01172 z M 11.854921,13.013211 c -0.119129,9.36e-4 -0.158579,0.0559 -0.201181,0.166011 -0.07742,0.20008 0.0049,0.811611 0.152351,1.136677 0.06861,0.151219 0.241032,0.761447 0.394549,1.394483 0.04525,0.186491 0.106877,0.372579 0.138679,0.414047 0.03184,0.04145 0.08118,0.201811 0.10938,0.355457 0.02816,0.153655 0.102667,0.372556 0.16407,0.488263 0.06146,0.115718 0.111143,0.243595 0.111333,0.283193 2.6e-4,0.03962 0.871687,0.930233 1.935636,1.978446 1.063948,1.048214 1.945373,1.906183 1.959073,1.906183 0.08433,0 2.931775,-2.875646 2.931775,-2.960833 0,-0.05766 -0.924567,-1.026047 -2.052828,-2.152267 -1.51987,-1.517119 -2.097041,-2.047482 -2.228617,-2.046804 -0.09767,5.9e-4 -0.247044,-0.03537 -0.332048,-0.08008 -0.08502,-0.04471 -0.574686,-0.200348 -1.087939,-0.345691 -0.513244,-0.145332 -1.105576,-0.314351 -1.316468,-0.376939 -0.36025,-0.106952 -0.558635,-0.161087 -0.677765,-0.160151 z m 1.253964,1.123008 c 0.165326,-0.01122 0.380788,0.03914 0.728549,0.144526 0.295254,0.08948 0.675071,0.197571 0.843789,0.242179 0.168707,0.0446 0.32949,0.117495 0.359391,0.162103 0.07787,0.116337 -0.01049,0.40917 -0.214854,0.705053 -0.0971,0.140587 -0.197465,0.320307 -0.222666,0.398423 -0.02524,0.07814 -0.242243,0.25863 -0.482444,0.400377 -0.240201,0.141746 -0.546792,0.310912 -0.679718,0.37694 -0.233431,0.115968 -0.244336,0.11393 -0.359392,-0.05859 -0.06551,-0.09825 -0.143081,-0.276234 -0.171882,-0.394517 -0.0288,-0.118282 -0.07848,-0.247583 -0.10938,-0.289052 -0.03091,-0.04145 -0.08093,-0.211179 -0.111334,-0.37694 -0.03034,-0.16577 -0.08058,-0.335472 -0.113287,-0.37694 -0.171247,-0.216747 -0.132457,-0.484329 0.105474,-0.710912 0.145847,-0.138896 0.262428,-0.211424 0.427754,-0.222648 z m 0.138678,2.351478 c -0.0612,0.02397 -0.04243,0.04102 0.04687,0.04492 0.08085,0.0032 0.125116,-0.014 0.09962,-0.03906 -0.02548,-0.02496 -0.09109,-0.02767 -0.146492,-0.0059 z m 7.275724,2.542879 -1.484443,1.445261 c -0.815817,0.795761 -1.48249,1.478517 -1.48249,1.517526 0,0.03899 0.05715,0.133219 0.126959,0.208976 0.0698,0.07579 0.147182,0.138667 0.171883,0.138667 0.06538,0 2.998184,-2.890615 2.998184,-2.954973 0,-0.02987 -0.07502,-0.121744 -0.166024,-0.205071 z m 1.189507,1.310501 c -0.1856,0.01323 -0.52693,0.354229 -1.457097,1.273392 -0.767205,0.758127 -1.396549,1.432356 -1.396549,1.497994 0,0.06568 0.145262,0.223639 0.322281,0.351551 0.534474,0.386183 0.617202,0.352653 1.67781,-0.689429 0.516504,-0.507492 1.002824,-1.025848 1.080128,-1.15035 0.168448,-0.271379 0.182458,-0.72049 0.03125,-1.007777 -0.09154,-0.173934 -0.146464,-0.283317 -0.257824,-0.275381 z"
     style="fill:#000000;stroke-width:0.0760149"
     id="path1581" />
</svg>
