<?xml version="1.0" encoding="UTF-8" standalone="no"?>
<!-- Created with Inkscape (http://www.inkscape.org/) -->

<svg
   xmlns:dc="http://purl.org/dc/elements/1.1/"
   xmlns:cc="http://creativecommons.org/ns#"
   xmlns:rdf="http://www.w3.org/1999/02/22-rdf-syntax-ns#"
   xmlns:svg="http://www.w3.org/2000/svg"
   xmlns="http://www.w3.org/2000/svg"
   xmlns:sodipodi="http://sodipodi.sourceforge.net/DTD/sodipodi-0.dtd"
   xmlns:inkscape="http://www.inkscape.org/namespaces/inkscape"
   version="1.1"
   id="svg846"
   width="1920"
   height="1920"
   viewBox="0 0 1920 1920"
   sodipodi:docname="e5.svg"
   inkscape:version="0.92.4 (5da689c313, 2019-01-14)">
  <metadata
     id="metadata852">
    <rdf:RDF>
      <cc:Work
         rdf:about="">
        <dc:format>image/svg+xml</dc:format>
        <dc:type
           rdf:resource="http://purl.org/dc/dcmitype/StillImage" />
        <dc:title />
      </cc:Work>
    </rdf:RDF>
  </metadata>
  <defs
     id="defs850" />
  <sodipodi:namedview
     pagecolor="#ffffff"
     bordercolor="#666666"
     borderopacity="1"
     objecttolerance="10"
     gridtolerance="10"
     guidetolerance="10"
     inkscape:pageopacity="0"
     inkscape:pageshadow="2"
     inkscape:window-width="1920"
     inkscape:window-height="1017"
     id="namedview848"
     showgrid="false"
     inkscape:zoom="0.14791667"
     inkscape:cx="-895.66212"
     inkscape:cy="475.54794"
     inkscape:window-x="-8"
     inkscape:window-y="-8"
     inkscape:window-maximized="1"
     inkscape:current-layer="svg846" />
  <path
     style="fill:#ffffff;fill-opacity:1;stroke-width:1.06666672"
     d="m 1323.4102,1607.797 c -2.3467,-0.2358 -13.6267,-1.183 -25.0667,-2.1048 -82.1595,-6.6202 -175.2795,-29.984 -241.6,-60.6175 l -14.9333,-6.8977 -0.2739,-74.2154 -0.2739,-74.2153 9.3406,6.2465 c 24.5053,16.3879 59.9889,34.0391 103.2072,51.3401 29.6402,11.8655 56.2393,20.7947 87.4667,29.3622 43.6813,11.9842 59.5102,14.2999 103.5499,15.1486 25.6214,0.4937 33.3215,0.2847 44.2667,-1.2019 48.1459,-6.5392 88.1858,-22.5298 118.9231,-47.494 12.7029,-10.317 37.1882,-35.4824 46.7523,-48.0508 30.7661,-40.4304 48.4039,-88.4642 54.4427,-148.2667 2.5029,-24.7872 2.2967,-79.3467 -0.387,-102.4 -7.5804,-65.1139 -29.8765,-106.0443 -77.9477,-143.0941 -43.2667,-33.34683 -105.228,-48.82013 -195.7516,-48.88403 -42.2018,-0.03 -75.7543,2.2284 -119.1671,8.0207 -25.7928,3.4413 -71.1667,10.9804 -98.948,16.4407 -12.0267,2.3638 -22.4667,4.302 -23.2,4.3073 -1.0636,0.01 -1.3333,-61.9233 -1.3333,-306.1239 v -306.1334 h 333.8666 333.8667 v 59.7334 59.7333 h -253.8667 -253.8666 v 6.9333 6.9334 h -6.4 -6.4 v 171.7129 171.7129 l 4.5333,-0.5402 c 45.1423,-5.3797 126.3048,-7.4362 169.8667,-4.3041 81.1015,5.8312 131.7687,18.8079 181.1926,46.4066 58.373,32.5959 101.8926,75.6652 131.5731,130.21193 21.2107,38.9807 31.8146,75.8592 38.3383,133.3333 1.4496,12.7706 1.873,25.1513 1.8608,54.4 -0.015,35.1016 -0.2318,39.5413 -2.9727,60.8 -9.0853,70.465 -32.3427,134.0575 -69.2135,189.2486 -25.8428,38.6837 -55.8599,66.9552 -98.912,93.1599 -47.4815,28.9008 -100.9331,47.4006 -161.1046,55.7589 -22.8796,3.1781 -25.8413,3.3443 -65.562,3.6784 -22.88,0.1924 -43.52,0.1568 -45.8667,-0.079 z m -818.66656,-4.6724 c -24.054,-1.2583 -59.4315,-5.9406 -84.9812,-11.2473 -95.6481,-19.8667 -172.673,-63.0143 -230.3676,-129.047 -57.9232,-66.2943 -91.559302,-149.747 -104.042102,-258.1333 -3.1993,-27.7792 -3.318,-30.4068 -3.35,-74.1334 -0.031,-42.3875 0.1572,-47.0661 2.8969,-72 11.859,-107.92953 44.268402,-193.65053 100.183002,-264.97763 17.127,-21.848 28.6059,-33.6453 49.261,-50.6274 56.2402,-46.2394 120.2654,-73.7407 197.8666,-84.9915 23.7435,-3.4424 24.4446,-3.4804 65.6,-3.5547 37.102,-0.067 43.676,0.1854 60.8,2.3348 96.2681,12.0837 165.58834,47.5574 221.37034,113.2831 32.1345,37.8629 59.3508,91.0932 73.5606,143.8719 8.6353,32.0733 14.3282,68.9709 17.0535,110.52813 0.5771,8.8 1.0567,37 1.0658,62.6667 l 0.016,46.6666 h -316.00004 -316 l 0.3577,6.9356 0.3577,6.9356 -6.7577,-10e-4 h -6.7577 l 0.1918,11.4681 c 0.9322,55.7522 5.4642,92.2318 16.2351,130.6832 29.0057,103.5486 102.0427,173.1174 205.8484,196.0735 24.6002,5.4403 44.2629,7.5018 77.6473,8.1408 47.125,0.9021 78.1828,-2.7771 124.0144,-14.6917 33.08194,-8.6001 59.78274,-18.7617 97.66304,-37.1679 33.6809,-16.3657 64.3446,-34.8231 88.0872,-53.0223 8.4488,-6.476 10.9746,-7.8807 14.1709,-7.8807 h 3.8895 l -0.2738,75.3037 -0.2738,75.3037 -19.7333,7.9218 c -70.921,28.4701 -107.5938,40.3615 -160.53344,52.0535 -43.3043,9.564 -60.8096,11.3998 -112.5333,11.8016 -22.5867,0.1756 -48.0267,-0.045 -56.5333,-0.49 z M 719.14368,1033.497 v -6.4 h 6.5624 6.5624 l -0.6557,-22.6667 c -3.935,-136.02433 -57.95554,-218.46363 -158.06914,-241.22543 -23.0429,-5.239 -36.8736,-6.5079 -70.9334,-6.5079 -24.4821,0 -34.5446,0.4269 -45.3333,1.9232 -63.6984,8.8343 -110.9549,35.6873 -159.0308,90.3674 -24.9339,28.3591 -40.8249,54.8598 -52.4345,87.4427 -10.4785,29.4082 -17.9346,68.27443 -18.2632,95.20003 l -0.1009,8.2667 h 245.848 245.84814 z"
     id="path1997"
     inkscape:connector-curvature="0" />
</svg>
