<?xml version="1.0" encoding="UTF-8" standalone="no"?>
<svg
   xmlns:dc="http://purl.org/dc/elements/1.1/"
   xmlns:cc="http://creativecommons.org/ns#"
   xmlns:rdf="http://www.w3.org/1999/02/22-rdf-syntax-ns#"
   xmlns:svg="http://www.w3.org/2000/svg"
   xmlns="http://www.w3.org/2000/svg"
   xmlns:sodipodi="http://sodipodi.sourceforge.net/DTD/sodipodi-0.dtd"
   xmlns:inkscape="http://www.inkscape.org/namespaces/inkscape"
   inkscape:version="1.0 (4035a4fb49, 2020-05-01)"
   sodipodi:docname="bishop.svg"
   id="svg42"
   height="45"
   width="45"
   version="1.1">
  <metadata
     id="metadata48">
    <rdf:RDF>
      <cc:Work
         rdf:about="">
        <dc:format>image/svg+xml</dc:format>
        <dc:type
           rdf:resource="http://purl.org/dc/dcmitype/StillImage" />
        <dc:title></dc:title>
      </cc:Work>
    </rdf:RDF>
  </metadata>
  <defs
     id="defs46" />
  <sodipodi:namedview
     inkscape:current-layer="layer1"
     inkscape:window-maximized="1"
     inkscape:window-y="-9"
     inkscape:window-x="-9"
     inkscape:cy="26.963956"
     inkscape:cx="13.071206"
     inkscape:zoom="12.586501"
     showgrid="false"
     id="namedview44"
     inkscape:window-height="1001"
     inkscape:window-width="1920"
     inkscape:pageshadow="2"
     inkscape:pageopacity="0"
     guidetolerance="10"
     gridtolerance="10"
     objecttolerance="10"
     borderopacity="1"
     bordercolor="#666666"
     pagecolor="#ffffff" />
  <g
     inkscape:label="Layer 1"
     id="layer1"
     inkscape:groupmode="layer">
    <path
       d="M -0.148046,0.1258992 V 45.012618 H 44.795313 V 0.1258992 Z m 21.695312,5.4785156 c 0.791667,0 1.59341,0.2603321 2.216797,0.8144531 0.623386,0.554121 1.033203,1.4147139 1.033203,2.4355469 0,1.0208316 -0.409817,1.8814262 -1.033203,2.4355472 -0.06729,0.05981 -0.14364,0.103244 -0.214844,0.15625 4.511961,2.142189 6.843158,5.411356 7.390625,8.513672 0.531978,3.014542 -0.731481,5.802315 -3.099609,7.085937 0.795815,0.660201 1.705393,1.706805 1.849609,3.525391 0.02282,0.03261 0.03105,0.0348 0.05078,0.07031 0.07571,0.136287 0.150926,0.321055 0.197266,0.552735 0.09267,0.463358 0.06873,1.100444 -0.212891,1.945312 a 0.750075,0.750075 0 0 1 -0.179687,0.294922 c -0.801777,0.801777 -2.00472,1.275697 -3.40625,1.605469 -0.466786,0.109832 -0.961228,0.193316 -1.466797,0.265625 1.152602,0.252705 2.447637,0.376095 3.792969,0.416015 2.491445,0.07393 5.022784,-0.0649 6.935546,0.482422 0.0085,0.0025 0.01697,0.0051 0.02539,0.0078 0,0 1.824134,0.587148 3.318359,2.203125 0.239256,0.25945 0.265279,0.650596 0.0625,0.939453 -0.434829,0.620271 -1.077401,1.021438 -1.763671,1.111328 -0.670825,0.08787 -1.342862,-0.06524 -2.056641,-0.320312 -1.475271,-0.422129 -3.987735,-0.34112 -6.527344,-0.28711 -2.425667,0.05158 -4.857251,0.04397 -6.765625,-0.68164 -1.908374,0.725611 -4.339958,0.73322 -6.765625,0.68164 -2.539609,-0.05401 -5.052073,-0.135019 -6.527343,0.28711 -0.7154139,0.254949 -1.3876828,0.408215 -2.0585936,0.320312 -0.6863061,-0.08992 -1.3304419,-0.4906 -1.7636719,-1.111328 -0.180364,-0.258067 -0.180364,-0.601308 0,-0.859375 0.756556,-1.083987 1.6274653,-1.678039 2.3183593,-1.984375 0.6664691,-0.295509 1.1857492,-0.321919 1.2246092,-0.324219 1.897884,-0.508414 4.361003,-0.392444 6.800781,-0.464844 1.291111,-0.03831 2.536156,-0.155216 3.654297,-0.386718 -0.5829,-0.07661 -1.153852,-0.169358 -1.6875,-0.294922 -1.40153,-0.329772 -2.604473,-0.803692 -3.40625,-1.605469 a 0.750075,0.750075 0 0 1 -0.179688,-0.294922 c -0.28162,-0.844868 -0.30556,-1.481954 -0.21289,-1.945312 0.04634,-0.23168 0.121545,-0.416448 0.197265,-0.552735 0.01973,-0.03551 0.02796,-0.0377 0.05078,-0.07031 0.144217,-1.818586 1.053795,-2.86519 1.84961,-3.525391 -2.368128,-1.283622 -3.631588,-4.071395 -3.09961,-7.085937 0.549139,-3.111784 2.89221,-6.39156 7.431641,-8.533203 -0.06223,-0.04733 -0.130278,-0.08412 -0.189453,-0.136719 -0.623386,-0.55412 -1.033203,-1.4147156 -1.033203,-2.4355472 0,-1.020833 0.409817,-1.8814259 1.033203,-2.4355469 0.623387,-0.554121 1.42513,-0.8144531 2.216797,-0.8144531 z"
       style="fill:#000000"
       id="rect60" />
  </g>
</svg>
