<?xml version="1.0" encoding="UTF-8" standalone="no"?>
<svg
   xmlns:dc="http://purl.org/dc/elements/1.1/"
   xmlns:cc="http://creativecommons.org/ns#"
   xmlns:rdf="http://www.w3.org/1999/02/22-rdf-syntax-ns#"
   xmlns:svg="http://www.w3.org/2000/svg"
   xmlns="http://www.w3.org/2000/svg"
   xmlns:sodipodi="http://sodipodi.sourceforge.net/DTD/sodipodi-0.dtd"
   xmlns:inkscape="http://www.inkscape.org/namespaces/inkscape"
   sodipodi:docname="Council-red_blue.svg"
   inkscape:version="1.0 (4035a4fb49, 2020-05-01)"
   id="svg869"
   version="1.1"
   viewBox="0 0 151 183"
   height="183mm"
   width="151mm">
  <defs
     id="defs863" />
  <sodipodi:namedview
     inkscape:window-maximized="1"
     inkscape:window-y="-9"
     inkscape:window-x="69"
     inkscape:window-height="1051"
     inkscape:window-width="1842"
     showgrid="false"
     inkscape:document-rotation="0"
     inkscape:current-layer="g75"
     inkscape:document-units="mm"
     inkscape:cy="432.13432"
     inkscape:cx="144.62624"
     inkscape:zoom="0.8038193"
     inkscape:pageshadow="2"
     inkscape:pageopacity="0.0"
     borderopacity="1.0"
     bordercolor="#666666"
     pagecolor="#ffffff"
     id="base" />
  <metadata
     id="metadata866">
    <rdf:RDF>
      <cc:Work
         rdf:about="">
        <dc:format>image/svg+xml</dc:format>
        <dc:type
           rdf:resource="http://purl.org/dc/dcmitype/StillImage" />
        <dc:title />
      </cc:Work>
    </rdf:RDF>
  </metadata>
  <g
     id="layer1"
     inkscape:groupmode="layer"
     inkscape:label="Layer 1">
    <g
       transform="translate(-24.870843,-34.395849)"
       id="g75">
      <path
         id="rect1655"
         style="fill:#90caf9;stroke-width:0.177905;fill-opacity:1"
         d="M 25.277459,34.417896 V 184.41789 H 176.1767 V 34.417896 Z m 73.284436,8.450567 c 2.736775,0 4.105285,1.359899 4.105285,4.080373 0,2.720468 1.36804,4.080816 4.10483,4.080816 2.28066,0 4.10527,1.360421 4.10527,3.060722 0,1.700294 -1.82461,3.060281 -4.10527,3.060281 -6.224,0 -5.49175,10.678366 1.18751,17.317805 l 5.29277,5.261235 6.75188,-4.148205 c 17.45416,-10.722986 42.10351,1.583217 45.55819,22.745093 1.60298,9.819237 -5.98394,26.248147 -17.56342,38.032387 l -8.66297,8.81616 2.1911,10.15777 c 4.2732,19.80639 8.27693,18.11812 -42.965175,18.11812 -42.686035,0 -45.156739,-0.20784 -45.156739,-3.80201 0,-2.09123 0.87538,-8.39234 1.94563,-14.00206 l 1.946077,-10.19961 -8.928815,-9.53057 C 26.413504,112.48173 25.992154,90.389775 47.226189,76.024149 56.091547,70.026387 69.319605,69.865683 76.73723,75.665616 l 5.412854,4.232332 6.039834,-4.742377 c 7.535356,-5.916661 8.986396,-18.004916 2.161418,-18.004916 -2.280649,0 -4.104835,-1.359987 -4.104835,-3.060281 0,-1.700301 1.824186,-3.060722 4.104835,-3.060722 2.73678,0 4.105279,-1.360348 4.105279,-4.080816 0,-2.720474 1.368496,-4.080373 4.10528,-4.080373 z" />
      <g
         style="font-size:40.5694px;line-height:1.25;font-family:Garamond;-inkscape-font-specification:Garamond;fill:#90caf9;stroke-width:0.264583;fill-opacity:1"
         id="text1672"
         aria-label="Council">
        <path
           id="path838"
           style="font-size:40.5694px;text-align:center;text-anchor:middle;fill:#90caf9;stroke-width:0.264583;fill-opacity:1"
           d="m 61.982442,192.61618 q 0.237711,1.52531 0.237711,3.12986 0,0.31695 -0.01981,0.8518 -0.27733,0.0594 -0.415995,0.0594 -0.118855,0 -0.336757,-0.0396 -0.83199,-2.31769 -2.713871,-3.56567 -1.881882,-1.24798 -4.655181,-1.24798 -1.465886,0 -2.476159,0.33675 -1.782835,0.61409 -3.129866,1.7036 -1.347031,1.0697 -2.278067,2.57521 -0.931036,1.48569 -1.485696,3.6251 -0.534851,2.11959 -0.534851,4.33823 0,4.23918 1.287604,7.01248 1.287603,2.75349 3.526051,3.94205 2.238448,1.16874 4.516515,1.16874 l 0.931036,-0.0198 q 1.584743,-0.1981 2.159212,-0.37638 1.446077,-0.416 2.377113,-0.97066 0.950845,-0.57446 1.842263,-1.60455 0.911227,-1.03008 1.545123,-2.39692 l 0.237712,-0.0792 q 0.09905,0 0.297139,0.11886 -0.01981,0.47542 -0.03962,0.61409 -0.831989,3.34776 -1.208366,4.57594 -0.316948,0.0792 -0.792371,0.23771 -2.317685,0.79237 -6.200304,0.79237 -3.129866,0 -4.694798,-0.4358 -1.545124,-0.416 -3.387387,-1.30741 -1.822453,-0.91123 -3.209103,-2.39693 -1.386649,-1.48569 -2.238448,-3.74395 -0.851799,-2.27807 -0.851799,-4.95232 0,-2.53559 0.673515,-4.41747 0.673516,-1.90169 2.079974,-3.843 1.406459,-1.94131 3.30815,-3.22891 1.9215,-1.2876 4.258994,-1.82245 1.64417,-0.35657 4.655181,-0.35657 2.19883,0 4.140139,0.59428 1.941309,0.57447 2.595015,1.12913 z" />
        <path
           id="path840"
           style="font-size:40.5694px;text-align:center;text-anchor:middle;fill:#90caf9;stroke-width:0.264583;fill-opacity:1"
           d="m 65.706587,208.8994 q 0,-1.34703 0.55466,-2.87234 0.574469,-1.54513 1.723407,-2.75349 1.148938,-1.22818 2.436541,-1.82246 1.802645,-0.83199 4.39766,-0.83199 3.704335,0 6.180495,2.53559 2.495969,2.53559 2.495969,6.10126 0,3.16948 -2.614825,5.66545 -2.595015,2.47616 -6.57668,2.47616 -2.456351,0 -4.635371,-1.2876 -1.624361,-0.97066 -2.793108,-2.87235 -1.168748,-1.90169 -1.168748,-4.33823 z m 8.755701,7.72562 q 1.505505,0 2.892154,-0.81218 1.406459,-0.81218 2.238449,-2.59502 0.83199,-1.80264 0.83199,-4.15994 0,-1.54513 -0.653707,-3.58548 -0.633897,-2.04036 -1.980927,-3.05063 -1.327222,-1.03008 -3.129866,-1.03008 -1.307413,0 -2.674253,0.61408 -1.347031,0.61409 -2.297876,2.35731 -0.931036,1.74321 -0.931036,4.95232 0,3.60529 1.624361,5.46736 1.64417,1.84226 4.080711,1.84226 z" />
        <path
           id="path842"
           style="font-size:40.5694px;text-align:center;text-anchor:middle;fill:#90caf9;stroke-width:0.264583;fill-opacity:1"
           d="m 85.595099,201.31245 h 1.485696 l 0.653706,0.0396 0.515042,-0.0396 q 2.040355,0 2.535587,0.0396 l 0.01981,0.37637 q 0,2.79311 -0.07924,5.40794 -0.05943,1.54512 -0.05943,1.76302 0,3.48644 0.217902,4.35804 0.237711,0.87161 1.069701,1.40646 0.851799,0.51504 2.040355,0.51504 1.446077,0 2.75349,-0.59428 1.327221,-0.61408 2.258257,-1.48569 0.09905,-0.75275 0.09905,-1.66398 0,-2.95158 0.05943,-3.98166 0.01981,-0.61409 0.01981,-1.06971 0,-3.2091 -0.316948,-3.62509 -0.316949,-0.416 -2.416732,-0.6339 -0.693325,-0.0792 -1.010274,-0.13867 -0.158474,-0.25752 -0.158474,-0.39618 l 0.05943,-0.2179 q 0.515041,-0.0594 1.010273,-0.0594 l 3.149675,0.0396 q 1.683788,-0.0396 1.782838,-0.0396 0.2179,0 0.41599,0.0198 l 0.0396,1.44608 q -0.13866,3.01101 -0.15847,7.44828 l -0.0396,1.60456 0.0792,2.69406 q 0.17828,0.31695 0.31694,0.37637 0.23771,0.0991 0.97066,0.0991 h 0.17828 q 0.25752,0 1.46589,0.11886 0.0198,0.25752 0.0198,0.37637 v 0.2179 q -2.65445,0.57447 -4.29862,1.14894 -0.653702,0.2179 -1.109315,0.31695 -0.09905,-0.69332 -0.09905,-0.8518 v -1.60455 q 0,-0.0991 -0.01981,-0.53485 -0.257521,0.17828 -0.594278,0.4358 -1.564933,1.20837 -3.30815,2.04036 -1.168747,0.57447 -2.258257,0.57447 -2.079975,0 -3.387387,-1.54513 -1.327221,-1.54512 -1.327221,-5.26926 0,-0.1981 0.01981,-0.71314 0.07924,-0.95084 0.07924,-1.32722 0,-0.13866 -0.01981,-0.87161 -0.01981,-0.31695 -0.01981,-0.55466 0,-0.17828 0.01981,-0.79237 0.01981,-0.63389 0.01981,-0.89142 0,-0.33675 -0.01981,-0.59427 l -0.03962,-1.0499 0.01981,-0.55466 q 0,-0.31694 -0.316948,-0.57446 -1.247985,-0.33676 -1.64417,-0.37638 -0.376376,-0.0594 -0.673516,-0.17828 z" />
        <path
           id="path844"
           style="font-size:40.5694px;text-align:center;text-anchor:middle;fill:#90caf9;stroke-width:0.264583;fill-opacity:1"
           d="m 105.58267,216.22884 q 0.49523,-0.13867 1.14893,-0.23772 1.24799,-0.17828 1.4857,-0.41599 0.25752,-0.23771 0.25752,-1.08951 l 0.0396,-0.71314 q 0.0198,-0.39618 0.0198,-1.01027 l -0.0396,-6.08145 q 0,-1.22817 -0.31695,-1.58474 -0.53485,-0.55466 -1.98093,-0.77256 v -0.71313 q 1.44608,-0.39619 2.21864,-1.03009 1.12913,-0.89141 1.90169,-2.41673 l 0.67352,0.0198 q 0.0594,0.93104 0.0594,1.32722 v 1.30741 l 0.0198,0.35657 q 0.23771,-0.15847 0.55465,-0.39618 1.18856,-0.89142 2.43655,-1.44608 1.24798,-0.57447 2.21864,-0.79237 0.61408,-0.15848 1.38664,-0.15848 1.62437,0 2.79311,0.87161 1.16875,0.87161 1.50551,2.06017 0.35656,1.16874 0.35656,4.67499 v 2.9912 q 0,0.11885 -0.0396,0.79237 -0.0198,0.67351 -0.0198,1.54512 0,1.38665 0.11885,1.76303 0.099,0.25752 0.51504,0.51504 1.90169,0.25752 2.21864,0.61409 v 0.15847 q 0,0.19809 -0.11885,0.49523 h -0.37638 l -2.61482,-0.0198 -2.57521,0.0396 q -1.42627,0.0396 -2.63463,-0.0198 l -0.11886,-0.41599 q 0,-0.11886 0.13867,-0.31695 0.53485,-0.23771 1.5055,-0.31695 0.57447,-0.0396 0.79237,-0.11886 0.2179,-0.0792 0.53485,-0.31694 0.23771,-0.47543 0.23771,-0.79238 0,-0.13866 -0.0396,-0.55465 -0.0594,-0.91123 -0.0792,-4.53633 v -1.03008 l 0.0396,-1.58474 q 0,-2.5554 -1.03009,-3.52606 -1.03008,-0.97065 -2.75349,-0.97065 -1.32722,0 -2.59501,0.59428 -1.26779,0.57447 -2.45635,1.74321 -0.0396,0.95085 -0.0396,1.62437 l 0.0594,4.37785 q 0,3.427 0.099,4.19956 0.0396,0.31695 0.13867,0.43581 0.15847,0.15847 0.6339,0.25752 0.47542,0.099 1.08951,0.27733 0.63389,0.17828 0.83199,0.2179 0.39618,0.0991 0.53485,0.39618 l -0.0198,0.39619 h -2.07998 l -4.2788,-0.0594 q -1.4857,0.0396 -1.88188,0.0396 h -0.49523 l -0.0396,-0.25752 q 0,-0.13866 0.0594,-0.39618 z" />
        <path
           id="path846"
           style="font-size:40.5694px;text-align:center;text-anchor:middle;fill:#90caf9;stroke-width:0.264583;fill-opacity:1"
           d="m 141.33841,213.23763 0.0198,1.28761 q -1.54512,1.64417 -3.05063,2.29787 -1.5055,0.65371 -3.54586,0.65371 -2.21864,0 -4.00147,-1.14894 -1.78284,-1.16875 -2.75349,-3.28834 -0.95085,-2.11959 -0.95085,-4.15995 0,-2.23845 1.14894,-4.21937 1.16875,-2.00074 3.07044,-2.97139 1.9215,-0.99047 4.81365,-0.99047 2.7733,0 4.21938,0.95085 0.81218,0.55466 0.81218,1.42626 0,0.6339 -0.416,1.0499 -0.41599,0.41599 -1.0697,0.41599 -0.99046,0 -2.17902,-1.22817 -0.73294,-0.75276 -1.32722,-1.03009 -0.59428,-0.29714 -1.32722,-0.29714 -1.76303,0 -2.93177,1.44608 -1.62436,2.06017 -1.62436,5.17022 0,3.20911 1.66397,5.1108 1.66398,1.90169 3.88262,1.90169 1.54513,0 2.73368,-0.49523 1.20837,-0.51505 2.81292,-1.88189 z" />
        <path
           id="path848"
           style="font-size:40.5694px;text-align:center;text-anchor:middle;fill:#90caf9;stroke-width:0.264583;fill-opacity:1"
           d="m 145.20122,192.51713 q 0,-0.65371 0.49523,-1.12913 0.51504,-0.47542 1.22817,-0.47542 0.73295,0 1.28761,0.53485 0.55466,0.53485 0.55466,1.14894 0,0.61408 -0.55466,1.16874 -0.55466,0.53485 -1.28761,0.53485 -0.73294,0 -1.22817,-0.49523 -0.49523,-0.49523 -0.49523,-1.2876 z m -1.66398,10.26121 0.0198,-0.57447 q 1.2876,-0.37638 1.38665,-0.43581 0.71313,-0.31695 1.48569,-0.97065 0.79237,-0.65371 1.32722,-1.46589 0.23772,-0.0396 0.37638,-0.0396 l 0.23771,0.0198 q 0.0792,0.95085 0.0792,1.38665 0,0.0991 -0.0396,0.89142 v 1.04989 l 0.0198,5.70507 -0.0594,6.04183 q -0.0198,0.73295 0.23771,1.03008 0.25752,0.27733 1.52532,0.6339 0.79237,0.2179 1.18855,0.37638 0.0594,0.13866 0.0594,0.23771 0,0.11885 -0.099,0.29714 -0.77257,-0.0198 -1.98093,-0.0991 -1.64417,-0.13866 -2.17902,-0.13866 -0.25752,0 -3.16949,0.099 -0.59428,0.0198 -1.14893,0.099 -0.0991,0 -0.31695,-0.0594 -0.0991,-0.13866 -0.0991,-0.23771 0,-0.27733 0.37638,-0.4358 0.0792,-0.0396 2.02054,-0.45562 0.6339,-0.11885 0.83199,-0.39618 0.33676,-0.416 0.33676,-1.32722 0.0396,-1.52532 0.0396,-8.35952 0,-1.36684 -0.11886,-1.7036 -0.099,-0.23771 -0.53485,-0.53485 -0.41599,-0.31695 -1.80264,-0.63389 z" />
        <path
           id="path850"
           style="font-size:40.5694px;text-align:center;text-anchor:middle;fill:#90caf9;stroke-width:0.264583;fill-opacity:1"
           d="m 152.68913,192.31904 v -0.43581 q 0.55466,-0.17828 1.22817,-0.37637 0.99047,-0.31695 2.93178,-0.97066 h 0.93103 q 0.0198,0.95085 0.0198,1.08951 0,16.26342 -0.099,19.39329 -0.0594,1.84226 -0.0594,1.96111 0,2.21864 0.17828,2.47616 0.23771,0.35657 1.44608,0.49524 1.22817,0.13866 1.44607,0.27733 0.15848,0.0792 0.15848,0.27732 0,0.21791 -0.0991,0.31695 -0.0792,0.0792 -0.31695,0.0792 -0.13866,0 -2.07997,-0.0594 l -2.59502,-0.0792 -3.32795,0.13866 q -0.31695,0.0198 -0.47543,-0.11886 -0.11885,-0.099 -0.11885,-0.27733 0,-0.19809 0.11885,-0.27732 0.13867,-0.099 1.42627,-0.31695 1.30741,-0.21791 1.4857,-0.35657 0.19809,-0.15847 0.25752,-0.67352 0.0792,-0.71313 0.0792,-4.02128 l -0.0198,-4.55613 0.0594,-4.71461 -0.0198,-4.71461 0.0594,-2.31768 q 0,-0.69333 -0.2179,-0.99047 -0.2179,-0.31695 -0.93104,-0.61409 -1.0697,-0.4358 -1.46588,-0.63389 z" />
      </g>
    </g>
  </g>
</svg>
