<?xml version="1.0" encoding="UTF-8" standalone="no"?>
<svg
   xmlns:dc="http://purl.org/dc/elements/1.1/"
   xmlns:cc="http://creativecommons.org/ns#"
   xmlns:rdf="http://www.w3.org/1999/02/22-rdf-syntax-ns#"
   xmlns:svg="http://www.w3.org/2000/svg"
   xmlns="http://www.w3.org/2000/svg"
   xmlns:sodipodi="http://sodipodi.sourceforge.net/DTD/sodipodi-0.dtd"
   xmlns:inkscape="http://www.inkscape.org/namespaces/inkscape"
   width="120"
   height="80"
   viewBox="0 0 119.99999 80"
   version="1.1"
   id="svg3"
   sodipodi:docname="Saved Pieces.svg"
   inkscape:version="1.0 (4035a4fb49, 2020-05-01)">
  <metadata
     id="metadata9">
    <rdf:RDF>
      <cc:Work
         rdf:about="">
        <dc:format>image/svg+xml</dc:format>
        <dc:type
           rdf:resource="http://purl.org/dc/dcmitype/StillImage" />
        <dc:title />
      </cc:Work>
    </rdf:RDF>
  </metadata>
  <defs
     id="defs7" />
  <sodipodi:namedview
     inkscape:document-rotation="0"
     pagecolor="#ffffff"
     bordercolor="#666666"
     borderopacity="1"
     objecttolerance="10"
     gridtolerance="10"
     guidetolerance="10"
     inkscape:pageopacity="0"
     inkscape:pageshadow="2"
     inkscape:window-width="1842"
     inkscape:window-height="1051"
     id="namedview5"
     showgrid="false"
     inkscape:zoom="0.22014514"
     inkscape:cx="-985.2675"
     inkscape:cy="540.73275"
     inkscape:window-x="69"
     inkscape:window-y="-9"
     inkscape:window-maximized="1"
     inkscape:current-layer="svg3" />
  <path
     style="fill:#90caf9;fill-opacity:1"
     id="text859"
     d="m 36.024,11.438223 q 0.133,1.1 0.133,1.262 l -0.066,1.478 a 10.8,10.8 0 0 1 -0.083,1.212 0.643,0.643 0 0 1 -0.249,0.066 l -0.149,-0.033 a 6.01,6.01 0 0 0 -1.8,-3.387 4.664,4.664 0 0 0 -3.1,-1.062 4.537,4.537 0 0 0 -3.1,1.063 3.206,3.206 0 0 0 -1.212,2.474 2.82,2.82 0 0 0 0.847,1.976 19.152,19.152 0 0 0 4.333,2.683 28.03,28.03 0 0 1 3.8,2.245 5.883,5.883 0 0 1 1.727,2.019 5.58,5.58 0 0 1 0.581,2.559 6.466,6.466 0 0 1 -0.921,3.34 5.966,5.966 0 0 1 -2.485,2.349 9.2,9.2 0 0 1 -4.134,0.789 13.03,13.03 0 0 1 -4.3,-0.714 4.875,4.875 0 0 1 -1.478,-0.7 0.793,0.793 0 0 1 -0.266,-0.564 4.126,4.126 0 0 1 0.033,-0.465 31.949,31.949 0 0 0 0.249,-3.221 2.865,2.865 0 0 1 0.116,-0.913 0.262,0.262 0 0 1 0.249,-0.116 0.3,0.3 0 0 1 0.241,0.108 0.8,0.8 0 0 1 0.125,0.407 5.629,5.629 0 0 0 1.893,3.652 5.42,5.42 0 0 0 3.836,1.614 5.358,5.358 0 0 0 2.416,-0.548 4.088,4.088 0 0 0 1.726,-1.587 3.917,3.917 0 0 0 0.623,-2.017 3.705,3.705 0 0 0 -0.946,-2.457 13.374,13.374 0 0 0 -3.8,-2.6 28.357,28.357 0 0 1 -3.719,-2.167 8.2,8.2 0 0 1 -2.092,-2.357 4.684,4.684 0 0 1 -0.515,-2.241 5.01,5.01 0 0 1 1.826,-3.91 7.162,7.162 0 0 1 4.9,-1.6 9.9,9.9 0 0 1 2.922,0.382 6.959,6.959 0 0 1 1.839,0.981 z m 16.585,18.228 a 0.879,0.879 0 0 1 0.1,0.315 2.14,2.14 0 0 1 -0.4,0.88 3.574,3.574 0 0 1 -1.145,1.212 2.06,2.06 0 0 1 -1.1,0.249 2.181,2.181 0 0 1 -1.793,-0.73 3.11,3.11 0 0 1 -0.515,-1.544 l -1.854,1.295 a 7.641,7.641 0 0 1 -1.494,0.714 8,8 0 0 1 -1.992,0.216 1.773,1.773 0 0 1 -1.336,-0.506 1.8,1.8 0 0 1 -0.49,-1.3 4.54,4.54 0 0 1 1.405,-2.743 10.306,10.306 0 0 1 3.819,-2.607 q 1.7,-0.714 2.08,-0.913 0.033,-0.548 0.033,-1.2 a 4.874,4.874 0 0 0 -0.591,-2.855 2.029,2.029 0 0 0 -1.69,-0.747 3.166,3.166 0 0 0 -2.148,0.9 3.964,3.964 0 0 0 -0.933,2.122 3.518,3.518 0 0 1 -0.382,0.93 2.324,2.324 0 0 1 -1.146,0.465 1.108,1.108 0 0 1 -0.664,-0.216 0.327,0.327 0 0 1 -0.166,-0.266 5.725,5.725 0 0 1 0.921,-1.951 6.1,6.1 0 0 1 2.324,-2.274 5.34,5.34 0 0 1 2.449,-0.755 6.543,6.543 0 0 1 2.125,0.257 2.87,2.87 0 0 1 1.229,0.9 2.883,2.883 0 0 1 0.647,1.411 25.948,25.948 0 0 1 0.066,2.606 l -0.05,2.64 0.017,1.926 q 0,0.382 -0.017,0.647 -0.017,0.481 -0.017,0.714 a 1.225,1.225 0 0 0 0.315,0.88 1,1 0 0 0 0.747,0.332 1.3,1.3 0 0 0 1.081,-0.622 l 0.2,-0.266 a 1.547,1.547 0 0 1 0.365,-0.116 z m -4.865,-0.481 q 0.116,-2.108 0.116,-2.972 0,-0.448 -0.05,-1.212 a 11.442,11.442 0 0 0 -2.365,1.212 7.01,7.01 0 0 0 -1.982,1.876 2.556,2.556 0 0 0 -0.533,1.444 1.447,1.447 0 0 0 0.441,1.079 1.52,1.52 0 0 0 1.108,0.432 2.92,2.92 0 0 0 1.25,-0.365 8.347,8.347 0 0 0 2.015,-1.494 z m 5,-10.459 q 1.843,0.019 3.221,0.133 0.979,0 1.428,-0.033 0.315,-0.017 0.4,-0.017 l 1.859,0.017 q 0.382,0.066 0.614,0.083 a 0.361,0.361 0 0 1 0.183,0.183 0.73,0.73 0 0 1 -0.1,0.349 2.582,2.582 0 0 1 -0.581,0.1 12.222,12.222 0 0 0 -2.092,0.377 q -0.116,0.082 -0.116,0.164 a 1.356,1.356 0 0 0 0.166,0.508 q 0.033,0.083 0.15,0.4 l 1.664,3.989 q 1.11,2.739 2.058,4.617 0.646,-1.23 1.192,-2.543 0.546,-1.313 1.606,-4.139 a 15.545,15.545 0 0 0 0.564,-1.971 1.926,1.926 0 0 0 0.05,-0.4 0.68,0.68 0 0 0 -0.224,-0.438 1.628,1.628 0 0 0 -0.755,-0.388 q -0.117,-0.013 -1.507,-0.244 a 0.825,0.825 0 0 1 -0.216,-0.183 v -0.133 a 1.816,1.816 0 0 1 0.016,-0.215 5.263,5.263 0 0 1 0.581,-0.05 l 1.959,0.017 q 0.2,0 0.946,-0.05 2.64,0 3.171,0.05 a 0.362,0.362 0 0 1 0.183,0.2 0.705,0.705 0 0 1 -0.1,0.332 l -0.514,0.132 q -0.2,0.017 -0.315,0.033 a 4.091,4.091 0 0 0 -1.759,0.4 5.118,5.118 0 0 0 -0.78,1.7 q -0.249,0.748 -0.729,1.895 l -0.866,2.089 -0.4,0.981 -2.565,5.953 h -0.512 a 8.723,8.723 0 0 0 -0.365,-0.831 l -1.26,-2.679 -2.975,-6.965 a 13.817,13.817 0 0 0 -1.079,-2.194 10.46,10.46 0 0 0 -2.125,-0.7 1.274,1.274 0 0 1 -0.1,-0.382 z m 29.266,4.432 -6.657,0.049 h -1.262 q -0.764,0 -1.561,0.069 a 2.927,2.927 0 0 0 -0.149,0.681 l 0.017,0.166 v 0.166 l -0.017,0.813 a 6.477,6.477 0 0 0 0.643,2.481 4.933,4.933 0 0 0 1.822,2.241 5.628,5.628 0 0 0 2.963,0.822 6.11,6.11 0 0 0 1.515,-0.233 7.647,7.647 0 0 0 1.594,-0.847 l 1.2,-0.979 0.1,0.664 a 2.014,2.014 0 0 1 -0.017,0.249 7.293,7.293 0 0 1 -1.893,1.66 9.016,9.016 0 0 1 -2.332,1.046 8.106,8.106 0 0 1 -1.859,0.149 5.95,5.95 0 0 1 -2.325,-0.481 5.659,5.659 0 0 1 -2.668,-2.35 7.5,7.5 0 0 1 -0.971,-3.926 8.421,8.421 0 0 1 0.277,-1.874 9.864,9.864 0 0 1 0.988,-2.44 4.782,4.782 0 0 1 1.179,-1.444 7.8,7.8 0 0 1 1.743,-1.116 6.5,6.5 0 0 1 2.507,-0.448 5.011,5.011 0 0 1 2.523,0.564 5,5 0 0 1 1.984,1.926 4.507,4.507 0 0 1 0.656,2.158 z m -9.264,-0.6 h 0.78 q 0.847,0 5.047,-0.266 a 2.1,2.1 0 0 0 0.813,-0.133 0.885,0.885 0 0 0 0.3,-0.564 2.647,2.647 0 0 0 -0.332,-1.17 2.288,2.288 0 0 0 -1.021,-1.013 3.435,3.435 0 0 0 -1.6,-0.357 3.764,3.764 0 0 0 -3.088,1.444 3.339,3.339 0 0 0 -0.899,2.062 z m 22.4,-2.689 0.017,-0.481 -0.017,-1.942 0.017,-3.669 a 3.583,3.583 0 0 0 -0.332,-1.942 4.252,4.252 0 0 0 -1.942,-0.847 q -0.116,-0.033 -0.365,-0.1 v -0.183 a 2.236,2.236 0 0 1 0.033,-0.365 18.075,18.075 0 0 0 3.885,-0.7800003 l 0.847,-0.017 q 0.066,1.1290003 0.066,2.5230003 l -0.066,6.392 0.116,7.205 -0.05,3.835 q 0,1.179 0.166,1.328 a 2.237,2.237 0 0 0 1.461,0.349 q 0.232,0 0.631,0.033 v 0.3 a 2.014,2.014 0 0 1 -0.017,0.249 q -0.52,0.117 -1.072,0.217 l -2.4,0.465 a 4.853,4.853 0 0 1 -0.847,0.1 v -1.594 q -0.282,0.083 -0.88,0.332 a 12.329,12.329 0 0 1 -4.765,1.1 5.013,5.013 0 0 1 -2.673,-0.855 5.59,5.59 0 0 1 -2.092,-2.382 7.162,7.162 0 0 1 -0.73,-3.121 7.817,7.817 0 0 1 0.481,-2.731 6.6,6.6 0 0 1 1.262,-2.167 6.121,6.121 0 0 1 1.411,-1.121 5.833,5.833 0 0 1 1.511,-0.706 10.029,10.029 0 0 1 1.976,-0.382 8.853,8.853 0 0 1 3.686,0.664 q 0.445,0.212 0.678,0.295 z m 0.017,10.26 q 0.066,-1.112 0.066,-4.582 a 14.79,14.79 0 0 0 -0.273,-3.71 3.088,3.088 0 0 0 -1.364,-1.461 4.49,4.49 0 0 0 -2.447,-0.689 4.169,4.169 0 0 0 -3.225,1.478 6.356,6.356 0 0 0 -1.323,4.366 5.649,5.649 0 0 0 1.427,4.052 4.707,4.707 0 0 0 3.562,1.511 7.111,7.111 0 0 0 2.238,-0.332 4.08,4.08 0 0 0 1.335,-0.631 z m -73.9,16.609 a 3.173,3.173 0 0 1 0.382,-0.05 q 0.564,0 1.859,0.066 0.681,0.017 0.93,0.017 0.365,0 1.544,-0.066 l 2.822,-0.166 q 1.112,-0.1 2.59,-0.1 a 9.739,9.739 0 0 1 4.15,0.738 5.183,5.183 0 0 1 2.382,2.313 6.623,6.623 0 0 1 0.838,3.134 6.245,6.245 0 0 1 -1.836,4.495 6.516,6.516 0 0 1 -4.914,1.89 5.1,5.1 0 0 1 -1.444,-0.174 5.158,5.158 0 0 1 -1.328,-0.672 0.877,0.877 0 0 1 -0.382,-0.448 0.379,0.379 0 0 1 0.183,-0.166 1.293,1.293 0 0 1 0.481,0.1 4.347,4.347 0 0 0 1.428,0.2 5.057,5.057 0 0 0 2.482,-0.646 4.21,4.21 0 0 0 1.768,-1.84 5.553,5.553 0 0 0 0.6,-2.519 5.407,5.407 0 0 0 -0.63,-2.511 5.35,5.35 0 0 0 -1.657,-1.948 5.175,5.175 0 0 0 -1.781,-0.7 8.785,8.785 0 0 0 -1.864,-0.282 5.439,5.439 0 0 0 -2.436,0.3 l -0.017,0.232 0.05,1.874 -0.017,0.332 q -0.033,0.448 -0.033,1.377 0,3.384 0.1,4.213 v 0.929 l 0.216,7.581 q 0,0.166 -0.042,0.614 -0.042,0.448 -0.042,0.78 a 4.2,4.2 0 0 0 0.133,1.211 q 0.4,0.116 2.324,0.547 0.9,0.216 0.979,0.249 a 0.477,0.477 0 0 1 0.232,0.216 0.564,0.564 0 0 1 -0.174,0.324 0.816,0.816 0 0 1 -0.423,0.075 q -0.2,0 -0.93,-0.083 -1.428,-0.149 -2.241,-0.149 l -2.922,0.116 -1.743,-0.05 q -0.166,0 -0.963,0.033 l -0.017,-0.432 2.158,-0.415 a 1.383,1.383 0 0 0 0.647,-0.3 1.712,1.712 0 0 0 0.166,-0.912 q 0,-0.149 0.017,-0.647 0.017,-0.348 0.017,-0.962 0,-1.957 -0.166,-8.344 -0.066,-2.986 -0.066,-6.071 v -0.282 q 0,-1.194 -0.365,-1.509 a 6.822,6.822 0 0 0 -3.071,-0.9 0.766,0.766 0 0 1 -0.083,-0.3 0.685,0.685 0 0 1 0.103,-0.31 z m 20.752,0.78 a 1.256,1.256 0 0 1 0.423,-0.946 1.436,1.436 0 0 1 1.021,-0.4 1.507,1.507 0 0 1 1.079,0.448 1.328,1.328 0 0 1 0.465,0.963 1.354,1.354 0 0 1 -0.465,0.971 1.493,1.493 0 0 1 -1.079,0.457 1.4,1.4 0 0 1 -1.035,-0.411 1.46,1.46 0 0 1 -0.416,-1.076 z m -1.395,8.616 0.017,-0.49 q 1.079,-0.316 1.162,-0.367 a 5.437,5.437 0 0 0 1.253,-0.816 5.654,5.654 0 0 0 1.1,-1.233 2.032,2.032 0 0 1 0.315,-0.033 l 0.2,0.017 q 0.066,0.8 0.066,1.162 0,0.083 -0.033,0.747 v 0.88 l 0.017,4.781 -0.05,5.063 a 1.241,1.241 0 0 0 0.2,0.855 3.24,3.24 0 0 0 1.278,0.54 10.093,10.093 0 0 1 1,0.315 0.523,0.523 0 0 1 0.05,0.2 0.544,0.544 0 0 1 -0.083,0.249 q -0.647,-0.017 -1.66,-0.083 -1.378,-0.116 -1.826,-0.116 -0.216,0 -2.656,0.083 a 8.9,8.9 0 0 0 -0.963,0.083 1.151,1.151 0 0 1 -0.273,-0.047 0.365,0.365 0 0 1 -0.083,-0.2 q 0,-0.232 0.315,-0.365 0.066,-0.033 1.693,-0.381 a 1.08,1.08 0 0 0 0.7,-0.332 1.761,1.761 0 0 0 0.282,-1.111 q 0.033,-1.276 0.033,-7 a 5.859,5.859 0 0 0 -0.1,-1.426 1.259,1.259 0 0 0 -0.44,-0.456 4.825,4.825 0 0 0 -1.52,-0.516 z m 19.966,3.024 -6.657,0.049 h -1.262 q -0.764,0 -1.561,0.069 a 2.927,2.927 0 0 0 -0.149,0.681 l 0.017,0.166 v 0.166 l -0.017,0.813 a 6.477,6.477 0 0 0 0.639,2.482 4.933,4.933 0 0 0 1.828,2.24 5.628,5.628 0 0 0 2.963,0.822 6.11,6.11 0 0 0 1.511,-0.232 7.647,7.647 0 0 0 1.594,-0.847 l 1.2,-0.979 0.1,0.664 a 2.014,2.014 0 0 1 -0.017,0.249 7.293,7.293 0 0 1 -1.893,1.66 9.016,9.016 0 0 1 -2.324,1.046 8.106,8.106 0 0 1 -1.859,0.149 5.95,5.95 0 0 1 -2.324,-0.481 5.659,5.659 0 0 1 -2.672,-2.351 7.5,7.5 0 0 1 -0.971,-3.926 8.421,8.421 0 0 1 0.274,-1.876 9.864,9.864 0 0 1 0.988,-2.44 4.782,4.782 0 0 1 1.179,-1.444 7.8,7.8 0 0 1 1.743,-1.114 6.5,6.5 0 0 1 2.508,-0.446 5.011,5.011 0 0 1 2.523,0.564 5,5 0 0 1 1.984,1.926 4.507,4.507 0 0 1 0.655,2.156 z m -9.264,-0.6 h 0.78 q 0.847,0 5.047,-0.266 a 2.1,2.1 0 0 0 0.813,-0.133 0.885,0.885 0 0 0 0.3,-0.564 2.647,2.647 0 0 0 -0.332,-1.17 2.288,2.288 0 0 0 -1.021,-1.013 3.435,3.435 0 0 0 -1.6,-0.357 3.764,3.764 0 0 0 -3.088,1.444 3.339,3.339 0 0 0 -0.897,2.062 z m 23.541,6.325 0.017,1.079 a 7.994,7.994 0 0 1 -2.556,1.929 7.418,7.418 0 0 1 -2.972,0.548 6.02,6.02 0 0 1 -3.354,-0.971 6.268,6.268 0 0 1 -2.3,-2.748 8.4,8.4 0 0 1 -0.805,-3.486 6.935,6.935 0 0 1 0.971,-3.544 6.252,6.252 0 0 1 2.573,-2.49 8.777,8.777 0 0 1 4.026,-0.822 6.459,6.459 0 0 1 3.536,0.8 1.4,1.4 0 0 1 0.681,1.2 1.193,1.193 0 0 1 -0.349,0.88 1.214,1.214 0 0 1 -0.9,0.349 2.737,2.737 0 0 1 -1.826,-1.029 4.213,4.213 0 0 0 -1.112,-0.872 2.523,2.523 0 0 0 -1.112,-0.241 3.034,3.034 0 0 0 -2.457,1.203 6.782,6.782 0 0 0 -1.361,4.333 6.274,6.274 0 0 0 1.398,4.283 4.212,4.212 0 0 0 3.254,1.594 5.875,5.875 0 0 0 2.3,-0.423 9.606,9.606 0 0 0 2.348,-1.569 z m 14.045,-5.728 -6.657,0.049 h -1.262 q -0.764,0 -1.561,0.069 a 2.927,2.927 0 0 0 -0.149,0.681 l 0.017,0.166 v 0.166 l -0.017,0.813 a 6.477,6.477 0 0 0 0.639,2.482 4.933,4.933 0 0 0 1.826,2.243 5.628,5.628 0 0 0 2.963,0.822 6.11,6.11 0 0 0 1.511,-0.232 7.647,7.647 0 0 0 1.594,-0.847 l 1.2,-0.979 0.1,0.664 a 2.015,2.015 0 0 1 -0.017,0.249 7.293,7.293 0 0 1 -1.893,1.66 9.016,9.016 0 0 1 -2.324,1.046 8.106,8.106 0 0 1 -1.859,0.149 5.95,5.95 0 0 1 -2.324,-0.481 5.659,5.659 0 0 1 -2.671,-2.351 7.5,7.5 0 0 1 -0.971,-3.926 8.421,8.421 0 0 1 0.271,-1.874 9.864,9.864 0 0 1 0.988,-2.44 4.782,4.782 0 0 1 1.179,-1.444 7.8,7.8 0 0 1 1.747,-1.116 6.5,6.5 0 0 1 2.507,-0.448 4.922,4.922 0 0 1 4.507,2.49 4.507,4.507 0 0 1 0.656,2.158 z m -9.264,-0.6 h 0.78 q 0.847,0 5.047,-0.266 a 2.1,2.1 0 0 0 0.813,-0.133 0.885,0.885 0 0 0 0.3,-0.564 2.647,2.647 0 0 0 -0.332,-1.17 2.288,2.288 0 0 0 -1.021,-1.013 3.435,3.435 0 0 0 -1.6,-0.357 3.764,3.764 0 0 0 -3.088,1.444 3.339,3.339 0 0 0 -0.899,2.065 z m 12.667,5.146 a 12.5,12.5 0 0 0 0.93,2.042 4.71,4.71 0 0 0 1.511,1.469 3.671,3.671 0 0 0 1.909,0.523 2.856,2.856 0 0 0 1.876,-0.811 1.891,1.891 0 0 0 0.664,-1.428 3,3 0 0 0 -0.777,-1.988 7.513,7.513 0 0 0 -2.963,-1.718 6.926,6.926 0 0 1 -2.93,-1.751 3.3,3.3 0 0 1 -0.747,-2.125 3.349,3.349 0 0 1 0.61,-1.99 3.763,3.763 0 0 1 1.693,-1.3 5.314,5.314 0 0 1 1.992,-0.44 11.132,11.132 0 0 1 2.117,0.183 5.405,5.405 0 0 1 1.619,0.557 q 0.133,0.847 0.216,2.49 l 0.033,0.531 q -0.216,0.017 -0.365,0.017 h -0.232 a 4.766,4.766 0 0 0 -1.519,-2.183 3.269,3.269 0 0 0 -2.017,-0.805 2.194,2.194 0 0 0 -1.61,0.606 2.128,2.128 0 0 0 -0.614,1.585 1.983,1.983 0 0 0 0.5,1.328 6.638,6.638 0 0 0 2.329,1.331 12.142,12.142 0 0 1 2.673,1.383 3.892,3.892 0 0 1 1.237,1.554 4.365,4.365 0 0 1 0.4,1.745 3.482,3.482 0 0 1 -0.755,2.143 4.047,4.047 0 0 1 -1.893,1.4 6.12,6.12 0 0 1 -2.034,0.407 9.553,9.553 0 0 1 -3.885,-0.78 0.652,0.652 0 0 1 -0.183,-0.5 q 0,-0.149 -0.033,-0.481 -0.266,-2.241 -0.266,-2.656 a 0.331,0.331 0 0 1 0.083,-0.266 0.84,0.84 0 0 1 0.431,-0.066 z" />
</svg>
