<?xml version="1.0" encoding="UTF-8" standalone="no"?>
<svg
   xmlns:dc="http://purl.org/dc/elements/1.1/"
   xmlns:cc="http://creativecommons.org/ns#"
   xmlns:rdf="http://www.w3.org/1999/02/22-rdf-syntax-ns#"
   xmlns:svg="http://www.w3.org/2000/svg"
   xmlns="http://www.w3.org/2000/svg"
   xmlns:sodipodi="http://sodipodi.sourceforge.net/DTD/sodipodi-0.dtd"
   xmlns:inkscape="http://www.inkscape.org/namespaces/inkscape"
   sodipodi:docname="save-as-72e2ff.svg"
   inkscape:version="0.92.4 (5da689c313, 2019-01-14)"
   id="svg8"
   version="1.1"
   viewBox="0 0 14.022913 15.874999"
   height="60"
   width="53">
  <defs
     id="defs2">
    <inkscape:path-effect
       effect="powerstroke"
       id="path-effect2978"
       is_visible="true"
       lpeversion="1"
       offset_points="0,0.0099307778"
       sort_points="true"
       interpolator_type="CubicBezierJohan"
       interpolator_beta="0.2"
       start_linecap_type="zerowidth"
       linejoin_type="extrp_arc"
       miter_limit="4"
       scale_width="1"
       end_linecap_type="zerowidth" />
    <inkscape:path-effect
       effect="bspline"
       id="path-effect2976"
       is_visible="true"
       lpeversion="1"
       weight="33.333333"
       steps="2"
       helper_size="0"
       apply_no_weight="true"
       apply_with_weight="true"
       only_selected="false" />
    <inkscape:path-effect
       effect="powerstroke"
       id="path-effect2974"
       is_visible="true"
       lpeversion="1"
       offset_points="0,0.0099307778"
       sort_points="true"
       interpolator_type="CubicBezierJohan"
       interpolator_beta="0.2"
       start_linecap_type="zerowidth"
       linejoin_type="extrp_arc"
       miter_limit="4"
       scale_width="1"
       end_linecap_type="zerowidth" />
    <inkscape:path-effect
       effect="bspline"
       id="path-effect2972"
       is_visible="true"
       lpeversion="1"
       weight="33.333333"
       steps="2"
       helper_size="0"
       apply_no_weight="true"
       apply_with_weight="true"
       only_selected="false" />
    <inkscape:path-effect
       end_linecap_type="zerowidth"
       scale_width="1"
       miter_limit="4"
       linejoin_type="extrp_arc"
       start_linecap_type="zerowidth"
       interpolator_beta="0.2"
       interpolator_type="CubicBezierJohan"
       sort_points="true"
       offset_points="0,0.0099307778"
       lpeversion="1"
       is_visible="true"
       id="path-effect2970"
       effect="powerstroke" />
    <inkscape:path-effect
       only_selected="false"
       apply_with_weight="true"
       apply_no_weight="true"
       helper_size="0"
       steps="2"
       weight="33.333333"
       lpeversion="1"
       is_visible="true"
       id="path-effect2968"
       effect="bspline" />
    <inkscape:path-effect
       end_linecap_type="zerowidth"
       scale_width="1"
       miter_limit="4"
       linejoin_type="extrp_arc"
       start_linecap_type="zerowidth"
       interpolator_beta="0.2"
       interpolator_type="CubicBezierJohan"
       sort_points="true"
       offset_points="0,0.12744213"
       lpeversion="1"
       is_visible="true"
       id="path-effect1009"
       effect="powerstroke" />
    <inkscape:path-effect
       only_selected="false"
       apply_with_weight="true"
       apply_no_weight="true"
       helper_size="0"
       steps="2"
       weight="33.333333"
       lpeversion="1"
       is_visible="true"
       id="path-effect1007"
       effect="bspline" />
    <inkscape:path-effect
       effect="powerstroke"
       id="path-effect986"
       is_visible="true"
       lpeversion="1"
       offset_points="0,0.12744213"
       sort_points="true"
       interpolator_type="CubicBezierJohan"
       interpolator_beta="0.2"
       start_linecap_type="zerowidth"
       linejoin_type="extrp_arc"
       miter_limit="4"
       scale_width="1"
       end_linecap_type="zerowidth" />
    <inkscape:path-effect
       effect="bspline"
       id="path-effect984"
       is_visible="true"
       lpeversion="1"
       weight="33.333333"
       steps="2"
       helper_size="0"
       apply_no_weight="true"
       apply_with_weight="true"
       only_selected="false" />
    <inkscape:path-effect
       end_linecap_type="zerowidth"
       scale_width="1"
       miter_limit="4"
       linejoin_type="extrp_arc"
       start_linecap_type="zerowidth"
       interpolator_beta="0.2"
       interpolator_type="CubicBezierJohan"
       sort_points="true"
       offset_points="0,0.12744213"
       lpeversion="1"
       is_visible="true"
       id="path-effect963"
       effect="powerstroke" />
    <inkscape:path-effect
       only_selected="false"
       apply_with_weight="true"
       apply_no_weight="true"
       helper_size="0"
       steps="2"
       weight="33.333333"
       lpeversion="1"
       is_visible="true"
       id="path-effect961"
       effect="bspline" />
    <inkscape:path-effect
       end_linecap_type="zerowidth"
       scale_width="1"
       miter_limit="4"
       linejoin_type="extrp_arc"
       start_linecap_type="zerowidth"
       interpolator_beta="0.2"
       interpolator_type="CubicBezierJohan"
       sort_points="true"
       offset_points="0,0.12744213"
       lpeversion="1"
       is_visible="true"
       id="path-effect951"
       effect="powerstroke" />
    <inkscape:path-effect
       only_selected="false"
       apply_with_weight="true"
       apply_no_weight="true"
       helper_size="0"
       steps="2"
       weight="33.333333"
       lpeversion="1"
       is_visible="true"
       id="path-effect949"
       effect="bspline" />
    <inkscape:path-effect
       end_linecap_type="zerowidth"
       scale_width="1"
       miter_limit="4"
       linejoin_type="extrp_arc"
       start_linecap_type="zerowidth"
       interpolator_beta="0.2"
       interpolator_type="CubicBezierJohan"
       sort_points="true"
       offset_points="0,0.12744213"
       lpeversion="1"
       is_visible="true"
       id="path-effect939"
       effect="powerstroke" />
    <inkscape:path-effect
       only_selected="false"
       apply_with_weight="true"
       apply_no_weight="true"
       helper_size="0"
       steps="2"
       weight="33.333333"
       lpeversion="1"
       is_visible="true"
       id="path-effect937"
       effect="bspline" />
    <inkscape:path-effect
       effect="powerstroke"
       id="path-effect916"
       is_visible="true"
       lpeversion="1"
       offset_points="0,0.12744213"
       sort_points="true"
       interpolator_type="CubicBezierJohan"
       interpolator_beta="0.2"
       start_linecap_type="zerowidth"
       linejoin_type="extrp_arc"
       miter_limit="4"
       scale_width="1"
       end_linecap_type="zerowidth" />
    <inkscape:path-effect
       effect="bspline"
       id="path-effect914"
       is_visible="true"
       lpeversion="1"
       weight="33.333333"
       steps="2"
       helper_size="0"
       apply_no_weight="true"
       apply_with_weight="true"
       only_selected="false" />
  </defs>
  <sodipodi:namedview
     units="px"
     inkscape:window-maximized="1"
     inkscape:window-y="-8"
     inkscape:window-x="-8"
     inkscape:window-height="1017"
     inkscape:window-width="1920"
     fit-margin-bottom="0"
     fit-margin-right="0"
     fit-margin-left="0"
     fit-margin-top="0"
     showgrid="false"
     inkscape:document-rotation="0"
     inkscape:current-layer="g849"
     inkscape:document-units="mm"
     inkscape:cy="29.156636"
     inkscape:cx="15.844094"
     inkscape:zoom="9.9937758"
     inkscape:pageshadow="2"
     inkscape:pageopacity="0"
     borderopacity="1.0"
     bordercolor="#666666"
     pagecolor="#292929"
     id="base" />
  <metadata
     id="metadata5">
    <rdf:RDF>
      <cc:Work
         rdf:about="">
        <dc:format>image/svg+xml</dc:format>
        <dc:type
           rdf:resource="http://purl.org/dc/dcmitype/StillImage" />
        <dc:title></dc:title>
      </cc:Work>
    </rdf:RDF>
  </metadata>
  <g
     transform="translate(-27.662315,-59.987116)"
     id="layer1"
     inkscape:groupmode="layer"
     inkscape:label="Layer 1">
    <g
       id="g1411">
      <g
         style="stroke:#00cccc;stroke-opacity:1"
         id="g849"
         transform="matrix(0.89960937,0,0,0.89984324,2.8296587,5.8916223)">
        <text
           xml:space="preserve"
           style="font-size:3.72587991px;line-height:0.5;font-family:sans-serif;-inkscape-font-specification:Tahoma;text-align:center;text-anchor:middle;fill:#00cccc;fill-opacity:1;stroke:none;stroke-width:0.277834;stroke-opacity:1"
           x="35.785477"
           y="77.124481"
           id="text1505"
           transform="scale(0.99425558,1.0057776)"><tspan
             sodipodi:role="line"
             id="tspan1503"
             x="35.785477"
             y="77.124481"
             style="font-size:3.92094541px;fill:#72e2ff;fill-opacity:1;stroke:none;stroke-width:0.277834;stroke-opacity:1">Save As</tspan></text>
        <g
           id="g860"
           transform="matrix(0.93238664,0,0,0.93238664,1.9497944,4.8639113)">
          <path
             transform="matrix(0.97538561,0,0,0.98027519,0.17859758,2.5328753)"
             id="path912-7"
             d="m 31.823947,59.6027 c 0,0 0,0.0099 0,0.0099 1.739674,0 6.958696,-0.0099 8.69837,-0.0099 -1.739674,0 -6.958696,-0.0099 -8.69837,-0.0099 0,0 0,0.0099 0,0.0099 z"
             style="fill:#000000;fill-rule:nonzero;stroke:#b1faae;stroke-width:0.260346;stroke-linecap:butt;stroke-linejoin:miter;stroke-miterlimit:4;stroke-dasharray:none;stroke-opacity:1"
             inkscape:original-d="m 31.823947,59.6027 c 2.899476,2e-5 5.798934,2e-5 8.69837,0"
             inkscape:path-effect="#path-effect2968;#path-effect2970"
             inkscape:connector-curvature="0" />
          <path
             transform="matrix(0.97538561,0,0,0.98027519,0.17859758,2.5328753)"
             style="fill:#000000;fill-rule:nonzero;stroke:#b1faae;stroke-width:0.260346;stroke-linecap:butt;stroke-linejoin:miter;stroke-miterlimit:4;stroke-dasharray:none;stroke-opacity:1"
             d="m 31.833356,60.459651 c 0,0 0,0.0099 0,0.0099 1.734218,0 6.936873,-0.0099 8.671091,-0.0099 -1.734218,0 -6.936873,-0.0099 -8.671091,-0.0099 0,0 0,0.0099 0,0.0099 z"
             id="path912-2-3"
             inkscape:original-d="m 31.833356,60.459651 c 2.890383,2.3e-5 5.780748,2.3e-5 8.671091,0"
             inkscape:path-effect="#path-effect2972;#path-effect2974"
             inkscape:connector-curvature="0" />
          <path
             transform="matrix(0.97538561,0,0,0.98027519,0.17859758,2.5328753)"
             style="fill:#000000;fill-rule:nonzero;stroke:#b1faae;stroke-width:0.260346;stroke-linecap:butt;stroke-linejoin:miter;stroke-miterlimit:4;stroke-dasharray:none;stroke-opacity:1"
             d="m 31.832903,61.356772 c 0,0 0,0.0099 0,0.0099 0.897974,0 3.591896,-0.0099 4.48987,-0.0099 -0.897974,0 -3.591896,-0.0099 -4.48987,-0.0099 0,0 0,0.0099 0,0.0099 z"
             id="path912-5-3"
             inkscape:original-d="m 31.832903,61.356772 c 1.496634,2.8e-5 2.993257,2.8e-5 4.48987,0"
             inkscape:path-effect="#path-effect2976;#path-effect2978"
             inkscape:connector-curvature="0" />
          <path
             style="fill:#b1faae;fill-opacity:1;stroke:#b1faae;stroke-width:0.00983333;stroke-miterlimit:4;stroke-dasharray:none;stroke-opacity:1"
             d="m 41.966296,70.153251 c -0.155606,0.528186 -0.540701,0.737208 -1.180124,0.640548 l -0.229511,-0.03468 -0.265482,-0.357587 C 39.885305,69.854845 39.223103,68.970928 38.341476,67.799041 38.032568,67.388426 37.646907,66.874904 37.484454,66.657877 37.322,66.440851 37.056091,66.086262 36.893543,65.8699 c -0.712434,-0.948284 -0.706116,-0.93896 -0.749486,-1.105914 -0.02246,-0.08646 -0.125095,-0.462677 -0.228072,-0.836028 -0.300179,-1.088317 -0.356817,-1.321714 -0.326384,-1.344988 0.03259,-0.02492 -0.02328,-0.05594 1.131631,0.628183 0.780231,0.462169 0.908106,0.545579 0.986662,0.643566 0.107052,0.133529 0.85174,1.112159 1.215113,1.596831 0.301194,0.401741 0.560768,0.746493 1.271036,1.688126 0.525711,0.69696 0.841141,1.116963 1.349568,1.796988 0.151593,0.202758 0.331448,0.439551 0.399675,0.526209 l 0.124049,0.157557 -0.03183,0.202969 c -0.01751,0.111635 -0.04865,0.260074 -0.06921,0.329865 z m -0.121997,-0.546939 c -0.08419,-0.139907 -0.53739,-0.719686 -0.552985,-0.707431 -0.0047,0.0038 -0.03937,0.103463 -0.07699,0.221668 -0.140617,0.44189 -0.348845,0.621288 -0.776216,0.668758 -0.0781,0.0087 -0.186301,0.0091 -0.240455,9.35e-4 -0.05415,-0.0081 -0.09985,-0.0052 -0.101548,0.0068 -0.0062,0.04386 0.61853,0.841845 0.664733,0.84901 0.07771,0.01203 0.389011,-0.03543 0.51096,-0.07794 0.328771,-0.114585 0.535341,-0.38482 0.606693,-0.793685 0.0107,-0.06135 8.44e-4,-0.109869 -0.0342,-0.168086 z m -1.011014,-1.33469 c -0.115524,-0.156574 -0.320817,-0.431248 -0.456204,-0.610392 -0.135388,-0.179143 -0.357196,-0.472821 -0.492907,-0.652615 -0.356196,-0.471893 -0.60633,-0.801235 -1.075383,-1.415904 -0.228132,-0.298957 -0.494741,-0.648649 -0.592466,-0.7771 -0.306369,-0.402694 -0.418487,-0.543726 -0.434128,-0.546083 -0.0083,-0.0013 -0.02999,0.1018 -0.04815,0.22901 l -0.03302,0.231293 0.23125,0.309957 c 0.427929,0.573571 0.58192,0.776598 1.879538,2.478069 0.606094,0.794726 1.153234,1.496512 1.168541,1.498819 0.0079,0.0012 0.02535,-0.101898 0.0387,-0.229102 l 0.02427,-0.231278 z m -0.360537,0.486952 c -0.48186,-0.654359 -0.763335,-1.029295 -1.590666,-2.11883 -0.385351,-0.507479 -0.789356,-1.040311 -0.897791,-1.184069 -0.108434,-0.143757 -0.246833,-0.324636 -0.30755,-0.401952 l -0.110397,-0.140574 -0.139595,0.108159 c -0.0995,0.07709 -0.135283,0.11851 -0.12458,0.144189 0.0083,0.01982 0.507293,0.68962 1.108964,1.488457 0.601672,0.798835 1.327588,1.762662 1.613148,2.141834 l 0.519201,0.689406 0.06696,-0.04626 c 0.0922,-0.06369 0.215403,-0.16574 0.218399,-0.180904 0.0014,-0.007 -0.158881,-0.231648 -0.356093,-0.49946 z M 39.24862,68.096257 c -0.498946,-0.66025 -1.198359,-1.584612 -1.55425,-2.054136 l -0.647076,-0.853684 -0.15008,-0.0068 c -0.159601,-0.0072 -0.221988,1.53e-4 -0.225733,0.02638 -0.0028,0.01987 0.337749,0.48148 1.552227,2.10386 0.434927,0.581001 1.51308,1.99862 1.613556,2.121597 0.09187,0.112448 0.07236,0.107239 0.397677,0.106104 l 0.09042,-3.19e-4 -0.08478,-0.121315 c -0.04663,-0.06671 -0.493012,-0.661511 -0.991959,-1.321761 z m -1.678928,-4.103814 c -0.01933,-0.05517 -0.192333,-0.17781 -0.470685,-0.333682 l -0.170183,-0.0953 -0.119879,0.184336 c -0.134682,0.207094 -0.205375,0.261221 -0.450536,0.34496 l -0.168464,0.05754 0.03339,0.155467 c 0.120884,0.562857 0.13866,0.617116 0.205479,0.627187 0.08173,0.01232 0.527199,-0.05348 0.649273,-0.09592 0.129143,-0.04488 0.269676,-0.160789 0.330662,-0.272721 0.0424,-0.07781 0.147048,-0.374962 0.172336,-0.489348 0.0037,-0.01687 -0.0014,-0.05401 -0.01139,-0.08253 z"
             id="path2834-7"
             inkscape:connector-curvature="0" />
          <path
             style="fill:none;stroke:#b1faae;stroke-width:0.25457343;stroke-linecap:butt;stroke-linejoin:miter;stroke-miterlimit:4;stroke-dasharray:none;stroke-opacity:1"
             d="m 39.224088,65.977814 1.149033,8.45e-4 v -5.559973 h -9.760224 v 5.607951 l 6.487348,-8.44e-4"
             id="path2844-3"
             sodipodi:nodetypes="cccccc"
             inkscape:connector-curvature="0" />
          <path
             style="fill:none;stroke:#b1faae;stroke-width:0.25457343;stroke-linecap:butt;stroke-linejoin:miter;stroke-miterlimit:4;stroke-dasharray:none;stroke-opacity:1"
             d="m 37.941917,67.183371 -6.458354,-0.0117 v 5.897954 h 7.662892 l 0.01671,-4.359766 v 0 0"
             id="path2846-3"
             inkscape:connector-curvature="0" />
          <path
             style="fill:none;stroke:#b1faae;stroke-width:0.25457343;stroke-linecap:butt;stroke-linejoin:miter;stroke-miterlimit:4;stroke-dasharray:none;stroke-opacity:1"
             d="m 32.086698,67.898999 h 1.814184 v 3.627381 h -1.814184 z"
             id="path2848-1"
             inkscape:connector-curvature="0" />
          <path
             style="fill:none;stroke:#b1faae;stroke-width:0.25457343;stroke-linecap:butt;stroke-linejoin:miter;stroke-miterlimit:4;stroke-dasharray:none;stroke-opacity:1"
             d="M 41.59878,69.083752 41.58831,60.290093 H 28.964699 v 11.479254 l 1.471371,1.496911 h 11.152248 l 0.0091,-2.733104 v 0"
             id="path2852-4"
             sodipodi:nodetypes="cccccccc"
             inkscape:connector-curvature="0" />
        </g>
        <path
           transform="matrix(0.90943651,0,0,0.91399549,2.1163164,7.2255304)"
           id="path862"
           d="m 31.823947,59.6027 c 0,0 0,0.0099 0,0.0099 1.739674,0 6.958696,-0.0099 8.69837,-0.0099 -1.739674,0 -6.958696,-0.0099 -8.69837,-0.0099 0,0 0,0.0099 0,0.0099 z"
           style="fill:#000000;fill-rule:nonzero;stroke:#72e2ff;stroke-width:0.26088262;stroke-linecap:butt;stroke-linejoin:miter;stroke-miterlimit:4;stroke-dasharray:none;stroke-opacity:1"
           inkscape:original-d="m 31.823947,59.6027 c 2.899476,2e-5 5.798934,2e-5 8.69837,0"
           inkscape:path-effect="#path-effect2968;#path-effect2970"
           inkscape:connector-curvature="0" />
        <path
           transform="matrix(0.90943651,0,0,0.91399549,2.1163164,7.2255304)"
           style="fill:#000000;fill-rule:nonzero;stroke:#72e2ff;stroke-width:0.26088262;stroke-linecap:butt;stroke-linejoin:miter;stroke-miterlimit:4;stroke-dasharray:none;stroke-opacity:1"
           d="m 31.833356,60.459651 c 0,0 0,0.0099 0,0.0099 1.734218,0 6.936873,-0.0099 8.671091,-0.0099 -1.734218,0 -6.936873,-0.0099 -8.671091,-0.0099 0,0 0,0.0099 0,0.0099 z"
           id="path864"
           inkscape:original-d="m 31.833356,60.459651 c 2.890383,2.3e-5 5.780748,2.3e-5 8.671091,0"
           inkscape:path-effect="#path-effect2972;#path-effect2974"
           inkscape:connector-curvature="0" />
        <path
           transform="matrix(0.90943651,0,0,0.91399549,2.1163164,7.2255304)"
           style="fill:#000000;fill-rule:nonzero;stroke:#72e2ff;stroke-width:0.26088262;stroke-linecap:butt;stroke-linejoin:miter;stroke-miterlimit:4;stroke-dasharray:none;stroke-opacity:1"
           d="m 31.832903,61.356772 c 0,0 0,0.0099 0,0.0099 0.897974,0 3.591896,-0.0099 4.48987,-0.0099 -0.897974,0 -3.591896,-0.0099 -4.48987,-0.0099 0,0 0,0.0099 0,0.0099 z"
           id="path866"
           inkscape:original-d="m 31.832903,61.356772 c 1.496634,2.8e-5 2.993257,2.8e-5 4.48987,0"
           inkscape:path-effect="#path-effect2976;#path-effect2978"
           inkscape:connector-curvature="0" />
        <path
           style="fill:#72e2ff;fill-opacity:1;stroke:#b1faae;stroke-width:0.00916847;stroke-miterlimit:4;stroke-dasharray:none;stroke-opacity:1"
           d="m 41.078608,70.273865 c -0.145085,0.492474 -0.504142,0.687363 -1.100332,0.597239 l -0.213993,-0.03234 -0.247532,-0.33341 c -0.378431,-0.509723 -0.995859,-1.333876 -1.817877,-2.426528 -0.288021,-0.382852 -0.647606,-0.861653 -0.799075,-1.064006 -0.15147,-0.202352 -0.3994,-0.532966 -0.550958,-0.734699 -0.664264,-0.884167 -0.658373,-0.875474 -0.698811,-1.031139 -0.02094,-0.08061 -0.116637,-0.431394 -0.212651,-0.779502 -0.279883,-1.014732 -0.332691,-1.232348 -0.304316,-1.254049 0.03039,-0.02323 -0.02171,-0.05216 1.055118,0.58571 0.727476,0.43092 0.846705,0.50869 0.91995,0.600052 0.09981,0.124501 0.794151,1.036962 1.132955,1.488864 0.280829,0.374578 0.522853,0.69602 1.185097,1.573986 0.490166,0.649836 0.784269,1.041442 1.258319,1.675488 0.141344,0.189049 0.309038,0.409831 0.372652,0.49063 l 0.115662,0.146904 -0.02968,0.189246 c -0.01633,0.104087 -0.04536,0.242489 -0.06453,0.307561 z M 40.96486,69.763907 c -0.0785,-0.130448 -0.501056,-0.671026 -0.515596,-0.6596 -0.0044,0.0035 -0.03671,0.09647 -0.07178,0.206681 -0.131109,0.412012 -0.325258,0.57928 -0.723733,0.623541 -0.07282,0.0081 -0.173705,0.0085 -0.224197,8.72e-4 -0.05049,-0.0076 -0.0931,-0.0048 -0.09468,0.0063 -0.0058,0.04089 0.576709,0.784925 0.619788,0.791605 0.07246,0.01122 0.362709,-0.03303 0.476412,-0.07267 0.306542,-0.106837 0.499145,-0.358801 0.565673,-0.740021 0.01,-0.0572 7.87e-4,-0.102441 -0.03189,-0.156721 z M 40.022204,68.51946 c -0.107713,-0.145988 -0.299126,-0.40209 -0.425359,-0.569122 -0.126234,-0.16703 -0.333044,-0.440852 -0.45958,-0.608489 -0.332112,-0.439987 -0.565334,-0.747061 -1.002672,-1.32017 -0.212708,-0.278744 -0.46129,-0.604792 -0.552408,-0.724558 -0.285654,-0.375466 -0.390191,-0.506963 -0.404775,-0.50916 -0.0077,-0.0012 -0.02796,0.09492 -0.04489,0.213525 l -0.03079,0.215655 0.215615,0.289 c 0.398995,0.53479 0.542574,0.724089 1.752456,2.310518 0.565114,0.740992 1.07526,1.395328 1.089532,1.397479 0.0074,0.0011 0.02364,-0.09501 0.03608,-0.213612 l 0.02263,-0.21564 z m -0.33616,0.454027 c -0.44928,-0.610116 -0.711723,-0.959701 -1.483116,-1.975569 -0.359296,-0.473166 -0.735985,-0.969972 -0.837088,-1.10401 -0.101103,-0.134037 -0.230144,-0.302686 -0.286756,-0.374774 l -0.102932,-0.13107 -0.130157,0.100846 c -0.09277,0.07188 -0.126136,0.110497 -0.116157,0.13444 0.0077,0.01848 0.472994,0.642993 1.033984,1.387818 0.560991,0.744823 1.237825,1.643482 1.504077,1.997017 l 0.484096,0.642793 0.06243,-0.04313 c 0.08597,-0.05938 0.200839,-0.154534 0.203632,-0.168673 0.0013,-0.0065 -0.148138,-0.215985 -0.332016,-0.46569 z m -1.141361,-0.617535 c -0.46521,-0.615609 -1.117334,-1.477471 -1.449162,-1.915249 l -0.603325,-0.795964 -0.139932,-0.0063 c -0.14881,-0.0067 -0.206979,1.42e-4 -0.210471,0.0246 -0.0026,0.01853 0.314913,0.448926 1.447276,1.961611 0.40552,0.541718 1.410776,1.863487 1.504458,1.978149 0.08566,0.104845 0.06747,0.09999 0.370789,0.09893 l 0.08431,-2.98e-4 -0.07905,-0.113112 c -0.04348,-0.0622 -0.459678,-0.616784 -0.92489,-1.232392 z m -1.56541,-3.826342 c -0.01802,-0.05144 -0.179328,-0.165787 -0.43886,-0.31112 l -0.158676,-0.08886 -0.111774,0.171873 c -0.125576,0.193091 -0.191489,0.243559 -0.420074,0.321636 l -0.157073,0.05365 0.03113,0.144956 c 0.112711,0.5248 0.129285,0.57539 0.191586,0.58478 0.0762,0.01149 0.491553,-0.04986 0.605373,-0.08943 0.120412,-0.04185 0.251443,-0.149918 0.308305,-0.254282 0.03953,-0.07255 0.137106,-0.349609 0.160684,-0.456261 0.0035,-0.01573 -0.0013,-0.05036 -0.01062,-0.07695 z"
           id="path868"
           inkscape:connector-curvature="0" />
        <path
           style="fill:none;stroke:#72e2ff;stroke-width:0.23785011;stroke-linecap:butt;stroke-linejoin:miter;stroke-miterlimit:4;stroke-dasharray:none;stroke-opacity:1"
           d="m 38.52181,66.380744 1.071343,7.87e-4 v -5.184044 h -9.100302 v 5.228779 l 6.048716,-7.87e-4"
           id="path870"
           sodipodi:nodetypes="cccccc"
           inkscape:connector-curvature="0" />
        <path
           style="fill:none;stroke:#72e2ff;stroke-width:0.23785011;stroke-linecap:butt;stroke-linejoin:miter;stroke-miterlimit:4;stroke-dasharray:none;stroke-opacity:1"
           d="m 37.326331,67.504789 -6.021683,-0.01091 v 5.499173 h 7.144778 l 0.01558,-4.064987 v 0 0"
           id="path872"
           inkscape:connector-curvature="0" />
        <path
           style="fill:none;stroke:#72e2ff;stroke-width:0.23785011;stroke-linecap:butt;stroke-linejoin:miter;stroke-miterlimit:4;stroke-dasharray:none;stroke-opacity:1"
           d="m 31.867003,68.172031 h 1.691521 v 3.382121 h -1.691521 z"
           id="path874"
           inkscape:connector-curvature="0" />
        <path
           style="fill:none;stroke:#72e2ff;stroke-width:0.23736086;stroke-linecap:butt;stroke-linejoin:miter;stroke-miterlimit:4;stroke-dasharray:none;stroke-opacity:1"
           d="m 40.735941,69.276679 -0.0098,-8.19909 H 28.956093 v 10.703103 l 1.371886,1.395699 h 10.398207 l 0.0085,-2.548309 v 0"
           id="path876"
           sodipodi:nodetypes="cccccccc"
           inkscape:connector-curvature="0" />
      </g>
    </g>
  </g>
</svg>
