<?xml version="1.0" encoding="UTF-8" standalone="no"?>
<svg
   xmlns:dc="http://purl.org/dc/elements/1.1/"
   xmlns:cc="http://creativecommons.org/ns#"
   xmlns:rdf="http://www.w3.org/1999/02/22-rdf-syntax-ns#"
   xmlns:svg="http://www.w3.org/2000/svg"
   xmlns="http://www.w3.org/2000/svg"
   xmlns:sodipodi="http://sodipodi.sourceforge.net/DTD/sodipodi-0.dtd"
   xmlns:inkscape="http://www.inkscape.org/namespaces/inkscape"
   inkscape:version="1.0 (4035a4fb49, 2020-05-01)"
   sodipodi:docname="Council Rules.svg"
   id="svg10"
   version="1.1"
   viewBox="0 0 1311.523 182.484"
   height="182.484"
   width="1311.523">
  <metadata
     id="metadata16">
    <rdf:RDF>
      <cc:Work
         rdf:about="">
        <dc:format>image/svg+xml</dc:format>
        <dc:type
           rdf:resource="http://purl.org/dc/dcmitype/StillImage" />
      </cc:Work>
    </rdf:RDF>
  </metadata>
  <defs
     id="defs14" />
  <sodipodi:namedview
     inkscape:current-layer="svg10"
     inkscape:window-maximized="1"
     inkscape:window-y="-9"
     inkscape:window-x="77"
     inkscape:cy="91.241997"
     inkscape:cx="660.7014"
     inkscape:zoom="0.92106661"
     showgrid="false"
     id="namedview12"
     inkscape:window-height="1051"
     inkscape:window-width="1834"
     inkscape:pageshadow="2"
     inkscape:pageopacity="0"
     guidetolerance="10"
     gridtolerance="10"
     objecttolerance="10"
     borderopacity="1"
     bordercolor="#666666"
     pagecolor="#ffffff" />
  <g
     style="fill:#b6b6b6;fill-opacity:1"
     transform="translate(-301.691 -1309.078)"
     data-name="Group 101"
     id="Group_101">
    <path
       style="fill:#b6b6b6;fill-opacity:1"
       transform="translate(293 1440)"
       d="M115.723-119.531a100.069,100.069,0,0,1,1.172,15.43q0,1.563-.1,4.2a10.789,10.789,0,0,1-2.051.293,9.984,9.984,0,0,1-1.66-.2,34.263,34.263,0,0,0-13.379-17.578q-9.277-6.152-22.949-6.152a38.95,38.95,0,0,0-12.207,1.66,50.964,50.964,0,0,0-15.43,8.35,49.982,49.982,0,0,0-11.23,12.7,63.443,63.443,0,0,0-7.275,17.871A86.15,86.15,0,0,0,27.93-61.523q0,20.9,6.348,34.521T51.66-7.568A47.356,47.356,0,0,0,73.926-1.758l4.59-.1A73.018,73.018,0,0,0,89.16-3.711a49.727,49.727,0,0,0,11.768-4.834,38.835,38.835,0,0,0,9.082-7.861,49.312,49.312,0,0,0,7.568-11.816l1.172-.391a3.326,3.326,0,0,1,1.465.586q-.1,2.344-.2,3.027-4.1,16.5-5.957,22.559-1.563.391-3.906,1.172Q98.73,2.637,79.59,2.637q-15.43,0-23.1-2.1a95.415,95.415,0,0,1-16.7-6.543A54.32,54.32,0,0,1,23.926-17.773,55.161,55.161,0,0,1,12.891-36.279a68.768,68.768,0,0,1-4.2-24.365,65.059,65.059,0,0,1,3.32-21.826,75.771,75.771,0,0,1,10.254-18.9,64.873,64.873,0,0,1,16.357-15.918A61.814,61.814,0,0,1,59.57-126.27q8.105-1.758,22.949-1.758a70.46,70.46,0,0,1,20.41,2.881Q112.5-122.266,115.723-119.531ZM134.18-39.258a41.277,41.277,0,0,1,2.783-14.209,39.475,39.475,0,0,1,8.447-13.574,39.252,39.252,0,0,1,12.012-8.936q8.887-4.1,21.68-4.1,18.262,0,30.518,12.5A41.418,41.418,0,0,1,221.875-37.5q0,15.625-12.842,27.881T176.563,2.637a44.2,44.2,0,0,1-22.852-6.348,41.077,41.077,0,0,1-13.77-14.16A40.012,40.012,0,0,1,134.18-39.258ZM177.391-1.172a28.16,28.16,0,0,0,14.332-4q6.9-4,11-12.842a48.054,48.054,0,0,0,4.108-20.459,59.735,59.735,0,0,0-3.179-17.676q-3.179-10.059-9.782-15.088a24.863,24.863,0,0,0-15.505-5.029,31.8,31.8,0,0,0-13.157,3.027q-6.7,3.027-11.347,11.621t-4.646,24.414q0,17.773,8.07,26.9A25.735,25.735,0,0,0,177.391-1.172ZM232.324-76.66h7.3l3.21.2,2.53-.2q10.019,0,12.453.2l.1,1.855q0,13.77-.391,26.66-.293,7.617-.293,8.691,0,17.188,1.125,21.484a11.348,11.348,0,0,0,5.286,6.885A18.624,18.624,0,0,0,273.671-8.3a32.448,32.448,0,0,0,13.655-2.979,41.264,41.264,0,0,0,11.11-7.275,63.182,63.182,0,0,0,.488-8.2q0-14.551.294-19.629.1-3.027.1-5.273,0-15.82-1.562-17.871T285.84-72.656q-3.418-.391-4.98-.684a4.255,4.255,0,0,1-.781-1.953l.293-1.074a43.435,43.435,0,0,1,4.98-.293l15.527.2q8.3-.2,8.789-.2,1.074,0,2.051.1l.2,7.129q-.684,14.844-.781,36.719l-.2,7.91.391,13.281a4.269,4.269,0,0,0,1.563,1.855,14.908,14.908,0,0,0,4.785.488h.879q1.27,0,7.227.586.1,1.27.1,1.855v1.074A184.984,184.984,0,0,0,304.688,0a54.332,54.332,0,0,1-5.469,1.563q-.488-3.418-.488-4.2v-7.91q0-.488-.1-2.637-1.27.879-2.93,2.148A90.211,90.211,0,0,1,279.395-.977a25.192,25.192,0,0,1-11.133,2.832,20.854,20.854,0,0,1-16.7-7.617q-6.543-7.617-6.543-25.977,0-.977.1-3.516.391-4.687.391-6.543,0-.684-.1-4.3-.1-1.563-.1-2.734,0-.879.1-3.955t.1-4.346q0-1.66-.1-2.93l-.2-5.176.1-2.734A3.635,3.635,0,0,0,243.75-70.8a79.335,79.335,0,0,0-8.057-1.9,13.8,13.8,0,0,1-3.369-.83ZM330.762-3.223a47.568,47.568,0,0,1,5.664-1.167q6.152-.877,7.373-2.045t1.221-5.353l.2-3.5q.1-1.945.1-4.964l-.2-29.88q0-6.035-1.562-7.787-2.637-2.725-9.766-3.8v-3.564q7.129-1.959,10.938-5.093A35.1,35.1,0,0,0,354.1-82.324l3.32.1q.293,4.605.293,6.564V-69.2l.1,1.764q1.172-.784,2.734-1.961a63.972,63.972,0,0,1,12.012-7.2,57.721,57.721,0,0,1,10.938-3.87,27.307,27.307,0,0,1,6.836-.784,22.364,22.364,0,0,1,13.77,4.3,19.494,19.494,0,0,1,7.471,10.12q1.709,5.818,1.709,23.125v14.764q0,.586-.146,3.911t-.146,7.626q0,6.845.586,8.7a5.853,5.853,0,0,0,2.539,2.544q9.375,1.271,10.938,3.03v.781A6.871,6.871,0,0,1,426.465.1h-1.855L411.719-.1,399.023.2q-7.031.2-12.988-.1l-.586-2.051a3.053,3.053,0,0,1,.684-1.562,23.56,23.56,0,0,1,7.422-1.564,16.477,16.477,0,0,0,3.906-.587A10.917,10.917,0,0,0,400.1-7.233a9.234,9.234,0,0,0,1.172-3.911q0-.685-.2-2.739-.293-4.5-.391-22.4v-5.086l.2-7.823q0-12.616-5.078-17.407t-13.574-4.793a30.262,30.262,0,0,0-12.793,2.881,43.264,43.264,0,0,0-12.109,8.643q-.2,4.688-.2,8.008l.293,21.582q0,16.895.488,20.7a4.341,4.341,0,0,0,.684,2.148,6.474,6.474,0,0,0,3.125,1.27q2.344.488,5.42,1.367t4.053,1.074a3.673,3.673,0,0,1,2.637,1.953L373.73.2H363.477L342.383-.1q-7.324.1-9.277.1h-2.441l-.2-1.27A9.4,9.4,0,0,1,330.762-3.223ZM507.129-17.871l.1,6.348Q499.609-3.418,492.188-.2a43.634,43.634,0,0,1-17.48,3.223A35.413,35.413,0,0,1,454.98-2.686a36.871,36.871,0,0,1-13.525-16.162,49.439,49.439,0,0,1-4.736-20.508,40.791,40.791,0,0,1,5.713-20.85,36.774,36.774,0,0,1,15.137-14.648q9.424-4.834,23.682-4.834,13.672,0,20.8,4.688a8.219,8.219,0,0,1,4,7.031A7.016,7.016,0,0,1,504-62.793a7.138,7.138,0,0,1-5.273,2.051q-4.883,0-10.742-6.055a24.782,24.782,0,0,0-6.543-5.127A14.84,14.84,0,0,0,474.9-73.34a17.845,17.845,0,0,0-14.453,7.129q-8.008,10.156-8.008,25.488,0,15.82,8.2,25.2t19.141,9.375a34.56,34.56,0,0,0,13.525-2.49Q499.219-11.133,507.129-17.871Zm10.938-51.465.1-2.881q6.348-1.862,6.836-2.156a31.982,31.982,0,0,0,7.373-4.8,33.26,33.26,0,0,0,6.494-7.252,11.955,11.955,0,0,1,1.855-.2l1.172.1q.391,4.688.391,6.836,0,.488-.2,4.395v5.176l.1,28.125-.293,29.785q-.1,3.613,1.172,5.029T550.586-4a59.367,59.367,0,0,1,5.859,1.855,3.075,3.075,0,0,1,.293,1.172A3.2,3.2,0,0,1,556.25.488q-3.809-.1-9.766-.488-8.105-.684-10.742-.684-1.27,0-15.625.488a52.383,52.383,0,0,0-5.664.488A6.77,6.77,0,0,1,512.891,0a2.149,2.149,0,0,1-.488-1.172q0-1.367,1.855-2.148.391-.2,9.961-2.243,3.125-.584,4.1-1.95,1.66-2.048,1.66-6.534.2-7.507.2-41.15,0-6.728-.586-8.386A7.409,7.409,0,0,0,527-66.264Q524.9-67.776,518.066-69.336ZM563.281-121v-2.148q2.734-.879,6.055-1.855,4.907-1.562,14.528-4.785h4.613v5.376q0,80.237-.488,95.679-.293,9.09-.293,9.676,0,10.945.879,12.216,1.172,1.759,7.178,2.444t7.08,1.368a1.4,1.4,0,0,1,.781,1.367,2.1,2.1,0,0,1-.439,1.514,2.273,2.273,0,0,1-1.611.439q-.684,0-10.254-.334L578.516-.488,562.109.293a3.115,3.115,0,0,1-2.344-.6,1.744,1.744,0,0,1-.586-1.4,1.657,1.657,0,0,1,.635-1.452q.635-.451,7.031-1.525t7.324-1.807q.928-.732,1.221-3.271.391-3.516.391-19.824l-.1-22.461.293-23.242-.1-23.242.293-11.426a8.718,8.718,0,0,0-1.074-4.932q-1.074-1.514-4.59-2.979Q565.234-120.02,563.281-121Zm97.852,81.738a41.277,41.277,0,0,1,2.783-14.209,39.475,39.475,0,0,1,8.447-13.574,39.252,39.252,0,0,1,12.012-8.936q8.887-4.1,21.68-4.1,18.262,0,30.518,12.5A41.418,41.418,0,0,1,748.828-37.5q0,15.625-12.842,27.881T703.516,2.637a44.2,44.2,0,0,1-22.852-6.348,41.077,41.077,0,0,1-13.77-14.16A40.012,40.012,0,0,1,661.133-39.258ZM704.344-1.172a28.16,28.16,0,0,0,14.332-4q6.9-4,11-12.842a48.054,48.054,0,0,0,4.108-20.459,59.735,59.735,0,0,0-3.179-17.676q-3.179-10.059-9.782-15.088a24.863,24.863,0,0,0-15.505-5.029,31.8,31.8,0,0,0-13.157,3.027q-6.7,3.027-11.347,11.621t-4.646,24.414q0,17.773,8.07,26.9A25.735,25.735,0,0,0,704.344-1.172Zm87.648-74.905q24.316.589,25.879.589.2,2.148.2,3.223a36.424,36.424,0,0,1-.293,3.809,31.477,31.477,0,0,1-4.98.391h-3.711q-12.109,0-16.8.879-.2,2.246-.2,3.418,0,.488.1,1.465.488,15.332.488,18.555l-.2,25.1a20.654,20.654,0,0,0,1.855,9.277,7.587,7.587,0,0,0,4,3.418q1.855.879,8.984,1.758,5.371.781,7.227,1.074A12.625,12.625,0,0,1,814.258,0l-1.367.1Q808.2-.2,800.684-.391l-7.227-.293L768.848.1h-3.223l-.1-3.027q1.465-.293,2.148-.488,8.4-1.562,10.84-3.516a4.629,4.629,0,0,0,1.367-2.832q.2-1.172.2-10.937,0-27.832-.488-44.434a32.843,32.843,0,0,0-7.812-.977q-1.953,0-6.152-.391l-.2-1.091a2.457,2.457,0,0,1,.977-1.985q.391-.388,8.2-4.076a9.377,9.377,0,0,0,4.3-3.4q.684-1.076.781-4.5.1-1.566.586-5.382a108.628,108.628,0,0,1,1.855-12.425,46.937,46.937,0,0,1,5.908-13.06,49.267,49.267,0,0,1,10.01-11.4,29.615,29.615,0,0,1,9.717-5.283,39.933,39.933,0,0,1,12.354-1.761q9.277,0,13.574,3.008a6.148,6.148,0,0,1,2.93,5.238,6.186,6.186,0,0,1-2.051,4.658,7.105,7.105,0,0,1-5.078,1.94,20.3,20.3,0,0,1-8.008-1.855q-8.105-3.223-9.18-3.516a14.9,14.9,0,0,0-3.809-.488,15.683,15.683,0,0,0-9.814,3.432,14.729,14.729,0,0,0-5.615,8.434q-1.172,5-1.172,22.458Q791.895-81.274,791.992-76.077ZM913.965-62.646a26.691,26.691,0,0,1,3.906-2.733q5.469-3.317,18.848-13.269l26.758-21.858q11.035-9.172,15.527-14.441a10.1,10.1,0,0,0,1.367-2.438,11.9,11.9,0,0,0-4-1.853,40.847,40.847,0,0,0-7.129-.878q-4.883-.293-5.811-.928a1.892,1.892,0,0,1-.928-1.611,2.067,2.067,0,0,1,.684-1.66,6.3,6.3,0,0,1,3.613-.879,33.837,33.837,0,0,1,6.445.537q2.734.537,12.4.537,2.344,0,3.418-.1L1004.3-125q2.344-.2,3.613-.2,1.172,0,3.516.191a14.489,14.489,0,0,1-.391,3.716q-10.547,1.273-15.527,3.23a112.384,112.384,0,0,0-11.523,6.462,93.07,93.07,0,0,0-11.914,8.617L946.881-81.787l-15.23,12.306a5.477,5.477,0,0,0,1.172,1.367q.586.488,2.93,2.733Q946-55.812,963.432-41.9t27.29,23.284q14.453,13.745,27.246,15.2a7.575,7.575,0,0,1,4.492,1.758l.1,1.074-.2,1.367q-3.32.2-4.492.2-4.492,0-13.574-.629Q998.926,0,995.41,0q-14.062,0-32.129,1.172a10.282,10.282,0,0,1-.293-2l.1-.763a13.069,13.069,0,0,1,5.078-2.133A50.344,50.344,0,0,1,979.3-5.31a20.6,20.6,0,0,0,2.734-.2,18.786,18.786,0,0,0-3.223-3.665q-.391-.391-2.637-2.586t-7.91-7.172L956.641-28.2,938.77-43.228Q929.883-50.839,913.965-62.646ZM876.27-1.27a1.777,1.777,0,0,1,1.465-1.074q9.863-.879,15.527-3.516,1.953-1.758,1.953-5.859l-.1-9.57V-39.453l.2-7.91-.586-27.148.2-18.262q0-15.43-.586-20.605a11,11,0,0,0-1.27-4,8.792,8.792,0,0,0-2.93-1.27q-4.2-.684-10.84-1.074a2.834,2.834,0,0,1-1.367-2.344,4.5,4.5,0,0,1,.385-1.465q5.389-.293,19.052-.293,6.351,0,10.007-.1,5.225-.293,12.646-.879,3.223.293,7.617.293,1.074.586,1.074,1.367a4.641,4.641,0,0,1-.2,1.27,15.276,15.276,0,0,1-4.395.977q-8.5.879-11.523,3.711-2.049,1.953-2.049,7.422l.1,1.855V-45.9l.684,25.1q.1,11.914.586,13.135a3.922,3.922,0,0,0,1.563,1.9q3.418,2.051,10.449,2.734a19.862,19.862,0,0,1,3.418.684A5.344,5.344,0,0,1,927.93-.2a2.408,2.408,0,0,1-1.172,1.855l-3.125.1q-1.953,0-9.375-.684T903.223.391a70.882,70.882,0,0,0-8.4.684,122.259,122.259,0,0,1-14.648.684q-1.367,0-3.711-.1Zm147.949-68.066.1-2.881q6.348-1.862,6.836-2.156a31.983,31.983,0,0,0,7.373-4.8,33.259,33.259,0,0,0,6.494-7.252,11.956,11.956,0,0,1,1.855-.2l1.172.1q.391,4.688.391,6.836,0,.488-.2,4.395v5.176l.1,28.125-.293,29.785q-.1,3.613,1.172,5.029T1056.738-4a59.378,59.378,0,0,1,5.859,1.855,3.075,3.075,0,0,1,.293,1.172A3.2,3.2,0,0,1,1062.4.488q-3.809-.1-9.766-.488-8.106-.684-10.742-.684-1.269,0-15.625.488a52.383,52.383,0,0,0-5.664.488A6.77,6.77,0,0,1,1019.043,0a2.149,2.149,0,0,1-.488-1.172q0-1.367,1.855-2.148.391-.2,9.961-2.243,3.125-.584,4.1-1.95,1.66-2.048,1.66-6.534.2-7.507.2-41.15,0-6.728-.586-8.386a7.409,7.409,0,0,0-2.588-2.681Q1031.055-67.776,1024.219-69.336Zm43.848,66.113a47.567,47.567,0,0,1,5.664-1.167q6.152-.877,7.373-2.045t1.221-5.353l.2-3.5q.1-1.945.1-4.964l-.2-29.88q0-6.035-1.562-7.787-2.637-2.725-9.766-3.8v-3.564q7.129-1.959,10.938-5.093a35.1,35.1,0,0,0,9.375-11.948l3.32.1q.293,4.605.293,6.564V-69.2l.1,1.764q1.172-.784,2.734-1.961a63.972,63.972,0,0,1,12.012-7.2,57.722,57.722,0,0,1,10.938-3.87,27.306,27.306,0,0,1,6.836-.784,22.365,22.365,0,0,1,13.77,4.3,19.494,19.494,0,0,1,7.471,10.12q1.709,5.818,1.709,23.125v14.764q0,.586-.146,3.911t-.146,7.626q0,6.845.586,8.7a5.853,5.853,0,0,0,2.539,2.544q9.375,1.271,10.938,3.03v.781A6.871,6.871,0,0,1,1163.77.1h-1.855l-12.891-.2-12.7.293q-7.031.2-12.988-.1l-.586-2.051a3.053,3.053,0,0,1,.684-1.562,23.56,23.56,0,0,1,7.422-1.564,16.477,16.477,0,0,0,3.906-.587,10.916,10.916,0,0,0,2.637-1.566,9.234,9.234,0,0,0,1.172-3.911q0-.685-.2-2.739-.293-4.5-.391-22.4v-5.086l.2-7.823q0-12.616-5.078-17.407t-13.574-4.793a30.262,30.262,0,0,0-12.793,2.881,43.264,43.264,0,0,0-12.109,8.643q-.2,4.688-.2,8.008l.293,21.582q0,16.895.488,20.7a4.341,4.341,0,0,0,.684,2.148,6.475,6.475,0,0,0,3.125,1.27q2.344.488,5.42,1.367t4.053,1.074a3.673,3.673,0,0,1,2.637,1.953l-.1,1.953h-10.254L1079.688-.1q-7.324.1-9.277.1h-2.441l-.2-1.27A9.4,9.4,0,0,1,1068.066-3.223Zm124.707,9.668q-1.172-.586-7.52-3.223-7.422-4.785-9.375-7.129a7.9,7.9,0,0,1-1.953-5.176,5.754,5.754,0,0,1,1.465-4.1q2.148-2.246,8.5-4.3a87.164,87.164,0,0,0,10.449-4q-1.269-.879-4-2.539-14.551-8.984-14.551-24.9a29.76,29.76,0,0,1,9.229-22.119q9.229-9.033,23.682-9.033a37.186,37.186,0,0,1,12.012,1.855,44.9,44.9,0,0,1,9.277,4.883q3.906,2.441,4.59,2.734a11.765,11.765,0,0,0,3.516.488q1.66,0,8.057-.83t7.568-.83a7.117,7.117,0,0,1,3.711.879q1.172,1.953,1.172,6.543a3.07,3.07,0,0,1-.83,2.344,3.362,3.362,0,0,1-2.393.781,39.914,39.914,0,0,1-9.033-1.709,46.286,46.286,0,0,0-7.666-1.709,16.06,16.06,0,0,0-1.855.2q4.2,8.4,4.2,15.332a28.18,28.18,0,0,1-4.395,14.355,29.035,29.035,0,0,1-12.109,11.328,34.264,34.264,0,0,1-15.625,3.906q-.586,0-3.32-.1a31.585,31.585,0,0,0-16.5,4.492q-3.613,2.246-3.613,4.2,0,2.051,3.516,4,9.277,4.98,35.156,5.762,11.23.391,17.48,3.223a20.069,20.069,0,0,1,9.424,8.35,22.535,22.535,0,0,1,3.174,11.377,23.017,23.017,0,0,1-5.371,14.648q-5.371,6.738-16.309,10.938a69.7,69.7,0,0,1-25.1,4.2q-15.625,0-24.121-3.809t-12.061-8.3q-3.565-4.492-3.564-8.887,0-3.809,3.906-9.521t16.211-11.963Q1191.406,7.227,1192.773,6.445Zm-3.906-55.762q0,8.789,2.637,14.7a19.253,19.253,0,0,0,7.227,8.789,17.294,17.294,0,0,0,9.277,2.881,17.872,17.872,0,0,0,14.111-6.494q5.615-6.494,5.615-19.775,0-13.379-5.859-20.361t-14.16-6.982q-9.277,0-14.062,6.641T1188.867-49.316Zm-3.223,90.43q8.887,6.836,22.461,6.836a63,63,0,0,0,19.287-3.076q9.619-3.076,14.063-8.789t4.443-10.791a13.573,13.573,0,0,0-1.562-6.2,14.326,14.326,0,0,0-4.248-5.078,20.723,20.723,0,0,0-7.08-3.174,46.225,46.225,0,0,0-8.887-1.27Q1207.715,8.3,1204,8.3a27.87,27.87,0,0,0-18.652,7.031Q1179,20.8,1179,28.418,1179,35.449,1185.645,41.113ZM1270.02-24.8q3.613,9.277,5.469,12.012a27.708,27.708,0,0,0,8.887,8.643,21.591,21.591,0,0,0,11.23,3.076q5.566,0,11.035-4.785a11.123,11.123,0,0,0,3.906-8.4,17.67,17.67,0,0,0-4.59-11.719q-4.59-5.273-17.432-10.107t-17.236-10.3a19.4,19.4,0,0,1-4.395-12.5,19.7,19.7,0,0,1,3.613-11.719,22.136,22.136,0,0,1,9.961-7.666,31.257,31.257,0,0,1,11.719-2.588,65.485,65.485,0,0,1,12.451,1.074,31.8,31.8,0,0,1,9.521,3.32q.781,4.98,1.27,14.648l.2,3.125q-1.269.1-2.148.1h-1.367a28.033,28.033,0,0,0-8.936-12.842q-6.006-4.736-11.865-4.736a12.906,12.906,0,0,0-9.473,3.564,12.52,12.52,0,0,0-3.613,9.326,11.665,11.665,0,0,0,2.93,7.813q2.93,3.418,13.721,7.793t15.723,8.138a22.9,22.9,0,0,1,7.275,9.138,25.679,25.679,0,0,1,2.344,10.263,20.48,20.48,0,0,1-4.443,12.608A23.808,23.808,0,0,1,1304.639.73a36,36,0,0,1-11.963,2.395,56.2,56.2,0,0,1-22.852-4.59,3.834,3.834,0,0,1-1.074-2.93q0-.879-.2-2.832-1.562-13.184-1.562-15.625a1.945,1.945,0,0,1,.488-1.562A4.941,4.941,0,0,1,1270.02-24.8Z"
       data-name="Path 14"
       id="Path_14" />
    <g
       style="fill:#b6b6b6;fill-opacity:1"
       transform="translate(349.121 -849.006)"
       data-name="Group 99"
       id="Group_99">
      <path
         style="fill:#b6b6b6;fill-opacity:1"
         fill="#1a1a1a"
         transform="translate(439.853 2157.848)"
         d="M28.04,31.149a27.267,27.267,0,0,1,.471-3.407l.471-2.482-2.16-2.319c-5.311-5.7-5.412-11.079-.276-14.574,2.144-1.46,5.344-1.5,7.138-.087l1.309,1.03,1.461-1.154c1.823-1.44,2.174-4.381.523-4.381-.552,0-.993-.331-.993-.745s.441-.745.993-.745a.878.878,0,0,0,.993-.993.993.993,0,1,1,1.986,0,.878.878,0,0,0,.993.993c.552,0,.993.331.993.745s-.441.745-.993.745c-1.506,0-1.328,2.6.287,4.214l1.28,1.28L44.15,8.259c4.222-2.609,10.184.385,11.02,5.535.388,2.389-1.447,6.387-4.248,9.255l-2.1,2.145.53,2.472c1.034,4.82,2,4.409-10.393,4.409-10.325,0-10.923-.051-10.923-.925ZM48.4,29.84c0-.636-1.379-.745-9.434-.745s-9.434.109-9.434.745,1.379.745,9.434.745S48.4,30.476,48.4,29.84ZM31.948,26.783c-.9-1.082-1.921-.782-1.921.564,0,1.131.1,1.185,1.237.667C32.224,27.577,32.377,27.3,31.948,26.783Zm15.953.574c0-1.325-.9-1.63-1.892-.641-.47.47-.356.736.521,1.224a12.784,12.784,0,0,0,1.246.641,3.062,3.062,0,0,0,.124-1.224Zm-6.455-.949a4.835,4.835,0,0,0-1.241-.992c-1.153-.755-1.333-.753-2.529.03l-1.287.843,1.145.864c1.023.772,1.292.787,2.529.148a4.8,4.8,0,0,0,1.384-.894Zm-5.714-2.823a21.72,21.72,0,0,1,9.614.634c1.605.5,1.763.422,4.344-2.127,4.418-4.363,5.277-8.658,2.3-11.5-2.262-2.158-3.838-2.511-6.317-1.414-2.368,1.047-4.16,3.583-5.518,7.8-.429,1.335-.9,2.763-1.037,3.173s-.578-.483-.972-1.984c-1.155-4.405-3.183-7.524-5.757-8.849-2.067-1.065-2.362-1.1-3.936-.44a9.677,9.677,0,0,0-3.044,2.306c-2.456,2.918-1.513,6.574,2.87,11.125,1.823,1.893,2.548,2.34,3.4,2.093.594-.173,2.418-.543,4.054-.823ZM29.2,20.541c-2.529-2.627-3.15-3.813-3.15-6.015a3.4,3.4,0,0,1,1.528-3.012,5.349,5.349,0,0,1,2.541-1.285c1.6,0,4.6,3.423,5.785,6.6,1.581,4.249,1.484,4.647-1.229,5.054a23.3,23.3,0,0,0-2.866.563c-.313.12-1.487-.736-2.609-1.9ZM43.5,22l-2.659-.51.288-1.771c.481-2.967,3.2-7.927,4.791-8.751,1.976-1.022,2.66-.938,4.422.545a4.655,4.655,0,0,1,.973,5.822c-.621,1.215-4.469,5.341-4.886,5.24-.148-.036-1.466-.295-2.928-.575ZM39.46,15.05a9.585,9.585,0,0,1,.988-2.577c.9-1.761.919-2.042.237-3.084-.925-1.412-2.269-1.469-3.466-.145-.878.971-.873,1.066.171,3.158a11.654,11.654,0,0,1,1.077,2.723.536.536,0,0,0,.5.566.584.584,0,0,0,.5-.64Zm-1.2-3.664c-.407-1.061.5-2.059,1.221-1.341.54.54.155,2.168-.513,2.168-.214,0-.533-.372-.708-.828Z"
         id="path863-7" />
      <path
         style="fill:#b6b6b6;fill-opacity:1"
         stroke-width="0.124"
         stroke="#000"
         fill="none"
         transform="translate(439.853 2157.848)"
         d="M28.04,31.149a27.267,27.267,0,0,1,.471-3.407l.471-2.482-2.16-2.319c-5.311-5.7-5.412-11.079-.276-14.574,2.144-1.46,5.344-1.5,7.138-.087l1.309,1.03,1.461-1.154c1.823-1.44,2.174-4.381.523-4.381-.552,0-.993-.331-.993-.745s.441-.745.993-.745a.878.878,0,0,0,.993-.993.993.993,0,1,1,1.986,0,.878.878,0,0,0,.993.993c.552,0,.993.331.993.745s-.441.745-.993.745c-1.506,0-1.328,2.6.287,4.214l1.28,1.28L44.15,8.259c4.222-2.609,10.184.385,11.02,5.535.388,2.389-1.447,6.387-4.248,9.255l-2.1,2.145.53,2.472c1.034,4.82,2,4.409-10.393,4.409-10.325,0-10.923-.051-10.923-.925ZM48.4,29.84c0-.636-1.379-.745-9.434-.745s-9.434.109-9.434.745,1.379.745,9.434.745S48.4,30.476,48.4,29.84ZM31.948,26.783c-.9-1.082-1.921-.782-1.921.564,0,1.131.1,1.185,1.237.667C32.224,27.577,32.377,27.3,31.948,26.783Zm15.953.574c0-1.325-.9-1.63-1.892-.641-.47.47-.356.736.521,1.224a12.784,12.784,0,0,0,1.246.641,3.062,3.062,0,0,0,.124-1.224Zm-6.455-.949a4.835,4.835,0,0,0-1.241-.992c-1.153-.755-1.333-.753-2.529.03l-1.287.843,1.145.864c1.023.772,1.292.787,2.529.148a4.8,4.8,0,0,0,1.384-.894Zm-5.714-2.823a21.72,21.72,0,0,1,9.614.634c1.605.5,1.763.422,4.344-2.127,4.418-4.363,5.277-8.658,2.3-11.5-2.262-2.158-3.838-2.511-6.317-1.414-2.368,1.047-4.16,3.583-5.518,7.8-.429,1.335-.9,2.763-1.037,3.173s-.578-.483-.972-1.984c-1.155-4.405-3.183-7.524-5.757-8.849-2.067-1.065-2.362-1.1-3.936-.44a9.677,9.677,0,0,0-3.044,2.306c-2.456,2.918-1.513,6.574,2.87,11.125,1.823,1.893,2.548,2.34,3.4,2.093.594-.173,2.418-.543,4.054-.823ZM29.2,20.541c-2.529-2.627-3.15-3.813-3.15-6.015a3.4,3.4,0,0,1,1.528-3.012,5.349,5.349,0,0,1,2.541-1.285c1.6,0,4.6,3.423,5.785,6.6,1.581,4.249,1.484,4.647-1.229,5.054a23.3,23.3,0,0,0-2.866.563c-.313.12-1.487-.736-2.609-1.9ZM43.5,22l-2.659-.51.288-1.771c.481-2.967,3.2-7.927,4.791-8.751,1.976-1.022,2.66-.938,4.422.545a4.655,4.655,0,0,1,.973,5.822c-.621,1.215-4.469,5.341-4.886,5.24-.148-.036-1.466-.295-2.928-.575ZM39.46,15.05a9.585,9.585,0,0,1,.988-2.577c.9-1.761.919-2.042.237-3.084-.925-1.412-2.269-1.469-3.466-.145-.878.971-.873,1.066.171,3.158a11.654,11.654,0,0,1,1.077,2.723.536.536,0,0,0,.5.566.584.584,0,0,0,.5-.64Zm-1.2-3.664c-.407-1.061.5-2.059,1.221-1.341.54.54.155,2.168-.513,2.168-.214,0-.533-.372-.708-.828Z"
         id="path863-7-5" />
    </g>
    <g
       style="fill:#b6b6b6;fill-opacity:1"
       transform="translate(852.121 -849.006)"
       data-name="Group 100"
       id="Group_100">
      <path
         style="fill:#b6b6b6;fill-opacity:1"
         fill="#1a1a1a"
         transform="translate(439.853 2157.848)"
         d="M28.04,31.149a27.267,27.267,0,0,1,.471-3.407l.471-2.482-2.16-2.319c-5.311-5.7-5.412-11.079-.276-14.574,2.144-1.46,5.344-1.5,7.138-.087l1.309,1.03,1.461-1.154c1.823-1.44,2.174-4.381.523-4.381-.552,0-.993-.331-.993-.745s.441-.745.993-.745a.878.878,0,0,0,.993-.993.993.993,0,1,1,1.986,0,.878.878,0,0,0,.993.993c.552,0,.993.331.993.745s-.441.745-.993.745c-1.506,0-1.328,2.6.287,4.214l1.28,1.28L44.15,8.259c4.222-2.609,10.184.385,11.02,5.535.388,2.389-1.447,6.387-4.248,9.255l-2.1,2.145.53,2.472c1.034,4.82,2,4.409-10.393,4.409-10.325,0-10.923-.051-10.923-.925ZM48.4,29.84c0-.636-1.379-.745-9.434-.745s-9.434.109-9.434.745,1.379.745,9.434.745S48.4,30.476,48.4,29.84ZM31.948,26.783c-.9-1.082-1.921-.782-1.921.564,0,1.131.1,1.185,1.237.667C32.224,27.577,32.377,27.3,31.948,26.783Zm15.953.574c0-1.325-.9-1.63-1.892-.641-.47.47-.356.736.521,1.224a12.784,12.784,0,0,0,1.246.641,3.062,3.062,0,0,0,.124-1.224Zm-6.455-.949a4.835,4.835,0,0,0-1.241-.992c-1.153-.755-1.333-.753-2.529.03l-1.287.843,1.145.864c1.023.772,1.292.787,2.529.148a4.8,4.8,0,0,0,1.384-.894Zm-5.714-2.823a21.72,21.72,0,0,1,9.614.634c1.605.5,1.763.422,4.344-2.127,4.418-4.363,5.277-8.658,2.3-11.5-2.262-2.158-3.838-2.511-6.317-1.414-2.368,1.047-4.16,3.583-5.518,7.8-.429,1.335-.9,2.763-1.037,3.173s-.578-.483-.972-1.984c-1.155-4.405-3.183-7.524-5.757-8.849-2.067-1.065-2.362-1.1-3.936-.44a9.677,9.677,0,0,0-3.044,2.306c-2.456,2.918-1.513,6.574,2.87,11.125,1.823,1.893,2.548,2.34,3.4,2.093.594-.173,2.418-.543,4.054-.823ZM29.2,20.541c-2.529-2.627-3.15-3.813-3.15-6.015a3.4,3.4,0,0,1,1.528-3.012,5.349,5.349,0,0,1,2.541-1.285c1.6,0,4.6,3.423,5.785,6.6,1.581,4.249,1.484,4.647-1.229,5.054a23.3,23.3,0,0,0-2.866.563c-.313.12-1.487-.736-2.609-1.9ZM43.5,22l-2.659-.51.288-1.771c.481-2.967,3.2-7.927,4.791-8.751,1.976-1.022,2.66-.938,4.422.545a4.655,4.655,0,0,1,.973,5.822c-.621,1.215-4.469,5.341-4.886,5.24-.148-.036-1.466-.295-2.928-.575ZM39.46,15.05a9.585,9.585,0,0,1,.988-2.577c.9-1.761.919-2.042.237-3.084-.925-1.412-2.269-1.469-3.466-.145-.878.971-.873,1.066.171,3.158a11.654,11.654,0,0,1,1.077,2.723.536.536,0,0,0,.5.566.584.584,0,0,0,.5-.64Zm-1.2-3.664c-.407-1.061.5-2.059,1.221-1.341.54.54.155,2.168-.513,2.168-.214,0-.533-.372-.708-.828Z"
         data-name="path863-7"
         id="path863-7-2" />
      <path
         style="fill:#b6b6b6;fill-opacity:1"
         stroke-width="0.124"
         stroke="#000"
         fill="none"
         transform="translate(439.853 2157.848)"
         d="M28.04,31.149a27.267,27.267,0,0,1,.471-3.407l.471-2.482-2.16-2.319c-5.311-5.7-5.412-11.079-.276-14.574,2.144-1.46,5.344-1.5,7.138-.087l1.309,1.03,1.461-1.154c1.823-1.44,2.174-4.381.523-4.381-.552,0-.993-.331-.993-.745s.441-.745.993-.745a.878.878,0,0,0,.993-.993.993.993,0,1,1,1.986,0,.878.878,0,0,0,.993.993c.552,0,.993.331.993.745s-.441.745-.993.745c-1.506,0-1.328,2.6.287,4.214l1.28,1.28L44.15,8.259c4.222-2.609,10.184.385,11.02,5.535.388,2.389-1.447,6.387-4.248,9.255l-2.1,2.145.53,2.472c1.034,4.82,2,4.409-10.393,4.409-10.325,0-10.923-.051-10.923-.925ZM48.4,29.84c0-.636-1.379-.745-9.434-.745s-9.434.109-9.434.745,1.379.745,9.434.745S48.4,30.476,48.4,29.84ZM31.948,26.783c-.9-1.082-1.921-.782-1.921.564,0,1.131.1,1.185,1.237.667C32.224,27.577,32.377,27.3,31.948,26.783Zm15.953.574c0-1.325-.9-1.63-1.892-.641-.47.47-.356.736.521,1.224a12.784,12.784,0,0,0,1.246.641,3.062,3.062,0,0,0,.124-1.224Zm-6.455-.949a4.835,4.835,0,0,0-1.241-.992c-1.153-.755-1.333-.753-2.529.03l-1.287.843,1.145.864c1.023.772,1.292.787,2.529.148a4.8,4.8,0,0,0,1.384-.894Zm-5.714-2.823a21.72,21.72,0,0,1,9.614.634c1.605.5,1.763.422,4.344-2.127,4.418-4.363,5.277-8.658,2.3-11.5-2.262-2.158-3.838-2.511-6.317-1.414-2.368,1.047-4.16,3.583-5.518,7.8-.429,1.335-.9,2.763-1.037,3.173s-.578-.483-.972-1.984c-1.155-4.405-3.183-7.524-5.757-8.849-2.067-1.065-2.362-1.1-3.936-.44a9.677,9.677,0,0,0-3.044,2.306c-2.456,2.918-1.513,6.574,2.87,11.125,1.823,1.893,2.548,2.34,3.4,2.093.594-.173,2.418-.543,4.054-.823ZM29.2,20.541c-2.529-2.627-3.15-3.813-3.15-6.015a3.4,3.4,0,0,1,1.528-3.012,5.349,5.349,0,0,1,2.541-1.285c1.6,0,4.6,3.423,5.785,6.6,1.581,4.249,1.484,4.647-1.229,5.054a23.3,23.3,0,0,0-2.866.563c-.313.12-1.487-.736-2.609-1.9ZM43.5,22l-2.659-.51.288-1.771c.481-2.967,3.2-7.927,4.791-8.751,1.976-1.022,2.66-.938,4.422.545a4.655,4.655,0,0,1,.973,5.822c-.621,1.215-4.469,5.341-4.886,5.24-.148-.036-1.466-.295-2.928-.575ZM39.46,15.05a9.585,9.585,0,0,1,.988-2.577c.9-1.761.919-2.042.237-3.084-.925-1.412-2.269-1.469-3.466-.145-.878.971-.873,1.066.171,3.158a11.654,11.654,0,0,1,1.077,2.723.536.536,0,0,0,.5.566.584.584,0,0,0,.5-.64Zm-1.2-3.664c-.407-1.061.5-2.059,1.221-1.341.54.54.155,2.168-.513,2.168-.214,0-.533-.372-.708-.828Z"
         data-name="path863-7-5"
         id="path863-7-5-2" />
    </g>
  </g>
</svg>
