<?xml version="1.0" encoding="UTF-8" standalone="no"?>
<svg
   xmlns:dc="http://purl.org/dc/elements/1.1/"
   xmlns:cc="http://creativecommons.org/ns#"
   xmlns:rdf="http://www.w3.org/1999/02/22-rdf-syntax-ns#"
   xmlns:svg="http://www.w3.org/2000/svg"
   xmlns="http://www.w3.org/2000/svg"
   xmlns:sodipodi="http://sodipodi.sourceforge.net/DTD/sodipodi-0.dtd"
   xmlns:inkscape="http://www.inkscape.org/namespaces/inkscape"
   inkscape:version="1.0 (4035a4fb49, 2020-05-01)"
   sodipodi:docname="Chess Rules.svg"
   id="svg3"
   version="1.1"
   viewBox="0 0 244.99999 32.000001"
   height="32"
   width="245">
  <metadata
     id="metadata9">
    <rdf:RDF>
      <cc:Work
         rdf:about="">
        <dc:format>image/svg+xml</dc:format>
        <dc:type
           rdf:resource="http://purl.org/dc/dcmitype/StillImage" />
        <dc:title></dc:title>
      </cc:Work>
    </rdf:RDF>
  </metadata>
  <defs
     id="defs7" />
  <sodipodi:namedview
     inkscape:current-layer="svg3"
     inkscape:window-maximized="1"
     inkscape:window-y="-9"
     inkscape:window-x="-9"
     inkscape:cy="25.39511"
     inkscape:cx="129.22837"
     inkscape:zoom="2.5905588"
     showgrid="false"
     id="namedview5"
     inkscape:window-height="1001"
     inkscape:window-width="1920"
     inkscape:pageshadow="2"
     inkscape:pageopacity="0"
     guidetolerance="10"
     gridtolerance="10"
     objecttolerance="10"
     borderopacity="1"
     bordercolor="#666666"
     pagecolor="#ffffff"
     inkscape:document-rotation="0" />
  <path
     d="m 19.268109,9.9204216 a 18.013,18.013 0 0 1 0.211,2.7770004 q 0,0.281 -0.018,0.756 a 1.942,1.942 0 0 1 -0.369,0.053 1.8,1.8 0 0 1 -0.3,-0.035 6.167,6.167 0 0 0 -2.408,-3.164001 7.314,7.314 0 0 0 -4.131,-1.1069994 7.011,7.011 0 0 0 -2.2,0.3 9.174,9.174 0 0 0 -2.7770001,1.4999994 9,9 0 0 0 -2.021,2.285001 11.42,11.42 0 0 0 -1.31,3.216999 15.507,15.507 0 0 0 -0.483,3.858 14.735,14.735 0 0 0 1.146,6.216 7.209,7.209 0 0 0 3.129,3.5 8.524,8.524 0 0 0 4.0080001,1.044 l 0.826,-0.018 a 13.143,13.143 0 0 0 1.916,-0.334 8.951,8.951 0 0 0 2.118,-0.87 6.99,6.99 0 0 0 1.63,-1.415 8.876,8.876 0 0 0 1.367,-2.127 l 0.211,-0.07 a 0.6,0.6 0 0 1 0.264,0.105 q -0.018,0.422 -0.035,0.545 -0.738,2.971 -1.072,4.061 -0.281,0.07 -0.7,0.211 a 17.486,17.486 0 0 1 -5.5,0.7 16.933,16.933 0 0 1 -4.1630001,-0.372 17.175,17.175 0 0 1 -3.006,-1.178 9.778,9.778 0 0 1 -2.856,-2.122 9.929,9.929 0 0 1 -1.98699996,-3.33 12.378,12.378 0 0 1 -0.756,-4.386 11.711,11.711 0 0 1 0.6,-3.929 13.639,13.639 0 0 1 1.84599996,-3.399999 11.677,11.677 0 0 1 2.944,-2.865001 11.127,11.127 0 0 1 3.771,-1.6169994 20.652,20.652 0 0 1 4.1310001,-0.316 12.683,12.683 0 0 1 3.674,0.519 7.006,7.006 0 0 1 2.3,1.008 z m 2.725,21.0769994 a 11.334,11.334 0 0 0 2.373,-0.561 q 0.193,-0.123 0.193,-0.562 l -0.018,-1.159 0.018,-2.055 -0.035,-5.234 0.018,-1.95 v -1.388 l 0.053,-1.7 q 0,-3.999999 -0.079,-4.786 a 1.577,1.577 0 0 0 -0.308,-0.975 6.02,6.02 0 0 0 -2.32,-0.8429994 v -0.088 a 2.492,2.492 0 0 1 0.035,-0.352 q 0.246,-0.035 0.475,-0.088 a 3.1,3.1 0 0 1 0.439,-0.07 13.807,13.807 0 0 0 3.041,-1.16 h 0.861 q 0.035,0.492 0.035,3.1129994 l -0.018,2.234001 0.018,2.883999 -0.07,3.553 q 0,0.316 0.035,0.7 a 16.572,16.572 0 0 1 1.62,-1.708 7.963,7.963 0 0 1 1.955,-1.171 5.637,5.637 0 0 1 2.184,-0.431 4.24,4.24 0 0 1 3.537,1.824 5.032,5.032 0 0 1 0.792,3.037 l -0.053,1.791 0.018,1 -0.07,1.738 q -0.07,2.159 -0.07,2.563 0,0.456 0.035,1.229 l 1,0.228 q 1,0.211 1.547,0.386 l -0.018,0.545 -3.741,-0.105 q -0.316,0 -1.723,0.07 -0.861,0.035 -1,0.035 h -0.387 a 0.576,0.576 0 0 1 -0.088,-0.264 v -0.157 a 1.393,1.393 0 0 1 0.914,-0.422 l 1.055,-0.246 a 0.644,0.644 0 0 0 0.246,-0.369 q 0.07,-0.456 0.158,-4.529 l 0.035,-1.3 a 11.188,11.188 0 0 0 -0.317,-3.405 2.465,2.465 0 0 0 -1.119,-1.483 3.686,3.686 0 0 0 -2.017,-0.553 4.118,4.118 0 0 0 -1.8,0.4 6.893,6.893 0 0 0 -1.392,1.036 6.2,6.2 0 0 0 -1.125,1.269 2.351,2.351 0 0 0 -0.211,1.156 l 0.018,1.226 -0.035,1.279 q 0,0.158 0.053,2.19 l -0.018,1.121 0.035,1.226 a 2.016,2.016 0 0 0 0.053,0.385 l 2.479,0.6 a 5.5,5.5 0 0 1 0.58,0.216 l 0.053,0.2 a 0.833,0.833 0 0 1 -0.088,0.288 q -0.51,0.018 -0.773,0.018 l -1.371,-0.018 -3.026,0.031 -2.268,0.07 q -0.176,-0.018 -0.527,-0.035 l -0.018,-0.123 a 0.683,0.683 0 0 1 0.142,-0.351 z m 31.605,-8.842 -7.049,0.051 h -1.336 q -0.809,0 -1.652,0.073 a 3.1,3.1 0 0 0 -0.158,0.721 l 0.018,0.176 v 0.176 l -0.018,0.861 a 6.858,6.858 0 0 0 0.677,2.623 5.223,5.223 0 0 0 1.934,2.373 5.959,5.959 0 0 0 3.138,0.87 6.47,6.47 0 0 0 1.6,-0.246 8.1,8.1 0 0 0 1.683,-0.897 l 1.266,-1.037 0.105,0.7 a 2.133,2.133 0 0 1 -0.018,0.264 7.722,7.722 0 0 1 -2,1.758 9.547,9.547 0 0 1 -2.461,1.115 8.583,8.583 0 0 1 -1.969,0.158 6.3,6.3 0 0 1 -2.461,-0.51 5.991,5.991 0 0 1 -2.821,-2.488 7.94,7.94 0 0 1 -1.029,-4.16 8.916,8.916 0 0 1 0.29,-1.986 10.445,10.445 0 0 1 1.046,-2.584 5.063,5.063 0 0 1 1.252,-1.53 8.255,8.255 0 0 1 1.846,-1.178 6.88,6.88 0 0 1 2.654,-0.475 5.306,5.306 0 0 1 2.672,0.6 5.3,5.3 0 0 1 2.1,2.039 4.772,4.772 0 0 1 0.694,2.285 z m -9.809,-0.633 h 0.826 q 0.9,0 5.344,-0.281 a 2.226,2.226 0 0 0 0.861,-0.141 0.937,0.937 0 0 0 0.316,-0.6 2.8,2.8 0 0 0 -0.352,-1.239 2.423,2.423 0 0 0 -1.081,-1.072 3.637,3.637 0 0 0 -1.7,-0.378 3.986,3.986 0 0 0 -3.27,1.529 3.536,3.536 0 0 0 -0.944,2.182 z m 13.412,5.449 a 13.231,13.231 0 0 0 0.985,2.165 4.987,4.987 0 0 0 1.6,1.556 3.886,3.886 0 0 0 2.020994,0.554 3.024,3.024 0 0 0 1.986,-0.861 2,2 0 0 0 0.7,-1.512 3.181,3.181 0 0 0 -0.826,-2.109 7.955,7.955 0 0 0 -3.131994,-1.828 7.334,7.334 0 0 1 -3.1,-1.85 3.493,3.493 0 0 1 -0.8,-2.25 3.546,3.546 0 0 1 0.65,-2.109 3.985,3.985 0 0 1 1.793,-1.38 5.626,5.626 0 0 1 2.109,-0.466 11.787,11.787 0 0 1 2.247994,0.194 5.723,5.723 0 0 1 1.714,0.6 q 0.141,0.9 0.229,2.637 l 0.035,0.563 q -0.229,0.018 -0.387,0.018 h -0.246 a 5.046,5.046 0 0 0 -1.608,-2.312 3.461,3.461 0 0 0 -2.135994,-0.853 2.323,2.323 0 0 0 -1.705,0.642 2.254,2.254 0 0 0 -0.65,1.679 2.1,2.1 0 0 0 0.527,1.406 7.028,7.028 0 0 0 2.469994,1.4 12.857,12.857 0 0 1 2.83,1.465 4.121,4.121 0 0 1 1.31,1.645 4.622,4.622 0 0 1 0.417,1.846 3.686,3.686 0 0 1 -0.8,2.27 4.285,4.285 0 0 1 -2,1.486 6.48,6.48 0 0 1 -2.152994,0.431 10.115,10.115 0 0 1 -4.113,-0.826 0.69,0.69 0 0 1 -0.193,-0.527 q 0,-0.158 -0.035,-0.51 -0.281,-2.373 -0.281,-2.812 a 0.35,0.35 0 0 1 0.088,-0.281 0.889,0.889 0 0 1 0.454,-0.071 z m 13.130994,0 a 13.231,13.231 0 0 0 0.985,2.165 4.987,4.987 0 0 0 1.6,1.556 3.886,3.886 0 0 0 2.018,0.551 3.024,3.024 0 0 0 1.986,-0.861 2,2 0 0 0 0.7,-1.512 3.181,3.181 0 0 0 -0.826,-2.109 7.955,7.955 0 0 0 -3.131,-1.825 7.334,7.334 0 0 1 -3.1,-1.854 3.493,3.493 0 0 1 -0.791,-2.25 3.546,3.546 0 0 1 0.65,-2.109 3.985,3.985 0 0 1 1.793,-1.38 5.626,5.626 0 0 1 2.109,-0.466 11.787,11.787 0 0 1 2.241,0.193 5.723,5.723 0 0 1 1.714,0.6 q 0.141,0.9 0.229,2.637 l 0.035,0.563 q -0.229,0.018 -0.387,0.018 h -0.246 a 5.046,5.046 0 0 0 -1.608,-2.312 3.461,3.461 0 0 0 -2.136,-0.853 2.323,2.323 0 0 0 -1.705,0.642 2.254,2.254 0 0 0 -0.65,1.679 2.1,2.1 0 0 0 0.523,1.408 7.028,7.028 0 0 0 2.47,1.4 12.857,12.857 0 0 1 2.83,1.467 4.121,4.121 0 0 1 1.31,1.645 4.622,4.622 0 0 1 0.422,1.847 3.686,3.686 0 0 1 -0.8,2.27 4.285,4.285 0 0 1 -2,1.487 6.48,6.48 0 0 1 -2.156,0.431 10.115,10.115 0 0 1 -4.113,-0.826 0.69,0.69 0 0 1 -0.193,-0.527 q 0,-0.158 -0.035,-0.51 -0.281,-2.373 -0.281,-2.812 a 0.35,0.35 0 0 1 0.088,-0.281 0.889,0.889 0 0 1 0.458,-0.072 z m 20.603,3.92 a 24.69,24.69 0 0 0 2.887,-0.422 0.921,0.921 0 0 0 0.42,-0.527 v -0.193 q 0,-0.439 0.14,-3.179 0.035,-0.773 0.035,-1.51 l -0.053,-2.09 0.035,-2.371 -0.018,-4.409 0.018,-3.160999 a 5.2,5.2 0 0 0 -0.308,-2.441001 2.61,2.61 0 0 0 -1.679,-0.6239994 7.956,7.956 0 0 1 -1.494,-0.272 0.307,0.307 0 0 1 -0.141,-0.281 1.258,1.258 0 0 1 0.053,-0.316 1.4,1.4 0 0 1 0.809,-0.176 q 0.088,0 0.483,-0.044 a 6.781,6.781 0 0 1 0.747,-0.044 h 1.441 l 4.623,-0.053 a 17.857,17.857 0 0 1 5.492997,0.58 5.061,5.061 0 0 1 2.5,1.9599994 5.39,5.39 0 0 1 0.932,3.085001 q 0,3.233999 -3.388,4.938999 a 8.859,8.859 0 0 0 -0.913,0.527 q 0.6,1.264 1.667,3.038 l 2.232,3.829 a 21.678,21.678 0 0 0 1.846,2.65 4.216,4.216 0 0 0 1.24,0.889 10.594,10.594 0 0 0 2.453,0.669 q 0.018,0.176 0.018,0.281 a 2.464,2.464 0 0 1 -0.018,0.264 q -2.408,0.035 -5.643,0.035 -0.229,0 -0.633,-0.035 -1.248,-2.394 -2.936,-5.264 l -2.6,-4.754 a 3.167,3.167 0 0 0 -0.87,-0.924 1.909,1.909 0 0 0 -0.904997,-0.185 l -1.494,0.017 -0.492,-0.017 q -0.053,0.563 -0.053,2.3 v 6.014 a 3.242,3.242 0 0 0 0.141,0.932 1.122,1.122 0 0 0 0.483,0.536 10.429,10.429 0 0 0 1.978,0.606 l 0.720997,0.176 a 0.739,0.739 0 0 1 0.141,0.475 4.287,4.287 0 0 1 -0.667,0.088 q -1.581997,0 -2.230997,-0.035 -0.333,-0.018 -0.544,-0.018 l -2.387,0.035 -2.333,-0.017 q -0.158,0 -1.6,0.053 l -0.348,-0.071 -0.035,-0.176 q 0,-0.158 0.247,-0.369 z m 6.523,-11.5 q 0.475,0.018 0.7,0.018 a 16.661,16.661 0 0 0 2.917997,-0.3 4.774,4.774 0 0 0 1.881,-0.746 3.891,3.891 0 0 0 1.2,-1.535 4.853,4.853 0 0 0 0.483,-2.105999 5.148,5.148 0 0 0 -0.756,-2.527 4.415,4.415 0 0 0 -1.96,-1.700001 7.39,7.39 0 0 0 -3.312997,-0.6839994 q -0.475,0 -1.23,0.053 -0.07,0.9119994 -0.07,1.3999994 l 0.088,3.281001 -0.018,1.351 q 0.004,1.375999 0.075,3.498999 z m 15.553997,-1.755 h 1.313 l 0.578,0.035 0.455,-0.035 q 1.8,0 2.241,0.035 l 0.018,0.334 q 0,2.479 -0.07,4.8 -0.052,1.371 -0.052,1.565 a 21.161,21.161 0 0 0 0.2,3.867 2.043,2.043 0 0 0 0.951,1.239 3.352,3.352 0 0 0 1.806,0.466 5.841,5.841 0 0 0 2.458,-0.536 7.428,7.428 0 0 0 2,-1.31 11.373,11.373 0 0 0 0.088,-1.477 q 0,-2.619 0.053,-3.533 0.018,-0.545 0.018,-0.949 a 9.086,9.086 0 0 0 -0.281,-3.217 q -0.281,-0.369 -2.145,-0.562 -0.615,-0.07 -0.9,-0.123 a 0.766,0.766 0 0 1 -0.141,-0.352 l 0.053,-0.193 a 7.818,7.818 0 0 1 0.9,-0.053 l 2.795,0.035 q 1.496,-0.036 1.585,-0.036 0.193,0 0.369,0.018 l 0.031,1.282 q -0.123,2.672 -0.141,6.609 l -0.035,1.424 0.07,2.391 a 0.768,0.768 0 0 0 0.281,0.334 2.683,2.683 0 0 0 0.861,0.088 h 0.164 q 0.229,0 1.3,0.105 0.018,0.229 0.018,0.334 v 0.193 a 33.3,33.3 0 0 0 -3.818,1.022 9.78,9.78 0 0 1 -0.984,0.281 q -0.088,-0.615 -0.088,-0.756 v -1.425 q 0,-0.088 -0.018,-0.475 -0.229,0.158 -0.527,0.387 a 16.238,16.238 0 0 1 -2.933,1.812 4.535,4.535 0 0 1 -2,0.51 3.754,3.754 0 0 1 -3.01,-1.371 q -1.178,-1.371 -1.178,-4.676 0,-0.176 0.018,-0.633 0.07,-0.844 0.07,-1.178 0,-0.123 -0.018,-0.773 -0.018,-0.281 -0.018,-0.492 0,-0.158 0.018,-0.712 0.018,-0.554 0.018,-0.782 0,-0.3 -0.018,-0.527 l -0.035,-0.932 0.018,-0.492 a 0.654,0.654 0 0 0 -0.281,-0.51 14.281,14.281 0 0 0 -1.45,-0.343 2.483,2.483 0 0 1 -0.606,-0.149 z m 17.965,-7.9799994 v -0.387 q 0.492,-0.158 1.09,-0.334 0.883,-0.281 2.615,-0.861 h 0.83 v 0.968 q 0,14.4429994 -0.088,17.2219994 -0.053,1.636 -0.053,1.742 a 7.326,7.326 0 0 0 0.158,2.2 q 0.211,0.317 1.292,0.44 a 4.468,4.468 0 0 1 1.274,0.246 0.252,0.252 0 0 1 0.14,0.244 0.378,0.378 0 0 1 -0.079,0.272 0.409,0.409 0 0 1 -0.29,0.079 q -0.123,0 -1.846,-0.06 l -2.3,-0.08 -2.954,0.142 a 0.561,0.561 0 0 1 -0.422,-0.108 0.314,0.314 0 0 1 -0.109,-0.253 0.3,0.3 0 0 1 0.114,-0.261 6.408,6.408 0 0 1 1.266,-0.275 4.6,4.6 0 0 0 1.32,-0.325 0.885,0.885 0 0 0 0.22,-0.589 q 0.07,-0.633 0.07,-3.568 l -0.018,-4.043 0.053,-4.184 -0.018,-4.183999 0.053,-2.057001 a 1.569,1.569 0 0 0 -0.193,-0.888 1.933,1.933 0 0 0 -0.826,-0.536 q -0.947,-0.3819994 -1.299,-0.5609994 z m 21.252,12.4999994 -7.049,0.051 h -1.336 q -0.809,0 -1.652,0.073 a 3.1,3.1 0 0 0 -0.158,0.721 l 0.018,0.176 v 0.176 l -0.018,0.861 a 6.858,6.858 0 0 0 0.676,2.622 5.223,5.223 0 0 0 1.934,2.373 5.959,5.959 0 0 0 3.138,0.87 6.47,6.47 0 0 0 1.6,-0.246 8.1,8.1 0 0 0 1.688,-0.9 l 1.265,-1.03 0.105,0.7 a 2.132,2.132 0 0 1 -0.018,0.264 7.722,7.722 0 0 1 -2,1.758 9.547,9.547 0 0 1 -2.465,1.111 8.583,8.583 0 0 1 -1.969,0.158 6.3,6.3 0 0 1 -2.461,-0.51 5.991,5.991 0 0 1 -2.821,-2.488 7.94,7.94 0 0 1 -1.028,-4.16 8.916,8.916 0 0 1 0.29,-1.986 10.445,10.445 0 0 1 1.046,-2.584 5.063,5.063 0 0 1 1.248,-1.53 8.255,8.255 0 0 1 1.846,-1.178 6.88,6.88 0 0 1 2.654,-0.475 5.306,5.306 0 0 1 2.672,0.6 5.3,5.3 0 0 1 2.1,2.039 4.772,4.772 0 0 1 0.694,2.285 z m -9.809,-0.633 h 0.826 q 0.9,0 5.344,-0.281 a 2.226,2.226 0 0 0 0.861,-0.141 0.937,0.937 0 0 0 0.316,-0.6 2.8,2.8 0 0 0 -0.352,-1.239 2.423,2.423 0 0 0 -1.08,-1.071 3.637,3.637 0 0 0 -1.7,-0.378 3.986,3.986 0 0 0 -3.27,1.529 3.536,3.536 0 0 0 -0.945,2.18 z m 13.415,5.448 a 13.231,13.231 0 0 0 0.982,2.165 4.987,4.987 0 0 0 1.6,1.556 3.886,3.886 0 0 0 2.018,0.551 3.024,3.024 0 0 0 1.986,-0.861 2,2 0 0 0 0.7,-1.512 3.181,3.181 0 0 0 -0.826,-2.109 7.955,7.955 0 0 0 -3.131,-1.825 7.334,7.334 0 0 1 -3.1,-1.854 3.493,3.493 0 0 1 -0.791,-2.25 3.546,3.546 0 0 1 0.65,-2.109 3.985,3.985 0 0 1 1.793,-1.38 5.626,5.626 0 0 1 2.109,-0.466 11.787,11.787 0 0 1 2.241,0.193 5.723,5.723 0 0 1 1.714,0.6 q 0.141,0.9 0.229,2.637 l 0.035,0.563 q -0.229,0.018 -0.387,0.018 h -0.246 a 5.046,5.046 0 0 0 -1.608,-2.312 3.461,3.461 0 0 0 -2.136,-0.853 2.323,2.323 0 0 0 -1.705,0.642 2.254,2.254 0 0 0 -0.65,1.679 2.1,2.1 0 0 0 0.523,1.408 7.028,7.028 0 0 0 2.47,1.4 12.857,12.857 0 0 1 2.83,1.467 4.121,4.121 0 0 1 1.31,1.645 4.622,4.622 0 0 1 0.422,1.847 3.686,3.686 0 0 1 -0.8,2.27 4.285,4.285 0 0 1 -2,1.487 6.48,6.48 0 0 1 -2.153,0.431 10.115,10.115 0 0 1 -4.113,-0.826 0.69,0.69 0 0 1 -0.193,-0.527 q 0,-0.158 -0.035,-0.51 -0.281,-2.373 -0.281,-2.812 a 0.35,0.35 0 0 1 0.088,-0.281 0.889,0.889 0 0 1 0.455,-0.072 z"
     data-name="Path 6"
     id="Path_6" />
</svg>
