<svg xmlns="http://www.w3.org/2000/svg" width="164.689" height="24.346" viewBox="0 0 164.689 24.346">
    <path id="Path_3" data-name="Path 3" d="M-82.679.105a1.069,1.069,0,0,1,.141-.475,16.1,16.1,0,0,1,2.672-.492,1.568,1.568,0,0,0,1.107-.387,4.383,4.383,0,0,0,.211-1.689l.123-4.644-.018-3.149.018-4.117v-1.091q.018-3.712-.035-4.627a2.034,2.034,0,0,0-.141-.493,4.123,4.123,0,0,0-.768-.281q-.309-.07-2.764-.51-.018-.193-.018-.281,0-.105.018-.281.335,0,1.092.04l2.676.1,1.55.035.458-.018q.088,0,.511.035,1.039,0,1.2-.018l1.409-.105q1.426,0,2.007.053a3.145,3.145,0,0,1-.123.686q-.193.035-1.828.1a6.881,6.881,0,0,0-1.881.2q-.4.229-.4,1.406,0,.281-.035,1.143V-17.7l.018,3.252v1.107l.035,5.818-.053,4.957.018,1.09q0,.527.176.65.439.018,2.584.035h1.2L-68.493-.9a5.529,5.529,0,0,0,1.705-.237A8.14,8.14,0,0,0-65.083-2.32a5.655,5.655,0,0,0,1.125-1.3q.088-.141.3-.422a10,10,0,0,0,.9-1.828h.58q-.105.633-.229,1.2-.51,2.479-.7,4.131-.035.352-.07.65l-6.574-.193q-8.473,0-10.055.158-.492.035-1.037.035ZM-60.97-7.066a7.43,7.43,0,0,1,.5-2.558,7.105,7.105,0,0,1,1.521-2.443,7.065,7.065,0,0,1,2.162-1.608,9.275,9.275,0,0,1,3.9-.738,7.381,7.381,0,0,1,5.493,2.25A7.455,7.455,0,0,1-45.185-6.75,6.772,6.772,0,0,1-47.5-1.731,8.126,8.126,0,0,1-53.341.475,7.955,7.955,0,0,1-57.454-.668a7.394,7.394,0,0,1-2.479-2.549A7.2,7.2,0,0,1-60.97-7.066Zm7.778,6.855a5.069,5.069,0,0,0,2.58-.721,5,5,0,0,0,1.981-2.312,8.65,8.65,0,0,0,.74-3.683,10.752,10.752,0,0,0-.572-3.182,5.293,5.293,0,0,0-1.761-2.716,4.475,4.475,0,0,0-2.791-.905,5.724,5.724,0,0,0-2.368.545,4.525,4.525,0,0,0-2.042,2.092A9.387,9.387,0,0,0-58.263-6.7,7.109,7.109,0,0,0-56.81-1.854,4.632,4.632,0,0,0-53.192-.211Zm23.6-2.18a.931.931,0,0,1,.105.334,2.266,2.266,0,0,1-.422.932A3.784,3.784,0,0,1-31.122.158a2.181,2.181,0,0,1-1.16.264,2.309,2.309,0,0,1-1.9-.773,3.293,3.293,0,0,1-.545-1.635L-36.694-.615a8.091,8.091,0,0,1-1.582.756,8.476,8.476,0,0,1-2.109.229A1.877,1.877,0,0,1-41.8-.167a1.9,1.9,0,0,1-.519-1.38,4.807,4.807,0,0,1,1.489-2.9,10.912,10.912,0,0,1,4.043-2.76q1.8-.756,2.2-.967.035-.58.035-1.266a5.161,5.161,0,0,0-.626-3.023,2.149,2.149,0,0,0-1.79-.791,3.353,3.353,0,0,0-2.275.949,4.2,4.2,0,0,0-.987,2.25,3.725,3.725,0,0,1-.4.984,2.461,2.461,0,0,1-1.213.492,1.173,1.173,0,0,1-.7-.229.346.346,0,0,1-.176-.281,6.062,6.062,0,0,1,.976-2.065,6.455,6.455,0,0,1,2.461-2.408,5.654,5.654,0,0,1,2.593-.8,6.928,6.928,0,0,1,2.25.272,3.039,3.039,0,0,1,1.3.958,3.053,3.053,0,0,1,.686,1.494,27.474,27.474,0,0,1,.07,2.76l-.053,2.795.018,2.039q0,.4-.018.686-.018.51-.018.756a1.3,1.3,0,0,0,.334.932,1.055,1.055,0,0,0,.791.352,1.379,1.379,0,0,0,1.143-.668l.211-.281A1.638,1.638,0,0,1-29.593-2.391Zm-5.151-.51q.123-2.232.123-3.146,0-.475-.053-1.283a12.115,12.115,0,0,0-2.5,1.283,7.423,7.423,0,0,0-2.1,1.986,2.706,2.706,0,0,0-.564,1.529,1.532,1.532,0,0,0,.467,1.143A1.61,1.61,0,0,0-38.2-.932a3.091,3.091,0,0,0,1.323-.387A8.838,8.838,0,0,0-34.743-2.9Zm18.317-9.861.018-.51-.018-2.057.018-3.885a3.794,3.794,0,0,0-.352-2.057,4.5,4.5,0,0,0-2.057-.9q-.123-.035-.387-.105v-.193a2.367,2.367,0,0,1,.035-.387,19.138,19.138,0,0,0,4.113-.826l.9-.018q.07,1.2.07,2.672l-.07,6.768.123,7.629-.053,4.061q0,1.248.176,1.406a2.368,2.368,0,0,0,1.547.369q.246,0,.668.035v.316a2.133,2.133,0,0,1-.018.264q-.545.123-1.125.229L-15.39.545a5.138,5.138,0,0,1-.9.105V-1.037q-.3.088-.932.352A13.054,13.054,0,0,1-22.263.475a5.308,5.308,0,0,1-2.83-.905,5.919,5.919,0,0,1-2.215-2.522,7.583,7.583,0,0,1-.773-3.3,8.277,8.277,0,0,1,.51-2.892,6.987,6.987,0,0,1,1.336-2.294,6.481,6.481,0,0,1,1.494-1.187,6.176,6.176,0,0,1,1.6-.747,10.619,10.619,0,0,1,2.092-.4,9.374,9.374,0,0,1,3.9.7Q-16.673-12.85-16.427-12.762ZM-16.409-1.9q.07-1.178.07-4.852a15.66,15.66,0,0,0-.289-3.929,3.269,3.269,0,0,0-1.445-1.547,4.754,4.754,0,0,0-2.591-.729,4.414,4.414,0,0,0-3.415,1.564,6.73,6.73,0,0,0-1.4,4.623,5.982,5.982,0,0,0,1.515,4.289,4.984,4.984,0,0,0,3.774,1.6,7.529,7.529,0,0,0,2.364-.352A4.32,4.32,0,0,0-16.409-1.9ZM21.19-21.34l.193,2.672q.105,1.213.105,1.652L21-16.928a9.96,9.96,0,0,0-2.927-4.008,6.844,6.844,0,0,0-4.28-1.336,12.313,12.313,0,0,0-4.816.756A9.835,9.835,0,0,0,4.7-17.789a11.242,11.242,0,0,0-1.775,6.4,10.935,10.935,0,0,0,.65,3.885A11.789,11.789,0,0,0,5.414-4.3a12.51,12.51,0,0,0,2.8,2.575,7.811,7.811,0,0,0,2.514,1.09,11.625,11.625,0,0,0,2.461.193,10.386,10.386,0,0,0,2.338-.3,5.087,5.087,0,0,0,1.934-.8,2.594,2.594,0,0,0,.888-1.134,8.273,8.273,0,0,0,.237-2.461q0-3.041-.4-3.542t-2.549-.659l-.7-.053-.475.018q-.105-.018-.281-.053l-.264-.439a.4.4,0,0,1,.123-.229,33.9,33.9,0,0,1,3.973-.141q.686,0,2.232.035l1.811.07,1.635-.018q.475,0,1.143.035a.251.251,0,0,1,.158.062.243.243,0,0,1,.035.149,1.821,1.821,0,0,1-.088.492,5.873,5.873,0,0,1-1.143.158l-1.143-.018a1.174,1.174,0,0,0-.932.4,2.68,2.68,0,0,0-.176,1.318l.018,2.3a13.993,13.993,0,0,1-.193,3.023,1.462,1.462,0,0,1-.439.694,5.031,5.031,0,0,1-1.406.729,13.639,13.639,0,0,1-2.777.826,26.109,26.109,0,0,1-4.482.4,15.56,15.56,0,0,1-5.7-.888,11.446,11.446,0,0,1-3.832-2.47,10.112,10.112,0,0,1-2.294-3.2A11.964,11.964,0,0,1-.606-10.951,12.316,12.316,0,0,1,1.02-16.972a11.943,11.943,0,0,1,5.247-4.79,15.385,15.385,0,0,1,6.926-1.3,19.194,19.194,0,0,1,4.948.527A12.6,12.6,0,0,1,21.19-21.34Zm18.6,18.949a.931.931,0,0,1,.105.334,2.266,2.266,0,0,1-.422.932A3.784,3.784,0,0,1,38.259.158,2.181,2.181,0,0,1,37.1.422a2.309,2.309,0,0,1-1.9-.773,3.293,3.293,0,0,1-.545-1.635L32.687-.615A8.091,8.091,0,0,1,31.1.141,8.476,8.476,0,0,1,29,.369,1.877,1.877,0,0,1,27.58-.167a1.9,1.9,0,0,1-.519-1.38,4.807,4.807,0,0,1,1.489-2.9,10.912,10.912,0,0,1,4.043-2.76q1.8-.756,2.2-.967.035-.58.035-1.266a5.161,5.161,0,0,0-.626-3.023,2.149,2.149,0,0,0-1.79-.791,3.353,3.353,0,0,0-2.275.949,4.2,4.2,0,0,0-.987,2.25,3.725,3.725,0,0,1-.4.984,2.461,2.461,0,0,1-1.213.492,1.173,1.173,0,0,1-.7-.229.346.346,0,0,1-.176-.281,6.062,6.062,0,0,1,.976-2.065,6.455,6.455,0,0,1,2.461-2.408,5.654,5.654,0,0,1,2.593-.8,6.928,6.928,0,0,1,2.25.272,3.039,3.039,0,0,1,1.3.958,3.053,3.053,0,0,1,.686,1.494,27.474,27.474,0,0,1,.07,2.76L36.94-6.082l.018,2.039q0,.4-.018.686-.018.51-.018.756a1.3,1.3,0,0,0,.334.932,1.055,1.055,0,0,0,.791.352,1.379,1.379,0,0,0,1.143-.668l.211-.281A1.638,1.638,0,0,1,39.788-2.391ZM34.637-2.9q.123-2.232.123-3.146,0-.475-.053-1.283a12.115,12.115,0,0,0-2.5,1.283,7.423,7.423,0,0,0-2.1,1.986,2.706,2.706,0,0,0-.564,1.529,1.532,1.532,0,0,0,.467,1.143,1.61,1.61,0,0,0,1.173.457A3.091,3.091,0,0,0,32.5-1.318,8.838,8.838,0,0,0,34.637-2.9ZM40.825-.6A1.815,1.815,0,0,1,41.6-.861a3.465,3.465,0,0,0,1.09-.281A1.3,1.3,0,0,0,43.11-1.9a40.959,40.959,0,0,0,.123-4.447A30.7,30.7,0,0,0,43-11.18a3.194,3.194,0,0,0-1-.387q-.193-.035-.809-.193v-.589a5.29,5.29,0,0,0,1.686-.776,11.518,11.518,0,0,0,1.792-1.9h.106q.106,0,.335-.018a.449.449,0,0,1,.23.088l-.018,2q0,.615.035,1.318a13.944,13.944,0,0,1,3.369-2.391,5.552,5.552,0,0,1,2.3-.457,4.408,4.408,0,0,1,2.421.58,5.543,5.543,0,0,1,1.7,2.092,11.193,11.193,0,0,1,2.839-2.162,5.871,5.871,0,0,1,2.575-.615A4.345,4.345,0,0,1,63.8-13.3a5.43,5.43,0,0,1,1.283,3.819v1.461l.018,1.6L65.083-2.3A1.521,1.521,0,0,0,65.4-1.214q.141.053,1.072.317a2.535,2.535,0,0,1,.686.247.3.3,0,0,1,.105.246,1.267,1.267,0,0,1-.105.457h-.123L65.264-.053q-.316-.018-1-.018-.842,0-2.349.07h-.894q-.193,0-.754.018a2.578,2.578,0,0,1-.018-.281.743.743,0,0,1,.123-.352,5.386,5.386,0,0,1,1.3-.343Q62.5-1.09,62.7-1.434a9.279,9.279,0,0,0,.2-2.737q0-5.193-.123-6.02a3.234,3.234,0,0,0-1.119-2.068,3.467,3.467,0,0,0-2.282-.748,4.22,4.22,0,0,0-2.061.554,7.479,7.479,0,0,0-1.973,1.661l-.018.422v2.689l-.07,2.092q0,3.2.062,3.639a.989.989,0,0,0,.3.642A3.445,3.445,0,0,0,57-.949a7.916,7.916,0,0,1,.791.141A.567.567,0,0,1,58-.352a.33.33,0,0,1-.158.316h-.3l-.879-.018H51.548l-1.406.018a3.272,3.272,0,0,1-.035-.387l.018-.211a5.448,5.448,0,0,1,1.441-.4,6.173,6.173,0,0,0,1.125-.3.535.535,0,0,0,.158-.229,6.78,6.78,0,0,0,.123-1.406L53.06-5.01l-.035-2.3L53.042-8.6a4.7,4.7,0,0,0-.877-3.155,2.822,2.822,0,0,0-2.21-.993,5.633,5.633,0,0,0-2.5.615,5.974,5.974,0,0,0-2.078,1.652q-.018.492-.018.9l.07,5.906a6.154,6.154,0,0,0,.22,2.206,1.376,1.376,0,0,0,.905.378A3.99,3.99,0,0,1,48.015-.7a.355.355,0,0,1,.158.316q0,.141-.018.334-2.009-.141-2.7-.141-.7,0-1.269.018l-.881.053h-.546l-1.973.07a.771.771,0,0,1-.035-.2A1.787,1.787,0,0,1,40.825-.6ZM81.8-9.281l-7.049.051H73.415q-.809,0-1.652.073a3.1,3.1,0,0,0-.158.721l.018.176v.176l-.018.861A6.858,6.858,0,0,0,72.281-4.6a5.223,5.223,0,0,0,1.934,2.373,5.959,5.959,0,0,0,3.138.87,6.47,6.47,0,0,0,1.6-.246,8.1,8.1,0,0,0,1.688-.9l1.266-1.037.105.7a2.132,2.132,0,0,1-.018.264,7.722,7.722,0,0,1-2,1.758A9.547,9.547,0,0,1,77.528.3,8.583,8.583,0,0,1,75.56.457,6.3,6.3,0,0,1,73.1-.053,5.991,5.991,0,0,1,70.277-2.54,7.94,7.94,0,0,1,69.249-6.7a8.916,8.916,0,0,1,.29-1.986,10.445,10.445,0,0,1,1.046-2.584A5.063,5.063,0,0,1,71.833-12.8a8.255,8.255,0,0,1,1.846-1.178,6.88,6.88,0,0,1,2.654-.475,5.306,5.306,0,0,1,2.672.6,5.3,5.3,0,0,1,2.1,2.039A4.772,4.772,0,0,1,81.8-9.527Zm-9.809-.633h.826q.9,0,5.344-.281a2.226,2.226,0,0,0,.861-.141.937.937,0,0,0,.316-.6,2.8,2.8,0,0,0-.352-1.239,2.423,2.423,0,0,0-1.081-1.072,3.637,3.637,0,0,0-1.7-.378,3.986,3.986,0,0,0-3.27,1.529A3.536,3.536,0,0,0,71.991-9.914Z" transform="translate(82.679 23.695)"/>
</svg>
