<?xml version="1.0" encoding="UTF-8" standalone="no"?>
<svg
   xmlns:dc="http://purl.org/dc/elements/1.1/"
   xmlns:cc="http://creativecommons.org/ns#"
   xmlns:rdf="http://www.w3.org/1999/02/22-rdf-syntax-ns#"
   xmlns:svg="http://www.w3.org/2000/svg"
   xmlns="http://www.w3.org/2000/svg"
   xmlns:sodipodi="http://sodipodi.sourceforge.net/DTD/sodipodi-0.dtd"
   xmlns:inkscape="http://www.inkscape.org/namespaces/inkscape"
   inkscape:version="1.0 (4035a4fb49, 2020-05-01)"
   sodipodi:docname="My Pieces.svg"
   id="svg3"
   version="1.1"
   viewBox="0 0 245.00001 32.000001"
   height="32"
   width="245">
  <metadata
     id="metadata9">
    <rdf:RDF>
      <cc:Work
         rdf:about="">
        <dc:format>image/svg+xml</dc:format>
        <dc:type
           rdf:resource="http://purl.org/dc/dcmitype/StillImage" />
        <dc:title></dc:title>
      </cc:Work>
    </rdf:RDF>
  </metadata>
  <defs
     id="defs7" />
  <sodipodi:namedview
     inkscape:current-layer="svg3"
     inkscape:window-maximized="1"
     inkscape:window-y="-9"
     inkscape:window-x="-9"
     inkscape:cy="-7.4830339"
     inkscape:cx="2.5518565"
     inkscape:zoom="2"
     showgrid="false"
     id="namedview5"
     inkscape:window-height="1001"
     inkscape:window-width="1920"
     inkscape:pageshadow="2"
     inkscape:pageopacity="0"
     guidetolerance="10"
     gridtolerance="10"
     objecttolerance="10"
     borderopacity="1"
     bordercolor="#666666"
     pagecolor="#ffffff"
     inkscape:document-rotation="0" />
  <path
     d="m 0,22.696028 a 4.688,4.688 0 0 1 1.969,-0.527 3.7,3.7 0 0 0 1.318,-0.193 0.657,0.657 0 0 0 0.211,-0.258 14.85,14.85 0 0 0 0.387,-3.518 q 0.161,-3.744001 0.52,-9.9670024 0.287,-4.746 0.287,-5.9239999 V 1.8520255 q -1.27,-0.264 -4.023,-0.5629999 a 0.843,0.843 0 0 1 -0.176,-0.40000005 0.854,0.854 0 0 1 0.123,-0.316 1.505,1.505 0 0 1 0.456,-0.105 5.54,5.54 0 0 1 0.614,0.07 17.645,17.645 0 0 0 2.372,0.115 q 0.491,0 1.684,-0.08 0.842,-0.06 0.947,-0.06 a 2.4,2.4 0 0 1 0.649,0.105 1.581,1.581 0 0 1 0.271,0.339 l 0.736,1.65200015 4.975,11.0000013 2.074,4.619001 a 78.113,78.113 0 0 0 3.783,-8.6000024 2.894,2.894 0 0 1 0.21,-0.51 6.032,6.032 0 0 0 0.3,-0.668 q 0.14,-0.369 1.138,-2.8119999 0.4,-0.9840001 0.648,-1.6870001 1,-2.812 1.173,-3.21700005 a 1.543,1.543 0 0 1 0.582,-0.141 6.317,6.317 0 0 1 0.722,0.053 q 0.987,0.053 3.208,0.053 1.375,0 2.256,-0.035 a 1.777,1.777 0 0 1 0.035,0.281 1.465,1.465 0 0 1 -0.053,0.33400005 3.156,3.156 0 0 1 -1.354,0.3339999 8.8,8.8 0 0 0 -1.986,0.246 0.9,0.9 0 0 0 -0.536,0.4000002 7.106,7.106 0 0 0 -0.2,1.6169999 l 0.018,0.809 -0.018,0.8440001 q 0,2.6369999 0.141,8.8590013 l -0.018,3.445001 0.018,2.215 a 5.106,5.106 0 0 0 0.123,1.538 1.27,1.27 0 0 0 0.7,0.448 21.127,21.127 0 0 0 3.094,0.65 0.269,0.269 0 0 1 0.123,0.229 q 0,0.158 -0.018,0.352 h -0.81 q -1.039,0 -2.254,-0.062 -1.215,-0.062 -1.3,-0.062 -3.61,0 -4.789,0.08 -0.722,0.06 -0.915,0.06 a 0.6,0.6 0 0 1 -0.264,-0.07 v -0.216 a 1.163,1.163 0 0 1 0.053,-0.334 5.353,5.353 0 0 1 1.574,-0.334 5.9,5.9 0 0 0 1.617,-0.633 14.69,14.69 0 0 0 0.163,-2.728 l -0.053,-3.554001 q 0,-0.581 0.062,-2.164 0.062,-1.583 0.062,-5.1550014 0,-2.8329999 -0.141,-4.293 -0.3,0.615 -1.173,2.6720001 l -0.263,0.6679999 -0.035,0.105 -2.591,6.1520014 -0.928,2.373 -1.208,2.883001 q -0.792,1.986 -1.352,3.516 -0.245,0.7 -0.4,1.107 l -0.41,-0.018 q -1.989,-5.8 -4.743,-11.900001 -2.754,-6.1000013 -3.863,-8.0510014 -0.145,0.756 -0.326,4.395 -0.235,4.4300014 -0.235,9.7560024 a 32.287,32.287 0 0 0 0.246,3.749 1.16,1.16 0 0 0 0.51,0.885 5.422,5.422 0 0 0 2.265,0.326 8.143,8.143 0 0 1 1.336,0.1 1.113,1.113 0 0 1 0.123,0.4 0.98,0.98 0 0 1 -0.083,0.305 l -5.458,-0.193 q -0.6,0 -1.86,0.078 -0.7,0.047 -2.018,0.063 z M 29.971,9.2660256 q 0.387,-0.035 0.65,-0.035 h 0.844 l 1.143,-0.035 1.494,0.053 1.213,-0.035 a 11.145,11.145 0 0 1 1.74,0.123 0.81,0.81 0 0 1 0.07,0.281 l -0.018,0.141 a 3.561,3.561 0 0 1 -1.143,0.2460004 3.625,3.625 0 0 0 -1.564,0.387 l -0.035,0.193001 a 1.6,1.6 0 0 0 0.141,0.528 q 0.088,0.211 0.23,0.634 0.388,1.3 1.677,5.036001 0.935,2.694 1.73,4.631 0.484,-1.063 1.107,-2.692 l 1.476,-4.173001 a 16.741,16.741 0 0 0 0.776,-2.734 4.812,4.812 0 0 0 0.105,-0.861 0.689,0.689 0 0 0 -0.229,-0.492001 1.981,1.981 0 0 0 -0.914,-0.387 8.918,8.918 0 0 1 -1.354,-0.4000004 0.459,0.459 0 0 1 -0.123,-0.343 0.843,0.843 0 0 1 0.246,-0.141 h 1.09 l 1.178,0.018 1.758,-0.018 1.125,0.018 0.281,-0.018 a 3.715,3.715 0 0 1 0.4,0.035 0.294,0.294 0 0 1 0.176,0.281 0.417,0.417 0 0 1 -0.158,0.316 l -0.352,0.053 a 3.546,3.546 0 0 0 -1.564,0.5270004 1.68,1.68 0 0 0 -0.51,0.879001 6.4,6.4 0 0 1 -0.229,0.633 q -0.088,0.211 -0.255,0.7 -0.167,0.489 -0.43,1.159 l -0.211,0.492 -0.018,0.088 -2.978,7.877001 -2.178,5.919 q -0.211,0.441 -0.493,1.093 a 11.816,11.816 0 0 1 -0.791,1.375 4.735,4.735 0 0 1 -0.915,0.917 l -0.9,0.388 a 2.173,2.173 0 0 1 -0.563,0.071 1.658,1.658 0 0 1 -1.162,-0.346 1.234,1.234 0 0 1 -0.37,-0.948 1.332,1.332 0 0 1 0.546,-1.027 2.2,2.2 0 0 0 0.352,-0.141 l 0.229,-0.053 a 16.016,16.016 0 0 0 1.954,0.281 1.436,1.436 0 0 0 0.546,-0.456 14.782,14.782 0 0 0 1.482,-2.852 7.432,7.432 0 0 0 0.62,-2.124 5.125,5.125 0 0 0 -0.466,-1.74 l -1.952,-5.17 q -0.405,-1 -2.412,-6.539001 a 1.263,1.263 0 0 0 -0.316,-0.527001 l -1.2,-0.4390004 -0.369,-0.07 q -0.3,-0.123 -0.3,-0.352 z M 54.528,0.68802555 a 3.36,3.36 0 0 1 0.4,-0.053 q 0.6,0 1.969,0.07 0.721,0.018 0.984,0.018 0.387,0 1.635,-0.07 l 2.988,-0.176 q 1.178,-0.105 2.742,-0.105 a 10.312,10.312 0 0 1 4.395,0.78100005 5.488,5.488 0 0 1 2.522,2.449 7.013,7.013 0 0 1 0.895,3.3160001 6.612,6.612 0 0 1 -1.934,4.7570013 6.9,6.9 0 0 1 -5.2,2 5.4,5.4 0 0 1 -1.529,-0.185 5.461,5.461 0 0 1 -1.406,-0.712 0.929,0.929 0 0 1 -0.4,-0.475 0.4,0.4 0 0 1 0.193,-0.176 1.369,1.369 0 0 1 0.51,0.105 4.6,4.6 0 0 0 1.512,0.211 5.355,5.355 0 0 0 2.628,-0.684 4.457,4.457 0 0 0 1.861,-1.9410014 5.88,5.88 0 0 0 0.633,-2.67 5.725,5.725 0 0 0 -0.668,-2.659 A 5.665,5.665 0 0 0 67.503,2.4270257 5.479,5.479 0 0 0 65.617,1.6900255 9.3,9.3 0 0 0 63.643,1.3900256 5.759,5.759 0 0 0 61.064,1.7060255 l -0.018,0.246 0.053,1.9850001 -0.018,0.351 q -0.035,0.474 -0.035,1.4580001 0,3.5829999 0.105,4.4610003 v 0.984001 l 0.232,8.027001 q 0,0.176 -0.044,0.65 -0.044,0.474 -0.044,0.825 a 4.448,4.448 0 0 0 0.141,1.282 q 0.422,0.123 2.461,0.58 0.949,0.229 1.037,0.264 a 0.505,0.505 0 0 1 0.246,0.229 0.6,0.6 0 0 1 -0.185,0.343 0.864,0.864 0 0 1 -0.448,0.079 q -0.211,0 -0.984,-0.088 -1.512,-0.159 -2.373,-0.159 l -3.094,0.123 -1.846,-0.052 q -0.176,0 -1.02,0.035 l -0.018,-0.457 2.285,-0.439 a 1.465,1.465 0 0 0 0.687,-0.315 1.813,1.813 0 0 0 0.176,-0.966 q 0,-0.158 0.018,-0.685 0.018,-0.369 0.018,-1.019 0,-2.073 -0.176,-8.835001 -0.07,-3.1610014 -0.07,-6.4280014 v -0.3 q 0,-1.2649999 -0.387,-1.5999999 a 7.223,7.223 0 0 0 -3.252,-0.9480001 0.811,0.811 0 0 1 -0.088,-0.316 0.725,0.725 0 0 1 0.105,-0.33300005 z M 76.5,1.5180255 a 1.33,1.33 0 0 1 0.448,-0.99999995 1.521,1.521 0 0 1 1.081,-0.422 1.6,1.6 0 0 1 1.143,0.475 A 1.406,1.406 0 0 1 79.664,1.5910255 1.434,1.434 0 0 1 79.172,2.6180257 1.581,1.581 0 0 1 78.029,3.1010256 1.48,1.48 0 0 1 76.939,2.6620257 1.546,1.546 0 0 1 76.5,1.5180255 Z m -1.476,9.1200015 0.017,-0.520001 q 1.143,-0.3350004 1.23,-0.3880004 a 5.757,5.757 0 0 0 1.327,-0.864 5.987,5.987 0 0 0 1.17,-1.305 2.152,2.152 0 0 1 0.334,-0.035 l 0.211,0.018 q 0.07,0.844 0.07,1.23 0,0.088 -0.035,0.791 v 0.9320004 l 0.018,5.063001 -0.053,5.358001 a 1.314,1.314 0 0 0 0.211,0.905 3.431,3.431 0 0 0 1.354,0.571 10.687,10.687 0 0 1 1.055,0.334 0.553,0.553 0 0 1 0.053,0.211 0.576,0.576 0 0 1 -0.088,0.264 q -0.687,-0.015 -1.759,-0.085 -1.459,-0.123 -1.934,-0.123 -0.229,0 -2.812,0.088 a 9.429,9.429 0 0 0 -1.02,0.088 1.219,1.219 0 0 1 -0.281,-0.053 0.387,0.387 0 0 1 -0.088,-0.211 q 0,-0.246 0.334,-0.387 0.07,-0.035 1.793,-0.4 a 1.144,1.144 0 0 0 0.738,-0.351 1.864,1.864 0 0 0 0.3,-1.176 q 0.035,-1.351 0.035,-7.407001 a 6.2,6.2 0 0 0 -0.105,-1.51 1.334,1.334 0 0 0 -0.466,-0.483 5.108,5.108 0 0 0 -1.609,-0.555 z m 21.146,3.2 -7.049,0.051 h -1.335 q -0.809,0 -1.652,0.073 a 3.1,3.1 0 0 0 -0.158,0.721 l 0.018,0.176 v 0.176 l -0.018,0.861 a 6.858,6.858 0 0 0 0.676,2.622001 5.223,5.223 0 0 0 1.934,2.373 5.959,5.959 0 0 0 3.138,0.87 6.47,6.47 0 0 0 1.6,-0.246 8.1,8.1 0 0 0 1.688,-0.9 l 1.266,-1.037 0.105,0.7 a 2.133,2.133 0 0 1 -0.018,0.264 7.722,7.722 0 0 1 -2,1.758 9.547,9.547 0 0 1 -2.466,1.118 8.583,8.583 0 0 1 -1.969,0.158 6.3,6.3 0 0 1 -2.461,-0.51 5.991,5.991 0 0 1 -2.821,-2.488 7.94,7.94 0 0 1 -1.028,-4.16 8.916,8.916 0 0 1 0.29,-1.986001 10.445,10.445 0 0 1 1.048,-2.582 5.063,5.063 0 0 1 1.246,-1.532001 8.255,8.255 0 0 1 1.846,-1.1780004 6.88,6.88 0 0 1 2.654,-0.475 5.306,5.306 0 0 1 2.672,0.6 5.3,5.3 0 0 1 2.1,2.0390014 4.772,4.772 0 0 1 0.694,2.285 z m -9.812,-0.634 h 0.826 q 0.9,0 5.344,-0.281 a 2.226,2.226 0 0 0 0.861,-0.141 0.937,0.937 0 0 0 0.316,-0.6 2.8,2.8 0 0 0 -0.352,-1.239 2.423,2.423 0 0 0 -1.081,-1.0720014 3.637,3.637 0 0 0 -1.7,-0.378 3.986,3.986 0 0 0 -3.27,1.5290014 3.536,3.536 0 0 0 -0.944,2.182 z m 24.926,6.700001 0.018,1.143 a 8.464,8.464 0 0 1 -2.704,2.036 7.854,7.854 0 0 1 -3.146,0.58 6.374,6.374 0 0 1 -3.551,-1.028 6.637,6.637 0 0 1 -2.435,-2.909 8.9,8.9 0 0 1 -0.853,-3.691 7.342,7.342 0 0 1 1.028,-3.753001 6.619,6.619 0 0 1 2.725,-2.6370014 9.293,9.293 0 0 1 4.263,-0.87 6.839,6.839 0 0 1 3.744,0.844 1.479,1.479 0 0 1 0.721,1.2660014 1.263,1.263 0 0 1 -0.369,0.932 1.285,1.285 0 0 1 -0.949,0.369 2.9,2.9 0 0 1 -1.934,-1.09 4.461,4.461 0 0 0 -1.178,-0.923001 2.671,2.671 0 0 0 -1.178,-0.2550004 3.212,3.212 0 0 0 -2.6,1.2830014 7.181,7.181 0 0 0 -1.442,4.587 6.644,6.644 0 0 0 1.477,4.535001 4.459,4.459 0 0 0 3.445,1.688 6.221,6.221 0 0 0 2.435,-0.448 10.171,10.171 0 0 0 2.486,-1.662 z m 14.874,-6.067001 -7.049,0.051 h -1.335 q -0.809,0 -1.652,0.073 a 3.1,3.1 0 0 0 -0.158,0.721 l 0.018,0.176 v 0.176 l -0.018,0.861 a 6.858,6.858 0 0 0 0.676,2.623001 5.223,5.223 0 0 0 1.934,2.373 5.959,5.959 0 0 0 3.138,0.87 6.47,6.47 0 0 0 1.6,-0.246 8.1,8.1 0 0 0 1.688,-0.9 l 1.266,-1.037 0.105,0.7 a 2.132,2.132 0 0 1 -0.018,0.264 7.722,7.722 0 0 1 -2,1.758 9.547,9.547 0 0 1 -2.466,1.118 8.583,8.583 0 0 1 -1.969,0.157 6.3,6.3 0 0 1 -2.46,-0.51 5.991,5.991 0 0 1 -2.822,-2.487 7.94,7.94 0 0 1 -1.028,-4.16 8.916,8.916 0 0 1 0.29,-1.986001 10.445,10.445 0 0 1 1.046,-2.584 5.063,5.063 0 0 1 1.248,-1.530001 8.255,8.255 0 0 1 1.846,-1.1780004 6.88,6.88 0 0 1 2.654,-0.475 5.306,5.306 0 0 1 2.672,0.6 5.3,5.3 0 0 1 2.1,2.0390014 4.772,4.772 0 0 1 0.694,2.287 z m -9.809,-0.633 h 0.826 q 0.9,0 5.344,-0.281 a 2.226,2.226 0 0 0 0.861,-0.141 0.937,0.937 0 0 0 0.316,-0.6 2.8,2.8 0 0 0 -0.352,-1.239 2.423,2.423 0 0 0 -1.081,-1.0720014 3.637,3.637 0 0 0 -1.7,-0.378 3.986,3.986 0 0 0 -3.27,1.5290014 3.536,3.536 0 0 0 -0.943,2.182 z m 13.409,5.449001 a 13.231,13.231 0 0 0 0.988,2.165 4.987,4.987 0 0 0 1.6,1.556 3.886,3.886 0 0 0 2.021,0.554 3.024,3.024 0 0 0 1.991,-0.865 2,2 0 0 0 0.7,-1.511 3.181,3.181 0 0 0 -0.826,-2.109 7.955,7.955 0 0 0 -3.139,-1.825 7.334,7.334 0 0 1 -3.1,-1.854001 3.493,3.493 0 0 1 -0.791,-2.25 3.546,3.546 0 0 1 0.65,-2.109001 3.985,3.985 0 0 1 1.793,-1.3800004 5.626,5.626 0 0 1 2.109,-0.466 11.787,11.787 0 0 1 2.241,0.193 5.723,5.723 0 0 1 1.714,0.6 q 0.141,0.9000004 0.229,2.6370014 l 0.035,0.563 q -0.229,0.018 -0.387,0.018 h -0.248 a 5.046,5.046 0 0 0 -1.608,-2.312001 3.461,3.461 0 0 0 -2.136,-0.8530004 2.323,2.323 0 0 0 -1.705,0.6420004 2.254,2.254 0 0 0 -0.65,1.679001 2.1,2.1 0 0 0 0.527,1.406 7.028,7.028 0 0 0 2.47,1.4 12.857,12.857 0 0 1 2.83,1.465 4.121,4.121 0 0 1 1.31,1.645001 4.622,4.622 0 0 1 0.422,1.847 3.686,3.686 0 0 1 -0.8,2.27 4.285,4.285 0 0 1 -2,1.487 6.48,6.48 0 0 1 -2.153,0.431 10.115,10.115 0 0 1 -4.113,-0.826 0.69,0.69 0 0 1 -0.193,-0.527 q 0,-0.158 -0.035,-0.51 -0.281,-2.373 -0.281,-2.812 a 0.35,0.35 0 0 1 0.088,-0.281 0.889,0.889 0 0 1 0.447,-0.068 z"
     data-name="Path 5"
     id="Path_5" />
</svg>
