<?xml version="1.0" encoding="UTF-8" standalone="no"?>
<svg
   xmlns:dc="http://purl.org/dc/elements/1.1/"
   xmlns:cc="http://creativecommons.org/ns#"
   xmlns:rdf="http://www.w3.org/1999/02/22-rdf-syntax-ns#"
   xmlns:svg="http://www.w3.org/2000/svg"
   xmlns="http://www.w3.org/2000/svg"
   xmlns:sodipodi="http://sodipodi.sourceforge.net/DTD/sodipodi-0.dtd"
   xmlns:inkscape="http://www.inkscape.org/namespaces/inkscape"
   inkscape:version="1.0 (4035a4fb49, 2020-05-01)"
   sodipodi:docname="Sign Out.svg"
   id="svg3"
   version="1.1"
   viewBox="0 0 245 31.999998"
   height="32"
   width="245">
  <metadata
     id="metadata9">
    <rdf:RDF>
      <cc:Work
         rdf:about="">
        <dc:format>image/svg+xml</dc:format>
        <dc:type
           rdf:resource="http://purl.org/dc/dcmitype/StillImage" />
        <dc:title></dc:title>
      </cc:Work>
    </rdf:RDF>
  </metadata>
  <defs
     id="defs7" />
  <sodipodi:namedview
     inkscape:current-layer="svg3"
     inkscape:window-maximized="1"
     inkscape:window-y="-9"
     inkscape:window-x="-9"
     inkscape:cy="-25.265014"
     inkscape:cx="5.4967426"
     inkscape:zoom="3.4439055"
     showgrid="false"
     id="namedview5"
     inkscape:window-height="1001"
     inkscape:window-width="1920"
     inkscape:pageshadow="2"
     inkscape:pageopacity="0"
     guidetolerance="10"
     gridtolerance="10"
     objecttolerance="10"
     borderopacity="1"
     bordercolor="#666666"
     pagecolor="#ffffff"
     inkscape:document-rotation="0" />
  <path
     style="stroke-width:0.982097"
     d="m 14.615279,1.5752064 q 0.138475,1.1392325 0.138475,1.3120816 l -0.06875,1.5360002 A 11.226354,11.226354 0 0 1 14.598584,5.683319 0.66880824,0.66880824 0 0 1 14.33931,5.752066 L 14.184138,5.7176924 A 6.250067,6.250067 0 0 0 12.311278,2.1958919 4.8505784,4.8505784 0 0 0 9.0909814,1.0910324 4.7140669,4.7140669 0 0 0 5.8628277,2.1958919 3.3391307,3.3391307 0 0 0 4.6027969,4.7680043 a 2.9315603,2.9315603 0 0 0 0.8838876,2.0545475 19.914968,19.914968 0 0 0 4.5058622,2.7901383 29.147665,29.147665 0 0 1 3.9529413,2.3344449 6.1174839,6.1174839 0 0 1 1.795274,2.099724 5.8022307,5.8022307 0 0 1 0.60399,2.661484 6.72442,6.72442 0 0 1 -0.958527,3.473678 6.2039084,6.2039084 0 0 1 -2.580952,2.445422 9.57152,9.57152 0 0 1 -4.3015857,0.820051 13.552942,13.552942 0 0 1 -4.4705068,-0.742465 5.068604,5.068604 0 0 1 -1.5369822,-0.724788 0.8249617,0.8249617 0 0 1 -0.2759694,-0.589258 4.290783,4.290783 0 0 1 0.034373,-0.4773 33.223368,33.223368 0 0 0 0.2592737,-3.348951 2.9796831,2.9796831 0 0 1 0.120798,-0.949688 0.27204094,0.27204094 0 0 1 0.2582916,-0.120798 0.31230693,0.31230693 0 0 1 0.2504348,0.111959 0.827908,0.827908 0 0 1 0.1296368,0.423284 5.8532997,5.8532997 0 0 0 1.9641945,3.79777 5.6362562,5.6362562 0 0 0 3.9912433,1.670547 5.5714378,5.5714378 0 0 0 2.5122054,-0.569616 4.2514991,4.2514991 0 0 0 1.795274,-1.648941 4.0727574,4.0727574 0 0 0 0.647202,-2.09776 A 3.8527676,3.8527676 0 0 0 13.201058,15.628036 13.907479,13.907479 0 0 0 9.248117,12.926286 29.48747,29.48747 0 0 1 5.3786538,10.672373 8.5226401,8.5226401 0 0 1 3.2033083,8.2171299 4.8712024,4.8712024 0 0 1 2.6690474,5.8875952 5.2051155,5.2051155 0 0 1 4.5684235,1.8217128 7.4472436,7.4472436 0 0 1 9.6615799,0.15214742 10.295326,10.295326 0 0 1 12.700189,0.54498633 7.2370748,7.2370748 0 0 1 14.615279,1.5752064 Z m 5.662772,0.086425 a 1.3061894,1.3061894 0 0 1 0.43998,-0.98209724 1.4937699,1.4937699 0 0 1 1.061647,-0.41444505 1.5713556,1.5713556 0 0 1 1.122537,0.4664962 A 1.3808288,1.3808288 0 0 1 23.385407,1.733324 1.4083275,1.4083275 0 0 1 22.902215,2.7429197 1.5526958,1.5526958 0 0 1 21.779678,3.2172727 1.453504,1.453504 0 0 1 20.709192,2.786132 1.5183224,1.5183224 0 0 1 20.277069,1.6645772 Z m -1.450557,8.9596726 0.01669,-0.510691 q 1.122538,-0.3290016 1.20798,-0.3810528 a 5.653934,5.653934 0 0 0 1.303243,-0.848532 5.8798163,5.8798163 0 0 0 1.148072,-1.281637 2.1134733,2.1134733 0 0 1 0.32802,-0.034373 l 0.207223,0.017678 q 0.06875,0.8288901 0.06875,1.2079796 0,0.086425 -0.03437,0.776839 v 0.9153142 l 0.01768,4.972359 -0.05107,5.262077 a 1.2904758,1.2904758 0 0 0 0.207222,0.888798 3.3695757,3.3695757 0 0 0 1.32976,0.560777 10.495673,10.495673 0 0 1 1.036113,0.328021 0.54309979,0.54309979 0 0 1 0.05205,0.207223 0.56568803,0.56568803 0 0 1 -0.08642,0.259273 q -0.6747,-0.01473 -1.727509,-0.08348 -1.43288,-0.120798 -1.899376,-0.120798 -0.2249,0 -2.761657,0.08643 a 9.2601951,9.2601951 0 0 0 -1.00174,0.08642 1.1971766,1.1971766 0 0 1 -0.275969,-0.05205 0.38007164,0.38007164 0 0 1 -0.08642,-0.207223 q 0,-0.241596 0.32802,-0.380071 0.06875,-0.03437 1.7609,-0.392839 a 1.1235193,1.1235193 0 0 0 0.724788,-0.344716 1.8306293,1.8306293 0 0 0 0.294629,-1.154947 q 0.03437,-1.326813 0.03437,-7.274394 a 6.0890031,6.0890031 0 0 0 -0.10312,-1.482967 1.3101178,1.3101178 0 0 0 -0.457658,-0.474353 5.0165528,5.0165528 0 0 0 -1.580194,-0.545064 z m 11.755704,13.395807 q -0.207222,-0.10312 -1.32976,-0.569617 a 8.4548754,8.4548754 0 0 1 -1.656798,-1.257084 1.3965423,1.3965423 0 0 1 -0.345698,-0.915315 1.0174528,1.0174528 0 0 1 0.259274,-0.724788 3.7781282,3.7781282 0 0 1 1.501626,-0.759161 15.409106,15.409106 0 0 0 1.847325,-0.708092 q -0.2249,-0.155171 -0.708092,-0.448818 a 4.9301283,4.9301283 0 0 1 -2.572113,-4.401759 5.2610951,5.2610951 0 0 1 1.631264,-3.90973 5.7334838,5.7334838 0 0 1 4.187663,-1.6008186 6.573177,6.573177 0 0 1 2.123294,0.3280205 7.9373101,7.9373101 0 0 1 1.640103,0.8632635 q 0.687468,0.4311416 0.811212,0.4831926 a 2.080082,2.080082 0 0 0 0.621667,0.08642 q 0.29463,0 1.424041,-0.146332 1.129412,-0.146333 1.334671,-0.147315 a 1.2580666,1.2580666 0 0 1 0.656041,0.155172 2.3737291,2.3737291 0 0 1 0.207222,1.15691 0.54309979,0.54309979 0 0 1 -0.146332,0.414445 0.59416885,0.59416885 0 0 1 -0.423284,0.138476 7.0563689,7.0563689 0 0 1 -1.59689,-0.302486 8.1828344,8.1828344 0 0 0 -1.355295,-0.302486 2.8392432,2.8392432 0 0 0 -0.32802,0.03437 6.1410542,6.1410542 0 0 1 0.742465,2.710589 4.9811973,4.9811973 0 0 1 -0.776839,2.537738 5.1324403,5.1324403 0 0 1 -2.140972,2.002497 6.0575759,6.0575759 0 0 1 -2.761657,0.687468 q -0.10312,0 -0.589258,-0.01768 a 5.583223,5.583223 0 0 0 -2.917811,0.794517 q -0.638364,0.392838 -0.638364,0.742465 0,0.362394 0.621668,0.708092 1.640102,0.883888 6.214711,1.018435 a 8.3949674,8.3949674 0 0 1 3.089678,0.569617 3.5473353,3.5473353 0 0 1 1.669566,1.473145 3.9833865,3.9833865 0 0 1 0.560777,2.011336 4.068829,4.068829 0 0 1 -0.949688,2.58979 6.6154072,6.6154072 0 0 1 -2.883437,1.93375 12.321392,12.321392 0 0 1 -4.437116,0.742465 10.737269,10.737269 0 0 1 -4.26132,-0.663898 5.6283994,5.6283994 0 0 1 -2.132133,-1.473145 2.5357751,2.5357751 0 0 1 -0.630506,-1.571356 3.2252074,3.2252074 0 0 1 0.687468,-1.683315 7.7408907,7.7408907 0 0 1 2.865759,-2.114455 q 0.642292,-0.327039 0.883888,-0.464532 z M 29.89573,14.1598 a 6.3836322,6.3836322 0 0 0 0.466496,2.59863 3.4039491,3.4039491 0 0 0 1.276727,1.553678 3.0572688,3.0572688 0 0 0 1.640102,0.509708 3.1594069,3.1594069 0 0 0 2.492563,-1.149054 5.2375247,5.2375247 0 0 0 0.9929,-3.496266 A 5.4683176,5.4683176 0 0 0 35.728406,10.57711 3.160389,3.160389 0 0 0 33.22504,9.3426134 2.8696882,2.8696882 0 0 0 30.739351,10.52113 6.2775657,6.2775657 0 0 0 29.892784,14.1598 Z m -0.572563,15.985598 a 6.3217601,6.3217601 0 0 0 3.970619,1.207979 11.136983,11.136983 0 0 0 3.409842,-0.544082 4.9536986,4.9536986 0 0 0 2.488635,-1.547785 3.17021,3.17021 0 0 0 0.785677,-1.907233 2.3992636,2.3992636 0 0 0 -0.275969,-1.09602 2.5328289,2.5328289 0 0 0 -0.751304,-0.897637 3.6632228,3.6632228 0 0 0 -1.251192,-0.560778 8.1720314,8.1720314 0 0 0 -1.571356,-0.2249 q -2.900133,-0.2249 -3.556174,-0.2249 a 4.927182,4.927182 0 0 0 -3.298865,1.238424 2.9570949,2.9570949 0 0 0 -1.122537,2.312839 2.9168289,2.9168289 0 0 0 1.172624,2.244093 z m 13.085464,-7.837136 a 8.4087168,8.4087168 0 0 1 1.001742,-0.206241 2.9796831,2.9796831 0 0 0 1.303243,-0.361412 1.3926139,1.3926139 0 0 0 0.216062,-0.946741 l 0.03437,-0.619704 q 0.01768,-0.343734 0.01768,-0.877013 l -0.03437,-5.281719 a 2.2656984,2.2656984 0 0 0 -0.27597,-1.374936 3.0445015,3.0445015 0 0 0 -1.726527,-0.670772 v -0.630507 a 5.2149365,5.2149365 0 0 0 1.93375,-0.900583 6.2058726,6.2058726 0 0 0 1.65778,-2.1124913 l 0.589258,0.017678 q 0.05205,0.8141586 0.05205,1.1608389 v 1.1431614 l 0.01768,0.312307 q 0.207223,-0.138476 0.483192,-0.346681 a 11.30885,11.30885 0 0 1 2.123294,-1.276726 10.203991,10.203991 0 0 1 1.93375,-0.6874681 4.8270081,4.8270081 0 0 1 1.206015,-0.1345473 3.9539236,3.9539236 0 0 1 2.434619,0.7601433 3.4461793,3.4461793 0 0 1 1.320921,1.7893811 17.579541,17.579541 0 0 1 0.302486,4.087489 v 2.610414 q 0,0.10312 -0.02553,0.687468 -0.02554,0.584348 -0.02554,1.34842 a 6.7489724,6.7489724 0 0 0 0.10312,1.537964 1.0341484,1.0341484 0 0 0 0.448819,0.449801 4.0501691,4.0501691 0 0 1 1.933749,0.535243 v 0.138475 a 1.2148543,1.2148543 0 0 1 -0.109012,0.436052 h -0.328021 l -2.278466,-0.03437 -2.242128,0.05107 q -1.240388,0.03437 -2.296143,-0.0167 l -0.10312,-0.362394 a 0.5401535,0.5401535 0 0 1 0.120798,-0.27597 4.1650745,4.1650745 0 0 1 1.312082,-0.276951 2.9129005,2.9129005 0 0 0 0.687468,-0.104102 1.9298211,1.9298211 0 0 0 0.466496,-0.276952 1.6322457,1.6322457 0 0 0 0.207222,-0.687468 q 0,-0.120798 -0.03437,-0.484174 -0.05205,-0.795499 -0.06875,-3.958834 v -0.898619 l 0.03928,-1.387703 a 4.1621282,4.1621282 0 0 0 -0.897637,-3.076911 3.3528801,3.3528801 0 0 0 -2.399263,-0.84755 5.3494838,5.3494838 0 0 0 -2.258824,0.509709 7.6475914,7.6475914 0 0 0 -2.140972,1.528143 q -0.03437,0.82889 -0.03437,1.415202 l 0.05205,3.815448 q 0,2.986558 0.08642,3.660276 a 0.76701797,0.76701797 0 0 0 0.120798,0.380072 1.1441433,1.1441433 0 0 0 0.552921,0.2249 q 0.414445,0.08642 0.958527,0.241596 0.544082,0.155172 0.715949,0.189545 a 0.64916629,0.64916629 0 0 1 0.466496,0.345698 l -0.02455,0.343734 h -1.812952 l -3.73197,-0.05205 q -1.291458,0.01768 -1.634209,0.01768 H 42.39488 l -0.03437,-0.2249 a 1.6626907,1.6626907 0 0 1 0.04812,-0.344716 z M 70.25502,11.846961 a 10.640042,10.640042 0 0 1 0.423284,-3.1328899 12.926364,12.926364 0 0 1 1.424041,-2.9777189 9.9614126,9.9614126 0 0 1 2.416941,-2.6840718 13.502855,13.502855 0 0 1 3.918569,-1.9072326 14.705924,14.705924 0 0 1 4.453811,-0.56961645 13.160103,13.160103 0 0 1 3.547335,0.48319185 12.417638,12.417638 0 0 1 3.150568,1.3464554 11.109484,11.109484 0 0 1 2.832369,2.6565728 9.158057,9.158057 0 0 1 1.484931,2.676215 11.71642,11.71642 0 0 1 0.656041,3.8841946 13.686508,13.686508 0 0 1 -0.43998,3.781075 10.076318,10.076318 0 0 1 -1.473146,2.96888 13.258313,13.258313 0 0 1 -2.781299,2.624164 10.541832,10.541832 0 0 1 -3.265474,1.614567 13.984083,13.984083 0 0 1 -4.212215,0.612829 A 14.330763,14.330763 0 0 1 78.299379,22.688333 11.820523,11.820523 0 0 1 75.303982,21.38509 11.386436,11.386436 0 0 1 72.83499,19.114481 10.793249,10.793249 0 0 1 70.914007,15.799903 11.535715,11.535715 0 0 1 70.25502,11.846961 Z m 11.980605,10.736288 a 11.974712,11.974712 0 0 0 3.017002,-0.404624 7.5385786,7.5385786 0 0 0 2.770497,-1.346456 7.2675198,7.2675198 0 0 0 1.890537,-2.140972 11.109484,11.109484 0 0 0 1.092092,-3.080839 17.454815,17.454815 0 0 0 0.414445,-3.763397 A 16.043541,16.043541 0 0 0 90.73273,7.2026234 8.3880928,8.3880928 0 0 0 88.984597,4.0864288 8.2672948,8.2672948 0 0 0 86.067768,1.9592064 8.9547629,8.9547629 0 0 0 82.425169,1.207902 9.3633153,9.3633153 0 0 0 79.352187,1.7254673 7.8174942,7.8174942 0 0 0 76.883195,3.0463878 8.0325736,8.0325736 0 0 0 75.087921,5.3248535 12.756461,12.756461 0 0 0 73.82789,8.5785417 a 13.521515,13.521515 0 0 0 -0.431141,3.1427113 14.17461,14.17461 0 0 0 0.431141,3.240921 12.038548,12.038548 0 0 0 1.178517,3.142711 9.8415967,9.8415967 0 0 0 1.847325,2.357034 7.7939239,7.7939239 0 0 0 2.455243,1.571355 7.8037449,7.8037449 0 0 0 2.92665,0.549975 z M 96.823697,9.3249356 h 1.289494 l 0.567652,0.034373 0.446855,-0.034373 q 1.767772,0 2.200872,0.034373 l 0.0177,0.3280205 q 0,2.4346199 -0.0687,4.7140669 -0.0521,1.346456 -0.0521,1.536001 a 20.78216,20.78216 0 0 0 0.19642,3.79777 2.0064247,2.0064247 0 0 0 0.93398,1.216818 3.29199,3.29199 0 0 0 1.77367,0.457658 5.7364301,5.7364301 0 0 0 2.41399,-0.526405 7.2950185,7.2950185 0 0 0 1.9642,-1.286547 11.169392,11.169392 0 0 0 0.0864,-1.450558 q 0,-2.572112 0.052,-3.469749 0.0177,-0.535243 0.0177,-0.932011 a 8.9233358,8.9233358 0 0 0 -0.27597,-3.159407 q -0.27597,-0.362393 -2.1066,-0.551938 -0.60399,-0.068747 -0.88389,-0.1207986 A 0.75228651,0.75228651 0 0 1 105.2589,9.5665312 l 0.052,-0.1895448 a 7.6780364,7.6780364 0 0 1 0.88389,-0.052051 l 2.74496,0.034373 q 1.46725,-0.034373 1.55368,-0.034373 0.18954,0 0.36239,0.017678 l 0.0344,1.2600306 q -0.12079,2.624164 -0.13847,6.490681 l -0.0344,1.398507 0.0687,2.348194 a 0.7542507,0.7542507 0 0 0 0.27597,0.328021 2.634967,2.634967 0 0 0 0.84559,0.08642 h 0.15517 q 0.2249,0 1.27672,0.10312 0.0177,0.224901 0.0177,0.328021 v 0.189545 a 32.703839,32.703839 0 0 0 -3.74179,1.002721 9.6049113,9.6049113 0 0 1 -0.96638,0.275969 q -0.0864,-0.60399 -0.0864,-0.742465 v -1.399489 q 0,-0.08642 -0.0177,-0.466496 -0.2249,0.155171 -0.51757,0.380072 a 15.947295,15.947295 0 0 1 -2.88344,1.778578 4.4538111,4.4538111 0 0 1 -1.96419,0.500869 3.6867931,3.6867931 0 0 1 -2.95218,-1.346455 q -1.156914,-1.346455 -1.156914,-4.592287 0,-0.172849 0.01768,-0.621667 0.06875,-0.828891 0.06875,-1.156911 0,-0.120798 -0.01768,-0.759161 -0.01768,-0.27597 -0.01768,-0.483192 0,-0.155171 0.01768,-0.699253 0.01768,-0.544082 0.01768,-0.768 0,-0.29463 -0.01768,-0.517566 l -0.03928,-0.914332 0.01768,-0.483192 a 0.64229161,0.64229161 0 0 0 -0.27597,-0.50087 14.025331,14.025331 0 0 0 -1.424041,-0.336859 2.4385475,2.4385475 0 0 1 -0.595151,-0.1463325 z m 21.682743,-3.504123 0.53524,0.017678 0.0687,1.6401025 -0.0344,2.1232943 q 0.32802,0.017678 0.41445,0.017678 0.44882,0 1.70885,-0.068747 0.81121,-0.052051 1.55368,-0.052051 0.34569,0 1.03611,0.017678 0.0344,0.3456982 0.0344,0.5529206 a 3.8036627,3.8036627 0 0 1 -0.10312,0.708092 h -0.29463 l -2.67621,0.08643 -1.32976,0.03437 -0.31034,0.03437 a 3.2900258,3.2900258 0 0 0 -0.13848,1.001739 l 0.0521,2.589791 -0.0344,4.557913 a 4.1503431,4.1503431 0 0 0 0.46649,2.382568 1.5713556,1.5713556 0 0 0 1.34646,0.60399 9.5852693,9.5852693 0 0 0 1.69215,-0.27597 3.0228954,3.0228954 0 0 0 1.01844,-0.569616 h 0.15517 a 0.33882356,0.33882356 0 0 1 0.25043,0.09821 0.33882356,0.33882356 0 0 1 0.0982,0.250435 l -0.0177,0.120798 a 4.4852382,4.4852382 0 0 1 -1.70001,1.178516 7.1958267,7.1958267 0 0 1 -2.54658,0.371233 3.1427113,3.1427113 0 0 1 -1.85617,-0.517565 2.2990897,2.2990897 0 0 1 -0.94085,-1.225658 14.017474,14.017474 0 0 1 -0.20722,-3.089678 l 0.0687,-3.884194 -0.0177,-1.865985 v -0.687468 q 0,-0.483192 -0.0344,-0.966384 l -0.29463,-0.01768 -1.4152,0.05205 -0.13848,0.01768 a 0.41149876,0.41149876 0 0 1 -0.28481,-0.08642 0.27007675,0.27007675 0 0 1 -0.0982,-0.207223 0.45569313,0.45569313 0 0 1 0.12964,-0.336859 3.2075297,3.2075297 0 0 1 0.78568,-0.405606 4.0845425,4.0845425 0 0 0 1.04397,-0.7159495 5.674558,5.674558 0 0 0 1.00959,-1.1657495 10.221668,10.221668 0 0 0 0.58926,-1.3120819 q 0.27695,-0.7120205 0.41543,-1.0056676 z"
     data-name="Path 9"
     id="Path_9" />
</svg>
