<svg xmlns="http://www.w3.org/2000/svg" width="124.014" height="32.414" viewBox="0 0 124.014 32.414">
    <path id="Path_9" data-name="Path 9" d="M13.975-21.691q.141,1.16.141,1.336l-.07,1.564a11.431,11.431,0,0,1-.088,1.283.681.681,0,0,1-.264.07l-.158-.035a6.364,6.364,0,0,0-1.907-3.586A4.939,4.939,0,0,0,8.35-22.184a4.8,4.8,0,0,0-3.287,1.125,3.4,3.4,0,0,0-1.283,2.619,2.985,2.985,0,0,0,.9,2.092,20.278,20.278,0,0,0,4.588,2.841,29.679,29.679,0,0,1,4.025,2.377,6.229,6.229,0,0,1,1.828,2.138,5.908,5.908,0,0,1,.615,2.71,6.847,6.847,0,0,1-.976,3.537,6.317,6.317,0,0,1-2.628,2.49A9.746,9.746,0,0,1,7.752.58,13.8,13.8,0,0,1,3.2-.176,5.161,5.161,0,0,1,1.635-.914a.84.84,0,0,1-.281-.6A4.369,4.369,0,0,1,1.389-2a33.829,33.829,0,0,0,.264-3.41,3.034,3.034,0,0,1,.123-.967A.277.277,0,0,1,2.039-6.5a.318.318,0,0,1,.255.114.843.843,0,0,1,.132.431,5.96,5.96,0,0,0,2,3.867A5.739,5.739,0,0,0,8.49-.387a5.673,5.673,0,0,0,2.558-.58,4.329,4.329,0,0,0,1.828-1.679,4.147,4.147,0,0,0,.659-2.136,3.923,3.923,0,0,0-1-2.6,14.161,14.161,0,0,0-4.025-2.751A30.025,30.025,0,0,1,4.57-12.428a8.678,8.678,0,0,1-2.215-2.5A4.96,4.96,0,0,1,1.811-17.3a5.3,5.3,0,0,1,1.934-4.14,7.583,7.583,0,0,1,5.186-1.7,10.483,10.483,0,0,1,3.094.4A7.369,7.369,0,0,1,13.975-21.691Zm5.766.088a1.33,1.33,0,0,1,.448-1,1.521,1.521,0,0,1,1.081-.422,1.6,1.6,0,0,1,1.143.475,1.406,1.406,0,0,1,.492,1.02,1.434,1.434,0,0,1-.492,1.028,1.581,1.581,0,0,1-1.143.483,1.48,1.48,0,0,1-1.09-.439A1.546,1.546,0,0,1,19.74-21.6ZM18.264-12.48,18.281-13q1.143-.335,1.23-.388a5.757,5.757,0,0,0,1.327-.864,5.987,5.987,0,0,0,1.169-1.305,2.152,2.152,0,0,1,.334-.035l.211.018q.07.844.07,1.23,0,.088-.035.791v.932l.018,5.063L22.553-2.2a1.314,1.314,0,0,0,.211.905,3.431,3.431,0,0,0,1.354.571,10.687,10.687,0,0,1,1.055.334.553.553,0,0,1,.053.211.576.576,0,0,1-.088.264Q24.451.07,23.379,0,21.92-.123,21.445-.123q-.229,0-2.812.088a9.429,9.429,0,0,0-1.02.088A1.219,1.219,0,0,1,17.332,0a.387.387,0,0,1-.088-.211q0-.246.334-.387.07-.035,1.793-.4a1.144,1.144,0,0,0,.738-.351,1.864,1.864,0,0,0,.3-1.176q.035-1.351.035-7.407a6.2,6.2,0,0,0-.105-1.51,1.334,1.334,0,0,0-.466-.483A5.108,5.108,0,0,0,18.264-12.48ZM30.234,1.16q-.211-.105-1.354-.58A8.609,8.609,0,0,1,27.193-.7a1.422,1.422,0,0,1-.352-.932,1.036,1.036,0,0,1,.264-.738,3.847,3.847,0,0,1,1.529-.773,15.69,15.69,0,0,0,1.881-.721q-.229-.158-.721-.457a5.02,5.02,0,0,1-2.619-4.482,5.357,5.357,0,0,1,1.661-3.981A5.838,5.838,0,0,1,33.1-14.414a6.693,6.693,0,0,1,2.162.334,8.082,8.082,0,0,1,1.67.879q.7.439.826.492a2.118,2.118,0,0,0,.633.088q.3,0,1.45-.149T41.2-12.92a1.281,1.281,0,0,1,.668.158,2.417,2.417,0,0,1,.211,1.178.553.553,0,0,1-.149.422.605.605,0,0,1-.431.141,7.185,7.185,0,0,1-1.626-.308,8.332,8.332,0,0,0-1.38-.308,2.891,2.891,0,0,0-.334.035,6.253,6.253,0,0,1,.756,2.76,5.072,5.072,0,0,1-.791,2.584,5.226,5.226,0,0,1-2.18,2.039,6.168,6.168,0,0,1-2.812.7q-.105,0-.6-.018a5.685,5.685,0,0,0-2.971.809q-.65.4-.65.756,0,.369.633.721,1.67.9,6.328,1.037a8.548,8.548,0,0,1,3.146.58,3.612,3.612,0,0,1,1.7,1.5,4.056,4.056,0,0,1,.571,2.048,4.143,4.143,0,0,1-.967,2.637,6.736,6.736,0,0,1-2.936,1.969,12.546,12.546,0,0,1-4.518.756A10.933,10.933,0,0,1,28.529,8.6,5.731,5.731,0,0,1,26.358,7.1a2.582,2.582,0,0,1-.642-1.6,3.284,3.284,0,0,1,.7-1.714,7.882,7.882,0,0,1,2.918-2.153Q29.988,1.3,30.234,1.16Zm-.7-10.037a6.5,6.5,0,0,0,.475,2.646,3.466,3.466,0,0,0,1.3,1.582,3.113,3.113,0,0,0,1.67.519A3.217,3.217,0,0,0,35.517-5.3a5.333,5.333,0,0,0,1.011-3.56,5.568,5.568,0,0,0-1.055-3.665,3.218,3.218,0,0,0-2.549-1.257,2.922,2.922,0,0,0-2.531,1.2A6.392,6.392,0,0,0,29.531-8.877ZM28.951,7.4a6.437,6.437,0,0,0,4.043,1.23,11.34,11.34,0,0,0,3.472-.554A5.044,5.044,0,0,0,39,6.5a3.228,3.228,0,0,0,.8-1.942,2.443,2.443,0,0,0-.281-1.116,2.579,2.579,0,0,0-.765-.914,3.73,3.73,0,0,0-1.274-.571,8.321,8.321,0,0,0-1.6-.229q-2.953-.229-3.621-.229A5.017,5.017,0,0,0,28.9,2.76a3.011,3.011,0,0,0-1.143,2.355A2.97,2.97,0,0,0,28.951,7.4ZM42.275-.58a8.562,8.562,0,0,1,1.02-.21,3.034,3.034,0,0,0,1.327-.368,1.418,1.418,0,0,0,.22-.964l.035-.631q.018-.35.018-.893l-.035-5.378a2.307,2.307,0,0,0-.281-1.4,3.1,3.1,0,0,0-1.758-.683v-.642a5.31,5.31,0,0,0,1.969-.917,6.319,6.319,0,0,0,1.688-2.151l.6.018q.053.829.053,1.182v1.164l.018.318q.211-.141.492-.353a11.515,11.515,0,0,1,2.162-1.3,10.39,10.39,0,0,1,1.969-.7A4.915,4.915,0,0,1,53-14.625a4.026,4.026,0,0,1,2.479.774,3.509,3.509,0,0,1,1.345,1.822,17.9,17.9,0,0,1,.308,4.162v2.658q0,.105-.026.7t-.026,1.373a6.872,6.872,0,0,0,.105,1.566,1.053,1.053,0,0,0,.457.458,4.124,4.124,0,0,1,1.969.545v.141A1.237,1.237,0,0,1,59.5.018h-.334l-2.32-.035L54.563.035Q53.3.07,52.225.018l-.105-.369a.55.55,0,0,1,.123-.281,4.241,4.241,0,0,1,1.336-.282,2.966,2.966,0,0,0,.7-.106,1.965,1.965,0,0,0,.475-.282,1.662,1.662,0,0,0,.211-.7q0-.123-.035-.493-.053-.81-.07-4.031v-.915L54.9-8.854a4.238,4.238,0,0,0-.914-3.133,3.414,3.414,0,0,0-2.443-.863,5.447,5.447,0,0,0-2.3.519,7.787,7.787,0,0,0-2.18,1.556q-.035.844-.035,1.441l.053,3.885q0,3.041.088,3.727a.781.781,0,0,0,.123.387,1.165,1.165,0,0,0,.563.229q.422.088.976.246t.729.193a.661.661,0,0,1,.475.352L50.01.035H48.164l-3.8-.053Q43.049,0,42.7,0h-.439l-.035-.229A1.693,1.693,0,0,1,42.275-.58ZM70.629-11.232a10.834,10.834,0,0,1,.431-3.19,13.162,13.162,0,0,1,1.45-3.032,10.143,10.143,0,0,1,2.461-2.733,13.749,13.749,0,0,1,3.99-1.942,14.974,14.974,0,0,1,4.535-.58,13.4,13.4,0,0,1,3.612.492,12.644,12.644,0,0,1,3.208,1.371A11.312,11.312,0,0,1,93.2-18.141a9.325,9.325,0,0,1,1.512,2.725,11.93,11.93,0,0,1,.668,3.955,13.936,13.936,0,0,1-.448,3.85,10.26,10.26,0,0,1-1.5,3.023A13.5,13.5,0,0,1,90.6-1.916,10.734,10.734,0,0,1,87.275-.272a14.239,14.239,0,0,1-4.289.624A14.592,14.592,0,0,1,78.82-.193a12.036,12.036,0,0,1-3.05-1.327,11.594,11.594,0,0,1-2.514-2.312A10.99,10.99,0,0,1,71.3-7.207,11.746,11.746,0,0,1,70.629-11.232ZM82.828-.3A12.193,12.193,0,0,0,85.9-.712a7.676,7.676,0,0,0,2.821-1.371,7.4,7.4,0,0,0,1.925-2.18A11.312,11.312,0,0,0,91.758-7.4a17.773,17.773,0,0,0,.422-3.832,16.336,16.336,0,0,0-.7-4.729A8.541,8.541,0,0,0,89.7-19.134,8.418,8.418,0,0,0,86.73-21.3a9.118,9.118,0,0,0-3.709-.765,9.534,9.534,0,0,0-3.129.527,7.96,7.96,0,0,0-2.514,1.345,8.179,8.179,0,0,0-1.828,2.32,12.989,12.989,0,0,0-1.283,3.313,13.768,13.768,0,0,0-.439,3.2,14.433,14.433,0,0,0,.439,3.3,12.258,12.258,0,0,0,1.2,3.2,10.021,10.021,0,0,0,1.881,2.4,7.936,7.936,0,0,0,2.5,1.6A7.946,7.946,0,0,0,82.828-.3ZM97.682-13.8h1.313l.578.035.455-.035q1.8,0,2.241.035l.018.334q0,2.479-.07,4.8-.053,1.371-.053,1.564a21.161,21.161,0,0,0,.2,3.867,2.043,2.043,0,0,0,.951,1.239,3.352,3.352,0,0,0,1.806.466,5.841,5.841,0,0,0,2.458-.536,7.428,7.428,0,0,0,2-1.31,11.373,11.373,0,0,0,.088-1.477q0-2.619.053-3.533.018-.545.018-.949a9.086,9.086,0,0,0-.281-3.217q-.281-.369-2.145-.562-.615-.07-.9-.123a.766.766,0,0,1-.141-.352l.053-.193a7.818,7.818,0,0,1,.9-.053l2.795.035q1.494-.035,1.582-.035.193,0,.369.018l.035,1.283q-.123,2.672-.141,6.609l-.035,1.424.07,2.391a.768.768,0,0,0,.281.334,2.683,2.683,0,0,0,.861.088h.158q.229,0,1.3.105.018.229.018.334v.193A33.3,33.3,0,0,0,110.707,0a9.78,9.78,0,0,1-.984.281q-.088-.615-.088-.756V-1.9q0-.088-.018-.475-.229.158-.527.387a16.238,16.238,0,0,1-2.936,1.811,4.535,4.535,0,0,1-2,.51,3.754,3.754,0,0,1-3.006-1.371q-1.178-1.371-1.178-4.676,0-.176.018-.633.07-.844.07-1.178,0-.123-.018-.773-.018-.281-.018-.492,0-.158.018-.712t.018-.782q0-.3-.018-.527L100-11.742l.018-.492a.654.654,0,0,0-.281-.51,14.281,14.281,0,0,0-1.45-.343,2.483,2.483,0,0,1-.606-.149Zm22.078-3.568.545.018.07,1.67-.035,2.162q.334.018.422.018.457,0,1.74-.07.826-.053,1.582-.053.352,0,1.055.018.035.352.035.563a3.873,3.873,0,0,1-.105.721h-.3l-2.725.088-1.354.035-.316.035a3.35,3.35,0,0,0-.141,1.02l.053,2.637-.035,4.641a4.226,4.226,0,0,0,.475,2.426,1.6,1.6,0,0,0,1.371.615,9.76,9.76,0,0,0,1.723-.281,3.078,3.078,0,0,0,1.037-.58h.158a.345.345,0,0,1,.255.1.345.345,0,0,1,.1.255l-.018.123a4.567,4.567,0,0,1-1.731,1.2,7.327,7.327,0,0,1-2.593.378,3.2,3.2,0,0,1-1.89-.527,2.341,2.341,0,0,1-.958-1.248,14.273,14.273,0,0,1-.211-3.146l.07-3.955-.018-1.9v-.7q0-.492-.035-.984l-.3-.018-1.441.053-.141.018a.419.419,0,0,1-.29-.088.275.275,0,0,1-.1-.211.464.464,0,0,1,.132-.343,3.266,3.266,0,0,1,.8-.413,4.159,4.159,0,0,0,1.063-.729,5.778,5.778,0,0,0,1.028-1.187,10.408,10.408,0,0,0,.6-1.336Q119.619-17.068,119.76-17.367Z" transform="translate(-1.354 23.133)"/>
</svg>
