<?xml version="1.0" encoding="UTF-8" standalone="no"?>
<svg
   xmlns:dc="http://purl.org/dc/elements/1.1/"
   xmlns:cc="http://creativecommons.org/ns#"
   xmlns:rdf="http://www.w3.org/1999/02/22-rdf-syntax-ns#"
   xmlns:svg="http://www.w3.org/2000/svg"
   xmlns="http://www.w3.org/2000/svg"
   xmlns:sodipodi="http://sodipodi.sourceforge.net/DTD/sodipodi-0.dtd"
   xmlns:inkscape="http://www.inkscape.org/namespaces/inkscape"
   sodipodi:docname="white_duke.svg"
   inkscape:version="1.0 (4035a4fb49, 2020-05-01)"
   version="1.1"
   id="svg69184"
   height="75"
   width="75">
  <defs
     id="defs69186">
    <inkscape:perspective
       id="perspective69192"
       inkscape:persp3d-origin="372.04724 : 226.48928 : 1"
       inkscape:vp_z="744.09448 : 401.88298 : 1"
       inkscape:vp_y="0 : 1000 : 0"
       inkscape:vp_x="0 : 401.88298 : 1"
       sodipodi:type="inkscape:persp3d" />
    <inkscape:perspective
       sodipodi:type="inkscape:persp3d"
       inkscape:vp_x="0 : -123.79811 : 1"
       inkscape:vp_y="0 : 1000 : 0"
       inkscape:vp_z="1 : -123.79811 : 1"
       inkscape:persp3d-origin="0.5 : -123.96478 : 1"
       id="perspective68910" />
    <inkscape:perspective
       id="perspective68062"
       inkscape:persp3d-origin="0.5 : -123.96478 : 1"
       inkscape:vp_z="1 : -123.79811 : 1"
       inkscape:vp_y="0 : 1000 : 0"
       inkscape:vp_x="0 : -123.79811 : 1"
       sodipodi:type="inkscape:persp3d" />
    <inkscape:perspective
       sodipodi:type="inkscape:persp3d"
       inkscape:vp_x="0 : 401.88298 : 1"
       inkscape:vp_y="0 : 1000 : 0"
       inkscape:vp_z="744.09448 : 401.88298 : 1"
       inkscape:persp3d-origin="372.04724 : 226.48928 : 1"
       id="perspective68340" />
  </defs>
  <sodipodi:namedview
     inkscape:document-rotation="0"
     inkscape:snap-global="false"
     inkscape:guide-bbox="true"
     showguides="true"
     inkscape:window-maximized="1"
     inkscape:window-y="-9"
     inkscape:window-x="-9"
     inkscape:window-height="1001"
     inkscape:window-width="1920"
     showgrid="false"
     inkscape:current-layer="layer1"
     inkscape:document-units="px"
     inkscape:cy="32.155839"
     inkscape:cx="22.299894"
     inkscape:zoom="6.1451108"
     inkscape:pageshadow="2"
     inkscape:pageopacity="0.0"
     borderopacity="1.0"
     bordercolor="#666666"
     pagecolor="#ffffff"
     id="base" />
  <metadata
     id="metadata69189">
    <rdf:RDF>
      <cc:Work
         rdf:about="">
        <dc:format>image/svg+xml</dc:format>
        <dc:type
           rdf:resource="http://purl.org/dc/dcmitype/StillImage" />
        <dc:title></dc:title>
      </cc:Work>
    </rdf:RDF>
  </metadata>
  <g
     transform="translate(-344.70021,-115.57027)"
     id="layer1"
     inkscape:groupmode="layer"
     inkscape:label="Layer 1">
    <rect
       ry="0.325353"
       y="-359.48886"
       x="-299.71454"
       height="893.06775"
       width="1347.4127"
       id="rect10390"
       style="opacity:0;fill:#ff0000;fill-opacity:1;stroke:#666666;stroke-width:0.377953;stroke-linejoin:round;stroke-miterlimit:4;stroke-dasharray:none;stroke-dashoffset:0;stroke-opacity:1" />
    <rect
       ry="0.325353"
       y="-265.75583"
       x="-356.99585"
       height="416.59137"
       width="725.12933"
       id="rect10392"
       style="opacity:0;fill:#ff0000;fill-opacity:1;stroke:#666666;stroke-width:0.377953;stroke-linejoin:round;stroke-miterlimit:4;stroke-dasharray:none;stroke-dashoffset:0;stroke-opacity:1" />
    <rect
       ry="0.325353"
       y="-69.176788"
       x="32.256699"
       height="224.56879"
       width="302.02875"
       id="rect10394"
       style="opacity:0;fill:#000000;fill-opacity:1;stroke:#666666;stroke-width:0.377953;stroke-linejoin:round;stroke-miterlimit:4;stroke-dasharray:none;stroke-dashoffset:0;stroke-opacity:1" />
    <path
       inkscape:connector-curvature="0"
       id="path4978-7"
       d="m 406.96421,177.93979 c -0.51906,-0.55583 -0.78116,-1.62053 -0.93776,-3.80916 -0.10198,-1.42471 -0.14846,-1.69835 -0.32167,-1.89265 -0.31301,-0.35106 -0.63067,-0.29495 -0.85713,0.15142 -0.23985,0.4728 -0.56256,0.77357 -0.75167,0.70055 -0.23061,-0.089 -0.57435,-1.15653 -0.67251,-2.08849 -0.0655,-0.62175 -0.0461,-1.36534 0.0706,-2.70052 0.17955,-2.05582 0.162,-2.14466 -0.42368,-2.14466 -0.24731,0 -0.3651,0.0597 -0.44868,0.22711 -0.23935,0.47971 -0.94302,1.4553 -1.17863,1.63411 -0.38198,0.28988 -0.70904,0.11713 -1.05068,-0.55496 -0.23039,-0.45321 -0.3224,-0.86024 -0.48979,-2.16678 -0.19465,-1.51928 -0.19745,-1.66497 -0.0502,-2.62006 0.18354,-1.19048 0.44808,-1.89754 1.02041,-2.72731 0.22975,-0.33311 0.63957,-1.02454 0.9107,-1.5365 0.56133,-1.05992 0.54612,-1.26645 -0.0973,-1.32137 -0.29397,-0.0251 -0.46845,0.0418 -0.8561,0.32806 -0.50246,0.37106 -0.81118,0.45775 -0.81118,0.22776 0,-0.1644 0.3717,-1.32317 0.56223,-1.75279 0.22711,-0.51205 0.27345,-0.89015 0.12366,-1.00891 -0.27557,-0.21855 -0.73744,-0.22533 -1.19168,-0.0175 -1.22353,0.55981 -2.12269,0.63516 -2.89297,0.24247 -0.49384,-0.25177 -1.55971,-1.31973 -1.46729,-1.47016 0.0282,-0.046 0.0156,-0.0988 -0.0282,-0.11744 -0.18062,-0.077 -0.5115,-0.67323 -0.58079,-1.04667 -0.0409,-0.2202 -0.22082,-0.83872 -0.39993,-1.3745 l -0.32569,-0.97412 0.34755,-0.33811 c 0.49995,-0.48641 0.90541,-1.41688 1.09239,-2.50697 0.19158,-1.11687 0.10273,-1.86439 -0.30467,-2.56379 l -0.26009,-0.4465 0.53066,-0.30288 c 0.98795,-0.56388 2.19741,-0.99904 2.61255,-0.94002 0.0966,0.0138 0.17558,-0.0119 0.17554,-0.0571 -7e-5,-0.17497 2.52223,-0.0138 2.7617,0.17654 0.0566,0.045 0.22088,0.0976 0.36516,0.11705 0.14427,0.0195 0.3279,0.0902 0.40805,0.15703 0.0802,0.067 0.17546,0.0917 0.21177,0.0553 0.0363,-0.0366 0.066,-0.0135 0.066,0.0514 0,0.0648 0.0739,0.11777 0.16409,0.11777 0.0903,0 0.27083,0.11589 0.40132,0.25755 0.13049,0.14166 0.23726,0.2094 0.23726,0.15055 0,-0.059 0.14215,0.0296 0.31586,0.19667 0.17375,0.16704 0.36512,0.30371 0.42528,0.30371 0.11359,0 0.96452,0.89866 0.96452,1.01864 0,0.0375 0.0902,0.0918 0.2004,0.12088 0.11021,0.029 0.23437,0.14382 0.27591,0.25516 0.0416,0.11132 0.24665,0.38815 0.45581,0.61516 0.20917,0.22701 0.34461,0.4142 0.301,0.41596 -0.0436,0.002 0,0.0636 0.0962,0.13728 0.2064,0.15762 0.67728,0.83504 0.67728,0.97434 0,0.0531 0.0451,0.0964 0.10037,0.0964 0.0553,0 0.10036,0.0596 0.10036,0.13236 0,0.0728 0.0824,0.22142 0.18324,0.33024 0.10079,0.10883 0.16473,0.25365 0.14213,0.32181 -0.0226,0.0682 0.0302,0.15144 0.11722,0.18505 0.087,0.0336 0.13329,0.10179 0.10273,0.15147 -0.0306,0.0497 -0.0188,0.0903 0.0263,0.0903 0.0449,0 0.14451,0.14763 0.22119,0.32806 0.0767,0.18043 0.19557,0.3962 0.26417,0.47945 0.0686,0.0834 0.15599,0.29946 0.19422,0.48037 0.0383,0.18092 0.10349,0.30783 0.14493,0.28203 0.0755,-0.047 0.0991,0.0365 0.13816,0.48975 0.0115,0.1335 0.0517,0.2236 0.0893,0.20024 0.0868,-0.0541 0.18204,0.0999 0.23602,0.38201 0.0233,0.12105 0.0942,0.25241 0.15765,0.29192 0.0636,0.0396 0.0846,0.12233 0.0466,0.18407 -0.0379,0.0618 -0.0211,0.11221 0.0373,0.11221 0.0585,0 0.10629,0.13629 0.10629,0.30283 0,0.16656 0.0437,0.30282 0.0972,0.30282 0.0534,0 0.0712,0.0682 0.0394,0.15142 -0.0318,0.0834 -0.008,0.15141 0.0533,0.15141 0.0611,0 0.10575,0.0342 0.0992,0.0758 -0.006,0.0416 -0.003,0.0984 0.009,0.12618 0.0111,0.0277 0.0417,0.18675 0.0683,0.35329 0.0264,0.16656 0.0839,0.31578 0.12766,0.33158 0.0438,0.0158 0.0584,0.14074 0.0323,0.27759 -0.0261,0.13686 -0.003,0.24883 0.0518,0.24883 0.0545,0 0.12904,0.22712 0.16565,0.50471 0.0366,0.27759 0.11015,0.50471 0.16343,0.50471 0.0532,0 0.0891,0.034 0.0796,0.0758 -0.0388,0.16987 0.25049,1.33747 0.33134,1.33747 0.048,0 0.0873,0.16872 0.0873,0.37493 0,0.33432 0.0165,0.35843 0.15146,0.22255 0.11225,-0.11293 0.15372,-0.39943 0.16022,-1.10675 0.0195,-2.11567 -0.66295,-4.80025 -1.86054,-7.31974 -0.99636,-2.09617 -2.05385,-3.56894 -3.73039,-5.1954 -1.51271,-1.46753 -2.68701,-2.18202 -4.33281,-2.63628 -1.12224,-0.30975 -2.64892,-0.23575 -3.85482,0.18685 -0.96783,0.33915 -2.19575,1.00673 -2.69417,1.46473 -0.31982,0.29388 -0.32772,0.29543 -0.73482,0.14408 -0.22634,-0.0842 -0.88559,-0.2266 -1.46502,-0.31657 -0.57942,-0.09 -1.08624,-0.1962 -1.12627,-0.23607 -0.0694,-0.0692 0.44583,-0.91983 0.94331,-1.55754 0.38308,-0.4911 1.28663,-1.3714 1.28663,-1.25354 0,0.0893 0.91451,-0.51766 1.02687,-0.68166 0.045,-0.0658 0.0749,-0.0684 0.0768,-0.007 0.002,0.0555 0.0371,0.0472 0.0786,-0.0187 0.0416,-0.0659 0.20223,-0.13666 0.35704,-0.15752 0.15479,-0.0209 0.32257,-0.10321 0.37283,-0.18323 0.0502,-0.0799 0.092,-0.10559 0.0929,-0.0573 9.4e-4,0.0485 0.0591,0.04 0.12945,-0.0188 0.0704,-0.0589 0.36384,-0.13831 0.65217,-0.17679 0.28834,-0.0385 0.52423,-0.11221 0.52423,-0.16385 0,-0.0517 0.0386,-0.07 0.0857,-0.0406 0.0471,0.0293 0.37439,0.005 0.7274,-0.052 0.64303,-0.10548 1.65753,-0.20935 1.84582,-0.18898 0.0553,0.005 0.60682,0.0283 1.22583,0.0495 0.61904,0.0212 1.21401,0.0864 1.32215,0.14457 0.10815,0.0582 0.26822,0.0782 0.35568,0.0444 0.0876,-0.0338 0.22562,-0.005 0.30699,0.0621 0.0815,0.068 0.21625,0.0971 0.29972,0.065 0.0835,-0.0322 0.15177,-0.0146 0.15177,0.0391 0,0.0538 0.13279,0.0977 0.29509,0.0977 0.16228,0 0.32344,0.0462 0.3581,0.10256 0.0347,0.0565 0.105,0.0765 0.15641,0.0445 0.0514,-0.032 0.0934,-0.01 0.0934,0.0489 0,0.0589 0.0679,0.1069 0.15086,0.1069 0.0831,0 0.31934,0.0908 0.52525,0.20187 0.20594,0.11105 0.46161,0.20189 0.5682,0.20189 0.10661,0 0.16389,0.0301 0.12734,0.0669 -0.0597,0.0601 0.64925,0.43614 0.8012,0.42514 0.0342,-0.002 0.0899,0.0343 0.12358,0.0817 0.0338,0.0474 0.49031,0.37608 1.01455,0.7303 0.52423,0.35423 0.98927,0.7054 1.0334,0.78037 0.0441,0.0749 0.13122,0.1363 0.19353,0.1363 0.0624,0 0.25807,0.15899 0.43496,0.3533 0.17691,0.19431 0.31207,0.35329 0.30034,0.35329 -0.0117,0 0.27567,0.30661 0.63863,0.68135 0.67069,0.69245 1.33222,1.44777 1.34823,1.53937 0.01,0.0545 0.23812,0.34472 0.44046,0.55923 0.0691,0.0732 0.12541,0.20206 0.12541,0.28654 0,0.0846 0.0564,0.18992 0.12542,0.23433 0.14187,0.0912 0.329,0.37308 0.47663,0.71767 0.055,0.12825 0.14627,0.20437 0.20292,0.16914 0.0567,-0.0352 0.0947,-0.0266 0.0844,0.0192 -0.0333,0.14831 0.20639,0.63839 0.31224,0.63839 0.0566,0 0.10284,0.0682 0.10284,0.15141 0,0.0833 0.0478,0.15142 0.10628,0.15142 0.0585,0 0.0787,0.0451 0.0447,0.10006 -0.0338,0.0551 0.049,0.21128 0.1841,0.34716 0.13508,0.13591 0.22138,0.27146 0.19177,0.30124 -0.0296,0.0298 -0.003,0.11621 0.06,0.19206 0.0626,0.0759 0.0804,0.17157 0.0394,0.21273 -0.0409,0.0412 -0.0225,0.0596 0.0409,0.0412 0.0635,-0.0185 0.11604,0.007 0.11684,0.056 9.4e-4,0.0493 0.0429,0.11744 0.0934,0.1514 0.12267,0.0825 0.68223,1.6425 0.64671,1.803 -0.0154,0.0695 0.0193,0.12617 0.0769,0.12617 0.0576,0 0.0963,0.0342 0.0861,0.0758 -0.0409,0.16533 0.14276,1.13559 0.21489,1.13559 0.0424,0 0.0565,0.10819 0.0312,0.24052 -0.0251,0.13228 0.004,0.27124 0.0641,0.30878 0.0603,0.0375 0.10978,0.2446 0.10978,0.46011 0,0.21552 0.0478,0.42158 0.10618,0.4579 0.0614,0.0382 0.0789,0.19146 0.0413,0.36337 -0.0382,0.17501 -0.0164,0.35614 0.053,0.44022 0.0648,0.0786 0.0914,0.18611 0.0587,0.23901 -0.0325,0.0529 -0.0116,0.43933 0.0463,0.85879 0.142,1.027 0.18217,3.44857 0.0748,4.50472 -0.0931,0.91441 -0.16921,1.82344 -0.22846,2.72542 -0.0202,0.30535 -0.0447,0.55517 -0.0546,0.55517 -0.01,0 -0.0769,0.34069 -0.14882,0.75706 -0.072,0.41639 -0.19699,1.04096 -0.27798,1.38795 -0.081,0.34698 -0.12478,0.63088 -0.0973,0.63088 0.0276,0 -0.002,0.0634 -0.0661,0.14078 -0.0639,0.0774 -0.10727,0.17965 -0.0964,0.22713 0.0109,0.0475 -0.031,0.20951 -0.093,0.36003 -0.0619,0.15055 -0.13323,0.40039 -0.15846,0.5552 -0.0252,0.15478 -0.0553,0.2928 -0.0667,0.3067 -0.0114,0.0139 -0.0302,0.0593 -0.0416,0.10092 -0.0114,0.0416 -0.0574,0.21198 -0.10219,0.37852 -0.4026,1.49533 -2.85931,6.39746 -3.9711,7.92391 -0.30326,0.41637 -0.67144,0.94461 -0.81815,1.17383 -0.28293,0.44203 -0.94952,0.84499 -1.39787,0.84499 -0.13849,0 -0.34783,-0.10277 -0.46517,-0.2285 z m 0.17838,-36.61508 c 0,-0.0555 -0.0199,-0.10093 -0.0443,-0.10093 -0.0243,0 -0.0722,0.0454 -0.1063,0.10093 -0.034,0.0556 -0.0142,0.10104 0.0443,0.10104 0.0585,0 0.1063,-0.0454 0.1063,-0.10104 z m -57.44049,20.27976 c -1.63554,-0.28631 -2.16534,-0.48759 -2.48724,-0.9449 -0.25499,-0.36227 -0.1386,-0.52137 1.00694,-1.37637 0.53825,-0.40173 1.27211,-1.03732 1.63081,-1.41241 l 0.65216,-0.68198 1.70565,-0.55904 c 2.50299,-0.82036 7.06308,-2.19144 9.4722,-2.84798 0.69487,-0.18936 1.66976,-0.4552 2.1664,-0.59073 8.70442,-2.37549 11.21264,-3.20256 14.52636,-4.78996 1.83176,-0.87751 1.8565,-1.08474 0.0546,-0.45725 -1.70325,0.59311 -2.06014,0.70945 -3.94567,1.28603 -4.84348,1.48115 -7.2349,2.14063 -14.19707,3.91502 -1.73826,0.44302 -3.34109,0.86968 -3.56183,0.94815 -0.22072,0.0785 -1.14631,0.37408 -2.05681,0.65692 -0.91052,0.28285 -2.23258,0.73922 -2.93791,1.01417 -0.70534,0.27493 -1.32614,0.49988 -1.37958,0.49988 -0.21753,0 -0.0671,-0.24786 0.47976,-0.79035 1.01027,-1.00225 1.84548,-1.36088 8.15203,-3.50019 4.08746,-1.38656 5.8193,-2.11041 5.8193,-2.43228 0,-0.20175 -0.12608,-0.18199 -1.30413,0.20446 -0.57952,0.1901 -1.52776,0.48976 -2.10718,0.66591 -7.50538,2.28166 -9.4643,3.06938 -10.96532,4.40937 l -0.38022,0.33942 -0.31782,-0.17999 c -0.54181,-0.30683 -1.61592,-1.46235 -1.90915,-2.05386 -0.56738,-1.14448 -0.43793,-2.23216 0.35991,-3.02395 0.8772,-0.87057 1.56798,-1.30054 4.58399,-2.85335 1.07607,-0.55401 2.63374,-1.37982 3.46148,-1.83512 0.82774,-0.45531 2.00164,-1.09227 2.60866,-1.41551 0.60699,-0.32322 1.16586,-0.63732 1.24188,-0.698 0.0761,-0.0607 0.34695,-0.18023 0.60201,-0.26565 0.28158,-0.0942 0.45228,-0.2082 0.43457,-0.28996 -0.0183,-0.0846 0.0283,-0.11248 0.12541,-0.075 0.0851,0.0328 0.1546,0.0169 0.1546,-0.0356 0,-0.0524 0.14043,-0.16823 0.31204,-0.25751 0.23143,-0.12041 0.29431,-0.12759 0.2434,-0.0279 -0.0378,0.074 -0.005,0.0579 0.0708,-0.0359 0.0767,-0.0938 0.2031,-0.18457 0.28096,-0.20188 0.0779,-0.0173 0.20273,-0.0886 0.27747,-0.15855 0.0748,-0.0699 0.1774,-0.10126 0.22814,-0.0698 0.0507,0.0316 0.0922,0.0194 0.0922,-0.0272 0,-0.0465 0.63044,-0.3991 1.40097,-0.78353 0.77055,-0.38446 1.38533,-0.71476 1.36619,-0.73402 -0.0544,-0.0547 -2.75764,0.99814 -4.42266,1.72249 -1.61022,0.70053 -2.27036,1.00371 -4.30442,1.97687 -0.71194,0.34061 -1.30816,0.6055 -1.32494,0.58863 -0.0848,-0.0852 1.66012,-1.41304 6.28152,-4.77964 4.39541,-3.20196 6.53033,-4.57851 8.97979,-5.78998 2.56963,-1.2709 4.07372,-1.69564 6.33063,-1.78767 l 1.41435,-0.0577 0.0701,0.93414 c 0.0386,0.51377 0.0499,0.95449 0.0251,0.97937 -0.0248,0.0249 -0.22814,-0.0489 -0.45202,-0.16368 -0.32431,-0.16646 -0.59469,-0.20892 -1.33001,-0.20892 -0.92134,0 -0.9239,7.8e-4 -1.45466,0.40386 -1.032,0.78391 -1.32922,1.75971 -0.80836,2.65391 0.48108,0.82589 1.7772,1.84804 3.30339,2.60514 0.3725,0.18477 0.67725,0.38736 0.67725,0.45019 0,0.0629 -0.0791,0.26884 -0.17558,0.45782 -0.27476,0.5376 -0.23984,1.84948 0.0624,2.34133 l 0.23163,0.37707 -0.38527,0.15797 c -0.61076,0.25045 -1.80624,0.84337 -2.87851,1.42765 -1.57758,0.85962 -3.49413,1.81275 -3.9097,1.94437 -0.59913,0.18975 -0.36192,0.2302 0.39765,0.0679 0.64128,-0.13709 3.28732,-1.12289 5.60395,-2.08777 1.07567,-0.44802 2.34997,-0.8133 3.56183,-1.02101 1.22176,-0.20941 3.74956,-0.1638 5.21729,0.0941 0.68978,0.12123 1.5348,0.26248 1.87779,0.31389 0.34299,0.0514 0.6649,0.11915 0.71536,0.15051 0.0504,0.0313 0.5823,0.12632 1.18184,0.21099 1.13769,0.16068 2.80342,0.57662 3.2596,0.81395 0.36461,0.1897 0.69104,0.78269 0.69104,1.2554 0,0.76355 -0.47205,2.40524 -0.83422,2.90122 -0.0678,0.0928 -0.20462,0.0244 -0.53149,-0.26508 -0.81581,-0.72248 -2.34842,-1.39108 -3.60078,-1.57083 -0.31062,-0.0447 -0.46344,-0.0363 -0.40132,0.0219 0.0552,0.0516 0.75982,0.51003 1.56588,1.01865 0.95912,0.60525 1.66098,1.13095 2.03116,1.5214 0.87643,0.92445 0.96416,1.33894 0.41809,1.97551 l -0.34635,0.40377 -0.38317,-0.422 c -0.95335,-1.05002 -2.20689,-1.84997 -3.85969,-2.46309 -0.80607,-0.299 -1.32133,-0.36915 -4.26793,-0.58104 l -0.92904,-0.0668 0.62804,-0.46641 c 1.0106,-0.75053 2.77238,-1.59398 3.36413,-1.61057 0.35738,-0.01 0.95429,-0.22892 0.99993,-0.3667 0.0456,-0.1374 -0.76628,-0.41835 -1.43844,-0.49783 -0.73159,-0.0865 -2.13053,0.13468 -3.30091,0.52191 -1.24761,0.41277 -2.15715,0.81818 -2.15715,0.96147 0,0.0599 0.0791,0.0856 0.17557,0.0571 1.31677,-0.38935 2.30151,-0.61303 2.83441,-0.6438 l 0.65215,-0.0377 -0.90299,0.52391 c -0.49664,0.28816 -1.12874,0.67012 -1.40465,0.84881 -0.27591,0.17869 -0.64581,0.41148 -0.822,0.51732 -0.17618,0.10581 -0.876,0.54584 -1.55516,0.97778 -0.67915,0.43196 -1.32255,0.84077 -1.42978,0.90848 -0.10726,0.0678 -0.64902,0.4239 -1.20399,0.79153 -3.30272,2.18783 -9.39551,5.25662 -14.71391,7.41108 -5.72393,2.3187 -10.63047,3.477 -12.98363,3.06508 z m 66.32787,-8.59394 c -0.29547,-1.52199 -0.55031,-2.49424 -0.90768,-3.46273 -0.8842,-2.39628 -2.55738,-4.92442 -4.85446,-7.33497 -2.20698,-2.31599 -4.12389,-3.61324 -6.54514,-4.42935 -0.83665,-0.28201 -1.06014,-0.31118 -3.01602,-0.39377 -1.16183,-0.049 -2.1303,-0.1071 -2.15217,-0.12921 -0.0858,-0.0862 1.7585,-0.77136 2.4796,-0.92121 1.68071,-0.34926 4.55238,-0.44698 5.88275,-0.20017 0.24946,0.0463 0.32607,0.0249 0.32607,-0.0906 0,-0.26482 -1.33668,-0.72326 -2.73198,-0.93696 -2.79401,-0.42794 -6.36655,0.27345 -8.00361,1.57129 l -0.35118,0.27841 -0.82112,-0.784 -0.82111,-0.784 0.79603,-0.7567 c 0.43782,-0.41619 0.79754,-0.7282 0.79937,-0.69336 0.002,0.0349 0.0836,-0.0333 0.18162,-0.15127 0.0979,-0.11802 0.33356,-0.29498 0.5234,-0.39324 0.18982,-0.0982 0.49961,-0.30616 0.68842,-0.46203 0.18877,-0.15586 0.38096,-0.25993 0.4271,-0.23124 0.0462,0.0287 0.11085,-0.0187 0.14385,-0.10505 0.033,-0.0864 0.10241,-0.13086 0.15418,-0.0985 0.0518,0.0322 0.15789,0.005 0.23573,-0.0596 0.21215,-0.17714 0.87734,-0.50487 1.02474,-0.50487 0.0711,0 0.12928,-0.0481 0.12928,-0.10689 0,-0.0589 0.0429,-0.0802 0.0953,-0.0476 0.0525,0.0326 0.31207,-0.0434 0.57691,-0.16877 0.26484,-0.12542 0.56327,-0.21424 0.66313,-0.19737 0.0999,0.0169 0.23529,-0.013 0.30098,-0.0665 0.0657,-0.0534 0.4017,-0.1293 0.74669,-0.1687 0.34501,-0.0395 0.65435,-0.11575 0.68747,-0.16965 0.0332,-0.0539 0.24749,-0.0875 0.4764,-0.0748 0.22892,0.0128 0.5686,-0.0117 0.75485,-0.0542 0.44304,-0.10136 4.02067,-0.12907 3.96019,-0.0307 -0.0256,0.0416 0.15664,0.0758 0.40494,0.0758 0.24834,0 0.48184,0.0494 0.51893,0.10974 0.0371,0.0604 0.1526,0.0874 0.25674,0.0599 0.10413,-0.0274 0.18935,-0.009 0.18935,0.0417 0,0.0504 0.13167,0.0915 0.29262,0.0915 0.16097,0 0.31001,0.0524 0.3312,0.11632 0.0211,0.0641 0.12654,0.12797 0.2341,0.14218 0.33571,0.0443 0.64707,0.16526 0.64707,0.25117 0,0.0453 0.0868,0.11011 0.19308,0.14402 0.10618,0.0339 0.35452,0.17188 0.55183,0.30658 0.19731,0.13472 0.35874,0.2236 0.35874,0.1975 0,-0.0261 0.0851,0.0321 0.18904,0.12922 0.10391,0.0971 0.41954,0.38106 0.70134,0.63089 0.28177,0.24982 0.51276,0.49433 0.5133,0.54334 9.4e-4,0.049 0.08,0.1632 0.17655,0.25377 0.18224,0.1709 0.3789,0.45578 0.495,0.717 0.0371,0.0834 0.10338,0.17611 0.14737,0.2063 0.0441,0.0302 0.0926,0.15716 0.10769,0.28218 0.0268,0.22081 -9.5e-4,0.22811 -0.97578,0.25598 -0.55182,0.0158 -1.20048,-0.0108 -1.44143,-0.0582 -0.75164,-0.14898 -1.08341,0.11497 -0.96214,0.76545 0.0537,0.28732 0.12641,0.35967 0.48088,0.4777 0.22973,0.0765 0.44027,0.14086 0.46788,0.14301 0.0276,0.002 0.14581,0.0576 0.26271,0.12298 0.11693,0.0655 0.24109,0.0903 0.27592,0.0553 0.0349,-0.035 0.0634,-0.0157 0.0634,0.0431 0,0.0588 0.11531,0.13592 0.25622,0.1715 0.61993,0.15653 2.50188,1.78961 2.81397,2.44186 0.0828,0.17292 0.24026,0.41141 0.35002,0.52994 0.10976,0.11853 0.17386,0.21551 0.14243,0.21551 -0.0315,0 0.10891,0.26119 0.31189,0.58041 0.20296,0.31923 0.36238,0.59177 0.35424,0.60565 -0.009,0.0139 -0.0111,0.0365 -0.006,0.0504 0.004,0.0139 0.0224,0.11609 0.0395,0.22713 0.0171,0.11103 0.0655,0.35666 0.10769,0.54583 0.0731,0.32813 0.0654,0.34082 -0.16489,0.27548 -0.13281,-0.0377 -0.6773,-0.0944 -1.21001,-0.12614 -0.92937,-0.0553 -0.97133,-0.0489 -1.03745,0.16082 -0.12899,0.40882 0.0295,0.70715 0.47907,0.90136 0.50936,0.22007 1.1741,0.92149 1.50666,1.58984 0.35792,0.7192 0.74622,1.99722 0.87191,2.8696 0.16306,1.13196 0.16368,3.5626 9.4e-4,4.26564 -0.13551,0.58588 -0.65528,1.58555 -0.85829,1.65072 -0.061,0.0196 -0.18281,-0.36223 -0.28751,-0.90157 z m -27.14794,-10.28268 c -0.72471,-0.14261 -0.72576,-0.14372 -0.50567,-0.53793 0.1082,-0.19383 0.2708,-0.60876 0.36135,-0.92207 0.13798,-0.47754 0.145,-0.64551 0.0434,-1.0387 -0.0667,-0.25797 -0.13997,-0.54214 -0.16292,-0.63148 -0.0286,-0.11129 0.20393,-0.33321 0.73813,-0.70457 1.02308,-0.71116 2.14803,-1.84198 2.40112,-2.41357 0.11061,-0.24983 0.27685,-0.62701 0.36942,-0.83816 0.11239,-0.25628 0.20971,-0.3587 0.29284,-0.30808 0.64352,0.3919 1.80477,1.23342 2.11431,1.53218 0.34794,0.33581 0.73281,0.90856 0.6513,0.96924 -0.0179,0.0133 -0.32596,0.1295 -0.68463,0.25823 -2.20382,0.79087 -3.85535,2.24472 -4.90395,4.31689 -0.11942,0.23596 -0.22749,0.42403 -0.24016,0.41793 -0.0127,-0.005 -0.22621,-0.0511 -0.47454,-0.1 z m -9.4733,-0.79736 c -0.14243,-0.3193 -0.2579,-0.64301 -0.25658,-0.71934 0.003,-0.21873 0.46861,-1.30168 0.63794,-1.48615 0.0842,-0.0918 0.43946,-0.50743 0.7895,-0.92382 0.52925,-0.62957 0.77081,-0.82506 1.43437,-1.16083 0.77198,-0.39062 0.83062,-0.40376 1.80127,-0.40376 0.8889,0 1.06627,0.0312 1.55516,0.27397 0.7465,0.37062 1.24988,0.80822 1.58034,1.37375 0.256,0.43815 0.27573,0.55181 0.27459,1.5824 -7.8e-4,0.67004 -0.0551,1.26485 -0.13684,1.49995 -0.13445,0.38631 -0.1391,0.389 -0.55059,0.32028 -0.22824,-0.0382 -1.43087,-0.10461 -2.67248,-0.14783 -2.26243,-0.0788 -2.43032,-0.0665 -3.8296,0.28065 l -0.36811,0.0912 z m -0.86096,-3.40205 c -0.49255,-0.28178 -2.26178,-1.45235 -2.51585,-1.66456 -0.50668,-0.42319 -0.62193,-1.44508 -0.22289,-1.97638 0.20342,-0.27082 0.22363,-0.27504 1.21873,-0.25441 l 1.01188,0.021 0.63031,0.50247 c 0.34668,0.27636 0.87863,0.78552 1.18213,1.1315 0.84731,0.96582 0.83322,0.93496 0.54893,1.20364 -0.22009,0.20802 -0.26432,0.21675 -0.42245,0.0835 -0.0972,-0.082 -0.47011,-0.39927 -0.82879,-0.70525 -0.84544,-0.72121 -1.20483,-0.96701 -1.5362,-1.05069 -0.20326,-0.0513 -0.2698,-0.0307 -0.2698,0.0837 0,0.17031 1.22369,1.46913 1.88723,2.00308 l 0.4324,0.34797 -0.21394,0.27361 c -0.25849,0.33064 -0.3252,0.3307 -0.90169,8e-4 z m 9.46449,-0.11502 c -0.0969,-0.15601 -0.043,-0.28989 0.33496,-0.83279 0.80885,-1.1618 1.55853,-2.91806 1.24564,-2.91806 -0.11156,0 -0.97505,0.98862 -1.76337,2.01884 -0.31859,0.41638 -0.62295,0.7442 -0.67631,0.72849 -0.19151,-0.0565 -0.98013,-0.77377 -0.98013,-0.89159 0,-0.20318 0.69453,-1.37465 1.11096,-1.87384 0.21673,-0.25979 0.39404,-0.51247 0.39404,-0.56152 0,-0.11345 0.46251,-0.53896 0.84896,-0.781 0.47345,-0.29654 1.30513,-0.26321 1.87932,0.0753 0.87528,0.51607 1.18343,1.33654 0.84086,2.23894 -0.25948,0.68362 -0.65303,1.11046 -1.92391,2.08672 -0.64178,0.493 -1.17333,0.89635 -1.18124,0.89635 -0.008,0 -0.0663,-0.0837 -0.12978,-0.18587 z m -6.72087,-2.5667 c -0.83203,-1.91857 -1.13557,-3.45552 -0.95948,-4.85823 0.13821,-1.10085 0.3042,-1.54271 0.77747,-2.06974 0.54583,-0.60784 1.20554,-0.84877 2.45852,-0.89778 l 1.05695,-0.0414 0.41638,0.43156 c 0.61039,0.6327 0.78137,1.41138 0.69473,3.16376 -0.0555,1.11983 -0.48608,4.46864 -0.58471,4.54605 -0.0174,0.0137 -0.33797,-0.0232 -0.71232,-0.082 -0.55954,-0.0878 -0.68783,-0.14341 -0.72099,-0.31264 -0.0386,-0.19671 -0.17428,-2.05602 -0.31162,-4.26874 -0.0574,-0.92492 -0.0845,-1.03465 -0.25406,-1.03465 -0.10446,0 -0.18985,0.0581 -0.18985,0.1292 0,0.0711 -0.0701,0.69563 -0.15582,1.38795 -0.0895,0.72393 -0.14725,1.87285 -0.13564,2.70411 l 0.0202,1.44537 -0.52648,0.24539 c -0.28956,0.13498 -0.53328,0.24455 -0.54159,0.24349 -0.009,-9.5e-4 -0.15756,-0.33039 -0.33166,-0.73183 z m 5.26241,-2.52161 c 0.0234,-0.34698 0.0812,-0.67257 0.12861,-0.72354 0.11699,-0.12575 0.89531,0.11518 0.89531,0.27715 0,0.11946 -0.90085,1.07728 -1.01319,1.07728 -0.0293,0 -0.034,-0.2839 -0.0108,-0.63089 z m 19.36598,-2.66819 c 0.0724,-0.0292 0.15898,-0.0256 0.19232,0.008 0.0333,0.0336 -0.026,0.0575 -0.13168,0.053 -0.1169,-0.004 -0.14066,-0.0288 -0.0607,-0.061 z"
       style="fill:#ffffff;stroke:#000000;stroke-width:0.805091;stroke-miterlimit:4;stroke-dasharray:none;stroke-opacity:1" />
  </g>
</svg>
