<?xml version="1.0" encoding="UTF-8" standalone="no"?>
<svg
   xmlns:dc="http://purl.org/dc/elements/1.1/"
   xmlns:cc="http://creativecommons.org/ns#"
   xmlns:rdf="http://www.w3.org/1999/02/22-rdf-syntax-ns#"
   xmlns:svg="http://www.w3.org/2000/svg"
   xmlns="http://www.w3.org/2000/svg"
   xmlns:sodipodi="http://sodipodi.sourceforge.net/DTD/sodipodi-0.dtd"
   xmlns:inkscape="http://www.inkscape.org/namespaces/inkscape"
   width="97mm"
   height="15mm"
   viewBox="0 0 97 15"
   version="1.1"
   id="svg8"
   inkscape:version="1.0 (4035a4fb49, 2020-05-01)"
   sodipodi:docname="Title.svg">
  <defs
     id="defs2" />
  <sodipodi:namedview
     id="base"
     pagecolor="#ffffff"
     bordercolor="#666666"
     borderopacity="1.0"
     inkscape:pageopacity="0.0"
     inkscape:pageshadow="2"
     inkscape:zoom="2"
     inkscape:cx="172.70298"
     inkscape:cy="97.63664"
     inkscape:document-units="mm"
     inkscape:current-layer="layer1"
     inkscape:document-rotation="0"
     showgrid="false"
     inkscape:window-width="1920"
     inkscape:window-height="1001"
     inkscape:window-x="-9"
     inkscape:window-y="-9"
     inkscape:window-maximized="1" />
  <metadata
     id="metadata5">
    <rdf:RDF>
      <cc:Work
         rdf:about="">
        <dc:format>image/svg+xml</dc:format>
        <dc:type
           rdf:resource="http://purl.org/dc/dcmitype/StillImage" />
        <dc:title />
      </cc:Work>
    </rdf:RDF>
  </metadata>
  <g
     inkscape:label="Layer 1"
     inkscape:groupmode="layer"
     id="layer1">
    <path
       id="path845"
       d="M 12.153103,13.421182 C 10.411148,11.62488 6.4260809,7.2793398 4.3993777,4.9660822 3.7614296,4.2379372 3.1591468,3.6421818 3.0609694,3.6421818 c -0.2507127,0 -0.00726,10.1936312 0.2472102,10.3509032 0.1010931,0.06248 0.6679968,0.16545 1.2597863,0.228825 0.7626604,0.08167 1.0759813,0.185266 1.0759813,0.355749 0,0.197839 -0.4833214,0.240523 -2.7234444,0.240523 -2.1029648,0 -2.70737573,-0.04821 -2.65291457,-0.211589 0.0387912,-0.116374 0.43655385,-0.263947 0.88391697,-0.32794 C 1.5988681,14.214661 2.0497297,14.077589 2.1534198,13.97405 2.3816083,13.746195 2.5012609,5.3827421 2.3032126,3.5038635 2.1580594,2.1268007 1.9549783,1.8991569 0.69094729,1.696595 0.29481804,1.633115 0.0559473,1.5021739 0.0559473,1.3485088 c 0,-0.1828163 0.22921163,-0.2492736 0.88899998,-0.2577551 0.48895002,-0.00629 1.14726492,-0.044906 1.46292212,-0.085824 0.3202013,-0.0415066 0.6884126,0.01969 0.8329022,0.1384282 0.1424388,0.1170528 2.4916387,2.6643024 5.2204453,5.6605545 2.7288051,2.9962517 5.0328001,5.4918186 5.1199891,5.5457056 0.09155,0.05658 0.132045,-0.170337 0.09585,-0.537064 C 13.642586,11.463282 13.573382,9.272515 13.523267,6.9441817 13.473153,4.6158484 13.408774,2.5767271 13.380201,2.412801 13.294493,1.9210658 13.006474,1.7524242 12.053783,1.6361511 11.410064,1.557587 11.14728,1.4518839 11.14728,1.2715151 c 0,-0.2134624 0.371589,-0.254 2.328296,-0.254 2.217662,0 2.879791,0.1248322 1.862704,0.3511793 -0.926693,0.2062303 -1.061369,0.2694237 -1.224735,0.5746785 -0.108289,0.2023372 -0.109232,1.6266774 -0.0027,4.0948653 0.242394,5.6166768 0.222144,9.1186098 -0.05273,9.1186098 -0.122014,0 -0.979264,-0.78105 -1.905,-1.735666 z M 28.800944,11.219848 C 27.740954,9.0544984 26.739756,7.1494984 26.576056,6.9865151 26.412358,6.8235317 26.093366,6.6901817 25.867184,6.6901817 c -0.256225,0 -0.411237,-0.097649 -0.411237,-0.2590596 0,-0.2214559 0.313387,-0.2521797 2.159,-0.2116667 2.192262,0.048123 2.601303,0.2026767 1.521463,0.5748714 -0.789083,0.2719781 -0.704264,0.6456104 0.891377,3.9266112 l 1.372125,2.821402 0.508981,-0.928413 c 0.651019,-1.187502 1.167053,-2.349876 1.167053,-2.6288031 0,-0.1199033 -0.234812,-0.8329202 -0.521807,-1.5844808 C 32.060185,7.1071092 31.996915,7.0235584 31.368806,6.8353715 31.003867,6.726033 30.70528,6.5805892 30.70528,6.5121616 c 0,-0.2561404 0.593576,-0.3299799 2.652627,-0.3299799 1.590546,0 2.099806,0.051369 2.048064,0.2065918 -0.03787,0.1136243 -0.384109,0.2850743 -0.76941,0.381 -1.036819,0.2581266 -1.080483,0.3680663 -0.640925,1.6137415 0.78145,2.214575 1.818737,4.741333 1.946414,4.741333 0.0721,0 0.344204,-0.51435 0.604678,-1.143 1.183895,-2.8573235 1.592559,-3.8780903 1.687672,-4.2154903 0.133093,-0.472125 -0.261581,-0.8623164 -1.015231,-1.003703 -0.33075,-0.062049 -0.587223,-0.2114956 -0.587223,-0.3421752 0,-0.1849425 0.375805,-0.2232881 1.852373,-0.1890048 1.018804,0.023654 1.903341,0.093977 1.965635,0.1562709 0.0623,0.062294 -0.154402,0.2251016 -0.481547,0.3617908 -0.746628,0.3119611 -1.155217,1.0048393 -2.411471,4.0893116 -1.229531,3.018863 -1.904964,4.35823 -2.155679,4.274659 -0.109076,-0.03636 -0.57097,-0.993981 -1.026429,-2.128049 -0.455461,-1.134069 -0.876884,-2.061037 -0.936496,-2.059931 -0.05961,0.0012 -0.594244,0.953605 -1.18807,2.116666 -0.593828,1.163061 -1.179222,2.114655 -1.300876,2.114655 -0.121656,0 -1.088455,-1.77165 -2.148442,-3.937 z m -8.303501,3.589137 c -1.411095,-0.346176 -2.230331,-1.071885 -2.751978,-2.437799 -0.435278,-1.139755 -0.280749,-2.9911003 0.35445,-4.2465495 1.575627,-3.1141703 6.119031,-2.8887504 6.84717,0.3397233 l 0.13453,0.5964886 h -3.134561 -3.13456 l 0.06802,1.0583336 c 0.135799,2.112907 1.267879,3.476432 3.026654,3.645428 0.953221,0.09159 2.134611,-0.275568 2.622953,-0.815181 0.37896,-0.418744 0.58716,-0.423713 0.58716,-0.014 0,0.175213 -0.24765,0.507118 -0.550333,0.737569 -1.363742,1.038291 -2.815672,1.443595 -4.069504,1.136 z M 23.229999,8.3583419 C 23.561748,8.2341597 23.609412,8.1313049 23.51378,7.74597 23.149114,6.2766155 21.261807,5.9020756 19.964052,7.0415196 19.323093,7.6042888 18.914903,8.4890232 19.245245,8.5995014 19.581812,8.7120606 22.8064,8.5169074 23.229999,8.3583419 Z m 69.064776,6.4506431 c -2.067254,-0.507148 -3.096517,-2.037982 -2.975444,-4.425403 0.118355,-2.3337976 1.318736,-3.9318148 3.284347,-4.3723169 0.957766,-0.2146401 2.330311,0.018403 2.902378,0.4927922 0.611361,0.5069738 1.239222,1.5569793 1.239222,2.0724215 v 0.4843696 h -3.067727 -3.067726 l 0.06802,1.0583336 c 0.135798,2.112907 1.267878,3.476432 3.026653,3.645428 0.953222,0.09159 2.134611,-0.275568 2.622953,-0.815181 0.351035,-0.387887 0.58716,-0.428774 0.58716,-0.101671 0,0.34977 -0.835677,1.112483 -1.697287,1.549093 -0.922262,0.467347 -2.049519,0.62631 -2.922549,0.412134 z m 2.718741,-6.4453903 c 0.316916,-0.1185638 0.365335,-0.226734 0.27411,-0.6123737 -0.450951,-1.9063479 -3.221373,-1.7971973 -4.237065,0.1669356 -0.193264,0.3737288 -0.211653,0.5425812 -0.06872,0.6309207 0.250528,0.154835 3.524644,0.0042 4.031672,-0.1854826 z M 51.998255,14.644415 c -1.95075,-0.490672 -4.002557,-2.23923 -4.675964,-3.984877 -1.603674,-4.1571503 0.832846,-8.6931554 5.226988,-9.7309425 1.476968,-0.3488231 4.608051,-0.26560085 5.926667,0.1575271 0.605366,0.1942549 1.191153,0.4122394 1.301748,0.4844101 0.110595,0.072171 0.254456,0.7202162 0.319689,1.4401009 0.136683,1.5083367 -0.05687,1.7068202 -0.609022,0.6245224 -0.793748,-1.5558746 -2.359919,-2.5329742 -4.060049,-2.5329742 -0.950411,0 -2.549464,0.3364255 -3.216495,0.6767193 C 51.345018,2.2211083 50.05845,3.6668824 49.531769,4.7905894 49.122,5.6648566 49.077946,5.947882 49.077946,7.7061817 c 0,1.8112706 0.03477,2.0183229 0.497598,2.9633333 0.636272,1.299144 2.022468,2.687325 3.240166,3.244806 0.853389,0.390694 1.107575,0.427551 2.500757,0.362604 2.686184,-0.125222 3.272592,-0.75521 3.112174,-3.343457 C 58.324712,9.2566502 58.238171,9.1543237 56.784868,8.9899011 55.499933,8.8445267 55.362162,8.6276683 56.462046,8.4817639 c 1.028629,-0.1364522 5.908566,0.067889 5.908566,0.247413 0,0.1987753 -0.478109,0.3316715 -1.193224,0.3316715 -0.88956,0 -1.008109,0.2829966 -1.008109,2.4065226 0,2.124978 -0.115033,2.334252 -1.564648,2.846468 -0.862894,0.304902 -1.516621,0.385333 -3.515352,0.432513 -1.350433,0.03188 -2.741393,-0.014 -3.091024,-0.101937 z m 12.025638,-0.02457 c -0.545837,-0.417656 -0.53775,-1.162362 0.02214,-2.038371 0.612904,-0.958961 1.571501,-1.693518 3.108249,-2.381793 l 1.143,-0.5119271 V 8.860864 c 0,-1.6509119 -0.746145,-2.4695336 -1.956664,-2.146725 -0.697296,0.1859466 -1.220741,0.7798714 -1.481702,1.681209 -0.162883,0.5625829 -0.32967,0.786804 -0.675816,0.9085377 -1.077431,0.3789121 -0.949841,-0.663343 0.248249,-2.0278936 0.742671,-0.8458539 1.682637,-1.2548074 2.894754,-1.2594251 0.878061,-0.00335 1.039713,0.054571 1.608666,0.5763446 l 0.632513,0.5800632 v 3.1029372 c 0,1.706615 0.06165,3.198186 0.136994,3.314603 0.211453,0.326713 0.815252,0.251055 1.249092,-0.156517 0.474112,-0.445404 0.544886,-0.106246 0.11314,0.542172 -0.438588,0.658696 -0.753601,0.842012 -1.446924,0.842012 -0.677178,0 -1.322302,-0.454379 -1.322302,-0.931334 0,-0.369499 -0.213218,-0.317994 -1.1854,0.286346 -0.995204,0.618653 -2.566222,0.845888 -3.087986,0.446653 z m 3.088452,-0.906449 c 0.81565,-0.414263 1.055392,-0.851363 1.143669,-2.085152 0.04591,-0.641661 0.01248,-1.210531 -0.07428,-1.264156 -0.444045,-0.274435 -2.771081,1.477559 -3.024958,2.277447 -0.166297,0.52396 0.0633,1.159644 0.47857,1.324996 0.40162,0.15992 0.797228,0.09212 1.477,-0.253135 z m 4.862141,0.647286 c 0.0464,-0.120909 0.261264,-0.219836 0.477481,-0.219836 0.861075,0 0.937087,-0.294724 0.886909,-3.438845 L 73.292612,7.8032097 72.742279,7.6455333 c -0.302684,-0.086722 -0.550334,-0.2213051 -0.550334,-0.2990732 0,-0.077768 0.298383,-0.2936189 0.663074,-0.4796705 0.36469,-0.1860499 0.827078,-0.5685993 1.02753,-0.8501075 0.592401,-0.8319516 0.849396,-0.674856 0.849396,0.5192183 v 1.0310538 l 0.530611,-0.4464795 c 1.771975,-1.491019 3.741869,-1.6251902 4.877142,-0.3321863 L 80.66772,7.3896723 81.467498,6.814745 c 1.131987,-0.8137364 1.765162,-1.0273182 2.761688,-0.9315636 1.02869,0.098843 1.650281,0.5161415 2.090513,1.4034414 0.271323,0.5468603 0.343495,1.1656805 0.423334,3.6297392 l 0.09624,2.970486 0.550334,0.162018 c 0.302683,0.08911 0.550333,0.260559 0.550333,0.381 0,0.167408 -0.498509,0.218982 -2.116667,0.218982 -2.177233,0 -2.675331,-0.17518 -1.442213,-0.507224 0.374325,-0.100796 0.757846,-0.337431 0.861852,-0.531768 0.120723,-0.225574 0.166934,-1.232672 0.129879,-2.830583 C 85.323398,8.6490229 85.266244,8.2151791 84.967954,7.7061817 84.302099,6.5699872 82.613721,6.475164 81.385971,7.5050103 l -0.542639,0.4551714 -0.115304,2.6352603 c -0.133685,3.055351 -0.06992,3.289003 0.944376,3.460367 0.418146,0.07064 0.679541,0.206787 0.679541,0.353924 0,0.194613 -0.443839,0.239115 -2.384777,0.239115 -1.821315,0 -2.368254,-0.04957 -2.314841,-0.20981 0.03847,-0.115398 0.425816,-0.310326 0.860777,-0.433177 l 0.790841,-0.223364 v -2.707899 c 0,-3.0708028 -0.138907,-3.5701482 -1.105492,-3.9740115 -0.782842,-0.3270928 -2.018525,-0.055299 -2.8447,0.6257052 L 74.731945,8.2388383 V 10.92585 c 0,2.905914 -0.0247,2.828737 1.002428,3.131949 1.185466,0.349954 0.706237,0.506325 -1.576933,0.514551 -1.79171,0.0065 -2.249617,-0.03794 -2.182954,-0.211666 z"
       style="display:inline;fill:#000000;stroke-width:0.169333" />
  </g>
</svg>
