<?xml version="1.0" encoding="UTF-8" standalone="no"?>
<svg
   xmlns:dc="http://purl.org/dc/elements/1.1/"
   xmlns:cc="http://creativecommons.org/ns#"
   xmlns:rdf="http://www.w3.org/1999/02/22-rdf-syntax-ns#"
   xmlns:svg="http://www.w3.org/2000/svg"
   xmlns="http://www.w3.org/2000/svg"
   xmlns:sodipodi="http://sodipodi.sourceforge.net/DTD/sodipodi-0.dtd"
   xmlns:inkscape="http://www.inkscape.org/namespaces/inkscape"
   width="150mm"
   height="150mm"
   viewBox="0 0 150 150"
   version="1.1"
   id="svg2704"
   inkscape:version="1.0 (4035a4fb49, 2020-05-01)"
   sodipodi:docname="create piece.svg">
  <defs
     id="defs2698" />
  <sodipodi:namedview
     fit-margin-bottom="0"
     fit-margin-right="0"
     fit-margin-left="0"
     fit-margin-top="0"
     id="base"
     pagecolor="#ffffff"
     bordercolor="#666666"
     borderopacity="1.0"
     inkscape:pageopacity="0.0"
     inkscape:pageshadow="2"
     inkscape:zoom="0.43080423"
     inkscape:cx="286.30395"
     inkscape:cy="400.81184"
     inkscape:document-units="mm"
     inkscape:current-layer="layer1"
     inkscape:document-rotation="0"
     showgrid="false"
     inkscape:window-width="1920"
     inkscape:window-height="1001"
     inkscape:window-x="-9"
     inkscape:window-y="-9"
     inkscape:window-maximized="1" />
  <metadata
     id="metadata2701">
    <rdf:RDF>
      <cc:Work
         rdf:about="">
        <dc:format>image/svg+xml</dc:format>
        <dc:type
           rdf:resource="http://purl.org/dc/dcmitype/StillImage" />
        <dc:title></dc:title>
      </cc:Work>
    </rdf:RDF>
  </metadata>
  <g
     transform="translate(-0.359897,-0.589446)"
     inkscape:label="Layer 1"
     inkscape:groupmode="layer"
     id="layer1">
    <path
       id="rect3289"
       style="fill:#000000;stroke-width:0.180548"
       d="M 0.359897,0.589446 V 150.58945 H 150.35989 V 0.589446 Z m 53.941172,12.028019 c 6.854625,0 13.131033,14.186565 7.779505,17.584192 -1.879193,1.19308 11.667618,32.169707 14.068588,32.169707 2.40095,0 15.94776,-30.976627 14.06857,-32.169707 -5.69598,-3.616314 1.04063,-17.584192 8.48068,-17.584192 7.649708,0 12.723778,13.532653 6.927138,18.474656 -2.3934,2.040504 -2.246,5.060583 0.99041,20.274493 2.0916,9.832348 4.24526,18.331161 4.78549,18.886124 0.54023,0.554966 4.16615,-1.224496 8.05779,-3.954417 4.86002,-3.409225 6.73497,-6.075361 5.98757,-8.513433 -1.80637,-5.892437 2.71933,-11.998308 8.89305,-11.998308 12.06334,0 14.5042,12.177515 3.74776,18.697049 -12.32938,7.472903 -22.73496,34.028734 -20.98169,53.546701 0.57883,6.44385 1.69567,13.81496 2.48171,16.3804 l 1.42908,4.66436 H 76.149162 31.281587 l 1.429079,-4.66436 c 2.945443,-9.61327 3.47808,-28.23648 1.031598,-36.059297 C 28.199172,80.626993 21.5134,68.909933 14.526203,64.674956 3.474415,57.976408 5.689482,45.78658 17.958442,45.78658 c 6.173719,0 10.69942,6.105871 8.893052,11.998308 -0.747406,2.438072 1.12755,5.104208 5.987572,8.513433 3.891641,2.729921 7.517551,4.509383 8.057784,3.954417 0.54023,-0.554963 2.693896,-9.053776 4.7855,-18.886124 3.2364,-15.21391 3.383789,-18.233989 0.990406,-20.274493 -6.102139,-5.202442 -0.622013,-18.474656 7.628313,-18.474656 z" />
  </g>
</svg>
