<?xml version="1.0" encoding="UTF-8" standalone="no"?>
<svg
   xmlns:dc="http://purl.org/dc/elements/1.1/"
   xmlns:cc="http://creativecommons.org/ns#"
   xmlns:rdf="http://www.w3.org/1999/02/22-rdf-syntax-ns#"
   xmlns:svg="http://www.w3.org/2000/svg"
   xmlns="http://www.w3.org/2000/svg"
   xmlns:sodipodi="http://sodipodi.sourceforge.net/DTD/sodipodi-0.dtd"
   xmlns:inkscape="http://www.inkscape.org/namespaces/inkscape"
   version="1.1"
   id="svg10"
   width="378.64001"
   height="57.080002"
   viewBox="0 0 378.64001 57.08"
   sodipodi:docname="LoadGame.svg"
   inkscape:version="1.0 (4035a4fb49, 2020-05-01)">
  <metadata
     id="metadata16">
    <rdf:RDF>
      <cc:Work
         rdf:about="">
        <dc:format>image/svg+xml</dc:format>
        <dc:type
           rdf:resource="http://purl.org/dc/dcmitype/StillImage" />
        <dc:title />
      </cc:Work>
    </rdf:RDF>
  </metadata>
  <defs
     id="defs14" />
  <sodipodi:namedview
     inkscape:document-rotation="0"
     pagecolor="#ffffff"
     bordercolor="#666666"
     borderopacity="1"
     objecttolerance="10"
     gridtolerance="10"
     guidetolerance="10"
     inkscape:pageopacity="0"
     inkscape:pageshadow="2"
     inkscape:window-width="1920"
     inkscape:window-height="1001"
     id="namedview12"
     showgrid="false"
     inkscape:zoom="1.2227571"
     inkscape:cx="261.34204"
     inkscape:cy="78.272207"
     inkscape:window-x="-9"
     inkscape:window-y="-9"
     inkscape:window-maximized="1"
     inkscape:current-layer="g18" />
  <g
     inkscape:groupmode="layer"
     inkscape:label="Image"
     id="g18">
    <path
       inkscape:export-ydpi="96"
       inkscape:export-xdpi="96"
       style="fill:#000000;stroke-width:0.64"
       d="m 63.185068,56.468478 c -10.96745,-2.15554 -16.654985,-13.98154 -11.59456,-24.10836 3.10192,-6.20749 7.9517,-9.15035 15.24104,-9.2483 5.8602,-0.0787 8.99442,0.94283 12.58241,4.1011 13.67041,12.03317 2.11651,32.86118 -16.22889,29.25556 z m 9.81163,-2.69455 c 3.88661,-2.20126 6.2395,-7.24852 6.2272,-13.35815 -0.018,-8.93716 -3.69521,-14.91442 -9.66827,-15.71557 -8.71991,-1.16959 -13.78734,4.52782 -13.73632,15.444 0.0259,5.54142 1.11137,9.07903 3.62237,11.80538 3.22072,3.49693 9.18463,4.2996 13.55502,1.82434 z m 62.340882,2.50001 c -5.82172,-2.08088 -9.41627,-6.80357 -9.98944,-13.1246 -0.72208,-7.96327 3.5869,-15.25795 10.3802,-17.57265 3.87139,-1.31912 9.54485,-1.36233 13.12279,-0.1 1.49652,0.528 2.85573,0.96 3.02048,0.96 0.16475,0 0.20054,-4.16205 0.0795,-9.24899 -0.23741,-9.9808196 -0.37873,-10.4020796 -3.88958,-11.5951066 -4.22167,-1.43457 -3.22211,-1.969625 7.34957,-3.934131 l 1.76003,-0.327058 V 27.255568 c 0,28.47732 -0.25758,26.70111 3.87226,26.70111 3.58511,0 1.3415,1.71693 -3.23021,2.47194 -5.87463,0.97017 -5.76205,0.99191 -5.76205,-1.1125 v -1.84057 l -4,1.43348 c -5.34517,1.91554 -9.82684,2.39667 -12.71355,1.36487 z m 14.80961,-3.92552 1.90394,-0.98457 -0.004,-8.46356 c -0.004,-10.04149 -0.60396,-12.69757 -3.30066,-14.61779 -2.08855,-1.48718 -7.00196,-2.28918 -9.76932,-1.59462 -3.03731,0.76232 -6.0531,4.09956 -7.16687,7.93078 -2.25283,7.74945 0.18757,14.84813 6.16899,17.94451 2.38316,1.23368 3.49993,1.42552 6.56749,1.12813 2.03282,-0.19707 4.55282,-0.80136 5.6,-1.34288 z m 209.23438,3.96999 c -3.9967,-1.12306 -7.30654,-3.81716 -9.05821,-7.37308 -1.1724,-2.37997 -1.47046,-4.04396 -1.46358,-8.17074 0.007,-4.48598 0.2663,-5.68597 1.92664,-8.93252 5.62712,-11.00295 20.28208,-12.17811 25.1992,-2.02068 2.47434,5.11129 2.83665,4.93533 -10.16229,4.93533 h -11.50781 l -0.39275,1.56488 c -0.46179,1.83992 0.61359,7.33528 1.93578,9.8921 3.41504,6.60396 12.00957,8.43226 18.5347,3.94285 3.41233,-2.34774 4.61898,-1.51653 1.9073,1.31385 -4.07721,4.2557 -11.479,6.37662 -16.91898,4.84801 z m 10.74957,-24.19137 c 2.61986,-0.97997 1.25969,-5.02264 -2.25028,-6.68822 -4.09773,-1.9445 -9.12011,-0.24746 -11.72069,3.96037 -2.20825,3.57303 -1.61615,3.93115 5.91455,3.57734 3.63903,-0.17097 7.26442,-0.55323 8.05642,-0.84949 z M 93.590328,55.346328 c -3.5088,-3.87717 1.80974,-11.35101 11.260802,-15.82417 l 4.96,-2.34755 v -4.05325 c 0,-5.20928 -1.62056,-7.45264 -5.38366,-7.45264 -3.46551,0 -5.592192,1.80665 -6.979662,5.92934 -1.25018,3.71477 -1.89379,4.41359 -4.0789,4.42887 -2.00784,0.014 -2.32242,-0.93149 -1.10838,-3.33141 3.16922,-6.26494 7.907222,-9.4588 14.031842,-9.4588 2.23266,0 4.16523,0.39408 5.174,1.05504 3.08744,2.02297 3.46476,3.74309 3.46476,15.79482 0,9.09009 0.17606,11.29953 0.95169,11.94324 1.04202,0.8648 4.16831,0.38082 4.16831,-0.64529 0,-0.34529 0.288,-0.62781 0.64,-0.62781 1.15125,0 0.67313,1.78243 -1.01689,3.7909 -1.38134,1.64162 -2.11867,1.9691 -4.43354,1.9691 -2.23739,0 -3.03428,-0.32751 -4.10312,-1.68631 -0.72954,-0.92747 -1.32645,-2.09908 -1.32645,-2.60357 0,-0.71813 -0.38211,-0.64806 -1.76,0.32273 -5.67716,3.99983 -12.225842,5.26636 -14.460802,2.79676 z m 13.439062,-4.0172 2.78174,-1.9139 v -5.08925 c 0,-2.79909 -0.216,-5.08656 -0.48,-5.08325 -1.2783,0.016 -7.21045,3.99693 -9.00981,6.04628 -2.528252,2.87952 -2.778802,6.14565 -0.590192,7.69361 1.797642,1.27143 3.660432,0.8494 7.298262,-1.65349 z m 100.06175,4.24938 c -9.73916,-2.78566 -17.13585,-11.11744 -18.45901,-20.79256 -1.04007,-7.60524 1.50025,-16.54597 6.23264,-21.93586 2.5049,-2.8529196 8.05033,-6.5991326 11.72765,-7.9226056 7.03669,-2.532518 20.76131,-2.277372 27.8185,0.517157 l 3.72022,1.473139 0.32,4.9605996 c 0.35312,5.47397 -0.34749,6.41671 -2.07556,2.7929 -1.51992,-3.1873 -4.80453,-6.6780096 -7.78385,-8.2722616 -2.18541,-1.169423 -3.63026,-1.39725 -8.70059,-1.371914 -5.12277,0.0256 -6.63419,0.286587 -9.6,1.657706 -6.77185,3.13067 -11.30722,8.6436596 -13.20813,16.0551596 -1.08748,4.24007 -0.92185,10.80322 0.38587,15.28927 1.49035,5.1126 7.77202,12.33098 12.99637,14.93438 2.75592,1.37333 4.14798,1.63087 8.75154,1.61905 3.95718,-0.0102 6.20467,-0.34571 8.10955,-1.21075 4.07829,-1.85202 4.7248,-3.23644 4.7248,-10.1176 0,-7.31308 -0.57209,-8.10736 -6.30679,-8.75616 -2.16327,-0.24475 -3.93321,-0.68159 -3.93321,-0.97077 0,-0.99822 6.61194,-1.39741 15.77089,-0.95213 10.42075,0.50663 12.47213,1.68061 4.06911,2.3287 l -2.24,0.17276 -0.3797,7.68 c -0.20882,4.224 -0.59012,8.1592 -0.84731,8.74487 -0.57163,1.30171 -5.87785,3.50278 -10.54035,4.37226 -4.73657,0.88329 -17.05062,0.70633 -20.55264,-0.29534 z m 45.85919,-0.23218 c -1.52502,-1.68513 -1.30435,-4.68972 0.54452,-7.41419 2.45787,-3.62187 4.64602,-5.3424 10.39629,-8.1745 l 5.28,-2.60049 v -4.04452 c 0,-5.19993 -1.62292,-7.44391 -5.38366,-7.44391 -3.30677,0 -5.5605,1.81507 -6.97932,5.62089 -0.63964,1.71574 -1.47899,3.5003 -1.86522,3.96568 -0.79207,0.95438 -3.79865,0.8111 -4.12851,-0.19674 -0.4314,-1.31812 4.0278,-7.66181 6.70429,-9.53754 3.51149,-2.46093 10.3959,-3.1371 13.20438,-1.29691 3.19751,2.09509 3.56804,3.73721 3.56804,15.81284 0,11.40503 0.25493,12.63978 2.60964,12.63978 0.59049,0 1.43216,-0.432 1.87036,-0.96 0.4382,-0.528 1.04946,-0.96 1.35836,-0.96 1.07924,0 0.54832,1.83762 -1.09525,3.7909 -1.38135,1.64162 -2.11868,1.9691 -4.43355,1.9691 -2.23738,0 -3.03428,-0.32751 -4.10311,-1.68631 -0.72955,-0.92747 -1.32645,-2.09908 -1.32645,-2.60357 0,-0.71813 -0.38212,-0.64806 -1.76,0.32273 -5.67716,3.99983 -12.22585,5.26636 -14.46081,2.79676 z m 13.43906,-4.0172 2.78175,-1.9139 v -5.08925 c 0,-2.79909 -0.216,-5.08656 -0.48,-5.08325 -1.27831,0.016 -7.21046,3.99693 -9.00982,6.04628 -2.73409,3.11396 -2.92899,5.60169 -0.5944,7.58709 1.69096,1.43804 3.5302,1.04841 7.30247,-1.54697 z M 0.0234495,55.281508 c 0.202323,-0.32736 1.903071,-0.78701 3.779441,-1.02145 1.876369,-0.23444 3.815829,-0.67587 4.309911,-0.98095 0.737591,-0.45545 0.931168,-4.56077 1.081844,-22.94344 0.207402,-25.3032946 0.65717,-23.1986596 -5.143513,-24.0684496 -6.36917,-0.955026 -2.576183,-1.590497 9.4933315,-1.590497 9.740576,0 12.474605,0.178261 12.269766,0.8 -0.159961,0.48552 -1.921664,0.925792 -4.481549,1.119997 -2.319891,0.176 -4.355059,0.464 -4.522605,0.64 -0.534694,0.56168 -0.675494,7.5051896 -0.555731,27.4050496 l 0.116787,19.40506 9.862855,-0.20506 9.862855,-0.20505 2.457145,-1.9661 c 2.236935,-1.78989 6.073428,-6.72668 6.791188,-8.73888 0.159897,-0.44826 0.476537,-0.64463 0.703648,-0.43637 0.22711,0.20825 -0.0863,3.30425 -0.69648,6.88 l -1.109408,6.50135 H 21.949264 c -13.5810225,0 -22.1499095,-0.23261 -21.9258145,-0.59521 z M 283.43619,55.001568 c 0.10545,-0.31636 1.17523,-0.89688 2.37729,-1.29003 2.80877,-0.91864 3.073,-1.94812 3.05814,-11.91482 -0.0157,-10.51113 -0.27943,-11.63692 -2.90273,-12.38927 -2.62766,-0.7536 -2.62706,-1.43791 0.003,-2.56582 1.144,-0.49076 3.0725,-1.93462 4.28555,-3.20859 1.21305,-1.27397 2.43705,-2.31632 2.72,-2.31632 0.28295,0 0.51445,1.72609 0.51445,3.83575 v 3.83574 l 4.13846,-2.8333 c 6.75884,-4.62729 13.08266,-4.59015 16.84435,0.0989 l 1.89069,2.3568 2.16325,-1.8259 c 4.43082,-3.73985 10.70394,-5.27133 14.20533,-3.46801 2.13449,1.09933 4.33501,3.2631 5.12562,5.04002 0.39155,0.88 0.86499,6.75897 1.0521,13.06438 l 0.3402,11.46438 2.20136,0.73971 c 1.21076,0.40685 2.31476,1.07988 2.45334,1.49562 0.18458,0.55469 -1.90631,0.75591 -7.85501,0.75591 -5.92975,0 -8.03929,-0.20215 -7.85574,-0.75279 0.13801,-0.41403 1.38601,-1.07095 2.77334,-1.45981 l 2.5224,-0.70704 0.17616,-10.04206 c 0.19463,-11.09518 -0.34461,-13.59079 -3.36412,-15.56926 -3.3347,-2.18498 -9.08595,-1.04462 -12.34798,2.44837 -1.41158,1.51152 -1.45058,1.88777 -1.28,12.35081 l 0.17594,10.79178 2.75428,0.67 c 5.22638,1.27136 3.27251,1.94483 -6.17359,2.12793 -7.11329,0.13789 -9.11939,-0.002 -8.91306,-0.62082 0.14643,-0.4393 1.47998,-1.09537 2.96343,-1.45792 1.48346,-0.36255 2.96993,-1.09119 3.30327,-1.61919 0.9733,-1.54168 0.77436,-18.24979 -0.246,-20.66055 -1.44769,-3.42037 -3.30558,-4.63306 -6.92634,-4.52098 -3.83353,0.11868 -8.8429,2.92183 -9.73019,5.44484 -0.34955,0.99394 -0.35251,5.46257 -0.007,11.16019 l 0.57558,9.5025 2.72,0.53466 c 1.496,0.29407 2.71974,0.87773 2.71942,1.297 -4.2e-4,0.55016 -2.31705,0.76513 -8.32334,0.77238 -4.64398,0.006 -8.23802,-0.24423 -8.13103,-0.56519 z"
       id="path22" />
  </g>
</svg>
