<?xml version="1.0" encoding="UTF-8" standalone="no"?>
<svg
   xmlns:dc="http://purl.org/dc/elements/1.1/"
   xmlns:cc="http://creativecommons.org/ns#"
   xmlns:rdf="http://www.w3.org/1999/02/22-rdf-syntax-ns#"
   xmlns:svg="http://www.w3.org/2000/svg"
   xmlns="http://www.w3.org/2000/svg"
   xmlns:sodipodi="http://sodipodi.sourceforge.net/DTD/sodipodi-0.dtd"
   xmlns:inkscape="http://www.inkscape.org/namespaces/inkscape"
   inkscape:version="1.0 (4035a4fb49, 2020-05-01)"
   sodipodi:docname="mobile-title.svg"
   id="svg1468"
   version="1.1"
   viewBox="0 0 224.08446 199.91455"
   height="199.91455"
   width="224.08446">
  <metadata
     id="metadata1474">
    <rdf:RDF>
      <cc:Work
         rdf:about="">
        <dc:format>image/svg+xml</dc:format>
        <dc:type
           rdf:resource="http://purl.org/dc/dcmitype/StillImage" />
        <dc:title></dc:title>
      </cc:Work>
    </rdf:RDF>
  </metadata>
  <defs
     id="defs1472" />
  <sodipodi:namedview
     fit-margin-bottom="0"
     fit-margin-right="0"
     fit-margin-left="0"
     fit-margin-top="0"
     inkscape:current-layer="svg1468"
     inkscape:window-maximized="1"
     inkscape:window-y="-9"
     inkscape:window-x="-9"
     inkscape:cy="98.3385"
     inkscape:cx="80.092082"
     inkscape:zoom="3.5319149"
     showgrid="false"
     id="namedview1470"
     inkscape:window-height="1001"
     inkscape:window-width="1920"
     inkscape:pageshadow="2"
     inkscape:pageopacity="0"
     guidetolerance="10"
     gridtolerance="10"
     objecttolerance="10"
     borderopacity="1"
     bordercolor="#666666"
     pagecolor="#ffffff" />
  <g
     transform="translate(-10.334867,-15.937569)"
     style="font-size:75px;font-family:Garamond"
     id="Chess_King_s_Council"
     aria-label="ChessKing'sCouncil">
    <path
       id="path2058"
       d="m 51.606839,19.892647 q 0.439453,2.819824 0.439453,5.786133 0,0.585937 -0.03662,1.574707 -0.512695,0.109863 -0.769043,0.109863 -0.219726,0 -0.622558,-0.07324 -1.538086,-4.284668 -5.01709,-6.591797 -3.479004,-2.307129 -8.605957,-2.307129 -2.709961,0 -4.577637,0.622559 -3.295898,1.135253 -5.786133,3.149414 -2.490234,1.977539 -4.211426,4.760742 -1.721191,2.746582 -2.746582,6.70166 -0.988769,3.918457 -0.988769,8.020019 0,7.836915 2.380371,12.963868 2.380371,5.090332 6.518555,7.287597 4.138183,2.160645 8.349609,2.160645 l 1.721191,-0.03662 q 2.929688,-0.366211 3.9917,-0.695801 2.67334,-0.769043 4.394531,-1.794434 1.757812,-1.062011 3.405762,-2.966308 1.68457,-1.904297 2.856445,-4.431153 l 0.439453,-0.146484 q 0.183106,0 0.549316,0.219727 -0.03662,0.878906 -0.07324,1.135254 -1.538086,6.188964 -2.233886,8.459472 -0.585938,0.146485 -1.464844,0.439453 -4.284668,1.464844 -11.462403,1.464844 -5.786132,0 -8.679199,-0.805664 -2.856445,-0.769043 -6.262207,-2.416992 -3.36914,-1.68457 -5.932617,-4.431153 -2.563477,-2.746582 -4.138184,-6.921386 -1.574707,-4.211426 -1.574707,-9.155274 0,-4.6875 1.245118,-8.166504 1.245117,-3.515625 3.845214,-7.104492 2.600098,-3.588867 6.115723,-5.969238 3.552246,-2.380371 7.873535,-3.369141 3.039551,-0.659179 8.605957,-0.659179 4.064942,0 7.653809,1.098632 3.588867,1.062012 4.797363,2.087403 z" />
    <path
       id="path2060"
       d="m 57.209867,63.837959 q 4.284667,-0.769043 4.943847,-1.171875 0.402832,-0.256347 0.402832,-1.171875 l -0.03662,-2.416992 0.03662,-4.284668 -0.07324,-10.913086 0.03662,-4.064941 v -2.893067 l 0.109863,-3.552246 q 0,-8.349609 -0.183105,-9.960937 -0.146484,-1.647949 -0.622559,-2.050781 -0.878906,-0.842286 -4.833984,-1.757813 v -0.183105 q 0,-0.256348 0.07324,-0.732422 0.512695,-0.07324 0.98877,-0.183106 0.476074,-0.109863 0.915527,-0.146484 4.35791,-1.245117 6.335449,-2.416992 h 1.794434 q 0.07324,1.02539 0.07324,6.481933 l -0.03662,4.650879 0.03662,6.00586 -0.146484,7.39746 q 0,0.65918 0.07324,1.464844 2.307129,-2.67334 3.36914,-3.552246 1.904297,-1.538086 4.064942,-2.416992 2.160644,-0.915527 4.541015,-0.915527 4.504395,0 7.36084,3.808593 1.64795,2.233887 1.64795,6.33545 l -0.109864,3.735351 0.03662,2.087402 -0.146484,3.625489 q -0.146484,4.504394 -0.146484,5.346679 0,0.952149 0.07324,2.563477 l 2.087402,0.476074 q 2.087402,0.439453 3.222656,0.805664 l -0.03662,1.135254 -7.800293,-0.219726 q -0.659179,0 -3.588867,0.146484 -1.794433,0.07324 -2.087402,0.07324 h -0.805664 q -0.183106,-0.32959 -0.183106,-0.549316 v -0.32959 q 0.512696,-0.65918 1.904297,-0.878906 l 2.197266,-0.512696 q 0.439453,-0.366211 0.512695,-0.769043 0.146484,-0.952148 0.32959,-9.448242 l 0.07324,-2.709961 q 0.146484,-4.284668 -0.65918,-7.104492 -0.512695,-1.940918 -2.34375,-3.076172 -1.794433,-1.171875 -4.174804,-1.171875 -1.977539,0 -3.735352,0.842285 -1.208496,0.622559 -2.893066,2.160645 -1.684571,1.538086 -2.34375,2.636719 -0.439453,0.732422 -0.439453,2.416992 l 0.03662,2.563476 -0.07324,2.67334 q 0,0.32959 0.109863,4.577637 l -0.03662,2.34375 0.07324,2.563477 q 0.03662,0.549316 0.109863,0.805664 l 5.163574,1.245117 q 0.402832,0.109863 1.208497,0.439453 l 0.109863,0.402832 q 0,0.183105 -0.183106,0.585937 -1.062011,0.03662 -1.611328,0.03662 l -2.856445,-0.03662 -6.298828,0.07324 -4.724121,0.146484 q -0.366211,-0.03662 -1.098633,-0.07324 l -0.03662,-0.256348 q 0,-0.292969 0.292969,-0.732422 z" />
    <path
       id="path2062"
       d="m 123.05459,45.380928 -14.68506,0.109863 h -2.7832 q -1.68457,0 -3.44238,0.146485 -0.32959,1.098633 -0.32959,1.501465 l 0.0366,0.36621 v 0.366211 l -0.0366,1.794434 q 0,2.233887 1.3916,5.493164 1.42822,3.222656 4.02832,4.943848 2.63672,1.68457 6.55518,1.794433 2.0874,-0.109863 3.33252,-0.512695 1.24511,-0.402832 3.51562,-1.867676 l 2.63672,-2.160644 0.21973,1.464843 q 0,0.256348 -0.0366,0.549317 -1.64795,2.087402 -4.17481,3.662109 -2.52686,1.574707 -5.12695,2.307129 -1.24512,0.32959 -4.10157,0.32959 -2.60009,0 -5.12695,-1.062012 -3.73535,-1.611328 -5.895994,-5.163574 -2.124024,-3.588867 -2.124024,-8.679199 0,-1.611328 0.585938,-4.138184 0.622558,-2.526855 2.197265,-5.383301 1.062015,-1.940918 2.600095,-3.186035 2.19727,-1.757812 3.84522,-2.453613 2.38037,-0.98877 5.52978,-0.98877 3.40576,0 5.56641,1.245118 2.92969,1.647949 4.35791,4.248047 1.46484,2.600097 1.46484,4.760742 z m -20.43457,-1.318359 h 1.72119 q 1.86768,0 11.13282,-0.585938 1.46484,-0.07324 1.79443,-0.292969 0.65918,-0.6958 0.65918,-1.245117 0,-1.135254 -0.73242,-2.563476 -0.73242,-1.464844 -2.27051,-2.233887 -1.50146,-0.805664 -3.51562,-0.805664 -4.24805,0 -6.81153,3.186035 -1.97754,2.416992 -1.97754,4.541016 z" />
    <path
       id="path2064"
       d="m 130.56192,55.415108 q 1.35498,3.479004 2.05078,4.504394 1.3916,2.087403 3.33252,3.259278 1.94092,1.135254 4.21142,1.135254 2.08741,0 4.13819,-1.794434 1.46484,-1.354981 1.46484,-3.149414 0,-2.380371 -1.72119,-4.394531 -1.72119,-1.977539 -6.55518,-3.771973 -4.79736,-1.831055 -6.44531,-3.881836 -1.64795,-2.050781 -1.64795,-4.6875 0,-2.490234 1.35498,-4.394531 1.35498,-1.904297 3.73535,-2.856446 2.38038,-0.988769 4.39454,-0.988769 2.60009,0 4.65087,0.402832 2.08741,0.402832 3.58887,1.245117 0.29297,1.867676 0.47608,5.493164 l 0.0732,1.171875 q -0.47608,0.03662 -0.80567,0.03662 h -0.51269 q -1.09863,-3.03955 -3.36914,-4.797363 -2.23389,-1.794434 -4.43115,-1.794434 -2.19727,0 -3.55225,1.354981 -1.35498,1.318359 -1.35498,3.479004 0,1.647949 1.09863,2.929687 1.09863,1.281739 5.12696,2.929688 4.06494,1.647949 5.89599,3.076172 1.86768,1.391601 2.74658,3.405761 0.87891,2.014161 0.87891,3.845215 0,2.526856 -1.68457,4.724121 -1.64795,2.197266 -4.17481,3.076172 -2.49023,0.915528 -4.46777,0.915528 -4.65088,0 -8.56933,-1.721192 -0.36622,-0.292969 -0.40284,-1.098633 0,-0.32959 -0.0732,-1.062011 -0.58594,-4.943848 -0.58594,-5.859375 0,-0.439454 0.18311,-0.585938 0.1831,-0.146484 0.95215,-0.146484 z" />
    <path
       id="path2066"
       d="m 157.9545,55.415108 q 1.35498,3.479004 2.05078,4.504394 1.3916,2.087403 3.33252,3.259278 1.94091,1.135254 4.21142,1.135254 2.0874,0 4.13819,-1.794434 1.46484,-1.354981 1.46484,-3.149414 0,-2.380371 -1.72119,-4.394531 -1.72119,-1.977539 -6.55518,-3.771973 -4.79736,-1.831055 -6.44531,-3.881836 -1.64795,-2.050781 -1.64795,-4.6875 0,-2.490234 1.35498,-4.394531 1.35498,-1.904297 3.73535,-2.856446 2.38037,-0.988769 4.39453,-0.988769 2.6001,0 4.65088,0.402832 2.0874,0.402832 3.58887,1.245117 0.29297,1.867676 0.47607,5.493164 l 0.0732,1.171875 q -0.47608,0.03662 -0.80567,0.03662 h -0.51269 q -1.09864,-3.03955 -3.36914,-4.797363 -2.23389,-1.794434 -4.43116,-1.794434 -2.19726,0 -3.55224,1.354981 -1.35498,1.318359 -1.35498,3.479004 0,1.647949 1.09863,2.929687 1.09863,1.281739 5.12695,2.929688 4.06494,1.647949 5.896,3.076172 1.86768,1.391601 2.74658,3.405761 0.87891,2.014161 0.87891,3.845215 0,2.526856 -1.68457,4.724121 -1.64795,2.197266 -4.17481,3.076172 -2.49023,0.915528 -4.46777,0.915528 -4.65088,0 -8.56934,-1.721192 -0.36621,-0.292969 -0.40283,-1.098633 0,-0.32959 -0.0732,-1.062011 -0.58594,-4.943848 -0.58594,-5.859375 0,-0.439454 0.18311,-0.585938 0.1831,-0.146484 0.95215,-0.146484 z" />
    <path
       id="path2068"
       d="m 24.470609,116.24274 q 0.439453,-0.40284 1.464843,-1.02539 2.050782,-1.24512 7.067872,-4.98047 l 10.034179,-8.20313 q 4.138184,-3.44238 5.822754,-5.419919 0.32959,-0.439454 0.512695,-0.915528 -0.659179,-0.476074 -1.501464,-0.695801 -0.842286,-0.219726 -2.67334,-0.329589 -1.831055,-0.109864 -2.197266,-0.32959 -0.32959,-0.256348 -0.32959,-0.622559 0,-0.402832 0.256348,-0.622558 0.476074,-0.32959 1.35498,-0.32959 1.391602,0 2.416993,0.219726 1.02539,0.183106 4.650879,0.183106 0.878906,0 1.281738,-0.03662 l 5.71289,-0.292969 q 0.878907,-0.07324 1.354981,-0.07324 0.439453,0 1.318359,0.07324 0,0.878906 -0.146484,1.428223 -3.955078,0.476074 -5.822754,1.208496 -1.062012,0.439453 -4.321289,2.416992 -2.453613,1.501465 -4.467774,3.22266 l -9.448242,7.94677 -5.71289,4.61426 q 0.146484,0.25635 0.439453,0.5127 0.219726,0.1831 1.098633,1.02539 3.845214,3.58886 10.363769,8.82568 6.555176,5.2002 10.253906,8.71582 5.419922,5.2002 10.217286,5.74951 1.171875,0.14649 1.68457,0.65918 l 0.03662,0.40283 -0.07324,0.5127 q -1.245117,0.0732 -1.684571,0.0732 -1.68457,0 -5.090332,-0.25635 -2.01416,-0.14648 -3.332519,-0.14648 -5.273438,0 -12.04834,0.43945 -0.109863,-0.51269 -0.109863,-0.76904 l 0.03662,-0.29297 q 0.476074,-0.43945 1.904297,-0.80566 1.977539,-0.5127 4.174804,-0.58594 0.476075,0 1.025391,-0.0732 -0.366211,-0.58594 -1.208496,-1.35498 -0.146484,-0.14649 -0.98877,-0.95215 -0.842285,-0.84229 -2.966308,-2.70996 l -4.35791,-3.47901 -6.70166,-5.63965 q -3.33252,-2.85644 -9.301758,-7.28759 z m -14.135742,22.99804 q 0.183105,-0.36621 0.549316,-0.40283 3.69873,-0.32959 5.822754,-1.31836 0.732422,-0.65918 0.732422,-2.19726 l -0.03662,-3.58887 v -6.81152 l 0.07324,-2.96631 -0.219727,-10.18067 0.07324,-6.84814 q 0,-5.786134 -0.219726,-7.727052 -0.07324,-0.732422 -0.476074,-1.501465 -0.65918,-0.402832 -1.098633,-0.476074 -1.574707,-0.256348 -4.064942,-0.402832 -0.512695,-0.366211 -0.512695,-0.878906 0,-0.183106 0.146484,-0.549317 2.050782,-0.109863 7.250977,-0.109863 2.416992,0 3.808594,-0.03662 1.977539,-0.109863 4.760742,-0.32959 1.208496,0.109863 2.856445,0.109863 0.402832,0.219727 0.402832,0.512696 0,0.219726 -0.07324,0.476074 -0.439453,0.219726 -1.647949,0.366211 -3.186035,0.32959 -4.321289,1.391601 -0.769043,0.732422 -0.769043,2.783204 l 0.03662,0.6958 -0.07324,13.76953 -0.109863,9.48486 0.256347,9.41162 q 0.03662,4.46778 0.219727,4.94385 0.183105,0.43946 0.585937,0.6958 1.281739,0.76905 3.918457,1.02539 0.65918,0.0733 1.281739,0.25635 0.219726,0.47608 0.219726,0.80567 0,0.36621 -0.439453,0.6958 l -1.171875,0.0366 q -0.732422,0 -3.515625,-0.25635 -2.783203,-0.25635 -4.138184,-0.25635 -1.135254,0 -3.149414,0.25635 -2.01416,0.25635 -5.493164,0.25635 -0.512695,0 -1.391601,-0.0366 z" />
    <path
       sodipodi:nodetypes="cccccccscccccccsccscccsccccsccsc"
       id="path2070"
       d="m 65.852445,113.67926 0.03662,-1.06201 c 1.586914,-0.46387 2.441406,-0.73242 2.563476,-0.80567 0.878907,-0.39062 1.794434,-0.98876 2.746582,-1.79443 0.976563,-0.80567 1.794434,-1.70899 2.453614,-2.70996 0.292969,-0.0488 0.524902,-0.0732 0.6958,-0.0732 l 0.439454,0.0366 c 0.09766,1.17187 0.146484,2.02637 0.146484,2.56348 0,0.12207 -0.02441,0.67138 -0.07324,1.64794 v 1.94092 l 0.03662,10.54688 -0.109863,11.16943 c -0.02441,0.90332 0.122071,1.53809 0.439453,1.9043 0.317383,0.34179 1.257324,0.73242 2.819824,1.17187 0.976563,0.26856 1.708984,0.50049 2.197265,0.6958 0.07324,0.1709 0.109864,0.31739 0.109864,0.43946 0,0.14648 -0.06104,0.32958 -0.183106,0.54931 -0.952148,-0.0244 -2.172851,-0.0854 -3.662109,-0.1831 -2.026367,-0.1709 -3.369141,-0.25635 -4.02832,-0.25635 -0.317383,0 -2.270508,0.061 -5.859375,0.18311 -0.732422,0.0244 -1.44043,0.0854 -2.124024,0.1831 -0.12207,0 -0.317382,-0.0366 -0.585937,-0.10986 -0.122071,-0.1709 -0.183106,-0.31739 -0.183106,-0.43946 0,-0.34179 0.231934,-0.61035 0.695801,-0.80566 0.09766,-0.0488 1.342773,-0.32956 3.735352,-0.84228 0.78125,-0.14649 1.293945,-0.39063 1.538085,-0.73243 0.415039,-0.51269 0.622559,-1.33056 0.622559,-2.45361 0.04883,-1.87988 0.07324,-7.03125 0.07324,-15.4541 0,-1.68457 -0.07324,-2.73438 -0.219726,-3.14942 -0.122071,-0.29297 -0.451661,-0.62255 -0.98877,-0.98876 -0.512695,-0.39063 -1.623535,-0.78125 -3.332519,-1.17188 z" />
    <path
       id="path2072"
       d="m 82.258695,138.54498 q 0.915527,-0.25634 2.124023,-0.43945 2.307129,-0.32959 2.746582,-0.76904 0.476074,-0.43946 0.476074,-2.01416 l 0.07324,-1.31836 q 0.03662,-0.73242 0.03662,-1.86768 l -0.07324,-11.24267 q 0,-2.27051 -0.585937,-2.92969 -0.98877,-1.02539 -3.662109,-1.42822 v -1.31836 q 2.673339,-0.73243 4.101562,-1.9043 2.087402,-1.64795 3.515625,-4.46777 l 1.245117,0.0366 q 0.109864,1.72119 0.109864,2.45361 v 2.41699 l 0.03662,0.65918 q 0.439453,-0.29297 1.02539,-0.73242 2.197266,-1.64795 4.504395,-2.67334 2.307129,-1.06201 4.101569,-1.46484 1.13525,-0.29297 2.56347,-0.29297 3.00293,0 5.16358,1.61133 2.16064,1.61132 2.7832,3.80859 0.65918,2.16064 0.65918,8.64258 v 5.52978 q 0,0.21973 -0.0732,1.46485 -0.0366,1.24511 -0.0366,2.85644 0,2.56348 0.21972,3.25928 0.18311,0.47607 0.95215,0.95215 3.51563,0.47607 4.10156,1.13525 v 0.29297 q 0,0.36621 -0.21972,0.91553 h -0.6958 l -4.83399,-0.0366 -4.76074,0.0732 q -2.63672,0.0732 -4.87061,-0.0366 l -0.21972,-0.76905 q 0,-0.21972 0.25634,-0.58593 0.98877,-0.43946 2.78321,-0.58594 1.06201,-0.0732 1.46484,-0.21973 0.40283,-0.14648 0.98877,-0.58593 0.43945,-0.87891 0.43945,-1.46485 0,-0.25635 -0.0732,-1.02539 -0.10986,-1.68457 -0.14648,-8.38623 v -1.9043 l 0.0732,-2.92968 q 0,-4.72412 -1.9043,-6.51856 -1.90429,-1.79443 -5.09033,-1.79443 -2.453614,0 -4.797364,1.09863 -2.34375,1.06201 -4.541016,3.22266 -0.07324,1.75781 -0.07324,3.00293 l 0.109863,8.09326 q 0,6.33545 0.183106,7.76367 0.07324,0.58594 0.256347,0.80566 0.292969,0.29297 1.171875,0.47608 0.878907,0.1831 2.014161,0.51269 1.171875,0.32959 1.538085,0.40284 0.732422,0.1831 0.98877,0.73242 l -0.03662,0.73242 h -3.845215 l -7.910156,-0.10986 q -2.746582,0.0732 -3.479004,0.0732 h -0.915527 l -0.07324,-0.47608 q 0,-0.25634 0.109864,-0.73242 z" />
    <path
       id="path2074"
       d="m 128.98721,142.13385 q -0.43945,-0.21973 -2.81982,-1.2085 -2.78321,-1.79443 -3.51563,-2.67334 -0.73242,-0.8789 -0.73242,-1.94091 0,-0.95215 0.54932,-1.53809 0.80566,-0.84228 3.18603,-1.61133 2.38037,-0.76904 3.91846,-1.50146 -0.47608,-0.32959 -1.50147,-0.95215 -5.45654,-3.36914 -5.45654,-9.33838 0,-4.90723 3.44238,-8.27637 3.47901,-3.40576 8.89893,-3.40576 2.45361,0 4.50439,0.6958 1.17188,0.36621 3.47901,1.83106 1.46484,0.91552 1.72119,1.02539 0.58594,0.1831 1.31836,0.1831 0.62256,0 3.00293,-0.29297 2.41699,-0.32959 2.85644,-0.32959 0.84229,0 1.3916,0.32959 0.43946,0.73243 0.43946,2.45362 0,0.58593 -0.32959,0.8789 -0.29297,0.29297 -0.87891,0.29297 -1.02539,0 -3.40576,-0.62256 -2.34375,-0.65918 -2.85645,-0.65918 -0.1831,0 -0.6958,0.0733 1.57471,3.14941 1.57471,5.74951 0,2.6001 -1.64795,5.3833 -1.64795,2.7832 -4.54101,4.24805 -2.89307,1.46484 -5.85938,1.46484 -0.21973,0 -1.24512,-0.0366 -3.36914,0 -6.18896,1.68457 -1.35498,0.84228 -1.35498,1.57471 0,0.76904 1.31836,1.50146 3.479,1.86768 13.18359,2.16064 4.21143,0.14649 6.55518,1.2085 2.34375,1.06201 3.51562,3.11279 1.2085,2.08741 1.2085,4.28467 0,2.96631 -2.01416,5.49317 -2.01416,2.52685 -6.11572,4.10156 -4.10157,1.57471 -9.41163,1.57471 -5.85937,0 -9.04541,-1.42823 -3.18603,-1.42822 -4.54101,-3.11279 -1.31836,-1.68457 -1.31836,-3.33252 0,-1.42822 1.46484,-3.58887 1.46485,-2.12402 6.0791,-4.46777 1.35498,-0.6958 1.86768,-0.98877 z m -1.46484,-20.91064 q 0,3.29589 0.98877,5.52978 0.98877,2.19727 2.70996,3.2959 1.72119,1.06201 3.479,1.06201 3.18604,0 5.27344,-2.41699 2.12402,-2.45361 2.12402,-7.43408 0,-5.01709 -2.19726,-7.61719 -2.19727,-2.63672 -5.31006,-2.63672 -3.47901,0 -5.27344,2.49023 -1.79443,2.49024 -1.79443,7.72706 z m -1.2085,33.91113 q 3.33252,2.56347 8.42285,2.56347 3.62549,0 7.21436,-1.17187 3.62549,-1.13525 5.27343,-3.2959 1.68458,-2.12402 1.68458,-4.02832 0,-1.17187 -0.58594,-2.34375 -0.58594,-1.13525 -1.61133,-1.9043 -0.98877,-0.73242 -2.63672,-1.17187 -1.17187,-0.32959 -3.33252,-0.47607 -6.15234,-0.47608 -7.54394,-0.47608 -3.91846,0 -6.99463,2.63672 -2.38037,2.05078 -2.38037,4.90723 0,2.63671 2.49023,4.76074 z" />
    <path
       id="path2076"
       d="m 158.43057,110.31012 -1.97754,-10.839844 q -0.84228,-4.504395 -0.84228,-6.079102 0,-2.34375 0.95214,-3.405761 0.95215,-1.062012 2.6001,-1.062012 1.64795,0 2.70996,1.098633 1.09864,1.062011 1.09864,2.746582 0,1.464843 -0.95215,6.738281 l -1.97754,10.803223 z" />
    <path
       id="path2078"
       d="m 171.28457,130.4151 q 1.35498,3.479 2.05078,4.50439 1.39161,2.08741 3.33252,3.25928 1.94092,1.13526 4.21143,1.13526 2.0874,0 4.13818,-1.79444 1.46485,-1.35498 1.46485,-3.14941 0,-2.38037 -1.72119,-4.39453 -1.7212,-1.97754 -6.55518,-3.77198 -4.79736,-1.83105 -6.44531,-3.88183 -1.64795,-2.05078 -1.64795,-4.6875 0,-2.49024 1.35498,-4.39453 1.35498,-1.9043 3.73535,-2.85645 2.38037,-0.98877 4.39453,-0.98877 2.6001,0 4.65088,0.40283 2.0874,0.40284 3.58887,1.24512 0.29297,1.86768 0.47607,5.49317 l 0.0732,1.17187 q -0.47607,0.0366 -0.80566,0.0366 h -0.5127 q -1.09863,-3.03955 -3.36914,-4.79736 -2.23388,-1.79444 -4.43115,-1.79444 -2.19726,0 -3.55224,1.35499 -1.35498,1.31835 -1.35498,3.479 0,1.64795 1.09863,2.92969 1.09863,1.28173 5.12695,2.92968 4.06494,1.64795 5.896,3.07618 1.86767,1.3916 2.74658,3.40576 0.87891,2.01416 0.87891,3.84521 0,2.52686 -1.68457,4.72412 -1.64795,2.19727 -4.17481,3.07618 -2.49023,0.91552 -4.46777,0.91552 -4.65088,0 -8.56934,-1.72119 -0.36621,-0.29297 -0.40283,-1.09863 0,-0.32959 -0.0732,-1.06201 -0.58594,-4.94385 -0.58594,-5.85938 0,-0.43945 0.18311,-0.58594 0.1831,-0.14648 0.95214,-0.14648 z" />
    <path
       id="path2080"
       d="m 51.606839,169.89265 q 0.439453,2.81982 0.439453,5.78613 0,0.58594 -0.03662,1.57471 -0.512695,0.10986 -0.769043,0.10986 -0.219726,0 -0.622558,-0.0732 -1.538086,-4.28467 -5.01709,-6.5918 -3.479004,-2.30713 -8.605957,-2.30713 -2.709961,0 -4.577637,0.62256 -3.295898,1.13525 -5.786133,3.14941 -2.490234,1.97754 -4.211426,4.76075 -1.721191,2.74658 -2.746582,6.70166 -0.988769,3.91845 -0.988769,8.02002 0,7.83691 2.380371,12.96386 2.380371,5.09034 6.518555,7.2876 4.138183,2.16065 8.349609,2.16065 l 1.721191,-0.0366 q 2.929688,-0.36621 3.9917,-0.6958 2.67334,-0.76904 4.394531,-1.79443 1.757812,-1.06201 3.405762,-2.96631 1.68457,-1.9043 2.856445,-4.43115 l 0.439453,-0.14648 q 0.183106,0 0.549316,0.21972 -0.03662,0.87891 -0.07324,1.13526 -1.538086,6.18896 -2.233886,8.45947 -0.585938,0.14648 -1.464844,0.43945 -4.284668,1.46485 -11.462403,1.46485 -5.786132,0 -8.679199,-0.80567 -2.856445,-0.76904 -6.262207,-2.41699 -3.36914,-1.68457 -5.932617,-4.43115 -2.563477,-2.74659 -4.138184,-6.92139 -1.574707,-4.21143 -1.574707,-9.15527 0,-4.6875 1.245118,-8.16651 1.245117,-3.51562 3.845214,-7.10449 2.600098,-3.58887 6.115723,-5.96924 3.552246,-2.38037 7.873535,-3.36914 3.039551,-0.65918 8.605957,-0.65918 4.064942,0 7.653809,1.09863 3.588867,1.06202 4.797363,2.08741 z" />
    <path
       id="path2082"
       d="m 58.491605,199.99519 q 0,-2.49024 1.02539,-5.31006 1.062012,-2.85645 3.186036,-5.09033 2.124023,-2.27051 4.504394,-3.36915 3.33252,-1.53808 8.129883,-1.53808 6.848144,0 11.425781,4.6875 4.614258,4.6875 4.614258,11.2793 0,5.85937 -4.833984,10.47363 -4.797364,4.57764 -12.158204,4.57764 -4.541015,0 -8.569335,-2.38038 -3.00293,-1.79443 -5.163575,-5.31005 -2.160644,-3.51563 -2.160644,-8.02002 z m 16.186523,14.28222 q 2.783203,0 5.34668,-1.50146 2.600098,-1.50147 4.138184,-4.79737 1.538085,-3.33252 1.538085,-7.69043 0,-2.85644 -1.208496,-6.62841 -1.171875,-3.77198 -3.662109,-5.63965 -2.453613,-1.9043 -5.786133,-1.9043 -2.416992,0 -4.943847,1.13526 -2.490235,1.13525 -4.248047,4.35791 -1.721192,3.22265 -1.721192,9.15527 0,6.66504 3.00293,10.10742 3.039551,3.40576 7.543945,3.40576 z" />
    <path
       id="path2084"
       d="m 95.259183,185.96931 h 2.746582 l 1.208496,0.0732 0.952149,-0.0732 q 3.77197,0 4.6875,0.0732 l 0.0366,0.6958 q 0,5.16357 -0.14648,9.99756 -0.10987,2.85644 -0.10987,3.25928 0,6.44531 0.40283,8.05664 0.43946,1.61132 1.97754,2.60009 1.57471,0.95215 3.77198,0.95215 2.67334,0 5.09033,-1.09863 2.45361,-1.13525 4.1748,-2.74658 0.18311,-1.3916 0.18311,-3.07617 0,-5.45655 0.10986,-7.36084 0.0366,-1.13526 0.0366,-1.97754 0,-5.93262 -0.58593,-6.70166 -0.58594,-0.76905 -4.46778,-1.17188 -1.28174,-0.14648 -1.86767,-0.25635 -0.29297,-0.47607 -0.29297,-0.73242 l 0.10986,-0.40283 q 0.95215,-0.10986 1.86768,-0.10986 l 5.82275,0.0732 q 3.11279,-0.0732 3.2959,-0.0732 0.40283,0 0.76904,0.0366 l 0.0732,2.67334 q -0.25634,5.5664 -0.29296,13.76953 l -0.0733,2.96631 0.14649,4.98047 q 0.32959,0.58593 0.58594,0.6958 0.43945,0.1831 1.79443,0.1831 h 0.32959 q 0.47607,0 2.70996,0.21973 0.0366,0.47607 0.0366,0.6958 v 0.40283 q -4.90723,1.06201 -7.94678,2.12403 -1.20849,0.40283 -2.05078,0.58593 -0.1831,-1.28174 -0.1831,-1.5747 v -2.96631 q 0,-0.18311 -0.0366,-0.98877 -0.47608,0.32959 -1.09864,0.80566 -2.89306,2.23389 -6.11572,3.77197 -2.16064,1.06202 -4.1748,1.06202 -3.84522,0 -6.26221,-2.85645 -2.45361,-2.85644 -2.45361,-9.74121 0,-0.36621 0.0366,-1.31836 0.14648,-1.75781 0.14648,-2.45361 0,-0.25635 -0.0366,-1.61133 -0.0366,-0.58594 -0.0366,-1.02539 0,-0.32959 0.0366,-1.46485 0.0366,-1.17187 0.0366,-1.64794 0,-0.62256 -0.0366,-1.09864 l -0.0732,-1.94092 0.0366,-1.02539 q 0,-0.58593 -0.585939,-1.06201 -2.307129,-0.62256 -3.039551,-0.6958 -0.695801,-0.10986 -1.245117,-0.32959 z" />
    <path
       id="path2086"
       d="m 132.20987,213.54499 q 0.91552,-0.25635 2.12402,-0.43945 2.30713,-0.32959 2.74658,-0.76905 0.47608,-0.43945 0.47608,-2.01416 l 0.0732,-1.31836 q 0.0366,-0.73242 0.0366,-1.86767 l -0.0732,-11.24268 q 0,-2.2705 -0.58594,-2.92968 -0.98877,-1.02539 -3.66211,-1.42823 v -1.31836 q 2.67334,-0.73242 4.10156,-1.90429 2.08741,-1.64795 3.51563,-4.46778 l 1.24512,0.0366 q 0.10986,1.7212 0.10986,2.45362 v 2.41699 l 0.0366,0.65918 q 0.43945,-0.29297 1.02539,-0.73242 2.19727,-1.64795 4.50439,-2.67334 2.30713,-1.06201 4.10157,-1.46485 1.13525,-0.29296 2.56347,-0.29296 3.00293,0 5.16358,1.61132 2.16064,1.61133 2.7832,3.8086 0.65918,2.16064 0.65918,8.64258 v 5.52978 q 0,0.21973 -0.0732,1.46484 -0.0366,1.24512 -0.0366,2.85645 0,2.56348 0.21972,3.25928 0.18311,0.47607 0.95215,0.95215 3.51563,0.47607 4.10156,1.13525 v 0.29297 q 0,0.36621 -0.21972,0.91553 h -0.6958 l -4.83399,-0.0366 -4.76074,0.0733 q -2.63672,0.0732 -4.8706,-0.0366 l -0.21973,-0.76905 q 0,-0.21972 0.25635,-0.58593 0.98877,-0.43946 2.7832,-0.58594 1.06201,-0.0732 1.46484,-0.21973 0.40284,-0.14648 0.98877,-0.58594 0.43946,-0.8789 0.43946,-1.46484 0,-0.25635 -0.0732,-1.02539 -0.10986,-1.68457 -0.14648,-8.38623 v -1.9043 l 0.0732,-2.92969 q 0,-4.72412 -1.9043,-6.51855 -1.90429,-1.79443 -5.09033,-1.79443 -2.45361,0 -4.79736,1.09863 -2.34375,1.06201 -4.54102,3.22266 -0.0732,1.75781 -0.0732,3.00292 l 0.10987,8.09327 q 0,6.33545 0.1831,7.76367 0.0732,0.58594 0.25635,0.80566 0.29297,0.29297 1.17187,0.47608 0.87891,0.1831 2.01416,0.51269 1.17188,0.32959 1.53809,0.40283 0.73242,0.18311 0.98877,0.73243 l -0.0366,0.73242 h -3.84522 l -7.91015,-0.10987 q -2.74659,0.0733 -3.47901,0.0733 h -0.91552 L 132.1,214.27741 q 0,-0.25635 0.10987,-0.73242 z" />
    <path
       id="path2088"
       d="m 198.31094,208.01521 0.0366,2.38037 q -2.85644,3.03955 -5.63965,4.24804 -2.7832,1.2085 -6.55517,1.2085 -4.10156,0 -7.39746,-2.12402 -3.2959,-2.16065 -5.09034,-6.07911 -1.75781,-3.91845 -1.75781,-7.69043 0,-4.13818 2.12403,-7.80029 2.16064,-3.69873 5.67627,-5.49316 3.55224,-1.83106 8.89892,-1.83106 5.12695,0 7.80029,1.75782 1.50147,1.02539 1.50147,2.63671 0,1.17188 -0.76904,1.94092 -0.76905,0.76905 -1.97754,0.76905 -1.83106,0 -4.02832,-2.27051 -1.35498,-1.3916 -2.45362,-1.9043 -1.09863,-0.54932 -2.45361,-0.54932 -3.25928,0 -5.41992,2.67334 -3.00293,3.8086 -3.00293,9.55811 0,5.93262 3.07617,9.44824 3.07617,3.51563 7.17773,3.51563 2.85645,0 5.05372,-0.91553 2.23388,-0.95215 5.20019,-3.479 z" />
    <path
       sodipodi:nodetypes="cccccccscccccccsccscccsccccscccc"
       id="path2090"
       d="m 202.37588,188.67927 0.0366,-1.06201 c 1.58691,-0.46387 2.44141,-0.73242 2.56348,-0.80567 0.87891,-0.39063 1.79443,-0.98877 2.74658,-1.79443 0.97657,-0.80567 1.79444,-1.70899 2.45362,-2.70996 0.29297,-0.0488 0.5249,-0.0732 0.6958,-0.0732 l 0.43945,0.0366 c 0.0977,1.17187 0.14648,2.02636 0.14648,2.56347 0,0.12207 -0.0244,0.67139 -0.0732,1.64795 v 1.94092 l 0.0366,10.54688 -0.10986,11.16943 c -0.0244,0.90332 0.12208,1.53809 0.43945,1.9043 0.31739,0.34179 1.25733,0.73242 2.81983,1.17187 0.97656,0.26855 1.70898,0.50049 2.19726,0.6958 0.0733,0.1709 0.10987,0.31738 0.10987,0.43945 0,0.14649 -0.061,0.32959 -0.18311,0.54932 -0.95215,-0.0244 -2.17285,-0.0854 -3.66211,-0.1831 -2.02637,-0.1709 -3.36914,-0.25635 -4.02832,-0.25635 -0.31738,0 -2.2705,0.061 -5.85937,0.1831 -0.73243,0.0244 -1.44044,0.0854 -2.12403,0.18311 -0.12207,0 -0.31738,-0.0366 -0.58594,-0.10986 -0.12207,-0.1709 -0.1831,-0.31739 -0.1831,-0.43946 0,-0.34179 0.23193,-0.61035 0.6958,-0.80566 0.0976,-0.0488 1.34277,-0.32956 3.73535,-0.84229 0.78125,-0.14648 1.29395,-0.39062 1.53809,-0.73242 0.41504,-0.51269 0.62256,-1.33056 0.62256,-2.45361 0.0488,-1.87989 0.0732,-7.03125 0.0732,-15.4541 0,-1.68457 -0.0732,-2.73438 -0.21973,-3.14942 -0.12207,-0.29297 -0.45166,-0.62256 -0.98877,-0.98877 -0.51269,-0.39062 -1.62353,-0.78124 -3.33252,-1.17187 z" />
    <path
       id="path2092"
       d="m 219.29483,169.34333 v -0.80566 q 1.02539,-0.32959 2.27051,-0.6958 1.83105,-0.58594 5.41992,-1.79444 h 1.72119 q 0.0366,1.75781 0.0366,2.01416 0,30.06592 -0.18311,35.85205 -0.10986,3.40576 -0.10986,3.62549 0,4.10156 0.32959,4.57764 0.43945,0.65918 2.67334,0.91553 2.27051,0.25634 2.67334,0.51269 0.29297,0.14648 0.29297,0.5127 0,0.40283 -0.18311,0.58593 -0.14648,0.14649 -0.58593,0.14649 -0.25635,0 -3.84522,-0.10987 l -4.79736,-0.14648 -6.15235,0.25635 q -0.58593,0.0366 -0.8789,-0.21973 -0.21973,-0.1831 -0.21973,-0.51269 0,-0.36622 0.21973,-0.5127 0.25635,-0.1831 2.63672,-0.58594 2.41699,-0.40283 2.74658,-0.65918 0.36621,-0.29297 0.47607,-1.24511 0.14649,-1.31836 0.14649,-7.43409 l -0.0366,-8.42285 0.10986,-8.71582 -0.0366,-8.71582 0.10986,-4.28467 q 0,-1.28173 -0.40283,-1.83105 -0.40283,-0.58594 -1.72119,-1.13525 -1.97754,-0.80567 -2.70996,-1.17188 z" />
  </g>
  <path
     style="fill:#000000;fill-opacity:1;stroke-width:0.20558"
     d="m 56.328296,85.656711 c 0,-0.21071 0.08771,-0.84556 0.194899,-1.41078 l 0.194899,-1.027663 -0.894276,-0.960301 C 53.62492,79.89674 53.582758,77.67084 55.709463,76.22341 c 0.887927,-0.604312 2.212792,-0.620503 2.955705,-0.03612 l 0.542123,0.426425 0.604915,-0.47782 c 0.7547,-0.596141 0.900064,-1.814085 0.216512,-1.814085 -0.228424,0 -0.411157,-0.137053 -0.411157,-0.308368 0,-0.171314 0.182733,-0.308368 0.411157,-0.308368 0.274098,0 0.411159,-0.137053 0.411159,-0.411158 0,-0.274104 0.13706,-0.411158 0.411157,-0.411158 0.274098,0 0.411159,0.137054 0.411159,0.411158 0,0.274105 0.13706,0.411158 0.411157,0.411158 0.228426,0 0.411159,0.137054 0.411159,0.308368 0,0.171315 -0.182733,0.308368 -0.411159,0.308368 -0.623378,0 -0.550047,1.075901 0.118925,1.74487 l 0.530085,0.530085 0.67626,-0.41795 c 1.748141,-1.080412 4.21689,0.159519 4.562896,2.291713 0.160559,0.989355 -0.599323,2.644692 -1.759086,3.832032 l -0.867658,0.88828 0.219513,1.023441 c 0.427973,1.99562 0.828945,1.82554 -4.303251,1.82554 -4.275259,0 -4.522738,-0.021 -4.522738,-0.3831 z m 8.428726,-0.54202 c 0,-0.26328 -0.571054,-0.30835 -3.905988,-0.30835 -3.33496,0 -3.906012,0.0451 -3.906012,0.30835 0,0.26329 0.571052,0.30838 3.906012,0.30838 3.334934,0 3.905988,-0.0451 3.905988,-0.30838 z m -6.810867,-1.265735 c -0.371809,-0.447988 -0.795543,-0.323647 -0.795543,0.233435 0,0.46847 0.04127,0.49073 0.512329,0.27611 0.397594,-0.18116 0.46102,-0.29529 0.283214,-0.509545 z m 6.605302,0.237845 c 0,-0.548544 -0.373439,-0.675025 -0.7832,-0.265271 -0.19452,0.194519 -0.1475,0.304861 0.215879,0.506661 0.255478,0.14189 0.487665,0.26127 0.51591,0.26528 0.02828,0.005 0.05142,-0.224 0.05142,-0.50667 z m -2.672542,-0.392793 c 0,-0.04063 -0.231272,-0.225405 -0.513926,-0.41062 -0.477405,-0.312793 -0.551876,-0.311906 -1.04696,0.0125 l -0.533003,0.349238 0.474074,0.357615 c 0.42358,0.3195 0.535164,0.32604 1.046959,0.06137 0.315068,-0.162926 0.572856,-0.32947 0.572856,-0.370098 z M 59.512934,82.52528 c 1.262254,-0.216085 2.758674,-0.117391 3.980793,0.262547 0.664605,0.206608 0.730111,0.174524 1.798738,-0.880825 1.829243,-1.806511 2.185029,-3.584947 0.952442,-4.760794 -0.936695,-0.89359 -1.58903,-1.039623 -2.615591,-0.585526 -0.980308,0.433634 -1.722433,1.483382 -2.284573,3.231593 -0.177776,0.552897 -0.370998,1.144028 -0.429345,1.313633 -0.05838,0.169604 -0.239422,-0.200067 -0.402341,-0.821496 -0.478243,-1.824092 -1.318136,-3.115149 -2.383509,-3.66381 -0.855871,-0.440766 -0.978147,-0.454432 -1.629848,-0.182141 -0.387513,0.16191 -0.954627,0.591592 -1.2603,0.954846 -1.016779,1.208376 -0.626299,2.721824 1.18844,4.606204 0.754955,0.783943 1.05486,0.968702 1.406505,0.866506 0.245824,-0.07143 1.001185,-0.224773 1.678589,-0.340737 z m -2.70269,-1.261142 C 55.763161,80.176579 55.50598,79.685459 55.50598,78.77354 c 0,-0.54577 0.149557,-0.8406 0.632499,-1.24699 0.347886,-0.29272 0.821326,-0.532223 1.052089,-0.532223 0.663562,0 1.906411,1.417287 2.395446,2.731638 0.654597,1.759281 0.614488,1.924233 -0.508696,2.092661 -0.523251,0.07847 -1.057272,0.183303 -1.186686,0.232969 -0.129416,0.04967 -0.615609,-0.304694 -1.080388,-0.787457 z m 5.920758,0.60456 -1.100909,-0.211081 0.119026,-0.733363 c 0.199344,-1.228435 1.323619,-3.282115 1.983602,-3.62341 0.818201,-0.423109 1.101238,-0.388214 1.830844,0.225706 0.686753,0.577862 0.847713,1.540883 0.402927,2.410794 -0.25723,0.503126 -1.850326,2.211364 -2.023175,2.169449 -0.06127,-0.01484 -0.606793,-0.121995 -1.212315,-0.238095 z m -1.674404,-2.877901 c 0,-0.145696 0.18408,-0.625938 0.409052,-1.067213 0.371633,-0.728954 0.380603,-0.845701 0.09804,-1.276937 -0.383165,-0.584785 -0.939282,-0.608118 -1.435152,-0.06022 -0.363736,0.401927 -0.361602,0.441328 0.07094,1.307385 0.24527,0.491132 0.44596,0.998473 0.44596,1.127424 0,0.128952 0.09251,0.234457 0.20559,0.234457 0.113057,0 0.205564,-0.119204 0.205564,-0.264901 z m -0.498687,-1.516899 c -0.168609,-0.439408 0.207752,-0.852737 0.505444,-0.55506 0.223527,0.223524 0.06407,0.897808 -0.212321,0.897808 -0.08887,0 -0.220781,-0.154236 -0.293123,-0.342748 z"
     id="path863" />
  <path
     id="path863-3"
     d="m 192.09986,160.98496 c 0,-0.21071 0.0877,-0.84556 0.1949,-1.41078 l 0.1949,-1.02766 -0.89428,-0.9603 c -2.1989,-2.36123 -2.24106,-4.58713 -0.11435,-6.03456 0.88792,-0.60431 2.21279,-0.6205 2.9557,-0.0361 l 0.54212,0.42643 0.60492,-0.47782 c 0.7547,-0.59615 0.90006,-1.81409 0.21651,-1.81409 -0.22842,0 -0.41116,-0.13705 -0.41116,-0.30837 0,-0.17131 0.18274,-0.30837 0.41116,-0.30837 0.2741,0 0.41116,-0.13705 0.41116,-0.41115 0,-0.27411 0.13706,-0.41116 0.41116,-0.41116 0.27409,0 0.41116,0.13705 0.41116,0.41116 0,0.2741 0.13706,0.41115 0.41115,0.41115 0.22843,0 0.41116,0.13706 0.41116,0.30837 0,0.17132 -0.18273,0.30837 -0.41116,0.30837 -0.62338,0 -0.55004,1.0759 0.11893,1.74487 l 0.53008,0.53009 0.67626,-0.41795 c 1.74814,-1.08042 4.21689,0.15951 4.5629,2.29171 0.16056,0.98935 -0.59932,2.64469 -1.75909,3.83203 l -0.86766,0.88828 0.21952,1.02344 c 0.42797,1.99562 0.82894,1.82554 -4.30325,1.82554 -4.27526,0 -4.52274,-0.021 -4.52274,-0.3831 z m 8.42872,-0.54202 c 0,-0.26328 -0.57105,-0.30835 -3.90598,-0.30835 -3.33496,0 -3.90602,0.0451 -3.90602,0.30835 0,0.26329 0.57106,0.30838 3.90602,0.30838 3.33493,0 3.90598,-0.0451 3.90598,-0.30838 z m -6.81086,-1.26573 c -0.37181,-0.44799 -0.79555,-0.32365 -0.79555,0.23343 0,0.46847 0.0413,0.49073 0.51233,0.27611 0.3976,-0.18116 0.46102,-0.29529 0.28322,-0.50954 z m 6.6053,0.23784 c 0,-0.54854 -0.37344,-0.67502 -0.7832,-0.26527 -0.19452,0.19452 -0.1475,0.30486 0.21588,0.50666 0.25548,0.14189 0.48766,0.26127 0.51591,0.26528 0.0283,0.005 0.0514,-0.224 0.0514,-0.50667 z m -2.67254,-0.39279 c 0,-0.0406 -0.23127,-0.22541 -0.51393,-0.41062 -0.4774,-0.31279 -0.55187,-0.31191 -1.04696,0.0125 l -0.533,0.34924 0.47407,0.35761 c 0.42358,0.3195 0.53517,0.32604 1.04696,0.0614 0.31507,-0.16292 0.57286,-0.32947 0.57286,-0.3701 z m -2.36598,-1.16873 c 1.26225,-0.21608 2.75867,-0.11739 3.98079,0.26255 0.6646,0.20661 0.73011,0.17452 1.79874,-0.88083 1.82924,-1.80651 2.18503,-3.58494 0.95244,-4.76079 -0.9367,-0.89359 -1.58903,-1.03962 -2.61559,-0.58553 -0.98031,0.43364 -1.72243,1.48338 -2.28457,3.2316 -0.17778,0.55289 -0.371,1.14402 -0.42935,1.31363 -0.0584,0.1696 -0.23942,-0.20007 -0.40234,-0.8215 -0.47824,-1.82409 -1.31814,-3.11515 -2.38351,-3.66381 -0.85587,-0.44076 -0.97815,-0.45443 -1.62985,-0.18214 -0.38751,0.16191 -0.95462,0.59159 -1.2603,0.95485 -1.01678,1.20837 -0.6263,2.72182 1.18844,4.6062 0.75496,0.78394 1.05486,0.9687 1.40651,0.86651 0.24582,-0.0714 1.00118,-0.22478 1.67859,-0.34074 z m -2.70269,-1.26114 c -1.04709,-1.08756 -1.30427,-1.57868 -1.30427,-2.4906 0,-0.54577 0.14956,-0.8406 0.6325,-1.24699 0.34789,-0.29272 0.82133,-0.53222 1.05209,-0.53222 0.66356,0 1.90641,1.41728 2.39545,2.73164 0.65459,1.75928 0.61448,1.92423 -0.5087,2.09266 -0.52325,0.0785 -1.05727,0.1833 -1.18669,0.23297 -0.12941,0.0497 -0.6156,-0.3047 -1.08038,-0.78746 z m 5.92075,0.60456 -1.1009,-0.21108 0.11902,-0.73337 c 0.19935,-1.22843 1.32362,-3.28211 1.9836,-3.62341 0.8182,-0.4231 1.10124,-0.38821 1.83085,0.22571 0.68675,0.57786 0.84771,1.54088 0.40292,2.41079 -0.25723,0.50313 -1.85032,2.21137 -2.02317,2.16945 -0.0613,-0.0148 -0.60679,-0.12199 -1.21232,-0.23809 z m -1.6744,-2.8779 c 0,-0.1457 0.18408,-0.62594 0.40905,-1.06722 0.37164,-0.72895 0.38061,-0.8457 0.098,-1.27693 -0.38316,-0.58479 -0.93928,-0.60812 -1.43515,-0.0602 -0.36374,0.40192 -0.3616,0.44133 0.0709,1.30738 0.24527,0.49113 0.44596,0.99848 0.44596,1.12743 0,0.12895 0.0925,0.23445 0.20559,0.23445 0.11306,0 0.20556,-0.1192 0.20556,-0.2649 z m -0.49869,-1.5169 c -0.16861,-0.43941 0.20776,-0.85274 0.50545,-0.55506 0.22352,0.22352 0.0641,0.89781 -0.21232,0.89781 -0.0889,0 -0.22078,-0.15424 -0.29313,-0.34275 z"
     style="fill:#000000;fill-opacity:1;stroke-width:0.20558" />
</svg>
