<?xml version="1.0" encoding="UTF-8" standalone="no"?>
<svg
   xmlns:dc="http://purl.org/dc/elements/1.1/"
   xmlns:cc="http://creativecommons.org/ns#"
   xmlns:rdf="http://www.w3.org/1999/02/22-rdf-syntax-ns#"
   xmlns:svg="http://www.w3.org/2000/svg"
   xmlns="http://www.w3.org/2000/svg"
   xmlns:sodipodi="http://sodipodi.sourceforge.net/DTD/sodipodi-0.dtd"
   xmlns:inkscape="http://www.inkscape.org/namespaces/inkscape"
   inkscape:version="1.0 (4035a4fb49, 2020-05-01)"
   sodipodi:docname="nba-logo.svg"
   id="svg10"
   version="1.1"
   width="12.739779"
   viewBox="0 0 12.739779 26.836933"
   height="26.836933">
  <metadata
     id="metadata16">
    <rdf:RDF>
      <cc:Work
         rdf:about="">
        <dc:format>image/svg+xml</dc:format>
        <dc:type
           rdf:resource="http://purl.org/dc/dcmitype/StillImage" />
        <dc:title></dc:title>
      </cc:Work>
    </rdf:RDF>
  </metadata>
  <defs
     id="defs14">
    <clipPath
       clipPathUnits="userSpaceOnUse"
       id="clipPath895">
      <rect
         style="fill:#ffffff;stroke-width:0.35;stroke-linejoin:round"
         id="rect897"
         width="16.392857"
         height="34.728573"
         x="-1.0928571"
         y="-1.2142857" />
    </clipPath>
    <clipPath
       clipPathUnits="userSpaceOnUse"
       id="clipPath889">
      <rect
         style="fill:#ffffff;stroke-width:0.45312;stroke-linejoin:round"
         id="rect891"
         width="37.041065"
         height="36.671429"
         x="-6.134819"
         y="35.700001" />
    </clipPath>
  </defs>
  <sodipodi:namedview
     fit-margin-bottom="0"
     fit-margin-right="0"
     fit-margin-left="0"
     fit-margin-top="0"
     inkscape:current-layer="svg10"
     inkscape:window-maximized="1"
     inkscape:window-y="-9"
     inkscape:window-x="96"
     inkscape:cy="-14.27339"
     inkscape:cx="16.622106"
     inkscape:zoom="8.3743627"
     showgrid="false"
     id="namedview12"
     inkscape:window-height="1051"
     inkscape:window-width="1815"
     inkscape:pageshadow="2"
     inkscape:pageopacity="0"
     guidetolerance="10"
     gridtolerance="10"
     objecttolerance="10"
     borderopacity="1"
     bordercolor="#666666"
     pagecolor="#ffffff" />
  <g
     transform="translate(-20.164259,-1.3473695)"
     id="g915">
    <path
       style="fill-rule:evenodd"
       id="path849"
       fill="#fffffe"
       d="m 21.182857,29.438857 h -3.35 V 0.97285716 h 5.184 l 3.468,23.48199984 c -0.518,-5.581 -1.196,-14.5919998 -1.196,-19.3359998 V 0.97285716 h 3.349 V 29.438857 h -4.745 l -3.19,-22.8059998 c 0.28,5.1029998 0.479,11.2029998 0.479,14.6319998 v 8.173 m 9.37,10e-4 V 0.97285716 h 4.744 c 3.15,0 5.103,1.71400004 5.103,5.70100004 v 4.1859998 c 0,2.592 -0.798,3.907 -1.914,4.585 1.116,0.718 1.914,1.993 1.914,4.186 v 4.146 c 0,3.907 -2.073,5.662 -5.103,5.662 z m 3.827,-24.8779998 v 9.4089998 h 0.478 c 1.356,0 1.715,-0.518 1.715,-2.073 V 6.4748572 c 0,-1.316 -0.399,-1.914 -1.555,-1.914 z m 0,12.5189998 v 8.77 h 0.638 c 1.196,0 1.555,-0.677 1.555,-2.033 v -4.824 c 0,-1.395 -0.44,-1.913 -1.715,-1.913 z m 13.192,7.016 h -2.392 l -0.32,5.343 h -3.866 l 2.79,-28.46599984 h 5.422 l 2.712,28.46599984 h -4.027 l -0.32,-5.343 z m -2.233,-3.229 h 2.034 l -0.32,-5.223 c -0.119,-2.073 -0.438,-8.6509998 -0.677,-12.1999998 h -0.16 l -0.558,12.1999998 z m -34.14,-20.62399984 h -7.007 a 3.1,3.1 0 0 0 -3.098,3.09800004 V 27.068857 a 3.103,3.103 0 0 0 3.098,3.102 h 7.002 a 3.109,3.109 0 0 0 3.105,-3.102 V 3.3408572 a 3.103,3.103 0 0 0 -3.1,-3.09800004"
       clip-path="url(#clipPath895)"
       transform="matrix(0.89671656,0,0,0.89671656,19.184276,1.1295955)" />
    <path
       style="fill:#b52532;fill-opacity:1;fill-rule:evenodd;stroke-width:0.896717"
       id="path851"
       fill="#b52532"
       d="m 27.667086,6.2667566 0.0063,0.091465 c 0.191897,0.1111929 0.288743,0.202658 0.482434,0.3264048 0.512025,0.322818 1.143313,0.8967166 1.063505,2.8721832 0.143475,0.430424 0.207142,1.2769244 0.340753,1.5486294 0.266325,0.529063 0.444771,0.873402 0.522785,1.372873 0,0 0.07622,0.777454 0.176654,0.833947 0.529959,0.12016 0.376621,0.172169 0.454635,0.262738 0.0825,0.106709 0.388278,0.101329 0.388278,0.386485 0.105813,0.141681 0.184724,0.289639 0.243907,0.442978 V 4.1253975 A 2.1252182,2.1252182 0 0 0 29.225579,2.0019726 h -2.030166 c 0.326405,0.1165732 0.511129,0.2528741 0.617838,0.4698795 0.261841,0.022418 0.573898,0.6097673 0.08788,1.4786856 0.215212,0.1434747 0.04753,0.3568932 -0.106709,0.6052837 -0.04484,0.079808 -0.09416,0.221489 -0.238527,0.2116251 -0.183829,0.3882783 -0.407111,0.7640025 -0.574797,0.7873172 -0.05111,0.06277 -0.08788,0.2295594 -0.01166,0.3084705 0.247494,0.1102961 0.548791,0.2627379 0.697646,0.4035224 m 3.679228,9.5303034 a 1.8920719,1.8920719 0 0 1 -1.762048,1.192633 1.8920719,1.8920719 0 0 1 -1.892969,-1.892071 c 0,-0.892233 0.613355,-1.640992 1.446404,-1.84096 -0.217902,-0.546997 -0.678814,-1.432056 -0.816012,-1.721695 -0.129127,-0.288743 -0.441184,-2.0893504 -0.508438,-2.4453464 -0.01524,-0.07801 -0.816909,0.465396 -0.818702,0.498574 -0.04663,0.04484 -0.600801,1.4939304 -0.624115,1.5719444 -0.01166,0.04932 -0.01255,0.242114 -0.01255,0.242114 0,0 0.272602,0.03407 0.429527,0.510231 0.155132,0.47526 0.627702,2.208613 0.627702,2.208613 0,0 -0.127334,0.132714 -0.132714,0.125541 0.59811,2.001471 0.389175,2.863215 0.657293,3.450565 0.337165,0.826773 0.42863,0.71827 0.717373,1.414122 0.208038,0.506645 0.439391,2.500046 0.516509,2.587924 0.322818,0.409799 0.496781,0.72903 0.496781,0.959487 0,0.233146 -0.273499,0.919134 -0.173963,1.31907 0.06098,0.235836 0.09236,0.762209 0.201761,0.862641 0,0 0.100432,0.198174 0.05111,0.286949 -0.01435,0.02959 -0.04304,0.07532 -0.02959,0.11209 0.17755,0.627701 0.753242,1.700174 -0.178446,2.261519 h 0.01973 a 2.1099741,2.1099741 0 0 0 1.785363,-2.098317 z" />
    <path
       style="fill:#253b73;fill-opacity:1;fill-rule:evenodd;stroke-width:0.896717"
       id="path853"
       fill="#253b73"
       d="m 28.955668,24.994682 c -0.340753,-0.304883 -0.112987,-0.433114 -0.127334,-0.553274 -0.224179,-0.929895 -0.963074,-1.492136 -0.581072,-1.798813 -0.09416,-0.306677 -0.286053,-0.692266 -0.278879,-0.691369 -1.150488,-0.66088 -2.130599,-1.73425 -2.296491,-1.892072 -0.201762,-0.218799 -0.546101,-0.439391 -0.609768,-0.616941 -0.277085,-0.253771 -1.63292,-2.177228 -1.948565,-2.885634 l -0.550584,-0.07801 c -0.25108,-1.022257 -1.08682,-1.880415 -1.107445,-2.905362 -0.0072,-0.388278 0.175757,-1.218637 0.243907,-1.383633 0.06725,-0.168583 0.387382,-0.443875 0.387382,-0.443875 V 11.4713 c -1.200704,0.03408 -0.855468,-0.08878 -1.061713,-0.555965 -0.145268,-0.322817 -0.04125,-0.394555 0.01076,-0.618734 0.161409,-0.6608804 0.696749,-1.6813434 0.917341,-2.1449464 0.06815,-0.2340428 0.299503,-0.7980775 0.299503,-0.7980775 0.894924,-1.8221281 1.229399,-1.6885173 2.292008,-1.7916397 l 0.05201,-0.075324 c 1.0653,-0.046629 0.89044,-0.1264372 1.040192,-1.152281 -0.154235,0.066357 -0.200865,-0.3219212 -0.200865,-0.3219212 -0.08429,-0.5828658 0.161409,-0.4725696 0.277982,-0.484227 0.026,-0.9594867 0.123747,-1.2625769 0.816012,-1.5271083 h -3.586866 a 2.1243215,2.1243215 0 0 0 -2.124321,2.126115 V 25.403585 c 0,1.173802 0.950519,2.125218 2.125218,2.125218 h 6.281499 c -0.719166,-0.389175 -0.294123,-1.128966 -0.269911,-2.533224" />
    <path
       d="m -0.8898577,68.753429 h -3.35 v -28.466 h 5.184 l 3.468,23.482 c -0.518,-5.581 -1.196,-14.592 -1.196,-19.336 v -4.146 h 3.349 v 28.466 h -4.745 l -3.19,-22.806 c 0.28,5.103 0.479,11.203 0.479,14.632 v 8.173 m 9.37,10e-4 v -28.466 h 4.7439997 c 3.15,0 5.103,1.714 5.103,5.701 v 4.186 c 0,2.592 -0.798,3.907 -1.914,4.585 1.116,0.718 1.914,1.993 1.914,4.186 v 4.146 c 0,3.907 -2.073,5.662 -5.103,5.662 z m 3.8269997,-24.878 v 9.409 h 0.478 c 1.356,0 1.715,-0.518 1.715,-2.073 v -5.422 c 0,-1.316 -0.399,-1.914 -1.555,-1.914 z m 0,12.519 v 8.77 h 0.638 c 1.196,0 1.555,-0.677 1.555,-2.033 v -4.824 c 0,-1.395 -0.44,-1.913 -1.715,-1.913 z m 13.192,7.016 h -2.392 l -0.32,5.343 h -3.866 l 2.79,-28.466 h 5.422 l 2.712,28.466 h -4.027 l -0.32,-5.343 z m -2.233,-3.229 h 2.034 l -0.32,-5.223 c -0.119,-2.073 -0.438,-8.651 -0.677,-12.2 h -0.16 l -0.558,12.2 z m -34.14,-20.624 h -7.007 a 3.1,3.1 0 0 0 -3.097999,3.098 v 23.728 a 3.103,3.103 0 0 0 3.097999,3.102 h 7.002 a 3.109,3.109 0 0 0 3.1050003,-3.102 v -23.728 a 3.103,3.103 0 0 0 -3.1000003,-3.098"
       fill="#fffffe"
       id="path849-5"
       style="fill-rule:evenodd"
       clip-path="url(#clipPath889)"
       transform="matrix(0.18281531,0,0,0.10928508,22.591427,18.476094)" />
  </g>
</svg>
