<?xml version="1.0" encoding="UTF-8" standalone="no"?>
<svg
   xmlns:dc="http://purl.org/dc/elements/1.1/"
   xmlns:cc="http://creativecommons.org/ns#"
   xmlns:rdf="http://www.w3.org/1999/02/22-rdf-syntax-ns#"
   xmlns:svg="http://www.w3.org/2000/svg"
   xmlns="http://www.w3.org/2000/svg"
   xmlns:sodipodi="http://sodipodi.sourceforge.net/DTD/sodipodi-0.dtd"
   xmlns:inkscape="http://www.inkscape.org/namespaces/inkscape"
   inkscape:version="1.0 (4035a4fb49, 2020-05-01)"
   sodipodi:docname="icon.svg"
   id="svg4"
   version="1.1"
   aria-hidden="true"
   viewBox="0 0 24 24"
   focusable="false"
   class="MuiSvgIcon-root jss174">
  <metadata
     id="metadata10">
    <rdf:RDF>
      <cc:Work
         rdf:about="">
        <dc:format>image/svg+xml</dc:format>
        <dc:type
           rdf:resource="http://purl.org/dc/dcmitype/StillImage" />
      </cc:Work>
    </rdf:RDF>
  </metadata>
  <defs
     id="defs8" />
  <sodipodi:namedview
     inkscape:current-layer="svg4"
     inkscape:window-maximized="1"
     inkscape:window-y="-9"
     inkscape:window-x="-9"
     inkscape:cy="18.801235"
     inkscape:cx="15.350345"
     inkscape:zoom="17.291667"
     showgrid="false"
     id="namedview6"
     inkscape:window-height="1001"
     inkscape:window-width="1920"
     inkscape:pageshadow="2"
     inkscape:pageopacity="0"
     guidetolerance="10"
     gridtolerance="10"
     objecttolerance="10"
     borderopacity="1"
     bordercolor="#666666"
     pagecolor="#ffffff" />
  <path
     style="stroke-width:1.11277"
     id="path2"
     d="M 3.0110844,3.1845783 H 10.800482 V 0.95903615 H 3.0110844 c -1.2240482,0 -2.22554223,1.00149395 -2.22554223,2.22554215 V 10.973976 H 3.0110844 Z M 9.6877108,13.199518 5.2366265,18.763373 H 18.589879 l -3.338312,-4.451084 -2.258926,3.01561 z M 17.477109,8.1920482 c 0,-0.9236 -0.745557,-1.6691566 -1.669157,-1.6691566 -0.9236,0 -1.669157,0.7455566 -1.669157,1.6691566 0,0.9236 0.745557,1.6691565 1.669157,1.6691565 0.9236,0 1.669157,-0.7455565 1.669157,-1.6691565 z M 20.815421,0.95903615 H 13.026024 V 3.1845783 h 7.789397 v 7.7893977 h 2.225543 V 3.1845783 c 0,-1.2240482 -1.001495,-2.22554215 -2.225543,-2.22554215 z m 0,20.02987985 h -7.789397 v 2.225542 h 7.789397 c 1.224048,0 2.225543,-1.001494 2.225543,-2.225542 V 13.199518 H 20.815421 Z M 3.0110844,13.199518 H 0.78554217 v 7.789398 c 0,1.224048 1.00149403,2.225542 2.22554223,2.225542 H 10.800482 V 20.988916 H 3.0110844 Z" />
</svg>
