<?xml version="1.0" encoding="UTF-8" standalone="no"?>
<svg
   xmlns:dc="http://purl.org/dc/elements/1.1/"
   xmlns:cc="http://creativecommons.org/ns#"
   xmlns:rdf="http://www.w3.org/1999/02/22-rdf-syntax-ns#"
   xmlns:svg="http://www.w3.org/2000/svg"
   xmlns="http://www.w3.org/2000/svg"
   xmlns:sodipodi="http://sodipodi.sourceforge.net/DTD/sodipodi-0.dtd"
   xmlns:inkscape="http://www.inkscape.org/namespaces/inkscape"
   class="MuiSvgIcon-root jss174"
   focusable="false"
   viewBox="0 0 24 24"
   aria-hidden="true"
   version="1.1"
   id="svg4"
   sodipodi:docname="location.svg"
   inkscape:version="1.0 (4035a4fb49, 2020-05-01)">
  <metadata
     id="metadata10">
    <rdf:RDF>
      <cc:Work
         rdf:about="">
        <dc:format>image/svg+xml</dc:format>
        <dc:type
           rdf:resource="http://purl.org/dc/dcmitype/StillImage" />
        <dc:title />
      </cc:Work>
    </rdf:RDF>
  </metadata>
  <defs
     id="defs8" />
  <sodipodi:namedview
     inkscape:document-rotation="0"
     pagecolor="#ffffff"
     bordercolor="#666666"
     borderopacity="1"
     objecttolerance="10"
     gridtolerance="10"
     guidetolerance="10"
     inkscape:pageopacity="0"
     inkscape:pageshadow="2"
     inkscape:window-width="1787"
     inkscape:window-height="1051"
     id="namedview6"
     showgrid="false"
     inkscape:snap-global="false"
     inkscape:zoom="11.313709"
     inkscape:cx="14.468384"
     inkscape:cy="17.894084"
     inkscape:window-x="124"
     inkscape:window-y="-9"
     inkscape:window-maximized="1"
     inkscape:current-layer="svg4" />
  <g
     id="g859">
    <rect
       style="fill:#000000;fill-opacity:1;stroke:none;stroke-width:0.0102736;stroke-linejoin:round;stroke-opacity:1"
       id="rect1617"
       width="12"
       height="12"
       x="12"
       y="12" />
    <path
       d="m 0,0 v 12 h 1.757813 a 5.3976746,5.5 0 0 1 -1.400391,-3.6953125 5.3976746,5.5 0 0 1 5.396484,-5.5 5.3976746,5.5 0 0 1 5.398438,5.5 A 5.3976746,5.5 0 0 1 9.751953,12 H 12 V 0 Z"
       style="fill:#000000;fill-opacity:1;stroke:none;stroke-width:0.0102736;stroke-linejoin:round;stroke-opacity:1"
       id="rect1617-3" />
    <path
       d="M 8.16514,7.6069747 A 2.3883178,2.3883178 0 0 1 5.776822,9.9952919 2.3883178,2.3883178 0 0 1 3.388505,7.6069747 2.3883178,2.3883178 0 0 1 5.776822,5.2186569 2.3883178,2.3883178 0 0 1 8.16514,7.6069747 Z"
       style="fill:#000000;fill-opacity:1;stroke:none;stroke-width:0.0828692;stroke-linejoin:round;stroke-opacity:1"
       id="path1731" />
    <path
       sodipodi:nodetypes="ccccccc"
       d="M 0.86391503,12.002595 5.9347748,18.718469 10.597116,12.022796 9.7662254,11.98764 5.9136567,17.060964 1.7541455,11.98764 Z"
       style="fill:#000000;fill-opacity:1;stroke:none;stroke-width:1.05758px;stroke-linecap:butt;stroke-linejoin:miter;stroke-opacity:1"
       id="path1733" />
    <path
       d="M 0,12 V 24 H 12 V 12 H 9.7636719 L 9.6054688,12.25 H 11.75 v 11.5 H 0.25 V 12.25 H 1.9335938 L 1.7578125,12 Z"
       style="fill:#000000;fill-opacity:1;stroke:none;stroke-width:0.0974842;stroke-linejoin:round;stroke-opacity:1"
       id="rect1742-5-8" />
    <path
       d="M 11.8,0 V 12.2 H 24 V 0 Z m 1.270833,1.2708333 h 9.658334 v 9.6583337 h -9.658334 z"
       style="fill:#000000;fill-opacity:1;stroke:none;stroke-width:0.0453738;stroke-linejoin:round;stroke-opacity:1"
       id="rect3405" />
    <path
       d="M 0,11.8 V 24 H 12.2 V 11.8 H 9.9065429 l -0.8022135,1.270833 h 1.8248376 v 9.658334 H 1.2708333 v -9.658334 l 1.3767905,0.0078 -1.0538585,-1.27474 z"
       style="fill:#000000;fill-opacity:1;stroke:none;stroke-width:0.0453738;stroke-linejoin:round;stroke-opacity:1"
       id="rect3405-6"
       sodipodi:nodetypes="ccccccccccccc" />
  </g>
</svg>
