<?xml version="1.0" encoding="UTF-8" standalone="no"?>
<svg
   xmlns:dc="http://purl.org/dc/elements/1.1/"
   xmlns:cc="http://creativecommons.org/ns#"
   xmlns:rdf="http://www.w3.org/1999/02/22-rdf-syntax-ns#"
   xmlns:svg="http://www.w3.org/2000/svg"
   xmlns="http://www.w3.org/2000/svg"
   xmlns:sodipodi="http://sodipodi.sourceforge.net/DTD/sodipodi-0.dtd"
   xmlns:inkscape="http://www.inkscape.org/namespaces/inkscape"
   width="412.04016"
   height="37.200741"
   viewBox="0 0 412.04016 37.200741"
   version="1.1"
   id="svg1451"
   sodipodi:docname="theme saved successfully.svg"
   inkscape:version="1.0 (4035a4fb49, 2020-05-01)">
  <metadata
     id="metadata1457">
    <rdf:RDF>
      <cc:Work
         rdf:about="">
        <dc:format>image/svg+xml</dc:format>
        <dc:type
           rdf:resource="http://purl.org/dc/dcmitype/StillImage" />
        <dc:title />
      </cc:Work>
    </rdf:RDF>
  </metadata>
  <defs
     id="defs1455" />
  <sodipodi:namedview
     inkscape:snap-global="false"
     inkscape:document-rotation="0"
     pagecolor="#ffffff"
     bordercolor="#666666"
     borderopacity="1"
     objecttolerance="10"
     gridtolerance="10"
     guidetolerance="10"
     inkscape:pageopacity="0"
     inkscape:pageshadow="2"
     inkscape:window-width="1920"
     inkscape:window-height="1001"
     id="namedview1453"
     showgrid="false"
     fit-margin-top="0"
     fit-margin-left="0"
     fit-margin-right="0"
     fit-margin-bottom="0"
     inkscape:zoom="2.2071963"
     inkscape:cx="249.04773"
     inkscape:cy="21.269282"
     inkscape:window-x="-9"
     inkscape:window-y="-9"
     inkscape:window-maximized="1"
     inkscape:current-layer="svg1451" />
  <g
     id="fill_group">
    <path
       d="m 134.18061,2.6342201 q 0.15625,1.289062 0.15625,1.484375 l -0.0781,1.738281 q -0.0391,1.113281 -0.0977,1.425781 -0.17578,0.07813 -0.29297,0.07813 l -0.17578,-0.03906 q -0.625,-2.734375 -2.1289,-3.984375 -1.48438,-1.25 -3.63282,-1.25 -2.22656,0 -3.65234,1.25 -1.42578,1.25 -1.42578,2.910156 0,1.269531 0.99609,2.324219 0.9961,1.054687 5.09766,3.1640619 3.125,1.621094 4.47266,2.65625 1.34765,1.015625 2.03125,2.363281 0.68359,1.347657 0.68359,3.007813 0,2.089843 -1.09375,3.925781 -1.07422,1.835937 -2.91016,2.773437 -1.83593,0.917969 -4.86328,0.917969 -2.63672,0 -5.05859,-0.839844 -1.42578,-0.507812 -1.73828,-0.820312 -0.3125,-0.3125 -0.3125,-0.664063 0,-0.214843 0.0391,-0.546875 0.27343,-2.304687 0.29297,-3.789062 0.0391,-0.917969 0.13671,-1.074219 0.0781,-0.136719 0.29297,-0.136719 0.17578,0 0.27344,0.136719 0.11719,0.117188 0.15625,0.46875 0.21484,2.402344 2.22656,4.296875 1.99219,1.894531 4.51172,1.894531 1.54297,0 2.83204,-0.644531 1.30859,-0.644531 2.03125,-1.855469 0.74218,-1.230468 0.74218,-2.382812 0,-1.582031 -1.11328,-2.890625 -1.11326,-1.308601 -4.47263,-3.046882 -3.35938,-1.757813 -4.375,-2.558594 -1.64063,-1.308594 -2.46094,-2.773437 -0.60547,-1.1328129 -0.60547,-2.6367189 0,-2.714844 2.14844,-4.589844 2.14844,-1.894531 5.76172,-1.894531 1.99218,0 3.4375,0.449219 1.05468,0.351562 2.16796,1.152344 z"
       style="font-size:40px;font-family:Garamond;fill:#000000;stroke:none;stroke-width:1;stroke-miterlimit:4;stroke-dasharray:none;stroke-opacity:1"
       id="path2048" />
    <path
       d="m 153.6728,24.079532 q 0.11719,0.253906 0.11719,0.371094 0,0.292968 -0.46875,1.035156 -0.60547,0.976562 -1.34766,1.425781 -0.46875,0.292969 -1.28906,0.292969 -1.40625,0 -2.10937,-0.859375 -0.42969,-0.507813 -0.60547,-1.816406 l -2.1875,1.523437 q -1.15235,0.664063 -1.75782,0.839844 -0.97656,0.253906 -2.34375,0.253906 -0.99609,0 -1.58203,-0.585937 -0.5664,-0.605469 -0.5664,-1.542969 0,-1.347656 1.64062,-3.222656 1.66016,-1.875 4.49219,-3.066407 1.99219,-0.839843 2.44141,-1.074218 0.0391,-0.644532 0.0391,-1.40625 0,-2.480469 -0.70313,-3.359375 -0.68359,-0.878907 -1.97265,-0.878907 -1.34766,0 -2.51953,1.054688 -0.72266,0.664062 -1.09375,2.5 -0.11719,0.507812 -0.44922,1.09375 -0.83985,0.546875 -1.34766,0.546875 -0.42969,0 -0.78125,-0.253906 -0.19531,-0.136719 -0.19531,-0.3125 0,-0.507813 1.07422,-2.285157 1.09375,-1.796875 2.73437,-2.675781 1.66016,-0.898437 2.89063,-0.898437 1.67968,0 2.5,0.3125 0.82031,0.292968 1.44531,1.054687 0.625,0.761719 0.76172,1.660156 0.0781,0.429688 0.0781,3.066407 l -0.0586,3.105468 0.0195,2.265625 q 0,0.449219 -0.0195,0.761719 -0.0195,0.566406 -0.0195,0.839844 0,0.644531 0.37109,1.035156 0.3711,0.390625 0.87891,0.390625 0.74219,0 1.26953,-0.742187 l 0.23437,-0.3125 q 0.0977,-0.05859 0.42969,-0.136719 z m -5.74219,-0.566406 q 0.13672,-2.480469 0.13672,-3.496094 0,-0.527344 -0.0586,-1.425781 -1.30859,0.46875 -2.77344,1.425781 -1.46484,0.957031 -2.32422,2.207031 -0.625,0.898438 -0.625,1.699219 0,0.761719 0.50782,1.269531 0.52734,0.507813 1.30859,0.507813 0.60547,0 1.46484,-0.429688 1.13282,-0.566406 2.36328,-1.757812 z"
       style="font-size:40px;font-family:Garamond;fill:#000000;stroke:none;stroke-width:1;stroke-miterlimit:4;stroke-dasharray:none;stroke-opacity:1"
       id="path2050" />
    <path
       d="m 153.331,11.227969 q 2.16797,0.01953 3.78907,0.136719 1.15234,0 1.67968,-0.03906 0.3711,-0.01953 0.46875,-0.01953 l 2.1875,0.01953 q 0.44922,0.07813 0.72266,0.09766 0.11719,0.03906 0.21484,0.214844 0,0.195312 -0.11718,0.410156 -0.33203,0.09766 -0.6836,0.117187 -1.46484,0.15625 -2.46093,0.449219 -0.13672,0.09766 -0.13672,0.195313 0,0.195312 0.19531,0.605468 0.0391,0.09766 0.17578,0.46875 l 1.95313,4.6875 q 1.30859,3.222657 2.42187,5.429688 0.76172,-1.445313 1.40625,-2.988281 0.64453,-1.542969 1.89453,-4.863282 0.35156,-0.9375 0.66406,-2.324218 0.0586,-0.273438 0.0586,-0.46875 0,-0.234375 -0.27344,-0.507813 -0.25391,-0.292969 -0.87891,-0.46875 -0.13671,-0.01953 -1.77734,-0.292969 -0.13672,-0.07813 -0.25391,-0.214843 v -0.15625 q 0,-0.09766 0.0195,-0.253907 0.46875,-0.05859 0.68359,-0.05859 l 2.30469,0.01953 q 0.23437,0 1.11328,-0.05859 3.10547,0 3.73047,0.05859 0.11718,0.03906 0.21484,0.234375 0,0.175781 -0.11719,0.390625 l -0.60547,0.15625 q -0.23437,0.01953 -0.37109,0.03906 -1.67969,0.15625 -2.07031,0.46875 -0.29297,0.214844 -0.91797,2.011719 -0.29297,0.878906 -0.85938,2.226563 l -1.01562,2.460937 q -0.21484,0.527344 -0.46875,1.152344 l -3.02734,6.992187 h -0.58594 q -0.17578,-0.46875 -0.42969,-0.976562 l -1.48437,-3.144531 -3.4961,-8.183594 q -1.05469,-2.382813 -1.26953,-2.578125 -0.21484,-0.195313 -2.5,-0.820313 -0.11719,-0.3125 -0.11719,-0.449218 z"
       style="font-size:40px;font-family:Garamond;fill:#000000;stroke:none;stroke-width:1;stroke-miterlimit:4;stroke-dasharray:none;stroke-opacity:1"
       id="path2052" />
    <path
       d="m 187.02241,16.423282 -7.83203,0.05859 H 177.706 q -0.89843,0 -1.83593,0.07813 -0.17578,0.585937 -0.17578,0.800781 l 0.0195,0.195312 v 0.195313 l -0.0195,0.957031 q 0,1.191406 0.74218,2.929688 0.76172,1.71875 2.14844,2.636718 1.40625,0.898438 3.49609,0.957032 1.11329,-0.05859 1.77735,-0.273438 0.66406,-0.214844 1.875,-0.996094 l 1.40625,-1.152343 0.11719,0.78125 q 0,0.136718 -0.0195,0.292968 -0.8789,1.113282 -2.22656,1.953125 -1.34765,0.839844 -2.73437,1.230469 -0.66407,0.175781 -2.1875,0.175781 -1.38672,0 -2.73438,-0.566406 -1.99219,-0.859375 -3.14453,-2.753906 -1.13281,-1.914063 -1.13281,-4.628906 0,-0.859375 0.3125,-2.207032 0.33203,-1.347656 1.17187,-2.871093 0.56641,-1.035157 1.38672,-1.699219 1.17188,-0.9375 2.05078,-1.308594 1.26953,-0.527343 2.94922,-0.527343 1.81641,0 2.96875,0.664062 1.5625,0.878906 2.32422,2.265625 0.78125,1.386719 0.78125,2.539062 z m -10.89844,-0.703125 h 0.91797 q 0.9961,0 5.9375,-0.3125 0.78125,-0.03906 0.95703,-0.15625 0.35157,-0.371094 0.35157,-0.664063 0,-0.605468 -0.39063,-1.367187 -0.39062,-0.78125 -1.21094,-1.191406 -0.80078,-0.429688 -1.875,-0.429688 -2.26562,0 -3.63281,1.699219 -1.05469,1.289062 -1.05469,2.421875 z"
       style="font-size:40px;font-family:Garamond;fill:#000000;stroke:none;stroke-width:1;stroke-miterlimit:4;stroke-dasharray:none;stroke-opacity:1"
       id="path2054" />
    <path
       d="m 202.44233,12.556094 0.0195,-0.566406 -0.0195,-2.2851559 0.0195,-4.316406 q 0,-1.796875 -0.39062,-2.285156 -0.39063,-0.488282 -2.28516,-0.996094 -0.13672,-0.03906 -0.42969,-0.117188 v -0.214843 q 0,-0.195313 0.0391,-0.429688 2.65625,-0.273437 4.57031,-0.91796898 l 0.99609,-0.01953 q 0.0781,1.32812498 0.0781,2.96874998 l -0.0781,7.5195309 0.13672,8.476563 -0.0586,4.511719 q 0,1.386718 0.19531,1.5625 0.39063,0.390625 1.71875,0.410156 0.27344,0 0.74219,0.03906 V 26.2475 q 0,0.136719 -0.0195,0.292969 -0.60547,0.136718 -1.25,0.253906 l -2.83203,0.546875 q -0.625,0.117187 -0.9961,0.117187 v -1.874999 q -0.33203,0.09766 -1.03515,0.390625 -3.04688,1.289063 -5.60547,1.289063 -1.54297,0 -3.14453,-0.996094 -1.60157,-1.015625 -2.46094,-2.8125 -0.85938,-1.796875 -0.85938,-3.671875 0,-1.679688 0.56641,-3.203125 0.56641,-1.542969 1.48437,-2.558594 0.58594,-0.664062 1.66016,-1.308594 1.07422,-0.664062 1.77734,-0.839843 1.73829,-0.449219 2.32422,-0.449219 2.63672,0 4.33594,0.78125 0.52734,0.253906 0.80078,0.351562 z m 0.0195,12.070313 q 0.0781,-1.308594 0.0781,-5.390625 0,-3.457031 -0.33203,-4.355469 -0.3125,-0.917969 -1.60157,-1.71875 -1.28906,-0.820312 -2.89062,-0.820312 -2.24609,0 -3.80859,1.738281 -1.5625,1.738281 -1.5625,5.136719 0,2.988281 1.67968,4.765625 1.69922,1.777343 4.21875,1.777343 1.44532,0 2.63672,-0.390625 1.19141,-0.390625 1.58203,-0.742187 z"
       style="font-size:40px;font-family:Garamond;fill:#000000;stroke:none;stroke-width:1;stroke-miterlimit:4;stroke-dasharray:none;stroke-opacity:1"
       id="path2056" />
    <path
       d="m 233.71186,2.6342201 q 0.15625,1.289062 0.15625,1.484375 l -0.0781,1.738281 q -0.0391,1.113281 -0.0977,1.425781 -0.17578,0.07813 -0.29297,0.07813 l -0.17578,-0.03906 q -0.625,-2.734375 -2.1289,-3.984375 -1.48438,-1.25 -3.63282,-1.25 -2.22656,0 -3.65234,1.25 -1.42578,1.25 -1.42578,2.910156 0,1.269531 0.99609,2.324219 0.9961,1.054687 5.09766,3.1640619 3.125,1.621094 4.47265,2.65625 1.34766,1.015625 2.03125,2.363281 0.6836,1.347657 0.6836,3.007813 0,2.089843 -1.09375,3.925781 -1.07422,1.835937 -2.91016,2.773437 -1.83594,0.917969 -4.86328,0.917969 -2.63672,0 -5.05859,-0.839844 -1.42578,-0.507812 -1.73828,-0.820312 -0.3125,-0.3125 -0.3125,-0.664063 0,-0.214843 0.0391,-0.546875 0.27344,-2.304687 0.29297,-3.789062 0.0391,-0.917969 0.13672,-1.074219 0.0781,-0.136719 0.29296,-0.136719 0.17579,0 0.27344,0.136719 0.11719,0.117188 0.15625,0.46875 0.21485,2.402344 2.22656,4.296875 1.99219,1.894531 4.51172,1.894531 1.54297,0 2.83203,-0.644531 1.3086,-0.644531 2.03125,-1.855469 0.74219,-1.230468 0.74219,-2.382812 0,-1.582031 -1.11328,-2.890625 -1.11328,-1.308594 -4.47266,-3.046875 -3.35937,-1.757813 -4.375,-2.558594 -1.64062,-1.308594 -2.46093,-2.773437 -0.60547,-1.1328129 -0.60547,-2.6367189 0,-2.714844 2.14844,-4.589844 2.14843,-1.894531 5.76171,-1.894531 1.99219,0 3.4375,0.449219 1.05469,0.351562 2.16797,1.152344 z"
       style="font-size:40px;font-family:Garamond;fill:#000000;stroke:none;stroke-width:1;stroke-miterlimit:4;stroke-dasharray:none;stroke-opacity:1"
       id="path2058" />
    <path
       d="m 237.96968,11.403751 h 1.46484 l 0.64453,0.03906 0.50781,-0.03906 q 2.01172,0 2.5,0.03906 l 0.0195,0.371094 q 0,2.753906 -0.0781,5.332031 -0.0586,1.523438 -0.0586,1.738281 0,3.4375 0.21484,4.296875 0.23437,0.859375 1.05469,1.386719 0.83984,0.507813 2.01172,0.507813 1.42578,0 2.71484,-0.585938 1.30859,-0.605469 2.22656,-1.464844 0.0977,-0.742187 0.0977,-1.640625 0,-2.910156 0.0586,-3.925781 0.0195,-0.605469 0.0195,-1.054687 0,-3.164063 -0.3125,-3.574219 -0.3125,-0.410156 -2.38281,-0.625 -0.68359,-0.07813 -0.99609,-0.136719 -0.15625,-0.253906 -0.15625,-0.390625 l 0.0586,-0.214844 q 0.50781,-0.05859 0.99609,-0.05859 l 3.10547,0.03906 q 1.66016,-0.03906 1.75782,-0.03906 0.21484,0 0.41015,0.01953 l 0.0391,1.425781 q -0.13671,2.96875 -0.15625,7.34375 l -0.0391,1.582031 0.0781,2.65625 q 0.17578,0.3125 0.3125,0.371094 0.23437,0.09766 0.95703,0.09766 h 0.17578 q 0.25391,0 1.44531,0.117188 0.0195,0.253906 0.0195,0.371094 v 0.214843 q -2.61713,0.566407 -4.23823,1.132813 -0.64453,0.214844 -1.09375,0.3125 -0.0977,-0.683594 -0.0977,-0.839844 v -1.582031 q 0,-0.09766 -0.0195,-0.527344 -0.2539,0.175781 -0.58593,0.429688 -1.54297,1.191406 -3.26172,2.011718 -1.15235,0.566407 -2.22656,0.566407 -2.05079,0 -3.33985,-1.523438 -1.30859,-1.523437 -1.30859,-5.195312 0,-0.195313 0.0195,-0.703125 0.0781,-0.9375 0.0781,-1.308594 0,-0.136719 -0.0195,-0.859375 -0.0195,-0.3125 -0.0195,-0.546875 0,-0.175781 0.0195,-0.78125 0.0195,-0.625 0.0195,-0.878906 0,-0.332032 -0.0195,-0.585938 l -0.0391,-1.035156 0.0195,-0.546875 q 0,-0.3125 -0.3125,-0.566406 -1.23047,-0.332032 -1.62109,-0.371094 -0.3711,-0.05859 -0.66406,-0.175781 z"
       style="font-size:40px;font-family:Garamond;fill:#000000;stroke:none;stroke-width:1;stroke-miterlimit:4;stroke-dasharray:none;stroke-opacity:1"
       id="path2060" />
    <path
       d="m 272.53999,23.161563 0.0195,1.269531 q -1.52344,1.621094 -3.00781,2.265625 -1.48438,0.644532 -3.4961,0.644532 -2.1875,0 -3.94531,-1.132813 -1.75781,-1.152344 -2.71484,-3.242187 -0.9375,-2.089844 -0.9375,-4.101563 0,-2.207031 1.13281,-4.160156 1.15234,-1.972656 3.02734,-2.929688 1.89453,-0.976562 4.7461,-0.976562 2.73437,0 4.16015,0.9375 0.80078,0.546875 0.80078,1.40625 0,0.625 -0.41015,1.035156 -0.41016,0.410156 -1.05469,0.410156 -0.97656,0 -2.14844,-1.210937 -0.72265,-0.742188 -1.30859,-1.015625 -0.58594,-0.292969 -1.30859,-0.292969 -1.73829,0 -2.89063,1.425781 -1.60156,2.03125 -1.60156,5.097657 0,3.164062 1.64062,5.039062 1.64063,1.875 3.82813,1.875 1.52344,0 2.69531,-0.488281 1.19141,-0.507812 2.77344,-1.855469 z"
       style="font-size:40px;font-family:Garamond;fill:#000000;stroke:none;stroke-width:1;stroke-miterlimit:4;stroke-dasharray:none;stroke-opacity:1"
       id="path2062" />
    <path
       d="m 289.18061,23.161563 0.0195,1.269531 q -1.52343,1.621094 -3.00781,2.265625 -1.48437,0.644532 -3.49609,0.644532 -2.1875,0 -3.94531,-1.132813 -1.75782,-1.152344 -2.71485,-3.242187 -0.9375,-2.089844 -0.9375,-4.101563 0,-2.207031 1.13281,-4.160156 1.15235,-1.972656 3.02735,-2.929688 1.89453,-0.976562 4.74609,-0.976562 2.73438,0 4.16016,0.9375 0.80078,0.546875 0.80078,1.40625 0,0.625 -0.41016,1.035156 -0.41015,0.410156 -1.05468,0.410156 -0.97657,0 -2.14844,-1.210937 -0.72266,-0.742188 -1.3086,-1.015625 -0.58593,-0.292969 -1.30859,-0.292969 -1.73828,0 -2.89062,1.425781 -1.60157,2.03125 -1.60157,5.097657 0,3.164062 1.64063,5.039062 1.64062,1.875 3.82812,1.875 1.52344,0 2.69532,-0.488281 1.1914,-0.507812 2.77343,-1.855469 z"
       style="font-size:40px;font-family:Garamond;fill:#000000;stroke:none;stroke-width:1;stroke-miterlimit:4;stroke-dasharray:none;stroke-opacity:1"
       id="path2064" />
    <path
       d="m 305.68452,16.423282 -7.83203,0.05859 h -1.48438 q -0.89843,0 -1.83593,0.07813 -0.17579,0.585937 -0.17579,0.800781 l 0.0195,0.195312 v 0.195313 l -0.0195,0.957031 q 0,1.191406 0.74219,2.929688 0.76172,1.71875 2.14844,2.636718 1.40625,0.898438 3.49609,0.957032 1.11328,-0.05859 1.77735,-0.273438 0.66406,-0.214844 1.875,-0.996094 l 1.40625,-1.152343 0.11718,0.78125 q 0,0.136718 -0.0195,0.292968 -0.8789,1.113282 -2.22656,1.953125 -1.34766,0.839844 -2.73437,1.230469 -0.66407,0.175781 -2.1875,0.175781 -1.38672,0 -2.73438,-0.566406 -1.99219,-0.859375 -3.14453,-2.753906 -1.13281,-1.914063 -1.13281,-4.628906 0,-0.859375 0.3125,-2.207032 0.33203,-1.347656 1.17187,-2.871093 0.56641,-1.035157 1.38672,-1.699219 1.17188,-0.9375 2.05078,-1.308594 1.26953,-0.527343 2.94922,-0.527343 1.81641,0 2.96875,0.664062 1.5625,0.878906 2.32422,2.265625 0.78125,1.386719 0.78125,2.539062 z m -10.89844,-0.703125 h 0.91797 q 0.99609,0 5.9375,-0.3125 0.78125,-0.03906 0.95703,-0.15625 0.35156,-0.371094 0.35156,-0.664063 0,-0.605468 -0.39062,-1.367187 -0.39063,-0.78125 -1.21094,-1.191406 -0.80078,-0.429688 -1.875,-0.429688 -2.26562,0 -3.63281,1.699219 -1.05469,1.289062 -1.05469,2.421875 z"
       style="font-size:40px;font-family:Garamond;fill:#000000;stroke:none;stroke-width:1;stroke-miterlimit:4;stroke-dasharray:none;stroke-opacity:1"
       id="path2066" />
    <path
       d="m 309.68843,21.774844 q 0.72265,1.855469 1.09375,2.402344 0.74218,1.113281 1.77734,1.738281 1.03516,0.605469 2.24609,0.605469 1.11328,0 2.20703,-0.957031 0.78125,-0.722656 0.78125,-1.679688 0,-1.269531 -0.91796,-2.34375 -0.91797,-1.054687 -3.4961,-2.011718 -2.55859,-0.976563 -3.4375,-2.070313 -0.8789,-1.09375 -0.8789,-2.5 0,-1.328125 0.72265,-2.34375 0.72266,-1.015625 1.99219,-1.523437 1.26953,-0.527344 2.34375,-0.527344 1.38672,0 2.48047,0.214844 1.11328,0.214843 1.91406,0.664062 0.15625,0.996094 0.25391,2.929688 l 0.0391,0.625 q -0.25391,0.01953 -0.42969,0.01953 h -0.27344 q -0.58593,-1.621094 -1.79687,-2.558594 -1.19141,-0.957031 -2.36328,-0.957031 -1.17188,0 -1.89453,0.722656 -0.72266,0.703125 -0.72266,1.855469 0,0.878906 0.58594,1.5625 0.58594,0.683594 2.73437,1.5625 2.16797,0.878906 3.14453,1.640625 0.9961,0.742187 1.46485,1.816406 0.46875,1.074219 0.46875,2.050781 0,1.347657 -0.89844,2.519532 -0.87891,1.171875 -2.22656,1.640625 -1.32817,0.488282 -2.38285,0.488282 -2.48047,0 -4.57032,-0.917969 -0.19531,-0.15625 -0.21484,-0.585937 0,-0.175782 -0.0391,-0.566407 -0.3125,-2.636718 -0.3125,-3.125 0,-0.234375 0.0976,-0.3125 0.0977,-0.07813 0.50782,-0.07813 z"
       style="font-size:40px;font-family:Garamond;fill:#000000;stroke:none;stroke-width:1;stroke-miterlimit:4;stroke-dasharray:none;stroke-opacity:1"
       id="path2068" />
    <path
       d="m 324.2978,21.774844 q 0.72266,1.855469 1.09375,2.402344 0.74219,1.113281 1.77734,1.738281 1.03516,0.605469 2.2461,0.605469 1.11328,0 2.20703,-0.957031 0.78125,-0.722656 0.78125,-1.679688 0,-1.269531 -0.91797,-2.34375 -0.91797,-1.054687 -3.49609,-2.011718 -2.5586,-0.976563 -3.4375,-2.070313 -0.87891,-1.09375 -0.87891,-2.5 0,-1.328125 0.72266,-2.34375 0.72265,-1.015625 1.99218,-1.523437 1.26954,-0.527344 2.34375,-0.527344 1.38672,0 2.48047,0.214844 1.11328,0.214843 1.91407,0.664062 0.15625,0.996094 0.2539,2.929688 l 0.0391,0.625 q -0.2539,0.01953 -0.42968,0.01953 h -0.27348 q -0.58594,-1.621094 -1.79688,-2.558594 -1.1914,-0.957031 -2.36328,-0.957031 -1.17187,0 -1.89453,0.722656 -0.72265,0.703125 -0.72265,1.855469 0,0.878906 0.58593,1.5625 0.58594,0.683594 2.73438,1.5625 2.16797,0.878906 3.14453,1.640625 0.99609,0.742187 1.46484,1.816406 0.46875,1.074219 0.46875,2.050781 0,1.347657 -0.89843,2.519532 -0.87891,1.171875 -2.22657,1.640625 -1.32812,0.488282 -2.38281,0.488282 -2.48047,0 -4.57031,-0.917969 -0.19531,-0.15625 -0.21485,-0.585937 0,-0.175782 -0.0391,-0.566407 -0.3125,-2.636718 -0.3125,-3.125 0,-0.234375 0.0977,-0.3125 0.0976,-0.07813 0.50781,-0.07813 z"
       style="font-size:40px;font-family:Garamond;fill:#000000;stroke:none;stroke-width:1;stroke-miterlimit:4;stroke-dasharray:none;stroke-opacity:1"
       id="path2070" />
    <path
       d="m 343.26264,11.520938 q 4.86329,0.117188 5.17579,0.117188 0.0391,0.429687 0.0391,0.644531 0,0.253906 -0.0586,0.761719 -0.48828,0.07813 -0.99609,0.07813 h -0.74219 q -2.42187,0 -3.35937,0.175781 -0.0391,0.449219 -0.0391,0.683594 0,0.09766 0.0195,0.292968 0.0976,3.066407 0.0976,3.710938 l -0.0391,5.019531 q 0,1.113281 0.37109,1.855469 0.21485,0.429687 0.80079,0.683594 0.37109,0.175781 1.79687,0.351562 1.07422,0.15625 1.44531,0.214844 0,0.410156 -0.0586,0.625 l -0.27344,0.01953 q -0.9375,-0.05859 -2.4414,-0.09766 l -1.44532,-0.05859 -4.92187,0.15625 h -0.64453 l -0.0195,-0.605469 q 0.29296,-0.05859 0.42968,-0.09766 1.67969,-0.3125 2.16797,-0.703125 0.19531,-0.15625 0.27344,-0.566406 0.0391,-0.234375 0.0391,-2.1875 0,-5.566406 -0.0976,-8.886719 -0.50782,-0.15625 -1.5625,-0.195312 -0.39063,0 -1.23047,-0.07813 l -0.0391,-0.214844 q 0,-0.234375 0.19532,-0.390625 0.0781,-0.07813 1.64062,-0.820313 0.60547,-0.273437 0.85938,-0.683593 0.13672,-0.214844 0.15625,-0.898438 0.0195,-0.3125 0.11718,-1.0742179 0.23438,-2.011719 0.3711,-2.480469 0.35156,-1.308594 1.17187,-2.597656 0.83985,-1.308594 2.01172,-2.285157 0.85938,-0.703125 1.9336,-1.05468698 1.09375,-0.351563 2.48046,-0.351563 1.85547,0 2.71485,0.60546898 0.58594,0.410156 0.58594,1.054688 0,0.546875 -0.41016,0.9375 -0.41016,0.390625 -1.01563,0.390625 -0.74218,0 -1.60156,-0.371094 -1.62109,-0.644531 -1.83594,-0.703125 -0.37109,-0.09766 -0.76171,-0.09766 -1.07422,0 -1.97266,0.683593 -0.87891,0.683594 -1.11328,1.679688 -0.23438,0.996094 -0.23438,4.472656 0,1.2499999 0.0195,2.2851559 z"
       style="font-size:40px;font-family:Garamond;fill:#000000;stroke:none;stroke-width:1;stroke-miterlimit:4;stroke-dasharray:none;stroke-opacity:1"
       id="path2072" />
    <path
       d="m 349.6103,11.403751 h 1.46484 l 0.64454,0.03906 0.50781,-0.03906 q 2.01172,0 2.5,0.03906 l 0.0195,0.371094 q 0,2.753906 -0.0781,5.332031 -0.0586,1.523438 -0.0586,1.738281 0,3.4375 0.21484,4.296875 0.23438,0.859375 1.05469,1.386719 0.83985,0.507813 2.01172,0.507813 1.42578,0 2.71484,-0.585938 1.3086,-0.605469 2.22657,-1.464844 0.0976,-0.742187 0.0976,-1.640625 0,-2.910156 0.0586,-3.925781 0.0195,-0.605469 0.0195,-1.054687 0,-3.164063 -0.3125,-3.574219 -0.3125,-0.410156 -2.38281,-0.625 -0.6836,-0.07813 -0.9961,-0.136719 -0.15625,-0.253906 -0.15625,-0.390625 l 0.0586,-0.214844 q 0.50781,-0.05859 0.99609,-0.05859 l 3.10547,0.03906 q 1.66015,-0.03906 1.75781,-0.03906 0.21484,0 0.41016,0.01953 l 0.0391,1.425781 q -0.13672,2.96875 -0.15625,7.34375 l -0.0391,1.582031 0.0781,2.65625 q 0.17578,0.3125 0.3125,0.371094 0.23438,0.09766 0.95703,0.09766 h 0.17578 q 0.25391,0 1.44532,0.117188 0.0195,0.253906 0.0195,0.371094 v 0.214843 q -2.61705,0.566407 -4.23814,1.132813 -0.64453,0.214844 -1.09375,0.3125 -0.0977,-0.683594 -0.0977,-0.839844 v -1.582031 q 0,-0.09766 -0.0195,-0.527344 -0.25391,0.175781 -0.58594,0.429688 -1.54297,1.191406 -3.26172,2.011718 -1.15234,0.566407 -2.22656,0.566407 -2.05078,0 -3.33984,-1.523438 -1.3086,-1.523437 -1.3086,-5.195312 0,-0.195313 0.0195,-0.703125 0.0781,-0.9375 0.0781,-1.308594 0,-0.136719 -0.0195,-0.859375 -0.0195,-0.3125 -0.0195,-0.546875 0,-0.175781 0.0195,-0.78125 0.0195,-0.625 0.0195,-0.878906 0,-0.332032 -0.0195,-0.585938 l -0.0391,-1.035156 0.0195,-0.546875 q 0,-0.3125 -0.3125,-0.566406 -1.23047,-0.332032 -1.6211,-0.371094 -0.37109,-0.05859 -0.66406,-0.175781 z"
       style="font-size:40px;font-family:Garamond;fill:#000000;stroke:none;stroke-width:1;stroke-miterlimit:4;stroke-dasharray:none;stroke-opacity:1"
       id="path2074" />
    <path
       d="m 369.59077,2.5365631 v -0.429687 q 0.54687,-0.175781 1.21094,-0.371094 0.97656,-0.3125 2.89062,-0.95703098 h 0.91797 q 0.0195,0.93749998 0.0195,1.07421898 0,16.0351559 -0.0976,19.1210929 -0.0586,1.816406 -0.0586,1.933594 0,2.1875 0.17578,2.441406 0.23438,0.351563 1.42578,0.488281 1.21094,0.136719 1.42579,0.273438 0.15625,0.07813 0.15625,0.273437 0,0.214844 -0.0977,0.3125 -0.0781,0.07813 -0.3125,0.07813 -0.13672,0 -2.05078,-0.05859 l -2.5586,-0.07813 -3.28125,0.136718 q -0.3125,0.01953 -0.46875,-0.117187 -0.11718,-0.09766 -0.11718,-0.273438 0,-0.195312 0.11718,-0.273437 0.13672,-0.09766 1.40625,-0.3125 1.28907,-0.214844 1.46485,-0.351563 0.19531,-0.15625 0.2539,-0.664062 0.0781,-0.703125 0.0781,-3.964844 l -0.0195,-4.492187 0.0586,-4.648438 -0.0195,-4.6484369 0.0586,-2.285156 q 0,-0.683594 -0.21484,-0.976563 -0.21484,-0.3125 -0.91797,-0.605469 -1.05469,-0.429687 -1.44531,-0.625 z"
       style="font-size:40px;font-family:Garamond;fill:#000000;stroke:none;stroke-width:1;stroke-miterlimit:4;stroke-dasharray:none;stroke-opacity:1"
       id="path2076" />
    <path
       d="m 378.73139,2.5365631 v -0.429687 q 0.54688,-0.175781 1.21094,-0.371094 0.97656,-0.3125 2.89063,-0.95703098 h 0.91797 q 0.0195,0.93749998 0.0195,1.07421898 0,16.0351559 -0.0977,19.1210929 -0.0586,1.816406 -0.0586,1.933594 0,2.1875 0.17578,2.441406 0.23437,0.351563 1.42578,0.488281 1.21094,0.136719 1.42578,0.273438 0.15625,0.07813 0.15625,0.273437 0,0.214844 -0.0977,0.3125 -0.0781,0.07813 -0.3125,0.07813 -0.13671,0 -2.05078,-0.05859 l -2.55859,-0.07813 -3.28125,0.136718 q -0.3125,0.01953 -0.46875,-0.117187 -0.11719,-0.09766 -0.11719,-0.273438 0,-0.195312 0.11719,-0.273437 0.13672,-0.09766 1.40625,-0.3125 1.28906,-0.214844 1.46484,-0.351563 0.19532,-0.15625 0.25391,-0.664062 0.0781,-0.703125 0.0781,-3.964844 l -0.0195,-4.492187 0.0586,-4.648438 -0.0195,-4.6484369 0.0586,-2.285156 q 0,-0.683594 -0.21484,-0.976563 -0.21485,-0.3125 -0.91797,-0.605469 -1.05469,-0.429687 -1.44532,-0.625 z"
       style="font-size:40px;font-family:Garamond;fill:#000000;stroke:none;stroke-width:1;stroke-miterlimit:4;stroke-dasharray:none;stroke-opacity:1"
       id="path2078" />
    <path
       d="m 387.09077,11.345157 q 0.42969,-0.03906 0.72266,-0.03906 h 0.9375 l 1.26953,-0.03906 1.66015,0.05859 1.34766,-0.03906 q 1.07422,0 1.93359,0.136719 0.0781,0.195312 0.0781,0.3125 l -0.0195,0.15625 q -0.41016,0.195312 -1.26953,0.273437 -1.21094,0.09766 -1.73829,0.429688 l -0.0391,0.214844 q 0,0.195312 0.15625,0.585937 0.0977,0.234375 0.25391,0.703125 0.42969,1.445313 1.85547,5.585938 1.03515,2.988281 1.91406,5.136718 0.54687,-1.171875 1.25,-2.96875 l 1.66016,-4.628906 q 0.54687,-1.523437 0.83984,-3.046875 0.11719,-0.605469 0.11719,-0.957031 0,-0.292969 -0.25391,-0.546875 -0.25391,-0.253906 -1.01562,-0.429688 -1.38672,-0.351562 -1.50391,-0.429687 -0.11719,-0.09766 -0.13672,-0.390625 0.11719,-0.09766 0.27344,-0.15625 h 1.21094 l 1.30859,0.01953 1.95312,-0.01953 1.25,0.01953 0.3125,-0.01953 q 0.13672,0 0.44922,0.03906 0.19532,0.09766 0.19532,0.3125 0,0.195313 -0.17579,0.351563 l -0.39062,0.05859 q -1.13281,0.15625 -1.73828,0.585937 -0.33203,0.234375 -0.56641,0.976563 -0.0781,0.273437 -0.2539,0.703125 -0.0977,0.234375 -0.29297,0.78125 -0.17578,0.546875 -0.46875,1.289062 l -0.23438,0.546875 -0.0195,0.09766 -3.32031,8.75 -2.42188,6.582031 q -0.23437,0.488282 -0.54687,1.210938 -0.74219,1.386719 -0.87891,1.523437 -0.58594,0.722657 -1.01562,1.015625 l -0.9961,0.429688 q -0.29297,0.07813 -0.625,0.07813 -0.8789,0 -1.28906,-0.390625 -0.41016,-0.371094 -0.41016,-1.035156 0,-0.625 0.60547,-1.132813 0.19532,-0.05859 0.39063,-0.15625 l 0.2539,-0.05859 q 1.73829,0.3125 2.16797,0.3125 0.41016,-0.214844 0.60547,-0.507812 0.95703,-1.425782 1.64063,-3.183594 0.68359,-1.757812 0.68359,-2.363281 0,-0.664063 -0.50781,-1.933594 l -2.16796,-5.742185 q -0.44922,-1.113281 -2.67578,-7.265625 -0.13672,-0.390625 -0.35156,-0.585938 l -1.32813,-0.488281 -0.41016,-0.07813 q -0.33203,-0.136719 -0.33203,-0.390625 z"
       style="font-size:40px;font-family:Garamond;fill:#000000;stroke:none;stroke-width:1;stroke-miterlimit:4;stroke-dasharray:none;stroke-opacity:1"
       id="path2080" />
    <path
       d="m 408.24311,21.071719 c -0.13021,0.02604 -0.22786,0.03906 -0.29297,0.03906 -0.0911,0 -0.22786,-0.01953 -0.41015,-0.05859 l -0.625,-11.2499999 c -0.0391,-0.78125 -0.14974,-1.777343 -0.33203,-2.988281 -0.26042,-1.614583 -0.39063,-2.773437 -0.39063,-3.476562 0,-0.703125 0.16276,-1.230469 0.48828,-1.582032 0.32552,-0.364583 0.72266,-0.546875 1.19141,-0.546875 0.50781,0 0.9375,0.182292 1.28906,0.546875 0.35157,0.351563 0.52735,0.852865 0.52735,1.503907 0,0.598958 -0.13021,2.024739 -0.39063,4.277343 -0.50781,4.3229169 -0.77474,7.1289069 -0.80078,8.4179689 l -0.15625,4.6875 c -0.013,0.104167 -0.0456,0.247396 -0.0977,0.429688 z"
       style="font-size:40px;font-family:Garamond;fill:#000000;stroke:none;stroke-width:1;stroke-miterlimit:4;stroke-dasharray:none;stroke-opacity:1"
       id="path2082"
       sodipodi:nodetypes="sscccscscscccss" />
    <path
       style="fill:#1a1a1a;fill-opacity:1;stroke:none;stroke-width:0.124307;stroke-opacity:1"
       d="m 405.14652,30.014415 c 0,-0.127406 0.053,-0.511275 0.11785,-0.853043 l 0.11785,-0.621395 -0.54074,-0.580662 c -1.32959,-1.427753 -1.35509,-2.773681 -0.0691,-3.648893 0.5369,-0.365406 1.338,-0.375197 1.78721,-0.02184 l 0.32781,0.257845 0.36577,-0.288922 c 0.45634,-0.360467 0.54424,-1.096915 0.13091,-1.096915 -0.13812,0 -0.24861,-0.08287 -0.24861,-0.186461 0,-0.103587 0.11049,-0.186459 0.24861,-0.186459 0.16574,0 0.24862,-0.08287 0.24862,-0.248613 0,-0.165742 0.0829,-0.248614 0.24861,-0.248614 0.16574,0 0.24861,0.08287 0.24861,0.248614 0,0.165741 0.0829,0.248613 0.24862,0.248613 0.13812,0 0.24861,0.08287 0.24861,0.186459 0,0.103589 -0.11049,0.186461 -0.24861,0.186461 -0.37694,0 -0.3326,0.650561 0.0719,1.055064 l 0.32052,0.320523 0.40891,-0.25272 c 1.05704,-0.653288 2.54982,0.09646 2.75903,1.385722 0.0971,0.598229 -0.36239,1.599156 -1.06366,2.3171 l -0.52464,0.537112 0.13273,0.618841 c 0.25878,1.206686 0.50124,1.103833 -2.60203,1.103833 -2.5851,0 -2.73475,-0.01267 -2.73475,-0.231647 z m 5.09657,-0.327734 c 0,-0.159199 -0.3453,-0.186459 -2.36182,-0.186459 -2.01654,0 -2.36183,0.02726 -2.36183,0.186459 0,0.1592 0.34529,0.186461 2.36183,0.186461 2.01652,0 2.36182,-0.02726 2.36182,-0.186461 z m -4.1183,-0.765349 c -0.22482,-0.270882 -0.48104,-0.195697 -0.48104,0.141153 0,0.28327 0.025,0.296724 0.30979,0.166949 0.24041,-0.109538 0.27876,-0.178546 0.17125,-0.308102 z m 3.994,0.143817 c 0,-0.331686 -0.2258,-0.408165 -0.47357,-0.1604 -0.11762,0.11762 -0.0892,0.184342 0.13053,0.306363 0.15448,0.0858 0.29488,0.157976 0.31195,0.160398 0.0171,0.0024 0.0311,-0.13544 0.0311,-0.306361 z M 408.5028,28.82764 c 0,-0.02457 -0.13985,-0.136294 -0.31076,-0.248287 -0.28867,-0.189135 -0.3337,-0.188599 -0.63306,0.0076 l -0.32229,0.211175 0.28666,0.216237 c 0.25612,0.193192 0.32359,0.197147 0.63306,0.03711 0.19051,-0.09852 0.34639,-0.199222 0.34639,-0.223787 z m -1.43063,-0.70669 c 0.76324,-0.130659 1.66807,-0.07098 2.40705,0.158753 0.40186,0.124929 0.44147,0.10553 1.08763,-0.532604 1.10608,-1.092336 1.32122,-2.167697 0.57591,-2.878692 -0.56638,-0.540324 -0.96083,-0.628625 -1.58156,-0.354047 -0.59275,0.262206 -1.04149,0.896951 -1.3814,1.954035 -0.1075,0.334318 -0.22433,0.691756 -0.25961,0.79431 -0.0353,0.102553 -0.14477,-0.120976 -0.24328,-0.496731 -0.28918,-1.102968 -0.79703,-1.883625 -1.44123,-2.215383 -0.51751,-0.266515 -0.59145,-0.274778 -0.98551,-0.110133 -0.23432,0.0979 -0.57723,0.357714 -0.76206,0.577362 -0.61482,0.730663 -0.3787,1.645795 0.71861,2.785216 0.45649,0.474024 0.63783,0.585741 0.85046,0.523946 0.14864,-0.0432 0.60538,-0.135911 1.01499,-0.206032 z m -1.63423,-0.762569 c -0.63313,-0.65761 -0.78864,-0.954574 -0.78864,-1.50598 0,-0.330009 0.0904,-0.508284 0.38245,-0.754013 0.21035,-0.176998 0.49663,-0.321816 0.63616,-0.321816 0.40123,0 1.15274,0.856984 1.44845,1.651726 0.39581,1.063779 0.37156,1.163519 -0.3076,1.265363 -0.31639,0.04745 -0.63929,0.110837 -0.71754,0.140869 -0.0783,0.03003 -0.37224,-0.184239 -0.65328,-0.476149 z m 3.58008,0.365557 -0.66568,-0.127634 0.072,-0.44344 c 0.12054,-0.742794 0.80035,-1.984584 1.19942,-2.190953 0.49474,-0.255839 0.66588,-0.234741 1.10705,0.136477 0.41525,0.349414 0.51258,0.93172 0.24364,1.457725 -0.15554,0.304223 -1.11883,1.337138 -1.22335,1.311793 -0.037,-0.009 -0.36691,-0.07377 -0.73305,-0.143968 z m -1.01245,-1.740169 c 0,-0.0881 0.11131,-0.378484 0.24734,-0.645307 0.22471,-0.440775 0.23014,-0.511367 0.0593,-0.772122 -0.23168,-0.3536 -0.56795,-0.367709 -0.86779,-0.03641 -0.21993,0.243031 -0.21864,0.266854 0.0429,0.790531 0.14831,0.296972 0.26966,0.603743 0.26966,0.681715 0,0.07797 0.0559,0.141768 0.12431,0.141768 0.0684,0 0.1243,-0.07208 0.1243,-0.160176 z m -0.30154,-0.917217 c -0.10195,-0.265696 0.12562,-0.515623 0.30563,-0.335627 0.13515,0.135158 0.0387,0.542873 -0.12839,0.542873 -0.0537,0 -0.1335,-0.09326 -0.17724,-0.207246 z"
       id="path863" />
    <path
       id="e"
       d="m 59.859039,17.076052 -7.850311,0.05582 -1.48787,-0.0015 q -0.9005,0 -1.840293,0.07952 a 3.4516509,3.3723978 0 0 0 -0.17621,0.783459 l 0.02004,0.19136 v 0.191359 l -0.02004,0.937211 q 0,1.166766 0.753758,2.859623 a 5.8173689,5.6837968 0 0 0 2.153422,2.582672 q 1.399666,0.889617 3.494551,0.94681 a 7.205206,7.0397679 0 0 0 1.781556,-0.267747 9.0172325,8.8101886 0 0 0 1.879384,-0.975406 l 1.409487,-1.128572 0.117474,0.765047 a 2.3755408,2.3209963 0 0 1 -0.02004,0.286942 8.6000595,8.4025943 0 0 1 -2.231406,1.912814 10.632199,10.388074 0 0 1 -2.740792,1.20496 9.5584949,9.3390232 0 0 1 -2.192514,0.172164 A 7.0163655,6.8552634 0 0 1 50.16764,27.1179 6.6727641,6.5195513 0 0 1 47.026313,24.411442 q -1.145271,-1.864828 -1.145271,-4.524474 a 9.9303619,9.7023517 0 0 1 0.323153,-2.160581 11.632332,11.365243 0 0 1 1.164717,-2.812226 5.6385518,5.5090855 0 0 1 1.390043,-1.664849 9.1938444,8.9827454 0 0 1 2.055595,-1.281542 7.6618711,7.4859476 0 0 1 2.956094,-0.516496 q 1.820647,0 2.975741,0.650271 a 5.9017657,5.7662558 0 0 1 2.339456,2.218755 q 0.773204,1.358125 0.773204,2.487482 z m -10.92388,-0.68866 h 0.920147 q 0.998328,0 5.951482,-0.305941 0.783026,-0.03918 0.959237,-0.152971 A 1.0424314,1.0184963 0 0 0 57.118447,15.27821 3.1218817,3.0502004 0 0 0 56.726934,13.929682 2.6982937,2.6363384 0 0 0 55.522925,12.762916 4.051049,3.9580332 0 0 0 53.633719,12.3516 q -2.270897,0 -3.641293,1.66485 -1.057267,1.261564 -1.057267,2.370942 z"
       style="fill:#000000;fill-opacity:1;stroke-width:0.198153" />
    <path
       id="t"
       d="M 1.1463425,5.5828672 1.9482129,2.6946474 A 1.6997647,1.6607365 0 0 1 2.163515,1.9581963 0.40093517,0.39172933 0 0 1 2.4768458,1.7956286 q 0.3524221,0 0.8018704,0.8226316 a 2.7063124,2.644173 0 0 0 0.5480784,0.7554497 1.3276968,1.2972117 0 0 0 0.6264612,0.2199554 l 0.1958569,-0.019583 0.8419638,0.076587 4.6201735,0.05739 5.46194,-0.018609 h 1.60735 l 3.034478,-0.055817 a 3.9137287,3.8238659 0 0 1 0.489341,0.037411 q 1.331306,0.113602 1.643834,0.113602 a 0.60621397,0.59229475 0 0 0 0.469897,-0.188032 q 0.05874,-0.07404 0.646107,-1.2627383 0.254593,-0.5386275 0.626461,-0.5386275 a 1.2972257,1.2674402 0 0 1 0.391513,0.075998 2.8921459,2.8257396 0 0 1 0.09783,0.6831759 l -0.02004,0.7593672 0.02004,1.6133361 q 0,0.5875944 -0.09783,3.7962489 A 0.93899017,0.9174301 0 0 1 24.403784,9.1029607 0.73050388,0.71373085 0 0 1 24.031917,9.2359531 0.34520519,0.33727896 0 0 1 23.757878,9.0937556 3.0617415,2.9914411 0 0 1 23.464193,8.2123646 Q 23.072679,6.5057959 22.485309,5.7664065 A 2.1780803,2.1280696 0 0 0 21.359684,5.083818 Q 20.625576,4.8752074 17.845692,4.8752074 h -3.307716 q -0.0401,0.7656358 -0.0401,1.397495 l 0.156565,11.8889856 q 0,0.708247 -0.07839,2.680016 l 0.02004,2.546241 -0.02004,1.416689 q 0,0.670053 0.234948,0.95719 0.234948,0.287138 1.272367,0.55371 1.801002,0.440499 2.408018,0.536082 a 1.7841615,1.7431955 0 0 1 0.606815,0.15297 v 0.573883 l -2.779684,-0.06718 q -2.290743,-0.01665 -3.445637,-0.08481 l -2.85826,0.133975 -2.0956877,0.114581 A 8.1636415,7.9761968 0 0 1 6.8422189,27.635859 L 6.5689836,27.522061 a 0.94400186,0.92232672 0 0 1 0.176209,-0.564286 Q 6.8823124,26.833401 7.469482,26.757013 a 16.371987,15.996071 0 0 0 1.938121,-0.411315 q 1.115802,-0.296539 1.468224,-0.60248 a 1.0310048,1.007332 0 0 0 0.274039,-0.573883 q 0.176212,-0.842219 0.176212,-3.309134 V 18.608848 L 11.247688,11.512671 11.169298,9.9825758 11.149258,4.875601 H 7.9991244 q -2.8189732,0 -3.4259889,0.3329699 Q 3.6128957,5.7287874 1.7140667,8.2519159 1.0876055,9.1979423 0.6177095,9.1979423 L 0.44149847,9.1597502 A 0.39712628,0.3880079 0 0 1 0.36311576,8.9493915 9.0535171,8.8456401 0 0 1 0.67644657,7.5712877 Q 1.0679598,6.0993648 1.1463426,5.5828701 Z"
       style="fill:#000000;fill-opacity:1;stroke-width:0.198153" />
    <path
       id="h"
       d="m 25.263984,27.084475 q 2.290342,-0.401522 2.642764,-0.611489 0.215302,-0.133972 0.215302,-0.611686 l -0.02004,-1.261172 0.02004,-2.236187 -0.0401,-5.695157 0.02004,-2.121411 v -1.50992 l 0.05874,-1.85386 q 0,-4.3574007 -0.088,-5.2078454 -0.088,-0.8504438 -0.3426,-1.0608024 Q 27.260235,4.47562 25.145903,3.99771 V 3.902128 a 2.7754738,2.7117464 0 0 1 0.0401,-0.3825241 q 0.274038,-0.039176 0.528633,-0.095582 a 3.4554597,3.3761192 0 0 1 0.489341,-0.076587 q 2.329634,-0.6502713 3.3869,-1.2623486 h 0.959237 q 0.0401,0.535886 0.0401,3.3872845 l -0.02004,2.4302896 0.02004,3.1383386 -0.07979,3.865781 q 0,0.34433 0.0401,0.765439 a 18.45685,18.033064 0 0 1 1.804208,-1.858951 8.868285,8.6646611 0 0 1 2.175876,-1.273512 6.2780434,6.1338938 0 0 1 2.432072,-0.470076 q 2.412227,0 3.941594,1.986851 0.882057,1.1652 0.882057,3.304629 l -0.05874,1.948658 0.02004,1.088811 -0.07839,1.89127 q -0.07839,2.350376 -0.07839,2.789309 0,0.496321 0.0401,1.337168 l 1.115803,0.248356 q 1.115802,0.229162 1.722818,0.420129 l -0.02004,0.592883 -4.170127,-0.115168 q -0.352422,0 -1.918475,0.07659 -0.959238,0.03918 -1.115803,0.03918 h -0.430802 a 0.64149628,0.62676694 0 0 1 -0.09783,-0.286941 v -0.172166 q 0.273037,-0.345309 1.017974,-0.459693 l 1.174541,-0.267552 a 0.71727303,0.70080378 0 0 0 0.274038,-0.401131 q 0.07839,-0.496713 0.176211,-4.927759 l 0.0401,-1.41336 q 0.07839,-2.234619 -0.353224,-3.705367 a 2.7452031,2.6821708 0 0 0 -1.245906,-1.613925 4.1049748,4.0107208 0 0 0 -2.24644,-0.601697 4.5864979,4.4811878 0 0 0 -2.001068,0.439326 7.6779086,7.5016168 0 0 0 -1.550015,1.126809 6.9065092,6.7479295 0 0 0 -1.256931,1.375557 q -0.235149,0.381348 -0.235149,1.258235 l 0.02004,1.33423 -0.0401,1.391814 q 0,0.171578 0.05874,2.382498 l -0.02004,1.220041 0.0401,1.334426 a 2.2452369,2.1936842 0 0 0 0.05874,0.419347 l 2.760238,0.648508 a 6.1236833,5.9830779 0 0 1 0.646107,0.235037 l 0.05874,0.215451 a 0.92736306,0.90606995 0 0 1 -0.09783,0.313383 q -0.567724,0.01958 -0.862011,0.01958 l -1.52656,-0.01958 -3.367856,0.03918 -2.524688,0.07659 q -0.195857,-0.01958 -0.58737,-0.03918 l -0.02004,-0.133972 a 0.76177682,0.74428573 0 0 1 0.157168,-0.381545 z"
       style="fill:#000000;fill-opacity:1;stroke-width:0.198153" />
    <path
       id="m"
       d="m 61.559041,26.970684 a 2.0219161,1.975491 0 0 1 0.860807,-0.286942 3.859402,3.7707866 0 0 0 1.213832,-0.305941 1.4487792,1.415514 0 0 0 0.469896,-0.822632 q 0.13712,-0.68866 0.13712,-4.839227 0,-4.073985 -0.254594,-5.259946 A 3.5568964,3.4752268 0 0 0 62.8703,15.035278 q -0.215302,-0.03918 -0.900501,-0.210358 v -0.640281 a 5.8919428,5.7566585 0 0 0 1.877579,-0.844373 q 0.717474,-0.518846 1.996056,-2.074011 h 0.117675 q 0.118076,0 0.373471,-0.01958 a 0.50116896,0.48966167 0 0 1 0.254995,0.09695 l -0.02004,2.180562 q 0,0.669465 0.0401,1.434512 2.091278,-1.855425 3.752352,-2.601474 a 6.1834226,6.0414456 0 0 1 2.559971,-0.4973 q 1.700166,0 2.696691,0.631272 0.996524,0.631271 1.896423,2.276143 1.742263,-1.683261 3.161574,-2.352726 a 6.5384507,6.3883219 0 0 1 2.86809,-0.669466 q 2.192514,0 3.602202,1.398082 1.390042,1.417277 1.429133,4.155661 v 1.589637 l 0.02004,1.743195 -0.02004,4.48158 q -0.02004,0.785025 0.352422,1.187331 0.156566,0.05739 1.194186,0.344526 a 2.8235859,2.7587538 0 0 1 0.763581,0.267943 0.33758741,0.3298361 0 0 1 0.117474,0.267943 1.4106904,1.3782996 0 0 1 -0.117474,0.4973 H 90.749541 L 88.77714,27.563569 q -0.35142,-0.01958 -1.113196,-0.01958 -0.937186,0 -2.616503,0.07659 h -0.997126 q -0.214701,0 -0.839758,0.01958 a 2.869894,2.8039986 0 0 1 -0.02004,-0.30594 0.82773067,0.80872521 0 0 1 0.13712,-0.382523 5.9983911,5.8606626 0 0 1 1.44878,-0.373514 q 0.920146,-0.143569 1.145271,-0.517279 0.225125,-0.37371 0.225125,-2.978514 0,-5.650695 -0.13732,-6.550889 a 3.6014001,3.5187087 0 0 0 -1.246106,-2.250681 3.8614066,3.7727452 0 0 0 -2.541128,-0.814014 4.6999625,4.5920471 0 0 0 -2.295755,0.60248 8.3294282,8.1381769 0 0 0 -2.196924,1.807439 l -0.02004,0.459107 v 2.926414 l -0.07839,2.276142 q 0,3.481103 0.06856,3.959405 a 1.100968,1.0756888 0 0 0 0.332775,0.698062 q 0.264217,0.219956 1.536786,0.391729 a 8.815963,8.6135405 0 0 1 0.881054,0.15297 0.63127243,0.61677784 0 0 1 0.234948,0.497301 0.36765755,0.3592158 0 0 1 -0.175609,0.343938 h -0.332777 l -0.978883,-0.01958 h -5.696888 l -1.566053,0.01958 a 3.6432979,3.5596445 0 0 1 -0.0401,-0.420718 l 0.02004,-0.229553 q 0.430604,-0.229553 1.605345,-0.439911 a 6.8760382,6.7181581 0 0 0 1.252922,-0.325136 0.5961906,0.58250152 0 0 0 0.176211,-0.248749 q 0.09783,-0.267746 0.13712,-1.530094 l 0.09783,-2.218755 -0.0401,-2.505697 0.02004,-1.396319 q 0,-2.352726 -0.976479,-3.433311 a 3.1429308,3.0707662 0 0 0 -2.460338,-1.079802 6.2730317,6.1289971 0 0 0 -2.783292,0.669466 6.6533187,6.5005525 0 0 0 -2.314599,1.798429 q -0.02004,0.535494 -0.02004,0.975406 l 0.07839,6.426907 q 0.02004,2.103978 0.244771,2.400517 0.224724,0.29654 1.008151,0.411316 1.252923,0.172165 1.62479,0.420717 a 0.39532208,0.38624512 0 0 1 0.176211,0.34433 q 0,0.15297 -0.02004,0.363329 -2.237217,-0.15297 -3.002603,-0.15297 -0.784831,0 -1.412896,0.01958 l -0.980888,0.05739 h -0.607818 l -2.197725,0.07541 a 0.85860267,0.83888837 0 0 1 -0.0401,-0.221131 1.9898412,1.9441527 0 0 1 0.07919,-0.371751 z"
       style="fill:#000000;fill-opacity:1;stroke-width:0.198153" />
    <path
       d="m 105.4269,16.315315 -7.85031,0.05582 -1.487876,-0.0015 q -0.900497,0 -1.840288,0.07952 a 3.4516509,3.3723978 0 0 0 -0.176211,0.783459 l 0.02004,0.19136 v 0.191359 l -0.02004,0.937211 q 0,1.166766 0.753758,2.859623 a 5.8173689,5.6837968 0 0 0 2.153421,2.582672 q 1.399664,0.889617 3.494546,0.94681 a 7.205206,7.0397679 0 0 0 1.78156,-0.267747 9.0172325,8.8101886 0 0 0 1.87938,-0.975406 l 1.40949,-1.128572 0.11748,0.765047 a 2.3755408,2.3209963 0 0 1 -0.02,0.286942 8.6000595,8.4025943 0 0 1 -2.2314,1.912814 10.632199,10.388074 0 0 1 -2.7408,1.20496 9.5584949,9.3390232 0 0 1 -2.192507,0.172164 7.0163655,6.8552634 0 0 1 -2.741599,-0.554688 6.6727641,6.5195513 0 0 1 -3.141327,-2.706458 q -1.145271,-1.864828 -1.145271,-4.524474 a 9.9303619,9.7023517 0 0 1 0.323154,-2.160581 11.632332,11.365243 0 0 1 1.164717,-2.812226 5.6385518,5.5090855 0 0 1 1.390041,-1.664849 9.1938444,8.9827454 0 0 1 2.055597,-1.281542 7.6618711,7.4859476 0 0 1 2.956092,-0.516496 q 1.820643,0 2.975743,0.650271 a 5.9017657,5.7662558 0 0 1 2.33945,2.218755 q 0.77321,1.358125 0.77321,2.487482 z m -10.92388,-0.68866 h 0.920146 q 0.998329,0 5.951484,-0.305941 0.78302,-0.03918 0.95924,-0.152971 a 1.0424314,1.0184963 0 0 0 0.35242,-0.65027 3.1218817,3.0502004 0 0 0 -0.39151,-1.348528 2.6982937,2.6363384 0 0 0 -1.20401,-1.166766 4.051049,3.9580332 0 0 0 -1.88921,-0.411316 q -2.270893,0 -3.641294,1.66485 -1.057266,1.261564 -1.057266,2.370942 z"
       id="e-9"
       style="fill:#000000;fill-opacity:1;stroke-width:0.198153" />
  </g>
  <g
     transform="translate(0,52)"
     id="stroke_group">
    <path
       id="path2048-7"
       style="font-size:40px;font-family:Garamond;fill:none;fill-opacity:1;stroke:#000000;stroke-width:1;stroke-miterlimit:4;stroke-dasharray:none;stroke-opacity:1"
       d="m 134.20655,-49.264109 q 0.15625,1.289062 0.15625,1.484375 l -0.0781,1.738281 q -0.0391,1.113281 -0.0977,1.425781 -0.17578,0.07813 -0.29297,0.07813 l -0.17578,-0.03906 q -0.625,-2.734375 -2.1289,-3.984375 -1.48438,-1.25 -3.63282,-1.25 -2.22655,0 -3.65233,1.25 -1.42578,1.25 -1.42578,2.910156 0,1.269531 0.99609,2.324219 0.99609,1.054687 5.09765,3.164062 3.125,1.621094 4.47266,2.65625 1.34765,1.015625 2.03125,2.363281 0.68359,1.347656 0.68359,3.007813 0,2.089843 -1.09375,3.925781 -1.07422,1.835937 -2.91016,2.773437 -1.83593,0.917969 -4.86327,0.917969 -2.63672,0 -5.0586,-0.839844 -1.42578,-0.507812 -1.73828,-0.820312 -0.3125,-0.3125 -0.3125,-0.664063 0,-0.214843 0.0391,-0.546875 0.27344,-2.304687 0.29297,-3.789062 0.0391,-0.917969 0.13672,-1.074219 0.0781,-0.136719 0.29297,-0.136719 0.17578,0 0.27344,0.136719 0.11718,0.117188 0.15625,0.46875 0.21484,2.402344 2.22656,4.296875 1.99219,1.894531 4.51171,1.894531 1.54297,0 2.83204,-0.644531 1.30859,-0.644531 2.03125,-1.855469 0.74218,-1.230468 0.74218,-2.382812 0,-1.582031 -1.11328,-2.890625 -1.11326,-1.308601 -4.47263,-3.046882 -3.35937,-1.757813 -4.375,-2.558594 -1.64062,-1.308594 -2.46094,-2.773437 -0.60546,-1.132813 -0.60546,-2.636719 0,-2.714844 2.14843,-4.589844 2.14844,-1.894531 5.76172,-1.894531 1.99218,0 3.4375,0.449219 1.05468,0.351562 2.16796,1.152344 z" />
    <path
       id="path2050-9"
       style="font-size:40px;font-family:Garamond;fill:none;fill-opacity:1;stroke:#000000;stroke-width:1;stroke-miterlimit:4;stroke-dasharray:none;stroke-opacity:1"
       d="m 153.69874,-27.818797 q 0.11719,0.253906 0.11719,0.371094 0,0.292968 -0.46875,1.035156 -0.60547,0.976562 -1.34766,1.425781 -0.46875,0.292969 -1.28906,0.292969 -1.40625,0 -2.10937,-0.859375 -0.42969,-0.507813 -0.60547,-1.816406 l -2.1875,1.523437 q -1.15235,0.664063 -1.75782,0.839844 -0.97656,0.253906 -2.34375,0.253906 -0.99609,0 -1.58203,-0.585937 -0.5664,-0.605469 -0.5664,-1.542969 0,-1.347656 1.64062,-3.222656 1.66016,-1.875 4.49219,-3.066407 1.99219,-0.839843 2.44141,-1.074218 0.0391,-0.644532 0.0391,-1.40625 0,-2.480469 -0.70313,-3.359375 -0.68359,-0.878907 -1.97265,-0.878907 -1.34766,0 -2.51953,1.054688 -0.72266,0.664062 -1.09375,2.5 -0.11719,0.507812 -0.44922,1.09375 -0.83985,0.546875 -1.34766,0.546875 -0.42969,0 -0.78125,-0.253906 -0.19531,-0.136719 -0.19531,-0.3125 0,-0.507813 1.07422,-2.285157 1.09375,-1.796875 2.73437,-2.675781 1.66016,-0.898437 2.89063,-0.898437 1.67968,0 2.5,0.3125 0.82031,0.292968 1.44531,1.054687 0.625,0.761719 0.76172,1.660156 0.0781,0.429688 0.0781,3.066407 l -0.0586,3.105468 0.0195,2.265625 q 0,0.449219 -0.0195,0.761719 -0.0195,0.566406 -0.0195,0.839844 0,0.644531 0.37109,1.035156 0.3711,0.390625 0.87891,0.390625 0.74219,0 1.26953,-0.742187 l 0.23437,-0.3125 q 0.0977,-0.05859 0.42969,-0.136719 z m -5.74219,-0.566406 q 0.13672,-2.480469 0.13672,-3.496094 0,-0.527344 -0.0586,-1.425781 -1.30859,0.46875 -2.77344,1.425781 -1.46484,0.957031 -2.32422,2.207031 -0.625,0.898438 -0.625,1.699219 0,0.761719 0.50782,1.269531 0.52734,0.507813 1.30859,0.507813 0.60547,0 1.46484,-0.429688 1.13282,-0.566406 2.36328,-1.757812 z" />
    <path
       id="path2052-6"
       style="font-size:40px;font-family:Garamond;fill:none;fill-opacity:1;stroke:#000000;stroke-width:1;stroke-miterlimit:4;stroke-dasharray:none;stroke-opacity:1"
       d="m 153.35694,-40.67036 q 2.16797,0.01953 3.78907,0.136719 1.15234,0 1.67968,-0.03906 0.3711,-0.01953 0.46875,-0.01953 l 2.1875,0.01953 q 0.44922,0.07813 0.72266,0.09766 0.11719,0.03906 0.21484,0.214844 0,0.195312 -0.11718,0.410156 -0.33203,0.09766 -0.6836,0.117187 -1.46484,0.15625 -2.46093,0.449219 -0.13672,0.09766 -0.13672,0.195313 0,0.195312 0.19531,0.605468 0.0391,0.09766 0.17578,0.46875 l 1.95313,4.6875 q 1.30859,3.222657 2.42187,5.429688 0.76172,-1.445313 1.40625,-2.988281 0.64453,-1.542969 1.89453,-4.863282 0.35156,-0.9375 0.66406,-2.324218 0.0586,-0.273438 0.0586,-0.46875 0,-0.234375 -0.27344,-0.507813 -0.25391,-0.292969 -0.87891,-0.46875 -0.13671,-0.01953 -1.77734,-0.292969 -0.13672,-0.07813 -0.25391,-0.214843 v -0.15625 q 0,-0.09766 0.0195,-0.253907 0.46875,-0.05859 0.68359,-0.05859 l 2.30469,0.01953 q 0.23437,0 1.11328,-0.05859 3.10547,0 3.73047,0.05859 0.11718,0.03906 0.21484,0.234375 0,0.175781 -0.11719,0.390625 l -0.60547,0.15625 q -0.23437,0.01953 -0.37109,0.03906 -1.67969,0.15625 -2.07031,0.46875 -0.29297,0.214844 -0.91797,2.011719 -0.29297,0.878906 -0.85938,2.226563 l -1.01562,2.460937 q -0.21484,0.527344 -0.46875,1.152344 l -3.02734,6.992187 h -0.58594 q -0.17578,-0.46875 -0.42969,-0.976562 l -1.48437,-3.144531 -3.4961,-8.183594 q -1.05469,-2.382813 -1.26953,-2.578125 -0.21484,-0.195313 -2.5,-0.820313 -0.11719,-0.3125 -0.11719,-0.449218 z" />
    <path
       id="path2054-5"
       style="font-size:40px;font-family:Garamond;fill:none;fill-opacity:1;stroke:#000000;stroke-width:1;stroke-miterlimit:4;stroke-dasharray:none;stroke-opacity:1"
       d="m 187.04835,-35.475047 -7.83203,0.05859 h -1.48438 q -0.89843,0 -1.83593,0.07813 -0.17578,0.585937 -0.17578,0.800781 l 0.0195,0.195312 v 0.195313 l -0.0195,0.957031 q 0,1.191406 0.74218,2.929688 0.76172,1.71875 2.14844,2.636718 1.40625,0.898438 3.49609,0.957032 1.11329,-0.05859 1.77735,-0.273438 0.66406,-0.214844 1.875,-0.996094 l 1.40625,-1.152343 0.11719,0.78125 q 0,0.136718 -0.0195,0.292968 -0.8789,1.113282 -2.22656,1.953125 -1.34765,0.839844 -2.73437,1.230469 -0.66407,0.175781 -2.1875,0.175781 -1.38672,0 -2.73438,-0.566406 -1.99219,-0.859375 -3.14453,-2.753906 -1.13281,-1.914063 -1.13281,-4.628906 0,-0.859375 0.3125,-2.207032 0.33203,-1.347656 1.17187,-2.871093 0.56641,-1.035157 1.38672,-1.699219 1.17188,-0.9375 2.05078,-1.308594 1.26953,-0.527343 2.94922,-0.527343 1.81641,0 2.96875,0.664062 1.5625,0.878906 2.32422,2.265625 0.78125,1.386719 0.78125,2.539062 z m -10.89844,-0.703125 h 0.91797 q 0.9961,0 5.9375,-0.3125 0.78125,-0.03906 0.95703,-0.15625 0.35157,-0.371094 0.35157,-0.664063 0,-0.605468 -0.39063,-1.367187 -0.39062,-0.78125 -1.21094,-1.191406 -0.80078,-0.429688 -1.875,-0.429688 -2.26562,0 -3.63281,1.699219 -1.05469,1.289062 -1.05469,2.421875 z" />
    <path
       id="path2056-8"
       style="font-size:40px;font-family:Garamond;fill:none;fill-opacity:1;stroke:#000000;stroke-width:1;stroke-miterlimit:4;stroke-dasharray:none;stroke-opacity:1"
       d="m 202.46827,-39.342235 0.0195,-0.566406 -0.0195,-2.285156 0.0195,-4.316406 q 0,-1.796875 -0.39062,-2.285156 -0.39063,-0.488282 -2.28516,-0.996094 -0.13672,-0.03906 -0.42969,-0.117188 v -0.214843 q 0,-0.195313 0.0391,-0.429688 2.65625,-0.273437 4.57031,-0.917969 l 0.99609,-0.01953 q 0.0781,1.328125 0.0781,2.96875 l -0.0781,7.519531 0.13672,8.476563 -0.0586,4.511719 q 0,1.386718 0.19531,1.5625 0.39063,0.390625 1.71875,0.410156 0.27344,0 0.74219,0.03906 v 0.351563 q 0,0.136719 -0.0195,0.292969 -0.60547,0.136718 -1.25,0.253906 l -2.83203,0.546875 q -0.625,0.117187 -0.9961,0.117187 v -1.875001 q -0.33203,0.09766 -1.03515,0.390625 -3.04688,1.289063 -5.60547,1.289063 -1.54297,0 -3.14453,-0.996094 -1.60157,-1.015625 -2.46094,-2.8125 -0.85938,-1.796875 -0.85938,-3.671875 0,-1.679688 0.56641,-3.203125 0.56641,-1.542969 1.48437,-2.558594 0.58594,-0.664062 1.66016,-1.308594 1.07422,-0.664062 1.77734,-0.839843 1.73829,-0.449219 2.32422,-0.449219 2.63672,0 4.33594,0.78125 0.52734,0.253906 0.80078,0.351562 z m 0.0195,12.070313 q 0.0781,-1.308594 0.0781,-5.390625 0,-3.457031 -0.33203,-4.355469 -0.3125,-0.917969 -1.60157,-1.71875 -1.28906,-0.820312 -2.89062,-0.820312 -2.24609,0 -3.80859,1.738281 -1.5625,1.738281 -1.5625,5.136719 0,2.988281 1.67968,4.765625 1.69922,1.777343 4.21875,1.777343 1.44532,0 2.63672,-0.390625 1.19141,-0.390625 1.58203,-0.742187 z" />
    <path
       id="path2058-4"
       style="font-size:40px;font-family:Garamond;fill:none;fill-opacity:1;stroke:#000000;stroke-width:1;stroke-miterlimit:4;stroke-dasharray:none;stroke-opacity:1"
       d="m 233.7378,-49.264109 q 0.15625,1.289062 0.15625,1.484375 l -0.0781,1.738281 q -0.0391,1.113281 -0.0977,1.425781 -0.17578,0.07813 -0.29297,0.07813 l -0.17578,-0.03906 q -0.625,-2.734375 -2.1289,-3.984375 -1.48438,-1.25 -3.63282,-1.25 -2.22656,0 -3.65234,1.25 -1.42578,1.25 -1.42578,2.910156 0,1.269531 0.99609,2.324219 0.9961,1.054687 5.09766,3.164062 3.125,1.621094 4.47265,2.65625 1.34766,1.015625 2.03125,2.363281 0.6836,1.347656 0.6836,3.007813 0,2.089843 -1.09375,3.925781 -1.07422,1.835937 -2.91016,2.773437 -1.83594,0.917969 -4.86328,0.917969 -2.63672,0 -5.05859,-0.839844 -1.42578,-0.507812 -1.73828,-0.820312 -0.3125,-0.3125 -0.3125,-0.664063 0,-0.214843 0.0391,-0.546875 0.27344,-2.304687 0.29297,-3.789062 0.0391,-0.917969 0.13672,-1.074219 0.0781,-0.136719 0.29296,-0.136719 0.17579,0 0.27344,0.136719 0.11719,0.117188 0.15625,0.46875 0.21485,2.402344 2.22656,4.296875 1.99219,1.894531 4.51172,1.894531 1.54297,0 2.83203,-0.644531 1.3086,-0.644531 2.03125,-1.855469 0.74219,-1.230468 0.74219,-2.382812 0,-1.582031 -1.11328,-2.890625 -1.11328,-1.308594 -4.47266,-3.046875 -3.35937,-1.757813 -4.375,-2.558594 -1.64062,-1.308594 -2.46093,-2.773437 -0.60547,-1.132813 -0.60547,-2.636719 0,-2.714844 2.14844,-4.589844 2.14843,-1.894531 5.76171,-1.894531 1.99219,0 3.4375,0.449219 1.05469,0.351562 2.16797,1.152344 z" />
    <path
       id="path2060-1"
       style="font-size:40px;font-family:Garamond;fill:none;fill-opacity:1;stroke:#000000;stroke-width:1;stroke-miterlimit:4;stroke-dasharray:none;stroke-opacity:1"
       d="m 237.99562,-40.494578 h 1.46484 l 0.64453,0.03906 0.50781,-0.03906 q 2.01172,0 2.5,0.03906 l 0.0195,0.371094 q 0,2.753906 -0.0781,5.332031 -0.0586,1.523438 -0.0586,1.738281 0,3.4375 0.21484,4.296875 0.23437,0.859375 1.05469,1.386719 0.83984,0.507813 2.01172,0.507813 1.42578,0 2.71484,-0.585938 1.30859,-0.605469 2.22656,-1.464844 0.0977,-0.742187 0.0977,-1.640625 0,-2.910156 0.0586,-3.925781 0.0195,-0.605469 0.0195,-1.054687 0,-3.164063 -0.3125,-3.574219 -0.3125,-0.410156 -2.38281,-0.625 -0.68359,-0.07813 -0.99609,-0.136719 -0.15625,-0.253906 -0.15625,-0.390625 l 0.0586,-0.214844 q 0.50781,-0.05859 0.99609,-0.05859 l 3.10547,0.03906 q 1.66016,-0.03906 1.75782,-0.03906 0.21484,0 0.41015,0.01953 l 0.0391,1.425781 q -0.13671,2.96875 -0.15625,7.34375 l -0.0391,1.582031 0.0781,2.65625 q 0.17578,0.3125 0.3125,0.371094 0.23437,0.09766 0.95703,0.09766 h 0.17578 q 0.25391,0 1.44531,0.117188 0.0195,0.253906 0.0195,0.371094 v 0.214843 q -2.61713,0.566407 -4.23823,1.132813 -0.64453,0.214844 -1.09375,0.3125 -0.0977,-0.683594 -0.0977,-0.839844 v -1.582035 q 0,-0.09766 -0.0195,-0.527344 -0.2539,0.175781 -0.58593,0.429688 -1.54297,1.191406 -3.26172,2.011718 -1.15235,0.566407 -2.22656,0.566407 -2.05079,0 -3.33985,-1.523438 -1.30859,-1.523437 -1.30859,-5.195312 0,-0.195313 0.0195,-0.703125 0.0781,-0.9375 0.0781,-1.308594 0,-0.136719 -0.0195,-0.859375 -0.0195,-0.3125 -0.0195,-0.546875 0,-0.175781 0.0195,-0.78125 0.0195,-0.625 0.0195,-0.878906 0,-0.332032 -0.0195,-0.585938 l -0.0391,-1.035156 0.0195,-0.546875 q 0,-0.3125 -0.3125,-0.566406 -1.23047,-0.332032 -1.62109,-0.371094 -0.3711,-0.05859 -0.66406,-0.175781 z" />
    <path
       id="path2062-0"
       style="font-size:40px;font-family:Garamond;fill:none;fill-opacity:1;stroke:#000000;stroke-width:1;stroke-miterlimit:4;stroke-dasharray:none;stroke-opacity:1"
       d="m 272.56593,-28.736766 0.0195,1.269531 q -1.52344,1.621094 -3.00781,2.265625 -1.48438,0.644532 -3.4961,0.644532 -2.1875,0 -3.94531,-1.132813 -1.75781,-1.152344 -2.71484,-3.242187 -0.9375,-2.089844 -0.9375,-4.101563 0,-2.207031 1.13281,-4.160156 1.15234,-1.972656 3.02734,-2.929688 1.89453,-0.976562 4.7461,-0.976562 2.73437,0 4.16015,0.9375 0.80078,0.546875 0.80078,1.40625 0,0.625 -0.41015,1.035156 -0.41016,0.410156 -1.05469,0.410156 -0.97656,0 -2.14844,-1.210937 -0.72265,-0.742188 -1.30859,-1.015625 -0.58594,-0.292969 -1.30859,-0.292969 -1.73829,0 -2.89063,1.425781 -1.60156,2.03125 -1.60156,5.097657 0,3.164062 1.64062,5.039062 1.64063,1.875 3.82813,1.875 1.52344,0 2.69531,-0.488281 1.19141,-0.507812 2.77344,-1.855469 z" />
    <path
       id="path2064-7"
       style="font-size:40px;font-family:Garamond;fill:none;fill-opacity:1;stroke:#000000;stroke-width:1;stroke-miterlimit:4;stroke-dasharray:none;stroke-opacity:1"
       d="m 289.20655,-28.736766 0.0195,1.269531 q -1.52343,1.621094 -3.00781,2.265625 -1.48437,0.644532 -3.49609,0.644532 -2.1875,0 -3.94531,-1.132813 -1.75782,-1.152344 -2.71485,-3.242187 -0.9375,-2.089844 -0.9375,-4.101563 0,-2.207031 1.13281,-4.160156 1.15235,-1.972656 3.02735,-2.929688 1.89453,-0.976562 4.74609,-0.976562 2.73438,0 4.16016,0.9375 0.80078,0.546875 0.80078,1.40625 0,0.625 -0.41016,1.035156 -0.41015,0.410156 -1.05468,0.410156 -0.97657,0 -2.14844,-1.210937 -0.72266,-0.742188 -1.3086,-1.015625 -0.58593,-0.292969 -1.30859,-0.292969 -1.73828,0 -2.89062,1.425781 -1.60157,2.03125 -1.60157,5.097657 0,3.164062 1.64063,5.039062 1.64062,1.875 3.82812,1.875 1.52344,0 2.69532,-0.488281 1.1914,-0.507812 2.77343,-1.855469 z" />
    <path
       id="path2066-2"
       style="font-size:40px;font-family:Garamond;fill:none;fill-opacity:1;stroke:#000000;stroke-width:1;stroke-miterlimit:4;stroke-dasharray:none;stroke-opacity:1"
       d="m 305.71046,-35.475047 -7.83203,0.05859 h -1.48438 q -0.89843,0 -1.83593,0.07813 -0.17579,0.585937 -0.17579,0.800781 l 0.0195,0.195312 v 0.195313 l -0.0195,0.957031 q 0,1.191406 0.74219,2.929688 0.76172,1.71875 2.14844,2.636718 1.40625,0.898438 3.49609,0.957032 1.11328,-0.05859 1.77735,-0.273438 0.66406,-0.214844 1.875,-0.996094 l 1.40625,-1.152343 0.11718,0.78125 q 0,0.136718 -0.0195,0.292968 -0.8789,1.113282 -2.22656,1.953125 -1.34766,0.839844 -2.73437,1.230469 -0.66407,0.175781 -2.1875,0.175781 -1.38672,0 -2.73438,-0.566406 -1.99219,-0.859375 -3.14453,-2.753906 -1.13281,-1.914063 -1.13281,-4.628906 0,-0.859375 0.3125,-2.207032 0.33203,-1.347656 1.17187,-2.871093 0.56641,-1.035157 1.38672,-1.699219 1.17188,-0.9375 2.05078,-1.308594 1.26953,-0.527343 2.94922,-0.527343 1.81641,0 2.96875,0.664062 1.5625,0.878906 2.32422,2.265625 0.78125,1.386719 0.78125,2.539062 z m -10.89844,-0.703125 h 0.91797 q 0.99609,0 5.9375,-0.3125 0.78125,-0.03906 0.95703,-0.15625 0.35156,-0.371094 0.35156,-0.664063 0,-0.605468 -0.39062,-1.367187 -0.39063,-0.78125 -1.21094,-1.191406 -0.80078,-0.429688 -1.875,-0.429688 -2.26562,0 -3.63281,1.699219 -1.05469,1.289062 -1.05469,2.421875 z" />
    <path
       id="path2068-3"
       style="font-size:40px;font-family:Garamond;fill:none;fill-opacity:1;stroke:#000000;stroke-width:1;stroke-miterlimit:4;stroke-dasharray:none;stroke-opacity:1"
       d="m 309.71437,-30.123485 q 0.72265,1.855469 1.09375,2.402344 0.74218,1.113281 1.77734,1.738281 1.03516,0.605469 2.24609,0.605469 1.11328,0 2.20703,-0.957031 0.78125,-0.722656 0.78125,-1.679688 0,-1.269531 -0.91796,-2.34375 -0.91797,-1.054687 -3.4961,-2.011718 -2.55859,-0.976563 -3.4375,-2.070313 -0.8789,-1.09375 -0.8789,-2.5 0,-1.328125 0.72265,-2.34375 0.72266,-1.015625 1.99219,-1.523437 1.26953,-0.527344 2.34375,-0.527344 1.38672,0 2.48047,0.214844 1.11328,0.214843 1.91406,0.664062 0.15625,0.996094 0.25391,2.929688 l 0.0391,0.625 q -0.25391,0.01953 -0.42969,0.01953 h -0.27344 q -0.58593,-1.621094 -1.79687,-2.558594 -1.19141,-0.957031 -2.36328,-0.957031 -1.17188,0 -1.89453,0.722656 -0.72266,0.703125 -0.72266,1.855469 0,0.878906 0.58594,1.5625 0.58594,0.683594 2.73437,1.5625 2.16797,0.878906 3.14453,1.640625 0.9961,0.742187 1.46485,1.816406 0.46875,1.074219 0.46875,2.050781 0,1.347657 -0.89844,2.519532 -0.87891,1.171875 -2.22656,1.640625 -1.32817,0.488282 -2.38285,0.488282 -2.48047,0 -4.57032,-0.917969 -0.19531,-0.15625 -0.21484,-0.585937 0,-0.175782 -0.0391,-0.566407 -0.3125,-2.636718 -0.3125,-3.125 0,-0.234375 0.0976,-0.3125 0.0977,-0.07813 0.50782,-0.07813 z" />
    <path
       id="path2070-0"
       style="font-size:40px;font-family:Garamond;fill:none;fill-opacity:1;stroke:#000000;stroke-width:1;stroke-miterlimit:4;stroke-dasharray:none;stroke-opacity:1"
       d="m 324.32374,-30.123485 q 0.72266,1.855469 1.09375,2.402344 0.74219,1.113281 1.77734,1.738281 1.03516,0.605469 2.2461,0.605469 1.11328,0 2.20703,-0.957031 0.78125,-0.722656 0.78125,-1.679688 0,-1.269531 -0.91797,-2.34375 -0.91797,-1.054687 -3.49609,-2.011718 -2.5586,-0.976563 -3.4375,-2.070313 -0.87891,-1.09375 -0.87891,-2.5 0,-1.328125 0.72266,-2.34375 0.72265,-1.015625 1.99218,-1.523437 1.26954,-0.527344 2.34375,-0.527344 1.38672,0 2.48047,0.214844 1.11328,0.214843 1.91407,0.664062 0.15625,0.996094 0.2539,2.929688 l 0.0391,0.625 q -0.2539,0.01953 -0.42968,0.01953 h -0.27348 q -0.58594,-1.621094 -1.79688,-2.558594 -1.1914,-0.957031 -2.36328,-0.957031 -1.17187,0 -1.89453,0.722656 -0.72265,0.703125 -0.72265,1.855469 0,0.878906 0.58593,1.5625 0.58594,0.683594 2.73438,1.5625 2.16797,0.878906 3.14453,1.640625 0.99609,0.742187 1.46484,1.816406 0.46875,1.074219 0.46875,2.050781 0,1.347657 -0.89843,2.519532 -0.87891,1.171875 -2.22657,1.640625 -1.32812,0.488282 -2.38281,0.488282 -2.48047,0 -4.57031,-0.917969 -0.19531,-0.15625 -0.21485,-0.585937 0,-0.175782 -0.0391,-0.566407 -0.3125,-2.636718 -0.3125,-3.125 0,-0.234375 0.0977,-0.3125 0.0976,-0.07813 0.50781,-0.07813 z" />
    <path
       id="path2072-8"
       style="font-size:40px;font-family:Garamond;fill:none;fill-opacity:1;stroke:#000000;stroke-width:1;stroke-miterlimit:4;stroke-dasharray:none;stroke-opacity:1"
       d="m 343.28858,-40.377391 q 4.86329,0.117188 5.17579,0.117188 0.0391,0.429687 0.0391,0.644531 0,0.253906 -0.0586,0.761719 -0.48828,0.07813 -0.99609,0.07813 h -0.74219 q -2.42187,0 -3.35937,0.175781 -0.0391,0.449219 -0.0391,0.683594 0,0.09766 0.0195,0.292968 0.0976,3.066407 0.0976,3.710938 l -0.0391,5.019531 q 0,1.113281 0.37109,1.855469 0.21485,0.429687 0.80079,0.683594 0.37109,0.175781 1.79687,0.351562 1.07422,0.15625 1.44531,0.214844 0,0.410156 -0.0586,0.625 l -0.27344,0.01953 q -0.9375,-0.05859 -2.4414,-0.09766 l -1.44532,-0.05859 -4.92187,0.15625 h -0.64453 l -0.0195,-0.605469 q 0.29296,-0.05859 0.42968,-0.09766 1.67969,-0.3125 2.16797,-0.703125 0.19531,-0.15625 0.27344,-0.566406 0.0391,-0.234375 0.0391,-2.1875 0,-5.566406 -0.0976,-8.886719 -0.50782,-0.15625 -1.5625,-0.195312 -0.39063,0 -1.23047,-0.07813 l -0.0391,-0.214844 q 0,-0.234375 0.19532,-0.390625 0.0781,-0.07813 1.64062,-0.820313 0.60547,-0.273437 0.85938,-0.683593 0.13672,-0.214844 0.15625,-0.898438 0.0195,-0.3125 0.11718,-1.074218 0.23438,-2.011719 0.3711,-2.480469 0.35156,-1.308594 1.17187,-2.597656 0.83985,-1.308594 2.01172,-2.285157 0.85938,-0.703125 1.9336,-1.054687 1.09375,-0.351563 2.48046,-0.351563 1.85547,0 2.71485,0.605469 0.58594,0.410156 0.58594,1.054688 0,0.546875 -0.41016,0.9375 -0.41016,0.390625 -1.01563,0.390625 -0.74218,0 -1.60156,-0.371094 -1.62109,-0.644531 -1.83594,-0.703125 -0.37109,-0.09766 -0.76171,-0.09766 -1.07422,0 -1.97266,0.683593 -0.87891,0.683594 -1.11328,1.679688 -0.23438,0.996094 -0.23438,4.472656 0,1.25 0.0195,2.285156 z" />
    <path
       id="path2074-6"
       style="font-size:40px;font-family:Garamond;fill:none;fill-opacity:1;stroke:#000000;stroke-width:1;stroke-miterlimit:4;stroke-dasharray:none;stroke-opacity:1"
       d="m 349.63624,-40.494578 h 1.46484 l 0.64454,0.03906 0.50781,-0.03906 q 2.01172,0 2.5,0.03906 l 0.0195,0.371094 q 0,2.753906 -0.0781,5.332031 -0.0586,1.523438 -0.0586,1.738281 0,3.4375 0.21484,4.296875 0.23438,0.859375 1.05469,1.386719 0.83985,0.507813 2.01172,0.507813 1.42578,0 2.71484,-0.585938 1.3086,-0.605469 2.22657,-1.464844 0.0976,-0.742187 0.0976,-1.640625 0,-2.910156 0.0586,-3.925781 0.0195,-0.605469 0.0195,-1.054687 0,-3.164063 -0.3125,-3.574219 -0.3125,-0.410156 -2.38281,-0.625 -0.6836,-0.07813 -0.9961,-0.136719 -0.15625,-0.253906 -0.15625,-0.390625 l 0.0586,-0.214844 q 0.50781,-0.05859 0.99609,-0.05859 l 3.10547,0.03906 q 1.66015,-0.03906 1.75781,-0.03906 0.21484,0 0.41016,0.01953 l 0.0391,1.425781 q -0.13672,2.96875 -0.15625,7.34375 l -0.0391,1.582031 0.0781,2.65625 q 0.17578,0.3125 0.3125,0.371094 0.23438,0.09766 0.95703,0.09766 h 0.17578 q 0.25391,0 1.44532,0.117188 0.0195,0.253906 0.0195,0.371094 v 0.214843 q -2.61705,0.566407 -4.23814,1.132813 -0.64453,0.214844 -1.09375,0.3125 -0.0977,-0.683594 -0.0977,-0.839844 v -1.582035 q 0,-0.09766 -0.0195,-0.527344 -0.25391,0.175781 -0.58594,0.429688 -1.54297,1.191406 -3.26172,2.011718 -1.15234,0.566407 -2.22656,0.566407 -2.05078,0 -3.33984,-1.523438 -1.3086,-1.523437 -1.3086,-5.195312 0,-0.195313 0.0195,-0.703125 0.0781,-0.9375 0.0781,-1.308594 0,-0.136719 -0.0195,-0.859375 -0.0195,-0.3125 -0.0195,-0.546875 0,-0.175781 0.0195,-0.78125 0.0195,-0.625 0.0195,-0.878906 0,-0.332032 -0.0195,-0.585938 l -0.0391,-1.035156 0.0195,-0.546875 q 0,-0.3125 -0.3125,-0.566406 -1.23047,-0.332032 -1.6211,-0.371094 -0.37109,-0.05859 -0.66406,-0.175781 z" />
    <path
       id="path2076-1"
       style="font-size:40px;font-family:Garamond;fill:none;fill-opacity:1;stroke:#000000;stroke-width:1;stroke-miterlimit:4;stroke-dasharray:none;stroke-opacity:1"
       d="m 369.61671,-49.361766 v -0.429687 q 0.54687,-0.175781 1.21094,-0.371094 0.97656,-0.3125 2.89062,-0.957031 h 0.91797 q 0.0195,0.9375 0.0195,1.074219 0,16.035156 -0.0976,19.121093 -0.0586,1.816406 -0.0586,1.933594 0,2.1875 0.17578,2.441406 0.23438,0.351563 1.42578,0.488281 1.21094,0.136719 1.42579,0.273438 0.15625,0.07813 0.15625,0.273437 0,0.214844 -0.0977,0.3125 -0.0781,0.07813 -0.3125,0.07813 -0.13672,0 -2.05078,-0.05859 l -2.5586,-0.07813 -3.28125,0.136718 q -0.3125,0.01953 -0.46875,-0.117187 -0.11718,-0.09766 -0.11718,-0.273438 0,-0.195312 0.11718,-0.273437 0.13672,-0.09766 1.40625,-0.3125 1.28907,-0.214844 1.46485,-0.351563 0.19531,-0.15625 0.2539,-0.664062 0.0781,-0.703125 0.0781,-3.964844 l -0.0195,-4.492187 0.0586,-4.648438 -0.0195,-4.648437 0.0586,-2.285156 q 0,-0.683594 -0.21484,-0.976563 -0.21484,-0.3125 -0.91797,-0.605469 -1.05469,-0.429687 -1.44531,-0.625 z" />
    <path
       id="path2078-5"
       style="font-size:40px;font-family:Garamond;fill:none;fill-opacity:1;stroke:#000000;stroke-width:1;stroke-miterlimit:4;stroke-dasharray:none;stroke-opacity:1"
       d="m 378.75733,-49.361766 v -0.429687 q 0.54688,-0.175781 1.21094,-0.371094 0.97656,-0.3125 2.89063,-0.957031 h 0.91797 q 0.0195,0.9375 0.0195,1.074219 0,16.035156 -0.0977,19.121093 -0.0586,1.816406 -0.0586,1.933594 0,2.1875 0.17578,2.441406 0.23437,0.351563 1.42578,0.488281 1.21094,0.136719 1.42578,0.273438 0.15625,0.07813 0.15625,0.273437 0,0.214844 -0.0977,0.3125 -0.0781,0.07813 -0.3125,0.07813 -0.13671,0 -2.05078,-0.05859 l -2.55859,-0.07813 -3.28125,0.136718 q -0.3125,0.01953 -0.46875,-0.117187 -0.11719,-0.09766 -0.11719,-0.273438 0,-0.195312 0.11719,-0.273437 0.13672,-0.09766 1.40625,-0.3125 1.28906,-0.214844 1.46484,-0.351563 0.19532,-0.15625 0.25391,-0.664062 0.0781,-0.703125 0.0781,-3.964844 l -0.0195,-4.492187 0.0586,-4.648438 -0.0195,-4.648437 0.0586,-2.285156 q 0,-0.683594 -0.21484,-0.976563 -0.21485,-0.3125 -0.91797,-0.605469 -1.05469,-0.429687 -1.44532,-0.625 z" />
    <path
       id="path2080-6"
       style="font-size:40px;font-family:Garamond;fill:none;fill-opacity:1;stroke:#000000;stroke-width:1;stroke-miterlimit:4;stroke-dasharray:none;stroke-opacity:1"
       d="m 387.11671,-40.553172 q 0.42969,-0.03906 0.72266,-0.03906 h 0.9375 l 1.26953,-0.03906 1.66015,0.05859 1.34766,-0.03906 q 1.07422,0 1.93359,0.136719 0.0781,0.195312 0.0781,0.3125 l -0.0195,0.15625 q -0.41016,0.195312 -1.26953,0.273437 -1.21094,0.09766 -1.73829,0.429688 l -0.0391,0.214844 q 0,0.195312 0.15625,0.585937 0.0977,0.234375 0.25391,0.703125 0.42969,1.445313 1.85547,5.585938 1.03515,2.988281 1.91406,5.136718 0.54687,-1.171875 1.25,-2.96875 l 1.66016,-4.628906 q 0.54687,-1.523437 0.83984,-3.046875 0.11719,-0.605469 0.11719,-0.957031 0,-0.292969 -0.25391,-0.546875 -0.25391,-0.253906 -1.01562,-0.429688 -1.38672,-0.351562 -1.50391,-0.429687 -0.11719,-0.09766 -0.13672,-0.390625 0.11719,-0.09766 0.27344,-0.15625 h 1.21094 l 1.30859,0.01953 1.95312,-0.01953 1.25,0.01953 0.3125,-0.01953 q 0.13672,0 0.44922,0.03906 0.19532,0.09766 0.19532,0.3125 0,0.195313 -0.17579,0.351563 l -0.39062,0.05859 q -1.13281,0.15625 -1.73828,0.585937 -0.33203,0.234375 -0.56641,0.976563 -0.0781,0.273437 -0.2539,0.703125 -0.0977,0.234375 -0.29297,0.78125 -0.17578,0.546875 -0.46875,1.289062 l -0.23438,0.546875 -0.0195,0.09766 -3.32031,8.75 -2.42188,6.582031 q -0.23437,0.488282 -0.54687,1.210938 -0.74219,1.386719 -0.87891,1.523437 -0.58594,0.722657 -1.01562,1.015625 l -0.9961,0.429688 q -0.29297,0.07813 -0.625,0.07813 -0.8789,0 -1.28906,-0.390625 -0.41016,-0.371094 -0.41016,-1.035156 0,-0.625 0.60547,-1.132813 0.19532,-0.05859 0.39063,-0.15625 l 0.2539,-0.05859 q 1.73829,0.3125 2.16797,0.3125 0.41016,-0.214843 0.60547,-0.507812 0.95703,-1.425781 1.64063,-3.183594 0.68359,-1.757812 0.68359,-2.363281 0,-0.664063 -0.50781,-1.933594 l -2.16796,-5.742185 q -0.44922,-1.113281 -2.67578,-7.265625 -0.13672,-0.390625 -0.35156,-0.585938 l -1.32813,-0.488281 -0.41016,-0.07813 q -0.33203,-0.136719 -0.33203,-0.390625 z" />
    <path
       sodipodi:nodetypes="sscccscscscccss"
       id="path2082-0"
       style="font-size:40px;font-family:Garamond;fill:none;fill-opacity:1;stroke:#000000;stroke-width:1;stroke-miterlimit:4;stroke-dasharray:none;stroke-opacity:1"
       d="m 408.26905,-30.82661 c -0.13021,0.02604 -0.22786,0.03906 -0.29297,0.03906 -0.0911,0 -0.22786,-0.01953 -0.41015,-0.05859 l -0.625,-11.25 c -0.0391,-0.78125 -0.14974,-1.777343 -0.33203,-2.988281 -0.26042,-1.614583 -0.39063,-2.773437 -0.39063,-3.476562 0,-0.703125 0.16276,-1.230469 0.48828,-1.582032 0.32552,-0.364583 0.72266,-0.546875 1.19141,-0.546875 0.50781,0 0.9375,0.182292 1.28906,0.546875 0.35157,0.351563 0.52735,0.852865 0.52735,1.503907 0,0.598958 -0.13021,2.024739 -0.39063,4.277343 -0.50781,4.322917 -0.77474,7.128907 -0.80078,8.417969 l -0.15625,4.6875 c -0.013,0.104167 -0.0456,0.247396 -0.0977,0.429688 z" />
    <path
       id="path863-6"
       d="m 405.17246,-21.883914 c 0,-0.127406 0.053,-0.511275 0.11785,-0.853043 l 0.11785,-0.621395 -0.54074,-0.580662 c -1.32959,-1.427753 -1.35509,-2.773681 -0.0691,-3.648893 0.5369,-0.365406 1.338,-0.375197 1.78721,-0.02184 l 0.32781,0.257845 0.36577,-0.288922 c 0.45634,-0.360467 0.54424,-1.096915 0.13091,-1.096915 -0.13812,0 -0.24861,-0.08287 -0.24861,-0.186461 0,-0.103587 0.11049,-0.186459 0.24861,-0.186459 0.16574,0 0.24862,-0.08287 0.24862,-0.248613 0,-0.165742 0.0829,-0.248614 0.24861,-0.248614 0.16574,0 0.24861,0.08287 0.24861,0.248614 0,0.165741 0.0829,0.248613 0.24862,0.248613 0.13812,0 0.24861,0.08287 0.24861,0.186459 0,0.103589 -0.11049,0.186461 -0.24861,0.186461 -0.37694,0 -0.3326,0.650561 0.0719,1.055064 l 0.32052,0.320523 0.40891,-0.25272 c 1.05704,-0.653288 2.54982,0.09646 2.75903,1.385722 0.0971,0.598229 -0.36239,1.599156 -1.06366,2.3171 l -0.52464,0.537112 0.13273,0.618841 c 0.25878,1.206686 0.50124,1.103833 -2.60203,1.103833 -2.5851,0 -2.73475,-0.01267 -2.73475,-0.231647 z m 5.09657,-0.327734 c 0,-0.159199 -0.3453,-0.186459 -2.36182,-0.186459 -2.01654,0 -2.36183,0.02726 -2.36183,0.186459 0,0.1592 0.34529,0.186461 2.36183,0.186461 2.01652,0 2.36182,-0.02726 2.36182,-0.186461 z m -4.1183,-0.765349 c -0.22482,-0.270882 -0.48104,-0.195697 -0.48104,0.141153 0,0.28327 0.025,0.296724 0.30979,0.166949 0.24041,-0.109538 0.27876,-0.178546 0.17125,-0.308102 z m 3.994,0.143817 c 0,-0.331686 -0.2258,-0.408165 -0.47357,-0.1604 -0.11762,0.11762 -0.0892,0.184342 0.13053,0.306363 0.15448,0.0858 0.29488,0.157976 0.31195,0.160398 0.0171,0.0024 0.0311,-0.13544 0.0311,-0.306361 z m -1.61599,-0.237509 c 0,-0.02457 -0.13985,-0.136294 -0.31076,-0.248287 -0.28867,-0.189135 -0.3337,-0.188599 -0.63306,0.0076 l -0.32229,0.211175 0.28666,0.216237 c 0.25612,0.193192 0.32359,0.197147 0.63306,0.03711 0.19051,-0.09852 0.34639,-0.199222 0.34639,-0.223787 z m -1.43063,-0.70669 c 0.76324,-0.130659 1.66807,-0.07098 2.40705,0.158753 0.40186,0.124929 0.44147,0.10553 1.08763,-0.532604 1.10608,-1.092336 1.32122,-2.167697 0.57591,-2.878692 -0.56638,-0.540324 -0.96083,-0.628625 -1.58156,-0.354047 -0.59275,0.262206 -1.04149,0.896951 -1.3814,1.954035 -0.1075,0.334318 -0.22433,0.691756 -0.25961,0.79431 -0.0353,0.102553 -0.14477,-0.120976 -0.24328,-0.496731 -0.28918,-1.102968 -0.79703,-1.883625 -1.44123,-2.215383 -0.51751,-0.266515 -0.59145,-0.274778 -0.98551,-0.110133 -0.23432,0.0979 -0.57723,0.357714 -0.76206,0.577362 -0.61482,0.730663 -0.3787,1.645795 0.71861,2.785216 0.45649,0.474024 0.63783,0.585741 0.85046,0.523946 0.14864,-0.0432 0.60538,-0.135911 1.01499,-0.206032 z m -1.63423,-0.762569 c -0.63313,-0.65761 -0.78864,-0.954574 -0.78864,-1.50598 0,-0.330009 0.0904,-0.508284 0.38245,-0.754013 0.21035,-0.176998 0.49663,-0.321816 0.63616,-0.321816 0.40123,0 1.15274,0.856984 1.44845,1.651726 0.39581,1.063779 0.37156,1.163519 -0.3076,1.265363 -0.31639,0.04745 -0.63929,0.110837 -0.71754,0.140869 -0.0783,0.03003 -0.37224,-0.184239 -0.65328,-0.476149 z m 3.58008,0.365557 -0.66568,-0.127634 0.072,-0.44344 c 0.12054,-0.742794 0.80035,-1.984584 1.19942,-2.190953 0.49474,-0.255839 0.66588,-0.234741 1.10705,0.136477 0.41525,0.349414 0.51258,0.93172 0.24364,1.457725 -0.15554,0.304223 -1.11883,1.337138 -1.22335,1.311793 -0.037,-0.009 -0.36691,-0.07377 -0.73305,-0.143968 z m -1.01245,-1.740169 c 0,-0.0881 0.11131,-0.378484 0.24734,-0.645307 0.22471,-0.440775 0.23014,-0.511367 0.0593,-0.772122 -0.23168,-0.3536 -0.56795,-0.367709 -0.86779,-0.03641 -0.21993,0.243031 -0.21864,0.266854 0.0429,0.790531 0.14831,0.296972 0.26966,0.603743 0.26966,0.681715 0,0.07797 0.0559,0.141768 0.12431,0.141768 0.0684,0 0.1243,-0.07208 0.1243,-0.160176 z m -0.30154,-0.917217 c -0.10195,-0.265696 0.12562,-0.515623 0.30563,-0.335627 0.13515,0.135158 0.0387,0.542873 -0.12839,0.542873 -0.0537,0 -0.1335,-0.09326 -0.17724,-0.207246 z"
       style="fill:none;fill-opacity:1;stroke:#000000;stroke-width:0.124307;stroke-opacity:1" />
    <path
       style="fill:none;fill-opacity:1;stroke:#000000;stroke-width:0.973432;stroke-miterlimit:4;stroke-dasharray:none;stroke-opacity:1"
       d="m 60.056085,-34.836043 -7.864987,0.05279 -1.490652,-0.0014 q -0.902183,0 -1.843733,0.07521 a 3.4581037,3.1896203 0 0 0 -0.176539,0.740996 l 0.02008,0.180989 v 0.180987 l -0.02008,0.886417 q 0,1.103529 0.755167,2.704637 a 5.8282444,5.3757459 0 0 0 2.157447,2.442696 q 1.402283,0.841401 3.501085,0.895494 a 7.2186761,6.6582259 0 0 0 1.784886,-0.253236 9.0340901,8.3326932 0 0 0 1.882897,-0.92254 l 1.412123,-1.067406 0.117694,0.723584 a 2.3799818,2.1952027 0 0 1 -0.02008,0.271389 8.6161372,7.9471897 0 0 1 -2.235578,1.809143 10.652076,9.8250605 0 0 1 -2.745916,1.139654 9.5763644,8.832866 0 0 1 -2.196612,0.162833 7.0294825,6.4837212 0 0 1 -2.746721,-0.524624 6.6852387,6.166204 0 0 1 -3.147199,-2.559774 q -1.147416,-1.763802 -1.147416,-4.2793 a 9.9489266,9.1765027 0 0 1 0.323757,-2.043482 11.654079,10.749269 0 0 1 1.166895,-2.659808 5.649093,5.2105036 0 0 1 1.392642,-1.574618 9.2110322,8.4958977 0 0 1 2.059437,-1.212085 7.6761948,7.0802235 0 0 1 2.961621,-0.488503 q 1.82405,0 2.981304,0.615028 a 5.912799,5.4537357 0 0 1 2.343829,2.098502 q 0.77465,1.284518 0.77465,2.352666 z m -10.944302,-0.651335 h 0.921867 q 1.000195,0 5.962609,-0.28936 0.78449,-0.03706 0.96103,-0.144681 a 1.0443802,0.96329576 0 0 0 0.35308,-0.615027 3.127718,2.8848853 0 0 0 -0.392244,-1.27544 2.7033381,2.4934539 0 0 0 -1.20626,-1.103529 4.0586224,3.7435154 0 0 0 -1.892738,-0.389023 q -2.275143,0 -3.648101,1.574618 -1.059243,1.19319 -1.059243,2.242442 z"
       id="e-0" />
    <path
       style="fill:none;fill-opacity:1;stroke:#000000;stroke-width:0.991546;stroke-miterlimit:4;stroke-dasharray:none;stroke-opacity:1"
       d="m 1.3265856,-46.533352 0.8021506,-2.838606 a 1.7003586,1.6322084 0 0 1 0.2153773,-0.7238 0.40107526,0.3850002 0 0 1 0.3134403,-0.159775 q 0.3525453,0 0.8021506,0.8085 a 2.707258,2.5987514 0 0 0 0.5482699,0.742473 1.3281607,1.2749282 0 0 0 0.6266801,0.216177 l 0.1959253,-0.01925 0.842258,0.07527 4.6217883,0.0564 5.463848,-0.01829 h 1.607912 l 3.035538,-0.05486 a 3.9150962,3.7581795 0 0 1 0.489512,0.03677 q 1.331771,0.11165 1.644408,0.11165 a 0.60642579,0.58212031 0 0 0 0.470062,-0.184801 q 0.05876,-0.07277 0.646332,-1.241047 0.254682,-0.529375 0.62668,-0.529375 a 1.297679,1.2456681 0 0 1 0.39165,0.07469 2.8931565,2.777199 0 0 1 0.09786,0.671441 l -0.02005,0.746322 0.02005,1.585623 q 0,0.5775 -0.09786,3.731037 a 0.93931827,0.90167048 0 0 1 -0.07842,0.373066 0.73075913,0.70147038 0 0 1 -0.371997,0.130707 0.34532581,0.33148518 0 0 1 -0.274135,-0.139754 3.0628113,2.9400541 0 0 1 -0.293788,-0.866251 q -0.391647,-1.677253 -0.979223,-2.403941 a 2.1788414,2.0915136 0 0 0 -1.126018,-0.670863 q -0.734365,-0.205028 -3.51522,-0.205028 h -3.308872 q -0.04011,0.752484 -0.04011,1.373489 l 0.156622,11.684768 q 0,0.696081 -0.07842,2.633979 l 0.02005,2.502501 -0.02005,1.392353 q 0,0.658543 0.23503,0.940748 0.23503,0.282205 1.272811,0.544198 1.801632,0.432932 2.40886,0.526873 a 1.7847849,1.7132509 0 0 1 0.607027,0.150343 v 0.564024 l -2.780655,-0.06603 q -2.291544,-0.01636 -3.446841,-0.08335 l -2.859266,0.131671 -2.0964201,0.112613 a 8.166494,7.8391817 0 0 1 -1.0770837,-0.0385 L 6.7511215,-24.97103 a 0.94433171,0.90648299 0 0 1 0.1762705,-0.554592 q 0.1371678,-0.122238 0.7245425,-0.197314 a 16.377708,15.72129 0 0 0 1.9387982,-0.404249 q 1.1161923,-0.291445 1.4687373,-0.592131 a 1.0313651,0.99002805 0 0 0 0.274135,-0.564024 q 0.176273,-0.827752 0.176273,-3.25229 v -3.195501 l -0.07842,-6.974279 -0.07842,-1.503811 -0.02005,-5.019248 H 8.181762 q -2.8199582,0 -3.427186,0.32725 -0.9605753,0.511281 -2.8600678,2.991067 -0.6266801,0.929775 -1.09674031,0.929775 l -0.1762726,-0.03754 a 0.39726504,0.3813427 0 0 1 -0.0784101,-0.206745 9.0566806,8.6936897 0 0 1 0.31344029,-1.35443 q 0.39165002,-1.446639 0.47006022,-1.954261 z"
       id="t-2" />
    <path
       style="fill:none;fill-opacity:1;stroke:#000000;stroke-width:0.985081;stroke-miterlimit:4;stroke-dasharray:none;stroke-opacity:1"
       d="m 25.439317,-25.404527 q 2.292538,-0.389259 2.645298,-0.592813 0.215509,-0.12988 0.215509,-0.593003 l -0.02006,-1.222652 0.02006,-2.167888 -0.04014,-5.521212 0.02006,-2.056617 v -1.463803 l 0.0588,-1.797238 q 0,-4.224315 -0.08808,-5.048785 -0.08809,-0.824468 -0.342936,-1.028402 -0.470346,-0.425907 -2.586705,-0.889221 v -0.09266 a 2.7781352,2.6289224 0 0 1 0.04014,-0.37084 q 0.274301,-0.03798 0.52914,-0.09266 a 3.4587732,3.2730035 0 0 1 0.48981,-0.07425 q 2.331868,-0.630411 3.390148,-1.223793 h 0.960157 q 0.04014,0.519518 0.04014,3.283827 l -0.02006,2.356062 0.02006,3.042486 -0.07987,3.747709 q 0,0.333814 0.04014,0.742061 a 18.474549,17.482286 0 0 1 1.805938,-1.802174 8.8767889,8.4000191 0 0 1 2.177963,-1.234615 6.2840635,5.9465482 0 0 1 2.434404,-0.455719 q 2.41454,0 3.945374,1.926167 0.882902,1.129612 0.882902,3.203697 l -0.0588,1.889141 0.02006,1.055556 -0.07847,1.833505 q -0.07846,2.278589 -0.07846,2.704116 0,0.481162 0.04014,1.296327 l 1.116873,0.240771 q 1.116872,0.222163 1.72447,0.407297 l -0.02006,0.574775 -4.174126,-0.111651 q -0.35276,0 -1.920314,0.07425 -0.960158,0.03798 -1.116873,0.03798 h -0.431215 a 0.64211142,0.60762379 0 0 1 -0.09792,-0.278177 v -0.166907 q 0.273299,-0.334762 1.01895,-0.445653 l 1.175667,-0.25938 a 0.71796083,0.67939935 0 0 0 0.274301,-0.38888 q 0.07847,-0.481542 0.17638,-4.777252 l 0.04014,-1.370192 q 0.07847,-2.166368 -0.353562,-3.592196 a 2.7478355,2.6002501 0 0 0 -1.247101,-1.564631 4.1089111,3.8882226 0 0 0 -2.248594,-0.58332 4.590896,4.3443203 0 0 0 -2.002987,0.425908 7.6852711,7.2724973 0 0 0 -1.551501,1.092393 6.913132,6.5418296 0 0 0 -1.258137,1.333544 q -0.235374,0.369701 -0.235374,1.219805 l 0.02006,1.293479 -0.04014,1.349304 q 0,0.166338 0.0588,2.309731 l -0.02006,1.182777 0.04014,1.293669 a 2.2473899,2.1266832 0 0 0 0.0588,0.406539 l 2.762884,0.628701 a 6.1295554,5.8003386 0 0 1 0.646727,0.227858 l 0.0588,0.208871 a 0.92825232,0.87839614 0 0 1 -0.09792,0.303811 q -0.568269,0.01898 -0.862838,0.01898 l -1.528024,-0.01898 -3.371085,0.03798 -2.527109,0.07425 q -0.196045,-0.01898 -0.587934,-0.03798 l -0.02006,-0.12988 a 0.7625073,0.72155325 0 0 1 0.157319,-0.369892 z"
       id="h-2" />
    <path
       style="fill:none;fill-opacity:1;stroke:#000000;stroke-width:0.983357;stroke-miterlimit:4;stroke-dasharray:none;stroke-opacity:1"
       d="m 61.733554,-25.498857 a 2.0232699,1.9090088 0 0 1 0.861384,-0.277285 3.8619861,3.6438863 0 0 0 1.214644,-0.295645 1.4497492,1.367877 0 0 0 0.470211,-0.794948 q 0.137212,-0.665484 0.137212,-4.67637 0,-3.936881 -0.254765,-5.08293 a 3.5592779,3.3582732 0 0 0 -1.116549,-0.406559 q -0.215446,-0.03786 -0.901104,-0.203279 v -0.618733 a 5.8958878,5.5629266 0 0 0 1.878836,-0.815957 q 0.717955,-0.501385 1.997393,-2.004213 h 0.117754 q 0.118155,0 0.373721,-0.01892 a 0.50150452,0.47318283 0 0 1 0.255165,0.09369 l -0.02005,2.107178 q 0,0.646935 0.04013,1.386236 2.092678,-1.792983 3.754864,-2.513925 a 6.1875627,5.8381296 0 0 1 2.561685,-0.480564 q 1.701305,0 2.698497,0.610027 0.997191,0.610027 1.897693,2.199543 1.743429,-1.626613 3.16369,-2.273549 A 6.5428285,6.1733323 0 0 1 83.73397,-40.212 q 2.193982,0 3.604614,1.351032 1.390972,1.369581 1.43009,4.015808 v 1.53614 l 0.02005,1.684531 -0.02005,4.330759 q -0.02005,0.758606 0.352657,1.147373 0.156671,0.05546 1.194986,0.332931 a 2.8254764,2.665912 0 0 1 0.764092,0.258926 0.33781344,0.31873595 0 0 1 0.117553,0.258926 1.4116349,1.331915 0 0 1 -0.117553,0.480564 h -0.13681 l -1.973722,-0.110914 q -0.351655,-0.01892 -1.113941,-0.01892 -0.937814,0 -2.618255,0.07401 h -0.997794 q -0.214844,0 -0.84032,0.01892 a 2.8718155,2.7096342 0 0 1 -0.02005,-0.295644 0.82828488,0.78150875 0 0 1 0.137211,-0.36965 6.0024073,5.6634306 0 0 1 1.44975,-0.360944 q 0.920763,-0.138737 1.146038,-0.49987 0.225276,-0.361134 0.225276,-2.878277 0,-5.460529 -0.137412,-6.330428 a 3.6038114,3.4002917 0 0 0 -1.24694,-2.174938 3.863992,3.645779 0 0 0 -2.54283,-0.78662 4.7031094,4.4375085 0 0 0 -2.297292,0.582205 8.3350052,7.8642985 0 0 0 -2.198395,1.746612 l -0.02005,0.443657 v 2.827929 l -0.07844,2.199542 q 0,3.363952 0.06861,3.826157 a 1.1017052,1.0394881 0 0 0 0.332998,0.67457 q 0.264394,0.212554 1.537815,0.378546 a 8.8218657,8.3236645 0 0 1 0.881644,0.147822 0.6316951,0.59602109 0 0 1 0.235105,0.480565 0.36790372,0.34712692 0 0 1 -0.175726,0.332363 h -0.333 l -0.979539,-0.01892 h -5.700702 l -1.567101,0.01892 a 3.6457373,3.4398499 0 0 1 -0.04013,-0.406559 l 0.02005,-0.221828 q 0.430892,-0.221827 1.60642,-0.425106 a 6.8806421,6.4920684 0 0 0 1.253761,-0.314194 0.59658978,0.56289829 0 0 0 0.176329,-0.240378 q 0.0979,-0.258735 0.137212,-1.478601 l 0.09789,-2.144086 -0.04013,-2.421371 0.02005,-1.349328 q 0,-2.273549 -0.977133,-3.317768 a 3.1450352,2.9674241 0 0 0 -2.461985,-1.043463 6.2772318,5.9227347 0 0 0 -2.785156,0.646936 6.6577734,6.281786 0 0 0 -2.316149,1.737905 q -0.02005,0.517473 -0.02005,0.942581 l 0.07844,6.210619 q 0.02005,2.033171 0.244935,2.319731 0.224875,0.28656 1.008826,0.397473 1.253762,0.166371 1.625878,0.406559 a 0.39558677,0.37324661 0 0 1 0.176329,0.332742 q 0,0.147822 -0.02005,0.351102 -2.238715,-0.147822 -3.004614,-0.147822 -0.785356,0 -1.413842,0.01892 l -0.981544,0.05546 H 63.89365 l -2.199197,0.07287 a 0.85917755,0.81065682 0 0 1 -0.04013,-0.213689 1.9911735,1.8787251 0 0 1 0.07924,-0.35924 z"
       id="m-8" />
    <path
       d="m 105.67629,-35.643106 -7.850308,0.05582 -1.487876,-0.0015 q -0.900497,0 -1.840288,0.07952 a 3.4516509,3.3723978 0 0 0 -0.176211,0.783459 l 0.02004,0.19136 v 0.191359 l -0.02004,0.937211 q 0,1.166766 0.753758,2.859623 a 5.8173689,5.6837968 0 0 0 2.153421,2.582672 q 1.399664,0.889617 3.494544,0.94681 a 7.205206,7.0397679 0 0 0 1.78156,-0.267747 9.0172325,8.8101886 0 0 0 1.87938,-0.975406 l 1.40949,-1.128572 0.11748,0.765047 a 2.3755408,2.3209963 0 0 1 -0.02,0.286942 8.6000595,8.4025943 0 0 1 -2.2314,1.912814 10.632199,10.388074 0 0 1 -2.7408,1.20496 9.5584949,9.3390232 0 0 1 -2.192505,0.172164 7.0163655,6.8552634 0 0 1 -2.741599,-0.554688 6.6727641,6.5195513 0 0 1 -3.141327,-2.706458 q -1.145311,-1.864875 -1.145311,-4.524521 a 9.9303619,9.7023517 0 0 1 0.323154,-2.160581 11.632332,11.365243 0 0 1 1.164717,-2.812226 5.6385518,5.5090855 0 0 1 1.390041,-1.664849 9.1938444,8.9827454 0 0 1 2.055597,-1.281542 7.6618711,7.4859476 0 0 1 2.956092,-0.516496 q 1.820641,0 2.975741,0.650271 a 5.9017657,5.7662558 0 0 1 2.33945,2.218755 q 0.77321,1.358125 0.77321,2.487482 z m -10.923878,-0.68866 h 0.920146 q 0.998329,0 5.951482,-0.305941 0.78302,-0.03918 0.95924,-0.152971 a 1.0424314,1.0184963 0 0 0 0.35242,-0.65027 3.1218817,3.0502004 0 0 0 -0.39151,-1.348528 2.6982937,2.6363384 0 0 0 -1.20401,-1.166766 4.051049,3.9580332 0 0 0 -1.889208,-0.411316 q -2.270893,0 -3.641294,1.66485 -1.057266,1.261564 -1.057266,2.370942 z"
       id="e-9-1-6"
       style="fill:none;fill-opacity:1;stroke:#000000;stroke-width:0.999999;stroke-miterlimit:4;stroke-dasharray:none;stroke-opacity:1" />
  </g>
</svg>
