<?xml version="1.0" encoding="UTF-8" standalone="no"?>
<!-- Created with Inkscape (http://www.inkscape.org/) -->

<svg
   xmlns:dc="http://purl.org/dc/elements/1.1/"
   xmlns:cc="http://creativecommons.org/ns#"
   xmlns:rdf="http://www.w3.org/1999/02/22-rdf-syntax-ns#"
   xmlns:svg="http://www.w3.org/2000/svg"
   xmlns="http://www.w3.org/2000/svg"
   xmlns:sodipodi="http://sodipodi.sourceforge.net/DTD/sodipodi-0.dtd"
   xmlns:inkscape="http://www.inkscape.org/namespaces/inkscape"
   width="71mm"
   height="71mm"
   viewBox="0 0 71 71"
   version="1.1"
   id="svg8"
   inkscape:version="0.92.4 (5da689c313, 2019-01-14)"
   sodipodi:docname="Octocat-black.svg">
  <defs
     id="defs2" />
  <sodipodi:namedview
     id="base"
     pagecolor="#ff1414"
     bordercolor="#666666"
     borderopacity="1.0"
     inkscape:pageopacity="0"
     inkscape:pageshadow="2"
     inkscape:zoom="2.56"
     inkscape:cx="157.81872"
     inkscape:cy="146.02816"
     inkscape:document-units="mm"
     inkscape:current-layer="layer1"
     showgrid="false"
     inkscape:pagecheckerboard="false"
     fit-margin-top="0"
     fit-margin-left="0"
     fit-margin-right="0"
     fit-margin-bottom="0"
     inkscape:lockguides="true"
     inkscape:window-width="1920"
     inkscape:window-height="1017"
     inkscape:window-x="-8"
     inkscape:window-y="-8"
     inkscape:window-maximized="1" />
  <metadata
     id="metadata5">
    <rdf:RDF>
      <cc:Work
         rdf:about="">
        <dc:format>image/svg+xml</dc:format>
        <dc:type
           rdf:resource="http://purl.org/dc/dcmitype/StillImage" />
        <dc:title></dc:title>
      </cc:Work>
    </rdf:RDF>
  </metadata>
  <g
     inkscape:label="Layer 1"
     inkscape:groupmode="layer"
     id="layer1"
     transform="translate(-68.54356,-123.41577)">
    <ellipse
       style="opacity:1;fill:#f4cab2;fill-opacity:1;stroke:none;stroke-width:0.55062443;stroke-linejoin:round;stroke-miterlimit:4;stroke-dasharray:none;stroke-dashoffset:0;stroke-opacity:1"
       id="path4884"
       cx="103.7643"
       cy="150.21078"
       rx="20.118191"
       ry="14.987035" />
    <path
       style="fill:#000000;stroke:#000000;stroke-width:0.26458332px;stroke-linecap:butt;stroke-linejoin:miter;stroke-opacity:1"
       d="m 103.12255,133.4969 c -5.770905,0.12186 -11.65272,2.05962 -16.737995,6.12676 -7.047307,7.13536 -4.061569,16.38889 -0.200504,20.71347 4.558067,6.8085 31.789239,8.45928 36.215359,-1.00201 1.55959,-3.41047 4.90014,-12.1794 -1.40353,-19.71146 -4.93511,-4.07049 -11.33297,-6.26485 -17.87333,-6.12676 z m -8.920384,13.41004 c 4.917906,0.0871 6.330204,0.66863 20.111954,0 5.24051,1.92045 7.01412,8.28236 3.30783,14.03154 -6.60266,4.32569 -22.910791,2.74933 -25.875125,0.83543 -4.910076,-3.88382 -6.040789,-12.41108 2.455341,-14.86697 z"
       id="path4758"
       inkscape:connector-curvature="0"
       sodipodi:nodetypes="sccccsccccc" />
    <path
       style="fill:#000000;stroke:#000000;stroke-width:0.26458332px;stroke-linecap:butt;stroke-linejoin:miter;stroke-opacity:1"
       d="m 120.99601,139.62389 c 0.3429,-2.96312 0.39254,-5.85203 -1.02588,-8.63901 -3.5724,0.32247 -5.4416,1.52438 -8.99673,3.49407 4.58999,1.29861 7.55662,3.13833 10.02261,5.14494 z"
       id="path4764"
       inkscape:connector-curvature="0"
       sodipodi:nodetypes="cccc" />
    <path
       style="fill:#000000;stroke:#000000;stroke-width:0.26458332px;stroke-linecap:butt;stroke-linejoin:miter;stroke-opacity:1"
       d="m 86.384599,139.62391 c 3.125714,-2.57509 6.183575,-3.9288 9.220801,-4.9111 -3.172083,-2.36137 -6.26029,-3.6743 -9.254207,-3.80859 -1.267503,4.37074 -1.052359,8.20384 0.03341,8.71969 z"
       id="path4766"
       inkscape:connector-curvature="0"
       sodipodi:nodetypes="ccccc" />
    <path
       style="fill:none;stroke:#000000;stroke-width:0.26458332px;stroke-linecap:butt;stroke-linejoin:miter;stroke-opacity:1"
       d="m 123.71347,156.22763 c 4.70903,-0.24872 9.0936,0.0123 15.26079,0.8977 l 0.0472,0.14174"
       id="path4770"
       inkscape:connector-curvature="0"
       sodipodi:nodetypes="ccc" />
    <path
       style="fill:none;stroke:#000000;stroke-width:0.26458332px;stroke-linecap:butt;stroke-linejoin:miter;stroke-opacity:1"
       d="m 138.65165,159.96015 c -6.03583,-1.57111 -10.13289,-2.16792 -15.59152,-2.17336 v 0 0"
       id="path4772"
       inkscape:connector-curvature="0"
       sodipodi:nodetypes="cccc" />
    <path
       style="fill:none;stroke:#000000;stroke-width:0.26458332px;stroke-linecap:butt;stroke-linejoin:miter;stroke-opacity:1"
       d="m 83.613295,156.25347 c -5.100756,0.0211 -9.550044,-0.21534 -14.659125,0.96635 l -0.0945,-0.0472"
       id="path4774"
       inkscape:connector-curvature="0"
       sodipodi:nodetypes="ccc" />
    <path
       style="fill:none;stroke:#000000;stroke-width:0.26458332px;stroke-linecap:butt;stroke-linejoin:miter;stroke-opacity:1"
       d="m 84.334551,157.64505 c -4.590543,0.37362 -8.636441,0.562 -15.285888,2.26785"
       id="path4776"
       inkscape:connector-curvature="0"
       sodipodi:nodetypes="cc" />
    <path
       style="fill:#000000;stroke:#000000;stroke-width:0.26458332px;stroke-linecap:butt;stroke-linejoin:miter;stroke-opacity:1"
       d="m 110.47276,165.525 c 1.78988,1.87917 1.59012,2.77987 1.77017,3.46513 l 0.20045,11.39236 c 0.45065,1.32219 0.97633,1.68445 2.07134,2.37202 0.5823,1.18309 -0.52349,1.10308 -1.23612,1.06908 -2.93184,-0.618 -3.82826,-1.75228 -4.14268,-3.67496 l -0.13363,-8.75308 c -0.10997,-0.71411 -0.42523,-1.22293 -1.06908,-1.40316 v 13.43029 c 3.50416,4.39252 -0.56518,3.31057 -2.33861,1.57021 -0.36864,-0.48059 -1.27868,-0.92602 -1.1693,-1.9377 l 0.0334,-13.66416 c 0.0101,-0.27127 -0.65331,-0.64755 -1.06907,0 l 0.0334,13.73097 c 0.26139,1.82024 -5.186703,5.07614 -4.877675,2.2718 0.411334,-0.93067 0.899016,-1.1742 1.369756,-1.57021 l -0.06682,-13.86461 -0.267269,0.16705 c -0.507608,0.44778 -0.761889,1.02222 -0.734991,1.73725 l -0.03341,8.58603 c -0.723262,2.35284 -1.008603,2.1774 -2.672696,3.10701 -1.045994,0.51965 -2.227709,0.42585 -3.006781,0.23386 -1.323894,-0.84007 2.070442,-1.64431 2.605878,-3.20724 l -0.133637,-7.34991 c -1.16798,0.15715 -2.544725,0.65848 -5.472761,0.0825 -4.142359,-0.89354 -4.766614,-4.45274 -6.320507,-6.6974 -3.571658,-2.3528 -3.111677,-1.90585 -2.839739,-2.3052 2.694457,-1.71075 5.507964,1.76412 6.815373,3.67496 1.237749,1.68044 4.140871,2.51904 7.884451,1.23612 0.111038,-1.26083 0.566794,-2.3807 2.180452,-3.82818 5.299406,0.71775 9.839106,0.5448 12.620106,0.12918 z"
       id="path4778"
       inkscape:connector-curvature="0"
       sodipodi:nodetypes="cccccccccccccccccccccccccccccccc" />
    <path
       style="fill:none;fill-opacity:1;stroke:#ac5a4e;stroke-width:0.465;stroke-linecap:butt;stroke-linejoin:miter;stroke-miterlimit:4;stroke-dasharray:none;stroke-opacity:1"
       d="m 102.11125,160.52784 c 0.77854,1.38256 2.1021,2.28188 3.3848,-0.0517 l 0.0517,-0.0258 v 0 h 0.0517"
       id="path4803"
       inkscape:connector-curvature="0"
       sodipodi:nodetypes="ccccc" />
    <ellipse
       style="opacity:1;fill:#ffffff;fill-opacity:1;stroke:#ffffff;stroke-width:0.294;stroke-linejoin:round;stroke-miterlimit:4;stroke-dasharray:none;stroke-dashoffset:0;stroke-opacity:1"
       id="path4786-4"
       cx="95.320374"
       cy="154.58505"
       rx="3.0502756"
       ry="4.7494211" />
    <ellipse
       style="opacity:1;fill:#ac5a4e;fill-opacity:1;stroke:#c00000;stroke-width:0.20999999;stroke-linejoin:round;stroke-miterlimit:4;stroke-dasharray:none;stroke-dashoffset:0;stroke-opacity:0"
       id="path4786-2"
       cx="95.554276"
       cy="154.60837"
       rx="2.2527552"
       ry="3.2671883" />
    <ellipse
       style="opacity:1;fill:#ffffff;fill-opacity:1;stroke:#ffffff;stroke-width:0.294;stroke-linejoin:round;stroke-miterlimit:4;stroke-dasharray:none;stroke-dashoffset:0;stroke-opacity:1"
       id="path4786-4-2"
       cx="112.78242"
       cy="154.50755"
       rx="3.0502756"
       ry="4.7494216" />
    <ellipse
       style="opacity:1;fill:#ac5a4e;fill-opacity:1;stroke:#c00000;stroke-width:0.20999999;stroke-linejoin:round;stroke-miterlimit:4;stroke-dasharray:none;stroke-dashoffset:0;stroke-opacity:0"
       id="path4786-2-2"
       cx="112.52501"
       cy="154.58676"
       rx="2.2527552"
       ry="3.2671885" />
    <ellipse
       style="opacity:1;fill:#ffffff;fill-opacity:0.97536801;stroke:#c00000;stroke-width:0.26702818;stroke-linejoin:round;stroke-miterlimit:4;stroke-dasharray:none;stroke-dashoffset:0;stroke-opacity:0"
       id="path4850"
       cx="111.86617"
       cy="153.21417"
       rx="0.61551678"
       ry="0.63835472" />
    <ellipse
       style="opacity:1;fill:#ffffff;fill-opacity:0.97536801;stroke:#c00000;stroke-width:0.26702818;stroke-linejoin:round;stroke-miterlimit:4;stroke-dasharray:none;stroke-dashoffset:0;stroke-opacity:0"
       id="path4850-9"
       cx="94.644005"
       cy="153.16397"
       rx="0.61551678"
       ry="0.63835472" />
    <ellipse
       style="opacity:1;fill:#ac5a4e;fill-opacity:1;stroke:none;stroke-width:0.28625005;stroke-linejoin:round;stroke-miterlimit:4;stroke-dasharray:none;stroke-dashoffset:0;stroke-opacity:1"
       id="path4882"
       cx="103.82264"
       cy="158.68616"
       rx="0.8495726"
       ry="0.84043729" />
    <ellipse
       style="opacity:1;fill:#ffffff;fill-opacity:1;stroke:#000000;stroke-width:0.1;stroke-linejoin:round;stroke-miterlimit:4;stroke-dasharray:none;stroke-dashoffset:0;stroke-opacity:1"
       id="path4916"
       cx="92.738113"
       cy="171.38072"
       rx="0.67143637"
       ry="0.44305664" />
    <ellipse
       style="opacity:1;fill:#ffffff;fill-opacity:1;stroke:#000000;stroke-width:0.1;stroke-linejoin:round;stroke-miterlimit:4;stroke-dasharray:none;stroke-dashoffset:0;stroke-opacity:1"
       id="path4916-5"
       cx="90.606514"
       cy="171.377"
       rx="0.67143637"
       ry="0.44305664" />
    <ellipse
       style="opacity:1;fill:#ffffff;fill-opacity:1;stroke:#000000;stroke-width:0.1;stroke-linejoin:round;stroke-miterlimit:4;stroke-dasharray:none;stroke-dashoffset:0;stroke-opacity:1"
       id="path4916-5-7"
       cx="168.47046"
       cy="92.767082"
       rx="0.67143637"
       ry="0.44305664"
       transform="rotate(33.712852)" />
    <ellipse
       style="opacity:1;fill:#ffffff;fill-opacity:1;stroke:#000000;stroke-width:0.1;stroke-linejoin:round;stroke-miterlimit:4;stroke-dasharray:none;stroke-dashoffset:0;stroke-opacity:1"
       id="path4916-5-7-0"
       cx="177.15776"
       cy="69.889313"
       rx="0.67143637"
       ry="0.44305664"
       transform="rotate(41.252286)" />
    <ellipse
       style="opacity:1;fill:#ffffff;fill-opacity:1;stroke:#000000;stroke-width:0.1;stroke-linejoin:round;stroke-miterlimit:4;stroke-dasharray:none;stroke-dashoffset:0;stroke-opacity:1"
       id="path4916-5-7-0-4"
       cx="182.99066"
       cy="45.032787"
       rx="0.67143637"
       ry="0.44305664"
       transform="rotate(49.070332)" />
    <ellipse
       style="opacity:1;fill:#ffffff;fill-opacity:1;stroke:#000000;stroke-width:0.07596707;stroke-linejoin:round;stroke-miterlimit:4;stroke-dasharray:none;stroke-dashoffset:0;stroke-opacity:1"
       id="path4916-5-7-0-4-4"
       cx="178.7942"
       cy="50.901585"
       rx="0.5107047"
       ry="0.33615914"
       transform="matrix(0.6792991,0.73386152,-0.72194907,0.6919462,0,0)" />
    <ellipse
       style="opacity:1;fill:#ffffff;fill-opacity:1;stroke:#000000;stroke-width:0.06786513;stroke-linejoin:round;stroke-miterlimit:4;stroke-dasharray:none;stroke-dashoffset:0;stroke-opacity:1"
       id="path4916-5-7-0-4-4-0"
       cx="182.95155"
       cy="66.202255"
       rx="0.4540225"
       ry="0.30177268"
       transform="matrix(0.73701829,0.6758728,-0.77570443,0.63109637,0,0)" />
  </g>
</svg>
