<svg viewBox="0 0 96 96" xmlns="http://www.w3.org/2000/svg" xmlns:xlink="http://www.w3.org/1999/xlink" id="Icons_Crown1" overflow="hidden"><path d="M82 20.526C82.0004 20.2499 81.7768 20.0257 81.5007 20.0253 81.4918 20.0253 81.4829 20.0255 81.474 20.026 78.6732 20.2973 76.5363 22.6511 76.536 25.465L76.536 26.68C76.5355 27.3502 75.9922 27.8934 75.322 27.894L74.107 27.894C71.0888 27.8944 68.6423 30.3415 68.6428 33.3597 68.6428 33.5382 68.6515 33.7164 68.669 33.894 69.0233 36.7446 71.4698 38.8695 74.342 38.821L75.18 38.821C75.4589 38.8223 75.684 39.0494 75.6827 39.3283 75.6821 39.4528 75.6356 39.5727 75.552 39.665 72.8242 42.5799 68.9917 44.2064 65 44.143 60.707 44.143 56.07 42.389 53.477 39.671 53.2865 39.4673 53.2971 39.1478 53.5008 38.9572 53.5941 38.8699 53.7172 38.8212 53.845 38.821L55.893 38.821C58.9107 38.8212 61.3572 36.375 61.3574 33.3574 61.3574 33.1782 61.3486 32.9992 61.331 32.821 60.9767 29.9704 58.5302 27.8455 55.658 27.894L54.679 27.894C54.0084 27.894 53.4646 27.3506 53.464 26.68L53.464 25.7C53.512 22.8277 51.3868 20.3812 48.536 20.027 45.5329 19.731 42.8584 21.9255 42.5624 24.9286 42.5448 25.1069 42.536 25.2859 42.536 25.465L42.536 26.68C42.5354 27.3502 41.9922 27.8934 41.322 27.894L40.342 27.894C37.4698 27.8455 35.0233 29.9704 34.669 32.821 34.373 35.8241 36.5675 38.4986 39.5706 38.7946 39.7489 38.8122 39.9279 38.821 40.107 38.821L42.155 38.821C42.4339 38.8214 42.6596 39.0479 42.6592 39.3268 42.659 39.4546 42.6103 39.5776 42.523 39.671 39.93 42.389 35.293 44.143 31 44.143 27.0083 44.2064 23.1757 42.5799 20.448 39.665 20.2608 39.4583 20.2766 39.1389 20.4833 38.9517 20.5756 38.8681 20.6955 38.8216 20.82 38.821L21.658 38.821C24.5302 38.8695 26.9767 36.7446 27.331 33.894 27.6265 30.8903 25.431 28.2157 22.4273 27.9203 22.2497 27.9028 22.0714 27.894 21.893 27.894L20.679 27.894C20.0084 27.894 19.4646 27.3506 19.464 26.68L19.464 25.464C19.4637 22.6501 17.3268 20.2964 14.526 20.025 14.2502 20.0106 14.015 20.2226 14.0007 20.4983 14.0002 20.5072 14 20.5161 14 20.525L14 57 82 57ZM48 36C46.3431 36 45 34.6569 45 33 45 31.3431 46.3431 30 48 30 49.6569 30 51 31.3431 51 33 51 34.6569 49.6569 36 48 36Z"/><path d="M14 61 14 77 82 77 82 61ZM28 72C26.3431 72 25 70.6569 25 69 25 67.3431 26.3431 66 28 66 29.6569 66 31 67.3431 31 69 31 70.6569 29.6569 72 28 72ZM48 72C46.3431 72 45 70.6569 45 69 45 67.3431 46.3431 66 48 66 49.6569 66 51 67.3431 51 69 51 70.6569 49.6569 72 48 72ZM68 72C66.3431 72 65 70.6569 65 69 65 67.3431 66.3431 66 68 66 69.6569 66 71 67.3431 71 69 71 70.6569 69.6569 72 68 72Z"/></svg>