<?xml version="1.0" encoding="UTF-8" standalone="no"?>
<svg
   xmlns:dc="http://purl.org/dc/elements/1.1/"
   xmlns:cc="http://creativecommons.org/ns#"
   xmlns:rdf="http://www.w3.org/1999/02/22-rdf-syntax-ns#"
   xmlns:svg="http://www.w3.org/2000/svg"
   xmlns="http://www.w3.org/2000/svg"
   xmlns:sodipodi="http://sodipodi.sourceforge.net/DTD/sodipodi-0.dtd"
   xmlns:inkscape="http://www.inkscape.org/namespaces/inkscape"
   inkscape:version="1.0 (4035a4fb49, 2020-05-01)"
   sodipodi:docname="resign.svg"
   id="svg859"
   version="1.1"
   viewBox="0 0 24 24.000001"
   height="24"
   width="24">
  <metadata
     id="metadata865">
    <rdf:RDF>
      <cc:Work
         rdf:about="">
        <dc:format>image/svg+xml</dc:format>
        <dc:type
           rdf:resource="http://purl.org/dc/dcmitype/StillImage" />
        <dc:title></dc:title>
      </cc:Work>
    </rdf:RDF>
  </metadata>
  <defs
     id="defs863" />
  <sodipodi:namedview
     inkscape:current-layer="svg859"
     inkscape:window-maximized="1"
     inkscape:window-y="-9"
     inkscape:window-x="-9"
     inkscape:cy="-7.6816857"
     inkscape:cx="7.8148981"
     inkscape:zoom="5.6568543"
     inkscape:snap-global="false"
     showgrid="false"
     id="namedview861"
     inkscape:window-height="1001"
     inkscape:window-width="1920"
     inkscape:pageshadow="2"
     inkscape:pageopacity="0"
     guidetolerance="10"
     gridtolerance="10"
     objecttolerance="10"
     borderopacity="1"
     bordercolor="#666666"
     pagecolor="#ffffff" />
  <g
     transform="matrix(1.0233946,0,0,1.0081351,-0.58450375,-0.03290656)"
     id="g951">
    <path
       id="path847"
       d="M 3.4328005,19.77243 A 19.29157,19.168329 0 0 1 2.0800727,17.352319 3.3210227,3.2998069 0 0 0 1.9470798,17.023849 1.5389178,1.5290867 0 0 1 1.7912881,16.174356 c 0.049397,-0.154796 0.064597,-0.169898 0.6307663,-0.566328 0.5661698,-0.39643 0.600368,-0.407757 0.7333609,-0.419083 a 0.27738519,0.27561316 0 0 0 0.2355874,-0.117041 1.4781211,1.4686784 0 0 1 0.6763639,-0.422859 1.6909097,1.6801076 0 0 1 0.5813689,0.06041 4.2291742,4.2021569 0 0 0 1.2311343,0.169899 1.5617166,1.5517399 0 0 0 0.4103781,-0.21898 0.64596551,0.64183888 0 0 1 0.8093568,-0.08684 L 7.3275925,14.6868 c 0.026599,0 0.7827582,-0.207653 1.1399391,-0.32847 0.5319716,-0.185001 1.2083355,-0.445512 1.5199189,-0.588982 l 0.6155675,-0.283164 c 0.167191,-0.07929 0.516772,-0.264287 0.759959,-0.411532 l 0.847355,-0.487042 a 16.152937,16.049747 0 0 0 2.05569,-1.468679 c 0.725761,-0.622961 0.706762,-0.600308 0.638366,-0.83439 a 0.786558,0.78153322 0 0 1 0,-0.5852063 0.54337099,0.53989976 0 0 1 0.421777,-0.3171439 0.82455597,0.81928845 0 0 1 0.497774,0.1245922 c 0.019,0.026429 0.0494,0 0.0874,-0.037755 a 0.44077646,0.43796064 0 0 1 0.37998,-0.1887761 c 0.117794,0 0.140592,0 0.205189,-0.094388 0.0646,-0.094388 0.09879,-0.1170412 0.239387,-0.1396943 0.140593,-0.022653 0.178591,-0.041531 0.322983,-0.2152048 a 8.6293392,8.5742123 0 0 0 0.569969,-0.8192885 0.84355496,0.83816606 0 0 1 0.0912,-0.1396943 1.3603274,1.3516372 0 0 0 0.117793,-0.1774496 5.4793074,5.4443039 0 0 1 0.512973,-0.7551046 c 0.0798,-0.056633 0.535771,0.1963272 0.759959,0.4266341 a 1.6909097,1.6801076 0 0 0 0.254587,0.2189803 3.4806141,3.4583789 0 0 1 0.379979,0.4002054 c 0.182391,0.2038783 0.338182,0.3775523 0.349582,0.3775523 0.0114,0 0.0342,-0.041531 0.0456,-0.1019391 0.0114,-0.060408 0.095,-0.166123 0.250787,-0.2907152 a 0.88155293,0.87592129 0 0 1 0.680164,-0.245409 H 21.23865 L 21.090458,7.5586133 A 1.7175083,1.7065363 0 0 0 20.839671,7.3245309 c -0.132993,-0.086837 -0.125393,-0.1698986 0.0304,-0.3775523 a 2.7890511,2.7712337 0 0 1 0.858754,-0.6305123 c 0.136793,-0.03398 0.182391,0.026429 0.20519,0.2756131 0.0228,0.2491845 0.155791,0.5285732 0.227987,0.4757159 A 1.9530957,1.9406187 0 0 0 22.54198,6.263609 0.22798783,0.22653137 0 0 1 22.648374,6.1314657 c 0.0684,-0.03398 0.129193,0 0.296385,0.1094901 a 2.6104606,2.5937842 0 0 1 0.573769,0.6531655 2.2798783,2.2653137 0 0 1 0.452176,0.7890842 c 0.102594,0.3360216 0.0608,0.4153075 -0.19759,0.3775523 l -0.250786,-0.022653 c -0.288785,-0.026429 -0.642166,0.056633 -0.657365,0.1547964 a 1.7935042,1.7820468 0 0 0 0.512972,0.3360215 0.26978559,0.26806212 0 0 1 0.125394,0.1019391 0.12159351,0.12081673 0 0 1 0,0.1850007 2.7814515,2.7636827 0 0 1 -0.892953,0.5512263 C 22.34819,9.4463747 22.340591,9.4388236 22.146801,8.9895364 22.040407,8.755454 21.97581,8.6988212 21.972011,8.8385155 a 1.0943416,1.0873506 0 0 1 -0.402779,0.5663284 0.98034765,0.97408488 0 0 1 -0.357181,0.1510209 c -0.224188,0.037755 -0.235587,0.079286 -0.076,0.3058174 A 2.1658843,2.152048 0 0 1 21.310846,10.1675 l 0.239387,0.536124 c 0.208989,0.464389 0.296384,0.811737 0.231788,0.894799 a 0.9119513,0.90612547 0 0 1 -0.360981,0.128367 2.8916456,2.8731729 0 0 0 -0.338182,0.08306 1.1399391,1.1326568 0 0 1 -0.212789,0.04908 1.1931363,1.1855142 0 0 0 -0.208988,0.04908 1.3641272,1.3554127 0 0 1 -0.216589,0.05286 10.225254,10.159932 0 0 0 -1.109541,0.28694 0.27738519,0.27561316 0 0 0 -0.148192,0.154796 c -0.0456,0.124592 -0.18619,0.234082 -0.281185,0.21898 -0.095,-0.0151 -0.0798,0.03398 -0.121593,0.166123 a 0.37997971,0.37755228 0 0 1 -0.326783,0.28694 c -0.0456,0 -0.0608,0.06418 -0.0456,0.181225 a 0.82835577,0.82306397 0 0 1 -0.0418,0.332246 c -0.140593,0.377552 -0.547171,0.445512 -0.949949,0.173674 -0.129194,-0.08684 -0.239388,-0.158572 -0.246987,-0.162347 -0.0076,-0.0038 -0.915751,0.479491 -1.462922,0.804186 a 17.992039,17.8771 0 0 0 -3.438816,2.78256 10.065663,10.00136 0 0 0 -1.683311,2.102967 1.6719107,1.66123 0 0 1 0,0.585206 c -0.0266,0.07173 -0.121593,0.162347 -0.326782,0.305817 -0.205189,0.14347 -0.3001841,0.222756 -0.3799799,0.377552 a 3.5414109,3.5187872 0 0 0 -0.2089888,1.01184 C 9.603671,22.166111 9.508676,22.369989 9.1970927,22.585194 a 1.010746,1.0042891 0 0 1 -0.3305824,0.158572 c -0.1063943,0 -0.1253933,0.02643 -0.1481921,0.10949 -0.022799,0.08306 -0.1481921,0.185001 -0.6345661,0.543675 -0.6079675,0.449288 -0.6117673,0.453063 -0.7599594,0.437961 A 3.1386324,3.1185818 0 0 1 5.9064684,22.830603 L 5.3554978,22.249172 a 23.494145,23.344057 0 0 1 -1.9530957,-2.5296 z"
       style="fill:#000000;fill-opacity:1;stroke:none;stroke-width:3.78764" />
    <path
       style="fill:#000000;fill-opacity:1;stroke:none;stroke-width:2.97712px;stroke-linecap:butt;stroke-linejoin:miter;stroke-opacity:1"
       d="m 3.9808144,3.0585467 -0.58293,0.8270379 c 5.2072987,-1.3435152 7.7718766,1.032405 7.8095636,6.9647384 l 0.586967,-0.831817 C 11.400651,4.2253952 8.8145109,1.8765124 3.9808144,3.0585467 Z"
       id="path893"
       sodipodi:nodetypes="ccccc" />
    <path
       sodipodi:nodetypes="ccccc"
       id="path893-3"
       d="M 7.64221,0.30801913 6.9802207,1.074365 C 12.893749,-0.17055621 15.806143,2.0310068 15.848941,7.5279957 L 16.515515,6.7572216 C 16.068347,1.3892384 13.131467,-0.78727128 7.64221,0.30801913 Z"
       style="fill:#000000;fill-opacity:1;stroke:none;stroke-width:3.05396px;stroke-linecap:butt;stroke-linejoin:miter;stroke-opacity:1" />
    <path
       sodipodi:nodetypes="ccccc"
       id="path893-8"
       d="M 1.0514835,6.7673861 0.57114211,7.5586138 C 4.8620182,6.2732717 6.975261,8.5463165 7.0063156,14.221783 l 0.4836682,-0.7958 C 7.1655174,7.883711 5.0345068,5.6365332 1.0514835,6.7673861 Z"
       style="fill:#000000;fill-opacity:1;stroke:none;stroke-width:2.64333px;stroke-linecap:butt;stroke-linejoin:miter;stroke-opacity:1" />
  </g>
</svg>
