<svg xmlns="http://www.w3.org/2000/svg" width="164.865" height="23.977" viewBox="0 0 164.865 23.977">
    <path id="Path_6" data-name="Path 6" d="M-63.167-21.516a18.013,18.013,0,0,1,.211,2.777q0,.281-.018.756a1.942,1.942,0,0,1-.369.053,1.8,1.8,0,0,1-.3-.035,6.167,6.167,0,0,0-2.408-3.164,7.314,7.314,0,0,0-4.131-1.107,7.011,7.011,0,0,0-2.2.3,9.174,9.174,0,0,0-2.777,1.5,9,9,0,0,0-2.021,2.285,11.42,11.42,0,0,0-1.31,3.217,15.507,15.507,0,0,0-.483,3.858A14.735,14.735,0,0,0-77.827-4.86a7.209,7.209,0,0,0,3.129,3.5A8.524,8.524,0,0,0-70.69-.316l.826-.018a13.143,13.143,0,0,0,1.916-.334,8.951,8.951,0,0,0,2.118-.87A6.99,6.99,0,0,0-64.2-2.953,8.876,8.876,0,0,0-62.833-5.08l.211-.07a.6.6,0,0,1,.264.105q-.018.422-.035.545-.738,2.971-1.072,4.061-.281.07-.7.211a17.486,17.486,0,0,1-5.5.7A16.933,16.933,0,0,1-73.828.1a17.175,17.175,0,0,1-3.006-1.178A9.778,9.778,0,0,1-79.69-3.2,9.929,9.929,0,0,1-81.677-6.53a12.378,12.378,0,0,1-.756-4.386,11.711,11.711,0,0,1,.6-3.929,13.639,13.639,0,0,1,1.846-3.4,11.677,11.677,0,0,1,2.944-2.865,11.127,11.127,0,0,1,3.771-1.617,20.652,20.652,0,0,1,4.131-.316,12.683,12.683,0,0,1,3.674.519A7.006,7.006,0,0,1-63.167-21.516ZM-60.442-.439A11.334,11.334,0,0,0-58.069-1q.193-.123.193-.562l-.018-1.159.018-2.055-.035-5.234.018-1.95v-1.388l.053-1.7q0-4-.079-4.786a1.577,1.577,0,0,0-.308-.975,6.02,6.02,0,0,0-2.32-.843v-.088a2.492,2.492,0,0,1,.035-.352q.246-.035.475-.088a3.1,3.1,0,0,1,.439-.07,13.807,13.807,0,0,0,3.041-1.16h.861q.035.492.035,3.113l-.018,2.234.018,2.884-.07,3.553q0,.316.035.7a16.572,16.572,0,0,1,1.62-1.708,7.963,7.963,0,0,1,1.955-1.171,5.637,5.637,0,0,1,2.184-.431A4.24,4.24,0,0,1-46.4-12.412a5.032,5.032,0,0,1,.792,3.037l-.053,1.791.018,1-.07,1.738q-.07,2.159-.07,2.563,0,.456.035,1.229l1,.228q1,.211,1.547.386l-.018.545L-46.96,0q-.316,0-1.723.07-.861.035-1,.035h-.387a.576.576,0,0,1-.088-.264V-.316a1.393,1.393,0,0,1,.914-.422l1.055-.246a.644.644,0,0,0,.246-.369q.07-.456.158-4.529l.035-1.3a11.188,11.188,0,0,0-.317-3.405,2.465,2.465,0,0,0-1.119-1.483,3.686,3.686,0,0,0-2.017-.553,4.118,4.118,0,0,0-1.8.4,6.893,6.893,0,0,0-1.392,1.036A6.2,6.2,0,0,0-55.52-9.918a2.351,2.351,0,0,0-.211,1.156l.018,1.226-.035,1.279q0,.158.053,2.19l-.018,1.121.035,1.226a2.016,2.016,0,0,0,.053.385l2.479.6a5.5,5.5,0,0,1,.58.216l.053.2a.833.833,0,0,1-.088.288q-.51.018-.773.018l-1.371-.018L-57.771,0l-2.268.07q-.176-.018-.527-.035l-.018-.123A.683.683,0,0,1-60.442-.439Zm31.605-8.842-7.049.051h-1.336q-.809,0-1.652.073a3.1,3.1,0,0,0-.158.721l.018.176v.176l-.018.861A6.858,6.858,0,0,0-38.355-4.6a5.223,5.223,0,0,0,1.934,2.373,5.959,5.959,0,0,0,3.138.87,6.47,6.47,0,0,0,1.6-.246A8.1,8.1,0,0,0-30-2.5l1.266-1.037.105.7a2.133,2.133,0,0,1-.018.264,7.722,7.722,0,0,1-2,1.758A9.547,9.547,0,0,1-33.108.3a8.583,8.583,0,0,1-1.969.158,6.3,6.3,0,0,1-2.461-.51A5.991,5.991,0,0,1-40.359-2.54,7.94,7.94,0,0,1-41.388-6.7a8.916,8.916,0,0,1,.29-1.986,10.445,10.445,0,0,1,1.046-2.584A5.063,5.063,0,0,1-38.8-12.8a8.255,8.255,0,0,1,1.846-1.178,6.88,6.88,0,0,1,2.654-.475,5.306,5.306,0,0,1,2.672.6,5.3,5.3,0,0,1,2.1,2.039,4.772,4.772,0,0,1,.694,2.285Zm-9.809-.633h.826q.9,0,5.344-.281a2.226,2.226,0,0,0,.861-.141.937.937,0,0,0,.316-.6,2.8,2.8,0,0,0-.352-1.239,2.423,2.423,0,0,0-1.081-1.072,3.637,3.637,0,0,0-1.7-.378,3.986,3.986,0,0,0-3.27,1.529A3.536,3.536,0,0,0-38.646-9.914Zm13.412,5.449A13.231,13.231,0,0,0-24.249-2.3a4.987,4.987,0,0,0,1.6,1.556,3.886,3.886,0,0,0,2.021.554,3.024,3.024,0,0,0,1.986-.861,2,2,0,0,0,.7-1.512,3.181,3.181,0,0,0-.826-2.109A7.955,7.955,0,0,0-21.9-6.5,7.334,7.334,0,0,1-25-8.35,3.493,3.493,0,0,1-25.8-10.6a3.546,3.546,0,0,1,.65-2.109,3.985,3.985,0,0,1,1.793-1.38,5.626,5.626,0,0,1,2.109-.466A11.787,11.787,0,0,1-19-14.361a5.723,5.723,0,0,1,1.714.6q.141.9.229,2.637l.035.563q-.229.018-.387.018h-.246a5.046,5.046,0,0,0-1.608-2.312,3.461,3.461,0,0,0-2.136-.853,2.323,2.323,0,0,0-1.705.642,2.254,2.254,0,0,0-.65,1.679,2.1,2.1,0,0,0,.527,1.406,7.028,7.028,0,0,0,2.47,1.4,12.857,12.857,0,0,1,2.83,1.465,4.121,4.121,0,0,1,1.31,1.645A4.622,4.622,0,0,1-16.2-3.625a3.686,3.686,0,0,1-.8,2.27A4.285,4.285,0,0,1-19,.131a6.48,6.48,0,0,1-2.153.431,10.115,10.115,0,0,1-4.113-.826.69.69,0,0,1-.193-.527q0-.158-.035-.51-.281-2.373-.281-2.812a.35.35,0,0,1,.088-.281A.889.889,0,0,1-25.233-4.465Zm13.131,0A13.231,13.231,0,0,0-11.118-2.3a4.987,4.987,0,0,0,1.6,1.556A3.886,3.886,0,0,0-7.5-.193a3.024,3.024,0,0,0,1.986-.861,2,2,0,0,0,.7-1.512,3.181,3.181,0,0,0-.826-2.109A7.955,7.955,0,0,0-8.771-6.5a7.334,7.334,0,0,1-3.1-1.854,3.493,3.493,0,0,1-.791-2.25,3.546,3.546,0,0,1,.65-2.109,3.985,3.985,0,0,1,1.793-1.38,5.626,5.626,0,0,1,2.109-.466,11.787,11.787,0,0,1,2.241.193,5.723,5.723,0,0,1,1.714.6q.141.9.229,2.637l.035.563q-.229.018-.387.018h-.246a5.046,5.046,0,0,0-1.608-2.312,3.461,3.461,0,0,0-2.136-.853,2.323,2.323,0,0,0-1.705.642,2.254,2.254,0,0,0-.65,1.679A2.1,2.1,0,0,0-10.1-9.984a7.028,7.028,0,0,0,2.47,1.4A12.857,12.857,0,0,1-4.8-7.117a4.121,4.121,0,0,1,1.31,1.645,4.622,4.622,0,0,1,.422,1.847,3.686,3.686,0,0,1-.8,2.27,4.285,4.285,0,0,1-2,1.487A6.48,6.48,0,0,1-8.024.563a10.115,10.115,0,0,1-4.113-.826.69.69,0,0,1-.193-.527q0-.158-.035-.51-.281-2.373-.281-2.812a.35.35,0,0,1,.088-.281A.889.889,0,0,1-12.1-4.465ZM8.5-.545a24.69,24.69,0,0,0,2.887-.422.921.921,0,0,0,.42-.527v-.193q0-.439.14-3.179.035-.773.035-1.51l-.053-2.09.035-2.371-.018-4.409.018-3.161a5.2,5.2,0,0,0-.308-2.441,2.61,2.61,0,0,0-1.679-.624,7.956,7.956,0,0,1-1.494-.272.307.307,0,0,1-.141-.281,1.258,1.258,0,0,1,.053-.316,1.4,1.4,0,0,1,.809-.176q.088,0,.483-.044a6.781,6.781,0,0,1,.747-.044h1.441l4.623-.053a17.857,17.857,0,0,1,5.493.58,5.061,5.061,0,0,1,2.5,1.96,5.39,5.39,0,0,1,.932,3.085q0,3.234-3.388,4.939a8.859,8.859,0,0,0-.913.527q.6,1.264,1.667,3.038L25.021-4.7a21.678,21.678,0,0,0,1.846,2.65,4.216,4.216,0,0,0,1.24.889,10.594,10.594,0,0,0,2.453.669q.018.176.018.281a2.464,2.464,0,0,1-.018.264q-2.408.035-5.643.035-.229,0-.633-.035-1.248-2.394-2.936-5.264l-2.6-4.754a3.167,3.167,0,0,0-.87-.924,1.909,1.909,0,0,0-.905-.185l-1.494.017-.492-.017q-.053.563-.053,2.3V-2.76a3.242,3.242,0,0,0,.141.932,1.122,1.122,0,0,0,.483.536,10.429,10.429,0,0,0,1.978.606l.721.176a.739.739,0,0,1,.141.475,4.287,4.287,0,0,1-.667.088Q16.149.053,15.5.018,15.167,0,14.956,0L12.569.035,10.236.018q-.158,0-1.6.053L8.288,0,8.253-.176Q8.253-.334,8.5-.545Zm6.523-11.5q.475.018.7.018a16.661,16.661,0,0,0,2.918-.3,4.774,4.774,0,0,0,1.881-.746,3.891,3.891,0,0,0,1.2-1.535,4.853,4.853,0,0,0,.483-2.106,5.148,5.148,0,0,0-.756-2.527,4.415,4.415,0,0,0-1.96-1.7,7.39,7.39,0,0,0-3.313-.684q-.475,0-1.23.053-.07.912-.07,1.4l.088,3.281-.018,1.351Q14.95-14.164,15.021-12.041ZM30.577-13.8H31.89l.578.035.455-.035q1.8,0,2.241.035l.018.334q0,2.479-.07,4.8Q35.06-7.26,35.06-7.066a21.161,21.161,0,0,0,.2,3.867,2.043,2.043,0,0,0,.951,1.239,3.352,3.352,0,0,0,1.806.466,5.841,5.841,0,0,0,2.458-.536,7.428,7.428,0,0,0,2-1.31,11.373,11.373,0,0,0,.088-1.477q0-2.619.053-3.533.018-.545.018-.949a9.086,9.086,0,0,0-.281-3.217q-.281-.369-2.145-.562-.615-.07-.9-.123a.766.766,0,0,1-.141-.352l.053-.193a7.818,7.818,0,0,1,.9-.053l2.795.035Q44.411-13.8,44.5-13.8q.193,0,.369.018L44.9-12.5q-.123,2.672-.141,6.609l-.035,1.424.07,2.391a.768.768,0,0,0,.281.334,2.683,2.683,0,0,0,.861.088H46.1q.229,0,1.3.105.018.229.018.334v.193A33.3,33.3,0,0,0,43.6,0a9.78,9.78,0,0,1-.984.281q-.088-.615-.088-.756V-1.9q0-.088-.018-.475-.229.158-.527.387A16.238,16.238,0,0,1,39.05-.176a4.535,4.535,0,0,1-2,.51A3.754,3.754,0,0,1,34.04-1.037q-1.178-1.371-1.178-4.676,0-.176.018-.633.07-.844.07-1.178,0-.123-.018-.773-.018-.281-.018-.492,0-.158.018-.712t.018-.782q0-.3-.018-.527l-.035-.932.018-.492a.654.654,0,0,0-.281-.51,14.281,14.281,0,0,0-1.45-.343,2.483,2.483,0,0,1-.606-.149Zm17.965-7.98v-.387q.492-.158,1.09-.334.883-.281,2.615-.861h.83v.968q0,14.443-.088,17.222-.053,1.636-.053,1.742a7.326,7.326,0,0,0,.158,2.2q.211.317,1.292.44a4.468,4.468,0,0,1,1.274.246A.252.252,0,0,1,55.8-.3a.378.378,0,0,1-.079.272.409.409,0,0,1-.29.079q-.123,0-1.846-.06l-2.3-.08L48.331.053a.561.561,0,0,1-.422-.108A.314.314,0,0,1,47.8-.308a.3.3,0,0,1,.114-.261,6.408,6.408,0,0,1,1.266-.275A4.6,4.6,0,0,0,50.5-1.169a.885.885,0,0,0,.22-.589q.07-.633.07-3.568l-.018-4.043.053-4.184-.018-4.184.053-2.057a1.569,1.569,0,0,0-.193-.888,1.933,1.933,0,0,0-.826-.536Q48.894-21.6,48.542-21.779Zm21.252,12.5-7.049.051H61.409q-.809,0-1.652.073a3.1,3.1,0,0,0-.158.721l.018.176v.176l-.018.861A6.858,6.858,0,0,0,60.275-4.6a5.223,5.223,0,0,0,1.934,2.373,5.959,5.959,0,0,0,3.138.87,6.47,6.47,0,0,0,1.6-.246,8.1,8.1,0,0,0,1.688-.9L69.9-3.533l.105.7a2.132,2.132,0,0,1-.018.264,7.722,7.722,0,0,1-2,1.758A9.547,9.547,0,0,1,65.522.3a8.583,8.583,0,0,1-1.969.158,6.3,6.3,0,0,1-2.461-.51A5.991,5.991,0,0,1,58.271-2.54,7.94,7.94,0,0,1,57.243-6.7a8.916,8.916,0,0,1,.29-1.986,10.445,10.445,0,0,1,1.046-2.584A5.063,5.063,0,0,1,59.827-12.8a8.255,8.255,0,0,1,1.846-1.178,6.88,6.88,0,0,1,2.654-.475,5.306,5.306,0,0,1,2.672.6,5.3,5.3,0,0,1,2.1,2.039,4.772,4.772,0,0,1,.694,2.285Zm-9.809-.633h.826q.9,0,5.344-.281a2.226,2.226,0,0,0,.861-.141.937.937,0,0,0,.316-.6,2.8,2.8,0,0,0-.352-1.239A2.423,2.423,0,0,0,65.9-13.245a3.637,3.637,0,0,0-1.7-.378,3.986,3.986,0,0,0-3.27,1.529A3.536,3.536,0,0,0,59.985-9.914ZM73.4-4.465A13.231,13.231,0,0,0,74.382-2.3a4.987,4.987,0,0,0,1.6,1.556A3.886,3.886,0,0,0,78-.193a3.024,3.024,0,0,0,1.986-.861,2,2,0,0,0,.7-1.512,3.181,3.181,0,0,0-.826-2.109A7.955,7.955,0,0,0,76.729-6.5a7.334,7.334,0,0,1-3.1-1.854,3.493,3.493,0,0,1-.791-2.25,3.546,3.546,0,0,1,.65-2.109,3.985,3.985,0,0,1,1.793-1.38,5.626,5.626,0,0,1,2.109-.466,11.787,11.787,0,0,1,2.241.193,5.723,5.723,0,0,1,1.714.6q.141.9.229,2.637l.035.563q-.229.018-.387.018h-.246a5.046,5.046,0,0,0-1.608-2.312,3.461,3.461,0,0,0-2.136-.853,2.323,2.323,0,0,0-1.705.642,2.254,2.254,0,0,0-.65,1.679A2.1,2.1,0,0,0,75.4-9.984a7.028,7.028,0,0,0,2.47,1.4A12.857,12.857,0,0,1,80.7-7.117a4.121,4.121,0,0,1,1.31,1.645,4.622,4.622,0,0,1,.422,1.847,3.686,3.686,0,0,1-.8,2.27,4.285,4.285,0,0,1-2,1.487,6.48,6.48,0,0,1-2.153.431,10.115,10.115,0,0,1-4.113-.826.69.69,0,0,1-.193-.527q0-.158-.035-.51-.281-2.373-.281-2.812a.35.35,0,0,1,.088-.281A.889.889,0,0,1,73.4-4.465Z" transform="translate(82.433 23.414)"/>
</svg>
