<?xml version="1.0" encoding="UTF-8" standalone="no"?>
<svg
   xmlns:dc="http://purl.org/dc/elements/1.1/"
   xmlns:cc="http://creativecommons.org/ns#"
   xmlns:rdf="http://www.w3.org/1999/02/22-rdf-syntax-ns#"
   xmlns:svg="http://www.w3.org/2000/svg"
   xmlns="http://www.w3.org/2000/svg"
   xmlns:sodipodi="http://sodipodi.sourceforge.net/DTD/sodipodi-0.dtd"
   xmlns:inkscape="http://www.inkscape.org/namespaces/inkscape"
   inkscape:version="1.0 (4035a4fb49, 2020-05-01)"
   sodipodi:docname="Council Rules.svg"
   id="svg3"
   version="1.1"
   viewBox="0 0 191.09812 23.925579"
   height="23.925579"
   width="191.09811">
  <metadata
     id="metadata9">
    <rdf:RDF>
      <cc:Work
         rdf:about="">
        <dc:format>image/svg+xml</dc:format>
        <dc:type
           rdf:resource="http://purl.org/dc/dcmitype/StillImage" />
      </cc:Work>
    </rdf:RDF>
  </metadata>
  <defs
     id="defs7" />
  <sodipodi:namedview
     inkscape:current-layer="svg3"
     inkscape:window-maximized="1"
     inkscape:window-y="-9"
     inkscape:window-x="-9"
     inkscape:cy="11.963"
     inkscape:cx="95.548107"
     inkscape:zoom="6.3215625"
     showgrid="false"
     id="namedview5"
     inkscape:window-height="1001"
     inkscape:window-width="1920"
     inkscape:pageshadow="2"
     inkscape:pageopacity="0"
     guidetolerance="10"
     gridtolerance="10"
     objecttolerance="10"
     borderopacity="1"
     bordercolor="#666666"
     pagecolor="#ffffff" />
  <path
     d="m 19.268109,1.846 a 18.013,18.013 0 0 1 0.211,2.777 q 0,0.281 -0.018,0.756 a 1.942,1.942 0 0 1 -0.369,0.053 1.8,1.8 0 0 1 -0.3,-0.035 6.167,6.167 0 0 0 -2.408,-3.164 7.314,7.314 0 0 0 -4.131,-1.107 7.011,7.011 0 0 0 -2.2,0.3 9.174,9.174 0 0 0 -2.7770001,1.5 9,9 0 0 0 -2.018,2.287 11.42,11.42 0 0 0 -1.31,3.217 15.507,15.507 0 0 0 -0.483,3.858 14.735,14.735 0 0 0 1.143,6.214 7.209,7.209 0 0 0 3.13,3.498 8.524,8.524 0 0 0 4.0070001,1.046 l 0.826,-0.018 a 13.143,13.143 0 0 0 1.916,-0.334 8.951,8.951 0 0 0 2.118,-0.87 6.99,6.99 0 0 0 1.633,-1.415 8.876,8.876 0 0 0 1.364,-2.127 l 0.211,-0.07 a 0.6,0.6 0 0 1 0.264,0.105 q -0.018,0.422 -0.035,0.545 -0.738,2.971 -1.072,4.061 -0.281,0.07 -0.7,0.211 a 17.486,17.486 0 0 1 -5.5,0.7 16.933,16.933 0 0 1 -4.1630001,-0.372 17.175,17.175 0 0 1 -3.006,-1.181 9.778,9.778 0 0 1 -2.856,-2.119 9.929,9.929 0 0 1 -1.98699996,-3.33 12.378,12.378 0 0 1 -0.756,-4.386 11.711,11.711 0 0 1 0.6,-3.929 13.639,13.639 0 0 1 1.84599996,-3.4 11.677,11.677 0 0 1 2.944,-2.865 11.126,11.126 0 0 1 3.771,-1.617 20.652,20.652 0 0 1 4.1310001,-0.316 12.683,12.683 0 0 1 3.674,0.519 7.006,7.006 0 0 1 2.3,1.008 z m 3.322,14.45 a 7.43,7.43 0 0 1 0.5,-2.558 7.105,7.105 0 0 1 1.521,-2.443 7.065,7.065 0 0 1 2.162,-1.608 9.275,9.275 0 0 1 3.9,-0.738 7.381,7.381 0 0 1 5.493,2.25 7.455,7.455 0 0 1 2.21,5.413 6.772,6.772 0 0 1 -2.312,5.019 8.126,8.126 0 0 1 -5.845,2.206 7.955,7.955 0 0 1 -4.113,-1.143 7.394,7.394 0 0 1 -2.479,-2.549 7.2,7.2 0 0 1 -1.037,-3.849 z m 7.778,6.855 a 5.069,5.069 0 0 0 2.58,-0.721 5,5 0 0 0 1.981,-2.312 8.65,8.65 0 0 0 0.74,-3.683 10.752,10.752 0 0 0 -0.572,-3.182 5.293,5.293 0 0 0 -1.759,-2.714 4.475,4.475 0 0 0 -2.791,-0.905 5.724,5.724 0 0 0 -2.368,0.545 4.525,4.525 0 0 0 -2.041,2.091 9.387,9.387 0 0 0 -0.841,4.392 7.109,7.109 0 0 0 1.453,4.843 4.632,4.632 0 0 0 3.618,1.646 z m 9.888,-13.589 h 1.313 l 0.578,0.035 0.455,-0.035 q 1.8,0 2.241,0.035 l 0.018,0.334 q 0,2.479 -0.07,4.8 -0.053,1.371 -0.053,1.565 a 21.161,21.161 0 0 0 0.2,3.866 2.043,2.043 0 0 0 0.951,1.239 3.352,3.352 0 0 0 1.806,0.466 5.841,5.841 0 0 0 2.458,-0.536 7.428,7.428 0 0 0 2,-1.31 11.373,11.373 0 0 0 0.088,-1.477 q 0,-2.619 0.053,-3.533 0.018,-0.545 0.018,-0.949 a 9.086,9.086 0 0 0 -0.281,-3.217 q -0.281,-0.369 -2.145,-0.562 -0.615,-0.07 -0.9,-0.123 a 0.766,0.766 0 0 1 -0.141,-0.352 l 0.053,-0.193 a 7.818,7.818 0 0 1 0.9,-0.053 l 2.795,0.035 q 1.494,-0.035 1.582,-0.035 0.193,0 0.369,0.018 l 0.035,1.283 q -0.12,2.673 -0.141,6.61 l -0.035,1.424 0.07,2.391 a 0.768,0.768 0 0 0 0.281,0.334 2.683,2.683 0 0 0 0.861,0.088 h 0.158 q 0.229,0 1.3,0.105 0.018,0.229 0.018,0.334 v 0.193 a 33.3,33.3 0 0 0 -3.809,1.02 9.78,9.78 0 0 1 -0.984,0.281 q -0.088,-0.615 -0.088,-0.756 v -1.425 q 0,-0.088 -0.018,-0.475 -0.229,0.158 -0.527,0.387 a 16.238,16.238 0 0 1 -2.936,1.812 4.535,4.535 0 0 1 -2,0.51 3.754,3.754 0 0 1 -3.006,-1.371 q -1.185,-1.371 -1.185,-4.676 0,-0.176 0.018,-0.633 0.07,-0.844 0.07,-1.178 0,-0.123 -0.018,-0.773 -0.018,-0.281 -0.018,-0.492 0,-0.158 0.018,-0.712 0.018,-0.554 0.018,-0.782 0,-0.3 -0.018,-0.527 l -0.035,-0.932 0.018,-0.492 a 0.654,0.654 0 0 0 -0.281,-0.51 14.281,14.281 0 0 0 -1.45,-0.343 2.483,2.483 0 0 1 -0.606,-0.149 z m 17.719,13.22 a 8.562,8.562 0 0 1 1.02,-0.21 3.034,3.034 0 0 0 1.327,-0.368 1.418,1.418 0 0 0 0.22,-0.964 l 0.035,-0.631 q 0.018,-0.35 0.018,-0.893 l -0.035,-5.378 a 2.307,2.307 0 0 0 -0.281,-1.4 3.1,3.1 0 0 0 -1.758,-0.683 v -0.642 a 5.31,5.31 0 0 0 1.969,-0.917 6.319,6.319 0 0 0 1.688,-2.151 l 0.6,0.018 q 0.053,0.829 0.053,1.182 v 1.164 l 0.018,0.318 q 0.211,-0.141 0.492,-0.353 a 11.515,11.515 0 0 1 2.162,-1.3 10.39,10.39 0 0 1 1.969,-0.7 4.915,4.915 0 0 1 1.23,-0.141 4.026,4.026 0 0 1 2.479,0.774 3.509,3.509 0 0 1 1.345,1.822 17.9,17.9 0 0 1 0.308,4.162 v 2.658 q 0,0.105 -0.026,0.7 -0.026,0.595 -0.026,1.373 a 6.872,6.872 0 0 0 0.105,1.566 1.053,1.053 0 0 0 0.457,0.458 4.124,4.124 0 0 1 1.969,0.545 v 0.141 a 1.237,1.237 0 0 1 -0.105,0.439 h -0.34 l -2.32,-0.035 -2.286,0.061 q -1.265,0.035 -2.338,-0.017 l -0.105,-0.369 a 0.55,0.55 0 0 1 0.119,-0.282 4.241,4.241 0 0 1 1.34,-0.281 2.966,2.966 0 0 0 0.7,-0.106 1.965,1.965 0 0 0 0.475,-0.282 1.662,1.662 0 0 0 0.211,-0.7 q 0,-0.123 -0.035,-0.493 -0.053,-0.81 -0.07,-4.031 v -0.915 l 0.035,-1.408 a 4.238,4.238 0 0 0 -0.914,-3.133 3.414,3.414 0 0 0 -2.442,-0.868 5.447,5.447 0 0 0 -2.3,0.519 7.787,7.787 0 0 0 -2.18,1.556 q -0.035,0.844 -0.035,1.441 l 0.053,3.885 q 0,3.041 0.088,3.727 a 0.781,0.781 0 0 0 0.123,0.387 1.165,1.165 0 0 0 0.563,0.229 q 0.422,0.088 0.976,0.246 0.554,0.158 0.729,0.193 a 0.661,0.661 0 0 1 0.475,0.352 l -0.018,0.352 h -1.848 l -3.8,-0.053 q -1.315,0.016 -1.667,0.016 h -0.439 l -0.035,-0.229 a 1.693,1.693 0 0 1 0.052,-0.351 z m 31.746,-2.637 0.017,1.143 a 8.464,8.464 0 0 1 -2.706,2.039 7.854,7.854 0 0 1 -3.146,0.58 6.374,6.374 0 0 1 -3.548,-1.028 6.637,6.637 0 0 1 -2.435,-2.909 8.9,8.9 0 0 1 -0.853,-3.691 7.342,7.342 0 0 1 1.028,-3.753 6.619,6.619 0 0 1 2.725,-2.637 9.293,9.293 0 0 1 4.263,-0.87 6.839,6.839 0 0 1 3.744,0.844 1.479,1.479 0 0 1 0.721,1.266 1.263,1.263 0 0 1 -0.369,0.932 1.285,1.285 0 0 1 -0.949,0.369 2.9,2.9 0 0 1 -1.934,-1.09 4.461,4.461 0 0 0 -1.178,-0.923 2.671,2.671 0 0 0 -1.178,-0.255 3.212,3.212 0 0 0 -2.6,1.283 7.181,7.181 0 0 0 -1.446,4.587 6.644,6.644 0 0 0 1.477,4.535 4.459,4.459 0 0 0 3.445,1.688 6.221,6.221 0 0 0 2.439,-0.449 10.171,10.171 0 0 0 2.483,-1.661 z m 3.446,-18.383 a 1.33,1.33 0 0 1 0.448,-1 1.521,1.521 0 0 1 1.081,-0.422 1.6,1.6 0 0 1 1.143,0.475 1.406,1.406 0 0 1 0.492,1.02 1.434,1.434 0 0 1 -0.493,1.027 1.581,1.581 0 0 1 -1.143,0.483 1.48,1.48 0 0 1 -1.09,-0.439 1.546,1.546 0 0 1 -0.438,-1.144 z m -1.477,9.12 0.018,-0.52 q 1.143,-0.335 1.23,-0.388 a 5.757,5.757 0 0 0 1.327,-0.864 5.987,5.987 0 0 0 1.173,-1.305 2.152,2.152 0 0 1 0.334,-0.035 l 0.211,0.018 q 0.07,0.844 0.07,1.23 0,0.088 -0.035,0.791 v 0.932 l 0.018,5.063 -0.057,5.358 a 1.314,1.314 0 0 0 0.211,0.905 3.431,3.431 0 0 0 1.354,0.571 10.687,10.687 0 0 1 1.055,0.334 0.553,0.553 0 0 1 0.053,0.211 0.576,0.576 0 0 1 -0.088,0.264 q -0.687,-0.015 -1.759,-0.085 -1.459,-0.123 -1.934,-0.123 -0.229,0 -2.812,0.088 a 9.429,9.429 0 0 0 -1.021,0.088 1.219,1.219 0 0 1 -0.28,-0.053 0.387,0.387 0 0 1 -0.088,-0.211 q 0,-0.246 0.334,-0.387 0.07,-0.035 1.793,-0.4 a 1.144,1.144 0 0 0 0.738,-0.351 1.864,1.864 0 0 0 0.3,-1.176 q 0.035,-1.351 0.035,-7.407 a 6.2,6.2 0 0 0 -0.105,-1.51 1.334,1.334 0 0 0 -0.466,-0.483 5.108,5.108 0 0 0 -1.609,-0.555 z m 8.139,-9.3 V 1.195 q 0.492001,-0.158 1.090001,-0.334 0.883,-0.281 2.615,-0.861 h 0.83 v 0.968 q 0,14.443 -0.088,17.222 -0.053,1.636 -0.053,1.742 a 7.326,7.326 0 0 0 0.158,2.2 q 0.211,0.317 1.292,0.44 a 4.468,4.468 0 0 1 1.274,0.246 0.252,0.252 0 0 1 0.141,0.246 0.378,0.378 0 0 1 -0.079,0.272 0.409,0.409 0 0 1 -0.29,0.079 q -0.123,0 -1.846,-0.06 l -2.3,-0.08 -2.955001,0.14 a 0.561,0.561 0 0 1 -0.422,-0.108 0.314,0.314 0 0 1 -0.105,-0.252 0.3,0.3 0 0 1 0.114,-0.261 6.408,6.408 0 0 1 1.266001,-0.275 4.6,4.6 0 0 0 1.318,-0.325 0.885,0.885 0 0 0 0.22,-0.589 q 0.07,-0.633 0.07,-3.568 l -0.018,-4.043 0.053,-4.184 -0.018,-4.184 0.053,-2.057 a 1.569,1.569 0 0 0 -0.193,-0.888 1.933,1.933 0 0 0 -0.826,-0.536 q -0.95,-0.383 -1.301001,-0.562 z m 17.331001,21.235 a 24.69,24.69 0 0 0 2.887,-0.422 0.921,0.921 0 0 0 0.42,-0.527 v -0.193 q 0,-0.439 0.14,-3.179 0.035,-0.773 0.035,-1.51 l -0.053,-2.09 0.035,-2.371 -0.018,-4.409 0.018,-3.161 a 5.2,5.2 0 0 0 -0.308,-2.441 2.61,2.61 0 0 0 -1.679,-0.624 7.956,7.956 0 0 1 -1.494,-0.272 0.307,0.307 0 0 1 -0.141,-0.281 1.258,1.258 0 0 1 0.053,-0.316 1.4,1.4 0 0 1 0.809,-0.176 q 0.088,0 0.483,-0.044 a 6.781,6.781 0 0 1 0.747,-0.044 h 1.444 l 4.623,-0.053 a 17.857,17.857 0 0 1 5.493,0.58 5.061,5.061 0 0 1 2.5,1.96 5.39,5.39 0 0 1 0.932,3.085 q 0,3.234 -3.388,4.939 a 8.859,8.859 0 0 0 -0.913,0.527 q 0.6,1.264 1.667,3.038 l 2.231,3.829 a 21.678,21.678 0 0 0 1.846,2.65 4.216,4.216 0 0 0 1.24,0.889 10.594,10.594 0 0 0 2.453,0.669 q 0.018,0.176 0.018,0.281 a 2.464,2.464 0 0 1 -0.018,0.264 q -2.408,0.035 -5.643,0.035 -0.229,0 -0.633,-0.035 -1.248,-2.394 -2.936,-5.264 l -2.6,-4.754 a 3.167,3.167 0 0 0 -0.87,-0.924 1.909,1.909 0 0 0 -0.905,-0.185 l -1.494,0.017 -0.492,-0.017 q -0.053,0.563 -0.053,2.3 v 6.014 a 3.242,3.242 0 0 0 0.141,0.932 1.122,1.122 0 0 0 0.483,0.536 10.429,10.429 0 0 0 1.978,0.606 l 0.721,0.176 a 0.739,0.739 0 0 1 0.141,0.475 4.287,4.287 0 0 1 -0.667,0.088 q -1.579,0 -2.228,-0.035 -0.337,-0.018 -0.547,-0.018 l -2.387,0.035 -2.334,-0.017 q -0.158,0 -1.6,0.053 l -0.347,-0.071 -0.035,-0.176 q 0,-0.158 0.245,-0.369 z m 6.523,-11.5 q 0.475,0.018 0.7,0.018 a 16.661,16.661 0 0 0 2.918,-0.3 4.774,4.774 0 0 0 1.881,-0.746 3.891,3.891 0 0 0 1.2,-1.535 4.853,4.853 0 0 0 0.483,-2.106 5.148,5.148 0 0 0 -0.756,-2.527 4.415,4.415 0 0 0 -1.96,-1.7 7.39,7.39 0 0 0 -3.313,-0.684 q -0.475,0 -1.23,0.053 -0.07,0.912 -0.07,1.4 l 0.088,3.281 -0.018,1.351 q 0.006,1.376 0.076,3.499 z m 15.555,-1.755 h 1.313 l 0.578,0.035 0.455,-0.035 q 1.8,0 2.241,0.035 l 0.018,0.334 q 0,2.479 -0.07,4.8 -0.053,1.371 -0.053,1.564 a 21.161,21.161 0 0 0 0.2,3.867 2.043,2.043 0 0 0 0.951,1.239 3.352,3.352 0 0 0 1.806,0.466 5.841,5.841 0 0 0 2.461,-0.535 7.428,7.428 0 0 0 2,-1.31 11.373,11.373 0 0 0 0.088,-1.477 q 0,-2.619 0.053,-3.533 0.018,-0.545 0.018,-0.949 a 9.086,9.086 0 0 0 -0.281,-3.217 q -0.281,-0.369 -2.145,-0.562 -0.615,-0.07 -0.9,-0.123 a 0.766,0.766 0 0 1 -0.141,-0.352 l 0.053,-0.193 a 7.818,7.818 0 0 1 0.9,-0.053 l 2.795,0.035 q 1.494,-0.035 1.582,-0.035 0.193,0 0.369,0.018 l 0.035,1.283 q -0.123,2.672 -0.141,6.609 l -0.035,1.424 0.07,2.391 a 0.768,0.768 0 0 0 0.281,0.334 2.683,2.683 0 0 0 0.861,0.088 h 0.158 q 0.229,0 1.3,0.105 0.018,0.229 0.018,0.334 v 0.193 a 33.3,33.3 0 0 0 -3.812,1.02 9.78,9.78 0 0 1 -0.984,0.281 q -0.088,-0.615 -0.088,-0.756 v -1.425 q 0,-0.088 -0.018,-0.475 -0.229,0.158 -0.527,0.387 a 16.238,16.238 0 0 1 -2.936,1.811 4.535,4.535 0 0 1 -2,0.51 3.754,3.754 0 0 1 -3.006,-1.371 q -1.178,-1.371 -1.178,-4.676 0,-0.176 0.018,-0.633 0.07,-0.844 0.07,-1.178 0,-0.123 -0.018,-0.773 -0.018,-0.281 -0.018,-0.492 0,-0.158 0.018,-0.712 0.018,-0.554 0.018,-0.782 0,-0.3 -0.018,-0.527 l -0.035,-0.932 0.018,-0.492 a 0.654,0.654 0 0 0 -0.281,-0.51 14.281,14.281 0 0 0 -1.45,-0.343 2.483,2.483 0 0 1 -0.606,-0.149 z m 17.965,-7.98 V 1.195 q 0.492,-0.158 1.09,-0.334 0.883,-0.281 2.615,-0.861 h 0.83 v 0.968 q 0,14.443 -0.088,17.222 -0.053,1.636 -0.053,1.742 a 7.326,7.326 0 0 0 0.158,2.2 q 0.211,0.317 1.292,0.44 a 4.468,4.468 0 0 1 1.274,0.246 0.252,0.252 0 0 1 0.141,0.246 0.378,0.378 0 0 1 -0.079,0.272 0.409,0.409 0 0 1 -0.29,0.079 q -0.123,0 -1.846,-0.06 l -2.3,-0.08 -2.953,0.141 a 0.561,0.561 0 0 1 -0.422,-0.108 0.314,0.314 0 0 1 -0.105,-0.252 0.3,0.3 0 0 1 0.114,-0.261 6.408,6.408 0 0 1 1.266,-0.275 4.6,4.6 0 0 0 1.318,-0.325 0.885,0.885 0 0 0 0.22,-0.589 q 0.07,-0.633 0.07,-3.568 l -0.017,-4.045 0.053,-4.184 -0.018,-4.184 0.053,-2.057 a 1.569,1.569 0 0 0 -0.193,-0.888 1.933,1.933 0 0 0 -0.826,-0.536 q -0.952,-0.382 -1.303,-0.561 z m 21.252,12.5 -7.049,0.051 h -1.336 q -0.809,0 -1.652,0.073 a 3.1,3.1 0 0 0 -0.158,0.721 l 0.018,0.176 v 0.176 l -0.018,0.861 a 6.858,6.858 0 0 0 0.678,2.622 5.223,5.223 0 0 0 1.934,2.373 5.959,5.959 0 0 0 3.138,0.87 6.47,6.47 0 0 0 1.6,-0.246 8.1,8.1 0 0 0 1.688,-0.9 l 1.266,-1.037 0.105,0.7 a 2.132,2.132 0 0 1 -0.018,0.264 7.722,7.722 0 0 1 -2,1.758 9.547,9.547 0 0 1 -2.467,1.118 8.583,8.583 0 0 1 -1.969,0.158 6.3,6.3 0 0 1 -2.461,-0.51 5.991,5.991 0 0 1 -2.816,-2.488 7.94,7.94 0 0 1 -1.033,-4.16 8.916,8.916 0 0 1 0.29,-1.986 10.445,10.445 0 0 1 1.046,-2.584 5.063,5.063 0 0 1 1.248,-1.529 8.255,8.255 0 0 1 1.846,-1.178 6.88,6.88 0 0 1 2.654,-0.475 5.306,5.306 0 0 1 2.672,0.6 5.3,5.3 0 0 1 2.1,2.039 4.772,4.772 0 0 1 0.694,2.285 z m -9.809,-0.633 h 0.826 q 0.9,0 5.344,-0.281 a 2.226,2.226 0 0 0 0.861,-0.141 0.937,0.937 0 0 0 0.316,-0.6 2.8,2.8 0 0 0 -0.352,-1.239 2.423,2.423 0 0 0 -1.081,-1.072 3.637,3.637 0 0 0 -1.7,-0.378 3.986,3.986 0 0 0 -3.27,1.529 3.536,3.536 0 0 0 -0.943,2.181 z m 13.412,5.449 a 13.231,13.231 0 0 0 0.984,2.162 4.987,4.987 0 0 0 1.6,1.556 3.886,3.886 0 0 0 2.021,0.554 3.024,3.024 0 0 0 1.986,-0.861 2,2 0 0 0 0.7,-1.512 3.181,3.181 0 0 0 -0.826,-2.109 7.955,7.955 0 0 0 -3.133,-1.826 7.334,7.334 0 0 1 -3.1,-1.854 3.493,3.493 0 0 1 -0.791,-2.25 3.546,3.546 0 0 1 0.65,-2.109 3.985,3.985 0 0 1 1.793,-1.38 5.626,5.626 0 0 1 2.109,-0.466 11.787,11.787 0 0 1 2.241,0.193 5.723,5.723 0 0 1 1.714,0.6 q 0.141,0.9 0.229,2.637 l 0.035,0.563 q -0.229,0.018 -0.387,0.018 h -0.245 a 5.046,5.046 0 0 0 -1.608,-2.312 3.461,3.461 0 0 0 -2.136,-0.853 2.323,2.323 0 0 0 -1.705,0.642 2.254,2.254 0 0 0 -0.65,1.679 2.1,2.1 0 0 0 0.527,1.406 7.028,7.028 0 0 0 2.47,1.4 12.857,12.857 0 0 1 2.83,1.465 4.121,4.121 0 0 1 1.31,1.645 4.622,4.622 0 0 1 0.422,1.847 3.686,3.686 0 0 1 -0.8,2.27 4.285,4.285 0 0 1 -2,1.487 6.48,6.48 0 0 1 -2.16,0.435 10.115,10.115 0 0 1 -4.113,-0.826 0.69,0.69 0 0 1 -0.193,-0.527 q 0,-0.158 -0.035,-0.51 -0.281,-2.373 -0.281,-2.812 a 0.35,0.35 0 0 1 0.088,-0.281 0.889,0.889 0 0 1 0.455,-0.072 z"
     data-name="Path 7"
     id="Path_7" />
</svg>
