<?xml version="1.0" encoding="UTF-8" standalone="no"?>
<svg
   xmlns:dc="http://purl.org/dc/elements/1.1/"
   xmlns:cc="http://creativecommons.org/ns#"
   xmlns:rdf="http://www.w3.org/1999/02/22-rdf-syntax-ns#"
   xmlns:svg="http://www.w3.org/2000/svg"
   xmlns="http://www.w3.org/2000/svg"
   xmlns:sodipodi="http://sodipodi.sourceforge.net/DTD/sodipodi-0.dtd"
   xmlns:inkscape="http://www.inkscape.org/namespaces/inkscape"
   width="174.42999"
   height="24.438"
   viewBox="0 0 174.43 24.438"
   version="1.1"
   id="svg3"
   sodipodi:docname="Saved Pieces.svg"
   inkscape:version="1.0 (4035a4fb49, 2020-05-01)">
  <metadata
     id="metadata9">
    <rdf:RDF>
      <cc:Work
         rdf:about="">
        <dc:format>image/svg+xml</dc:format>
        <dc:type
           rdf:resource="http://purl.org/dc/dcmitype/StillImage" />
        <dc:title />
      </cc:Work>
    </rdf:RDF>
  </metadata>
  <defs
     id="defs7" />
  <sodipodi:namedview
     inkscape:document-rotation="0"
     pagecolor="#ffffff"
     bordercolor="#666666"
     borderopacity="1"
     objecttolerance="10"
     gridtolerance="10"
     guidetolerance="10"
     inkscape:pageopacity="0"
     inkscape:pageshadow="2"
     inkscape:window-width="1920"
     inkscape:window-height="1001"
     id="namedview5"
     showgrid="false"
     inkscape:zoom="1.7313735"
     inkscape:cx="-50.888313"
     inkscape:cy="52.132761"
     inkscape:window-x="-9"
     inkscape:window-y="-9"
     inkscape:window-maximized="1"
     inkscape:current-layer="svg3" />
  <path
     id="Path_18"
     data-name="Path 18"
     d="m 12.621,2.009 q 0.141,1.16 0.141,1.336 l -0.07,1.564 A 11.431,11.431 0 0 1 12.604,6.192 0.681,0.681 0 0 1 12.34,6.262 L 12.182,6.227 A 6.364,6.364 0 0 0 10.275,2.641 4.939,4.939 0 0 0 6.996,1.516 4.8,4.8 0 0 0 3.709,2.641 3.4,3.4 0 0 0 2.426,5.26 a 2.985,2.985 0 0 0 0.9,2.092 20.278,20.278 0 0 0 4.588,2.841 29.679,29.679 0 0 1 4.025,2.377 6.229,6.229 0 0 1 1.828,2.138 5.908,5.908 0 0 1 0.615,2.71 6.847,6.847 0 0 1 -0.976,3.537 6.317,6.317 0 0 1 -2.628,2.49 A 9.746,9.746 0 0 1 6.398,24.28 13.8,13.8 0 0 1 1.846,23.524 5.161,5.161 0 0 1 0.281,22.786 0.84,0.84 0 0 1 0,22.186 4.369,4.369 0 0 1 0.035,21.7 33.829,33.829 0 0 0 0.299,18.29 3.034,3.034 0 0 1 0.422,17.323 0.277,0.277 0 0 1 0.685,17.2 a 0.318,0.318 0 0 1 0.255,0.114 0.843,0.843 0 0 1 0.132,0.431 5.96,5.96 0 0 0 2,3.867 5.739,5.739 0 0 0 4.064,1.701 5.673,5.673 0 0 0 2.558,-0.58 4.329,4.329 0 0 0 1.828,-1.679 4.147,4.147 0 0 0 0.659,-2.136 3.923,3.923 0 0 0 -1,-2.6 A 14.161,14.161 0 0 0 7.156,13.567 30.025,30.025 0 0 1 3.216,11.272 8.678,8.678 0 0 1 1.001,8.772 4.96,4.96 0 0 1 0.457,6.4 5.3,5.3 0 0 1 2.391,2.26 a 7.583,7.583 0 0 1 5.186,-1.7 10.483,10.483 0 0 1 3.094,0.4 7.369,7.369 0 0 1 1.95,1.049 z m 17.561,19.3 a 0.931,0.931 0 0 1 0.105,0.334 2.266,2.266 0 0 1 -0.422,0.932 3.784,3.784 0 0 1 -1.213,1.283 2.181,2.181 0 0 1 -1.16,0.264 2.309,2.309 0 0 1 -1.9,-0.773 3.293,3.293 0 0 1 -0.546,-1.635 l -1.966,1.371 a 8.091,8.091 0 0 1 -1.582,0.756 8.476,8.476 0 0 1 -2.109,0.229 1.877,1.877 0 0 1 -1.415,-0.536 1.9,1.9 0 0 1 -0.519,-1.38 4.807,4.807 0 0 1 1.489,-2.9 10.912,10.912 0 0 1 4.043,-2.76 q 1.8,-0.756 2.2,-0.967 0.035,-0.58 0.035,-1.266 a 5.161,5.161 0 0 0 -0.626,-3.023 2.149,2.149 0 0 0 -1.79,-0.791 3.353,3.353 0 0 0 -2.275,0.949 4.2,4.2 0 0 0 -0.987,2.25 3.725,3.725 0 0 1 -0.4,0.984 2.461,2.461 0 0 1 -1.213,0.492 1.173,1.173 0 0 1 -0.7,-0.229 0.346,0.346 0 0 1 -0.176,-0.281 6.062,6.062 0 0 1 0.976,-2.065 6.455,6.455 0 0 1 2.461,-2.408 5.654,5.654 0 0 1 2.593,-0.8 6.928,6.928 0 0 1 2.25,0.272 3.039,3.039 0 0 1 1.3,0.958 3.053,3.053 0 0 1 0.686,1.494 27.474,27.474 0 0 1 0.07,2.76 l -0.053,2.795 0.018,2.039 q 0,0.4 -0.018,0.686 -0.018,0.51 -0.018,0.756 a 1.3,1.3 0 0 0 0.326,0.931 1.055,1.055 0 0 0 0.791,0.352 1.379,1.379 0 0 0 1.143,-0.668 l 0.211,-0.281 a 1.638,1.638 0 0 1 0.39,-0.124 z M 25.03,20.8 q 0.123,-2.232 0.123,-3.146 0,-0.475 -0.053,-1.283 a 12.115,12.115 0 0 0 -2.5,1.283 7.423,7.423 0 0 0 -2.1,1.986 2.706,2.706 0 0 0 -0.564,1.529 1.532,1.532 0 0 0 0.467,1.143 1.61,1.61 0 0 0 1.173,0.457 3.091,3.091 0 0 0 1.323,-0.387 A 8.838,8.838 0 0 0 25.03,20.8 Z M 30.321,9.726 q 1.951,0.02 3.41,0.141 1.037,0 1.512,-0.035 0.334,-0.018 0.422,-0.018 l 1.969,0.018 q 0.4,0.07 0.65,0.088 a 0.382,0.382 0 0 1 0.193,0.193 0.772,0.772 0 0 1 -0.105,0.369 2.734,2.734 0 0 1 -0.615,0.1 12.941,12.941 0 0 0 -2.215,0.4 q -0.123,0.087 -0.123,0.174 a 1.436,1.436 0 0 0 0.176,0.538 q 0.035,0.088 0.158,0.422 l 1.762,4.224 q 1.18,2.9 2.184,4.893 0.684,-1.3 1.262,-2.693 0.578,-1.393 1.7,-4.382 a 16.46,16.46 0 0 0 0.6,-2.087 2.04,2.04 0 0 0 0.053,-0.42 0.72,0.72 0 0 0 -0.237,-0.464 1.724,1.724 0 0 0 -0.8,-0.411 q -0.123,-0.017 -1.6,-0.262 A 0.873,0.873 0 0 1 40.448,10.321 V 10.18 a 1.923,1.923 0 0 1 0.018,-0.229 5.573,5.573 0 0 1 0.615,-0.053 l 2.074,0.018 q 0.211,0 1,-0.053 2.795,0 3.357,0.053 a 0.384,0.384 0 0 1 0.193,0.211 0.747,0.747 0 0 1 -0.105,0.352 l -0.545,0.14 q -0.211,0.018 -0.334,0.035 a 4.331,4.331 0 0 0 -1.863,0.419 5.419,5.419 0 0 0 -0.826,1.8 q -0.263,0.792 -0.772,2.006 l -0.914,2.221 -0.421,1.038 -2.715,6.3 h -0.541 a 9.236,9.236 0 0 0 -0.386,-0.88 L 36.946,20.725 33.802,13.35 a 14.63,14.63 0 0 0 -1.143,-2.323 11.075,11.075 0 0 0 -2.25,-0.739 1.349,1.349 0 0 1 -0.105,-0.4 z m 30.99,4.693 -7.049,0.051 h -1.335 q -0.809,0 -1.652,0.073 a 3.1,3.1 0 0 0 -0.158,0.721 l 0.018,0.176 v 0.176 l -0.018,0.861 a 6.858,6.858 0 0 0 0.676,2.623 5.223,5.223 0 0 0 1.934,2.373 5.959,5.959 0 0 0 3.138,0.87 6.47,6.47 0 0 0 1.6,-0.246 8.1,8.1 0 0 0 1.688,-0.9 l 1.266,-1.037 0.105,0.7 a 2.132,2.132 0 0 1 -0.018,0.264 7.722,7.722 0 0 1 -2,1.758 A 9.547,9.547 0 0 1 57.041,24 8.583,8.583 0 0 1 55.072,24.158 6.3,6.3 0 0 1 52.611,23.648 5.991,5.991 0 0 1 49.79,21.16 7.94,7.94 0 0 1 48.761,17 a 8.916,8.916 0 0 1 0.29,-1.986 10.445,10.445 0 0 1 1.046,-2.584 5.063,5.063 0 0 1 1.249,-1.53 8.255,8.255 0 0 1 1.846,-1.178 6.88,6.88 0 0 1 2.654,-0.475 5.306,5.306 0 0 1 2.672,0.6 5.3,5.3 0 0 1 2.1,2.039 4.772,4.772 0 0 1 0.694,2.285 z m -9.809,-0.633 h 0.826 q 0.9,0 5.344,-0.281 a 2.226,2.226 0 0 0 0.861,-0.141 0.937,0.937 0 0 0 0.316,-0.6 2.8,2.8 0 0 0 -0.352,-1.239 2.423,2.423 0 0 0 -1.081,-1.072 3.637,3.637 0 0 0 -1.7,-0.378 3.986,3.986 0 0 0 -3.27,1.529 3.536,3.536 0 0 0 -0.943,2.182 z m 23.714,-2.848 0.018,-0.51 -0.018,-2.057 0.018,-3.885 A 3.794,3.794 0 0 0 74.882,2.429 4.5,4.5 0 0 0 72.825,1.529 Q 72.702,1.494 72.438,1.424 V 1.231 A 2.367,2.367 0 0 1 72.473,0.844 19.138,19.138 0 0 0 76.586,0.018 L 77.486,0 q 0.07,1.2 0.07,2.672 l -0.07,6.768 0.123,7.629 -0.053,4.061 q 0,1.248 0.176,1.406 a 2.368,2.368 0 0 0 1.547,0.369 q 0.246,0 0.668,0.035 v 0.316 a 2.132,2.132 0 0 1 -0.018,0.264 q -0.545,0.123 -1.125,0.229 l -2.551,0.496 a 5.138,5.138 0 0 1 -0.9,0.105 v -1.687 q -0.3,0.088 -0.932,0.352 a 13.054,13.054 0 0 1 -5.041,1.16 5.308,5.308 0 0 1 -2.834,-0.906 5.919,5.919 0 0 1 -2.215,-2.522 7.583,7.583 0 0 1 -0.773,-3.3 8.277,8.277 0 0 1 0.51,-2.892 6.987,6.987 0 0 1 1.336,-2.294 6.481,6.481 0 0 1 1.494,-1.187 6.176,6.176 0 0 1 1.6,-0.747 10.619,10.619 0 0 1 2.092,-0.4 9.374,9.374 0 0 1 3.9,0.7 q 0.48,0.223 0.726,0.311 z M 75.234,21.8 q 0.07,-1.178 0.07,-4.852 a 15.66,15.66 0 0 0 -0.289,-3.929 3.269,3.269 0 0 0 -1.445,-1.547 4.754,4.754 0 0 0 -2.591,-0.729 4.414,4.414 0 0 0 -3.415,1.564 6.73,6.73 0 0 0 -1.4,4.623 5.982,5.982 0 0 0 1.515,4.289 4.984,4.984 0 0 0 3.774,1.6 7.529,7.529 0 0 0 2.363,-0.349 4.32,4.32 0 0 0 1.418,-0.67 z M 90.158,1.27 a 3.36,3.36 0 0 1 0.4,-0.053 q 0.6,0 1.969,0.07 0.721,0.018 0.984,0.018 0.387,0 1.635,-0.07 l 2.988,-0.176 q 1.178,-0.105 2.742,-0.105 a 10.312,10.312 0 0 1 4.395,0.781 5.488,5.488 0 0 1 2.522,2.449 7.013,7.013 0 0 1 0.888,3.318 6.612,6.612 0 0 1 -1.934,4.757 6.9,6.9 0 0 1 -5.2,2 5.4,5.4 0 0 1 -1.529,-0.185 5.461,5.461 0 0 1 -1.406,-0.712 0.929,0.929 0 0 1 -0.4,-0.475 0.4,0.4 0 0 1 0.193,-0.176 1.369,1.369 0 0 1 0.51,0.105 4.6,4.6 0 0 0 1.512,0.211 5.355,5.355 0 0 0 2.628,-0.684 4.457,4.457 0 0 0 1.872,-1.948 5.88,5.88 0 0 0 0.633,-2.668 5.725,5.725 0 0 0 -0.667,-2.659 5.665,5.665 0 0 0 -1.755,-2.062 5.479,5.479 0 0 0 -1.886,-0.737 9.3,9.3 0 0 0 -1.974,-0.3 5.759,5.759 0 0 0 -2.579,0.316 l -0.018,0.246 0.053,1.985 -0.018,0.351 q -0.035,0.474 -0.035,1.458 0,3.583 0.105,4.461 v 0.984 l 0.227,8.03 q 0,0.176 -0.044,0.65 -0.044,0.474 -0.044,0.825 a 4.448,4.448 0 0 0 0.141,1.282 q 0.422,0.123 2.461,0.58 0.949,0.229 1.037,0.264 a 0.505,0.505 0 0 1 0.246,0.229 0.6,0.6 0 0 1 -0.185,0.343 0.864,0.864 0 0 1 -0.448,0.079 q -0.211,0 -0.984,-0.088 -1.512,-0.159 -2.373,-0.159 l -3.094,0.124 -1.846,-0.053 q -0.176,0 -1.02,0.035 l -0.014,-0.457 2.285,-0.439 A 1.465,1.465 0 0 0 93.814,22.7 1.813,1.813 0 0 0 93.99,21.734 q 0,-0.158 0.018,-0.685 0.018,-0.369 0.018,-1.019 0,-2.073 -0.176,-8.835 -0.07,-3.161 -0.07,-6.428 v -0.3 q 0,-1.265 -0.387,-1.6 A 7.223,7.223 0 0 0 90.141,1.919 0.811,0.811 0 0 1 90.053,1.603 0.725,0.725 0 0 1 90.158,1.27 Z m 21.973,0.826 a 1.33,1.33 0 0 1 0.448,-1 1.521,1.521 0 0 1 1.081,-0.422 1.6,1.6 0 0 1 1.143,0.475 1.406,1.406 0 0 1 0.492,1.02 1.434,1.434 0 0 1 -0.492,1.028 A 1.581,1.581 0 0 1 113.66,3.68 1.48,1.48 0 0 1 112.57,3.241 1.546,1.546 0 0 1 112.13,2.1 Z m -1.477,9.123 0.018,-0.519 q 1.143,-0.335 1.23,-0.388 a 5.757,5.757 0 0 0 1.327,-0.864 5.987,5.987 0 0 0 1.169,-1.305 2.152,2.152 0 0 1 0.334,-0.035 l 0.211,0.018 q 0.07,0.844 0.07,1.23 0,0.088 -0.035,0.791 v 0.932 l 0.018,5.063 -0.05,5.358 a 1.314,1.314 0 0 0 0.211,0.905 3.431,3.431 0 0 0 1.354,0.571 10.687,10.687 0 0 1 1.055,0.334 0.553,0.553 0 0 1 0.053,0.211 0.576,0.576 0 0 1 -0.088,0.264 q -0.685,-0.015 -1.762,-0.085 -1.459,-0.123 -1.934,-0.123 -0.229,0 -2.812,0.088 a 9.429,9.429 0 0 0 -1.02,0.088 1.219,1.219 0 0 1 -0.281,-0.053 0.387,0.387 0 0 1 -0.088,-0.211 q 0,-0.246 0.334,-0.387 0.07,-0.035 1.793,-0.4 a 1.144,1.144 0 0 0 0.738,-0.351 1.864,1.864 0 0 0 0.3,-1.176 q 0.035,-1.351 0.035,-7.407 a 6.2,6.2 0 0 0 -0.105,-1.51 1.334,1.334 0 0 0 -0.466,-0.483 5.108,5.108 0 0 0 -1.609,-0.555 z m 21.146,3.2 -7.049,0.051 h -1.335 q -0.809,0 -1.652,0.073 a 3.1,3.1 0 0 0 -0.158,0.721 l 0.018,0.176 v 0.176 l -0.018,0.861 a 6.858,6.858 0 0 0 0.677,2.628 5.223,5.223 0 0 0 1.934,2.373 5.959,5.959 0 0 0 3.138,0.87 6.47,6.47 0 0 0 1.6,-0.246 8.1,8.1 0 0 0 1.688,-0.9 l 1.266,-1.037 0.105,0.7 a 2.132,2.132 0 0 1 -0.018,0.264 7.722,7.722 0 0 1 -2,1.758 9.547,9.547 0 0 1 -2.467,1.113 8.583,8.583 0 0 1 -1.969,0.158 6.3,6.3 0 0 1 -2.461,-0.51 5.991,5.991 0 0 1 -2.821,-2.487 7.94,7.94 0 0 1 -1.032,-4.161 8.916,8.916 0 0 1 0.29,-1.986 10.445,10.445 0 0 1 1.046,-2.584 5.063,5.063 0 0 1 1.248,-1.529 8.255,8.255 0 0 1 1.846,-1.178 6.88,6.88 0 0 1 2.654,-0.475 5.306,5.306 0 0 1 2.672,0.6 5.3,5.3 0 0 1 2.1,2.039 4.772,4.772 0 0 1 0.694,2.285 z m -9.809,-0.633 h 0.826 q 0.9,0 5.344,-0.281 a 2.226,2.226 0 0 0 0.861,-0.141 0.937,0.937 0 0 0 0.316,-0.6 2.8,2.8 0 0 0 -0.352,-1.239 2.423,2.423 0 0 0 -1.081,-1.072 3.637,3.637 0 0 0 -1.7,-0.378 3.986,3.986 0 0 0 -3.27,1.529 3.536,3.536 0 0 0 -0.943,2.182 z m 24.926,6.7 0.018,1.143 a 8.464,8.464 0 0 1 -2.707,2.039 7.854,7.854 0 0 1 -3.146,0.58 6.374,6.374 0 0 1 -3.551,-1.028 6.637,6.637 0 0 1 -2.435,-2.909 8.9,8.9 0 0 1 -0.853,-3.691 7.342,7.342 0 0 1 1.028,-3.753 6.619,6.619 0 0 1 2.725,-2.637 9.293,9.293 0 0 1 4.263,-0.87 6.839,6.839 0 0 1 3.744,0.844 1.479,1.479 0 0 1 0.721,1.266 1.263,1.263 0 0 1 -0.369,0.932 1.285,1.285 0 0 1 -0.949,0.369 2.9,2.9 0 0 1 -1.934,-1.09 4.461,4.461 0 0 0 -1.178,-0.923 2.671,2.671 0 0 0 -1.178,-0.255 3.212,3.212 0 0 0 -2.6,1.283 7.181,7.181 0 0 0 -1.441,4.588 6.644,6.644 0 0 0 1.471,4.531 4.459,4.459 0 0 0 3.445,1.688 6.221,6.221 0 0 0 2.435,-0.448 10.171,10.171 0 0 0 2.491,-1.662 z m 14.871,-6.064 -7.049,0.051 h -1.336 q -0.809,0 -1.652,0.073 a 3.1,3.1 0 0 0 -0.158,0.721 l 0.018,0.176 v 0.176 l -0.018,0.861 a 6.858,6.858 0 0 0 0.677,2.628 5.223,5.223 0 0 0 1.934,2.373 5.959,5.959 0 0 0 3.138,0.87 6.47,6.47 0 0 0 1.6,-0.246 8.1,8.1 0 0 0 1.688,-0.9 l 1.266,-1.037 0.105,0.7 a 2.132,2.132 0 0 1 -0.018,0.264 7.722,7.722 0 0 1 -2,1.758 9.547,9.547 0 0 1 -2.466,1.11 8.583,8.583 0 0 1 -1.971,0.157 6.3,6.3 0 0 1 -2.461,-0.51 5.991,5.991 0 0 1 -2.819,-2.487 7.94,7.94 0 0 1 -1.028,-4.16 8.916,8.916 0 0 1 0.29,-1.986 10.445,10.445 0 0 1 1.046,-2.584 5.063,5.063 0 0 1 1.248,-1.529 8.255,8.255 0 0 1 1.846,-1.178 6.88,6.88 0 0 1 2.654,-0.475 5.306,5.306 0 0 1 2.672,0.6 5.3,5.3 0 0 1 2.1,2.039 4.772,4.772 0 0 1 0.694,2.285 z m -9.809,-0.633 h 0.826 q 0.9,0 5.344,-0.281 a 2.226,2.226 0 0 0 0.861,-0.141 0.937,0.937 0 0 0 0.316,-0.6 2.8,2.8 0 0 0 -0.352,-1.239 2.423,2.423 0 0 0 -1.081,-1.072 3.637,3.637 0 0 0 -1.7,-0.378 3.986,3.986 0 0 0 -3.27,1.529 3.536,3.536 0 0 0 -0.943,2.179 z m 13.412,5.449 a 13.231,13.231 0 0 0 0.985,2.162 4.987,4.987 0 0 0 1.6,1.556 3.886,3.886 0 0 0 2.021,0.554 3.024,3.024 0 0 0 1.986,-0.861 2,2 0 0 0 0.7,-1.512 3.181,3.181 0 0 0 -0.826,-2.109 7.955,7.955 0 0 0 -3.134,-1.828 7.334,7.334 0 0 1 -3.1,-1.854 3.493,3.493 0 0 1 -0.791,-2.25 3.546,3.546 0 0 1 0.65,-2.109 3.985,3.985 0 0 1 1.793,-1.38 5.626,5.626 0 0 1 2.109,-0.466 11.787,11.787 0 0 1 2.241,0.193 5.723,5.723 0 0 1 1.714,0.6 q 0.141,0.9 0.229,2.637 l 0.035,0.563 q -0.229,0.018 -0.387,0.018 h -0.246 a 5.046,5.046 0 0 0 -1.608,-2.312 3.461,3.461 0 0 0 -2.136,-0.853 2.323,2.323 0 0 0 -1.705,0.642 2.254,2.254 0 0 0 -0.65,1.679 2.1,2.1 0 0 0 0.527,1.406 7.028,7.028 0 0 0 2.47,1.4 12.857,12.857 0 0 1 2.83,1.465 4.121,4.121 0 0 1 1.31,1.645 4.622,4.622 0 0 1 0.422,1.847 3.686,3.686 0 0 1 -0.8,2.27 4.285,4.285 0 0 1 -2,1.487 6.48,6.48 0 0 1 -2.153,0.431 10.115,10.115 0 0 1 -4.113,-0.826 0.69,0.69 0 0 1 -0.193,-0.527 q 0,-0.158 -0.035,-0.51 -0.281,-2.373 -0.281,-2.812 a 0.35,0.35 0 0 1 0.088,-0.281 0.889,0.889 0 0 1 0.449,-0.068 z" />
</svg>
