<?xml version="1.0" encoding="UTF-8" standalone="no"?>
<svg
   xmlns:dc="http://purl.org/dc/elements/1.1/"
   xmlns:cc="http://creativecommons.org/ns#"
   xmlns:rdf="http://www.w3.org/1999/02/22-rdf-syntax-ns#"
   xmlns:svg="http://www.w3.org/2000/svg"
   xmlns="http://www.w3.org/2000/svg"
   xmlns:sodipodi="http://sodipodi.sourceforge.net/DTD/sodipodi-0.dtd"
   xmlns:inkscape="http://www.inkscape.org/namespaces/inkscape"
   width="150mm"
   height="148.22159mm"
   viewBox="0 0 150 148.22159"
   version="1.1"
   id="svg3305"
   inkscape:version="1.0 (4035a4fb49, 2020-05-01)"
   sodipodi:docname="author-github.svg">
  <defs
     id="defs3299" />
  <sodipodi:namedview
     fit-margin-bottom="0"
     fit-margin-right="0"
     fit-margin-left="0"
     fit-margin-top="0"
     id="base"
     pagecolor="#ffffff"
     bordercolor="#666666"
     borderopacity="1.0"
     inkscape:pageopacity="0.0"
     inkscape:pageshadow="2"
     inkscape:zoom="0.44602143"
     inkscape:cx="330.79181"
     inkscape:cy="877.14244"
     inkscape:document-units="mm"
     inkscape:current-layer="layer1"
     inkscape:document-rotation="0"
     showgrid="false"
     inkscape:window-width="1920"
     inkscape:window-height="1001"
     inkscape:window-x="-9"
     inkscape:window-y="-9"
     inkscape:window-maximized="1" />
  <metadata
     id="metadata3302">
    <rdf:RDF>
      <cc:Work
         rdf:about="">
        <dc:format>image/svg+xml</dc:format>
        <dc:type
           rdf:resource="http://purl.org/dc/dcmitype/StillImage" />
        <dc:title></dc:title>
      </cc:Work>
    </rdf:RDF>
  </metadata>
  <g
     transform="translate(-0.517967,-3.098486)"
     inkscape:label="Layer 1"
     inkscape:groupmode="layer"
     id="layer1">
    <path
       id="rect3907"
       style="fill:#000000;stroke-width:0.169722"
       d="M 0.517967,3.098486 V 151.32008 H 150.51797 V 3.098486 Z m 73.904291,13.284736 c 35.096902,0 63.564162,26.329605 63.564162,61.010389 0,27.729649 -17.15643,51.458499 -42.460622,59.759879 -3.21363,0.5751 -4.37773,-1.40007 -4.37773,-3.02535 0,-2.05035 0.0762,-12.47723 0.0762,-20.90366 0,-5.87597 -1.97392,-9.6264 -4.3019,-11.60172 14.145042,-1.57529 29.049292,-3.500883 29.049292,-27.629925 0,-6.851138 -2.47984,-10.301608 -6.52851,-14.727346 0.65791,-1.625276 2.80863,-8.301443 -0.65805,-16.977891 -5.28857,-1.650276 -17.459702,6.751248 -17.459702,6.751248 -5.06085,-1.400236 -10.50135,-2.125274 -15.89113,-2.125274 -5.3898,0 -10.830285,0.725038 -15.891127,2.125274 0,0 -12.171133,-8.376528 -17.459707,-6.751248 -3.466671,8.651444 -1.315947,15.352615 -0.658043,16.977891 -4.048668,4.400738 -5.971601,7.851208 -5.971601,14.727346 0,24.054032 14.271481,26.079655 28.416525,27.629925 -1.821902,1.65026 -3.466713,4.42548 -4.048717,8.42614 -3.618497,1.65027 -12.905161,4.4257 -18.446776,-5.22591 -3.46667,-5.951003 -9.767484,-6.451113 -9.767484,-6.451113 -6.199527,-0.075 -0.404873,3.850823 -0.404873,3.850823 4.149887,1.8753 7.03486,9.15168 7.03486,9.15168 3.71972,11.20187 21.432574,7.45111 21.432574,7.45111 0,5.25088 0.07585,13.80237 0.07585,15.35262 0,1.62527 -1.1388,3.60044 -4.37774,3.02534 -25.228277,-8.35139 -42.89043,-32.08019 -42.89043,-59.809839 0,-34.680784 26.847769,-61.010389 61.944689,-61.010389 z M 34.908485,100.3459 c 0.154641,-0.004 0.330231,0.0205 0.520012,0.0767 0.506089,0.25005 0.758983,0.64998 0.581854,0.97504 -0.177129,0.35006 -0.682992,0.42493 -1.087858,0.17488 -0.506088,-0.25004 -0.759325,-0.64997 -0.582196,-0.97503 0.110705,-0.15629 0.310449,-0.2442 0.568188,-0.25152 z m 2.618853,2.10772 c 0.286401,0.007 0.608637,0.16927 0.861676,0.41931 0.430169,0.47507 0.505937,1.05011 0.176982,1.30015 -0.328956,0.32506 -0.910875,0.1499 -1.315747,-0.25017 -0.430168,-0.47508 -0.505942,-1.0501 -0.176982,-1.30015 0.123354,-0.12189 0.28223,-0.17339 0.454071,-0.16914 z m 2.563504,3.2259 c 0.349699,0.007 0.737026,0.24845 0.980576,0.64382 0.404874,0.5751 0.404874,1.22527 0,1.55032 -0.328956,0.25005 -1.012358,-2.1e-4 -1.417222,-0.57529 -0.404874,-0.5751 -0.404874,-1.22499 0,-1.47503 0.12652,-0.10159 0.277692,-0.14694 0.436646,-0.14382 z m 3.07395,3.56924 c 0.32865,0.0115 0.705699,0.17685 1.018841,0.50034 0.506079,0.47509 0.657969,1.22492 0.329022,1.54999 -0.328956,0.40006 -1.062765,0.32526 -1.644769,-0.24984 -0.581995,-0.47508 -0.733895,-1.22526 -0.329022,-1.55032 0.143914,-0.17503 0.370311,-0.2591 0.625928,-0.25017 z m 4.617587,2.74581 c 0.124525,0.004 0.250763,0.0218 0.374122,0.0546 0.759125,0.22504 1.239682,0.80007 1.087857,1.30015 -0.151825,0.50009 -0.910676,0.75038 -1.568577,0.50035 -0.759126,-0.15002 -1.265332,-0.72511 -1.088201,-1.2252 0.14392,-0.4063 0.655187,-0.64768 1.194799,-0.62999 z m 10.261533,0.1948 c 0.623412,0.0185 1.154661,0.31929 1.221107,0.73498 0.07591,0.50009 -0.430229,0.97522 -1.16405,1.15025 -0.759126,0.17503 -1.417133,-0.14982 -1.493072,-0.6499 -0.07591,-0.57509 0.43023,-1.05017 1.164051,-1.22519 0.09173,-0.009 0.182905,-0.0127 0.271964,-0.0101 z m -4.862902,0.65159 c 0.697779,-0.0157 1.276114,0.36936 1.276114,0.90852 0,0.50008 -0.581926,0.90042 -1.315747,0.90042 -0.835044,0.075 -1.417223,-0.32532 -1.417223,-0.90042 0,-0.50009 0.58226,-0.90008 1.316089,-0.90008 0.04745,-0.005 0.09425,-0.007 0.140767,-0.009 z"
       inkscape:connector-curvature="0" />
  </g>
</svg>
