<?xml version="1.0" encoding="UTF-8" standalone="no"?>
<svg
   xmlns:dc="http://purl.org/dc/elements/1.1/"
   xmlns:cc="http://creativecommons.org/ns#"
   xmlns:rdf="http://www.w3.org/1999/02/22-rdf-syntax-ns#"
   xmlns:svg="http://www.w3.org/2000/svg"
   xmlns="http://www.w3.org/2000/svg"
   xmlns:sodipodi="http://sodipodi.sourceforge.net/DTD/sodipodi-0.dtd"
   xmlns:inkscape="http://www.inkscape.org/namespaces/inkscape"
   sodipodi:docname="play-as.svg"
   inkscape:version="1.0 (4035a4fb49, 2020-05-01)"
   id="svg8"
   version="1.1"
   viewBox="0 0 66.37867 19.742613"
   height="19.742613mm"
   width="66.37867mm">
  <defs
     id="defs2" />
  <sodipodi:namedview
     fit-margin-bottom="0"
     fit-margin-right="0"
     fit-margin-left="0"
     fit-margin-top="0"
     inkscape:window-maximized="1"
     inkscape:window-y="-9"
     inkscape:window-x="-9"
     inkscape:window-height="1001"
     inkscape:window-width="1920"
     showgrid="false"
     inkscape:document-rotation="0"
     inkscape:current-layer="layer1"
     inkscape:document-units="mm"
     inkscape:cy="-18.722733"
     inkscape:cx="-55.985422"
     inkscape:zoom="1.4"
     inkscape:pageshadow="2"
     inkscape:pageopacity="0.0"
     borderopacity="1.0"
     bordercolor="#666666"
     pagecolor="#ffffff"
     id="base" />
  <metadata
     id="metadata5">
    <rdf:RDF>
      <cc:Work
         rdf:about="">
        <dc:format>image/svg+xml</dc:format>
        <dc:type
           rdf:resource="http://purl.org/dc/dcmitype/StillImage" />
        <dc:title></dc:title>
      </cc:Work>
    </rdf:RDF>
  </metadata>
  <g
     transform="translate(-67.603413,-134.74234)"
     id="layer1"
     inkscape:groupmode="layer"
     inkscape:label="Layer 1">
    <path
       id="path847"
       d="m 94.315746,154.30773 c -0.360456,-0.20995 -0.388318,-0.88463 -0.04819,-1.16691 0.157832,-0.13099 0.484256,-0.16605 0.896885,-0.0963 0.505667,0.0854 0.709597,0.0422 0.924667,-0.19579 0.435532,-0.48206 1.31669,-2.46075 1.316838,-2.95704 7.3e-5,-0.24766 -0.498878,-1.77166 -1.108781,-3.38666 -0.609905,-1.615 -1.300745,-3.44647 -1.5352,-4.06993 -0.37424,-0.99518 -0.497459,-1.15705 -1.00931,-1.32598 -0.987716,-0.32598 -0.472924,-0.50433 1.419752,-0.49189 2.484028,0.0163 3.106195,0.28249 1.344673,0.57525 -0.34925,0.058 -0.635,0.16888 -0.635,0.24632 0,0.15776 1.29403,3.96427 1.866332,5.48999 0.21939,0.58487 0.433341,0.92727 0.523245,0.83736 0.318384,-0.31838 1.854183,-4.88673 1.890433,-5.62322 0.0379,-0.76927 0.0355,-0.7727 -0.681677,-1.00149 -1.2045,-0.38425 -0.837748,-0.55068 1.100667,-0.49951 1.06863,0.0282 1.82033,0.11799 1.82033,0.2174 0,0.0931 -0.20163,0.19268 -0.44806,0.22122 -0.24644,0.0285 -0.56361,0.18093 -0.70483,0.33866 -0.14122,0.15773 -1.18573,2.76329 -2.321136,5.79012 -1.135404,3.02683 -2.219948,5.75883 -2.410096,6.07111 -0.35962,0.5906 -1.211868,1.21225 -1.651208,1.20444 -0.1397,-0.002 -0.38735,-0.0822 -0.550334,-0.17711 z m 30.487104,-5.16596 c -0.85806,-0.26396 -0.90472,-0.35557 -1.01936,-2.00115 -0.0661,-0.94804 0.22621,-0.8993 0.71592,0.11939 0.52265,1.0872 1.29627,1.64261 2.28795,1.64261 0.96389,0 1.60672,-0.61671 1.60672,-1.54144 0,-0.88681 -0.76527,-1.62691 -2.30814,-2.23224 -1.25483,-0.49231 -1.95232,-1.07165 -2.25517,-1.87315 -0.37357,-0.98868 0.39545,-2.36579 1.56867,-2.80906 0.94567,-0.3573 3.26636,-0.0985 3.41398,0.38077 0.0341,0.11062 0.0967,0.56307 0.13917,1.00546 0.0566,0.58946 0.018,0.80433 -0.14457,0.80433 -0.12198,0 -0.26827,-0.14647 -0.32509,-0.32549 -0.0568,-0.17903 -0.40508,-0.59813 -0.7739,-0.93134 -0.52278,-0.4723 -0.81328,-0.60584 -1.31792,-0.60584 -0.8369,0 -1.3837,0.54471 -1.3837,1.3784 0,0.75314 0.3878,1.11325 1.97355,1.8326 1.39611,0.63334 2.1565,1.34619 2.40005,2.25 0.58707,2.1787 -1.87093,3.739 -4.57816,2.90615 z m 7.63997,0.039 c -0.63132,-0.31474 -0.80193,-1.02558 -0.3818,-1.59078 0.43875,-0.59026 1.109,-0.68473 1.57214,-0.22159 0.87609,0.8761 -0.0969,2.35752 -1.19034,1.81237 z m -64.412194,-0.1025 c -0.04949,-0.0801 0.234188,-0.1993 0.630401,-0.26493 1.474967,-0.24434 1.368654,0.29442 1.230337,-6.23495 -0.100257,-4.73273 -0.167922,-5.83442 -0.372561,-6.06586 -0.13753,-0.15554 -0.624755,-0.37269 -1.082723,-0.48256 -0.457967,-0.10986 -0.832667,-0.25654 -0.832667,-0.32594 0,-0.29866 7.486101,-0.45389 8.486585,-0.17599 2.252719,0.62575 3.338764,3.25228 2.282649,5.52044 -0.842401,1.80918 -3.279218,2.78243 -5.081334,2.02946 -0.920865,-0.38476 -0.944802,-0.65582 -0.04601,-0.52104 1.975393,0.29623 3.657602,-1.1256 3.667728,-3.10001 0.01069,-2.08397 -1.676553,-3.59289 -4.017481,-3.59289 -1.456284,0 -1.385194,-0.27424 -1.283829,4.9525 0.04922,2.53815 0.100942,5.26253 0.114929,6.05416 l 0.02543,1.43934 0.677333,0.19832 c 0.372533,0.10908 0.886883,0.24389 1.143,0.29956 0.256117,0.0557 0.465667,0.16195 0.465667,0.23617 0,0.18367 -5.89434,0.21725 -6.007454,0.0342 z m 17.928469,0.0335 c -0.102473,-0.0684 -0.2786,-0.29959 -0.391395,-0.5137 -0.537383,-1.02009 0.950128,-2.82376 3.190623,-3.86876 l 1.39921,-0.65262 -0.06541,-1.16337 c -0.07722,-1.37329 -0.432101,-1.79996 -1.49714,-1.79996 -0.874502,0 -1.577105,0.60934 -1.857546,1.61098 -0.211896,0.75681 -0.552144,1.09835 -1.094202,1.09835 -0.521736,0 -0.470172,-0.51843 0.143493,-1.44268 0.830667,-1.25107 1.722943,-1.82003 2.999061,-1.91233 1.170918,-0.0847 1.874219,0.15635 2.304373,0.7898 0.258096,0.38008 0.317512,0.93964 0.389255,3.66588 l 0.08467,3.21733 0.437828,0.0509 c 0.243642,0.0283 0.534473,-0.0656 0.655733,-0.21167 0.119849,-0.14441 0.284776,-0.26256 0.366505,-0.26256 0.301794,0 0.134498,0.48728 -0.342671,0.99809 -0.820634,0.87849 -2.233439,0.68448 -2.51777,-0.34575 l -0.123625,-0.44793 -1.089029,0.65979 c -0.889427,0.53887 -1.246344,0.65932 -1.947333,0.65721 -0.472068,-10e-4 -0.942147,-0.0586 -1.044623,-0.127 z m 2.604757,-0.81073 c 0.346258,-0.14464 0.839111,-0.46369 1.095228,-0.70901 0.424886,-0.40697 0.465666,-0.55448 0.465666,-1.68435 0,-0.68108 -0.05828,-1.23832 -0.129508,-1.23832 -0.290943,0 -1.515833,0.74587 -2.043939,1.24462 -1.289636,1.21794 -1.317613,2.35783 -0.06478,2.63931 0.02627,0.006 0.331073,-0.10761 0.677333,-0.25225 z m -8.937772,0.61306 c 0,-0.16467 0.226219,-0.25114 1.13458,-0.4337 l 0.541916,-0.10892 0.05075,-5.70339 c 0.02792,-3.13687 0.02419,-5.83148 -0.0083,-5.98802 -0.03246,-0.15654 -0.367637,-0.40811 -0.744835,-0.55903 -0.378365,-0.1514 -0.617596,-0.33647 -0.533646,-0.41285 0.169279,-0.15401 2.232413,-0.86013 2.513381,-0.86022 0.123282,-4e-5 0.164474,2.10147 0.132683,6.76916 l -0.0461,6.76922 0.427103,0.0888 c 0.234908,0.0489 0.617604,0.12839 0.850438,0.17673 0.232833,0.0483 0.423333,0.16264 0.423333,0.254 0,0.10068 -0.933807,0.16611 -2.370667,0.16611 -1.353357,0 -2.370666,-0.0678 -2.370666,-0.15793 z m 27.94,-0.0104 c 0,-0.18883 0.45114,-0.33964 1.016,-0.33964 0.71134,0 0.97386,-0.14496 1.3338,-0.73647 0.31776,-0.52219 2.11026,-5.25977 3.93202,-10.3923 0.50317,-1.41759 1.02362,-2.62054 1.15658,-2.67323 0.13295,-0.0527 0.34113,0.004 0.46261,0.1251 0.20565,0.20565 2.90799,7.26947 4.21247,11.01125 0.77607,2.22608 0.8158,2.28484 1.72425,2.54973 0.43529,0.12692 0.82155,0.3211 0.85836,0.43151 0.0502,0.1506 -0.6348,0.18912 -2.74294,0.15424 -1.69292,-0.028 -2.82653,-0.11381 -2.85183,-0.21583 -0.0231,-0.0931 0.39024,-0.20786 0.91852,-0.25495 0.52828,-0.0471 1.02272,-0.14783 1.09875,-0.22387 0.16404,-0.16404 -1.44342,-4.97716 -1.77198,-5.30571 -0.2313,-0.2313 -3.44066,-0.33034 -4.18909,-0.12928 -0.2759,0.0741 -0.50775,0.59572 -1.14684,2.58002 -0.44057,1.36792 -0.7993,2.61159 -0.79719,2.76373 0.003,0.21483 0.24963,0.30292 1.10451,0.39447 1.99569,0.21373 1.16377,0.426 -1.60867,0.41048 -1.49013,-0.008 -2.70933,-0.0755 -2.70933,-0.14925 z m 9.07164,-6.6455 c 0.079,-0.079 -0.96969,-2.99798 -1.73555,-4.83095 l -0.2585,-0.61866 -0.25533,0.58607 c -0.35607,0.81727 -1.74226,4.60229 -1.74226,4.75727 0,0.25713 3.74117,0.35673 3.99164,0.10627 z m 15.40663,0.34151 c -0.56157,-0.80175 -0.0596,-1.99432 0.83948,-1.99432 0.48069,0 1.09825,0.67851 1.09825,1.20665 0,1.0055 -1.38953,1.57034 -1.93773,0.78767 z"
       style="fill:#000000;stroke-width:0.169333" />
  </g>
</svg>
