<?xml version="1.0" encoding="UTF-8" standalone="no"?>
<svg
   xmlns:dc="http://purl.org/dc/elements/1.1/"
   xmlns:cc="http://creativecommons.org/ns#"
   xmlns:rdf="http://www.w3.org/1999/02/22-rdf-syntax-ns#"
   xmlns:svg="http://www.w3.org/2000/svg"
   xmlns="http://www.w3.org/2000/svg"
   xmlns:sodipodi="http://sodipodi.sourceforge.net/DTD/sodipodi-0.dtd"
   xmlns:inkscape="http://www.inkscape.org/namespaces/inkscape"
   sodipodi:docname="static-question-mark-a9a9a9.svg"
   inkscape:version="0.92.4 (5da689c313, 2019-01-14)"
   id="svg8"
   version="1.1"
   viewBox="0 0 129.92926 44.587887"
   height="168.52115"
   width="491.07123">
  <defs
     id="defs2" />
  <sodipodi:namedview
     inkscape:window-maximized="1"
     inkscape:window-y="-8"
     inkscape:window-x="-8"
     inkscape:window-height="1017"
     inkscape:window-width="1920"
     units="px"
     showgrid="false"
     inkscape:document-rotation="0"
     inkscape:current-layer="g847"
     inkscape:document-units="mm"
     inkscape:cy="-15.897051"
     inkscape:cx="-12.22407"
     inkscape:zoom="1.4"
     inkscape:pageshadow="2"
     inkscape:pageopacity="0.0"
     borderopacity="1.0"
     bordercolor="#666666"
     pagecolor="#ffffff"
     id="base"
     fit-margin-top="0"
     fit-margin-left="0"
     fit-margin-right="0"
     fit-margin-bottom="0" />
  <metadata
     id="metadata5">
    <rdf:RDF>
      <cc:Work
         rdf:about="">
        <dc:format>image/svg+xml</dc:format>
        <dc:type
           rdf:resource="http://purl.org/dc/dcmitype/StillImage" />
        <dc:title></dc:title>
      </cc:Work>
    </rdf:RDF>
  </metadata>
  <g
     id="layer1"
     inkscape:groupmode="layer"
     inkscape:label="Layer 1"
     transform="translate(-0.06018388,0.5151583)">
    <g
       id="g847">
      <g
         aria-label="?"
         id="text835"
         style="font-size:39.6875px;line-height:0.5;font-family:sans-serif;-inkscape-font-specification:Tahoma;text-align:center;text-anchor:middle;fill:#a9a9a9;fill-opacity:1;stroke-width:0.26458299;opacity:0.99;stroke:#a9a9a9;stroke-opacity:1"
         transform="matrix(0.79852205,0,0,0.79852205,8.9181802,-0.43349376)">
        <path
           d="m 15.594259,9.3610077 q 0.542603,0.5813599 0.87204,1.2596133 0.329437,0.658874 0.329437,1.337127 0,0.465088 -0.174408,0.87204 -0.174408,0.387573 -0.484466,0.678253 -0.29068,0.29068 -0.697632,0.465088 -0.406952,0.15503 -0.891418,0.15503 -0.44571,0 -0.852662,-0.135651 -0.406952,-0.155029 -0.736389,-0.445709 -0.329437,-0.29068 -0.523224,-0.717011 -0.193786,-0.42633 -0.193786,-1.00769 0,-0.87204 0.484466,-1.8409731 0.503845,-0.9883118 1.4534,-1.8022156 0.968933,-0.8139038 2.402954,-1.3565063 1.434021,-0.5426026 3.294373,-0.5426026 1.840972,0 3.255615,0.5426026 1.434021,0.5426025 2.402954,1.4533996 0.988312,0.8914185 1.492157,2.0541384 0.503845,1.16272 0.503845,2.422333 0,2.480468 -1.996002,4.650878 -0.813904,0.891419 -1.840973,1.705323 -1.027069,0.813904 -1.937866,1.705322 -0.891419,0.891418 -1.511536,1.957245 -0.600738,1.046448 -0.600738,2.402954 0,0.271301 0.01938,0.639496 0.03876,0.348816 0.09689,0.736389 -0.310059,0.116272 -0.678254,0.174408 -0.348815,0.03876 -0.678253,0.03876 -0.310058,-1.220855 -0.310058,-2.267303 0,-1.007691 0.251922,-1.821594 0.251923,-0.813904 0.639496,-1.472779 0.406952,-0.678253 0.891419,-1.240234 0.503845,-0.58136 1.00769,-1.104584 0.600739,-0.658874 1.123962,-1.278992 0.523224,-0.620117 0.891419,-1.337127 0.387573,-0.717011 0.600738,-1.569672 0.232544,-0.87204 0.232544,-1.996002 0,-1.317749 -0.310058,-2.228546 Q 23.11318,9.516037 22.551199,8.9346771 21.989218,8.3533173 21.194693,8.1013947 20.419546,7.8300934 19.450613,7.8300934 q -1.16272,0 -2.189789,0.3681946 -1.027069,0.3681945 -1.666565,1.1627197 z m 3.526917,25.6185913 q -0.561981,0 -1.046448,-0.193787 -0.465088,-0.193786 -0.833282,-0.542602 -0.368195,-0.348816 -0.58136,-0.833283 -0.193787,-0.484466 -0.193787,-1.065826 0,-0.58136 0.213165,-1.065826 0.213166,-0.503846 0.561982,-0.852662 0.368194,-0.348816 0.852661,-0.542602 0.484466,-0.213165 1.046447,-0.213165 0.542603,0 1.02707,0.193786 0.484466,0.193787 0.852661,0.542603 0.368194,0.348816 0.561981,0.833282 0.213165,0.484467 0.213165,1.065827 0,0.581359 -0.213165,1.085205 -0.193787,0.484466 -0.561981,0.852661 -0.368195,0.348816 -0.852661,0.542602 -0.484467,0.193787 -1.046448,0.193787 z"
           style="font-style:normal;font-variant:normal;font-weight:normal;font-stretch:normal;font-family:'Javanese Text';-inkscape-font-specification:'Javanese Text';fill:#a9a9a9;fill-opacity:1;stroke-width:0.26458299;stroke:#a9a9a9;stroke-opacity:1"
           id="path837"
           inkscape:connector-curvature="0" />
      </g>
      <ellipse
         ry="14.946877"
         rx="14.946876"
         cy="16.040197"
         cx="24.250656"
         id="path840"
         style="opacity:0.997;fill:none;stroke:#a9a9a9;stroke-width:1.10029161;stroke-linejoin:round;stroke-miterlimit:4;stroke-dasharray:none;stroke-opacity:1" />
      <text
         id="text836"
         y="29.958158"
         x="86.894485"
         style="font-size:42.13779831px;line-height:0.5;font-family:Garamond;-inkscape-font-specification:Garamond;text-align:center;text-anchor:middle;stroke-width:0.35114801"
         xml:space="preserve"><tspan
           style="stroke-width:0.35114801;fill:#a9a9a9;fill-opacity:1"
           y="29.958158"
           x="86.894485"
           id="tspan834"
           sodipodi:role="line">Help</tspan></text>
    </g>
  </g>
</svg>
