<?xml version="1.0" encoding="UTF-8" standalone="no"?>
<svg
   xmlns:dc="http://purl.org/dc/elements/1.1/"
   xmlns:cc="http://creativecommons.org/ns#"
   xmlns:rdf="http://www.w3.org/1999/02/22-rdf-syntax-ns#"
   xmlns:svg="http://www.w3.org/2000/svg"
   xmlns="http://www.w3.org/2000/svg"
   xmlns:sodipodi="http://sodipodi.sourceforge.net/DTD/sodipodi-0.dtd"
   xmlns:inkscape="http://www.inkscape.org/namespaces/inkscape"
   inkscape:version="1.0 (4035a4fb49, 2020-05-01)"
   sodipodi:docname="Game Name.svg"
   id="svg3"
   version="1.1"
   viewBox="0 0 295.00001 55.000001"
   height="55"
   width="295">
  <metadata
     id="metadata9">
    <rdf:RDF>
      <cc:Work
         rdf:about="">
        <dc:format>image/svg+xml</dc:format>
        <dc:type
           rdf:resource="http://purl.org/dc/dcmitype/StillImage" />
        <dc:title></dc:title>
      </cc:Work>
    </rdf:RDF>
  </metadata>
  <defs
     id="defs7" />
  <sodipodi:namedview
     inkscape:current-layer="svg3"
     inkscape:window-maximized="1"
     inkscape:window-y="-9"
     inkscape:window-x="-9"
     inkscape:cy="64.673874"
     inkscape:cx="135.0291"
     inkscape:zoom="2.8996708"
     showgrid="false"
     id="namedview5"
     inkscape:window-height="1001"
     inkscape:window-width="1920"
     inkscape:pageshadow="2"
     inkscape:pageopacity="0"
     guidetolerance="10"
     gridtolerance="10"
     objecttolerance="10"
     borderopacity="1"
     bordercolor="#666666"
     pagecolor="#ffffff" />
  <path
     d="m 36.539,10.472376 0.322,4.453 q 0.176,2.021 0.176,2.754 l -0.82,0.146 a 16.6,16.6 0 0 0 -4.878,-6.68 11.406,11.406 0 0 0 -7.134,-2.2269998 20.522,20.522 0 0 0 -8.027,1.2599998 16.391,16.391 0 0 0 -7.121,6.212 18.736,18.736 0 0 0 -2.957,10.664 18.225,18.225 0 0 0 1.084,6.474 19.648,19.648 0 0 0 3.062,5.347 20.85,20.85 0 0 0 4.673,4.292 13.019,13.019 0 0 0 4.188,1.816 19.375,19.375 0 0 0 4.1,0.322 17.311,17.311 0 0 0 3.9,-0.5 8.478,8.478 0 0 0 3.223,-1.333 4.324,4.324 0 0 0 1.479,-1.89 13.788,13.788 0 0 0 0.4,-4.1 q 0,-5.068 -0.674,-5.9 -0.674,-0.832 -4.248,-1.1 l -1.172,-0.088 -0.791,0.029 q -0.176,-0.029 -0.469,-0.088 l -0.439,-0.732 a 0.665,0.665 0 0 1 0.205,-0.381 56.5,56.5 0 0 1 6.621,-0.234 q 1.143,0 3.721,0.059 l 3.018,0.117 2.725,-0.029 q 0.791,0 1.9,0.059 a 0.419,0.419 0 0 1 0.264,0.1 0.405,0.405 0 0 1 0.059,0.249 3.035,3.035 0 0 1 -0.146,0.82 9.788,9.788 0 0 1 -1.9,0.264 l -1.9,-0.029 a 1.956,1.956 0 0 0 -1.553,0.674 4.467,4.467 0 0 0 -0.293,2.2 l 0.02,3.836 a 23.321,23.321 0 0 1 -0.322,5.039 2.437,2.437 0 0 1 -0.732,1.157 8.385,8.385 0 0 1 -2.346,1.216 22.731,22.731 0 0 1 -4.63,1.377 43.515,43.515 0 0 1 -7.47,0.673 25.933,25.933 0 0 1 -9.508,-1.479 19.076,19.076 0 0 1 -6.386,-4.116 16.853,16.853 0 0 1 -3.824,-5.337 19.94,19.94 0 0 1 -1.729,-8.057 20.527,20.527 0 0 1 2.71,-10.034 19.905,19.905 0 0 1 8.745,-7.9829998 q 4.248,-2.168 11.543,-2.168 a 31.991,31.991 0 0 1 8.249,0.883 21,21 0 0 1 5.082,1.9929998 z m 31,31.582 a 1.551,1.551 0 0 1 0.176,0.557 3.777,3.777 0 0 1 -0.7,1.553 6.307,6.307 0 0 1 -2.029,2.138 3.634,3.634 0 0 1 -1.929,0.436 3.849,3.849 0 0 1 -3.168,-1.286 5.488,5.488 0 0 1 -0.908,-2.725 l -3.282,2.286 a 13.485,13.485 0 0 1 -2.637,1.259 14.126,14.126 0 0 1 -3.515,0.381 3.128,3.128 0 0 1 -2.358,-0.894 3.171,3.171 0 0 1 -0.864,-2.3 q 0,-2.021 2.481,-4.834 a 18.187,18.187 0 0 1 6.739,-4.6 q 3,-1.26 3.67,-1.611 0.059,-0.967 0.059,-2.109 0,-3.721 -1.043,-5.039 a 3.581,3.581 0 0 0 -2.984,-1.318 5.588,5.588 0 0 0 -3.79,1.582 7,7 0 0 0 -1.646,3.75 6.208,6.208 0 0 1 -0.674,1.641 4.1,4.1 0 0 1 -2.021,0.82 1.955,1.955 0 0 1 -1.172,-0.381 0.577,0.577 0 0 1 -0.293,-0.469 10.1,10.1 0 0 1 1.626,-3.442 10.759,10.759 0 0 1 4.1,-4.014 9.423,9.423 0 0 1 4.321,-1.333 11.547,11.547 0 0 1 3.75,0.454 5.065,5.065 0 0 1 2.168,1.6 5.088,5.088 0 0 1 1.143,2.49 45.789,45.789 0 0 1 0.117,4.6 l -0.088,4.658 0.029,3.4 q 0,0.674 -0.029,1.143 -0.029,0.85 -0.029,1.26 a 2.161,2.161 0 0 0 0.557,1.553 1.759,1.759 0 0 0 1.318,0.586 2.3,2.3 0 0 0 1.9,-1.113 l 0.352,-0.469 a 2.731,2.731 0 0 1 0.649,-0.21 z m -8.584,-0.85 q 0.206,-3.721 0.206,-5.244 0,-0.791 -0.088,-2.139 a 20.192,20.192 0 0 0 -4.174,2.139 12.371,12.371 0 0 0 -3.5,3.311 4.51,4.51 0 0 0 -0.942,2.548 2.554,2.554 0 0 0 0.779,1.9 2.683,2.683 0 0 0 1.955,0.762 5.152,5.152 0 0 0 2.203,-0.643 14.73,14.73 0 0 0 3.557,-2.634 z m 10.309,3.834 a 3.026,3.026 0 0 1 1.293,-0.436 5.775,5.775 0 0 0 1.812,-0.464 2.168,2.168 0 0 0 0.7,-1.26 68.265,68.265 0 0 0 0.205,-7.412 51.171,51.171 0 0 0 -0.381,-8.057 5.323,5.323 0 0 0 -1.67,-0.645 q -0.322,-0.059 -1.348,-0.322 v -0.981 a 8.817,8.817 0 0 0 2.81,-1.293 19.2,19.2 0 0 0 2.986,-3.174 h 0.176 q 0.177,0 0.559,-0.029 a 0.749,0.749 0 0 1 0.383,0.146 l -0.029,3.34 q 0,1.025 0.059,2.2 a 23.239,23.239 0 0 1 5.615,-3.984 9.254,9.254 0 0 1 3.831,-0.762 7.347,7.347 0 0 1 4.036,0.967 9.239,9.239 0 0 1 2.837,3.486 18.655,18.655 0 0 1 4.731,-3.6 9.785,9.785 0 0 1 4.292,-1.025 7.242,7.242 0 0 1 5.391,2.141 q 2.08,2.171 2.139,6.365 v 2.435 l 0.029,2.669 -0.029,6.864 a 2.534,2.534 0 0 0 0.527,1.819 q 0.234,0.088 1.787,0.528 a 4.226,4.226 0 0 1 1.143,0.411 0.505,0.505 0 0 1 0.176,0.41 2.111,2.111 0 0 1 -0.175,0.762 h -0.2 l -2.952,-0.176 q -0.526,-0.029 -1.666,-0.029 -1.4,0 -3.916,0.117 h -1.49 q -0.321,0 -1.257,0.029 a 4.3,4.3 0 0 1 -0.029,-0.469 1.239,1.239 0 0 1 0.205,-0.586 8.977,8.977 0 0 1 2.168,-0.572 q 1.377,-0.22 1.714,-0.792 0.337,-0.572 0.337,-4.562 0,-8.655 -0.206,-10.034 a 5.39,5.39 0 0 0 -1.865,-3.447 5.779,5.779 0 0 0 -3.8,-1.247 7.034,7.034 0 0 0 -3.436,0.923 12.465,12.465 0 0 0 -3.289,2.769 l -0.029,0.7 v 4.477 l -0.117,3.486 q 0,5.332 0.1,6.064 a 1.648,1.648 0 0 0 0.5,1.069 5.742,5.742 0 0 0 2.3,0.6 13.193,13.193 0 0 1 1.318,0.234 0.945,0.945 0 0 1 0.352,0.762 0.55,0.55 0 0 1 -0.264,0.527 h -0.5 l -1.47,-0.03 h -8.522 l -2.344,0.029 a 5.453,5.453 0 0 1 -0.059,-0.641 l 0.029,-0.352 a 9.079,9.079 0 0 1 2.4,-0.674 10.289,10.289 0 0 0 1.875,-0.5 0.892,0.892 0 0 0 0.264,-0.381 11.3,11.3 0 0 0 0.205,-2.344 l 0.146,-3.4 -0.059,-3.838 0.029,-2.139 q 0,-3.6 -1.461,-5.259 a 4.7,4.7 0 0 0 -3.683,-1.655 9.388,9.388 0 0 0 -4.165,1.025 9.957,9.957 0 0 0 -3.464,2.754 q -0.029,0.82 -0.029,1.494 l 0.117,9.844 q 0.029,3.223 0.366,3.677 a 2.294,2.294 0 0 0 1.509,0.63 6.65,6.65 0 0 1 2.432,0.645 0.592,0.592 0 0 1 0.264,0.527 q 0,0.234 -0.029,0.557 -3.346,-0.233 -4.491,-0.233 -1.175,0 -2.114,0.029 l -1.468,0.088 h -0.91 l -3.289,0.117 a 1.285,1.285 0 0 1 -0.059,-0.339 2.978,2.978 0 0 1 0.117,-0.573 z m 68.293,-14.469 -11.748,0.086 h -2.227 q -1.348,0 -2.754,0.122 a 5.165,5.165 0 0 0 -0.264,1.2 l 0.029,0.293 v 0.293 l -0.029,1.436 a 11.431,11.431 0 0 0 1.128,4.38 8.706,8.706 0 0 0 3.223,3.955 9.931,9.931 0 0 0 5.229,1.45 10.783,10.783 0 0 0 2.666,-0.41 13.494,13.494 0 0 0 2.813,-1.494 l 2.109,-1.729 0.176,1.172 a 3.554,3.554 0 0 1 -0.029,0.439 12.869,12.869 0 0 1 -3.34,2.93 15.911,15.911 0 0 1 -4.103,1.846 14.3,14.3 0 0 1 -3.279,0.262 10.5,10.5 0 0 1 -4.1,-0.85 9.986,9.986 0 0 1 -4.7,-4.146 13.233,13.233 0 0 1 -1.714,-6.929 14.861,14.861 0 0 1 0.483,-3.311 17.408,17.408 0 0 1 1.743,-4.307 8.438,8.438 0 0 1 2.08,-2.549 13.759,13.759 0 0 1 3.076,-1.963 11.466,11.466 0 0 1 4.424,-0.791 8.843,8.843 0 0 1 4.453,1 8.832,8.832 0 0 1 3.5,3.4 7.954,7.954 0 0 1 1.157,3.809 z m -16.35,-1.054 h 1.377 q 1.494,0 8.906,-0.469 a 3.71,3.71 0 0 0 1.436,-0.234 1.561,1.561 0 0 0 0.527,-1 4.672,4.672 0 0 0 -0.586,-2.065 4.038,4.038 0 0 0 -1.8,-1.787 6.062,6.062 0 0 0 -2.827,-0.63 6.643,6.643 0 0 0 -5.449,2.549 5.893,5.893 0 0 0 -1.584,3.636 z m 33.926,-19.307 -0.029,-1.4059998 q 4.541,0 6.65,-0.234 0.82,-0.088 1.143,-0.088 0.264,0 0.791,0.029 a 16.255,16.255 0 0 1 2.285,2.3439998 q 0.234,0.264 0.527,0.586 l 6.182,6.826 0.879,1.055 q 1.875,2.2 3.413,3.75 1.538,1.55 5.991,6.475 l 7,7.764 q 1.025,1.143 2.637,2.842 l 0.029,-0.469 q -0.174,-4.074 -0.174,-4.308 l 0.117,-1.758 -0.059,-2.754 v -1.26 q 0,-1.2 -0.205,-7.412 -0.029,-0.85 -0.234,-3.208 -0.205,-2.358 -0.205,-4.146 0,-3.223 -0.381,-3.75 a 5.339,5.339 0 0 0 -2.49,-0.791 q -0.527,-0.029 -1.641,-0.176 a 8.2,8.2 0 0 1 -1.553,-0.1459998 1.057,1.057 0 0 1 -0.469,-0.5 2.7,2.7 0 0 1 0.264,-0.879 5.449,5.449 0 0 1 1.553,-0.234 12.627,12.627 0 0 1 2.036,0.205 13.257,13.257 0 0 0 2.183,0.205 q 1.348,0 4.189,-0.176 1.611,-0.117 2.227,-0.117 h 0.5 l -0.059,0.908 a 3.806,3.806 0 0 1 -1.289,0.249 6.713,6.713 0 0 0 -1.523,0.249 3.332,3.332 0 0 0 -1.26,0.5569998 2.3,2.3 0 0 0 -0.7,1.553 l 0.322,9.258 0.234,4.248 -0.029,1.23 0.176,5.889 q 0.176,6.035 0.176,10.488 0,0.967 -0.117,4.189 l -1.366,0.117 q -1.026,-1.172 -7.063,-7.383 -1.407,-1.436 -1.9,-2.021 l -2.52,-2.9 q -1.465,-1.611 -1.9,-2.051 l -0.645,-0.645 q -3.195,-3.633 -8.294,-9.082 -1.377,-1.465 -4.044,-4.57 -1.671,-1.963 -2.11,-2.4 a 10.426,10.426 0 0 0 -1.2,-1 l -0.088,1 q 0,5.713 0.293,15.762 l 0.205,9.7 q 0.029,1.23 0.146,2.373 l 1.025,0.234 q 2.783,0.264 5.479,0.791 a 2.716,2.716 0 0 0 0.352,0.264 l -0.047,1.111 a 2.688,2.688 0 0 1 -0.762,0.146 6.554,6.554 0 0 1 -0.791,-0.059 q -2.9,-0.234 -7.061,-0.234 -2.93,0 -5.156,0.146 l -0.41,0.029 a 7.045,7.045 0 0 1 -0.762,-0.059 l -0.029,-0.879 0.762,-0.352 1.377,-0.205 a 13.755,13.755 0 0 0 2.7,-0.586 2.147,2.147 0 0 0 0.908,-0.615 40.489,40.489 0 0 0 0.322,-5.918 q 0,-1.816 -0.088,-6.65 v -3.984 l -0.059,-8.32 a 36.107,36.107 0 0 0 -0.381,-6.562 1.941,1.941 0 0 0 -0.732,-0.937 6.17,6.17 0 0 0 -2.915,-1 19.471,19.471 0 0 1 -2.333,-0.348 z m 69.287,31.846 a 1.551,1.551 0 0 1 0.176,0.557 3.777,3.777 0 0 1 -0.7,1.553 6.307,6.307 0 0 1 -2.025,2.138 3.634,3.634 0 0 1 -1.934,0.436 3.849,3.849 0 0 1 -3.164,-1.289 5.488,5.488 0 0 1 -0.908,-2.725 l -3.281,2.285 a 13.485,13.485 0 0 1 -2.637,1.263 14.126,14.126 0 0 1 -3.516,0.381 3.128,3.128 0 0 1 -2.358,-0.894 3.171,3.171 0 0 1 -0.864,-2.3 q 0,-2.021 2.481,-4.834 a 18.187,18.187 0 0 1 6.739,-4.6 q 3,-1.26 3.67,-1.611 0.059,-0.967 0.059,-2.109 0,-3.721 -1.043,-5.039 a 3.581,3.581 0 0 0 -2.983,-1.318 5.588,5.588 0 0 0 -3.791,1.582 7,7 0 0 0 -1.646,3.75 6.208,6.208 0 0 1 -0.674,1.641 4.1,4.1 0 0 1 -2.021,0.82 1.955,1.955 0 0 1 -1.172,-0.381 0.577,0.577 0 0 1 -0.293,-0.469 10.1,10.1 0 0 1 1.626,-3.442 10.759,10.759 0 0 1 4.1,-4.014 9.423,9.423 0 0 1 4.321,-1.333 11.547,11.547 0 0 1 3.75,0.454 5.065,5.065 0 0 1 2.168,1.6 5.088,5.088 0 0 1 1.143,2.49 45.789,45.789 0 0 1 0.117,4.6 l -0.088,4.658 0.029,3.4 q 0,0.674 -0.029,1.143 -0.029,0.85 -0.029,1.26 a 2.161,2.161 0 0 0 0.557,1.553 1.759,1.759 0 0 0 1.318,0.586 2.3,2.3 0 0 0 1.9,-1.113 l 0.352,-0.469 a 2.731,2.731 0 0 1 0.65,-0.21 z m -8.584,-0.85 q 0.206,-3.721 0.206,-5.244 0,-0.791 -0.088,-2.139 a 20.192,20.192 0 0 0 -4.174,2.139 12.371,12.371 0 0 0 -3.5,3.311 4.51,4.51 0 0 0 -0.941,2.549 2.554,2.554 0 0 0 0.779,1.9 2.683,2.683 0 0 0 1.955,0.762 5.152,5.152 0 0 0 2.205,-0.645 14.73,14.73 0 0 0 3.557,-2.633 z m 10.312,3.834 a 3.026,3.026 0 0 1 1.289,-0.439 5.775,5.775 0 0 0 1.82,-0.461 2.168,2.168 0 0 0 0.7,-1.26 68.265,68.265 0 0 0 0.205,-7.412 51.171,51.171 0 0 0 -0.381,-8.057 5.323,5.323 0 0 0 -1.67,-0.645 q -0.322,-0.059 -1.348,-0.322 v -0.981 a 8.817,8.817 0 0 0 2.81,-1.293 19.2,19.2 0 0 0 2.986,-3.174 h 0.176 q 0.177,0 0.559,-0.029 a 0.749,0.749 0 0 1 0.383,0.146 l -0.029,3.34 q 0,1.025 0.059,2.2 a 23.239,23.239 0 0 1 5.615,-3.984 9.254,9.254 0 0 1 3.831,-0.762 7.347,7.347 0 0 1 4.036,0.967 9.239,9.239 0 0 1 2.837,3.486 18.655,18.655 0 0 1 4.731,-3.6 9.785,9.785 0 0 1 4.292,-1.025 7.242,7.242 0 0 1 5.391,2.141 q 2.08,2.171 2.139,6.365 v 2.435 l 0.029,2.669 -0.029,6.864 a 2.534,2.534 0 0 0 0.527,1.819 q 0.234,0.088 1.787,0.528 a 4.226,4.226 0 0 1 1.143,0.411 0.505,0.505 0 0 1 0.176,0.41 2.111,2.111 0 0 1 -0.175,0.762 h -0.2 l -2.952,-0.176 q -0.526,-0.029 -1.666,-0.029 -1.4,0 -3.916,0.117 h -1.49 q -0.321,0 -1.257,0.029 a 4.3,4.3 0 0 1 -0.029,-0.469 1.239,1.239 0 0 1 0.205,-0.586 8.977,8.977 0 0 1 2.168,-0.572 q 1.377,-0.22 1.714,-0.792 0.337,-0.572 0.337,-4.562 0,-8.655 -0.206,-10.034 a 5.39,5.39 0 0 0 -1.865,-3.447 5.779,5.779 0 0 0 -3.8,-1.247 7.034,7.034 0 0 0 -3.436,0.923 12.465,12.465 0 0 0 -3.289,2.769 l -0.029,0.7 v 4.477 l -0.117,3.486 q 0,5.332 0.1,6.064 a 1.648,1.648 0 0 0 0.5,1.069 5.742,5.742 0 0 0 2.3,0.6 13.193,13.193 0 0 1 1.318,0.234 0.945,0.945 0 0 1 0.352,0.762 0.55,0.55 0 0 1 -0.264,0.527 h -0.5 l -1.465,-0.029 h -8.525 l -2.344,0.029 a 5.453,5.453 0 0 1 -0.064,-0.642 l 0.029,-0.352 a 9.079,9.079 0 0 1 2.4,-0.674 10.289,10.289 0 0 0 1.875,-0.5 0.892,0.892 0 0 0 0.264,-0.381 11.3,11.3 0 0 0 0.205,-2.344 l 0.146,-3.4 -0.059,-3.838 0.029,-2.139 q 0,-3.6 -1.461,-5.259 a 4.7,4.7 0 0 0 -3.683,-1.655 9.388,9.388 0 0 0 -4.165,1.025 9.957,9.957 0 0 0 -3.464,2.754 q -0.029,0.82 -0.029,1.494 l 0.117,9.844 q 0.029,3.223 0.366,3.677 a 2.294,2.294 0 0 0 1.509,0.63 6.65,6.65 0 0 1 2.432,0.645 0.592,0.592 0 0 1 0.264,0.527 q 0,0.234 -0.029,0.557 -3.348,-0.234 -4.493,-0.234 -1.175,0 -2.114,0.029 l -1.468,0.088 h -0.91 l -3.289,0.117 a 1.285,1.285 0 0 1 -0.059,-0.339 2.978,2.978 0 0 1 0.118,-0.572 z m 68.291,-14.473 -11.748,0.086 h -2.227 q -1.348,0 -2.754,0.122 a 5.165,5.165 0 0 0 -0.264,1.2 l 0.029,0.293 v 0.293 l -0.029,1.436 a 11.431,11.431 0 0 0 1.128,4.38 8.706,8.706 0 0 0 3.223,3.955 9.931,9.931 0 0 0 5.229,1.45 10.783,10.783 0 0 0 2.666,-0.41 13.494,13.494 0 0 0 2.813,-1.494 l 2.109,-1.729 0.176,1.172 a 3.554,3.554 0 0 1 -0.029,0.439 12.869,12.869 0 0 1 -3.34,2.93 15.911,15.911 0 0 1 -4.101,1.85 14.3,14.3 0 0 1 -3.281,0.264 10.5,10.5 0 0 1 -4.1,-0.85 9.986,9.986 0 0 1 -4.7,-4.146 13.233,13.233 0 0 1 -1.714,-6.929 14.861,14.861 0 0 1 0.483,-3.311 17.408,17.408 0 0 1 1.743,-4.307 8.438,8.438 0 0 1 2.08,-2.549 13.759,13.759 0 0 1 3.076,-1.963 11.466,11.466 0 0 1 4.424,-0.791 8.843,8.843 0 0 1 4.453,1 8.832,8.832 0 0 1 3.5,3.4 7.954,7.954 0 0 1 1.157,3.809 z m -16.348,-1.055 h 1.377 q 1.494,0 8.906,-0.469 a 3.71,3.71 0 0 0 1.436,-0.234 1.561,1.561 0 0 0 0.527,-1 4.672,4.672 0 0 0 -0.586,-2.065 4.038,4.038 0 0 0 -1.8,-1.787 6.062,6.062 0 0 0 -2.827,-0.63 6.643,6.643 0 0 0 -5.449,2.549 5.893,5.893 0 0 0 -1.583,3.641 z"
     data-name="Path 1"
     id="Path_1" />
</svg>
