<?xml version="1.0" encoding="UTF-8" standalone="no"?>
<svg
   xmlns:dc="http://purl.org/dc/elements/1.1/"
   xmlns:cc="http://creativecommons.org/ns#"
   xmlns:rdf="http://www.w3.org/1999/02/22-rdf-syntax-ns#"
   xmlns:svg="http://www.w3.org/2000/svg"
   xmlns="http://www.w3.org/2000/svg"
   xmlns:sodipodi="http://sodipodi.sourceforge.net/DTD/sodipodi-0.dtd"
   xmlns:inkscape="http://www.inkscape.org/namespaces/inkscape"
   width="230.537"
   height="54.658001"
   viewBox="0 0 230.537 54.658002"
   version="1.1"
   id="svg3"
   sodipodi:docname="Pick Type.svg"
   inkscape:version="1.0 (4035a4fb49, 2020-05-01)">
  <metadata
     id="metadata9">
    <rdf:RDF>
      <cc:Work
         rdf:about="">
        <dc:format>image/svg+xml</dc:format>
        <dc:type
           rdf:resource="http://purl.org/dc/dcmitype/StillImage" />
        <dc:title></dc:title>
      </cc:Work>
    </rdf:RDF>
  </metadata>
  <defs
     id="defs7" />
  <sodipodi:namedview
     fit-margin-bottom="0"
     fit-margin-right="0"
     fit-margin-left="0"
     fit-margin-top="0"
     inkscape:document-rotation="0"
     pagecolor="#ffffff"
     bordercolor="#666666"
     borderopacity="1"
     objecttolerance="10"
     gridtolerance="10"
     guidetolerance="10"
     inkscape:pageopacity="0"
     inkscape:pageshadow="2"
     inkscape:window-width="1920"
     inkscape:window-height="1001"
     id="namedview5"
     showgrid="false"
     inkscape:zoom="2.6199699"
     inkscape:cx="5.798662"
     inkscape:cy="70.595132"
     inkscape:window-x="-9"
     inkscape:window-y="-9"
     inkscape:window-maximized="1"
     inkscape:current-layer="svg3" />
  <path
     id="Path_2"
     data-name="Path 2"
     d="M 0.175,1.873 A 5.6,5.6 0 0 1 0.849,1.785 q 1,0 3.281,0.117 1.2,0.029 1.641,0.029 0.645,0 2.725,-0.117 l 4.98,-0.293 q 1.963,-0.176 4.57,-0.176 a 17.187,17.187 0 0 1 7.324,1.3 9.147,9.147 0 0 1 4.2,4.082 11.688,11.688 0 0 1 1.484,5.529 11.02,11.02 0 0 1 -3.223,7.929 11.5,11.5 0 0 1 -8.672,3.335 9,9 0 0 1 -2.549,-0.308 9.1,9.1 0 0 1 -2.344,-1.187 1.548,1.548 0 0 1 -0.674,-0.791 0.668,0.668 0 0 1 0.322,-0.293 2.282,2.282 0 0 1 0.85,0.176 7.672,7.672 0 0 0 2.52,0.352 8.925,8.925 0 0 0 4.38,-1.141 7.429,7.429 0 0 0 3.12,-3.247 9.8,9.8 0 0 0 1.055,-4.446 9.541,9.541 0 0 0 -1.111,-4.431 9.441,9.441 0 0 0 -2.924,-3.437 9.132,9.132 0 0 0 -3.143,-1.228 15.5,15.5 0 0 0 -3.289,-0.5 q -3.625,0 -4.3,0.527 l -0.029,0.41 0.088,3.308 -0.029,0.585 q -0.059,0.791 -0.059,2.43 0,5.972 0.176,7.435 v 1.639 l 0.382,13.383 q 0,0.293 -0.073,1.083 -0.073,0.79 -0.074,1.377 a 7.413,7.413 0 0 0 0.232,2.14 q 0.7,0.2 4.1,0.966 1.582,0.381 1.729,0.439 a 0.842,0.842 0 0 1 0.41,0.381 1,1 0 0 1 -0.308,0.571 1.44,1.44 0 0 1 -0.747,0.132 q -0.352,0 -1.641,-0.146 -2.515,-0.267 -3.95,-0.267 L 6.122,39.637 3.046,39.549 q -0.293,0 -1.7,0.059 L 1.318,38.846 5.126,38.114 a 2.441,2.441 0 0 0 1.143,-0.527 3.022,3.022 0 0 0 0.293,-1.61 q 0,-0.263 0.029,-1.142 Q 6.62,34.22 6.62,33.135 6.62,29.681 6.327,18.411 6.21,13.142 6.21,7.697 v -0.5 Q 6.21,5.089 5.565,4.533 4.486,3.572 0.146,2.956 A 1.352,1.352 0 0 1 0,2.429 1.209,1.209 0 0 1 0.175,1.873 Z M 36.796,3.25 a 2.217,2.217 0 0 1 0.747,-1.67 2.535,2.535 0 0 1 1.8,-0.7 2.66,2.66 0 0 1 1.9,0.791 2.344,2.344 0 0 1 0.82,1.7 2.39,2.39 0 0 1 -0.82,1.714 2.636,2.636 0 0 1 -1.9,0.806 A 2.467,2.467 0 0 1 37.527,5.159 2.576,2.576 0 0 1 36.796,3.25 Z m -2.461,15.206 0.029,-0.864 q 1.9,-0.558 2.051,-0.647 a 9.6,9.6 0 0 0 2.212,-1.44 9.978,9.978 0 0 0 1.948,-2.176 3.587,3.587 0 0 1 0.557,-0.059 l 0.352,0.029 q 0.117,1.406 0.117,2.051 0,0.146 -0.059,1.318 v 1.553 l 0.029,8.438 -0.085,8.935 a 2.19,2.19 0 0 0 0.352,1.509 5.718,5.718 0 0 0 2.256,0.952 17.811,17.811 0 0 1 1.758,0.557 0.922,0.922 0 0 1 0.088,0.352 0.961,0.961 0 0 1 -0.154,0.438 q -1.138,-0.029 -2.925,-0.146 -2.432,-0.205 -3.223,-0.205 -0.381,0 -4.687,0.146 a 15.715,15.715 0 0 0 -1.7,0.146 2.031,2.031 0 0 1 -0.465,-0.087 0.645,0.645 0 0 1 -0.146,-0.352 q 0,-0.41 0.557,-0.645 0.117,-0.059 2.988,-0.673 a 1.906,1.906 0 0 0 1.23,-0.585 3.107,3.107 0 0 0 0.5,-1.96 q 0.059,-2.252 0.059,-12.345 a 10.34,10.34 0 0 0 -0.176,-2.516 2.223,2.223 0 0 0 -0.776,-0.8 8.514,8.514 0 0 0 -2.687,-0.924 z m 35.451,15.439 0.029,1.9 a 14.106,14.106 0 0 1 -4.512,3.4 13.09,13.09 0 0 1 -5.244,0.967 10.624,10.624 0 0 1 -5.919,-1.712 11.061,11.061 0 0 1 -4.054,-4.848 14.832,14.832 0 0 1 -1.421,-6.152 12.237,12.237 0 0 1 1.714,-6.255 11.032,11.032 0 0 1 4.541,-4.395 15.488,15.488 0 0 1 7.1,-1.45 11.4,11.4 0 0 1 6.24,1.406 2.466,2.466 0 0 1 1.2,2.109 2.1,2.1 0 0 1 -0.615,1.553 2.141,2.141 0 0 1 -1.582,0.615 4.831,4.831 0 0 1 -3.223,-1.816 7.435,7.435 0 0 0 -1.963,-1.538 4.452,4.452 0 0 0 -1.961,-0.423 5.353,5.353 0 0 0 -4.336,2.139 11.969,11.969 0 0 0 -2.4,7.646 11.073,11.073 0 0 0 2.461,7.559 7.432,7.432 0 0 0 5.745,2.81 10.368,10.368 0 0 0 4.058,-0.747 16.951,16.951 0 0 0 4.142,-2.768 z m 3.163,5.332 -0.063,-0.85 a 1.156,1.156 0 0 1 0.439,-0.22 q 0.205,-0.044 1.479,-0.132 1.274,-0.088 1.6,-0.571 0.322,-0.483 0.322,-4 l 0.06,-11.557 -0.059,-2.049 q 0,-0.263 0.059,-1.961 0.059,-0.791 0.059,-1.9 L 76.728,10.894 76.757,6.445 A 3.132,3.132 0 0 0 76.303,4.381 Q 75.849,3.927 73.095,3.547 V 3.195 q 0,-0.176 0.029,-0.5 A 17.192,17.192 0 0 0 76.083,1.816 Q 76.757,1.523 79.511,0 h 0.908 Q 80.39,0.674 80.39,0.82 v 2.549 l -0.029,1.26 0.088,2.314 -0.029,3.486 0.029,5.8 -0.088,7.207 v 2.227 q 0,0.41 0.029,1.143 l 0.322,0.029 a 3.477,3.477 0 0 0 2.021,-0.732 55.84,55.84 0 0 0 5.771,-4.468 q 1.172,-1.187 1.172,-1.714 a 1.5,1.5 0 0 0 -0.381,-0.82 6.273,6.273 0 0 0 -1.963,-0.645 q -0.322,-0.059 -0.7,-0.146 a 8.828,8.828 0 0 0 -0.879,-0.205 l -0.059,-0.293 a 1.793,1.793 0 0 1 0.146,-0.586 q 4.629,-0.176 8.057,-0.176 1.934,0 4.131,0.088 v 0.381 a 1.352,1.352 0 0 1 -0.146,0.527 q -0.439,0.088 -1.377,0.264 a 8.62,8.62 0 0 0 -2.754,0.816 23.407,23.407 0 0 0 -4.658,3.367 q -1.436,1.292 -2.49,2.172 l -1.055,0.91 a 3.079,3.079 0 0 0 0.381,0.5 q 0.117,0.117 0.469,0.527 0.352,0.41 1.26,1.377 3.164,3.34 4.688,5.156 0.5,0.586 1.113,1.289 2.285,2.549 2.666,2.842 a 6.875,6.875 0 0 0 2.432,0.82 q 0.762,0.146 1.318,0.264 a 1.884,1.884 0 0 1 0.117,0.557 L 99.963,39.2 q -2.08,-0.176 -2.988,-0.176 H 96.448 L 88.3,39.256 a 6.238,6.238 0 0 1 -0.645,0.059 1.8,1.8 0 0 1 -0.615,-0.117 1.194,1.194 0 0 1 -0.088,-0.41 v -0.206 a 0.824,0.824 0 0 1 0.322,-0.326 26.84,26.84 0 0 0 3.358,-0.381 0.95,0.95 0 0 0 0.5,-0.322 3.4,3.4 0 0 0 -0.848,-1.611 q -0.848,-1.113 -4.24,-4.893 a 21.2,21.2 0 0 0 -2.798,-2.793 3.268,3.268 0 0 0 -1.743,-0.4 h -1.117 q -0.117,1.051 -0.117,4.82 0,3.506 0.586,4.5 a 1.935,1.935 0 0 0 1.523,0.7 3.344,3.344 0 0 1 1.553,0.439 1.162,1.162 0 0 1 0.293,0.82 q -1.758,-0.029 -2.959,-0.029 -1.934,0 -4.219,0.088 -1.373,0.062 -2.16,0.062 -0.59,0 -1.937,-0.029 z m 42.6,-33.076 1.2,-4.424 a 2.544,2.544 0 0 1 0.322,-1.128 0.6,0.6 0 0 1 0.469,-0.249 q 0.527,0 1.2,1.26 a 4.048,4.048 0 0 0 0.82,1.157 1.987,1.987 0 0 0 0.938,0.337 l 0.293,-0.029 1.26,0.117 6.914,0.088 8.173,-0.024 h 2.4 l 4.541,-0.086 a 5.857,5.857 0 0 1 0.732,0.057 q 1.992,0.174 2.461,0.174 a 0.907,0.907 0 0 0 0.7,-0.288 q 0.088,-0.114 0.967,-1.934 0.381,-0.825 0.938,-0.825 a 1.941,1.941 0 0 1 0.586,0.116 4.328,4.328 0 0 1 0.146,1.046 l -0.023,1.16 0.029,2.471 q 0,0.9 -0.146,5.815 a 1.405,1.405 0 0 1 -0.117,0.581 1.093,1.093 0 0 1 -0.557,0.2 0.517,0.517 0 0 1 -0.41,-0.218 4.582,4.582 0 0 1 -0.439,-1.35 9.817,9.817 0 0 0 -1.465,-3.746 3.26,3.26 0 0 0 -1.685,-1.046 25.3,25.3 0 0 0 -5.259,-0.32 h -4.951 q -0.059,1.173 -0.059,2.141 l 0.234,18.209 q 0,1.085 -0.117,4.1 l 0.029,3.9 -0.029,2.17 a 2.376,2.376 0 0 0 0.352,1.466 4,4 0 0 0 1.9,0.85 q 2.7,0.675 3.6,0.821 a 2.67,2.67 0 0 1 0.908,0.234 v 0.888 l -4.16,-0.1 q -3.428,-0.026 -5.156,-0.13 l -4.277,0.205 -3.125,0.171 a 12.217,12.217 0 0 1 -1.611,-0.059 l -0.414,-0.173 a 1.413,1.413 0 0 1 0.264,-0.864 2.338,2.338 0 0 1 1.084,-0.308 24.5,24.5 0 0 0 2.9,-0.63 5.99,5.99 0 0 0 2.2,-0.923 1.543,1.543 0 0 0 0.41,-0.879 30.9,30.9 0 0 0 0.264,-5.068 v -4.98 l -0.117,-10.869 -0.117,-2.344 -0.029,-7.822 h -4.717 q -4.219,0 -5.127,0.511 -1.436,0.8 -4.277,4.66 -0.937,1.449 -1.641,1.449 l -0.264,-0.059 a 0.594,0.594 0 0 1 -0.117,-0.322 13.548,13.548 0 0 1 0.469,-2.109 q 0.583,-2.257 0.7,-3.048 z m 36.182,10.02 q 0.645,-0.059 1.084,-0.059 h 1.406 l 1.9,-0.059 2.49,0.088 2.021,-0.059 a 18.574,18.574 0 0 1 2.9,0.205 1.351,1.351 0 0 1 0.117,0.469 l -0.029,0.234 a 5.935,5.935 0 0 1 -1.9,0.41 6.042,6.042 0 0 0 -2.607,0.645 l -0.059,0.322 a 2.662,2.662 0 0 0 0.235,0.88 q 0.147,0.352 0.383,1.057 0.647,2.172 2.795,8.394 1.559,4.49 2.883,7.719 0.807,-1.771 1.845,-4.487 l 2.46,-6.955 a 27.9,27.9 0 0 0 1.294,-4.557 8.02,8.02 0 0 0 0.176,-1.436 1.148,1.148 0 0 0 -0.381,-0.82 3.3,3.3 0 0 0 -1.523,-0.645 14.863,14.863 0 0 1 -2.256,-0.659 0.765,0.765 0 0 1 -0.205,-0.571 1.405,1.405 0 0 1 0.41,-0.234 h 1.816 l 1.963,0.029 2.93,-0.029 1.875,0.029 0.469,-0.029 a 6.191,6.191 0 0 1 0.674,0.059 0.49,0.49 0 0 1 0.293,0.469 0.694,0.694 0 0 1 -0.264,0.527 l -0.586,0.088 a 5.91,5.91 0 0 0 -2.607,0.879 2.8,2.8 0 0 0 -0.85,1.465 10.658,10.658 0 0 1 -0.381,1.055 q -0.146,0.351 -0.424,1.171 -0.278,0.82 -0.717,1.932 l -0.351,0.819 -0.029,0.146 -4.978,13.114 -3.629,9.865 q -0.352,0.735 -0.821,1.822 a 19.694,19.694 0 0 1 -1.32,2.293 7.891,7.891 0 0 1 -1.526,1.528 l -1.5,0.647 a 3.622,3.622 0 0 1 -0.939,0.118 2.764,2.764 0 0 1 -1.936,-0.576 2.057,2.057 0 0 1 -0.616,-1.58 2.22,2.22 0 0 1 0.91,-1.712 3.659,3.659 0 0 0 0.586,-0.234 l 0.382,-0.088 a 26.693,26.693 0 0 0 3.256,0.469 2.393,2.393 0 0 0 0.91,-0.759 24.636,24.636 0 0 0 2.471,-4.754 12.386,12.386 0 0 0 1.033,-3.539 8.541,8.541 0 0 0 -0.776,-2.9 l -3.257,-8.613 q -0.675,-1.67 -4.02,-10.9 a 2.1,2.1 0 0 0 -0.527,-0.879 l -1.989,-0.729 -0.615,-0.117 q -0.5,-0.205 -0.5,-0.586 z m 25.342,38.407 q -0.029,-0.331 -0.029,-0.6 a 2.737,2.737 0 0 1 0.059,-0.511 l 2.951,-0.585 a 3.733,3.733 0 0 0 1.15,-0.849 3.918,3.918 0 0 0 0.146,-1.054 q 0,-4.508 -0.234,-17.183 l -0.088,-10.714 a 12.374,12.374 0 0 0 -0.322,-3.22 1.248,1.248 0 0 0 -0.439,-0.556 7.428,7.428 0 0 0 -2.93,-0.937 l 0.176,-0.894 a 27.1,27.1 0 0 0 4.233,-2.1 8.715,8.715 0 0 0 2.036,-2.1 l 0.352,-0.088 a 1.552,1.552 0 0 1 0.586,0.176 q -0.029,1.846 -0.029,2.432 l 0.029,3.223 a 16.2,16.2 0 0 1 4.512,-2.446 14.856,14.856 0 0 1 4.863,-0.806 10.236,10.236 0 0 1 7.617,3.179 11.225,11.225 0 0 1 3.105,8.188 12.9,12.9 0 0 1 -1.746,6.68 10.964,10.964 0 0 1 -4.812,4.424 14.206,14.206 0 0 1 -6.179,1.458 15.848,15.848 0 0 1 -6.044,-1.439 q -0.557,-0.234 -1,-0.41 -0.059,2.348 -0.059,4.168 0,9.07 0.5,10.156 0.265,0.587 1.649,0.7 a 7.508,7.508 0 0 1 3.121,0.674 1.462,1.462 0 0 1 0.589,1.055 l -2.907,0.059 -2.642,-0.059 -4.4,0.029 z m 7.676,-33.544 a 5.409,5.409 0 0 0 -0.059,0.762 q 0,10.459 0.205,11.719 a 5.01,5.01 0 0 0 1.641,3.252 8.66,8.66 0 0 0 5.45,1.489 8.38,8.38 0 0 0 6.182,-2.534 8.926,8.926 0 0 0 2.52,-6.577 10.809,10.809 0 0 0 -2.666,-7.705 9.19,9.19 0 0 0 -7.031,-2.842 9.344,9.344 0 0 0 -3.4,0.6 8.581,8.581 0 0 0 -2.846,1.835 z m 45.437,2.753 -11.748,0.086 h -2.227 q -1.348,0 -2.754,0.122 a 5.165,5.165 0 0 0 -0.264,1.2 l 0.029,0.293 v 0.293 l -0.029,1.436 a 11.431,11.431 0 0 0 1.128,4.38 8.706,8.706 0 0 0 3.223,3.955 9.931,9.931 0 0 0 5.229,1.45 10.783,10.783 0 0 0 2.666,-0.41 13.494,13.494 0 0 0 2.813,-1.494 l 2.109,-1.729 0.176,1.172 a 3.554,3.554 0 0 1 -0.029,0.439 12.869,12.869 0 0 1 -3.34,2.93 15.911,15.911 0 0 1 -4.102,1.846 14.3,14.3 0 0 1 -3.28,0.262 10.5,10.5 0 0 1 -4.1,-0.85 9.986,9.986 0 0 1 -4.7,-4.146 13.233,13.233 0 0 1 -1.714,-6.929 14.861,14.861 0 0 1 0.483,-3.311 17.408,17.408 0 0 1 1.743,-4.307 8.438,8.438 0 0 1 2.08,-2.549 13.759,13.759 0 0 1 3.076,-1.963 11.466,11.466 0 0 1 4.424,-0.791 8.843,8.843 0 0 1 4.453,1 8.832,8.832 0 0 1 3.5,3.4 7.954,7.954 0 0 1 1.157,3.809 z m -16.348,-1.055 h 1.377 q 1.494,0 8.906,-0.469 a 3.71,3.71 0 0 0 1.436,-0.234 1.561,1.561 0 0 0 0.527,-1 4.672,4.672 0 0 0 -0.586,-2.065 4.038,4.038 0 0 0 -1.8,-1.787 6.062,6.062 0 0 0 -2.827,-0.63 6.643,6.643 0 0 0 -5.449,2.549 5.893,5.893 0 0 0 -1.585,3.637 z" />
</svg>
