<?xml version="1.0" encoding="UTF-8" standalone="no"?>
<svg
   xmlns:dc="http://purl.org/dc/elements/1.1/"
   xmlns:cc="http://creativecommons.org/ns#"
   xmlns:rdf="http://www.w3.org/1999/02/22-rdf-syntax-ns#"
   xmlns:svg="http://www.w3.org/2000/svg"
   xmlns="http://www.w3.org/2000/svg"
   xmlns:sodipodi="http://sodipodi.sourceforge.net/DTD/sodipodi-0.dtd"
   xmlns:inkscape="http://www.inkscape.org/namespaces/inkscape"
   inkscape:version="1.0 (4035a4fb49, 2020-05-01)"
   sodipodi:docname="BQ.svg"
   id="svg30"
   height="100"
   width="100"
   version="1.1">
  <metadata
     id="metadata36">
    <rdf:RDF>
      <cc:Work
         rdf:about="">
        <dc:format>image/svg+xml</dc:format>
        <dc:type
           rdf:resource="http://purl.org/dc/dcmitype/StillImage" />
        <dc:title />
      </cc:Work>
    </rdf:RDF>
  </metadata>
  <defs
     id="defs34" />
  <sodipodi:namedview
     inkscape:current-layer="svg30"
     inkscape:window-maximized="1"
     inkscape:window-y="-9"
     inkscape:window-x="78"
     inkscape:cy="44.808609"
     inkscape:cx="-5.285349"
     inkscape:zoom="4.3791165"
     showgrid="false"
     id="namedview32"
     inkscape:window-height="1051"
     inkscape:window-width="1833"
     inkscape:pageshadow="2"
     inkscape:pageopacity="0"
     guidetolerance="10"
     gridtolerance="10"
     objecttolerance="10"
     borderopacity="1"
     bordercolor="#666666"
     pagecolor="#ffffff"
     inkscape:document-rotation="0" />
  <g
     id="g855">
    <g
       id="g12"
       style="fill:#00001e;fill-opacity:1;fill-rule:evenodd;stroke:#000000;stroke-width:1.5;stroke-linecap:round;stroke-linejoin:round;stroke-miterlimit:4;stroke-dasharray:none;stroke-opacity:1"
       transform="matrix(2.2257341,0,0,2.2257341,0.0206879,-0.98023545)">
      <circle
         style="fill:#00001e;fill-opacity:1;stroke:#000000;stroke-opacity:1"
         id="circle2"
         r="2.75"
         cy="12"
         cx="6" />
      <circle
         style="fill:#00001e;fill-opacity:1;stroke:#000000;stroke-opacity:1"
         id="circle4"
         r="2.75"
         cy="9"
         cx="14" />
      <circle
         style="fill:#00001e;fill-opacity:1;stroke:#000000;stroke-opacity:1"
         id="circle6"
         r="2.75"
         cy="8"
         cx="22.5" />
      <circle
         style="fill:#00001e;fill-opacity:1;stroke:#000000;stroke-opacity:1"
         id="circle8"
         r="2.75"
         cy="9"
         cx="31" />
      <circle
         style="fill:#00001e;fill-opacity:1;stroke:#000000;stroke-opacity:1"
         id="circle10"
         r="2.75"
         cy="12"
         cx="39" />
    </g>
    <path
       id="path14"
       style="fill-opacity:1;fill-rule:evenodd;stroke:#000000;stroke-width:3.3386;stroke-linecap:butt;stroke-linejoin:round;stroke-miterlimit:4;stroke-dasharray:none;stroke-opacity:1;fill:#00001e"
       d="m 20.052295,56.888851 c 18.91874,-3.338601 46.740416,-3.338601 60.09482,0 L 85.711451,29.067175 69.018445,54.663117 68.350725,23.280266 56.776907,53.55025 50.099705,21.277106 43.422503,53.55025 31.848686,23.280266 31.180965,54.663117 14.48796,29.067175 Z" />
    <path
       id="path16"
       style="fill-opacity:1;fill-rule:evenodd;stroke:#000000;stroke-width:3.3386;stroke-linecap:butt;stroke-linejoin:round;stroke-miterlimit:4;stroke-dasharray:none;stroke-opacity:1;fill:#00001e"
       d="m 20.052295,56.888851 c 0,4.451468 3.338601,4.451468 5.564335,8.902937 2.225734,3.338601 2.225734,2.225734 1.112867,7.790069 -3.338601,2.225734 -3.338601,5.564335 -3.338601,5.564335 -3.338601,3.338601 1.112867,5.564335 1.112867,5.564335 14.467272,2.225734 36.724613,2.225734 51.191884,0 0,0 3.338601,-2.225734 0,-5.564335 0,0 1.112867,-3.338601 -2.225734,-5.564335 -1.112867,-5.564335 -1.112867,-4.451468 1.112867,-7.790069 2.225734,-4.451469 5.564335,-4.451469 5.564335,-8.902937 -18.918739,-3.338601 -41.17608,-3.338601 -60.09482,0 z" />
    <path
       id="path18"
       style="fill:none;fill-opacity:1;fill-rule:evenodd;stroke:#000000;stroke-width:3.3386;stroke-linecap:butt;stroke-linejoin:round;stroke-miterlimit:4;stroke-dasharray:none;stroke-opacity:1"
       d="m 24.503763,84.710527 a 77.900693,77.900693 0 0 0 51.191884,0" />
    <path
       id="path20"
       style="fill:none;fill-opacity:1;fill-rule:evenodd;stroke:#0081cb;stroke-width:3.3386;stroke-linecap:round;stroke-linejoin:round;stroke-miterlimit:4;stroke-dasharray:none;stroke-opacity:1"
       d="m 24.503763,63.566053 a 77.900693,77.900693 0 0 1 51.191884,0" />
    <path
       id="path22"
       style="fill:none;fill-opacity:1;fill-rule:evenodd;stroke:#0081cb;stroke-width:3.3386;stroke-linecap:round;stroke-linejoin:round;stroke-miterlimit:4;stroke-dasharray:none;stroke-opacity:1"
       d="M 27.842364,69.130389 H 72.357046" />
    <path
       id="path24"
       style="fill:none;fill-opacity:1;fill-rule:evenodd;stroke:#0081cb;stroke-width:3.3386;stroke-linecap:round;stroke-linejoin:round;stroke-miterlimit:4;stroke-dasharray:none;stroke-opacity:1"
       d="m 25.61663,75.807591 a 77.900693,77.900693 0 0 0 48.96615,0" />
    <path
       id="path26"
       style="fill:none;fill-opacity:1;fill-rule:evenodd;stroke:#0081cb;stroke-width:3.3386;stroke-linecap:round;stroke-linejoin:round;stroke-miterlimit:4;stroke-dasharray:none;stroke-opacity:1"
       d="m 23.390896,82.484793 a 77.900693,77.900693 0 0 0 53.417618,0" />
  </g>
</svg>
