<?xml version="1.0" encoding="UTF-8" standalone="no"?>
<svg
   xmlns:dc="http://purl.org/dc/elements/1.1/"
   xmlns:cc="http://creativecommons.org/ns#"
   xmlns:rdf="http://www.w3.org/1999/02/22-rdf-syntax-ns#"
   xmlns:svg="http://www.w3.org/2000/svg"
   xmlns="http://www.w3.org/2000/svg"
   xmlns:sodipodi="http://sodipodi.sourceforge.net/DTD/sodipodi-0.dtd"
   xmlns:inkscape="http://www.inkscape.org/namespaces/inkscape"
   inkscape:version="1.0 (4035a4fb49, 2020-05-01)"
   sodipodi:docname="WB.svg"
   id="svg14"
   height="100"
   width="100"
   version="1.1">
  <metadata
     id="metadata20">
    <rdf:RDF>
      <cc:Work
         rdf:about="">
        <dc:format>image/svg+xml</dc:format>
        <dc:type
           rdf:resource="http://purl.org/dc/dcmitype/StillImage" />
        <dc:title />
      </cc:Work>
    </rdf:RDF>
  </metadata>
  <defs
     id="defs18" />
  <sodipodi:namedview
     inkscape:current-layer="g873"
     inkscape:window-maximized="1"
     inkscape:window-y="-9"
     inkscape:window-x="78"
     inkscape:cy="51.558642"
     inkscape:cx="42.485057"
     inkscape:zoom="12.597223"
     showgrid="false"
     id="namedview16"
     inkscape:window-height="1051"
     inkscape:window-width="1833"
     inkscape:pageshadow="2"
     inkscape:pageopacity="0"
     guidetolerance="10"
     gridtolerance="10"
     objecttolerance="10"
     borderopacity="1"
     bordercolor="#666666"
     pagecolor="#ffffff"
     inkscape:document-rotation="0" />
  <g
     id="g841">
    <g
       id="g845">
      <g
         id="g873">
        <g
           transform="matrix(2.4637708,0,0,2.4385583,-3.8808813,-3.6142928)"
           id="g8"
           style="fill:#1e0000;fill-opacity:1;fill-rule:evenodd;stroke:#000000;stroke-width:1.5;stroke-linecap:butt;stroke-linejoin:round;stroke-miterlimit:4;stroke-dasharray:none;stroke-opacity:1">
          <path
             style="fill:#1e0000;fill-opacity:1"
             id="path2"
             d="m 9,36 c 3.39,-0.97 10.11,0.43 13.5,-2 3.39,2.43 10.11,1.03 13.5,2 0,0 1.65,0.54 3,2 -0.68,0.97 -1.65,0.99 -3,0.5 -3.39,-0.97 -10.11,0.46 -13.5,-1 C 19.11,38.96 12.39,37.53 9,38.5 7.646,38.99 6.677,38.97 6,38 7.354,36.06 9,36 9,36 Z" />
          <path
             style="fill:#1e0000;fill-opacity:1"
             id="path4"
             d="m 15,32 c 2.5,2.5 12.5,2.5 15,0 0.5,-1.5 0,-2 0,-2 0,-2.5 -2.5,-4 -2.5,-4 5.5,-1.5 6,-11.5 -5,-15.5 -11,4 -10.5,14 -5,15.5 0,0 -2.5,1.5 -2.5,4 0,0 -0.5,0.5 0,2 z" />
          <path
             style="fill:#1e0000;fill-opacity:1"
             id="path6"
             d="m 25,8 a 2.5,2.5 0 1 1 -5,0 2.5,2.5 0 1 1 5,0 z" />
        </g>
        <path
           id="path10"
           style="fill:#3d3d3d;fill-opacity:1;fill-rule:evenodd;stroke:#cb001e;stroke-width:3.677;stroke-linecap:round;stroke-linejoin:miter;stroke-miterlimit:4;stroke-dasharray:none;stroke-opacity:1"
           d="M 39.235108,59.788223 H 63.872816 M 33.075681,69.542456 H 70.032243 M 51.553962,34.183361 v 12.192791 m -6.159427,-6.096395 h 12.318854" />
        <path
           d="m 33.075679,74.419573 c 6.15943,6.096396 30.797137,6.096396 36.956564,0 1.231885,-3.657837 0,-4.877116 0,-4.877116 0,-6.096396 -6.159427,-9.754233 -6.159427,-9.754233 C 77.423555,56.130386 78.655441,31.744803 51.553962,21.990569 24.452479,31.744803 25.684369,56.130386 39.235109,59.788224 c 0,0 -6.15943,3.657837 -6.15943,9.754233 0,0 -1.23188,1.219279 0,4.877116 z"
           id="path4-8-0"
           style="fill:none;fill-opacity:1;fill-rule:evenodd;stroke:#000000;stroke-width:3.6767;stroke-linecap:butt;stroke-linejoin:round;stroke-miterlimit:4;stroke-dasharray:none;stroke-opacity:1" />
      </g>
    </g>
  </g>
</svg>
