<?xml version="1.0" encoding="UTF-8" standalone="no"?>
<svg
   xmlns:dc="http://purl.org/dc/elements/1.1/"
   xmlns:cc="http://creativecommons.org/ns#"
   xmlns:rdf="http://www.w3.org/1999/02/22-rdf-syntax-ns#"
   xmlns:svg="http://www.w3.org/2000/svg"
   xmlns="http://www.w3.org/2000/svg"
   xmlns:sodipodi="http://sodipodi.sourceforge.net/DTD/sodipodi-0.dtd"
   xmlns:inkscape="http://www.inkscape.org/namespaces/inkscape"
   version="1.1"
   width="100"
   height="100"
   id="svg30"
   sodipodi:docname="WQ.svg"
   inkscape:version="1.0 (4035a4fb49, 2020-05-01)">
  <metadata
     id="metadata36">
    <rdf:RDF>
      <cc:Work
         rdf:about="">
        <dc:format>image/svg+xml</dc:format>
        <dc:type
           rdf:resource="http://purl.org/dc/dcmitype/StillImage" />
        <dc:title />
      </cc:Work>
    </rdf:RDF>
  </metadata>
  <defs
     id="defs34" />
  <sodipodi:namedview
     inkscape:document-rotation="0"
     pagecolor="#ffffff"
     bordercolor="#666666"
     borderopacity="1"
     objecttolerance="10"
     gridtolerance="10"
     guidetolerance="10"
     inkscape:pageopacity="0"
     inkscape:pageshadow="2"
     inkscape:window-width="1833"
     inkscape:window-height="1051"
     id="namedview32"
     showgrid="false"
     inkscape:zoom="3.096503"
     inkscape:cx="22.430512"
     inkscape:cy="60.008145"
     inkscape:window-x="78"
     inkscape:window-y="-9"
     inkscape:window-maximized="1"
     inkscape:current-layer="g1305" />
  <g
     id="g855"
     style="fill:#3d3d3d;fill-opacity:1">
    <g
       id="g942">
      <g
         id="g888">
        <g
           id="g1305">
          <g
             id="g859">
            <circle
               style="fill:#1e0000;fill-opacity:1;fill-rule:evenodd;stroke:#000000;stroke-width:3.3386;stroke-linecap:round;stroke-linejoin:round;stroke-miterlimit:4;stroke-dasharray:none;stroke-opacity:1"
               id="circle2"
               r="6.1207685"
               cy="24.0159"
               cx="13.318004" />
            <circle
               style="fill:#1e0000;fill-opacity:1;fill-rule:evenodd;stroke:#000000;stroke-width:3.3386;stroke-linecap:round;stroke-linejoin:round;stroke-miterlimit:4;stroke-dasharray:none;stroke-opacity:1"
               id="circle4"
               r="6.1207685"
               cy="17.338697"
               cx="31.123877" />
            <circle
               style="fill:#1e0000;fill-opacity:1;fill-rule:evenodd;stroke:#000000;stroke-width:3.3386;stroke-linecap:round;stroke-linejoin:round;stroke-miterlimit:4;stroke-dasharray:none;stroke-opacity:1"
               id="circle6"
               r="6.1207685"
               cy="15.112963"
               cx="50.042618" />
            <circle
               style="fill:#000000;fill-opacity:1;fill-rule:evenodd;stroke:#000000;stroke-width:3.3386;stroke-linecap:round;stroke-linejoin:round;stroke-miterlimit:4;stroke-dasharray:none;stroke-opacity:1"
               id="circle8"
               r="6.1207685"
               cy="17.338697"
               cx="68.961357" />
            <circle
               style="fill:#1e0000;fill-opacity:1;fill-rule:evenodd;stroke:#000000;stroke-width:3.3386;stroke-linecap:round;stroke-linejoin:round;stroke-miterlimit:4;stroke-dasharray:none;stroke-opacity:1"
               id="circle10"
               r="6.1207685"
               cy="24.0159"
               cx="86.767227" />
            <path
               d="m 20.052295,56.888851 c 18.91874,-3.338601 46.740416,-3.338601 60.09482,0 L 85.711451,29.067175 69.018445,54.663117 68.350725,23.280266 56.776907,53.55025 50.099705,21.277106 43.422503,53.55025 31.848686,23.280266 31.180965,54.663117 14.48796,29.067175 Z"
               style="fill:#1e0000;fill-opacity:1;fill-rule:evenodd;stroke:#000000;stroke-width:3.3386;stroke-linecap:butt;stroke-linejoin:round;stroke-miterlimit:4;stroke-dasharray:none;stroke-opacity:1"
               id="path14" />
            <path
               d="m 24.503763,84.710527 a 77.900693,77.900693 0 0 0 51.191884,0"
               style="fill:#3d3d3d;fill-opacity:1;fill-rule:evenodd;stroke:#000000;stroke-width:3.3386;stroke-linecap:butt;stroke-linejoin:round;stroke-miterlimit:4;stroke-dasharray:none;stroke-opacity:1"
               id="path18" />
            <path
               d="m 20.052291,56.888851 c 0,4.451468 3.33861,4.451468 5.56434,8.902937 2.22573,3.338601 2.22573,2.225734 1.11287,7.790069 -3.3386,2.225734 -3.3386,5.564335 -3.3386,5.564335 -3.33861,3.338601 1.11286,5.564335 1.11286,5.564335 14.46727,2.225734 36.724615,2.225734 51.191886,0 0,0 3.338601,-2.225734 0,-5.564335 0,0 1.112867,-3.338601 -2.225734,-5.564335 -1.112867,-5.564335 -1.112867,-4.451468 1.112867,-7.790069 2.225734,-4.451469 5.564335,-4.451469 5.564335,-8.902937 -18.918739,-3.338601 -41.176084,-3.338601 -60.094824,0 z"
               style="fill:#1e0000;fill-opacity:1;fill-rule:evenodd;stroke:#000000;stroke-width:3.3386;stroke-linecap:butt;stroke-linejoin:round;stroke-miterlimit:4;stroke-dasharray:none;stroke-opacity:1"
               id="path16" />
            <path
               d="m 24.503763,63.566053 a 77.900693,77.900693 0 0 1 51.191884,0"
               style="fill:#1e0000;fill-opacity:1;fill-rule:evenodd;stroke:#cb001e;stroke-width:3.3386;stroke-linecap:round;stroke-linejoin:round;stroke-miterlimit:4;stroke-dasharray:none;stroke-opacity:1"
               id="path20" />
            <path
               d="M 27.842364,69.130389 H 72.357046"
               style="fill:#3d3d3d;fill-opacity:1;fill-rule:evenodd;stroke:#cb001e;stroke-width:3.3386;stroke-linecap:round;stroke-linejoin:round;stroke-miterlimit:4;stroke-dasharray:none;stroke-opacity:1"
               id="path22" />
            <path
               d="m 25.61663,75.807591 a 77.900693,77.900693 0 0 0 48.96615,0"
               style="fill:#1e0000;fill-opacity:1;fill-rule:evenodd;stroke:#cb001e;stroke-width:3.3386;stroke-linecap:round;stroke-linejoin:round;stroke-miterlimit:4;stroke-dasharray:none;stroke-opacity:1"
               id="path24" />
            <path
               d="m 23.390896,82.484793 a 77.900693,77.900693 0 0 0 53.417618,0"
               style="fill:#1e0000;fill-opacity:1;fill-rule:evenodd;stroke:#cb001e;stroke-width:3.3386;stroke-linecap:round;stroke-linejoin:round;stroke-miterlimit:4;stroke-dasharray:none;stroke-opacity:1"
               id="path26" />
            <path
               sodipodi:nodetypes="ccccccccccc"
               id="path16-8"
               style="fill:none;fill-opacity:1;fill-rule:evenodd;stroke:#000000;stroke-width:3.3386;stroke-linecap:butt;stroke-linejoin:round;stroke-miterlimit:4;stroke-dasharray:none;stroke-opacity:1"
               d="m 20.052301,56.888851 c 0,4.451468 3.3386,4.451468 5.56433,8.902937 2.22573,3.338601 2.22573,2.225734 1.11287,7.790069 -3.3386,2.225734 -3.3386,5.564335 -3.3386,5.564335 -3.3386,3.338601 1.11286,5.564335 1.11286,5.564335 12.081684,5.327009 33.077761,6.966651 51.19189,0 0,0 3.3386,-2.225734 0,-5.564335 0,0 1.11286,-3.338601 -2.22574,-5.564335 -1.11286,-5.564335 -1.11286,-4.451468 1.11287,-7.790069 2.22573,-4.451469 5.56434,-4.451469 5.56434,-8.902937 -18.91874,-3.338601 -41.17608,-3.338601 -60.09482,0 z" />
          </g>
        </g>
      </g>
    </g>
  </g>
</svg>
