<?xml version="1.0" encoding="UTF-8" standalone="no"?>
<svg
   xmlns:dc="http://purl.org/dc/elements/1.1/"
   xmlns:cc="http://creativecommons.org/ns#"
   xmlns:rdf="http://www.w3.org/1999/02/22-rdf-syntax-ns#"
   xmlns:svg="http://www.w3.org/2000/svg"
   xmlns="http://www.w3.org/2000/svg"
   xmlns:sodipodi="http://sodipodi.sourceforge.net/DTD/sodipodi-0.dtd"
   xmlns:inkscape="http://www.inkscape.org/namespaces/inkscape"
   inkscape:version="1.0 (4035a4fb49, 2020-05-01)"
   sodipodi:docname="king.svg"
   id="svg1114"
   height="45"
   width="45"
   version="1.1">
  <metadata
     id="metadata1120">
    <rdf:RDF>
      <cc:Work
         rdf:about="">
        <dc:format>image/svg+xml</dc:format>
        <dc:type
           rdf:resource="http://purl.org/dc/dcmitype/StillImage" />
        <dc:title></dc:title>
      </cc:Work>
    </rdf:RDF>
  </metadata>
  <defs
     id="defs1118" />
  <sodipodi:namedview
     inkscape:current-layer="svg1114"
     inkscape:window-maximized="1"
     inkscape:window-y="-9"
     inkscape:window-x="-9"
     inkscape:cy="13.75845"
     inkscape:cx="16.180242"
     inkscape:zoom="8.9075817"
     showgrid="false"
     id="namedview1116"
     inkscape:window-height="1001"
     inkscape:window-width="1920"
     inkscape:pageshadow="2"
     inkscape:pageopacity="0"
     guidetolerance="10"
     gridtolerance="10"
     objecttolerance="10"
     borderopacity="1"
     bordercolor="#666666"
     pagecolor="#ffffff" />
  <path
     d="M 0.056640625 -0.056640625 L 0.056640625 45.130859 L 45.074219 45.130859 L 45.074219 -0.056640625 L 0.056640625 -0.056640625 z M 22.636719 5.0605469 A 0.72329103 0.78293295 0 0 1 22.648438 5.0605469 A 0.72329103 0.78293295 0 0 1 22.650391 5.0605469 A 0.72329103 0.78293295 0 0 1 22.666016 5.0605469 A 0.72329103 0.78293295 0 0 1 23.376953 5.7070312 L 23.384766 5.7070312 L 23.384766 5.7773438 A 0.72329103 0.78293295 0 0 1 23.388672 5.84375 A 0.72329103 0.78293295 0 0 1 23.384766 5.9199219 L 23.384766 7.0039062 L 25.882812 7.0039062 L 25.882812 7.0195312 A 0.71489893 0.72329103 0 0 1 26.472656 7.7324219 A 0.71489893 0.72329103 0 0 1 25.882812 8.4433594 L 25.882812 8.4511719 L 25.832031 8.4511719 A 0.71489893 0.72329103 0 0 1 25.757812 8.4550781 A 0.71489893 0.72329103 0 0 1 25.6875 8.4511719 L 23.384766 8.4511719 L 23.384766 12.191406 C 24.788497 12.76071 25.5 14.5 25.5 14.5 C 26.055579 15.611157 25.787596 17.340083 25.230469 19.076172 C 29.128716 15.132057 35.429624 14.510639 38.5 19.5 C 41.5 25.5 32.5 30 32.5 30 L 32.5 37 C 27 40.5 17 40.5 11.5 37 L 11.5 29.5 C 11.5 29.5 3.5 25.5 6.5 19.5 C 7.625 17.0625 9.6630871 15.960938 11.957031 15.931641 C 14.670363 15.896987 17.736296 17.369077 20.072266 19.898438 C 19.334445 17.899998 18.855579 15.788843 19.5 14.5 C 19.5 14.5 20.314385 12.476488 21.9375 12.074219 L 21.9375 8.4511719 L 19.884766 8.4511719 L 19.884766 8.4355469 A 0.71489893 0.72329103 0 0 1 19.169922 7.7128906 A 0.71489893 0.72329103 0 0 1 19.884766 6.9882812 A 0.71489893 0.72329103 0 0 1 20.025391 7.0039062 L 21.9375 7.0039062 L 21.9375 5.7070312 L 21.953125 5.7070312 A 0.72329103 0.78293295 0 0 1 22.636719 5.0605469 z "
     style="fill:#008000"
     id="rect1122" />
  <path
     id="path1783"
     d="M 0.12650244,22.515035 V -0.05001171 H 22.579286 45.032069 V 22.515035 45.080082 H 22.579286 0.12650244 Z M 24.263244,39.572766 c 2.733193,-0.249563 5.385261,-0.969142 7.325221,-1.987538 l 0.982309,-0.51567 v -3.505753 -3.505753 l 0.533254,-0.308187 c 1.755167,-1.014375 3.775957,-2.75481 4.699216,-4.047269 1.675052,-2.344886 1.787641,-4.790198 0.315585,-6.85424 -1.639672,-2.299067 -4.499619,-3.368508 -7.482148,-2.797856 -1.645409,0.314819 -3.557598,1.262038 -4.806658,2.381018 -0.276587,0.247784 -0.453867,0.350149 -0.411986,0.237891 0.227554,-0.609941 0.435615,-2.101795 0.400134,-2.869075 -0.03071,-0.664154 -0.112915,-1.011906 -0.356607,-1.508604 -0.344646,-0.702457 -1.225666,-1.736978 -1.69162,-1.986349 L 23.477397,12.148814 V 10.31543 8.4820459 h 1.340801 c 1.258281,0 1.351557,-0.015356 1.515563,-0.2495073 C 26.60188,7.8497455 26.553113,7.4107779 26.212723,7.143027 25.955141,6.9404129 25.76102,6.9103511 24.710239,6.9103511 H 23.503553 L 23.456133,6.165635 c -0.052,-0.8165731 -0.300556,-1.1637705 -0.833152,-1.1637705 -0.494902,0 -0.717279,0.3654523 -0.717279,1.1787711 V 6.9103511 H 20.77796 c -1.047671,0 -1.147308,0.019565 -1.403298,0.2755568 -0.33664,0.3366382 -0.348438,0.6118868 -0.04288,1.0003384 0.224786,0.2857692 0.272371,0.2957996 1.403299,0.2957996 h 1.170623 v 1.7736701 1.77367 l -0.418921,0.151484 c -0.923451,0.333925 -2.035262,1.871231 -2.275611,3.146497 -0.162678,0.863159 0.128785,2.757666 0.630833,4.100411 0.0472,0.126235 -0.236746,-0.07372 -0.648608,-0.456762 -2.070869,-1.925936 -4.756134,-3.08249 -7.146191,-3.077892 -2.6670317,0.0051 -4.6614978,1.360689 -5.743662,3.903737 -1.122803,2.638548 -0.3846406,5.249865 2.1464524,7.593269 0.7705628,0.713422 2.6851466,2.085268 2.9102566,2.085268 0.06297,0 0.104907,1.521301 0.104907,3.805608 v 3.805607 l 0.982309,0.506186 c 3.157769,1.627202 7.574174,2.367258 11.815777,1.979967 z"
     style="fill:#000000;fill-opacity:1;stroke-width:0.099129;stroke-miterlimit:4;stroke-dasharray:none" />
</svg>
