<?xml version="1.0" encoding="UTF-8" standalone="no"?>
<svg
   xmlns:dc="http://purl.org/dc/elements/1.1/"
   xmlns:cc="http://creativecommons.org/ns#"
   xmlns:rdf="http://www.w3.org/1999/02/22-rdf-syntax-ns#"
   xmlns:svg="http://www.w3.org/2000/svg"
   xmlns="http://www.w3.org/2000/svg"
   xmlns:sodipodi="http://sodipodi.sourceforge.net/DTD/sodipodi-0.dtd"
   xmlns:inkscape="http://www.inkscape.org/namespaces/inkscape"
   inkscape:version="1.0 (4035a4fb49, 2020-05-01)"
   sodipodi:docname="queen.svg"
   id="svg2519"
   height="45"
   width="45"
   version="1.1">
  <metadata
     id="metadata2525">
    <rdf:RDF>
      <cc:Work
         rdf:about="">
        <dc:format>image/svg+xml</dc:format>
        <dc:type
           rdf:resource="http://purl.org/dc/dcmitype/StillImage" />
        <dc:title></dc:title>
      </cc:Work>
    </rdf:RDF>
  </metadata>
  <defs
     id="defs2523" />
  <sodipodi:namedview
     inkscape:current-layer="svg2519"
     inkscape:window-maximized="1"
     inkscape:window-y="-9"
     inkscape:window-x="-9"
     inkscape:cy="30.563981"
     inkscape:cx="33.658796"
     inkscape:zoom="8.9075817"
     showgrid="false"
     id="namedview2521"
     inkscape:window-height="1001"
     inkscape:window-width="1920"
     inkscape:pageshadow="2"
     inkscape:pageopacity="0"
     guidetolerance="10"
     gridtolerance="10"
     objecttolerance="10"
     borderopacity="1"
     bordercolor="#666666"
     pagecolor="#ffffff" />
  <path
     sodipodi:nodetypes="cccccscccccsscccccssccccccccccccccsscccccsscccccscc"
     d="M -0.05664062,0.11132812 V 45.298828 H 45.074219 V 0.11132812 Z M 22.5,5.25 c 1.518783,0 2.75,1.2312169 2.75,2.75 -8.1e-4,1.4582496 -1.13975,2.662322 -2.595703,2.744141 L 25.5,24.5 30.400391,11.683594 C 29.143711,11.402833 28.250113,10.287661 28.25,9 c 0,-1.5187831 1.231217,-2.75 2.75,-2.75 1.518783,0 2.75,1.2312169 2.75,2.75 0,1.518783 -1.231217,2.75 -2.75,2.75 -0.09457,3.15e-4 -0.1891,-0.0042 -0.283203,-0.01367 L 31,25 37.849609,14.498047 C 36.874527,14.048965 36.249911,13.073527 36.25,12 c 0,-1.518783 1.231217,-2.75 2.75,-2.75 1.518783,0 2.75,1.231217 2.75,2.75 0,1.518783 -1.231217,2.75 -2.75,2.75 -0.246857,-2.67e-4 -0.492554,-0.03377 -0.730469,-0.09961 L 36,26 c 0,2 -1.5,2 -2.5,4 -1,1.5 -1,1 -0.5,3.5 1.5,1 1,2.5 1,2.5 1.5,1.5 0,2.5 0,2.5 -6.5,1 -16.5,1 -23,0 0,0 -2,-1 -0.5,-2.5 0,0 0,-1.5 1.5,-2.5 C 12.5,31 12.5,31.5 11.5,30 10.5,28 9,28 9,26 L 6.7304688,14.650391 C 6.4925536,14.716229 6.2468567,14.749733 6,14.75 4.4812169,14.75 3.25,13.518783 3.25,12 3.25,10.481217 4.4812169,9.25 6,9.25 c 1.5187831,0 2.75,1.231217 2.75,2.75 -6.732e-4,1.07282 -0.6251686,2.047308 -1.5996094,2.496094 L 14,25 14.283203,11.736328 C 14.1891,11.745752 14.094573,11.750315 14,11.75 c -1.518783,0 -2.75,-1.231217 -2.75,-2.75 0,-1.5187831 1.231217,-2.75 2.75,-2.75 1.518783,0 2.75,1.2312169 2.75,2.75 -0.001,1.286929 -0.894425,2.40104 -2.150391,2.681641 L 19.5,24.5 22.345703,10.744141 C 20.88975,10.662322 19.75081,9.4582496 19.75,8 19.75,6.4812169 20.981217,5.25 22.5,5.25 Z M 36,26 C 12,8.6666667 24,17.333333 36,26 Z"
     style="fill:#000000;stroke-width:0.883"
     id="rect2527" />
</svg>
