<?xml version="1.0" encoding="UTF-8" standalone="no"?>
<svg
   xmlns:dc="http://purl.org/dc/elements/1.1/"
   xmlns:cc="http://creativecommons.org/ns#"
   xmlns:rdf="http://www.w3.org/1999/02/22-rdf-syntax-ns#"
   xmlns:svg="http://www.w3.org/2000/svg"
   xmlns="http://www.w3.org/2000/svg"
   xmlns:sodipodi="http://sodipodi.sourceforge.net/DTD/sodipodi-0.dtd"
   xmlns:inkscape="http://www.inkscape.org/namespaces/inkscape"
   sodipodi:docname="author github.svg"
   inkscape:version="1.0 (4035a4fb49, 2020-05-01)"
   id="svg3305"
   version="1.1"
   viewBox="0 0 151 254"
   height="254mm"
   width="151mm">
  <defs
     id="defs3299" />
  <sodipodi:namedview
     inkscape:window-maximized="1"
     inkscape:window-y="-9"
     inkscape:window-x="-9"
     inkscape:window-height="1001"
     inkscape:window-width="1920"
     showgrid="false"
     inkscape:document-rotation="0"
     inkscape:current-layer="layer1"
     inkscape:document-units="mm"
     inkscape:cy="880.32296"
     inkscape:cx="725.10731"
     inkscape:zoom="0.44602143"
     inkscape:pageshadow="2"
     inkscape:pageopacity="0.0"
     borderopacity="1.0"
     bordercolor="#666666"
     pagecolor="#ffffff"
     id="base" />
  <metadata
     id="metadata3302">
    <rdf:RDF>
      <cc:Work
         rdf:about="">
        <dc:format>image/svg+xml</dc:format>
        <dc:type
           rdf:resource="http://purl.org/dc/dcmitype/StillImage" />
        <dc:title></dc:title>
      </cc:Work>
    </rdf:RDF>
  </metadata>
  <g
     id="layer1"
     inkscape:groupmode="layer"
     inkscape:label="Layer 1">
    <g
       transform="translate(-28.575012,-44.450022)"
       id="g855">
      <path
         id="rect3907"
         style="fill:#000000;stroke-width:0.170737"
         d="M 29.092979,44.548197 V 194.5482 H 179.09298 V 44.548197 Z m 73.904291,13.444131 c 35.0969,0 63.56416,26.645516 63.56416,61.742412 0,28.06236 -17.15643,52.07591 -42.46062,60.4769 -3.21363,0.582 -4.37773,-1.41687 -4.37773,-3.06165 0,-2.07495 0.0762,-12.62694 0.0762,-21.15447 0,-5.94647 -1.97392,-9.7419 -4.3019,-11.74092 14.14504,-1.59419 29.04929,-3.54289 29.04929,-27.96144 0,-6.93334 -2.47984,-10.42521 -6.52851,-14.90405 0.65791,-1.644776 2.80863,-8.401046 -0.65805,-17.181597 -5.28857,-1.670077 -17.4597,6.832252 -17.4597,6.832252 -5.06085,-1.417037 -10.50135,-2.150774 -15.89113,-2.150774 -5.3898,0 -10.830285,0.733737 -15.891127,2.150774 0,0 -12.171133,-8.477033 -17.459707,-6.832252 -3.466671,8.755247 -1.315947,15.536821 -0.658043,17.181597 -4.048668,4.45354 -5.971601,7.94541 -5.971601,14.90405 0,24.34264 14.271481,26.39257 28.416525,27.96144 -1.821902,1.67006 -3.466713,4.47858 -4.048717,8.52724 -3.618497,1.67007 -12.905161,4.4788 -18.446776,-5.28861 -3.46667,-6.02241 -9.767484,-6.52852 -9.767484,-6.52852 -6.199527,-0.0759 -0.404873,3.89703 -0.404873,3.89703 4.149887,1.8978 7.03486,9.26148 7.03486,9.26148 3.71972,11.33627 21.432574,7.54051 21.432574,7.54051 0,5.31388 0.07585,13.96798 0.07585,15.53683 0,1.64477 -1.1388,3.64364 -4.37774,3.06164 -25.228277,-8.4516 -42.89043,-32.4651 -42.89043,-60.52746 0,-35.096896 26.847769,-61.742412 61.944689,-61.742412 z M 63.483497,142.96242 c 0.154641,-0.004 0.330231,0.0207 0.520012,0.0776 0.506089,0.25305 0.758983,0.65778 0.581854,0.98674 -0.177129,0.35426 -0.682992,0.43003 -1.087858,0.17698 -0.506088,-0.25304 -0.759325,-0.65777 -0.582196,-0.98673 0.110705,-0.15817 0.310449,-0.24713 0.568188,-0.25454 z m 2.618853,2.13301 c 0.286401,0.007 0.608637,0.1713 0.861676,0.42434 0.430169,0.48077 0.505937,1.06271 0.176982,1.31575 -0.328956,0.32896 -0.910875,0.1517 -1.315747,-0.25317 -0.430168,-0.48078 -0.505942,-1.0627 -0.176982,-1.31575 0.123354,-0.12336 0.28223,-0.17547 0.454071,-0.17117 z m 2.563504,3.2646 c 0.349699,0.007 0.737026,0.25143 0.980576,0.65155 0.404874,0.582 0.404874,1.23997 0,1.56892 -0.328956,0.25305 -1.012358,-2.1e-4 -1.417222,-0.58219 -0.404874,-0.582 -0.404874,-1.23969 0,-1.49273 0.12652,-0.10281 0.277692,-0.14871 0.436646,-0.14555 z m 3.07395,3.61207 c 0.32865,0.0116 0.705699,0.17897 1.018841,0.50634 0.506079,0.48079 0.657969,1.23962 0.329022,1.56859 -0.328956,0.40486 -1.062765,0.32916 -1.644769,-0.25284 -0.581995,-0.48078 -0.733895,-1.23996 -0.329022,-1.56892 0.143914,-0.17713 0.370311,-0.26221 0.625928,-0.25317 z m 4.617587,2.77875 c 0.124525,0.004 0.250763,0.0221 0.374122,0.0553 0.759125,0.22774 1.239682,0.80967 1.087857,1.31575 -0.151825,0.50609 -0.910676,0.75938 -1.568577,0.50635 -0.759126,-0.15182 -1.265332,-0.73381 -1.088201,-1.2399 0.14392,-0.41117 0.655187,-0.65545 1.194799,-0.63755 z m 10.261533,0.19714 c 0.623412,0.0187 1.154661,0.32312 1.221107,0.7438 0.07591,0.50609 -0.430229,0.98692 -1.16405,1.16405 -0.759126,0.17713 -1.417133,-0.15162 -1.493072,-0.6577 -0.07591,-0.58199 0.43023,-1.06277 1.164051,-1.23989 0.09173,-0.009 0.182905,-0.0129 0.271964,-0.0102 z m -4.862902,0.65941 c 0.697779,-0.0159 1.276114,0.37379 1.276114,0.91942 0,0.50608 -0.581926,0.91122 -1.315747,0.91122 -0.835044,0.0759 -1.417223,-0.32922 -1.417223,-0.91122 0,-0.50609 0.58226,-0.91088 1.316089,-0.91088 0.04745,-0.005 0.09425,-0.007 0.140767,-0.009 z" />
      <text
         xml:space="preserve"
         style="font-size:42.3333px;line-height:1.25;font-family:Garamond;-inkscape-font-specification:Garamond;text-align:center;text-anchor:middle;stroke-width:0.264583"
         x="102.95575"
         y="243.80304"
         id="text3916"><tspan
           sodipodi:role="line"
           id="tspan3914"
           x="102.95575"
           y="243.80304"
           style="stroke-width:0.264583">Author's</tspan><tspan
           sodipodi:role="line"
           x="102.95575"
           y="296.71967"
           style="stroke-width:0.264583"
           id="tspan3918">GitHub</tspan></text>
    </g>
  </g>
</svg>
