<?xml version="1.0" encoding="UTF-8" standalone="no"?>
<svg
   xmlns:dc="http://purl.org/dc/elements/1.1/"
   xmlns:cc="http://creativecommons.org/ns#"
   xmlns:rdf="http://www.w3.org/1999/02/22-rdf-syntax-ns#"
   xmlns:svg="http://www.w3.org/2000/svg"
   xmlns="http://www.w3.org/2000/svg"
   xmlns:sodipodi="http://sodipodi.sourceforge.net/DTD/sodipodi-0.dtd"
   xmlns:inkscape="http://www.inkscape.org/namespaces/inkscape"
   sodipodi:docname="info2.svg"
   inkscape:version="1.0 (4035a4fb49, 2020-05-01)"
   id="svg8"
   version="1.1"
   viewBox="0 0 6.3499999 6.3500002"
   height="24"
   width="24">
  <defs
     id="defs2" />
  <sodipodi:namedview
     inkscape:window-maximized="1"
     inkscape:window-y="-9"
     inkscape:window-x="-9"
     inkscape:window-height="1001"
     inkscape:window-width="1920"
     units="px"
     showgrid="false"
     inkscape:document-rotation="0"
     inkscape:current-layer="layer1"
     inkscape:document-units="mm"
     inkscape:cy="18.165783"
     inkscape:cx="6.311007"
     inkscape:zoom="11.313709"
     inkscape:pageshadow="2"
     inkscape:pageopacity="0.0"
     borderopacity="1.0"
     bordercolor="#666666"
     pagecolor="#ffffff"
     id="base" />
  <metadata
     id="metadata5">
    <rdf:RDF>
      <cc:Work
         rdf:about="">
        <dc:format>image/svg+xml</dc:format>
        <dc:type
           rdf:resource="http://purl.org/dc/dcmitype/StillImage" />
        <dc:title></dc:title>
      </cc:Work>
    </rdf:RDF>
  </metadata>
  <g
     id="layer1"
     inkscape:groupmode="layer"
     inkscape:label="Layer 1">
    <path
       transform="scale(0.26458333)"
       d="M 12 0 A 12.000001 12.000001 0 0 0 0 12 A 12.000001 12.000001 0 0 0 12 24 A 12.000001 12.000001 0 0 0 24 12 A 12.000001 12.000001 0 0 0 12 0 z M 11.916016 3.5800781 A 1.3907001 1.3907001 0 0 1 11.919922 3.5800781 A 1.3907001 1.3907001 0 0 1 13.310547 4.9707031 A 1.3907001 1.3907001 0 0 1 11.919922 6.3613281 A 1.3907001 1.3907001 0 0 1 10.529297 4.9707031 A 1.3907001 1.3907001 0 0 1 11.916016 3.5800781 z M 9.078125 8.875 L 13.144531 8.875 L 13.144531 18.404297 L 14.921875 18.404297 L 14.921875 20.419922 L 9.078125 20.419922 L 9.078125 18.404297 L 10.878906 18.404297 L 10.878906 10.890625 L 9.078125 10.890625 L 9.078125 8.875 z "
       style="opacity:1;fill:#000000;fill-opacity:1;stroke:none;stroke-width:1.49192;stroke-linejoin:round"
       id="path1538" />
  </g>
</svg>
