<?xml version="1.0" encoding="UTF-8" standalone="no"?>
<svg
   xmlns:dc="http://purl.org/dc/elements/1.1/"
   xmlns:cc="http://creativecommons.org/ns#"
   xmlns:rdf="http://www.w3.org/1999/02/22-rdf-syntax-ns#"
   xmlns:svg="http://www.w3.org/2000/svg"
   xmlns="http://www.w3.org/2000/svg"
   xmlns:sodipodi="http://sodipodi.sourceforge.net/DTD/sodipodi-0.dtd"
   xmlns:inkscape="http://www.inkscape.org/namespaces/inkscape"
   version="1.1"
   width="100"
   height="100"
   id="svg14"
   sodipodi:docname="WN.svg"
   inkscape:version="1.0 (4035a4fb49, 2020-05-01)">
  <metadata
     id="metadata20">
    <rdf:RDF>
      <cc:Work
         rdf:about="">
        <dc:format>image/svg+xml</dc:format>
        <dc:type
           rdf:resource="http://purl.org/dc/dcmitype/StillImage" />
        <dc:title />
      </cc:Work>
    </rdf:RDF>
  </metadata>
  <defs
     id="defs18" />
  <sodipodi:namedview
     inkscape:document-rotation="0"
     pagecolor="#ffffff"
     bordercolor="#666666"
     borderopacity="1"
     objecttolerance="10"
     gridtolerance="10"
     guidetolerance="10"
     inkscape:pageopacity="0"
     inkscape:pageshadow="2"
     inkscape:window-width="1833"
     inkscape:window-height="1051"
     id="namedview16"
     showgrid="false"
     inkscape:zoom="4.3791164"
     inkscape:cx="33.659167"
     inkscape:cy="52.716058"
     inkscape:window-x="78"
     inkscape:window-y="-9"
     inkscape:window-maximized="1"
     inkscape:current-layer="g845" />
  <g
     id="g845">
    <g
       id="g842">
      <path
         id="path2"
         style="fill:#1e0000;fill-opacity:1;fill-rule:evenodd;stroke:#000000;stroke-width:3.58209;stroke-linecap:round;stroke-linejoin:round;stroke-miterlimit:4;stroke-dasharray:none;stroke-opacity:1"
         d="M 50.220454,19.395386 C 75.295081,21.783446 89.62344,38.499863 88.42941,88.649117 H 33.504037 c 0,-21.492537 23.880597,-15.522388 19.104477,-50.149254" />
      <path
         id="path4"
         style="fill:#1e0000;fill-opacity:1;fill-rule:evenodd;stroke:#000000;stroke-width:3.58209;stroke-linecap:round;stroke-linejoin:round;stroke-miterlimit:4;stroke-dasharray:none;stroke-opacity:1"
         d="m 54.996574,38.499863 c 0.907463,6.949254 -13.253731,17.6 -19.104478,21.492538 -7.164179,4.776119 -6.734328,10.364179 -11.940298,9.552239 -2.488358,-2.244777 3.367164,-7.259702 0,-7.16418 -2.38806,0 0.453731,2.937314 -2.38806,4.77612 -2.38806,0 -9.559403,2.38806 -9.552239,-9.552239 0,-4.776119 14.328358,-28.656716 14.328358,-28.656716 0,0 4.513433,-4.537314 4.77612,-8.358209 -1.743284,-2.373732 -1.19403,-4.77612 -1.19403,-7.164179 2.38806,-2.38806 7.164179,5.970149 7.164179,5.970149 h 4.77612 c 0,0 1.862686,-4.757015 5.970149,-7.164179 2.388059,0 2.388059,7.164179 2.388059,7.164179" />
      <path
         id="path6"
         style="fill:#cb001e;fill-opacity:1;fill-rule:evenodd;stroke:#cb001e;stroke-width:3.582;stroke-linecap:round;stroke-linejoin:round;stroke-miterlimit:4;stroke-dasharray:none;stroke-opacity:1"
         d="m 20.369708,56.410311 a 1.1940298,1.1940298 0 1 1 -2.388059,0 1.1940298,1.1940298 0 1 1 2.388059,0 z" />
      <path
         id="path8"
         style="fill:#cb001e;fill-opacity:1;fill-rule:evenodd;stroke:#cb001e;stroke-width:3.58201;stroke-linecap:round;stroke-linejoin:round;stroke-miterlimit:4;stroke-dasharray:none;stroke-opacity:1"
         d="m 33.344038,33.126728 a 1.1940036,3.5820107 30.000727 1 1 -2.06806,-1.194029 1.1940036,3.5820107 30.000727 1 1 2.06806,1.194029 z" />
      <path
         id="path10"
         style="fill:#cb001e;fill-opacity:1;fill-rule:evenodd;stroke:none;stroke-width:3.58209;stroke-linecap:round;stroke-linejoin:round;stroke-miterlimit:4;stroke-dasharray:none;stroke-opacity:1"
         d="m 56.310007,20.35061 -1.074627,3.462686 1.19403,0.358209 c 7.522388,2.38806 13.492537,5.946269 18.865671,16.119403 5.373135,10.173135 7.761194,24.620896 6.567165,48.358209 l -0.119403,1.19403 h 5.373134 l 0.119403,-1.19403 C 88.42941,64.625237 85.133887,48.410311 79.474186,37.687923 73.814484,26.965535 65.64732,21.831207 57.527917,20.589416 Z" />
      <path
         d="m 50.220457,19.395386 c 25.07463,2.38806 39.40299,19.104477 38.20896,69.253731 h -54.92538 c 0,-21.492537 23.8806,-15.522388 19.10448,-50.149254"
         style="fill:none;fill-opacity:1;fill-rule:evenodd;stroke:#000000;stroke-width:3.58209;stroke-linecap:round;stroke-linejoin:round;stroke-miterlimit:4;stroke-dasharray:none;stroke-opacity:1"
         id="path2-0" />
    </g>
  </g>
</svg>
