<?xml version="1.0" encoding="UTF-8" standalone="no"?>
<svg
   xmlns:dc="http://purl.org/dc/elements/1.1/"
   xmlns:cc="http://creativecommons.org/ns#"
   xmlns:rdf="http://www.w3.org/1999/02/22-rdf-syntax-ns#"
   xmlns:svg="http://www.w3.org/2000/svg"
   xmlns="http://www.w3.org/2000/svg"
   xmlns:sodipodi="http://sodipodi.sourceforge.net/DTD/sodipodi-0.dtd"
   xmlns:inkscape="http://www.inkscape.org/namespaces/inkscape"
   inkscape:version="1.0 (4035a4fb49, 2020-05-01)"
   sodipodi:docname="Author GitHub.svg"
   id="svg3"
   version="1.1"
   viewBox="0 0 238.49041 25.127044"
   height="25.127043"
   width="238.4904">
  <metadata
     id="metadata9">
    <rdf:RDF>
      <cc:Work
         rdf:about="">
        <dc:format>image/svg+xml</dc:format>
        <dc:type
           rdf:resource="http://purl.org/dc/dcmitype/StillImage" />
      </cc:Work>
    </rdf:RDF>
  </metadata>
  <defs
     id="defs7" />
  <sodipodi:namedview
     inkscape:current-layer="svg3"
     inkscape:window-maximized="0"
     inkscape:window-y="0"
     inkscape:window-x="0"
     inkscape:cy="12.567542"
     inkscape:cx="119.241"
     inkscape:zoom="5.0653719"
     showgrid="false"
     id="namedview5"
     inkscape:window-height="480"
     inkscape:window-width="828"
     inkscape:pageshadow="2"
     inkscape:pageopacity="0"
     guidetolerance="10"
     gridtolerance="10"
     objecttolerance="10"
     borderopacity="1"
     bordercolor="#666666"
     pagecolor="#ffffff" />
  <path
     fill="#ffffff"
     d="m 0.071,23.818043 a 0.909,0.909 0 0 1 0.439,-0.138 h 0.4 q 0.123,0 0.422,-0.018 a 6.911,6.911 0 0 0 1.6,-0.246 2.706,2.706 0 0 0 1.054,-1.16 42.306,42.306 0 0 0 2.057,-5.08 q 0.545,-1.564 0.686,-1.9 0.439,-1.055 0.844,-2.215 L 9.226,8.4380426 q 0.387,-1.09 1.864,-4.992 0.369,-0.984 0.9,-2.63700003 l 0.517,-0.035 0.615,0.018 a 24.285,24.285 0 0 1 1.334,3.21700003 q 0.316,0.914 1.036,2.725 l 2.672,7.2220004 1.418,3.924 q 1.125,3.34 1.477,4.1 a 2.975,2.975 0 0 0 0.65,1.011 2.632,2.632 0 0 0 0.659,0.211 q 0.571,0.141 0.8,0.211 a 7.261,7.261 0 0 1 1.125,0.387 0.955,0.955 0 0 1 0.07,0.3 1.019,1.019 0 0 1 -0.053,0.264 q -0.562,0.016 -0.79,0.016 -0.9,0 -3.164,-0.053 l -1.758,-0.04 -2.127,0.026 q -0.211,0 -0.431,-0.02 -0.22,-0.02 -0.376,-0.018 h -0.387 a 0.879,0.879 0 0 1 -0.352,-0.105 1.311,1.311 0 0 1 0.088,-0.475 1.13,1.13 0 0 1 0.387,-0.123 l 1.844,-0.124 a 3.3,3.3 0 0 0 1.09,-0.194 1.679,1.679 0 0 0 0.105,-0.475 7.637,7.637 0 0 0 -0.457,-1.638 q -0.316,-0.881 -0.553,-1.673 -0.237,-0.792 -1.865,-5.213 a 7.622,7.622 0 0 0 -1.266,-0.123 l -3.762,0.035 -1.111,-0.017 a 10.962,10.962 0 0 0 -1.318,0.088 q -0.229,0.527 -0.3,0.756 l -1.549,4.833 a 24.409,24.409 0 0 0 -0.984,3.041 1.6,1.6 0 0 0 0.158,0.527 7.678,7.678 0 0 0 0.984,0.193 l 2.391,0.212 q 0.193,0.158 0.193,0.281 a 1.019,1.019 0 0 1 -0.053,0.264 q -0.791,0.018 -1.213,0.018 -1.406,0 -3.27,-0.088 -0.86,-0.036 -1.229,-0.036 -0.369,0 -1.283,0.036 -0.598,0.035 -0.862,0.035 -0.426,0 -1.09,-0.053 v -0.106 a 1.131,1.131 0 0 1 0.071,-0.333 z m 8.387,-10.547 q 1.881,0.109 4.289,0.109 1.371,0 2.408,-0.088 a 11.831,11.831 0 0 0 -0.4,-1.283 Q 13.614,8.9520426 13.491,8.6350426 l -1.6,-4.059 -0.176,-0.316 q -0.106,0.211 -0.775,1.81 -1.127,2.741 -1.619,4.2700004 -0.229,0.685 -0.475,1.362 a 9.251,9.251 0 0 0 -0.308,0.949 3.05,3.05 0 0 1 -0.185,0.553 z m 16.767,-2.691 h 1.313 l 0.578,0.035 0.455,-0.035 q 1.8,0 2.241,0.035 l 0.018,0.334 q 0,2.479 -0.07,4.8 -0.053,1.371 -0.053,1.564 a 21.161,21.161 0 0 0 0.2,3.867 2.043,2.043 0 0 0 0.957,1.24 3.352,3.352 0 0 0 1.806,0.466 5.841,5.841 0 0 0 2.458,-0.536 7.428,7.428 0 0 0 2,-1.31 11.373,11.373 0 0 0 0.088,-1.477 q 0,-2.619 0.053,-3.533 0.018,-0.545 0.018,-0.949 a 9.086,9.086 0 0 0 -0.281,-3.217 q -0.281,-0.369 -2.145,-0.562 -0.615,-0.07 -0.9,-0.123 a 0.766,0.766 0 0 1 -0.141,-0.352 l 0.053,-0.193 a 7.818,7.818 0 0 1 0.9,-0.053 l 2.795,0.035 q 1.494,-0.035 1.582,-0.035 0.193,0 0.369,0.018 l 0.035,1.283 q -0.123,2.672 -0.141,6.609 l -0.035,1.424 0.07,2.391 a 0.768,0.768 0 0 0 0.281,0.334 2.683,2.683 0 0 0 0.861,0.088 h 0.158 q 0.229,0 1.3,0.105 0.018,0.229 0.018,0.334 v 0.193 a 33.3,33.3 0 0 0 -3.816,1.02 9.78,9.78 0 0 1 -0.986,0.281 q -0.088,-0.615 -0.088,-0.756 v -1.425 q 0,-0.088 -0.018,-0.475 -0.229,0.158 -0.527,0.387 a 16.238,16.238 0 0 1 -2.933,1.812 4.535,4.535 0 0 1 -2,0.51 3.754,3.754 0 0 1 -3.006,-1.371 q -1.178,-1.371 -1.178,-4.676 0,-0.176 0.018,-0.633 0.07,-0.844 0.07,-1.178 0,-0.123 -0.018,-0.773 -0.018,-0.281 -0.018,-0.492 0,-0.158 0.018,-0.712 0.018,-0.554 0.018,-0.782 0,-0.3 -0.018,-0.527 l -0.035,-0.932 0.018,-0.492 a 0.654,0.654 0 0 0 -0.281,-0.51 14.281,14.281 0 0 0 -1.45,-0.343 2.483,2.483 0 0 1 -0.606,-0.149 z m 22.078,-3.5680004 0.545,0.018 0.07,1.67 -0.035,2.1620004 q 0.334,0.018 0.422,0.018 0.457,0 1.74,-0.07 0.826,-0.053 1.582,-0.053 0.352,0 1.055,0.018 0.035,0.352 0.035,0.563 a 3.873,3.873 0 0 1 -0.105,0.721 h -0.3 l -2.725,0.088 -1.354,0.035 -0.316,0.035 a 3.35,3.35 0 0 0 -0.141,1.02 l 0.053,2.637 -0.035,4.641 a 4.226,4.226 0 0 0 0.475,2.426 1.6,1.6 0 0 0 1.371,0.615 9.76,9.76 0 0 0 1.724,-0.283 3.078,3.078 0 0 0 1.037,-0.58 h 0.158 a 0.345,0.345 0 0 1 0.255,0.1 0.345,0.345 0 0 1 0.1,0.255 l -0.018,0.123 a 4.567,4.567 0 0 1 -1.732,1.2 7.327,7.327 0 0 1 -2.6,0.378 3.2,3.2 0 0 1 -1.89,-0.527 2.341,2.341 0 0 1 -0.958,-1.248 14.273,14.273 0 0 1 -0.211,-3.146 l 0.07,-3.955 -0.018,-1.9 v -0.7 q 0,-0.492 -0.035,-0.984 l -0.3,-0.018 -1.441,0.053 -0.141,0.018 a 0.419,0.419 0 0 1 -0.29,-0.088 0.275,0.275 0 0 1 -0.1,-0.211 0.464,0.464 0 0 1 0.132,-0.343 3.266,3.266 0 0 1 0.8,-0.413 4.159,4.159 0 0 0 1.063,-0.729 5.778,5.778 0 0 0 1.028,-1.1870004 10.408,10.408 0 0 0 0.6,-1.336 q 0.291,-0.723 0.43,-1.022 z m 6.152,16.9290004 a 11.334,11.334 0 0 0 2.373,-0.561 q 0.193,-0.123 0.193,-0.562 l -0.017,-1.161 0.018,-2.055 -0.035,-5.234 0.018,-1.95 v -1.388 l 0.053,-1.7000004 q 0,-4 -0.079,-4.786 a 1.577,1.577 0 0 0 -0.308,-0.975 6.02,6.02 0 0 0 -2.32,-0.843 v -0.088 a 2.492,2.492 0 0 1 0.035,-0.352 q 0.246,-0.035 0.475,-0.088 a 3.1,3.1 0 0 1 0.439,-0.07 13.807,13.807 0 0 0 3.041,-1.16000003 h 0.861 q 0.035,0.49200003 0.035,3.11300003 l -0.018,2.234 0.018,2.884 -0.07,3.5530004 q 0,0.316 0.035,0.7 a 16.572,16.572 0 0 1 1.62,-1.708 7.963,7.963 0 0 1 1.955,-1.171 5.637,5.637 0 0 1 2.184,-0.431 4.24,4.24 0 0 1 3.539,1.826 5.032,5.032 0 0 1 0.792,3.037 l -0.053,1.791 0.018,1 -0.07,1.738 q -0.07,2.159 -0.07,2.563 0,0.456 0.035,1.229 l 1,0.228 q 1,0.211 1.547,0.386 l -0.018,0.545 -3.743,-0.105 q -0.316,0 -1.723,0.07 -0.861,0.035 -1,0.035 h -0.387 a 0.576,0.576 0 0 1 -0.088,-0.264 v -0.157 a 1.393,1.393 0 0 1 0.914,-0.422 l 1.055,-0.246 a 0.644,0.644 0 0 0 0.246,-0.369 q 0.07,-0.456 0.158,-4.529 l 0.035,-1.3 a 11.188,11.188 0 0 0 -0.317,-3.405 2.465,2.465 0 0 0 -1.119,-1.483 3.686,3.686 0 0 0 -2.017,-0.553 4.118,4.118 0 0 0 -1.8,0.4 6.893,6.893 0 0 0 -1.392,1.036 6.2,6.2 0 0 0 -1.128,1.264 2.351,2.351 0 0 0 -0.211,1.161 l 0.018,1.226 -0.035,1.279 q 0,0.158 0.053,2.19 l -0.016,1.121 0.035,1.226 a 2.016,2.016 0 0 0 0.053,0.385 l 2.479,0.6 a 5.5,5.5 0 0 1 0.58,0.216 l 0.053,0.2 a 0.833,0.833 0 0 1 -0.088,0.288 q -0.51,0.018 -0.773,0.018 l -1.372,-0.022 -3.024,0.035 -2.263,0.07 q -0.18,-0.017 -0.532,-0.035 l -0.018,-0.123 a 0.683,0.683 0 0 1 0.141,-0.351 z m 18.967,-6.627 a 7.43,7.43 0 0 1 0.5,-2.558 7.105,7.105 0 0 1 1.521,-2.443 7.065,7.065 0 0 1 2.162,-1.608 9.275,9.275 0 0 1 3.9,-0.7380004 7.381,7.381 0 0 1 5.493,2.2500004 7.455,7.455 0 0 1 2.209,5.413 6.772,6.772 0 0 1 -2.312,5.019 8.126,8.126 0 0 1 -5.844,2.206 7.955,7.955 0 0 1 -4.113,-1.143 7.394,7.394 0 0 1 -2.474,-2.549 7.2,7.2 0 0 1 -1.042,-3.849 z m 7.778,6.855 a 5.069,5.069 0 0 0 2.58,-0.721 5,5 0 0 0 1.984,-2.311 8.65,8.65 0 0 0 0.74,-3.683 10.752,10.752 0 0 0 -0.572,-3.182 5.293,5.293 0 0 0 -1.768,-2.715 4.475,4.475 0 0 0 -2.791,-0.905 5.724,5.724 0 0 0 -2.368,0.545 4.525,4.525 0 0 0 -2.041,2.091 9.387,9.387 0 0 0 -0.835,4.392 7.109,7.109 0 0 0 1.453,4.843 4.632,4.632 0 0 0 3.618,1.646 z m 10.029,0.264 -0.07,-0.229 a 0.806,0.806 0 0 1 0.158,-0.369 l 1.037,-0.211 1.459,-0.263 a 0.5,0.5 0 0 0 0.246,-0.246 4.722,4.722 0 0 0 0.105,-1.351 q 0,-5.967 -0.07,-6.888 a 2.026,2.026 0 0 0 -0.316,-1.167 2.537,2.537 0 0 0 -1.266,-0.386 4.345,4.345 0 0 1 -0.949,-0.228 l 0.07,-0.536 a 9.983,9.983 0 0 0 2.479,-1.3 6.58,6.58 0 0 0 1.494,-2.0800004 l 0.6,0.018 q 0.105,0.8790004 0.105,3.9000004 l -0.018,0.3 a 2.467,2.467 0 0 0 0.035,0.334 10.187,10.187 0 0 1 1.67,-2.232 l 0.4,-0.4 a 2.665,2.665 0 0 1 0.475,-0.439 4.2,4.2 0 0 1 1.828,-0.7380004 1.667,1.667 0 0 1 1.266,0.5190004 1.781,1.781 0 0 1 0.492,1.274 1.223,1.223 0 0 1 -0.352,0.932 1.558,1.558 0 0 1 -1.09,0.439 4.2,4.2 0 0 1 -1.107,-0.3 4.253,4.253 0 0 0 -1.09,-0.3 1.111,1.111 0 0 0 -0.686,0.158 5.969,5.969 0 0 0 -1.2,1.582 3.232,3.232 0 0 0 -0.545,1.652 l 0.096,2.902 0.035,3.488 a 2.646,2.646 0 0 0 0.141,0.775 1.068,1.068 0 0 0 0.352,0.3 q 1.9,0.158 2.25,0.229 0.246,0.018 0.369,0.035 a 2.156,2.156 0 0 1 1.055,0.211 0.284,0.284 0 0 1 0.157,0.262 0.516,0.516 0 0 1 -0.141,0.281 l -1.951,-0.034 -0.738,-0.017 -1.072,0.018 h -1.793 l -0.967,0.052 z m 14.069,-14.168 -0.954,-5.2000004 a 19.591,19.591 0 0 1 -0.406,-2.918 2.4,2.4 0 0 1 0.459,-1.63500003 1.6,1.6 0 0 1 1.254,-0.51 1.789,1.789 0 0 1 1.316,0.519 1.792,1.792 0 0 1 0.521,1.32700003 24.8,24.8 0 0 1 -0.459,3.234 l -0.954,5.1860004 z m 6.128,9.65 a 13.231,13.231 0 0 0 0.984,2.162 4.987,4.987 0 0 0 1.6,1.556 3.886,3.886 0 0 0 2.021,0.554 3.024,3.024 0 0 0 1.986,-0.861 2,2 0 0 0 0.7,-1.512 3.181,3.181 0 0 0 -0.826,-2.109 7.955,7.955 0 0 0 -3.134,-1.825 7.334,7.334 0 0 1 -3.1,-1.854 3.493,3.493 0 0 1 -0.791,-2.25 3.546,3.546 0 0 1 0.65,-2.109 3.985,3.985 0 0 1 1.793,-1.38 5.626,5.626 0 0 1 2.109,-0.4660004 11.787,11.787 0 0 1 2.241,0.1930004 5.723,5.723 0 0 1 1.714,0.6 q 0.141,0.9 0.229,2.637 l 0.035,0.563 q -0.229,0.018 -0.387,0.018 h -0.246 a 5.046,5.046 0 0 0 -1.608,-2.312 3.461,3.461 0 0 0 -2.136,-0.853 2.323,2.323 0 0 0 -1.705,0.642 2.254,2.254 0 0 0 -0.65,1.679 2.1,2.1 0 0 0 0.527,1.406 7.028,7.028 0 0 0 2.47,1.4 12.857,12.857 0 0 1 2.83,1.465 4.121,4.121 0 0 1 1.31,1.645 4.622,4.622 0 0 1 0.422,1.847 3.686,3.686 0 0 1 -0.8,2.27 4.285,4.285 0 0 1 -2,1.487 6.48,6.48 0 0 1 -2.153,0.431 10.115,10.115 0 0 1 -4.113,-0.826 0.69,0.69 0 0 1 -0.193,-0.527 q 0,-0.158 -0.035,-0.51 -0.281,-2.373 -0.281,-2.812 a 0.35,0.35 0 0 1 0.088,-0.281 0.889,0.889 0 0 1 0.449,-0.068 z m 43.049,-16.8750004 0.193,2.672 q 0.105,1.213 0.105,1.652 l -0.492,0.088 a 9.96,9.96 0 0 0 -2.927,-4.008 6.844,6.844 0 0 0 -4.28,-1.336 12.313,12.313 0 0 0 -4.816,0.756 9.835,9.835 0 0 0 -4.271,3.727 11.242,11.242 0 0 0 -1.775,6.4000004 10.935,10.935 0 0 0 0.65,3.885 11.789,11.789 0 0 0 1.837,3.204 12.51,12.51 0 0 0 2.8,2.575 7.811,7.811 0 0 0 2.514,1.09 11.625,11.625 0 0 0 2.461,0.193 10.386,10.386 0 0 0 2.338,-0.3 5.087,5.087 0 0 0 1.934,-0.8 2.594,2.594 0 0 0 0.888,-1.134 8.273,8.273 0 0 0 0.237,-2.461 q 0,-3.041 -0.4,-3.542 -0.4,-0.501 -2.549,-0.659 l -0.7,-0.053 -0.475,0.018 q -0.105,-0.018 -0.281,-0.053 l -0.264,-0.439 a 0.4,0.4 0 0 1 0.123,-0.229 33.9,33.9 0 0 1 3.973,-0.141 q 0.686,0 2.232,0.035 l 1.811,0.07 1.635,-0.018 q 0.475,0 1.143,0.035 a 0.251,0.251 0 0 1 0.158,0.062 0.243,0.243 0 0 1 0.035,0.149 1.821,1.821 0 0 1 -0.088,0.492 5.873,5.873 0 0 1 -1.143,0.158 l -1.143,-0.018 a 1.174,1.174 0 0 0 -0.932,0.4 2.68,2.68 0 0 0 -0.176,1.318 l 0.018,2.3 a 13.993,13.993 0 0 1 -0.193,3.023 1.462,1.462 0 0 1 -0.439,0.694 5.031,5.031 0 0 1 -1.406,0.729 13.639,13.639 0 0 1 -2.777,0.826 26.109,26.109 0 0 1 -4.482,0.4 15.56,15.56 0 0 1 -5.7,-0.888 11.446,11.446 0 0 1 -3.832,-2.47 10.112,10.112 0 0 1 -2.294,-3.2 11.964,11.964 0 0 1 -1.037,-4.834 12.316,12.316 0 0 1 1.626,-6.0210004 11.943,11.943 0 0 1 5.247,-4.79 15.385,15.385 0 0 1 6.926,-1.3 19.194,19.194 0 0 1 4.948,0.527 12.6,12.6 0 0 1 3.04,1.216 z m 6.8,-0.264 a 1.33,1.33 0 0 1 0.448,-1 1.521,1.521 0 0 1 1.081,-0.422 1.6,1.6 0 0 1 1.143,0.475 1.406,1.406 0 0 1 0.492,1.02 1.434,1.434 0 0 1 -0.492,1.028 1.581,1.581 0 0 1 -1.143,0.483 1.48,1.48 0 0 1 -1.09,-0.439 1.546,1.546 0 0 1 -0.436,-1.141 z m -1.477,9.1230004 0.018,-0.519 q 1.143,-0.335 1.23,-0.388 a 5.757,5.757 0 0 0 1.327,-0.864 5.987,5.987 0 0 0 1.169,-1.3050004 2.152,2.152 0 0 1 0.334,-0.035 l 0.211,0.018 q 0.07,0.844 0.07,1.2300004 0,0.088 -0.035,0.791 v 0.932 l 0.018,5.063 -0.05,5.358 a 1.314,1.314 0 0 0 0.211,0.905 3.431,3.431 0 0 0 1.354,0.571 10.687,10.687 0 0 1 1.055,0.334 0.553,0.553 0 0 1 0.053,0.211 0.576,0.576 0 0 1 -0.088,0.264 q -0.686,-0.015 -1.759,-0.085 -1.459,-0.123 -1.934,-0.123 -0.229,0 -2.812,0.088 a 9.429,9.429 0 0 0 -1.02,0.088 1.219,1.219 0 0 1 -0.281,-0.053 0.387,0.387 0 0 1 -0.088,-0.211 q 0,-0.246 0.334,-0.387 0.07,-0.035 1.793,-0.4 a 1.144,1.144 0 0 0 0.738,-0.351 1.864,1.864 0 0 0 0.3,-1.176 q 0.035,-1.351 0.035,-7.407 a 6.2,6.2 0 0 0 -0.105,-1.51 1.334,1.334 0 0 0 -0.466,-0.483 5.108,5.108 0 0 0 -1.609,-0.555 z m 12.252,-4.8870004 0.545,0.018 0.07,1.67 -0.035,2.1620004 q 0.334,0.018 0.422,0.018 0.457,0 1.74,-0.07 0.826,-0.053 1.582,-0.053 0.352,0 1.055,0.018 0.035,0.352 0.035,0.563 a 3.873,3.873 0 0 1 -0.105,0.721 h -0.3 l -2.725,0.088 -1.354,0.035 -0.316,0.035 a 3.35,3.35 0 0 0 -0.141,1.02 l 0.053,2.637 -0.035,4.641 a 4.226,4.226 0 0 0 0.475,2.426 1.6,1.6 0 0 0 1.371,0.615 9.76,9.76 0 0 0 1.723,-0.281 3.078,3.078 0 0 0 1.037,-0.58 h 0.158 a 0.345,0.345 0 0 1 0.255,0.1 0.345,0.345 0 0 1 0.1,0.255 l -0.018,0.123 a 4.567,4.567 0 0 1 -1.731,1.2 7.327,7.327 0 0 1 -2.593,0.378 3.2,3.2 0 0 1 -1.89,-0.527 2.341,2.341 0 0 1 -0.958,-1.248 14.273,14.273 0 0 1 -0.206,-3.149 l 0.07,-3.955 -0.018,-1.9 v -0.7 q 0,-0.492 -0.035,-0.984 l -0.3,-0.018 -1.441,0.053 -0.141,0.018 a 0.419,0.419 0 0 1 -0.29,-0.088 0.275,0.275 0 0 1 -0.1,-0.211 0.464,0.464 0 0 1 0.132,-0.343 3.266,3.266 0 0 1 0.8,-0.413 4.159,4.159 0 0 0 1.063,-0.729 5.778,5.778 0 0 0 1.028,-1.1870004 10.408,10.408 0 0 0 0.6,-1.336 q 0.28,-0.722 0.421,-1.021 z m 6.155,17.6490004 0.018,-0.387 a 3.642,3.642 0 0 1 1.389,-0.422 6.274,6.274 0 0 0 1.582,-0.325 0.991,0.991 0 0 0 0.475,-0.466 3,3 0 0 0 0.245,-1.181 l -0.035,-1.337 0.018,-1.232 -0.033,-1.44 q 0,-0.9 0.053,-2.243 0.053,-1.343 0.053,-1.434 V 9.3940426 q 0,-1.143 0.053,-2.472 0.053,-1.329 0.053,-1.839 a 11.2,11.2 0 0 0 -0.07,-1.759 0.55,0.55 0 0 0 -0.264,-0.352 4.862,4.862 0 0 0 -1.266,-0.194 q -0.826,-0.07 -1.143,-0.123 a 0.811,0.811 0 0 1 -0.088,-0.316 q 0,-0.141 0.018,-0.334 0.422,-0.035 0.65,-0.035 l 1.652,0.018 q 1.758,0 3.727,-0.141 0.967,-0.07 2.918,-0.123 a 1.38,1.38 0 0 1 0.035,0.3 0.419,0.419 0 0 1 -0.079,0.272 0.442,0.442 0 0 1 -0.272,0.132 6.129,6.129 0 0 0 -2.716,0.571 q -0.413,0.378 -0.413,1.925 0,2.848 0.088,5.8710004 l 0.07,1.652 a 16.375,16.375 0 0 0 2.285,0.176 q 0.6,0.035 0.7,0.035 l 2.584,-0.035 1.705,0.053 4.465,-0.14 a 5.654,5.654 0 0 0 1,-0.07 q 0.105,-3.0480004 0.105,-5.9000004 a 22.19,22.19 0 0 0 -0.123,-3.241 0.6,0.6 0 0 0 -0.246,-0.4 q -0.105,-0.052 -1.828,-0.28 -0.3,-0.035 -0.562,-0.088 a 1.98,1.98 0 0 1 -0.088,-0.613 7.075,7.075 0 0 1 0.756,-0.09 l 1.16,0.063 q 1.6,0.078 3.217,0.078 1.037,0 3.445,-0.176 a 3.3,3.3 0 0 1 -0.088,0.633 5.5,5.5 0 0 1 -1.6,0.334 3.3,3.3 0 0 0 -1,0.193 1.193,1.193 0 0 0 -0.334,1 q 0,0.176 0.018,0.387 0.018,0.633 0.018,0.826 v 2.021 l 0.018,1.266 -0.035,1.6350004 0.018,3.059 -0.035,2.883 q 0,0.861 0.053,2.689 l -0.018,2.373 a 4.885,4.885 0 0 0 0.211,1.705 0.646,0.646 0 0 0 0.352,0.352 l 1.424,0.316 a 4.327,4.327 0 0 1 1.257,0.431 0.5,0.5 0 0 1 0.2,0.4 l -0.053,0.211 -0.088,0.018 a 0.988,0.988 0 0 1 -0.229,-0.035 22.278,22.278 0 0 0 -4.023,-0.365 q -1.652,0 -2.347,0.053 -0.695,0.053 -2.892,0.387 a 2.467,2.467 0 0 1 -0.035,-0.334 2.152,2.152 0 0 1 0.035,-0.334 4.526,4.526 0 0 1 1.722,-0.443 2.311,2.311 0 0 0 1.389,-0.562 1.224,1.224 0 0 0 0.334,-0.932 l -0.018,-2.531 q 0.053,-1.143 0.053,-1.248 0,-1.494 -0.053,-4.359 -0.053,-0.246 -0.193,-0.3 a 27.86,27.86 0 0 0 -4.676,0.07 q -0.844,0.053 -1.266,0.053 -0.422,0 -1.767,-0.044 -1.345,-0.044 -2.487,-0.044 -0.615,0 -1.037,0.018 -0.809,0.018 -0.9,0.018 a 0.753,0.753 0 0 0 -0.554,0.158 0.852,0.852 0 0 0 -0.149,0.58 l 0.018,1.23 q 0,0.3 -0.088,3.322 -0.018,0.615 -0.018,1.02 a 18.244,18.244 0 0 0 0.176,3.2 0.773,0.773 0 0 0 0.316,0.51 7.166,7.166 0 0 0 1.371,0.369 9.437,9.437 0 0 1 1.23,0.334 l 0.105,0.176 a 0.167,0.167 0 0 1 -0.07,0.141 0.454,0.454 0 0 1 -0.3,0.088 q -0.141,0 -0.334,-0.009 -0.193,-0.009 -0.756,-0.026 -0.9,-0.018 -2.232,-0.123 -0.861,-0.07 -1.529,-0.07 -1.125,0 -3.6,0.121 -0.473,0.021 -0.807,0.021 z m 27.264,-14.081 h 1.313 l 0.578,0.035 0.455,-0.035 q 1.8,0 2.241,0.035 l 0.018,0.334 q 0,2.479 -0.07,4.8 -0.053,1.371 -0.053,1.564 a 21.161,21.161 0 0 0 0.2,3.867 2.043,2.043 0 0 0 0.951,1.239 3.352,3.352 0 0 0 1.806,0.466 5.841,5.841 0 0 0 2.458,-0.536 7.428,7.428 0 0 0 2,-1.31 11.373,11.373 0 0 0 0.088,-1.477 q 0,-2.619 0.053,-3.533 0.018,-0.545 0.018,-0.949 a 9.086,9.086 0 0 0 -0.281,-3.217 q -0.281,-0.369 -2.145,-0.562 -0.615,-0.07 -0.9,-0.123 a 0.766,0.766 0 0 1 -0.141,-0.352 l 0.053,-0.193 a 7.818,7.818 0 0 1 0.9,-0.053 l 2.795,0.035 q 1.494,-0.035 1.582,-0.035 0.193,0 0.369,0.018 l 0.035,1.283 q -0.123,2.672 -0.141,6.609 l -0.035,1.424 0.07,2.391 a 0.768,0.768 0 0 0 0.281,0.334 2.683,2.683 0 0 0 0.861,0.088 h 0.158 q 0.229,0 1.3,0.105 0.018,0.229 0.018,0.334 v 0.193 a 33.3,33.3 0 0 0 -3.81,1.021 9.78,9.78 0 0 1 -0.984,0.281 q -0.088,-0.615 -0.088,-0.756 v -1.425 q 0,-0.088 -0.018,-0.475 -0.229,0.158 -0.527,0.387 a 16.238,16.238 0 0 1 -2.936,1.811 4.535,4.535 0 0 1 -2,0.51 3.754,3.754 0 0 1 -3.006,-1.371 q -1.178,-1.371 -1.178,-4.676 0,-0.176 0.018,-0.633 0.07,-0.844 0.07,-1.178 0,-0.123 -0.018,-0.773 -0.018,-0.281 -0.018,-0.492 0,-0.158 0.018,-0.712 0.018,-0.554 0.018,-0.782 0,-0.3 -0.018,-0.527 l -0.035,-0.932 0.018,-0.492 a 0.654,0.654 0 0 0 -0.281,-0.51 14.281,14.281 0 0 0 -1.45,-0.343 2.483,2.483 0 0 1 -0.606,-0.149 z M 222.1,2.3090426 v -0.089 a 1.361,1.361 0 0 1 0.141,-0.5 31.217,31.217 0 0 0 4.1,-1.03700003 2.985,2.985 0 0 1 0.387,-0.018 1.641,1.641 0 0 1 0.088,0.36900003 v 5.238 l -0.018,1.67 0.018,1.863 -0.035,1.5120004 q 0,0.088 0.035,0.6 l 1.441,-0.545 1.512,-0.457 q 1.635,-0.264 1.9,-0.264 a 8.456,8.456 0 0 1 3.164,0.563 5.452,5.452 0 0 1 1.699,1.166 5.557,5.557 0 0 1 1.248,1.731 7.651,7.651 0 0 1 0.7,2.883 9.624,9.624 0 0 1 -0.246,2.654 8.544,8.544 0 0 1 -1.459,2.777 6.91,6.91 0 0 1 -2.408,1.74 7.689,7.689 0 0 1 -3.287,0.721 7.732,7.732 0 0 1 -3.023,-0.6 9.941,9.941 0 0 0 -1.6,-0.6 q -0.545,0 -1.389,1.441 l -0.504,-0.009 q -0.07,-1.176 -0.07,-2.9 l 0.035,-2.616 -0.018,-1.334 0.035,-3.828 -0.035,-0.737 0.07,-1.808 v -1.545 l 0.018,-0.6320004 q 0,-0.193 -0.018,-1.528 v -1.053 a 9.771,9.771 0 0 0 -0.265,-3.529 4.179,4.179 0 0 0 -2.216,-1.297 z m 8.364,21.6140004 a 5.286,5.286 0 0 0 4.069,-1.5 6.358,6.358 0 0 0 1.4,-4.474 6.19,6.19 0 0 0 -1.582,-4.412 5.137,5.137 0 0 0 -3.9,-1.687 6.552,6.552 0 0 0 -2.83,0.545 q -0.686,0.334 -0.765,0.615 -0.079,0.281 -0.079,3.762 a 34.149,34.149 0 0 0 0.176,4.834 2.493,2.493 0 0 0 1.09,1.564 4.679,4.679 0 0 0 2.421,0.753 z"
     data-name="Path 16"
     id="Path_16" />
</svg>
