<svg xmlns="http://www.w3.org/2000/svg" width="159.557" height="23.889" viewBox="0 0 159.557 23.889">
    <path id="Path_10" data-name="Path 10" d="M-79.963-21.5l-.018-.844q2.725,0,3.99-.141.492-.053.686-.053.158,0,.475.018a9.753,9.753,0,0,1,1.371,1.406q.141.158.316.352l3.709,4.1.527.633q1.125,1.318,2.048,2.25T-63.264-9.9l4.2,4.658q.615.686,1.582,1.705l.018-.281q-.105-2.443-.105-2.584l.07-1.055-.035-1.652v-.756q0-.721-.123-4.447-.018-.51-.141-1.925t-.123-2.487a5.8,5.8,0,0,0-.229-2.25,3.2,3.2,0,0,0-1.494-.475q-.316-.018-.984-.105a4.92,4.92,0,0,1-.932-.088.634.634,0,0,1-.281-.3,1.619,1.619,0,0,1,.158-.527,3.269,3.269,0,0,1,.932-.141,7.576,7.576,0,0,1,1.222.123,7.954,7.954,0,0,0,1.31.123q.809,0,2.514-.105.967-.07,1.336-.07h.3l-.035.545a2.284,2.284,0,0,1-.773.149,4.028,4.028,0,0,0-.914.149,2,2,0,0,0-.756.334,1.377,1.377,0,0,0-.422.932l.193,5.555.141,2.549-.018.738.105,3.533q.105,3.621.105,6.293,0,.58-.07,2.514l-.82.07q-.616-.7-4.238-4.43-.844-.861-1.143-1.213l-1.512-1.74q-.879-.967-1.143-1.23l-.387-.387q-1.917-2.18-4.977-5.449-.826-.879-2.427-2.742-1-1.178-1.266-1.441a6.256,6.256,0,0,0-.721-.6l-.053.6q0,3.428.176,9.457l.123,5.818q.018.738.088,1.424l.615.141q1.67.158,3.287.475a1.629,1.629,0,0,0,.211.158l-.018.668a1.613,1.613,0,0,1-.457.088,3.932,3.932,0,0,1-.475-.035q-1.74-.141-4.236-.141-1.758,0-3.094.088l-.246.018a4.227,4.227,0,0,1-.457-.035L-79.7-.211l.457-.211.826-.123A8.253,8.253,0,0,0-76.8-.9a1.288,1.288,0,0,0,.545-.369,24.293,24.293,0,0,0,.193-3.551q0-1.09-.053-3.99V-11.2l-.035-4.992a21.664,21.664,0,0,0-.229-3.937,1.165,1.165,0,0,0-.439-.562,3.7,3.7,0,0,0-1.749-.6A11.682,11.682,0,0,1-79.963-21.5Zm41.2,12.217-7.049.051h-1.336q-.809,0-1.652.073a3.1,3.1,0,0,0-.158.721l.018.176v.176l-.018.861A6.858,6.858,0,0,0-48.278-4.6a5.223,5.223,0,0,0,1.934,2.373,5.959,5.959,0,0,0,3.138.87,6.47,6.47,0,0,0,1.6-.246,8.1,8.1,0,0,0,1.688-.9l1.266-1.037.105.7a2.132,2.132,0,0,1-.018.264,7.722,7.722,0,0,1-2,1.758A9.547,9.547,0,0,1-43.031.3,8.583,8.583,0,0,1-45,.457a6.3,6.3,0,0,1-2.461-.51A5.991,5.991,0,0,1-50.282-2.54,7.94,7.94,0,0,1-51.311-6.7a8.916,8.916,0,0,1,.29-1.986,10.445,10.445,0,0,1,1.046-2.584A5.063,5.063,0,0,1-48.727-12.8a8.255,8.255,0,0,1,1.846-1.178,6.88,6.88,0,0,1,2.654-.475,5.306,5.306,0,0,1,2.672.6,5.3,5.3,0,0,1,2.1,2.039,4.772,4.772,0,0,1,.694,2.285Zm-9.809-.633h.826q.9,0,5.344-.281a2.226,2.226,0,0,0,.861-.141.937.937,0,0,0,.316-.6,2.8,2.8,0,0,0-.352-1.239,2.423,2.423,0,0,0-1.081-1.072,3.637,3.637,0,0,0-1.7-.378,3.986,3.986,0,0,0-3.27,1.529A3.536,3.536,0,0,0-48.568-9.914Zm10.512-3.937,6.75.018a.374.374,0,0,1,.264.07.286.286,0,0,1,.07.211.534.534,0,0,1-.262.492,3.734,3.734,0,0,0-1.522.3.673.673,0,0,0-.3.58,1.536,1.536,0,0,0,.035.334A13.009,13.009,0,0,0-32.51-10.6q.6,1.389,2.126,4.5l2.091,4.254A50.567,50.567,0,0,0-25.4-7.658l-1.077-2.819q-.175-.387-.447-1.16a2.841,2.841,0,0,0-.421-.905,4.052,4.052,0,0,0-1.078-.4,4.347,4.347,0,0,1-1.1-.4l-.018-.123a.7.7,0,0,1,.105-.3,2.93,2.93,0,0,1,.668-.105l1,.018h2.2l.668-.018,2.162.035q.264,0,.439-.018h.3q.105,0,.3.018l-.035.563a2.326,2.326,0,0,1-.879.229A5.2,5.2,0,0,0-24.4-12.6a.6.6,0,0,0-.193.369,2.949,2.949,0,0,0,.211.967q.071.176.37,1.09l1.886,4.957q.828,2.215,1.269,3.094A45.109,45.109,0,0,0-18.786-7q.474-1.23,1.263-2.936a4.493,4.493,0,0,0,.51-1.856.913.913,0,0,0-.3-.689,3.344,3.344,0,0,0-1.39-.53,7.371,7.371,0,0,1-.968-.261.453.453,0,0,1-.088-.223.519.519,0,0,1,.193-.343h.264l1.424-.017q.088,0,.809.026t1.406.026q.527,0,1.213-.035h.879a.325.325,0,0,1,.149.088.276.276,0,0,1,.044.176,1.886,1.886,0,0,1-.053.422,3.537,3.537,0,0,0-1.354.4,5.392,5.392,0,0,0-1.336,1.591L-19.259-3.6Q-19.7-2.549-20.785-.369q-.228.457-.342.738a.983.983,0,0,1-.219.369.424.424,0,0,1-.281.088,1.139,1.139,0,0,1-.335-.07q-.493-.967-2.182-5.33Q-24.6-5.735-25-6.549-27.853-.575-28.741.791a3.1,3.1,0,0,1-.385.035,2.7,2.7,0,0,1-.366-.035l-3.324-6.943-3.043-5.941a2.368,2.368,0,0,0-.492-.668,2.968,2.968,0,0,0-1.055-.316q-.422-.07-.65-.105-.018-.264-.018-.4Q-38.074-13.676-38.057-13.852ZM18.756-21.34l.193,2.672q.105,1.213.105,1.652l-.492.088a9.96,9.96,0,0,0-2.927-4.008,6.844,6.844,0,0,0-4.28-1.336,12.313,12.313,0,0,0-4.816.756,9.835,9.835,0,0,0-4.271,3.727,11.242,11.242,0,0,0-1.775,6.4,10.935,10.935,0,0,0,.65,3.885A11.789,11.789,0,0,0,2.979-4.3a12.51,12.51,0,0,0,2.8,2.575A7.811,7.811,0,0,0,8.3-.633a11.625,11.625,0,0,0,2.461.193,10.386,10.386,0,0,0,2.338-.3,5.087,5.087,0,0,0,1.934-.8,2.594,2.594,0,0,0,.888-1.134,8.273,8.273,0,0,0,.237-2.461q0-3.041-.4-3.542T13.2-9.334l-.7-.053-.475.018q-.105-.018-.281-.053l-.264-.439a.4.4,0,0,1,.123-.229,33.9,33.9,0,0,1,3.973-.141q.686,0,2.232.035l1.811.07,1.635-.018q.475,0,1.143.035a.251.251,0,0,1,.158.062.243.243,0,0,1,.035.149A1.821,1.821,0,0,1,22.5-9.4a5.873,5.873,0,0,1-1.143.158l-1.143-.018a1.174,1.174,0,0,0-.932.4,2.68,2.68,0,0,0-.176,1.318l.018,2.3a13.993,13.993,0,0,1-.193,3.023,1.462,1.462,0,0,1-.439.694,5.031,5.031,0,0,1-1.406.729,13.639,13.639,0,0,1-2.777.826,26.109,26.109,0,0,1-4.482.4,15.56,15.56,0,0,1-5.7-.888A11.446,11.446,0,0,1,.29-2.918,10.112,10.112,0,0,1-2-6.117a11.964,11.964,0,0,1-1.037-4.834,12.316,12.316,0,0,1,1.626-6.021,11.943,11.943,0,0,1,5.247-4.79,15.385,15.385,0,0,1,6.926-1.3,19.194,19.194,0,0,1,4.948.527A12.6,12.6,0,0,1,18.756-21.34Zm18.6,18.949a.931.931,0,0,1,.105.334,2.266,2.266,0,0,1-.422.932A3.784,3.784,0,0,1,35.824.158a2.181,2.181,0,0,1-1.16.264,2.309,2.309,0,0,1-1.9-.773,3.293,3.293,0,0,1-.545-1.635L30.252-.615A8.091,8.091,0,0,1,28.67.141a8.476,8.476,0,0,1-2.109.229,1.877,1.877,0,0,1-1.415-.536,1.9,1.9,0,0,1-.519-1.38,4.807,4.807,0,0,1,1.489-2.9,10.912,10.912,0,0,1,4.043-2.76q1.8-.756,2.2-.967.035-.58.035-1.266a5.161,5.161,0,0,0-.626-3.023,2.149,2.149,0,0,0-1.79-.791,3.353,3.353,0,0,0-2.275.949,4.2,4.2,0,0,0-.987,2.25,3.725,3.725,0,0,1-.4.984,2.461,2.461,0,0,1-1.213.492,1.173,1.173,0,0,1-.7-.229.346.346,0,0,1-.176-.281,6.062,6.062,0,0,1,.976-2.065,6.455,6.455,0,0,1,2.461-2.408,5.654,5.654,0,0,1,2.593-.8,6.928,6.928,0,0,1,2.25.272,3.039,3.039,0,0,1,1.3.958,3.053,3.053,0,0,1,.686,1.494,27.474,27.474,0,0,1,.07,2.76l-.053,2.795.018,2.039q0,.4-.018.686-.018.51-.018.756a1.3,1.3,0,0,0,.334.932,1.055,1.055,0,0,0,.791.352,1.379,1.379,0,0,0,1.143-.668l.211-.281A1.638,1.638,0,0,1,37.354-2.391ZM32.2-2.9q.123-2.232.123-3.146,0-.475-.053-1.283a12.115,12.115,0,0,0-2.5,1.283,7.423,7.423,0,0,0-2.1,1.986,2.706,2.706,0,0,0-.564,1.529,1.532,1.532,0,0,0,.467,1.143,1.61,1.61,0,0,0,1.173.457,3.091,3.091,0,0,0,1.323-.387A8.838,8.838,0,0,0,32.2-2.9ZM38.391-.6a1.815,1.815,0,0,1,.773-.264,3.465,3.465,0,0,0,1.09-.281,1.3,1.3,0,0,0,.422-.756A40.959,40.959,0,0,0,40.8-6.346a30.7,30.7,0,0,0-.229-4.834,3.194,3.194,0,0,0-1-.387q-.193-.035-.809-.193v-.589a5.29,5.29,0,0,0,1.686-.776,11.518,11.518,0,0,0,1.792-1.9h.106q.106,0,.335-.018a.449.449,0,0,1,.23.088l-.018,2q0,.615.035,1.318a13.944,13.944,0,0,1,3.369-2.391,5.552,5.552,0,0,1,2.3-.457,4.408,4.408,0,0,1,2.421.58,5.543,5.543,0,0,1,1.7,2.092,11.193,11.193,0,0,1,2.839-2.162,5.871,5.871,0,0,1,2.575-.615A4.345,4.345,0,0,1,61.365-13.3a5.43,5.43,0,0,1,1.283,3.819v1.461l.018,1.6L62.648-2.3a1.521,1.521,0,0,0,.316,1.091q.141.053,1.072.317a2.535,2.535,0,0,1,.686.247.3.3,0,0,1,.105.246,1.267,1.267,0,0,1-.105.457H64.6L62.829-.053q-.316-.018-1-.018-.842,0-2.349.07h-.894q-.193,0-.754.018a2.578,2.578,0,0,1-.018-.281.743.743,0,0,1,.123-.352,5.386,5.386,0,0,1,1.3-.343q.826-.132,1.028-.475a9.279,9.279,0,0,0,.2-2.737q0-5.193-.123-6.02a3.234,3.234,0,0,0-1.119-2.068,3.467,3.467,0,0,0-2.282-.748,4.22,4.22,0,0,0-2.061.554,7.479,7.479,0,0,0-1.973,1.661l-.018.422v2.689l-.07,2.092q0,3.2.062,3.639a.989.989,0,0,0,.3.642,3.445,3.445,0,0,0,1.38.36,7.916,7.916,0,0,1,.791.141.567.567,0,0,1,.211.457.33.33,0,0,1-.158.316h-.3l-.879-.018H49.113l-1.406.018a3.272,3.272,0,0,1-.035-.387l.018-.211a5.448,5.448,0,0,1,1.441-.4,6.173,6.173,0,0,0,1.125-.3.535.535,0,0,0,.158-.229,6.78,6.78,0,0,0,.123-1.406l.088-2.039-.035-2.3L50.607-8.6a4.7,4.7,0,0,0-.877-3.155,2.822,2.822,0,0,0-2.21-.993,5.633,5.633,0,0,0-2.5.615,5.974,5.974,0,0,0-2.078,1.652q-.018.492-.018.9L43-3.674a6.154,6.154,0,0,0,.22,2.206,1.376,1.376,0,0,0,.905.378A3.99,3.99,0,0,1,45.58-.7a.355.355,0,0,1,.158.316q0,.141-.018.334-2.009-.141-2.7-.141-.7,0-1.269.018l-.881.053h-.546l-1.973.07a.771.771,0,0,1-.035-.2A1.787,1.787,0,0,1,38.391-.6ZM79.365-9.281l-7.049.051H70.98q-.809,0-1.652.073a3.1,3.1,0,0,0-.158.721l.018.176v.176l-.018.861A6.858,6.858,0,0,0,69.847-4.6,5.223,5.223,0,0,0,71.78-2.224a5.959,5.959,0,0,0,3.138.87,6.47,6.47,0,0,0,1.6-.246,8.1,8.1,0,0,0,1.688-.9l1.266-1.037.105.7a2.132,2.132,0,0,1-.018.264,7.722,7.722,0,0,1-2,1.758A9.547,9.547,0,0,1,75.094.3a8.583,8.583,0,0,1-1.969.158,6.3,6.3,0,0,1-2.461-.51A5.991,5.991,0,0,1,67.843-2.54,7.94,7.94,0,0,1,66.814-6.7a8.916,8.916,0,0,1,.29-1.986,10.445,10.445,0,0,1,1.046-2.584A5.063,5.063,0,0,1,69.4-12.8a8.255,8.255,0,0,1,1.846-1.178,6.88,6.88,0,0,1,2.654-.475,5.306,5.306,0,0,1,2.672.6,5.3,5.3,0,0,1,2.1,2.039,4.772,4.772,0,0,1,.694,2.285Zm-9.809-.633h.826q.9,0,5.344-.281a2.226,2.226,0,0,0,.861-.141.937.937,0,0,0,.316-.6,2.8,2.8,0,0,0-.352-1.239,2.423,2.423,0,0,0-1.081-1.072,3.637,3.637,0,0,0-1.7-.378,3.986,3.986,0,0,0-3.27,1.529A3.536,3.536,0,0,0,69.557-9.914Z" transform="translate(79.98 23.063)" fill="#fff"/>
</svg>
