<?xml version="1.0" encoding="UTF-8" standalone="no"?>
<svg
   xmlns:dc="http://purl.org/dc/elements/1.1/"
   xmlns:cc="http://creativecommons.org/ns#"
   xmlns:rdf="http://www.w3.org/1999/02/22-rdf-syntax-ns#"
   xmlns:svg="http://www.w3.org/2000/svg"
   xmlns="http://www.w3.org/2000/svg"
   xmlns:sodipodi="http://sodipodi.sourceforge.net/DTD/sodipodi-0.dtd"
   xmlns:inkscape="http://www.inkscape.org/namespaces/inkscape"
   inkscape:version="1.0 (4035a4fb49, 2020-05-01)"
   sodipodi:docname="Sign Out.svg"
   id="svg3"
   version="1.1"
   viewBox="0 0 124.0162 32.438403"
   height="32.438404"
   width="124.0162">
  <metadata
     id="metadata9">
    <rdf:RDF>
      <cc:Work
         rdf:about="">
        <dc:format>image/svg+xml</dc:format>
        <dc:type
           rdf:resource="http://purl.org/dc/dcmitype/StillImage" />
      </cc:Work>
    </rdf:RDF>
  </metadata>
  <defs
     id="defs7" />
  <sodipodi:namedview
     inkscape:current-layer="svg3"
     inkscape:window-maximized="0"
     inkscape:window-y="0"
     inkscape:window-x="0"
     inkscape:cy="16.223993"
     inkscape:cx="62.007"
     inkscape:zoom="9.7408357"
     showgrid="false"
     id="namedview5"
     inkscape:window-height="480"
     inkscape:window-width="828"
     inkscape:pageshadow="2"
     inkscape:pageopacity="0"
     guidetolerance="10"
     gridtolerance="10"
     objecttolerance="10"
     borderopacity="1"
     bordercolor="#666666"
     pagecolor="#ffffff" />
  <path
     fill="#ffffff"
     d="m 12.621,1.4589925 q 0.141,1.16 0.141,1.336 l -0.07,1.564 a 11.431,11.431 0 0 1 -0.088,1.283 0.681,0.681 0 0 1 -0.264,0.07 l -0.158,-0.035 a 6.364,6.364 0 0 0 -1.907,-3.586 4.939,4.939 0 0 0 -3.279,-1.12500005 4.8,4.8 0 0 0 -3.287,1.12500005 3.4,3.4 0 0 0 -1.283,2.619 2.985,2.985 0 0 0 0.9,2.092 20.278,20.278 0 0 0 4.588,2.841 29.679,29.679 0 0 1 4.025,2.3769995 6.229,6.229 0 0 1 1.828,2.138 5.908,5.908 0 0 1 0.615,2.71 6.847,6.847 0 0 1 -0.976,3.537 6.317,6.317 0 0 1 -2.628,2.49 9.746,9.746 0 0 1 -4.38,0.835 13.8,13.8 0 0 1 -4.552,-0.756 5.161,5.161 0 0 1 -1.565,-0.738 0.84,0.84 0 0 1 -0.281,-0.6 4.369,4.369 0 0 1 0.035,-0.486 33.829,33.829 0 0 0 0.264,-3.41 3.034,3.034 0 0 1 0.123,-0.967 0.277,0.277 0 0 1 0.263,-0.123 0.318,0.318 0 0 1 0.255,0.114 0.843,0.843 0 0 1 0.132,0.431 5.96,5.96 0 0 0 2,3.867 5.739,5.739 0 0 0 4.064,1.701 5.673,5.673 0 0 0 2.558,-0.58 4.329,4.329 0 0 0 1.828,-1.679 4.147,4.147 0 0 0 0.659,-2.136 3.923,3.923 0 0 0 -1,-2.6 14.161,14.161 0 0 0 -4.025,-2.751 30.025,30.025 0 0 1 -3.94,-2.295 8.678,8.678 0 0 1 -2.215,-2.4999995 4.96,4.96 0 0 1 -0.544,-2.372 5.3,5.3 0 0 1 1.934,-4.14 7.583,7.583 0 0 1 5.186,-1.70000005 10.483,10.483 0 0 1 3.094,0.4 7.369,7.369 0 0 1 1.95,1.04900005 z m 5.766,0.088 a 1.33,1.33 0 0 1 0.448,-1.00000005 1.521,1.521 0 0 1 1.081,-0.422 1.6,1.6 0 0 1 1.143,0.475 1.406,1.406 0 0 1 0.492,1.02000005 1.434,1.434 0 0 1 -0.492,1.028 1.581,1.581 0 0 1 -1.143,0.483 1.48,1.48 0 0 1 -1.09,-0.439 1.546,1.546 0 0 1 -0.44,-1.142 z m -1.477,9.1229995 0.017,-0.52 q 1.143,-0.3349995 1.23,-0.3879995 a 5.757,5.757 0 0 0 1.327,-0.864 5.987,5.987 0 0 0 1.169,-1.305 2.152,2.152 0 0 1 0.334,-0.035 l 0.211,0.018 q 0.07,0.844 0.07,1.23 0,0.088 -0.035,0.791 v 0.9319995 l 0.018,5.063 -0.052,5.358 a 1.314,1.314 0 0 0 0.211,0.905 3.431,3.431 0 0 0 1.354,0.571 10.687,10.687 0 0 1 1.055,0.334 0.553,0.553 0 0 1 0.053,0.211 0.576,0.576 0 0 1 -0.088,0.264 q -0.687,-0.015 -1.759,-0.085 -1.459,-0.123 -1.934,-0.123 -0.229,0 -2.812,0.088 a 9.429,9.429 0 0 0 -1.02,0.088 1.219,1.219 0 0 1 -0.281,-0.053 0.387,0.387 0 0 1 -0.088,-0.211 q 0,-0.246 0.334,-0.387 0.07,-0.035 1.793,-0.4 a 1.144,1.144 0 0 0 0.738,-0.351 1.864,1.864 0 0 0 0.3,-1.176 q 0.035,-1.351 0.035,-7.407 a 6.2,6.2 0 0 0 -0.105,-1.51 1.334,1.334 0 0 0 -0.466,-0.483 5.108,5.108 0 0 0 -1.609,-0.555 z m 11.97,13.64 q -0.211,-0.105 -1.354,-0.58 a 8.609,8.609 0 0 1 -1.687,-1.28 1.422,1.422 0 0 1 -0.352,-0.932 1.036,1.036 0 0 1 0.264,-0.738 3.847,3.847 0 0 1 1.529,-0.773 15.69,15.69 0 0 0 1.881,-0.721 q -0.229,-0.158 -0.721,-0.457 a 5.02,5.02 0 0 1 -2.619,-4.482 5.357,5.357 0 0 1 1.661,-3.981 5.838,5.838 0 0 1 4.264,-1.6299995 6.693,6.693 0 0 1 2.162,0.334 8.082,8.082 0 0 1 1.67,0.879 q 0.7,0.4389995 0.826,0.4919995 a 2.118,2.118 0 0 0 0.633,0.088 q 0.3,0 1.45,-0.149 1.15,-0.149 1.359,-0.15 a 1.281,1.281 0 0 1 0.668,0.158 2.417,2.417 0 0 1 0.211,1.178 0.553,0.553 0 0 1 -0.149,0.422 0.605,0.605 0 0 1 -0.431,0.141 7.185,7.185 0 0 1 -1.626,-0.308 8.332,8.332 0 0 0 -1.38,-0.308 2.891,2.891 0 0 0 -0.334,0.035 6.253,6.253 0 0 1 0.756,2.76 5.072,5.072 0 0 1 -0.791,2.584 5.226,5.226 0 0 1 -2.18,2.039 6.168,6.168 0 0 1 -2.812,0.7 q -0.105,0 -0.6,-0.018 a 5.685,5.685 0 0 0 -2.971,0.809 q -0.65,0.4 -0.65,0.756 0,0.369 0.633,0.721 1.67,0.9 6.328,1.037 a 8.548,8.548 0 0 1 3.146,0.58 3.612,3.612 0 0 1 1.7,1.5 4.056,4.056 0 0 1 0.571,2.048 4.143,4.143 0 0 1 -0.967,2.637 6.736,6.736 0 0 1 -2.936,1.969 12.546,12.546 0 0 1 -4.518,0.756 10.933,10.933 0 0 1 -4.339,-0.676 5.731,5.731 0 0 1 -2.171,-1.5 2.582,2.582 0 0 1 -0.642,-1.6 3.284,3.284 0 0 1 0.7,-1.714 7.882,7.882 0 0 1 2.918,-2.153 q 0.654,-0.333 0.9,-0.473 z m -0.7,-10.037 a 6.5,6.5 0 0 0 0.475,2.646 3.466,3.466 0 0 0 1.3,1.582 3.113,3.113 0 0 0 1.67,0.519 3.217,3.217 0 0 0 2.538,-1.17 5.333,5.333 0 0 0 1.011,-3.56 5.568,5.568 0 0 0 -1.055,-3.665 3.218,3.218 0 0 0 -2.549,-1.2569995 2.922,2.922 0 0 0 -2.531,1.1999995 6.392,6.392 0 0 0 -0.862,3.705 z m -0.583,16.277 a 6.437,6.437 0 0 0 4.043,1.23 11.34,11.34 0 0 0 3.472,-0.554 5.044,5.044 0 0 0 2.534,-1.576 3.228,3.228 0 0 0 0.8,-1.942 2.443,2.443 0 0 0 -0.281,-1.116 2.579,2.579 0 0 0 -0.765,-0.914 3.73,3.73 0 0 0 -1.274,-0.571 8.321,8.321 0 0 0 -1.6,-0.229 q -2.953,-0.229 -3.621,-0.229 a 5.017,5.017 0 0 0 -3.359,1.261 3.011,3.011 0 0 0 -1.143,2.355 2.97,2.97 0 0 0 1.194,2.285 z m 13.324,-7.98 a 8.562,8.562 0 0 1 1.02,-0.21 3.034,3.034 0 0 0 1.327,-0.368 1.418,1.418 0 0 0 0.22,-0.964 l 0.035,-0.631 q 0.018,-0.35 0.018,-0.893 l -0.035,-5.378 a 2.307,2.307 0 0 0 -0.281,-1.4 3.1,3.1 0 0 0 -1.758,-0.683 v -0.642 a 5.31,5.31 0 0 0 1.969,-0.917 6.319,6.319 0 0 0 1.688,-2.1509995 l 0.6,0.018 q 0.053,0.829 0.053,1.182 v 1.1639995 l 0.018,0.318 q 0.211,-0.141 0.492,-0.353 a 11.515,11.515 0 0 1 2.162,-1.2999995 10.39,10.39 0 0 1 1.969,-0.7 4.915,4.915 0 0 1 1.228,-0.137 4.026,4.026 0 0 1 2.479,0.774 3.509,3.509 0 0 1 1.345,1.8219995 17.9,17.9 0 0 1 0.308,4.162 v 2.658 q 0,0.105 -0.026,0.7 -0.026,0.595 -0.026,1.373 a 6.872,6.872 0 0 0 0.105,1.566 1.053,1.053 0 0 0 0.457,0.458 4.124,4.124 0 0 1 1.969,0.545 v 0.141 a 1.237,1.237 0 0 1 -0.111,0.444 h -0.334 l -2.32,-0.035 -2.283,0.052 q -1.263,0.035 -2.338,-0.017 l -0.105,-0.369 a 0.55,0.55 0 0 1 0.123,-0.281 4.241,4.241 0 0 1 1.336,-0.282 2.966,2.966 0 0 0 0.7,-0.106 1.965,1.965 0 0 0 0.475,-0.282 1.662,1.662 0 0 0 0.211,-0.7 q 0,-0.123 -0.035,-0.493 -0.053,-0.81 -0.07,-4.031 v -0.915 l 0.04,-1.413 a 4.238,4.238 0 0 0 -0.914,-3.133 3.414,3.414 0 0 0 -2.443,-0.863 5.447,5.447 0 0 0 -2.3,0.519 7.787,7.787 0 0 0 -2.18,1.556 q -0.035,0.844 -0.035,1.441 l 0.053,3.885 q 0,3.041 0.088,3.727 a 0.781,0.781 0 0 0 0.123,0.387 1.165,1.165 0 0 0 0.563,0.229 q 0.422,0.088 0.976,0.246 0.554,0.158 0.729,0.193 a 0.661,0.661 0 0 1 0.475,0.352 l -0.025,0.35 H 46.81 l -3.8,-0.053 q -1.315,0.018 -1.664,0.018 h -0.439 l -0.035,-0.229 a 1.693,1.693 0 0 1 0.049,-0.351 z m 28.354,-10.652 a 10.834,10.834 0 0 1 0.431,-3.1899995 13.162,13.162 0 0 1 1.45,-3.032 10.143,10.143 0 0 1 2.461,-2.733 13.749,13.749 0 0 1 3.99,-1.942 14.974,14.974 0 0 1 4.535,-0.58000005 13.4,13.4 0 0 1 3.612,0.492 12.644,12.644 0 0 1 3.208,1.37100005 11.312,11.312 0 0 1 2.884,2.705 9.325,9.325 0 0 1 1.512,2.725 11.93,11.93 0 0 1 0.668,3.9549995 13.936,13.936 0 0 1 -0.448,3.85 10.26,10.26 0 0 1 -1.5,3.023 13.5,13.5 0 0 1 -2.832,2.672 10.734,10.734 0 0 1 -3.325,1.644 14.239,14.239 0 0 1 -4.289,0.624 14.592,14.592 0 0 1 -4.166,-0.545 12.036,12.036 0 0 1 -3.05,-1.327 11.594,11.594 0 0 1 -2.514,-2.312 10.99,10.99 0 0 1 -1.956,-3.375 11.746,11.746 0 0 1 -0.671,-4.025 z m 12.199,10.932 a 12.193,12.193 0 0 0 3.072,-0.412 7.676,7.676 0 0 0 2.821,-1.371 7.4,7.4 0 0 0 1.925,-2.18 11.312,11.312 0 0 0 1.112,-3.137 17.773,17.773 0 0 0 0.422,-3.832 16.336,16.336 0 0 0 -0.7,-4.7289995 8.541,8.541 0 0 0 -1.78,-3.173 8.418,8.418 0 0 0 -2.97,-2.166 9.118,9.118 0 0 0 -3.709,-0.765 9.534,9.534 0 0 0 -3.129,0.527 7.96,7.96 0 0 0 -2.514,1.345 8.179,8.179 0 0 0 -1.828,2.32 12.989,12.989 0 0 0 -1.283,3.313 13.768,13.768 0 0 0 -0.439,3.1999995 14.433,14.433 0 0 0 0.439,3.3 12.258,12.258 0 0 0 1.2,3.2 10.021,10.021 0 0 0 1.881,2.4 7.936,7.936 0 0 0 2.5,1.6 7.946,7.946 0 0 0 2.98,0.56 z M 96.328,9.3499925 h 1.313 l 0.578,0.035 0.455,-0.035 q 1.8,0 2.241,0.035 l 0.018,0.334 q 0,2.4789995 -0.07,4.7999995 -0.053,1.371 -0.053,1.564 a 21.161,21.161 0 0 0 0.2,3.867 2.043,2.043 0 0 0 0.951,1.239 3.352,3.352 0 0 0 1.806,0.466 5.841,5.841 0 0 0 2.458,-0.536 7.428,7.428 0 0 0 2,-1.31 11.373,11.373 0 0 0 0.088,-1.477 q 0,-2.619 0.053,-3.533 0.018,-0.545 0.018,-0.949 a 9.086,9.086 0 0 0 -0.281,-3.217 q -0.281,-0.369 -2.145,-0.562 -0.615,-0.07 -0.9,-0.1229995 a 0.766,0.766 0 0 1 -0.141,-0.352 l 0.053,-0.193 a 7.818,7.818 0 0 1 0.9,-0.053 l 2.795,0.035 q 1.494,-0.035 1.582,-0.035 0.193,0 0.369,0.018 l 0.035,1.2829995 q -0.123,2.672 -0.141,6.609 l -0.035,1.424 0.07,2.391 a 0.768,0.768 0 0 0 0.281,0.334 2.683,2.683 0 0 0 0.861,0.088 h 0.158 q 0.229,0 1.3,0.105 0.018,0.229 0.018,0.334 v 0.193 a 33.3,33.3 0 0 0 -3.81,1.021 9.78,9.78 0 0 1 -0.984,0.281 q -0.088,-0.615 -0.088,-0.756 v -1.425 q 0,-0.088 -0.018,-0.475 -0.229,0.158 -0.527,0.387 a 16.238,16.238 0 0 1 -2.936,1.811 4.535,4.535 0 0 1 -2,0.51 3.754,3.754 0 0 1 -3.006,-1.371 q -1.178,-1.371 -1.178,-4.676 0,-0.176 0.018,-0.633 0.07,-0.844 0.07,-1.178 0,-0.123 -0.018,-0.773 -0.018,-0.281 -0.018,-0.492 0,-0.158 0.018,-0.712 0.018,-0.554 0.018,-0.782 0,-0.3 -0.018,-0.527 l -0.04,-0.931 0.018,-0.492 a 0.654,0.654 0 0 0 -0.281,-0.51 14.281,14.281 0 0 0 -1.45,-0.343 2.483,2.483 0 0 1 -0.606,-0.1489995 z m 22.078,-3.568 0.545,0.018 0.07,1.67 -0.035,2.162 q 0.334,0.018 0.422,0.018 0.457,0 1.74,-0.07 0.826,-0.053 1.582,-0.053 0.352,0 1.055,0.018 0.035,0.352 0.035,0.5629995 a 3.873,3.873 0 0 1 -0.105,0.721 h -0.3 l -2.725,0.088 -1.354,0.035 -0.316,0.035 a 3.35,3.35 0 0 0 -0.141,1.02 l 0.053,2.637 -0.035,4.641 a 4.226,4.226 0 0 0 0.475,2.426 1.6,1.6 0 0 0 1.371,0.615 9.76,9.76 0 0 0 1.723,-0.281 3.078,3.078 0 0 0 1.037,-0.58 h 0.158 a 0.345,0.345 0 0 1 0.255,0.1 0.345,0.345 0 0 1 0.1,0.255 l -0.018,0.123 a 4.567,4.567 0 0 1 -1.731,1.2 7.327,7.327 0 0 1 -2.593,0.378 3.2,3.2 0 0 1 -1.89,-0.527 2.341,2.341 0 0 1 -0.958,-1.248 14.273,14.273 0 0 1 -0.211,-3.146 l 0.07,-3.955 -0.018,-1.9 v -0.7 q 0,-0.492 -0.035,-0.984 l -0.3,-0.018 -1.441,0.053 -0.141,0.018 a 0.419,0.419 0 0 1 -0.29,-0.088 0.275,0.275 0 0 1 -0.1,-0.211 0.464,0.464 0 0 1 0.132,-0.343 3.266,3.266 0 0 1 0.8,-0.413 4.159,4.159 0 0 0 1.063,-0.7289995 5.778,5.778 0 0 0 1.028,-1.187 10.408,10.408 0 0 0 0.6,-1.336 q 0.282,-0.725 0.423,-1.024 z"
     data-name="Path 17"
     id="Path_17" />
</svg>
