<?xml version="1.0" encoding="UTF-8" standalone="no"?>
<svg
   xmlns:dc="http://purl.org/dc/elements/1.1/"
   xmlns:cc="http://creativecommons.org/ns#"
   xmlns:rdf="http://www.w3.org/1999/02/22-rdf-syntax-ns#"
   xmlns:svg="http://www.w3.org/2000/svg"
   xmlns="http://www.w3.org/2000/svg"
   xmlns:sodipodi="http://sodipodi.sourceforge.net/DTD/sodipodi-0.dtd"
   xmlns:inkscape="http://www.inkscape.org/namespaces/inkscape"
   sodipodi:docname="author-github-reg-ffffff.svg"
   inkscape:version="1.0 (4035a4fb49, 2020-05-01)"
   id="svg8"
   version="1.1"
   viewBox="0 0 19.84375 7.9375"
   height="7.9375mm"
   width="19.84375mm">
  <defs
     id="defs2" />
  <sodipodi:namedview
     inkscape:window-maximized="1"
     inkscape:window-y="-9"
     inkscape:window-x="-9"
     inkscape:window-height="1001"
     inkscape:window-width="1920"
     fit-margin-bottom="0"
     fit-margin-right="0"
     fit-margin-left="0"
     fit-margin-top="0"
     showgrid="false"
     inkscape:document-rotation="0"
     inkscape:current-layer="layer1"
     inkscape:document-units="mm"
     inkscape:cy="24.422213"
     inkscape:cx="27.249987"
     inkscape:zoom="11.313708"
     inkscape:pageshadow="2"
     inkscape:pageopacity="0.0"
     borderopacity="1.0"
     bordercolor="#666666"
     pagecolor="#ffffff"
     id="base" />
  <metadata
     id="metadata5">
    <rdf:RDF>
      <cc:Work
         rdf:about="">
        <dc:format>image/svg+xml</dc:format>
        <dc:type
           rdf:resource="http://purl.org/dc/dcmitype/StillImage" />
        <dc:title />
      </cc:Work>
    </rdf:RDF>
  </metadata>
  <g
     transform="translate(127,80.886909)"
     id="layer1"
     inkscape:groupmode="layer"
     inkscape:label="Layer 1">
    <rect
       style="opacity:0.997;fill:#edc9a2;stroke:none;stroke-width:0.189209;stroke-linejoin:round;stroke-dasharray:0.567625, 0.18920899999999999;fill-opacity:1"
       id="rect843-7"
       width="19.84375"
       height="7.9375"
       x="-127"
       y="-80.886909" />
    <path
       id="rect833"
       style="opacity:0.997;fill:#ffffff;stroke:none;stroke-width:7.80794;stroke-linejoin:round;stroke-miterlimit:4;stroke-dasharray:none;fill-opacity:1"
       d="M 0 0 L 0 30 L 75 30 L 75 0 L 0 0 z M 14.84375 3 L 14.845703 3 C 21.556104 3.0010245 26.998047 8.226783 26.998047 15.109375 C 26.998047 20.613013 23.717646 25.323086 18.878906 26.970703 C 18.264431 27.084849 18.042969 26.691723 18.042969 26.369141 C 18.042969 25.962199 18.058594 23.893137 18.058594 22.220703 C 18.058594 21.054469 17.679528 20.310019 17.234375 19.917969 C 19.939232 19.605319 22.789062 19.222599 22.789062 14.433594 C 22.789062 13.07381 22.315214 12.390119 21.541016 11.511719 C 21.666874 11.189144 22.078907 9.8626836 21.416016 8.140625 C 20.404727 7.8130874 18.076172 9.4804688 18.076172 9.4804688 C 17.108462 9.2025639 16.069702 9.0585938 15.039062 9.0585938 C 14.008435 9.0585938 12.967748 9.2025601 12 9.4804688 C 12 9.4804688 9.6714444 7.8180423 8.6601562 8.140625 C 7.9971905 9.8577211 8.4092992 11.189136 8.5351562 11.511719 C 7.760959 12.385156 7.3925781 13.068848 7.3925781 14.433594 C 7.3925781 19.207712 10.121353 19.610277 12.826172 19.917969 C 12.477775 20.245506 12.163852 20.79581 12.052734 21.589844 C 11.360816 21.917381 9.5850568 22.468339 8.5253906 20.552734 C 7.8624615 19.371609 6.6582031 19.273438 6.6582031 19.273438 C 5.4726787 19.25855 6.5800781 20.037109 6.5800781 20.037109 C 7.3736277 20.40931 7.9257812 21.853516 7.9257812 21.853516 C 8.6370883 24.076808 12.023438 23.332031 12.023438 23.332031 C 12.023438 24.374198 12.039062 26.071215 12.039062 26.378906 C 12.039062 26.701485 11.820523 27.09461 11.201172 26.980469 C 6.3769817 25.322927 3 20.613013 3 15.109375 C 3 8.226784 8.1334507 3.0010261 14.84375 3 z M 54.748047 4.4277344 L 55.041016 4.4277344 L 55.041016 8.6796875 C 55.510735 8.1634116 55.883129 7.8333322 56.158203 7.6894531 C 56.433252 7.541346 56.707348 7.4667969 56.982422 7.4667969 C 57.312501 7.4667969 57.597008 7.5582627 57.833984 7.7402344 C 58.070835 7.922206 58.246934 8.2083405 58.361328 8.5976562 C 58.441706 8.8684896 58.480469 9.3626333 58.480469 10.082031 L 58.480469 12.138672 C 58.480469 12.506836 58.511108 12.759116 58.570312 12.894531 C 58.612643 12.9961 58.683613 13.077481 58.785156 13.136719 C 58.8867 13.195957 59.072884 13.224609 59.34375 13.224609 L 59.34375 13.453125 L 56.488281 13.453125 L 56.488281 13.224609 L 56.621094 13.224609 C 56.891935 13.224609 57.07977 13.183919 57.185547 13.103516 C 57.291374 13.018879 57.365872 12.897134 57.408203 12.736328 C 57.420802 12.668624 57.427734 12.468753 57.427734 12.138672 L 57.427734 10.082031 C 57.427734 9.447267 57.393951 9.0309226 57.326172 8.8320312 C 57.262676 8.6331281 57.159499 8.4859922 57.015625 8.3886719 C 56.871751 8.2871034 56.697278 8.2363281 56.494141 8.2363281 C 56.286771 8.2363281 56.071933 8.290356 55.847656 8.4003906 C 55.623404 8.5104253 55.354187 8.7321078 55.041016 9.0664062 L 55.041016 12.138672 C 55.041016 12.536457 55.061185 12.78549 55.103516 12.882812 C 55.15013 12.980148 55.233145 13.061202 55.351562 13.128906 C 55.474271 13.192377 55.684229 13.224609 55.980469 13.224609 L 55.980469 13.453125 L 53.097656 13.453125 L 53.097656 13.224609 C 53.355773 13.224609 53.558899 13.183919 53.707031 13.103516 C 53.791693 13.06121 53.859511 12.981782 53.910156 12.863281 C 53.961054 12.74478 53.986328 12.502593 53.986328 12.138672 L 53.986328 6.8769531 C 53.986328 6.2125651 53.969311 5.8046856 53.935547 5.6523438 C 53.905815 5.5000036 53.858543 5.3968268 53.791016 5.3417969 C 53.72752 5.2867922 53.639407 5.2578125 53.529297 5.2578125 C 53.440352 5.2578125 53.296459 5.2916711 53.097656 5.359375 L 53.009766 5.1386719 L 54.748047 4.4277344 z M 37.972656 4.6484375 L 38.193359 4.6484375 L 41.189453 11.808594 C 41.430587 12.384112 41.649029 12.760091 41.84375 12.933594 C 42.042553 13.102866 42.318577 13.197585 42.669922 13.21875 L 42.669922 13.453125 L 39.273438 13.453125 L 39.273438 13.21875 C 39.616204 13.201868 39.846343 13.144261 39.964844 13.046875 C 40.087552 12.94954 40.148437 12.831047 40.148438 12.691406 C 40.148438 12.505202 40.063854 12.210604 39.894531 11.808594 L 39.375 10.572266 L 36.042969 10.572266 L 35.458984 11.929688 C 35.31511 12.263986 35.242188 12.514648 35.242188 12.679688 C 35.242188 12.810851 35.303073 12.925775 35.425781 13.027344 C 35.552773 13.124679 35.823617 13.189144 36.238281 13.21875 L 36.238281 13.453125 L 33.529297 13.453125 L 33.529297 13.21875 C 33.889007 13.155279 34.120797 13.072272 34.226562 12.970703 C 34.4425 12.767591 34.681085 12.354504 34.943359 11.732422 L 37.972656 4.6484375 z M 51.21875 5.7285156 L 51.416016 5.7285156 L 51.416016 7.6386719 L 52.775391 7.6386719 L 52.775391 8.0839844 L 51.416016 8.0839844 L 51.416016 11.853516 C 51.416016 12.230143 51.468392 12.484049 51.574219 12.615234 C 51.684329 12.746409 51.824944 12.8125 51.994141 12.8125 C 52.133731 12.8125 52.269165 12.770183 52.400391 12.685547 C 52.531666 12.596678 52.633267 12.468096 52.705078 12.298828 L 52.953125 12.298828 C 52.804968 12.713541 52.595009 13.026693 52.324219 13.238281 C 52.053378 13.445651 51.774076 13.548828 51.486328 13.548828 C 51.291556 13.548828 51.100166 13.496427 50.914062 13.390625 C 50.727867 13.28059 50.590797 13.124665 50.501953 12.925781 C 50.413008 12.722644 50.369141 12.413074 50.369141 11.994141 L 50.369141 8.0839844 L 49.449219 8.0839844 L 49.449219 7.8730469 C 49.682038 7.7799445 49.918997 7.624346 50.160156 7.4042969 C 50.405574 7.1800197 50.622062 6.916021 50.8125 6.6113281 C 50.90976 6.4505218 51.045169 6.1559248 51.21875 5.7285156 z M 37.736328 6.6230469 L 36.238281 10.101562 L 39.197266 10.101562 L 37.736328 6.6230469 z M 62.677734 7.4667969 C 63.557936 7.4667969 64.263684 7.8020845 64.796875 8.4707031 C 65.249688 9.0419913 65.476562 9.6969394 65.476562 10.4375 C 65.476562 10.958006 65.351263 11.486328 65.101562 12.019531 C 64.851869 12.552734 64.506494 12.953779 64.066406 13.224609 C 63.630551 13.495443 63.144871 13.630859 62.607422 13.630859 C 61.731453 13.630859 61.035815 13.282224 60.519531 12.583984 C 60.083651 11.995769 59.865234 11.335613 59.865234 10.603516 C 59.865234 10.070312 59.995445 9.540362 60.257812 9.015625 C 60.52442 8.4866524 60.874993 8.0973293 61.306641 7.8476562 C 61.738263 7.5937508 62.19529 7.4667969 62.677734 7.4667969 z M 67.765625 7.4667969 L 68.035156 7.4667969 L 68.035156 8.7753906 C 68.521808 7.9036476 69.021153 7.4667969 69.533203 7.4667969 C 69.766022 7.4667969 69.95711 7.5397197 70.109375 7.6835938 C 70.261816 7.8232341 70.337891 7.9856703 70.337891 8.171875 C 70.337891 8.3369144 70.283938 8.4775392 70.173828 8.5917969 C 70.063718 8.7060646 69.931536 8.7617188 69.779297 8.7617188 C 69.631139 8.7617188 69.465451 8.690749 69.279297 8.546875 C 69.097376 8.3987679 68.961967 8.3242185 68.873047 8.3242188 C 68.796952 8.3242188 68.713945 8.3665357 68.625 8.4511719 C 68.434512 8.6246774 68.238218 8.9108111 68.035156 9.3085938 L 68.035156 12.095703 C 68.035156 12.417316 68.073919 12.659179 68.154297 12.824219 C 68.209226 12.938486 68.307675 13.035158 68.447266 13.111328 C 68.586856 13.187498 68.788356 13.224609 69.050781 13.224609 L 69.050781 13.453125 L 66.072266 13.453125 L 66.072266 13.224609 C 66.36848 13.224609 66.588548 13.179034 66.732422 13.085938 C 66.838249 13.018234 66.912747 12.909826 66.955078 12.761719 C 66.975236 12.689782 66.986328 12.485029 66.986328 12.146484 L 66.986328 9.8925781 C 66.986328 9.2154959 66.970887 8.8124987 66.941406 8.6855469 C 66.915957 8.5543721 66.865157 8.4596536 66.789062 8.4003906 C 66.717257 8.3411528 66.625735 8.3125 66.515625 8.3125 C 66.384349 8.3125 66.237204 8.3427791 66.072266 8.40625 L 66.007812 8.1777344 L 67.765625 7.4667969 z M 42.833984 7.6386719 L 44.871094 7.6386719 L 44.871094 11.529297 C 44.871094 12.070961 44.964186 12.426431 45.150391 12.595703 C 45.340879 12.764976 45.56938 12.849609 45.835938 12.849609 C 46.017849 12.849609 46.224564 12.793945 46.453125 12.679688 C 46.685944 12.56542 46.96004 12.346996 47.277344 12.025391 L 47.277344 8.7304688 C 47.277344 8.40039 47.216459 8.1787108 47.09375 8.0644531 C 46.975325 7.9459523 46.724676 7.8814878 46.34375 7.8730469 L 46.34375 7.6386719 L 48.324219 7.6386719 L 48.324219 11.162109 C 48.324219 11.834959 48.339408 12.248045 48.369141 12.400391 C 48.402904 12.548498 48.453705 12.6517 48.521484 12.710938 C 48.593547 12.770165 48.676555 12.798828 48.769531 12.798828 C 48.900807 12.798828 49.047952 12.763343 49.212891 12.691406 L 49.302734 12.914062 L 47.5625 13.630859 L 47.277344 13.630859 L 47.277344 12.400391 C 46.777993 12.942055 46.39714 13.282226 46.134766 13.421875 C 45.872416 13.561516 45.594741 13.630859 45.302734 13.630859 C 44.976889 13.630859 44.694334 13.537767 44.453125 13.351562 C 44.216275 13.161135 44.05026 12.917308 43.957031 12.621094 C 43.863803 12.324869 43.818359 11.906901 43.818359 11.365234 L 43.818359 8.7695312 C 43.818359 8.4944658 43.787728 8.3030596 43.728516 8.1972656 C 43.669303 8.0914641 43.581316 8.012036 43.462891 7.9570312 C 43.348749 7.8977945 43.138791 7.8688138 42.833984 7.8730469 L 42.833984 7.6386719 z M 62.480469 7.8808594 C 62.256217 7.8808594 62.029317 7.9485765 61.800781 8.0839844 C 61.576529 8.2151592 61.395551 8.4469306 61.255859 8.78125 C 61.116269 9.1155593 61.044922 9.5455765 61.044922 10.070312 C 61.044922 10.916665 61.212563 11.646159 61.546875 12.259766 C 61.88542 12.873372 62.330737 13.179688 62.880859 13.179688 C 63.291341 13.179688 63.629877 13.010417 63.896484 12.671875 C 64.163067 12.333335 64.294922 11.752929 64.294922 10.927734 C 64.294922 9.8951854 64.073228 9.0826804 63.628906 8.4902344 C 63.328434 8.083983 62.945955 7.8808594 62.480469 7.8808594 z M 45.417969 17.427734 C 45.595607 17.427734 45.746306 17.490246 45.869141 17.617188 C 45.996133 17.739892 46.058594 17.890611 46.058594 18.068359 C 46.058594 18.246098 45.996133 18.398444 45.869141 18.525391 C 45.746432 18.652358 45.595733 18.714844 45.417969 18.714844 C 45.240331 18.714844 45.087976 18.652358 44.960938 18.525391 C 44.833945 18.398449 44.769531 18.246103 44.769531 18.068359 C 44.769531 17.890621 44.832369 17.739902 44.955078 17.617188 C 45.08207 17.490246 45.236047 17.427734 45.417969 17.427734 z M 52.564453 17.427734 L 52.857422 17.427734 L 52.857422 21.679688 C 53.327142 21.163412 53.699561 20.833332 53.974609 20.689453 C 54.249683 20.541346 54.523754 20.466797 54.798828 20.466797 C 55.128907 20.466797 55.413414 20.558263 55.650391 20.740234 C 55.887493 20.922206 56.063618 21.20834 56.177734 21.597656 C 56.258112 21.86849 56.296875 22.362631 56.296875 23.082031 L 56.296875 25.138672 C 56.296875 25.506836 56.327506 25.759116 56.386719 25.894531 C 56.429049 25.9961 56.500021 26.077481 56.601562 26.136719 C 56.703106 26.195957 56.889315 26.224609 57.160156 26.224609 L 57.160156 26.453125 L 54.304688 26.453125 L 54.304688 26.224609 L 54.4375 26.224609 C 54.708316 26.224609 54.896152 26.183919 55.001953 26.103516 C 55.10778 26.018879 55.182279 25.897134 55.224609 25.736328 C 55.237208 25.668624 55.244141 25.468753 55.244141 25.138672 L 55.244141 23.082031 C 55.244141 22.447265 55.210358 22.030923 55.142578 21.832031 C 55.079082 21.633127 54.975905 21.485992 54.832031 21.388672 C 54.688157 21.287103 54.513659 21.236328 54.310547 21.236328 C 54.103177 21.236328 53.88834 21.290356 53.664062 21.400391 C 53.439813 21.510425 53.170594 21.732107 52.857422 22.066406 L 52.857422 25.138672 C 52.857422 25.536457 52.877591 25.785484 52.919922 25.882812 C 52.966536 25.980148 53.049544 26.061202 53.167969 26.128906 C 53.290677 26.192377 53.500636 26.224609 53.796875 26.224609 L 53.796875 26.453125 L 50.914062 26.453125 L 50.914062 26.224609 C 51.172204 26.224609 51.37533 26.183919 51.523438 26.103516 C 51.608097 26.061185 51.675919 25.981757 51.726562 25.863281 C 51.77746 25.74478 51.802734 25.502593 51.802734 25.138672 L 51.802734 19.876953 C 51.802734 19.212565 51.785717 18.804686 51.751953 18.652344 C 51.722221 18.500004 51.674949 18.396827 51.607422 18.341797 C 51.543926 18.286792 51.455813 18.257812 51.345703 18.257812 C 51.256758 18.257812 51.112891 18.291671 50.914062 18.359375 L 50.826172 18.138672 L 52.564453 17.427734 z M 65.457031 17.427734 L 65.744141 17.427734 L 65.742188 21.642578 C 66.305035 20.859702 66.912762 20.466797 67.564453 20.466797 C 68.161115 20.466797 68.682607 20.724285 69.126953 21.236328 C 69.571274 21.74414 69.792969 22.439779 69.792969 23.324219 C 69.792969 24.356771 69.449203 25.187826 68.763672 25.818359 C 68.175451 26.360024 67.520503 26.630859 66.796875 26.630859 C 66.45833 26.630859 66.112963 26.569974 65.761719 26.447266 C 65.414733 26.324557 65.059256 26.139986 64.695312 25.894531 L 64.695312 19.871094 C 64.695312 19.210936 64.678295 18.804686 64.644531 18.652344 C 64.614799 18.500004 64.567528 18.396827 64.5 18.341797 C 64.43222 18.286792 64.345684 18.257812 64.244141 18.257812 C 64.125715 18.257812 63.978595 18.291671 63.800781 18.359375 L 63.710938 18.138672 L 65.457031 17.427734 z M 39.152344 17.648438 C 39.46549 17.648438 39.749998 17.673838 40.003906 17.724609 C 40.262048 17.775381 40.625983 17.888994 41.095703 18.0625 C 41.332805 18.151369 41.490015 18.195313 41.570312 18.195312 C 41.65069 18.195312 41.718508 18.159828 41.773438 18.087891 C 41.832645 18.011721 41.868261 17.864254 41.880859 17.648438 L 42.117188 17.648438 L 42.339844 20.365234 L 42.117188 20.365234 C 41.892936 19.688152 41.603549 19.178705 41.248047 18.835938 C 40.736022 18.340819 40.077489 18.09375 39.273438 18.09375 C 38.177425 18.09375 37.342773 18.527019 36.771484 19.394531 C 36.293299 20.126628 36.054688 20.998374 36.054688 22.009766 C 36.054688 22.830729 36.21387 23.580735 36.53125 24.257812 C 36.84863 24.934895 37.26334 25.430665 37.775391 25.748047 C 38.291649 26.061198 38.819646 26.21875 39.361328 26.21875 C 39.678708 26.21875 39.986989 26.178059 40.283203 26.097656 C 40.579417 26.017253 40.863598 25.898756 41.138672 25.742188 L 41.138672 23.253906 C 41.138672 22.822264 41.104889 22.541341 41.037109 22.410156 C 40.973613 22.274748 40.872012 22.173198 40.732422 22.105469 C 40.597115 22.033532 40.356877 21.998047 40.009766 21.998047 L 40.009766 21.755859 L 43.341797 21.755859 L 43.341797 21.998047 L 43.183594 21.998047 C 42.853515 21.998047 42.626615 22.108081 42.503906 22.328125 C 42.419245 22.484698 42.376953 22.79264 42.376953 23.253906 L 42.376953 25.888672 C 41.890301 26.151042 41.4095 26.344076 40.935547 26.466797 C 40.461594 26.589506 39.935223 26.650391 39.355469 26.650391 C 37.692376 26.650391 36.429676 26.117188 35.566406 25.050781 C 34.918923 24.250978 34.595703 23.328449 34.595703 22.283203 C 34.595703 21.525718 34.776682 20.799481 35.140625 20.105469 C 35.572272 19.280274 36.164709 18.645506 36.917969 18.201172 C 37.548495 17.833008 38.293308 17.648437 39.152344 17.648438 z M 49.035156 18.728516 L 49.232422 18.728516 L 49.232422 20.638672 L 50.591797 20.638672 L 50.591797 21.083984 L 49.232422 21.083984 L 49.232422 24.853516 C 49.232422 25.230143 49.284798 25.484049 49.390625 25.615234 C 49.500735 25.746409 49.641375 25.8125 49.810547 25.8125 C 49.950137 25.8125 50.085546 25.770183 50.216797 25.685547 C 50.348072 25.596678 50.449673 25.468096 50.521484 25.298828 L 50.769531 25.298828 C 50.621374 25.713541 50.411416 26.026693 50.140625 26.238281 C 49.869784 26.445651 49.590482 26.548828 49.302734 26.548828 C 49.107963 26.548828 48.916573 26.496427 48.730469 26.390625 C 48.544264 26.28059 48.407203 26.124665 48.318359 25.925781 C 48.229414 25.722669 48.185547 25.413099 48.185547 24.994141 L 48.185547 21.083984 L 47.265625 21.083984 L 47.265625 20.873047 C 47.498444 20.779945 47.735432 20.624346 47.976562 20.404297 C 48.22198 20.18002 48.438443 19.916021 48.628906 19.611328 C 48.726166 19.450522 48.861575 19.155925 49.035156 18.728516 z M 7.2617188 19.667969 C 7.2973868 19.661733 7.3402939 19.664758 7.3886719 19.679688 C 7.4846719 19.729301 7.5340157 19.80853 7.5 19.873047 C 7.4663622 19.94259 7.3684959 19.957828 7.2910156 19.908203 C 7.1950156 19.858578 7.1456718 19.77936 7.1796875 19.714844 C 7.1965064 19.690088 7.2260495 19.674205 7.2617188 19.667969 z M 7.8242188 20.087891 C 7.8695719 20.098436 7.916338 20.126312 7.9550781 20.166016 C 8.0374718 20.260315 8.0510214 20.374203 7.9882812 20.423828 C 7.9251643 20.488345 7.8138084 20.454408 7.7363281 20.375 C 7.6539344 20.280701 7.6403848 20.166801 7.703125 20.117188 C 7.7346841 20.084929 7.7788644 20.077346 7.8242188 20.087891 z M 45.666016 20.466797 L 45.945312 20.466797 L 45.945312 25.138672 C 45.945312 25.502603 45.970839 25.746419 46.021484 25.869141 C 46.076414 25.987641 46.154316 26.077481 46.255859 26.136719 C 46.361686 26.195957 46.551123 26.224609 46.826172 26.224609 L 46.826172 26.453125 L 44.001953 26.453125 L 44.001953 26.224609 C 44.285468 26.224609 44.47493 26.197583 44.572266 26.142578 C 44.669525 26.087573 44.747553 25.996108 44.802734 25.869141 C 44.861947 25.742199 44.890625 25.498382 44.890625 25.138672 L 44.890625 22.898438 C 44.890625 22.267904 44.872032 21.860025 44.833984 21.673828 C 44.804252 21.53842 44.756603 21.445328 44.693359 21.394531 C 44.629863 21.339527 44.543704 21.3125 44.433594 21.3125 C 44.315169 21.3125 44.171276 21.342779 44.001953 21.40625 L 43.914062 21.177734 L 45.666016 20.466797 z M 57.255859 20.638672 L 59.292969 20.638672 L 59.292969 24.529297 C 59.292969 25.070961 59.386061 25.426431 59.572266 25.595703 C 59.762754 25.764976 59.991281 25.849609 60.257812 25.849609 C 60.439734 25.849609 60.646439 25.793954 60.875 25.679688 C 61.107819 25.56542 61.381915 25.346996 61.699219 25.025391 L 61.699219 21.730469 C 61.699219 21.40039 61.638334 21.178711 61.515625 21.064453 C 61.3972 20.945978 61.146551 20.881513 60.765625 20.873047 L 60.765625 20.638672 L 62.746094 20.638672 L 62.746094 24.162109 C 62.746094 24.834959 62.761283 25.248045 62.791016 25.400391 C 62.824779 25.548498 62.87558 25.6517 62.943359 25.710938 C 63.01517 25.770174 63.098178 25.798828 63.191406 25.798828 C 63.322682 25.798828 63.469802 25.763343 63.634766 25.691406 L 63.724609 25.914062 L 61.984375 26.630859 L 61.699219 26.630859 L 61.699219 25.400391 C 61.199893 25.942055 60.819015 26.282226 60.556641 26.421875 C 60.294266 26.561516 60.01659 26.630859 59.724609 26.630859 C 59.398764 26.630859 59.116235 26.537767 58.875 26.351562 C 58.63815 26.161126 58.472109 25.917308 58.378906 25.621094 C 58.285678 25.324869 58.240234 24.906901 58.240234 24.365234 L 58.240234 21.769531 C 58.240234 21.494465 58.209603 21.30306 58.150391 21.197266 C 58.091178 21.091464 58.003191 21.012036 57.884766 20.957031 C 57.770624 20.897793 57.560666 20.868814 57.255859 20.873047 L 57.255859 20.638672 z M 8.3359375 20.734375 C 8.3855438 20.752984 8.4329701 20.794504 8.4667969 20.851562 C 8.5442772 20.965704 8.5442772 21.093687 8.4667969 21.158203 C 8.4040567 21.207828 8.2747459 21.159064 8.1972656 21.044922 C 8.1197853 20.93078 8.1197853 20.801578 8.1972656 20.751953 C 8.2360058 20.719695 8.2863312 20.715766 8.3359375 20.734375 z M 67.0625 21.369141 C 66.838248 21.369141 66.614953 21.426748 66.390625 21.541016 C 66.221302 21.625652 66.004512 21.794922 65.742188 22.048828 L 65.742188 25.527344 C 65.958125 25.738922 66.181747 25.899728 66.410156 26.009766 C 66.642975 26.115567 66.87996 26.167969 67.121094 26.167969 C 67.506202 26.167969 67.863281 25.956379 68.193359 25.533203 C 68.527646 25.110027 68.695312 24.493816 68.695312 23.685547 C 68.695312 22.940758 68.527646 22.370444 68.193359 21.972656 C 67.863281 21.570638 67.485681 21.369141 67.0625 21.369141 z M 8.8886719 21.433594 C 8.9461207 21.441658 9.0092087 21.474179 9.0625 21.53125 C 9.1592559 21.625549 9.1877402 21.773374 9.125 21.837891 C 9.0622598 21.917298 8.921665 21.903204 8.8105469 21.789062 C 8.6994288 21.694775 8.6705666 21.544985 8.7480469 21.480469 C 8.779417 21.440765 8.8312231 21.425529 8.8886719 21.433594 z M 9.8222656 21.986328 C 9.9677774 22.031002 10.061486 22.146843 10.03125 22.246094 C 10.002148 22.345344 9.8563258 22.393375 9.7304688 22.34375 C 9.5853349 22.313967 9.4894218 22.200813 9.5234375 22.101562 C 9.5582543 22.003074 9.6969773 21.951714 9.8222656 21.986328 z M 11.662109 22.017578 C 11.80233 22.002687 11.932148 22.065857 11.947266 22.160156 C 11.961628 22.259407 11.86483 22.3539 11.724609 22.388672 C 11.579476 22.423406 11.454571 22.359016 11.439453 22.259766 C 11.425091 22.145624 11.521889 22.05235 11.662109 22.017578 z M 10.755859 22.146484 C 10.900993 22.131744 11.027344 22.210077 11.027344 22.324219 C 11.027344 22.423469 10.915989 22.503906 10.775391 22.503906 C 10.615517 22.518646 10.503906 22.43836 10.503906 22.324219 C 10.503906 22.224968 10.615261 22.146484 10.755859 22.146484 z "
       transform="matrix(0.26458333,0,0,0.26458333,-127,-80.886909)" />
    <text
       id="text856"
       y="-78.430061"
       x="-113.25111"
       style="font-size:2.64583333px;line-height:0.5;font-family:Garamond;-inkscape-font-specification:Garamond;text-align:center;text-anchor:middle;stroke-width:0.264583;"
       xml:space="preserve"><tspan
         style="stroke-width:0.264583;font-size:2.64583333px;"
         y="-78.430061"
         x="-113.25111"
         id="tspan854"
         sodipodi:role="line" /></text>
    <text
       id="text860"
       y="-68.20108"
       x="-121.42485"
       style="font-size:7.9375px;line-height:0.5;font-family:Garamond;-inkscape-font-specification:Garamond;text-align:center;text-anchor:middle;stroke-width:0.264583"
       xml:space="preserve"><tspan
         style="stroke-width:0.264583"
         y="-68.20108"
         x="-121.42485"
         id="tspan858"
         sodipodi:role="line" /></text>
    <text
       id="text864"
       y="-77.296135"
       x="-117.43248"
       style="font-size:2.64583px;line-height:0.5;font-family:Garamond;-inkscape-font-specification:Garamond;text-align:center;text-anchor:middle;stroke-width:0.264583;fill:#00ffff;"
       xml:space="preserve"><tspan
         style="stroke-width:0.264583;fill:#00ffff;"
         y="-77.296135"
         x="-117.43248"
         id="tspan862"
         sodipodi:role="line" /></text>
  </g>
</svg>
