<?xml version="1.0" encoding="UTF-8" standalone="no"?>
<svg
   xmlns:dc="http://purl.org/dc/elements/1.1/"
   xmlns:cc="http://creativecommons.org/ns#"
   xmlns:rdf="http://www.w3.org/1999/02/22-rdf-syntax-ns#"
   xmlns:svg="http://www.w3.org/2000/svg"
   xmlns="http://www.w3.org/2000/svg"
   xmlns:sodipodi="http://sodipodi.sourceforge.net/DTD/sodipodi-0.dtd"
   xmlns:inkscape="http://www.inkscape.org/namespaces/inkscape"
   sodipodi:docname="new-game-reg-ffffff.svg"
   inkscape:version="1.0 (4035a4fb49, 2020-05-01)"
   id="svg8"
   version="1.1"
   viewBox="0 0 19.84375 7.9375"
   height="7.9375mm"
   width="19.84375mm">
  <defs
     id="defs2" />
  <sodipodi:namedview
     inkscape:window-maximized="1"
     inkscape:window-y="-9"
     inkscape:window-x="-9"
     inkscape:window-height="1001"
     inkscape:window-width="1920"
     fit-margin-bottom="0"
     fit-margin-right="0"
     fit-margin-left="0"
     fit-margin-top="0"
     showgrid="false"
     inkscape:document-rotation="0"
     inkscape:current-layer="layer1"
     inkscape:document-units="mm"
     inkscape:cy="11.575424"
     inkscape:cx="23.35831"
     inkscape:zoom="11.313708"
     inkscape:pageshadow="2"
     inkscape:pageopacity="0.0"
     borderopacity="1.0"
     bordercolor="#666666"
     pagecolor="#ffffff"
     id="base" />
  <metadata
     id="metadata5">
    <rdf:RDF>
      <cc:Work
         rdf:about="">
        <dc:format>image/svg+xml</dc:format>
        <dc:type
           rdf:resource="http://purl.org/dc/dcmitype/StillImage" />
        <dc:title />
      </cc:Work>
    </rdf:RDF>
  </metadata>
  <g
     transform="translate(127,80.886909)"
     id="layer1"
     inkscape:groupmode="layer"
     inkscape:label="Layer 1">
    <rect
       y="-80.886909"
       x="-127"
       height="7.9375"
       width="19.84375"
       id="rect843-7"
       style="opacity:0.997;fill:#edc9a2;stroke:none;stroke-width:0.189209;stroke-linejoin:round;stroke-dasharray:0.567625, 0.18920899999999999;fill-opacity:1" />
    <path
       d="m -127,-80.886909 v 7.9375 h 19.84375 v -7.9375 z m 4.03696,0.812353 c 0.11923,0.0087 0.24107,0.03922 0.37311,0.09147 0.33655,0.133164 0.6895,0.419625 0.80822,0.655774 0.0822,0.163409 0.0817,0.386222 -10e-4,0.588594 -0.0197,0.04807 -0.10348,0.192652 -0.18655,0.321428 -0.083,0.128774 -0.1487,0.23937 -0.14572,0.245463 0.002,0.0061 0.20516,0.148516 0.44958,0.316776 0.43409,0.298817 0.82682,0.5963 0.82682,0.626319 0,0.01463 -0.0883,0.03285 -0.28525,0.05839 -0.0534,0.007 -0.30882,0.02296 -0.56792,0.03566 -0.2591,0.0127 -0.48034,0.02485 -0.49145,0.02739 -0.0205,0.0047 0.17269,0.579733 0.27957,0.831991 0.10272,0.242484 0.26709,0.468667 0.49144,0.676961 0.0535,0.04973 0.21038,0.181052 0.34882,0.291972 0.57372,0.459652 0.75856,0.62511 0.9524,0.852144 0.21348,0.250057 0.31141,0.518486 0.21652,0.592729 -0.0542,0.04244 -0.43484,0.08188 -1.09502,0.113688 -0.39415,0.01898 -3.18875,0.02884 -3.68867,0.01292 h -5.1e-4 c -0.91182,-0.02903 -1.47234,-0.07659 -1.51464,-0.128674 -0.0295,-0.03634 -0.0135,-0.197509 0.0289,-0.291455 0.11784,-0.261158 0.38477,-0.533464 1.03249,-1.053166 0.21509,-0.172586 0.44555,-0.36708 0.51212,-0.432015 0.20686,-0.201758 0.3478,-0.400853 0.44545,-0.629936 0.0493,-0.115716 0.29559,-0.803788 0.29559,-0.825789 0,-0.0072 -0.17213,-0.02126 -0.38551,-0.03101 -0.58182,-0.02657 -0.92395,-0.06074 -0.97048,-0.09715 -0.0252,-0.01973 0.36911,-0.321356 0.85318,-0.652673 l 0.43046,-0.294556 -0.16536,-0.262516 c -0.17713,-0.280926 -0.22287,-0.38961 -0.2372,-0.56534 -0.012,-0.14586 0.0158,-0.252965 0.0992,-0.389124 0.16873,-0.275388 0.55863,-0.546787 0.93224,-0.648539 0.12323,-0.03356 0.23993,-0.04645 0.35915,-0.03772 z m 6.30246,0.24598 h 0.61805 l 1.39217,1.707906 v -1.313098 c 0,-0.139957 -0.0152,-0.22729 -0.0465,-0.261999 -0.0415,-0.04703 -0.10736,-0.0708 -0.19689,-0.0708 h -0.0785 v -0.06201 h 0.79272 v 0.06201 h -0.0806 c -0.0963,0 -0.16484,0.02911 -0.20515,0.08733 -0.0246,0.03583 -0.0367,0.11782 -0.0367,0.245463 v 1.919263 h -0.0605 l -1.50172,-1.833997 v 1.402499 c 0,0.139956 0.0153,0.22729 0.0455,0.261999 0.0425,0.04703 0.10791,0.0708 0.19637,0.0708 h 0.0806 v 0.06201 h -0.79272 v -0.06201 h 0.0791 c 0.0974,0 0.16588,-0.02911 0.20619,-0.08733 0.0247,-0.03583 0.0372,-0.117821 0.0372,-0.245463 v -1.583883 c -0.0661,-0.07726 -0.11619,-0.127813 -0.15089,-0.152445 -0.0336,-0.02463 -0.0838,-0.04797 -0.14986,-0.06925 -0.0325,-0.01007 -0.0817,-0.01499 -0.1478,-0.01499 z m 3.36931,0.691948 c 0.17242,0 0.31393,0.05684 0.42478,0.171049 0.11084,0.113085 0.16639,0.264928 0.16639,0.455269 h -1.06298 c -0.001,0.228409 0.0537,0.407555 0.16588,0.537435 0.11196,0.12988 0.24366,0.19482 0.39481,0.19482 0.10077,0 0.18811,-0.0273 0.262,-0.08217 0.075,-0.05598 0.13771,-0.151409 0.1881,-0.28577 l 0.0522,0.03359 c -0.0235,0.153393 -0.0921,0.293609 -0.20515,0.42013 -0.11308,0.125401 -0.25459,0.188102 -0.42478,0.188102 -0.18474,0 -0.3433,-0.07166 -0.47542,-0.214974 -0.131,-0.144435 -0.19638,-0.338394 -0.19638,-0.58136 0,-0.263118 0.0672,-0.467757 0.20154,-0.614432 0.13548,-0.147794 0.30524,-0.221692 0.50902,-0.221692 z m 0.70848,0.04703 h 0.64492 v 0.06201 c -0.0593,0.0045 -0.0983,0.01523 -0.1173,0.03204 -0.0179,0.01679 -0.0269,0.04099 -0.0269,0.07235 0,0.03471 0.009,0.07631 0.0284,0.125574 l 0.32918,0.885217 0.33072,-0.720369 -0.0873,-0.22686 c -0.0269,-0.06718 -0.0623,-0.113774 -0.10594,-0.139526 -0.0246,-0.01567 -0.0702,-0.02506 -0.13745,-0.02842 v -0.06201 h 0.73225 v 0.06201 c -0.0806,0.0033 -0.13798,0.01815 -0.17157,0.04393 -0.0224,0.01791 -0.0336,0.04608 -0.0336,0.08527 0,0.02239 0.005,0.04573 0.0134,0.06925 l 0.34933,0.883151 0.32453,-0.851628 c 0.0224,-0.06046 0.0336,-0.108347 0.0336,-0.144177 0,-0.02127 -0.0112,-0.04005 -0.0336,-0.05684 -0.0213,-0.01679 -0.0638,-0.0267 -0.12764,-0.02894 v -0.06201 h 0.48524 v 0.06201 c -0.0974,0.01455 -0.16907,0.08087 -0.21497,0.198437 l -0.51418,1.324984 h -0.0687 l -0.38447,-0.982369 -0.44856,0.982369 h -0.062 l -0.49402,-1.292944 c -0.0325,-0.08173 -0.0643,-0.136857 -0.0956,-0.164848 -0.0313,-0.02911 -0.0806,-0.05108 -0.14779,-0.06563 z m -0.80254,0.07235 c -0.0929,0 -0.17673,0.03626 -0.25063,0.109037 -0.0728,0.07166 -0.11532,0.171997 -0.12764,0.300757 h 5.2e-4 0.71158 c -0.005,-0.09853 -0.0169,-0.167948 -0.0351,-0.208256 -0.028,-0.0627 -0.0701,-0.111964 -0.12609,-0.147794 -0.0549,-0.03583 -0.11214,-0.05374 -0.1726,-0.05374 z m -2.76313,2.57607 c 0.0829,0 0.15813,0.0067 0.2253,0.02015 0.0683,0.01343 0.1646,0.04298 0.28888,0.08888 0.0627,0.02351 0.10484,0.03566 0.12609,0.03566 0.0213,0 0.0392,-0.0099 0.0537,-0.02894 0.0157,-0.02015 0.025,-0.05865 0.0284,-0.115755 h 0.062 l 0.0589,0.718819 h -0.0589 c -0.0593,-0.179144 -0.1359,-0.313934 -0.22996,-0.404626 -0.13548,-0.130999 -0.30971,-0.19637 -0.52244,-0.19637 -0.28999,0 -0.51031,0.114635 -0.66146,0.344165 -0.12652,0.1937 -0.18966,0.424351 -0.18966,0.691947 0,0.217213 0.0416,0.415134 0.12558,0.594279 0.084,0.179145 0.1937,0.310833 0.32918,0.394808 0.1366,0.08285 0.27681,0.12454 0.42013,0.12454 0.084,0 0.16502,-0.01077 0.24339,-0.03204 0.0784,-0.02127 0.15408,-0.05263 0.22686,-0.09405 v -0.658358 c 0,-0.114205 -0.009,-0.188533 -0.0269,-0.223242 -0.0168,-0.03583 -0.0437,-0.0627 -0.0806,-0.08062 -0.0358,-0.01903 -0.0999,-0.02894 -0.19171,-0.02894 v -0.06356 h 0.8816 v 0.06356 h -0.0419 c -0.0873,0 -0.14737,0.02911 -0.17984,0.08733 -0.0224,0.04143 -0.0336,0.12342 -0.0336,0.245463 v 0.697115 c -0.12876,0.06942 -0.25545,0.119975 -0.38085,0.152446 -0.1254,0.03247 -0.26519,0.04909 -0.41858,0.04909 -0.44003,0 -0.77412,-0.141077 -1.00252,-0.42323 -0.17132,-0.211615 -0.25684,-0.4557 -0.25684,-0.732255 0,-0.200418 0.0479,-0.392569 0.14418,-0.576192 0.11421,-0.218333 0.27096,-0.386281 0.47026,-0.503845 0.16683,-0.09741 0.36389,-0.146245 0.59118,-0.146245 z m 6.196,0.744141 c 0.17243,0 0.31393,0.05684 0.42478,0.171049 0.11085,0.113085 0.1664,0.264928 0.1664,0.455269 h -1.0635 c -0.001,0.22841 0.0542,0.407555 0.1664,0.537435 0.11196,0.12988 0.24365,0.19482 0.3948,0.19482 0.10077,0 0.1881,-0.0273 0.262,-0.08216 0.075,-0.05598 0.13772,-0.15141 0.18811,-0.285771 l 0.0522,0.03359 c -0.0235,0.153392 -0.0921,0.293608 -0.20516,0.420129 -0.11308,0.125402 -0.25459,0.188102 -0.42478,0.188102 -0.18474,0 -0.3433,-0.07166 -0.47542,-0.214974 -0.131,-0.144435 -0.19637,-0.338394 -0.19637,-0.581359 0,-0.263119 0.0672,-0.467758 0.20154,-0.614433 0.13548,-0.147794 0.30524,-0.221692 0.50901,-0.221692 z m -4.29328,0.0015 c 0.1366,0 0.24857,0.02282 0.3359,0.06873 0.0661,0.03471 0.1149,0.0894 0.14624,0.163297 0.0201,0.04815 0.03,0.146677 0.03,0.295589 v 0.521933 c 0,0.146674 0.003,0.237195 0.008,0.270784 0.005,0.03247 0.0143,0.05391 0.0269,0.06511 0.0135,0.0112 0.0287,0.01705 0.0455,0.01705 0.0179,0 0.0336,-0.004 0.047,-0.01189 0.0235,-0.01455 0.0687,-0.05529 0.13591,-0.122473 v 0.09405 c -0.12541,0.167949 -0.24547,0.251664 -0.35967,0.251664 -0.0549,0 -0.0983,-0.01878 -0.13074,-0.05684 -0.0324,-0.03798 -0.0495,-0.102805 -0.0507,-0.194303 -0.157,0.121339 -0.25592,0.191865 -0.2961,0.210839 -0.0605,0.02799 -0.12497,0.04238 -0.19327,0.04238 -0.10637,0 -0.19414,-0.03678 -0.26355,-0.109554 -0.0683,-0.07278 -0.10284,-0.16812 -0.10284,-0.286804 0,-0.07502 0.017,-0.139957 0.0506,-0.19482 0.0459,-0.07614 0.12517,-0.147795 0.23823,-0.214974 0.11421,-0.06718 0.30369,-0.149173 0.56793,-0.245463 v -0.06046 c 0,-0.153393 -0.0246,-0.258641 -0.0739,-0.315744 -0.0481,-0.0571 -0.11893,-0.08578 -0.21187,-0.08578 -0.0705,0 -0.12653,0.01929 -0.16795,0.05736 -0.0425,0.03807 -0.0636,0.08147 -0.0636,0.130742 l 0.003,0.09767 c 0,0.05151 -0.0134,0.09139 -0.0403,0.119373 -0.0257,0.02799 -0.0603,0.04186 -0.10284,0.04186 -0.0414,0 -0.0754,-0.01481 -0.10232,-0.04393 -0.0257,-0.02911 -0.0387,-0.06847 -0.0387,-0.118856 0,-0.09629 0.0493,-0.185002 0.14779,-0.265617 0.0985,-0.08061 0.23694,-0.120923 0.41496,-0.120923 z m 1.27331,0 h 0.0724 v 0.327629 c 0.11196,-0.111966 0.17776,-0.176475 0.19792,-0.19327 0.0504,-0.04255 0.10509,-0.0757 0.16329,-0.09922 0.0582,-0.02351 0.11548,-0.03514 0.1726,-0.03514 0.0963,0 0.17915,0.02825 0.24857,0.08423 0.0694,0.05598 0.11601,0.137026 0.13952,0.243396 0.11532,-0.134359 0.21299,-0.222123 0.29249,-0.26355 0.0795,-0.04255 0.16098,-0.06408 0.24495,-0.06408 0.0817,0 0.15382,0.02153 0.21652,0.06408 0.0638,0.04143 0.11444,0.109468 0.15142,0.204639 0.0247,0.06494 0.0372,0.167087 0.0372,0.305924 v 0.661459 c 0,0.09629 0.007,0.162608 0.0217,0.198437 0.0112,0.02463 0.0318,0.04565 0.062,0.06356 0.0302,0.01679 0.0795,0.02532 0.14779,0.02532 v 0.06046 h -0.75912 v -0.06046 h 0.032 c 0.0661,0 0.11757,-0.013 0.15451,-0.03876 0.0257,-0.01791 0.0441,-0.0466 0.0553,-0.08578 0.005,-0.01903 0.007,-0.07321 0.007,-0.16278 v -0.661459 c 0,-0.125401 -0.0148,-0.214113 -0.045,-0.265617 -0.0437,-0.07166 -0.11351,-0.107487 -0.20981,-0.107487 -0.0593,0 -0.11936,0.01524 -0.17983,0.04548 -0.0593,0.02911 -0.13142,0.08372 -0.21652,0.164331 l -0.003,0.0186 0.003,0.07235 v 0.733806 c 0,0.105247 0.005,0.170618 0.0165,0.19637 0.0123,0.02575 0.0347,0.04772 0.0672,0.06563 0.0325,0.01679 0.088,0.02532 0.1664,0.02532 v 0.06046 h -0.77773 v -0.06046 c 0.0851,0 0.14332,-0.01033 0.17467,-0.03049 0.0325,-0.02015 0.0548,-0.05013 0.0672,-0.09043 0.005,-0.01903 0.008,-0.07459 0.008,-0.166398 v -0.661459 c 0,-0.125401 -0.0189,-0.215922 -0.0558,-0.270784 -0.0493,-0.07166 -0.11773,-0.107487 -0.20619,-0.107487 -0.0605,0 -0.1205,0.01663 -0.17983,0.04909 -0.0929,0.04927 -0.16459,0.104303 -0.21497,0.165882 v 0.824756 c 0,0.100769 0.007,0.166139 0.0201,0.19637 0.0145,0.03023 0.0352,0.05357 0.062,0.06925 0.028,0.01455 0.084,0.0217 0.16795,0.0217 v 0.06046 h -0.76068 v -0.06046 c 0.0705,0 0.11981,-0.0071 0.1478,-0.0217 0.028,-0.01567 0.049,-0.03987 0.0636,-0.07235 0.0145,-0.03359 0.0217,-0.0981 0.0217,-0.193269 v -0.587561 c 0,-0.169068 -0.005,-0.278364 -0.015,-0.327629 -0.008,-0.03695 -0.0199,-0.06201 -0.0367,-0.07545 -0.0168,-0.01455 -0.0401,-0.02222 -0.0692,-0.02222 -0.0313,0 -0.0685,0.0085 -0.11214,0.02532 l -0.0253,-0.06046 z m 2.92592,0.117822 c -0.0929,0 -0.17673,0.03626 -0.25063,0.109038 -0.0728,0.07166 -0.11533,0.171996 -0.12764,0.300756 h 0.7121 c -0.005,-0.09853 -0.0169,-0.167948 -0.0351,-0.208255 -0.028,-0.0627 -0.0701,-0.111965 -0.12609,-0.147795 -0.0549,-0.03583 -0.11214,-0.05374 -0.1726,-0.05374 z m -3.96358,0.548804 c -0.16907,0.06718 -0.27837,0.115153 -0.32763,0.143144 -0.0885,0.04927 -0.15158,0.100771 -0.18965,0.154512 -0.0381,0.05375 -0.0574,0.1124 -0.0574,0.176217 0,0.08061 0.0242,0.147794 0.0724,0.201538 0.0481,0.05263 0.10369,0.07906 0.1664,0.07906 0.0851,0 0.19706,-0.05598 0.3359,-0.167948 z"
       style="opacity:0.997;fill:#ffffff;fill-opacity:1;stroke:none;stroke-width:2.06585;stroke-linejoin:round;stroke-miterlimit:4;stroke-dasharray:none"
       id="rect833" />
    <text
       id="text856"
       y="-78.430061"
       x="-113.25111"
       style="font-size:2.64583333px;line-height:0.5;font-family:Garamond;-inkscape-font-specification:Garamond;text-align:center;text-anchor:middle;stroke-width:0.264583;"
       xml:space="preserve"><tspan
         style="stroke-width:0.264583;font-size:2.64583333px;"
         y="-78.430061"
         x="-113.25111"
         id="tspan854"
         sodipodi:role="line" /></text>
    <text
       id="text860"
       y="-68.20108"
       x="-121.42485"
       style="font-size:7.9375px;line-height:0.5;font-family:Garamond;-inkscape-font-specification:Garamond;text-align:center;text-anchor:middle;stroke-width:0.264583"
       xml:space="preserve"><tspan
         style="stroke-width:0.264583"
         y="-68.20108"
         x="-121.42485"
         id="tspan858"
         sodipodi:role="line" /></text>
    <text
       id="text864"
       y="-77.296135"
       x="-117.43248"
       style="font-size:2.64583px;line-height:0.5;font-family:Garamond;-inkscape-font-specification:Garamond;text-align:center;text-anchor:middle;stroke-width:0.264583;fill:#00ffff;"
       xml:space="preserve"><tspan
         style="stroke-width:0.264583;fill:#00ffff;"
         y="-77.296135"
         x="-117.43248"
         id="tspan862"
         sodipodi:role="line" /></text>
  </g>
</svg>
