<?xml version="1.0" encoding="UTF-8" standalone="no"?>
<!-- Created with Inkscape (http://www.inkscape.org/) -->
<!-- ClipArt by Arvin61r58 (http://openclipart.org/user-detail/Arvin61r58) -->
<!-- ClipArt by j4p4n (https://openclipart.org/user-detail/j4p4n) -->
<svg
   xmlns:dc="http://purl.org/dc/elements/1.1/"
   xmlns:cc="http://creativecommons.org/ns#"
   xmlns:rdf="http://www.w3.org/1999/02/22-rdf-syntax-ns#"
   xmlns:svg="http://www.w3.org/2000/svg"
   xmlns="http://www.w3.org/2000/svg"
   xmlns:xlink="http://www.w3.org/1999/xlink"
   width="853.55151"
   height="1137.6001"
   viewBox="0 0 225.83552 300.98999"
   version="1.1"
   id="svg5683">
  <title
     id="title6178">Parchment 2</title>
  <defs
     id="defs5677">
    <linearGradient
       id="linearGradient6041">
      <stop
         id="stop6011"
         offset="0"
         stop-color="#ccc09d" />
      <stop
         id="stop6013"
         offset="0.142857"
         stop-color="#c3b37f" />
      <stop
         id="stop6015"
         offset="0.142857"
         stop-color="#c9bb8f" />
      <stop
         id="stop6017"
         offset="0.214286"
         stop-color="#d7cfb7" />
      <stop
         id="stop6019"
         offset="0.285714"
         stop-color="#d7d1bf" />
      <stop
         id="stop6021"
         offset="0.357143"
         stop-color="#d9d3c0" />
      <stop
         id="stop6023"
         offset="0.428571"
         stop-color="#dbd5c2" />
      <stop
         id="stop6025"
         offset="0.5"
         stop-color="#d2c7a6" />
      <stop
         id="stop6027"
         offset="0.571429"
         stop-color="#d4cbaf" />
      <stop
         id="stop6029"
         offset="0.642857"
         stop-color="#dcd7c7" />
      <stop
         id="stop6031"
         offset="0.714286"
         stop-color="#d6cdb3" />
      <stop
         id="stop6033"
         offset="0.785714"
         stop-color="#cbbe96" />
      <stop
         id="stop6035"
         offset="0.857143"
         stop-color="#c3b27e" />
      <stop
         id="stop6037"
         offset="0.928571"
         stop-color="#ccc09c" />
      <stop
         id="stop6039"
         offset="1"
         stop-color="#d6ceb7" />
    </linearGradient>
    <linearGradient
       gradientUnits="userSpaceOnUse"
       y2="220.69136"
       x2="94.955666"
       y1="14.37445"
       x1="97.843185"
       id="linearGradient5922"
       xlink:href="#linearGradient5954" />
    <linearGradient
       id="linearGradient5954">
      <stop
         stop-color="#ccc09d"
         offset="0"
         id="stop5924" />
      <stop
         stop-color="#c3b37f"
         offset="0.071429"
         id="stop5926" />
      <stop
         stop-color="#c9bb8f"
         offset="0.142857"
         id="stop5928" />
      <stop
         stop-color="#d7cfb7"
         offset="0.214286"
         id="stop5930" />
      <stop
         stop-color="#d7d1bf"
         offset="0.285714"
         id="stop5932" />
      <stop
         stop-color="#d9d3c0"
         offset="0.357143"
         id="stop5934" />
      <stop
         stop-color="#dbd5c2"
         offset="0.428571"
         id="stop5936" />
      <stop
         stop-color="#d2c7a6"
         offset="0.5"
         id="stop5938" />
      <stop
         stop-color="#d4cbaf"
         offset="0.571429"
         id="stop5940" />
      <stop
         stop-color="#dcd7c7"
         offset="0.642857"
         id="stop5942" />
      <stop
         stop-color="#d6cdb3"
         offset="0.714286"
         id="stop5944" />
      <stop
         stop-color="#cbbe96"
         offset="0.785714"
         id="stop5946" />
      <stop
         stop-color="#c3b27e"
         offset="0.857143"
         id="stop5948" />
      <stop
         stop-color="#ccc09c"
         offset="0.928571"
         id="stop5950" />
      <stop
         stop-color="#d6ceb7"
         offset="1"
         id="stop5952" />
    </linearGradient>
    <filter
       height="1"
       y="0"
       width="1"
       x="0"
       id="filter5994"
       style="color-interpolation-filters:sRGB">
      <feTurbulence
         id="feTurbulence5986"
         baseFrequency="0.08"
         type="fractalNoise"
         seed="0"
         numOctaves="5" />
      <feGaussianBlur
         id="feGaussianBlur5988"
         result="result91"
         stdDeviation="0.5" />
      <feDisplacementMap
         id="feDisplacementMap5990"
         in2="result91"
         result="result1"
         in="SourceGraphic"
         xChannelSelector="R"
         yChannelSelector="G"
         scale="20" />
      <feComposite
         id="feComposite5992"
         operator="atop"
         in2="SourceGraphic"
         in="result1" />
    </filter>
    <linearGradient
       gradientUnits="userSpaceOnUse"
       y2="11.417258"
       x2="161.76125"
       y1="7.8919144"
       x1="161.68625"
       id="linearGradient6008"
       xlink:href="#linearGradient6041" />
    <filter
       id="filter6051"
       style="color-interpolation-filters:sRGB">
      <feTurbulence
         id="feTurbulence6043"
         baseFrequency="0.08"
         type="fractalNoise"
         seed="0"
         numOctaves="5" />
      <feGaussianBlur
         id="feGaussianBlur6045"
         result="result91"
         stdDeviation="0.5" />
      <feDisplacementMap
         id="feDisplacementMap6047"
         in2="result91"
         result="result1"
         in="SourceGraphic"
         xChannelSelector="R"
         yChannelSelector="G"
         scale="20" />
      <feComposite
         id="feComposite6049"
         operator="atop"
         in2="SourceGraphic"
         in="result1" />
    </filter>
    <linearGradient
       gradientUnits="userSpaceOnUse"
       y2="34.508263"
       x2="18.51182"
       y1="32.928009"
       x1="13.629737"
       id="linearGradient6059"
       xlink:href="#linearGradient6041" />
    <filter
       id="filter6069"
       style="color-interpolation-filters:sRGB">
      <feTurbulence
         id="feTurbulence6061"
         baseFrequency="0.08"
         type="fractalNoise"
         seed="0"
         numOctaves="5" />
      <feGaussianBlur
         id="feGaussianBlur6063"
         result="result91"
         stdDeviation="0.5" />
      <feDisplacementMap
         id="feDisplacementMap6065"
         in2="result91"
         result="result1"
         in="SourceGraphic"
         xChannelSelector="R"
         yChannelSelector="G"
         scale="20" />
      <feComposite
         id="feComposite6067"
         operator="atop"
         in2="SourceGraphic"
         in="result1" />
    </filter>
    <linearGradient
       gradientUnits="userSpaceOnUse"
       y2="223.16608"
       x2="143.48042"
       y1="218.1613"
       x1="143.10971"
       id="linearGradient6077"
       xlink:href="#linearGradient6041" />
    <filter
       id="filter6087"
       style="color-interpolation-filters:sRGB">
      <feTurbulence
         id="feTurbulence6079"
         baseFrequency="0.02 0.49299999999999999"
         type="fractalNoise"
         seed="0"
         numOctaves="5" />
      <feGaussianBlur
         id="feGaussianBlur6081"
         result="result91"
         stdDeviation="0.5" />
      <feDisplacementMap
         id="feDisplacementMap6083"
         in2="result91"
         result="result1"
         in="SourceGraphic"
         xChannelSelector="R"
         yChannelSelector="G"
         scale="20" />
      <feComposite
         id="feComposite6085"
         operator="atop"
         in2="SourceGraphic"
         in="result1" />
    </filter>
    <filter
       id="filter6136"
       style="color-interpolation-filters:sRGB;"
       x="0"
       width="1"
       y="0"
       height="1">
      <feTurbulence
         scale="4.0999999999999996"
         id="feTurbulence6130"
         result="result91"
         type="fractalNoise"
         numOctaves="5"
         baseFrequency="0.094" />
      <feDisplacementMap
         baseFrequency="0.017000000000000001"
         id="feDisplacementMap6132"
         in2="result91"
         in="SourceGraphic"
         xChannelSelector="R"
         result="result5"
         scale="4.1139240506329111" />
      <feComposite
         scale="2.5"
         id="feComposite6134"
         in2="result5"
         operator=""
         in="SourceGraphic" />
    </filter>
  </defs>
  <metadata
     id="metadata5680">
    <rdf:RDF>
      <cc:Work
         rdf:about="">
        <dc:format>image/svg+xml</dc:format>
        <dc:type
           rdf:resource="http://purl.org/dc/dcmitype/StillImage" />
        <dc:title>Parchment 2</dc:title>
        <dc:creator>
          <cc:Agent>
            <dc:title>Arvin61r58</dc:title>
          </cc:Agent>
        </dc:creator>
        <dc:publisher>
          <cc:Agent>
            <dc:title>Openclipart.org</dc:title>
          </cc:Agent>
        </dc:publisher>
        <dc:identifier>https://openclipart.org/</dc:identifier>
        <dc:subject>
          <rdf:Bag>
            <rdf:li>scroll</rdf:li>
            <rdf:li>parchment</rdf:li>
            <rdf:li>paper</rdf:li>
            <rdf:li>gradient</rdf:li>
          </rdf:Bag>
        </dc:subject>
        <dc:description>parchment </dc:description>
        <dc:contributor>
          <cc:Agent>
            <dc:title>j4p4n...
https://openclipart.org/detail/280259/hand-written-note</dc:title>
          </cc:Agent>
        </dc:contributor>
        <dc:source>https://openclipart.org/user-detail/Arvin61r58</dc:source>
        <cc:license
           rdf:resource="http://creativecommons.org/publicdomain/zero/1.0/" />
      </cc:Work>
      <cc:License
         rdf:about="http://creativecommons.org/publicdomain/zero/1.0/">
        <cc:permits
           rdf:resource="http://creativecommons.org/ns#Reproduction" />
        <cc:permits
           rdf:resource="http://creativecommons.org/ns#Distribution" />
        <cc:permits
           rdf:resource="http://creativecommons.org/ns#DerivativeWorks" />
      </cc:License>
    </rdf:RDF>
  </metadata>
  <path
     id="path5887"
     d="m 185.01448,287.97138 c -1.6277,0.0921 -3.2956,0.0478 -3.70644,-0.0986 -0.41085,-0.14638 -1.48859,-0.23223 -2.39495,-0.19079 -0.90639,0.0415 -3.57698,-0.0413 -5.93467,-0.18397 -5.26151,-0.3183 -6.09405,-0.3428 -11.81201,-0.34756 -2.50758,-0.003 -4.85004,-0.1087 -5.20547,-0.2369 -0.35542,-0.12822 -2.6284,-0.17046 -5.05105,-0.0939 -2.42265,0.0766 -5.15577,0.11699 -6.07359,0.0897 -5.44691,-0.16176 -12.03561,-0.24728 -14.4222,-0.18717 -3.97713,0.10015 -9.22568,0.004 -11.53627,-0.2128 -2.84652,-0.26627 -3.60712,-0.12265 -5.4152,1.0224 -1.51224,0.95772 -1.64132,0.97177 -2.26555,0.2467 -0.5025,-0.58369 -1.25127,-0.706 -3.10883,-0.50781 -1.34579,0.1436 -3.01635,0.44683 -3.71235,0.67386 -0.78291,0.25543 -1.47823,0.20324 -1.82345,-0.1367 -0.30689,-0.30223 -1.19504,-0.51598 -1.97366,-0.47501 -1.010031,0.0532 -1.451495,-0.14053 -1.540653,-0.67588 -0.09765,-0.58628 -0.776832,-0.75943 -3.106131,-0.79184 -1.63963,-0.0229 -3.874568,-0.192 -4.966517,-0.37596 -1.091939,-0.18398 -2.792276,-0.23398 -3.778514,-0.11109 -2.803664,0.34926 -6.739075,0.18246 -7.790074,-0.33017 -0.5257,-0.25642 -1.902618,-0.35931 -3.059823,-0.22866 -1.4734,0.16637 -2.316477,0.0202 -2.812921,-0.48761 -0.583184,-0.59655 -0.825885,-0.6061 -1.368456,-0.0538 -0.912465,0.92879 -2.983159,1.37115 -5.423912,1.15871 -5.365227,-0.46696 -6.372428,-0.53541 -9.144037,-0.62148 -7.633858,-0.23704 -14.223818,-0.5127 -15.418518,-0.64493 -0.722295,-0.0799 -1.923312,0.008 -2.668906,0.1941 -1.826139,0.45726 -7.195305,0.55299 -10.094012,0.17997 -2.005558,-0.25809 -2.381938,-0.45444 -2.525685,-1.31755 -0.0929,-0.55784 -0.325858,-1.04283 -0.517662,-1.07777 -0.191819,-0.0349 -0.581576,-0.76872 -0.866149,-1.63067 -0.464786,-1.4078 -0.441343,-1.58622 0.230478,-1.75445 0.603793,-0.15118 0.703678,-0.45263 0.518471,-1.5647 -0.126174,-0.75761 -0.06561,-1.73991 0.134571,-2.18291 0.315486,-0.69818 0.359213,-3.49582 0.166717,-10.66818 -0.02591,-0.96578 0.08416,-2.31679 0.244611,-3.00227 0.160454,-0.68547 0.162092,-2.02827 0.0037,-2.98401 -0.305146,-1.83852 -0.307987,-5.19105 -0.01195,-12.666 0.09954,-2.51348 0.212856,-6.71583 0.251815,-9.33855 0.03894,-2.62275 0.128402,-6.31011 0.198778,-8.19415 0.07038,-1.88403 0.0039,-5.43052 -0.147848,-7.88109 -0.15169,-2.45056 -0.09908,-5.00885 0.116915,-5.68508 0.215998,-0.67622 0.270489,-2.11512 0.121095,-3.19757 -0.149417,-1.08243 -0.202998,-4.22495 -0.119118,-6.98336 0.08388,-2.75841 0.171053,-7.25963 0.193722,-10.00271 0.02266,-2.74309 0.125033,-6.9427 0.227495,-9.33247 0.102473,-2.38979 0.203474,-5.97823 0.224474,-7.97434 0.02099,-1.99609 0.09773,-6.17255 0.170513,-9.28101 0.07279,-3.10845 0.0026,-5.90116 -0.156017,-6.206 -0.158614,-0.30486 -0.122468,-1.06571 0.08032,-1.6908 0.351601,-1.08383 0.399445,-2.60133 0.37516,-11.89755 -0.0058,-2.23824 0.03669,-6.42287 0.09452,-9.2992 0.05782,-2.87631 0.06975,-7.8677 0.02648,-11.09198 -0.04326,-3.22429 0.04841,-8.13385 0.20373,-10.91015 0.155312,-2.7763 0.140992,-5.35944 -0.03183,-5.74032 -0.172821,-0.38088 -0.160064,-1.19851 0.02841,-1.81697 0.348147,-1.14256 0.409423,-5.55276 0.178511,-12.847134 -0.07033,-2.221916 -0.06096,-5.07479 0.02084,-6.339717 0.08179,-1.264925 0.121844,-4.023794 0.08898,-6.130837 -0.08036,-5.152502 0.204131,-10.92608 0.599723,-12.170952 0.287492,-0.904701 0.195614,-1.113019 -0.836844,-1.897492 -1.221196,-0.927865 -3.429681,-1.291369 -5.215005,-0.858336 -1.316817,0.319475 -5.449826,-0.174359 -7.020817,-0.838729 -1.498699,-0.633887 -3.844402,-4.250256 -3.593493,-5.540111 0.09687,-0.497949 1.420464,-3.276433 2.941336,-6.174433 3.532452,-6.73104 8.54242,-18.758631 8.338629,-20.018828 -0.03373,-0.20881 0.211508,-1.03285 0.545054,-1.831227 0.517243,-1.238074 0.776702,-1.448526 1.76391,-1.430657 0.636603,0.01156 1.394137,0.254009 1.6834,0.538864 0.289262,0.284855 0.720292,0.469248 0.957835,0.409766 0.486372,-0.121793 0.765797,-2.838954 0.55637,-5.410279 -0.225353,-2.766941 0.116848,-4.260229 1.028202,-4.486734 0.903626,-0.224604 5.607587,-0.27172 12.257961,-0.122824 2.444519,0.05473 5.525336,0.108034 6.846248,0.118451 1.320912,0.01043 3.569119,0.04963 4.996026,0.08714 1.426896,0.0375 4.247628,0.02471 6.268286,-0.02844 2.020648,-0.05314 4.36063,0.03858 5.199951,0.203825 0.839331,0.165239 3.075765,0.162904 4.969865,-0.0052 1.89409,-0.168097 4.290871,-0.233887 5.326161,-0.146191 1.035302,0.08771 3.543987,0.16621 5.574869,0.174458 5.552957,0.02257 7.926277,0.102693 10.204909,0.344495 1.136307,0.120575 2.806296,0.177525 3.711089,0.126546 1.422146,-0.08014 1.674573,0.05194 1.862843,0.974755 0.452153,2.216256 0.58083,2.560175 0.925492,2.473871 0.194828,-0.04878 0.279359,-0.538259 0.187853,-1.087707 -0.373314,-2.241539 1.109504,-2.97136 4.870654,-2.397263 1.29497,0.197667 4.24788,0.262242 6.56205,0.143508 7.148,-0.366729 9.84523,-0.348006 17.17838,0.119255 3.89743,0.248341 8.08179,0.447047 9.29858,0.441582 1.2168,-0.0055 2.79926,0.02444 3.51658,0.06648 1.13138,0.06629 10.2699,-0.323572 10.82138,-0.461661 0.44344,-0.111037 0.71878,-3.532379 0.5477,-6.805549 -0.0996,-1.906668 0.0126,-3.8715 0.24942,-4.366301 0.73103,-1.527282 2.83378,-1.723349 5.4139,-0.504799 3.13638,1.481258 5.5985,1.810902 11.00526,1.473446 2.55175,-0.159258 5.88892,-0.265623 7.41592,-0.236361 1.527,0.02925 3.82071,0.07308 5.09712,0.09737 1.27642,0.0243 4.72204,-0.465994 7.65696,-1.08954 2.93491,-0.623583 5.48581,-1.06631 5.66867,-0.983918 0.18286,0.08234 1.04419,1.25406 1.91407,2.603713 1.43923,2.233054 1.57209,2.61584 1.47621,4.252908 -0.15091,2.575937 -1.14383,5.527007 -1.92552,5.722742 -0.87551,0.219232 -1.21987,1.094886 -1.29072,3.282036 -0.0322,0.993682 -0.14538,4.271749 -0.25152,7.284586 -0.10615,3.01285 -0.1314,6.930256 -0.0561,8.70535 0.0753,1.775106 0.0636,3.712303 -0.0259,4.304896 -0.0896,0.592594 -0.18164,3.016438 -0.20461,5.386311 -0.023,2.369884 -0.0792,5.641707 -0.12498,7.270723 -0.0458,1.629018 -0.0865,6.760343 -0.0906,11.402933 -0.004,4.642604 -0.0954,8.734703 -0.20291,9.093574 -0.10753,0.358858 -0.0512,1.251201 0.12519,1.982951 0.31469,1.305519 0.30807,8.078019 -0.0115,11.726574 -0.0892,1.017739 -0.1338,5.711921 -0.0992,10.431521 0.0551,7.53541 -0.0942,12.22659 -0.81332,25.54163 -0.0954,1.76587 -0.1623,4.63316 -0.14874,6.37174 0.11352,14.55674 0.0932,17.51171 -0.13806,20.0199 -0.14487,1.57171 -0.24814,6.06427 -0.22948,9.98347 0.0186,3.91921 -0.008,7.26579 -0.0592,7.43686 -0.0513,0.17104 0.0272,2.0984 0.17419,4.28298 0.3756,5.57944 0.34215,6.36837 -0.28847,6.80163 -0.44131,0.30321 -0.46801,1.02195 -0.12901,3.47392 0.37062,2.68072 0.39149,5.1705 0.12273,14.6505 -0.0284,1.00253 -0.0175,3.54492 0.0242,5.64975 0.0417,2.10483 0.0468,5.15768 0.0115,6.78409 -0.0354,1.62642 -0.0782,5.30209 -0.0951,8.16816 -0.0169,2.86607 -0.0653,6.64495 -0.10747,8.3975 -0.0422,1.75256 -0.0489,4.19755 -0.015,5.43332 0.19866,7.22369 0.17743,12.42446 -0.0736,18.02332 -0.15564,3.47144 -0.18882,6.87694 -0.0738,7.56778 0.11505,0.69085 0.13755,1.79404 0.05,2.45152 -0.0875,0.6575 -0.0567,2.45679 0.0687,3.99847 0.35365,4.35053 0.50383,4.40218 7.17942,2.46938 6.16824,-1.78592 6.19072,-1.77949 5.73096,1.64054 -0.32404,2.41054 -1.78487,4.9117 -4.44428,7.60929 -1.98162,2.01008 -4.02362,2.82497 -6.18419,2.46787 -0.91424,-0.15111 -1.5865,0.068 -2.99359,0.97583 -2.06469,1.33207 -2.09333,1.33944 -6.09847,1.5662 z"
     style="fill:#9d7b25;fill-opacity:1;stroke-width:0.35277778;filter:url(#filter6136)" />
  <path
     transform="matrix(1.0248362,0,0,1.2566397,6.7650868,6.6496914)"
     id="path5885"
     d="m 181.38803,220.99192 c 0.99724,-0.20774 2.51684,-0.48499 3.37668,-0.617 1.85428,-0.28457 4.38971,-2.00637 5.91349,-4.01572 1.04894,-1.38319 1.32645,-3.02868 0.55967,-3.31849 -0.23946,-0.0905 -2.62099,0.24074 -5.29229,0.73609 -2.67127,0.4954 -5.64856,0.99102 -6.61617,1.10148 -6.05637,0.69129 -6.93606,0.87019 -8.06977,1.64081 -1.08546,0.73819 -1.19669,0.75115 -1.84743,0.2155 -0.74616,-0.61419 -3.76634,-0.5437 -9.10348,0.2125 -1.5397,0.21818 -5.03787,0.54337 -7.7737,0.72271 -2.73583,0.17933 -7.36183,0.53566 -10.28,0.79185 -2.91816,0.25618 -6.6859,0.45148 -8.37276,0.43397 -1.68684,-0.0175 -4.72032,0.20293 -6.74106,0.48987 -2.02075,0.28694 -4.87408,0.59617 -6.34073,0.68717 -1.46665,0.091 -3.06397,0.20338 -3.54959,0.24972 -2.28196,0.2178 -6.03943,0.28785 -7.54676,0.14069 -0.91729,-0.0895 -3.42573,-0.075 -5.57431,0.0323 -5.417251,0.27057 -7.685194,0.35232 -8.742821,0.31514 -0.849486,-0.0299 -0.857445,-0.0133 -0.126264,0.26323 0.429208,0.16233 1.426752,0.28664 2.21676,0.27626 0.790009,-0.0104 2.574955,0.003 3.966555,0.0289 2.49751,0.0472 3.52304,0.028 8.7878,-0.16467 1.47423,-0.0539 3.18798,0.007 3.80832,0.13565 1.58465,0.32836 11.92214,0.71474 17.05292,0.63735 0.98712,-0.0149 2.85056,-0.0142 4.14098,10e-4 1.29041,0.0157 3.55224,-0.0163 5.02627,-0.0712 1.47402,-0.0549 3.25424,-0.0651 3.956,-0.0227 4.12585,0.24931 5.17453,0.29039 7.6222,0.29858 1.48626,0.005 3.42368,-0.0288 4.30537,-0.0751 0.8817,-0.0463 1.86799,-0.008 2.19173,0.0858 0.68656,0.19821 11.25544,0.42665 15.17559,0.32802 1.47765,-0.0372 3.44642,-0.3142 4.37503,-0.61561 0.9286,-0.3014 2.50437,-0.71766 3.5017,-0.92502 z"
     style="opacity:0.6;fill:url(#linearGradient6077);fill-opacity:1;stroke-width:0.31086269;filter:url(#filter6087)" />
  <path
     transform="matrix(1.0248362,0,0,1.2566397,6.7650868,6.6496914)"
     id="path5883"
     d="m 178.24567,212.90451 c 0.65041,-0.63724 0.72346,-1.26119 1.10121,-9.40682 0.26364,-5.68508 0.28515,-8.71878 0.10339,-14.58198 -0.16211,-5.22928 -0.12648,-8.97951 0.1116,-11.74619 0.0781,-0.90709 0.1022,-2.37026 0.0537,-3.25148 -0.0486,-0.88124 -0.0236,-3.88381 0.0554,-6.6724 0.1528,-5.39246 0.15494,-5.81154 0.0765,-14.88359 -0.0466,-5.39341 -0.11582,-5.9957 -0.87532,-7.62208 -1.02956,-2.2047 -0.93942,-2.88354 0.41976,-3.16111 1.00395,-0.20502 1.0351,-0.27609 0.74468,-1.69824 -0.16671,-0.81634 -0.29427,-3.90929 -0.28346,-6.87323 0.0108,-2.96394 -0.0231,-6.63756 -0.0753,-8.16359 -0.0522,-1.52604 0.002,-3.48151 0.12139,-4.3455 0.25297,-1.83707 0.42081,-5.89459 0.34849,-8.42448 -0.0279,-0.97648 0.0144,-2.60539 0.0941,-3.61981 0.0797,-1.01441 0.12855,-3.29929 0.10861,-5.0775 -0.0199,-1.77822 0.0706,-4.470882 0.20116,-5.983702 0.38519,-4.46218 0.50265,-8.558412 0.42054,-14.666596 -0.0425,-3.159848 0.0376,-8.727031 0.17801,-12.371534 0.19153,-4.972513 0.12155,-7.172598 -0.2804,-8.814946 -0.41546,-1.69758 -0.42926,-2.368914 -0.0613,-2.992493 0.47774,-0.809597 0.71792,-7.084857 0.33688,-8.801767 -0.11975,-0.541427 0.13834,-10.494194 0.41835,-16.108037 0.0898,-1.80063 0.10885,-4.072888 0.0423,-5.049464 -0.0665,-0.976573 -0.0436,-3.006573 0.0509,-4.511118 0.3606,-5.740284 0.3372,-7.142639 -0.14574,-8.733716 -0.85428,-2.814546 -2.23421,-3.289038 -11.06426,-3.804451 -2.33644,-0.136374 -5.36154,-0.146484 -6.72244,-0.02246 -1.3609,0.124022 -3.52052,0.259833 -4.79916,0.301786 -1.27864,0.04195 -3.98729,0.260317 -6.01923,0.485252 -6.39079,0.707448 -9.20266,0.431467 -8.56706,-0.840833 0.14325,-0.286729 0.33097,-1.089277 0.41716,-1.7834299 0.12733,-1.0254208 0.0296,-1.3901809 -0.52094,-1.9450894 -0.37271,-0.3756434 -0.63431,-0.9433612 -0.58133,-1.2616081 0.12329,-0.7405729 -0.15646,-0.6807287 -0.70607,0.1513349 -0.23773,0.3597401 -0.3459,1.076904 -0.24036,1.5936981 0.21284,1.0422495 0.0911,4.6826264 -0.21232,6.3471784 -0.18552,1.017873 -0.27906,1.078708 -1.8216,1.184637 -4.57884,0.314461 -17.20247,0.317803 -21.24411,0.0056 -1.72521,-0.133249 -4.75907,-0.252402 -6.74192,-0.264786 -1.98285,-0.01238 -5.06595,-0.0349 -6.85134,-0.05005 -1.78538,-0.01514 -4.20088,0.05778 -5.36779,0.162044 -1.16689,0.104265 -3.667589,0.04138 -5.557097,-0.13974 -3.560383,-0.341297 -4.061717,-0.238622 -3.851933,0.788657 0.229798,1.125286 -0.31244,4.06734 -0.766743,4.160115 -0.255488,0.05217 -0.645822,-0.451175 -0.903913,-1.165632 -1.022307,-2.829989 -1.407839,-3.464307 -2.188908,-3.601471 -1.262211,-0.221644 -5.057844,-0.341697 -11.421974,-0.361264 -3.248311,-0.01 -6.345056,-0.09932 -6.881653,-0.198507 -1.250914,-0.231249 -7.886504,-0.207209 -9.084086,0.03291 -0.502419,0.10056 -1.654293,0.01394 -2.55979,-0.192857 -0.905498,-0.206807 -2.173399,-0.271937 -2.817554,-0.14474 -0.644113,0.127454 -1.763347,0.200664 -2.487079,0.163245 -2.250311,-0.116322 -6.602099,-0.129159 -9.589095,-0.02828 -6.157866,0.20798 -9.342177,0.218524 -9.952752,0.03296 -0.350643,-0.106564 -2.437355,-0.171422 -4.637147,-0.144127 -4.558083,0.05656 -5.000188,0.282838 -4.574806,2.341526 0.256017,1.238681 0.23743,4.945425 -0.03894,7.795136 -0.09061,0.934323 -0.325108,1.457869 -0.644004,1.43784 -0.275841,-0.01736 -0.768591,-0.05172 -1.095029,-0.07645 -0.700471,-0.05306 -1.756096,2.284665 -2.554585,5.657238 -0.292761,1.23653 -0.694172,2.929398 -0.892008,3.761926 -0.626462,2.636172 -1.348654,7.43507 -1.216387,8.082763 0.244086,1.195252 -0.757885,1.223991 -2.329597,0.06683 -0.850172,-0.625941 -1.842245,-1.169576 -2.204619,-1.20809 -0.897411,-0.09538 -2.34275,0.867202 -3.2402081,2.157959 -0.4085139,0.587538 -0.9321551,0.998653 -1.1636457,0.913591 -0.5690309,-0.209084 -0.4692976,0.09992 0.3669965,1.136501 0.3860815,0.478722 1.2821994,1.013385 1.9913663,1.188146 1.186099,0.292302 2.34326,0.344437 8.392923,0.378129 1.171351,0.0065 2.601146,0.263981 3.177334,0.572136 0.576198,0.308154 1.494616,0.577224 2.040927,0.597935 1.231611,0.04671 2.641008,1.342004 2.194843,2.017157 -0.167658,0.253706 -0.865551,0.596209 -1.55087,0.761135 -1.708845,0.411227 -1.697597,0.358103 -1.837419,8.676293 -0.03674,2.185861 -0.121044,4.471446 -0.187328,5.079076 -0.111163,1.018895 0.01323,10.677841 0.196554,15.262356 0.0432,1.080353 0.0063,2.789151 -0.0819,3.797333 -0.595825,6.807119 -0.62608,8.040636 -0.523741,21.350405 0.03992,5.19094 0.01107,7.41493 -0.117076,9.02538 -0.302976,3.80757 -0.319697,4.43789 -0.168109,6.33536 0.08561,1.07169 0.102195,2.85059 0.03685,3.95311 -0.151075,2.54893 -0.229313,4.30791 -0.598008,13.44429 -0.165179,4.09339 -0.216885,8.55967 -0.114897,9.92508 0.101995,1.36539 0.105724,2.94399 0.0083,3.508 -0.300057,1.73688 -0.180631,10.15946 0.153686,10.83896 0.17359,0.35275 0.124125,1.17478 -0.109833,1.82672 -0.233959,0.65194 -0.358176,2.06277 -0.276055,3.13518 0.08212,1.0724 0.04839,4.88691 -0.07497,8.47668 -0.12336,3.58978 -0.233436,8.95913 -0.244619,11.9319 -0.0112,2.97276 -0.04027,6.46227 -0.06462,7.75445 -0.02435,1.29218 0.112038,2.66125 0.303089,3.04238 0.191039,0.38112 0.194255,1.51465 0.0071,2.51894 -0.18712,1.0043 -0.311054,3.68334 -0.275415,5.95343 0.03564,2.2701 0.01126,5.11054 -0.05418,6.3121 -0.267244,4.9069 -0.292239,4.81694 1.460439,5.25664 1.670242,0.41901 5.531014,0.54627 9.2842,0.30603 1.270598,-0.0813 2.961952,-0.12991 3.758565,-0.10794 0.796613,0.022 2.418336,0.0291 3.603832,0.0159 3.727155,-0.0416 12.839792,0.27497 17.495188,0.60777 5.659634,0.40458 6.664359,0.2176 7.614154,-1.41697 0.994245,-1.71109 2.089448,-1.76518 2.425453,-0.11982 0.243744,1.19358 0.276795,1.21099 2.468235,1.30228 1.221655,0.0509 2.47236,0.22479 2.779355,0.38645 0.306994,0.16167 2.090288,0.259 3.962871,0.2163 1.872591,-0.0427 4.555283,0.003 5.961552,0.10077 2.654146,0.1852 10.84301,0.23607 11.665207,0.0725 0.270953,-0.0543 0.343407,-0.29111 0.171194,-0.56105 -0.514893,-0.80712 0.269617,-1.08388 2.930181,-1.03368 3.508059,0.0662 11.542848,-0.0678 17.807258,-0.29699 5.0299,-0.18401 7.75515,-0.37793 14.3735,-1.02281 1.74752,-0.17028 5.02877,-0.36757 7.29167,-0.43843 2.26289,-0.0709 5.78297,-0.2888 7.82238,-0.48432 5.71005,-0.5474 9.83336,-0.90211 12.56139,-1.08063 1.36795,-0.0895 4.93191,-0.48456 7.9199,-0.87788 2.98799,-0.39332 5.68993,-0.65041 6.00432,-0.57132 0.31439,0.0791 1.74694,-0.0514 3.18345,-0.29008 1.4365,-0.23864 2.69945,-0.37759 2.80657,-0.30878 0.29017,0.18642 1.76677,-0.57379 2.48903,-1.28145 z"
     style="fill:url(#linearGradient5922);fill-opacity:1;stroke-width:0.31086269;filter:url(#filter5994)" />
  <path
     transform="matrix(1.0248362,0,0,1.2566397,6.7650868,6.6496914)"
     id="path5193"
     d="m 184.88441,11.833621 c 0.52294,-1.8873158 0.0309,-3.6923531 -1.36007,-4.9897092 l -0.91716,-0.8554087 -4.98822,0.7677453 c -2.7629,0.4252512 -6.51771,0.750524 -8.41666,0.7291421 -5.7916,-0.065235 -6.54964,-0.053843 -10.40976,0.1564267 -4.24618,0.2312975 -7.70808,0.049666 -10.19083,-0.5346723 -0.93614,-0.2203301 -1.85804,-0.3709175 -2.04866,-0.3346545 -0.3771,0.071905 -0.92663,4.4116836 -0.58701,4.6361186 0.32255,0.213153 3.74377,0.02824 11.90903,-0.643688 7.10276,-0.584486 10.92737,-0.597288 17.08918,-0.05719 2.7723,0.243002 7.75609,1.583646 8.69739,2.339604 0.72759,0.584335 0.72341,0.588486 1.22277,-1.21371 z"
     style="opacity:0.6;fill:url(#linearGradient6008);fill-opacity:1;stroke-width:0.31086269;filter:url(#filter6051)" />
  <path
     transform="matrix(1.0248362,0,0,1.2566397,6.7650868,6.6496914)"
     id="path6250"
     d="m 15.998875,40.623588 c 0.05024,-1.179422 2.22405,-9.763526 3.649143,-14.410052 1.037862,-3.383957 1.065585,-3.652535 0.408166,-3.953982 -1.144247,-0.524674 -1.566705,-0.235122 -2.20862,1.51382 -0.825828,2.250013 -2.310816,5.922078 -2.499759,6.181407 -0.08475,0.116309 -0.912466,1.743597 -1.839371,3.616151 -0.926914,1.872566 -2.741671,4.926983 -4.0327998,6.787601 L 7.1281153,43.74147 8.7936296,42.908647 c 2.0439554,-1.022049 3.9539164,-1.209175 5.4108134,-0.530125 1.030038,0.480094 1.123577,0.469188 1.428965,-0.166581 0.179738,-0.374179 0.344194,-1.088927 0.365467,-1.588353 z"
     style="opacity:0.6;fill:url(#linearGradient6059);fill-opacity:1;stroke-width:0.31086269;filter:url(#filter6069)" />
</svg>
