<?xml version="1.0" encoding="UTF-8" standalone="no"?>
<svg
   xmlns:dc="http://purl.org/dc/elements/1.1/"
   xmlns:cc="http://creativecommons.org/ns#"
   xmlns:rdf="http://www.w3.org/1999/02/22-rdf-syntax-ns#"
   xmlns:svg="http://www.w3.org/2000/svg"
   xmlns="http://www.w3.org/2000/svg"
   xmlns:sodipodi="http://sodipodi.sourceforge.net/DTD/sodipodi-0.dtd"
   xmlns:inkscape="http://www.inkscape.org/namespaces/inkscape"
   height="344.24799"
   width="359.289"
   id="Layer_1"
   xml:space="preserve"
   version="1.0"
   viewBox="0 0 359.289 344.248"
   sodipodi:docname="parchment.svg"
   inkscape:version="1.0 (4035a4fb49, 2020-05-01)"><sodipodi:namedview
   inkscape:document-rotation="0"
   pagecolor="#ffffff"
   bordercolor="#666666"
   borderopacity="1"
   objecttolerance="10"
   gridtolerance="10"
   guidetolerance="10"
   inkscape:pageopacity="0"
   inkscape:pageshadow="2"
   inkscape:window-width="1920"
   inkscape:window-height="1001"
   id="namedview183"
   showgrid="false"
   inkscape:zoom="1.3620692"
   inkscape:cx="256.70487"
   inkscape:cy="237.80031"
   inkscape:window-x="-9"
   inkscape:window-y="-9"
   inkscape:window-maximized="1"
   inkscape:current-layer="Layer_1" /><defs
   id="defs61">
<metadata
   id="metadata149">
<rdf:RDF>
      <cc:Work
   rdf:about="">
         <dc:title>Parchment Background</dc:title>
         <dc:description>Parchment Background</dc:description>
         <dc:subject>
          <rdf:Bag>
            <rdf:li>border</rdf:li>
            <rdf:li>background</rdf:li>
		<rdf:li>parchment</rdf:li>
          </rdf:Bag>
         </dc:subject>
         <dc:publisher><cc:Agent
     rdf:about="http://www.openclipart.org/"><dc:title>Open Clip Art Project</dc:title></cc:Agent></dc:publisher>
         <dc:creator><cc:Agent
     rdf:about=""><dc:title>Gerald G.</dc:title></cc:Agent></dc:creator>
         <dc:rights><cc:Agent
     rdf:about="http://web.resource.org/cc/PublicDomain"><dc:title>Public Domain</dc:title></cc:Agent></dc:rights>
         <dc:date>2006/09/25</dc:date>
         <dc:format>image/svg+xml</dc:format>
         <dc:type
   rdf:resource="http://purl.org/dc/dcmitype/StillImage">http://purl.org/dc/dcmitype/StillImage</dc:type>
         <cc:license
   rdf:resource="http://web.resource.org/cc/PublicDomain" />
      </cc:Work>
      <cc:License
   rdf:about="http://web.resource.org/cc/PublicDomain">
         <cc:permits
   rdf:resource="http://web.resource.org/cc/Reproduction" />
         <cc:permits
   rdf:resource="http://web.resource.org/cc/Distribution" />
         <cc:permits
   rdf:resource="http://web.resource.org/cc/DerivativeWorks" />
      </cc:License>
   </rdf:RDF>
</metadata>
	<linearGradient
   id="XMLID_4_"
   y2="142.44"
   gradientUnits="userSpaceOnUse"
   x2="-0.0407"
   gradientTransform="translate(0.044491,-0.0015259)"
   y1="141.78"
   x1="25.021">
		<stop
   id="stop18"
   style="stop-color:#8d5c34"
   offset=".1286" />
		<stop
   id="stop20"
   style="stop-color:#e8d0a9"
   offset=".29050" />
		<stop
   id="stop22"
   style="stop-color:#e3cba4"
   offset=".5952" />
		<stop
   id="stop24"
   style="stop-color:#8d5c34"
   offset="1" />
	</linearGradient>
	<linearGradient
   id="XMLID_5_"
   y2="135.02"
   gradientUnits="userSpaceOnUse"
   x2="320.67001"
   gradientTransform="translate(0.044491,-0.0015259)"
   y1="145.44"
   x1="22.266001">
		<stop
   id="stop31"
   style="stop-color:#8d5c34"
   offset="0" />
		<stop
   id="stop33"
   style="stop-color:#d1b38b"
   offset=".0333" />
		<stop
   id="stop35"
   style="stop-color:#e3cba4"
   offset=".91430" />
		<stop
   id="stop37"
   style="stop-color:#8d5c34"
   offset="1" />
	</linearGradient>
	<linearGradient
   id="XMLID_6_"
   y2="143.92"
   gradientUnits="userSpaceOnUse"
   x2="316.14999"
   gradientTransform="translate(0.044491,-0.0015259)"
   y1="143.67999"
   x1="343.01001">
		<stop
   id="stop42"
   style="stop-color:#8d5c34"
   offset=".0048" />
		<stop
   id="stop44"
   style="stop-color:#93633b"
   offset=".1429" />
		<stop
   id="stop46"
   style="stop-color:#e8d0a9"
   offset=".29520" />
		<stop
   id="stop48"
   style="stop-color:#e3cba4"
   offset=".63810" />
		<stop
   id="stop50"
   style="stop-color:#93633a"
   offset=".93330" />
		<stop
   id="stop52"
   style="stop-color:#8d5c34"
   offset="1" />
	</linearGradient>
		<filter
   id="filter3194"><feGaussianBlur
     id="feGaussianBlur3196"
     stdDeviation="1.5658873"
     inkscape:collect="always" /></filter></defs>
<g
   transform="matrix(-0.01576647,0.9999189,-1.2378546,-0.0127359,357.98388,0.8663567)"
   id="g872"><g
     transform="translate(0.044491,-0.0015259)"
     id="g13">
				<path
   d="m 11.466,283.57 c 2.268,0.36 4.68,0.36 7.632,0 2.88,-0.43 6.012,-1.11 9.54,-2.19 l 0.324,-3.82 c 3.42,-0.28 6.516,-0.39 9.864,-0.32 3.204,0.04 6.012,0.61 9.54,0.61 3.42,-0.22 8.208,-1.01 11.448,-1.26 3.276,-0.29 5.832,-0.4 7.956,-0.32 0.252,-0.58 0.252,-1.8 0,-3.82 -0.324,-2.12 -1.728,-5.9 -1.584,-8.28 0.18,-2.37 0.936,-4.28 2.556,-5.72 -0.72,2.05 -1.044,3.99 -0.972,5.43 0.036,1.41 0.792,1.41 1.296,3.5 0.468,2.08 0.756,5 1.26,8.89 3.096,0.03 6.552,0.25 10.512,0.65 3.888,0.39 7.308,1.62 13.032,1.58 5.616,-0.29 15.34,-2.16 20.99,-2.56 5.69,-0.39 9.75,-0.28 12.74,0.33 3.42,0.83 7.53,1.4 12.71,1.58 5.22,0.11 12.46,-0.32 17.82,-0.61 5.08,-0.47 7.2,-0.9 13.03,-1.3 5.8,-0.43 15.81,-0.97 21.96,-0.93 6.12,0.03 9.9,1.29 14.65,1.26 4.72,-0.11 9.04,-0.79 13.36,-1.91 0.29,-0.79 0.61,-1.98 1.26,-3.17 0.57,-1.29 1.84,-2.23 2.23,-4.46 0.29,-2.38 -0.61,-7.96 -0.32,-9.54 0.25,-1.66 0.64,-1.77 1.58,-0.33 -0.57,2.85 -0.47,5.3 0.32,7.64 0.76,2.26 3.07,4.28 4.14,6.04 0.9,1.8 -0.32,3.24 1.59,4.47 1.87,1.11 3.85,1.62 9.54,1.91 5.54,0.18 17.39,-0.51 23.87,-0.65 6.3,-0.29 8.6,-0.22 14.25,-0.61 5.65,-0.47 13.14,-1.91 19.41,-1.95 6.12,-0.14 11.95,0.29 17.49,1.3 l -0.32,5.72 c 2.99,2.49 6.23,3.6 9.86,3.49 3.57,-0.21 7.49,-1.65 11.77,-4.46 L 342.27,5.22 V 5.224 C 342.09,5.044 340.86,4.72 338.74,4.252 336.51,3.784 333.38,3.388 329.2,2.668 l -1.91,-2.556 c -3.17,-0.072 -5.58,0.144 -7.63,0.647 -2.05,0.612 -3.49,1.332 -4.46,2.557 l 0.32,8.279 c -16.06,-0.252 -28.33,-0.684 -37.22,-1.296 -8.93,-0.576 -10.16,-2.16 -15.92,-2.231 -5.94,0.107 -13.53,1.872 -18.75,2.231 -5.19,0.396 -7.78,-0.071 -12.1,0 -4.46,0.181 -9.18,0.504 -14.29,0.973 -0.04,2.411 -0.25,4.428 -0.65,6.048 -0.5,1.655 -1.01,2.88 -1.91,3.815 0.62,-2.088 0.72,-4.104 0.33,-6.048 -0.51,-1.872 -1.33,-3.672 -2.88,-5.399 -5.98,-0.685 -11.7,-1.116 -17.17,-1.297 -5.66,-0.144 -10.73,-0.035 -15.92,0.324 0.62,1.836 0.83,3.528 0.65,5.076 -0.32,1.62 -1.51,2.412 -1.91,4.464 -0.39,2.196 -0.5,4.824 -0.32,8.28 -0.04,-0.72 -0.14,-1.584 -0.32,-2.88 -0.33,-1.188 -0.69,-2.809 -0.94,-4.428 -0.18,-1.477 0.18,-3.169 -0.32,-4.788 -0.69,-1.513 -0.83,-3.276 -3.5,-4.465 -2.8,-1.079 -8.02,-1.943 -12.74,-2.195 -4.82,-0.252 -12.13,-0.072 -15.26,0.936 -3.06,1.225 -1.48,6.013 -3.17,6.048 -1.77,0.072 -3.89,-4.752 -7.35,-5.724 -3.6,-0.9 -8.85,0.36 -13.68,0.324 -4.82,0.071 -9.75,0.071 -14.94,0 -0.97,1.332 -1.72,2.808 -2.55,4.428 -0.83,1.656 -1.3,5.544 -2.23,5.437 -1.192,-0.036 -3.532,-4.393 -3.82,-5.725 -0.18,-1.224 2.988,-0.756 2.556,-1.908 C 98.62,10.515 97.828,7.78 93.472,7.131 88.938,6.59 82.278,7.058 72.81,8.39 71.946,12.855 70.866,15.086 69.282,15.086 67.662,15.05 66.078,9.722 63.558,8.39 61.002,7.239 61.434,8.102 54.018,7.779 46.35,7.526 34.722,7.202 18.45,6.806 17.802,4.863 16.182,3.746 13.05,3.315 9.99,2.955 5.598,3.422 0.018,4.575 l 3.168,271.7 v -0.01 c 1.62,1.01 3.24,1.62 4.464,2.23 1.188,0.5 2.376,0.83 3.168,0.97 0.216,1.37 0.432,2.74 0.648,4.1 z"
   style="fill-rule:evenodd;stroke:#000000;stroke-width:0.036;stroke-miterlimit:10"
   id="path15" />
			</g><path
     d="M 3.4975,275.85 C 3.3895,240.64 3.1735,201.36 2.7055,155.93 2.2375,110.46 1.5895,61.103 0.7615,5.34 l -10e-6,5e-4 c 3.348,-1.367 6.408,-2.016 9.3235,-1.943 2.88,0.18 5.364,1.08 7.74,2.699 l 10.872,274.39 c -1.8,-0.87 -3.816,-1.77 -6.588,-2.7 -2.808,-0.79 -6.588,-2.45 -9.684,-2.74 -3.0955,-0.36 -6.1195,0 -8.9275,0.8 z"
     style="fill:url(#XMLID_4_);fill-rule:evenodd"
     id="path26" /><path
     d="m 12.101,282.58 -1.188,-3.89 -5.0755,-2.09 c 3.78,-1.15 7.2715,-1.3 10.764,-0.58 3.419,0.87 6.695,2.38 9.827,5.08 -2.772,1.37 -5.4,2.16 -7.74,2.38 -2.484,0.32 -4.536,-0.11 -6.588,-0.9 z"
     style="fill:#412318;fill-rule:evenodd"
     id="path28" /><path
     d="M 28.841,276.02 17.465,6.71 v -5e-4 c 6.66,0.322 12.348,0.719 17.64,0.898 5.22,0.324 9.144,0.434 13.428,0.613 4.176,0.287 8.748,-0.396 11.628,0.287 2.7,0.793 3.564,2.3045 5.076,3.5635 1.404,1.26 2.376,3.707 3.6,3.889 1.152,0.322 2.521,-1.117 3.564,-2.377 0.936,-1.225 1.584,-2.916 2.088,-5.0755 4.176,-0.432 7.632,-0.684 10.764,-0.9 2.988,-0.18 5.472,-0.18 7.452,0 1.8,0.289 3.276,0.938 3.888,1.801 0.54,1.1145 -0.252,2.7355 -0.288,3.8885 -0.072,1.043 -0.72,1.979 0,2.951 0.612,1.26 2.88,3.527 3.885,3.889 0.87,0.359 0.9,-1.117 1.48,-2.088 0.43,-1.008 0.76,-2.018 1.51,-3.564 0.65,-1.404 1.59,-2.953 2.67,-4.7885 3.13,-0.18 6.84,-0.18 11.12,-0.287 4.32,-0.072 10.94,-0.576 14.33,0 3.24,0.7555 3.31,3.1675 5.07,4.1755 1.66,1.152 3.86,2.268 5.08,2.088 1.19,-0.252 1.01,-2.123 1.8,-3.275 0.58,-0.936 0.25,-1.98 2.09,-2.7005 1.76,-0.684 4.64,-1.402 8.64,-1.475 3.89,0.107 11.27,0.971 14.65,1.764 3.24,0.8625 3.78,1.3665 5.08,3.3125 1.11,2.088 1.44,6.264 2.08,8.639 0.62,2.449 1.44,4.248 2.09,5.689 -0.18,-2.846 -0.03,-5.293 0.29,-7.488 0.32,-2.053 1.12,-3.564 1.8,-5.365 0.65,-1.836 1.12,-3.492 1.8,-5.3625 5.83,-0.359 11.16,-0.469 16.13,-0.324 4.93,0.217 9.36,0.576 13.43,1.2245 1.15,2.051 2.08,4.031 2.66,5.939 0.61,2.016 0.86,3.816 0.9,5.688 1.62,-1.619 2.77,-3.311 3.31,-5.076 0.51,-1.764 0.51,-3.455 0,-5.363 6.3,0.396 12.42,0.539 18.51,0.287 6.12,-0.215 12.96,-0.898 17.6,-1.475 4.43,-0.4685 5.62,-1.4765 8.96,-1.5115 3.21,0.143 7.06,1.2595 10.44,1.7985 3.21,0.541 4.07,0.936 9.54,1.188 5.66,0.289 17.5,0.686 23.3,0.613 5.54,0.035 8.78,-0.217 9.86,-0.613 l 0.9,262.15 c -2.77,-0.97 -6.41,-1.48 -11.05,-1.51 -4.79,0.03 -10.55,1.04 -16.74,1.51 -6.3,0.61 -13.57,1.48 -20.27,1.76 -6.77,0.29 -14.37,0.4 -19.73,0.33 -5.4,0.18 -9.72,0.5 -12.53,0 -2.91,-0.43 -3.63,-1.77 -4.79,-3.31 -1.26,-1.59 -1.54,-3.71 -2.37,-5.98 -0.94,-2.09 -2.16,-4.64 -2.7,-6.84 -0.58,-2.09 -0.51,-5.15 -0.9,-5.98 -0.61,-0.61 -1.73,-0.07 -2.09,1.48 -0.29,1.66 0.18,5.54 0,7.78 -0.29,2.3 -0.94,3.92 -1.8,5.68 -0.94,1.88 -1.15,4.07 -3.56,5.08 -2.45,1.12 -6.23,1.19 -11.34,1.19 -5.29,0 -11.74,-1.37 -20.02,-1.19 -8.53,0.36 -20.7,2.27 -29.7,2.66 -8.96,0.47 -15.95,-0.32 -23.58,-0.57 -7.81,-0.22 -15.41,-1.55 -22.1,-1.23 -6.66,0.47 -13,3.1 -17.608,3.32 -4.68,0.14 -6.588,-1.48 -10.44,-2.09 -3.996,-0.4 -8.1,-0.65 -12.852,-0.61 -0.72,-3.64 -1.368,-6.48 -1.8,-8.68 -0.54,-2.12 -0.936,-2.92 -0.9,-4.46 0.072,-1.55 0.432,-3.24 1.224,-5.08 -2.592,1.4 -4.14,2.95 -4.788,4.79 -0.684,1.91 0.54,3.99 0.9,6.26 0.324,2.31 0.72,4.79 1.188,7.45 -4.608,0.65 -9.108,1.05 -14.04,1.19 -5.004,0.25 -11.196,0.25 -15.228,0 -4.068,-0.11 -7.019,-0.4 -8.855,-0.87 z"
     style="fill:url(#XMLID_5_);fill-rule:evenodd"
     id="path39" /><path
     d="m 317.38,279.59 c -0.11,-75.93 -0.11,-135.32 -0.29,-181.8 -0.21,-46.153 -0.32,-76.755 -0.61,-93.458 v 5e-4 c 2.67,1.908 5.26,3.203 8.07,3.889 2.7,0.756 5.43,0.576 8.35,0.287 2.84,-0.215 5.83,-0.863 8.96,-1.799 l -4.5,271.98 c -3.27,1.87 -6.01,3.17 -8.35,3.89 -2.34,0.93 -3.85,1 -5.65,0.61 -1.91,-0.43 -4,-1.73 -5.98,-3.6 z"
     style="fill:url(#XMLID_6_);fill-rule:evenodd"
     id="path54" /><path
     d="m 315.87,4.6195 c 2.74,1.801 5.87,2.953 9.25,3.602 3.39,0.646 8.17,0.791 11.05,0.287 2.74,-0.396 4.68,-1.295 5.69,-2.699 -1.44,-0.541 -3.27,-1.08 -5.36,-1.477 -2.2,-0.396 -4.65,-0.648 -7.49,-0.9 l -3.56,-2.375 c -2.2,-0.43203 -4.14,-0.28903 -5.69,0.287 -1.69,0.613 -2.85,1.656 -3.89,3.275 z"
     style="fill:#412318;fill-rule:evenodd"
     id="path56" /></g>
<metadata
   id="metadata180"><rdf:RDF><cc:Work><dc:format>image/svg+xml</dc:format><dc:type
         rdf:resource="http://purl.org/dc/dcmitype/StillImage" /><cc:license
         rdf:resource="http://creativecommons.org/licenses/publicdomain/" /><dc:publisher><cc:Agent
           rdf:about="http://openclipart.org/"><dc:title>Openclipart</dc:title></cc:Agent></dc:publisher><dc:title>Parchment Background or Border</dc:title><dc:date>2010-04-27T15:11:53</dc:date><dc:description /><dc:source>https://openclipart.org/detail/57367/parchment-background-or-border-by-gerald_g-57367</dc:source><dc:creator><cc:Agent><dc:title>Gerald_G</dc:title></cc:Agent></dc:creator><dc:subject><rdf:Bag><rdf:li>background</rdf:li><rdf:li>border</rdf:li><rdf:li>paper</rdf:li><rdf:li>parchment</rdf:li><rdf:li>scroll</rdf:li></rdf:Bag></dc:subject></cc:Work><cc:License
       rdf:about="http://creativecommons.org/licenses/publicdomain/"><cc:permits
         rdf:resource="http://creativecommons.org/ns#Reproduction" /><cc:permits
         rdf:resource="http://creativecommons.org/ns#Distribution" /><cc:permits
         rdf:resource="http://creativecommons.org/ns#DerivativeWorks" /></cc:License></rdf:RDF></metadata></svg>
