<?xml version="1.0" encoding="UTF-8" standalone="no"?>
<svg
   xmlns:dc="http://purl.org/dc/elements/1.1/"
   xmlns:cc="http://creativecommons.org/ns#"
   xmlns:rdf="http://www.w3.org/1999/02/22-rdf-syntax-ns#"
   xmlns:svg="http://www.w3.org/2000/svg"
   xmlns="http://www.w3.org/2000/svg"
   xmlns:sodipodi="http://sodipodi.sourceforge.net/DTD/sodipodi-0.dtd"
   xmlns:inkscape="http://www.inkscape.org/namespaces/inkscape"
   inkscape:version="1.0 (4035a4fb49, 2020-05-01)"
   sodipodi:docname="black_brian.svg"
   viewBox="0 0 49.599998 43.84"
   height="43.84"
   width="49.599998"
   id="svg857"
   version="1.1">
  <metadata
     id="metadata863">
    <rdf:RDF>
      <cc:Work
         rdf:about="">
        <dc:format>image/svg+xml</dc:format>
        <dc:type
           rdf:resource="http://purl.org/dc/dcmitype/StillImage" />
        <dc:title></dc:title>
      </cc:Work>
    </rdf:RDF>
  </metadata>
  <defs
     id="defs861" />
  <sodipodi:namedview
     inkscape:current-layer="g865"
     inkscape:window-maximized="1"
     inkscape:window-y="-9"
     inkscape:window-x="-9"
     inkscape:cy="25.178984"
     inkscape:cx="28.242838"
     inkscape:zoom="12.930543"
     showgrid="false"
     id="namedview859"
     inkscape:window-height="1001"
     inkscape:window-width="1920"
     inkscape:pageshadow="2"
     inkscape:pageopacity="0"
     guidetolerance="10"
     gridtolerance="10"
     objecttolerance="10"
     borderopacity="1"
     bordercolor="#666666"
     pagecolor="#787878" />
  <g
     id="g865"
     inkscape:label="Image"
     inkscape:groupmode="layer">
    <g
       id="g1479">
      <path
         style="fill:#000000;stroke:#ffffff;stroke-width:0.4;stroke-miterlimit:4;stroke-dasharray:none;stroke-opacity:1"
         d="M 15.910108,42.785904 C 13.498322,41.403872 12.582881,40.523283 12.242036,39.257478 12.047483,38.534963 11.95677,37.33638 12.040451,36.593958 L 12.1926,35.244102 10.729365,35.024678 C 5.942542,34.306848 2.669672,30.960167 1.529305,25.617132 0.955412,22.928238 0.960441,20.760032 1.547035,17.971446 2.38799,13.973682 3.823641,11.663693 6.557638,9.909292 8.128576,8.901224 8.851662,8.716321 11.368131,8.67918 l 1.493878,-0.02205 0.488004,-2.139418 c 0.268402,-1.17668 0.762604,-2.5086803 1.098226,-2.9599999 0.656114,-0.8822927 1.856145,-1.2384504 2.386349,-0.7082457 0.222028,0.2220285 0.473393,0.1796494 0.785469,-0.1324268 0.252422,-0.2524214 0.844879,-0.5430945 1.316572,-0.6459401 0.471693,-0.1028457 1.505623,-0.4511553 2.297623,-0.7740214 3.401755,-1.3867566 8.418177,-1.1020259 11.246659,0.6383572 1.419539,0.8734495 1.63767,0.9228864 2.281475,0.5170626 1.268643,-0.7996942 2.09712,-0.8913727 3.223776,-0.3567401 1.630944,0.7739341 4.432214,6.4625502 4.883833,9.9177362 0.316314,2.420017 -0.03694,3.201966 -1.88366,4.16956 l -1.672084,0.876092 0.06949,8.358992 c 0.03822,4.597446 0.139386,9.378615 0.224816,10.62482 l 0.155328,2.265824 -1.504816,1.134819 c -1.842275,1.389305 -3.050473,2.013811 -5.610614,2.900067 -1.74944,0.605613 -2.775688,0.692003 -9.014198,0.758845 -5.09149,0.05455 -7.229356,-0.03308 -7.724147,-0.316611 z"
         id="path1444" />
      <path
         style="fill:#ffffff;stroke-width:0.32"
         d="m 15.443349,42.521965 c -0.746157,-0.368413 -1.762302,-1.131856 -2.258099,-1.696538 -0.495797,-0.564681 -1.088493,-0.964345 -1.317104,-0.888144 -0.30078,0.100263 -0.367796,-0.115133 -0.242488,-0.779366 0.09524,-0.504855 0.261766,-1.591994 0.370054,-2.415866 L 12.1926,35.244102 10.672238,35.016112 C 7.1229133,34.483856 4.2631649,32.446301 2.6910335,29.329541 1.7120017,27.388606 0.9733614,24.191447 0.96555631,21.86092 0.95856486,19.773331 1.7450735,15.976681 2.4640094,14.627557 2.7651764,14.062401 2.9893446,13.514097 2.9621612,13.409105 2.8685602,13.047585 5.2824398,10.644864 6.6027245,9.7853699 7.981657,8.8876973 8.7625072,8.6988752 11.248082,8.662048 L 12.736165,8.64 13.116023,6.96 C 13.706438,4.3487706 13.733277,4.282289 14.55496,3.3956778 15.386761,2.4981501 16.278163,2.3261638 16.895999,2.944 c 0.250679,0.250679 0.384,0.2641578 0.384,0.038823 0,-0.3565239 1.886857,-1.2763484 2.329663,-1.1356879 0.137314,0.043619 0.685362,-0.146002 1.217884,-0.4213798 0.942542,-0.48740734 1.459556,-0.60108654 4.452453,-0.97898962 2.212791,-0.27940165 5.266691,0.35170148 7.069414,1.46092812 1.43583,0.8834743 1.654605,0.9336944 2.29872,0.5276739 2.289261,-1.44304298 3.778582,-0.7700666 5.408902,2.4441067 1.944928,3.8344231 2.476515,5.2312226 2.708506,7.1168896 0.299484,2.434239 -0.04994,3.203667 -1.893459,4.169331 l -1.672084,0.875863 0.06434,8.359221 c 0.03539,4.597572 0.110615,9.548296 0.167172,11.001611 0.06624,1.70209 -0.0136,2.603031 -0.224336,2.531783 -0.179946,-0.06084 -1.013316,0.360448 -1.85194,0.936189 -0.83862,0.575737 -2.71062,1.522662 -4.159999,2.104272 l -2.635232,1.057478 -6.88,0.07985 c -6.426772,0.07459 -6.969371,0.03572 -8.23665,-0.589997 z m 5.11665,-2.413895 c -0.22,-0.08877 -0.58,-0.08877 -0.8,0 -0.22,0.08877 -0.04,0.161405 0.4,0.161405 0.44,0 0.62,-0.07263 0.4,-0.161405 z m -1.446666,-0.301404 c -0.106334,-0.106333 -0.382334,-0.1177 -0.613334,-0.02525 -0.255274,0.10215 -0.179448,0.177977 0.193334,0.193331 0.337333,0.01389 0.526333,-0.06174 0.42,-0.168071 z m -3.103189,-1.132112 c -1.229633,-0.614455 -2.213916,-1.360308 -2.531111,-1.917978 -0.681492,-1.198154 -1.004878,-1.157165 -0.97377,0.123424 0.01389,0.572 0.101796,0.848294 0.195337,0.613987 0.124599,-0.312102 0.398477,-0.20719 1.024266,0.392352 0.469805,0.450103 1.425903,1.027661 2.124662,1.283466 2.180892,0.79839 2.260179,0.553913 0.160616,-0.495251 z m 13.269855,-0.263127 c 2.871683,-0.763705 6.56263,-2.436048 7.978473,-3.614989 0.806992,-0.671961 0.972816,-1.090726 1.183568,-2.988941 0.288534,-2.598759 0.351686,-13.100127 0.08476,-14.095007 -0.145562,-0.542542 -0.415597,-0.680958 -1.280637,-0.656438 -1.788499,0.0507 -2.156893,-0.605785 -2.310474,-4.117285 -0.08804,-2.012912 -0.01062,-3.1918307 0.225056,-3.4275152 0.265668,-0.2656691 0.359252,0.4743274 0.359252,2.8407482 0,2.062222 0.136534,3.336533 0.384,3.584 0.79528,0.79528 3.65295,0.288937 5.455999,-0.966735 1.136951,-0.791789 1.154525,-2.038629 0.0741,-5.2571568 C 40.376126,6.5604614 39.510645,4.8711325 38.302728,3.6 37.14981,2.3867397 36.201874,2.2841516 34.703106,3.2104397 34.022034,3.6313654 33.577285,3.7421334 33.44269,3.5243546 33.049103,2.8875164 30.211059,1.6566639 28.337786,1.3103707 c -1.838449,-0.33985588 -5.777577,0.00157 -6.317314,0.5475601 -0.120739,0.1221381 0.261138,0.7445435 0.848616,1.3831233 l 1.068141,1.1610541 0.659788,-0.89241 C 25.97654,1.6437931 28.974418,1.50365 30.695383,3.2246154 c 1.671204,1.6712041 1.699608,3.9650732 0.07165,5.7870678 -0.761912,0.8527286 -1.1794,1.0299558 -2.728926,1.1584548 -1.825422,0.151378 -1.832443,0.14853 -3.23026,-1.3103134 -1.248363,-1.3028636 -1.446965,-1.4061638 -1.824358,-0.9489177 -0.232922,0.2822067 -1.032287,0.7830201 -1.776366,1.112919 -1.179907,0.5231293 -2.03906,0.5880765 -6.72,0.5079949 -5.3054193,-0.090765 -5.3879165,-0.081612 -7.1751753,0.7960812 -0.9944259,0.488347 -2.191351,1.39044 -2.6598332,2.004652 -3.1640949,4.148343 -3.87111025,10.921712 -1.6600672,15.903825 2.1440569,4.831176 5.5995285,6.370043 14.4479467,6.434283 4.770627,0.03464 10.195058,-0.533433 10.96,-1.147776 0.274035,-0.220086 0.560013,-0.188451 0.908121,0.100452 0.438095,0.363587 0.235884,0.477235 -1.467293,0.824652 -2.446317,0.499005 -7.485838,1.07201 -9.428215,1.07201 -1.067801,0 -1.452613,0.125203 -1.452613,0.472624 0,0.881331 1.557972,1.540797 4.012194,1.698301 2.795546,0.179408 2.88417,0.709075 0.118648,0.709075 -2.415475,0 -3.94363,-0.629766 -4.597801,-1.89479 C 16.212826,35.963344 15.861262,35.52 15.711782,35.52 c -0.149481,0 -0.721783,-0.09 -1.271783,-0.2 -1.290042,-0.25801 -1.341271,0.400966 -0.12,1.5436 1.063206,0.994746 2.520912,1.756349 4.149601,2.168029 1.940533,0.490505 7.924909,0.147177 10.810399,-0.620202 z M 9.4272771,30.379424 C 7.9827539,29.959374 6.0206833,28.130134 5.1173227,26.36125 4.4330728,25.02141 4.3199998,24.36888 4.3199998,21.76 c 0,-2.809 0.075471,-3.173737 0.9932099,-4.8 2.5864268,-4.583231 7.4716633,-5.136345 10.8196163,-1.225015 3.656626,4.271946 2.315997,11.976236 -2.471899,14.205447 -1.74615,0.812995 -2.631702,0.904819 -4.2336499,0.438992 z M 29.707299,9.1912035 c 0.954455,-0.4707414 1.6527,-1.8202297 1.6527,-3.1941507 0,-1.738488 -0.494608,-2.0746928 -3.412401,-2.3195498 -2.560859,-0.2149033 -2.623047,-0.2029804 -3.152,0.6043037 -1.225009,1.8695997 -0.327449,4.4793357 1.794373,5.217304 1.128691,0.3925578 1.839436,0.3223555 3.117328,-0.3079072 z M 27.576535,6.2230973 C 27.721262,5.5280211 28.289182,5.4854902 28.41908,6.16 28.48654,6.510273 28.32959,6.72 27.999999,6.72 27.692566,6.72 27.51617,6.5130122 27.576535,6.2230973 Z M 16.774645,8.1662144 C 16.396641,7.5893075 16.285337,6.832167 16.367268,5.395049 16.493013,3.1893956 16.130064,2.7436729 15.104582,3.8443984 14.54234,4.4478947 13.439999,7.5846208 13.439999,8.5809933 13.439999,8.8310515 14.095746,8.96 15.367376,8.96 h 1.927377 z m 4.505354,0.1919517 c 0.704,-0.3232781 1.561012,-0.9035117 1.90447,-1.2894083 0.580438,-0.6521559 0.59172,-0.7963684 0.16,-2.045194 L 22.879999,3.68 20.369664,3.5859933 c -1.550013,-0.058045 -2.679113,0.046067 -2.951532,0.2721545 -0.666772,0.5533719 -0.907002,2.4181847 -0.452783,3.5147684 0.700459,1.6910556 2.087754,2.0078444 4.31465,0.9852499 z M 19.589812,6.030561 C 19.755904,5.5322864 20.471813,5.4450275 20.496902,5.92 c 0.0093,0.176 -0.223288,0.3697526 -0.516854,0.430561 -0.333669,0.069116 -0.479955,-0.050841 -0.390236,-0.32 z M 29.759999,3.2342365 C 29.759999,2.8293921 28.926021,2.56 27.672712,2.56 c -1.597628,0 -1.661957,0.583202 -0.08001,0.7253379 0.752012,0.067567 1.547294,0.1480074 1.767294,0.1787559 0.22,0.030748 0.4,-0.072687 0.4,-0.2298573 z M 21.439999,2.88 c 0,-0.176 -0.468,-0.3098789 -1.04,-0.2975087 -0.871528,0.018848 -0.936325,0.067042 -0.4,0.2975087 0.884065,0.3798957 1.44,0.3798957 1.44,0 z"
         id="path1446" />
      <ellipse
         style="fill:#ffffff;stroke:none;stroke-width:0.331911;stroke-linejoin:round;stroke-miterlimit:4;stroke-dasharray:none;stroke-opacity:1"
         id="path1448"
         cx="-55.75914"
         cy="84.396729"
         rx="3.5624638"
         ry="0.86241096"
         transform="matrix(0.86550123,-0.50090679,0.988525,0.15105733,0,0)" />
      <ellipse
         transform="matrix(-0.20822627,-0.97808068,0.86481584,-0.5020892,0,0)"
         ry="0.55742407"
         rx="1.4206129"
         cy="32.175808"
         cx="-54.668156"
         id="path1448-3"
         style="fill:#ffffff;stroke:none;stroke-width:0.168508;stroke-linejoin:round;stroke-miterlimit:4;stroke-dasharray:none;stroke-opacity:1" />
    </g>
  </g>
</svg>
