<?xml version="1.0" encoding="UTF-8" standalone="no"?>
<svg
   xmlns:dc="http://purl.org/dc/elements/1.1/"
   xmlns:cc="http://creativecommons.org/ns#"
   xmlns:rdf="http://www.w3.org/1999/02/22-rdf-syntax-ns#"
   xmlns:svg="http://www.w3.org/2000/svg"
   xmlns="http://www.w3.org/2000/svg"
   xmlns:sodipodi="http://sodipodi.sourceforge.net/DTD/sodipodi-0.dtd"
   xmlns:inkscape="http://www.inkscape.org/namespaces/inkscape"
   inkscape:version="1.0 (4035a4fb49, 2020-05-01)"
   sodipodi:docname="BP.svg"
   id="svg4"
   height="100"
   width="100"
   version="1.1">
  <metadata
     id="metadata10">
    <rdf:RDF>
      <cc:Work
         rdf:about="">
        <dc:format>image/svg+xml</dc:format>
        <dc:type
           rdf:resource="http://purl.org/dc/dcmitype/StillImage" />
        <dc:title></dc:title>
      </cc:Work>
    </rdf:RDF>
  </metadata>
  <defs
     id="defs8" />
  <sodipodi:namedview
     fit-margin-bottom="0"
     fit-margin-right="0"
     fit-margin-left="0"
     fit-margin-top="0"
     inkscape:current-layer="svg4"
     inkscape:window-maximized="0"
     inkscape:window-y="-9"
     inkscape:window-x="951"
     inkscape:cy="45.742454"
     inkscape:cx="60.820828"
     inkscape:zoom="0.91327431"
     showgrid="false"
     id="namedview6"
     inkscape:window-height="1001"
     inkscape:window-width="960"
     inkscape:pageshadow="2"
     inkscape:pageopacity="0"
     guidetolerance="10"
     gridtolerance="10"
     objecttolerance="10"
     borderopacity="1"
     bordercolor="#666666"
     pagecolor="#ffffff"
     inkscape:document-rotation="0" />
  <path
     id="path2"
     style="opacity:1;fill:#000000;fill-opacity:1;fill-rule:nonzero;stroke:#000000;stroke-width:3.28125;stroke-linecap:round;stroke-linejoin:miter;stroke-miterlimit:4;stroke-dasharray:none;stroke-opacity:1"
     d="m 51.635266,19.752164 c -4.834325,0 -8.750017,3.915625 -8.750017,8.749999 0,1.946876 0.634399,3.740625 1.706437,5.20625 -4.265513,2.450001 -7.174988,7.021874 -7.174988,12.29375 0,4.440625 2.056431,8.400001 5.271962,11.003125 -6.562469,2.318749 -16.209353,12.140623 -16.209353,29.465624 h 50.312498 c 0,-17.325001 -9.646884,-27.146875 -16.209353,-29.465624 3.215531,-2.603124 5.271962,-6.5625 5.271962,-11.003125 0,-5.271876 -2.909649,-9.843749 -7.174988,-12.29375 1.072038,-1.465625 1.706437,-3.259374 1.706437,-5.20625 0,-4.834374 -3.915518,-8.749999 -8.750017,-8.749999 z" />
</svg>
