<?xml version="1.0" encoding="UTF-8" standalone="no"?>
<svg
   xmlns:dc="http://purl.org/dc/elements/1.1/"
   xmlns:cc="http://creativecommons.org/ns#"
   xmlns:rdf="http://www.w3.org/1999/02/22-rdf-syntax-ns#"
   xmlns:svg="http://www.w3.org/2000/svg"
   xmlns="http://www.w3.org/2000/svg"
   xmlns:sodipodi="http://sodipodi.sourceforge.net/DTD/sodipodi-0.dtd"
   xmlns:inkscape="http://www.inkscape.org/namespaces/inkscape"
   version="1.1"
   id="svg833"
   width="100"
   height="100"
   viewBox="0 0 100 100"
   sodipodi:docname="evil_morty_red.svg"
   inkscape:version="1.0 (4035a4fb49, 2020-05-01)">
  <metadata
     id="metadata839">
    <rdf:RDF>
      <cc:Work
         rdf:about="">
        <dc:format>image/svg+xml</dc:format>
        <dc:type
           rdf:resource="http://purl.org/dc/dcmitype/StillImage" />
        <dc:title></dc:title>
      </cc:Work>
    </rdf:RDF>
  </metadata>
  <defs
     id="defs837" />
  <sodipodi:namedview
     inkscape:document-rotation="0"
     pagecolor="#ffffff"
     bordercolor="#666666"
     borderopacity="1"
     objecttolerance="10"
     gridtolerance="10"
     guidetolerance="10"
     inkscape:pageopacity="0"
     inkscape:pageshadow="2"
     inkscape:window-width="1920"
     inkscape:window-height="1001"
     id="namedview835"
     showgrid="false"
     inkscape:zoom="5.8460771"
     inkscape:cx="52.408255"
     inkscape:cy="43.598538"
     inkscape:window-x="-9"
     inkscape:window-y="-9"
     inkscape:window-maximized="1"
     inkscape:current-layer="g841" />
  <g
     inkscape:groupmode="layer"
     inkscape:label="Image"
     id="g841">
    <g
       id="g1219"
       transform="matrix(0.16136069,0,0,0.16136069,8.435655,11.469797)">
      <path
         d="m 283.19756,4.3817414 c -14.48386,0.11636 -30.35474,2.76059 -61.71485,9.5820296 -11.22,2.44057 -26.14868,5.51553 -33.17382,6.83203 -15.55288,2.91459 -25.74893,6.07659 -35.11524,10.88867 -8.10474,4.16393 -11.61378,6.80596 -24.45703,18.41602 -5.06447,4.57819 -10.88504,9.17482 -12.93359,10.21289 -12.31963,6.24283 -32.879851,27.39561 -42.291021,43.509769 -7.13679,12.21986 -9.73782,21.05249 -12.19922,41.42382 -1.52241,12.60005 -1.95767,14.625 -3.14062,14.625 -3.99149,0 -6.38899,9.53032 -3.28906,13.07422 0.77,0.88028 0.97288,1.35295 0.45117,1.04883 -2.58049,-1.50423 -15.33795,22.06976 -20.16211,37.25781 -4.94452,15.56695 -4.30618,22.76869 3.88281,43.82032 7.03734,18.09104 6.92518,17.70577 9.22656,31.50976 2.33864,14.0275 4.76646,19.80052 11.28907,26.8457 2.42449,2.61875 6.72673,6.22397 9.56054,8.01368 2.83381,1.78972 5.15235,3.63213 5.15235,4.09375 0,1.75817 3.41952,8.69386 4.08398,8.2832 0.38333,-0.23691 0.45966,0.18833 0.16992,0.94336 -0.355,0.92513 -0.22418,1.18483 0.40039,0.79883 0.58255,-0.36005 0.76856,-0.15885 0.5,0.54101 -0.23499,0.61236 0.1984,1.6217 0.96289,2.24219 0.89841,0.72919 1.17739,0.7733 0.78907,0.12695 -1.16613,-1.94103 -0.0071,-0.94249 5.11523,4.40039 l 5.17773,5.40039 -5,-4.77539 c -2.75,-2.62611 -5,-4.37159 -5,-3.8789 0,1.31478 9.42231,9.25737 10.32227,8.70117 0.42143,-0.26045 1.02732,-0.0523 1.3457,0.46289 0.38408,0.62145 0.20057,0.74135 -0.54492,0.35352 -0.61798,-0.32151 -0.25393,0.17854 0.80859,1.11132 1.06253,0.93277 2.40122,1.51495 2.97461,1.29492 0.57339,-0.22004 1.28973,-4.7e-4 1.5918,0.48829 0.35226,0.56997 0.14643,0.68051 -0.57422,0.30664 -0.61798,-0.32062 -0.41424,-0.009 0.45313,0.69336 0.86737,0.70233 2.05515,1.09381 2.640621,0.86914 0.58574,-0.22468 0.845,-0.0522 0.57617,0.38281 -0.26881,0.43496 -0.16403,0.79102 0.23243,0.79102 0.39644,0 1.73216,2.60882 2.96875,5.79882 3.71024,9.57126 9.1544,19.92535 10.15234,19.3086 0.54021,-0.33387 0.67788,-0.19495 0.34375,0.3457 -0.7812,1.264 1.76703,5.92798 2.86719,5.24805 0.53428,-0.33021 0.66405,-0.18537 0.32617,0.36133 -0.50676,0.81995 5.38837,10.5371 6.39258,10.5371 0.22957,0 0.15966,-0.41583 -0.1543,-0.92382 -0.34565,-0.55928 -0.21977,-0.70759 0.31836,-0.375 0.4888,0.30207 0.71826,0.99381 0.50977,1.53711 -0.20848,0.54331 0.74663,2.24278 2.12304,3.77539 1.3764,1.5326 2.06015,2.15671 1.51758,1.38672 -1.38604,-1.96699 -0.5416,-1.74678 1.28516,0.33593 0.8382,0.95564 1.07343,1.4759 0.52343,1.1543 -1.95931,-1.14566 -0.95668,0.84945 1.5879,3.16016 2.16093,1.96233 2.32579,2.0199 1,0.34961 l -1.5879,-2 1.78125,1.50585 c 0.97962,0.8288 1.57811,1.83502 1.33008,2.23633 -0.48736,0.78857 13.89477,15.85742 15.13477,15.85742 0.41283,0 0.30166,-0.54117 -0.2461,-1.20117 -1.74574,-2.1035 -0.35704,-1.28645 1.66016,0.97657 1.44571,1.62188 1.53252,1.87985 0.33984,1.01367 -1.58932,-1.15424 -1.58994,-1.14996 -0.0508,0.65234 0.85224,0.99794 1.96746,1.65509 2.47852,1.45899 0.51106,-0.19613 2.39602,0.95972 4.18945,2.57031 3.57477,3.21032 4.36927,3.60143 7.48047,3.67773 1.33615,0.0328 1.95921,0.41396 1.71484,1.05078 -0.23945,0.62399 0.32536,1.00567 1.50196,1.01368 1.03708,0.007 2.42594,0.38947 3.08594,0.85156 0.91863,0.64315 0.73025,0.71502 -0.80079,0.30468 l -2,-0.5371 1.59961,1.62304 c 0.88,0.8919 4.84078,2.8609 8.80078,4.37696 7.81507,2.99192 12.85365,4.39309 10.80079,3.0039 -1.34513,-0.91026 -0.78253,-1.08504 1.1289,-0.35156 0.69349,0.26612 1.02404,0.86727 0.73438,1.33594 -0.33026,0.53437 -0.0301,0.66019 0.80468,0.33984 1.70329,-0.65362 3.87476,0.16017 3.22657,1.20898 -0.31112,0.5034 0.17446,0.58919 1.30468,0.23047 1.13023,-0.35872 1.61581,-0.27293 1.30469,0.23047 -0.64819,1.04881 1.52328,1.86261 3.22656,1.20899 0.89433,-0.34318 1.14202,-0.20414 0.75391,0.42383 -0.36961,0.59804 -0.0563,0.86836 0.86914,0.75195 1.92782,-0.24251 10.64649,2.68778 10.64649,3.57812 0,0.38567 0.30056,0.51614 0.66796,0.28907 0.85307,-0.52723 6.53125,1.19104 6.53125,1.97656 0,0.32498 0.81079,0.41424 1.80079,0.19726 1.4705,-0.32228 1.57994,-0.23204 0.59961,0.49805 -0.94593,0.70448 -0.73419,0.78563 1,0.38281 1.35454,-0.31464 2.19921,-0.17894 2.19921,0.35157 0,0.47383 0.54118,0.65366 1.20118,0.40039 0.66,-0.25327 1.19921,-0.1059 1.19921,0.32617 0,0.43208 0.81079,0.79373 1.80079,0.80273 0.99,0.009 5.5322,0.97185 10.0957,2.13867 4.56351,1.16681 12.30468,2.62739 17.20117,3.2461 4.89649,0.61871 10.88274,1.69585 13.30274,2.39453 2.42,0.69868 8.70459,1.63005 13.9668,2.07031 5.26222,0.44027 9.75496,0.98935 9.98437,1.21875 0.96475,0.96476 26.2832,-0.27903 31.64844,-1.55469 3.07984,-0.73227 6.36208,-1.33203 7.29492,-1.33203 0.93285,0 3.94295,-0.71697 6.6875,-1.59375 2.74456,-0.87678 5.31035,-1.39508 5.70313,-1.15234 0.39277,0.24275 0.71484,0.0682 0.71484,-0.38672 0,-0.49643 0.98108,-0.63059 2.45312,-0.33594 1.3491,0.26983 3.87382,0.0226 5.61133,-0.55078 2.62098,-0.86501 3.08251,-1.32706 2.70899,-2.71094 -0.39924,-1.47917 -0.35123,-1.51022 0.42578,-0.27148 0.8269,1.31827 1.05566,1.3055 4.0664,-0.23047 1.75464,-0.89515 2.9791,-1.97059 2.72071,-2.38867 -0.25839,-0.41809 0.053,-0.55941 0.6914,-0.31445 0.63834,0.24495 1.43119,0.005 1.76368,-0.53321 0.41204,-0.6667 0.27236,-0.77122 -0.44141,-0.33007 -0.67824,0.41917 -0.85377,0.33337 -0.49805,-0.24219 0.30208,-0.48875 0.99835,-0.71636 1.54688,-0.50586 0.54854,0.2105 1.70685,-0.1922 2.57422,-0.89453 0.86738,-0.70205 1.0711,-1.01398 0.45312,-0.69336 -0.74512,0.38657 -0.92881,0.26761 -0.54492,-0.35352 0.31838,-0.51517 0.85998,-0.76286 1.20312,-0.55078 1.38351,0.85505 20.4602,-10.12133 26.75,-15.39062 3.58289,-3.00157 8.13524,-6.68299 10.11524,-8.18164 6.96764,-5.27385 20.58564,-19.22277 16,-16.38868 -1.43202,0.88503 -0.84363,-0.11447 0.98633,-1.67578 1.76678,-1.50742 1.77368,-1.50642 0.70703,0.0762 -0.5931,0.88 0.22016,0.16039 1.80664,-1.59961 1.58647,-1.76 2.7239,-3.63791 2.52734,-4.17382 -0.19658,-0.53591 0.0425,-1.22137 0.53125,-1.52344 0.59046,-0.36492 0.66086,-0.17233 0.21094,0.57422 -0.57816,0.95887 -0.47385,0.95735 0.71289,-0.006 0.76448,-0.62049 1.20909,-1.59842 0.98828,-2.17383 -0.22081,-0.57542 -4.9e-4,-1.29363 0.48828,-1.5957 0.57201,-0.35352 0.67664,-0.14901 0.29493,0.57422 -0.32618,0.61799 0.15211,0.22304 1.0625,-0.87696 0.91038,-1.1 1.48645,-2.46816 1.27929,-3.04101 -0.20715,-0.57259 -0.0398,-0.83331 0.37305,-0.57813 0.99788,0.61672 2.66064,-2.56326 1.94531,-3.7207 -0.33854,-0.54776 -0.20391,-0.68567 0.33985,-0.34961 1.77557,1.09736 16.04335,-30.13888 15.0039,-32.84766 -0.24177,-0.62995 -0.12128,-0.94931 0.26758,-0.70898 1.00446,0.62078 1.80583,-1.87898 1.20703,-3.76563 -0.35646,-1.12309 -0.22044,-1.41302 0.4668,-0.98828 0.70559,0.43607 0.81543,0.10847 0.40039,-1.19922 -0.34769,-1.09549 -0.26673,-1.6119 0.20508,-1.32031 1.50186,0.9282 8.3157,-26.14745 8.46093,-33.61914 0.0456,-2.34704 0.40577,-3.93997 0.83008,-3.67773 0.45072,0.27856 0.53265,-0.88366 0.20703,-2.91993 -0.35649,-2.22942 -0.26254,-3.20868 0.27735,-2.875 0.45039,0.27835 0.82031,-0.0116 0.82031,-0.64453 0,-0.63296 1.58679,-2.45087 3.52734,-4.04101 1.94054,-1.59013 5.21871,-5.13837 7.2832,-7.88477 3.61613,-4.8105 7.9852,-12.48746 7.42578,-13.04687 -0.14892,-0.14893 -1.51811,2.13512 -3.04297,5.07617 -2.77064,5.34382 -11.66365,15.53527 -16.34765,18.73437 -1.3451,0.91868 0.6643,-1.35552 4.4668,-5.05468 9.56771,-9.30772 15.32971,-19.75984 17.21093,-31.22461 0.50004,-3.04737 0.64144,-3.24259 1.10157,-1.50196 0.94078,3.56132 1.83181,-6.59987 0.94335,-10.76562 -0.43718,-2.04996 -0.59705,-3.52871 -0.35546,-3.28711 0.75772,0.75772 2.58593,-1.27261 2.58593,-2.87109 0,-0.83994 -0.55268,-1.73872 -1.22851,-1.99805 -0.99784,-0.38292 -1.13548,-1.39324 -0.73828,-5.375 0.35913,-3.6001 0.25975,-4.58419 -0.3711,-3.70313 -0.65659,0.91698 -0.74745,0.61287 -0.38281,-1.29101 1.03475,-5.40273 -5.37201,-22.1709 -10.70508,-28.01563 -1.19534,-1.31003 -1.63265,-1.64053 -0.97265,-0.73633 1.18956,1.6297 1.18358,1.63051 -0.58204,0.13672 -0.97963,-0.8288 -1.57212,-1.846 -1.3164,-2.25976 0.63431,-1.02633 -2.95378,-4.72602 -4.16797,-4.31446 l -1.48438,-1.74804 c -0.85224,-1.00551 -2.01054,-1.64991 -2.57421,-1.4336 -0.56367,0.2163 -1.27215,-0.007 -1.57422,-0.49609 -0.36492,-0.59046 -0.17233,-0.66087 0.57422,-0.21094 0.91925,0.55401 0.94385,0.45501 0.13477,-0.54492 -1.42313,-1.75882 -13.58337,-7.3089 -16.22266,-7.4043 -1.22731,-0.0443 -2.1247,-0.26242 -1.99414,-0.48242 0.42502,-0.71616 -1.80621,-2.31986 -2.4375,-1.75195 -0.33742,0.30355 -0.35214,0.0989 -0.0332,-0.45508 0.80167,-1.39234 -0.24225,-4.33631 -1.30469,-3.67969 -0.4898,0.30271 -0.63746,0.16514 -0.33985,-0.3164 0.62579,-1.01255 -0.20318,-3.53739 -1,-3.04492 -0.3049,0.18844 -1.07779,-0.026 -1.71679,-0.47852 -0.9676,-0.68516 -0.94018,-0.75419 0.16015,-0.4043 1.52783,0.48581 2.25088,-1.45701 2.26758,-6.09375 0.0175,-4.8556 -1.90106,-8.51732 -4.76367,-9.08984 -3.27172,-0.65435 -3.73946,-2.95472 -1.60937,-7.91602 5.58903,-13.01767 6.73948,-30.48454 2.93554,-44.55078 -3.67332,-13.58322 -10.23918,-25.129729 -21.33203,-37.519529 -2.63916,-2.94771 -6.92545,-8.54162 -9.52734,-12.42969 -7.82224,-11.68896 -18.96103,-22.15034 -30.56446,-28.70898 -4.78581,-2.7051 -35.15064,-16.92936 -50.32812,-23.57617 -13.92789,-6.0995596 -17.82895,-7.1336496 -31.74024,-8.4082096 -5.0419,-0.46194 -9.71697,-0.7048 -14.54492,-0.66601 z M 462.35186,199.28018 c 0.0321,-0.0483 0.46583,0.15735 1.33008,0.57617 0.99,0.47975 1.80078,1.03962 1.80078,1.24414 0,0.61218 -0.41467,0.43463 -2.04688,-0.87305 -0.74561,-0.59735 -1.11609,-0.89894 -1.08398,-0.94726 z m 5.93164,3.39257 2,1.59961 1.90625,1.52539 c -0.5318,0.19708 -1.62305,-0.42182 -2.43164,-1.3789 z m 12.74218,14 c 0.22,0 0.78686,0.71961 1.25782,1.59961 0.4709,0.88 0.67507,1.59961 0.45507,1.59961 -0.22,0 -0.7849,-0.71961 -1.25586,-1.59961 -0.47089,-0.88 -0.67703,-1.59961 -0.45703,-1.59961 z m 8.8418,45.26172 c 0.0546,-0.0794 0.1205,0.0928 0.18945,0.54883 0.18391,1.21605 0.17817,3.01605 -0.0117,4 -0.18989,0.98395 -0.33998,-0.0109 -0.33398,-2.21094 0.004,-1.375 0.0653,-2.20556 0.15625,-2.33789 z m -0.66602,11.05274 c -0.0993,0.0598 -0.26207,0.48126 -0.51953,1.28515 -0.35228,1.1 -0.65106,2.53922 -0.66406,3.19922 -0.0144,0.73518 0.24284,0.58182 0.66406,-0.39843 0.37816,-0.88001 0.67707,-2.32118 0.66407,-3.20118 -0.009,-0.64311 -0.0453,-0.94457 -0.14454,-0.88476 z m -29.82812,71.16211 c 0.0728,0.011 0.1601,0.13373 0.25586,0.37304 0.23115,0.5775 0.20333,1.26737 -0.0625,1.53321 -0.26583,0.26583 -0.45657,-0.20551 -0.42187,-1.04883 0.024,-0.58248 0.10725,-0.87578 0.22851,-0.85742 z m -353.73633,17.42773 c 0.13747,0.0402 0.39049,0.34692 0.74414,0.95508 0.46751,0.803 0.67863,1.62801 0.47266,1.83398 -0.20598,0.20598 -0.5987,-0.20886 -0.87305,-0.92382 -0.48249,-1.25735 -0.57286,-1.93229 -0.34375,-1.86524 z m 342.88868,14.45508 c 0.0838,-0.002 0.13281,0.0752 0.13281,0.24023 0,0.44 -0.34886,1.34 -0.77539,2 -0.42652,0.66 -0.77539,0.84039 -0.77539,0.40039 0,-0.44 0.34887,-1.34 0.77539,-2 0.26658,-0.4125 0.50285,-0.6373 0.64258,-0.64062 z m -6.58594,13.43945 c 0.22,0 0.0139,0.72157 -0.45703,1.60157 -0.47096,0.87999 -1.03586,1.5996 -1.25586,1.5996 -0.22,0 -0.0159,-0.71961 0.45508,-1.5996 0.47095,-0.88 1.03781,-1.60157 1.25781,-1.60157 z m -320.45704,2.40039 c 0.0413,-0.0413 0.36558,0.20168 1,0.69922 0.77,0.60388 1.4004,1.23232 1.4004,1.39844 0,0.65843 -0.65804,0.23494 -1.70313,-1.09766 -0.49755,-0.63442 -0.73856,-0.9587 -0.69727,-1 z m 4,5.59961 c 0.0413,-0.0413 0.36558,0.20168 1,0.69922 0.77,0.60388 1.4004,1.23427 1.4004,1.40039 0,0.65843 -0.65804,0.23299 -1.70313,-1.09961 -0.49755,-0.63442 -0.73856,-0.95871 -0.69727,-1 z m 305.44727,9.60157 c 0.22,0 -0.25048,0.7196 -1.04687,1.5996 -0.7964,0.88 -1.62766,1.59961 -1.84766,1.59961 -0.22,0 0.25048,-0.71961 1.04688,-1.59961 0.79639,-0.88 1.62765,-1.5996 1.84765,-1.5996 z m -293.04687,5.19921 3.40039,3.16211 c 1.87,1.7393 3.39843,3.26969 3.39843,3.40039 0,0.60526 -0.69576,-1.4e-4 -3.63672,-3.16211 z m 285.03516,4.44141 c 0.11913,-0.0303 0.16406,0.0412 0.16406,0.19141 0,0.12839 -1.70883,1.83917 -3.79883,3.80078 l -3.80078,3.5664 3.56641,-3.80078 c 2.48637,-2.64912 3.51172,-3.66704 3.86914,-3.75781 z m -245.83595,22.38281 c 0.44,0 1.34,0.34886 2,0.77539 0.66,0.42653 0.84039,0.77539 0.40039,0.77539 -0.44,0 -1.34,-0.34886 -2,-0.77539 -0.66,-0.42653 -0.84039,-0.77539 -0.40039,-0.77539 z"
         style="fill:#aa0000;fill-opacity:1;stroke:none;stroke-width:3.78;stroke-miterlimit:4;stroke-dasharray:none;stroke-opacity:1"
         id="rect1187" />
      <g
         transform="translate(-17.580355,0.4154924)"
         id="g1159">
        <path
           style="fill:#000000;stroke-width:0.8"
           d="m 317.0826,465.15865 c -0.19937,-0.19566 -11.34249,-0.52134 -24.76249,-0.72373 -23.38677,-0.3527 -24.74881,-0.45886 -32.8,-2.55628 -4.62,-1.20357 -9.21,-2.19601 -10.2,-2.20542 -0.99,-0.009 -1.8,-0.37064 -1.8,-0.80272 0,-0.43208 -0.54,-0.57838 -1.2,-0.32511 -0.66,0.25327 -1.2,0.0727 -1.2,-0.40113 0,-0.53051 -0.84545,-0.66524 -2.2,-0.3506 -1.73418,0.40283 -1.94592,0.3218 -1,-0.38267 0.98033,-0.73009 0.8705,-0.82148 -0.6,-0.4992 -0.99,0.21698 -1.8,0.12861 -1.8,-0.19637 0,-0.78552 -5.67893,-2.50498 -6.532,-1.97775 -0.3674,0.22707 -0.668,0.0974 -0.668,-0.28827 0,-0.89034 -8.71864,-3.82018 -10.64647,-3.57766 -0.92544,0.11641 -1.23837,-0.15476 -0.86877,-0.7528 0.38811,-0.62796 0.1408,-0.76709 -0.75352,-0.42391 -1.70329,0.65362 -3.87465,-0.15967 -3.22646,-1.20848 0.31112,-0.5034 -0.17455,-0.58918 -1.30478,-0.23046 -1.13022,0.35872 -1.61589,0.27293 -1.30477,-0.23047 0.64819,-1.0488 -1.52317,-1.86209 -3.22646,-1.20848 -0.83482,0.32036 -1.13485,0.1931 -0.8046,-0.34128 0.28966,-0.46866 -0.0407,-1.06984 -0.73419,-1.33595 -1.91143,-0.73348 -2.4751,-0.55753 -1.12998,0.35273 2.05286,1.38919 -2.98493,-0.0121 -10.8,-3.00402 -3.96,-1.51606 -7.92,-3.48621 -8.8,-4.37811 l -1.6,-1.62163 2,0.53601 c 1.53104,0.41033 1.71863,0.33901 0.8,-0.30415 -0.66,-0.46208 -2.04,-0.84567 -3.06666,-0.8524 -2.28613,-0.015 -1.96031,-1.37148 0.82975,-3.45456 l 2.06222,-1.53966 15.08734,6.42793 c 36.20074,15.42324 62.40928,22.52252 93.49818,25.32646 15.0423,1.35668 25.30448,1.49906 33.18917,0.46045 2.86,-0.37673 10.24,-1.25851 16.4,-1.9595 13.09013,-1.48964 24.45364,-4.32715 31.2,-7.79076 2.64,-1.35539 13.8,-8.4293 24.8,-15.71981 18.0748,-11.9795 20.92828,-14.18474 29.64356,-22.90914 15.80237,-15.81893 26.15294,-33.58293 35.69073,-61.25366 2.76395,-8.0187 7.26182,-25.90722 8.6495,-34.4 0.5392,-3.3 1.17696,-6.54 1.41724,-7.2 0.24027,-0.66 0.35452,-2.03335 0.25386,-3.05187 -0.13452,-1.36129 1.5853,-3.69251 6.49206,-8.8 10.58132,-11.01421 15.47432,-22.30202 16.41147,-37.86008 l 0.46453,-7.71196 -2.71148,-0.5798 c -1.49131,-0.31889 -6.31148,-1.77852 -10.71148,-3.24363 -10.95997,-3.64942 -19.92561,-5.85556 -30.8,-7.57883 -5.06,-0.80186 -12.13684,-1.98971 -15.72631,-2.63966 -3.58947,-0.64996 -15.82947,-1.61061 -27.2,-2.1348 -20.54207,-0.947 -24.35645,-1.59036 -21.55852,-3.63627 1.84272,-1.34742 38.22679,-0.68407 46.08484,0.84023 3.3,0.64013 9.95999,1.72913 14.79999,2.42001 12.86464,1.83634 26.56932,4.77679 31.6,6.78005 2.42,0.96366 6.74,2.45681 9.6,3.31809 2.86,0.86128 5.57723,1.68707 6.03828,1.83508 0.57214,0.18367 0.63551,-1.67163 0.1996,-5.84373 -2.44299,-23.38214 -16.56103,-41.43131 -37.86435,-48.40758 -3.71686,-1.21718 -4.14745,-1.63076 -5.6,-5.37876 -0.86544,-2.23312 -1.98442,-4.40175 -2.48662,-4.81919 -0.59711,-0.49632 -2.80106,-0.0483 -6.36863,1.29448 -7.82486,2.94527 -26.40751,8.31946 -49.91827,14.43659 -11.22,2.91928 -20.51132,5.4162 -20.64737,5.54873 -0.13606,0.13254 -0.76586,4.20049 -1.39958,9.03989 -4.58963,35.04927 -19.84034,63.72105 -41.6096,78.22725 -8.62954,5.75039 -23.27452,12.67402 -31.09412,14.7002 -18.88735,4.89401 -38.15345,-1.4591 -56.08826,-18.49543 -6.48235,-6.15759 -14.57749,-16.07568 -17.97176,-22.01883 -3.08581,-5.40304 -6.87498,-16.48165 -8.48918,-24.82028 -1.58199,-8.17225 -1.79945,-23.9177 -0.42751,-30.95536 0.50773,-2.60449 0.77365,-4.88494 0.59094,-5.06766 -0.18272,-0.18271 -7.29176,-1.20968 -15.79788,-2.28215 -16.7723,-2.11468 -46.07946,-6.64024 -59.23375,-9.14676 -11.69982,-2.22938 -11.44553,-2.27729 -13.92956,2.6247 -3.43743,6.78345 -9.55787,22.78166 -12.17306,31.81918 -4.28225,14.79852 -8.92623,40.91764 -8.93073,50.22912 -0.002,2.63372 -0.39507,3.20771 -3.58188,5.22102 -7.6694,4.84525 -11.674843,12.48766 -12.226292,23.32784 -0.902228,17.73569 4.953072,28.32168 21.660252,39.1603 l 6.54935,4.24882 2.59532,6.71054 c 3.37957,8.73826 10.92072,22.25866 18.01038,32.29051 6.88658,9.74449 27.27614,30.34099 35.61602,35.97749 5.75775,3.89138 5.80471,3.95164 4.27279,5.48356 -1.41664,1.41662 -2.92159,1.49531 -6.20861,0.32461 -0.28671,-0.10212 -1.9629,-1.50342 -3.72486,-3.11402 -1.76197,-1.61059 -3.62172,-2.7679 -4.13279,-2.57179 -0.51106,0.19612 -1.62649,-0.45992 -2.47873,-1.45785 -1.53916,-1.8023 -1.53883,-1.80666 0.0505,-0.65243 1.19268,0.86619 1.10626,0.60811 -0.33945,-1.01378 -2.01719,-2.26301 -3.4063,-3.07929 -1.66055,-0.97579 0.54775,0.66 0.65815,1.2 0.24532,1.2 -1.24,0 -15.62137,-15.06795 -15.134,-15.85651 0.24802,-0.40132 -0.35056,-1.40777 -1.33019,-2.23657 l -1.78113,-1.50692 1.58749,2 c 1.32579,1.67029 1.16094,1.61265 -1,-0.34967 -2.54458,-2.31072 -3.5468,-4.30569 -1.58749,-3.16003 0.55,0.3216 0.3142,-0.19715 -0.524,-1.15279 -1.82676,-2.08271 -2.67144,-2.3045 -1.2854,-0.33751 0.54257,0.77 -0.13965,0.14605 -1.51605,-1.38655 -1.37641,-1.53261 -2.33198,-3.23108 -2.1235,-3.77439 0.20849,-0.5433 -0.0208,-1.23497 -0.5096,-1.53705 -0.53813,-0.33258 -0.6635,-0.1849 -0.31785,0.37438 0.31396,0.50798 0.38299,0.92361 0.15342,0.92361 -1.00421,0 -6.8991,-9.71706 -6.39234,-10.53703 0.33788,-0.54669 0.20728,-0.69064 -0.327,-0.36042 -1.10016,0.67993 -3.64797,-3.98565 -2.86677,-5.24966 0.33413,-0.54064 0.19713,-0.67812 -0.34308,-0.34425 -1.60417,0.99142 -12.07906,-21.67828 -10.89902,-23.58762 0.408,-0.66016 0.26127,-0.75987 -0.46116,-0.31339 -0.76262,0.47133 -0.92078,0.29319 -0.56435,-0.63566 0.36447,-0.9498 0.15452,-1.15975 -0.79528,-0.79528 -0.85367,0.32759 -1.09661,0.1815 -0.71771,-0.43158 0.35374,-0.57236 0.1657,-0.77057 -0.49172,-0.5183 -0.58547,0.22468 -1.77418,-0.16615 -2.64154,-0.86848 -0.86738,-0.70234 -1.07143,-1.01467 -0.45344,-0.69405 0.72064,0.37387 0.92663,0.26423 0.57437,-0.30574 -0.30207,-0.48877 -1.01837,-0.70864 -1.59176,-0.48861 -0.57339,0.22004 -1.91186,-0.36312 -2.97437,-1.29588 -1.06252,-0.93278 -1.42623,-1.4329 -0.80824,-1.1114 0.74548,0.38784 0.9288,0.26936 0.54472,-0.35209 -0.31839,-0.51516 -0.9237,-0.72355 -1.34513,-0.4631 -0.89995,0.5562 -10.323202,-7.38679 -10.323202,-8.70157 0,-0.49269 2.250002,1.25283 5.000002,3.87894 l 5,4.77474 -5.17689,-5.39978 c -5.122328,-5.34288 -6.282894,-6.34082 -5.11676,-4.39979 0.38832,0.64635 0.109224,0.60102 -0.789193,-0.12817 -0.764485,-0.6205 -1.197713,-1.62919 -0.962729,-2.24155 0.268559,-0.69986 0.08302,-0.90064 -0.499544,-0.54059 -0.624572,0.386 -0.755008,0.12512 -0.4,-0.8 0.289732,-0.75504 0.213152,-1.17896 -0.17018,-0.94204 -0.664467,0.41066 -4.084706,-6.5254 -4.084706,-8.28357 0,-0.46163 -2.31857,-2.30363 -5.152377,-4.09334 -2.833808,-1.78971 -7.136065,-5.39664 -9.560573,-8.01539 -6.522596,-7.04518 -8.950097,-12.81796 -11.288738,-26.84546 -2.301376,-13.80399 -2.188612,-13.41885 -9.225948,-31.50989 -8.188989,-21.05162 -8.826992,-28.2524 -3.882476,-43.81935 4.824166,-15.18805 17.581051,-38.7628 20.161543,-37.25856 0.521713,0.30412 0.31857,-0.16729 -0.45143,-1.04757 -0.909238,-1.03946 -1.4,-2.92324 -1.4,-5.37388 0,-4.49645 2.554569,-7.69312 6.163636,-7.71289 1.598269,-0.009 1.919332,-0.21302 1.125247,-0.71589 -0.939634,-0.59505 -0.836774,-2.89074 0.666482,-14.87491 2.493299,-19.87694 5.036938,-28.39812 12.073645,-40.44662 9.477681,-16.228035 29.972661,-37.267623 42.473761,-43.602411 2.1489,-1.088929 7.62899,-5.395191 12.17799,-9.56947 12.16969,-11.167226 17.04581,-14.864238 24.98477,-18.943134 9.41132,-4.835373 19.58765,-7.99349 35.16148,-10.912004 7.02514,-1.316501 21.95298,-4.39047 33.17298,-6.831043 41.81347,-9.0952591 56.09127,-10.764771 76.2589,-8.9169979 13.91129,1.274562 17.81321,2.3081156 31.7411,8.4076819 15.17748,6.646811 45.54294,20.871679 50.32875,23.576773 11.60343,6.558647 22.74077,17.020557 30.56301,28.709509 2.60189,3.888079 6.89003,9.481003 9.52919,12.428719 7.47381,8.34763 11.39392,13.964878 15.45973,22.152757 9.33773,18.80466 10.71723,38.39556 3.99306,56.70679 -1.13961,3.10337 -2.25047,7.04754 -2.46857,8.76481 -0.33586,2.6444 -0.19718,3.0458 0.90608,2.62244 3.68578,-1.41437 6.9013,2.78145 6.87782,8.97462 -0.017,4.49602 -0.75461,6.431 -2.26791,5.9498 -1.10033,-0.34988 -1.12697,-0.28259 -0.15937,0.40257 0.639,0.45248 1.41128,0.66851 1.71618,0.48007 0.79682,-0.49247 1.62681,2.03144 1.00102,3.04399 -0.29761,0.48153 -0.15,0.61889 0.3398,0.31619 1.04842,-0.64796 2.1178,2.29617 1.30924,3.60446 -0.38433,0.62184 -0.22359,0.71342 0.48431,0.27592 0.76262,-0.47133 0.92078,-0.2932 0.56435,0.63565 -0.36447,0.9498 -0.15452,1.15975 0.79528,0.79528 0.70978,-0.27236 1.08683,-0.16403 0.8379,0.24075 -0.24892,0.40477 0.55157,0.77224 1.77888,0.81659 2.63929,0.0954 14.79916,5.64544 16.22229,7.40426 0.80908,0.99993 0.78459,1.09907 -0.13465,0.54506 -0.74656,-0.44993 -0.9393,-0.37896 -0.57438,0.21149 0.30207,0.48877 1.01041,0.7117 1.57408,0.4954 0.56367,-0.21631 1.72214,0.42942 2.57438,1.43493 l 1.54952,1.82822 -2,-1.6 -2,-1.6 1.47517,1.74605 c 0.81134,0.96032 1.90862,1.57972 2.43839,1.37642 1.19483,-0.4585 4.82684,3.27954 4.18912,4.31139 -0.25572,0.41376 0.33656,1.43042 1.31619,2.25922 1.76562,1.49379 1.77069,1.4926 0.58113,-0.13709 -0.66,-0.9042 -0.18952,-0.5442 1.04549,0.8 3.22991,3.51547 8.87451,15.25134 8.87451,18.4513 0,1.48654 0.33843,2.4802 0.75667,2.22172 0.45264,-0.27975 0.53619,0.41084 0.20794,1.7187 -0.39512,1.57427 -0.28558,2.02371 0.39124,1.60541 0.69472,-0.42936 0.81151,0.4403 0.4476,3.33297 -0.36199,2.87748 -0.28105,3.49021 0.30569,2.31391 0.582,-1.16681 0.68114,-0.32859 0.3662,3.09601 -0.26982,2.93384 -0.0933,5.10401 0.47048,5.78329 0.66208,0.79775 0.66834,1.75856 0.0235,3.60826 -0.48335,1.38653 -0.67498,4.36406 -0.42583,6.61671 0.24914,2.25265 0.10294,5.53573 -0.32491,7.29573 -0.59784,2.45933 -0.8099,2.73708 -0.91617,1.2 -0.0761,-1.1 -0.80457,0.7 -1.61892,4 -3.49976,14.18213 -9.03712,22.61424 -22.00352,33.50617 -3.03603,2.55031 -3.06319,2.61133 -0.52993,1.19094 4.5196,-2.53414 14.72998,-13.84956 17.72871,-19.64743 1.52198,-2.94267 2.8891,-5.22847 3.03802,-5.07955 0.55941,0.55942 -3.81052,8.23636 -7.42664,13.04687 -2.0645,2.7464 -5.34135,6.29446 -7.2819,7.88459 -1.94054,1.59014 -3.52826,3.40902 -3.52826,4.04199 0,0.63296 -0.36849,0.92311 -0.81887,0.64475 -0.53989,-0.33367 -0.63466,0.64589 -0.27816,2.87531 0.40846,2.55438 0.30276,3.23433 -0.43216,2.78013 -0.73218,-0.45252 -0.83388,0.13954 -0.41111,2.39312 0.41951,2.23617 0.31823,2.84389 -0.4,2.4 -0.71576,-0.44236 -0.83108,0.19308 -0.45087,2.48436 0.39182,2.36119 0.30356,2.79907 -0.37866,1.87875 -0.68203,-0.92007 -0.77534,-0.45354 -0.4,2 0.3846,2.51403 0.29135,2.94276 -0.43502,2 -0.74364,-0.96517 -0.83,-0.76693 -0.44134,1.01305 0.72967,3.34172 -4.76335,24.12269 -6.14984,23.2658 -0.4718,-0.2916 -0.55167,0.22566 -0.20397,1.32115 0.41504,1.30769 0.30558,1.63607 -0.4,1.2 -0.68724,-0.42474 -0.82403,-0.13598 -0.46757,0.98711 0.5988,1.88665 -0.20264,4.38753 -1.2071,3.76674 -0.38885,-0.24032 -0.5092,0.0786 -0.26743,0.70856 1.03946,2.70878 -13.22912,33.94423 -15.00469,32.84687 -0.54375,-0.33606 -0.67836,-0.19719 -0.33982,0.35057 0.71533,1.15744 -0.94649,4.33772 -1.94437,3.721 -0.41288,-0.25517 -0.58121,0.005 -0.37405,0.5776 0.20715,0.57285 -0.36821,1.94155 -1.27859,3.04155 -0.91037,1.1 -1.38837,1.49437 -1.0622,0.87639 0.38171,-0.72323 0.27637,-0.9279 -0.29564,-0.57438 -0.48877,0.30208 -0.70801,1.02002 -0.4872,1.59544 0.22081,0.57541 -0.22401,1.55388 -0.9885,2.17438 -1.18674,0.96321 -1.29096,0.96387 -0.7128,0.005 0.44993,-0.74655 0.37896,-0.9393 -0.2115,-0.57438 -0.48877,0.30208 -0.72784,0.9877 -0.53126,1.52361 0.19657,0.53591 -0.94063,2.41438 -2.52711,4.17438 -1.58647,1.76 -2.39923,2.48 -1.80612,1.6 1.06664,-1.58259 1.05894,-1.58342 -0.70783,-0.076 -1.82996,1.56131 -2.41824,2.56104 -0.98622,1.67601 2.42986,-1.50174 0.0443,1.58875 -5.4177,7.01876 -5.72688,5.69331 -8.34019,7.65792 -6.892,5.18124 0.3216,-0.55 -0.19715,-0.31421 -1.15279,0.52399 -2.07329,1.8185 -2.33323,2.73325 -0.33751,1.18775 1.10305,-0.85421 1.07134,-0.69932 -0.14952,0.73026 -0.85224,0.99793 -2.01071,1.63745 -2.57438,1.42115 -0.56368,-0.21631 -1.27201,0.006 -1.57408,0.49539 -0.36492,0.59046 -0.17218,0.66142 0.57437,0.2115 0.95695,-0.57674 0.96076,-0.47641 0.0257,0.67639 -1.26716,1.56216 -2.87877,1.8441 -2.021,0.35357 0.33435,-0.581 0.27033,-0.72067 -0.15278,-0.33334 -0.40055,0.36667 -0.72827,1.05667 -0.72827,1.53334 0,0.47666 -0.50011,1.03336 -1.11136,1.23712 -0.74082,0.24694 -0.89965,0.0279 -0.47639,-0.65695 0.41946,-0.67869 0.31706,-0.83091 -0.30169,-0.4485 -0.51516,0.31838 -0.7407,0.89594 -0.5012,1.28347 0.59618,0.96463 -2.62305,2.59442 -3.7495,1.89825 -0.51887,-0.32069 -0.68797,-0.2061 -0.39511,0.26776 0.58741,0.95045 -20.60509,15.65237 -22.79511,15.81372 -0.79037,0.0582 -1.71437,0.41092 -2.05334,0.78376 -0.33896,0.37284 -0.16629,0.41893 0.38371,0.10241 0.54999,-0.31651 0.99999,-0.40359 0.99999,-0.19351 0,0.82125 -5.61484,3.79771 -6.33012,3.35565 -0.41763,-0.2581 -1.01982,-0.0478 -1.3382,0.46738 -0.38592,0.62443 -0.22982,0.72091 0.46833,0.28944 0.71377,-0.44114 0.85472,-0.33577 0.44268,0.33093 -0.33248,0.53798 -1.12681,0.77772 -1.76516,0.53277 -0.63834,-0.24496 -0.94921,-0.1033 -0.69082,0.31478 0.25839,0.41809 -0.97312,1.49629 -2.73669,2.396 l -3.20649,1.63584 -1.58641,-3.00516 c -0.87252,-1.65284 -1.58955,-2.64516 -1.59341,-2.20516 -0.004,0.44 0.50748,1.7 1.1363,2.8 0.62881,1.1 1.15606,2.21237 1.17164,2.47195 0.0602,1.00215 -6.38824,2.52473 -8.71872,2.05863 -1.34912,-0.27007 -2.45293,-0.16887 -2.45293,0.22464 0,0.70646 -48.12578,1.24558 -48.83751,0.54709 z m 94.53955,-25.10256 c 0.9951,-1.26885 0.9668,-1.29715 -0.30204,-0.30205 -0.77,0.60388 -1.4,1.23388 -1.4,1.4 0,0.65843 0.65695,0.23465 1.70204,-1.09795 z m -214.50204,-0.2 c -0.66,-0.42653 -1.56,-0.7755 -2,-0.7755 -0.44,0 -0.26,0.34897 0.4,0.7755 0.66,0.42653 1.56,0.77549 2,0.77549 0.44,0 0.26,-0.34896 -0.4,-0.77549 z m 217.70204,-2.2 c 0.9951,-1.26885 0.9668,-1.29715 -0.30204,-0.30205 -0.77,0.60388 -1.4,1.23388 -1.4,1.4 0,0.65843 0.65695,0.23465 1.70204,-1.09795 z m 22.69796,-17 c 2.16692,-2.2 3.75985,-4 3.53985,-4 -0.22,0 -2.17293,1.8 -4.33985,4 -2.16692,2.2 -3.75986,4 -3.53986,4 0.22,0 2.17294,-1.8 4.33986,-4 z m -274.79999,-1.83764 c 0,-0.13071 -1.53,-1.66071 -3.4,-3.4 l -3.4,-3.16236 3.16236,3.4 c 2.94096,3.16197 3.63764,3.76762 3.63764,3.16236 z M 447.9201,408.65609 c 0.7964,-0.88 1.26799,-1.6 1.04799,-1.6 -0.22,0 -1.05159,0.72 -1.84799,1.6 -0.79639,0.88 -1.26798,1.6 -1.04798,1.6 0.22,0 1.05159,-0.72 1.84798,-1.6 z m -301.99998,-9.10205 c 0,-0.16612 -0.63,-0.79612 -1.4,-1.4 -1.26885,-0.9951 -1.29715,-0.9668 -0.30205,0.30205 1.04509,1.3326 1.70205,1.75638 1.70205,1.09795 z m -4,-5.6 c 0,-0.16612 -0.63,-0.79612 -1.4,-1.4 -1.26885,-0.9951 -1.29715,-0.9668 -0.30205,0.30205 1.04509,1.3326 1.70205,1.75638 1.70205,1.09795 z m 317.59998,-2.89795 c 0.47096,-0.88 0.6763,-1.6 0.4563,-1.6 -0.22,0 -0.78534,0.72 -1.2563,1.6 -0.47096,0.88 -0.67629,1.6 -0.45629,1.6 0.22,0 0.78533,-0.72 1.25629,-1.6 z m 7.1755,-14.8 c 0,-0.44 -0.34897,-0.26 -0.7755,0.4 -0.42652,0.66 -0.77549,1.56 -0.77549,2 0,0.44 0.34897,0.26 0.77549,-0.4 0.42653,-0.66 0.7755,-1.56 0.7755,-2 z m -342.27783,-13.74 c -0.94307,-1.62177 -1.1708,-1.10268 -0.39882,0.90907 0.27435,0.71496 0.66735,1.13141 0.87333,0.92543 0.20597,-0.20597 -0.007,-1.0315 -0.47451,-1.8345 z m 353.24882,-18.01 c -0.25537,-0.63819 -0.44494,-0.44863 -0.48333,0.48333 -0.0347,0.84333 0.15435,1.31584 0.42018,1.05 0.26583,-0.26583 0.29425,-0.95584 0.0631,-1.53333 z m 3.2,-12.8 c -0.25537,-0.63819 -0.44494,-0.44863 -0.48333,0.48333 -0.0347,0.84333 0.15435,1.31584 0.42018,1.05 0.26583,-0.26583 0.29425,-0.95584 0.0631,-1.53333 z m -387.216647,-7.25 c -0.22193,-0.55 -0.403509,-0.1 -0.403509,1 0,1.1 0.181579,1.55 0.403509,1 0.22193,-0.55 0.22193,-1.45 0,-2 z m -0.775432,-4.38478 c -0.202835,-0.77837 -0.38213,-0.33522 -0.398434,0.98478 -0.0163,1.32 0.149652,1.95685 0.368791,1.41522 0.219138,-0.54162 0.232477,-1.62162 0.02964,-2.4 z M 508.09417,262.46709 c -0.18388,-1.21605 -0.33925,-0.411 -0.34526,1.789 -0.006,2.2 0.14445,3.19495 0.33434,2.211 0.18988,-0.98395 0.1948,-2.78395 0.0109,-4 z m -0.59724,-7.44225 c -1.88316,-1.19094 -2.83774,-0.88217 -1.13099,0.36584 0.8534,0.62402 1.72179,0.96445 1.92974,0.7565 0.20794,-0.20795 -0.15149,-0.713 -0.79875,-1.12234 z m -7.17683,-36.76875 c -0.47096,-0.88 -1.03629,-1.6 -1.25629,-1.6 -0.22,0 -0.0146,0.72 0.45629,1.6 0.47096,0.88 1.0363,1.6 1.2563,1.6 0.22,0 0.0146,-0.72 -0.4563,-1.6 z m -16.8,-17.17186 c 0,-0.20452 -0.81,-0.76437 -1.8,-1.24413 -1.7285,-0.83763 -1.73831,-0.82286 -0.24709,0.37185 1.63221,1.30767 2.04709,1.48446 2.04709,0.87228 z m -86.80929,-16.54255 c 8.35489,-2.20018 15.37432,-4.18395 15.59874,-4.40837 0.22442,-0.22442 -0.3114,-0.93309 -1.1907,-1.57483 -5.87948,-4.29093 -6.45355,-6.12823 -2.0496,-6.55961 1.73586,-0.17003 3.20638,0.26014 4.33839,1.26911 0.94186,0.83948 2.87879,2.32713 4.3043,3.30588 l 2.59183,1.77955 11.70692,-3.26875 c 6.43881,-1.79781 12.47248,-3.41296 13.40817,-3.58921 0.93568,-0.17626 1.88124,-0.38985 2.10124,-0.47465 0.22,-0.0848 0.67,-0.11155 1,-0.0594 4.7281,0.74654 -16.93876,-24.01483 -33.61107,-38.41147 -8.79405,-7.59372 -13.99613,-10.54495 -35.81904,-20.32075 -15.80959,-7.08208 -30.40345,-12.842035 -38.43329,-15.168987 -23.5584,-6.82696 -76.34505,-2.121168 -108.06716,9.633887 -15.66987,5.80669 -32.74299,14.96552 -44.94607,24.11121 -8.26879,6.19709 -22.42627,20.07924 -29.62705,29.05085 -6.81932,8.49633 -11.73162,15.83134 -11.0553,16.50767 1.57049,1.57049 43.4995,8.46721 62.48748,10.27828 18.87228,1.80004 18.99749,1.79001 20.86102,-1.67035 3.23867,-6.01384 12.18262,-11.66559 23.77893,-15.02607 7.65607,-2.21864 36.06028,-6.0984 44.46794,-6.07392 13.6276,0.0397 29.60756,3.30349 50.96362,10.40899 15.82509,5.26527 21.57415,8.1174 24.96106,12.38327 2.64325,3.32921 0.89431,3.49618 22.22964,-2.12228 z M 328.69787,153.4201 c -1.23434,-1.9972 -8.21202,-5.66065 -14.34438,-7.53113 -11.02744,-3.36359 -32.1627,-6.00663 -48.17623,-6.02463 -7.52368,-0.008 -9.85715,-0.87616 -9.85715,-3.6654 0,-1.41999 -1.02305,-1.22476 8.8,-1.6793 9.89766,-0.45798 23.82003,0.71587 40.23426,3.39233 12.58862,2.05266 17.8249,3.95029 23.2094,8.41106 2.49296,2.06529 2.99957,2.96375 2.8,4.96568 -0.25498,2.55771 -1.69224,3.7068 -2.6659,2.13139 z m 122.82223,16.03599 c 0,-0.44 -0.38124,-0.8 -0.84721,-0.8 -0.46597,0 -0.62472,0.36 -0.35279,0.8 0.27194,0.44 0.65319,0.8 0.84722,0.8 0.19403,0 0.35278,-0.36 0.35278,-0.8 z m 1.87607,-1.23451 c -0.26055,-0.67897 -0.64531,-1.06292 -0.855,-0.85322 -0.20971,0.2097 -0.14399,0.76523 0.14604,1.2345 0.78884,1.27637 1.2499,1.02841 0.70896,-0.38128 z m -157.2876,225.55629 c -0.99149,-0.99148 0.50724,-2.82579 3.30857,-4.04939 1.59663,-0.6974 5.60297,-1.7332 8.90297,-2.30177 3.3,-0.56857 11.04,-2.50604 17.2,-4.30549 10.54391,-3.08006 11.81891,-3.27403 21.76545,-3.31116 11.56928,-0.0432 13.32616,0.17107 23.60461,2.87857 8.19883,2.1597 8.62994,2.38024 8.62994,4.41467 0,1.92563 0.71919,1.96112 -11.20902,-0.5531 -14.93434,-3.14784 -24.0912,-2.98545 -39.99098,0.7092 -6.82,1.58478 -15.28,3.29674 -18.8,3.80435 -3.52,0.50763 -7.44531,1.43356 -8.72291,2.05764 -2.49515,1.21883 -3.92595,1.41917 -4.68863,0.65648 z m 86.61154,-52.05702 c -8.82938,-3.00881 -22,-11.98359 -22,-14.99135 0,-2.78567 2.19789,-2.27146 6.8,1.59088 2.42,2.03101 7.28,5.0941 10.8,6.80688 5.94855,2.89448 6.69236,3.06728 10.54475,2.4497 4.94296,-0.79242 7.78016,-2.50336 9.89045,-5.96434 3.45547,-5.66714 1.05952,-13.2858 -7.09759,-22.56896 -2.70039,-3.07316 -4.91606,-5.83332 -4.92371,-6.13366 -0.008,-0.30035 0.70526,-0.77434 1.58423,-1.05332 2.49205,-0.79094 11.56668,7.62072 14.52856,13.46716 3.3074,6.52847 3.74796,11.2629 1.46847,15.78084 -3.72607,7.38505 -9.27409,11.19106 -16.16329,11.08825 -2.32753,-0.0347 -4.77187,-0.24718 -5.43187,-0.47208 z m 123.33597,-64.26476 c 0.013,-0.66 0.31174,-2.1 0.66402,-3.2 0.51491,-1.60779 0.64512,-1.68623 0.66403,-0.4 0.013,0.88 -0.28588,2.32 -0.66403,3.2 -0.42122,0.98025 -0.67843,1.13518 -0.66402,0.4 z M 411.208,251.95322 c -0.74804,-0.82658 -1.43384,-2.52088 -1.52398,-3.76512 -0.12741,-1.75842 0.3269,-2.50286 2.03991,-3.34261 1.74744,-0.85664 2.10678,-1.46706 1.73518,-2.94761 -0.26515,-1.05642 -0.06,-2.11981 0.47246,-2.44887 1.12397,-0.69466 4.78854,1.10646 4.78854,2.35354 0,0.48186 1.44,1.49995 3.2,2.26244 1.76,0.76249 3.24265,1.83741 3.29478,2.38872 0.28982,3.06479 -1.12808,4.94099 -3.16741,4.19121 -0.58994,-0.2169 -2.08552,0.32689 -3.32349,1.20841 -2.82329,2.01036 -5.75181,2.04928 -7.51599,0.0999 z"
           id="path861" />
        <ellipse
           style="fill:none;fill-opacity:1;stroke:#000000;stroke-width:3.89637;stroke-miterlimit:4;stroke-dasharray:none;stroke-opacity:1"
           id="path873"
           cx="446.82629"
           cy="256.76807"
           rx="58.344208"
           ry="62.838009" />
      </g>
    </g>
  </g>
</svg>
