<?xml version="1.0" encoding="UTF-8" standalone="no"?>
<!-- Created with Inkscape (http://www.inkscape.org/) -->

<svg
   xmlns:dc="http://purl.org/dc/elements/1.1/"
   xmlns:cc="http://creativecommons.org/ns#"
   xmlns:rdf="http://www.w3.org/1999/02/22-rdf-syntax-ns#"
   xmlns:svg="http://www.w3.org/2000/svg"
   xmlns="http://www.w3.org/2000/svg"
   xmlns:sodipodi="http://sodipodi.sourceforge.net/DTD/sodipodi-0.dtd"
   xmlns:inkscape="http://www.inkscape.org/namespaces/inkscape"
   version="1.1"
   id="svg815"
   width="2379.3318"
   height="531.08289"
   viewBox="0 0 2379.3318 531.08288"
   sodipodi:docname="Council.svg"
   inkscape:version="0.92.4 (5da689c313, 2019-01-14)">
  <metadata
     id="metadata821">
    <rdf:RDF>
      <cc:Work
         rdf:about="">
        <dc:format>image/svg+xml</dc:format>
        <dc:type
           rdf:resource="http://purl.org/dc/dcmitype/StillImage" />
        <dc:title></dc:title>
      </cc:Work>
    </rdf:RDF>
  </metadata>
  <defs
     id="defs819" />
  <sodipodi:namedview
     pagecolor="#ffffff"
     bordercolor="#666666"
     borderopacity="1"
     objecttolerance="10"
     gridtolerance="10"
     guidetolerance="10"
     inkscape:pageopacity="0"
     inkscape:pageshadow="2"
     inkscape:window-width="1920"
     inkscape:window-height="1017"
     id="namedview817"
     showgrid="false"
     fit-margin-top="0"
     fit-margin-left="0"
     fit-margin-right="0"
     fit-margin-bottom="0"
     inkscape:zoom="0.29631709"
     inkscape:cx="783.44635"
     inkscape:cy="533.36409"
     inkscape:window-x="-8"
     inkscape:window-y="-8"
     inkscape:window-maximized="1"
     inkscape:current-layer="svg815" />
  <path
     style="fill:#000000;stroke-width:0.63999999"
     d="m 1849.5962,530.49124 c -44.6019,-3.9646 -84.0798,-28.443 -108.2665,-67.1312 -12.8743,-20.5934 -23.5696,-50.2098 -27.619,-76.48 -1.6631,-10.7895 -2.0285,-35.8352 -0.6628,-45.44 5.312,-37.3595 21.3279,-70.2184 46.5013,-95.4038 12.4437,-12.44974 22.479,-19.67349 37.7997,-27.20974 24.0517,-11.83085 49.9369,-17.37293 85.44,-18.29274 39.6339,-1.02688 71.0878,5.55251 90.9282,19.02003 9.8903,6.71341 15.3118,16.58637 15.3118,27.88365 0,11.3965 -6.1959,21.1989 -16.4253,25.9858 -3.5808,1.6757 -5.206,2.0269 -10.5725,2.2854 -7.6994,0.3707 -12.3736,-0.7101 -20.4296,-4.7243 -7.6194,-3.7966 -13.9216,-8.7265 -26.2702,-20.5505 -14.5701,-13.95083 -22.8436,-19.4476 -34.1966,-22.71979 -4.4525,-1.28327 -6.4992,-1.46087 -16.9058,-1.46701 -13.1826,-0.008 -18.2972,0.91546 -28.1947,5.08966 -24.4764,10.32288 -45.7753,39.63784 -55.3512,76.18334 -9.1865,35.0595 -7.6136,79.2309 3.9252,110.2341 12.8755,34.5947 40.2202,62.5059 70.6669,72.1307 12.1851,3.852 23.0576,5.011 38.7671,4.1326 30.6882,-1.7161 52.3597,-10.2595 81.5467,-32.1476 4.752,-3.5637 10.7162,-8.2865 13.2538,-10.4952 l 4.6138,-4.0158 0.1862,12.6406 0.1862,12.6406 -6.72,6.9376 c -19.1845,19.806 -40.784,34.3758 -62.72,42.3072 -19.5511,7.0693 -51.1632,10.7068 -74.7927,8.6064 z m -1605.20713,-1.9236 c -35.44819,-2.1626 -56.51654,-6.6892 -86.08,-18.4944 -45.5772,-18.1997 -72.157101,-35.2131 -97.679711,-62.5235 -26.38777,-28.2361 -46.93638,-70.701 -55.5269296,-114.7497 -3.23058,-16.5651 -4.51371998,-29.1675 -4.98495998,-48.96 C -1.0514406,234.74528 6.4317994,198.6377 25.775699,160.03575 41.992909,127.67333 65.148219,96.18502 88.533139,74.69352 113.07264,52.14093 138.9348,35.93789 168.22907,24.76276 c 34.79411,-13.27319 62.89645,-17.34415 120,-17.3834 32.97862,-0.0227 42.58342,0.77644 65.73823,5.46941 27.89639,5.65398 62.49455,18.49223 72.18915,26.78699 1.8604,1.59182 1.962,1.97067 3.1837,11.88424 2.1355,17.32859 2.6227,24.835 3.0153,46.465 0.312,17.18673 0.2257,20.95965 -0.4898,21.40187 -1.1019,0.68094 -10.9024,1.21601 -12.9339,0.70613 -1.1904,-0.29877 -1.9259,-1.41456 -3.3213,-5.03838 -2.6953,-6.99966 -9.6158,-20.5971 -13.606,-26.73331 -17.86377,-27.47148 -43.08847,-46.22263 -75.26249,-55.94753 -15.77395,-4.76782 -29.40237,-6.72865 -50.03289,-7.19865 -33.22496,-0.75692 -52.55475,3.63211 -82.16679,18.65684 -29.4558,14.9455 -54.14463,36.76079 -73.16345,64.64803 -23.137451,33.92637 -38.562991,81.9184 -43.507251,135.36004 -1.05993,11.4565 -1.05357,51.1647 0.0103,64.32 4.38129,54.1765 16.74007,95.4342 38.512181,128.5664 13.42682,20.4326 30.15059,37.1081 48.04582,47.907 16.70432,10.0803 39.87347,19.2053 59.46918,23.4217 13.7321,2.9547 20.61908,3.5856 39.36,3.6057 16.50157,0.018 18.83187,-0.1225 29.44,-1.77 17.064,-2.6501 25.92832,-4.6009 36.8992,-8.1204 28.67731,-9.1997 45.72826,-18.9103 64.18079,-36.551 14.9791,-14.3202 27.8952,-31.9911 38.2806,-52.3729 3.1897,-6.2602 3.5646,-6.7283 6.0521,-7.5574 2.4329,-0.811 2.8695,-0.7728 5.2905,0.4623 l 2.6389,1.3462 -0.4085,5.5712 c -0.2865,3.9058 -2.4117,13.5106 -7.1095,32.1312 -6.3921,25.3358 -15.5078,59.4727 -16.7625,62.7728 -0.5184,1.3635 -2.3847,2.1057 -15.5454,6.1819 -28.77251,8.9118 -50.75325,12.6454 -87.59619,14.8791 -12.30425,0.7459 -61.64928,0.702 -74.24,-0.066 z m 410.55998,0.2691 c -32.7485,-2.9176 -67.1166,-16.5665 -91.8249,-36.4674 -21.2941,-17.1509 -41.9034,-45.9977 -51.5238,-72.1176 -7.4922,-20.3417 -11.246,-48.1808 -9.3325,-69.2117 2.0556,-22.594 9.2417,-46.4112 20.0823,-66.56 11.8629,-22.0489 32.2084,-44.26462 53.8789,-58.83166 16.9445,-11.3902 39.7803,-19.9456 63.3991,-23.75251 24.6002,-3.96512 57.8205,-3.81677 78.4487,0.35021 33.3507,6.73702 61.6297,22.33171 86.0219,47.43736 28.4973,29.3308 44.2473,63.4851 47.6251,103.2766 2.471,29.1086 -1.8644,53.7851 -13.7178,78.08 -7.6437,15.6668 -17.398,29.3628 -30.7204,43.1347 -31.5955,32.6618 -68.9081,50.2027 -115.8566,54.4651 -6.5156,0.5915 -30.5921,0.7215 -36.48,0.1969 z m 38.5017,-16.2141 c 24.3463,-4.1622 48.4199,-17.5808 63.2512,-35.2561 23.1117,-27.5437 35.5146,-66.1864 35.5136,-110.6465 -6e-4,-23.0244 -4.355,-47.0727 -13.5007,-74.56 -11.261,-33.8451 -29.1784,-56.03191 -55.2858,-68.45982 -29.0301,-13.8192 -64.1996,-12.8286 -98.4891,2.77402 -10.5034,4.77933 -23.1727,15.34067 -31.8484,26.5494 -21.8673,28.2518 -30.7485,61.1266 -30.888,114.3364 -0.07,26.744 1.3284,40.4437 6.0171,58.9435 3.9299,15.5057 11.0833,31.6117 18.8745,42.4965 25.002,34.9292 64.1127,51.0443 106.3556,43.8226 z m 336.53825,13.3967 c -21.0223,-1.595 -38.16195,-9.3841 -53.01545,-24.0928 -15.8775,-15.7227 -24.8754,-36.6291 -29.2078,-67.8641 -2.5376,-18.2949 -3.3621,-45.1337 -1.8721,-60.9424 0.7622,-8.0878 0.9981,-79.8044 0.3635,-110.5443 -0.5355,-25.94553 -0.1631,-25.32889 -18.0281,-29.8423 -6.336,-1.6007 -15.408,-3.62253 -20.16,-4.49293 -4.752,-0.8704 -9.792,-1.99296 -11.2,-2.49446 l -2.56,-0.91194 -0.1826,-6.12582 -0.1826,-6.12583 42.7426,-0.0512 c 23.5084,-0.0282 46.6037,0.13402 51.323,0.36045 l 8.5804,0.41171 -0.4085,45.50832 c -0.2246,25.0296 -0.7657,54.1483 -1.2023,64.7083 -1.0229,24.7413 -0.9954,80.8253 0.047,96.32 1.0353,15.3836 2.3022,24.9851 3.9732,30.1102 5.70095,17.4862 20.86805,29.4611 43.46935,34.3202 7.5965,1.6332 28.8853,1.6047 38.08,-0.051 14.545,-2.6193 25.4788,-6.2359 39.04,-12.9135 13.1969,-6.4982 28.2375,-16.4718 36.461,-24.1777 l 2.8259,-2.648 0.7168,-7.04 c 0.875,-8.5943 2.2397,-91.8799 2.1813,-133.12 -0.05,-35.1137 -1.0201,-49.6418 -3.9326,-58.88 -1.4522,-4.60593 -2.3408,-5.69297 -6.4404,-7.87799 -6.7439,-3.5945 -18.6641,-6.22835 -39.7372,-8.78023 -7.2572,-0.87884 -15.4477,-1.9184 -18.2012,-2.31027 l -5.0064,-0.71238 -1.642,-3.34797 c -1.9445,-3.96461 -1.6878,-7.47744 0.6423,-8.79328 1.1002,-0.62125 15.0091,-0.79987 62.9177,-0.80774 l 61.5052,-0.0102 0.3714,14.4 c 0.2042,7.92 0.1129,20.30396 -0.2028,27.51996 -2.0868,47.6894 -3.5474,160.93 -2.5093,194.5396 l 0.7407,23.9794 1.8923,2.7504 c 3.6052,5.24 5.4377,5.708 25.6409,6.5484 8.193,0.3409 18.4243,0.9613 22.7363,1.3788 l 7.84,0.759 v 5.8732 5.8733 l -5.28,1.109 c -21.1793,4.4486 -54.8434,13.4184 -74.72,19.909 -12.1525,3.9683 -26.3508,8.1592 -26.5582,7.839 -0.057,-0.087 -0.4812,-2.7511 -0.9435,-5.9191 -0.5183,-3.5522 -0.9511,-14.7714 -1.129,-29.2706 -0.2674,-21.7885 -0.3675,-23.4683 -1.3661,-22.9338 -0.5927,0.3171 -5.9658,4.231 -11.9404,8.6974 -21.0983,15.7726 -37.9667,26.2415 -59.2819,36.7916 -22.695,11.2331 -38.0553,14.8259 -57.1808,13.3748 z m 1140.7999,-5.7787 c -5.456,-0.3054 -17.552,-1.1503 -26.88,-1.8776 -9.328,-0.7273 -22.1921,-1.4907 -28.587,-1.6963 -17.311,-0.5569 -77.9076,1.5063 -88.5434,3.0147 -9.9829,1.4158 -14.8758,-2.7992 -10.8364,-9.335 2.0601,-3.3335 6.5067,-4.9925 23.0068,-8.5839 27.9353,-6.0806 29.7538,-6.5254 33.0764,-8.0913 5.4724,-2.579 9.4033,-8.196 11.4624,-16.3789 1.425,-5.6633 2.0797,-44.3787 2.1359,-126.3194 0.043,-63.5174 -0.3034,-78.6967 -1.9446,-85.0529 -0.9886,-3.8288 -9.0405,-11.4585 -15.291,-14.4891 -5.4743,-2.6544 -15.9671,-6.113 -25.1566,-8.2922 l -6.2774,-1.48876 0.4385,-5.78496 c 0.2413,-3.18176 0.4741,-5.79865 0.5175,-5.81529 0.043,-0.0166 5.2629,-1.55258 11.5989,-3.41319 17.3554,-5.09638 27.9541,-10.65491 42.364,-22.21785 9.7425,-7.81767 20.727,-19.45043 26.1404,-27.68306 2.2348,-3.39867 3.5388,-3.93563 9.5573,-3.93563 h 4.6982 l 0.3935,3.04 c 0.6883,5.31936 1.6077,25.94522 1.1867,26.62637 -0.2226,0.36019 -0.5458,54.81667 -0.7182,121.01427 -0.1724,66.1976 -0.3378,128.5674 -0.3677,138.5994 -0.061,20.4375 0.4083,23.531 4.2274,27.8807 3.39,3.861 12.7033,7.9749 28.0384,12.3853 5.104,1.4679 12.953,3.8503 17.4421,5.2942 l 8.1621,2.6252 0.7574,2.5278 c 0.6113,2.0404 0.5801,3.0404 -0.1622,5.1872 l -0.9194,2.6596 -4.8,0.078 c -2.64,0.043 -9.264,-0.1719 -14.72,-0.4773 z m -652.2403,-0.3988 -9.3604,-0.1951 -1.0396,-3.7054 c -1.3842,-4.9334 -1.3129,-6.5495 0.4003,-9.0729 2.4697,-3.6375 11.9913,-6.166 30.112,-7.9964 12.0484,-1.217 15.0282,-1.8125 18.8618,-3.7687 6.1325,-3.1296 8.1565,-5.0829 10.1127,-9.7595 2.2277,-5.3258 2.2836,-7.8172 1.0245,-45.6638 -0.5488,-16.4979 -0.7787,-44.2894 -0.6616,-80 0.1623,-49.4603 0.071,-55.4582 -0.9454,-62.4 -4.4797,-30.5835 -14.4034,-45.9045 -36.5055,-56.36055 -10.4267,-4.93261 -22.3679,-7.31808 -36.5585,-7.30323 -32.7744,0.0346 -63.0019,12.95928 -93.2009,39.85148 -5.6762,5.0548 -6.1952,5.7151 -6.597,8.3949 -0.6167,4.1125 -0.5352,42.0401 0.244,113.5298 0.8519,78.1543 1.4654,89.8436 4.9152,93.6583 2.1349,2.3606 5.5022,3.585 19.793,7.1971 33.6554,8.5067 36.6424,9.5177 39.6087,13.4067 1.6662,2.1846 1.9826,4.2978 1.2166,8.1274 l -0.4203,2.102 -58.9397,-0.5616 c -32.4167,-0.309 -71.0756,-0.4594 -85.9085,-0.3344 l -26.9689,0.2273 -0.4574,-2.7071 c -0.5603,-3.3165 0.122,-9.3143 1.1557,-10.1596 1.0123,-0.8277 10.3554,-2.8072 24.4395,-5.178 23.309,-3.9237 28.5183,-6.2667 30.4148,-13.6797 0.3787,-1.48 0.8385,-3.1228 1.0219,-3.6508 0.1833,-0.528 0.7267,-9.456 1.2075,-19.84 1.2568,-27.1463 0.2936,-154.9424 -1.2312,-163.3421 -1.3884,-7.6487 -3.342,-11.7823 -7.1559,-15.1408 -5.9431,-5.2336 -18.8779,-10.2997 -31.8376,-12.4695 l -4.5795,-0.7668 v -7.1958 -7.1959 l 9.28,-3.1049 c 18.3541,-6.1407 29.5979,-12.67717 41.615,-24.1925 10.7011,-10.2542 19.343,-21.59577 26.6016,-34.91174 l 3.0526,-5.6 h 6.536 6.5361 l 0.4558,1.76 c 0.2507,0.968 0.6427,14.0487 0.871,29.06829 0.2283,15.01958 0.5908,27.48385 0.8054,27.69845 0.2145,0.2146 2.9498,-1.4741 6.0784,-3.7527 20.4517,-14.89538 30.9122,-21.4358 46.6481,-29.16674 31.3943,-15.42375 59.4096,-22.77178 81.92,-21.4866 22.8516,1.30464 39.2495,7.677 55.9474,21.74151 16.0624,13.52921 24.0914,28.61673 27.2777,51.25783 3.1105,22.1023 3.1602,23.9567 3.2034,119.68 0.042,92.3138 0.089,94.197 2.4622,98.7196 0.8393,1.5993 3.5528,4.394 7.2185,7.4345 0.9514,0.7892 4.8839,1.7385 12.48,3.013 17.2417,2.8927 28.5291,6.1906 32.0291,9.358 1.448,1.3104 1.5298,6.3359 0.1771,10.8907 l -0.9646,3.2482 -24.1554,-0.2688 c -13.2854,-0.1478 -25.5954,-0.376 -27.3554,-0.507 -1.76,-0.1311 -19.904,0.157 -40.32,0.6402 -20.416,0.4832 -40.288,0.8223 -44.16,0.7535 -3.872,-0.069 -11.2521,-0.2128 -16.4003,-0.3201 z m 688.5542,-0.4366 c -1.3233,-0.4722 -2.8206,-1.2026 -3.3272,-1.6231 -1.4165,-1.1756 -2.439,-4.983 -1.9863,-7.3961 0.8213,-4.378 3.6233,-5.3195 29.4796,-9.9062 17.0947,-3.0325 26.5036,-5.235 29.2711,-6.8521 2.4948,-1.4579 4.3487,-5.0274 5.3915,-10.3812 1.5934,-8.1802 2.2547,-44.1784 2.0817,-113.3265 -0.094,-37.488 0.1342,-120.1095 0.5065,-183.60337 0.735,-125.37404 0.854,-119.84567 -2.7102,-125.92752 -2.9925,-5.10637 -9.2029,-8.82112 -27.5006,-16.44971 -6.336,-2.64156 -13.464,-5.69145 -15.84,-6.77751 l -4.32,-1.97467 v -4.47363 c 0,-2.4605 0.1447,-4.47363 0.3215,-4.47363 0.9359,0 27.1723,-8.27763 52.8923,-16.68762 L 2300.5766,0 h 9.0261 9.0262 l -0.012,124 c -0.014,143.16674 -0.8296,249.07364 -2.2562,292.96004 -0.9773,30.0611 -0.8677,46.8227 0.4032,61.7147 0.8577,10.0488 1.5477,12.4341 4.2946,14.8458 4.5254,3.9734 10.9634,5.7732 29.5704,8.2665 15.1377,2.0285 23.5152,3.7785 26.0549,5.4425 4.5169,2.9595 2.9464,11.3407 -2.3749,12.675 -0.88,0.2206 -22.6709,-0.3333 -48.4242,-1.2309 l -46.8243,-1.632 -33.8412,1.6392 c -18.6127,0.9016 -34.2618,1.6265 -34.7758,1.6111 -0.514,-0.015 -2.0173,-0.4145 -3.3406,-0.8867 z M 2096.4862,73.31983 c -6.2945,-1.31651 -11.7652,-4.36704 -16.5812,-9.24592 -7.1138,-7.20668 -9.9004,-14.93077 -9.4774,-26.27027 0.2271,-6.08886 0.4673,-7.21059 2.4077,-11.24364 2.5411,-5.28153 9.4202,-12.4971 14.4816,-15.18988 10.0494,-5.34664 24.7752,-4.98176 34.5999,0.85734 5.827,3.46318 12.5127,10.54306 15.3201,16.22333 5.6138,11.35878 2.8873,24.03491 -7.3775,34.29969 -9.0614,9.0614 -21.5987,13.032 -33.3732,10.56935 z"
     id="path1935"
     inkscape:connector-curvature="0" />
</svg>
