<?xml version="1.0" encoding="UTF-8" standalone="no"?>
<!-- Created with Inkscape (http://www.inkscape.org/) -->

<svg
   xmlns:dc="http://purl.org/dc/elements/1.1/"
   xmlns:cc="http://creativecommons.org/ns#"
   xmlns:rdf="http://www.w3.org/1999/02/22-rdf-syntax-ns#"
   xmlns:svg="http://www.w3.org/2000/svg"
   xmlns="http://www.w3.org/2000/svg"
   xmlns:sodipodi="http://sodipodi.sourceforge.net/DTD/sodipodi-0.dtd"
   xmlns:inkscape="http://www.inkscape.org/namespaces/inkscape"
   version="1.1"
   id="svg825"
   width="2400.8335"
   height="524.23798"
   viewBox="0 0 2400.8335 524.23797"
   sodipodi:docname="Custom.svg"
   inkscape:version="0.92.4 (5da689c313, 2019-01-14)">
  <metadata
     id="metadata831">
    <rdf:RDF>
      <cc:Work
         rdf:about="">
        <dc:format>image/svg+xml</dc:format>
        <dc:type
           rdf:resource="http://purl.org/dc/dcmitype/StillImage" />
        <dc:title></dc:title>
      </cc:Work>
    </rdf:RDF>
  </metadata>
  <defs
     id="defs829" />
  <sodipodi:namedview
     pagecolor="#ffffff"
     bordercolor="#666666"
     borderopacity="1"
     objecttolerance="10"
     gridtolerance="10"
     guidetolerance="10"
     inkscape:pageopacity="0"
     inkscape:pageshadow="2"
     inkscape:window-width="1920"
     inkscape:window-height="1017"
     id="namedview827"
     showgrid="false"
     fit-margin-top="0"
     fit-margin-left="0"
     fit-margin-right="0"
     fit-margin-bottom="0"
     inkscape:zoom="0.11776267"
     inkscape:cx="4722.361"
     inkscape:cy="1154.4007"
     inkscape:window-x="-8"
     inkscape:window-y="-8"
     inkscape:window-maximized="1"
     inkscape:current-layer="svg825" />
  <path
     style="fill:#000000;stroke-width:0.63999999"
     d="m 1000.232,523.97316 c -24.9438,-0.9536 -48.9876,-5.8382 -71.205,-14.4658 -12.116,-4.705 -12.0152,-4.5347 -13.5395,-22.8783 -0.3509,-4.224 -1.5038,-15.312 -2.562,-24.64 -2.3659,-20.8568 -3.8935,-36.9862 -3.8935,-41.1117 0,-3.4596 1.2781,-6.505 3.0085,-7.169 0.6247,-0.2397 2.9326,-0.6036 5.1288,-0.8088 3.5324,-0.3298 4.0412,-0.2331 4.411,0.8384 2.1555,6.2443 11.0059,26.9435 15.0212,35.1311 14.6144,29.8003 39.9502,50.7193 69.0705,57.0296 4.071,0.8821 8.1783,1.1813 16.32,1.189 13.0705,0.012 15.7785,-0.5973 26.88,-6.0507 13.4511,-6.6077 24.0553,-16.0851 29.4198,-26.2939 11.5052,-21.8944 1.7667,-55.3882 -21.7363,-74.7582 -13.3391,-10.9934 -30.8372,-20.4389 -56.5225,-30.511 -38.8822,-15.2472 -56.2945,-24.9771 -69.9535,-39.0903 -14.0414,-14.5083 -21.1829,-32.7528 -21.1351,-53.9945 0.04,-18.0397 4.0992,-31.6842 13.7052,-46.0749 4.1668,-6.2423 15.4021,-17.354 21.9024,-21.6614 9.9579,-6.5985 25.6072,-13.2536 39.3219,-16.7223 8.7796,-2.2206 17.9844,-3.2214 29.6273,-3.2214 29.8169,0 55.9419,4.5453 75.5944,13.1519 3.6708,1.6077 7.1252,3.2662 7.6762,3.6856 0.6915,0.5263 1.3058,3.1147 1.9831,8.3552 1.503,11.6303 5.1482,62.3896 4.5251,63.0127 -0.1681,0.1682 -3.361,0.3347 -7.0954,0.3702 l -6.7896,0.064 -1.4687,-3.8843 c -6.113,-16.1675 -18.1159,-33.6702 -30.0708,-43.8498 -19.0254,-16.2002 -36.5649,-23.1782 -55.6649,-22.1463 -15.7943,0.8533 -28.3154,6.954 -37.4203,18.2323 -10.4234,12.9115 -13.7014,32.7892 -8.0753,48.9672 6.264,18.0119 21.0688,28.7317 64.977,47.048 40.5003,16.8947 60.5488,28.6356 74.2155,43.4626 15.8873,17.236 25.6551,42.183 25.7517,65.7703 0.095,23.2186 -8.401,42.4704 -26.9981,61.1756 -11.9608,12.0303 -21.59,17.9403 -38.879,23.8622 -10.0437,3.4402 -19.244,5.731 -28.3301,7.0538 -8.6764,1.2632 -13.8809,1.4416 -27.2,0.9324 z m -755.51997,-2.486 c -20.51904,-1.2929 -38.80851,-3.7087 -50.77075,-6.706 -17.42394,-4.3659 -43.46368,-14.2571 -65.04308,-24.7067 -18.17642,-8.8017 -31.649671,-17.1064 -45.146171,-27.8275 -9.11495,-7.2406 -27.44961,-25.6756 -33.69141,-33.8759 -23.16815,-30.4374 -39.43715,-68.8161 -46.2491501,-109.102 -3.05428996,-18.063 -3.81984996,-28.2185 -3.811399956833,-50.56 C 0.00806894,246.34616 0.79284894,235.96156 3.8187489,218.14906 9.6273289,183.95576 22.999419,152.31886 46.396259,117.41516 77.305669,71.304256 116.13481,38.794056 163.43203,19.425456 c 16.14214,-6.6104 38.03763,-12.7420005 53.59578,-15.0091005 22.37049,-3.2597 52.86784,-4.86619996 81.76422,-4.30689996 23.19008,0.4488 37.10554,1.85109996 55.04001,5.54649996 27.43302,5.6527005 62.10662,18.4650005 71.59321,26.4545005 l 2.47328,2.0829 1.16864,9.2579 c 2.24096,17.7526 2.61005,23.4866 2.96871,46.1207 l 0.36109,22.782904 -2.4825,0.41 c -3.3721,0.5571 -11.2825,0.5143 -12.12826,-0.066 -0.37721,-0.2586 -1.7664,-3.2062 -3.0871,-6.5502 -7.16691,-18.146104 -19.71443,-36.965604 -32.86208,-49.288604 -29.34003,-27.4997 -67.21197,-40.1846 -115.92673,-38.8288 -24.16384,0.6725 -37.26444,3.4495 -58.03852,12.3026 -37.06151,15.7941 -66.7913,40.6666 -88.85029,74.333704 -28.021511,42.7673 -44.250241,108.9734 -42.328341,172.6811 1.89035,62.6619 12.98813,107.974 35.863571,146.4305 12.65585,21.2761 29.77662,39.5121 48.63531,51.8033 6.07891,3.9619 23.16672,12.6202 30.72,15.5655 25.12282,9.7965 45.94823,13.719 72.8432,13.7202 9.98964,5e-4 14.40948,-0.3336 25.92,-1.9591 18.26093,-2.5789 26.49178,-4.365 39.61306,-8.5963 28.99847,-9.3513 45.232,-18.7502 64.10317,-37.1145 15.54963,-15.132 27.65472,-31.789 37.71155,-51.8924 3.02644,-6.0497 3.37984,-6.4898 5.79194,-7.2125 2.16371,-0.6482 2.99328,-0.5998 5.2601,0.3072 l 2.69126,1.0768 -0.42541,6.1357 c -0.32627,4.7065 -1.9943,12.3219 -7.16141,32.6956 -5.2519,20.7079 -13.01312,49.8661 -16.72755,62.8435 -0.17049,0.5959 -1.21677,1.2768 -2.32499,1.5131 -1.10822,0.2363 -7.29638,2.114 -13.75155,4.1725 -23.12928,7.3761 -43.277,11.0813 -76.58337,14.0837 -9.66643,0.8714 -72.59481,1.2941 -84.16,0.5653 z m 1322.24007,-0.2934 c -31.3003,-3.8031 -63.7149,-17.0977 -86.72,-35.5673 -7.3175,-5.8749 -18.9812,-17.7962 -25.0363,-25.5895 -24.1287,-31.0546 -35.2005,-60.9294 -36.5154,-98.5279 -0.6025,-17.2299 1.4322,-32.8534 6.5143,-50.0202 8.6294,-29.1495 20.4988,-49.4247 41.4806,-70.8571 29.2158,-29.8433 61.715,-44.188 109.0395,-48.1286 11.8062,-0.9832 40.2999,-0.4326 49.4773,0.9559 37.1719,5.6238 66.5385,20.307 92.8835,46.4414 29.1817,28.9484 44.9132,60.8033 49.9421,101.1286 1.2474,10.0027 1.0549,32.5315 -0.3553,41.6 -4.8909,31.4504 -19.0098,58.7982 -43.534,84.3241 -31.1146,32.3853 -69.253,50.38 -115.5763,54.5318 -9.8651,0.8843 -33.2748,0.7204 -41.6,-0.2912 z m 33.6,-14.4306 c 20.9851,-1.9816 41.1495,-9.6568 57.2556,-21.7931 22.6375,-17.058 39.5059,-46.7959 46.9787,-82.821 2.9988,-14.457 3.8836,-24.1922 3.8677,-42.56 -0.016,-18.5987 -0.8762,-26.5128 -4.7993,-44.16 -10.478,-47.1329 -26.0768,-74.9348 -51.5792,-91.9304 -29.033,-19.3484 -66.4057,-21.9439 -103.4558,-7.1848 -8.1116,3.2314 -11.8727,5.1545 -17.3877,8.891 -18.1519,12.2979 -34.3757,35.2057 -42.5954,60.1442 -7.4282,22.5368 -10.7264,50.1006 -9.994,83.52 0.7008,31.9697 5.3053,54.9836 15.1097,75.52 6.4135,13.434 11.1123,20.2432 21.1426,30.6393 18.0212,18.678 39.0972,28.9902 64.7256,31.6691 7.7057,0.8055 12.7288,0.8215 20.7315,0.066 z m -314.4489,12.8018 c -6.8999,-0.8698 -14.9005,-2.9013 -20.3335,-5.163 -13.6493,-5.6823 -26.553,-18.1158 -31.01,-29.8802 -5.5193,-14.5687 -6.7624,-41.3559 -5.3815,-115.9727 0.8886,-48.0172 0.565,-124.1022 -0.5326,-125.1997 -0.5629,-0.5629 -17.8276,-0.3707 -31.8135,0.3541 -12.5863,0.6523 -14.0287,0.5131 -16.2779,-1.5714 -2.0618,-1.9108 -2.6274,-4.307 -1.7264,-7.3143 1.3266,-4.4275 2.8873,-5.5939 16.3202,-12.197 16.3246,-8.0245 25.3409,-14.6698 37.3278,-27.5117 11.2997,-12.1056 15.7271,-19.9412 26.892,-47.5932 3.7145,-9.1997 7.1912,-17.8068 7.726,-19.1268 l 0.9724,-2.4 5.5029,0.01 c 3.0267,0.01 5.8144,0.2214 6.1952,0.48 1.1885,0.8074 2.2262,37.8296 1.7606,62.8148 l -0.4224,22.6647 19.1448,-0.4558 c 10.5296,-0.2506 22.7448,-0.7258 27.1448,-1.0559 4.4,-0.3301 19.3849,-0.7906 33.2999,-1.0232 29.7022,-0.4967 27.4418,-1.0446 27.6016,6.6913 0.1514,7.329 -0.121,11.4347 -1.1072,16.6881 -0.4887,2.6036 -0.9664,4.8054 -1.0615,4.893 -0.1567,0.1445 -36.3745,1.3511 -84.5733,2.8175 -13.9963,0.4259 -18.6836,0.7702 -19.318,1.419 -2.0076,2.0534 -3.1374,11.2914 -3.0789,25.1767 0.031,7.392 0.1735,51.312 0.3163,97.6 0.2581,83.6242 0.2687,84.2078 1.6757,91.6581 2.7262,14.4349 6.2908,22.2199 12.8906,28.1527 9.1476,8.2229 21.6877,10.576 40.2355,7.5497 23.6507,-3.8589 31.1256,-6.3509 42.3562,-14.1206 5.5404,-3.833 5.6967,-3.8943 8.762,-3.4348 4.4412,0.6657 7.2811,3.562 7.2811,7.4259 0,2.6434 -0.2758,3.0712 -4.96,7.6948 -16.957,16.7375 -37.0182,25.7695 -64.3346,28.9649 -10.1504,1.1873 -31.3752,1.734 -37.4743,0.9652 z m -664.43119,-0.6348 c -21.1117,-1.6098 -38.2388,-9.4402 -53.1453,-24.2978 -13.266,-13.2225 -21.2431,-29.0443 -26.4614,-52.4833 -4.2182,-18.9467 -6.1499,-47.1227 -4.7829,-69.76 0.6397,-10.5919 0.8435,-30.3523 0.7706,-74.7213 l -0.099,-60.3214 -1.8858,-3.338 c -1.0373,-1.8359 -2.5767,-3.8421 -3.4211,-4.4584 -1.8534,-1.3526 -21.7149,-6.4774 -31.9352,-8.2399 -4.048,-0.6981 -9.016,-1.733 -11.04,-2.2995 l -3.68,-1.0302 v -6.302 -6.302 l 50.5068,0.1463 c 27.7788,0.081 50.7468,0.3882 51.04,0.6837 0.7751,0.781 0.4206,63.7057 -0.5522,98.0227 -1.066,37.6048 -1.054,98.7875 0.022,112.96 0.9222,12.1441 2.2427,21.3276 3.727,25.92 5.8168,17.9965 23.5836,31.0289 47.2562,34.6636 7.7721,1.1933 24.971,0.8285 34.24,-0.7263 19.7311,-3.3098 39.5237,-11.4598 58.5552,-24.1113 9.9377,-6.6063 19.0393,-14.1691 19.6345,-16.315 1.0834,-3.9052 1.791,-23.3946 2.1129,-58.187 0.1923,-20.7877 0.6598,-45.4117 1.039,-54.72 1.4412,-35.3804 -0.8906,-78.6765 -4.7268,-87.7643 -2.8687,-6.7958 -15.115,-10.5543 -47.4948,-14.5765 -8.448,-1.0494 -16.695,-2.0946 -18.3267,-2.3225 -2.7649,-0.3864 -3.0607,-0.616 -4.3507,-3.3776 -2.0494,-4.387 -1.8664,-8.3719 0.4319,-9.4106 0.619,-0.2798 28.8191,-0.5275 62.6669,-0.5506 l 61.5415,-0.042 0.4706,9.28 c 0.4672,9.2132 0.1974,25.6194 -0.9809,59.6451 -0.3376,9.7488 -0.9041,41.8608 -1.2588,71.36 -0.3548,29.4992 -0.8,56.3709 -0.9894,59.7149 -0.1895,3.344 0.043,18.176 0.5179,32.96 0.9389,29.2706 0.871,28.8149 4.8941,32.838 2.5688,2.5688 6.0014,3.2397 18.7706,3.6684 8.88759,0.2984 34.44349,2.0995 34.81939,2.4539 0.07,0.066 0.3191,2.7023 0.5545,5.8595 l 0.4281,5.7402 -8.2345,1.7976 c -25.1562,5.4916 -52.81959,12.911 -74.21089,19.9035 -10.9565,3.5817 -24.572,7.5755 -24.5889,7.2128 0,-0.063 -0.4294,-3.2819 -0.9476,-7.1539 -0.6656,-4.9741 -0.9487,-13.3316 -0.9644,-28.48 -0.012,-11.792 -0.2448,-21.7902 -0.5168,-22.2182 -0.3427,-0.5393 -4.2218,1.9936 -12.6303,8.2471 -14.5896,10.8505 -21.8362,15.7596 -34.5356,23.3958 -36.2228,21.7808 -57.8633,28.8952 -82.24,27.0364 z m 1754.24009,-7.0555 c -19.8409,-1.2859 -58.2546,-1.5884 -79.04,-0.6223 -7.04,0.3272 -21.44,0.6424 -32,0.7005 l -19.2,0.1055 -0.1905,-3.9134 c -0.284,-5.8328 1.4235,-9.2897 5.4385,-11.0107 4.4726,-1.9173 10.6175,-3.4988 23.39,-6.0199 20.3687,-4.0207 25.3714,-7.1304 27.2922,-16.9653 2.1136,-10.823 2.3098,-18.1691 2.2733,-85.12 -0.038,-68.8902 -0.6406,-93.0758 -2.6169,-104.96 -5.0102,-30.1278 -25.089,-52.1011 -53.7025,-58.769 -21.0201,-4.8985 -41.897,-2.4562 -62.1121,7.2659 -14.0117,6.7388 -30.9531,19.6925 -43.3893,33.1763 l -5.8227,6.3132 -0.4342,41.3668 c -1.5161,144.4603 -1.4444,153.1244 1.3334,161.0275 1.6224,4.6163 4.1165,7.8591 7.4992,9.7507 3.5938,2.0096 13.2914,4.2849 28.0816,6.5885 17.0941,2.6626 17.622,2.7985 19.6486,5.0605 3.2317,3.6073 3.8668,10.0059 1.3281,13.3806 l -1.1367,1.5109 -85.872,0.104 -85.872,0.1041 -0.368,-1.84 c -0.2025,-1.012 -0.368,-3.9247 -0.368,-6.4726 v -4.6326 l 3.68,-1.6433 c 4.6667,-2.0841 15.5856,-4.9494 28.3918,-7.4505 10.5823,-2.0667 19.656,-4.4891 23.9933,-6.4053 3.3484,-1.4793 5.0507,-4.8647 5.9715,-11.8757 0.3698,-2.816 1.2498,-18.224 1.9555,-34.24 1.1047,-25.0732 1.2458,-36.2353 1.0156,-80.32 -0.2896,-55.4323 -0.4937,-59.2023 -3.9689,-73.28 -2.0771,-8.4145 -4.0049,-13.5748 -7.5867,-20.3078 -9.3093,-17.4996 -25.7001,-29.4294 -45.1321,-32.8488 -5.7632,-1.0141 -20.2357,-0.8589 -27.9873,0.3001 -14.0005,2.0934 -26.249,6.0404 -40.0486,12.9054 -16.3347,8.1261 -28.9087,17.6137 -40.5878,30.625 -3.8366,4.2742 -4.6971,5.6411 -5.0554,8.0299 -0.5396,3.5989 0.8866,140.3102 1.6994,162.8962 0.8417,23.3861 2.0506,31.8184 5.1214,35.7223 1.5039,1.9119 7.7744,5.0354 12.291,6.1225 1.668,0.4015 7.2777,1.4491 12.466,2.328 17.2686,2.9254 26.2395,6.0218 29.2336,10.0904 1.0693,1.453 1.2987,2.6748 1.239,6.5977 -0.04,2.6479 -0.2145,4.9556 -0.387,5.1281 -0.1726,0.1725 -6.7641,-0.1242 -14.6479,-0.6595 -30.925,-2.0994 -49.03,-2.5508 -68.6964,-1.7125 -10.208,0.4352 -27.6126,1.0384 -38.6768,1.3404 -11.0641,0.3021 -24.9287,0.7528 -30.8103,1.0016 l -10.6935,0.4525 -0.4522,-2.0587 c -0.2487,-1.1323 -0.1126,-3.8587 0.3025,-6.0586 0.6307,-3.3425 1.0606,-4.1807 2.6156,-5.0992 3.3892,-2.002 9.1232,-3.6202 18.5147,-5.225 12.3464,-2.1096 19.3911,-4.3678 22.5612,-7.2318 4.8648,-4.395 7.7055,-11.2193 8.7702,-21.0682 2.6231,-24.2676 2.6315,-138.9743 0.013,-174.55 -0.6605,-8.9723 -2.3102,-23.4413 -2.887,-25.3193 -0.3697,-1.2041 -7.1476,-4.6623 -13.0062,-6.636 -2.338,-0.7877 -9.507,-2.6842 -15.931,-4.2147 l -11.68,-2.7825 v -6.4437 -6.4438 l 8.1585,-2.7758 c 15.0791,-5.1305 26.0073,-11.2035 35.9462,-19.9758 6.3127,-5.5718 17.3942,-17.5323 26.8021,-28.9284 l 6.7364,-8.16 h 5.6152 c 3.0884,0 6.3348,0.2736 7.2143,0.6079 l 1.599,0.608 0.2026,36.4592 c 0.1115,20.0526 0.4022,36.6585 0.646,36.9021 0.2438,0.2435 3.6998,-2.4311 7.68,-5.9436 34.9858,-30.8751 65.5596,-48.8463 91.6405,-53.8663 20.7452,-3.9929 46.3448,-2.9679 63.1665,2.5292 12.5124,4.0888 20.7867,9.3415 30.3629,19.275 7.235,7.5049 12.952,15.1648 19.2773,25.8285 2.7143,4.576 5.0268,8.4385 5.1388,8.5832 0.2137,0.2761 2.6993,-1.9063 14.0955,-12.3765 30.2741,-27.8143 59.1979,-43.1744 89.2589,-47.4013 9.5016,-1.3361 25.6899,-1.3402 34.6553,-0.01 12.0904,1.7954 23.702,5.7149 33.4021,11.2747 30.3993,17.4238 45.7959,45.7963 48.9306,90.1687 0.396,5.6046 0.6619,42.7389 0.6714,93.76 0.017,91.6465 -0.091,88.6967 3.4969,95.5323 2.8924,5.5108 1.606,4.9019 23.9007,11.3128 13.9606,4.0144 18.3197,5.7051 19.6663,7.6277 1.2169,1.7374 1.1926,6.9805 -0.052,11.171 l -0.9848,3.3162 -2.6952,-0.087 c -1.4824,-0.048 -10.6152,-0.6001 -20.2952,-1.2276 z"
     id="path1933"
     inkscape:connector-curvature="0" />
</svg>
