<?xml version="1.0" encoding="UTF-8" standalone="no"?>
<!-- Created with Inkscape (http://www.inkscape.org/) -->

<svg
   xmlns:dc="http://purl.org/dc/elements/1.1/"
   xmlns:cc="http://creativecommons.org/ns#"
   xmlns:rdf="http://www.w3.org/1999/02/22-rdf-syntax-ns#"
   xmlns:svg="http://www.w3.org/2000/svg"
   xmlns="http://www.w3.org/2000/svg"
   xmlns:sodipodi="http://sodipodi.sourceforge.net/DTD/sodipodi-0.dtd"
   xmlns:inkscape="http://www.inkscape.org/namespaces/inkscape"
   version="1.1"
   id="svg1378"
   width="2701.407"
   height="541.46429"
   viewBox="0 0 2701.407 541.46429"
   sodipodi:docname="Standard.svg"
   inkscape:version="0.92.4 (5da689c313, 2019-01-14)">
  <metadata
     id="metadata1384">
    <rdf:RDF>
      <cc:Work
         rdf:about="">
        <dc:format>image/svg+xml</dc:format>
        <dc:type
           rdf:resource="http://purl.org/dc/dcmitype/StillImage" />
        <dc:title></dc:title>
      </cc:Work>
    </rdf:RDF>
  </metadata>
  <defs
     id="defs1382" />
  <sodipodi:namedview
     pagecolor="#ffffff"
     bordercolor="#666666"
     borderopacity="1"
     objecttolerance="10"
     gridtolerance="10"
     guidetolerance="10"
     inkscape:pageopacity="0"
     inkscape:pageshadow="2"
     inkscape:window-width="1920"
     inkscape:window-height="1017"
     id="namedview1380"
     showgrid="false"
     fit-margin-top="0"
     fit-margin-left="0"
     fit-margin-right="0"
     fit-margin-bottom="0"
     inkscape:zoom="0.21699767"
     inkscape:cx="-857.85429"
     inkscape:cy="-483.60245"
     inkscape:window-x="-8"
     inkscape:window-y="-8"
     inkscape:window-maximized="1"
     inkscape:current-layer="svg1378" />
  <path
     style="fill:#000000;stroke-width:0.63999999"
     d="m 1607.4253,531.3893 c -0.2279,-5.4948 -0.4153,-13.9334 -0.4165,-18.7524 v -8.7619 l -4.32,1.4819 c -2.376,0.815 -10.512,3.9942 -18.08,7.0649 -23.9128,9.7023 -47.6485,17.0239 -67.2,20.7285 -15.1024,2.8616 -23.4014,3.6034 -40.32,3.6041 -15.7224,0 -16.6008,-0.066 -23.9897,-1.8232 -26.6361,-6.334 -53.2468,-22.5205 -70.5748,-42.9287 -22.0225,-25.9372 -35.5813,-61.9056 -37.0494,-98.2837 -2.0868,-51.709 19.8609,-106.1431 53.7609,-133.3362 13.6205,-10.9257 32.0206,-21.8843 46.173,-27.4994 5.9855,-2.3748 22.5295,-6.7223 37.44,-9.8387 8.2396,-1.722 9.4261,-1.8049 25.6,-1.7882 33.9029,0.035 57.1872,4.7276 83.8793,16.9045 5.4344,2.4792 10.3959,4.5099 11.0256,4.5128 1.0951,0.01 1.1349,-3.5888 0.9161,-82.7148 -0.2227,-80.5048 -0.2643,-82.9 -1.5507,-89.44 -2.7899,-14.1832 -5.6413,-18.2563 -16.74,-23.9127 -7.716,-3.9323 -21.0198,-8.6608 -34.5754,-12.2887 l -9.2052,-2.4636 0.4246,-6.0401 c 0.2335,-3.322 0.5518,-6.2459 0.7074,-6.4976 0.1555,-0.2517 2.5227,-0.6559 5.2605,-0.8984 22.4634,-1.9895 59.2952,-9.2259 79.5378,-15.627 5.2202,-1.6507 7.4966,-1.9847 16.0965,-2.3617 9.4032,-0.4122 10.0378,-0.3665 10.3676,0.7454 0.1932,0.6514 0.6658,12.8484 1.0503,27.1044 0.5311,19.6855 0.4871,44.6234 -0.1827,103.68 -0.8374,73.8434 -0.8127,82.0795 0.491,163.52 1.0993,68.6784 1.2618,93.2809 0.8155,123.52 -0.6631,44.9434 -0.341,70.59 0.9589,76.3242 1.0318,4.5517 2.4057,6.2971 6.868,8.7259 6.2479,3.4005 19.9117,5.484 36.1749,5.516 8.8511,0.017 8.6416,-0.1201 8.6312,5.6685 -0.013,7.4254 -0.078,7.5375 -5.0163,8.6568 -2.3402,0.5303 -21.3909,4.2698 -42.3349,8.3099 -35.3904,6.8269 -43.6004,8.2559 -51.2635,8.9233 l -2.9435,0.2564 -0.4144,-9.9905 z m -67.6186,-25.1034 c 20.4886,-1.8565 46.1957,-9.6655 59.919,-18.2014 3.6706,-2.2831 4.636,-3.2208 4.9542,-4.8119 0.8113,-4.0566 1.8339,-83.947 1.4535,-113.5538 -0.8877,-69.0846 -3.253,-82.2049 -17.6111,-97.6878 -12.0914,-13.0387 -30.8464,-24.2612 -48.6661,-29.1206 -43.2086,-11.7829 -84.5824,2.3797 -111.503,38.1684 -13.0402,17.3358 -21.1551,41.1793 -24.2868,71.36 -1.0433,10.0546 -1.0697,35.2395 -0.047,44.16 4.6483,40.5198 22.6735,71.9228 52.9074,92.1742 22.9612,15.3799 48.0086,20.6726 82.8793,17.5129 z m 1059.0495,16.3962 -0.1695,-18.7823 -4.48,1.5662 c -2.464,0.8613 -10.9594,4.1824 -18.8788,7.3801 -33.5915,13.5638 -62.1909,21.0606 -90.0701,23.6103 -12.0848,1.1052 -31.3694,0.5011 -39.0996,-1.2247 -27.2799,-6.0907 -55.0082,-22.9598 -72.7978,-44.2885 -15.0734,-18.0721 -27.2647,-43.9476 -32.5906,-69.1722 -9.8816,-46.8019 1.3531,-100.5678 28.9973,-138.7722 6.1138,-8.4492 17.7005,-20.1614 26.0487,-26.331 14.1622,-10.4662 34.1196,-21.5435 45.7509,-25.3939 7.2753,-2.4084 28.1824,-7.3826 38.3036,-9.1132 12.465,-2.1313 35.3291,-1.5668 54.7169,1.3509 18.5126,2.786 31.8454,6.6666 47.9323,13.9512 13.0313,5.901 13.1045,5.9182 13.5823,3.1953 0.2064,-1.1766 0.2812,-37.9953 0.1661,-81.8193 -0.1854,-70.6509 -0.3291,-80.369 -1.2684,-85.76 -2.0267,-11.6327 -4.5179,-17.6324 -8.8668,-21.3549 -6.0772,-5.2018 -20.6315,-11.2048 -40.726,-16.7977 l -11.04,-3.0727 v -3.618 c 0,-1.99 0.1832,-4.9543 0.407,-6.5874 0.3892,-2.8394 0.498,-2.9693 2.4855,-2.9693 2.5162,0 18.7061,-2.093 29.8916,-3.8643 18.4964,-2.9291 44.4799,-8.9666 55.8559,-12.9787 1.4988,-0.5285 6.8455,-1.0962 12.8976,-1.3693 L 2646.2419,0 l 0.462,5.5456 c 1.0721,12.8715 1.2247,53.312 0.4708,124.8132 -0.7457,70.7235 -0.7086,81.8248 0.5201,155.52 1.0647,63.8499 1.2398,91.0551 0.8965,139.2 -0.5214,73.1186 -0.4615,73.8981 5.993,77.9922 6.2084,3.9379 14.7632,5.5982 31.8696,6.1847 15.2226,0.5219 14.9528,0.4599 14.9528,3.4382 0,1.3404 -0.1827,4.1848 -0.406,6.3209 l -0.4059,3.8839 -4.5355,1.0242 c -7.5213,1.6986 -80.395,15.6368 -85.2126,16.2983 -2.464,0.3383 -6.1318,0.7564 -8.1505,0.9291 l -3.6706,0.314 z m -64.5732,-16.6722 c 16.9999,-1.8441 36.7537,-7.5437 51.1891,-14.7697 12.1916,-6.1027 10.9814,-3.7353 11.6486,-22.7875 0.8113,-23.1662 0.7934,-120.4761 -0.025,-136.4939 -1.0988,-21.5027 -2.8789,-34.8115 -5.7478,-42.9741 -3.7859,-10.7717 -13.4266,-21.3923 -28.7599,-31.6833 -16.0937,-10.8014 -31.8915,-16.2827 -51.7429,-17.9531 -22.6048,-1.9022 -44.5512,3.3754 -62.38,15.0008 -29.8835,19.4859 -46.7595,49.9046 -52.1111,93.9297 -1.5923,13.0981 -1.5957,41.416 -0.01,52.16 5.0668,34.2531 17.7315,59.1694 40.1107,78.9128 25.841,22.7975 56.4706,31.1444 97.8249,26.6583 z M 118.6867,538.9116 C 89.097626,536.8114 56.533886,529.4219 29.309316,518.6297 12.102066,511.8084 4.5476758,506.8272 1.4788358,500.2788 c -1.98381004,-4.2332 -1.97493004,-9.5581 0.0461,-27.6505 2.65861,-23.8005 3.86222,-39.5479 4.85018,-63.4571 0.97576,-23.6142 1.91214,-26.6524 8.2141602,-26.6524 2.64734,0 3.54285,0.3156 5.08364,1.7918 2.30163,2.2051 2.96892,4.4178 4.28486,14.2082 4.01292,29.8556 16.96533,54.858 40.61504,78.4003 22.14948,22.0489 45.757054,34.912 72.798894,39.6662 11.78029,2.0711 31.00871,1.9411 44.03501,-0.2976 25.4953,-4.3817 48.80781,-16.7794 63.79949,-33.9289 11.66368,-13.3425 20.71001,-31.6614 23.86163,-48.32 2.20595,-11.6599 0.97062,-28.1024 -3.00531,-40 -7.95719,-23.8117 -24.67648,-42.2702 -57.82547,-63.841 C 192.25521,319.7981 184.20196,315.2632 139.1667,291.3037 117.9332,280.007 95.161996,266.9235 84.126696,259.6795 71.483686,251.3802 63.320586,244.6504 51.120646,232.4688 23.552176,204.9419 12.192326,182.3753 10.264806,151.308 8.1556358,117.3131 18.154566,87.8267 40.185386,63.0733 64.501996,35.7517 96.353496,20.095 139.1667,14.4187 c 10.5895,-1.404 45.92467,-1.6149 57.6,-0.3438 34.14426,3.7173 56.30323,11.6395 80.39155,28.7414 l 2.95162,2.0955 1.10163,9.4846 c 1.94419,16.739 1.99187,19.2092 0.87942,45.5624 -1.18732,28.1258 -1.88147,36.8132 -3.03353,37.9653 -0.40941,0.4094 -2.50208,0.7467 -4.65031,0.7495 l -3.90598,0.01 -1.83533,-7.04 C 261.82008,105.3855 251.60734,84.3653 238.16273,68.8614 224.94091,53.6145 204.5676,41.7334 183.3267,36.8828 c -17.7719,-4.0584 -42.36582,-3.7474 -60.15429,0.7608 -18.3947,4.6618 -32.621364,12.7334 -46.108774,26.16 -10.8765,10.8275 -17.68877,22.1643 -21.26478,35.3883 -1.51305,5.5952 -1.67952,7.3233 -1.67737,17.4117 0.003,13.0116 0.88471,17.2857 5.59327,27.1067 7.78504,16.2378 18.89971,26.9171 45.858804,44.0627 16.34098,10.3926 35.28082,20.8807 80.95314,44.8283 34.59533,18.1395 61.89229,34.4949 77.97094,46.7173 27.08807,20.5914 44.65568,46.9112 51.208,76.7198 7.92768,36.0657 1.84544,74.6821 -16.89056,107.2383 -9.3104,16.1779 -18.59891,27.6891 -31.00838,38.4285 -26.38138,22.8308 -57.54637,34.0703 -103.36,37.2763 -10.78995,0.7551 -34.68371,0.7211 -45.76,-0.065 z m 717.12001,-3.0988 c -12.2164,-1.2576 -22.5831,-5.6287 -30.1366,-12.707 -2.6089,-2.4447 -5.7197,-6.0694 -6.9129,-8.0547 -3.0245,-5.0326 -6.1353,-14.4811 -7.842,-23.8186 -0.7955,-4.3526 -1.6403,-7.9137 -1.8773,-7.9137 -0.237,0 -10.043,6.6757 -21.7911,14.8349 -23.3114,16.1901 -24.6893,17.0488 -38.3201,23.8795 -10.9014,5.463 -16.0015,7.3815 -24.5402,9.2315 -13.4658,2.9175 -38.1106,4.6073 -47.7798,3.2761 -17.6551,-2.4305 -29.806,-12.8673 -34.3844,-29.534 -0.8278,-3.0133 -1.1115,-6.3593 -1.0794,-12.728 0.038,-7.466 0.2788,-9.4228 1.775,-14.4 5.2588,-17.4953 19.5783,-38.7854 39.4072,-58.5904 10.6522,-10.6393 19.5389,-17.9106 32.3616,-26.4789 17.076,-11.4106 30.4108,-18.2699 59.2,-30.4523 28.7315,-12.1579 38.3119,-16.6325 38.7819,-18.1133 0.7413,-2.3359 0.5149,-44.5709 -0.2769,-51.6451 -1.8616,-16.6325 -4.3021,-26.5325 -8.8092,-35.7353 -5.3331,-10.8894 -15.1714,-18.8647 -27.7933,-22.5301 -7.3387,-2.1312 -20.6487,-2.4393 -29.1998,-0.6759 -15.6541,3.2283 -32.813,13.3275 -41.9952,24.717 -6.3257,7.8463 -12.4438,22.8098 -16.4,40.11 -2.3814,10.4143 -3.0747,12.4716 -6.9143,20.5198 l -2.9796,6.2455 -4.8468,2.8389 c -12.7419,7.4634 -21.1998,9.4683 -29.5306,7.0002 -7.405,-2.1938 -12.1162,-6.2482 -12.1162,-10.4272 0,-9.1071 19.1932,-44.856 34.2228,-63.7429 5.4524,-6.8516 17.2068,-18.4519 23.6634,-23.3531 15.9912,-12.1388 36.7427,-22.2601 55.2673,-26.9558 10.5841,-2.6829 19.0068,-3.2986 34.3218,-2.5087 15.1815,0.7829 26.3806,2.4761 34.7634,5.2557 16.7273,5.5467 31.8341,19.536 40.1802,37.2078 3.5548,7.5268 5.2916,14.2611 6.0539,23.4741 0.944,11.4091 1.0334,56.0102 0.2615,130.56 -0.7646,73.8505 -0.8066,72.5867 2.6392,79.3867 2.2113,4.3637 6.9941,8.9923 11.6551,11.2791 6.7641,3.3185 16.52878,2.6898 23.81098,-1.5333 4.1404,-2.401 7.8555,-6.0459 12.3558,-12.122 3.8277,-5.1682 4.1296,-5.4166 8.058,-6.6299 2.2448,-0.6933 4.1638,-1.2606 4.2646,-1.2606 0.6444,0 2.2407,5.6105 2.2342,7.8529 -0.021,7.3357 -12.7848,27.9906 -24.1915,39.1481 -8.7258,8.5352 -14.8621,12.1485 -23.80068,14.0148 -6.0088,1.2546 -15.4855,1.7241 -21.76,1.0782 z m -111.1936,-31.6585 c 18.0963,-5.0629 38.5102,-17.8424 59.8077,-37.4407 l 4.614,-4.246 1.0107,-18.8544 c 1.8103,-33.773 1.9123,-77.3166 0.1852,-79.0437 -1.0401,-1.0402 -24.3391,9.5633 -37.944,17.2685 -9.7628,5.5291 -25.9189,16.2459 -32.96,21.8632 -7.8723,6.2804 -22.0399,20.7271 -27.2409,27.7776 -5.9839,8.1117 -8.0594,11.471 -11.1122,17.9856 -3.3921,7.2384 -4.5736,11.7881 -4.9691,19.1344 -0.5938,11.0279 2.5503,19.5205 9.976,26.9461 9.9026,9.9027 23.3212,12.8931 38.6326,8.6094 z m 1243.78759,31.5855 c -16.6849,-1.762 -29.1934,-9.0395 -36.7969,-21.4087 -2.651,-4.3127 -6.1458,-15.0264 -7.6709,-23.516 -0.6821,-3.797 -1.4062,-7.0697 -1.6092,-7.2727 -0.203,-0.2029 -10.1043,6.388 -22.003,14.6466 -21.9508,15.2354 -26.6951,18.2094 -38.4415,24.0971 -16.3444,8.1924 -26.9823,10.765 -50.8477,12.2966 -24.2633,1.5571 -35.0016,-1.1839 -45.3048,-11.5646 -5.326,-5.366 -8.0218,-10.1086 -10.2122,-17.9656 -1.8757,-6.7279 -1.8674,-17.2651 0.019,-24.8171 6.6388,-26.5727 35.051,-61.6635 69.0729,-85.3091 16.5401,-11.4956 32.7751,-19.9201 64,-33.2102 11.792,-5.019 24.9224,-10.7735 29.1787,-12.7876 l 7.7386,-3.6621 0.4168,-4.4138 c 0.6556,-6.9438 0.4828,-37.5329 -0.26,-46.0138 -1.4553,-16.6165 -4.3922,-29.0672 -9.0531,-38.3802 -3.7165,-7.4257 -11.6353,-15.1873 -19.2611,-18.8783 -12.43,-6.0165 -29.0829,-6.8549 -44.3786,-2.2343 -6.8359,2.0651 -15.4106,6.4003 -22.0658,11.1564 -15.5487,11.1117 -22.0947,22.4304 -29.0651,50.2564 -4.5805,18.2852 -8.5752,27.2302 -13.5886,30.4274 -9.7021,6.1872 -18.9803,9.2635 -26.3142,8.7249 -7.6389,-0.5611 -16.0439,-5.4211 -16.8727,-9.7563 -0.9135,-4.7786 4.022,-16.8099 14.2803,-34.8112 13.9413,-24.4641 24.5116,-38.0354 39.2688,-50.4172 17.7794,-14.9176 45.4174,-28.1651 66.296,-31.7772 8.7118,-1.5072 14.8928,-1.7474 27.5929,-1.0725 19.7561,1.0499 30.9959,3.1646 40.5047,7.6206 21.136,9.9046 36.8727,31.1677 40.1634,54.2682 0.9381,6.5853 1.08,50.27 0.4694,144.5533 -0.423,65.3235 -0.4971,63.6337 3.0807,70.2075 2.1122,3.8807 6.651,8.1731 11.1439,10.5386 3.1488,1.6579 4.0227,1.8139 10.165,1.8139 6.0068,0 7.1222,-0.1884 10.5097,-1.7748 5.7636,-2.6993 9.3403,-5.7648 14.7552,-12.6464 2.7843,-3.5385 5.6775,-6.5519 6.6359,-6.9114 2.538,-0.9523 5.9887,-2.0274 6.507,-2.0274 1.0017,0 2.6836,7.0989 2.2421,9.4632 -1.5787,8.454 -14.9427,29.0118 -25.0651,38.5573 -9.6447,9.0952 -17.7147,12.8673 -30.0253,14.0346 -7.6905,0.7293 -7.9832,0.7287 -15.2055,-0.034 z m -115.9692,-30.3563 c 13.077,-2.2804 29.0113,-10.118 45.5079,-22.3839 7.4715,-5.5553 19.0552,-15.3591 22.4224,-18.9771 l 1.9952,-2.1437 0.7184,-15.04 c 1.8333,-38.3859 2.1853,-54.6482 1.4807,-68.4024 -0.3854,-7.5253 -0.8627,-13.8443 -1.0606,-14.0422 -0.6761,-0.676 -14.0744,5.1396 -26.8888,11.6713 -28.0444,14.2947 -49.3661,29.7511 -63.7499,46.2133 -11.7875,13.4907 -18.8766,25.0148 -21.9979,35.76 -2.8768,9.9035 -2.2155,20.9516 1.7228,28.7807 4.7715,9.4854 14.4457,16.6698 25.0338,18.5907 6.177,1.1208 8.2576,1.117 14.816,-0.027 z M 482.18241,534.4944 c -17.0215,-1.947 -31.8484,-9.1646 -42.1045,-20.4959 -14.7988,-16.3503 -16.1789,-29.5971 -14.5642,-139.7997 0.7544,-51.4916 0.3367,-114.8096 -0.7647,-115.911 -0.5764,-0.5765 -17.8293,-0.3811 -32.05687,0.3629 -12.69613,0.664 -15.41344,0.1975 -17.08922,-2.9337 -1.1006,-2.0565 -0.95168,-6.0144 0.31872,-8.4712 1.3426,-2.5962 3.5792,-4.0691 12.3689,-8.1452 11.62247,-5.3898 14.08927,-6.7215 19.30627,-10.422 16.4843,-11.693 30.7365,-27.7395 37.8715,-42.6398 2.9178,-6.0936 10.2113,-23.5874 18.0864,-43.3814 l 0.7088,-1.7814 6.0916,0.1814 6.0916,0.1814 0.5694,8.64 c 0.3132,4.752 0.5651,24.0199 0.5597,42.8176 l -0.01,34.1775 18.0004,-0.3949 c 9.9001,-0.2173 22.8962,-0.738 28.8802,-1.1574 11.1076,-0.7783 58.7808,-1.1865 59.464,-0.509 0.7875,0.7809 0.6652,16.451 -0.1674,21.4511 -0.4749,2.8516 -1.0509,5.4837 -1.28,5.8489 -0.3847,0.6133 -17.1597,1.272 -84.8075,3.3301 -10.1591,0.3092 -18.7437,0.8347 -19.0771,1.168 -0.3333,0.3333 -1.0078,2.159 -1.4989,4.0571 -2.077,8.027 -2.2912,14.0937 -1.5971,45.2439 0.3741,16.7899 0.6,58.6071 0.5021,92.9271 -0.1881,65.928 -0.1891,65.9007 2.8069,79.04 3.7377,16.3915 13.0086,26.4624 27.095,29.433 9.1339,1.9261 19.6016,1.0402 41.4875,-3.5111 11.2858,-2.347 14.4819,-3.6807 23.9838,-10.0084 6.86,-4.5683 7.3691,-4.7946 9.92,-4.4083 5.3421,0.8092 7.4887,3.0788 7.4887,7.9179 0,2.3671 -0.4018,2.9087 -6.3616,8.5756 -13.6882,13.0151 -29.9881,21.5373 -48.5497,25.3837 -14.0926,2.9203 -40.1533,4.5509 -51.673,3.2332 z m 673.82469,-6.8539 -9.0796,-0.1964 -1.0796,-3.6627 c -1.3439,-4.5592 -1.3178,-6.6337 0.1136,-9.0569 2.0503,-3.471 12.6126,-6.2919 30.0052,-8.0139 12.6536,-1.2526 15.6288,-1.896 20.4326,-4.4187 5.9574,-3.1283 7.5649,-5.0476 9.6536,-11.5255 l 1.8289,-5.6723 -0.8752,-13.2077 c -0.6391,-9.6452 -0.913,-32.369 -1.0154,-84.2476 -0.077,-39.072 -0.3338,-73.344 -0.5705,-76.16 -1.6598,-19.7465 -7.436,-36.8189 -15.9485,-47.139 -6.7238,-8.1516 -20.3106,-16.5827 -31.7455,-19.6993 -16.4545,-4.4846 -37.1126,-4.2717 -55.9151,0.5764 -22.1824,5.7195 -45.1179,18.9972 -65.1819,37.7347 l -4.854,4.5332 -0.2951,11.037 c -0.3587,13.4214 0.5728,112.9006 1.4458,154.397 0.6492,30.8584 1.165,37.7388 3.1711,42.3051 1.4152,3.2213 4.4488,4.8448 12.6016,6.7438 3.1172,0.7261 11.5716,2.9088 18.7876,4.8504 7.216,1.9416 15.2623,4.077 17.8806,4.7453 5.8333,1.4889 9.7483,3.7049 11.4715,6.4932 1.0782,1.7445 1.2365,2.7589 0.9157,5.8673 l -0.3879,3.7581 -59.2599,-0.5632 c -32.593,-0.3097 -71.26351,-0.4598 -85.93451,-0.3335 l -26.6745,0.2296 -0.4495,-2.3964 c -0.4305,-2.2945 0.043,-9.8373 0.6555,-10.4501 0.6462,-0.6461 10.9514,-2.8142 23.383,-4.9195 24.5915,-4.1644 29.1897,-6.0718 31.6845,-13.1429 2.7356,-7.7536 3.303,-30.9814 2.7715,-113.4578 -0.2757,-42.7902 -0.6764,-67.6877 -1.1461,-71.2171 -1.1891,-8.9361 -2.8709,-13.4143 -6.3405,-16.8839 -5.5562,-5.5562 -15.9241,-10.1429 -28.9659,-12.8143 -3.6539,-0.7485 -7.2915,-1.4954 -8.0835,-1.6597 -1.3859,-0.2876 -1.44,-0.5583 -1.44,-7.2018 v -6.903 l 10.1766,-3.3692 c 11.7796,-3.8999 22.676,-9.1478 30.1804,-14.5355 14.2049,-10.1981 28.67111,-27.2532 38.36011,-45.2249 l 2.6741,-4.96 h 6.5972 6.5971 l 0.3666,2.72 c 0.2016,1.496 0.5326,13.808 0.7355,27.36 0.2028,13.552 0.5173,25.5979 0.6987,26.7686 l 0.3299,2.1286 1.7219,-1.1167 c 0.9471,-0.6142 5.0213,-3.5647 9.0539,-6.5565 27.6845,-20.5401 57.8779,-35.3946 87.388,-42.993 13.3642,-3.441 18.153,-4.0605 31.36,-4.0571 17.4142,0.01 28.6465,2.4464 42.24,9.1828 21.833,10.8196 38.2662,30.0225 43.5443,50.8833 1.942,7.6756 3.7553,21.4387 4.8906,37.12 0.8464,11.6923 1.1419,91.9517 0.5583,151.68 -0.3437,35.1818 0.2899,40.781 5.1705,45.6879 4.9279,4.9546 5.6278,5.2479 17.0516,7.1453 17.0924,2.8389 28.829,6.2461 32.2829,9.3719 1.4809,1.3401 1.5192,6.2451 0.084,10.797 l -1.0574,3.3547 -23.1026,-0.2717 c -12.7063,-0.1493 -25.1185,-0.3812 -27.5825,-0.5153 -2.464,-0.1341 -20.896,0.1511 -40.96,0.6337 -34.9638,0.8411 -40.4622,0.8806 -60.9196,0.4382 z m 903.5509,-1.5124 c -1.2261,-3.5169 -0.5557,-7.0889 1.9404,-10.3404 0.8766,-1.142 21.3873,-5.4872 46.3083,-9.8106 l 10.24,-1.7765 2.634,-2.6825 c 2.9264,-2.9801 3.189,-3.8697 4.0896,-13.8587 1.3611,-15.0967 0.2672,-160.829 -1.3183,-175.6188 -0.801,-7.4717 -2.4815,-14.9273 -4.1636,-18.4721 -3.0201,-6.3644 -9.2374,-8.9192 -30.3617,-12.4763 -6.16,-1.0372 -13.4674,-2.5153 -16.2387,-3.2845 l -5.0386,-1.3986 0.4164,-4.2252 c 0.8373,-8.4941 0.221,-7.6895 8.5871,-11.2109 18.2358,-7.6758 34.8883,-16.3808 43.6338,-22.8092 11.1028,-8.1613 24.3449,-24.8703 33.6311,-42.4358 l 3.6746,-6.9506 6.2752,0.252 c 3.4513,0.1386 6.4158,0.3927 6.5878,0.5647 0.9496,0.9497 1.7969,24.7184 2.109,59.1647 0.1946,21.472 0.5546,39.4133 0.8001,39.8697 0.2927,0.5441 1.0544,-0.2873 2.2124,-2.415 3.0539,-5.6111 13.2994,-20.5703 18.606,-27.1664 12.4456,-15.4695 31.9386,-35.0282 39.0638,-39.1954 7.3757,-4.3137 18.1944,-9.5326 24.3223,-11.7329 23.166,-8.3183 46.6972,4.8531 51.2582,28.6913 2.877,15.0364 -1.6822,26.6907 -13.1805,33.6926 -5.4326,3.3082 -10.6529,4.8161 -16.6732,4.8161 -6.2458,0 -11.4938,-1.2681 -25.266,-6.1051 -19.4591,-6.8342 -26.6433,-7.9894 -35.0376,-5.6341 -6.182,1.7346 -13.1945,9.0167 -23.3347,24.232 -13.1253,19.6945 -18.4931,31.5715 -19.9524,44.1472 -0.3005,2.5888 -0.1471,15.9622 0.3633,31.68 0.4857,14.96 1.1536,48.224 1.4842,73.92 0.3306,25.696 0.7749,47.584 0.9874,48.64 2.217,11.0174 2.229,11.051 4.7702,13.3468 4.5773,4.1353 4.3067,4.0686 23.6474,5.8319 10.0038,0.9121 21.3798,2.0725 25.28,2.5788 3.9003,0.5063 11.1234,1.2409 16.0514,1.6325 16.2291,1.2895 23.3848,3.6817 25.1736,8.4155 0.8171,2.1625 0.7761,2.609 -0.4777,5.1991 l -1.3717,2.8334 -64.4621,-0.079 c -38.417,-0.047 -74.2883,0.2334 -88.7821,0.6943 -13.376,0.4254 -31.8479,0.9406 -41.0487,1.1449 l -16.7288,0.3715 z"
     id="path1931"
     inkscape:connector-curvature="0" />
</svg>
