<?xml version="1.0" encoding="UTF-8" standalone="no"?>
<svg
   xmlns:dc="http://purl.org/dc/elements/1.1/"
   xmlns:cc="http://creativecommons.org/ns#"
   xmlns:rdf="http://www.w3.org/1999/02/22-rdf-syntax-ns#"
   xmlns:svg="http://www.w3.org/2000/svg"
   xmlns="http://www.w3.org/2000/svg"
   xmlns:sodipodi="http://sodipodi.sourceforge.net/DTD/sodipodi-0.dtd"
   xmlns:inkscape="http://www.inkscape.org/namespaces/inkscape"
   height="30"
   viewBox="0 0 30 30"
   width="30"
   version="1.1"
   id="svg857"
   sodipodi:docname="nba-logo-white.svg"
   inkscape:version="1.0 (4035a4fb49, 2020-05-01)">
  <metadata
     id="metadata863">
    <rdf:RDF>
      <cc:Work
         rdf:about="">
        <dc:format>image/svg+xml</dc:format>
        <dc:type
           rdf:resource="http://purl.org/dc/dcmitype/StillImage" />
        <dc:title />
      </cc:Work>
    </rdf:RDF>
  </metadata>
  <defs
     id="defs861">
    <clipPath
       clipPathUnits="userSpaceOnUse"
       id="clipPath889">
      <rect
         style="fill:#ffffff;stroke-width:0.45312;stroke-linejoin:round"
         id="rect891"
         width="37.041065"
         height="36.671429"
         x="-6.134819"
         y="35.700001" />
    </clipPath>
    <clipPath
       clipPathUnits="userSpaceOnUse"
       id="clipPath895">
      <rect
         style="fill:#ffffff;stroke-width:0.35;stroke-linejoin:round"
         id="rect897"
         width="16.392857"
         height="34.728573"
         x="-1.0928571"
         y="-1.2142857" />
    </clipPath>
  </defs>
  <sodipodi:namedview
     inkscape:document-rotation="0"
     pagecolor="#8a8a8a"
     bordercolor="#666666"
     borderopacity="1"
     objecttolerance="10"
     gridtolerance="10"
     guidetolerance="10"
     inkscape:pageopacity="0"
     inkscape:pageshadow="2"
     inkscape:window-width="1815"
     inkscape:window-height="1051"
     id="namedview859"
     showgrid="false"
     inkscape:pagecheckerboard="false"
     inkscape:snap-global="false"
     inkscape:zoom="8.2352941"
     inkscape:cx="13.230992"
     inkscape:cy="22.006679"
     inkscape:window-x="96"
     inkscape:window-y="-9"
     inkscape:window-maximized="1"
     inkscape:current-layer="g929" />
  <g
     id="g929"
     transform="translate(6.0698905,-1.7523905)">
    <g
       id="g842">
      <path
         style="fill-rule:evenodd;fill:#000000"
         id="path849"
         fill="#fffffe"
         d="m 21.182857,29.438857 h -3.35 V 0.97285716 h 5.184 l 3.468,23.48199984 c -0.518,-5.581 -1.196,-14.5919998 -1.196,-19.3359998 V 0.97285716 h 3.349 V 29.438857 h -4.745 l -3.19,-22.8059998 c 0.28,5.1029998 0.479,11.2029998 0.479,14.6319998 v 8.173 m 9.37,10e-4 V 0.97285716 h 4.744 c 3.15,0 5.103,1.71400004 5.103,5.70100004 v 4.1859998 c 0,2.592 -0.798,3.907 -1.914,4.585 1.116,0.718 1.914,1.993 1.914,4.186 v 4.146 c 0,3.907 -2.073,5.662 -5.103,5.662 z m 3.827,-24.8779998 v 9.4089998 h 0.478 c 1.356,0 1.715,-0.518 1.715,-2.073 V 6.4748572 c 0,-1.316 -0.399,-1.914 -1.555,-1.914 z m 0,12.5189998 v 8.77 h 0.638 c 1.196,0 1.555,-0.677 1.555,-2.033 v -4.824 c 0,-1.395 -0.44,-1.913 -1.715,-1.913 z m 13.192,7.016 h -2.392 l -0.32,5.343 h -3.866 l 2.79,-28.46599984 h 5.422 l 2.712,28.46599984 h -4.027 l -0.32,-5.343 z m -2.233,-3.229 h 2.034 l -0.32,-5.223 c -0.119,-2.073 -0.438,-8.6509998 -0.677,-12.1999998 h -0.16 l -0.558,12.1999998 z m -34.14,-20.62399984 h -7.007 a 3.1,3.1 0 0 0 -3.098,3.09800004 V 27.068857 a 3.103,3.103 0 0 0 3.098,3.102 h 7.002 a 3.109,3.109 0 0 0 3.105,-3.102 V 3.3408572 a 3.103,3.103 0 0 0 -3.1,-3.09800004"
         clip-path="url(#clipPath895)"
         transform="matrix(0.89671656,0,0,0.89671656,1.5802366,3.1161499)" />
      <path
         style="fill-rule:evenodd;stroke-width:0.896717;fill:#ffffff"
         id="path851"
         fill="#b52532"
         d="m 10.063047,8.253311 0.0063,0.091465 c 0.191897,0.1111929 0.288743,0.202658 0.482434,0.3264048 0.512025,0.322818 1.143313,0.8967166 1.063505,2.8721832 0.143475,0.430424 0.207142,1.276924 0.340753,1.548629 0.266325,0.529063 0.444771,0.873402 0.522785,1.372873 0,0 0.07622,0.777454 0.176654,0.833947 0.529959,0.12016 0.376621,0.172169 0.454635,0.262738 0.0825,0.106709 0.388278,0.101329 0.388278,0.386485 0.105813,0.141681 0.184724,0.289639 0.243907,0.442978 V 6.1119519 A 2.1252182,2.1252182 0 0 0 11.62154,3.988527 H 9.5913741 c 0.3264048,0.1165732 0.5111289,0.2528741 0.6178379,0.4698795 0.261841,0.022418 0.573898,0.6097673 0.08788,1.4786856 0.215212,0.1434747 0.04753,0.3568932 -0.106709,0.6052837 -0.04484,0.079808 -0.09416,0.221489 -0.2385268,0.2116251 C 9.7680273,7.1422792 9.5447449,7.5180034 9.3770589,7.5413181 9.325946,7.6040882 9.2891806,7.7708775 9.3654015,7.8497886 9.6128953,7.9600847 9.9141921,8.1125265 10.063047,8.253311 m 3.679228,9.530303 a 1.8920719,1.8920719 0 0 1 -1.762048,1.192633 1.8920719,1.8920719 0 0 1 -1.892969,-1.892071 c 0,-0.892233 0.613355,-1.640992 1.446404,-1.84096 -0.217902,-0.546997 -0.678814,-1.432056 -0.816012,-1.721695 -0.129127,-0.288743 -0.441184,-2.08935 -0.508438,-2.445346 -0.01524,-0.07801 -0.816909,0.465396 -0.8187024,0.498574 -0.046629,0.04484 -0.6008001,1.49393 -0.6241147,1.571944 -0.011657,0.04932 -0.012554,0.242114 -0.012554,0.242114 0,0 0.2726019,0.03407 0.4295273,0.510231 0.1551319,0.47526 0.6277016,2.208613 0.6277016,2.208613 0,0 -0.1273338,0.132714 -0.1327141,0.125541 0.5981103,2.001471 0.3891753,2.863215 0.6572933,3.450565 0.337165,0.826773 0.42863,0.71827 0.717373,1.414122 0.208038,0.506645 0.439391,2.500046 0.516509,2.587924 0.322818,0.409799 0.496781,0.72903 0.496781,0.959487 0,0.233146 -0.273499,0.919134 -0.173963,1.31907 0.06098,0.235836 0.09236,0.762209 0.201761,0.862641 0,0 0.100432,0.198174 0.05111,0.286949 -0.01435,0.02959 -0.04304,0.07532 -0.02959,0.11209 0.17755,0.627701 0.753242,1.700174 -0.178446,2.261519 h 0.01973 a 2.1099741,2.1099741 0 0 0 1.785363,-2.098317 z" />
      <path
         style="fill-rule:evenodd;stroke-width:0.896717;fill:#ffffff"
         id="path853"
         fill="#253b73"
         d="M 11.351629,26.981236 C 11.010876,26.676353 11.238642,26.548122 11.224295,26.427962 11.000116,25.498067 10.261221,24.935826 10.643223,24.629149 10.549067,24.322472 10.35717,23.936883 10.364344,23.93778 9.2138564,23.2769 8.2337452,22.20353 8.0678527,22.045708 7.8660915,21.826909 7.5217523,21.606317 7.4580854,21.428767 7.181,21.174996 5.8251646,19.251539 5.5095203,18.543133 L 4.9589364,18.465119 C 4.7078557,17.442862 3.8721159,16.584704 3.8514914,15.559757 3.8443177,15.171479 4.0272479,14.34112 4.0953983,14.176124 4.1626521,14.007541 4.4827799,13.732249 4.4827799,13.732249 V 13.457854 C 3.2820764,13.491929 3.6273123,13.369079 3.4210675,12.901889 3.2757994,12.579072 3.3798185,12.507334 3.4318281,12.283155 3.593237,11.622275 4.1285768,10.601812 4.3491691,10.138209 4.4173196,9.9041662 4.6486724,9.3401315 4.6486724,9.3401315 5.5435956,7.5180034 5.8780708,7.6516142 6.94068,7.5484918 L 6.992689,7.4731678 C 8.0579888,7.4265384 7.8831291,7.3467306 8.0328807,6.3208868 7.8786455,6.3872439 7.8320162,5.9989656 7.8320162,5.9989656 7.7477249,5.4160998 7.9934252,5.526396 8.1099984,5.5147386 8.1360031,4.5552519 8.2337452,4.2521617 8.9260104,3.9876303 H 5.3391442 A 2.1243215,2.1243215 0 0 0 3.2148227,6.1137453 V 27.390139 c 0,1.173802 0.9505195,2.125218 2.1252182,2.125218 H 11.62154 c -0.719166,-0.389175 -0.294123,-1.128966 -0.269911,-2.533224" />
      <path
         d="m -0.8898577,68.753429 h -3.35 v -28.466 h 5.184 l 3.468,23.482 c -0.518,-5.581 -1.196,-14.592 -1.196,-19.336 v -4.146 h 3.349 v 28.466 h -4.745 l -3.19,-22.806 c 0.28,5.103 0.479,11.203 0.479,14.632 v 8.173 m 9.37,10e-4 v -28.466 h 4.7439997 c 3.15,0 5.103,1.714 5.103,5.701 v 4.186 c 0,2.592 -0.798,3.907 -1.914,4.585 1.116,0.718 1.914,1.993 1.914,4.186 v 4.146 c 0,3.907 -2.073,5.662 -5.103,5.662 z m 3.8269997,-24.878 v 9.409 h 0.478 c 1.356,0 1.715,-0.518 1.715,-2.073 v -5.422 c 0,-1.316 -0.399,-1.914 -1.555,-1.914 z m 0,12.519 v 8.77 h 0.638 c 1.196,0 1.555,-0.677 1.555,-2.033 v -4.824 c 0,-1.395 -0.44,-1.913 -1.715,-1.913 z m 13.192,7.016 h -2.392 l -0.32,5.343 h -3.866 l 2.79,-28.466 h 5.422 l 2.712,28.466 h -4.027 l -0.32,-5.343 z m -2.233,-3.229 h 2.034 l -0.32,-5.223 c -0.119,-2.073 -0.438,-8.651 -0.677,-12.2 h -0.16 l -0.558,12.2 z m -34.14,-20.624 h -7.007 a 3.1,3.1 0 0 0 -3.097999,3.098 v 23.728 a 3.103,3.103 0 0 0 3.097999,3.102 h 7.002 a 3.109,3.109 0 0 0 3.1050003,-3.102 v -23.728 a 3.103,3.103 0 0 0 -3.1000003,-3.098"
         fill="#fffffe"
         id="path849-5"
         style="fill-rule:evenodd;fill:#000000"
         clip-path="url(#clipPath889)"
         transform="matrix(0.18281531,0,0,0.10928508,4.9873876,20.462648)" />
    </g>
  </g>
</svg>
