<?xml version="1.0" encoding="UTF-8" standalone="no"?>
<svg
   xmlns:dc="http://purl.org/dc/elements/1.1/"
   xmlns:cc="http://creativecommons.org/ns#"
   xmlns:rdf="http://www.w3.org/1999/02/22-rdf-syntax-ns#"
   xmlns:svg="http://www.w3.org/2000/svg"
   xmlns="http://www.w3.org/2000/svg"
   xmlns:sodipodi="http://sodipodi.sourceforge.net/DTD/sodipodi-0.dtd"
   xmlns:inkscape="http://www.inkscape.org/namespaces/inkscape"
   inkscape:version="1.0 (4035a4fb49, 2020-05-01)"
   sodipodi:docname="chess-rules-invert-a9a9a9.svg"
   viewBox="0 0 150.18004 150.00001"
   height="150"
   width="150.18004"
   id="svg3254"
   version="1.1">
  <metadata
     id="metadata3260">
    <rdf:RDF>
      <cc:Work
         rdf:about="">
        <dc:format>image/svg+xml</dc:format>
        <dc:type
           rdf:resource="http://purl.org/dc/dcmitype/StillImage" />
        <dc:title />
      </cc:Work>
    </rdf:RDF>
  </metadata>
  <defs
     id="defs3258" />
  <sodipodi:namedview
     inkscape:current-layer="g3262"
     inkscape:window-maximized="1"
     inkscape:window-y="-9"
     inkscape:window-x="-9"
     inkscape:cy="92.528224"
     inkscape:cx="71.483211"
     inkscape:zoom="3.5507102"
     showgrid="false"
     id="namedview3256"
     inkscape:window-height="1001"
     inkscape:window-width="1920"
     inkscape:pageshadow="2"
     inkscape:pageopacity="0"
     guidetolerance="10"
     gridtolerance="10"
     objecttolerance="10"
     borderopacity="1"
     bordercolor="#666666"
     pagecolor="#ffffff"
     inkscape:document-rotation="0"
     units="px"
     fit-margin-top="0"
     fit-margin-left="0"
     fit-margin-right="0"
     fit-margin-bottom="0" />
  <g
     id="g3262"
     inkscape:label="Image"
     inkscape:groupmode="layer"
     transform="translate(-65.621299,-31.349319)">
    <path
       id="path3827"
       d="m 109.83353,181.043 c -14.276598,-0.30349 -19.082774,-0.85621 -19.944009,-2.29363 -0.869477,-1.45119 0.801829,-9.80302 3.30411,-16.51122 4.690349,-12.5741 12.505259,-24.81118 17.873369,-27.98725 0.91481,-0.54126 2.37536,-1.07948 3.24567,-1.19605 2.0281,-0.27167 4.20952,-1.51854 7.66798,-4.38289 4.35886,-3.6101 7.22477,-4.66798 13.99309,-5.1652 7.15083,-0.52533 12.82429,-2.30629 18.48798,-5.80358 2.96641,-1.83175 7.22132,-5.5225 9.17538,-7.95883 1.92193,-2.39625 4.0196,-6.27498 4.93524,-9.12554 0.70645,-2.199314 0.80989,-3.287312 0.81712,-8.594163 0.008,-6.20547 -0.0945,-6.683835 -1.44009,-6.691849 -0.19915,-0.0013 -2.18716,3.234973 -4.41781,7.191462 -4.76279,8.44778 -7.54993,12.36297 -10.98551,15.43175 -6.21271,5.54944 -13.44096,7.54571 -28.77197,7.94614 -17.73046,0.46314 -18.22137,0.66587 -28.65917,11.83609 l -2.911585,3.11587 -8.655861,-4.66923 c -4.760723,-2.56809 -8.889284,-4.79139 -9.174581,-4.94068 -0.395476,-0.20694 -0.104257,-0.5295 1.225698,-1.35756 7.402199,-4.60879 8.369228,-5.53904 7.509704,-7.22408 -0.517541,-1.01462 -3.855789,-2.10961 -6.431431,-2.10961 -2.405649,0 -3.963446,0.54192 -5.818801,2.02422 -1.450398,1.15876 -2.710567,1.85698 -3.351512,1.85698 -0.204529,0 -0.644856,-0.76411 -0.978505,-1.69802 -0.498405,-1.3951 -0.633403,-3.51569 -0.756685,-11.88622 L 65.621299,90.661717 72.602354,86.457069 C 89.794204,76.102511 100.65728,69.055472 108.5662,63.12678 c 5.31395,-3.983444 11.22427,-7.871943 19.21079,-12.639095 10.1195,-6.040327 15.55009,-10.301083 19.99979,-15.691509 3.11978,-3.779339 4.00384,-4.178293 5.56275,-2.510326 0.55264,0.59129 1.75935,2.760746 2.6816,4.821012 3.36091,7.508164 7.52223,11.516151 19.17009,18.463722 10.40995,6.209188 19.44087,14.073383 25.59071,22.284571 4.57035,6.102261 7.28888,11.782998 8.42589,17.60702 1.40997,7.222195 2.36758,20.648365 2.37969,33.364815 0.0134,14.01689 0.89491,33.75278 1.82756,40.91448 0.30377,2.33262 1.7828,9.22035 2.37874,11.07763 0.17237,0.53719 -2.23856,0.56328 -47.36742,0.51233 -26.15198,-0.0296 -52.51876,-0.15932 -58.59286,-0.28843 z"
       style="fill:#a9a9a9;stroke-width:0.34222;fill-opacity:1" />
  </g>
</svg>
