<?xml version="1.0" encoding="UTF-8" standalone="no"?>
<svg
   xmlns:dc="http://purl.org/dc/elements/1.1/"
   xmlns:cc="http://creativecommons.org/ns#"
   xmlns:rdf="http://www.w3.org/1999/02/22-rdf-syntax-ns#"
   xmlns:svg="http://www.w3.org/2000/svg"
   xmlns="http://www.w3.org/2000/svg"
   xmlns:sodipodi="http://sodipodi.sourceforge.net/DTD/sodipodi-0.dtd"
   xmlns:inkscape="http://www.inkscape.org/namespaces/inkscape"
   version="1.1"
   id="svg2632"
   width="150"
   height="150"
   viewBox="0 0 150.00001 150.00002"
   sodipodi:docname="council-rules-invert-707070.svg"
   inkscape:version="1.0 (4035a4fb49, 2020-05-01)">
  <metadata
     id="metadata2638">
    <rdf:RDF>
      <cc:Work
         rdf:about="">
        <dc:format>image/svg+xml</dc:format>
        <dc:type
           rdf:resource="http://purl.org/dc/dcmitype/StillImage" />
        <dc:title />
      </cc:Work>
    </rdf:RDF>
  </metadata>
  <defs
     id="defs2636" />
  <sodipodi:namedview
     fit-margin-bottom="0"
     fit-margin-right="0"
     fit-margin-left="0"
     fit-margin-top="0"
     units="px"
     inkscape:document-rotation="0"
     pagecolor="#ffffff"
     bordercolor="#666666"
     borderopacity="1"
     objecttolerance="10"
     gridtolerance="10"
     guidetolerance="10"
     inkscape:pageopacity="0"
     inkscape:pageshadow="2"
     inkscape:window-width="1920"
     inkscape:window-height="1001"
     id="namedview2634"
     showgrid="false"
     inkscape:zoom="1.7753551"
     inkscape:cx="185.84222"
     inkscape:cy="125.52855"
     inkscape:window-x="-9"
     inkscape:window-y="-9"
     inkscape:window-maximized="1"
     inkscape:current-layer="g2640" />
  <g
     transform="translate(-29.696732,-28.841371)"
     inkscape:groupmode="layer"
     inkscape:label="Image"
     id="g2640">
    <path
       style="fill:#707070;stroke-width:0.325029;fill-opacity:1"
       d="m 83.03153,178.5909 c -20.691498,-0.20985 -24.271025,-0.3942 -27.30783,-1.40637 -1.141376,-0.38042 -1.16102,-0.41698 -1.257863,-2.34037 -0.1211,-2.4051 0.788032,-8.92224 2.695936,-19.32588 0.798309,-4.35311 1.408934,-8.16988 1.356948,-8.48172 -0.052,-0.31184 -3.018287,-3.79294 -6.59177,-7.73579 -10.177604,-11.22959 -13.852504,-16.28073 -17.640683,-24.24706 -3.459325,-7.27479 -4.853729,-13.36584 -4.548745,-19.869896 0.223076,-4.757261 1.064422,-8.09471 3.104789,-12.31605 1.987504,-4.111967 3.990923,-6.817005 7.808502,-10.543121 7.242644,-7.069115 14.645141,-10.305532 23.563341,-10.302034 3.744477,0.0012 6.79111,0.514521 9.768623,1.645032 2.576037,0.978079 3.896378,1.828456 8.083757,5.206403 2.03453,1.641246 3.872131,2.919584 4.083561,2.840749 0.928894,-0.346349 8.215613,-6.564481 9.839079,-8.396191 2.960809,-3.340589 5.055575,-8.537989 5.055575,-12.543567 0,-3.651069 -1.816348,-6.572736 -4.335599,-6.973993 -0.622989,-0.09923 -1.661104,-0.265179 -2.306927,-0.368779 -1.272341,-0.204108 -3.007417,-1.706019 -3.007417,-2.603271 0,-0.298744 0.408877,-0.960642 0.908611,-1.470884 0.73961,-0.755161 1.302684,-0.970803 3.027315,-1.15938 3.705449,-0.405161 4.956937,-1.67264 5.415897,-5.485072 0.37693,-3.130973 1.1011,-3.872285 3.78279,-3.872285 1.13114,0 2.11119,0.193599 2.54288,0.502325 0.7646,0.546815 1.36611,2.317492 1.36894,4.029869 0.004,2.56717 1.66788,4.2354 4.70199,4.71498 1.21858,0.192611 2.62112,0.563214 3.11676,0.823559 2.32497,1.221226 1.33244,4.075645 -1.57713,4.53568 -0.60126,0.09507 -1.63469,0.260118 -2.29652,0.366787 -1.78268,0.287312 -3.457,2.221199 -3.97696,4.593501 -0.77295,3.526496 0.46654,8.599913 3.15911,12.930722 0.62347,1.00281 3.01055,3.764403 5.30464,6.136867 l 4.17107,4.31357 4.57131,-2.878747 c 5.70544,-3.592945 7.0901,-4.307854 10.41775,-5.378735 11.35618,-3.654583 24.93293,0.346838 34.03049,10.029672 5.16844,5.500943 8.14757,11.380932 9.33964,18.433843 1.07919,6.385055 -0.82051,14.484806 -5.67955,24.215886 -4.09891,8.2088 -8.42587,14.01633 -17.6882,23.74065 l -6.17719,6.4853 0.21474,1.37123 c 0.11812,0.75417 1.22706,6.08548 2.46432,11.84736 2.4507,11.41277 2.74323,14.14263 1.6724,15.60704 -2.64201,3.6131 -9.85086,3.95016 -71.17838,3.32817 z"
       id="path3205" />
  </g>
</svg>
