<?xml version="1.0" encoding="UTF-8" standalone="no"?>
<svg
   xmlns:dc="http://purl.org/dc/elements/1.1/"
   xmlns:cc="http://creativecommons.org/ns#"
   xmlns:rdf="http://www.w3.org/1999/02/22-rdf-syntax-ns#"
   xmlns:svg="http://www.w3.org/2000/svg"
   xmlns="http://www.w3.org/2000/svg"
   xmlns:sodipodi="http://sodipodi.sourceforge.net/DTD/sodipodi-0.dtd"
   xmlns:inkscape="http://www.inkscape.org/namespaces/inkscape"
   width="150.00014mm"
   height="149.99963mm"
   viewBox="0 0 150.00014 149.99963"
   version="1.1"
   id="svg8"
   inkscape:version="1.0 (4035a4fb49, 2020-05-01)"
   sodipodi:docname="my pieces.svg">
  <defs
     id="defs2" />
  <sodipodi:namedview
     fit-margin-bottom="0"
     fit-margin-right="0"
     fit-margin-left="0"
     fit-margin-top="0"
     id="base"
     pagecolor="#ffffff"
     bordercolor="#666666"
     borderopacity="1.0"
     inkscape:pageopacity="0.0"
     inkscape:pageshadow="2"
     inkscape:zoom="0.49469825"
     inkscape:cx="-359.30449"
     inkscape:cy="211.81804"
     inkscape:document-units="mm"
     inkscape:current-layer="g32"
     inkscape:document-rotation="0"
     showgrid="false"
     inkscape:window-width="1920"
     inkscape:window-height="1001"
     inkscape:window-x="-9"
     inkscape:window-y="-9"
     inkscape:window-maximized="1" />
  <metadata
     id="metadata5">
    <rdf:RDF>
      <cc:Work
         rdf:about="">
        <dc:format>image/svg+xml</dc:format>
        <dc:type
           rdf:resource="http://purl.org/dc/dcmitype/StillImage" />
        <dc:title></dc:title>
      </cc:Work>
    </rdf:RDF>
  </metadata>
  <g
     transform="translate(-0.50347758,0.1032244)"
     inkscape:label="Layer 1"
     inkscape:groupmode="layer"
     id="layer1">
    <g
       id="g32">
      <path
         d="M 0.50347758,-0.1032244 V 149.89641 H 150.50362 V -0.1032244 Z M 75.649798,10.905923 c 1.71063,-0.0081 3.53412,0.371675 5.3542,1.20096 5.335,2.430792 6.7976,11.279851 2.56418,15.513265 -1.26754,1.267537 -1.92507,2.571578 -1.46089,2.898013 14.28867,10.048639 24.431772,19.310785 28.213772,25.764325 6.79479,11.59438 6.22062,19.84273 -2.23602,32.13653 -6.8215,9.9167 -7.39186,13.248294 -3.75224,21.907194 1.2109,2.88078 0.34528,3.40858 -5.592422,3.40858 -3.86366,0 -7.02489,0.89807 -7.02489,1.99574 0,3.43694 9.472412,5.79397 23.281792,5.79397 14.87244,0 20.44211,2.99803 22.61412,12.17238 l 1.26762,5.35626 h -21.73097 c -11.51885,0 -18.873082,-0.43353 -24.222302,-1.92856 a 11.187495,8.5001131 8.1825022 0 1 -3.35845,-1.18701 c -3.75785,-1.66177 -6.4767,-4.14741 -9.36532,-7.81968 l -4.06694,-5.17074 -4.06693,5.17074 c -7.17701,9.12411 -13.29638,10.93525 -36.94607,10.93525 h -21.73149 l 1.26814,-5.35626 c 2.17199,-9.17435 7.74169,-12.17238 22.61412,-12.17238 8.09947,0 14.70289,-0.81198 18.78232,-2.1761 a 6.9689561,21.963279 60.357517 0 1 3.41633,-1.71204 c 0.70478,-0.58664 1.08314,-1.22437 1.08314,-1.90583 0,-1.09767 -3.16124,-1.99574 -7.0249,-1.99574 -5.93769,0 -6.8033,-0.5278 -5.59242,-3.40858 3.63964,-8.6589 3.06926,-11.990494 -3.75223,-21.907194 -8.84242,-12.85463 -9.19736,-21.09585 -1.43557,-33.33491 3.06109,-4.82685 10.29126,-12.174595 16.06724,-16.328204 5.77597,-4.15362 10.88192,-7.839271 11.34608,-8.19123 0.46417,-0.351962 -0.19337,-1.676987 -1.4609,-2.944524 -1.26754,-1.26754 -2.30476,-4.777316 -2.30476,-7.799524 0,-5.371195 4.12072,-8.890251 9.25266,-8.914701 z m -4.39043,106.292227 -0.16175,0.11006 a 7.5153733,8.5343147 35.216816 0 1 0.13643,0.15607 c 0.009,-0.0893 0.0203,-0.17873 0.0253,-0.26613 z m 16.29203,1.78283 -1.70687,0.0527 h 1.75648 c -0.0164,-0.0174 -0.0332,-0.0354 -0.0496,-0.0527 z m 7.84913,8.708 -0.0191,0.1049 0.0393,0.004 0.0233,-0.10387 z m 10.893392,1.32757 a 11.187495,8.5001131 8.1825022 0 1 0.002,0.0191 l 2.33786,0.26614 -2.33939,-0.28525 z m -65.124702,1.65571 -3.11764,0.0294 h 3.09387 a 6.9689561,21.963279 60.357517 0 1 0.0238,-0.0294 z"
         style="fill:#000000;stroke-width:0.618876"
         id="rect52" />
    </g>
  </g>
</svg>
