<?xml version="1.0" encoding="UTF-8" standalone="no"?>
<svg
   xmlns:dc="http://purl.org/dc/elements/1.1/"
   xmlns:cc="http://creativecommons.org/ns#"
   xmlns:rdf="http://www.w3.org/1999/02/22-rdf-syntax-ns#"
   xmlns:svg="http://www.w3.org/2000/svg"
   xmlns="http://www.w3.org/2000/svg"
   xmlns:sodipodi="http://sodipodi.sourceforge.net/DTD/sodipodi-0.dtd"
   xmlns:inkscape="http://www.inkscape.org/namespaces/inkscape"
   sodipodi:docname="save-as-b1faae.svg"
   inkscape:version="1.0 (4035a4fb49, 2020-05-01)"
   id="svg8"
   version="1.1"
   viewBox="0 0 15.081249 17.991666"
   height="68"
   width="57">
  <defs
     id="defs2">
    <inkscape:path-effect
       effect="powerstroke"
       id="path-effect2978"
       is_visible="true"
       lpeversion="1"
       offset_points="0,0.0099307778"
       sort_points="true"
       interpolator_type="CubicBezierJohan"
       interpolator_beta="0.2"
       start_linecap_type="zerowidth"
       linejoin_type="extrp_arc"
       miter_limit="4"
       scale_width="1"
       end_linecap_type="zerowidth" />
    <inkscape:path-effect
       effect="bspline"
       id="path-effect2976"
       is_visible="true"
       lpeversion="1"
       weight="33.333333"
       steps="2"
       helper_size="0"
       apply_no_weight="true"
       apply_with_weight="true"
       only_selected="false" />
    <inkscape:path-effect
       effect="powerstroke"
       id="path-effect2974"
       is_visible="true"
       lpeversion="1"
       offset_points="0,0.0099307778"
       sort_points="true"
       interpolator_type="CubicBezierJohan"
       interpolator_beta="0.2"
       start_linecap_type="zerowidth"
       linejoin_type="extrp_arc"
       miter_limit="4"
       scale_width="1"
       end_linecap_type="zerowidth" />
    <inkscape:path-effect
       effect="bspline"
       id="path-effect2972"
       is_visible="true"
       lpeversion="1"
       weight="33.333333"
       steps="2"
       helper_size="0"
       apply_no_weight="true"
       apply_with_weight="true"
       only_selected="false" />
    <inkscape:path-effect
       end_linecap_type="zerowidth"
       scale_width="1"
       miter_limit="4"
       linejoin_type="extrp_arc"
       start_linecap_type="zerowidth"
       interpolator_beta="0.2"
       interpolator_type="CubicBezierJohan"
       sort_points="true"
       offset_points="0,0.0099307778"
       lpeversion="1"
       is_visible="true"
       id="path-effect2970"
       effect="powerstroke" />
    <inkscape:path-effect
       only_selected="false"
       apply_with_weight="true"
       apply_no_weight="true"
       helper_size="0"
       steps="2"
       weight="33.333333"
       lpeversion="1"
       is_visible="true"
       id="path-effect2968"
       effect="bspline" />
    <inkscape:path-effect
       end_linecap_type="zerowidth"
       scale_width="1"
       miter_limit="4"
       linejoin_type="extrp_arc"
       start_linecap_type="zerowidth"
       interpolator_beta="0.2"
       interpolator_type="CubicBezierJohan"
       sort_points="true"
       offset_points="0,0.12744213"
       lpeversion="1"
       is_visible="true"
       id="path-effect1009"
       effect="powerstroke" />
    <inkscape:path-effect
       only_selected="false"
       apply_with_weight="true"
       apply_no_weight="true"
       helper_size="0"
       steps="2"
       weight="33.333333"
       lpeversion="1"
       is_visible="true"
       id="path-effect1007"
       effect="bspline" />
    <inkscape:path-effect
       effect="powerstroke"
       id="path-effect986"
       is_visible="true"
       lpeversion="1"
       offset_points="0,0.12744213"
       sort_points="true"
       interpolator_type="CubicBezierJohan"
       interpolator_beta="0.2"
       start_linecap_type="zerowidth"
       linejoin_type="extrp_arc"
       miter_limit="4"
       scale_width="1"
       end_linecap_type="zerowidth" />
    <inkscape:path-effect
       effect="bspline"
       id="path-effect984"
       is_visible="true"
       lpeversion="1"
       weight="33.333333"
       steps="2"
       helper_size="0"
       apply_no_weight="true"
       apply_with_weight="true"
       only_selected="false" />
    <inkscape:path-effect
       end_linecap_type="zerowidth"
       scale_width="1"
       miter_limit="4"
       linejoin_type="extrp_arc"
       start_linecap_type="zerowidth"
       interpolator_beta="0.2"
       interpolator_type="CubicBezierJohan"
       sort_points="true"
       offset_points="0,0.12744213"
       lpeversion="1"
       is_visible="true"
       id="path-effect963"
       effect="powerstroke" />
    <inkscape:path-effect
       only_selected="false"
       apply_with_weight="true"
       apply_no_weight="true"
       helper_size="0"
       steps="2"
       weight="33.333333"
       lpeversion="1"
       is_visible="true"
       id="path-effect961"
       effect="bspline" />
    <inkscape:path-effect
       end_linecap_type="zerowidth"
       scale_width="1"
       miter_limit="4"
       linejoin_type="extrp_arc"
       start_linecap_type="zerowidth"
       interpolator_beta="0.2"
       interpolator_type="CubicBezierJohan"
       sort_points="true"
       offset_points="0,0.12744213"
       lpeversion="1"
       is_visible="true"
       id="path-effect951"
       effect="powerstroke" />
    <inkscape:path-effect
       only_selected="false"
       apply_with_weight="true"
       apply_no_weight="true"
       helper_size="0"
       steps="2"
       weight="33.333333"
       lpeversion="1"
       is_visible="true"
       id="path-effect949"
       effect="bspline" />
    <inkscape:path-effect
       end_linecap_type="zerowidth"
       scale_width="1"
       miter_limit="4"
       linejoin_type="extrp_arc"
       start_linecap_type="zerowidth"
       interpolator_beta="0.2"
       interpolator_type="CubicBezierJohan"
       sort_points="true"
       offset_points="0,0.12744213"
       lpeversion="1"
       is_visible="true"
       id="path-effect939"
       effect="powerstroke" />
    <inkscape:path-effect
       only_selected="false"
       apply_with_weight="true"
       apply_no_weight="true"
       helper_size="0"
       steps="2"
       weight="33.333333"
       lpeversion="1"
       is_visible="true"
       id="path-effect937"
       effect="bspline" />
    <inkscape:path-effect
       effect="powerstroke"
       id="path-effect916"
       is_visible="true"
       lpeversion="1"
       offset_points="0,0.12744213"
       sort_points="true"
       interpolator_type="CubicBezierJohan"
       interpolator_beta="0.2"
       start_linecap_type="zerowidth"
       linejoin_type="extrp_arc"
       miter_limit="4"
       scale_width="1"
       end_linecap_type="zerowidth" />
    <inkscape:path-effect
       effect="bspline"
       id="path-effect914"
       is_visible="true"
       lpeversion="1"
       weight="33.333333"
       steps="2"
       helper_size="0"
       apply_no_weight="true"
       apply_with_weight="true"
       only_selected="false" />
  </defs>
  <sodipodi:namedview
     units="px"
     inkscape:window-maximized="1"
     inkscape:window-y="-9"
     inkscape:window-x="-9"
     inkscape:window-height="1001"
     inkscape:window-width="1920"
     fit-margin-bottom="0"
     fit-margin-right="0"
     fit-margin-left="0"
     fit-margin-top="0"
     showgrid="false"
     inkscape:document-rotation="0"
     inkscape:current-layer="g849"
     inkscape:document-units="mm"
     inkscape:cy="38.509052"
     inkscape:cx="0.22152353"
     inkscape:zoom="7.4561316"
     inkscape:pageshadow="2"
     inkscape:pageopacity="0"
     borderopacity="1.0"
     bordercolor="#666666"
     pagecolor="#292929"
     id="base" />
  <metadata
     id="metadata5">
    <rdf:RDF>
      <cc:Work
         rdf:about="">
        <dc:format>image/svg+xml</dc:format>
        <dc:type
           rdf:resource="http://purl.org/dc/dcmitype/StillImage" />
        <dc:title></dc:title>
      </cc:Work>
    </rdf:RDF>
  </metadata>
  <g
     transform="translate(-27.662315,-57.870442)"
     id="layer1"
     inkscape:groupmode="layer"
     inkscape:label="Layer 1">
    <g
       id="g1411">
      <g
         style="stroke:#00cccc;stroke-opacity:1"
         id="g849"
         transform="matrix(0.89960937,0,0,0.89984324,2.8296587,5.8916223)">
        <text
           xml:space="preserve"
           style="font-size:3.72588px;line-height:0.5;font-family:sans-serif;-inkscape-font-specification:Tahoma;text-align:center;text-anchor:middle;fill:#00cccc;fill-opacity:1;stroke:none;stroke-width:0.277834;stroke-opacity:1"
           x="36.235939"
           y="77.04174"
           id="text1505"
           transform="scale(0.99425558,1.0057776)"><tspan
             sodipodi:role="line"
             id="tspan1503"
             x="36.235939"
             y="77.04174"
             style="font-size:3.72588px;fill:#b1faae;fill-opacity:1;stroke:none;stroke-width:0.277834;stroke-opacity:1">Save As</tspan></text>
        <path
           inkscape:path-effect="#path-effect2968;#path-effect2970"
           inkscape:original-d="m 31.823947,59.6027 c 2.899476,2e-5 5.798934,2e-5 8.69837,0"
           style="fill:#000000;fill-rule:nonzero;stroke:#b1faae;stroke-width:0.260346;stroke-linecap:butt;stroke-linejoin:miter;stroke-miterlimit:4;stroke-dasharray:none;stroke-opacity:1"
           d="m 31.823947,59.6027 c 0,0 0,0.0099 0,0.0099 v 0 c 1.739674,0 6.958696,-0.0099 8.69837,-0.0099 -1.739674,0 -6.958696,-0.0099 -8.69837,-0.0099 v 0 c 0,0 0,0.0099 0,0.0099 z"
           id="path912-7" />
        <path
           inkscape:path-effect="#path-effect2972;#path-effect2974"
           inkscape:original-d="m 31.833356,60.459651 c 2.890383,2.3e-5 5.780748,2.3e-5 8.671091,0"
           id="path912-2-3"
           d="m 31.833356,60.459651 c 0,0 0,0.0099 0,0.0099 v 0 c 1.734218,0 6.936873,-0.0099 8.671091,-0.0099 -1.734218,0 -6.936873,-0.0099 -8.671091,-0.0099 v 0 c 0,0 0,0.0099 0,0.0099 z"
           style="fill:#000000;fill-rule:nonzero;stroke:#b1faae;stroke-width:0.260346;stroke-linecap:butt;stroke-linejoin:miter;stroke-miterlimit:4;stroke-dasharray:none;stroke-opacity:1" />
        <path
           inkscape:path-effect="#path-effect2976;#path-effect2978"
           inkscape:original-d="m 31.832903,61.356772 c 1.496634,2.8e-5 2.993257,2.8e-5 4.48987,0"
           id="path912-5-3"
           d="m 31.832903,61.356772 c 0,0 0,0.0099 0,0.0099 v 0 c 0.897974,0 3.591896,-0.0099 4.48987,-0.0099 -0.897974,0 -3.591896,-0.0099 -4.48987,-0.0099 v 0 c 0,0 0,0.0099 0,0.0099 z"
           style="fill:#000000;fill-rule:nonzero;stroke:#b1faae;stroke-width:0.260346;stroke-linecap:butt;stroke-linejoin:miter;stroke-miterlimit:4;stroke-dasharray:none;stroke-opacity:1" />
        <path
           id="path2834-7"
           d="m 42.842234,68.981013 c -0.159533,0.538814 -0.554346,0.752042 -1.209905,0.653437 L 41.397026,69.599072 41.124844,69.23429 C 40.708728,68.676603 40.029815,67.7749 39.12594,66.579432 38.809236,66.160555 38.413843,65.6367 38.24729,65.415306 c -0.166553,-0.221393 -0.439173,-0.583117 -0.605823,-0.803832 -0.730412,-0.967365 -0.723935,-0.957854 -0.7684,-1.128167 -0.02303,-0.0882 -0.128251,-0.471987 -0.233827,-0.85285 -0.307754,-1.110216 -0.365821,-1.34831 -0.334621,-1.372052 0.03341,-0.02542 -0.02387,-0.05706 1.160189,0.640823 0.79992,0.471469 0.931022,0.556557 1.011561,0.656516 0.109753,0.136216 0.873234,1.134537 1.245777,1.628962 0.308795,0.409825 0.574919,0.761514 1.303111,1.722094 0.538978,0.710984 0.862368,1.139438 1.383625,1.833146 0.155419,0.206838 0.339812,0.448396 0.409761,0.536798 l 0.12718,0.160727 -0.03263,0.207053 c -0.01795,0.113881 -0.04988,0.265307 -0.07096,0.336502 z m -0.125076,-0.557944 c -0.08631,-0.142722 -0.550951,-0.734168 -0.56694,-0.721666 -0.0048,0.0039 -0.04036,0.105545 -0.07893,0.226128 -0.144166,0.450782 -0.357649,0.63379 -0.795805,0.682215 -0.08007,0.0089 -0.191002,0.0093 -0.246523,9.54e-4 -0.05552,-0.0083 -0.10237,-0.0053 -0.10411,0.0069 -0.0064,0.04474 0.634139,0.858784 0.681508,0.866093 0.07967,0.01227 0.398827,-0.03614 0.523854,-0.07951 0.337068,-0.116891 0.54885,-0.392563 0.622003,-0.809655 0.01097,-0.06258 8.65e-4,-0.11208 -0.03506,-0.171468 z m -1.036527,-1.361547 c -0.11844,-0.159724 -0.328913,-0.439925 -0.467717,-0.622674 -0.138804,-0.182747 -0.36621,-0.482335 -0.505346,-0.665746 -0.365184,-0.481389 -0.621631,-0.817358 -1.102521,-1.444395 -0.233889,-0.304972 -0.507226,-0.661701 -0.607417,-0.792736 -0.3141,-0.410797 -0.429047,-0.554667 -0.445083,-0.557071 -0.0085,-0.0013 -0.03075,0.103848 -0.04937,0.233618 l -0.03385,0.235947 0.237086,0.316193 c 0.438728,0.585113 0.596605,0.792225 1.926969,2.527932 0.621389,0.810718 1.182337,1.526625 1.19803,1.528978 0.0081,0.0012 0.02599,-0.103948 0.03968,-0.233712 l 0.02488,-0.235931 z m -0.369636,0.496751 c -0.49402,-0.667526 -0.782598,-1.050006 -1.630807,-2.161465 -0.395075,-0.51769 -0.809276,-1.061244 -0.920447,-1.207894 -0.111171,-0.14665 -0.253062,-0.331168 -0.315311,-0.41004 l -0.113183,-0.143403 -0.143118,0.110336 c -0.102007,0.07864 -0.138697,0.120894 -0.127724,0.14709 0.0085,0.02022 0.520095,0.703496 1.136949,1.518407 0.616856,0.814909 1.361091,1.79813 1.653857,2.184932 l 0.532303,0.703278 0.06865,-0.04719 c 0.09453,-0.06497 0.220839,-0.169075 0.223911,-0.184544 0.0014,-0.0071 -0.162891,-0.236309 -0.36508,-0.50951 z m -1.255019,-0.675644 c -0.511537,-0.673536 -1.2286,-1.616497 -1.593473,-2.095469 l -0.663405,-0.870861 -0.153867,-0.0069 c -0.163629,-0.0073 -0.22759,1.57e-4 -0.23143,0.02691 -0.0029,0.02027 0.346273,0.491168 1.591399,2.146193 0.445902,0.592692 1.551263,2.038836 1.654275,2.164288 0.09419,0.11471 0.07418,0.109397 0.407712,0.108239 l 0.0927,-3.26e-4 -0.08692,-0.123756 c -0.04781,-0.06805 -0.505453,-0.674822 -1.016991,-1.348357 z m -1.721297,-4.18639 c -0.01982,-0.05628 -0.197186,-0.181388 -0.482563,-0.340396 l -0.174477,-0.09722 -0.122905,0.188045 c -0.13808,0.211261 -0.210557,0.266478 -0.461905,0.351902 l -0.172716,0.0587 0.03423,0.158596 c 0.123935,0.574182 0.142159,0.629533 0.210664,0.639807 0.08379,0.01257 0.540504,-0.05456 0.665658,-0.09785 0.132402,-0.04578 0.276482,-0.164025 0.339007,-0.278209 0.04347,-0.07938 0.150758,-0.382507 0.176685,-0.499194 0.0038,-0.01721 -0.0014,-0.0551 -0.01168,-0.08419 z"
           style="fill:#b1faae;fill-opacity:1;stroke:#b1faae;stroke-width:0.0100563;stroke-miterlimit:4;stroke-dasharray:none;stroke-opacity:1" />
        <path
           sodipodi:nodetypes="cccccc"
           id="path2844-3"
           d="m 40.030825,64.721559 1.178029,8.62e-4 V 59.050572 H 31.202326 v 5.720793 l 6.651059,-8.61e-4"
           style="fill:none;stroke:#b1faae;stroke-width:0.260346;stroke-linecap:butt;stroke-linejoin:miter;stroke-miterlimit:4;stroke-dasharray:none;stroke-opacity:1" />
        <path
           id="path2846-3"
           d="m 38.716297,65.951374 -6.621334,-0.01194 v 6.01663 h 7.85627 l 0.01713,-4.447492 v 0 0"
           style="fill:none;stroke:#b1faae;stroke-width:0.260346;stroke-linecap:butt;stroke-linejoin:miter;stroke-miterlimit:4;stroke-dasharray:none;stroke-opacity:1" />
        <path
           id="path2848-1"
           d="m 32.713319,66.681402 h 1.859966 v 3.70037 h -1.859966 z"
           style="fill:none;stroke:#b1faae;stroke-width:0.260346;stroke-linecap:butt;stroke-linejoin:miter;stroke-miterlimit:4;stroke-dasharray:none;stroke-opacity:1" />
        <path
           sodipodi:nodetypes="cccccccc"
           id="path2852-4"
           d="m 42.465443,67.889994 -0.01073,-8.970603 H 29.512534 v 11.710237 l 1.508502,1.527031 h 11.433681 l 0.0093,-2.788099 v 0"
           style="fill:none;stroke:#b1faae;stroke-width:0.260346;stroke-linecap:butt;stroke-linejoin:miter;stroke-miterlimit:4;stroke-dasharray:none;stroke-opacity:1" />
      </g>
    </g>
  </g>
</svg>
