<?xml version="1.0" encoding="UTF-8" standalone="no"?>
<svg
   xmlns:dc="http://purl.org/dc/elements/1.1/"
   xmlns:cc="http://creativecommons.org/ns#"
   xmlns:rdf="http://www.w3.org/1999/02/22-rdf-syntax-ns#"
   xmlns:svg="http://www.w3.org/2000/svg"
   xmlns="http://www.w3.org/2000/svg"
   xmlns:sodipodi="http://sodipodi.sourceforge.net/DTD/sodipodi-0.dtd"
   xmlns:inkscape="http://www.inkscape.org/namespaces/inkscape"
   width="39.709183mm"
   height="12.699992mm"
   viewBox="0 0 39.709183 12.699992"
   version="1.1"
   id="svg8"
   inkscape:version="1.0 (4035a4fb49, 2020-05-01)"
   sodipodi:docname="white.svg">
  <defs
     id="defs2" />
  <sodipodi:namedview
     id="base"
     pagecolor="#ffffff"
     bordercolor="#666666"
     borderopacity="1.0"
     inkscape:pageopacity="0.0"
     inkscape:pageshadow="2"
     inkscape:zoom="1.979899"
     inkscape:cx="-89.540554"
     inkscape:cy="42.762862"
     inkscape:document-units="mm"
     inkscape:current-layer="layer1"
     inkscape:document-rotation="0"
     showgrid="false"
     inkscape:window-width="1920"
     inkscape:window-height="1001"
     inkscape:window-x="-9"
     inkscape:window-y="-9"
     inkscape:window-maximized="1"
     fit-margin-top="0"
     fit-margin-left="0"
     fit-margin-right="0"
     fit-margin-bottom="0" />
  <metadata
     id="metadata5">
    <rdf:RDF>
      <cc:Work
         rdf:about="">
        <dc:format>image/svg+xml</dc:format>
        <dc:type
           rdf:resource="http://purl.org/dc/dcmitype/StillImage" />
        <dc:title></dc:title>
      </cc:Work>
    </rdf:RDF>
  </metadata>
  <g
     inkscape:label="Layer 1"
     inkscape:groupmode="layer"
     id="layer1"
     transform="translate(-76.129516,-144.07302)">
    <path
       style="fill:#000000;stroke-width:0.254726"
       d="m 78.572245,153.22448 c -1.061024,-2.13949 -1.968443,-3.64981 -2.285267,-3.80365 -0.400541,-0.19447 -0.07124,-0.2554 1.384967,-0.25624 1.390809,-7.8e-4 1.754553,0.0615 1.337312,0.22928 -0.315224,0.12666 -0.573314,0.37735 -0.573535,0.557 -2.2e-4,0.17962 0.534577,1.4425 1.18844,2.80638 1.322935,2.75948 1.452582,2.79933 2.346506,0.72135 l 0.533669,-1.24056 -0.534932,-1.28718 c -0.373479,-0.8987 -0.737553,-1.36149 -1.206249,-1.53331 -0.522116,-0.19142 -0.190111,-0.24548 1.493858,-0.24326 1.770097,0.003 2.014113,0.0465 1.337312,0.24191 -0.455324,0.13147 -0.827861,0.3017 -0.827861,0.37831 0,0.26333 2.089489,5.48335 2.162763,5.40307 0.257741,-0.28235 1.912855,-4.63393 1.912855,-5.02922 0,-0.29752 -0.271004,-0.58422 -0.700497,-0.74109 -0.586069,-0.21405 -0.409228,-0.25648 1.082586,-0.25981 1.181914,-0.003 1.608338,0.0669 1.264785,0.20612 -0.731429,0.29648 -0.951908,0.63892 -1.894084,2.94171 -1.208204,2.95299 -2.056966,4.55164 -2.281726,4.29761 -0.108038,-0.12214 -0.397763,-0.73782 -0.643825,-1.36827 -1.051998,-2.69536 -0.834734,-2.64565 -1.947898,-0.44576 -0.549414,1.08576 -1.086786,1.97412 -1.194162,1.97412 -0.107376,0 -0.987134,-1.59683 -1.955017,-3.54851 z m 26.545775,3.1087 c -0.37015,-0.40901 -0.44511,-0.99254 -0.44511,-3.46482 v -2.97297 l -0.7005,-0.008 -0.7005,-0.008 0.72869,-0.54316 c 0.40078,-0.29874 0.93716,-1.01152 1.19195,-1.58396 l 0.46328,-1.04081 0.018,1.20995 0.018,1.20995 h 1.27363 c 0.9623,0 1.27363,0.0934 1.27363,0.38209 0,0.28868 -0.31133,0.38209 -1.27363,0.38209 h -1.27363 v 2.75329 c 0,3.65342 0.29555,4.04783 2.41989,3.22936 0.47651,-0.1836 0.48233,-0.16739 0.09,0.2503 -0.23074,0.24562 -0.91879,0.50285 -1.52901,0.57165 -0.87734,0.0988 -1.20263,0.0221 -1.55461,-0.36681 z m 5.64601,-0.14095 c -1.1374,-0.76649 -1.49795,-1.54463 -1.50135,-3.24011 -0.005,-2.35591 1.53332,-4.07261 3.6506,-4.07467 0.77638,-7.7e-4 1.16115,0.17949 1.84677,0.86512 0.47633,0.47633 0.86606,1.10678 0.86606,1.40099 0,0.50945 -0.12741,0.53492 -2.67462,0.53492 h -2.67461 v 0.77236 c 0,2.78391 2.55974,4.4026 4.80116,3.03609 0.54072,-0.32965 0.81578,-0.39924 0.75145,-0.1901 -0.16262,0.52876 -2.26545,1.47618 -3.27639,1.47618 -0.5434,0 -1.28401,-0.24042 -1.78907,-0.58078 z m 3.61864,-5.08688 c 0.16744,-1.76655 -1.59433,-2.61047 -2.92473,-1.40099 -0.34674,0.31522 -0.70474,0.83104 -0.79555,1.14627 -0.16088,0.55842 -0.11562,0.57313 1.7625,0.57313 1.35617,0 1.93654,-0.0945 1.95778,-0.31841 z m -24.674919,5.11686 0.700495,-0.25583 v -5.31989 -5.31988 l -0.669701,-0.3509 -0.669701,-0.3509 1.108311,-0.28131 c 0.819934,-0.20812 1.154759,-0.20616 1.286817,0.008 0.09817,0.15885 0.125021,1.65956 0.05966,3.33491 l -0.118839,3.04608 0.897281,-0.78782 c 1.126347,-0.98895 2.363111,-1.25044 3.39362,-0.71755 0.420339,0.21737 0.835459,0.58076 0.922485,0.80755 0.08702,0.22678 0.158232,1.64173 0.158232,3.14432 v 2.73198 l 0.700497,0.27681 c 0.599922,0.23706 0.426202,0.27704 -1.20995,0.2785 -1.150284,10e-4 -1.657059,-0.0686 -1.273631,-0.17495 0.622279,-0.17263 0.638464,-0.23873 0.709028,-2.89542 0.06505,-2.44898 0.02082,-2.77018 -0.44577,-3.23676 -0.809297,-0.80929 -1.942489,-0.67278 -2.973494,0.35823 l -0.87621,0.87622 0.07383,2.22212 0.07381,2.22213 0.891542,0.32109 c 0.841261,0.30296 0.769433,0.32103 -1.273631,0.32035 -1.745461,-5.8e-4 -2.029382,-0.0504 -1.464674,-0.25658 z m 9.552227,-0.0215 0.827862,-0.26557 v -2.62062 c 0,-2.39688 -0.0435,-2.6344 -0.509454,-2.7823 -0.649914,-0.20627 -0.652971,-0.55693 -0.0066,-0.76205 0.276545,-0.0877 0.722894,-0.43939 0.991884,-0.78136 0.269,-0.34196 0.55855,-0.62175 0.64346,-0.62175 0.0849,0 0.15439,1.69727 0.15439,3.77171 v 3.77172 l 0.70049,0.2768 c 0.58857,0.23258 0.35452,0.27699 -1.46467,0.2779 -1.861028,9.4e-4 -2.048883,-0.0362 -1.337313,-0.26448 z m 0.672105,-10.99986 c -0.253623,-0.66093 0.101857,-1.20719 0.727747,-1.11832 0.421,0.0597 0.57427,0.25152 0.57427,0.71836 0,0.46685 -0.15327,0.65859 -0.57427,0.71837 -0.34446,0.0489 -0.63569,-0.0785 -0.727747,-0.31841 z"
       id="path1448" />
  </g>
</svg>
