<?xml version="1.0" encoding="UTF-8" standalone="no"?>
<svg
   xmlns:dc="http://purl.org/dc/elements/1.1/"
   xmlns:cc="http://creativecommons.org/ns#"
   xmlns:rdf="http://www.w3.org/1999/02/22-rdf-syntax-ns#"
   xmlns:svg="http://www.w3.org/2000/svg"
   xmlns="http://www.w3.org/2000/svg"
   xmlns:sodipodi="http://sodipodi.sourceforge.net/DTD/sodipodi-0.dtd"
   xmlns:inkscape="http://www.inkscape.org/namespaces/inkscape"
   inkscape:version="1.0 (4035a4fb49, 2020-05-01)"
   sodipodi:docname="Council Rules.svg"
   id="svg3"
   version="1.1"
   viewBox="0 0 101.137 58.595"
   height="58.595"
   width="101.137">
  <metadata
     id="metadata9">
    <rdf:RDF>
      <cc:Work
         rdf:about="">
        <dc:format>image/svg+xml</dc:format>
        <dc:type
           rdf:resource="http://purl.org/dc/dcmitype/StillImage" />
      </cc:Work>
    </rdf:RDF>
  </metadata>
  <defs
     id="defs7" />
  <sodipodi:namedview
     inkscape:current-layer="svg3"
     inkscape:window-maximized="1"
     inkscape:window-y="-9"
     inkscape:window-x="-9"
     inkscape:cy="55.261305"
     inkscape:cx="32.195008"
     inkscape:zoom="4.2229104"
     showgrid="false"
     id="namedview5"
     inkscape:window-height="1001"
     inkscape:window-width="1920"
     inkscape:pageshadow="2"
     inkscape:pageopacity="0"
     guidetolerance="10"
     gridtolerance="10"
     objecttolerance="10"
     borderopacity="1"
     bordercolor="#666666"
     pagecolor="#ffffff" />
  <path
     style="fill:#ffffff;fill-opacity:1"
     transform="translate(49.863 22.063)"
     d="M-31.667-20.32a17.012,17.012,0,0,1,.2,2.623q0,.266-.017.714a1.834,1.834,0,0,1-.349.05,1.7,1.7,0,0,1-.282-.033,5.825,5.825,0,0,0-2.274-2.988A6.907,6.907,0,0,0-38.292-21a6.622,6.622,0,0,0-2.075.282A8.664,8.664,0,0,0-42.99-19.3,8.5,8.5,0,0,0-44.9-17.141,10.785,10.785,0,0,0-46.136-14.1a14.645,14.645,0,0,0-.457,3.644A13.916,13.916,0,0,0-45.513-4.59a6.808,6.808,0,0,0,2.955,3.3A8.051,8.051,0,0,0-38.773-.3l.78-.017a12.413,12.413,0,0,0,1.81-.315,8.454,8.454,0,0,0,2-.822,6.6,6.6,0,0,0,1.544-1.336A8.383,8.383,0,0,0-31.352-4.8l.2-.066a.565.565,0,0,1,.249.1q-.017.4-.033.515-.7,2.806-1.013,3.835-.266.066-.664.2a16.514,16.514,0,0,1-5.2.664A15.992,15.992,0,0,1-41.736.091a16.221,16.221,0,0,1-2.839-1.112,9.234,9.234,0,0,1-2.7-2,9.377,9.377,0,0,1-1.876-3.146,11.691,11.691,0,0,1-.714-4.142,11.06,11.06,0,0,1,.564-3.71,12.881,12.881,0,0,1,1.743-3.212,11.028,11.028,0,0,1,2.781-2.706,10.508,10.508,0,0,1,3.561-1.527,19.5,19.5,0,0,1,3.9-.3,11.978,11.978,0,0,1,3.47.49A6.617,6.617,0,0,1-31.667-20.32ZM-28.53-6.674a7.017,7.017,0,0,1,.473-2.416A6.711,6.711,0,0,1-26.621-11.4a6.673,6.673,0,0,1,2.042-1.519,8.76,8.76,0,0,1,3.686-.7,6.971,6.971,0,0,1,5.188,2.125,7.041,7.041,0,0,1,2.083,5.113A6.4,6.4,0,0,1-15.8-1.635,7.674,7.674,0,0,1-21.325.448,7.513,7.513,0,0,1-25.209-.631,6.983,6.983,0,0,1-27.55-3.038,6.8,6.8,0,0,1-28.53-6.674ZM-21.184-.2A4.787,4.787,0,0,0-18.747-.88a4.718,4.718,0,0,0,1.871-2.183,8.169,8.169,0,0,0,.7-3.478,10.155,10.155,0,0,0-.54-3,5,5,0,0,0-1.663-2.565,4.227,4.227,0,0,0-2.636-.855,5.406,5.406,0,0,0-2.237.515,4.274,4.274,0,0,0-1.929,1.976,8.865,8.865,0,0,0-.79,4.15A6.714,6.714,0,0,0-24.6-1.751,4.375,4.375,0,0,0-21.184-.2Zm9.339-12.833h1.24l.546.033.43-.033q1.7,0,2.117.033l.017.315q0,2.341-.066,4.532-.05,1.295-.05,1.478a19.985,19.985,0,0,0,.191,3.652,1.929,1.929,0,0,0,.9,1.17,3.166,3.166,0,0,0,1.706.44,5.516,5.516,0,0,0,2.321-.506A7.015,7.015,0,0,0-.606-3.154,10.741,10.741,0,0,0-.523-4.549q0-2.474.05-3.337.017-.515.017-.9A8.582,8.582,0,0,0-.722-11.82q-.266-.349-2.025-.531-.581-.066-.847-.116a.723.723,0,0,1-.133-.332l.05-.183a7.384,7.384,0,0,1,.847-.05L-.191-13q1.411-.033,1.494-.033.183,0,.349.017L1.685-11.8Q1.569-9.28,1.552-5.562L1.519-4.217l.066,2.258a.726.726,0,0,0,.266.315,2.534,2.534,0,0,0,.813.083h.149q.216,0,1.229.1.017.216.017.315v.183A31.447,31.447,0,0,0,.457,0a9.237,9.237,0,0,1-.93.266Q-.556-.315-.556-.448V-1.793q0-.083-.017-.448-.216.149-.5.365A15.336,15.336,0,0,1-3.843-.166,4.283,4.283,0,0,1-5.736.315,3.545,3.545,0,0,1-8.575-.979Q-9.687-2.274-9.687-5.4q0-.166.017-.6.066-.8.066-1.112,0-.116-.017-.73Q-9.637-8.1-9.637-8.3q0-.149.017-.672t.017-.739q0-.282-.017-.5l-.033-.88.017-.465a.618.618,0,0,0-.266-.481,13.487,13.487,0,0,0-1.37-.324,2.345,2.345,0,0,1-.573-.141ZM4.889-.548a8.087,8.087,0,0,1,.963-.2,2.865,2.865,0,0,0,1.253-.348A1.339,1.339,0,0,0,7.313-2l.033-.6q.017-.331.017-.844L7.33-8.523a2.179,2.179,0,0,0-.266-1.324,2.929,2.929,0,0,0-1.66-.645V-11.1a5.015,5.015,0,0,0,1.859-.866A5.968,5.968,0,0,0,8.857-14l.564.017q.05.783.05,1.116v1.1l.017.3q.2-.133.465-.333a10.875,10.875,0,0,1,2.042-1.224,9.813,9.813,0,0,1,1.859-.658,4.642,4.642,0,0,1,1.162-.133,3.8,3.8,0,0,1,2.341.731,3.314,3.314,0,0,1,1.27,1.72,16.907,16.907,0,0,1,.291,3.931v2.51q0,.1-.025.665t-.025,1.3a6.49,6.49,0,0,0,.1,1.479,1,1,0,0,0,.432.432,3.9,3.9,0,0,1,1.859.515V-.4a1.168,1.168,0,0,1-.1.415h-.315L18.652-.017l-2.158.05Q15.3.066,14.286.017l-.1-.349A.519.519,0,0,1,14.3-.6a4.005,4.005,0,0,1,1.262-.266,2.8,2.8,0,0,0,.664-.1,1.856,1.856,0,0,0,.448-.266,1.57,1.57,0,0,0,.2-.665q0-.116-.033-.466-.05-.765-.066-3.807v-.865l.033-1.33a4,4,0,0,0-.863-2.959,3.225,3.225,0,0,0-2.308-.815,5.145,5.145,0,0,0-2.175.49A7.355,7.355,0,0,0,9.4-10.177q-.033.8-.033,1.361l.05,3.669q0,2.872.083,3.52a.738.738,0,0,0,.116.365,1.1,1.1,0,0,0,.531.216q.4.083.921.232t.689.183A.624.624,0,0,1,12.21-.3l-.017.332H10.451L6.865-.017Q5.62,0,5.288,0H4.873L4.839-.216A1.6,1.6,0,0,1,4.889-.548Zm29.982-2.49.017,1.079A7.994,7.994,0,0,1,32.332-.033,7.418,7.418,0,0,1,29.36.515a6.02,6.02,0,0,1-3.354-.971,6.268,6.268,0,0,1-2.3-2.748A8.4,8.4,0,0,1,22.9-6.69a6.935,6.935,0,0,1,.971-3.544,6.252,6.252,0,0,1,2.573-2.49,8.777,8.777,0,0,1,4.026-.822,6.459,6.459,0,0,1,3.536.8,1.4,1.4,0,0,1,.681,1.2,1.193,1.193,0,0,1-.349.88,1.214,1.214,0,0,1-.9.349,2.737,2.737,0,0,1-1.826-1.029,4.213,4.213,0,0,0-1.112-.872,2.523,2.523,0,0,0-1.112-.241,3.034,3.034,0,0,0-2.457,1.212,6.782,6.782,0,0,0-1.361,4.333A6.274,6.274,0,0,0,26.969-2.64a4.212,4.212,0,0,0,3.254,1.594,5.875,5.875,0,0,0,2.3-.423A9.606,9.606,0,0,0,34.872-3.038ZM38.125-20.4a1.256,1.256,0,0,1,.423-.946,1.436,1.436,0,0,1,1.021-.4,1.507,1.507,0,0,1,1.079.448,1.328,1.328,0,0,1,.465.963,1.354,1.354,0,0,1-.465.971,1.493,1.493,0,0,1-1.079.457,1.4,1.4,0,0,1-1.029-.415A1.46,1.46,0,0,1,38.125-20.4Zm-1.395,8.616.017-.49q1.079-.316,1.162-.367a5.437,5.437,0,0,0,1.253-.816,5.654,5.654,0,0,0,1.1-1.233,2.032,2.032,0,0,1,.315-.033l.2.017q.066.8.066,1.162,0,.083-.033.747v.88l.017,4.781-.05,5.063a1.241,1.241,0,0,0,.2.855,3.24,3.24,0,0,0,1.278.54,10.093,10.093,0,0,1,1,.315.523.523,0,0,1,.05.2.544.544,0,0,1-.083.249Q42.575.066,41.562,0q-1.378-.116-1.826-.116-.216,0-2.656.083a8.9,8.9,0,0,0-.963.083A1.151,1.151,0,0,1,35.851,0a.365.365,0,0,1-.083-.2q0-.232.315-.365Q36.15-.6,37.777-.946a1.08,1.08,0,0,0,.7-.332,1.761,1.761,0,0,0,.282-1.111q.033-1.276.033-7a5.859,5.859,0,0,0-.1-1.426,1.259,1.259,0,0,0-.44-.456A4.825,4.825,0,0,0,36.731-11.787Zm7.687-8.782v-.365q.465-.149,1.029-.315.834-.266,2.47-.813H48.7v.914q0,13.64-.083,16.265-.05,1.545-.05,1.645a6.919,6.919,0,0,0,.149,2.077q.2.3,1.22.415a4.22,4.22,0,0,1,1.2.233.238.238,0,0,1,.133.232.357.357,0,0,1-.075.257.386.386,0,0,1-.274.075q-.116,0-1.743-.057L47.007-.083,44.218.05a.53.53,0,0,1-.4-.1.3.3,0,0,1-.1-.238.282.282,0,0,1,.108-.247,6.052,6.052,0,0,1,1.2-.259A4.342,4.342,0,0,0,46.269-1.1a.836.836,0,0,0,.208-.556q.066-.6.066-3.37l-.017-3.818.05-3.951-.017-3.951.05-1.942a1.482,1.482,0,0,0-.183-.838,1.825,1.825,0,0,0-.78-.506Q44.75-20.4,44.417-20.569Zm-79.6,56.055a23.318,23.318,0,0,0,2.726-.4.87.87,0,0,0,.4-.5v-.183q0-.415.132-3,.033-.73.033-1.426L-31.941,28l.033-2.239-.017-4.164.017-2.986A4.915,4.915,0,0,0-32.2,16.31a2.465,2.465,0,0,0-1.585-.589,7.514,7.514,0,0,1-1.411-.257.29.29,0,0,1-.133-.265,1.188,1.188,0,0,1,.05-.3,1.323,1.323,0,0,1,.764-.166q.083,0,.457-.042a6.4,6.4,0,0,1,.706-.042h1.361l4.366-.05a16.865,16.865,0,0,1,5.188.548A4.78,4.78,0,0,1-20.071,17a5.09,5.09,0,0,1,.88,2.914q0,3.055-3.2,4.665a8.366,8.366,0,0,0-.862.5q.563,1.194,1.575,2.869l2.1,3.615a20.474,20.474,0,0,0,1.744,2.5,3.981,3.981,0,0,0,1.171.84,10.005,10.005,0,0,0,2.317.632q.017.166.017.266a2.328,2.328,0,0,1-.017.249q-2.274.033-5.329.033-.216,0-.6-.033-1.179-2.261-2.772-4.972l-2.457-4.49a2.991,2.991,0,0,0-.822-.872,1.8,1.8,0,0,0-.855-.174l-1.411.016-.465-.016q-.05.531-.05,2.175v5.677a3.062,3.062,0,0,0,.133.88,1.06,1.06,0,0,0,.457.506,9.85,9.85,0,0,0,1.868.573l.681.166a.7.7,0,0,1,.133.448,4.049,4.049,0,0,1-.63.083q-1.492,0-2.1-.033Q-28.882,36-29.08,36l-2.254.033-2.2-.017q-.149,0-1.508.05L-35.378,36l-.033-.166Q-35.411,35.685-35.18,35.485Zm6.16-10.857q.448.017.664.017a15.735,15.735,0,0,0,2.756-.282,4.508,4.508,0,0,0,1.776-.7,3.675,3.675,0,0,0,1.137-1.45,4.584,4.584,0,0,0,.457-1.989,4.862,4.862,0,0,0-.714-2.386,4.17,4.17,0,0,0-1.851-1.607,6.98,6.98,0,0,0-3.129-.646q-.448,0-1.162.05-.066.862-.066,1.326l.083,3.1-.017,1.276Q-29.086,22.623-29.02,24.628Zm14.692-1.66h1.24l.546.033.43-.033q1.7,0,2.117.033l.017.315q0,2.341-.066,4.532-.05,1.295-.05,1.478A19.985,19.985,0,0,0-9.9,32.979a1.929,1.929,0,0,0,.9,1.17,3.166,3.166,0,0,0,1.706.44,5.516,5.516,0,0,0,2.321-.506,7.015,7.015,0,0,0,1.889-1.237,10.741,10.741,0,0,0,.083-1.395q0-2.474.05-3.337.017-.515.017-.9A8.582,8.582,0,0,0-3.2,24.18q-.266-.349-2.025-.531-.581-.066-.847-.116a.723.723,0,0,1-.133-.332l.05-.183a7.384,7.384,0,0,1,.847-.05l2.64.033q1.411-.033,1.494-.033.183,0,.349.017L-.8,24.2Q-.913,26.72-.93,30.438l-.033,1.345L-.9,34.041a.726.726,0,0,0,.266.315,2.534,2.534,0,0,0,.813.083H.332q.216,0,1.229.1.017.216.017.315v.183a31.447,31.447,0,0,0-3.6.963,9.237,9.237,0,0,1-.93.266q-.083-.581-.083-.714V34.207q0-.083-.017-.448-.216.149-.5.365a15.336,15.336,0,0,1-2.772,1.71,4.283,4.283,0,0,1-1.893.481,3.545,3.545,0,0,1-2.839-1.295q-1.112-1.295-1.112-4.416,0-.166.017-.6.066-.8.066-1.112,0-.116-.017-.73-.017-.266-.017-.465,0-.149.017-.672t.017-.739q0-.282-.017-.5l-.033-.88.017-.465a.618.618,0,0,0-.266-.481,13.488,13.488,0,0,0-1.37-.324,2.345,2.345,0,0,1-.573-.141ZM2.64,15.431v-.365q.465-.149,1.029-.315.834-.266,2.47-.813h.784v.914q0,13.64-.083,16.265-.05,1.545-.05,1.645a6.919,6.919,0,0,0,.149,2.077q.2.3,1.22.415a4.22,4.22,0,0,1,1.2.233.238.238,0,0,1,.133.232.357.357,0,0,1-.075.257.386.386,0,0,1-.274.075q-.116,0-1.743-.057l-2.175-.076L2.44,36.05a.53.53,0,0,1-.4-.1.3.3,0,0,1-.1-.238.282.282,0,0,1,.108-.247,6.053,6.053,0,0,1,1.2-.259A4.342,4.342,0,0,0,4.491,34.9.836.836,0,0,0,4.7,34.34q.066-.6.066-3.37l-.017-3.818L4.8,23.2l-.017-3.951.05-1.942a1.482,1.482,0,0,0-.183-.838,1.825,1.825,0,0,0-.78-.506Q2.972,15.6,2.64,15.431Zm20.071,11.8-6.657.049H14.792q-.764,0-1.561.069a2.927,2.927,0,0,0-.149.681l.017.166v.166l-.017.813a6.477,6.477,0,0,0,.639,2.482A4.933,4.933,0,0,0,15.547,33.9a5.628,5.628,0,0,0,2.963.822,6.11,6.11,0,0,0,1.511-.232,7.647,7.647,0,0,0,1.594-.847l1.2-.979.1.664a2.015,2.015,0,0,1-.017.249A7.293,7.293,0,0,1,21,35.236a9.016,9.016,0,0,1-2.324,1.046,8.106,8.106,0,0,1-1.859.149,5.95,5.95,0,0,1-2.324-.481A5.659,5.659,0,0,1,11.829,33.6a7.5,7.5,0,0,1-.971-3.926,8.421,8.421,0,0,1,.274-1.876,9.864,9.864,0,0,1,.988-2.44A4.782,4.782,0,0,1,13.3,23.914,7.8,7.8,0,0,1,15.041,22.8a6.5,6.5,0,0,1,2.507-.448,4.922,4.922,0,0,1,4.507,2.49A4.507,4.507,0,0,1,22.711,27Zm-9.264-.6h.78q.847,0,5.047-.266a2.1,2.1,0,0,0,.813-.133.885.885,0,0,0,.3-.564,2.647,2.647,0,0,0-.332-1.17,2.288,2.288,0,0,0-1.021-1.013,3.435,3.435,0,0,0-1.6-.357,3.764,3.764,0,0,0-3.088,1.444A3.339,3.339,0,0,0,13.447,26.637Zm12.667,5.146a12.5,12.5,0,0,0,.93,2.042,4.71,4.71,0,0,0,1.511,1.469,3.671,3.671,0,0,0,1.909.523A2.856,2.856,0,0,0,32.34,35,1.891,1.891,0,0,0,33,33.576a3,3,0,0,0-.78-1.992,7.513,7.513,0,0,0-2.963-1.718,6.926,6.926,0,0,1-2.93-1.751,3.3,3.3,0,0,1-.747-2.125A3.349,3.349,0,0,1,26.2,24a3.763,3.763,0,0,1,1.693-1.3,5.314,5.314,0,0,1,1.992-.44A11.132,11.132,0,0,1,32,22.437,5.405,5.405,0,0,1,33.618,23q.133.847.216,2.49l.033.531q-.216.017-.365.017H33.27a4.766,4.766,0,0,0-1.519-2.183,3.269,3.269,0,0,0-2.017-.805,2.194,2.194,0,0,0-1.61.606,2.128,2.128,0,0,0-.614,1.585,1.983,1.983,0,0,0,.5,1.328A6.638,6.638,0,0,0,30.339,27.9a12.142,12.142,0,0,1,2.673,1.383,3.892,3.892,0,0,1,1.237,1.554,4.365,4.365,0,0,1,.4,1.745,3.482,3.482,0,0,1-.755,2.143A4.047,4.047,0,0,1,32,36.124a6.12,6.12,0,0,1-2.034.407,9.553,9.553,0,0,1-3.885-.78.652.652,0,0,1-.183-.5q0-.149-.033-.481Q25.6,32.53,25.6,32.115a.331.331,0,0,1,.083-.266A.84.84,0,0,1,26.114,31.783Z"
     id="text1672" />
</svg>
