<?xml version="1.0" encoding="UTF-8" standalone="no"?>
<svg
   xmlns:dc="http://purl.org/dc/elements/1.1/"
   xmlns:cc="http://creativecommons.org/ns#"
   xmlns:rdf="http://www.w3.org/1999/02/22-rdf-syntax-ns#"
   xmlns:svg="http://www.w3.org/2000/svg"
   xmlns="http://www.w3.org/2000/svg"
   xmlns:sodipodi="http://sodipodi.sourceforge.net/DTD/sodipodi-0.dtd"
   xmlns:inkscape="http://www.inkscape.org/namespaces/inkscape"
   inkscape:version="1.0 (4035a4fb49, 2020-05-01)"
   sodipodi:docname="My Pieces.svg"
   id="svg3"
   version="1.1"
   viewBox="0 0 79.688 57.931"
   height="57.931"
   width="79.688">
  <metadata
     id="metadata9">
    <rdf:RDF>
      <cc:Work
         rdf:about="">
        <dc:format>image/svg+xml</dc:format>
        <dc:type
           rdf:resource="http://purl.org/dc/dcmitype/StillImage" />
      </cc:Work>
    </rdf:RDF>
  </metadata>
  <defs
     id="defs7" />
  <sodipodi:namedview
     inkscape:current-layer="svg3"
     inkscape:window-maximized="1"
     inkscape:window-y="-9"
     inkscape:window-x="-9"
     inkscape:cy="40.122064"
     inkscape:cx="-0.11334234"
     inkscape:zoom="5.0654972"
     showgrid="false"
     id="namedview5"
     inkscape:window-height="1001"
     inkscape:window-width="1920"
     inkscape:pageshadow="2"
     inkscape:pageopacity="0"
     guidetolerance="10"
     gridtolerance="10"
     objecttolerance="10"
     borderopacity="1"
     bordercolor="#666666"
     pagecolor="#ffffff" />
  <path
     style="fill:#ffffff;fill-opacity:1"
     transform="translate(40.267 21.399)"
     d="M-21.018-.4a4.428,4.428,0,0,1,1.859-.5,3.491,3.491,0,0,0,1.245-.182.62.62,0,0,0,.2-.248,14.025,14.025,0,0,0,.365-3.323q.152-3.536.491-9.413.271-4.482.271-5.594v-.432q-1.2-.249-3.8-.532A.8.8,0,0,1-20.553-21a.807.807,0,0,1,.116-.3,1.421,1.421,0,0,1,.431-.1,5.232,5.232,0,0,1,.58.066,16.664,16.664,0,0,0,2.236.116q.464,0,1.59-.076.8-.057.895-.057a2.264,2.264,0,0,1,.613.1,1.494,1.494,0,0,1,.256.32l.695,1.56,4.7,10.392,1.959,4.362A73.773,73.773,0,0,0-2.91-12.733a2.733,2.733,0,0,1,.2-.481,5.7,5.7,0,0,0,.281-.631q.132-.349,1.075-2.656.381-.93.612-1.594Q.2-20.752.365-21.134a1.457,1.457,0,0,1,.549-.133,5.966,5.966,0,0,1,.682.05q.932.05,3.03.05,1.3,0,2.131-.033a1.679,1.679,0,0,1,.033.266,1.384,1.384,0,0,1-.05.315,2.981,2.981,0,0,1-1.278.315,8.315,8.315,0,0,0-1.876.232.848.848,0,0,0-.506.382,6.712,6.712,0,0,0-.191,1.527l.017.764-.017.8q0,2.49.133,8.367L3-4.98l.017,2.092a4.822,4.822,0,0,0,.116,1.453,1.2,1.2,0,0,0,.664.423A19.954,19.954,0,0,0,6.724-.4a.254.254,0,0,1,.116.216q0,.149-.017.332H6.059Q5.077.149,3.93.091T2.7.033Q-.71.033-1.824.109q-.682.057-.865.057A.562.562,0,0,1-2.938.1V-.116a1.1,1.1,0,0,1,.05-.315A5.055,5.055,0,0,1-1.395-.747a5.574,5.574,0,0,0,1.527-.6A13.874,13.874,0,0,0,.282-3.921L.232-7.278q0-.548.058-2.044T.349-14.19q0-2.675-.133-4.055-.281.581-1.108,2.523l-.248.631-.033.1L-3.62-9.181-4.5-6.939-5.637-4.217Q-6.381-2.341-6.91-.9q-.231.664-.38,1.046L-7.677.133q-1.878-5.479-4.479-11.239t-3.648-7.6q-.137.714-.308,4.15-.222,4.184-.222,9.214A30.494,30.494,0,0,0-16.1-1.805a1.1,1.1,0,0,0,.481.835,5.12,5.12,0,0,0,2.142.306,7.691,7.691,0,0,1,1.262.1A1.051,1.051,0,0,1-12.1-.19.925.925,0,0,1-12.184.1l-5.155-.183q-.563,0-1.757.074Q-19.758.035-21,.05ZM7.288-13.082q.365-.033.614-.033h.8l1.079-.033,1.411.05,1.146-.033a10.525,10.525,0,0,1,1.644.116.765.765,0,0,1,.066.266l-.017.133a3.363,3.363,0,0,1-1.079.232,3.424,3.424,0,0,0-1.478.365l-.033.183a1.508,1.508,0,0,0,.133.5q.083.2.217.6.367,1.231,1.584,4.757.884,2.544,1.634,4.374.458-1,1.046-2.543l1.394-3.941a15.811,15.811,0,0,0,.733-2.583,4.545,4.545,0,0,0,.1-.813.65.65,0,0,0-.216-.465,1.871,1.871,0,0,0-.863-.365,8.422,8.422,0,0,1-1.278-.374.433.433,0,0,1-.116-.324.8.8,0,0,1,.232-.133h1.029l1.112.017,1.66-.017,1.063.017.266-.017a3.508,3.508,0,0,1,.382.033.278.278,0,0,1,.166.266.393.393,0,0,1-.149.3l-.332.05a3.349,3.349,0,0,0-1.478.5,1.587,1.587,0,0,0-.481.83,6.04,6.04,0,0,1-.216.6q-.083.2-.24.664t-.406,1.095l-.2.464-.017.083L15.377-.838l-2.056,5.59q-.2.416-.465,1.033a11.16,11.16,0,0,1-.748,1.3,4.472,4.472,0,0,1-.865.866l-.848.367a2.052,2.052,0,0,1-.532.067,1.566,1.566,0,0,1-1.1-.326,1.166,1.166,0,0,1-.349-.9,1.258,1.258,0,0,1,.515-.97,2.074,2.074,0,0,0,.332-.133l.216-.05a15.126,15.126,0,0,0,1.845.266,1.356,1.356,0,0,0,.515-.43,13.961,13.961,0,0,0,1.4-2.694,7.019,7.019,0,0,0,.585-2.006A4.84,4.84,0,0,0,13.387-.5L11.542-5.379q-.383-.946-2.278-6.176a1.193,1.193,0,0,0-.3-.5l-1.129-.415-.349-.066q-.282-.116-.282-.332Zm-47.456,27.9a3.173,3.173,0,0,1,.382-.05q.564,0,1.859.066.681.017.93.017.365,0,1.544-.066l2.822-.166q1.112-.1,2.59-.1a9.739,9.739,0,0,1,4.15.738,5.183,5.183,0,0,1,2.382,2.313,6.623,6.623,0,0,1,.838,3.134A6.245,6.245,0,0,1-24.5,25.195a6.516,6.516,0,0,1-4.914,1.89,5.1,5.1,0,0,1-1.444-.174,5.158,5.158,0,0,1-1.328-.672.877.877,0,0,1-.382-.448.379.379,0,0,1,.183-.166,1.293,1.293,0,0,1,.481.1,4.347,4.347,0,0,0,1.428.2,5.057,5.057,0,0,0,2.482-.646,4.21,4.21,0,0,0,1.768-1.84,5.553,5.553,0,0,0,.6-2.519,5.407,5.407,0,0,0-.63-2.511,5.35,5.35,0,0,0-1.657-1.948,5.175,5.175,0,0,0-1.781-.7,8.785,8.785,0,0,0-1.864-.282,5.439,5.439,0,0,0-2.436.3l-.017.232.05,1.874-.017.332q-.033.448-.033,1.377,0,3.384.1,4.213v.929l.216,7.581q0,.166-.042.614t-.042.78a4.2,4.2,0,0,0,.133,1.211q.4.116,2.324.547.9.216.979.249a.477.477,0,0,1,.232.216.564.564,0,0,1-.174.324.816.816,0,0,1-.423.075q-.2,0-.93-.083-1.428-.149-2.241-.149l-2.922.116-1.743-.05q-.166,0-.963.033l-.017-.432,2.158-.415a1.383,1.383,0,0,0,.647-.3,1.712,1.712,0,0,0,.166-.912q0-.149.017-.647.017-.348.017-.962,0-1.957-.166-8.344-.066-2.986-.066-6.071v-.282q0-1.194-.365-1.509a6.822,6.822,0,0,0-3.071-.9.766.766,0,0,1-.083-.3A.685.685,0,0,1-40.167,14.816Zm20.752.78a1.256,1.256,0,0,1,.423-.946,1.436,1.436,0,0,1,1.021-.4,1.507,1.507,0,0,1,1.079.448,1.328,1.328,0,0,1,.465.963,1.354,1.354,0,0,1-.465.971,1.493,1.493,0,0,1-1.079.457A1.4,1.4,0,0,1-19,16.676,1.46,1.46,0,0,1-19.416,15.6Zm-1.395,8.616.017-.49q1.079-.316,1.162-.367a5.437,5.437,0,0,0,1.253-.816,5.654,5.654,0,0,0,1.1-1.233,2.032,2.032,0,0,1,.315-.033l.2.017q.066.8.066,1.162,0,.083-.033.747v.88l.017,4.781-.05,5.063a1.241,1.241,0,0,0,.2.855,3.24,3.24,0,0,0,1.278.54,10.093,10.093,0,0,1,1,.315.523.523,0,0,1,.05.2.544.544,0,0,1-.083.249q-.647-.017-1.66-.083-1.378-.116-1.826-.116-.216,0-2.656.083a8.9,8.9,0,0,0-.963.083A1.151,1.151,0,0,1-21.69,36a.365.365,0,0,1-.083-.2q0-.232.315-.365.066-.033,1.693-.381a1.08,1.08,0,0,0,.7-.332,1.761,1.761,0,0,0,.282-1.111q.033-1.276.033-7a5.859,5.859,0,0,0-.1-1.426,1.259,1.259,0,0,0-.44-.456A4.825,4.825,0,0,0-20.81,24.213ZM-.838,27.234l-6.657.049H-8.757q-.764,0-1.561.069a2.927,2.927,0,0,0-.149.681l.017.166v.166l-.017.813a6.477,6.477,0,0,0,.639,2.482A4.933,4.933,0,0,0-8,33.9a5.628,5.628,0,0,0,2.963.822,6.11,6.11,0,0,0,1.511-.232,7.647,7.647,0,0,0,1.594-.847l1.2-.979.1.664a2.014,2.014,0,0,1-.017.249,7.293,7.293,0,0,1-1.893,1.66,9.016,9.016,0,0,1-2.324,1.046,8.106,8.106,0,0,1-1.859.149,5.95,5.95,0,0,1-2.324-.481A5.659,5.659,0,0,1-11.721,33.6a7.5,7.5,0,0,1-.971-3.926,8.421,8.421,0,0,1,.274-1.876,9.864,9.864,0,0,1,.988-2.44,4.782,4.782,0,0,1,1.179-1.444A7.8,7.8,0,0,1-8.508,22.8,6.5,6.5,0,0,1-6,22.354a5.011,5.011,0,0,1,2.523.564,5,5,0,0,1,1.984,1.926A4.507,4.507,0,0,1-.838,27Zm-9.264-.6h.78q.847,0,5.047-.266a2.1,2.1,0,0,0,.813-.133.885.885,0,0,0,.3-.564,2.647,2.647,0,0,0-.332-1.17,2.288,2.288,0,0,0-1.021-1.013,3.435,3.435,0,0,0-1.6-.357,3.764,3.764,0,0,0-3.088,1.444A3.339,3.339,0,0,0-10.1,26.637Zm23.541,6.325.017,1.079A7.994,7.994,0,0,1,10.9,35.967a7.418,7.418,0,0,1-2.972.548,6.02,6.02,0,0,1-3.354-.971,6.268,6.268,0,0,1-2.3-2.748,8.4,8.4,0,0,1-.805-3.486,6.935,6.935,0,0,1,.971-3.544,6.252,6.252,0,0,1,2.573-2.49,8.777,8.777,0,0,1,4.026-.822,6.459,6.459,0,0,1,3.536.8,1.4,1.4,0,0,1,.681,1.2,1.193,1.193,0,0,1-.349.88,1.214,1.214,0,0,1-.9.349,2.737,2.737,0,0,1-1.826-1.029,4.213,4.213,0,0,0-1.112-.872,2.523,2.523,0,0,0-1.112-.241A3.034,3.034,0,0,0,5.5,24.744a6.782,6.782,0,0,0-1.361,4.333A6.274,6.274,0,0,0,5.537,33.36a4.212,4.212,0,0,0,3.254,1.594,5.875,5.875,0,0,0,2.3-.423A9.606,9.606,0,0,0,13.439,32.962Zm14.045-5.728-6.657.049H19.565q-.764,0-1.561.069a2.927,2.927,0,0,0-.149.681l.017.166v.166l-.017.813a6.477,6.477,0,0,0,.639,2.482A4.933,4.933,0,0,0,20.32,33.9a5.628,5.628,0,0,0,2.963.822,6.11,6.11,0,0,0,1.511-.232,7.647,7.647,0,0,0,1.594-.847l1.2-.979.1.664a2.015,2.015,0,0,1-.017.249,7.293,7.293,0,0,1-1.893,1.66,9.016,9.016,0,0,1-2.324,1.046,8.106,8.106,0,0,1-1.859.149,5.95,5.95,0,0,1-2.324-.481A5.659,5.659,0,0,1,16.6,33.6a7.5,7.5,0,0,1-.971-3.926A8.421,8.421,0,0,1,15.9,27.8a9.864,9.864,0,0,1,.988-2.44,4.782,4.782,0,0,1,1.179-1.444A7.8,7.8,0,0,1,19.814,22.8a6.5,6.5,0,0,1,2.507-.448,4.922,4.922,0,0,1,4.507,2.49A4.507,4.507,0,0,1,27.484,27Zm-9.264-.6H19q.847,0,5.047-.266a2.1,2.1,0,0,0,.813-.133.885.885,0,0,0,.3-.564,2.647,2.647,0,0,0-.332-1.17,2.288,2.288,0,0,0-1.021-1.013,3.435,3.435,0,0,0-1.6-.357,3.764,3.764,0,0,0-3.088,1.444A3.339,3.339,0,0,0,18.22,26.637Zm12.667,5.146a12.5,12.5,0,0,0,.93,2.042,4.71,4.71,0,0,0,1.511,1.469,3.671,3.671,0,0,0,1.909.523A2.856,2.856,0,0,0,37.113,35a1.891,1.891,0,0,0,.664-1.428A3,3,0,0,0,37,31.584a7.513,7.513,0,0,0-2.963-1.718,6.926,6.926,0,0,1-2.93-1.751,3.3,3.3,0,0,1-.747-2.125A3.349,3.349,0,0,1,30.97,24a3.763,3.763,0,0,1,1.693-1.3,5.314,5.314,0,0,1,1.992-.44,11.132,11.132,0,0,1,2.117.183A5.405,5.405,0,0,1,38.391,23q.133.847.216,2.49l.033.531q-.216.017-.365.017h-.232a4.766,4.766,0,0,0-1.519-2.183,3.269,3.269,0,0,0-2.017-.805,2.194,2.194,0,0,0-1.61.606,2.128,2.128,0,0,0-.614,1.585,1.983,1.983,0,0,0,.5,1.328A6.638,6.638,0,0,0,35.112,27.9a12.142,12.142,0,0,1,2.673,1.383,3.892,3.892,0,0,1,1.237,1.554,4.365,4.365,0,0,1,.4,1.745,3.482,3.482,0,0,1-.755,2.143,4.047,4.047,0,0,1-1.893,1.4,6.12,6.12,0,0,1-2.034.407,9.553,9.553,0,0,1-3.885-.78.652.652,0,0,1-.183-.5q0-.149-.033-.481-.266-2.241-.266-2.656a.331.331,0,0,1,.083-.266A.84.84,0,0,1,30.887,31.783Z"
     id="text859" />
</svg>
