<?xml version="1.0" encoding="UTF-8" standalone="no"?>
<svg
   xmlns:dc="http://purl.org/dc/elements/1.1/"
   xmlns:cc="http://creativecommons.org/ns#"
   xmlns:rdf="http://www.w3.org/1999/02/22-rdf-syntax-ns#"
   xmlns:svg="http://www.w3.org/2000/svg"
   xmlns="http://www.w3.org/2000/svg"
   xmlns:sodipodi="http://sodipodi.sourceforge.net/DTD/sodipodi-0.dtd"
   xmlns:inkscape="http://www.inkscape.org/namespaces/inkscape"
   inkscape:version="1.0 (4035a4fb49, 2020-05-01)"
   sodipodi:docname="New Game.svg"
   id="svg3"
   version="1.1"
   viewBox="0 0 78.027 57.781"
   height="57.781"
   width="78.027">
  <metadata
     id="metadata9">
    <rdf:RDF>
      <cc:Work
         rdf:about="">
        <dc:format>image/svg+xml</dc:format>
        <dc:type
           rdf:resource="http://purl.org/dc/dcmitype/StillImage" />
      </cc:Work>
    </rdf:RDF>
  </metadata>
  <defs
     id="defs7" />
  <sodipodi:namedview
     inkscape:current-layer="svg3"
     inkscape:window-maximized="1"
     inkscape:window-y="-9"
     inkscape:window-x="-9"
     inkscape:cy="28.890499"
     inkscape:cx="39.0135"
     inkscape:zoom="14.364584"
     showgrid="false"
     id="namedview5"
     inkscape:window-height="1001"
     inkscape:window-width="1920"
     inkscape:pageshadow="2"
     inkscape:pageopacity="0"
     guidetolerance="10"
     gridtolerance="10"
     objecttolerance="10"
     borderopacity="1"
     bordercolor="#666666"
     pagecolor="#ffffff" />
  <path
     style="fill:#ffffff;fill-opacity:1"
     transform="translate(38.64 21.35)"
     d="M-31.07-20.3l-.017-.8q2.573,0,3.769-.133.465-.05.647-.05.149,0,.448.017a9.211,9.211,0,0,1,1.295,1.328q.133.149.3.332l3.5,3.868.5.6q1.063,1.245,1.934,2.125t3.4,3.669l3.968,4.4q.581.647,1.494,1.61L-9.82-3.6q-.1-2.308-.1-2.44l.066-1L-9.886-8.6v-.714q0-.681-.116-4.2-.017-.481-.133-1.818t-.116-2.349a5.48,5.48,0,0,0-.216-2.125,3.025,3.025,0,0,0-1.411-.448q-.3-.017-.93-.1a4.647,4.647,0,0,1-.88-.083.6.6,0,0,1-.266-.282,1.529,1.529,0,0,1,.149-.5,3.088,3.088,0,0,1,.88-.133,7.155,7.155,0,0,1,1.154.116,7.513,7.513,0,0,0,1.237.116q.764,0,2.374-.1.913-.066,1.262-.066h.282l-.033.515a2.157,2.157,0,0,1-.73.141,3.8,3.8,0,0,0-.863.141,1.888,1.888,0,0,0-.714.315,1.3,1.3,0,0,0-.4.88l.183,5.246.133,2.407-.017.7.1,3.337q.1,3.42.1,5.943,0,.548-.066,2.374L-9.7.78q-.581-.664-4-4.184-.8-.813-1.079-1.146l-1.428-1.644q-.83-.913-1.079-1.162l-.365-.365q-1.81-2.059-4.7-5.146-.781-.83-2.292-2.59-.947-1.112-1.2-1.361a5.908,5.908,0,0,0-.681-.564l-.05.564q0,3.237.166,8.932l.116,5.5q.017.7.083,1.345l.581.133q1.577.149,3.1.448a1.539,1.539,0,0,0,.2.149l-.017.631A1.523,1.523,0,0,1-22.769.4a3.714,3.714,0,0,1-.448-.033q-1.644-.133-4-.133-1.66,0-2.922.083l-.232.017A3.992,3.992,0,0,1-30.8.3l-.017-.5.432-.2.78-.116a7.8,7.8,0,0,0,1.527-.332,1.217,1.217,0,0,0,.515-.349,22.944,22.944,0,0,0,.183-3.354q0-1.029-.05-3.769v-2.258l-.033-4.715a20.46,20.46,0,0,0-.216-3.719,1.1,1.1,0,0,0-.415-.531A3.5,3.5,0,0,0-29.75-20.1,11.034,11.034,0,0,1-31.07-20.3ZM7.844-8.766l-6.657.049H-.075q-.764,0-1.561.069a2.927,2.927,0,0,0-.149.681l.017.166v.166l-.017.813a6.477,6.477,0,0,0,.639,2.482A4.933,4.933,0,0,0,.681-2.1a5.628,5.628,0,0,0,2.963.822,6.11,6.11,0,0,0,1.511-.232,7.647,7.647,0,0,0,1.594-.847l1.2-.979.1.664a2.014,2.014,0,0,1-.017.249A7.293,7.293,0,0,1,6.134-.764,9.016,9.016,0,0,1,3.81.282,8.106,8.106,0,0,1,1.951.432,5.95,5.95,0,0,1-.374-.05,5.659,5.659,0,0,1-3.038-2.4a7.5,7.5,0,0,1-.971-3.926A8.421,8.421,0,0,1-3.735-8.2a9.864,9.864,0,0,1,.988-2.44,4.782,4.782,0,0,1,1.179-1.444A7.8,7.8,0,0,1,.174-13.2a6.5,6.5,0,0,1,2.507-.448,5.011,5.011,0,0,1,2.523.564,5,5,0,0,1,1.984,1.926A4.507,4.507,0,0,1,7.844-9Zm-9.264-.6h.78q.847,0,5.047-.266a2.1,2.1,0,0,0,.813-.133.885.885,0,0,0,.3-.564,2.647,2.647,0,0,0-.332-1.17,2.288,2.288,0,0,0-1.021-1.013,3.435,3.435,0,0,0-1.6-.357A3.764,3.764,0,0,0-.523-11.422,3.339,3.339,0,0,0-1.419-9.363Zm9.928-3.719,6.375.017a.353.353,0,0,1,.249.066.271.271,0,0,1,.066.2.5.5,0,0,1-.248.465,3.527,3.527,0,0,0-1.437.282.635.635,0,0,0-.281.548,1.451,1.451,0,0,0,.033.315,12.286,12.286,0,0,0,.481,1.179q.564,1.312,2.008,4.25L17.73-1.743a47.758,47.758,0,0,0,2.728-5.489L19.441-9.895q-.165-.365-.422-1.1a2.683,2.683,0,0,0-.4-.855,3.826,3.826,0,0,0-1.018-.374A4.106,4.106,0,0,1,16.56-12.6l-.017-.116a.661.661,0,0,1,.1-.282,2.767,2.767,0,0,1,.631-.1l.946.017H20.3l.631-.017,2.042.033q.249,0,.415-.017h.282q.1,0,.282.017l-.033.531a2.2,2.2,0,0,1-.83.216,4.91,4.91,0,0,0-1.677.415.562.562,0,0,0-.183.349,2.785,2.785,0,0,0,.2.913q.067.166.349,1.029l1.781,4.682q.782,2.092,1.2,2.922a42.6,42.6,0,0,0,1.956-4.6Q27.156-7.77,27.9-9.38a4.243,4.243,0,0,0,.481-1.753.862.862,0,0,0-.282-.651,3.158,3.158,0,0,0-1.313-.5,6.962,6.962,0,0,1-.914-.247.428.428,0,0,1-.083-.211.49.49,0,0,1,.183-.324h.249l1.345-.016q.083,0,.764.025t1.328.025q.5,0,1.146-.033h.83a.307.307,0,0,1,.141.083.261.261,0,0,1,.042.166,1.781,1.781,0,0,1-.05.4,3.341,3.341,0,0,0-1.278.374,5.092,5.092,0,0,0-1.262,1.5L26.262-3.4q-.414,1-1.441,3.055-.215.432-.323.7A.929.929,0,0,1,24.291.7a.4.4,0,0,1-.265.083,1.075,1.075,0,0,1-.316-.066Q23.244-.2,21.648-4.32q-.436-1.1-.8-1.865Q18.146-.543,17.306.747a2.931,2.931,0,0,1-.363.033A2.552,2.552,0,0,1,16.6.747l-3.14-6.558-2.874-5.611a2.236,2.236,0,0,0-.465-.631,2.8,2.8,0,0,0-1-.3q-.4-.066-.614-.1-.017-.249-.017-.382Q8.492-12.916,8.508-13.082ZM-18.054,15.846l.183,2.523q.1,1.146.1,1.561l-.465.083A9.407,9.407,0,0,0-21,16.228a6.464,6.464,0,0,0-4.042-1.262,11.629,11.629,0,0,0-4.549.714,9.288,9.288,0,0,0-4.034,3.52A10.617,10.617,0,0,0-35.3,25.242a10.328,10.328,0,0,0,.614,3.669,11.134,11.134,0,0,0,1.735,3.03,11.815,11.815,0,0,0,2.648,2.432A7.377,7.377,0,0,0-27.932,35.4a10.979,10.979,0,0,0,2.324.183A9.809,9.809,0,0,0-23.4,35.3a4.8,4.8,0,0,0,1.826-.755,2.45,2.45,0,0,0,.838-1.071,7.813,7.813,0,0,0,.224-2.324q0-2.872-.382-3.345t-2.407-.623l-.664-.05-.448.017q-.1-.017-.266-.05l-.249-.415a.377.377,0,0,1,.116-.216,32.017,32.017,0,0,1,3.752-.133q.647,0,2.108.033l1.71.066,1.544-.017q.448,0,1.079.033a.237.237,0,0,1,.149.058.23.23,0,0,1,.033.141,1.72,1.72,0,0,1-.083.465,5.547,5.547,0,0,1-1.079.149l-1.079-.017a1.109,1.109,0,0,0-.88.382,2.531,2.531,0,0,0-.166,1.245l.017,2.175a13.215,13.215,0,0,1-.183,2.855,1.381,1.381,0,0,1-.415.656,4.751,4.751,0,0,1-1.328.689,12.881,12.881,0,0,1-2.623.78,24.658,24.658,0,0,1-4.233.382,14.7,14.7,0,0,1-5.387-.838,10.81,10.81,0,0,1-3.619-2.333,9.55,9.55,0,0,1-2.167-3.021,11.3,11.3,0,0,1-.979-4.565A11.632,11.632,0,0,1-37.1,19.971a11.28,11.28,0,0,1,4.956-4.524,14.531,14.531,0,0,1,6.541-1.229,18.128,18.128,0,0,1,4.673.5A11.9,11.9,0,0,1-18.054,15.846ZM-.49,33.742a.879.879,0,0,1,.1.315,2.14,2.14,0,0,1-.4.88,3.574,3.574,0,0,1-1.146,1.212,2.06,2.06,0,0,1-1.1.249,2.181,2.181,0,0,1-1.793-.73,3.11,3.11,0,0,1-.515-1.544L-7.2,35.419a7.641,7.641,0,0,1-1.494.714,8.005,8.005,0,0,1-1.992.216,1.773,1.773,0,0,1-1.336-.506,1.8,1.8,0,0,1-.49-1.3A4.54,4.54,0,0,1-11.1,31.8a10.306,10.306,0,0,1,3.819-2.606q1.7-.714,2.08-.913.033-.548.033-1.2a4.874,4.874,0,0,0-.591-2.855,2.029,2.029,0,0,0-1.69-.747,3.166,3.166,0,0,0-2.148.9,3.964,3.964,0,0,0-.933,2.125,3.518,3.518,0,0,1-.382.93,2.324,2.324,0,0,1-1.146.465,1.108,1.108,0,0,1-.664-.216.327.327,0,0,1-.166-.266,5.725,5.725,0,0,1,.921-1.951,6.1,6.1,0,0,1,2.324-2.274A5.34,5.34,0,0,1-7.2,22.437a6.544,6.544,0,0,1,2.125.257,2.87,2.87,0,0,1,1.229.9A2.883,2.883,0,0,1-3.2,25.01a25.948,25.948,0,0,1,.066,2.606l-.05,2.64.017,1.926q0,.382-.017.647-.017.481-.017.714a1.225,1.225,0,0,0,.315.88,1,1,0,0,0,.747.332,1.3,1.3,0,0,0,1.079-.631l.2-.266A1.547,1.547,0,0,1-.49,33.742Zm-4.865-.481q.116-2.108.116-2.972,0-.448-.05-1.212a11.442,11.442,0,0,0-2.365,1.212,7.01,7.01,0,0,0-1.982,1.876,2.556,2.556,0,0,0-.533,1.444,1.447,1.447,0,0,0,.441,1.079,1.52,1.52,0,0,0,1.108.432,2.92,2.92,0,0,0,1.25-.365A8.347,8.347,0,0,0-5.354,33.261ZM.49,35.436a1.715,1.715,0,0,1,.73-.249,3.273,3.273,0,0,0,1.029-.266,1.229,1.229,0,0,0,.4-.714,38.684,38.684,0,0,0,.116-4.2,29,29,0,0,0-.216-4.565,3.016,3.016,0,0,0-.946-.365q-.183-.033-.764-.183v-.556A5,5,0,0,0,2.431,23.6a10.878,10.878,0,0,0,1.692-1.8h.1q.1,0,.317-.017a.424.424,0,0,1,.217.083L4.74,23.765q0,.581.033,1.245a13.169,13.169,0,0,1,3.182-2.258,5.244,5.244,0,0,1,2.171-.432,4.163,4.163,0,0,1,2.287.548,5.235,5.235,0,0,1,1.607,1.976A10.571,10.571,0,0,1,16.7,22.8a5.545,5.545,0,0,1,2.432-.581,4.1,4.1,0,0,1,3.055,1.213A5.129,5.129,0,0,1,23.4,27.041v1.38l.017,1.513-.017,3.89a1.436,1.436,0,0,0,.3,1.031q.133.05,1.013.3a2.394,2.394,0,0,1,.647.233.286.286,0,0,1,.1.233,1.2,1.2,0,0,1-.1.432h-.116l-1.673-.1q-.3-.017-.944-.017-.795,0-2.219.066h-.845q-.182,0-.712.017a2.434,2.434,0,0,1-.017-.266.7.7,0,0,1,.116-.332,5.087,5.087,0,0,1,1.229-.324q.78-.125.971-.449a8.763,8.763,0,0,0,.191-2.585q0-4.9-.116-5.686a3.054,3.054,0,0,0-1.057-1.954,3.275,3.275,0,0,0-2.155-.707,3.986,3.986,0,0,0-1.947.523A7.064,7.064,0,0,0,14.2,25.807l-.017.4v2.54l-.066,1.976q0,3.021.058,3.437a.934.934,0,0,0,.282.606,3.254,3.254,0,0,0,1.3.34,7.476,7.476,0,0,1,.747.133.535.535,0,0,1,.2.432.312.312,0,0,1-.149.3h-.282l-.83-.017H10.617l-1.328.017a3.09,3.09,0,0,1-.033-.365l.017-.2a5.145,5.145,0,0,1,1.361-.382,5.831,5.831,0,0,0,1.063-.282.506.506,0,0,0,.149-.216,6.4,6.4,0,0,0,.116-1.328l.083-1.926-.033-2.175.017-1.212A4.435,4.435,0,0,0,11.2,24.9a2.665,2.665,0,0,0-2.087-.938,5.32,5.32,0,0,0-2.36.581A5.642,5.642,0,0,0,4.79,26.105q-.017.465-.017.847l.066,5.578a5.812,5.812,0,0,0,.208,2.083,1.3,1.3,0,0,0,.855.357,3.768,3.768,0,0,1,1.378.365.335.335,0,0,1,.149.3q0,.133-.017.315-1.9-.133-2.546-.133-.666,0-1.2.017l-.832.05H2.32L.457,35.95a.728.728,0,0,1-.033-.192A1.687,1.687,0,0,1,.49,35.436Zm38.7-8.2-6.657.049H31.269q-.764,0-1.561.069a2.927,2.927,0,0,0-.149.681l.017.166v.166l-.017.813a6.477,6.477,0,0,0,.639,2.482A4.933,4.933,0,0,0,32.024,33.9a5.628,5.628,0,0,0,2.963.822,6.11,6.11,0,0,0,1.511-.232,7.647,7.647,0,0,0,1.594-.847l1.2-.979.1.664a2.014,2.014,0,0,1-.017.249,7.293,7.293,0,0,1-1.893,1.66,9.016,9.016,0,0,1-2.324,1.046,8.106,8.106,0,0,1-1.859.149,5.95,5.95,0,0,1-2.324-.481A5.659,5.659,0,0,1,28.306,33.6a7.5,7.5,0,0,1-.971-3.926,8.421,8.421,0,0,1,.274-1.876,9.864,9.864,0,0,1,.988-2.44,4.782,4.782,0,0,1,1.179-1.444A7.8,7.8,0,0,1,31.518,22.8a6.5,6.5,0,0,1,2.507-.448,4.922,4.922,0,0,1,4.507,2.49A4.507,4.507,0,0,1,39.188,27Zm-9.264-.6h.78q.847,0,5.047-.266a2.1,2.1,0,0,0,.813-.133.885.885,0,0,0,.3-.564,2.647,2.647,0,0,0-.332-1.17,2.288,2.288,0,0,0-1.021-1.013,3.435,3.435,0,0,0-1.6-.357,3.764,3.764,0,0,0-3.088,1.444A3.339,3.339,0,0,0,29.924,26.637Z"
     id="text2090" />
</svg>
