<?xml version="1.0" encoding="UTF-8" standalone="no"?>
<svg
   xmlns:dc="http://purl.org/dc/elements/1.1/"
   xmlns:cc="http://creativecommons.org/ns#"
   xmlns:rdf="http://www.w3.org/1999/02/22-rdf-syntax-ns#"
   xmlns:svg="http://www.w3.org/2000/svg"
   xmlns="http://www.w3.org/2000/svg"
   xmlns:sodipodi="http://sodipodi.sourceforge.net/DTD/sodipodi-0.dtd"
   xmlns:inkscape="http://www.inkscape.org/namespaces/inkscape"
   width="120"
   height="80"
   viewBox="0 0 119.99999 80"
   version="1.1"
   id="svg3"
   sodipodi:docname="Chess Rules.svg"
   inkscape:version="1.0 (4035a4fb49, 2020-05-01)">
  <metadata
     id="metadata9">
    <rdf:RDF>
      <cc:Work
         rdf:about="">
        <dc:format>image/svg+xml</dc:format>
        <dc:type
           rdf:resource="http://purl.org/dc/dcmitype/StillImage" />
        <dc:title />
      </cc:Work>
    </rdf:RDF>
  </metadata>
  <defs
     id="defs7" />
  <sodipodi:namedview
     inkscape:document-rotation="0"
     pagecolor="#ffffff"
     bordercolor="#666666"
     borderopacity="1"
     objecttolerance="10"
     gridtolerance="10"
     guidetolerance="10"
     inkscape:pageopacity="0"
     inkscape:pageshadow="2"
     inkscape:window-width="1842"
     inkscape:window-height="1051"
     id="namedview5"
     showgrid="false"
     inkscape:zoom="0.31133224"
     inkscape:cx="1227.1931"
     inkscape:cy="268.91727"
     inkscape:window-x="69"
     inkscape:window-y="-9"
     inkscape:window-maximized="1"
     inkscape:current-layer="svg3" />
  <path
     style="fill:#f5b400;fill-opacity:1"
     id="text916"
     d="m 40.718063,12.476223 a 17.012,17.012 0 0 1 0.2,2.623 q 0,0.266 -0.017,0.714 a 1.834,1.834 0 0 1 -0.349,0.05 1.7,1.7 0 0 1 -0.282,-0.033 5.825,5.825 0 0 0 -2.274,-2.988 6.907,6.907 0 0 0 -3.902,-1.046 6.622,6.622 0 0 0 -2.075,0.282 8.664,8.664 0 0 0 -2.618,1.418 8.5,8.5 0 0 0 -1.909,2.158 10.785,10.785 0 0 0 -1.242,3.042 14.645,14.645 0 0 0 -0.457,3.644 13.916,13.916 0 0 0 1.08,5.866 6.808,6.808 0 0 0 2.955,3.3 8.051,8.051 0 0 0 3.785,0.99 l 0.78,-0.017 a 12.413,12.413 0 0 0 1.808,-0.314 8.454,8.454 0 0 0 2,-0.822 6.6,6.6 0 0 0 1.544,-1.336 8.383,8.383 0 0 0 1.289,-2.011 l 0.2,-0.066 a 0.565,0.565 0 0 1 0.249,0.1 q -0.017,0.4 -0.033,0.515 -0.7,2.806 -1.013,3.835 -0.266,0.066 -0.664,0.2 a 16.514,16.514 0 0 1 -5.2,0.664 15.992,15.992 0 0 1 -3.924,-0.357 16.221,16.221 0 0 1 -2.838,-1.112 9.234,9.234 0 0 1 -2.7,-2 9.377,9.377 0 0 1 -1.876,-3.146 11.691,11.691 0 0 1 -0.714,-4.142 11.06,11.06 0 0 1 0.564,-3.71 12.881,12.881 0 0 1 1.743,-3.212 11.028,11.028 0 0 1 2.781,-2.706 10.508,10.508 0 0 1 3.561,-1.527 19.5,19.5 0 0 1 3.9,-0.3 11.978,11.978 0 0 1 3.47,0.49 6.617,6.617 0 0 1 2.178,0.954 z m 2.574,19.905 a 10.7,10.7 0 0 0 2.241,-0.531 q 0.183,-0.116 0.183,-0.531 l -0.015,-1.094 0.017,-1.941 -0.033,-4.943 0.016,-1.845 v -1.31 l 0.05,-1.609 q 0,-3.782 -0.075,-4.52 a 1.489,1.489 0 0 0 -0.291,-0.921 5.686,5.686 0 0 0 -2.191,-0.8 v -0.083 a 2.354,2.354 0 0 1 0.033,-0.332 q 0.232,-0.033 0.448,-0.083 a 2.93,2.93 0 0 1 0.415,-0.066 13.04,13.04 0 0 0 2.872,-1.1 h 0.813 q 0.033,0.465 0.033,2.94 l -0.017,2.109 0.017,2.724 -0.066,3.355 q 0,0.3 0.033,0.664 a 15.652,15.652 0 0 1 1.53,-1.613 7.52,7.52 0 0 1 1.845,-1.095 5.324,5.324 0 0 1 2.062,-0.408 4,4 0 0 1 3.343,1.724 4.753,4.753 0 0 1 0.746,2.869 l -0.05,1.691 0.017,0.945 -0.067,1.642 q -0.066,2.039 -0.066,2.421 0,0.431 0.033,1.161 l 0.946,0.216 q 0.946,0.2 1.461,0.365 l -0.014,0.514 -3.536,-0.1 q -0.3,0 -1.627,0.066 -0.814,0.034 -0.946,0.034 h -0.365 a 0.544,0.544 0 0 1 -0.086,-0.249 v -0.151 a 1.316,1.316 0 0 1 0.863,-0.4 l 1,-0.232 a 0.608,0.608 0 0 0 0.232,-0.348 q 0.066,-0.431 0.149,-4.277 l 0.033,-1.227 a 10.566,10.566 0 0 0 -0.3,-3.216 2.328,2.328 0 0 0 -1.057,-1.4 3.481,3.481 0 0 0 -1.905,-0.522 3.889,3.889 0 0 0 -1.7,0.381 6.51,6.51 0 0 0 -1.315,0.98 5.857,5.857 0 0 0 -1.065,1.194 2.221,2.221 0 0 0 -0.2,1.092 l 0.017,1.158 -0.033,1.208 q 0,0.149 0.05,2.068 l -0.017,1.059 0.033,1.158 a 1.9,1.9 0 0 0 0.05,0.364 l 2.345,0.56 a 5.193,5.193 0 0 1 0.548,0.2 l 0.05,0.187 a 0.786,0.786 0 0 1 -0.083,0.272 q -0.481,0.017 -0.73,0.017 l -1.295,-0.017 -2.856,0.041 -2.142,0.066 q -0.166,-0.017 -0.5,-0.033 l -0.017,-0.116 a 0.645,0.645 0 0 1 0.136,-0.332 z m 29.849,-8.351 -6.657,0.049 h -1.262 q -0.764,0 -1.561,0.069 a 2.927,2.927 0 0 0 -0.149,0.681 l 0.017,0.166 v 0.166 l -0.017,0.813 a 6.477,6.477 0 0 0 0.639,2.481 4.933,4.933 0 0 0 1.827,2.241 5.628,5.628 0 0 0 2.963,0.822 6.11,6.11 0 0 0 1.511,-0.232 7.647,7.647 0 0 0 1.594,-0.847 l 1.2,-0.979 0.1,0.664 a 2.014,2.014 0 0 1 -0.017,0.249 7.293,7.293 0 0 1 -1.898,1.659 9.016,9.016 0 0 1 -2.324,1.046 8.106,8.106 0 0 1 -1.859,0.15 5.95,5.95 0 0 1 -2.325,-0.482 5.659,5.659 0 0 1 -2.664,-2.35 7.5,7.5 0 0 1 -0.971,-3.926 8.421,8.421 0 0 1 0.274,-1.874 9.864,9.864 0 0 1 0.988,-2.44 4.782,4.782 0 0 1 1.179,-1.444 7.8,7.8 0 0 1 1.742,-1.116 6.5,6.5 0 0 1 2.507,-0.448 5.011,5.011 0 0 1 2.523,0.564 5,5 0 0 1 1.984,1.926 4.507,4.507 0 0 1 0.656,2.158 z m -9.264,-0.6 h 0.78 q 0.847,0 5.047,-0.266 a 2.1,2.1 0 0 0 0.813,-0.133 0.885,0.885 0 0 0 0.3,-0.564 2.647,2.647 0 0 0 -0.332,-1.17 2.288,2.288 0 0 0 -1.021,-1.013 3.435,3.435 0 0 0 -1.6,-0.357 3.764,3.764 0 0 0 -3.088,1.444 3.339,3.339 0 0 0 -0.899,2.062 z m 12.667,5.149 a 12.5,12.5 0 0 0 0.93,2.042 4.71,4.71 0 0 0 1.511,1.469 3.671,3.671 0 0 0 1.909,0.523 2.856,2.856 0 0 0 1.876,-0.817 1.891,1.891 0 0 0 0.664,-1.428 3,3 0 0 0 -0.78,-1.992 7.513,7.513 0 0 0 -2.963,-1.718 6.926,6.926 0 0 1 -2.93,-1.751 3.3,3.3 0 0 1 -0.747,-2.125 3.349,3.349 0 0 1 0.613,-1.986 3.763,3.763 0 0 1 1.693,-1.3 5.314,5.314 0 0 1 1.992,-0.44 11.132,11.132 0 0 1 2.117,0.183 5.405,5.405 0 0 1 1.619,0.557 q 0.133,0.847 0.216,2.49 l 0.033,0.531 q -0.216,0.017 -0.365,0.017 h -0.231 a 4.766,4.766 0 0 0 -1.519,-2.183 3.269,3.269 0 0 0 -2.017,-0.805 2.194,2.194 0 0 0 -1.61,0.606 2.128,2.128 0 0 0 -0.614,1.585 1.983,1.983 0 0 0 0.5,1.328 6.638,6.638 0 0 0 2.329,1.331 12.142,12.142 0 0 1 2.673,1.383 3.892,3.892 0 0 1 1.237,1.554 4.365,4.365 0 0 1 0.4,1.745 3.482,3.482 0 0 1 -0.755,2.143 4.047,4.047 0 0 1 -1.893,1.4 6.12,6.12 0 0 1 -2.031,0.406 9.553,9.553 0 0 1 -3.885,-0.78 0.652,0.652 0 0 1 -0.183,-0.5 q 0,-0.149 -0.033,-0.481 -0.266,-2.241 -0.266,-2.656 a 0.331,0.331 0 0 1 0.083,-0.266 0.84,0.84 0 0 1 0.427,-0.065 z m 12.4,0 a 12.5,12.5 0 0 0 0.93,2.042 4.71,4.71 0 0 0 1.512,1.469 3.671,3.671 0 0 0 1.909,0.523 2.856,2.856 0 0 0 1.876,-0.817 1.891,1.891 0 0 0 0.664,-1.428 3,3 0 0 0 -0.78,-1.992 7.513,7.513 0 0 0 -2.963,-1.718 6.926,6.926 0 0 1 -2.93,-1.751 3.3,3.3 0 0 1 -0.747,-2.125 3.349,3.349 0 0 1 0.614,-1.986 3.763,3.763 0 0 1 1.693,-1.3 5.314,5.314 0 0 1 1.992,-0.44 11.132,11.132 0 0 1 2.117,0.183 5.405,5.405 0 0 1 1.619,0.557 q 0.133,0.847 0.216,2.49 l 0.033,0.531 q -0.216,0.017 -0.365,0.017 h -0.233 a 4.766,4.766 0 0 0 -1.519,-2.183 3.269,3.269 0 0 0 -2.017,-0.805 2.194,2.194 0 0 0 -1.61,0.606 2.128,2.128 0 0 0 -0.614,1.585 1.983,1.983 0 0 0 0.5,1.328 6.638,6.638 0 0 0 2.33,1.331 12.142,12.142 0 0 1 2.673,1.383 3.892,3.892 0 0 1 1.237,1.549 4.365,4.365 0 0 1 0.4,1.745 3.482,3.482 0 0 1 -0.755,2.143 4.047,4.047 0 0 1 -1.895,1.404 6.12,6.12 0 0 1 -2.03,0.407 9.553,9.553 0 0 1 -3.885,-0.78 0.652,0.652 0 0 1 -0.183,-0.5 q 0,-0.149 -0.033,-0.481 -0.269,-2.24 -0.269,-2.655 a 0.331,0.331 0 0 1 0.083,-0.266 0.84,0.84 0 0 1 0.432,-0.066 z m -64.125,39.7 a 23.318,23.318 0 0 0 2.726,-0.4 0.87,0.87 0 0 0 0.4,-0.5 v -0.183 q 0,-0.415 0.132,-3 0.033,-0.73 0.033,-1.426 l -0.05,-1.974 0.033,-2.239 -0.017,-4.164 0.017,-2.986 a 4.915,4.915 0 0 0 -0.292,-2.301 2.465,2.465 0 0 0 -1.585,-0.589 7.514,7.514 0 0 1 -1.411,-0.257 0.29,0.29 0 0 1 -0.133,-0.265 1.188,1.188 0 0 1 0.05,-0.3 1.323,1.323 0 0 1 0.764,-0.166 q 0.083,0 0.457,-0.042 a 6.4,6.4 0 0 1 0.706,-0.042 h 1.361 l 4.366,-0.05 a 16.865,16.865 0 0 1 5.188,0.548 4.78,4.78 0 0 1 2.366,1.853 5.09,5.09 0 0 1 0.88,2.914 q 0,3.055 -3.2,4.665 a 8.366,8.366 0 0 0 -0.862,0.5 q 0.563,1.194 1.575,2.869 l 2.1,3.615 a 20.474,20.474 0 0 0 1.744,2.5 3.981,3.981 0 0 0 1.171,0.84 10.005,10.005 0 0 0 2.317,0.632 q 0.017,0.166 0.017,0.266 a 2.328,2.328 0 0 1 -0.017,0.249 q -2.274,0.033 -5.329,0.033 -0.216,0 -0.6,-0.033 -1.179,-2.261 -2.772,-4.972 l -2.457,-4.49 a 2.991,2.991 0 0 0 -0.822,-0.872 1.8,1.8 0 0 0 -0.855,-0.174 l -1.411,0.016 -0.465,-0.016 q -0.05,0.531 -0.05,2.175 v 5.677 a 3.062,3.062 0 0 0 0.133,0.88 1.06,1.06 0 0 0 0.457,0.506 9.85,9.85 0 0 0 1.868,0.573 l 0.681,0.166 a 0.7,0.7 0 0 1 0.133,0.448 4.049,4.049 0 0 1 -0.63,0.083 q -1.492,0 -2.1,-0.033 -0.317,-0.017 -0.515,-0.017 l -2.254,0.033 -2.2,-0.017 q -0.149,0 -1.508,0.05 l -0.336,-0.066 -0.033,-0.166 q 0,-0.149 0.231,-0.349 z m 6.16,-10.857 q 0.448,0.017 0.664,0.017 a 15.735,15.735 0 0 0 2.756,-0.282 4.508,4.508 0 0 0 1.776,-0.7 3.675,3.675 0 0 0 1.137,-1.45 4.584,4.584 0 0 0 0.457,-1.989 4.862,4.862 0 0 0 -0.714,-2.386 4.17,4.17 0 0 0 -1.851,-1.607 6.98,6.98 0 0 0 -3.129,-0.646 q -0.448,0 -1.162,0.05 -0.066,0.862 -0.066,1.326 l 0.083,3.1 -0.017,1.276 q 0.002,1.288 0.068,3.293 z m 14.692,-1.66 h 1.24 l 0.546,0.033 0.43,-0.033 q 1.7,0 2.117,0.033 l 0.017,0.315 q 0,2.341 -0.066,4.532 -0.05,1.295 -0.05,1.478 a 19.985,19.985 0 0 0 0.196,3.655 1.929,1.929 0 0 0 0.9,1.17 3.166,3.166 0 0 0 1.706,0.44 5.516,5.516 0 0 0 2.321,-0.506 7.015,7.015 0 0 0 1.889,-1.237 10.741,10.741 0 0 0 0.083,-1.395 q 0,-2.474 0.05,-3.337 0.017,-0.515 0.017,-0.9 a 8.582,8.582 0 0 0 -0.266,-3.034 q -0.266,-0.349 -2.025,-0.531 -0.581,-0.066 -0.847,-0.116 a 0.723,0.723 0 0 1 -0.133,-0.332 l 0.05,-0.183 a 7.384,7.384 0 0 1 0.847,-0.05 l 2.64,0.033 q 1.411,-0.033 1.494,-0.033 0.183,0 0.349,0.017 l 0.025,1.215 q -0.113,2.52 -0.13,6.238 l -0.033,1.345 0.063,2.258 a 0.726,0.726 0 0 0 0.266,0.315 2.534,2.534 0 0 0 0.813,0.083 h 0.153 q 0.216,0 1.229,0.1 0.017,0.216 0.017,0.315 v 0.183 a 31.447,31.447 0 0 0 -3.6,0.963 9.237,9.237 0 0 1 -0.93,0.266 q -0.083,-0.581 -0.083,-0.714 v -1.345 q 0,-0.083 -0.017,-0.448 -0.216,0.149 -0.5,0.365 a 15.336,15.336 0 0 1 -2.772,1.71 4.283,4.283 0 0 1 -1.893,0.481 3.545,3.545 0 0 1 -2.839,-1.295 q -1.112,-1.295 -1.112,-4.416 0,-0.166 0.017,-0.6 0.066,-0.8 0.066,-1.112 0,-0.116 -0.017,-0.73 -0.017,-0.266 -0.017,-0.465 0,-0.149 0.017,-0.672 0.017,-0.523 0.017,-0.739 0,-0.282 -0.017,-0.5 l -0.033,-0.88 0.017,-0.465 a 0.618,0.618 0 0 0 -0.266,-0.481 13.488,13.488 0 0 0 -1.37,-0.324 2.345,2.345 0 0 1 -0.573,-0.141 z m 16.97,-7.535 v -0.365 q 0.465,-0.149 1.029,-0.315 0.834,-0.266 2.47,-0.813 h 0.784 v 0.914 q 0,13.64 -0.083,16.265 -0.05,1.545 -0.05,1.645 a 6.919,6.919 0 0 0 0.149,2.077 q 0.2,0.3 1.22,0.415 a 4.22,4.22 0 0 1 1.2,0.233 0.238,0.238 0 0 1 0.133,0.232 0.357,0.357 0 0 1 -0.075,0.257 0.386,0.386 0 0 1 -0.274,0.075 q -0.116,0 -1.743,-0.057 l -2.175,-0.076 -2.785,0.132 a 0.53,0.53 0 0 1 -0.4,-0.1 0.3,0.3 0 0 1 -0.1,-0.238 0.282,0.282 0 0 1 0.108,-0.247 6.053,6.053 0 0 1 1.2,-0.259 4.342,4.342 0 0 0 1.243,-0.306 0.836,0.836 0 0 0 0.209,-0.56 q 0.066,-0.6 0.066,-3.37 l -0.017,-3.818 0.051,-3.952 -0.017,-3.951 0.05,-1.942 a 1.482,1.482 0 0 0 -0.183,-0.838 1.825,1.825 0 0 0 -0.78,-0.506 q -0.898,-0.363 -1.23,-0.532 z m 20.071,11.8 -6.657,0.049 h -1.262 q -0.764,0 -1.561,0.069 a 2.927,2.927 0 0 0 -0.149,0.681 l 0.017,0.166 v 0.166 l -0.017,0.813 a 6.477,6.477 0 0 0 0.639,2.482 4.933,4.933 0 0 0 1.826,2.243 5.628,5.628 0 0 0 2.963,0.822 6.11,6.11 0 0 0 1.511,-0.232 7.647,7.647 0 0 0 1.594,-0.847 l 1.2,-0.979 0.1,0.664 a 2.015,2.015 0 0 1 -0.017,0.249 7.293,7.293 0 0 1 -1.898,1.659 9.016,9.016 0 0 1 -2.324,1.046 8.106,8.106 0 0 1 -1.859,0.149 5.95,5.95 0 0 1 -2.324,-0.481 5.659,5.659 0 0 1 -2.664,-2.35 7.5,7.5 0 0 1 -0.971,-3.926 8.421,8.421 0 0 1 0.274,-1.876 9.864,9.864 0 0 1 0.988,-2.44 4.782,4.782 0 0 1 1.18,-1.444 7.8,7.8 0 0 1 1.741,-1.114 6.5,6.5 0 0 1 2.507,-0.448 4.922,4.922 0 0 1 4.507,2.49 4.507,4.507 0 0 1 0.656,2.158 z m -9.264,-0.6 h 0.78 q 0.847,0 5.047,-0.266 a 2.1,2.1 0 0 0 0.813,-0.133 0.885,0.885 0 0 0 0.3,-0.564 2.647,2.647 0 0 0 -0.332,-1.17 2.288,2.288 0 0 0 -1.021,-1.013 3.435,3.435 0 0 0 -1.6,-0.357 3.764,3.764 0 0 0 -3.088,1.444 3.339,3.339 0 0 0 -0.899,2.065 z m 12.667,5.146 a 12.5,12.5 0 0 0 0.93,2.042 4.71,4.71 0 0 0 1.511,1.469 3.671,3.671 0 0 0 1.909,0.523 2.856,2.856 0 0 0 1.876,-0.811 1.891,1.891 0 0 0 0.66,-1.424 3,3 0 0 0 -0.78,-1.992 7.513,7.513 0 0 0 -2.963,-1.718 6.926,6.926 0 0 1 -2.93,-1.751 3.3,3.3 0 0 1 -0.747,-2.125 3.349,3.349 0 0 1 0.62,-1.99 3.763,3.763 0 0 1 1.693,-1.3 5.314,5.314 0 0 1 1.992,-0.44 11.132,11.132 0 0 1 2.115,0.177 5.405,5.405 0 0 1 1.618,0.563 q 0.133,0.847 0.216,2.49 l 0.033,0.531 q -0.216,0.017 -0.365,0.017 h -0.232 a 4.766,4.766 0 0 0 -1.519,-2.183 3.269,3.269 0 0 0 -2.017,-0.805 2.194,2.194 0 0 0 -1.61,0.606 2.128,2.128 0 0 0 -0.614,1.585 1.983,1.983 0 0 0 0.5,1.328 6.638,6.638 0 0 0 2.329,1.331 12.142,12.142 0 0 1 2.673,1.383 3.892,3.892 0 0 1 1.237,1.554 4.365,4.365 0 0 1 0.4,1.745 3.482,3.482 0 0 1 -0.755,2.143 4.047,4.047 0 0 1 -1.894,1.399 6.12,6.12 0 0 1 -2.034,0.407 9.553,9.553 0 0 1 -3.885,-0.78 0.652,0.652 0 0 1 -0.183,-0.5 q 0,-0.149 -0.033,-0.481 -0.265,-2.24 -0.265,-2.655 a 0.331,0.331 0 0 1 0.083,-0.266 0.84,0.84 0 0 1 0.431,-0.066 z" />
</svg>
