<svg xmlns="http://www.w3.org/2000/svg" width="238.482" height="25.137" viewBox="0 0 238.482 25.137">
    <path id="Path_16" data-name="Path 16" d="M-.193-.562A.909.909,0,0,1,.246-.7h.4q.123,0,.422-.018a6.911,6.911,0,0,0,1.6-.246,2.706,2.706,0,0,0,1.054-1.16,42.306,42.306,0,0,0,2.057-5.08q.545-1.564.686-1.9.439-1.055.844-2.215l1.653-4.623q.387-1.09,1.864-4.992.369-.984.9-2.637l.517-.035.615.018a24.285,24.285,0,0,1,1.334,3.217q.316.914,1.036,2.725L17.9-10.424,19.318-6.5q1.125,3.34,1.477,4.1a2.975,2.975,0,0,0,.65,1.011,2.632,2.632,0,0,0,.659.211q.571.141.8.211a7.261,7.261,0,0,1,1.125.387.955.955,0,0,1,.07.3,1.019,1.019,0,0,1-.053.264Q23.484,0,23.256,0q-.9,0-3.164-.053l-1.758-.04-2.127.026q-.211,0-.431-.02T15.4-.105h-.387a.879.879,0,0,1-.352-.105,1.311,1.311,0,0,1,.088-.475,1.13,1.13,0,0,1,.387-.123L16.98-.932a3.3,3.3,0,0,0,1.09-.194,1.679,1.679,0,0,0,.105-.475,7.637,7.637,0,0,0-.457-1.638q-.316-.881-.553-1.673T15.3-10.125a7.622,7.622,0,0,0-1.266-.123l-3.762.035L9.161-10.23a10.962,10.962,0,0,0-1.318.088q-.229.527-.3.756L5.994-4.553A24.409,24.409,0,0,0,5.01-1.512a1.6,1.6,0,0,0,.158.527,7.678,7.678,0,0,0,.984.193L8.543-.58q.193.158.193.281a1.019,1.019,0,0,1-.053.264q-.791.018-1.213.018-1.406,0-3.27-.088Q3.34-.141,2.971-.141T1.688-.105Q1.09-.07.826-.07.4-.07-.264-.123V-.229A1.131,1.131,0,0,1-.193-.562ZM8.194-11.109Q10.075-11,12.483-11q1.371,0,2.408-.088a11.831,11.831,0,0,0-.4-1.283q-1.141-3.057-1.264-3.374l-1.6-4.059-.176-.316q-.106.211-.775,1.81-1.127,2.741-1.619,4.27-.229.685-.475,1.362a9.251,9.251,0,0,0-.308.949,3.05,3.05,0,0,1-.185.553ZM24.961-13.8h1.313l.578.035.455-.035q1.8,0,2.241.035l.018.334q0,2.479-.07,4.8-.053,1.371-.053,1.564a21.161,21.161,0,0,0,.2,3.867A2.043,2.043,0,0,0,30.6-1.96a3.352,3.352,0,0,0,1.806.466,5.841,5.841,0,0,0,2.458-.536,7.428,7.428,0,0,0,2-1.31,11.373,11.373,0,0,0,.088-1.477q0-2.619.053-3.533.018-.545.018-.949a9.086,9.086,0,0,0-.281-3.217q-.281-.369-2.145-.562-.615-.07-.9-.123a.766.766,0,0,1-.141-.352l.053-.193a7.818,7.818,0,0,1,.9-.053l2.795.035q1.494-.035,1.582-.035.193,0,.369.018l.035,1.283q-.123,2.672-.141,6.609l-.035,1.424.07,2.391a.768.768,0,0,0,.281.334,2.683,2.683,0,0,0,.861.088h.158q.229,0,1.3.105.018.229.018.334v.193A33.3,33.3,0,0,0,37.986,0,9.78,9.78,0,0,1,37,.281q-.088-.615-.088-.756V-1.9q0-.088-.018-.475-.229.158-.527.387A16.238,16.238,0,0,1,33.434-.176a4.535,4.535,0,0,1-2,.51,3.754,3.754,0,0,1-3.006-1.371q-1.178-1.371-1.178-4.676,0-.176.018-.633.07-.844.07-1.178,0-.123-.018-.773-.018-.281-.018-.492,0-.158.018-.712t.018-.782q0-.3-.018-.527l-.035-.932.018-.492a.654.654,0,0,0-.281-.51,14.281,14.281,0,0,0-1.45-.343,2.483,2.483,0,0,1-.606-.149Zm22.078-3.568.545.018.07,1.67-.035,2.162q.334.018.422.018.457,0,1.74-.07.826-.053,1.582-.053.352,0,1.055.018.035.352.035.563a3.873,3.873,0,0,1-.105.721h-.3l-2.725.088-1.354.035-.316.035a3.35,3.35,0,0,0-.141,1.02l.053,2.637-.035,4.641a4.226,4.226,0,0,0,.475,2.426,1.6,1.6,0,0,0,1.371.615A9.76,9.76,0,0,0,51.1-1.107a3.078,3.078,0,0,0,1.037-.58h.158a.345.345,0,0,1,.255.1.345.345,0,0,1,.1.255l-.018.123A4.567,4.567,0,0,1,50.9-.009,7.327,7.327,0,0,1,48.3.369a3.2,3.2,0,0,1-1.89-.527,2.341,2.341,0,0,1-.958-1.248,14.273,14.273,0,0,1-.211-3.146l.07-3.955-.018-1.9v-.7q0-.492-.035-.984l-.3-.018-1.441.053-.141.018a.419.419,0,0,1-.29-.088.275.275,0,0,1-.1-.211.464.464,0,0,1,.132-.343,3.266,3.266,0,0,1,.8-.413,4.159,4.159,0,0,0,1.063-.729,5.778,5.778,0,0,0,1.028-1.187,10.408,10.408,0,0,0,.6-1.336Q46.9-17.068,47.039-17.367ZM53.191-.439A11.334,11.334,0,0,0,55.564-1q.193-.123.193-.562L55.74-2.723l.018-2.055-.035-5.234.018-1.95v-1.388l.053-1.7q0-4-.079-4.786a1.577,1.577,0,0,0-.308-.975,6.02,6.02,0,0,0-2.32-.843v-.088a2.492,2.492,0,0,1,.035-.352q.246-.035.475-.088a3.1,3.1,0,0,1,.439-.07,13.807,13.807,0,0,0,3.041-1.16h.861q.035.492.035,3.113l-.018,2.234.018,2.884-.07,3.553q0,.316.035.7a16.572,16.572,0,0,1,1.62-1.708,7.963,7.963,0,0,1,1.955-1.171,5.637,5.637,0,0,1,2.184-.431,4.24,4.24,0,0,1,3.539,1.826,5.032,5.032,0,0,1,.792,3.037l-.053,1.791.018,1-.07,1.738q-.07,2.159-.07,2.563,0,.456.035,1.229l1,.228q1,.211,1.547.386l-.018.545L66.674,0q-.316,0-1.723.07-.861.035-1,.035h-.387a.576.576,0,0,1-.088-.264V-.316a1.393,1.393,0,0,1,.914-.422l1.055-.246a.644.644,0,0,0,.246-.369q.07-.456.158-4.529l.035-1.3a11.188,11.188,0,0,0-.317-3.405,2.465,2.465,0,0,0-1.119-1.483,3.686,3.686,0,0,0-2.017-.553,4.118,4.118,0,0,0-1.8.4,6.893,6.893,0,0,0-1.392,1.036,6.2,6.2,0,0,0-1.128,1.264A2.351,2.351,0,0,0,57.9-8.762l.018,1.226-.035,1.279q0,.158.053,2.19L57.92-2.946l.035,1.226a2.016,2.016,0,0,0,.053.385l2.479.6a5.5,5.5,0,0,1,.58.216l.053.2a.833.833,0,0,1-.088.288q-.51.018-.773.018L58.887-.035,55.863,0,53.6.07Q53.42.053,53.068.035l-.018-.123A.683.683,0,0,1,53.191-.439ZM72.158-7.066a7.43,7.43,0,0,1,.5-2.558,7.105,7.105,0,0,1,1.521-2.443,7.065,7.065,0,0,1,2.162-1.608,9.275,9.275,0,0,1,3.9-.738,7.381,7.381,0,0,1,5.493,2.25A7.455,7.455,0,0,1,87.943-6.75a6.772,6.772,0,0,1-2.312,5.019A8.126,8.126,0,0,1,79.787.475,7.955,7.955,0,0,1,75.674-.668,7.394,7.394,0,0,1,73.2-3.217,7.2,7.2,0,0,1,72.158-7.066ZM79.936-.211a5.069,5.069,0,0,0,2.58-.721A5,5,0,0,0,84.5-3.243a8.65,8.65,0,0,0,.74-3.683,10.752,10.752,0,0,0-.572-3.182A5.293,5.293,0,0,0,82.9-12.823a4.475,4.475,0,0,0-2.791-.905,5.724,5.724,0,0,0-2.368.545A4.525,4.525,0,0,0,75.7-11.092,9.387,9.387,0,0,0,74.865-6.7a7.109,7.109,0,0,0,1.453,4.843A4.632,4.632,0,0,0,79.936-.211ZM89.965.053l-.07-.229a.806.806,0,0,1,.158-.369L91.09-.756l1.459-.263a.5.5,0,0,0,.246-.246A4.722,4.722,0,0,0,92.9-2.616q0-5.967-.07-6.888a2.026,2.026,0,0,0-.316-1.167,2.537,2.537,0,0,0-1.266-.386,4.345,4.345,0,0,1-.949-.228l.07-.536a9.983,9.983,0,0,0,2.479-1.3,6.58,6.58,0,0,0,1.494-2.08l.6.018q.105.879.105,3.9l-.018.3a2.467,2.467,0,0,0,.035.334,10.187,10.187,0,0,1,1.67-2.232l.4-.4a2.665,2.665,0,0,1,.475-.439,4.2,4.2,0,0,1,1.828-.738,1.667,1.667,0,0,1,1.266.519,1.781,1.781,0,0,1,.492,1.274,1.223,1.223,0,0,1-.352.932,1.558,1.558,0,0,1-1.09.439,4.2,4.2,0,0,1-1.107-.3,4.253,4.253,0,0,0-1.09-.3,1.111,1.111,0,0,0-.686.158,5.969,5.969,0,0,0-1.2,1.582,3.232,3.232,0,0,0-.545,1.652L95.221-5.6l.035,3.488a2.646,2.646,0,0,0,.141.775,1.068,1.068,0,0,0,.352.3q1.9.158,2.25.229.246.018.369.035a2.156,2.156,0,0,1,1.055.211A.284.284,0,0,1,99.58-.3a.516.516,0,0,1-.141.281L97.488-.053,96.75-.07l-1.072.018H93.885L92.918,0Zm14.069-14.168-.954-5.2a19.591,19.591,0,0,1-.406-2.918,2.4,2.4,0,0,1,.459-1.635,1.6,1.6,0,0,1,1.254-.51,1.789,1.789,0,0,1,1.316.519,1.792,1.792,0,0,1,.521,1.327,24.8,24.8,0,0,1-.459,3.234l-.954,5.186Zm6.128,9.65a13.231,13.231,0,0,0,.984,2.162,4.987,4.987,0,0,0,1.6,1.556,3.886,3.886,0,0,0,2.021.554,3.024,3.024,0,0,0,1.986-.861,2,2,0,0,0,.7-1.512,3.181,3.181,0,0,0-.826-2.109A7.955,7.955,0,0,0,113.493-6.5a7.334,7.334,0,0,1-3.1-1.854,3.493,3.493,0,0,1-.791-2.25,3.546,3.546,0,0,1,.65-2.109,3.985,3.985,0,0,1,1.793-1.38,5.626,5.626,0,0,1,2.109-.466,11.787,11.787,0,0,1,2.241.193,5.723,5.723,0,0,1,1.714.6q.141.9.229,2.637l.035.563q-.229.018-.387.018h-.246a5.046,5.046,0,0,0-1.608-2.312,3.461,3.461,0,0,0-2.136-.853,2.323,2.323,0,0,0-1.705.642,2.254,2.254,0,0,0-.65,1.679,2.1,2.1,0,0,0,.527,1.406,7.028,7.028,0,0,0,2.47,1.4,12.857,12.857,0,0,1,2.83,1.465,4.121,4.121,0,0,1,1.31,1.645,4.622,4.622,0,0,1,.422,1.847,3.686,3.686,0,0,1-.8,2.27,4.285,4.285,0,0,1-2,1.487,6.48,6.48,0,0,1-2.153.431,10.115,10.115,0,0,1-4.113-.826.69.69,0,0,1-.193-.527q0-.158-.035-.51-.281-2.373-.281-2.812a.35.35,0,0,1,.088-.281A.889.889,0,0,1,110.162-4.465ZM153.211-21.34l.193,2.672q.105,1.213.105,1.652l-.492.088a9.96,9.96,0,0,0-2.927-4.008,6.844,6.844,0,0,0-4.28-1.336,12.313,12.313,0,0,0-4.816.756,9.835,9.835,0,0,0-4.271,3.727,11.242,11.242,0,0,0-1.775,6.4,10.935,10.935,0,0,0,.65,3.885A11.789,11.789,0,0,0,137.435-4.3a12.51,12.51,0,0,0,2.8,2.575,7.811,7.811,0,0,0,2.514,1.09,11.625,11.625,0,0,0,2.461.193,10.386,10.386,0,0,0,2.338-.3,5.087,5.087,0,0,0,1.934-.8,2.594,2.594,0,0,0,.888-1.134,8.273,8.273,0,0,0,.237-2.461q0-3.041-.4-3.542t-2.549-.659l-.7-.053-.475.018q-.105-.018-.281-.053l-.264-.439a.4.4,0,0,1,.123-.229,33.9,33.9,0,0,1,3.973-.141q.686,0,2.232.035l1.811.07,1.635-.018q.475,0,1.143.035a.251.251,0,0,1,.158.062.243.243,0,0,1,.035.149,1.821,1.821,0,0,1-.088.492,5.873,5.873,0,0,1-1.143.158l-1.143-.018a1.174,1.174,0,0,0-.932.4,2.68,2.68,0,0,0-.176,1.318l.018,2.3a13.993,13.993,0,0,1-.193,3.023,1.462,1.462,0,0,1-.439.694,5.031,5.031,0,0,1-1.406.729,13.639,13.639,0,0,1-2.777.826,26.109,26.109,0,0,1-4.482.4,15.56,15.56,0,0,1-5.7-.888,11.446,11.446,0,0,1-3.832-2.47,10.112,10.112,0,0,1-2.294-3.2,11.964,11.964,0,0,1-1.037-4.834,12.316,12.316,0,0,1,1.626-6.021,11.943,11.943,0,0,1,5.247-4.79,15.385,15.385,0,0,1,6.926-1.3,19.194,19.194,0,0,1,4.948.527A12.6,12.6,0,0,1,153.211-21.34Zm6.8-.264a1.33,1.33,0,0,1,.448-1,1.521,1.521,0,0,1,1.081-.422,1.6,1.6,0,0,1,1.143.475,1.406,1.406,0,0,1,.492,1.02,1.434,1.434,0,0,1-.492,1.028,1.581,1.581,0,0,1-1.143.483,1.48,1.48,0,0,1-1.09-.439A1.546,1.546,0,0,1,160.014-21.6Zm-1.477,9.123.018-.519q1.143-.335,1.23-.388a5.757,5.757,0,0,0,1.327-.864,5.987,5.987,0,0,0,1.169-1.305,2.152,2.152,0,0,1,.334-.035l.211.018q.07.844.07,1.23,0,.088-.035.791v.932l.018,5.063L162.826-2.2a1.314,1.314,0,0,0,.211.905,3.431,3.431,0,0,0,1.354.571,10.687,10.687,0,0,1,1.055.334.553.553,0,0,1,.053.211.576.576,0,0,1-.088.264Q164.725.07,163.652,0q-1.459-.123-1.934-.123-.229,0-2.812.088a9.429,9.429,0,0,0-1.02.088A1.219,1.219,0,0,1,157.605,0a.387.387,0,0,1-.088-.211q0-.246.334-.387.07-.035,1.793-.4a1.144,1.144,0,0,0,.738-.351,1.864,1.864,0,0,0,.3-1.176q.035-1.351.035-7.407a6.2,6.2,0,0,0-.105-1.51,1.334,1.334,0,0,0-.466-.483A5.108,5.108,0,0,0,158.537-12.48Zm12.252-4.887.545.018.07,1.67-.035,2.162q.334.018.422.018.457,0,1.74-.07.826-.053,1.582-.053.352,0,1.055.018.035.352.035.563a3.873,3.873,0,0,1-.105.721h-.3l-2.725.088-1.354.035-.316.035a3.35,3.35,0,0,0-.141,1.02l.053,2.637-.035,4.641a4.226,4.226,0,0,0,.475,2.426,1.6,1.6,0,0,0,1.371.615,9.76,9.76,0,0,0,1.723-.281,3.078,3.078,0,0,0,1.037-.58h.158a.345.345,0,0,1,.255.1.345.345,0,0,1,.1.255l-.018.123a4.567,4.567,0,0,1-1.731,1.2,7.327,7.327,0,0,1-2.593.378,3.2,3.2,0,0,1-1.89-.527,2.341,2.341,0,0,1-.958-1.248A14.273,14.273,0,0,1,169-4.553l.07-3.955-.018-1.9v-.7q0-.492-.035-.984l-.3-.018-1.441.053-.141.018a.419.419,0,0,1-.29-.088.275.275,0,0,1-.1-.211.464.464,0,0,1,.132-.343,3.266,3.266,0,0,1,.8-.413,4.159,4.159,0,0,0,1.063-.729,5.778,5.778,0,0,0,1.028-1.187,10.408,10.408,0,0,0,.6-1.336Q170.648-17.068,170.789-17.367ZM176.941.281l.018-.387a3.642,3.642,0,0,1,1.389-.422,6.274,6.274,0,0,0,1.582-.325.991.991,0,0,0,.475-.466A3,3,0,0,0,180.65-2.5l-.035-1.337.018-1.232L180.6-6.509q0-.9.053-2.243t.053-1.434v-4.8q0-1.143.053-2.472t.053-1.839a11.2,11.2,0,0,0-.07-1.759.55.55,0,0,0-.264-.352,4.862,4.862,0,0,0-1.266-.194q-.826-.07-1.143-.123a.811.811,0,0,1-.088-.316q0-.141.018-.334.422-.035.65-.035l1.652.018q1.758,0,3.727-.141.967-.07,2.918-.123a1.38,1.38,0,0,1,.035.3.419.419,0,0,1-.079.272.442.442,0,0,1-.272.132,6.129,6.129,0,0,0-2.716.571q-.413.378-.413,1.925,0,2.848.088,5.871l.07,1.652a16.375,16.375,0,0,0,2.285.176q.6.035.7.035l2.584-.035,1.705.053,4.465-.14a5.654,5.654,0,0,0,1-.07q.105-3.048.105-5.9a22.19,22.19,0,0,0-.123-3.241.6.6,0,0,0-.246-.4q-.105-.052-1.828-.28-.3-.035-.562-.088a1.98,1.98,0,0,1-.088-.613,7.075,7.075,0,0,1,.756-.09l1.16.063q1.6.078,3.217.078,1.037,0,3.445-.176a3.3,3.3,0,0,1-.088.633,5.5,5.5,0,0,1-1.6.334,3.3,3.3,0,0,0-1,.193,1.193,1.193,0,0,0-.334,1q0,.176.018.387.018.633.018.826v2.021l.018,1.266-.035,1.635.018,3.059-.035,2.883q0,.861.053,2.689l-.018,2.373a4.885,4.885,0,0,0,.211,1.705.646.646,0,0,0,.352.352l1.424.316a4.327,4.327,0,0,1,1.257.431.5.5,0,0,1,.2.4l-.053.211-.088.018a.988.988,0,0,1-.229-.035A22.278,22.278,0,0,0,198.3-.229q-1.652,0-2.347.053t-2.892.387a2.467,2.467,0,0,1-.035-.334,2.152,2.152,0,0,1,.035-.334A4.526,4.526,0,0,1,194.783-.9a2.311,2.311,0,0,0,1.389-.562,1.224,1.224,0,0,0,.334-.932l-.018-2.531q.053-1.143.053-1.248,0-1.494-.053-4.359-.053-.246-.193-.3a27.86,27.86,0,0,0-4.676.07q-.844.053-1.266.053t-1.767-.044q-1.345-.044-2.487-.044-.615,0-1.037.018-.809.018-.9.018a.753.753,0,0,0-.554.158.852.852,0,0,0-.149.58l.018,1.23q0,.3-.088,3.322-.018.615-.018,1.02a18.244,18.244,0,0,0,.176,3.2.773.773,0,0,0,.316.51,7.166,7.166,0,0,0,1.371.369,9.437,9.437,0,0,1,1.23.334l.105.176a.167.167,0,0,1-.07.141.454.454,0,0,1-.3.088q-.141,0-.334-.009t-.756-.026q-.9-.018-2.232-.123-.861-.07-1.529-.07-1.125,0-3.6.121Q177.275.281,176.941.281ZM204.205-13.8h1.313l.578.035.455-.035q1.8,0,2.241.035l.018.334q0,2.479-.07,4.8-.053,1.371-.053,1.564a21.161,21.161,0,0,0,.2,3.867,2.043,2.043,0,0,0,.951,1.239,3.352,3.352,0,0,0,1.806.466,5.841,5.841,0,0,0,2.458-.536,7.428,7.428,0,0,0,2-1.31,11.373,11.373,0,0,0,.088-1.477q0-2.619.053-3.533.018-.545.018-.949a9.086,9.086,0,0,0-.281-3.217q-.281-.369-2.145-.562-.615-.07-.9-.123a.766.766,0,0,1-.141-.352l.053-.193a7.818,7.818,0,0,1,.9-.053l2.795.035q1.494-.035,1.582-.035.193,0,.369.018l.035,1.283q-.123,2.672-.141,6.609l-.035,1.424.07,2.391a.768.768,0,0,0,.281.334,2.683,2.683,0,0,0,.861.088h.158q.229,0,1.3.105.018.229.018.334v.193A33.3,33.3,0,0,0,217.23,0a9.78,9.78,0,0,1-.984.281q-.088-.615-.088-.756V-1.9q0-.088-.018-.475-.229.158-.527.387a16.238,16.238,0,0,1-2.936,1.811,4.535,4.535,0,0,1-2,.51,3.754,3.754,0,0,1-3.006-1.371q-1.178-1.371-1.178-4.676,0-.176.018-.633.07-.844.07-1.178,0-.123-.018-.773-.018-.281-.018-.492,0-.158.018-.712t.018-.782q0-.3-.018-.527l-.035-.932.018-.492a.654.654,0,0,0-.281-.51,14.281,14.281,0,0,0-1.45-.343,2.483,2.483,0,0,1-.606-.149Zm17.631-8.271v-.089a1.361,1.361,0,0,1,.141-.5,31.217,31.217,0,0,0,4.1-1.037,2.985,2.985,0,0,1,.387-.018,1.641,1.641,0,0,1,.088.369v5.238l-.018,1.67.018,1.863-.035,1.512q0,.088.035.6l1.441-.545,1.512-.457q1.635-.264,1.9-.264a8.456,8.456,0,0,1,3.164.563A5.452,5.452,0,0,1,236.268-12a5.557,5.557,0,0,1,1.248,1.731,7.651,7.651,0,0,1,.7,2.883,9.624,9.624,0,0,1-.246,2.654,8.544,8.544,0,0,1-1.459,2.777,6.91,6.91,0,0,1-2.408,1.74,7.689,7.689,0,0,1-3.287.721,7.732,7.732,0,0,1-3.023-.6,9.941,9.941,0,0,0-1.6-.6q-.545,0-1.389,1.441L224.3.738q-.07-1.176-.07-2.9l.035-2.616-.018-1.334.035-3.828-.035-.737.07-1.808v-1.545l.018-.632q0-.193-.018-1.528v-1.053a9.771,9.771,0,0,0-.265-3.529A4.179,4.179,0,0,0,221.836-22.069ZM230.2-.457a5.286,5.286,0,0,0,4.069-1.5,6.358,6.358,0,0,0,1.4-4.474,6.19,6.19,0,0,0-1.582-4.412,5.137,5.137,0,0,0-3.9-1.687,6.552,6.552,0,0,0-2.83.545q-.686.334-.765.615t-.079,3.762a34.149,34.149,0,0,0,.176,4.834,2.493,2.493,0,0,0,1.09,1.564A4.679,4.679,0,0,0,230.2-.457Z" transform="translate(0.264 24.381)" fill="#fff"/>
</svg>
