<?xml version="1.0" encoding="UTF-8" standalone="no"?>
<svg
   xmlns:dc="http://purl.org/dc/elements/1.1/"
   xmlns:cc="http://creativecommons.org/ns#"
   xmlns:rdf="http://www.w3.org/1999/02/22-rdf-syntax-ns#"
   xmlns:svg="http://www.w3.org/2000/svg"
   xmlns="http://www.w3.org/2000/svg"
   xmlns:sodipodi="http://sodipodi.sourceforge.net/DTD/sodipodi-0.dtd"
   xmlns:inkscape="http://www.inkscape.org/namespaces/inkscape"
   inkscape:version="1.0 (4035a4fb49, 2020-05-01)"
   sodipodi:docname="Create Piece.svg"
   id="svg3"
   version="1.1"
   viewBox="0 0 170.03811 23.596048"
   height="23.596048"
   width="170.03812">
  <metadata
     id="metadata9">
    <rdf:RDF>
      <cc:Work
         rdf:about="">
        <dc:format>image/svg+xml</dc:format>
        <dc:type
           rdf:resource="http://purl.org/dc/dcmitype/StillImage" />
      </cc:Work>
    </rdf:RDF>
  </metadata>
  <defs
     id="defs7" />
  <sodipodi:namedview
     inkscape:current-layer="svg3"
     inkscape:window-maximized="0"
     inkscape:window-y="0"
     inkscape:window-x="0"
     inkscape:cy="11.799012"
     inkscape:cx="85.018611"
     inkscape:zoom="7.104503"
     showgrid="false"
     id="namedview5"
     inkscape:window-height="480"
     inkscape:window-width="828"
     inkscape:pageshadow="2"
     inkscape:pageopacity="0"
     guidetolerance="10"
     gridtolerance="10"
     objecttolerance="10"
     borderopacity="1"
     bordercolor="#666666"
     pagecolor="#ffffff" />
  <path
     fill="#ffffff"
     d="m 19.267109,1.5330119 a 18.013,18.013 0 0 1 0.211,2.777 q 0,0.281 -0.018,0.756 a 1.942,1.942 0 0 1 -0.369,0.053 1.8,1.8 0 0 1 -0.3,-0.035 6.167,6.167 0 0 0 -2.408,-3.164 7.314,7.314 0 0 0 -4.131,-1.10700002 7.011,7.011 0 0 0 -2.2,0.30000002 9.174,9.174 0 0 0 -2.7770001,1.5 9,9 0 0 0 -2.021,2.285 11.42,11.42 0 0 0 -1.31,3.217 15.507,15.507 0 0 0 -0.483,3.8580001 14.735,14.735 0 0 0 1.146,6.216 7.209,7.209 0 0 0 3.129,3.5 8.524,8.524 0 0 0 4.0080001,1.044 l 0.826,-0.018 a 13.143,13.143 0 0 0 1.916,-0.334 8.951,8.951 0 0 0 2.118,-0.87 6.99,6.99 0 0 0 1.635,-1.415 8.876,8.876 0 0 0 1.363,-2.127 l 0.211,-0.07 a 0.6,0.6 0 0 1 0.264,0.105 q -0.018,0.422 -0.035,0.545 -0.739,2.971 -1.075,4.061 -0.281,0.07 -0.7,0.211 a 17.486,17.486 0 0 1 -5.5,0.7 16.933,16.933 0 0 1 -4.1610001,-0.372 17.175,17.175 0 0 1 -3.006,-1.178 9.778,9.778 0 0 1 -2.856,-2.122 9.929,9.929 0 0 1 -1.98599996,-3.33 12.378,12.378 0 0 1 -0.756,-4.386 11.711,11.711 0 0 1 0.6,-3.9290001 13.639,13.639 0 0 1 1.84599996,-3.4 11.677,11.677 0 0 1 2.944,-2.865 11.127,11.127 0 0 1 3.771,-1.61700002 20.652,20.652 0 0 1 4.1310001,-0.316 12.683,12.683 0 0 1 3.674,0.519 7.006,7.006 0 0 1 2.299,1.00800002 z m 2.76,21.5690001 -0.07,-0.229 a 0.806,0.806 0 0 1 0.158,-0.369 l 1.037,-0.211 1.459,-0.263 a 0.5,0.5 0 0 0 0.246,-0.246 4.722,4.722 0 0 0 0.11,-1.351 q 0,-5.967 -0.07,-6.888 a 2.026,2.026 0 0 0 -0.316,-1.167 2.537,2.537 0 0 0 -1.266,-0.386 4.345,4.345 0 0 1 -0.949,-0.228 l 0.07,-0.536 a 9.983,9.983 0 0 0 2.479,-1.3000001 6.58,6.58 0 0 0 1.494,-2.08 l 0.6,0.018 q 0.105,0.879 0.105,3.9000001 l -0.018,0.3 a 2.467,2.467 0 0 0 0.035,0.334 10.187,10.187 0 0 1 1.67,-2.232 l 0.4,-0.4000001 a 2.665,2.665 0 0 1 0.475,-0.439 4.2,4.2 0 0 1 1.828,-0.738 1.667,1.667 0 0 1 1.266,0.519 1.781,1.781 0 0 1 0.492,1.2740001 1.223,1.223 0 0 1 -0.352,0.932 1.558,1.558 0 0 1 -1.09,0.439 4.2,4.2 0 0 1 -1.107,-0.3 4.253,4.253 0 0 0 -1.09,-0.3 1.111,1.111 0 0 0 -0.686,0.158 5.969,5.969 0 0 0 -1.2,1.582 3.232,3.232 0 0 0 -0.545,1.652 l 0.088,2.907 0.035,3.488 a 2.646,2.646 0 0 0 0.141,0.775 1.068,1.068 0 0 0 0.352,0.3 q 1.9,0.158 2.25,0.229 0.246,0.018 0.369,0.035 a 2.156,2.156 0 0 1 1.055,0.211 0.284,0.284 0 0 1 0.158,0.264 0.516,0.516 0 0 1 -0.141,0.281 l -1.951,-0.035 -0.738,-0.018 -1.072,0.018 h -1.791 l -0.967,0.047 z m 25.207,-9.334 -7.049,0.051 h -1.336 q -0.809,0 -1.652,0.073 a 3.1,3.1 0 0 0 -0.158,0.721 l 0.018,0.176 v 0.176 l -0.018,0.861 a 6.858,6.858 0 0 0 0.677,2.623 5.223,5.223 0 0 0 1.934,2.373 5.959,5.959 0 0 0 3.138,0.87 6.47,6.47 0 0 0 1.6,-0.246 8.1,8.1 0 0 0 1.688,-0.9 l 1.266,-1.037 0.105,0.7 a 2.132,2.132 0 0 1 -0.018,0.264 7.722,7.722 0 0 1 -2,1.758 9.547,9.547 0 0 1 -2.462,1.118 8.583,8.583 0 0 1 -1.969,0.158 6.3,6.3 0 0 1 -2.461,-0.51 5.991,5.991 0 0 1 -2.825,-2.488 7.94,7.94 0 0 1 -1.028,-4.16 8.916,8.916 0 0 1 0.29,-1.986 10.445,10.445 0 0 1 1.046,-2.584 5.063,5.063 0 0 1 1.247,-1.53 8.255,8.255 0 0 1 1.846,-1.1780001 6.88,6.88 0 0 1 2.654,-0.475 5.306,5.306 0 0 1 2.672,0.6 5.3,5.3 0 0 1 2.1,2.0390001 4.772,4.772 0 0 1 0.694,2.285 z m -9.809,-0.633 h 0.826 q 0.9,0 5.344,-0.281 a 2.226,2.226 0 0 0 0.861,-0.141 0.937,0.937 0 0 0 0.316,-0.6 2.8,2.8 0 0 0 -0.352,-1.239 2.423,2.423 0 0 0 -1.081,-1.0720001 3.637,3.637 0 0 0 -1.7,-0.378 3.986,3.986 0 0 0 -3.27,1.5290001 3.536,3.536 0 0 0 -0.943,2.182 z m 25.172,7.523 a 0.931,0.931 0 0 1 0.105,0.334 2.266,2.266 0 0 1 -0.422,0.932 3.784,3.784 0 0 1 -1.213,1.283 2.181,2.181 0 0 1 -1.16,0.264 2.309,2.309 0 0 1 -1.9,-0.773 3.293,3.293 0 0 1 -0.54,-1.635 l -1.971,1.371 a 8.091,8.091 0 0 1 -1.582,0.756 8.476,8.476 0 0 1 -2.109,0.229 1.877,1.877 0 0 1 -1.415,-0.536 1.9,1.9 0 0 1 -0.519,-1.38 4.807,4.807 0 0 1 1.489,-2.9 10.912,10.912 0 0 1 4.043,-2.76 q 1.8,-0.756 2.2,-0.967 0.035,-0.58 0.035,-1.266 a 5.161,5.161 0 0 0 -0.626,-3.023 2.149,2.149 0 0 0 -1.79,-0.7910001 3.353,3.353 0 0 0 -2.275,0.9490001 4.2,4.2 0 0 0 -0.987,2.25 3.725,3.725 0 0 1 -0.4,0.984 2.461,2.461 0 0 1 -1.213,0.492 1.173,1.173 0 0 1 -0.7,-0.229 0.346,0.346 0 0 1 -0.176,-0.281 6.062,6.062 0 0 1 0.976,-2.065 6.455,6.455 0 0 1 2.461,-2.4080001 5.654,5.654 0 0 1 2.593,-0.8 6.928,6.928 0 0 1 2.25,0.272 3.039,3.039 0 0 1 1.3,0.958 3.053,3.053 0 0 1 0.686,1.4940001 27.474,27.474 0 0 1 0.07,2.76 l -0.053,2.795 0.018,2.039 q 0,0.4 -0.018,0.686 -0.018,0.51 -0.018,0.756 a 1.3,1.3 0 0 0 0.334,0.932 1.055,1.055 0 0 0 0.791,0.352 1.379,1.379 0 0 0 1.143,-0.668 l 0.211,-0.281 a 1.638,1.638 0 0 1 0.383,-0.125 z m -5.15,-0.509 q 0.123,-2.232 0.123,-3.146 0,-0.475 -0.053,-1.283 a 12.115,12.115 0 0 0 -2.5,1.283 7.423,7.423 0 0 0 -2.1,1.986 2.706,2.706 0 0 0 -0.564,1.529 1.532,1.532 0 0 0 0.467,1.143 1.61,1.61 0 0 0 1.173,0.457 3.091,3.091 0 0 0 1.323,-0.387 8.838,8.838 0 0 0 2.131,-1.582 z m 10.512,-14.4670001 0.545,0.018 0.07,1.67 -0.035,2.162 q 0.334,0.018 0.422,0.018 0.457,0 1.74,-0.07 0.826,-0.053 1.582,-0.053 0.352,0 1.055,0.018 0.035,0.352 0.035,0.5630001 a 3.873,3.873 0 0 1 -0.105,0.721 h -0.3 l -2.725,0.088 -1.354,0.035 -0.316,0.035 a 3.35,3.35 0 0 0 -0.141,1.02 l 0.053,2.637 -0.035,4.641 a 4.226,4.226 0 0 0 0.475,2.426 1.6,1.6 0 0 0 1.371,0.615 9.76,9.76 0 0 0 1.723,-0.281 3.078,3.078 0 0 0 1.037,-0.58 h 0.158 a 0.345,0.345 0 0 1 0.255,0.1 0.345,0.345 0 0 1 0.1,0.255 l -0.018,0.123 a 4.567,4.567 0 0 1 -1.731,1.2 7.327,7.327 0 0 1 -2.593,0.378 3.2,3.2 0 0 1 -1.89,-0.527 2.341,2.341 0 0 1 -0.958,-1.248 14.273,14.273 0 0 1 -0.212,-3.15 l 0.07,-3.955 -0.018,-1.9 v -0.7 q 0,-0.492 -0.035,-0.984 l -0.3,-0.018 -1.441,0.053 -0.141,0.018 a 0.419,0.419 0 0 1 -0.29,-0.088 0.275,0.275 0 0 1 -0.1,-0.211 0.464,0.464 0 0 1 0.132,-0.343 3.266,3.266 0 0 1 0.8,-0.4130001 4.159,4.159 0 0 0 1.063,-0.729 5.778,5.778 0 0 0 1.028,-1.187 10.408,10.408 0 0 0 0.6,-1.336 q 0.283,-0.722 0.424,-1.021 z m 19.389,8.0860001 -7.049,0.051 h -1.332 q -0.809,0 -1.652,0.073 a 3.1,3.1 0 0 0 -0.158,0.721 l 0.018,0.176 v 0.176 l -0.018,0.861 a 6.858,6.858 0 0 0 0.672,2.623 5.223,5.223 0 0 0 1.938,2.376 5.959,5.959 0 0 0 3.138,0.87 6.47,6.47 0 0 0 1.595,-0.246 8.1,8.1 0 0 0 1.688,-0.9 l 1.265,-1.033 0.105,0.7 a 2.133,2.133 0 0 1 -0.018,0.264 7.722,7.722 0 0 1 -2,1.758 9.547,9.547 0 0 1 -2.464,1.111 8.583,8.583 0 0 1 -1.969,0.157 6.3,6.3 0 0 1 -2.461,-0.51 5.991,5.991 0 0 1 -2.821,-2.487 7.94,7.94 0 0 1 -1.028,-4.16 8.916,8.916 0 0 1 0.29,-1.986 10.445,10.445 0 0 1 1.046,-2.584 5.063,5.063 0 0 1 1.248,-1.53 8.255,8.255 0 0 1 1.846,-1.1750001 6.879,6.879 0 0 1 2.654,-0.475 5.306,5.306 0 0 1 2.672,0.6 5.3,5.3 0 0 1 2.1,2.0390001 4.772,4.772 0 0 1 0.694,2.285 z m -9.809,-0.633 h 0.828 q 0.9,0 5.344,-0.281 a 2.226,2.226 0 0 0 0.856,-0.141 0.937,0.937 0 0 0 0.316,-0.6 2.8,2.8 0 0 0 -0.352,-1.239 2.423,2.423 0 0 0 -1.081,-1.0720001 3.637,3.637 0 0 0 -1.7,-0.378 3.986,3.986 0 0 0 -3.27,1.5290001 3.536,3.536 0 0 0 -0.941,2.182 z m 20.654,-12.51600012 a 3.36,3.36 0 0 1 0.4,-0.053 q 0.6,0 1.969001,0.07 0.721,0.018 0.984,0.018 0.387,0 1.635,-0.07 l 2.988,-0.176 q 1.178,-0.105 2.742,-0.105 a 10.312,10.312 0 0 1 4.395,0.78100002 5.488,5.488 0 0 1 2.522,2.449 7.013,7.013 0 0 1 0.888,3.318 6.612,6.612 0 0 1 -1.934,4.7570001 6.9,6.9 0 0 1 -5.2,2 5.4,5.4 0 0 1 -1.529,-0.185 5.461,5.461 0 0 1 -1.406,-0.712 0.929,0.929 0 0 1 -0.4,-0.475 0.4,0.4 0 0 1 0.193,-0.176 1.369,1.369 0 0 1 0.51,0.105 4.6,4.6 0 0 0 1.512,0.211 5.355,5.355 0 0 0 2.628,-0.684 4.457,4.457 0 0 0 1.869,-1.9430001 5.88,5.88 0 0 0 0.633,-2.668 5.725,5.725 0 0 0 -0.667,-2.659 5.665,5.665 0 0 0 -1.758,-2.064 5.479,5.479 0 0 0 -1.886,-0.737 9.3,9.3 0 0 0 -1.974,-0.3 5.759,5.759 0 0 0 -2.579,0.316 l -0.018,0.246 0.057,1.986 -0.018,0.351 q -0.035,0.474 -0.035,1.458 0,3.583 0.105,4.4610001 v 0.984 l 0.23,8.026 q 0,0.176 -0.044,0.65 -0.044,0.474 -0.044,0.825 a 4.448,4.448 0 0 0 0.141,1.282 q 0.422,0.123 2.461,0.58 0.949,0.229 1.037,0.264 a 0.505,0.505 0 0 1 0.246,0.229 0.6,0.6 0 0 1 -0.185,0.343 0.864,0.864 0 0 1 -0.448,0.079 q -0.211,0 -0.984,-0.088 -1.512,-0.159 -2.374,-0.159 l -3.093,0.124 -1.846001,-0.053 q -0.176,0 -1.02,0.035 l -0.018,-0.457 2.289001,-0.439 a 1.465,1.465 0 0 0 0.683,-0.315 1.813,1.813 0 0 0 0.176,-0.966 q 0,-0.158 0.018,-0.685 0.018,-0.369 0.018,-1.019 0,-2.073 -0.176,-8.835 -0.07,-3.1610001 -0.07,-6.4280001 v -0.3 q 0,-1.265 -0.387,-1.6 a 7.223,7.223 0 0 0 -3.252001,-0.948 0.811,0.811 0 0 1 -0.088,-0.31600002 0.725,0.725 0 0 1 0.104,-0.333 z M 120.16711,1.4490119 a 1.33,1.33 0 0 1 0.448,-1.00000002 1.521,1.521 0 0 1 1.081,-0.422 1.6,1.6 0 0 1 1.143,0.475 1.406,1.406 0 0 1 0.492,1.02000002 1.434,1.434 0 0 1 -0.492,1.028 1.581,1.581 0 0 1 -1.143,0.483 1.48,1.48 0 0 1 -1.09,-0.439 1.546,1.546 0 0 1 -0.439,-1.145 z m -1.478,9.1200001 0.018,-0.52 q 1.143,-0.3350001 1.23,-0.3880001 a 5.757,5.757 0 0 0 1.327,-0.864 5.987,5.987 0 0 0 1.169,-1.305 2.152,2.152 0 0 1 0.334,-0.035 l 0.211,0.018 q 0.07,0.844 0.07,1.23 0,0.088 -0.035,0.791 v 0.9320001 l 0.018,5.063 -0.052,5.358 a 1.314,1.314 0 0 0 0.211,0.905 3.431,3.431 0 0 0 1.354,0.571 10.687,10.687 0 0 1 1.055,0.334 0.553,0.553 0 0 1 0.053,0.211 0.576,0.576 0 0 1 -0.085,0.267 q -0.69,-0.018 -1.762,-0.088 -1.459,-0.123 -1.938,-0.123 -0.229,0 -2.812,0.088 a 9.429,9.429 0 0 0 -1.02,0.088 1.219,1.219 0 0 1 -0.277,-0.053 0.387,0.387 0 0 1 -0.091,-0.211 q 0,-0.246 0.334,-0.387 0.07,-0.035 1.793,-0.4 a 1.144,1.144 0 0 0 0.738,-0.351 1.864,1.864 0 0 0 0.3,-1.176 q 0.035,-1.355 0.035,-7.41 a 6.2,6.2 0 0 0 -0.105,-1.51 1.334,1.334 0 0 0 -0.466,-0.483 5.108,5.108 0 0 0 -1.607,-0.552 z m 21.146,3.2 -7.048,0.05 h -1.336 q -0.809,0 -1.652,0.073 a 3.1,3.1 0 0 0 -0.158,0.721 l 0.018,0.176 v 0.176 l -0.018,0.861 a 6.858,6.858 0 0 0 0.676,2.623 5.223,5.223 0 0 0 1.934,2.373 5.959,5.959 0 0 0 3.138,0.87 6.47,6.47 0 0 0 1.6,-0.246 8.1,8.1 0 0 0 1.688,-0.9 l 1.266,-1.037 0.105,0.7 a 2.132,2.132 0 0 1 -0.018,0.264 7.722,7.722 0 0 1 -2,1.758 9.547,9.547 0 0 1 -2.463,1.118 8.583,8.583 0 0 1 -1.969,0.158 6.3,6.3 0 0 1 -2.461,-0.51 5.991,5.991 0 0 1 -2.824,-2.488 7.94,7.94 0 0 1 -1.028,-4.16 8.916,8.916 0 0 1 0.29,-1.986 10.445,10.445 0 0 1 1.046,-2.584 5.063,5.063 0 0 1 1.246,-1.53 8.255,8.255 0 0 1 1.846,-1.1780001 6.88,6.88 0 0 1 2.654,-0.475 5.306,5.306 0 0 1 2.672,0.6 5.3,5.3 0 0 1 2.1,2.0390001 4.772,4.772 0 0 1 0.694,2.285 z m -9.808,-0.634 h 0.826 q 0.9,0 5.344,-0.281 a 2.226,2.226 0 0 0 0.861,-0.141 0.937,0.937 0 0 0 0.316,-0.6 2.8,2.8 0 0 0 -0.352,-1.239 2.423,2.423 0 0 0 -1.081,-1.0720001 3.637,3.637 0 0 0 -1.7,-0.378 3.986,3.986 0 0 0 -3.27,1.5290001 3.536,3.536 0 0 0 -0.944,2.182 z m 24.926,6.7 0.014,1.14 a 8.464,8.464 0 0 1 -2.7,2.039 7.854,7.854 0 0 1 -3.146,0.58 6.374,6.374 0 0 1 -3.554,-1.028 6.637,6.637 0 0 1 -2.435,-2.909 8.9,8.9 0 0 1 -0.853,-3.691 7.342,7.342 0 0 1 1.028,-3.753 6.619,6.619 0 0 1 2.725,-2.6370001 9.293,9.293 0 0 1 4.263,-0.87 6.839,6.839 0 0 1 3.744,0.844 1.479,1.479 0 0 1 0.721,1.2660001 1.263,1.263 0 0 1 -0.369,0.932 1.285,1.285 0 0 1 -0.949,0.369 2.9,2.9 0 0 1 -1.934,-1.09 4.461,4.461 0 0 0 -1.178,-0.923 2.671,2.671 0 0 0 -1.178,-0.2550001 3.212,3.212 0 0 0 -2.6,1.2830001 7.181,7.181 0 0 0 -1.443,4.587 6.644,6.644 0 0 0 1.477,4.535 4.459,4.459 0 0 0 3.445,1.688 6.221,6.221 0 0 0 2.436,-0.449 10.171,10.171 0 0 0 2.486,-1.661 z m 14.871,-6.067 -7.049,0.051 h -1.336 q -0.809,0 -1.652,0.073 a 3.1,3.1 0 0 0 -0.158,0.721 l 0.018,0.176 v 0.176 l -0.018,0.861 a 6.858,6.858 0 0 0 0.677,2.623 5.223,5.223 0 0 0 1.934,2.373 5.959,5.959 0 0 0 3.138,0.87 6.47,6.47 0 0 0 1.6,-0.246 8.1,8.1 0 0 0 1.689,-0.897 l 1.266,-1.037 0.105,0.7 a 2.132,2.132 0 0 1 -0.018,0.264 7.722,7.722 0 0 1 -2,1.758 9.547,9.547 0 0 1 -2.467,1.115 8.583,8.583 0 0 1 -1.969,0.158 6.3,6.3 0 0 1 -2.461,-0.51 5.991,5.991 0 0 1 -2.821,-2.488 7.94,7.94 0 0 1 -1.029,-4.16 8.916,8.916 0 0 1 0.29,-1.986 10.445,10.445 0 0 1 1.046,-2.584 5.063,5.063 0 0 1 1.248,-1.53 8.255,8.255 0 0 1 1.846,-1.1780001 6.88,6.88 0 0 1 2.654,-0.475 5.306,5.306 0 0 1 2.672,0.6 5.3,5.3 0 0 1 2.1,2.0390001 4.772,4.772 0 0 1 0.694,2.285 z m -9.809,-0.633 h 0.826 q 0.9,0 5.344,-0.281 a 2.226,2.226 0 0 0 0.861,-0.141 0.937,0.937 0 0 0 0.316,-0.6 2.8,2.8 0 0 0 -0.352,-1.239 2.423,2.423 0 0 0 -1.081,-1.0720001 3.637,3.637 0 0 0 -1.7,-0.378 3.986,3.986 0 0 0 -3.27,1.5290001 3.536,3.536 0 0 0 -0.943,2.182 z"
     data-name="Path 12"
     id="Path_12" />
</svg>
