<svg xmlns="http://www.w3.org/2000/svg" width="170.033" height="23.59" viewBox="0 0 170.033 23.59">
    <path id="Path_12" data-name="Path 12" d="M-65.4-21.516a18.013,18.013,0,0,1,.211,2.777q0,.281-.018.756a1.942,1.942,0,0,1-.369.053,1.8,1.8,0,0,1-.3-.035,6.167,6.167,0,0,0-2.408-3.164,7.314,7.314,0,0,0-4.131-1.107,7.011,7.011,0,0,0-2.2.3,9.174,9.174,0,0,0-2.777,1.5,9,9,0,0,0-2.021,2.285,11.42,11.42,0,0,0-1.31,3.217,15.507,15.507,0,0,0-.483,3.858A14.735,14.735,0,0,0-80.06-4.86a7.209,7.209,0,0,0,3.129,3.5A8.524,8.524,0,0,0-72.923-.316l.826-.018a13.143,13.143,0,0,0,1.916-.334,8.951,8.951,0,0,0,2.118-.87,6.99,6.99,0,0,0,1.635-1.415A8.876,8.876,0,0,0-65.065-5.08l.211-.07a.6.6,0,0,1,.264.105q-.018.422-.035.545Q-65.364-1.529-65.7-.439q-.281.07-.7.211a17.486,17.486,0,0,1-5.5.7A16.933,16.933,0,0,1-76.061.1a17.175,17.175,0,0,1-3.006-1.178A9.778,9.778,0,0,1-81.923-3.2,9.929,9.929,0,0,1-83.909-6.53a12.378,12.378,0,0,1-.756-4.386,11.711,11.711,0,0,1,.6-3.929,13.639,13.639,0,0,1,1.846-3.4,11.677,11.677,0,0,1,2.944-2.865,11.127,11.127,0,0,1,3.771-1.617,20.652,20.652,0,0,1,4.131-.316,12.683,12.683,0,0,1,3.674.519A7.006,7.006,0,0,1-65.4-21.516ZM-62.64.053l-.07-.229a.806.806,0,0,1,.158-.369l1.037-.211,1.459-.263a.5.5,0,0,0,.246-.246A4.722,4.722,0,0,0-59.7-2.616q0-5.967-.07-6.888a2.026,2.026,0,0,0-.316-1.167,2.537,2.537,0,0,0-1.266-.386,4.345,4.345,0,0,1-.949-.228l.07-.536a9.983,9.983,0,0,0,2.479-1.3,6.58,6.58,0,0,0,1.494-2.08l.6.018q.105.879.105,3.9l-.018.3a2.467,2.467,0,0,0,.035.334,10.187,10.187,0,0,1,1.67-2.232l.4-.4a2.665,2.665,0,0,1,.475-.439,4.2,4.2,0,0,1,1.828-.738,1.667,1.667,0,0,1,1.266.519,1.781,1.781,0,0,1,.492,1.274,1.223,1.223,0,0,1-.352.932,1.558,1.558,0,0,1-1.09.439,4.2,4.2,0,0,1-1.107-.3,4.253,4.253,0,0,0-1.09-.3,1.111,1.111,0,0,0-.686.158,5.969,5.969,0,0,0-1.2,1.582,3.232,3.232,0,0,0-.545,1.652l.088,2.907.035,3.488a2.646,2.646,0,0,0,.141.775,1.068,1.068,0,0,0,.352.3q1.9.158,2.25.229.246.018.369.035a2.156,2.156,0,0,1,1.055.211.284.284,0,0,1,.158.264.516.516,0,0,1-.141.281l-1.951-.035-.738-.018-1.072.018H-58.72L-59.687,0Zm25.207-9.334-7.049.051h-1.336q-.809,0-1.652.073a3.1,3.1,0,0,0-.158.721l.018.176v.176l-.018.861A6.858,6.858,0,0,0-46.951-4.6a5.223,5.223,0,0,0,1.934,2.373,5.959,5.959,0,0,0,3.138.87,6.47,6.47,0,0,0,1.6-.246,8.1,8.1,0,0,0,1.688-.9l1.266-1.037.105.7a2.132,2.132,0,0,1-.018.264,7.722,7.722,0,0,1-2,1.758A9.547,9.547,0,0,1-41.7.3a8.583,8.583,0,0,1-1.969.158,6.3,6.3,0,0,1-2.461-.51A5.991,5.991,0,0,1-48.955-2.54,7.94,7.94,0,0,1-49.983-6.7a8.916,8.916,0,0,1,.29-1.986,10.445,10.445,0,0,1,1.046-2.584A5.063,5.063,0,0,1-47.4-12.8a8.255,8.255,0,0,1,1.846-1.178,6.88,6.88,0,0,1,2.654-.475,5.306,5.306,0,0,1,2.672.6,5.3,5.3,0,0,1,2.1,2.039,4.772,4.772,0,0,1,.694,2.285Zm-9.809-.633h.826q.9,0,5.344-.281a2.226,2.226,0,0,0,.861-.141.937.937,0,0,0,.316-.6,2.8,2.8,0,0,0-.352-1.239,2.423,2.423,0,0,0-1.081-1.072,3.637,3.637,0,0,0-1.7-.378,3.986,3.986,0,0,0-3.27,1.529A3.536,3.536,0,0,0-47.241-9.914Zm25.172,7.523a.931.931,0,0,1,.105.334,2.266,2.266,0,0,1-.422.932A3.784,3.784,0,0,1-23.6.158a2.181,2.181,0,0,1-1.16.264,2.309,2.309,0,0,1-1.9-.773A3.293,3.293,0,0,1-27.2-1.986L-29.171-.615a8.091,8.091,0,0,1-1.582.756,8.476,8.476,0,0,1-2.109.229,1.877,1.877,0,0,1-1.415-.536,1.9,1.9,0,0,1-.519-1.38,4.807,4.807,0,0,1,1.489-2.9,10.912,10.912,0,0,1,4.043-2.76q1.8-.756,2.2-.967.035-.58.035-1.266a5.161,5.161,0,0,0-.626-3.023,2.149,2.149,0,0,0-1.79-.791,3.353,3.353,0,0,0-2.275.949,4.2,4.2,0,0,0-.987,2.25,3.725,3.725,0,0,1-.4.984,2.461,2.461,0,0,1-1.213.492,1.173,1.173,0,0,1-.7-.229.346.346,0,0,1-.176-.281,6.062,6.062,0,0,1,.976-2.065,6.455,6.455,0,0,1,2.461-2.408,5.654,5.654,0,0,1,2.593-.8,6.928,6.928,0,0,1,2.25.272,3.039,3.039,0,0,1,1.3.958,3.053,3.053,0,0,1,.686,1.494,27.474,27.474,0,0,1,.07,2.76l-.053,2.795.018,2.039q0,.4-.018.686-.018.51-.018.756a1.3,1.3,0,0,0,.334.932,1.055,1.055,0,0,0,.791.352,1.379,1.379,0,0,0,1.143-.668l.211-.281A1.638,1.638,0,0,1-22.069-2.391ZM-27.22-2.9q.123-2.232.123-3.146,0-.475-.053-1.283a12.115,12.115,0,0,0-2.5,1.283,7.423,7.423,0,0,0-2.1,1.986,2.706,2.706,0,0,0-.564,1.529,1.532,1.532,0,0,0,.467,1.143,1.61,1.61,0,0,0,1.173.457,3.091,3.091,0,0,0,1.323-.387A8.838,8.838,0,0,0-27.22-2.9Zm10.512-14.467.545.018.07,1.67-.035,2.162q.334.018.422.018.457,0,1.74-.07.826-.053,1.582-.053.352,0,1.055.018.035.352.035.563a3.873,3.873,0,0,1-.105.721h-.3l-2.725.088-1.354.035-.316.035a3.35,3.35,0,0,0-.141,1.02l.053,2.637-.035,4.641a4.226,4.226,0,0,0,.475,2.426,1.6,1.6,0,0,0,1.371.615,9.76,9.76,0,0,0,1.723-.281,3.078,3.078,0,0,0,1.037-.58h.158a.345.345,0,0,1,.255.1.345.345,0,0,1,.1.255l-.018.123a4.567,4.567,0,0,1-1.731,1.2,7.327,7.327,0,0,1-2.593.378,3.2,3.2,0,0,1-1.89-.527,2.341,2.341,0,0,1-.958-1.248A14.273,14.273,0,0,1-18.5-4.553l.07-3.955-.018-1.9v-.7q0-.492-.035-.984l-.3-.018-1.441.053-.141.018a.419.419,0,0,1-.29-.088.275.275,0,0,1-.1-.211.464.464,0,0,1,.132-.343,3.266,3.266,0,0,1,.8-.413,4.159,4.159,0,0,0,1.063-.729,5.778,5.778,0,0,0,1.028-1.187,10.408,10.408,0,0,0,.6-1.336Q-16.849-17.068-16.708-17.367ZM2.681-9.281l-7.049.051H-5.7q-.809,0-1.652.073a3.1,3.1,0,0,0-.158.721l.018.176v.176l-.018.861A6.858,6.858,0,0,0-6.838-4.6,5.223,5.223,0,0,0-4.9-2.224a5.959,5.959,0,0,0,3.138.87A6.47,6.47,0,0,0-.167-1.6a8.1,8.1,0,0,0,1.688-.9L2.786-3.533l.105.7a2.133,2.133,0,0,1-.018.264,7.722,7.722,0,0,1-2,1.758A9.547,9.547,0,0,1-1.591.3,8.583,8.583,0,0,1-3.56.457a6.3,6.3,0,0,1-2.461-.51A5.991,5.991,0,0,1-8.842-2.54,7.94,7.94,0,0,1-9.87-6.7a8.916,8.916,0,0,1,.29-1.986,10.445,10.445,0,0,1,1.046-2.584A5.063,5.063,0,0,1-7.286-12.8,8.255,8.255,0,0,1-5.44-13.975a6.879,6.879,0,0,1,2.654-.475,5.306,5.306,0,0,1,2.672.6,5.3,5.3,0,0,1,2.1,2.039,4.772,4.772,0,0,1,.694,2.285Zm-9.809-.633H-6.3q.9,0,5.344-.281A2.226,2.226,0,0,0-.1-10.336a.937.937,0,0,0,.316-.6,2.8,2.8,0,0,0-.352-1.239,2.423,2.423,0,0,0-1.081-1.072,3.637,3.637,0,0,0-1.7-.378,3.986,3.986,0,0,0-3.27,1.529A3.536,3.536,0,0,0-7.128-9.914ZM13.526-22.43a3.36,3.36,0,0,1,.4-.053q.6,0,1.969.07.721.018.984.018.387,0,1.635-.07l2.988-.176q1.178-.105,2.742-.105a10.312,10.312,0,0,1,4.395.781,5.488,5.488,0,0,1,2.522,2.449,7.013,7.013,0,0,1,.888,3.318,6.612,6.612,0,0,1-1.934,4.757,6.9,6.9,0,0,1-5.2,2,5.4,5.4,0,0,1-1.529-.185,5.461,5.461,0,0,1-1.406-.712.929.929,0,0,1-.4-.475.4.4,0,0,1,.193-.176,1.369,1.369,0,0,1,.51.105,4.6,4.6,0,0,0,1.512.211,5.355,5.355,0,0,0,2.628-.684A4.457,4.457,0,0,0,28.292-13.3a5.88,5.88,0,0,0,.633-2.668,5.725,5.725,0,0,0-.667-2.659A5.665,5.665,0,0,0,26.5-20.691a5.479,5.479,0,0,0-1.886-.737,9.3,9.3,0,0,0-1.974-.3,5.759,5.759,0,0,0-2.579.316l-.018.246L20.1-19.18l-.018.351q-.035.474-.035,1.458,0,3.583.105,4.461v.984L20.382-3.9q0,.176-.044.65t-.044.825a4.448,4.448,0,0,0,.141,1.282q.422.123,2.461.58.949.229,1.037.264a.505.505,0,0,1,.246.229.6.6,0,0,1-.185.343.864.864,0,0,1-.448.079q-.211,0-.984-.088Q21.05.105,20.188.105L17.095.229,15.249.176q-.176,0-1.02.035l-.018-.457L16.5-.685A1.465,1.465,0,0,0,17.183-1a1.813,1.813,0,0,0,.176-.966q0-.158.018-.685.018-.369.018-1.019,0-2.073-.176-8.835-.07-3.161-.07-6.428v-.3q0-1.265-.387-1.6a7.223,7.223,0,0,0-3.252-.948.811.811,0,0,1-.088-.316A.725.725,0,0,1,13.526-22.43ZM35.5-21.6a1.33,1.33,0,0,1,.448-1,1.521,1.521,0,0,1,1.081-.422,1.6,1.6,0,0,1,1.143.475,1.406,1.406,0,0,1,.492,1.02,1.434,1.434,0,0,1-.492,1.028,1.581,1.581,0,0,1-1.143.483,1.48,1.48,0,0,1-1.09-.439A1.546,1.546,0,0,1,35.5-21.6ZM34.022-12.48,34.04-13q1.143-.335,1.23-.388a5.757,5.757,0,0,0,1.327-.864,5.987,5.987,0,0,0,1.169-1.305,2.152,2.152,0,0,1,.334-.035l.211.018q.07.844.07,1.23,0,.088-.035.791v.932l.018,5.063L38.312-2.2a1.314,1.314,0,0,0,.211.905,3.431,3.431,0,0,0,1.354.571,10.687,10.687,0,0,1,1.055.334.553.553,0,0,1,.053.211A.576.576,0,0,1,40.9.088Q40.21.07,39.138,0,37.679-.123,37.2-.123q-.229,0-2.812.088a9.429,9.429,0,0,0-1.02.088A1.219,1.219,0,0,1,33.091,0,.387.387,0,0,1,33-.211q0-.246.334-.387.07-.035,1.793-.4a1.144,1.144,0,0,0,.738-.351,1.864,1.864,0,0,0,.3-1.176Q36.2-3.88,36.2-9.935a6.2,6.2,0,0,0-.105-1.51,1.334,1.334,0,0,0-.466-.483A5.108,5.108,0,0,0,34.022-12.48Zm21.146,3.2L48.12-9.23H46.784q-.809,0-1.652.073a3.1,3.1,0,0,0-.158.721l.018.176v.176l-.018.861A6.858,6.858,0,0,0,45.65-4.6a5.223,5.223,0,0,0,1.934,2.373,5.959,5.959,0,0,0,3.138.87,6.47,6.47,0,0,0,1.6-.246,8.1,8.1,0,0,0,1.688-.9l1.266-1.037.105.7a2.132,2.132,0,0,1-.018.264,7.722,7.722,0,0,1-2,1.758A9.547,9.547,0,0,1,50.9.3a8.583,8.583,0,0,1-1.969.158,6.3,6.3,0,0,1-2.461-.51A5.991,5.991,0,0,1,43.646-2.54,7.94,7.94,0,0,1,42.618-6.7a8.916,8.916,0,0,1,.29-1.986,10.445,10.445,0,0,1,1.046-2.584A5.063,5.063,0,0,1,45.2-12.8a8.255,8.255,0,0,1,1.846-1.178,6.88,6.88,0,0,1,2.654-.475,5.306,5.306,0,0,1,2.672.6,5.3,5.3,0,0,1,2.1,2.039,4.772,4.772,0,0,1,.694,2.285ZM45.36-9.914h.826q.9,0,5.344-.281a2.226,2.226,0,0,0,.861-.141.937.937,0,0,0,.316-.6,2.8,2.8,0,0,0-.352-1.239,2.423,2.423,0,0,0-1.081-1.072,3.637,3.637,0,0,0-1.7-.378,3.986,3.986,0,0,0-3.27,1.529A3.536,3.536,0,0,0,45.36-9.914Zm24.926,6.7L70.3-2.074A8.464,8.464,0,0,1,67.6-.035a7.854,7.854,0,0,1-3.146.58A6.374,6.374,0,0,1,60.9-.483a6.637,6.637,0,0,1-2.435-2.909,8.9,8.9,0,0,1-.853-3.691,7.342,7.342,0,0,1,1.028-3.753,6.619,6.619,0,0,1,2.725-2.637,9.293,9.293,0,0,1,4.263-.87,6.839,6.839,0,0,1,3.744.844,1.479,1.479,0,0,1,.721,1.266,1.263,1.263,0,0,1-.369.932,1.285,1.285,0,0,1-.949.369,2.9,2.9,0,0,1-1.934-1.09,4.461,4.461,0,0,0-1.178-.923,2.671,2.671,0,0,0-1.178-.255,3.212,3.212,0,0,0-2.6,1.283A7.181,7.181,0,0,0,60.442-7.33a6.644,6.644,0,0,0,1.477,4.535,4.459,4.459,0,0,0,3.445,1.688A6.221,6.221,0,0,0,67.8-1.556,10.171,10.171,0,0,0,70.286-3.217ZM85.157-9.281l-7.049.051H76.772q-.809,0-1.652.073a3.1,3.1,0,0,0-.158.721l.018.176v.176l-.018.861A6.858,6.858,0,0,0,75.639-4.6a5.223,5.223,0,0,0,1.934,2.373,5.959,5.959,0,0,0,3.138.87,6.47,6.47,0,0,0,1.6-.246A8.1,8.1,0,0,0,84-2.5l1.266-1.037.105.7a2.132,2.132,0,0,1-.018.264,7.722,7.722,0,0,1-2,1.758A9.547,9.547,0,0,1,80.886.3a8.583,8.583,0,0,1-1.969.158,6.3,6.3,0,0,1-2.461-.51A5.991,5.991,0,0,1,73.635-2.54,7.94,7.94,0,0,1,72.606-6.7a8.916,8.916,0,0,1,.29-1.986,10.445,10.445,0,0,1,1.046-2.584A5.063,5.063,0,0,1,75.19-12.8a8.255,8.255,0,0,1,1.846-1.178,6.88,6.88,0,0,1,2.654-.475,5.306,5.306,0,0,1,2.672.6,5.3,5.3,0,0,1,2.1,2.039,4.772,4.772,0,0,1,.694,2.285Zm-9.809-.633h.826q.9,0,5.344-.281a2.226,2.226,0,0,0,.861-.141.937.937,0,0,0,.316-.6,2.8,2.8,0,0,0-.352-1.239,2.423,2.423,0,0,0-1.081-1.072,3.637,3.637,0,0,0-1.7-.378,3.986,3.986,0,0,0-3.27,1.529A3.536,3.536,0,0,0,75.349-9.914Z" transform="translate(84.665 23.045)" fill="#fff"/>
</svg>
