<?xml version="1.0" encoding="UTF-8" standalone="no"?>
<svg
   xmlns:dc="http://purl.org/dc/elements/1.1/"
   xmlns:cc="http://creativecommons.org/ns#"
   xmlns:rdf="http://www.w3.org/1999/02/22-rdf-syntax-ns#"
   xmlns:svg="http://www.w3.org/2000/svg"
   xmlns="http://www.w3.org/2000/svg"
   xmlns:sodipodi="http://sodipodi.sourceforge.net/DTD/sodipodi-0.dtd"
   xmlns:inkscape="http://www.inkscape.org/namespaces/inkscape"
   inkscape:version="1.0 (4035a4fb49, 2020-05-01)"
   sodipodi:docname="Load Game.svg"
   id="svg3"
   version="1.1"
   viewBox="0 0 164.691 24.35"
   height="24.35"
   width="164.69099">
  <metadata
     id="metadata9">
    <rdf:RDF>
      <cc:Work
         rdf:about="">
        <dc:format>image/svg+xml</dc:format>
        <dc:type
           rdf:resource="http://purl.org/dc/dcmitype/StillImage" />
      </cc:Work>
    </rdf:RDF>
  </metadata>
  <defs
     id="defs7" />
  <sodipodi:namedview
     inkscape:current-layer="svg3"
     inkscape:window-maximized="0"
     inkscape:window-y="0"
     inkscape:window-x="0"
     inkscape:cy="12.178"
     inkscape:cx="82.344498"
     inkscape:zoom="7.3350378"
     showgrid="false"
     id="namedview5"
     inkscape:window-height="480"
     inkscape:window-width="828"
     inkscape:pageshadow="2"
     inkscape:pageopacity="0"
     guidetolerance="10"
     gridtolerance="10"
     objecttolerance="10"
     borderopacity="1"
     bordercolor="#666666"
     pagecolor="#ffffff" />
  <path
     fill="#ffffff"
     d="M 0,23.805 A 1.069,1.069 0 0 1 0.141,23.33 16.1,16.1 0 0 1 2.813,22.838 1.568,1.568 0 0 0 3.92,22.451 4.383,4.383 0 0 0 4.131,20.762 L 4.254,16.118 4.236,12.969 4.254,8.852 V 7.761 Q 4.272,4.049 4.219,3.134 A 2.034,2.034 0 0 0 4.078,2.641 4.123,4.123 0 0 0 3.31,2.36 Q 3.001,2.29 0.546,1.85 0.528,1.657 0.528,1.569 q 0,-0.105 0.018,-0.281 0.335,0 1.092,0.04 l 2.676,0.1 1.55,0.035 0.458,-0.018 q 0.088,0 0.511,0.035 1.039,0 1.2,-0.018 L 9.442,1.357 q 1.426,0 2.007,0.053 a 3.145,3.145 0 0 1 -0.123,0.686 q -0.193,0.035 -1.828,0.1 a 6.881,6.881 0 0 0 -1.881,0.2 q -0.4,0.229 -0.4,1.406 0,0.281 -0.035,1.143 V 6 L 7.2,9.252 v 1.107 l 0.035,5.818 -0.053,4.957 0.018,1.09 q 0,0.527 0.176,0.65 0.439,0.018 2.584,0.035 h 1.2 L 14.186,22.8 a 5.529,5.529 0 0 0 1.705,-0.237 8.14,8.14 0 0 0 1.705,-1.183 5.655,5.655 0 0 0 1.125,-1.3 q 0.088,-0.141 0.3,-0.422 a 10,10 0 0 0 0.9,-1.828 h 0.58 q -0.105,0.633 -0.229,1.2 -0.51,2.479 -0.7,4.131 -0.035,0.352 -0.07,0.65 l -6.574,-0.193 q -8.473,0 -10.055,0.158 -0.492,0.035 -1.037,0.035 z m 21.709,-7.171 a 7.43,7.43 0 0 1 0.5,-2.558 7.105,7.105 0 0 1 1.521,-2.443 7.065,7.065 0 0 1 2.162,-1.608 9.275,9.275 0 0 1 3.9,-0.738 7.381,7.381 0 0 1 5.493,2.25 7.455,7.455 0 0 1 2.209,5.413 6.772,6.772 0 0 1 -2.315,5.019 8.126,8.126 0 0 1 -5.841,2.206 7.955,7.955 0 0 1 -4.113,-1.143 7.394,7.394 0 0 1 -2.479,-2.549 7.2,7.2 0 0 1 -1.037,-3.849 z m 7.778,6.855 a 5.069,5.069 0 0 0 2.58,-0.721 5,5 0 0 0 1.981,-2.312 8.65,8.65 0 0 0 0.74,-3.683 10.752,10.752 0 0 0 -0.572,-3.182 5.293,5.293 0 0 0 -1.761,-2.716 4.475,4.475 0 0 0 -2.791,-0.905 5.724,5.724 0 0 0 -2.368,0.545 4.525,4.525 0 0 0 -2.042,2.092 9.387,9.387 0 0 0 -0.838,4.393 7.109,7.109 0 0 0 1.453,4.846 4.632,4.632 0 0 0 3.618,1.643 z m 23.6,-2.18 a 0.931,0.931 0 0 1 0.105,0.334 2.266,2.266 0 0 1 -0.422,0.932 3.784,3.784 0 0 1 -1.213,1.283 2.181,2.181 0 0 1 -1.16,0.264 2.309,2.309 0 0 1 -1.9,-0.773 3.293,3.293 0 0 1 -0.545,-1.635 l -1.967,1.371 a 8.091,8.091 0 0 1 -1.582,0.756 8.476,8.476 0 0 1 -2.109,0.229 1.877,1.877 0 0 1 -1.415,-0.537 1.9,1.9 0 0 1 -0.519,-1.38 4.807,4.807 0 0 1 1.489,-2.9 10.912,10.912 0 0 1 4.043,-2.76 q 1.8,-0.756 2.2,-0.967 0.035,-0.58 0.035,-1.266 a 5.161,5.161 0 0 0 -0.626,-3.023 2.149,2.149 0 0 0 -1.79,-0.791 3.353,3.353 0 0 0 -2.275,0.949 4.2,4.2 0 0 0 -0.987,2.25 3.725,3.725 0 0 1 -0.4,0.984 2.461,2.461 0 0 1 -1.213,0.492 1.173,1.173 0 0 1 -0.7,-0.229 0.346,0.346 0 0 1 -0.176,-0.281 6.062,6.062 0 0 1 0.976,-2.065 6.455,6.455 0 0 1 2.461,-2.408 5.654,5.654 0 0 1 2.593,-0.8 6.928,6.928 0 0 1 2.25,0.272 3.039,3.039 0 0 1 1.3,0.958 3.053,3.053 0 0 1 0.686,1.494 27.474,27.474 0 0 1 0.07,2.76 l -0.053,2.795 0.018,2.039 q 0,0.4 -0.018,0.686 -0.018,0.51 -0.018,0.756 a 1.3,1.3 0 0 0 0.334,0.932 1.055,1.055 0 0 0 0.791,0.352 1.379,1.379 0 0 0 1.143,-0.668 l 0.211,-0.281 a 1.638,1.638 0 0 1 0.382,-0.124 z m -5.151,-0.51 q 0.123,-2.232 0.123,-3.146 0,-0.475 -0.053,-1.283 a 12.115,12.115 0 0 0 -2.5,1.283 7.423,7.423 0 0 0 -2.1,1.986 2.706,2.706 0 0 0 -0.564,1.529 1.532,1.532 0 0 0 0.467,1.143 1.61,1.61 0 0 0 1.17,0.457 3.091,3.091 0 0 0 1.323,-0.387 8.838,8.838 0 0 0 2.134,-1.581 z m 18.317,-9.861 0.018,-0.51 -0.018,-2.057 0.018,-3.885 A 3.794,3.794 0 0 0 65.919,2.429 4.5,4.5 0 0 0 63.862,1.529 Q 63.739,1.494 63.475,1.424 V 1.231 A 2.367,2.367 0 0 1 63.51,0.844 19.138,19.138 0 0 0 67.623,0.018 L 68.523,0 q 0.07,1.2 0.07,2.672 l -0.07,6.768 0.123,7.629 -0.053,4.061 q 0,1.248 0.176,1.406 a 2.368,2.368 0 0 0 1.547,0.369 q 0.246,0 0.668,0.035 v 0.316 a 2.133,2.133 0 0 1 -0.018,0.264 q -0.545,0.123 -1.125,0.229 l -2.552,0.496 a 5.138,5.138 0 0 1 -0.9,0.105 v -1.687 q -0.3,0.088 -0.932,0.352 a 13.054,13.054 0 0 1 -5.041,1.16 5.308,5.308 0 0 1 -2.83,-0.905 5.919,5.919 0 0 1 -2.215,-2.522 7.583,7.583 0 0 1 -0.773,-3.3 8.277,8.277 0 0 1 0.51,-2.892 6.987,6.987 0 0 1 1.336,-2.294 6.481,6.481 0 0 1 1.494,-1.187 6.176,6.176 0 0 1 1.6,-0.747 10.619,10.619 0 0 1 2.092,-0.4 9.374,9.374 0 0 1 3.9,0.7 q 0.476,0.222 0.722,0.31 z M 66.27,21.8 q 0.07,-1.178 0.07,-4.852 a 15.66,15.66 0 0 0 -0.289,-3.929 3.269,3.269 0 0 0 -1.445,-1.547 4.754,4.754 0 0 0 -2.591,-0.729 4.414,4.414 0 0 0 -3.415,1.564 6.73,6.73 0 0 0 -1.4,4.623 5.982,5.982 0 0 0 1.515,4.289 4.984,4.984 0 0 0 3.774,1.6 7.529,7.529 0 0 0 2.364,-0.352 4.32,4.32 0 0 0 1.417,-0.667 z m 37.599,-19.44 0.193,2.672 q 0.105,1.213 0.105,1.652 l -0.488,0.088 a 9.96,9.96 0 0 0 -2.927,-4.008 6.844,6.844 0 0 0 -4.28,-1.336 12.313,12.313 0 0 0 -4.816,0.756 9.835,9.835 0 0 0 -4.277,3.727 11.242,11.242 0 0 0 -1.775,6.4 10.935,10.935 0 0 0 0.65,3.885 11.789,11.789 0 0 0 1.839,3.204 12.51,12.51 0 0 0 2.8,2.575 7.811,7.811 0 0 0 2.514,1.09 11.625,11.625 0 0 0 2.461,0.193 10.386,10.386 0 0 0 2.338,-0.3 5.087,5.087 0 0 0 1.934,-0.8 2.594,2.594 0 0 0 0.888,-1.134 8.273,8.273 0 0 0 0.237,-2.461 q 0,-3.041 -0.4,-3.542 -0.4,-0.501 -2.549,-0.659 l -0.7,-0.053 -0.475,0.018 Q 97.036,14.309 96.86,14.274 l -0.264,-0.439 a 0.4,0.4 0 0 1 0.123,-0.229 33.9,33.9 0 0 1 3.973,-0.141 q 0.686,0 2.232,0.035 l 1.811,0.07 1.635,-0.018 q 0.475,0 1.143,0.035 a 0.251,0.251 0 0 1 0.158,0.062 0.243,0.243 0 0 1 0.035,0.149 1.821,1.821 0 0 1 -0.088,0.492 5.873,5.873 0 0 1 -1.143,0.158 l -1.143,-0.018 a 1.174,1.174 0 0 0 -0.932,0.4 2.68,2.68 0 0 0 -0.176,1.318 l 0.018,2.3 a 13.993,13.993 0 0 1 -0.193,3.023 1.462,1.462 0 0 1 -0.439,0.694 5.031,5.031 0 0 1 -1.406,0.729 13.639,13.639 0 0 1 -2.777,0.826 26.109,26.109 0 0 1 -4.482,0.4 15.56,15.56 0 0 1 -5.7,-0.888 11.446,11.446 0 0 1 -3.832,-2.47 10.112,10.112 0 0 1 -2.294,-3.2 11.964,11.964 0 0 1 -1.046,-4.813 12.316,12.316 0 0 1 1.626,-6.021 11.943,11.943 0 0 1 5.247,-4.79 15.385,15.385 0 0 1 6.926,-1.3 19.194,19.194 0 0 1 4.948,0.527 12.6,12.6 0 0 1 3.049,1.195 z m 18.6,18.949 a 0.931,0.931 0 0 1 0.105,0.334 2.266,2.266 0 0 1 -0.422,0.932 3.784,3.784 0 0 1 -1.214,1.283 2.181,2.181 0 0 1 -1.159,0.264 2.309,2.309 0 0 1 -1.9,-0.773 3.293,3.293 0 0 1 -0.545,-1.635 l -1.968,1.371 a 8.091,8.091 0 0 1 -1.587,0.756 8.476,8.476 0 0 1 -2.1,0.228 1.877,1.877 0 0 1 -1.42,-0.536 1.9,1.9 0 0 1 -0.519,-1.38 4.807,4.807 0 0 1 1.489,-2.9 10.912,10.912 0 0 1 4.043,-2.76 q 1.8,-0.756 2.2,-0.967 0.035,-0.58 0.035,-1.266 a 5.161,5.161 0 0 0 -0.626,-3.023 2.149,2.149 0 0 0 -1.79,-0.791 3.353,3.353 0 0 0 -2.275,0.949 4.2,4.2 0 0 0 -0.987,2.25 3.725,3.725 0 0 1 -0.4,0.984 2.461,2.461 0 0 1 -1.213,0.492 1.173,1.173 0 0 1 -0.7,-0.229 0.346,0.346 0 0 1 -0.176,-0.281 6.062,6.062 0 0 1 0.976,-2.065 6.455,6.455 0 0 1 2.461,-2.408 5.654,5.654 0 0 1 2.593,-0.8 6.928,6.928 0 0 1 2.25,0.272 3.039,3.039 0 0 1 1.3,0.958 3.053,3.053 0 0 1 0.686,1.494 27.474,27.474 0 0 1 0.07,2.76 l -0.057,2.796 0.018,2.039 q 0,0.4 -0.018,0.686 -0.018,0.51 -0.018,0.756 a 1.3,1.3 0 0 0 0.334,0.932 1.055,1.055 0 0 0 0.791,0.352 1.379,1.379 0 0 0 1.143,-0.668 l 0.211,-0.281 a 1.638,1.638 0 0 1 0.387,-0.125 z M 117.316,20.8 q 0.123,-2.232 0.123,-3.146 0,-0.475 -0.053,-1.283 a 12.115,12.115 0 0 0 -2.5,1.283 7.423,7.423 0 0 0 -2.1,1.986 2.706,2.706 0 0 0 -0.564,1.529 1.532,1.532 0 0 0 0.467,1.143 1.61,1.61 0 0 0 1.173,0.457 3.091,3.091 0 0 0 1.317,-0.387 8.838,8.838 0 0 0 2.137,-1.582 z m 6.188,2.3 a 1.815,1.815 0 0 1 0.775,-0.261 3.465,3.465 0 0 0 1.09,-0.281 1.3,1.3 0 0 0 0.42,-0.758 40.959,40.959 0 0 0 0.123,-4.447 30.7,30.7 0 0 0 -0.233,-4.833 3.194,3.194 0 0 0 -1,-0.387 q -0.193,-0.035 -0.809,-0.193 v -0.589 a 5.29,5.29 0 0 0 1.686,-0.776 11.518,11.518 0 0 0 1.792,-1.9 h 0.106 q 0.106,0 0.335,-0.018 a 0.449,0.449 0 0 1 0.23,0.088 l -0.018,2 q 0,0.615 0.035,1.318 a 13.944,13.944 0 0 1 3.369,-2.391 5.552,5.552 0 0 1 2.3,-0.457 4.408,4.408 0 0 1 2.421,0.58 5.543,5.543 0 0 1 1.7,2.092 11.193,11.193 0 0 1 2.839,-2.162 5.871,5.871 0 0 1 2.575,-0.615 4.345,4.345 0 0 1 3.239,1.29 5.43,5.43 0 0 1 1.283,3.819 v 1.461 l 0.018,1.6 -0.018,4.12 a 1.521,1.521 0 0 0 0.317,1.086 q 0.141,0.053 1.072,0.317 a 2.535,2.535 0 0 1 0.686,0.247 0.3,0.3 0 0 1 0.105,0.246 1.267,1.267 0 0 1 -0.105,0.457 h -0.123 l -1.771,-0.106 q -0.316,-0.018 -1,-0.018 -0.842,0 -2.349,0.07 H 143.7 q -0.193,0 -0.754,0.018 a 2.578,2.578 0 0 1 -0.018,-0.281 0.743,0.743 0 0 1 0.123,-0.352 5.386,5.386 0 0 1 1.3,-0.343 q 0.828,-0.131 1.028,-0.475 a 9.279,9.279 0 0 0 0.2,-2.737 q 0,-5.193 -0.123,-6.02 a 3.234,3.234 0 0 0 -1.119,-2.068 3.467,3.467 0 0 0 -2.282,-0.748 4.22,4.22 0 0 0 -2.061,0.554 7.479,7.479 0 0 0 -1.973,1.661 l -0.018,0.422 v 2.689 l -0.07,2.092 q 0,3.2 0.062,3.639 a 0.989,0.989 0 0 0 0.3,0.642 3.445,3.445 0 0 0 1.384,0.359 7.916,7.916 0 0 1 0.791,0.141 0.567,0.567 0 0 1 0.209,0.456 0.33,0.33 0 0 1 -0.158,0.316 h -0.3 l -0.879,-0.018 h -5.115 l -1.406,0.018 a 3.272,3.272 0 0 1 -0.035,-0.387 l 0.018,-0.211 a 5.448,5.448 0 0 1 1.441,-0.4 6.173,6.173 0 0 0 1.125,-0.3 0.535,0.535 0 0 0 0.158,-0.229 6.78,6.78 0 0 0 0.123,-1.406 l 0.088,-2.041 -0.035,-2.3 0.017,-1.29 a 4.7,4.7 0 0 0 -0.877,-3.155 2.822,2.822 0 0 0 -2.21,-0.993 5.633,5.633 0 0 0 -2.5,0.615 5.974,5.974 0 0 0 -2.078,1.652 q -0.018,0.492 -0.018,0.9 l 0.07,5.906 a 6.154,6.154 0 0 0 0.22,2.206 1.376,1.376 0 0 0 0.905,0.378 3.99,3.99 0 0 1 1.461,0.391 0.355,0.355 0 0 1 0.158,0.316 q 0,0.141 -0.018,0.334 -2.009,-0.141 -2.7,-0.141 -0.7,0 -1.269,0.018 l -0.881,0.053 h -0.546 l -1.973,0.07 a 0.771,0.771 0 0 1 -0.035,-0.2 1.787,1.787 0 0 1 0.074,-0.35 z m 40.975,-8.681 -7.049,0.051 h -1.336 q -0.809,0 -1.652,0.073 a 3.1,3.1 0 0 0 -0.158,0.721 l 0.018,0.176 v 0.176 l -0.018,0.861 a 6.858,6.858 0 0 0 0.676,2.623 5.223,5.223 0 0 0 1.934,2.373 5.959,5.959 0 0 0 3.138,0.87 6.47,6.47 0 0 0 1.6,-0.246 8.1,8.1 0 0 0 1.688,-0.9 l 1.266,-1.037 0.105,0.7 a 2.132,2.132 0 0 1 -0.018,0.264 7.722,7.722 0 0 1 -2,1.758 9.547,9.547 0 0 1 -2.466,1.118 8.583,8.583 0 0 1 -1.968,0.157 6.3,6.3 0 0 1 -2.46,-0.51 5.991,5.991 0 0 1 -2.823,-2.487 7.94,7.94 0 0 1 -1.028,-4.16 8.916,8.916 0 0 1 0.29,-1.986 10.445,10.445 0 0 1 1.046,-2.584 5.063,5.063 0 0 1 1.248,-1.53 8.255,8.255 0 0 1 1.846,-1.178 6.88,6.88 0 0 1 2.654,-0.475 5.306,5.306 0 0 1 2.672,0.6 5.3,5.3 0 0 1 2.1,2.039 4.772,4.772 0 0 1 0.695,2.287 z m -9.809,-0.633 h 0.826 q 0.9,0 5.344,-0.281 a 2.226,2.226 0 0 0 0.861,-0.141 0.937,0.937 0 0 0 0.316,-0.6 2.8,2.8 0 0 0 -0.352,-1.239 2.423,2.423 0 0 0 -1.081,-1.072 3.637,3.637 0 0 0 -1.7,-0.378 3.986,3.986 0 0 0 -3.27,1.529 3.536,3.536 0 0 0 -0.944,2.182 z"
     data-name="Path 11"
     id="Path_11" />
</svg>
