<svg xmlns="http://www.w3.org/2000/svg" width="138.797" height="31.904" viewBox="0 0 138.797 31.904">
    <path id="Path_13" data-name="Path 13" d="M-70.058-.422a4.688,4.688,0,0,1,1.969-.527,3.7,3.7,0,0,0,1.318-.193A.657.657,0,0,0-66.56-1.4a14.85,14.85,0,0,0,.387-3.518q.161-3.744.52-9.967.287-4.746.287-5.924v-.457q-1.27-.264-4.023-.563a.843.843,0,0,1-.176-.4.854.854,0,0,1,.123-.316,1.505,1.505,0,0,1,.456-.105,5.54,5.54,0,0,1,.614.07A17.645,17.645,0,0,0-66-22.465q.491,0,1.684-.08.842-.06.947-.06a2.4,2.4,0,0,1,.649.105,1.581,1.581,0,0,1,.271.339l.736,1.652,4.975,11,2.074,4.619a78.113,78.113,0,0,0,3.783-8.6,2.894,2.894,0,0,1,.21-.51,6.032,6.032,0,0,0,.3-.668q.14-.369,1.138-2.812.4-.984.648-1.687,1-2.812,1.173-3.217a1.543,1.543,0,0,1,.582-.141,6.317,6.317,0,0,1,.722.053q.987.053,3.208.053,1.375,0,2.256-.035a1.777,1.777,0,0,1,.035.281,1.465,1.465,0,0,1-.053.334,3.156,3.156,0,0,1-1.354.334,8.8,8.8,0,0,0-1.986.246.9.9,0,0,0-.536.4,7.106,7.106,0,0,0-.2,1.617l.018.809-.018.844q0,2.637.141,8.859l-.018,3.445.018,2.215a5.106,5.106,0,0,0,.123,1.538,1.27,1.27,0,0,0,.7.448,21.127,21.127,0,0,0,3.094.65.269.269,0,0,1,.123.229q0,.158-.018.352h-.81q-1.039,0-2.254-.062t-1.3-.062q-3.61,0-4.789.08-.722.06-.915.06a.6.6,0,0,1-.264-.07V-.123a1.163,1.163,0,0,1,.053-.334A5.353,5.353,0,0,1-49.28-.791a5.9,5.9,0,0,0,1.617-.633A14.69,14.69,0,0,0-47.5-4.152l-.053-3.554q0-.581.062-2.164t.062-5.155q0-2.833-.141-4.293-.3.615-1.173,2.672l-.263.668-.035.105-2.591,6.152-.928,2.373-1.208,2.883Q-54.56-2.479-55.12-.949q-.245.7-.4,1.107l-.41-.018q-1.989-5.8-4.743-11.9t-3.863-8.051q-.145.756-.326,4.395-.235,4.43-.235,9.756a32.287,32.287,0,0,0,.246,3.749,1.16,1.16,0,0,0,.51.885A5.422,5.422,0,0,0-62.076-.7,8.143,8.143,0,0,1-60.74-.6a1.113,1.113,0,0,1,.123.4A.98.98,0,0,1-60.7.105l-5.458-.193q-.6,0-1.86.078-.7.047-2.018.063Zm29.971-13.43q.387-.035.65-.035h.844l1.143-.035,1.494.053,1.213-.035a11.145,11.145,0,0,1,1.74.123.81.81,0,0,1,.07.281l-.018.141a3.561,3.561,0,0,1-1.143.246,3.625,3.625,0,0,0-1.564.387l-.035.193a1.6,1.6,0,0,0,.141.528q.088.211.23.634.388,1.3,1.677,5.036.935,2.694,1.73,4.631.484-1.063,1.107-2.692l1.476-4.173a16.741,16.741,0,0,0,.776-2.734,4.812,4.812,0,0,0,.105-.861.689.689,0,0,0-.229-.492,1.981,1.981,0,0,0-.914-.387,8.918,8.918,0,0,1-1.354-.4.459.459,0,0,1-.123-.343.843.843,0,0,1,.246-.141h1.09l1.178.018,1.758-.018,1.125.018.281-.018a3.715,3.715,0,0,1,.4.035.294.294,0,0,1,.176.281.417.417,0,0,1-.158.316l-.352.053a3.546,3.546,0,0,0-1.564.527,1.68,1.68,0,0,0-.51.879,6.4,6.4,0,0,1-.229.633q-.088.211-.255.7t-.43,1.159l-.211.492-.018.088L-31.522-.887-33.7,5.032q-.211.441-.493,1.093A11.816,11.816,0,0,1-34.984,7.5a4.735,4.735,0,0,1-.915.917l-.9.388a2.173,2.173,0,0,1-.563.071,1.658,1.658,0,0,1-1.162-.346,1.234,1.234,0,0,1-.37-.948,1.332,1.332,0,0,1,.546-1.027,2.2,2.2,0,0,0,.352-.141l.229-.053a16.016,16.016,0,0,0,1.954.281,1.436,1.436,0,0,0,.546-.456,14.782,14.782,0,0,0,1.482-2.852,7.432,7.432,0,0,0,.62-2.124,5.125,5.125,0,0,0-.466-1.74L-35.583-5.7q-.405-1-2.412-6.539a1.263,1.263,0,0,0-.316-.527l-1.2-.439-.369-.07q-.3-.123-.3-.352ZM-15.53-22.43a3.36,3.36,0,0,1,.4-.053q.6,0,1.969.07.721.018.984.018.387,0,1.635-.07l2.988-.176q1.178-.105,2.742-.105a10.312,10.312,0,0,1,4.395.781,5.488,5.488,0,0,1,2.522,2.449A7.013,7.013,0,0,1,3-16.2a6.612,6.612,0,0,1-1.934,4.757,6.9,6.9,0,0,1-5.2,2,5.4,5.4,0,0,1-1.529-.185,5.461,5.461,0,0,1-1.406-.712.929.929,0,0,1-.4-.475.4.4,0,0,1,.193-.176,1.369,1.369,0,0,1,.51.105,4.6,4.6,0,0,0,1.512.211,5.355,5.355,0,0,0,2.628-.684A4.457,4.457,0,0,0-.765-13.3,5.88,5.88,0,0,0-.132-15.97,5.725,5.725,0,0,0-.8-18.629a5.665,5.665,0,0,0-1.755-2.062,5.479,5.479,0,0,0-1.886-.737,9.3,9.3,0,0,0-1.974-.3,5.759,5.759,0,0,0-2.579.316l-.018.246.053,1.985-.018.351q-.035.474-.035,1.458,0,3.583.105,4.461v.984L-8.675-3.9q0,.176-.044.65t-.044.825a4.448,4.448,0,0,0,.141,1.282q.422.123,2.461.58.949.229,1.037.264a.505.505,0,0,1,.246.229.6.6,0,0,1-.185.343.864.864,0,0,1-.448.079q-.211,0-.984-.088Q-8.007.105-8.868.105l-3.094.123L-13.808.176q-.176,0-1.02.035l-.018-.457,2.285-.439A1.465,1.465,0,0,0-11.874-1a1.813,1.813,0,0,0,.176-.966q0-.158.018-.685.018-.369.018-1.019,0-2.073-.176-8.835-.07-3.161-.07-6.428v-.3q0-1.265-.387-1.6a7.223,7.223,0,0,0-3.252-.948.811.811,0,0,1-.088-.316A.725.725,0,0,1-15.53-22.43ZM6.442-21.6a1.33,1.33,0,0,1,.448-1,1.521,1.521,0,0,1,1.081-.422,1.6,1.6,0,0,1,1.143.475,1.406,1.406,0,0,1,.492,1.02A1.434,1.434,0,0,1,9.114-20.5a1.581,1.581,0,0,1-1.143.483,1.48,1.48,0,0,1-1.09-.439A1.546,1.546,0,0,1,6.442-21.6ZM4.966-12.48,4.983-13q1.143-.335,1.23-.388a5.757,5.757,0,0,0,1.327-.864A5.987,5.987,0,0,0,8.71-15.557a2.152,2.152,0,0,1,.334-.035l.211.018q.07.844.07,1.23,0,.088-.035.791v.932l.018,5.063L9.255-2.2a1.314,1.314,0,0,0,.211.905,3.431,3.431,0,0,0,1.354.571,10.687,10.687,0,0,1,1.055.334.553.553,0,0,1,.053.211.576.576,0,0,1-.088.264Q11.153.07,10.081,0,8.622-.123,8.147-.123q-.229,0-2.812.088a9.429,9.429,0,0,0-1.02.088A1.219,1.219,0,0,1,4.034,0a.387.387,0,0,1-.088-.211q0-.246.334-.387.07-.035,1.793-.4a1.144,1.144,0,0,0,.738-.351,1.864,1.864,0,0,0,.3-1.176q.035-1.351.035-7.407a6.2,6.2,0,0,0-.105-1.51,1.334,1.334,0,0,0-.466-.483A5.108,5.108,0,0,0,4.966-12.48Zm21.146,3.2-7.049.051H17.728q-.809,0-1.652.073a3.1,3.1,0,0,0-.158.721l.018.176v.176l-.018.861A6.858,6.858,0,0,0,16.594-4.6a5.223,5.223,0,0,0,1.934,2.373,5.959,5.959,0,0,0,3.138.87,6.47,6.47,0,0,0,1.6-.246,8.1,8.1,0,0,0,1.688-.9l1.266-1.037.105.7a2.133,2.133,0,0,1-.018.264,7.722,7.722,0,0,1-2,1.758A9.547,9.547,0,0,1,21.841.3a8.583,8.583,0,0,1-1.969.158,6.3,6.3,0,0,1-2.461-.51A5.991,5.991,0,0,1,14.59-2.54,7.94,7.94,0,0,1,13.562-6.7a8.916,8.916,0,0,1,.29-1.986A10.445,10.445,0,0,1,14.9-11.268,5.063,5.063,0,0,1,16.146-12.8a8.255,8.255,0,0,1,1.846-1.178,6.88,6.88,0,0,1,2.654-.475,5.306,5.306,0,0,1,2.672.6,5.3,5.3,0,0,1,2.1,2.039,4.772,4.772,0,0,1,.694,2.285ZM16.3-9.914h.826q.9,0,5.344-.281a2.226,2.226,0,0,0,.861-.141.937.937,0,0,0,.316-.6,2.8,2.8,0,0,0-.352-1.239,2.423,2.423,0,0,0-1.081-1.072,3.637,3.637,0,0,0-1.7-.378,3.986,3.986,0,0,0-3.27,1.529A3.536,3.536,0,0,0,16.3-9.914Zm24.926,6.7.018,1.143A8.464,8.464,0,0,1,38.54-.035a7.854,7.854,0,0,1-3.146.58A6.374,6.374,0,0,1,31.843-.483a6.637,6.637,0,0,1-2.435-2.909,8.9,8.9,0,0,1-.853-3.691,7.342,7.342,0,0,1,1.028-3.753,6.619,6.619,0,0,1,2.725-2.637,9.293,9.293,0,0,1,4.263-.87,6.839,6.839,0,0,1,3.744.844,1.479,1.479,0,0,1,.721,1.266,1.263,1.263,0,0,1-.369.932,1.285,1.285,0,0,1-.949.369,2.9,2.9,0,0,1-1.934-1.09,4.461,4.461,0,0,0-1.178-.923,2.671,2.671,0,0,0-1.178-.255,3.212,3.212,0,0,0-2.6,1.283A7.181,7.181,0,0,0,31.386-7.33a6.644,6.644,0,0,0,1.477,4.535,4.459,4.459,0,0,0,3.445,1.688,6.221,6.221,0,0,0,2.435-.448A10.171,10.171,0,0,0,41.229-3.217ZM56.1-9.281l-7.049.051H47.716q-.809,0-1.652.073a3.1,3.1,0,0,0-.158.721l.018.176v.176l-.018.861A6.858,6.858,0,0,0,46.582-4.6a5.223,5.223,0,0,0,1.934,2.373,5.959,5.959,0,0,0,3.138.87,6.47,6.47,0,0,0,1.6-.246,8.1,8.1,0,0,0,1.688-.9l1.266-1.037.105.7a2.132,2.132,0,0,1-.018.264,7.722,7.722,0,0,1-2,1.758A9.547,9.547,0,0,1,51.829.3,8.583,8.583,0,0,1,49.86.457,6.3,6.3,0,0,1,47.4-.053,5.991,5.991,0,0,1,44.578-2.54,7.94,7.94,0,0,1,43.55-6.7a8.916,8.916,0,0,1,.29-1.986,10.445,10.445,0,0,1,1.046-2.584A5.063,5.063,0,0,1,46.134-12.8a8.255,8.255,0,0,1,1.846-1.178,6.88,6.88,0,0,1,2.654-.475,5.306,5.306,0,0,1,2.672.6,5.3,5.3,0,0,1,2.1,2.039A4.772,4.772,0,0,1,56.1-9.527Zm-9.809-.633h.826q.9,0,5.344-.281a2.226,2.226,0,0,0,.861-.141.937.937,0,0,0,.316-.6,2.8,2.8,0,0,0-.352-1.239,2.423,2.423,0,0,0-1.081-1.072,3.637,3.637,0,0,0-1.7-.378,3.986,3.986,0,0,0-3.27,1.529A3.536,3.536,0,0,0,46.292-9.914ZM59.7-4.465A13.231,13.231,0,0,0,60.688-2.3a4.987,4.987,0,0,0,1.6,1.556,3.886,3.886,0,0,0,2.021.554A3.024,3.024,0,0,0,66.3-1.055,2,2,0,0,0,67-2.566a3.181,3.181,0,0,0-.826-2.109A7.955,7.955,0,0,0,63.035-6.5a7.334,7.334,0,0,1-3.1-1.854,3.493,3.493,0,0,1-.791-2.25,3.546,3.546,0,0,1,.65-2.109,3.985,3.985,0,0,1,1.793-1.38,5.626,5.626,0,0,1,2.109-.466,11.787,11.787,0,0,1,2.241.193,5.723,5.723,0,0,1,1.714.6q.141.9.229,2.637l.035.563q-.229.018-.387.018H67.28a5.046,5.046,0,0,0-1.608-2.312,3.461,3.461,0,0,0-2.136-.853,2.323,2.323,0,0,0-1.705.642,2.254,2.254,0,0,0-.65,1.679,2.1,2.1,0,0,0,.527,1.406,7.028,7.028,0,0,0,2.47,1.4,12.857,12.857,0,0,1,2.83,1.465,4.121,4.121,0,0,1,1.31,1.645,4.622,4.622,0,0,1,.422,1.847,3.686,3.686,0,0,1-.8,2.27,4.285,4.285,0,0,1-2,1.487,6.48,6.48,0,0,1-2.153.431,10.115,10.115,0,0,1-4.113-.826.69.69,0,0,1-.193-.527q0-.158-.035-.51-.281-2.373-.281-2.812a.35.35,0,0,1,.088-.281A.889.889,0,0,1,59.7-4.465Z" transform="translate(70.058 23.027)" fill="#fff"/>
</svg>
