<?xml version="1.0" encoding="UTF-8" standalone="no"?>
<svg
   xmlns:dc="http://purl.org/dc/elements/1.1/"
   xmlns:cc="http://creativecommons.org/ns#"
   xmlns:rdf="http://www.w3.org/1999/02/22-rdf-syntax-ns#"
   xmlns:svg="http://www.w3.org/2000/svg"
   xmlns="http://www.w3.org/2000/svg"
   xmlns:sodipodi="http://sodipodi.sourceforge.net/DTD/sodipodi-0.dtd"
   xmlns:inkscape="http://www.inkscape.org/namespaces/inkscape"
   inkscape:version="1.0 (4035a4fb49, 2020-05-01)"
   sodipodi:docname="New Game.svg"
   id="svg3"
   version="1.1"
   viewBox="0 0 159.55799 23.904499"
   height="23.904499"
   width="159.558">
  <metadata
     id="metadata9">
    <rdf:RDF>
      <cc:Work
         rdf:about="">
        <dc:format>image/svg+xml</dc:format>
        <dc:type
           rdf:resource="http://purl.org/dc/dcmitype/StillImage" />
      </cc:Work>
    </rdf:RDF>
  </metadata>
  <defs
     id="defs7" />
  <sodipodi:namedview
     inkscape:current-layer="svg3"
     inkscape:window-maximized="1"
     inkscape:window-y="-9"
     inkscape:window-x="-9"
     inkscape:cy="11.959444"
     inkscape:cx="79.779503"
     inkscape:zoom="7.5709618"
     showgrid="false"
     id="namedview5"
     inkscape:window-height="1001"
     inkscape:window-width="1920"
     inkscape:pageshadow="2"
     inkscape:pageopacity="0"
     guidetolerance="10"
     gridtolerance="10"
     objecttolerance="10"
     borderopacity="1"
     bordercolor="#666666"
     pagecolor="#ffffff" />
  <path
     fill="#ffffff"
     d="M 0.018,1.5779445 0,0.73394447 q 2.725,0 3.99,-0.141 0.492,-0.053 0.686,-0.053 0.158,0 0.475,0.018 A 9.753,9.753 0 0 1 6.522,1.9639445 q 0.141,0.158 0.316,0.352 l 3.709,4.1 0.527,0.633 q 1.125,1.318 2.048,2.25 0.923,0.9319995 3.595,3.8789995 l 4.2,4.658 q 0.615,0.686 1.582,1.705 l 0.018,-0.281 q -0.105,-2.443 -0.105,-2.584 l 0.07,-1.055 -0.035,-1.652 v -0.756 q 0,-0.721 -0.123,-4.4469995 -0.018,-0.51 -0.141,-1.925 -0.123,-1.415 -0.123,-2.487 a 5.8,5.8 0 0 0 -0.229,-2.25 3.2,3.2 0 0 0 -1.494,-0.475 q -0.316,-0.018 -0.984,-0.105 a 4.92,4.92 0 0 1 -0.932,-0.088 0.634,0.634 0 0 1 -0.281,-0.3 1.619,1.619 0 0 1 0.158,-0.52700003 3.269,3.269 0 0 1 0.932,-0.141 7.576,7.576 0 0 1 1.222,0.123 7.954,7.954 0 0 0 1.31,0.123 q 0.809,0 2.514,-0.105 0.967,-0.07 1.336,-0.07 h 0.3 L 25.877,1.0839445 a 2.284,2.284 0 0 1 -0.773,0.149 4.028,4.028 0 0 0 -0.914,0.149 2,2 0 0 0 -0.756,0.334 1.377,1.377 0 0 0 -0.422,0.932 l 0.193,5.555 0.141,2.5489995 -0.018,0.738 0.105,3.533 q 0.105,3.621 0.105,6.293 0,0.58 -0.07,2.514 l -0.82,0.07 q -0.616,-0.7 -4.238,-4.43 -0.844,-0.861 -1.143,-1.213 l -1.512,-1.74 q -0.879,-0.967 -1.143,-1.23 l -0.387,-0.387 q -1.917,-2.18 -4.977,-5.4489995 -0.826,-0.879 -2.427,-2.742 -1,-1.178 -1.266,-1.441 a 6.256,6.256 0 0 0 -0.721,-0.6 l -0.053,0.6 q 0,3.428 0.176,9.4569995 l 0.123,5.818 q 0.018,0.738 0.088,1.424 l 0.615,0.141 q 1.67,0.158 3.287,0.475 a 1.629,1.629 0 0 0 0.211,0.158 l -0.018,0.668 a 1.613,1.613 0 0 1 -0.457,0.088 3.932,3.932 0 0 1 -0.475,-0.035 q -1.74,-0.141 -4.236,-0.141 -1.758,0 -3.094,0.088 l -0.246,0.018 a 4.227,4.227 0 0 1 -0.457,-0.035 l -0.017,-0.525 0.457,-0.211 0.826,-0.123 a 8.253,8.253 0 0 0 1.617,-0.355 1.288,1.288 0 0 0 0.545,-0.369 24.293,24.293 0 0 0 0.193,-3.551 q 0,-1.09 -0.053,-3.99 v -2.39 L 3.831,6.8859445 a 21.664,21.664 0 0 0 -0.229,-3.937 1.165,1.165 0 0 0 -0.439,-0.562 3.7,3.7 0 0 0 -1.749,-0.6 11.682,11.682 0 0 1 -1.396,-0.209 z m 41.2,12.2169995 -7.049,0.051 h -1.336 q -0.809,0 -1.652,0.073 a 3.1,3.1 0 0 0 -0.158,0.721 l 0.018,0.176 v 0.176 l -0.018,0.861 a 6.858,6.858 0 0 0 0.68,2.625 5.223,5.223 0 0 0 1.934,2.373 5.959,5.959 0 0 0 3.138,0.87 6.47,6.47 0 0 0 1.6,-0.246 8.1,8.1 0 0 0 1.688,-0.9 l 1.266,-1.037 0.105,0.7 a 2.132,2.132 0 0 1 -0.018,0.264 7.722,7.722 0 0 1 -2,1.758 9.547,9.547 0 0 1 -2.466,1.118 8.583,8.583 0 0 1 -1.969,0.157 6.3,6.3 0 0 1 -2.461,-0.51 5.991,5.991 0 0 1 -2.821,-2.487 7.94,7.94 0 0 1 -1.029,-4.16 8.916,8.916 0 0 1 0.29,-1.986 10.445,10.445 0 0 1 1.046,-2.584 5.063,5.063 0 0 1 1.248,-1.53 8.255,8.255 0 0 1 1.846,-1.1779995 6.88,6.88 0 0 1 2.654,-0.475 5.306,5.306 0 0 1 2.672,0.6 5.3,5.3 0 0 1 2.1,2.0389995 4.772,4.772 0 0 1 0.694,2.285 z m -9.809,-0.633 h 0.826 q 0.9,0 5.344,-0.281 a 2.226,2.226 0 0 0 0.861,-0.141 0.937,0.937 0 0 0 0.316,-0.6 2.8,2.8 0 0 0 -0.352,-1.239 2.423,2.423 0 0 0 -1.081,-1.0719995 3.637,3.637 0 0 0 -1.7,-0.378 3.986,3.986 0 0 0 -3.27,1.5289995 3.536,3.536 0 0 0 -0.94,2.184 z m 10.512,-3.9369995 6.75,0.018 a 0.374,0.374 0 0 1 0.264,0.07 0.286,0.286 0 0 1 0.07,0.211 0.534,0.534 0 0 1 -0.262,0.4919995 3.734,3.734 0 0 0 -1.522,0.3 0.673,0.673 0 0 0 -0.3,0.58 1.536,1.536 0 0 0 0.035,0.334 13.009,13.009 0 0 0 0.515,1.248 q 0.6,1.389 2.126,4.5 l 2.091,4.254 a 50.567,50.567 0 0 0 2.893,-5.812 l -1.077,-2.819 q -0.175,-0.387 -0.447,-1.16 a 2.841,2.841 0 0 0 -0.421,-0.905 4.052,4.052 0 0 0 -1.078,-0.4 4.347,4.347 0 0 1 -1.1,-0.3999995 l -0.018,-0.123 a 0.7,0.7 0 0 1 0.105,-0.3 2.93,2.93 0 0 1 0.668,-0.105 l 1,0.018 h 2.2 l 0.668,-0.018 2.162,0.035 q 0.264,0 0.439,-0.018 h 0.3 q 0.105,0 0.3,0.018 l -0.035,0.563 a 2.326,2.326 0 0 1 -0.879,0.2289995 5.2,5.2 0 0 0 -1.787,0.443 0.6,0.6 0 0 0 -0.193,0.369 2.949,2.949 0 0 0 0.211,0.967 q 0.071,0.176 0.37,1.09 l 1.886,4.957 q 0.828,2.215 1.269,3.094 a 45.109,45.109 0 0 0 2.071,-4.877 q 0.474,-1.23 1.263,-2.936 a 4.493,4.493 0 0 0 0.51,-1.856 0.913,0.913 0 0 0 -0.3,-0.689 3.344,3.344 0 0 0 -1.39,-0.53 7.371,7.371 0 0 1 -0.968,-0.2609995 0.453,0.453 0 0 1 -0.088,-0.223 0.519,0.519 0 0 1 0.193,-0.343 h 0.264 l 1.424,-0.017 q 0.088,0 0.809,0.026 0.721,0.026 1.406,0.026 0.527,0 1.213,-0.035 h 0.879 a 0.325,0.325 0 0 1 0.149,0.088 0.276,0.276 0 0 1 0.044,0.176 1.886,1.886 0 0 1 -0.053,0.422 3.537,3.537 0 0 0 -1.354,0.3999995 5.392,5.392 0 0 0 -1.336,1.591 l -3.138,7.561 q -0.441,1.051 -1.526,3.231 -0.228,0.457 -0.342,0.738 a 0.983,0.983 0 0 1 -0.219,0.369 0.424,0.424 0 0 1 -0.281,0.088 1.139,1.139 0 0 1 -0.335,-0.07 q -0.493,-0.967 -2.182,-5.33 -0.456,-1.161 -0.856,-1.975 -2.853,5.974 -3.741,7.34 a 3.1,3.1 0 0 1 -0.385,0.035 2.7,2.7 0 0 1 -0.366,-0.035 l -3.324,-6.943 -3.043,-5.941 a 2.368,2.368 0 0 0 -0.492,-0.668 2.968,2.968 0 0 0 -1.055,-0.316 q -0.422,-0.069999 -0.65,-0.1049995 -0.018,-0.264 -0.018,-0.4 0,-0.094 0.017,-0.27 z m 56.816,-7.487 0.193,2.672 q 0.105,1.213 0.105,1.652 l -0.492,0.088 a 9.96,9.96 0 0 0 -2.927,-4.008 6.844,6.844 0 0 0 -4.28,-1.33600003 12.313,12.313 0 0 0 -4.816,0.75600003 9.835,9.835 0 0 0 -4.271,3.727 11.242,11.242 0 0 0 -1.775,6.3999995 10.935,10.935 0 0 0 0.65,3.885 11.789,11.789 0 0 0 1.836,3.204 12.51,12.51 0 0 0 2.8,2.575 7.811,7.811 0 0 0 2.521,1.092 11.625,11.625 0 0 0 2.461,0.193 10.386,10.386 0 0 0 2.338,-0.3 5.087,5.087 0 0 0 1.934,-0.8 2.594,2.594 0 0 0 0.888,-1.134 8.273,8.273 0 0 0 0.237,-2.461 q 0,-3.041 -0.4,-3.542 -0.4,-0.501 -2.558,-0.657 l -0.7,-0.053 -0.475,0.018 q -0.105,-0.018 -0.281,-0.053 l -0.264,-0.439 a 0.4,0.4 0 0 1 0.123,-0.229 33.9,33.9 0 0 1 3.973,-0.141 q 0.686,0 2.232,0.035 l 1.811,0.07 1.635,-0.018 q 0.475,0 1.143,0.035 a 0.251,0.251 0 0 1 0.158,0.062 0.243,0.243 0 0 1 0.035,0.149 1.821,1.821 0 0 1 -0.09,0.498 5.873,5.873 0 0 1 -1.143,0.158 l -1.143,-0.018 a 1.174,1.174 0 0 0 -0.932,0.4 2.68,2.68 0 0 0 -0.176,1.318 l 0.018,2.3 a 13.993,13.993 0 0 1 -0.193,3.023 1.462,1.462 0 0 1 -0.439,0.694 5.031,5.031 0 0 1 -1.406,0.729 13.639,13.639 0 0 1 -2.777,0.826 26.109,26.109 0 0 1 -4.482,0.4 15.56,15.56 0 0 1 -5.7,-0.888 11.446,11.446 0 0 1 -3.837,-2.46 10.112,10.112 0 0 1 -2.29,-3.199 11.964,11.964 0 0 1 -1.037,-4.834 12.316,12.316 0 0 1 1.626,-6.0209995 11.943,11.943 0 0 1 5.247,-4.79 15.385,15.385 0 0 1 6.926,-1.30000003 19.194,19.194 0 0 1 4.948,0.527 12.6,12.6 0 0 1 3.046,1.19500003 z m 18.6,18.9489995 a 0.931,0.931 0 0 1 0.105,0.334 2.266,2.266 0 0 1 -0.422,0.932 3.784,3.784 0 0 1 -1.215,1.283 2.181,2.181 0 0 1 -1.16,0.264 2.309,2.309 0 0 1 -1.9,-0.773 3.293,3.293 0 0 1 -0.545,-1.635 l -1.967,1.371 a 8.091,8.091 0 0 1 -1.582,0.756 8.476,8.476 0 0 1 -2.109,0.229 1.877,1.877 0 0 1 -1.415,-0.536 1.9,1.9 0 0 1 -0.519,-1.38 4.807,4.807 0 0 1 1.489,-2.9 10.912,10.912 0 0 1 4.043,-2.76 q 1.8,-0.756 2.2,-0.967 0.035,-0.58 0.035,-1.266 a 5.161,5.161 0 0 0 -0.626,-3.023 2.149,2.149 0 0 0 -1.79,-0.7909995 3.353,3.353 0 0 0 -2.275,0.9489995 4.2,4.2 0 0 0 -0.987,2.25 3.725,3.725 0 0 1 -0.4,0.984 2.461,2.461 0 0 1 -1.213,0.492 1.173,1.173 0 0 1 -0.7,-0.229 0.346,0.346 0 0 1 -0.176,-0.281 6.062,6.062 0 0 1 0.976,-2.065 6.455,6.455 0 0 1 2.461,-2.4079995 5.654,5.654 0 0 1 2.593,-0.8 6.928,6.928 0 0 1 2.25,0.272 3.039,3.039 0 0 1 1.3,0.958 3.053,3.053 0 0 1 0.686,1.4939995 27.474,27.474 0 0 1 0.07,2.76 l -0.053,2.795 0.018,2.039 q 0,0.4 -0.018,0.686 -0.018,0.51 -0.018,0.756 a 1.3,1.3 0 0 0 0.334,0.932 1.055,1.055 0 0 0 0.791,0.352 1.379,1.379 0 0 0 1.143,-0.668 l 0.211,-0.281 a 1.638,1.638 0 0 1 0.383,-0.125 z m -5.156,-0.509 q 0.123,-2.232 0.123,-3.146 0,-0.475 -0.053,-1.283 a 12.115,12.115 0 0 0 -2.5,1.283 7.423,7.423 0 0 0 -2.1,1.986 2.706,2.706 0 0 0 -0.564,1.529 1.532,1.532 0 0 0 0.467,1.143 1.61,1.61 0 0 0 1.173,0.457 3.091,3.091 0 0 0 1.323,-0.387 8.838,8.838 0 0 0 2.131,-1.582 z m 6.191,2.3 a 1.815,1.815 0 0 1 0.773,-0.264 3.465,3.465 0 0 0 1.09,-0.281 1.3,1.3 0 0 0 0.422,-0.756 40.959,40.959 0 0 0 0.124,-4.445 30.7,30.7 0 0 0 -0.229,-4.834 3.194,3.194 0 0 0 -1,-0.387 q -0.193,-0.035 -0.809,-0.193 v -0.589 a 5.29,5.29 0 0 0 1.686,-0.7759995 11.518,11.518 0 0 0 1.792,-1.9 h 0.106 q 0.106,0 0.335,-0.018 a 0.449,0.449 0 0 1 0.23,0.088 l -0.018,1.9999995 q 0,0.615 0.035,1.318 a 13.944,13.944 0 0 1 3.369,-2.3909995 5.552,5.552 0 0 1 2.3,-0.457 4.408,4.408 0 0 1 2.421,0.58 5.543,5.543 0 0 1 1.7,2.0919995 11.193,11.193 0 0 1 2.839,-2.1619995 5.871,5.871 0 0 1 2.575,-0.615 4.345,4.345 0 0 1 3.233,1.29 5.43,5.43 0 0 1 1.283,3.8189995 v 1.461 l 0.018,1.6 -0.018,4.12 a 1.521,1.521 0 0 0 0.316,1.091 q 0.141,0.053 1.072,0.317 a 2.535,2.535 0 0 1 0.686,0.247 0.3,0.3 0 0 1 0.105,0.246 1.267,1.267 0 0 1 -0.105,0.457 h -0.122 l -1.771,-0.111 q -0.316,-0.018 -1,-0.018 -0.842,0 -2.349,0.07 h -0.894 q -0.193,0 -0.754,0.018 a 2.578,2.578 0 0 1 -0.018,-0.281 0.743,0.743 0 0 1 0.123,-0.352 5.386,5.386 0 0 1 1.3,-0.343 q 0.826,-0.132 1.028,-0.475 a 9.279,9.279 0 0 0 0.2,-2.737 q 0,-5.193 -0.123,-6.02 a 3.234,3.234 0 0 0 -1.119,-2.068 3.467,3.467 0 0 0 -2.282,-0.748 4.22,4.22 0 0 0 -2.061,0.554 7.479,7.479 0 0 0 -1.973,1.661 l -0.018,0.422 v 2.689 l -0.07,2.092 q 0,3.2 0.062,3.639 a 0.989,0.989 0 0 0 0.3,0.642 3.445,3.445 0 0 0 1.38,0.36 7.916,7.916 0 0 1 0.791,0.141 0.567,0.567 0 0 1 0.211,0.457 0.33,0.33 0 0 1 -0.158,0.316 h -0.3 l -0.879,-0.018 h -5.113 l -1.406,0.018 a 3.272,3.272 0 0 1 -0.035,-0.387 l 0.018,-0.211 a 5.448,5.448 0 0 1 1.441,-0.4 6.173,6.173 0 0 0 1.125,-0.3 0.535,0.535 0 0 0 0.158,-0.229 6.78,6.78 0 0 0 0.123,-1.406 l 0.088,-2.039 -0.035,-2.3 0.017,-1.294 a 4.7,4.7 0 0 0 -0.877,-3.155 2.822,2.822 0 0 0 -2.21,-0.993 5.633,5.633 0 0 0 -2.5,0.615 5.974,5.974 0 0 0 -2.078,1.652 q -0.018,0.492 -0.018,0.9 l 0.076,5.907 a 6.154,6.154 0 0 0 0.22,2.206 1.376,1.376 0 0 0 0.905,0.378 3.99,3.99 0 0 1 1.455,0.39 0.355,0.355 0 0 1 0.158,0.316 q 0,0.141 -0.018,0.334 -2.009,-0.141 -2.7,-0.141 -0.7,0 -1.269,0.018 l -0.881,0.053 h -0.546 l -1.973,0.07 a 0.771,0.771 0 0 1 -0.035,-0.2 1.787,1.787 0 0 1 0.075,-0.35 z m 40.974,-8.681 -7.049,0.051 h -1.336 q -0.809,0 -1.652,0.073 a 3.1,3.1 0 0 0 -0.158,0.721 l 0.018,0.176 v 0.176 l -0.018,0.861 a 6.858,6.858 0 0 0 0.677,2.623 5.223,5.223 0 0 0 1.933,2.376 5.959,5.959 0 0 0 3.138,0.87 6.47,6.47 0 0 0 1.6,-0.246 8.1,8.1 0 0 0 1.688,-0.9 l 1.266,-1.037 0.105,0.7 a 2.132,2.132 0 0 1 -0.018,0.264 7.722,7.722 0 0 1 -2,1.758 9.547,9.547 0 0 1 -2.465,1.115 8.583,8.583 0 0 1 -1.969,0.158 6.3,6.3 0 0 1 -2.461,-0.51 5.991,5.991 0 0 1 -2.821,-2.488 7.94,7.94 0 0 1 -1.029,-4.16 8.916,8.916 0 0 1 0.29,-1.986 10.445,10.445 0 0 1 1.046,-2.584 5.063,5.063 0 0 1 1.25,-1.53 8.255,8.255 0 0 1 1.846,-1.1779995 6.88,6.88 0 0 1 2.654,-0.475 5.306,5.306 0 0 1 2.672,0.6 5.3,5.3 0 0 1 2.1,2.0389995 4.772,4.772 0 0 1 0.694,2.285 z m -9.809,-0.633 h 0.826 q 0.9,0 5.344,-0.281 a 2.226,2.226 0 0 0 0.861,-0.141 0.937,0.937 0 0 0 0.316,-0.6 2.8,2.8 0 0 0 -0.352,-1.239 2.423,2.423 0 0 0 -1.081,-1.0719995 3.637,3.637 0 0 0 -1.7,-0.378 3.986,3.986 0 0 0 -3.27,1.5289995 3.536,3.536 0 0 0 -0.943,2.182 z"
     data-name="Path 10"
     id="Path_10" />
</svg>
