<?xml version="1.0" encoding="UTF-8" standalone="no"?>
<svg
   xmlns:dc="http://purl.org/dc/elements/1.1/"
   xmlns:cc="http://creativecommons.org/ns#"
   xmlns:rdf="http://www.w3.org/1999/02/22-rdf-syntax-ns#"
   xmlns:svg="http://www.w3.org/2000/svg"
   xmlns="http://www.w3.org/2000/svg"
   xmlns:sodipodi="http://sodipodi.sourceforge.net/DTD/sodipodi-0.dtd"
   xmlns:inkscape="http://www.inkscape.org/namespaces/inkscape"
   inkscape:version="1.0 (4035a4fb49, 2020-05-01)"
   sodipodi:docname="rook.svg"
   id="svg1825"
   height="45"
   width="45"
   version="1.1">
  <metadata
     id="metadata1831">
    <rdf:RDF>
      <cc:Work
         rdf:about="">
        <dc:format>image/svg+xml</dc:format>
        <dc:type
           rdf:resource="http://purl.org/dc/dcmitype/StillImage" />
        <dc:title></dc:title>
      </cc:Work>
    </rdf:RDF>
  </metadata>
  <defs
     id="defs1829" />
  <sodipodi:namedview
     inkscape:current-layer="svg1825"
     inkscape:window-maximized="1"
     inkscape:window-y="-9"
     inkscape:window-x="-9"
     inkscape:cy="24.315953"
     inkscape:cx="-6.5240396"
     inkscape:zoom="6.2986114"
     showgrid="false"
     id="namedview1827"
     inkscape:window-height="1001"
     inkscape:window-width="1920"
     inkscape:pageshadow="2"
     inkscape:pageopacity="0"
     guidetolerance="10"
     gridtolerance="10"
     objecttolerance="10"
     borderopacity="1"
     bordercolor="#666666"
     pagecolor="#ffffff" />
  <path
     sodipodi:nodetypes="cccccccccccccccccccccccccccccccccccccccc"
     d="M 0.08007812,0 V 45.167969 H 45.167969 V 0 Z M 11,8.25 h 4 c 0.414196,4.14e-5 0.749959,0.3358036 0.75,0.75 v 1.25 h 3.5 V 9 C 19.250041,8.5858036 19.585804,8.2500414 20,8.25 h 5 c 0.414196,4.14e-5 0.749959,0.3358036 0.75,0.75 v 1.25 h 3.5 V 9 C 29.250041,8.5858036 29.585804,8.2500414 30,8.25 h 4 c 0.414196,4.14e-5 0.749959,0.3358036 0.75,0.75 v 5 L 33.971934,14.645518 31,17 V 29.5 L 32.698456,31.68247 33,32 v 4 h 3 v 3 H 9 v -3 h 3 V 32 L 12.301544,31.642778 14,29.5 V 17 L 10.915802,14.589386 10.25,14 V 9 C 10.250041,8.5858036 10.585804,8.2500414 11,8.25 Z"
     style="fill:#000000;stroke-width:0.883"
     id="rect1840" />
</svg>
