<svg xmlns="http://www.w3.org/2000/svg" xmlns:xlink="http://www.w3.org/1999/xlink" width="400" height="147" viewBox="0 0 400 147">
  <defs>
    <clipPath id="clip-path">
      <rect id="Rectangle_22" data-name="Rectangle 22" width="31" height="13" fill="none" stroke="rgba(0,0,0,0)" stroke-width="1"/>
    </clipPath>
  </defs>
  <g id="Icon_Tool" data-name="Icon Tool" transform="translate(-876 -228)">
    <g id="IconTool" transform="translate(876 228)" fill="#515151" stroke="#707070" stroke-width="1">
      <rect width="400" height="147" rx="15" stroke="none"/>
      <rect x="0.5" y="0.5" width="399" height="146" rx="14.5" fill="none"/>
    </g>
    <g id="WhiteIconWindow" transform="translate(994 290)" fill="#515151" stroke="#a9a9a9" stroke-width="1">
      <rect width="75" height="75" rx="5" stroke="none"/>
      <rect x="0.5" y="0.5" width="74" height="74" rx="4.5" fill="none"/>
    </g>
    <text id="White" transform="translate(886 280)" fill="#a9a9a9" font-size="14" font-family="Tahoma"><tspan x="0" y="0">White</tspan></text>
    <g id="UploadButton" transform="translate(886 290)" fill="#515151" stroke="#888" stroke-width="1">
      <rect width="98" height="32" rx="5" stroke="none"/>
      <rect x="0.5" y="0.5" width="97" height="31" rx="4.5" fill="none"/>
    </g>
    <text id="Upload..." transform="translate(907 311)" fill="#a9a9a9" font-size="14" font-family="Tahoma"><tspan x="0" y="0">Upload...</tspan></text>
    <g id="ChooseButton" transform="translate(886 333)" fill="#515151" stroke="#888" stroke-width="1">
      <rect width="98" height="32" rx="5" stroke="none"/>
      <rect x="0.5" y="0.5" width="97" height="31" rx="4.5" fill="none"/>
    </g>
    <text id="Choose..." transform="translate(907 354)" fill="#a9a9a9" font-size="14" font-family="Tahoma"><tspan x="0" y="0">Choose...</tspan></text>
    <g id="BlackIconWindow" transform="translate(1191 290)" fill="#515151" stroke="#a9a9a9" stroke-width="1">
      <rect width="75" height="75" rx="5" stroke="none"/>
      <rect x="0.5" y="0.5" width="74" height="74" rx="4.5" fill="none"/>
    </g>
    <g id="UploadButton-2" data-name="UploadButton" transform="translate(1083 290)" fill="#515151">
      <path d="M 93 31.5 L 5 31.5 C 2.51868748664856 31.5 0.5 29.4813117980957 0.5 27 L 0.5 5 C 0.5 2.51868748664856 2.51868748664856 0.5 5 0.5 L 93 0.5 C 95.48131561279297 0.5 97.5 2.51868748664856 97.5 5 L 97.5 27 C 97.5 29.4813117980957 95.48131561279297 31.5 93 31.5 Z" stroke="none"/>
      <path d="M 5 1 C 2.794387817382813 1 1 2.79438591003418 1 5 L 1 27 C 1 29.20561408996582 2.794387817382813 31 5 31 L 93 31 C 95.20561218261719 31 97 29.20561408996582 97 27 L 97 5 C 97 2.79438591003418 95.20561218261719 1 93 1 L 5 1 M 5 0 L 93 0 C 95.76141357421875 0 98 2.23857307434082 98 5 L 98 27 C 98 29.76142692565918 95.76141357421875 32 93 32 L 5 32 C 2.238571166992188 32 0 29.76142692565918 0 27 L 0 5 C 0 2.23857307434082 2.238571166992188 0 5 0 Z" stroke="none" fill="#888"/>
    </g>
    <text id="Upload...-2" data-name="Upload..." transform="translate(1104 310.563)" fill="#a9a9a9" font-size="14" font-family="Tahoma"><tspan x="0" y="0">Upload...</tspan></text>
    <g id="ChooseButton-2" data-name="ChooseButton" transform="translate(1083 333)" fill="#515151" stroke="#888" stroke-width="1">
      <rect width="98" height="32" rx="5" stroke="none"/>
      <rect x="0.5" y="0.5" width="97" height="31" rx="4.5" fill="none"/>
    </g>
    <text id="Choose...-2" data-name="Choose..." transform="translate(1104 355)" fill="#a9a9a9" font-size="14" font-family="Tahoma"><tspan x="0" y="0">Choose...</tspan></text>
    <text id="Black" transform="translate(1083 280)" fill="#a9a9a9" font-size="14" font-family="Tahoma"><tspan x="0" y="0">Black</tspan></text>
    <g id="Icon" transform="translate(888 238)" clip-path="url(#clip-path)">
      <text id="Icon-2" data-name="Icon" transform="translate(0 12)" fill="#a9a9a9" font-size="16" font-family="Tahoma"><tspan x="0" y="0">Icon</tspan></text>
    </g>
  </g>
</svg>
