<?xml version="1.0" encoding="UTF-8" standalone="no"?>
<!-- Created with Inkscape (http://www.inkscape.org/) -->

<svg
   xmlns:dc="http://purl.org/dc/elements/1.1/"
   xmlns:cc="http://creativecommons.org/ns#"
   xmlns:rdf="http://www.w3.org/1999/02/22-rdf-syntax-ns#"
   xmlns:svg="http://www.w3.org/2000/svg"
   xmlns="http://www.w3.org/2000/svg"
   xmlns:sodipodi="http://sodipodi.sourceforge.net/DTD/sodipodi-0.dtd"
   xmlns:inkscape="http://www.inkscape.org/namespaces/inkscape"
   width="99.773376mm"
   height="40.59296mm"
   viewBox="0 0 99.773376 40.592959"
   version="1.1"
   id="svg2692"
   inkscape:version="0.92.4 (5da689c313, 2019-01-14)"
   sodipodi:docname="range table point at span.svg">
  <defs
     id="defs2686" />
  <sodipodi:namedview
     id="base"
     pagecolor="#ffffff"
     bordercolor="#666666"
     borderopacity="1.0"
     inkscape:pageopacity="0.0"
     inkscape:pageshadow="2"
     inkscape:zoom="1.979899"
     inkscape:cx="135.38673"
     inkscape:cy="95.409827"
     inkscape:document-units="mm"
     inkscape:current-layer="layer1"
     showgrid="false"
     fit-margin-top="0"
     fit-margin-left="0"
     fit-margin-right="0"
     fit-margin-bottom="0"
     inkscape:window-width="1920"
     inkscape:window-height="1017"
     inkscape:window-x="-8"
     inkscape:window-y="-8"
     inkscape:window-maximized="1" />
  <metadata
     id="metadata2689">
    <rdf:RDF>
      <cc:Work
         rdf:about="">
        <dc:format>image/svg+xml</dc:format>
        <dc:type
           rdf:resource="http://purl.org/dc/dcmitype/StillImage" />
        <dc:title></dc:title>
      </cc:Work>
    </rdf:RDF>
  </metadata>
  <g
     inkscape:label="Layer 1"
     inkscape:groupmode="layer"
     id="layer1"
     transform="translate(-0.70684426,-80.603506)">
    <g
       id="g1010"
       transform="matrix(1.1896075,0,0,1.1896075,-0.13402294,-15.283025)">
      <rect
         id="Rectangle_26"
         data-name="Rectangle 26"
         width="62.970833"
         height="3.4395833"
         x="21.506847"
         y="95.633186"
         style="fill:#5d5d5d;stroke-width:0.26458332" />
      <rect
         id="Rectangle_27"
         data-name="Rectangle 27"
         width="62.970833"
         height="3.4395833"
         x="21.506847"
         y="102.51235"
         style="fill:#5d5d5d;stroke-width:0.26458332" />
      <rect
         id="Rectangle_28"
         data-name="Rectangle 28"
         width="62.970833"
         height="3.4395833"
         x="21.506847"
         y="109.39152"
         style="fill:#5d5d5d;stroke-width:0.26458332" />
      <rect
         id="Rectangle_26-0"
         data-name="Rectangle 26"
         width="62.970833"
         height="3.4395833"
         x="21.506855"
         y="99.072769"
         style="fill:#515151;fill-opacity:1;stroke-width:0.26458332" />
      <rect
         id="Rectangle_26-0-6"
         data-name="Rectangle 26"
         width="62.970833"
         height="3.4395833"
         x="21.506853"
         y="105.95193"
         style="fill:#515151;fill-opacity:1;stroke-width:0.26458332" />
      <rect
         id="Rectangle_26-0-7"
         data-name="Rectangle 26"
         width="62.970833"
         height="1.7549032"
         x="21.506847"
         y="93.878281"
         style="fill:#515151;fill-opacity:1;stroke-width:0.18898882" />
      <rect
         id="Rectangle_26-0-7-4"
         data-name="Rectangle 26"
         width="62.970833"
         height="1.7549032"
         x="21.506851"
         y="112.8311"
         style="fill:#515151;fill-opacity:1;stroke-width:0.18898882" />
      <g
         transform="translate(2.1166667)"
         id="g3940">
        <path
           transform="matrix(-0.3575828,0.00794901,-0.00744615,-0.34391992,51.416445,114.63487)"
           inkscape:transform-center-y="0.13958066"
           inkscape:transform-center-x="-0.00087817563"
           d="M 4.6188522,3.5829367 1.8049994,3.515837 3.2700358,1.1125188 Z"
           inkscape:randomized="0"
           inkscape:rounded="0"
           inkscape:flatsided="true"
           sodipodi:arg2="1.594638"
           sodipodi:arg1="0.54744045"
           sodipodi:r2="0.81252021"
           sodipodi:r1="1.6250405"
           sodipodi:cy="2.7370975"
           sodipodi:cx="3.2312958"
           sodipodi:sides="3"
           id="path833-5"
           style="opacity:0.997;fill:#a9a9a9;fill-opacity:1;stroke-width:0.28000101;stroke-linejoin:round"
           sodipodi:type="star" />
        <path
           transform="matrix(0.35758279,-0.00794901,0.00744615,0.34391992,49.066528,94.010989)"
           inkscape:transform-center-y="-0.13957751"
           inkscape:transform-center-x="0.00087750256"
           d="M 4.6188522,3.5829367 1.8049994,3.515837 3.2700358,1.1125188 Z"
           inkscape:randomized="0"
           inkscape:rounded="0"
           inkscape:flatsided="true"
           sodipodi:arg2="1.594638"
           sodipodi:arg1="0.54744045"
           sodipodi:r2="0.81252021"
           sodipodi:r1="1.6250405"
           sodipodi:cy="2.7370975"
           sodipodi:cx="3.2312958"
           sodipodi:sides="3"
           id="path833-5-1"
           style="opacity:0.997;fill:#a9a9a9;fill-opacity:1;stroke-width:0.28000101;stroke-linejoin:round"
           sodipodi:type="star" />
      </g>
      <text
         id="text3944"
         y="108.38988"
         x="25.318438"
         style="font-style:normal;font-weight:normal;font-size:8.8194437px;line-height:1.25;font-family:sans-serif;text-align:center;letter-spacing:0px;word-spacing:0px;text-anchor:middle;fill:#000000;fill-opacity:1;stroke:none;stroke-width:0.26458332"
         xml:space="preserve"><tspan
           style="font-size:2.46944451px;fill:#a9a9a9;fill-opacity:1;stroke-width:0.26458332"
           y="108.38988"
           x="25.318438"
           id="tspan3942"
           sodipodi:role="line">down</tspan></text>
      <text
         id="text3944-3"
         y="101.79692"
         x="24.820448"
         style="font-style:normal;font-weight:normal;font-size:8.8194437px;line-height:1.25;font-family:sans-serif;text-align:center;letter-spacing:0px;word-spacing:0px;text-anchor:middle;fill:#000000;fill-opacity:1;stroke:none;stroke-width:0.26458332"
         xml:space="preserve"><tspan
           style="font-size:2.46944451px;fill:#a9a9a9;fill-opacity:1;stroke-width:0.26458332"
           y="101.79692"
           x="24.820448"
           id="tspan3942-2"
           sodipodi:role="line">right</tspan></text>
      <text
         id="text3944-5"
         y="105.1987"
         x="28.73201"
         style="font-style:normal;font-weight:normal;font-size:8.8194437px;line-height:1.25;font-family:sans-serif;text-align:center;letter-spacing:0px;word-spacing:0px;text-anchor:middle;fill:#000000;fill-opacity:1;stroke:none;stroke-width:0.26458332"
         xml:space="preserve"><tspan
           style="font-size:2.46944451px;fill:#a9a9a9;fill-opacity:1;stroke-width:0.26458332"
           y="105.1987"
           x="28.73201"
           id="tspan3942-1"
           sodipodi:role="line">lower-right</tspan></text>
      <text
         id="text3944-6"
         y="98.395126"
         x="28.96352"
         style="font-style:normal;font-weight:normal;font-size:8.8194437px;line-height:1.25;font-family:sans-serif;text-align:center;letter-spacing:0px;word-spacing:0px;text-anchor:middle;fill:#000000;fill-opacity:1;stroke:none;stroke-width:0.26458332"
         xml:space="preserve"><tspan
           style="font-size:2.46944451px;fill:#a9a9a9;fill-opacity:1;stroke-width:0.26458332"
           y="98.395126"
           x="28.96352"
           id="tspan3942-29"
           sodipodi:role="line">upper-right</tspan></text>
      <text
         id="text3944-37"
         y="112.14411"
         x="27.822849"
         style="font-style:normal;font-weight:normal;font-size:8.8194437px;line-height:1.25;font-family:sans-serif;text-align:center;letter-spacing:0px;word-spacing:0px;text-anchor:middle;fill:#000000;fill-opacity:1;stroke:none;stroke-width:0.26458332"
         xml:space="preserve"><tspan
           style="font-size:2.46944451px;fill:#a9a9a9;fill-opacity:1;stroke-width:0.26458332"
           y="112.14411"
           x="27.822849"
           id="tspan3942-3"
           sodipodi:role="line">lower-left</tspan></text>
      <rect
         id="Rectangle_26-8"
         data-name="Rectangle 26"
         width="62.970833"
         height="4.0470281"
         x="21.506847"
         y="89.831253"
         style="fill:#515151;fill-opacity:1;stroke:#a9a9a9;stroke-width:0.2;stroke-miterlimit:4;stroke-dasharray:none;stroke-opacity:1" />
      <text
         id="text4039"
         y="92.666069"
         x="52.349705"
         style="font-style:normal;font-weight:normal;font-size:8.8194437px;line-height:1.25;font-family:sans-serif;text-align:center;letter-spacing:0px;word-spacing:0px;text-anchor:middle;fill:#000000;fill-opacity:1;stroke:none;stroke-width:0.26458332"
         xml:space="preserve"><tspan
           style="font-size:2.46944451px;fill:#a9a9a9;fill-opacity:1;stroke-width:0.26458332"
           y="92.666069"
           x="52.349705"
           id="tspan4037"
           sodipodi:role="line">white spans</tspan></text>
      <rect
         y="93.878281"
         x="0.80684423"
         height="20.748209"
         width="20.700001"
         id="rect4041"
         style="opacity:0.98999999;fill:#515151;fill-opacity:1;stroke:#a9a9a9;stroke-width:0.2;stroke-linejoin:round;stroke-miterlimit:4;stroke-dasharray:none;stroke-dashoffset:0;stroke-opacity:1" />
      <rect
         id="Rectangle_26-8-3"
         data-name="Rectangle 26"
         width="20.700001"
         height="4.0470281"
         x="0.80684423"
         y="89.831253"
         style="fill:#515151;fill-opacity:1;stroke:#a9a9a9;stroke-width:0.11466885;stroke-miterlimit:4;stroke-dasharray:none;stroke-opacity:1" />
      <text
         id="text4039-2"
         y="92.940002"
         x="10.847315"
         style="font-style:normal;font-weight:normal;font-size:8.8194437px;line-height:1.25;font-family:sans-serif;text-align:center;letter-spacing:0px;word-spacing:0px;text-anchor:middle;fill:#000000;fill-opacity:1;stroke:none;stroke-width:0.26458332"
         xml:space="preserve"><tspan
           style="font-size:2.46944451px;fill:#a9a9a9;fill-opacity:1;stroke-width:0.26458332"
           y="92.940002"
           x="11.281397"
           id="tspan4037-1"
           sodipodi:role="line">White image </tspan></text>
      <g
         style="stroke:#120a0a;stroke-width:1;stroke-miterlimit:4;stroke-dasharray:none;stroke-opacity:1"
         transform="matrix(0.09435198,0,0,0.09435198,0.55340906,90.423806)"
         inkscape:label="Layer 1"
         id="layer1-5">
        <path
           style="fill:#ffffff;stroke:#120a0a;stroke-width:1;stroke-miterlimit:4;stroke-dasharray:none;stroke-opacity:1"
           d="m 150.54213,241.08245 c -0.16309,-0.50932 -0.61331,-2.41432 -1.0005,-4.23333 -0.94303,-4.43047 -2.48963,-9.01826 -4.26011,-12.6371 -5.13002,-10.4857 -17.83554,-21.02685 -35.52712,-29.47512 -3.22149,-1.53836 -17.320458,-7.77108 -20.660678,-9.13344 -3.96579,-1.61752 -15.82598,-7.62719 -21.85978,-11.07656 -6.31595,-3.61066 -9.70191,-5.98 -14.99793,-10.49485 -1.86336,-1.58852 -3.48018,-2.85069 -3.59294,-2.80484 -0.11276,0.0459 -1.25578,1.24423 -2.54005,2.66306 -1.28426,1.41882 -2.40635,2.57968 -2.49352,2.57968 -0.0872,0 -0.90906,-2.82773 -1.82641,-6.28385 -2.42116,-9.12175 -3.52239,-12.76654 -3.85623,-12.76316 -0.16203,0.002 -2.0187,0.83507 -4.12594,1.85208 -2.10724,1.017 -3.98474,1.8491 -4.17223,1.8491 -0.21853,0 -0.29071,-0.21366 -0.2011,-0.59531 0.0769,-0.32742 0.73791,-3.27422 1.46895,-6.54844 2.60864,-11.68368 2.86292,-12.9954 2.54206,-13.11337 -0.16734,-0.0615 -2.47752,-0.14252 -5.13373,-0.17998 l -4.82949,-0.0681 2.40904,-3.43958 c 1.32496,-1.89177 4.07698,-5.78166 6.11558,-8.64419 2.03861,-2.86253 3.72312,-5.28764 3.74337,-5.38913 0.0202,-0.10149 -1.87151,-0.74238 -4.20391,-1.4242 -5.06746,-1.48134 -5.079,-1.48701 -4.44661,-2.1858 0.37241,-0.41151 6.11349,-4.32301 15.53575,-10.584804 0.37598,-0.24987 -0.22552,-0.88087 -3.67342,-3.853616 -1.60073,-1.380131 -2.94683,-2.604408 -2.99134,-2.720616 -0.0898,-0.234476 0.51286,-0.368125 7.75384,-1.719524 7.83687,-1.462609 13.20117,-2.520262 13.30399,-2.623084 0.0516,-0.05166 -1.34303,-2.016117 -3.09931,-4.365469 -1.75627,-2.349352 -3.19322,-4.370623 -3.19322,-4.491715 0,-0.121089 0.50602,-0.117181 1.12448,0.0087 1.4879,0.302807 15.01486,1.800852 18.10589,2.005136 l 2.42932,0.160552 -1.43714,-4.414776 c -0.79042,-2.428124 -1.43713,-4.542047 -1.43713,-4.697606 0,-0.473197 0.99857,-0.09703 9.96696,3.754602 4.73285,2.032605 8.88567,3.766047 9.2285,3.852089 0.57729,0.144891 0.61425,0.09107 0.50069,-0.729003 -0.46473,-3.355891 -0.89209,-7.209997 -0.80872,-7.293364 0.0547,-0.0547 3.29832,1.832745 7.20805,4.19432 8.094618,4.889352 9.887708,5.782175 15.021578,7.479628 3.74477,1.238163 4.39127,1.385133 4.39127,0.998281 0,-0.119891 -1.14788,-2.114188 -2.55085,-4.431771 -5.03137,-8.311419 -6.03718,-10.115796 -8.83826,-15.855455 -3.12173,-6.396681 -6.962138,-14.942156 -6.791718,-15.112571 0.0596,-0.05957 1.70286,2.006695 3.651738,4.59171 6.6149,8.774059 10.77964,13.801638 17.68521,21.349193 5.65552,6.181294 13.51612,14.174793 13.93912,14.174793 0.99275,0 0.11733,-1.529938 -3.51354,-6.140442 -1.3932,-1.769089 -4.10185,-6.083345 -7.02536,-11.189766 -2.31906,-4.050645 -4.25688,-8.185602 -7.25372,-15.478125 -1.99257,-4.848706 -2.25586,-5.032933 4.19324,2.934013 9.24741,11.423853 22.80434,26.708778 26.98006,30.418988 1.21007,1.075166 3.03356,2.732024 4.0522,3.681902 1.01865,0.949881 3.64327,3.29161 5.8325,5.203836 7.51789,6.566674 11.73687,11.673044 15.92692,19.276884 0.88207,1.60073 2.15134,3.83658 2.82061,4.96856 0.66926,1.13198 1.21685,2.13355 1.21685,2.2257 0,0.30181 3.71375,5.11639 5.58151,7.23598 1.00475,1.14023 1.82682,2.11599 1.82682,2.16836 0,0.0524 -0.75766,0.047 -1.6837,-0.012 -1.56595,-0.0997 -1.74524,-0.0522 -2.56394,0.6793 l -0.88026,0.78651 0.5914,1.5454 c 1.17315,3.06564 4.8944,7.88542 8.90212,11.53008 2.62906,2.39089 4.66445,3.89683 7.46202,5.52099 2.78788,1.61853 3.15166,2.15549 2.89996,4.28063 -0.49983,4.22028 -3.6375,9.35832 -8.1036,13.26991 -3.84812,3.37034 -13.59777,7.83894 -14.69946,6.73726 -0.0887,-0.0887 0.19647,-0.86996 0.63371,-1.73613 2.62602,-5.20211 2.53175,-8.53409 -0.39828,-14.0782 -0.65054,-1.23093 -1.85821,-3.17613 -2.68373,-4.32267 -1.84702,-2.56528 -6.34411,-7.34922 -7.67515,-8.1647 -0.54086,-0.33137 -1.58935,-1.0932 -2.32997,-1.69296 -0.74063,-0.59975 -3.65766,-2.61279 -6.4823,-4.47341 -6.57298,-4.32972 -11.545,-8.06998 -13.78094,-10.36689 -2.15048,-2.20911 -2.59528,-2.75355 -4.72466,-5.78299 -4.29077,-6.1044 -9.55175,-11.60616 -15.20802,-15.90401 -4.1253,-3.13457 -5.98213,-4.25941 -11.10957,-6.73003 -5.5339,-2.66646 -7.07085,-3.25433 -11.438058,-4.37488 -4.86951,-1.249434 -7.77835,-1.471414 -15.26144,-1.16466 -6.55282,0.26863 -8.52301,0.60795 -13.12155,2.25994 -7.70287,2.76718 -13.30114,7.90919 -16.59247,15.24019 -1.87965,4.18666 -2.80093,10.37523 -2.19946,14.77449 1.19435,8.73569 8.05623,18.92563 18.59503,27.61372 9.2544,7.62925 17.66885,12.48575 36.710648,21.18799 7.88142,3.60186 13.07004,6.61126 19.042,11.04437 8.20013,6.08713 14.22192,12.21766 17.66764,17.98666 3.2678,5.47113 5.52915,10.40962 6.48438,14.16104 0.54264,2.13106 0.59046,2.89542 0.55966,8.94476 -0.0185,3.63802 -0.14526,7.09084 -0.28163,7.67292 l -0.24795,1.05833 z M 166.61664,126.3061 c 0,-0.11647 -0.57808,-0.86061 -1.28462,-1.65364 -0.70654,-0.79303 -1.62928,-1.92723 -2.05052,-2.52045 -1.86741,-2.62973 -4.73244,-6.35754 -5.1125,-6.65208 -0.63355,-0.49098 -1.02219,-0.40473 -1.50643,0.33431 -0.36599,0.55857 -0.39114,0.84074 -0.14743,1.65415 0.42008,1.40211 3.2686,4.401 6.56205,6.90845 2.58015,1.96438 3.53945,2.48727 3.53945,1.92926 z"
           id="path4758"
           inkscape:connector-curvature="0" />
      </g>
      <g
         inkscape:label="Layer 1"
         id="layer1-9"
         transform="matrix(0.08475767,0,0,0.08475767,79.952733,89.477548)">
        <path
           inkscape:connector-curvature="0"
           id="rect839"
           style="fill:#969696;fill-opacity:1;stroke:#ffffff;stroke-width:0.0694385;stroke-linejoin:round"
           d="M 28.316728,10.585791 V 26.544949 H 12.078825 v 3.012676 h 16.237903 v 15.958728 h 3.012674 V 29.557625 H 47.009387 V 26.544949 H 31.329402 V 10.585791 Z" />
      </g>
      <g
         transform="translate(-2.2624965,4.0426017)"
         id="g4176">
        <g
           id="g4169"
           transform="translate(1.8708867,-4.5101733)">
          <rect
             transform="rotate(45)"
             y="6.7553988"
             x="108.00808"
             height="0.11166603"
             width="13.176591"
             id="rect4137"
             style="opacity:0.98999999;fill:#ff0000;fill-opacity:1;stroke:none;stroke-width:0.40036955;stroke-linejoin:round;stroke-miterlimit:4;stroke-dasharray:none;stroke-dashoffset:0;stroke-opacity:1" />
          <g
             id="g4162">
            <rect
               style="opacity:0.98999999;fill:#ff0000;fill-opacity:1;stroke:none;stroke-width:0.40036955;stroke-linejoin:round;stroke-miterlimit:4;stroke-dasharray:none;stroke-dashoffset:0;stroke-opacity:1"
               id="rect4137-1"
               width="13.176591"
               height="0.11166603"
               x="108.00808"
               y="6.6437325"
               transform="rotate(45)" />
          </g>
        </g>
        <path
           style="fill:#ff0000;stroke:none;stroke-width:0.20704459px;stroke-linecap:butt;stroke-linejoin:miter;stroke-opacity:1"
           d="m 82.125562,86.543014 1.226971,-1.124269 0.204423,1.442595 z"
           id="path4159"
           inkscape:connector-curvature="0" />
      </g>
      <rect
         y="93.878281"
         x="21.506847"
         height="20.707726"
         width="62.970837"
         id="rect970"
         style="opacity:0.98999999;fill:none;fill-opacity:1;stroke:#a9a9a9;stroke-width:0.2;stroke-linejoin:round;stroke-miterlimit:4;stroke-dasharray:none;stroke-dashoffset:0;stroke-opacity:1" />
    </g>
  </g>
</svg>
