<?xml version="1.0" encoding="UTF-8" standalone="no"?>
<svg
   xmlns:dc="http://purl.org/dc/elements/1.1/"
   xmlns:cc="http://creativecommons.org/ns#"
   xmlns:rdf="http://www.w3.org/1999/02/22-rdf-syntax-ns#"
   xmlns:svg="http://www.w3.org/2000/svg"
   xmlns="http://www.w3.org/2000/svg"
   xmlns:sodipodi="http://sodipodi.sourceforge.net/DTD/sodipodi-0.dtd"
   xmlns:inkscape="http://www.inkscape.org/namespaces/inkscape"
   inkscape:version="1.0 (4035a4fb49, 2020-05-01)"
   sodipodi:docname="My Pieces.svg"
   id="svg844"
   version="1.1"
   viewBox="0 0 121.99999 78"
   height="78"
   width="122">
  <metadata
     id="metadata850">
    <rdf:RDF>
      <cc:Work
         rdf:about="">
        <dc:format>image/svg+xml</dc:format>
        <dc:type
           rdf:resource="http://purl.org/dc/dcmitype/StillImage" />
        <dc:title></dc:title>
      </cc:Work>
    </rdf:RDF>
  </metadata>
  <defs
     id="defs848" />
  <sodipodi:namedview
     inkscape:current-layer="svg844"
     inkscape:window-maximized="1"
     inkscape:window-y="-9"
     inkscape:window-x="-9"
     inkscape:cy="44.954854"
     inkscape:cx="44.65052"
     inkscape:zoom="3.5818474"
     showgrid="false"
     id="namedview846"
     inkscape:window-height="1001"
     inkscape:window-width="1920"
     inkscape:pageshadow="2"
     inkscape:pageopacity="0"
     guidetolerance="10"
     gridtolerance="10"
     objecttolerance="10"
     borderopacity="1"
     bordercolor="#666666"
     pagecolor="#ffffff" />
  <path
     d="m 40.406,31.033723 a 4.428,4.428 0 0 1 1.859,-0.5 3.491,3.491 0 0 0 1.245,-0.182 0.62,0.62 0 0 0 0.2,-0.248 14.025,14.025 0 0 0 0.365,-3.323 q 0.152,-3.536 0.491,-9.413 0.271,-4.482 0.271,-5.594 v -0.432 q -1.2,-0.249 -3.8,-0.532 a 0.8,0.8 0 0 1 -0.166,-0.376 0.807,0.807 0 0 1 0.116,-0.3 1.421,1.421 0 0 1 0.431,-0.1 5.232,5.232 0 0 1 0.58,0.066 16.664,16.664 0 0 0 2.236,0.116 q 0.464,0 1.59,-0.076 0.8,-0.057 0.895,-0.057 a 2.264,2.264 0 0 1 0.613,0.1 1.494,1.494 0 0 1 0.256,0.32 l 0.695,1.56 4.7,10.392 1.959,4.362 a 73.773,73.773 0 0 0 3.572,-8.116 2.733,2.733 0 0 1 0.2,-0.481 5.7,5.7 0 0 0 0.281,-0.631 q 0.132,-0.349 1.075,-2.656 0.381,-0.93 0.612,-1.594 0.942,-2.657 1.107,-3.039 a 1.457,1.457 0 0 1 0.549,-0.133 5.966,5.966 0 0 1 0.682,0.05 q 0.932,0.05 3.03,0.05 1.3,0 2.131,-0.033 a 1.679,1.679 0 0 1 0.033,0.266 1.384,1.384 0 0 1 -0.05,0.315 2.981,2.981 0 0 1 -1.278,0.315 8.315,8.315 0 0 0 -1.876,0.232 0.848,0.848 0 0 0 -0.506,0.382 6.712,6.712 0 0 0 -0.191,1.527 l 0.017,0.764 -0.017,0.8 q 0,2.49 0.133,8.367 l -0.022,3.252 0.017,2.092 a 4.822,4.822 0 0 0 0.116,1.453 1.2,1.2 0 0 0 0.664,0.423 19.954,19.954 0 0 0 2.927,0.612 0.254,0.254 0 0 1 0.116,0.216 q 0,0.149 -0.017,0.332 h -0.764 q -0.982,0.001 -2.129,-0.057 -1.147,-0.058 -1.23,-0.058 -3.41,0 -4.524,0.076 -0.682,0.057 -0.865,0.057 a 0.562,0.562 0 0 1 -0.249,-0.066 v -0.216 a 1.1,1.1 0 0 1 0.05,-0.315 5.055,5.055 0 0 1 1.493,-0.316 5.574,5.574 0 0 0 1.527,-0.6 13.874,13.874 0 0 0 0.15,-2.574 l -0.05,-3.357 q 0,-0.548 0.058,-2.044 0.058,-1.496 0.059,-4.868 0,-2.675 -0.133,-4.055 -0.281,0.581 -1.108,2.523 l -0.248,0.631 -0.033,0.1 -2.447,5.81 -0.88,2.242 -1.137,2.722 q -0.744,1.876 -1.273,3.317 -0.231,0.664 -0.38,1.046 l -0.387,-0.013 q -1.878,-5.479 -4.479,-11.239 -2.601,-5.76 -3.648,-7.6 -0.137,0.714 -0.308,4.15 -0.222,4.184 -0.222,9.214 a 30.494,30.494 0 0 0 0.234,3.537 1.1,1.1 0 0 0 0.481,0.835 5.12,5.12 0 0 0 2.142,0.306 7.691,7.691 0 0 1 1.262,0.1 1.051,1.051 0 0 1 0.115,0.374 0.925,0.925 0 0 1 -0.084,0.29 l -5.155,-0.183 q -0.563,0 -1.757,0.074 -0.662,0.044 -1.904,0.059 z m 28.306,-12.682 q 0.365,-0.033 0.614,-0.033 h 0.8 l 1.079,-0.033 1.411,0.05 1.146,-0.033 a 10.525,10.525 0 0 1 1.644,0.116 0.765,0.765 0 0 1 0.066,0.266 l -0.017,0.133 a 3.363,3.363 0 0 1 -1.079,0.232 3.424,3.424 0 0 0 -1.478,0.365 l -0.033,0.183 a 1.508,1.508 0 0 0 0.133,0.5 q 0.083,0.2 0.217,0.6 0.367,1.231 1.584,4.757 0.884,2.544 1.634,4.374 0.458,-1 1.046,-2.543 l 1.394,-3.941 a 15.811,15.811 0 0 0 0.733,-2.583 4.545,4.545 0 0 0 0.1,-0.813 0.65,0.65 0 0 0 -0.216,-0.465 1.871,1.871 0 0 0 -0.863,-0.365 8.422,8.422 0 0 1 -1.278,-0.374 0.433,0.433 0 0 1 -0.116,-0.324 0.8,0.8 0 0 1 0.232,-0.133 h 1.029 l 1.112,0.017 1.66,-0.017 1.063,0.017 0.266,-0.017 a 3.508,3.508 0 0 1 0.382,0.033 0.278,0.278 0 0 1 0.166,0.266 0.393,0.393 0 0 1 -0.149,0.3 l -0.332,0.05 a 3.349,3.349 0 0 0 -1.478,0.5 1.587,1.587 0 0 0 -0.481,0.83 6.04,6.04 0 0 1 -0.216,0.6 q -0.083,0.2 -0.24,0.664 -0.157,0.464 -0.406,1.095 l -0.2,0.464 -0.017,0.083 -2.823,7.423 -2.056,5.59 q -0.2,0.416 -0.465,1.033 a 11.16,11.16 0 0 1 -0.748,1.3 4.472,4.472 0 0 1 -0.865,0.866 l -0.848,0.367 a 2.052,2.052 0 0 1 -0.532,0.067 1.566,1.566 0 0 1 -1.1,-0.326 1.166,1.166 0 0 1 -0.349,-0.9 1.258,1.258 0 0 1 0.515,-0.97 2.074,2.074 0 0 0 0.332,-0.133 l 0.216,-0.05 a 15.126,15.126 0 0 0 1.845,0.266 1.356,1.356 0 0 0 0.515,-0.43 13.961,13.961 0 0 0 1.4,-2.694 7.019,7.019 0 0 0 0.585,-2.006 4.84,4.84 0 0 0 -0.435,-1.642 l -1.845,-4.879 q -0.383,-0.946 -2.278,-6.176 a 1.193,1.193 0 0 0 -0.3,-0.5 l -1.129,-0.415 -0.349,-0.066 q -0.282,-0.116 -0.282,-0.332 z m -47.456,27.9 a 3.173,3.173 0 0 1 0.382,-0.05 q 0.564,0 1.859,0.066 0.681,0.017 0.93,0.017 0.365,0 1.544,-0.066 l 2.822,-0.166 q 1.112,-0.1 2.59,-0.1 a 9.739,9.739 0 0 1 4.15,0.738 5.183,5.183 0 0 1 2.382,2.313 6.623,6.623 0 0 1 0.838,3.134 6.245,6.245 0 0 1 -1.829,4.491 6.516,6.516 0 0 1 -4.914,1.89 5.1,5.1 0 0 1 -1.444,-0.174 5.158,5.158 0 0 1 -1.328,-0.672 0.877,0.877 0 0 1 -0.382,-0.448 0.379,0.379 0 0 1 0.183,-0.166 1.293,1.293 0 0 1 0.481,0.1 4.347,4.347 0 0 0 1.428,0.2 5.057,5.057 0 0 0 2.482,-0.646 4.21,4.21 0 0 0 1.768,-1.84 5.553,5.553 0 0 0 0.6,-2.519 5.407,5.407 0 0 0 -0.63,-2.511 5.35,5.35 0 0 0 -1.657,-1.948 5.175,5.175 0 0 0 -1.781,-0.7 8.785,8.785 0 0 0 -1.864,-0.282 5.439,5.439 0 0 0 -2.436,0.3 l -0.017,0.232 0.05,1.874 -0.017,0.332 q -0.033,0.448 -0.033,1.377 0,3.384 0.1,4.213 v 0.929 l 0.216,7.581 q 0,0.166 -0.042,0.614 -0.042,0.448 -0.042,0.78 a 4.2,4.2 0 0 0 0.133,1.211 q 0.4,0.116 2.324,0.547 0.9,0.216 0.979,0.249 a 0.477,0.477 0 0 1 0.232,0.216 0.564,0.564 0 0 1 -0.174,0.324 0.816,0.816 0 0 1 -0.423,0.075 q -0.2,0 -0.93,-0.083 -1.428,-0.149 -2.241,-0.149 l -2.922,0.116 -1.743,-0.05 q -0.166,0 -0.963,0.033 l -0.017,-0.432 2.158,-0.415 a 1.383,1.383 0 0 0 0.647,-0.3 1.712,1.712 0 0 0 0.166,-0.912 q 0,-0.149 0.017,-0.647 0.017,-0.348 0.017,-0.962 0,-1.957 -0.166,-8.344 -0.066,-2.986 -0.066,-6.071 v -0.282 q 0,-1.194 -0.365,-1.509 a 6.822,6.822 0 0 0 -3.071,-0.9 0.766,0.766 0 0 1 -0.083,-0.3 0.685,0.685 0 0 1 0.103,-0.31 z m 20.752,0.78 a 1.256,1.256 0 0 1 0.423,-0.946 1.436,1.436 0 0 1 1.021,-0.4 1.507,1.507 0 0 1 1.079,0.448 1.328,1.328 0 0 1 0.465,0.963 1.354,1.354 0 0 1 -0.465,0.971 1.493,1.493 0 0 1 -1.079,0.457 1.4,1.4 0 0 1 -1.028,-0.415 1.46,1.46 0 0 1 -0.416,-1.076 z m -1.395,8.616 0.017,-0.49 q 1.079,-0.316 1.162,-0.367 a 5.437,5.437 0 0 0 1.253,-0.816 5.654,5.654 0 0 0 1.1,-1.233 2.032,2.032 0 0 1 0.315,-0.033 l 0.2,0.017 q 0.066,0.8 0.066,1.162 0,0.083 -0.033,0.747 v 0.88 l 0.017,4.781 -0.05,5.063 a 1.241,1.241 0 0 0 0.2,0.855 3.24,3.24 0 0 0 1.278,0.54 10.093,10.093 0 0 1 1,0.315 0.523,0.523 0 0 1 0.05,0.2 0.544,0.544 0 0 1 -0.083,0.249 q -0.647,-0.017 -1.66,-0.083 -1.378,-0.116 -1.826,-0.116 -0.216,0 -2.656,0.083 a 8.9,8.9 0 0 0 -0.963,0.083 1.151,1.151 0 0 1 -0.266,-0.051 0.365,0.365 0 0 1 -0.083,-0.2 q 0,-0.232 0.315,-0.365 0.066,-0.033 1.693,-0.381 a 1.08,1.08 0 0 0 0.7,-0.332 1.761,1.761 0 0 0 0.282,-1.111 q 0.033,-1.276 0.033,-7 a 5.859,5.859 0 0 0 -0.1,-1.426 1.259,1.259 0 0 0 -0.44,-0.456 4.825,4.825 0 0 0 -1.52,-0.516 z m 19.973,3.02 -6.657,0.049 h -1.262 q -0.764,0 -1.561,0.069 a 2.927,2.927 0 0 0 -0.149,0.681 l 0.017,0.166 v 0.166 l -0.017,0.813 a 6.477,6.477 0 0 0 0.639,2.482 4.933,4.933 0 0 0 1.828,2.24 5.628,5.628 0 0 0 2.963,0.822 6.11,6.11 0 0 0 1.511,-0.232 7.647,7.647 0 0 0 1.594,-0.847 l 1.2,-0.979 0.1,0.664 a 2.014,2.014 0 0 1 -0.017,0.249 7.293,7.293 0 0 1 -1.893,1.66 9.016,9.016 0 0 1 -2.324,1.046 8.106,8.106 0 0 1 -1.859,0.149 5.95,5.95 0 0 1 -2.324,-0.481 5.659,5.659 0 0 1 -2.672,-2.351 7.5,7.5 0 0 1 -0.971,-3.926 8.421,8.421 0 0 1 0.274,-1.876 9.864,9.864 0 0 1 0.988,-2.44 4.782,4.782 0 0 1 1.179,-1.444 7.8,7.8 0 0 1 1.743,-1.114 6.5,6.5 0 0 1 2.508,-0.446 5.011,5.011 0 0 1 2.523,0.564 5,5 0 0 1 1.984,1.926 4.507,4.507 0 0 1 0.655,2.156 z m -9.264,-0.6 h 0.78 q 0.847,0 5.047,-0.266 a 2.1,2.1 0 0 0 0.813,-0.133 0.885,0.885 0 0 0 0.3,-0.564 2.647,2.647 0 0 0 -0.332,-1.17 2.288,2.288 0 0 0 -1.021,-1.013 3.435,3.435 0 0 0 -1.6,-0.357 3.764,3.764 0 0 0 -3.088,1.444 3.339,3.339 0 0 0 -0.897,2.062 z m 23.541,6.325 0.017,1.079 a 7.994,7.994 0 0 1 -2.556,1.929 7.418,7.418 0 0 1 -2.972,0.548 6.02,6.02 0 0 1 -3.354,-0.971 6.268,6.268 0 0 1 -2.3,-2.748 8.4,8.4 0 0 1 -0.805,-3.486 6.935,6.935 0 0 1 0.971,-3.544 6.252,6.252 0 0 1 2.573,-2.49 8.777,8.777 0 0 1 4.026,-0.822 6.459,6.459 0 0 1 3.536,0.8 1.4,1.4 0 0 1 0.681,1.2 1.193,1.193 0 0 1 -0.349,0.88 1.214,1.214 0 0 1 -0.9,0.349 2.737,2.737 0 0 1 -1.826,-1.029 4.213,4.213 0 0 0 -1.112,-0.872 2.523,2.523 0 0 0 -1.112,-0.241 3.034,3.034 0 0 0 -2.457,1.203 6.782,6.782 0 0 0 -1.361,4.333 6.274,6.274 0 0 0 1.398,4.283 4.212,4.212 0 0 0 3.254,1.594 5.875,5.875 0 0 0 2.3,-0.423 9.606,9.606 0 0 0 2.348,-1.569 z m 14.045,-5.728 -6.657,0.049 h -1.262 q -0.764,0 -1.561,0.069 a 2.927,2.927 0 0 0 -0.149,0.681 l 0.017,0.166 v 0.166 l -0.017,0.813 a 6.477,6.477 0 0 0 0.639,2.482 4.933,4.933 0 0 0 1.826,2.243 5.628,5.628 0 0 0 2.963,0.822 6.11,6.11 0 0 0 1.511,-0.232 7.647,7.647 0 0 0 1.594,-0.847 l 1.2,-0.979 0.1,0.664 a 2.015,2.015 0 0 1 -0.017,0.249 7.293,7.293 0 0 1 -1.893,1.66 9.016,9.016 0 0 1 -2.324,1.046 8.106,8.106 0 0 1 -1.859,0.149 5.95,5.95 0 0 1 -2.324,-0.481 5.659,5.659 0 0 1 -2.671,-2.351 7.5,7.5 0 0 1 -0.971,-3.926 8.421,8.421 0 0 1 0.271,-1.874 9.864,9.864 0 0 1 0.988,-2.44 4.782,4.782 0 0 1 1.179,-1.444 7.8,7.8 0 0 1 1.747,-1.116 6.5,6.5 0 0 1 2.507,-0.448 4.922,4.922 0 0 1 4.507,2.49 4.507,4.507 0 0 1 0.656,2.158 z m -9.264,-0.6 h 0.78 q 0.847,0 5.047,-0.266 a 2.1,2.1 0 0 0 0.813,-0.133 0.885,0.885 0 0 0 0.3,-0.564 2.647,2.647 0 0 0 -0.332,-1.17 2.288,2.288 0 0 0 -1.021,-1.013 3.435,3.435 0 0 0 -1.6,-0.357 3.764,3.764 0 0 0 -3.088,1.444 3.339,3.339 0 0 0 -0.899,2.065 z m 12.667,5.146 a 12.5,12.5 0 0 0 0.93,2.042 4.71,4.71 0 0 0 1.511,1.469 3.671,3.671 0 0 0 1.909,0.523 2.856,2.856 0 0 0 1.876,-0.811 1.891,1.891 0 0 0 0.664,-1.428 3,3 0 0 0 -0.777,-1.988 7.513,7.513 0 0 0 -2.963,-1.718 6.926,6.926 0 0 1 -2.93,-1.751 3.3,3.3 0 0 1 -0.747,-2.125 3.349,3.349 0 0 1 0.61,-1.99 3.763,3.763 0 0 1 1.693,-1.3 5.314,5.314 0 0 1 1.992,-0.44 11.132,11.132 0 0 1 2.117,0.183 5.405,5.405 0 0 1 1.619,0.557 q 0.133,0.847 0.216,2.49 l 0.033,0.531 q -0.216,0.017 -0.365,0.017 h -0.232 a 4.766,4.766 0 0 0 -1.519,-2.183 3.269,3.269 0 0 0 -2.017,-0.805 2.194,2.194 0 0 0 -1.61,0.606 2.128,2.128 0 0 0 -0.614,1.585 1.983,1.983 0 0 0 0.5,1.328 6.638,6.638 0 0 0 2.329,1.331 12.142,12.142 0 0 1 2.673,1.383 3.892,3.892 0 0 1 1.237,1.554 4.365,4.365 0 0 1 0.4,1.745 3.482,3.482 0 0 1 -0.755,2.143 4.047,4.047 0 0 1 -1.893,1.4 6.12,6.12 0 0 1 -2.034,0.407 9.553,9.553 0 0 1 -3.885,-0.78 0.652,0.652 0 0 1 -0.183,-0.5 q 0,-0.149 -0.033,-0.481 -0.266,-2.241 -0.266,-2.656 a 0.331,0.331 0 0 1 0.083,-0.266 0.84,0.84 0 0 1 0.431,-0.066 z"
     id="text859" />
</svg>
