<?xml version="1.0" encoding="UTF-8" standalone="no"?>
<svg
   xmlns:dc="http://purl.org/dc/elements/1.1/"
   xmlns:cc="http://creativecommons.org/ns#"
   xmlns:rdf="http://www.w3.org/1999/02/22-rdf-syntax-ns#"
   xmlns:svg="http://www.w3.org/2000/svg"
   xmlns="http://www.w3.org/2000/svg"
   xmlns:sodipodi="http://sodipodi.sourceforge.net/DTD/sodipodi-0.dtd"
   xmlns:inkscape="http://www.inkscape.org/namespaces/inkscape"
   version="1.1"
   width="100"
   height="100"
   id="svg14"
   sodipodi:docname="BB.svg"
   inkscape:version="1.0 (4035a4fb49, 2020-05-01)">
  <metadata
     id="metadata20">
    <rdf:RDF>
      <cc:Work
         rdf:about="">
        <dc:format>image/svg+xml</dc:format>
        <dc:type
           rdf:resource="http://purl.org/dc/dcmitype/StillImage" />
        <dc:title />
      </cc:Work>
    </rdf:RDF>
  </metadata>
  <defs
     id="defs18" />
  <sodipodi:namedview
     inkscape:document-rotation="0"
     pagecolor="#ffffff"
     bordercolor="#666666"
     borderopacity="1"
     objecttolerance="10"
     gridtolerance="10"
     guidetolerance="10"
     inkscape:pageopacity="0"
     inkscape:pageshadow="2"
     inkscape:window-width="1833"
     inkscape:window-height="1051"
     id="namedview16"
     showgrid="false"
     inkscape:zoom="4.4537909"
     inkscape:cx="2.7812076"
     inkscape:cy="75.698387"
     inkscape:window-x="78"
     inkscape:window-y="-9"
     inkscape:window-maximized="1"
     inkscape:current-layer="svg14" />
  <g
     id="g847">
    <path
       style="fill:#1b1b1b;fill-opacity:1;fill-rule:evenodd;stroke:#000000;stroke-width:3.6767;stroke-linecap:butt;stroke-linejoin:round;stroke-miterlimit:4;stroke-dasharray:none;stroke-opacity:1"
       id="path2"
       d="m 18.293056,84.173806 c 8.352183,-2.365402 24.908723,1.04858 33.260906,-4.877117 8.352183,5.925697 24.908722,2.511715 33.260905,4.877117 0,0 4.065222,1.316821 7.391313,4.877117 -1.675364,2.365401 -4.065222,2.414172 -7.391313,1.219279 -8.352183,-2.365402 -24.908722,1.121737 -33.260905,-2.438559 -8.352183,3.560296 -24.908723,0.07316 -33.260906,2.438559 -3.335946,1.194893 -5.72334,1.146122 -7.391313,-1.219279 3.335946,-4.730804 7.391313,-4.877117 7.391313,-4.877117 z" />
    <path
       style="fill:#1b1b1b;fill-opacity:1;fill-rule:evenodd;stroke:#000000;stroke-width:3.6767;stroke-linecap:butt;stroke-linejoin:round;stroke-miterlimit:4;stroke-dasharray:none;stroke-opacity:1"
       id="path4"
       d="m 33.075681,74.419573 c 6.159427,6.096396 30.797135,6.096396 36.956562,0 1.231885,-3.657838 0,-4.877117 0,-4.877117 0,-6.096396 -6.159427,-9.754233 -6.159427,-9.754233 C 77.423555,56.130386 78.65544,31.744803 51.553962,21.990569 24.452483,31.744803 25.684368,56.130386 39.235108,59.788223 c 0,0 -6.159427,3.657837 -6.159427,9.754233 0,0 -1.231886,1.219279 0,4.877117 z" />
    <path
       style="fill:#1b1b1b;fill-opacity:1;fill-rule:evenodd;stroke:#000000;stroke-width:3.6767;stroke-linecap:butt;stroke-linejoin:round;stroke-miterlimit:4;stroke-dasharray:none;stroke-opacity:1"
       id="path6"
       d="m 57.713389,15.894174 a 6.159427,6.0963957 0 1 1 -12.318854,0 6.159427,6.0963957 0 1 1 12.318854,0 z" />
    <path
       d="M 39.235108,59.788223 H 63.872816 M 33.075681,69.542456 H 70.032243 M 51.553962,34.183361 v 12.192791 m -6.159427,-6.096395 h 12.318854"
       style="fill:none;fill-opacity:1;fill-rule:evenodd;stroke:#ffffff;stroke-width:3.6767;stroke-linecap:round;stroke-linejoin:miter;stroke-miterlimit:4;stroke-dasharray:none;stroke-opacity:1"
       id="path10" />
  </g>
</svg>
