<?xml version="1.0" encoding="UTF-8" standalone="no"?>
<svg
   xmlns:dc="http://purl.org/dc/elements/1.1/"
   xmlns:cc="http://creativecommons.org/ns#"
   xmlns:rdf="http://www.w3.org/1999/02/22-rdf-syntax-ns#"
   xmlns:svg="http://www.w3.org/2000/svg"
   xmlns="http://www.w3.org/2000/svg"
   xmlns:sodipodi="http://sodipodi.sourceforge.net/DTD/sodipodi-0.dtd"
   xmlns:inkscape="http://www.inkscape.org/namespaces/inkscape"
   inkscape:version="1.0 (4035a4fb49, 2020-05-01)"
   sodipodi:docname="BK.svg"
   id="svg15"
   height="100"
   width="100"
   version="1.1">
  <metadata
     id="metadata21">
    <rdf:RDF>
      <cc:Work
         rdf:about="">
        <dc:format>image/svg+xml</dc:format>
        <dc:type
           rdf:resource="http://purl.org/dc/dcmitype/StillImage" />
        <dc:title />
      </cc:Work>
    </rdf:RDF>
  </metadata>
  <defs
     id="defs19" />
  <sodipodi:namedview
     inkscape:current-layer="svg15"
     inkscape:window-maximized="1"
     inkscape:window-y="-9"
     inkscape:window-x="78"
     inkscape:cy="47.313653"
     inkscape:cx="41.512875"
     inkscape:zoom="3.096503"
     showgrid="false"
     id="namedview17"
     inkscape:window-height="1051"
     inkscape:window-width="1833"
     inkscape:pageshadow="2"
     inkscape:pageopacity="0"
     guidetolerance="10"
     gridtolerance="10"
     objecttolerance="10"
     borderopacity="1"
     bordercolor="#666666"
     pagecolor="#ffffff"
     inkscape:document-rotation="0" />
  <g
     id="g843">
    <g
       style="fill:#1b1b1b;fill-opacity:1;fill-rule:evenodd;stroke:#000000;stroke-width:1.5;stroke-linecap:round;stroke-linejoin:round;stroke-miterlimit:4;stroke-dasharray:none;stroke-opacity:1"
       id="g13"
       transform="matrix(2.2775801,0,0,2.2775801,0.54854851,-1.5889081)">
      <path
         d="M 22.5,11.63 V 6"
         style="fill:#1b1b1b;stroke:#000000;stroke-linejoin:miter;fill-opacity:1"
         id="path6570" />
      <path
         d="m 22.5,25 c 0,0 4.5,-7.5 3,-10.5 0,0 -1,-2.5 -3,-2.5 -2,0 -3,2.5 -3,2.5 -1.5,3 3,10.5 3,10.5"
         style="fill:#1b1b1b;fill-opacity:1;stroke-linecap:butt;stroke-linejoin:miter"
         id="path3" />
      <path
         d="m 11.5,37 c 5.5,3.5 15.5,3.5 21,0 v -7 c 0,0 9,-4.5 6,-10.5 -4,-6.5 -13.5,-3.5 -16,4 V 27 23.5 C 19,16 9.5,13 6.5,19.5 c -3,6 5,10 5,10 z"
         style="fill:#1b1b1b;stroke:#000000;fill-opacity:1"
         id="path5" />
      <path
         d="m 20,8 h 5"
         style="fill:#1b1b1b;stroke:#000000;stroke-linejoin:miter;fill-opacity:1"
         id="path7" />
      <path
         d="m 32,29.5 c 0,0 8.5,-4 6.03,-9.65 C 34.15,14 25,18 22.5,24.5 l 0.01,2.1 -0.01,-2.1 C 20,18 9.906,14 6.997,19.85 c -2.497,5.65 4.853,9 4.853,9"
         style="fill:#1b1b1b;stroke:#ffffff;fill-opacity:1"
         id="path9" />
      <path
         d="m 11.5,30 c 5.5,-3 15.5,-3 21,0 m -21,3.5 c 5.5,-3 15.5,-3 21,0 m -21,3.5 c 5.5,-3 15.5,-3 21,0"
         style="fill:#1b1b1b;stroke:#ffffff;fill-opacity:1"
         id="path11" />
    </g>
  </g>
</svg>
