<?xml version="1.0" encoding="UTF-8" standalone="no"?>
<svg
   xmlns:dc="http://purl.org/dc/elements/1.1/"
   xmlns:cc="http://creativecommons.org/ns#"
   xmlns:rdf="http://www.w3.org/1999/02/22-rdf-syntax-ns#"
   xmlns:svg="http://www.w3.org/2000/svg"
   xmlns="http://www.w3.org/2000/svg"
   xmlns:sodipodi="http://sodipodi.sourceforge.net/DTD/sodipodi-0.dtd"
   xmlns:inkscape="http://www.inkscape.org/namespaces/inkscape"
   inkscape:version="1.0 (4035a4fb49, 2020-05-01)"
   sodipodi:docname="BQ.svg"
   id="svg30"
   height="100"
   width="100"
   version="1.1">
  <metadata
     id="metadata36">
    <rdf:RDF>
      <cc:Work
         rdf:about="">
        <dc:format>image/svg+xml</dc:format>
        <dc:type
           rdf:resource="http://purl.org/dc/dcmitype/StillImage" />
        <dc:title />
      </cc:Work>
    </rdf:RDF>
  </metadata>
  <defs
     id="defs34" />
  <sodipodi:namedview
     inkscape:current-layer="svg30"
     inkscape:window-maximized="1"
     inkscape:window-y="-9"
     inkscape:window-x="78"
     inkscape:cy="44.649386"
     inkscape:cx="10.998389"
     inkscape:zoom="6.1930059"
     showgrid="false"
     id="namedview32"
     inkscape:window-height="1051"
     inkscape:window-width="1833"
     inkscape:pageshadow="2"
     inkscape:pageopacity="0"
     guidetolerance="10"
     gridtolerance="10"
     objecttolerance="10"
     borderopacity="1"
     bordercolor="#666666"
     pagecolor="#ffffff"
     inkscape:document-rotation="0" />
  <g
     transform="matrix(2.2257341,0,0,2.2257341,0.0206879,-0.98023545)"
     id="g28"
     style="opacity:1;fill-opacity:1;fill-rule:evenodd;stroke:#000000;stroke-width:1.5;stroke-linecap:round;stroke-linejoin:round;stroke-miterlimit:4;stroke-dasharray:none;stroke-opacity:1;fill:#1b1b1b">
    <g
       id="g12"
       style="fill:#1b1b1b;stroke:none;fill-opacity:1">
      <circle
         style="fill:#1b1b1b;fill-opacity:1"
         id="circle2"
         r="2.75"
         cy="12"
         cx="6" />
      <circle
         style="fill:#1b1b1b;fill-opacity:1"
         id="circle4"
         r="2.75"
         cy="9"
         cx="14" />
      <circle
         style="fill:#1b1b1b;fill-opacity:1"
         id="circle6"
         r="2.75"
         cy="8"
         cx="22.5" />
      <circle
         style="fill:#1b1b1b;fill-opacity:1"
         id="circle8"
         r="2.75"
         cy="9"
         cx="31" />
      <circle
         style="fill:#1b1b1b;fill-opacity:1"
         id="circle10"
         r="2.75"
         cy="12"
         cx="39" />
    </g>
    <path
       id="path14"
       style="stroke:#000000;stroke-linecap:butt;fill:#1b1b1b;fill-opacity:1"
       d="m 9,26 c 8.5,-1.5 21,-1.5 27,0 L 38.5,13.5 31,25 30.7,10.9 25.5,24.5 22.5,10 19.5,24.5 14.3,10.9 14,25 6.5,13.5 Z" />
    <path
       id="path16"
       style="stroke-linecap:butt;fill:#1b1b1b;fill-opacity:1"
       d="m 9,26 c 0,2 1.5,2 2.5,4 1,1.5 1,1 0.5,3.5 -1.5,1 -1.5,2.5 -1.5,2.5 -1.5,1.5 0.5,2.5 0.5,2.5 6.5,1 16.5,1 23,0 0,0 1.5,-1 0,-2.5 0,0 0.5,-1.5 -1,-2.5 -0.5,-2.5 -0.5,-2 0.5,-3.5 1,-2 2.5,-2 2.5,-4 -8.5,-1.5 -18.5,-1.5 -27,0 z" />
    <path
       id="path18"
       style="fill:#1b1b1b;stroke:#000000;stroke-linecap:butt;fill-opacity:1"
       d="m 11,38.5 a 35,35 1 0 0 23,0" />
    <path
       id="path20"
       style="fill:#1b1b1b;stroke:#ffffff;fill-opacity:1"
       d="m 11,29 a 35,35 1 0 1 23,0" />
    <path
       id="path22"
       style="fill:#1b1b1b;stroke:#ffffff;fill-opacity:1"
       d="m 12.5,31.5 h 20" />
    <path
       id="path24"
       style="fill:#1b1b1b;stroke:#ffffff;fill-opacity:1"
       d="m 11.5,34.5 a 35,35 1 0 0 22,0" />
    <path
       id="path26"
       style="fill:#1b1b1b;stroke:#ffffff;fill-opacity:1"
       d="m 10.5,37.5 a 35,35 1 0 0 24,0" />
  </g>
</svg>
