<?xml version="1.0" encoding="UTF-8" standalone="no"?>
<svg
   xmlns:dc="http://purl.org/dc/elements/1.1/"
   xmlns:cc="http://creativecommons.org/ns#"
   xmlns:rdf="http://www.w3.org/1999/02/22-rdf-syntax-ns#"
   xmlns:svg="http://www.w3.org/2000/svg"
   xmlns="http://www.w3.org/2000/svg"
   xmlns:sodipodi="http://sodipodi.sourceforge.net/DTD/sodipodi-0.dtd"
   xmlns:inkscape="http://www.inkscape.org/namespaces/inkscape"
   version="1.1"
   width="100"
   height="100"
   id="svg18"
   sodipodi:docname="WK.svg"
   inkscape:version="1.0 (4035a4fb49, 2020-05-01)">
  <metadata
     id="metadata24">
    <rdf:RDF>
      <cc:Work
         rdf:about="">
        <dc:format>image/svg+xml</dc:format>
        <dc:type
           rdf:resource="http://purl.org/dc/dcmitype/StillImage" />
        <dc:title />
      </cc:Work>
    </rdf:RDF>
  </metadata>
  <defs
     id="defs22" />
  <sodipodi:namedview
     inkscape:document-rotation="0"
     pagecolor="#ffffff"
     bordercolor="#666666"
     borderopacity="1"
     objecttolerance="10"
     gridtolerance="10"
     guidetolerance="10"
     inkscape:pageopacity="0"
     inkscape:pageshadow="2"
     inkscape:window-width="1833"
     inkscape:window-height="1051"
     id="namedview20"
     showgrid="false"
     inkscape:zoom="3.1493057"
     inkscape:cx="-90.718575"
     inkscape:cy="57.713371"
     inkscape:window-x="78"
     inkscape:window-y="-9"
     inkscape:window-maximized="1"
     inkscape:current-layer="svg18" />
  <g
     style="fill:#a9a9a9;fill-opacity:1;fill-rule:evenodd;stroke:#000000;stroke-width:1.5;stroke-linecap:round;stroke-linejoin:round;stroke-miterlimit:4;stroke-dasharray:none;stroke-opacity:1"
     id="g16"
     transform="matrix(2.4199288,0,0,2.4199288,-3.4041615,-5.2319142)">
    <path
       d="M 22.5,11.63 V 6"
       style="fill:#a9a9a9;stroke:#000000;stroke-linejoin:miter;fill-opacity:1"
       id="path2" />
    <path
       d="m 20,8 h 5"
       style="fill:#a9a9a9;stroke:#000000;stroke-linejoin:miter;fill-opacity:1"
       id="path4" />
    <path
       d="m 22.5,25 c 0,0 4.5,-7.5 3,-10.5 0,0 -1,-2.5 -3,-2.5 -2,0 -3,2.5 -3,2.5 -1.5,3 3,10.5 3,10.5"
       style="fill:#a9a9a9;stroke:#000000;stroke-linecap:butt;stroke-linejoin:miter;fill-opacity:1"
       id="path6" />
    <path
       d="m 11.5,37 c 5.5,3.5 15.5,3.5 21,0 v -7 c 0,0 9,-4.5 6,-10.5 -4,-6.5 -13.5,-3.5 -16,4 V 27 23.5 C 19,16 9.5,13 6.5,19.5 c -3,6 5,10 5,10 z"
       style="fill:#a9a9a9;stroke:#000000;fill-opacity:1"
       id="path8" />
    <path
       d="M 11.5,30 C 17,27 27,27 32.5,30"
       style="fill:#a9a9a9;stroke:#000000;fill-opacity:1"
       id="path10" />
    <path
       d="m 11.5,33.5 c 5.5,-3 15.5,-3 21,0"
       style="fill:#a9a9a9;stroke:#000000;fill-opacity:1"
       id="path12" />
    <path
       d="M 11.5,37 C 17,34 27,34 32.5,37"
       style="fill:#a9a9a9;stroke:#000000;fill-opacity:1"
       id="path14" />
  </g>
</svg>
