<svg id="layer1" xmlns="http://www.w3.org/2000/svg" width="71.884" height="72.078" viewBox="0 0 71.884 72.078">
    <path id="rect240" d="M.2-.526V71.552H72.086V-.526ZM35.775,9.858c4.052,0,6.309,5.45,3.362,8.117-1.127,1.019-1.181,1.319-.4,2.21a24.733,24.733,0,0,1,2.321,3.849c1.285,2.555,1.52,2.73,2.509,1.863a12.924,12.924,0,0,1,7.747-3.059c3.421,0,8.1,3.074,10.6,6.968,1.711,2.663,1.95,3.559,1.725,6.465-.314,4.063-2.663,7.786-6.77,10.736l-2.8,2.011-.01,5.244c-.005,2.884-.235,5.6-.51,6.03-1.9,2.986-16.05,4.868-25.828,3.434-3.792-.556-8-1.821-9.185-2.762-.53-.421-.811-2.48-.811-5.943v-5.3l-2.9-2.422C6.477,40.319,5.47,33.959,11.666,27.334c3.3-3.527,6.3-4.81,10.069-4.3,2.723.365,6.2,2.431,6.892,3.955q.421-.131.864-.247l-.024-.037,1.26-2.743a30.927,30.927,0,0,1,2.052-3.841c.643-.891.583-1.329-.316-2.323C29.881,14.942,32,9.858,35.775,9.858Z" transform="translate(-0.203 0.526)"/>
</svg>
