<svg id="layer1" xmlns="http://www.w3.org/2000/svg" width="71.454" height="71.454" viewBox="0 0 71.454 71.454">
    <path id="rect97" d="M.174.058V71.512H71.628V.058Zm31.5,5.975h9.957l.191,2.645.192,2.645h5.529V21.9H44.694c-2.593,0-2.826.123-2.645,1.4.168,1.183.729,1.478,3.622,1.9,5.125.749,10.527,2.391,12.2,3.709q3.389,2.665-.729,11.971c-6.086,13.762-6.2,14.092-5.058,14.926,1.493,1.092,1.378,4.812-.193,6.233a4.07,4.07,0,0,0-1.245,2.586v1.459H22l.358-1.428a2.451,2.451,0,0,0-.921-2.586c-1.634-1.479-1.779-5.6-.227-6.471.942-.527.652-1.5-2.755-9.21-5.467-12.378-5.964-15.156-3.132-17.506,1.49-1.237,6.121-2.684,11.057-3.454,4.06-.634,4.692-.906,4.861-2.093.174-1.221-.12-1.385-2.8-1.556l-2.995-.191V11.633l2.922-.188,2.922-.188.19-2.612Z" transform="translate(-0.174 -0.058)"/>
</svg>
