<svg id="layer1" xmlns="http://www.w3.org/2000/svg" width="70.831" height="70.831" viewBox="0 0 70.831 70.831">
    <path id="rect42" d="M0,0V70.831H70.831V0ZM31.313,5.8h8.215l.2,2.415c.184,2.219.382,2.441,2.453,2.737l2.254.322V19l-2.132.2c-1.6.153-2.076.476-1.911,1.288.23,1.131.27,1.133,6.941.376,9.168-1.04,15.454,4.357,15.454,13.27,0,4.96-.959,6.829-6.527,12.713-2.431,2.569-4.419,4.963-4.419,5.321A7.1,7.1,0,0,0,53.9,54.657c1.843,1.647,2.085,2.282,2.329,6.108l.272,4.27H14.317l.347-4.326c.306-3.809.586-4.539,2.342-6.108A7.35,7.35,0,0,0,19,52.269c0-.3-2.018-2.764-4.484-5.47-5.661-6.211-6.462-7.78-6.462-12.665,0-8.913,6.286-14.31,15.454-13.27,6.671.757,6.711.755,6.941-.376.165-.812-.313-1.134-1.912-1.288L26.406,19l-.191-3.984-.191-3.984,2.444-.2c2.318-.191,2.455-.327,2.644-2.616Zm-6.86,26.374c-1.9.038-3.52,1.029-3.52,2.657s5.76,8.316,7.162,8.316c1.067,0,1.209-.527,1.209-4.471,0-3.89-.186-4.6-1.431-5.473a5.809,5.809,0,0,0-3.42-1.029Zm22.053.055a6.58,6.58,0,0,0-3.536.974c-1.22.855-1.431,1.6-1.431,5.044,0,6.188.994,6.448,5.35,1.4,3.062-3.547,3.645-5.278,2.248-6.675a3.843,3.843,0,0,0-2.631-.744Zm-11.085,21.7c-6.021,0-11.816.3-12.878.67-1.444.5,1.81.67,12.878.67S49.743,55.1,48.3,54.6C47.237,54.227,41.442,53.926,35.421,53.926Z"/>
</svg>
