<svg id="layer1" xmlns="http://www.w3.org/2000/svg" width="71.642" height="71.642" viewBox="0 0 71.642 71.642">
    <g id="g196" transform="translate(0 0)">
        <path id="rect42" d="M-.962.318V71.96H70.68V.318ZM34.819,5.673a5.654,5.654,0,0,1,4.072,1.681c2.154,2.154,2.075,4.113-.409,10.079-2.313,5.555-3.4,6.864-4.543,5.483-1.314-1.583-4.094-8.418-4.528-11.132-.359-2.243-.167-2.884,1.3-4.352A5.876,5.876,0,0,1,34.819,5.673ZM20.1,18.438h0c4.494,0,7.652,1.475,11.356,5.3a17.108,17.108,0,0,0,3.03,2.6q.229.052.456.112a13.53,13.53,0,0,0,3.277-2.716c3.7-3.828,6.862-5.3,11.356-5.3A13.857,13.857,0,0,1,60.1,22.907c1.91,2.011,3.878,6.713,3.878,9.263,0,3.04-2.111,7.347-5.227,10.664-4.02,4.28-6.549,7.673-7.118,9.549-.349,1.152-.054,1.643,1.41,2.345,2.424,1.162,3.544,3.5,3.556,7.419l.01,3.182H13.071V62.282c0-3.677,1.289-6.389,3.635-7.644,2.7-1.443,1.5-3.916-5.757-11.927-2.887-3.186-3.966-4.96-4.481-7.369A13.709,13.709,0,0,1,20.1,18.438Z" transform="translate(0.962 -0.318)"/>
    </g>
</svg>
