<svg id="layer1" xmlns="http://www.w3.org/2000/svg" width="71.882" height="72.078" viewBox="0 0 71.882 72.078">
    <path id="rect57" d="M.148-.143V71.934H72.03V-.143ZM36.115,6.817c1.154,0,1.7.454,1.978,1.65a2.249,2.249,0,0,0,1.845,1.861c1.046.151,1.458.664,1.458,1.815,0,1.271-.343,1.6-1.65,1.6-1.468,0-1.65.273-1.643,2.476.006,1.944.49,2.945,2.26,4.664l2.253,2.189,2.527-1.649c5.238-3.419,10.893-2.825,15.753,1.655,3.833,3.533,5.386,7.954,4.3,12.253-1.167,4.635-3.157,8.03-7.178,12.246l-3.676,3.854.788,5.452c.434,3,.788,5.956.788,6.573,0,1.03-1.614,1.121-19.8,1.121H16.31l.035-1.485c.019-.817.436-3.713.926-6.437l.827-4.6a35.723,35.723,0,0,1-2.309-2.831l-1.433-1.5C5.493,38.478,4.378,29.5,11.3,23.116,16.183,18.614,21.835,18,27.051,21.4l2.489,1.624,2.3-2.231c1.8-1.743,2.3-2.757,2.3-4.64,0-2.129-.191-2.409-1.65-2.409-1.308,0-1.65-.333-1.65-1.6,0-1.151.412-1.664,1.458-1.815a2.249,2.249,0,0,0,1.845-1.861c.281-1.2.824-1.65,1.978-1.65Z" transform="translate(-0.148 0.143)"/>
</svg>
