<svg id="Gerald-G-Parchment-Background-or-Border-small" xmlns="http://www.w3.org/2000/svg" xmlns:xlink="http://www.w3.org/1999/xlink" width="1133.733" height="737.308" viewBox="0 0 1133.733 737.308">
    <defs>
        <linearGradient id="linear-gradient" x1="0.868" y1="0.499" x2="-0.029" y2="0.502" gradientUnits="objectBoundingBox">
            <stop offset="0.129" stop-color="#8d5c34"/>
            <stop offset="0.29" stop-color="#e8d0a9"/>
            <stop offset="0.595" stop-color="#e3cba4"/>
            <stop offset="1" stop-color="#8d5c34"/>
        </linearGradient>
        <linearGradient id="linear-gradient-2" x1="0.016" y1="0.511" x2="1.011" y2="0.473" gradientUnits="objectBoundingBox">
            <stop offset="0" stop-color="#8d5c34"/>
            <stop offset="0.033" stop-color="#d1b38b"/>
            <stop offset="0.914" stop-color="#e3cba4"/>
            <stop offset="1" stop-color="#8d5c34"/>
        </linearGradient>
        <linearGradient id="linear-gradient-3" x1="1.045" y1="0.499" x2="-0.013" y2="0.5" gradientUnits="objectBoundingBox">
            <stop offset="0.005" stop-color="#8d5c34"/>
            <stop offset="0.143" stop-color="#93633b"/>
            <stop offset="0.295" stop-color="#e8d0a9"/>
            <stop offset="0.638" stop-color="#e3cba4"/>
            <stop offset="0.933" stop-color="#93633a"/>
            <stop offset="1" stop-color="#8d5c34"/>
        </linearGradient>
    </defs>
    <path id="path26" d="M4.446,720.834C4.3,628.118,4.01,524.685,3.379,405.058c-.63-119.733-1.5-249.7-2.618-396.536h0c4.509-3.6,8.629-5.309,12.555-5.116C17.2,3.881,20.54,6.25,23.74,10.514L38.381,733.043a61.764,61.764,0,0,0-8.872-7.11c-3.781-2.08-8.872-6.451-13.041-7.215a16.722,16.722,0,0,0-12.022,2.107Z" transform="translate(-0.761 0.09)" fill-rule="evenodd" fill="url(#linear-gradient)"/>
    <path id="path28" d="M14.272,285.006l-1.6-5.238-6.835-2.814a28.615,28.615,0,0,1,14.5-.781,31.652,31.652,0,0,1,13.233,6.841,30.377,30.377,0,0,1-10.423,3.2,17.41,17.41,0,0,1-8.872-1.212Z" transform="translate(0.998 450.946)" fill="#412318" fill-rule="evenodd"/>
    <path id="path39" d="M33.184,728.747,17.465,6.711h0c23.948.857,44.4,1.913,63.43,2.389,18.77.862,32.88,1.155,48.284,1.631,15.016.764,31.456-1.053,41.812.764,9.709,2.11,12.815,6.131,18.252,9.48,5.049,3.352,8.544,9.862,12.945,10.346,4.142.857,9.065-2.972,12.815-6.324,3.366-3.259,5.7-7.758,7.508-13.5,15.016-1.149,27.443-1.82,38.705-2.394a247.514,247.514,0,0,1,26.8,0c6.472.769,11.78,2.5,13.98,4.791,1.942,2.965-.906,7.277-1.036,10.345-.259,2.775-2.589,5.265,0,7.851,2.2,3.352,10.356,9.383,13.97,10.346,3.128.955,3.236-2.972,5.322-5.555,1.546-2.682,2.733-5.369,5.43-9.481a154.887,154.887,0,0,1,9.6-12.739c11.255-.479,24.6-.479,39.985-.764,15.534-.192,39.338-1.532,51.528,0,11.65,2.01,11.9,8.427,18.231,11.108,5.969,3.065,13.88,6.034,18.267,5.555,4.279-.67,3.632-5.648,6.472-8.713,2.086-2.49.9-5.267,7.515-7.184,6.329-1.82,16.685-3.73,31.068-3.924,13.988.285,40.525,2.583,52.678,4.693,11.65,2.295,13.592,3.635,18.267,8.812,3.991,5.555,5.178,16.664,7.479,22.983a73.267,73.267,0,0,0,7.515,15.135,70.42,70.42,0,0,1,1.043-19.921c1.151-5.462,4.027-9.481,6.472-14.273,2.337-4.884,4.027-9.29,6.473-14.266,20.963-.955,40.129-1.248,58-.862,17.727.577,33.657,1.532,48.291,3.258a73.124,73.124,0,0,1,9.565,15.8,41.778,41.778,0,0,1,3.236,15.132c5.825-4.307,9.96-8.808,11.9-13.5a19.182,19.182,0,0,0,0-14.267c22.653,1.053,44.66,1.434,66.558.764,22.006-.572,46.6-2.389,63.286-3.924,15.93-1.246,20.208-3.928,32.218-4.021,11.543.38,25.386,3.351,37.54,4.785,11.542,1.439,14.635,2.49,34.3,3.16,20.352.769,62.926,1.825,83.782,1.631,19.921.093,31.571-.577,35.454-1.631l3.236,697.41c-9.96-2.581-23.049-3.937-39.733-4.017-17.224.08-37.936,2.767-60.193,4.017-22.653,1.623-48.795,3.937-72.887,4.682-24.343.772-51.671,1.064-70.945.878-19.417.479-34.951,1.33-45.055,0-10.464-1.144-13.053-4.709-17.224-8.806-4.531-4.23-5.537-9.87-8.522-15.909-3.38-5.56-7.767-12.344-9.709-18.2-2.086-5.56-1.834-13.7-3.236-15.909-2.193-1.623-6.221-.186-7.515,3.937-1.043,4.416.647,14.738,0,20.7-1.043,6.119-3.38,10.429-6.472,15.111-3.38,5-4.135,10.828-12.8,13.515-8.81,2.979-22.4,3.166-40.776,3.166-19.022,0-42.215-3.645-71.988-3.166-30.672.958-74.433,6.039-106.795,7.076-32.218,1.25-57.353-.851-84.789-1.516-28.083-.585-55.411-4.124-79.467-3.272-23.948,1.25-46.745,8.247-63.315,8.832-16.828.372-23.689-3.937-37.54-5.56-14.369-1.064-29.126-1.729-46.213-1.623-2.589-9.684-4.919-17.239-6.472-23.092-1.942-5.64-3.366-7.768-3.236-11.865a30.516,30.516,0,0,1,4.4-13.514c-9.32,3.724-14.887,7.848-17.217,12.743-2.46,5.081,1.942,10.615,3.236,16.654q1.748,9.218,4.272,19.82c-16.569,1.729-32.75,2.793-50.485,3.166-17.993.665-40.258.665-54.757,0-14.628-.293-50.426,4.515-57.028,3.264Z" transform="translate(5.029 1.24)" fill-rule="evenodd" fill="url(#linear-gradient-2)"/>
    <path id="path54" d="M317.692,726.625c-.148-199.245-.148-355.088-.391-477.054-.283-121.108-.431-201.41-.821-245.239h0c3.6,5.007,7.083,8.4,10.867,10.2,3.636,1.984,7.312,1.511,11.244.753a34.728,34.728,0,0,0,12.066-4.721L344.6,724.263c-4.4,4.907-8.093,8.318-11.244,10.208-3.151,2.44-5.185,2.624-7.609,1.6-2.572-1.128-5.387-4.539-8.053-9.447Z" transform="translate(783.075 0.416)" fill-rule="evenodd" fill="url(#linear-gradient-3)"/>
    <path id="path56" d="M315.87,5.941a34.2,34.2,0,0,0,12.456,4.851,48.487,48.487,0,0,0,14.88.386c3.69-.533,6.3-1.744,7.662-3.635a44.342,44.342,0,0,0-7.218-1.989c-2.963-.533-6.262-.873-10.086-1.212l-4.794-3.2a14.2,14.2,0,0,0-7.662.386A10.064,10.064,0,0,0,315.87,5.941Z" transform="translate(782.863 -0.806)" fill="#412318" fill-rule="evenodd"/>
</svg>
