<?xml version="1.0" encoding="UTF-8" standalone="no"?>
<svg
   xmlns:dc="http://purl.org/dc/elements/1.1/"
   xmlns:cc="http://creativecommons.org/ns#"
   xmlns:rdf="http://www.w3.org/1999/02/22-rdf-syntax-ns#"
   xmlns:svg="http://www.w3.org/2000/svg"
   xmlns="http://www.w3.org/2000/svg"
   xmlns:sodipodi="http://sodipodi.sourceforge.net/DTD/sodipodi-0.dtd"
   xmlns:inkscape="http://www.inkscape.org/namespaces/inkscape"
   width="349.17075"
   height="26.849884"
   viewBox="0 0 349.17074 26.849886"
   version="1.1"
   id="svg879"
   sodipodi:docname="scroll-top.svg"
   inkscape:version="1.0 (4035a4fb49, 2020-05-01)">
  <metadata
     id="metadata883">
    <rdf:RDF>
      <cc:Work
         rdf:about="">
        <dc:format>image/svg+xml</dc:format>
        <dc:type
           rdf:resource="http://purl.org/dc/dcmitype/StillImage" />
        <dc:title></dc:title>
      </cc:Work>
    </rdf:RDF>
  </metadata>
  <sodipodi:namedview
     inkscape:document-rotation="0"
     pagecolor="#ffffff"
     bordercolor="#666666"
     borderopacity="1"
     objecttolerance="10"
     gridtolerance="10"
     guidetolerance="10"
     inkscape:pageopacity="0"
     inkscape:pageshadow="2"
     inkscape:window-width="1920"
     inkscape:window-height="1001"
     id="namedview881"
     showgrid="false"
     fit-margin-top="0"
     fit-margin-left="0"
     fit-margin-right="0"
     fit-margin-bottom="0"
     inkscape:zoom="2.435185"
     inkscape:cx="114.30806"
     inkscape:cy="39.755965"
     inkscape:window-x="-9"
     inkscape:window-y="-9"
     inkscape:window-maximized="1"
     inkscape:current-layer="Group_1" />
  <defs
     id="defs874">
    <linearGradient
       id="linear-gradient"
       x1="98.108665"
       y1="49.586189"
       x2="0.10163594"
       y2="49.771984"
       gradientUnits="userSpaceOnUse"
       gradientTransform="scale(3.6953601,0.27060962)">
      <stop
         offset="0"
         stop-color="#8d5c34"
         id="stop865" />
      <stop
         offset="0.144"
         stop-color="#e8d0a9"
         id="stop867" />
      <stop
         offset="0.87"
         stop-color="#e3cba4"
         id="stop869" />
      <stop
         offset="1"
         stop-color="#8d5c34"
         id="stop871" />
    </linearGradient>
  </defs>
  <g
     id="Group_1"
     data-name="Group 1"
     transform="translate(-16.431562,-5.5802414)">
    <path
       sodipodi:nodetypes="ccssccccccc"
       id="path26"
       d="M 16.621992,0.69500759 C 60.207992,1.0360076 108.83499,1.3200076 165.07699,1.4310076 221.36899,1.5420076 282.323,1.677 351.361,1.56 v 0 c 1.5315,2.8747505 2.30842,6.0911384 2.258,9.348 -0.28911,2.874202 -8.29626,13.975719 -10.25477,16.099126 L 8.6370836,26.963285 C 9.950395,24.869574 12.9503,21.549632 13.930992,19.281008 c 1.022,-2.8 3.137,-6.556 3.544,-9.6480004 0.448083,-3.0040433 0.15666,-6.0720444 -0.849,-8.93800001 z"
       transform="translate(11.981,5.423)"
       fill-rule="evenodd"
       fill="url(#linear-gradient)"
       style="fill:url(#linear-gradient)" />
    <path
       id="path28"
       d="M 8.435,10.588 14.85,9.225 18.389,3.18 a 18.852,18.852 0 0 1 0.727,12.9 26.823,26.823 0 0 1 -8.55,11.689 21.839,21.839 0 0 1 -3.748,-9.3 11.781,11.781 0 0 1 1.616,-7.875 z"
       transform="rotate(-7,42.053038,-61.709884)"
       fill="#412318"
       fill-rule="evenodd" />
  </g>
</svg>
