<?xml version="1.0" encoding="UTF-8" standalone="no"?>
<svg
   xmlns:dc="http://purl.org/dc/elements/1.1/"
   xmlns:cc="http://creativecommons.org/ns#"
   xmlns:rdf="http://www.w3.org/1999/02/22-rdf-syntax-ns#"
   xmlns:svg="http://www.w3.org/2000/svg"
   xmlns="http://www.w3.org/2000/svg"
   xmlns:sodipodi="http://sodipodi.sourceforge.net/DTD/sodipodi-0.dtd"
   xmlns:inkscape="http://www.inkscape.org/namespaces/inkscape"
   inkscape:version="1.0 (4035a4fb49, 2020-05-01)"
   sodipodi:docname="scroll-bottom.svg"
   id="svg16"
   version="1.1"
   viewBox="0 0 349.22645 25.760014"
   height="25.760014"
   width="349.22644">
  <metadata
     id="metadata20">
    <rdf:RDF>
      <cc:Work
         rdf:about="">
        <dc:format>image/svg+xml</dc:format>
        <dc:type
           rdf:resource="http://purl.org/dc/dcmitype/StillImage" />
        <dc:title></dc:title>
      </cc:Work>
    </rdf:RDF>
  </metadata>
  <sodipodi:namedview
     inkscape:current-layer="svg16"
     inkscape:window-maximized="1"
     inkscape:window-y="-9"
     inkscape:window-x="-9"
     inkscape:cy="9.9568038"
     inkscape:cx="175.24502"
     inkscape:zoom="3.4442744"
     fit-margin-bottom="0"
     fit-margin-right="0"
     fit-margin-left="0"
     fit-margin-top="0"
     showgrid="false"
     id="namedview18"
     inkscape:window-height="1001"
     inkscape:window-width="1920"
     inkscape:pageshadow="2"
     inkscape:pageopacity="0"
     guidetolerance="10"
     gridtolerance="10"
     objecttolerance="10"
     borderopacity="1"
     bordercolor="#666666"
     pagecolor="#ffffff" />
  <defs
     id="defs11">
    <linearGradient
       gradientTransform="scale(3.6953601,0.27060962)"
       gradientUnits="userSpaceOnUse"
       y2="49.771983"
       x2="0.10163594"
       y1="49.58619"
       x1="98.108668"
       id="linear-gradient">
      <stop
         id="stop2"
         stop-color="#8d5c34"
         offset="0" />
      <stop
         id="stop4"
         stop-color="#e8d0a9"
         offset="0.144" />
      <stop
         id="stop6"
         stop-color="#e3cba4"
         offset="0.87" />
      <stop
         id="stop8"
         stop-color="#8d5c34"
         offset="1" />
    </linearGradient>
  </defs>
  <g
     transform="matrix(-1,-0.017,0.017,-1,365.33252,31.790304)"
     data-name="Group 2"
     id="Group_2">
    <path
       style="fill:url(#linear-gradient)"
       fill="url(#linear-gradient)"
       fill-rule="evenodd"
       transform="translate(11.981,5.423)"
       d="m 16.468,0.849 c 43.586,0.341 92.213,0.625 148.455,0.736 56.292,0.111 117.4,0.092 186.438,-0.025 v 0 a 19.248,19.248 0 0 1 2.258,9.348 13.324,13.324 0 0 1 -3.463,7.7 l -339.825,7.38 a 48.692,48.692 0 0 0 3.446,-6.553 c 1.022,-2.8 3.137,-6.556 3.544,-9.648 A 18.674,18.674 0 0 0 16.472,0.849 Z"
       id="path26" />
    <path
       fill-rule="evenodd"
       fill="#412318"
       transform="rotate(-7,42.053038,-61.709884)"
       d="M 8.435,10.588 14.85,9.225 18.389,3.18 a 18.852,18.852 0 0 1 0.727,12.9 26.823,26.823 0 0 1 -8.55,11.689 21.839,21.839 0 0 1 -3.748,-9.3 11.781,11.781 0 0 1 1.616,-7.875 z"
       id="path28" />
  </g>
</svg>
