<?xml version="1.0" encoding="UTF-8" standalone="no"?>
<svg
   xmlns:dc="http://purl.org/dc/elements/1.1/"
   xmlns:cc="http://creativecommons.org/ns#"
   xmlns:rdf="http://www.w3.org/1999/02/22-rdf-syntax-ns#"
   xmlns:svg="http://www.w3.org/2000/svg"
   xmlns="http://www.w3.org/2000/svg"
   xmlns:sodipodi="http://sodipodi.sourceforge.net/DTD/sodipodi-0.dtd"
   xmlns:inkscape="http://www.inkscape.org/namespaces/inkscape"
   inkscape:version="1.0 (4035a4fb49, 2020-05-01)"
   height="18"
   width="18"
   sodipodi:docname="person-outline.svg"
   id="svg4"
   version="1.1"
   aria-hidden="true"
   viewBox="0 0 18 18"
   focusable="false"
   class="MuiSvgIcon-root jss172">
  <metadata
     id="metadata10">
    <rdf:RDF>
      <cc:Work
         rdf:about="">
        <dc:format>image/svg+xml</dc:format>
        <dc:type
           rdf:resource="http://purl.org/dc/dcmitype/StillImage" />
        <dc:title />
      </cc:Work>
    </rdf:RDF>
  </metadata>
  <defs
     id="defs8" />
  <sodipodi:namedview
     inkscape:current-layer="svg4"
     inkscape:window-maximized="1"
     inkscape:window-y="-9"
     inkscape:window-x="-9"
     inkscape:cy="11.19497"
     inkscape:cx="7.0108097"
     inkscape:zoom="34.583334"
     fit-margin-bottom="0"
     fit-margin-right="0"
     fit-margin-left="0"
     fit-margin-top="0"
     showgrid="false"
     id="namedview6"
     inkscape:window-height="1001"
     inkscape:window-width="1920"
     inkscape:pageshadow="2"
     inkscape:pageopacity="0"
     guidetolerance="10"
     gridtolerance="10"
     objecttolerance="10"
     borderopacity="1"
     bordercolor="#666666"
     pagecolor="#1e1e1e"
     inkscape:document-rotation="0"
     inkscape:pagecheckerboard="false" />
  <path
     style="fill:#ffffff;stroke-width:1"
     id="path2"
     d="M 9.0000002,2.9 C 10.16,2.9 11.1,3.84 11.1,4.9999999 11.1,6.16 10.16,7.1 9.0000002,7.1 7.8400001,7.1 6.9000001,6.16 6.9000001,4.9999999 6.9000001,3.84 7.8400001,2.9 9.0000002,2.9 m 0,8.999999 C 11.97,11.899999 15.1,13.36 15.1,14 v 1.1 H 2.9000001 V 14 c 0,-0.64 3.13,-2.100001 6.1000001,-2.100001 M 9.0000002,1 C 6.7900001,1 5.0000001,2.79 5.0000001,4.9999999 5.0000001,7.2099999 6.7900001,9 9.0000002,9 11.21,9 13,7.2099999 13,4.9999999 13,2.79 11.21,1 9.0000002,1 Z m 0,9 C 6.3300002,10 1,11.34 1,14 v 3 h 16 v -3 c 0,-2.66 -5.33,-4 -7.9999998,-4 z" />
</svg>
