<?xml version="1.0" encoding="UTF-8" standalone="no"?>
<!-- Created with Inkscape (http://www.inkscape.org/) -->

<svg
   xmlns:dc="http://purl.org/dc/elements/1.1/"
   xmlns:cc="http://creativecommons.org/ns#"
   xmlns:rdf="http://www.w3.org/1999/02/22-rdf-syntax-ns#"
   xmlns:svg="http://www.w3.org/2000/svg"
   xmlns="http://www.w3.org/2000/svg"
   xmlns:sodipodi="http://sodipodi.sourceforge.net/DTD/sodipodi-0.dtd"
   xmlns:inkscape="http://www.inkscape.org/namespaces/inkscape"
   version="1.1"
   id="svg846"
   width="1920"
   height="1920"
   viewBox="0 0 1920 1920"
   sodipodi:docname="d5.svg"
   inkscape:version="0.92.4 (5da689c313, 2019-01-14)">
  <metadata
     id="metadata852">
    <rdf:RDF>
      <cc:Work
         rdf:about="">
        <dc:format>image/svg+xml</dc:format>
        <dc:type
           rdf:resource="http://purl.org/dc/dcmitype/StillImage" />
        <dc:title />
      </cc:Work>
    </rdf:RDF>
  </metadata>
  <defs
     id="defs850" />
  <sodipodi:namedview
     pagecolor="#ffffff"
     bordercolor="#666666"
     borderopacity="1"
     objecttolerance="10"
     gridtolerance="10"
     guidetolerance="10"
     inkscape:pageopacity="0"
     inkscape:pageshadow="2"
     inkscape:window-width="1920"
     inkscape:window-height="1017"
     id="namedview848"
     showgrid="false"
     inkscape:zoom="0.073958335"
     inkscape:cx="-349.73318"
     inkscape:cy="1001.1119"
     inkscape:window-x="-8"
     inkscape:window-y="-8"
     inkscape:window-maximized="1"
     inkscape:current-layer="svg846" />
  <path
     style="fill:#ffffff;fill-opacity:1;stroke-width:1.0666666"
     d="m 411.8254,1588.3176 c -54.3035,-4.2559 -113.5336,-26.5166 -156.3765,-58.7715 -77.1936,-58.1164 -129.0918,-158.4462 -149.2239,-288.4804 -7.573797,-48.9195 -9.030997,-70.8069 -8.947797,-134.4 0.072,-55.1101 0.094,-55.6602 3.472197,-85.5782 8.2677,-73.22973 25.2463,-132.69743 54.6658,-191.46763 25.556,-51.0522 63.4211,-101.0578 101.2102,-133.6608 73.428,-63.3507 167.6477,-95.035 257.0667,-86.4466 59.7533,5.7391 98.4839,17.3777 158.9263,47.7577 13.7828,6.9275 25.1828,12.5956 25.3333,12.5956 0.1506,0 0.2737,-0.96 0.2737,-2.1334 0,-2.6336 0.1711,-2.6336 5.3334,0 5.1622,2.6336 5.3333,2.6336 5.3333,0 0,-2.6336 0.1711,-2.6336 5.3333,0 2.3,1.1734 4.4408,2.1334 4.7575,2.1334 0.3168,0 0.5759,-90.72 0.5759,-201.6 v -201.6 h 67.73331 67.7334 v 648.5333 648.53333 H 787.30321 719.581 l -0.2778,-46.9149 -0.2778,-46.9147 -5.0039,4.2775 -5.0039,4.2774 -0.3294,-4.2872 -0.3294,-4.2874 -5.0667,4.3409 -5.0667,4.341 v -4.4269 -4.427 l -3.0654,2.4773 c -1.686,1.3626 -12.7775,10.3973 -24.6478,20.0773 -37.4548,30.5436 -56.0798,43.257 -84.2868,57.5338 -37.8484,19.1568 -76.0394,31.6021 -113.0697,36.8462 -14.2349,2.0159 -45.9202,2.8796 -61.3303,1.6719 z m 113.1957,-151.8521 c 59.8138,-10.6727 123.1633,-41.2874 180.6089,-87.2821 l 13.8023,-11.051 0.063,-268.8208 0.063,-268.82093 -13.6,-6.267 c -56.8441,-26.1943 -99.4798,-37.893 -154.0785,-42.277 -24.4937,-1.9668 -85.2266,-0.7814 -101.8296,1.9875 -66.1459,11.0312 -117.7258,44.9092 -154.6254,101.5591 -39.2945,60.3266 -57.956,139.81601 -57.9653,246.90583 -0.01,77.1108 7.5121,135.9011 23.9543,187.3007 22.2702,69.6184 57.4731,113.1459 108.8112,134.5419 18.3723,7.657 32.7719,11.1781 61.8666,15.1279 1.76,0.239 20,0.288 40.5334,0.109 34.3644,-0.2995 38.5311,-0.5392 52.3956,-3.0131 z m 852.1377,152.2394 c -2.3467,-0.2391 -13.6267,-1.1888 -25.0667,-2.1106 -66.7003,-5.3745 -142.5825,-22.1086 -203.7333,-44.9287 -16.5788,-6.1867 -50.4002,-20.7824 -52.5398,-22.6734 -0.4436,-0.3921 -0.6836,-38.4936 -0.5334,-84.6702 l 0.2732,-83.9574 7.474,4.6512 c 44.2296,27.5254 117.3125,57.7667 183.4593,75.9147 46.8926,12.8653 58.8136,14.446 114.3622,15.164 35.2694,0.456 43.8838,0.2619 54.9333,-1.238 27.6876,-3.7584 56.7309,-11.9631 78.7045,-22.234 63.4689,-29.6661 109.1591,-95.127 124.2057,-177.9511 8.4668,-46.6053 8.0426,-109.367 -1.0107,-149.5234 -10.852,-48.1351 -32.5748,-81.7054 -73.0616,-112.90972 -34.929,-26.92071 -80.4034,-41.54421 -147.2,-47.33611 -20.9592,-1.8173 -92.2943,-2.1122 -117.8849,-0.4873 -46.1211,2.9286 -104.8342,10.7694 -159.4463,21.293 -6.1589,1.1868 -11.7989,2.1579 -12.5334,2.1579 -1.0665,0 -1.3354,-63.9101 -1.3354,-317.3334 v -317.3333 h 329.6 329.6 v 73.0667 73.0666 h -260.2667 -260.2667 v 165.0899 165.0899 l 15.2,-0.2244 c 8.36,-0.1234 26.72,-1.2496 40.8,-2.5028 84.4694,-7.5179 174.7781,-0.9185 234.6865,17.1498 69.3963,20.9299 135.89,68.1678 176.3267,125.2643 33.8234,47.75881 50.3705,94.67313 58.5028,165.86663 1.5138,13.2528 1.886,25.3169 1.8755,60.8 -0.013,42.1887 -0.1525,45.3433 -2.9846,67.2 -9.1482,70.6008 -32.3816,134.1099 -69.2327,189.2486 -59.8918,89.6136 -155.558,146.6806 -272.8121,162.7385 -21.0839,2.8875 -27.6776,3.3299 -54.8954,3.6841 -17.0133,0.2214 -32.8533,0.2069 -35.2,-0.032 z"
     id="path1999"
     inkscape:connector-curvature="0" />
</svg>
