<?xml version="1.0" encoding="UTF-8" standalone="no"?>
<!-- Created with Inkscape (http://www.inkscape.org/) -->

<svg
   xmlns:dc="http://purl.org/dc/elements/1.1/"
   xmlns:cc="http://creativecommons.org/ns#"
   xmlns:rdf="http://www.w3.org/1999/02/22-rdf-syntax-ns#"
   xmlns:svg="http://www.w3.org/2000/svg"
   xmlns="http://www.w3.org/2000/svg"
   xmlns:sodipodi="http://sodipodi.sourceforge.net/DTD/sodipodi-0.dtd"
   xmlns:inkscape="http://www.inkscape.org/namespaces/inkscape"
   version="1.1"
   id="svg846"
   width="1920"
   height="1920"
   viewBox="0 0 1920 1920"
   sodipodi:docname="e4.svg"
   inkscape:version="0.92.4 (5da689c313, 2019-01-14)">
  <metadata
     id="metadata852">
    <rdf:RDF>
      <cc:Work
         rdf:about="">
        <dc:format>image/svg+xml</dc:format>
        <dc:type
           rdf:resource="http://purl.org/dc/dcmitype/StillImage" />
        <dc:title />
      </cc:Work>
    </rdf:RDF>
  </metadata>
  <defs
     id="defs850" />
  <sodipodi:namedview
     pagecolor="#ffffff"
     bordercolor="#666666"
     borderopacity="1"
     objecttolerance="10"
     gridtolerance="10"
     guidetolerance="10"
     inkscape:pageopacity="0"
     inkscape:pageshadow="2"
     inkscape:window-width="1920"
     inkscape:window-height="1017"
     id="namedview848"
     showgrid="false"
     inkscape:zoom="0.20918576"
     inkscape:cx="-2151.3864"
     inkscape:cy="619.42078"
     inkscape:window-x="-8"
     inkscape:window-y="-8"
     inkscape:window-maximized="1"
     inkscape:current-layer="svg846" />
  <path
     style="fill:#ffffff;fill-opacity:1;stroke-width:1.06666672"
     d="m 497.34572,1607.4143 c -24.1045,-1.2713 -59.4636,-5.9539 -84.9811,-11.254 -95.6481,-19.8666 -172.673,-63.0143 -230.3676,-129.0469 -26.5277,-30.3615 -51.591,-70.5422 -66.1696,-106.081 -13.5319,-32.9875 -24.479099,-80.4145 -30.418999,-131.7857 -3.2733,-28.3091 -3.3312,-29.6818 -3.3972,-80.5333 -0.064,-49.6469 0.053,-52.8303 2.9083,-78.9334 13.7317,-125.53182 56.343599,-223.96512 129.221899,-298.50192 51.808,-52.9871 113.6384,-88.7464 183.7165,-106.2517 33.9611,-8.4833 42.4602,-9.371 90.9545,-9.4999 37.8125,-0.1005 44.1023,0.1354 61.3333,2.3009 81.8038,10.2804 144.6169,37.6502 192.4972,83.8776 34.9954,33.7873 62.7344,75.8765 81.9474,124.3417 10.5295,26.5606 15.5166,42.9773 21.0236,69.2053 9.3412,44.4893 12.2251,80.36932 12.2487,152.39472 l 0.016,50.4 h -319.7411 -319.741 l 0.3818,4.8 c 0.3707,4.6611 0.2933,4.8 -2.6751,4.8 h -3.0568 l 0.2322,9.8667 c 1.0501,44.6308 3.2526,69.1221 8.7682,97.5032 15.5035,79.7745 49.994,137.6108 108.3947,181.7647 40.3083,30.4752 85.3357,48.1742 141.3037,55.5426 21.2743,2.8009 70.2224,3.9051 90.856,2.0496 16.8117,-1.5118 58.8341,-7.5987 73.944,-10.7107 17.2963,-3.5622 42.4741,-10.3782 59.3525,-16.0675 40.5337,-13.6628 91.0302,-38.4674 129.0312,-63.3816 l 15.3497,-10.0637 0.2745,68.9539 c 0.151,37.9246 -0.089,69.3032 -0.5334,69.7304 -1.0656,1.0246 -43.6631,18.0192 -73.8745,29.4729 -57.728,21.8858 -120.436,37.9026 -170.6666,43.5917 -16.6278,1.8832 -74.2802,2.7735 -98.1334,1.5154 z m 213.3334,-567.5009 c 0,-0.5867 1.8496,-1.0667 4.1102,-1.0667 2.2606,0 7.131,-0.3157 10.823,-0.7016 l 6.7129,-0.7017 -0.7064,-15.565 c -1.7947,-39.54772 -8.0596,-74.92212 -18.7193,-105.69842 -11.0831,-31.9986 -15.7678,-43.3403 -24.0118,-58.1333 -30.3914,-54.5345 -78.6673,-85.4986 -148.342,-95.1466 -20.0819,-2.7807 -84.4748,-2.7788 -104.5333,0 -51.7978,7.1839 -93.9068,27.1505 -133.0104,63.0686 -34.8225,31.9856 -65.2409,84.2455 -78.5831,135.0081 -5.8686,22.3282 -10.8065,53.62542 -10.8065,68.49302 0,7.0122 0.084,7.2406 2.6667,7.2406 1.9555,0 2.6666,0.5688 2.6666,2.1333 0,2.1272 0.7111,2.1333 245.8667,2.1333 163.2,0 245.8667,-0.3586 245.8667,-1.0666 z m 787.19998,344 v -203.2 h -3.7334 -3.7333 v -10.1334 -10.1333 h -270.4 -270.39994 v -76.7618 -76.7617 l 276.53324,-318.42342 276.5334,-318.4233 64.2666,-0.015 64.2667,-0.015 v 338.1333 338.13342 h 2.6667 c 1.9555,0 2.6666,0.5688 2.6666,2.1333 0,2.1119 0.7112,2.1333 70.9334,2.1333 h 70.9334 v 54.9334 54.9333 h -70.9334 -70.9334 v 4.8 c 0,4.4089 -0.2172,4.8 -2.6666,4.8 h -2.6667 v 208.5334 208.5333 h -66.6667 -66.6666 z m -21.3334,-334.4 c 0,-0.5867 1.8496,-1.0667 4.1102,-1.0667 2.2606,0 7.0606,-0.3084 10.6667,-0.6853 l 6.5565,-0.6853 -0.045,-241.18142 -0.045,-241.1814 -3.657,4.1408 -3.657,4.1408 -0.2986,-14.1382 -0.2986,-14.1382 -6.6195,7.6188 -6.6195,7.6187 -0.3138,-7.6435 -0.3138,-7.6435 -207.8686,240.9104 c -114.327,132.5008 -207.2851,241.10472 -206.5729,241.34212 0.8037,0.2679 0.037,1.73 -2.0226,3.8545 -1.8247,1.8826 -3.519,4.4687 -3.7652,5.7468 -0.3646,1.8933 0.053,2.3239 2.2527,2.3239 h 2.7003 l -2.927,3.4667 -2.9271,3.4666 3.9019,0.3313 c 3.4944,0.2966 3.7862,0.5472 2.7946,2.4 -1.0938,2.0439 1.3877,2.0687 206.9304,2.0687 137.9806,0 208.0375,-0.3592 208.0375,-1.0666 z"
     id="path2001"
     inkscape:connector-curvature="0" />
</svg>
