<?xml version="1.0" encoding="UTF-8" standalone="no"?>
<svg
   xmlns:dc="http://purl.org/dc/elements/1.1/"
   xmlns:cc="http://creativecommons.org/ns#"
   xmlns:rdf="http://www.w3.org/1999/02/22-rdf-syntax-ns#"
   xmlns:svg="http://www.w3.org/2000/svg"
   xmlns="http://www.w3.org/2000/svg"
   xmlns:sodipodi="http://sodipodi.sourceforge.net/DTD/sodipodi-0.dtd"
   xmlns:inkscape="http://www.inkscape.org/namespaces/inkscape"
   sodipodi:docname="black_duke.svg"
   inkscape:version="1.0 (4035a4fb49, 2020-05-01)"
   version="1.1"
   id="svg69184"
   height="75"
   width="75">
  <defs
     id="defs69186">
    <inkscape:perspective
       id="perspective69192"
       inkscape:persp3d-origin="372.04724 : 226.48928 : 1"
       inkscape:vp_z="744.09448 : 401.88298 : 1"
       inkscape:vp_y="0 : 1000 : 0"
       inkscape:vp_x="0 : 401.88298 : 1"
       sodipodi:type="inkscape:persp3d" />
    <inkscape:perspective
       sodipodi:type="inkscape:persp3d"
       inkscape:vp_x="0 : -123.79811 : 1"
       inkscape:vp_y="0 : 1000 : 0"
       inkscape:vp_z="1 : -123.79811 : 1"
       inkscape:persp3d-origin="0.5 : -123.96478 : 1"
       id="perspective68910" />
    <inkscape:perspective
       id="perspective68062"
       inkscape:persp3d-origin="0.5 : -123.96478 : 1"
       inkscape:vp_z="1 : -123.79811 : 1"
       inkscape:vp_y="0 : 1000 : 0"
       inkscape:vp_x="0 : -123.79811 : 1"
       sodipodi:type="inkscape:persp3d" />
    <inkscape:perspective
       sodipodi:type="inkscape:persp3d"
       inkscape:vp_x="0 : 401.88298 : 1"
       inkscape:vp_y="0 : 1000 : 0"
       inkscape:vp_z="744.09448 : 401.88298 : 1"
       inkscape:persp3d-origin="372.04724 : 226.48928 : 1"
       id="perspective68340" />
  </defs>
  <sodipodi:namedview
     inkscape:document-rotation="0"
     inkscape:snap-global="false"
     inkscape:guide-bbox="true"
     showguides="true"
     inkscape:window-maximized="1"
     inkscape:window-y="-9"
     inkscape:window-x="-9"
     inkscape:window-height="1001"
     inkscape:window-width="1920"
     showgrid="false"
     inkscape:current-layer="layer1"
     inkscape:document-units="px"
     inkscape:cy="46.479099"
     inkscape:cx="73.2188"
     inkscape:zoom="4.3452495"
     inkscape:pageshadow="2"
     inkscape:pageopacity="0.0"
     borderopacity="1.0"
     bordercolor="#666666"
     pagecolor="#ffffff"
     id="base" />
  <metadata
     id="metadata69189">
    <rdf:RDF>
      <cc:Work
         rdf:about="">
        <dc:format>image/svg+xml</dc:format>
        <dc:type
           rdf:resource="http://purl.org/dc/dcmitype/StillImage" />
        <dc:title></dc:title>
      </cc:Work>
    </rdf:RDF>
  </metadata>
  <g
     transform="translate(-344.70021,-115.57027)"
     id="layer1"
     inkscape:groupmode="layer"
     inkscape:label="Layer 1">
    <rect
       ry="0.325353"
       y="-359.48886"
       x="-299.71454"
       height="893.06775"
       width="1347.4127"
       id="rect10390"
       style="opacity:0;fill:#ff0000;fill-opacity:1;stroke:#666666;stroke-width:0.377953;stroke-linejoin:round;stroke-miterlimit:4;stroke-dasharray:none;stroke-dashoffset:0;stroke-opacity:1" />
    <rect
       ry="0.325353"
       y="-265.75583"
       x="-356.99585"
       height="416.59137"
       width="725.12933"
       id="rect10392"
       style="opacity:0;fill:#ff0000;fill-opacity:1;stroke:#666666;stroke-width:0.377953;stroke-linejoin:round;stroke-miterlimit:4;stroke-dasharray:none;stroke-dashoffset:0;stroke-opacity:1" />
    <rect
       ry="0.325353"
       y="-69.176788"
       x="32.256699"
       height="224.56879"
       width="302.02875"
       id="rect10394"
       style="opacity:0;fill:#000000;fill-opacity:1;stroke:#666666;stroke-width:0.377953;stroke-linejoin:round;stroke-miterlimit:4;stroke-dasharray:none;stroke-dashoffset:0;stroke-opacity:1" />
    <path
       inkscape:connector-curvature="0"
       id="path4978"
       d="m 407.24807,178.33829 c -0.52499,-0.56484 -0.7901,-1.64673 -0.94851,-3.87076 -0.1031,-1.44775 -0.15015,-1.72582 -0.32534,-1.92325 -0.3166,-0.35675 -0.63792,-0.29972 -0.86694,0.15386 -0.24262,0.48045 -0.56902,0.78608 -0.7603,0.71186 -0.23326,-0.0905 -0.58095,-1.17523 -0.68022,-2.12225 -0.0663,-0.6318 -0.0466,-1.38742 0.0713,-2.74417 0.18161,-2.08908 0.16386,-2.17935 -0.42852,-2.17935 -0.25015,0 -0.36928,0.0606 -0.45382,0.23079 -0.2421,0.48746 -0.95384,1.47884 -1.19216,1.66054 -0.38634,0.29456 -0.71715,0.11901 -1.0627,-0.56395 -0.23303,-0.46054 -0.32609,-0.87414 -0.49542,-2.20181 -0.19689,-1.54386 -0.1997,-1.69191 -0.0508,-2.66243 0.18564,-1.20973 0.45321,-1.92823 1.03209,-2.77142 0.23239,-0.33849 0.6469,-1.04109 0.92115,-1.56136 0.56774,-1.07704 0.55239,-1.28693 -0.0984,-1.34272 -0.29735,-0.0255 -0.47382,0.0424 -0.86593,0.33336 -0.50821,0.37707 -0.82046,0.46516 -0.82046,0.23145 0,-0.16705 0.37595,-1.34456 0.56866,-1.78113 0.22971,-0.52033 0.27658,-0.90454 0.12509,-1.02524 -0.27873,-0.22207 -0.7459,-0.22897 -1.20535,-0.0178 -1.23755,0.56885 -2.14702,0.64544 -2.92613,0.24639 -0.49948,-0.25582 -1.57758,-1.34107 -1.4841,-1.49394 0.0285,-0.0467 0.0157,-0.10039 -0.0284,-0.11933 -0.18269,-0.0781 -0.51737,-0.6841 -0.58744,-1.06361 -0.0414,-0.22375 -0.22336,-0.85227 -0.40453,-1.39671 l -0.32941,-0.98988 0.35151,-0.34357 c 0.5057,-0.49426 0.9158,-1.4398 1.10494,-2.54751 0.19377,-1.13491 0.10392,-1.89454 -0.30816,-2.60525 l -0.26309,-0.45372 0.53675,-0.30778 c 0.99926,-0.57298 2.22259,-1.01519 2.6425,-0.95522 0.0977,0.014 0.17758,-0.0122 0.17756,-0.058 -8e-5,-0.17781 2.55113,-0.014 2.79333,0.17939 0.0572,0.0456 0.22342,0.0992 0.36934,0.11895 0.14593,0.0198 0.33166,0.0916 0.41273,0.15957 0.0811,0.0681 0.17748,0.0932 0.21419,0.0561 0.0367,-0.0371 0.0668,-0.0137 0.0668,0.0522 0,0.0658 0.0747,0.11968 0.16597,0.11968 0.0913,0 0.27394,0.11776 0.40593,0.26171 0.13198,0.14395 0.23996,0.21278 0.23996,0.15298 0,-0.0599 0.14378,0.0302 0.3195,0.19985 0.17573,0.16975 0.36929,0.30862 0.43014,0.30862 0.1149,0 0.97557,0.9132 0.97557,1.03511 0,0.038 0.0913,0.0933 0.2027,0.12284 0.11147,0.0294 0.23706,0.14614 0.27908,0.25927 0.042,0.11313 0.24948,0.39443 0.46103,0.62513 0.21155,0.23068 0.34855,0.42088 0.30444,0.42267 -0.0441,0.002 0,0.0646 0.0974,0.1395 0.20875,0.16018 0.68504,0.84856 0.68504,0.9901 0,0.0538 0.0456,0.098 0.10148,0.098 0.0558,0 0.10149,0.0605 0.10149,0.13453 0,0.074 0.0834,0.22499 0.18532,0.33557 0.10193,0.11058 0.16662,0.25773 0.14378,0.32701 -0.0228,0.0693 0.0305,0.15389 0.11854,0.18804 0.088,0.0341 0.13482,0.1034 0.10395,0.1539 -0.0309,0.0505 -0.0189,0.0918 0.0266,0.0918 0.0455,0 0.14616,0.15002 0.22373,0.33338 0.0775,0.18334 0.1978,0.4026 0.26719,0.48722 0.0694,0.0847 0.15779,0.30428 0.19644,0.48811 0.0387,0.18385 0.10464,0.31282 0.14661,0.2866 0.0764,-0.0477 0.10027,0.0371 0.13973,0.49766 0.0117,0.13565 0.0523,0.22722 0.0903,0.20348 0.0878,-0.0549 0.18412,0.10166 0.23872,0.38819 0.0235,0.12299 0.0952,0.25648 0.15947,0.29663 0.0642,0.0401 0.0854,0.12432 0.0471,0.18705 -0.0383,0.0627 -0.0213,0.11405 0.0377,0.11405 0.0591,0 0.10746,0.13847 0.10746,0.30771 0,0.16924 0.0443,0.30772 0.0983,0.30772 0.0541,0 0.072,0.0692 0.0398,0.15386 -0.0322,0.0847 -0.008,0.15386 0.0539,0.15386 0.0618,0 0.10693,0.0346 0.10033,0.0769 -0.006,0.0424 -0.003,0.10001 0.008,0.12823 0.0112,0.0281 0.0422,0.18975 0.069,0.359 0.0268,0.16924 0.0848,0.32086 0.12912,0.33694 0.0443,0.0161 0.0591,0.143 0.0327,0.28208 -0.0263,0.13907 -0.003,0.25286 0.0524,0.25286 0.0551,0 0.13052,0.23078 0.16754,0.51286 0.0371,0.28208 0.11141,0.51286 0.1653,0.51286 0.0539,0 0.0901,0.0346 0.0805,0.0769 -0.0392,0.17262 0.25335,1.35911 0.33513,1.35911 0.0485,0 0.0883,0.17144 0.0883,0.38099 0,0.33973 0.0166,0.36422 0.15321,0.22615 0.11353,-0.11476 0.15547,-0.4059 0.16204,-1.12464 0.0197,-2.14988 -0.67054,-4.87788 -1.88186,-7.43811 -1.00779,-2.13007 -2.07737,-3.62664 -3.77314,-5.27941 -1.53006,-1.49127 -2.7178,-2.2173 -4.38246,-2.67891 -1.13511,-0.31476 -2.67927,-0.23956 -3.89901,0.18986 -0.97892,0.34465 -2.22091,1.02303 -2.72503,1.48843 -0.3235,0.29864 -0.33149,0.3002 -0.74326,0.14641 -0.22892,-0.0856 -0.89575,-0.23027 -1.4818,-0.32168 -0.58607,-0.0915 -1.09869,-0.19937 -1.13918,-0.2399 -0.0701,-0.0703 0.45095,-0.9347 0.95411,-1.58272 0.38748,-0.49904 1.30138,-1.39358 1.30138,-1.27382 0,0.0908 0.92501,-0.52603 1.03864,-0.69268 0.0456,-0.0669 0.0758,-0.0695 0.0776,-0.007 0.002,0.0564 0.0375,0.0479 0.0796,-0.019 0.0421,-0.0669 0.20456,-0.13888 0.36112,-0.16007 0.15657,-0.0212 0.32627,-0.10498 0.37711,-0.18618 0.0508,-0.0813 0.0931,-0.10739 0.0939,-0.0582 7.9e-4,0.0492 0.0599,0.0407 0.13094,-0.019 0.0711,-0.0598 0.36802,-0.14052 0.65964,-0.17963 0.29165,-0.0391 0.53025,-0.11403 0.53025,-0.16651 0,-0.0524 0.0389,-0.0711 0.0865,-0.0412 0.0476,0.0298 0.3787,0.006 0.73576,-0.0529 0.65039,-0.1072 1.67652,-0.21275 1.86697,-0.19205 0.0558,0.006 0.61377,0.0288 1.23988,0.0503 0.62614,0.0216 1.22791,0.0878 1.3373,0.1469 0.10939,0.0592 0.27129,0.0796 0.35976,0.0451 0.0885,-0.0342 0.2282,-0.006 0.3105,0.0632 0.0823,0.0691 0.21873,0.0987 0.30317,0.0659 0.0845,-0.0326 0.1535,-0.0149 0.1535,0.0398 0,0.0547 0.13432,0.0993 0.29847,0.0993 0.16414,0 0.32714,0.0469 0.3622,0.10425 0.035,0.0573 0.10626,0.0777 0.15822,0.0451 0.052,-0.0326 0.0944,-0.0101 0.0944,0.0496 0,0.0597 0.0687,0.10861 0.15259,0.10861 0.084,0 0.32301,0.0923 0.53129,0.20515 0.20828,0.11284 0.46689,0.20515 0.5747,0.20515 0.1078,0 0.16577,0.0305 0.1288,0.068 -0.0602,0.061 0.65669,0.4432 0.81038,0.432 0.0347,-0.003 0.0909,0.0348 0.125,0.0831 0.0342,0.0482 0.49592,0.38217 1.02616,0.74212 0.53026,0.35996 1.00061,0.7168 1.04525,0.79297 0.0446,0.0762 0.13273,0.13851 0.19576,0.13851 0.063,0 0.26102,0.16155 0.43995,0.35902 0.17894,0.19745 0.31563,0.35901 0.30378,0.35901 -0.0119,0 0.27882,0.31156 0.64595,0.69236 0.67836,0.70365 1.34747,1.47118 1.36366,1.56425 0.01,0.0554 0.24086,0.35031 0.44553,0.56827 0.0697,0.0743 0.12684,0.20533 0.12684,0.29118 0,0.0859 0.0571,0.193 0.12686,0.23812 0.14348,0.0927 0.33277,0.37912 0.48209,0.72928 0.0555,0.13034 0.14794,0.20768 0.20524,0.17188 0.0573,-0.0358 0.0957,-0.0271 0.0853,0.0195 -0.0337,0.15071 0.20875,0.64871 0.31581,0.64871 0.0572,0 0.10398,0.0692 0.10398,0.15386 0,0.0847 0.0484,0.15386 0.10749,0.15386 0.0592,0 0.0795,0.0457 0.0452,0.10171 -0.0343,0.056 0.0495,0.21471 0.18624,0.35279 0.13661,0.13809 0.22389,0.27584 0.19396,0.30611 -0.0299,0.0303 -0.003,0.11808 0.0605,0.19515 0.0633,0.0771 0.0812,0.17435 0.0398,0.21618 -0.0414,0.0418 -0.0227,0.0607 0.0414,0.0419 0.0641,-0.0189 0.11738,0.007 0.11819,0.0569 7.9e-4,0.0501 0.0433,0.11935 0.0944,0.15386 0.12406,0.0838 0.69004,1.66906 0.65413,1.83215 -0.0155,0.0706 0.0194,0.12822 0.0777,0.12822 0.0582,0 0.0974,0.0346 0.087,0.077 -0.0414,0.16799 0.14438,1.15395 0.21735,1.15395 0.0429,0 0.0571,0.10998 0.0317,0.24441 -0.0254,0.13443 0.004,0.27562 0.0648,0.31377 0.061,0.0381 0.11104,0.24856 0.11104,0.46755 0,0.21901 0.0483,0.42839 0.10742,0.4653 0.0621,0.0387 0.0798,0.19456 0.0418,0.36926 -0.0386,0.17782 -0.0166,0.36189 0.0535,0.44732 0.0656,0.0799 0.0924,0.18914 0.0595,0.24286 -0.0328,0.0537 -0.0117,0.44646 0.0469,0.87269 0.14361,1.04361 0.18425,3.50435 0.0756,4.57758 -0.094,0.92918 -0.17114,1.85291 -0.23106,2.76948 -0.0204,0.31029 -0.0451,0.56415 -0.0552,0.56415 -0.0101,0 -0.0777,0.34619 -0.15052,0.7693 -0.0727,0.42313 -0.19927,1.0578 -0.28119,1.41039 -0.082,0.3526 -0.1262,0.6411 -0.0984,0.6411 0.0279,0 -0.003,0.0644 -0.0669,0.14306 -0.0647,0.0787 -0.10851,0.18253 -0.0975,0.23078 0.011,0.0483 -0.0312,0.2129 -0.0939,0.36588 -0.0626,0.15296 -0.13477,0.40684 -0.16028,0.56415 -0.0255,0.1573 -0.0559,0.29755 -0.0675,0.31166 -0.0116,0.0141 -0.0305,0.0603 -0.042,0.10257 -0.0116,0.0424 -0.0581,0.21541 -0.10343,0.38465 -0.40721,1.5195 -2.89208,6.5009 -4.0166,8.05202 -0.30675,0.42311 -0.67914,0.95988 -0.82755,1.19282 -0.28616,0.44919 -0.9604,0.85865 -1.41386,0.85865 -0.1401,0 -0.35183,-0.10448 -0.47052,-0.23218 z m 0.18043,-37.20716 c 0,-0.0564 -0.0202,-0.10257 -0.0446,-0.10257 -0.0246,0 -0.073,0.0462 -0.10747,0.10257 -0.0345,0.0564 -0.0143,0.10257 0.0447,0.10257 0.0591,0 0.10747,-0.0461 0.10747,-0.10257 z m -58.0988,20.60768 c -1.65428,-0.29095 -2.19017,-0.49547 -2.51575,-0.96018 -0.25794,-0.36814 -0.14022,-0.52979 1.01847,-1.39861 0.54442,-0.40824 1.2867,-1.0541 1.64951,-1.43525 l 0.65963,-0.69301 1.72521,-0.56808 c 2.53166,-0.83364 7.14401,-2.22688 9.58075,-2.89404 0.70283,-0.19242 1.68888,-0.46255 2.19123,-0.60028 8.80418,-2.41389 11.34115,-3.25434 14.69283,-4.86743 1.85277,-0.89168 1.8778,-1.10226 0.0552,-0.46464 -1.72277,0.60272 -2.08377,0.72093 -3.99088,1.30685 -4.89902,1.5051 -7.31784,2.17523 -14.3598,3.97831 -1.75818,0.45019 -3.37938,0.88375 -3.60263,0.96349 -0.22327,0.0797 -1.15945,0.38013 -2.0804,0.66755 -0.92095,0.28741 -2.25817,0.75117 -2.97158,1.03055 -0.71342,0.27939 -1.34135,0.50798 -1.39539,0.50798 -0.22004,0 -0.0679,-0.25187 0.48526,-0.80316 1.02183,-1.01844 1.86664,-1.38286 8.24546,-3.55677 4.13432,-1.40898 5.886,-2.14453 5.886,-2.47161 0,-0.20502 -0.12753,-0.18493 -1.31909,0.20778 -0.58617,0.19317 -1.54526,0.49767 -2.13131,0.67666 -7.59142,2.31857 -9.57279,3.11902 -11.09101,4.48067 l -0.38458,0.34492 -0.32147,-0.18291 c -0.54801,-0.31179 -1.63442,-1.486 -1.93103,-2.08707 -0.57389,-1.16299 -0.44295,-2.26825 0.36405,-3.07286 0.88724,-0.88463 1.58593,-1.32156 4.63653,-2.89947 1.08839,-0.56297 2.66391,-1.40214 3.50115,-1.86479 0.83722,-0.46267 2.02458,-1.10994 2.63853,-1.4384 0.61398,-0.32845 1.17924,-0.64763 1.25614,-0.7093 0.0769,-0.0616 0.35091,-0.18313 0.6089,-0.26994 0.28481,-0.0958 0.45747,-0.21157 0.43956,-0.29466 -0.0186,-0.0859 0.0285,-0.11428 0.12684,-0.0762 0.086,0.0333 0.15639,0.0172 0.15639,-0.0361 0,-0.0532 0.14202,-0.17096 0.3156,-0.26169 0.23409,-0.12235 0.29768,-0.12966 0.24618,-0.0283 -0.0382,0.0752 -0.006,0.0588 0.0715,-0.0364 0.0775,-0.0952 0.20543,-0.18755 0.28418,-0.20514 0.0787,-0.0177 0.20504,-0.09 0.28064,-0.16113 0.0756,-0.071 0.17943,-0.10292 0.23076,-0.0709 0.0513,0.0321 0.0933,0.0196 0.0933,-0.0275 0,-0.0473 0.63768,-0.40555 1.41704,-0.79622 0.77938,-0.39066 1.40119,-0.72631 1.38184,-0.74588 -0.0549,-0.0556 -2.78925,1.01429 -4.47334,1.75036 -1.62869,0.71184 -2.29639,1.01992 -4.35376,2.00882 -0.72011,0.34612 -1.32315,0.61529 -1.34012,0.59814 -0.0857,-0.0867 1.67915,-1.43587 6.35351,-4.85691 4.44576,-3.25373 6.60517,-4.65257 9.08271,-5.88361 2.59907,-1.29145 4.1204,-1.72306 6.40319,-1.81658 l 1.43055,-0.0586 0.0709,0.94924 c 0.039,0.52208 0.0505,0.96992 0.0254,0.9952 -0.025,0.0253 -0.23076,-0.0495 -0.4572,-0.16632 -0.32802,-0.16914 -0.6015,-0.21231 -1.34526,-0.21231 -0.9319,0 -0.93448,7.2e-4 -1.47132,0.41041 -1.04383,0.79656 -1.34448,1.78817 -0.81764,2.69681 0.48661,0.83926 1.79757,1.87793 3.34127,2.64726 0.37676,0.18777 0.685,0.39364 0.685,0.45749 0,0.0638 -0.0799,0.27318 -0.17759,0.4652 -0.2779,0.54629 -0.24258,1.8794 0.063,2.37921 l 0.23428,0.38315 -0.38969,0.16053 c -0.61774,0.2545 -1.82694,0.85701 -2.9115,1.45074 -1.59566,0.87351 -3.53415,1.84207 -3.95449,1.97581 -0.606,0.19282 -0.36609,0.23391 0.4022,0.0689 0.64863,-0.13932 3.325,-1.14106 5.66819,-2.12154 1.08798,-0.45525 2.3769,-0.82644 3.60263,-1.03752 1.23577,-0.21278 3.79254,-0.16645 5.2771,0.0956 0.6977,0.12318 1.55238,0.26672 1.8993,0.31896 0.34693,0.0522 0.67254,0.12107 0.72356,0.15296 0.0511,0.0318 0.58896,0.12835 1.1954,0.2144 1.15072,0.16327 2.83555,0.58593 3.29695,0.82711 0.36881,0.19275 0.69894,0.79534 0.69894,1.27569 0,0.77591 -0.47744,2.44412 -0.84377,2.94814 -0.0684,0.0941 -0.20696,0.0249 -0.53756,-0.26938 -0.82519,-0.73416 -2.37535,-1.41357 -3.64204,-1.59623 -0.3142,-0.0452 -0.46878,-0.0368 -0.40594,0.0222 0.0558,0.0524 0.76853,0.51828 1.58381,1.03515 0.97013,0.61502 1.68001,1.14923 2.05443,1.54598 0.88651,0.93939 0.97523,1.3606 0.42291,2.00746 l -0.35033,0.41029 -0.38755,-0.42882 c -0.96429,-1.067 -2.23218,-1.87989 -3.90392,-2.50291 -0.81532,-0.30385 -1.33649,-0.37513 -4.31686,-0.59045 l -0.93968,-0.0679 0.63524,-0.47396 c 1.02218,-0.76266 2.80414,-1.61974 3.40268,-1.6366 0.36149,-0.0102 0.96521,-0.23262 1.0114,-0.37264 0.046,-0.13961 -0.77507,-0.4251 -1.45492,-0.50587 -0.73998,-0.0879 -2.15497,0.13686 -3.33874,0.53035 -1.26191,0.41945 -2.18189,0.83141 -2.18189,0.97703 0,0.0609 0.0799,0.0871 0.1776,0.058 1.33185,-0.39565 2.32786,-0.62293 2.86687,-0.6542 l 0.65965,-0.0382 -0.91334,0.53238 c -0.50235,0.2928 -1.14169,0.68095 -1.42077,0.86253 -0.27907,0.18158 -0.6532,0.41813 -0.83141,0.52569 -0.1782,0.10755 -0.88604,0.55466 -1.57298,0.99358 -0.68694,0.43893 -1.33771,0.85436 -1.44618,0.92318 -0.10846,0.0688 -0.65645,0.43076 -1.2178,0.80434 -3.34056,2.22319 -9.50317,5.3416 -14.88254,7.53089 -5.78952,2.3562 -10.7523,3.53324 -13.13243,3.11465 z m 67.08805,-8.7329 c -0.29885,-1.54661 -0.55662,-2.53458 -0.91809,-3.51872 -0.89434,-2.43503 -2.58671,-5.00405 -4.91012,-7.45358 -2.23226,-2.35343 -4.17112,-3.67166 -6.62015,-4.50098 -0.84621,-0.28655 -1.07226,-0.3162 -3.05057,-0.40012 -1.17514,-0.0498 -2.15473,-0.10893 -2.17685,-0.1313 -0.0867,-0.0876 1.77867,-0.78384 2.50802,-0.93611 1.7,-0.35492 4.60456,-0.45421 5.95017,-0.20341 0.25234,0.047 0.32983,0.0254 0.32983,-0.0921 0,-0.26912 -1.35202,-0.73498 -2.76331,-0.95214 -2.82602,-0.43485 -6.43949,0.27787 -8.09533,1.59671 l -0.35519,0.2829 -0.83054,-0.79667 -0.83053,-0.79669 0.80517,-0.76891 c 0.44283,-0.42293 0.80668,-0.73999 0.80853,-0.70458 0.002,0.0353 0.0845,-0.0337 0.18368,-0.15373 0.0992,-0.11994 0.33739,-0.29975 0.5294,-0.39958 0.19201,-0.0998 0.50535,-0.31111 0.6963,-0.46951 0.19095,-0.15839 0.38535,-0.26414 0.43201,-0.235 0.0467,0.0292 0.11214,-0.0189 0.1455,-0.10678 0.0334,-0.0879 0.10354,-0.13297 0.15594,-0.10022 0.0524,0.0326 0.15971,0.006 0.23845,-0.0605 0.21457,-0.18001 0.88739,-0.51304 1.03648,-0.51304 0.0719,0 0.13076,-0.0489 0.13076,-0.10862 0,-0.0598 0.0434,-0.0815 0.0965,-0.0484 0.053,0.0332 0.31563,-0.044 0.58352,-0.17149 0.26787,-0.12745 0.56971,-0.21771 0.67072,-0.20057 0.101,0.0172 0.23799,-0.0132 0.30445,-0.0675 0.0664,-0.0543 0.40629,-0.13139 0.75524,-0.17144 0.34895,-0.04 0.66185,-0.11762 0.69534,-0.17239 0.0335,-0.0547 0.25034,-0.089 0.48186,-0.076 0.23153,0.0129 0.57511,-0.0118 0.76351,-0.0551 0.44812,-0.10301 4.06674,-0.13115 4.00556,-0.0312 -0.0259,0.0424 0.15843,0.0769 0.40961,0.0769 0.25116,0 0.48735,0.0501 0.52485,0.11152 0.0375,0.0613 0.15436,0.0887 0.25969,0.0609 0.10533,-0.0278 0.19151,-0.009 0.19151,0.0424 0,0.0511 0.1332,0.093 0.296,0.093 0.1628,0 0.31353,0.0532 0.33498,0.11821 0.0214,0.065 0.128,0.13004 0.23679,0.14448 0.33954,0.0451 0.65448,0.16792 0.65448,0.25523 0,0.0461 0.0879,0.11189 0.19529,0.14634 0.1074,0.0344 0.35858,0.17466 0.55815,0.31154 0.19958,0.1369 0.36287,0.22721 0.36287,0.20071 0,-0.0266 0.086,0.0326 0.19118,0.1313 0.10514,0.0987 0.42436,0.38722 0.70938,0.64109 0.28502,0.25386 0.51865,0.50233 0.51921,0.55212 7.8e-4,0.0498 0.0809,0.16584 0.17858,0.25788 0.18431,0.17366 0.38322,0.46314 0.50065,0.7286 0.0374,0.0847 0.10451,0.17895 0.14908,0.20963 0.0445,0.0307 0.0935,0.15971 0.10888,0.28673 0.0272,0.2244 -7.8e-4,0.2318 -0.98695,0.26015 -0.55816,0.0161 -1.21424,-0.0106 -1.45796,-0.0591 -0.76027,-0.15138 -1.09584,0.11684 -0.97316,0.77781 0.0542,0.29199 0.12786,0.3655 0.48638,0.48544 0.23236,0.0778 0.44534,0.14315 0.47324,0.14533 0.0279,0.003 0.1475,0.0584 0.26574,0.12498 0.11825,0.0665 0.24382,0.0918 0.27907,0.0561 0.0353,-0.0356 0.0641,-0.016 0.0641,0.0438 0,0.0598 0.11662,0.13813 0.25914,0.17429 0.62705,0.15906 2.53057,1.81854 2.84624,2.48135 0.0837,0.17572 0.24302,0.41805 0.35404,0.5385 0.11102,0.12045 0.17584,0.219 0.14404,0.219 -0.0318,0 0.11018,0.26541 0.31548,0.58979 0.20529,0.32439 0.36653,0.60134 0.3583,0.61545 -0.008,0.0141 -0.0112,0.0372 -0.006,0.0512 0.005,0.0141 0.0226,0.11797 0.0399,0.23079 0.0173,0.11284 0.0663,0.36244 0.1089,0.55467 0.0739,0.33342 0.0663,0.34633 -0.16677,0.27993 -0.13432,-0.0383 -0.68506,-0.0959 -1.22387,-0.12819 -0.94004,-0.0561 -0.98247,-0.0496 -1.04936,0.16343 -0.13045,0.41543 0.0299,0.71858 0.48459,0.91593 0.51518,0.22364 1.18754,0.9364 1.52393,1.61555 0.362,0.73084 0.75476,2.02951 0.88187,2.916 0.16495,1.15026 0.16559,3.6202 7.9e-4,4.33462 -0.13707,0.59535 -0.66278,1.61119 -0.86812,1.67742 -0.0617,0.02 -0.1849,-0.3681 -0.2908,-0.91616 z m -27.45908,-10.44894 c -0.73302,-0.14493 -0.73408,-0.14605 -0.51148,-0.54666 0.10945,-0.19695 0.27392,-0.61858 0.36549,-0.93696 0.13957,-0.48526 0.14667,-0.65593 0.0439,-1.05549 -0.0675,-0.26214 -0.14159,-0.5509 -0.16479,-0.6417 -0.0289,-0.11307 0.20626,-0.33861 0.7466,-0.71595 1.03478,-0.72267 2.17265,-1.87178 2.4286,-2.4526 0.1119,-0.25388 0.28004,-0.63714 0.37368,-0.85171 0.11368,-0.26043 0.21213,-0.36451 0.29618,-0.31307 0.6509,0.39823 1.82546,1.25336 2.13855,1.55695 0.35193,0.34123 0.74121,0.92326 0.65876,0.98491 -0.0181,0.0135 -0.32969,0.1316 -0.69248,0.26242 -2.22906,0.80366 -3.89954,2.28101 -4.96016,4.38668 -0.12077,0.23978 -0.23007,0.43088 -0.24289,0.42471 -0.0128,-0.006 -0.2288,-0.0518 -0.47997,-0.10153 z m -9.58188,-0.81026 c -0.14406,-0.32447 -0.26086,-0.6534 -0.25953,-0.73097 0.004,-0.22228 0.474,-1.32274 0.64526,-1.51019 0.0851,-0.0932 0.4445,-0.51564 0.79855,-0.93876 0.53531,-0.63974 0.77962,-0.8384 1.4508,-1.17959 0.78083,-0.39694 0.84013,-0.4103 1.82193,-0.4103 0.89909,0 1.07847,0.0317 1.57298,0.2784 0.75505,0.37662 1.26421,0.82128 1.59845,1.39598 0.25894,0.44521 0.27889,0.56072 0.27772,1.60798 -7.7e-4,0.68088 -0.0556,1.2853 -0.13839,1.5242 -0.13598,0.39256 -0.14069,0.3953 -0.55691,0.32545 -0.23086,-0.0387 -1.44726,-0.10634 -2.70311,-0.15022 -2.28835,-0.08 -2.45816,-0.0675 -3.87348,0.28519 l -0.37233,0.0927 z m -0.87082,-3.45706 c -0.4982,-0.28633 -2.28772,-1.47583 -2.54471,-1.69148 -0.51248,-0.43003 -0.62903,-1.46845 -0.22541,-2.00834 0.20572,-0.27519 0.22617,-0.27948 1.23267,-0.25852 l 1.02349,0.0214 0.63753,0.51058 c 0.35065,0.28084 0.88871,0.79825 1.19569,1.14981 0.857,0.98145 0.84276,0.95007 0.55522,1.2231 -0.22262,0.21138 -0.26735,0.22026 -0.42731,0.0848 -0.0983,-0.0833 -0.47548,-0.40573 -0.83828,-0.71666 -0.85514,-0.73287 -1.21863,-0.98265 -1.55381,-1.06768 -0.2056,-0.0522 -0.27288,-0.0312 -0.27288,0.0851 0,0.17306 1.23771,1.49288 1.90884,2.03547 l 0.43737,0.35359 -0.21638,0.27805 c -0.26146,0.33597 -0.32894,0.33604 -0.91203,7.9e-4 z m 9.57295,-0.1169 c -0.098,-0.15852 -0.0435,-0.29457 0.33881,-0.84623 0.81811,-1.18059 1.57639,-2.96525 1.2599,-2.96525 -0.11283,0 -0.98622,1.0046 -1.78357,2.05147 -0.32226,0.42312 -0.63009,0.75625 -0.68406,0.74028 -0.19369,-0.0573 -0.99136,-0.78628 -0.99136,-0.906 0,-0.20648 0.70249,-1.39688 1.12369,-1.90415 0.21919,-0.26399 0.39855,-0.52075 0.39855,-0.5706 0,-0.1153 0.46781,-0.54767 0.85869,-0.79363 0.47887,-0.30133 1.32008,-0.26746 1.90086,0.0766 0.8853,0.52439 1.19699,1.35814 0.85051,2.27513 -0.26247,0.69468 -0.66051,1.12842 -1.94597,2.12047 -0.64913,0.50096 -1.18679,0.91085 -1.19479,0.91085 -0.008,0 -0.0671,-0.085 -0.13126,-0.1889 z m -6.79791,-2.60818 c -0.84155,-1.94961 -1.14857,-3.51142 -0.97046,-4.93679 0.1398,-1.11865 0.30766,-1.56766 0.78637,-2.10321 0.55209,-0.61767 1.21938,-0.86248 2.48669,-0.9123 l 1.06909,-0.042 0.42113,0.43856 c 0.61738,0.64292 0.79033,1.43419 0.7027,3.21491 -0.056,1.13793 -0.49166,4.5409 -0.59141,4.61957 -0.0176,0.0139 -0.34185,-0.0236 -0.7205,-0.0833 -0.56593,-0.0893 -0.6957,-0.14575 -0.72924,-0.31769 -0.039,-0.19992 -0.17628,-2.08928 -0.31519,-4.33777 -0.0581,-0.93988 -0.0853,-1.05137 -0.25698,-1.05137 -0.1056,0 -0.19202,0.0591 -0.19202,0.13128 0,0.0722 -0.0709,0.70687 -0.1576,1.41038 -0.0907,0.73564 -0.14893,1.90315 -0.1372,2.74784 l 0.0203,1.46875 -0.53251,0.24936 c -0.29287,0.13715 -0.53938,0.2485 -0.54781,0.24742 -0.009,-8e-4 -0.15936,-0.33573 -0.33545,-0.74366 z m 5.32275,-2.5624 c 0.0236,-0.35259 0.0821,-0.68345 0.13007,-0.73522 0.11835,-0.1278 0.90557,0.11702 0.90557,0.28162 0,0.12137 -0.91117,1.0947 -1.0248,1.0947 -0.0295,0 -0.0345,-0.28849 -0.0109,-0.6411 z m 19.58793,-2.71133 c 0.0733,-0.0296 0.16079,-0.0261 0.19451,0.008 0.0337,0.034 -0.0262,0.0583 -0.1332,0.0539 -0.11823,-0.005 -0.14228,-0.0292 -0.0613,-0.062 z"
       style="fill:#000000;stroke-width:0.102026" />
  </g>
</svg>
