<?xml version="1.0" encoding="UTF-8" standalone="no"?>
<svg
   xmlns:dc="http://purl.org/dc/elements/1.1/"
   xmlns:cc="http://creativecommons.org/ns#"
   xmlns:rdf="http://www.w3.org/1999/02/22-rdf-syntax-ns#"
   xmlns:svg="http://www.w3.org/2000/svg"
   xmlns="http://www.w3.org/2000/svg"
   xmlns:sodipodi="http://sodipodi.sourceforge.net/DTD/sodipodi-0.dtd"
   xmlns:inkscape="http://www.inkscape.org/namespaces/inkscape"
   inkscape:version="1.0 (4035a4fb49, 2020-05-01)"
   sodipodi:docname="Create Piece.svg"
   id="svg3"
   version="1.1"
   viewBox="0 0 119.99999 80"
   height="80"
   width="120">
  <metadata
     id="metadata9">
    <rdf:RDF>
      <cc:Work
         rdf:about="">
        <dc:format>image/svg+xml</dc:format>
        <dc:type
           rdf:resource="http://purl.org/dc/dcmitype/StillImage" />
        <dc:title />
      </cc:Work>
    </rdf:RDF>
  </metadata>
  <defs
     id="defs7" />
  <sodipodi:namedview
     inkscape:current-layer="svg3"
     inkscape:window-maximized="1"
     inkscape:window-y="-9"
     inkscape:window-x="69"
     inkscape:cy="-128.15282"
     inkscape:cx="23.432893"
     inkscape:zoom="0.88058055"
     showgrid="false"
     id="namedview5"
     inkscape:window-height="1051"
     inkscape:window-width="1842"
     inkscape:pageshadow="2"
     inkscape:pageopacity="0"
     guidetolerance="10"
     gridtolerance="10"
     objecttolerance="10"
     borderopacity="1"
     bordercolor="#666666"
     pagecolor="#ffffff"
     inkscape:document-rotation="0" />
  <path
     style="fill:#ffffff;fill-opacity:1"
     d="m 36.847561,12.306273 a 17.012,17.012 0 0 1 0.2,2.623 q 0,0.266 -0.017,0.714 a 1.834,1.834 0 0 1 -0.349,0.05 1.7,1.7 0 0 1 -0.282,-0.033 5.825,5.825 0 0 0 -2.274,-2.988 6.907,6.907 0 0 0 -3.902,-1.046 6.622,6.622 0 0 0 -2.075,0.282 8.664,8.664 0 0 0 -2.623,1.418 8.5,8.5 0 0 0 -1.909,2.158 10.785,10.785 0 0 0 -1.237,3.042 14.645,14.645 0 0 0 -0.457,3.644 13.916,13.916 0 0 0 1.079,5.866 6.808,6.808 0 0 0 2.955,3.3 8.051,8.051 0 0 0 3.786,0.99 l 0.78,-0.017 a 12.413,12.413 0 0 0 1.81,-0.315 8.454,8.454 0 0 0 2,-0.822 6.6,6.6 0 0 0 1.544,-1.335 8.383,8.383 0 0 0 1.29,-2.011 l 0.2,-0.066 a 0.565,0.565 0 0 1 0.249,0.1 q -0.017,0.4 -0.033,0.515 -0.7,2.806 -1.013,3.835 -0.266,0.066 -0.664,0.2 a 16.514,16.514 0 0 1 -5.2,0.664 15.992,15.992 0 0 1 -3.927,-0.357 16.221,16.221 0 0 1 -2.839,-1.112 9.234,9.234 0 0 1 -2.7,-2 9.377,9.377 0 0 1 -1.873,-3.146 11.691,11.691 0 0 1 -0.714,-4.142 11.06,11.06 0 0 1 0.564,-3.71 12.881,12.881 0 0 1 1.743,-3.212 11.028,11.028 0 0 1 2.781,-2.706 10.508,10.508 0 0 1 3.561,-1.527 19.5,19.5 0 0 1 3.9,-0.3 11.978,11.978 0 0 1 3.47,0.49 6.617,6.617 0 0 1 2.176,0.954 z m 2.607,20.37 -0.066,-0.216 a 0.761,0.761 0 0 1 0.149,-0.349 l 0.979,-0.2 1.378,-0.249 a 0.475,0.475 0 0 0 0.232,-0.232 4.46,4.46 0 0 0 0.1,-1.276 q 0,-5.635 -0.066,-6.505 a 1.914,1.914 0 0 0 -0.3,-1.1 2.4,2.4 0 0 0 -1.2,-0.365 4.1,4.1 0 0 1 -0.9,-0.216 l 0.066,-0.506 a 9.428,9.428 0 0 0 2.35,-1.236 6.214,6.214 0 0 0 1.411,-1.964 l 0.564,0.017 q 0.1,0.83 0.1,3.686 l -0.017,0.282 a 2.33,2.33 0 0 0 0.033,0.315 9.621,9.621 0 0 1 1.577,-2.108 l 0.382,-0.382 a 2.517,2.517 0 0 1 0.448,-0.415 3.962,3.962 0 0 1 1.727,-0.7 1.575,1.575 0 0 1 1.2,0.49 1.682,1.682 0 0 1 0.465,1.2 1.155,1.155 0 0 1 -0.332,0.88 1.471,1.471 0 0 1 -1.029,0.415 3.966,3.966 0 0 1 -1.046,-0.282 4.017,4.017 0 0 0 -1.029,-0.282 1.049,1.049 0 0 0 -0.647,0.149 5.637,5.637 0 0 0 -1.134,1.499 3.053,3.053 0 0 0 -0.515,1.561 l 0.083,2.745 0.034,3.294 a 2.5,2.5 0 0 0 0.133,0.732 1.008,1.008 0 0 0 0.332,0.283 q 1.793,0.15 2.125,0.216 0.232,0.017 0.349,0.033 a 2.036,2.036 0 0 1 1,0.2 0.268,0.268 0 0 1 0.149,0.249 0.487,0.487 0 0 1 -0.133,0.266 l -1.847,-0.029 -0.7,-0.017 -1.013,0.017 h -1.69 l -0.913,0.05 z m 23.806,-8.816 -6.657,0.049 h -1.262 q -0.764,0 -1.561,0.069 a 2.927,2.927 0 0 0 -0.149,0.681 l 0.017,0.166 v 0.166 l -0.017,0.813 a 6.477,6.477 0 0 0 0.635,2.481 4.933,4.933 0 0 0 1.831,2.241 5.628,5.628 0 0 0 2.963,0.822 6.11,6.11 0 0 0 1.506,-0.233 7.647,7.647 0 0 0 1.6,-0.846 l 1.2,-0.979 0.1,0.664 a 2.014,2.014 0 0 1 -0.017,0.249 7.293,7.293 0 0 1 -1.899,1.659 9.016,9.016 0 0 1 -2.324,1.046 8.106,8.106 0 0 1 -1.86,0.15 5.95,5.95 0 0 1 -2.324,-0.482 5.659,5.659 0 0 1 -2.664,-2.35 7.5,7.5 0 0 1 -0.971,-3.926 8.421,8.421 0 0 1 0.274,-1.874 9.864,9.864 0 0 1 0.985,-2.442 4.782,4.782 0 0 1 1.179,-1.444 7.8,7.8 0 0 1 1.745,-1.114 6.5,6.5 0 0 1 2.507,-0.448 5.011,5.011 0 0 1 2.523,0.564 5,5 0 0 1 1.984,1.926 4.507,4.507 0 0 1 0.656,2.158 z m -9.264,-0.6 h 0.78 q 0.847,0 5.047,-0.266 a 2.1,2.1 0 0 0 0.813,-0.133 0.885,0.885 0 0 0 0.3,-0.564 2.647,2.647 0 0 0 -0.332,-1.171 2.288,2.288 0 0 0 -1.021,-1.009 3.435,3.435 0 0 0 -1.6,-0.357 3.764,3.764 0 0 0 -3.088,1.444 3.339,3.339 0 0 0 -0.898,2.059 z m 23.77,7.108 a 0.879,0.879 0 0 1 0.1,0.315 2.14,2.14 0 0 1 -0.4,0.88 3.574,3.574 0 0 1 -1.14,1.212 2.06,2.06 0 0 1 -1.1,0.249 2.181,2.181 0 0 1 -1.793,-0.73 3.11,3.11 0 0 1 -0.515,-1.544 l -1.852,1.295 a 7.641,7.641 0 0 1 -1.5,0.714 8,8 0 0 1 -1.989,0.216 1.773,1.773 0 0 1 -1.337,-0.507 1.8,1.8 0 0 1 -0.49,-1.3 4.54,4.54 0 0 1 1.407,-2.742 10.306,10.306 0 0 1 3.819,-2.606 q 1.7,-0.714 2.08,-0.913 0.033,-0.548 0.033,-1.2 a 4.874,4.874 0 0 0 -0.591,-2.855 2.029,2.029 0 0 0 -1.69,-0.747 3.166,3.166 0 0 0 -2.148,0.9 3.964,3.964 0 0 0 -0.934,2.121 3.518,3.518 0 0 1 -0.382,0.93 2.324,2.324 0 0 1 -1.145,0.47 1.108,1.108 0 0 1 -0.664,-0.216 0.327,0.327 0 0 1 -0.169,-0.267 5.725,5.725 0 0 1 0.921,-1.951 6.1,6.1 0 0 1 2.324,-2.274 5.34,5.34 0 0 1 2.449,-0.755 6.543,6.543 0 0 1 2.125,0.257 2.87,2.87 0 0 1 1.229,0.9 2.883,2.883 0 0 1 0.652,1.416 25.948,25.948 0 0 1 0.066,2.606 l -0.05,2.64 0.017,1.926 q 0,0.382 -0.017,0.647 -0.017,0.481 -0.017,0.714 a 1.225,1.225 0 0 0 0.315,0.88 1,1 0 0 0 0.747,0.332 1.3,1.3 0 0 0 1.079,-0.631 l 0.2,-0.266 a 1.547,1.547 0 0 1 0.36,-0.116 z m -4.865,-0.481 q 0.116,-2.108 0.116,-2.972 0,-0.448 -0.05,-1.212 a 11.442,11.442 0 0 0 -2.365,1.212 7.01,7.01 0 0 0 -1.978,1.876 2.556,2.556 0 0 0 -0.533,1.444 1.447,1.447 0 0 0 0.441,1.079 1.52,1.52 0 0 0 1.108,0.432 2.92,2.92 0 0 0 1.25,-0.365 8.347,8.347 0 0 0 2.015,-1.494 z m 9.932,-13.661 0.515,0.017 0.066,1.577 -0.033,2.042 q 0.315,0.017 0.4,0.017 0.432,0 1.644,-0.066 0.78,-0.05 1.494,-0.05 0.332,0 1,0.017 0.033,0.332 0.033,0.531 a 3.658,3.658 0 0 1 -0.1,0.681 h -0.286 l -2.573,0.083 -1.278,0.033 -0.3,0.033 a 3.163,3.163 0 0 0 -0.133,0.963 l 0.05,2.49 -0.033,4.383 a 3.992,3.992 0 0 0 0.448,2.291 1.51,1.51 0 0 0 1.295,0.581 9.218,9.218 0 0 0 1.624,-0.269 2.907,2.907 0 0 0 0.979,-0.548 h 0.149 a 0.325,0.325 0 0 1 0.241,0.091 0.325,0.325 0 0 1 0.091,0.241 l -0.017,0.116 a 4.313,4.313 0 0 1 -1.631,1.138 6.92,6.92 0 0 1 -2.449,0.357 3.021,3.021 0 0 1 -1.785,-0.5 2.211,2.211 0 0 1 -0.9,-1.179 13.48,13.48 0 0 1 -0.2,-2.972 l 0.066,-3.735 -0.017,-1.793 v -0.664 q 0,-0.465 -0.033,-0.93 l -0.282,-0.017 -1.361,0.05 -0.133,0.017 a 0.4,0.4 0 0 1 -0.274,-0.083 0.26,0.26 0 0 1 -0.091,-0.2 0.438,0.438 0 0 1 0.125,-0.324 3.085,3.085 0 0 1 0.755,-0.39 3.928,3.928 0 0 0 1,-0.689 5.457,5.457 0 0 0 0.971,-1.121 9.83,9.83 0 0 0 0.564,-1.262 q 0.267,-0.677 0.399,-0.957 z m 18.311999,7.634 -6.656999,0.049 h -1.262 q -0.764,0 -1.561,0.069 a 2.927,2.927 0 0 0 -0.149,0.681 l 0.017,0.166 v 0.166 l -0.017,0.813 a 6.477,6.477 0 0 0 0.639,2.482 4.933,4.933 0 0 0 1.826,2.24 5.628,5.628 0 0 0 2.963,0.822 6.11,6.11 0 0 0 1.511,-0.232 7.647,7.647 0 0 0 1.593999,-0.847 l 1.2,-0.979 0.1,0.664 a 2.014,2.014 0 0 1 -0.017,0.249 7.293,7.293 0 0 1 -1.892999,1.66 9.016,9.016 0 0 1 -2.328,1.045 8.106,8.106 0 0 1 -1.859,0.149 5.95,5.95 0 0 1 -2.325,-0.481 5.659,5.659 0 0 1 -2.661,-2.35 7.5,7.5 0 0 1 -0.971,-3.926 8.421,8.421 0 0 1 0.271,-1.874 9.864,9.864 0 0 1 0.988,-2.44 4.781,4.781 0 0 1 1.179,-1.444 7.8,7.8 0 0 1 1.742,-1.116 6.5,6.5 0 0 1 2.507,-0.448 5.011,5.011 0 0 1 2.523,0.564 5,5 0 0 1 1.983999,1.926 4.507,4.507 0 0 1 0.656,2.158 z m -9.263999,-0.6 h 0.785 q 0.847,0 5.047,-0.266 a 2.1,2.1 0 0 0 0.813,-0.133 0.885,0.885 0 0 0 0.3,-0.564 2.647,2.647 0 0 0 -0.332,-1.17 2.288,2.288 0 0 0 -1.028,-1.01 3.435,3.435 0 0 0 -1.6,-0.357 3.764,3.764 0 0 0 -3.088,1.444 3.339,3.339 0 0 0 -0.897,2.059 z m -66.182,24.18 a 3.173,3.173 0 0 1 0.382,-0.05 q 0.564,0 1.859,0.066 0.681,0.017 0.93,0.017 0.365,0 1.544,-0.066 l 2.822,-0.166 q 1.112,-0.1 2.59,-0.1 a 9.739,9.739 0 0 1 4.15,0.738 5.183,5.183 0 0 1 2.382,2.313 6.623,6.623 0 0 1 0.838,3.134 6.245,6.245 0 0 1 -1.826,4.493 6.516,6.516 0 0 1 -4.914,1.89 5.1,5.1 0 0 1 -1.444,-0.174 5.158,5.158 0 0 1 -1.328,-0.672 0.877,0.877 0 0 1 -0.382,-0.448 0.379,0.379 0 0 1 0.183,-0.166 1.293,1.293 0 0 1 0.481,0.1 4.347,4.347 0 0 0 1.428,0.2 5.057,5.057 0 0 0 2.482,-0.646 4.21,4.21 0 0 0 1.768,-1.84 5.553,5.553 0 0 0 0.6,-2.519 5.407,5.407 0 0 0 -0.63,-2.511 5.35,5.35 0 0 0 -1.657,-1.948 5.175,5.175 0 0 0 -1.781,-0.7 8.785,8.785 0 0 0 -1.864,-0.282 5.439,5.439 0 0 0 -2.436,0.3 l -0.017,0.232 0.05,1.874 -0.017,0.332 q -0.033,0.448 -0.033,1.377 0,3.384 0.1,4.213 v 0.929 l 0.216,7.581 q 0,0.166 -0.042,0.614 -0.042,0.448 -0.042,0.78 a 4.2,4.2 0 0 0 0.133,1.211 q 0.4,0.116 2.324,0.547 0.9,0.216 0.979,0.249 a 0.477,0.477 0 0 1 0.232,0.216 0.564,0.564 0 0 1 -0.174,0.324 0.816,0.816 0 0 1 -0.423,0.075 q -0.2,0 -0.93,-0.083 -1.428,-0.149 -2.241,-0.149 l -2.922,0.116 -1.743,-0.05 q -0.166,0 -0.963,0.033 l -0.017,-0.432 2.158,-0.415 a 1.383,1.383 0 0 0 0.647,-0.3 1.712,1.712 0 0 0 0.166,-0.912 q 0,-0.149 0.017,-0.647 0.017,-0.348 0.017,-0.962 0,-1.957 -0.166,-8.344 -0.066,-2.986 -0.066,-6.071 v -0.282 q 0,-1.194 -0.365,-1.509 a 6.822,6.822 0 0 0 -3.071,-0.9 0.766,0.766 0 0 1 -0.083,-0.3 0.685,0.685 0 0 1 0.099,-0.308 z m 20.752,0.78 a 1.256,1.256 0 0 1 0.423,-0.946 1.436,1.436 0 0 1 1.021,-0.4 1.507,1.507 0 0 1 1.079,0.448 1.328,1.328 0 0 1 0.465,0.963 1.354,1.354 0 0 1 -0.465,0.971 1.493,1.493 0 0 1 -1.079,0.457 1.4,1.4 0 0 1 -1.029,-0.415 1.46,1.46 0 0 1 -0.415,-1.072 z m -1.395,8.616 0.017,-0.49 q 1.079,-0.316 1.162,-0.367 a 5.437,5.437 0 0 0 1.253,-0.816 5.654,5.654 0 0 0 1.1,-1.233 2.033,2.033 0 0 1 0.315,-0.033 l 0.2,0.017 q 0.066,0.8 0.066,1.162 0,0.083 -0.033,0.747 v 0.88 l 0.017,4.781 -0.05,5.063 a 1.241,1.241 0 0 0 0.2,0.855 3.24,3.24 0 0 0 1.278,0.54 10.093,10.093 0 0 1 1,0.315 0.523,0.523 0 0 1 0.05,0.2 0.544,0.544 0 0 1 -0.083,0.249 q -0.647,-0.017 -1.66,-0.083 -1.378,-0.116 -1.826,-0.116 -0.216,0 -2.656,0.083 a 8.9,8.9 0 0 0 -0.963,0.083 1.151,1.151 0 0 1 -0.266,-0.05 0.365,0.365 0 0 1 -0.083,-0.2 q 0,-0.232 0.315,-0.365 0.066,-0.033 1.693,-0.381 a 1.08,1.08 0 0 0 0.7,-0.332 1.761,1.761 0 0 0 0.282,-1.111 q 0.033,-1.276 0.033,-7 a 5.859,5.859 0 0 0 -0.1,-1.426 1.259,1.259 0 0 0 -0.44,-0.456 4.825,4.825 0 0 0 -1.52,-0.513 z m 19.972,3.024 -6.657,0.049 h -1.262 q -0.764,0 -1.561,0.069 a 2.927,2.927 0 0 0 -0.149,0.681 l 0.017,0.166 v 0.166 l -0.017,0.813 a 6.477,6.477 0 0 0 0.639,2.482 4.933,4.933 0 0 0 1.828,2.24 5.628,5.628 0 0 0 2.963,0.822 6.11,6.11 0 0 0 1.511,-0.232 7.647,7.647 0 0 0 1.594,-0.847 l 1.2,-0.979 0.1,0.664 a 2.014,2.014 0 0 1 -0.017,0.249 7.293,7.293 0 0 1 -1.893,1.66 9.016,9.016 0 0 1 -2.324,1.046 8.106,8.106 0 0 1 -1.859,0.149 5.95,5.95 0 0 1 -2.324,-0.481 5.659,5.659 0 0 1 -2.671,-2.351 7.5,7.5 0 0 1 -0.971,-3.926 8.421,8.421 0 0 1 0.274,-1.874 9.864,9.864 0 0 1 0.988,-2.44 4.782,4.782 0 0 1 1.179,-1.444 7.8,7.8 0 0 1 1.742,-1.116 6.5,6.5 0 0 1 2.508,-0.446 5.011,5.011 0 0 1 2.523,0.564 5,5 0 0 1 1.984,1.926 4.507,4.507 0 0 1 0.655,2.156 z m -9.264,-0.6 h 0.78 q 0.847,0 5.047,-0.266 a 2.1,2.1 0 0 0 0.813,-0.133 0.885,0.885 0 0 0 0.3,-0.564 2.647,2.647 0 0 0 -0.332,-1.17 2.288,2.288 0 0 0 -1.021,-1.013 3.435,3.435 0 0 0 -1.6,-0.357 3.764,3.764 0 0 0 -3.085,1.447 3.339,3.339 0 0 0 -0.9,2.059 z m 23.542,6.328 0.017,1.079 a 7.994,7.994 0 0 1 -2.557,1.926 7.418,7.418 0 0 1 -2.972,0.548 6.02,6.02 0 0 1 -3.354,-0.971 6.268,6.268 0 0 1 -2.3,-2.748 8.4,8.4 0 0 1 -0.804,-3.486 6.935,6.935 0 0 1 0.971,-3.544 6.252,6.252 0 0 1 2.573,-2.49 8.777,8.777 0 0 1 4.026,-0.822 6.459,6.459 0 0 1 3.536,0.8 1.4,1.4 0 0 1 0.681,1.2 1.193,1.193 0 0 1 -0.349,0.88 1.214,1.214 0 0 1 -0.9,0.349 2.737,2.737 0 0 1 -1.826,-1.029 4.213,4.213 0 0 0 -1.112,-0.872 2.523,2.523 0 0 0 -1.112,-0.241 3.034,3.034 0 0 0 -2.458,1.203 6.782,6.782 0 0 0 -1.361,4.333 6.274,6.274 0 0 0 1.395,4.283 4.212,4.212 0 0 0 3.254,1.594 5.875,5.875 0 0 0 2.3,-0.423 9.606,9.606 0 0 0 2.352,-1.569 z m 14.045,-5.728 -6.657,0.049 h -1.262 q -0.764,0 -1.561,0.069 a 2.927,2.927 0 0 0 -0.149,0.681 l 0.017,0.166 v 0.166 l -0.017,0.813 a 6.477,6.477 0 0 0 0.639,2.482 4.933,4.933 0 0 0 1.826,2.24 5.628,5.628 0 0 0 2.963,0.822 6.11,6.11 0 0 0 1.516,-0.233 7.647,7.647 0 0 0 1.594,-0.847 l 1.2,-0.979 0.1,0.664 a 2.014,2.014 0 0 1 -0.017,0.249 7.293,7.293 0 0 1 -1.893,1.66 9.016,9.016 0 0 1 -2.324,1.046 8.106,8.106 0 0 1 -1.859,0.149 5.95,5.95 0 0 1 -2.324,-0.481 5.659,5.659 0 0 1 -2.677,-2.35 7.5,7.5 0 0 1 -0.971,-3.926 8.421,8.421 0 0 1 0.271,-1.874 9.864,9.864 0 0 1 0.988,-2.44 4.782,4.782 0 0 1 1.179,-1.444 7.8,7.8 0 0 1 1.748,-1.116 6.5,6.5 0 0 1 2.507,-0.448 4.922,4.922 0 0 1 4.507,2.49 4.507,4.507 0 0 1 0.656,2.158 z m -9.264,-0.6 h 0.78 q 0.847,0 5.047,-0.266 a 2.1,2.1 0 0 0 0.813,-0.133 0.885,0.885 0 0 0 0.3,-0.564 2.647,2.647 0 0 0 -0.332,-1.17 2.288,2.288 0 0 0 -1.021,-1.013 3.435,3.435 0 0 0 -1.6,-0.357 3.764,3.764 0 0 0 -3.088,1.444 3.339,3.339 0 0 0 -0.899,2.062 z"
     id="text3295" />
</svg>
