<?xml version="1.0" encoding="UTF-8" standalone="no"?>
<svg
   xmlns:dc="http://purl.org/dc/elements/1.1/"
   xmlns:cc="http://creativecommons.org/ns#"
   xmlns:rdf="http://www.w3.org/1999/02/22-rdf-syntax-ns#"
   xmlns:svg="http://www.w3.org/2000/svg"
   xmlns="http://www.w3.org/2000/svg"
   xmlns:sodipodi="http://sodipodi.sourceforge.net/DTD/sodipodi-0.dtd"
   xmlns:inkscape="http://www.inkscape.org/namespaces/inkscape"
   width="24"
   height="24"
   viewBox="0 0 6.3499999 6.3500002"
   version="1.1"
   id="svg8"
   inkscape:version="1.0 (4035a4fb49, 2020-05-01)"
   sodipodi:docname="location alt1.svg">
  <defs
     id="defs2" />
  <sodipodi:namedview
     id="base"
     pagecolor="#808080"
     bordercolor="#666666"
     borderopacity="1.0"
     inkscape:pageopacity="0"
     inkscape:pageshadow="2"
     inkscape:zoom="1"
     inkscape:cx="-401.80738"
     inkscape:cy="-198.12679"
     inkscape:document-units="mm"
     inkscape:current-layer="layer1"
     inkscape:document-rotation="0"
     showgrid="false"
     units="px"
     inkscape:window-width="1920"
     inkscape:window-height="1001"
     inkscape:window-x="-9"
     inkscape:window-y="-9"
     inkscape:window-maximized="1"
     inkscape:snap-global="true" />
  <metadata
     id="metadata5">
    <rdf:RDF>
      <cc:Work
         rdf:about="">
        <dc:format>image/svg+xml</dc:format>
        <dc:type
           rdf:resource="http://purl.org/dc/dcmitype/StillImage" />
        <dc:title></dc:title>
      </cc:Work>
    </rdf:RDF>
  </metadata>
  <g
     inkscape:label="Layer 1"
     inkscape:groupmode="layer"
     id="layer1">
    <g
       id="g932">
      <g
         id="g927">
        <path
           transform="scale(0.26458333)"
           d="M 2.3847656 11.951172 L 2.3847656 21.609375 L 12.03125 21.609375 L 12.03125 11.951172 L 2.3847656 11.951172 z M 8.171875 13.96875 C 8.2318183 13.96875 8.2732607 13.995756 8.3378906 14.074219 A 0.53247885 0.53247885 0 0 1 8.4511719 14.371094 A 0.26881519 0.26881519 0 0 1 8.3886719 14.609375 C 8.2982656 14.715693 8.2917971 14.739025 8.2929688 14.939453 A 4.0991974 4.0991974 0 0 0 8.4257812 15.810547 A 7.0388368 7.0388368 0 0 0 8.5976562 16.544922 A 0.14049574 0.14049574 0 0 0 8.7324219 16.640625 A 1.3731117 1.3731117 0 0 0 9.2773438 16.28125 A 0.42148721 0.42148721 0 0 0 9.4082031 15.861328 A 0.25991713 0.25991713 0 0 1 9.4316406 15.681641 A 0.30229999 0.30229999 0 0 1 9.8515625 15.537109 C 10.080791 15.619768 10.072914 15.919628 9.8359375 16.107422 A 1.8219956 1.8219956 0 0 0 9.5019531 16.419922 A 3.7524071 3.7524071 0 0 0 8.8398438 18.710938 A 6.9962196 6.9962196 0 0 0 8.9394531 19.474609 L 8.9667969 19.589844 L 7.2089844 19.589844 C 5.5398917 19.589844 5.4524273 19.589839 5.4589844 19.566406 A 3.7121317 3.7121317 0 0 0 5.5429688 19.144531 A 4.940767 4.940767 0 0 0 5.5546875 18.007812 A 5.2264414 5.2264414 0 0 0 5.1699219 16.853516 A 1.8444749 1.8444749 0 0 0 4.6503906 16.160156 A 0.51070201 0.51070201 0 0 1 4.4003906 15.804688 A 0.22690061 0.22690061 0 0 1 4.4765625 15.597656 A 0.32899419 0.32899419 0 0 1 4.7265625 15.509766 A 0.25242403 0.25242403 0 0 1 4.9453125 15.611328 A 0.30721735 0.30721735 0 0 1 5.015625 15.853516 A 0.48728606 0.48728606 0 0 0 5.0332031 16.134766 A 1.3089519 1.3089519 0 0 0 5.6816406 16.638672 C 5.7366705 16.644341 5.7433035 16.643198 5.78125 16.601562 C 5.8297035 16.548649 5.8495371 16.484553 5.9335938 16.09375 A 9.5722091 9.5722091 0 0 0 6.1347656 14.964844 A 0.41937978 0.41937978 0 0 0 6.0410156 14.630859 A 0.4383467 0.4383467 0 0 1 5.9707031 14.507812 C 5.9145016 14.287239 6.0749845 13.989048 6.2597656 13.972656 A 0.12082636 0.12082636 0 0 1 6.375 14.007812 A 0.62661101 0.62661101 0 0 1 6.5800781 14.423828 C 6.5857474 14.520055 6.5860298 14.519869 6.5410156 14.574219 C 6.496077 14.628531 6.4944063 14.630069 6.5 14.714844 A 4.7321306 4.7321306 0 0 0 6.8828125 15.796875 C 7.0602991 16.188623 7.1119761 16.263047 7.2070312 16.265625 C 7.2871194 16.267927 7.3371435 16.210706 7.4511719 15.988281 A 8.8292209 8.8292209 0 0 0 7.8925781 14.873047 A 0.8120654 0.8120654 0 0 0 7.9199219 14.701172 A 0.14564723 0.14564723 0 0 0 7.8730469 14.572266 C 7.8262185 14.516291 7.8257194 14.515923 7.8320312 14.425781 C 7.8463935 14.20895 8.0250404 13.96875 8.171875 13.96875 z "
           style="fill:#000000;stroke:none;stroke-width:0.14047;stroke-linejoin:round"
           id="rect833" />
        <path
           d="M 3.1832682,0.61391619 V 3.1620809 h 2.532145 V 0.61391619 Z M 4.4477905,1.4490073 a 0.43885413,0.43885413 0 0 1 0.00155,0 A 0.43885413,0.43885413 0 0 1 4.8880733,1.8882569 0.43885413,0.43885413 0 0 1 4.4493405,2.3269898 0.43885413,0.43885413 0 0 1 4.0106076,1.8882569 0.43885413,0.43885413 0 0 1 4.4477905,1.4490073 Z"
           style="fill:#000000;stroke:none;stroke-width:0.218663;stroke-linejoin:round;stroke-miterlimit:4;stroke-dasharray:none;stroke-opacity:1"
           id="rect898-4" />
      </g>
    </g>
  </g>
</svg>
