<?xml version="1.0" encoding="UTF-8" standalone="no"?>
<svg
   xmlns:dc="http://purl.org/dc/elements/1.1/"
   xmlns:cc="http://creativecommons.org/ns#"
   xmlns:rdf="http://www.w3.org/1999/02/22-rdf-syntax-ns#"
   xmlns:svg="http://www.w3.org/2000/svg"
   xmlns="http://www.w3.org/2000/svg"
   xmlns:sodipodi="http://sodipodi.sourceforge.net/DTD/sodipodi-0.dtd"
   xmlns:inkscape="http://www.inkscape.org/namespaces/inkscape"
   sodipodi:docname="location.svg"
   inkscape:version="1.0 (4035a4fb49, 2020-05-01)"
   id="svg8"
   version="1.1"
   viewBox="0 0 6.3499999 6.3500002"
   height="24"
   width="24">
  <defs
     id="defs2" />
  <sodipodi:namedview
     inkscape:snap-global="true"
     inkscape:window-maximized="1"
     inkscape:window-y="-9"
     inkscape:window-x="-9"
     inkscape:window-height="1001"
     inkscape:window-width="1920"
     units="px"
     showgrid="false"
     inkscape:document-rotation="0"
     inkscape:current-layer="layer1"
     inkscape:document-units="mm"
     inkscape:cy="14.579987"
     inkscape:cx="2.2549365"
     inkscape:zoom="11.313708"
     inkscape:pageshadow="2"
     inkscape:pageopacity="0"
     borderopacity="1.0"
     bordercolor="#666666"
     pagecolor="#808080"
     id="base" />
  <metadata
     id="metadata5">
    <rdf:RDF>
      <cc:Work
         rdf:about="">
        <dc:format>image/svg+xml</dc:format>
        <dc:type
           rdf:resource="http://purl.org/dc/dcmitype/StillImage" />
        <dc:title></dc:title>
      </cc:Work>
    </rdf:RDF>
  </metadata>
  <g
     id="layer1"
     inkscape:groupmode="layer"
     inkscape:label="Layer 1">
    <g
       id="g1185">
      <path
         d="M 0,3.175 V 6.35 H 3.175 V 3.175 Z m 1.9047429,0.6632507 c 0.019729,0 0.03337,0.00888 0.054642,0.034671 a 0.17525767,0.17504503 0 0 1 0.037284,0.097593 0.08847661,0.08836926 0 0 1 -0.02057,0.078331 c -0.029756,0.034951 -0.031886,0.04262 -0.031499,0.1085084 a 1.3491912,1.3475542 0 0 0 0.043713,0.2863601 2.3167307,2.3139198 0 0 0 0.05657,0.2414156 0.04624213,0.04618602 0 0 0 0.044356,0.03146 0.45193974,0.45139139 0 0 0 0.1793531,-0.11814 0.13872638,0.13855806 0 0 0 0.04307,-0.1380434 0.08554794,0.08544414 0 0 1 0.00771,-0.059069 0.09949765,0.09937692 0 0 1 0.1382112,-0.047513 c 0.075447,0.027173 0.072855,0.1257479 -0.00514,0.1874826 A 0.59968334,0.59895573 0 0 0 2.3425225,4.6440373 1.2350502,1.2335517 0 0 0 2.1245988,5.397177 2.3027039,2.29991 0 0 0 2.1573838,5.6482232 l 0.00899,0.037882 H 1.5878215 c -0.5493576,0 -0.5781452,-1.7e-6 -0.5759871,-0.0077 a 1.2217941,1.2203117 0 0 0 0.027642,-0.1386901 1.6261816,1.6242085 0 0 0 0.00386,-0.3736806 1.7202072,1.71812 0 0 0 -0.12664012,-0.3794587 0.60708207,0.60634549 0 0 0 -0.1709961,-0.2279324 0.16809014,0.16788619 0 0 1 -0.082284,-0.1168553 0.07468104,0.07459042 0 0 1 0.025071,-0.068059 0.10828365,0.10815227 0 0 1 0.082284,-0.028892 0.0830817,0.08298089 0 0 1 0.071999,0.033388 0.10111612,0.10099343 0 0 1 0.023142,0.079616 0.16038312,0.16018852 0 0 0 0.00578,0.092457 0.43082247,0.43029974 0 0 0 0.21342372,0.1656521 c 0.018112,0.00188 0.020296,0.00148 0.032785,-0.012201 0.015948,-0.017393 0.022476,-0.038466 0.050142,-0.1669362 A 3.1505534,3.1467308 0 0 0 1.2342532,4.1657009 0.13803275,0.13786528 0 0 0 1.2033962,4.0559078 0.14427544,0.14410039 0 0 1 1.1802542,4.0154578 C 1.1617562,3.9429488 1.2145772,3.844923 1.2753952,3.8395344 a 0.03976824,0.03971999 0 0 1 0.037928,0.011555 0.2062399,0.20598966 0 0 1 0.067498,0.1367595 c 0.00187,0.031635 0.00195,0.031572 -0.012856,0.049439 -0.014791,0.017853 -0.015341,0.01836 -0.0135,0.046229 a 1.557512,1.5556222 0 0 0 0.1260016,0.355702 c 0.058417,0.1287817 0.075426,0.1532475 0.106712,0.154095 0.02636,7.562e-4 0.042825,-0.018054 0.080356,-0.091174 a 2.9060096,2.9024837 0 0 0 0.1452825,-0.3666176 0.26727951,0.26695522 0 0 0 0.00899,-0.056501 0.04793767,0.0478795 0 0 0 -0.015428,-0.042376 c -0.015413,-0.018401 -0.015577,-0.018523 -0.0135,-0.048155 0.00473,-0.07128 0.063526,-0.1502426 0.1118546,-0.1502426 z"
         style="fill:#000000;stroke:none;stroke-width:0.0462056;stroke-linejoin:round"
         id="rect833" />
      <path
         id="rect887"
         style="fill:#000000;stroke-width:0.703075;stroke-linejoin:round"
         d="M 12 0 L 12 12 L 24 12 L 24 0 L 12 0 z M 15 3.8144531 L 17.666016 3.8144531 L 17.666016 4.1230469 L 15.363281 4.1230469 L 15.363281 5.75 L 17.380859 5.75 L 17.378906 6.0585938 L 15.361328 6.0585938 L 15.361328 7.8164062 L 17.679688 7.8164062 L 17.679688 8.1230469 L 15 8.1230469 L 15 3.8144531 z M 18.757812 3.8144531 L 20.914062 3.8144531 L 20.914062 4.1425781 L 19.064453 4.1425781 L 18.912109 5.5996094 A 1.4016355 1.4016355 0 0 1 19.722656 5.3613281 A 1.1998436 1.1998436 0 0 1 20.650391 5.7402344 A 1.4376308 1.4376308 0 0 1 20.996094 6.75 A 1.5270737 1.5270737 0 0 1 20.660156 7.8066406 A 1.2107513 1.2107513 0 0 1 19.708984 8.1835938 A 1.3121926 1.3121926 0 0 1 18.798828 7.8691406 A 1.2827419 1.2827419 0 0 1 18.398438 6.9902344 L 18.738281 6.9902344 A 1.0231394 1.0231394 0 0 0 19.037109 7.6582031 A 0.9598749 0.9598749 0 0 0 19.708984 7.8847656 A 0.84043593 0.84043593 0 0 0 20.40625 7.5917969 A 1.3034665 1.3034665 0 0 0 20.640625 6.7558594 A 1.1251261 1.1251261 0 0 0 20.378906 5.984375 A 0.90915424 0.90915424 0 0 0 19.658203 5.6855469 A 1.3580048 1.3580048 0 0 0 19.222656 5.75 A 1.1960259 1.1960259 0 0 0 18.828125 5.9960938 L 18.548828 5.9160156 L 18.757812 3.8144531 z "
         transform="scale(0.26458333)" />
      <path
         d="M 0.79375037,2.1048281 V 1.0557392 H 1.0868315 a 0.4562888,0.4562888 0 0 1 0.2308862,0.058731 0.40592676,0.40592676 0 0 1 0.1596001,0.1682584 0.52988377,0.52988377 0 0 1 0.057722,0.249357 v 0.096539 a 0.52988377,0.52988377 0 0 1 -0.056856,0.2493572 0.40506093,0.40506093 0 0 1 -0.1603216,0.1678253 0.46999767,0.46999767 0 0 1 -0.2373798,0.05902 z m 0.088602,-0.9741953 V 2.0299345 H 1.0812032 A 0.34228876,0.34228876 0 0 0 1.3465785,1.9196863 0.42497486,0.42497486 0 0 0 1.4467254,1.6222761 V 1.5299216 A 0.41516221,0.41516221 0 0 0 1.3480214,1.2400151 0.3365166,0.3365166 0 0 0 1.0882743,1.1303442 Z M 1.7843958,1.5672963 1.8356238,1.0557392 h 0.5245445 v 0.079944 H 1.909363 L 1.872566,1.4902377 a 0.34127862,0.34127862 0 0 1 0.1974077,-0.057722 0.29149379,0.29149379 0 0 1 0.2262685,0.09221 0.35008116,0.35008116 0 0 1 0.084273,0.2453165 A 0.37172674,0.37172674 0 0 1 2.2984062,2.027336 0.29481279,0.29481279 0 0 1 2.06752,2.118825 0.31948874,0.31948874 0 0 1 1.8455807,2.042488 0.31227355,0.31227355 0 0 1 1.7483197,1.8284855 h 0.082831 a 0.24906846,0.24906846 0 0 0 0.072151,0.1624871 0.23362795,0.23362795 0 0 0 0.1634963,0.055124 0.20462287,0.20462287 0 0 0 0.1697014,-0.071286 0.31746849,0.31746849 0 0 0 0.057721,-0.2031797 0.27417733,0.27417733 0 0 0 -0.064071,-0.1875951 0.22136212,0.22136212 0 0 0 -0.1750406,-0.072153 0.33060014,0.33060014 0 0 0 -0.1066404,0.015441 0.29106089,0.29106089 0 0 0 -0.095818,0.060175 z"
         data-name="Path 4"
         id="Path_4"
         style="stroke-width:0.144303" />
      <path
         d="M 4.5823908,4.7854465 H 4.0628453 v 0.4533034 h 0.597333 v 0.079375 H 3.9687499 v -1.11125 H 4.656426 v 0.079375 H 4.0625567 v 0.4198216 h 0.5195455 z m 0.8006773,0.1747693 h 0.1731818 v 0.077066 H 5.3830681 V 5.318125 H 5.2914261 V 5.0372817 H 4.7685613 v -0.051954 l 0.51435,-0.7784523 h 0.1000126 z m -0.5022273,0 H 5.291426 v -0.635 l -0.040409,0.070283 z"
         data-name="Path 6"
         id="Path_6"
         style="stroke-width:0.144318" />
    </g>
  </g>
</svg>
