<?xml version="1.0" encoding="UTF-8" standalone="no"?>
<svg
   xmlns:dc="http://purl.org/dc/elements/1.1/"
   xmlns:cc="http://creativecommons.org/ns#"
   xmlns:rdf="http://www.w3.org/1999/02/22-rdf-syntax-ns#"
   xmlns:svg="http://www.w3.org/2000/svg"
   xmlns="http://www.w3.org/2000/svg"
   xmlns:sodipodi="http://sodipodi.sourceforge.net/DTD/sodipodi-0.dtd"
   xmlns:inkscape="http://www.inkscape.org/namespaces/inkscape"
   inkscape:version="1.0 (4035a4fb49, 2020-05-01)"
   height="24"
   width="24"
   sodipodi:docname="pawn lock.svg"
   version="1.1"
   overflow="hidden"
   id="Icons_Lock"
   viewBox="0 0 24 24">
  <metadata
     id="metadata971">
    <rdf:RDF>
      <cc:Work
         rdf:about="">
        <dc:format>image/svg+xml</dc:format>
        <dc:type
           rdf:resource="http://purl.org/dc/dcmitype/StillImage" />
        <dc:title></dc:title>
      </cc:Work>
    </rdf:RDF>
  </metadata>
  <defs
     id="defs969" />
  <sodipodi:namedview
     inkscape:current-layer="Icons_Lock"
     inkscape:window-maximized="1"
     inkscape:window-y="-9"
     inkscape:window-x="202"
     inkscape:cy="-121.60143"
     inkscape:cx="5.2398205"
     inkscape:zoom="2.2916667"
     showgrid="false"
     id="namedview967"
     inkscape:window-height="1051"
     inkscape:window-width="1709"
     inkscape:pageshadow="2"
     inkscape:pageopacity="0"
     guidetolerance="10"
     gridtolerance="10"
     objecttolerance="10"
     borderopacity="1"
     bordercolor="#666666"
     pagecolor="#ffffff" />
  <path
     d="M 12 0 C 8.1863013 0 5.0957031 3.0905979 5.0957031 6.9042969 L 5.0957031 10.685547 L 2.7949219 10.849609 L 2.7949219 23.341797 L 12 24 L 21.205078 23.341797 L 21.205078 10.849609 L 18.904297 10.685547 L 18.904297 6.9042969 C 18.904297 3.0905979 15.8137 0 12 0 z M 12 1.9726562 C 14.728768 1.9726562 16.931641 4.1755289 16.931641 6.9042969 L 16.931641 10.552734 L 12 10.191406 L 7.0683594 10.552734 L 7.0683594 6.9042969 C 7.0683594 4.1755289 9.2712333 1.9726562 12 1.9726562 z M 12.03125 11.992188 A 1.445639 1.7175626 0 0 1 12.623047 12.138672 A 2.2517391 2.6752895 0 0 1 13.697266 13.173828 A 0.96879599 1.1510258 0 0 1 13.697266 14.103516 A 4.1113213 4.8846578 0 0 1 13.449219 14.609375 A 2.6853603 3.1904748 0 0 0 13.255859 14.996094 C 13.259659 15.005594 13.528825 15.231687 13.853516 15.498047 A 8.6193672 10.240664 0 0 1 14.951172 16.486328 C 14.951172 16.509278 14.833702 16.537635 14.572266 16.578125 C 14.501986 16.588995 14.162727 16.614726 13.818359 16.634766 C 13.473993 16.654816 13.180773 16.675781 13.166016 16.675781 A 7.6916851 9.138485 0 0 0 13.537109 17.988281 A 2.6396792 3.1362008 0 0 0 14.189453 19.058594 C 14.259733 19.137094 14.469968 19.344318 14.652344 19.517578 A 8.4686191 10.06156 0 0 1 15.917969 20.861328 C 16.201544 21.25586 16.331227 21.679977 16.205078 21.796875 A 6.129734 7.2827325 0 0 1 14.751953 21.976562 C 14.228375 22.006622 10.515348 22.021134 9.8515625 21.996094 L 9.8515625 21.998047 C 8.6406554 21.952125 7.8960674 21.877167 7.8398438 21.794922 A 0.57804477 0.68677453 0 0 1 7.8789062 21.335938 C 8.0352773 20.923872 8.388535 20.493783 9.2480469 19.673828 C 9.5337317 19.401624 9.8411335 19.094473 9.9296875 18.992188 A 2.5325037 3.0088657 0 0 0 10.519531 17.998047 C 10.584891 17.815601 10.914062 16.729964 10.914062 16.695312 A 3.8168523 4.5347993 0 0 0 10.400391 16.646484 A 5.5720702 6.6201724 0 0 1 9.1132812 16.492188 A 6.8522021 8.1410963 0 0 1 10.246094 15.462891 L 10.816406 14.998047 L 10.597656 14.583984 A 1.4899147 1.7701666 0 0 1 10.28125 13.691406 A 0.77693427 0.92307501 0 0 1 10.412109 13.078125 A 2.2601725 2.6853092 0 0 1 11.650391 12.054688 A 1.445639 1.7175626 0 0 1 12.03125 11.992188 z "
     style="stroke-width:0.328767"
     id="path964" />
</svg>
