<?xml version="1.0" encoding="UTF-8" standalone="no"?>
<svg
   xmlns:dc="http://purl.org/dc/elements/1.1/"
   xmlns:cc="http://creativecommons.org/ns#"
   xmlns:rdf="http://www.w3.org/1999/02/22-rdf-syntax-ns#"
   xmlns:svg="http://www.w3.org/2000/svg"
   xmlns="http://www.w3.org/2000/svg"
   xmlns:sodipodi="http://sodipodi.sourceforge.net/DTD/sodipodi-0.dtd"
   xmlns:inkscape="http://www.inkscape.org/namespaces/inkscape"
   inkscape:version="1.0 (4035a4fb49, 2020-05-01)"
   sodipodi:docname="piece list.svg"
   id="svg4"
   version="1.1"
   aria-hidden="true"
   viewBox="0 0 24 24"
   focusable="false"
   class="MuiSvgIcon-root jss174">
  <metadata
     id="metadata10">
    <rdf:RDF>
      <cc:Work
         rdf:about="">
        <dc:format>image/svg+xml</dc:format>
        <dc:type
           rdf:resource="http://purl.org/dc/dcmitype/StillImage" />
        <dc:title></dc:title>
      </cc:Work>
    </rdf:RDF>
  </metadata>
  <defs
     id="defs8" />
  <sodipodi:namedview
     inkscape:current-layer="svg4"
     inkscape:window-maximized="1"
     inkscape:window-y="-9"
     inkscape:window-x="71"
     inkscape:cy="31.384966"
     inkscape:cx="7.5807358"
     inkscape:zoom="9.1666667"
     showgrid="false"
     id="namedview6"
     inkscape:window-height="1051"
     inkscape:window-width="1840"
     inkscape:pageshadow="2"
     inkscape:pageopacity="0"
     guidetolerance="10"
     gridtolerance="10"
     objecttolerance="10"
     borderopacity="1"
     bordercolor="#666666"
     pagecolor="#ffffff" />
  <path
     style="stroke-width:1.18788"
     id="path2"
     d="M 20.478788,3.8484848 V 20.478788 H 3.8484848 V 3.8484848 H 20.478788 M 21.785454,1.4727273 H 2.5418182 c -0.5939394,0 -1.0690909,0.4751515 -1.0690909,1.0690909 V 21.785454 c 0,0.475152 0.4751515,1.069091 1.0690909,1.069091 H 21.785454 c 0.475152,0 1.069091,-0.593939 1.069091,-1.069091 V 2.5418182 c 0,-0.5939394 -0.593939,-1.0690909 -1.069091,-1.0690909 z M 10.975757,6.2242424 H 18.10303 V 8.6 h -7.127273 z m 0,4.7515146 h 7.127273 v 2.375758 h -7.127273 z m 0,4.751516 H 18.10303 V 18.10303 H 10.975757 Z M 6.2242424,6.2242424 H 8.6 V 8.6 H 6.2242424 Z m 0,4.7515146 H 8.6 v 2.375758 H 6.2242424 Z m 0,4.751516 H 8.6 V 18.10303 H 6.2242424 Z" />
</svg>
