<?xml version="1.0" encoding="UTF-8" standalone="no"?>
<svg
   xmlns:dc="http://purl.org/dc/elements/1.1/"
   xmlns:cc="http://creativecommons.org/ns#"
   xmlns:rdf="http://www.w3.org/1999/02/22-rdf-syntax-ns#"
   xmlns:svg="http://www.w3.org/2000/svg"
   xmlns="http://www.w3.org/2000/svg"
   xmlns:sodipodi="http://sodipodi.sourceforge.net/DTD/sodipodi-0.dtd"
   xmlns:inkscape="http://www.inkscape.org/namespaces/inkscape"
   class="MuiSvgIcon-root jss174"
   focusable="false"
   viewBox="0 0 24 24"
   aria-hidden="true"
   version="1.1"
   id="svg4"
   sodipodi:docname="promos.svg"
   inkscape:version="1.0 (4035a4fb49, 2020-05-01)">
  <metadata
     id="metadata10">
    <rdf:RDF>
      <cc:Work
         rdf:about="">
        <dc:format>image/svg+xml</dc:format>
        <dc:type
           rdf:resource="http://purl.org/dc/dcmitype/StillImage" />
      </cc:Work>
    </rdf:RDF>
  </metadata>
  <defs
     id="defs8" />
  <sodipodi:namedview
     inkscape:document-rotation="0"
     pagecolor="#ffffff"
     bordercolor="#666666"
     borderopacity="1"
     objecttolerance="10"
     gridtolerance="10"
     guidetolerance="10"
     inkscape:pageopacity="0"
     inkscape:pageshadow="2"
     inkscape:window-width="1920"
     inkscape:window-height="1001"
     id="namedview6"
     showgrid="false"
     inkscape:snap-global="false"
     inkscape:zoom="22.627417"
     inkscape:cx="1.6746079"
     inkscape:cy="14.438087"
     inkscape:window-x="-9"
     inkscape:window-y="-9"
     inkscape:window-maximized="1"
     inkscape:current-layer="svg4" />
  <g
     transform="translate(-0.06649527,0.06392425)"
     id="g981">
    <path
       style="fill:#000000;stroke-width:0.507739"
       d="M 2.5390895,19.008224 C 1.016804,18.94404 0.08116754,18.838985 0.01048662,18.724022 A 0.72668594,0.95998139 0 0 1 0.05863486,18.082089 C 0.25521457,17.5061 0.70094589,16.9056 1.7814757,15.75946 2.1406221,15.37897 2.5253899,14.950041 2.6367132,14.807065 a 3.1837237,4.2058269 0 0 0 0.7434714,-1.389494 c 0.082158,-0.25502 0.4938809,-1.773484 0.4938809,-1.821921 A 4.7983358,6.3387946 0 0 0 3.2299896,11.527952 7.0048991,9.253754 0 0 1 1.6100759,11.313197 8.6142095,11.379717 0 0 1 3.0347333,9.8735157 l 0.7174104,-0.6501 -0.2760976,-0.578906 A 1.8730386,2.4743591 0 0 1 3.0784675,7.3979927 0.97671887,1.2902849 0 0 1 3.2432412,6.5389708 2.8413641,3.7535561 0 0 1 4.7999845,5.1092114 1.8173774,2.4008286 0 0 1 6.0223176,5.225926 a 2.8307619,3.7395503 0 0 1 1.3522109,1.44785 1.2179168,1.6089171 0 0 1 0,1.2984553 5.1685261,6.8278304 0 0 1 -0.311878,0.7090434 3.3758868,4.459682 0 0 0 -0.2434065,0.540974 c 0.00478,0.01342 0.3428008,0.327969 0.7509831,0.70029 a 10.835793,14.314516 0 0 1 1.3800404,1.3813233 c 0,0.0321 -0.1471037,0.07179 -0.4757702,0.128386 -0.088343,0.01517 -0.5159688,0.05078 -0.9488888,0.07878 -0.4329193,0.02801 -0.8017838,0.05837 -0.8203376,0.05837 a 9.6695616,12.773879 0 0 0 0.4664927,1.834178 3.3184588,4.3838174 0 0 0 0.8212196,1.49512 c 0.088343,0.109712 0.353406,0.399749 0.5826741,0.641934 a 10.646281,14.064165 0 0 1 1.5903167,1.879111 c 0.356496,0.551479 0.520387,1.143808 0.361797,1.307208 A 7.7059627,10.179886 0 0 1 8.6989084,18.97789 C 8.0406938,19.01992 3.3748837,19.04092 2.5404102,19.0059 Z"
       id="path4361" />
    <g
       id="g974"
       transform="matrix(0.89107946,0,0,1,1.1743764,0)">
      <rect
         y="10.327191"
         x="9.6343298"
         height="3.2104707"
         width="4.4117737"
         id="rect930"
         style="fill:#000000;fill-opacity:1;stroke-width:0.353942;stroke-linejoin:round" />
      <path
         id="path932"
         d="m 13.980256,7.6013979 v 8.6620581 l 3.687453,-4.065864 z"
         style="fill:#000000;fill-opacity:1;stroke:none;stroke-width:0.863121px;stroke-linecap:butt;stroke-linejoin:miter;stroke-opacity:1" />
    </g>
    <path
       id="Path_10"
       data-name="Path 10"
       d="m 20.591542,15.010359 h -0.390093 a 8.8428908,8.8428908 0 0 1 0.299982,-1.985665 q 0.233371,-0.785742 0.966647,-2.185684 0.571387,-1.0761651 0.742832,-1.6523305 a 4.0390091,4.0390091 0 0 0 0.170665,-1.157207 q 0,-1.2190366 -0.642871,-1.9332944 A 2.0393993,2.0393993 0 0 0 20.162538,5.3819205 q -0.828944,0 -1.30476,0.3900914 -0.475813,0.3900916 -0.476203,0.8475716 0,0.3428904 0.285743,0.857129 0.285741,0.5142384 0.285741,0.7809638 a 0.79773744,0.79773744 0 0 1 -0.218841,0.5669982 0.69377801,0.69377802 0 0 1 -0.523795,0.2333723 q -0.419349,0 -0.742833,-0.3952607 -0.323484,-0.3952602 -0.323581,-1.0905008 0,-1.0761654 0.923834,-1.8999418 0.923835,-0.823776 2.514238,-0.823776 1.961869,0 2.885703,1.142871 a 2.9251024,2.9251024 0 0 1 0.676225,1.8666861 3.6266823,3.6266823 0 0 1 -0.309343,1.423737 q -0.30983,0.7284964 -1.176419,1.7190364 -1.380923,1.56183 -1.690755,2.214258 -0.309829,0.652429 -0.37595,1.795203 z m 0.923834,2.247902 a 1.0186269,1.0186269 0 0 1 -0.309538,0.747319 1.0186269,1.0186269 0 0 1 -0.74761,0.309537 1.029842,1.029842 0 0 1 -0.757168,-0.309537 1.0186269,1.0186269 0 0 1 -0.309441,-0.747319 1.029842,1.029842 0 0 1 0.309538,-0.757167 1.029842,1.029842 0 0 1 0.757169,-0.309539 1.0186269,1.0186269 0 0 1 0.747609,0.309539 1.029842,1.029842 0 0 1 0.309441,0.757167 z"
       style="stroke-width:0.0975232" />
  </g>
</svg>
