<?xml version="1.0" encoding="UTF-8" standalone="no"?>
<svg
   xmlns:dc="http://purl.org/dc/elements/1.1/"
   xmlns:cc="http://creativecommons.org/ns#"
   xmlns:rdf="http://www.w3.org/1999/02/22-rdf-syntax-ns#"
   xmlns:svg="http://www.w3.org/2000/svg"
   xmlns="http://www.w3.org/2000/svg"
   xmlns:sodipodi="http://sodipodi.sourceforge.net/DTD/sodipodi-0.dtd"
   xmlns:inkscape="http://www.inkscape.org/namespaces/inkscape"
   class="MuiSvgIcon-root jss174"
   focusable="false"
   viewBox="0 0 24 24"
   aria-hidden="true"
   version="1.1"
   id="svg4"
   sodipodi:docname="promos3.svg"
   inkscape:version="1.0 (4035a4fb49, 2020-05-01)">
  <metadata
     id="metadata10">
    <rdf:RDF>
      <cc:Work
         rdf:about="">
        <dc:format>image/svg+xml</dc:format>
        <dc:type
           rdf:resource="http://purl.org/dc/dcmitype/StillImage" />
        <dc:title></dc:title>
      </cc:Work>
    </rdf:RDF>
  </metadata>
  <defs
     id="defs8" />
  <sodipodi:namedview
     inkscape:document-rotation="0"
     pagecolor="#ffffff"
     bordercolor="#666666"
     borderopacity="1"
     objecttolerance="10"
     gridtolerance="10"
     guidetolerance="10"
     inkscape:pageopacity="0"
     inkscape:pageshadow="2"
     inkscape:window-width="1920"
     inkscape:window-height="1001"
     id="namedview6"
     showgrid="false"
     inkscape:snap-global="false"
     inkscape:zoom="1"
     inkscape:cx="-61.300767"
     inkscape:cy="110.42773"
     inkscape:window-x="-9"
     inkscape:window-y="-9"
     inkscape:window-maximized="1"
     inkscape:current-layer="svg4" />
  <g
     transform="translate(0.61965323,1.1048115)"
     id="g1009">
    <path
       style="fill:#000000;stroke-width:0.690425"
       d="M 3.4785195,20.394609 C 1.4085109,20.307332 0.13622943,20.164478 0.04011729,20.008151 A 0.98814984,1.3053857 0 0 1 0.10558942,19.135248 C 0.37289913,18.352016 0.97900599,17.535455 2.4483139,15.97693 2.9366823,15.459538 3.4598908,14.876279 3.6112685,14.68186 A 4.3292376,5.7190967 0 0 0 4.6222433,12.792422 C 4.733962,12.445645 5.2938241,10.380833 5.2938241,10.314968 A 6.5247922,8.619513 0 0 0 4.4180077,10.222912 9.525284,12.583284 0 0 1 2.2152439,9.9308874 11.713629,15.474175 0 0 1 4.1524975,7.9732046 L 5.1280345,7.0891965 4.7525961,6.3019983 A 2.5469638,3.3646413 0 0 1 4.2119674,4.6069804 1.3281454,1.7545335 0 0 1 4.4360272,3.4388798 3.8636959,5.1040975 0 0 1 6.5528917,1.4946885 a 2.4712755,3.2646543 0 0 1 1.6621324,0.1587089 3.849279,5.0850523 0 0 1 1.8387409,1.968791 1.6561271,2.1878106 0 0 1 0,1.7656436 7.0281782,9.2845054 0 0 1 -0.4240929,0.9641595 4.5905416,6.0642897 0 0 0 -0.3309849,0.7356181 c 0.0065,0.018249 0.4661416,0.4459733 1.0211888,0.9522566 a 14.734546,19.464924 0 0 1 1.876583,1.8783282 c 0,0.04365 -0.200032,0.09762 -0.646954,0.1745786 -0.120129,0.02063 -0.701616,0.06905 -1.290302,0.107126 -0.5886842,0.03809 -1.0902673,0.07937 -1.1154968,0.07937 a 13.1487,17.369961 0 0 0 0.6343382,2.49412 4.5124508,5.9611288 0 0 0 1.1166966,2.033069 c 0.120129,0.149187 0.480563,0.54358 0.792322,0.872904 a 14.476847,19.124496 0 0 1 2.162518,2.555221 c 0.484765,0.749903 0.707624,1.555354 0.491973,1.777546 a 10.478592,13.842641 0 0 1 -2.486894,0.34123 c -0.895042,0.05715 -7.2396249,0.08571 -8.3743446,0.03809 z"
       id="path4361" />
    <path
       id="Path_10"
       data-name="Path 10"
       d="m 19.154226,14.36522 h -0.394829 a 8.9502433,8.9502433 0 0 1 0.303624,-2.00977 q 0.236204,-0.795282 0.978382,-2.212219 0.578323,-1.08923 0.751849,-1.67239 A 4.0880423,4.0880423 0 0 0 20.96599,7.299586 q 0,-1.2338357 -0.650677,-1.9567646 a 2.0641574,2.0641574 0 0 0 -1.5953,-0.7229286 q -0.839007,0 -1.3206,0.394827 -0.481588,0.3948273 -0.481983,0.8578611 0,0.3470532 0.289211,0.8675345 0.289211,0.5204816 0.289211,0.7904446 A 0.80742195,0.80742195 0 0 1 17.274354,8.104442 0.70220043,0.70220043 0 0 1 16.7442,8.340647 q -0.42444,0 -0.751851,-0.400059 -0.32741,-0.400059 -0.327509,-1.1037395 0,-1.08923 0.93505,-1.923007 0.93505,-0.8337765 2.54476,-0.8337765 1.985686,0 2.920735,1.1567454 a 2.960613,2.960613 0 0 1 0.684434,1.8893476 3.67071,3.67071 0 0 1 -0.313098,1.441021 q -0.313592,0.73734 -1.190701,1.739905 -1.397687,1.58079 -1.711281,2.24114 -0.313591,0.660348 -0.380513,1.816996 z m 0.935048,2.275191 a 1.0309929,1.0309929 0 0 1 -0.313296,0.756392 1.0309929,1.0309929 0 0 1 -0.756685,0.313294 1.0423442,1.0423442 0 0 1 -0.76636,-0.313294 1.0309929,1.0309929 0 0 1 -0.313197,-0.756392 1.0423442,1.0423442 0 0 1 0.313295,-0.766358 1.0423442,1.0423442 0 0 1 0.766361,-0.313297 1.0309929,1.0309929 0 0 1 0.756685,0.313297 1.0423442,1.0423442 0 0 1 0.313197,0.766358 z"
       style="stroke-width:0.0987067" />
  </g>
</svg>
