<?xml version="1.0" encoding="UTF-8" standalone="no"?>
<svg
   xmlns:dc="http://purl.org/dc/elements/1.1/"
   xmlns:cc="http://creativecommons.org/ns#"
   xmlns:rdf="http://www.w3.org/1999/02/22-rdf-syntax-ns#"
   xmlns:svg="http://www.w3.org/2000/svg"
   xmlns="http://www.w3.org/2000/svg"
   xmlns:sodipodi="http://sodipodi.sourceforge.net/DTD/sodipodi-0.dtd"
   xmlns:inkscape="http://www.inkscape.org/namespaces/inkscape"
   inkscape:version="1.0 (4035a4fb49, 2020-05-01)"
   sodipodi:docname="promos.svg"
   id="svg4"
   version="1.1"
   aria-hidden="true"
   viewBox="0 0 24 24"
   focusable="false"
   class="MuiSvgIcon-root jss174">
  <metadata
     id="metadata10">
    <rdf:RDF>
      <cc:Work
         rdf:about="">
        <dc:format>image/svg+xml</dc:format>
        <dc:type
           rdf:resource="http://purl.org/dc/dcmitype/StillImage" />
      </cc:Work>
    </rdf:RDF>
  </metadata>
  <defs
     id="defs8" />
  <sodipodi:namedview
     inkscape:current-layer="svg4"
     inkscape:window-maximized="1"
     inkscape:window-y="-9"
     inkscape:window-x="-9"
     inkscape:cy="-188.08173"
     inkscape:cx="-51.866709"
     inkscape:zoom="1"
     inkscape:snap-global="true"
     showgrid="false"
     id="namedview6"
     inkscape:window-height="1001"
     inkscape:window-width="1920"
     inkscape:pageshadow="2"
     inkscape:pageopacity="0"
     guidetolerance="10"
     gridtolerance="10"
     objecttolerance="10"
     borderopacity="1"
     bordercolor="#666666"
     pagecolor="#ffffff" />
  <g
     transform="matrix(1.0033395,0,0,1,0.0056956,0.58811835)"
     id="g1007">
    <path
       id="path4361"
       d="m 15.893372,18.396534 c -1.516952,-0.06418 -2.44931,-0.169208 -2.519743,-0.284152 a 0.72413993,0.95981256 0 0 1 0.04798,-0.64182 c 0.195891,-0.575887 0.64006,-1.176281 1.716805,-2.322221 0.357888,-0.380424 0.741308,-0.809276 0.85224,-0.952227 a 3.1725693,4.2050876 0 0 0 0.740868,-1.389249 c 0.08188,-0.254977 0.492151,-1.773173 0.492151,-1.821601 a 4.7815246,6.3376803 0 0 0 -0.641817,-0.06768 6.9803568,9.2521263 0 0 1 -1.614238,-0.214718 8.5840294,11.377717 0 0 1 1.419667,-1.4394266 l 0.714895,-0.649989 -0.275129,-0.578805 a 1.8664762,2.4739242 0 0 1 -0.396186,-1.246297 0.97329689,1.2900581 0 0 1 0.164197,-0.8588716 2.8314092,3.7528963 0 0 1 1.551288,-1.429508 1.8110101,2.4004066 0 0 1 1.218052,0.116694 2.8208442,3.738893 0 0 1 1.347473,1.4475956 1.2136497,1.6086342 0 0 1 0,1.298227 5.1504178,6.8266304 0 0 1 -0.310786,0.708919 3.3640592,4.4588982 0 0 0 -0.242554,0.540879 c 0.0048,0.01342 0.3416,0.327912 0.748351,0.700167 a 10.797829,14.312001 0 0 1 1.375206,1.3810796 c 0,0.03209 -0.146589,0.07177 -0.474102,0.128364 -0.08804,0.01517 -0.514162,0.05076 -0.945565,0.07877 -0.431402,0.02801 -0.798975,0.05835 -0.817463,0.05835 a 9.6356836,12.771634 0 0 0 0.464858,1.833855 3.3068323,4.3830468 0 0 0 0.818344,1.494857 c 0.08804,0.109693 0.352166,0.399679 0.580633,0.64182 a 10.60898,14.061692 0 0 1 1.584744,1.878782 c 0.355246,0.551382 0.518563,1.143606 0.360529,1.306979 A 7.6789644,10.178097 0 0 1 22.031614,18.3662 c -0.655908,0.04201 -5.30537,0.06302 -6.136921,0.02801 z"
       style="fill:#000000;stroke-width:0.506803" />
    <path
       id="rect943"
       style="fill:#000000;stroke-width:0.609197;stroke-linejoin:round"
       d="M -0.00567664,14.396256 11.908767,14.380631 v 2.03125 l -11.90663114,0.0078 z"
       sodipodi:nodetypes="ccccc" />
    <path
       id="rect943-0"
       style="fill:#000000;stroke-width:0.670949;stroke-linejoin:round"
       d="M 9.4381008e-4,10.380632 H 14.46274 v 2.03125 H 9.4381008e-4 Z" />
    <rect
       style="fill:#000000;stroke-width:0.672487;stroke-linejoin:round"
       id="rect943-0-0"
       width="14.528152"
       height="2.03125"
       x="0.0017966399"
       y="6.3493819" />
  </g>
</svg>
