<?xml version="1.0" encoding="UTF-8" standalone="no"?>
<svg
   xmlns:dc="http://purl.org/dc/elements/1.1/"
   xmlns:cc="http://creativecommons.org/ns#"
   xmlns:rdf="http://www.w3.org/1999/02/22-rdf-syntax-ns#"
   xmlns:svg="http://www.w3.org/2000/svg"
   xmlns="http://www.w3.org/2000/svg"
   xmlns:sodipodi="http://sodipodi.sourceforge.net/DTD/sodipodi-0.dtd"
   xmlns:inkscape="http://www.inkscape.org/namespaces/inkscape"
   inkscape:version="1.0 (4035a4fb49, 2020-05-01)"
   sodipodi:docname="promos3.svg"
   id="svg4"
   version="1.1"
   aria-hidden="true"
   viewBox="0 0 24 24"
   focusable="false"
   class="MuiSvgIcon-root jss174">
  <metadata
     id="metadata10">
    <rdf:RDF>
      <cc:Work
         rdf:about="">
        <dc:format>image/svg+xml</dc:format>
        <dc:type
           rdf:resource="http://purl.org/dc/dcmitype/StillImage" />
        <dc:title />
      </cc:Work>
    </rdf:RDF>
  </metadata>
  <defs
     id="defs8" />
  <sodipodi:namedview
     inkscape:current-layer="svg4"
     inkscape:window-maximized="1"
     inkscape:window-y="-9"
     inkscape:window-x="83"
     inkscape:cy="-59.087971"
     inkscape:cx="106.766"
     inkscape:zoom="1.7327831"
     inkscape:snap-global="false"
     showgrid="false"
     id="namedview6"
     inkscape:window-height="1051"
     inkscape:window-width="1828"
     inkscape:pageshadow="2"
     inkscape:pageopacity="0"
     guidetolerance="10"
     gridtolerance="10"
     objecttolerance="10"
     borderopacity="1"
     bordercolor="#666666"
     pagecolor="#ffffff"
     inkscape:document-rotation="0" />
  <path
     sodipodi:nodetypes="ccccccccccccccccccccsccccccccscccccccccccccccscc"
     id="path2630-3"
     d="m 7.892203,13.646502 c 0.300307,0.256563 0.5862949,0.516763 0.8565267,0.779291 0.7088437,0.697988 1.3297373,1.403871 1.8503303,2.103609 0.458749,0.73692 0.799487,1.453346 1.015283,2.134698 0.180432,0.496643 0.175966,0.935396 -0.01303,1.280066 -0.165335,0.139067 -0.155318,0.37961 0.02733,0.656271 0.09665,0.143779 0.284535,0.289663 0.496266,0.385323 0.24799,0.116476 0.496127,0.17465 0.683474,0.160236 0.193636,0.0098 0.310363,-0.06126 0.310013,-0.188712 0.01475,-0.123787 -0.07158,-0.286151 -0.237313,-0.446337 -0.197334,-0.172515 -0.341106,-0.353229 -0.413315,-0.519514 -0.03549,-0.431935 0.173698,-0.759176 0.596588,-0.933262 0.109792,-0.0108 0.130566,-0.0056 0.279461,0.07145 0.189783,0.09785 0.334699,0.21648 1.143079,0.939058 0.788472,0.687013 1.536605,1.383268 2.240382,2.08503 0.233361,0.221525 0.356166,0.447471 0.33671,0.619504 -0.0072,0.06738 0.0063,0.143402 0.03997,0.22511 0.231804,0.407807 1.060812,0.959391 1.487184,0.989736 0.105302,0.01743 0.17832,-0.0071 0.192065,-0.06447 0.08529,-0.198275 0.0057,-0.473049 -0.222531,-0.767975 -0.14207,-0.177934 -0.14207,-0.177934 -0.3265,-0.278384 -0.184432,-0.10045 -0.186682,-0.103045 -0.310367,-0.259763 -0.421546,-0.692954 -0.726643,-1.364718 -0.908567,-2.000486 -0.243451,-0.724255 -0.251715,-0.863648 -0.04996,-0.86839 0.169679,-0.0043 0.370266,0.10133 0.973735,0.512638 0.95236,0.668522 1.869119,1.357926 2.743926,2.063433 0.123349,0.103618 0.235973,0.21001 0.335933,0.317345 0.09268,0.08927 0.132515,0.179149 0.106095,0.239399 -0.01175,0.103458 -0.01099,0.104327 0.147205,0.271007 0.378427,0.400896 1.146344,0.843386 1.464294,0.843416 0.129817,1.2e-5 0.178181,-0.0489 0.192425,-0.193919 0.0087,-0.157309 -0.07171,-0.348652 -0.230539,-0.548504 -0.09456,-0.156949 -0.287131,-0.321344 -0.516783,-0.441168 -0.366127,-0.196577 -0.416352,-0.238138 -0.735051,-0.608726 -0.444155,-0.54406 -0.816142,-1.084003 -1.109517,-1.610475 -0.301893,-0.458945 -0.570865,-0.913154 -0.805753,-1.360664 -0.05102,-0.107207 0.0051,-0.178964 0.138735,-0.177471 0.56896,0.13748 1.170965,0.365466 1.755047,0.664656 0.426599,0.193413 0.797347,0.494701 0.958963,0.779301 0.06707,0.112157 0.187073,0.229831 0.338177,0.331629 0.412643,0.297905 0.937707,0.420414 1.139646,0.265904 0.363981,-0.152775 -0.136766,-0.708228 -0.950914,-1.055486 -0.410279,-0.165078 -0.819492,-0.358106 -1.218066,-0.574564 -2.576689,-1.598078 -4.578847,-3.41007 -6.117513,-5.651149 l -0.126576,-0.212129 -3.805776,-3.61e-4 c -3.6145984,-3.41e-4 -3.8032385,-3.6e-4 -3.7515137,0.04293 z"
     style="stroke-width:0.46853" />
  <path
     id="path4361-2"
     d="m 9.5945443,12.329857 c -1.331763,-0.05616 -2.1503,-0.148057 -2.2121357,-0.248631 a 0.63573775,0.83983514 0 0 1 0.04212,-0.561594 C 7.5965059,11.01573 7.9864517,10.490385 8.9317486,9.4876911 9.2459451,9.1548204 9.5825588,8.779575 9.6799493,8.6544925 A 2.7852656,3.6794479 0 0 0 10.330371,7.4389012 c 0.07188,-0.2231034 0.432068,-1.5515231 0.432068,-1.5938988 A 4.1978014,5.5454644 0 0 0 10.198975,5.7857725 6.1282029,8.0956028 0 0 1 8.7818003,5.5978943 7.5361001,9.9554915 0 0 1 10.028154,4.3383968 L 10.65578,3.7696619 10.414236,3.2632096 a 1.638619,2.1646812 0 0 1 -0.347819,-1.0905098 0.85447787,1.1287996 0 0 1 0.14415,-0.7515116 2.4857539,3.2837808 0 0 1 1.361912,-1.25081757 1.5899241,2.1003534 0 0 1 1.069352,0.10210495 2.4764787,3.2715278 0 0 1 1.182976,1.26664482 1.0654888,1.4075536 0 0 1 0,1.1359477 4.5216604,5.973295 0 0 1 -0.272845,0.6203025 2.9533786,3.9015317 0 0 0 -0.212945,0.4732684 c 0.0041,0.011739 0.299899,0.286922 0.656994,0.6126455 a 9.4796428,12.522986 0 0 1 1.207323,1.208445 c 0,0.028083 -0.128694,0.062807 -0.416227,0.1123165 -0.07729,0.013271 -0.451392,0.044428 -0.830132,0.068923 -0.378734,0.024506 -0.701433,0.051058 -0.717666,0.051058 a 8.4593697,11.175167 0 0 0 0.40811,1.6046213 2.903138,3.8351618 0 0 0 0.71844,1.3079987 c 0.07729,0.095979 0.309174,0.3497186 0.509748,0.561593 a 9.3138489,12.303968 0 0 1 1.391281,1.643933 c 0.31188,0.482457 0.455259,1.000654 0.316516,1.143604 a 6.7415246,8.9058253 0 0 1 -1.599971,0.219535 c -0.575836,0.03676 -4.657699,0.05515 -5.3877326,0.02452 z"
     style="fill:#000000;stroke-width:0.444193" />
</svg>
