<?xml version="1.0" encoding="UTF-8" standalone="no"?>
<svg
   xmlns:dc="http://purl.org/dc/elements/1.1/"
   xmlns:cc="http://creativecommons.org/ns#"
   xmlns:rdf="http://www.w3.org/1999/02/22-rdf-syntax-ns#"
   xmlns:svg="http://www.w3.org/2000/svg"
   xmlns="http://www.w3.org/2000/svg"
   xmlns:sodipodi="http://sodipodi.sourceforge.net/DTD/sodipodi-0.dtd"
   xmlns:inkscape="http://www.inkscape.org/namespaces/inkscape"
   inkscape:version="1.0 (4035a4fb49, 2020-05-01)"
   sodipodi:docname="promos4.sg.svg"
   id="svg4"
   version="1.1"
   aria-hidden="true"
   viewBox="0 0 24 24"
   focusable="false"
   class="MuiSvgIcon-root jss174">
  <metadata
     id="metadata10">
    <rdf:RDF>
      <cc:Work
         rdf:about="">
        <dc:format>image/svg+xml</dc:format>
        <dc:type
           rdf:resource="http://purl.org/dc/dcmitype/StillImage" />
        <dc:title></dc:title>
      </cc:Work>
    </rdf:RDF>
  </metadata>
  <defs
     id="defs8" />
  <sodipodi:namedview
     inkscape:current-layer="svg4"
     inkscape:window-maximized="1"
     inkscape:window-y="-9"
     inkscape:window-x="83"
     inkscape:cy="-13.872396"
     inkscape:cx="-332.23348"
     inkscape:zoom="1.4142136"
     inkscape:snap-global="false"
     showgrid="false"
     id="namedview6"
     inkscape:window-height="1051"
     inkscape:window-width="1828"
     inkscape:pageshadow="2"
     inkscape:pageopacity="0"
     guidetolerance="10"
     gridtolerance="10"
     objecttolerance="10"
     borderopacity="1"
     bordercolor="#666666"
     pagecolor="#ffffff"
     inkscape:document-rotation="0" />
  <path
     style="fill:#000000;stroke-width:0.690425"
     d="m 8.3481727,23.87442 c -2.0700086,-0.08728 -3.34229,-0.230131 -3.4384022,-0.386457 a 0.98814984,1.3053857 0 0 1 0.065472,-0.872904 C 5.2425524,21.831827 5.8486592,21.015266 7.3179671,19.456741 7.8063355,18.939349 8.329544,18.356091 8.4809217,18.161672 A 4.3292376,5.7190967 0 0 0 9.4918965,16.272234 C 9.6036152,15.925457 10.163477,13.860645 10.163477,13.79478 A 6.5247922,8.619513 0 0 0 9.2876609,13.702724 9.525284,12.583284 0 0 1 7.0848971,13.410699 11.713629,15.474175 0 0 1 9.0221507,11.453016 L 9.9976877,10.569008 9.6222493,9.7818098 A 2.5469638,3.3646413 0 0 1 9.0816206,8.0867919 1.3281454,1.7545335 0 0 1 9.3056804,6.9186913 3.8636959,5.1040975 0 0 1 11.422545,4.9745 a 2.4712755,3.2646543 0 0 1 1.662132,0.1587089 3.849279,5.0850523 0 0 1 1.838741,1.968791 1.6561271,2.1878106 0 0 1 0,1.7656436 7.0281782,9.2845054 0 0 1 -0.424093,0.9641595 4.5905416,6.0642897 0 0 0 -0.330985,0.735618 c 0.0065,0.01825 0.466142,0.445973 1.021189,0.952257 a 14.734546,19.464924 0 0 1 1.876583,1.878328 c 0,0.04365 -0.200032,0.09762 -0.646954,0.174579 -0.120129,0.02063 -0.701616,0.06905 -1.290302,0.107125 -0.588684,0.03809 -1.090267,0.07937 -1.115497,0.07937 a 13.1487,17.369961 0 0 0 0.634339,2.49412 4.5124508,5.9611288 0 0 0 1.116696,2.033069 c 0.120129,0.149186 0.480563,0.543579 0.792322,0.872903 a 14.476847,19.124496 0 0 1 2.162518,2.555221 c 0.484765,0.749903 0.707624,1.555355 0.491973,1.777547 a 10.478592,13.842641 0 0 1 -2.486894,0.34123 c -0.895042,0.05715 -7.2396247,0.08571 -8.3743444,0.03809 z"
     id="path4361" />
  <path
     sodipodi:nodetypes="csccccccccccccccccsccsccccscccccsccccccccccssccccscccsssss"
     style="stroke:#ff0000;stroke-width:0.1;stroke-miterlimit:4;stroke-dasharray:none;stroke-opacity:1"
     id="path1510"
     d="m 20.33928,-2.0498204 c 9.2e-5,-0.063638 -0.05144,-0.1153134 -0.115083,-0.1154056 -0.0021,0 -0.0041,4.61e-5 -0.0062,1.613e-4 -0.645553,0.062532 -1.138084,0.6050557 -1.138153,1.25362771 v 0.2800436 c -1.15e-4,0.1544735 -0.12534,0.279675 -0.279813,0.2798132 h -0.280044 c -0.69566,9.22e-5 -1.259551,0.564121 -1.259436,1.2597818 0,0.041142 0.002,0.082215 0.006,0.12314999 0.08166,0.6570309 0.645553,1.1467962 1.307562,1.1356175 h 0.19315 c 0.06428,2.996e-4 0.116166,0.052644 0.115866,0.1169269 -1.38e-4,0.028696 -0.01086,0.056331 -0.03012,0.077606 -0.628727,0.6718513 -1.512074,1.0467411 -2.432116,1.0321281 -0.989487,0 -2.058263,-0.4042771 -2.65592,-1.0307452 -0.04391,-0.04695 -0.04147,-0.1205916 0.0055,-0.1645227 0.0215,-0.020122 0.04988,-0.031347 0.07934,-0.031393 h 0.47204 c 0.695546,4.61e-5 1.259436,-0.5637752 1.259482,-1.25929769 0,-0.041303 -0.002,-0.082561 -0.0061,-0.1236341 -0.08166,-0.6570309 -0.645553,-1.1467962 -1.307562,-1.1356175 H 14.0421 c -0.154565,0 -0.279905,-0.1252475 -0.280043,-0.2798132 v -0.2258788 c 0.01106,-0.66203251 -0.478771,-1.22592291 -1.135848,-1.30756201 -0.692181,-0.068225 -1.308623,0.4375827 -1.376847,1.1297631 -0.0041,0.041096 -0.0061,0.082353 -0.0061,0.12363411 v 0.2800436 c -1.39e-4,0.1544735 -0.12534,0.279675 -0.279813,0.2798132 H 10.73757 c -0.66201,-0.011179 -1.2259,0.4785866 -1.307562,1.1356175 -0.06822,0.69218039 0.437582,1.30862229 1.129763,1.37684689 0.0411,0.00406 0.08235,0.00608 0.123634,0.00608 h 0.472041 c 0.06428,9.22e-5 0.116304,0.052298 0.116212,0.1165812 -4.6e-5,0.029456 -0.01127,0.057806 -0.03139,0.079334 C 10.642611,2.9893476 9.573836,3.3936247 8.584348,3.3936247 7.6643065,3.4082377 6.7809357,3.0333479 6.1522319,2.3614966 c -0.043147,-0.047642 -0.039506,-0.1212601 0.00814,-0.1644075 0.021274,-0.019269 0.04891,-0.029987 0.077606,-0.030125 h 0.1931494 c 0.6620095,0.011179 1.2258999,-0.4785866 1.307562,-1.1356175 0.068109,-0.69231869 -0.4379284,-1.30878359 -1.130247,-1.37686989 -0.040935,-0.00403 -0.082031,-0.00606 -0.1231501,-0.00606 H 6.2054868 c -0.1545657,0 -0.2799054,-0.1252475 -0.2800437,-0.2798132 v -0.2802741 C 5.9253739,-1.5602426 5.4328428,-2.1027437 4.7872902,-2.1652983 c -0.063569,-0.00332 -0.1177797,0.045545 -0.1210756,0.1090903 -1.153e-4,0.00205 -9.804e-4,0.00427 -1.614e-4,0.00615 L 8.9514755,7.7781675 C 10.48683,3.4817965 14.393679,3.9727048 15.236916,8.5229964 Z m -7.836613,3.5665811 c -0.381897,0 -0.691466,-0.3095693 -0.691466,-0.69146589 0,-0.3818966 0.309569,-0.6914659 0.691466,-0.6914659 0.381896,0 0.691466,0.3095693 0.691466,0.6914659 0,0.38189659 -0.30957,0.69146589 -0.691466,0.69146589 z" />
</svg>
