<?xml version="1.0" encoding="UTF-8" standalone="no"?>
<svg
   xmlns:dc="http://purl.org/dc/elements/1.1/"
   xmlns:cc="http://creativecommons.org/ns#"
   xmlns:rdf="http://www.w3.org/1999/02/22-rdf-syntax-ns#"
   xmlns:svg="http://www.w3.org/2000/svg"
   xmlns="http://www.w3.org/2000/svg"
   xmlns:sodipodi="http://sodipodi.sourceforge.net/DTD/sodipodi-0.dtd"
   xmlns:inkscape="http://www.inkscape.org/namespaces/inkscape"
   class="MuiSvgIcon-root jss174"
   focusable="false"
   viewBox="0 0 24 24"
   aria-hidden="true"
   version="1.1"
   id="svg4"
   sodipodi:docname="subs-alt2.svg"
   inkscape:version="1.0 (4035a4fb49, 2020-05-01)">
  <metadata
     id="metadata10">
    <rdf:RDF>
      <cc:Work
         rdf:about="">
        <dc:format>image/svg+xml</dc:format>
        <dc:type
           rdf:resource="http://purl.org/dc/dcmitype/StillImage" />
        <dc:title></dc:title>
      </cc:Work>
    </rdf:RDF>
  </metadata>
  <defs
     id="defs8" />
  <sodipodi:namedview
     inkscape:document-rotation="0"
     pagecolor="#ffffff"
     bordercolor="#666666"
     borderopacity="1"
     objecttolerance="10"
     gridtolerance="10"
     guidetolerance="10"
     inkscape:pageopacity="0"
     inkscape:pageshadow="2"
     inkscape:window-width="1920"
     inkscape:window-height="1001"
     id="namedview6"
     showgrid="false"
     inkscape:snap-global="false"
     inkscape:zoom="4"
     inkscape:cx="-44.939383"
     inkscape:cy="1.0562813"
     inkscape:window-x="-9"
     inkscape:window-y="-9"
     inkscape:window-maximized="1"
     inkscape:current-layer="svg4" />
  <path
     d="m 2,21.979896 c 0,-0.07499 0.1668603,-1.030434 0.2021133,-1.156799 0.09225,-0.331856 0.2624825,-0.524967 0.7192047,-0.79982 0.2624825,-0.159373 0.2707325,-0.166861 0.304106,-0.267733 a 9.1317868,9.1317868 0 0 0 0.2478575,-1.439155 c 0.04128,-0.364851 0.2399839,-2.59821 0.2317353,-2.603835 -0.072375,-0.04763 -0.604087,-0.425595 -0.7255782,-0.515592 A 1.5021532,1.5021532 0 0 1 2.7338282,14.969354 C 2.589468,14.779613 2.58009,14.716244 2.5684619,13.830551 l -0.0102,-0.792699 h 0.7874488 c 0.4844664,0 0.8328194,0.0087 0.903315,0.02205 0.1642503,0.0315 0.1841164,0.06823 0.1957264,0.356978 0.0123,0.302231 0.03747,0.392599 0.1331102,0.467594 0.089625,0.07049 0.2073543,0.09038 0.4664678,0.07797 0.2088648,-0.0098 0.2999825,-0.04575 0.3663531,-0.145471 0.0375,-0.054 0.04353,-0.1125 0.049875,-0.428601 l 0.0075,-0.365976 1.0083107,-0.0147 c 1.1410519,-0.01692 1.1545489,-0.01566 1.1924224,0.107221 a 0.84669545,0.84669545 0 0 1 0.02397,0.195366 1.6521436,1.6521436 0 0 0 0.07725,0.562463 c 0.05025,0.06861 0.1432203,0.09488 0.3374766,0.09488 a 0.56246375,0.56246375 0 0 0 0.2624824,-0.04538 c 0.1499703,-0.06864 0.1811223,-0.14061 0.1994823,-0.481092 0.01692,-0.31798 0.033,-0.349105 0.1957474,-0.382852 0.04839,-0.01005 0.4447192,-0.01845 0.8808164,-0.01866 h 0.7923256 v 0.740203 c 0,0.416599 -0.0102,0.798324 -0.02361,0.87107 -0.05138,0.284231 -0.14547,0.385848 -0.7585755,0.818946 -0.3209811,0.224973 -0.3427281,0.246357 -0.3427281,0.310104 0,0.130125 0.2039808,2.356351 0.2486089,2.717451 a 6.7896878,6.7896878 0 0 0 0.2429824,1.303789 1.0874299,1.0874299 0 0 0 0.2771093,0.214106 1.7953843,1.7953843 0 0 1 0.541838,0.434973 c 0.146986,0.201349 0.193496,0.367849 0.296983,1.054804 0.03188,0.210732 0.06263,0.40835 0.06825,0.439095 L 11,21.999654 H 6.500288 c -2.8846893,0 -4.499709,-0.0072 -4.499709,-0.01956 z"
     id="path3097"
     style="stroke-width:0.374977" />
  <path
     id="path2055-0-2"
     d="m 13.189875,21.945028 c 0.02955,-0.267717 0.132465,-0.522075 0.297387,-0.73503 0.200528,-0.186411 0.459512,-0.297479 0.73278,-0.314264 0.08926,-0.01245 0.41702,-0.03036 0.728283,-0.04012 0.484098,0.02978 0.968898,-0.04583 1.420932,-0.221625 0.164628,-0.08063 0.225011,-0.14364 0.225011,-0.23026 0,-0.126375 -0.174384,-0.187515 -0.576775,-0.205515 -0.109439,-0.0018 -0.218607,-0.0117 -0.326638,-0.02925 -0.0585,-0.02091 -0.057,-0.02962 0.04913,-0.308262 0.05372,-0.12429 0.08323,-0.257672 0.08701,-0.393014 0.01692,-0.310515 -0.05289,-0.483397 -0.407643,-1.012543 -0.382515,-0.572274 -0.49277,-0.831411 -0.50927,-1.197801 -0.015,-0.231221 0.02868,-0.462474 0.12675,-0.672401 0.191864,-0.423405 0.469475,-0.802404 0.815285,-1.113046 0.300744,-0.290619 0.629197,-0.551123 0.980665,-0.777786 0.238886,-0.168012 0.445895,-0.319136 0.46052,-0.337512 0.0375,-0.045 0.01455,-0.108 -0.09075,-0.240387 -0.15687,-0.206346 -0.210753,-0.473103 -0.14625,-0.724152 0.05824,-0.1701 0.192039,-0.303615 0.362264,-0.361518 0.23965,-0.06552 0.49591,-0.02454 0.703153,0.1125 0.06072,0.05439 0.110055,0.12027 0.14514,0.193884 0.05582,0.09513 0.07949,0.20574 0.0675,0.315387 0.0144,0.167688 -0.04569,0.333207 -0.16425,0.452646 -0.16875,0.196131 -0.15939,0.225009 0.13839,0.432018 0.63035,0.419322 1.201811,0.921036 1.699196,1.491813 0.161063,0.223266 0.288903,0.468696 0.379515,0.728652 0.04363,0.14307 0.05955,0.293119 0.04687,0.442143 0.0138,0.152424 -0.0047,0.306043 -0.05438,0.450771 -0.11169,0.288628 -0.260585,0.561441 -0.442893,0.811533 -0.44627,0.660777 -0.502146,0.922164 -0.306014,1.429935 0.03219,0.07488 0.0573,0.152604 0.075,0.232135 0,0.05213 -0.06375,0.06788 -0.27901,0.06788 -0.548273,0 -0.787535,0.14064 -0.588774,0.34839 0.183007,0.192375 0.644652,0.284636 1.572439,0.314639 0.325139,0.0105 0.654402,0.02887 0.730905,0.0405 0.528023,0.08137 0.769533,0.243759 0.909789,0.610524 0.0541,0.155538 0.09612,0.31501 0.125625,0.477019 -0.413177,0.02502 -0.827358,0.02887 -1.240927,0.0117 -1.334306,-0.0102 -1.584068,-0.02622 -1.980458,-0.1245 -0.430893,-0.1065 -0.651027,-0.271138 -1.07517,-0.804784 -0.0605,-0.081 -0.12627,-0.157896 -0.196883,-0.230259 -0.07021,0.0702 -0.135269,0.14538 -0.194634,0.225009 -0.236016,0.379419 -0.600366,0.66153 -1.026792,0.795033 -0.390016,0.1125 -0.911287,0.14364 -2.281221,0.144 h -1.003905 z"
     style="fill:#000000;stroke:none;stroke-width:0.750031;stroke-miterlimit:4;stroke-dasharray:none;stroke-opacity:1"
     sodipodi:nodetypes="cccccscccccccccccccccccccccccccscccccccccccccc" />
  <path
     d="m 15.648044,10.978547 c -0.855558,-0.01823 -1.143493,-0.05137 -1.194856,-0.13759 a 2.3567273,2.3567273 0 0 1 0.197947,-0.9905312 c 0.281188,-0.7543299 0.749834,-1.4884173 1.070763,-1.6788755 a 0.62686097,0.62686097 0 0 1 0.19458,-0.071622 0.98303199,0.98303199 0 0 0 0.459274,-0.2624404 1.2207293,1.2207293 0 0 1 0.838312,-0.3096811 2.3192356,2.3192356 0 0 0 1.10788,-0.3483002 2.6427888,2.6427888 0 0 0 0.549626,-0.4791479 1.9675638,1.9675638 0 0 0 0.295811,-0.5473822 1.4149361,1.4149361 0 0 0 0.04912,-0.5155096 c 0,-0.3722926 -0.0056,-0.4007866 -0.08622,-0.4015354 A 3.5410899,3.5410899 0 0 0 18.86559,5.6674621 3.3982464,3.3982464 0 0 1 18.207237,6.5931309 c -0.372294,0.3329284 -0.805323,0.4525276 -1.724619,0.4765216 -1.062141,0.027738 -1.091758,0.040122 -1.717119,0.7100914 L 14.59115,7.9672141 14.072641,7.6871501 13.52301,7.3905872 c -0.02365,-0.01242 -0.0065,-0.03186 0.07499,-0.08136 0.44353,-0.2763091 0.501265,-0.3321739 0.449902,-0.4333989 a 0.56987362,0.56987362 0 0 0 -0.385416,-0.12672 0.49676485,0.49676485 0 0 0 -0.34867,0.121482 0.44990022,0.44990022 0 0 1 -0.200959,0.1124821 c -0.01244,0 -0.03751,-0.045738 -0.0585,-0.1019881 A 2.8242488,2.8242488 0 0 1 13.009,6.1687409 L 13,5.5576278 13.418408,5.3053108 C 14.448305,4.6840762 15.09916,4.261544 15.573054,3.9057484 A 12.880643,12.880643 0 0 1 16.724048,3.147665 4.2654288,4.2654288 0 0 0 17.923783,2.2062499 c 0.187455,-0.2249551 0.239939,-0.2508175 0.333302,-0.1499941 a 1.4996674,1.4996674 0 0 1 0.160849,0.2890621 c 0.201339,0.4498996 0.449897,0.690972 1.148742,1.1075031 a 5.3800568,5.3800568 0 0 1 1.533412,1.336953 2.5828022,2.5828022 0 0 1 0.50501,1.0561402 12.384628,12.384628 0 0 1 0.142486,2.0013081 c 0,0.8409355 0.05362,2.0245497 0.109451,2.4542047 a 6.6735201,6.6735201 0 0 0 0.142486,0.664354 c 0.01069,0.03224 -0.134219,0.03373 -2.838121,0.03074 -1.566777,-0.0018 -3.146678,-0.0092 -3.51072,-0.01728 z"
     id="path3827"
     style="stroke-width:0.374916" />
  <path
     style="stroke-width:0.374958"
     d="M 3.6994023,10.96296 A 5.944197,5.944197 0 0 0 3.833277,10.288038 7.9115976,7.9115976 0 0 0 3.853077,8.4661169 8.3690455,8.3690455 0 0 0 3.2355238,6.6172042 2.9535382,2.9535382 0 0 0 2.4053668,5.5084549 0.81778172,0.81778172 0 0 1 2.0049116,4.9400201 0.36333357,0.36333357 0 0 1 2.124919,4.6063092 0.52681492,0.52681492 0 0 1 2.5276211,4.4675819 0.40420388,0.40420388 0 0 1 2.8778329,4.6310468 0.49194385,0.49194385 0 0 1 2.9884575,5.017629 0.78028601,0.78028601 0 0 0 3.0157725,5.4675779 2.0960109,2.0960109 0 0 0 4.0551551,6.2759832 c 0.088126,0.00926 0.1001093,0.00488 0.1608672,-0.061867 0.07761,-0.084754 0.1087499,-0.1874832 0.2433582,-0.8132859 A 15.327876,15.327876 0 0 0 4.7795981,3.5950348 0.67154841,0.67154841 0 0 0 4.6314885,3.0584724 0.70191992,0.70191992 0 0 1 4.5167237,2.8635074 c -0.09,-0.3532099 0.1694802,-0.8309047 0.4653231,-0.8571511 a 0.19347793,0.19347793 0 0 1 0.1833686,0.055851 1.0033856,1.0033856 0 0 1 0.3277104,0.6651742 c 0.009,0.1541049 0.009,0.1541049 -0.063,0.241122 -0.072,0.086993 -0.072,0.089254 -0.063,0.2249728 a 7.5775106,7.5775106 0 0 0 0.6104315,1.7326778 c 0.2842225,0.6273025 0.367456,0.7480412 0.5196891,0.7521632 0.1282648,0.00386 0.2088521,-0.087734 0.3914558,-0.443948 a 14.138138,14.138138 0 0 0 0.7064191,-1.7870438 1.3003518,1.3003518 0 0 0 0.045,-0.2748306 0.2332234,0.2332234 0 0 0 -0.075015,-0.2073597 C 7.4900913,2.8755218 7.4900913,2.8747748 7.5002602,2.7304164 7.5231506,2.3832057 7.8073546,2 8.0424491,2 c 0.096,0 0.1631052,0.042351 0.266581,0.1679649 A 0.85265273,0.85265273 0 0 1 8.4901365,2.643037 0.43045093,0.43045093 0 0 1 8.3907766,3.0251189 C 8.2460569,3.1953464 8.2355645,3.2313465 8.2374169,3.5523084 a 6.5640013,6.5640013 0 0 0 0.2118597,1.3948425 11.271214,11.271214 0 0 0 0.2763295,1.1784885 0.22497432,0.22497432 0 0 0 0.2163595,0.1537198 2.1987491,2.1987491 0 0 0 0.8717757,-0.5755608 0.67492304,0.67492304 0 0 0 0.2096197,-0.67492 0.41620253,0.41620253 0 0 1 0.0375,-0.2872223 0.48406982,0.48406982 0 0 1 0.672297,-0.2302187 c 0.367085,0.1323522 0.352834,0.6134271 -0.02668,0.9141437 A 2.9175421,2.9175421 0 0 0 10.174035,5.9231479 6.0086899,6.0086899 0 0 0 9.1117802,9.5932327 11.202972,11.202972 0 0 0 9.2726489,10.817466 l 0.042359,0.183729 H 6.5009543 c -2.6726932,0 -2.8121796,0 -2.801678,-0.03748 z"
     id="path2630-1" />
</svg>
