<?xml version="1.0" encoding="UTF-8" standalone="no"?>
<svg
   xmlns:dc="http://purl.org/dc/elements/1.1/"
   xmlns:cc="http://creativecommons.org/ns#"
   xmlns:rdf="http://www.w3.org/1999/02/22-rdf-syntax-ns#"
   xmlns:svg="http://www.w3.org/2000/svg"
   xmlns="http://www.w3.org/2000/svg"
   xmlns:sodipodi="http://sodipodi.sourceforge.net/DTD/sodipodi-0.dtd"
   xmlns:inkscape="http://www.inkscape.org/namespaces/inkscape"
   inkscape:version="1.0 (4035a4fb49, 2020-05-01)"
   sodipodi:docname="subs-alt.svg"
   id="svg4"
   version="1.1"
   aria-hidden="true"
   viewBox="0 0 24 24"
   focusable="false"
   class="MuiSvgIcon-root jss174">
  <metadata
     id="metadata10">
    <rdf:RDF>
      <cc:Work
         rdf:about="">
        <dc:format>image/svg+xml</dc:format>
        <dc:type
           rdf:resource="http://purl.org/dc/dcmitype/StillImage" />
      </cc:Work>
    </rdf:RDF>
  </metadata>
  <defs
     id="defs8" />
  <sodipodi:namedview
     inkscape:current-layer="svg4"
     inkscape:window-maximized="1"
     inkscape:window-y="-9"
     inkscape:window-x="-9"
     inkscape:cy="14.670624"
     inkscape:cx="12.313464"
     inkscape:zoom="22.627417"
     inkscape:snap-global="false"
     showgrid="false"
     id="namedview6"
     inkscape:window-height="1001"
     inkscape:window-width="1920"
     inkscape:pageshadow="2"
     inkscape:pageopacity="0"
     guidetolerance="10"
     gridtolerance="10"
     objecttolerance="10"
     borderopacity="1"
     bordercolor="#666666"
     pagecolor="#ffffff" />
  <g
     transform="matrix(1.0401786,0,0,1,2.5691964,1.5582133)"
     id="g881">
    <g
       id="g873">
      <g
         id="g866">
        <path
           sodipodi:nodetypes="ccccccccccccccc"
           d="m 4.5,14.5 h 14 v -2 h -14 z m 0,-6 h 14 v -2 h -14 z m 0,-8 v 2 h 14 v -2 z"
           id="path2" />
        <g
           id="g860"
           style="fill:#000000"
           transform="translate(-2.5)">
          <rect
             style="fill:#000000;stroke-width:0.5;stroke-linejoin:round"
             id="rect837-2"
             width="14"
             height="2"
             x="7"
             y="18.492062" />
        </g>
      </g>
    </g>
  </g>
  <path
     style="stroke-width:0.166648"
     d="M 2.3832143,4.4410216 A 2.6418705,2.6418705 0 0 0 2.4427111,4.1410555 3.5162725,3.5162725 0 0 0 2.4515111,3.3313121 3.7195831,3.7195831 0 0 0 2.1770422,2.5095712 1.3126862,1.3126862 0 0 0 1.808083,2.0167928 0.36345925,0.36345925 0 0 1 1.6301029,1.7641545 a 0.1614819,0.1614819 0 0 1 0.053337,-0.1483162 0.23414042,0.23414042 0 0 1 0.178979,-0.061657 0.17964652,0.17964652 0 0 1 0.1556499,0.072651 0.21864214,0.21864214 0 0 1 0.049166,0.1718146 0.34679446,0.34679446 0 0 0 0.012137,0.1999777 0.93156224,0.93156224 0 0 0 0.4619487,0.3592919 c 0.039166,0.00411 0.044491,0.00217 0.071497,-0.027497 0.034491,-0.037669 0.048331,-0.083326 0.1081598,-0.361461 A 6.8124029,6.8124029 0 0 0 2.8632944,1.1663821 0.29846654,0.29846654 0 0 0 2.797466,0.92790945 0.31196502,0.31196502 0 0 1 2.7464604,0.84125825 c -0.04,-0.15698248 0.075325,-0.36929175 0.2068109,-0.38095686 a 0.08599036,0.08599036 0 0 1 0.081497,0.0248228 0.44595002,0.44595002 0 0 1 0.1456499,0.29563358 c 0.004,0.0684912 0.004,0.0684912 -0.028,0.10716552 -0.032,0.0386632 -0.032,0.0396688 -0.028,0.099988 A 3.3677891,3.3677891 0 0 0 3.3957216,1.7579919 c 0.126321,0.2788017 0.1633139,0.3324634 0.2309733,0.3342954 0.057006,0.00171 0.092823,-0.038994 0.1739801,-0.1973105 a 6.283629,6.283629 0 0 0 0.3139651,-0.7942437 0.57793522,0.57793522 0 0 0 0.02,-0.12214725 0.10365505,0.10365505 0 0 0 -0.033337,-0.09216 c -0.033337,-0.039828 -0.033337,-0.04016 -0.028823,-0.10431944 0.010171,-0.15431624 0.1364866,-0.32463016 0.2409733,-0.32463016 0.042663,0 0.072491,0.0188228 0.1184808,0.0746513 a 0.37895751,0.37895751 0 0 1 0.080491,0.21114352 0.1913119,0.1913119 0 0 1 -0.04416,0.1698144 c -0.06432,0.0756568 -0.068983,0.091657 -0.06816,0.23430695 a 2.9173396,2.9173396 0 0 0 0.09416,0.6199312 5.0094385,5.0094385 0 0 0 0.1228135,0.5237737 0.09998878,0.09998878 0 0 0 0.09616,0.06832 0.97722376,0.97722376 0 0 0 0.3874565,-0.2558051 0.29996638,0.29996638 0 0 0 0.093165,-0.299965 0.18497926,0.18497926 0 0 1 0.016663,-0.1276546 0.21514256,0.21514256 0 0 1 0.2987993,-0.1023197 c 0.1631493,0.058823 0.1568156,0.2726348 -0.011863,0.406287 A 1.2966879,1.2966879 0 0 0 5.26082,2.2011011 2.670534,2.670534 0 0 0 4.7887056,3.8322529 4.9791086,4.9791086 0 0 0 4.8602026,4.376358 l 0.018823,0.081657 h -1.250693 c -1.1878658,0 -1.24986,0 -1.2451925,-0.016663 z"
     id="path2630" />
  <path
     style="stroke-width:0.166659"
     id="path3097"
     d="m 1.6279196,10.868752 c 0,-0.03333 0.074159,-0.457978 0.089829,-0.514141 0.041,-0.147494 0.1166608,-0.233323 0.3196513,-0.3554827 0.1166608,-0.07083 0.1203272,-0.07416 0.1351599,-0.118994 A 4.0586353,4.0586353 0 0 0 2.2827206,9.2405003 C 2.3010565,9.0783413 2.3893823,8.0857222 2.3857159,8.0832223 2.3535481,8.0620544 2.117229,7.8940652 2.0632318,7.8540671 A 0.66763409,0.66763409 0 0 1 1.9540701,7.7529054 C 1.8899106,7.6685764 1.8857426,7.640411 1.8805746,7.2467633 l -0.00464,-0.3523159 h 0.3499831 c 0.2153225,0 0.3701486,0.00384 0.4014804,0.00983 0.072999,0.014 0.081829,0.030328 0.086995,0.1586589 0.00536,0.1343271 0.016664,0.1744916 0.05916,0.2078233 0.039832,0.031328 0.092163,0.040168 0.2073233,0.034664 0.092829,-0.00432 0.1333271,-0.020336 0.1628253,-0.064663 0.016664,-0.024 0.019336,-0.05 0.022168,-0.1904915 l 0.00336,-0.1626581 0.4481449,-0.00664 c 0.507142,-0.00752 0.5131412,-0.00696 0.5299739,0.047664 a 0.37631497,0.37631497 0 0 1 0.010664,0.086829 0.73429751,0.73429751 0 0 0 0.034336,0.2499879 c 0.022336,0.030496 0.063664,0.042168 0.1499926,0.042168 a 0.2499878,0.2499878 0 0 0 0.1166608,-0.020168 c 0.066664,-0.030496 0.080496,-0.062495 0.088663,-0.2138225 0.00752,-0.141327 0.014664,-0.1551597 0.086996,-0.1701588 0.021496,-0.00448 0.1976562,-0.00817 0.3914804,-0.00834 h 0.3521495 v 0.3289841 c 0,0.1851579 -0.00464,0.3548159 -0.010496,0.3871477 C 5.3449628,7.7375895 5.3031318,7.782754 5.0306452,7.9752446 4.8879854,8.0752396 4.878319,8.084739 4.878319,8.1130717 c 0,0.057831 0.090663,1.0472826 0.1104945,1.2077736 a 3.0176862,3.0176862 0 0 0 0.1079944,0.579471 0.48330975,0.48330975 0 0 0 0.1231608,0.09516 0.79796107,0.79796107 0 0 1 0.2408215,0.1933247 c 0.065328,0.08949 0.085996,0.163491 0.1319942,0.468809 0.014168,0.09366 0.027832,0.181492 0.030336,0.195157 l 0.0048,0.02466 H 3.6280168 c -1.2821038,0 -1.999902,-0.0032 -1.999902,-0.0087 z" />
  <path
     sodipodi:nodetypes="cccccscccccccccccccccccccccccccscccccccccccccc"
     style="fill:#000000;stroke:none;stroke-width:0.333347;stroke-miterlimit:4;stroke-dasharray:none;stroke-opacity:1"
     d="m 1.6337512,22.928089 c 0.013136,-0.118986 0.058872,-0.232034 0.132172,-0.32668 0.089123,-0.08285 0.2042272,-0.132213 0.32568,-0.139673 0.039672,-0.0055 0.1853416,-0.0135 0.3236808,-0.01783 0.2151552,0.01323 0.4306216,-0.02037 0.6315256,-0.0985 0.073168,-0.03583 0.1000048,-0.06384 0.1000048,-0.102337 0,-0.05617 -0.077504,-0.08334 -0.256344,-0.09134 -0.04864,-8e-4 -0.097159,-0.0052 -0.1451728,-0.013 -0.026,-0.0093 -0.025336,-0.01317 0.021832,-0.137006 0.023872,-0.05524 0.036992,-0.114521 0.038672,-0.174673 0.00752,-0.138006 -0.023504,-0.214843 -0.1811744,-0.450019 C 2.45462,21.122687 2.4056184,21.007515 2.3982848,20.844675 2.3916448,20.74191 2.4110288,20.639131 2.4546208,20.54583 2.5398938,20.35765 2.663276,20.189206 2.8169696,20.051143 2.9506336,19.921979 3.0966128,19.8062 3.2528208,19.705461 3.358992,19.630791 3.450996,19.563622 3.457496,19.555455 c 0.016664,-0.02 0.00648,-0.048 -0.040336,-0.106838 -0.06972,-0.09171 -0.093668,-0.210268 -0.065,-0.321846 0.025888,-0.0756 0.085351,-0.13494 0.1610064,-0.160674 0.1065112,-0.02912 0.2204048,-0.0109 0.3125128,0.05 0.026984,0.02418 0.048912,0.05346 0.064504,0.08617 0.024808,0.04228 0.035328,0.09144 0.03,0.140172 0.0064,0.07453 -0.020304,0.148092 -0.073,0.201176 -0.075,0.08717 -0.07084,0.100004 0.061504,0.192008 0.2801552,0.186366 0.5341376,0.40935 0.7551976,0.663028 0.071584,0.09923 0.1284016,0.20831 0.1686736,0.323846 0.019392,0.06358 0.026464,0.130275 0.020832,0.196508 0.00616,0.06774 -0.00208,0.136019 -0.024168,0.200342 -0.04964,0.128279 -0.1158152,0.24953 -0.1968416,0.360682 -0.1983416,0.293678 -0.223176,0.40985 -0.1360056,0.635526 0.014304,0.03328 0.025464,0.06782 0.033336,0.103171 0,0.02317 -0.028336,0.03017 -0.1240048,0.03017 -0.2436768,0 -0.3500152,0.0625 -0.2616776,0.15484 0.081337,0.0855 0.286512,0.126505 0.6988624,0.139839 0.1445056,0.0046 0.2908448,0.01283 0.3248464,0.018 0.2346768,0.03617 0.3420144,0.108338 0.4043504,0.271344 0.024048,0.06913 0.04272,0.140005 0.055832,0.212009 -0.1836336,0.01112 -0.3677144,0.01283 -0.5515232,0.0052 -0.5930248,-0.0046 -0.7040296,-0.01166 -0.8802032,-0.05534 -0.191508,-0.04734 -0.2893456,-0.120506 -0.4778536,-0.357682 -0.026888,-0.036 -0.05612,-0.07018 -0.087503,-0.102337 -0.031208,0.0312 -0.06012,0.06462 -0.086504,0.100004 -0.104896,0.16863 -0.2668296,0.294013 -0.456352,0.353348 -0.1733408,0.05 -0.4050168,0.06384 -1.013876,0.064 H 1.62792 Z"
     id="path2055-0-2" />
  <path
     style="stroke-width:0.16663"
     id="path3827"
     d="m 2.8048294,16.825234 c -0.3802482,-0.0081 -0.5082192,-0.02283 -0.5310479,-0.06115 a 1.0474338,1.0474338 0 0 1 0.087977,-0.440236 C 2.4867311,15.98859 2.6950179,15.662329 2.8376529,15.577681 a 0.27860472,0.27860472 0 0 1 0.08648,-0.03183 0.43690286,0.43690286 0 0 0 0.2041213,-0.11664 0.54254603,0.54254603 0 0 1 0.3725834,-0.137636 1.0307708,1.0307708 0 0 0 0.4923904,-0.1548 1.1745722,1.1745722 0 0 0 0.2442787,-0.212955 0.87447225,0.87447225 0 0 0 0.131471,-0.243281 0.62886017,0.62886017 0 0 0 0.021832,-0.229115 c 0,-0.165463 -0.00248,-0.178127 -0.03832,-0.17846 a 1.5738168,1.5738168 0 0 0 -0.1176406,0.19179 1.5103309,1.5103309 0 0 1 -0.2926019,0.411408 C 3.7767831,15.02413 3.5843266,15.077285 3.1757505,15.087949 2.703688,15.100279 2.6905248,15.105779 2.4125868,15.403545 L 2.3350988,15.486865 2.1046496,15.362392 1.86037,15.230587 c -0.010512,-0.0055 -0.00288,-0.01416 0.033328,-0.03616 0.1971245,-0.122804 0.2227845,-0.147633 0.1999565,-0.192622 a 0.25327702,0.25327702 0 0 0 -0.1712957,-0.05632 0.22078425,0.22078425 0 0 0 -0.1549654,0.05399 0.19995554,0.19995554 0 0 1 -0.089314,0.04999 c -0.00552,0 -0.016664,-0.02033 -0.026,-0.04533 a 1.255221,1.255221 0 0 1 -0.02016,-0.316597 l -0.004,-0.271606 0.1859581,-0.112141 c 0.4577328,-0.276104 0.7470019,-0.463896 0.9576216,-0.622027 a 5.724727,5.724727 0 0 1 0.5115528,-0.336926 1.8957451,1.8957451 0 0 0 0.5332143,-0.418406 c 0.083314,-0.09998 0.1066398,-0.111475 0.1481342,-0.06666 a 0.66651846,0.66651846 0 0 1 0.071488,0.128472 c 0.089485,0.199955 0.1999548,0.307098 0.5105527,0.492223 a 2.391135,2.391135 0 0 1 0.6815157,0.594201 1.1479115,1.1479115 0 0 1 0.2244492,0.469395 5.5042761,5.5042761 0 0 1 0.063328,0.88947 c 0,0.373749 0.023832,0.8998 0.048648,1.090757 a 2.9660072,2.9660072 0 0 0 0.063328,0.295268 c 0.00472,0.01433 -0.059656,0.01499 -1.2613868,0.01366 -0.6963452,-8e-4 -1.3985217,-0.0041 -1.5603191,-0.0077 z" />
</svg>
