<?xml version="1.0" encoding="UTF-8" standalone="no"?>
<svg
   xmlns:dc="http://purl.org/dc/elements/1.1/"
   xmlns:cc="http://creativecommons.org/ns#"
   xmlns:rdf="http://www.w3.org/1999/02/22-rdf-syntax-ns#"
   xmlns:svg="http://www.w3.org/2000/svg"
   xmlns="http://www.w3.org/2000/svg"
   xmlns:sodipodi="http://sodipodi.sourceforge.net/DTD/sodipodi-0.dtd"
   xmlns:inkscape="http://www.inkscape.org/namespaces/inkscape"
   width="583.24323mm"
   height="114.13494mm"
   viewBox="0 0 583.24322 114.13494"
   version="1.1"
   id="svg8"
   sodipodi:docname="star wars banner.svg"
   inkscape:version="1.0 (4035a4fb49, 2020-05-01)">
  <metadata
     id="metadata18">
    <rdf:RDF>
      <cc:Work
         rdf:about="">
        <dc:format>image/svg+xml</dc:format>
        <dc:type
           rdf:resource="http://purl.org/dc/dcmitype/StillImage" />
        <dc:title></dc:title>
      </cc:Work>
    </rdf:RDF>
  </metadata>
  <sodipodi:namedview
     inkscape:document-rotation="0"
     pagecolor="#ffffff"
     bordercolor="#666666"
     borderopacity="1"
     objecttolerance="10"
     gridtolerance="10"
     guidetolerance="10"
     inkscape:pageopacity="0"
     inkscape:pageshadow="2"
     inkscape:window-width="1837"
     inkscape:window-height="1051"
     id="namedview16"
     showgrid="false"
     fit-margin-top="0"
     fit-margin-left="0"
     fit-margin-right="0"
     fit-margin-bottom="0"
     inkscape:zoom="0.45254834"
     inkscape:cx="1086.1916"
     inkscape:cy="93.787872"
     inkscape:window-x="74"
     inkscape:window-y="-9"
     inkscape:window-maximized="1"
     inkscape:current-layer="svg8" />
  <defs
     id="defs2" />
  <path
     style="stroke-width:1.49151"
     id="Path_1"
     data-name="Path 1"
     d="m 113.10755,48.122752 h -3.83171 l -1.58696,-4.734029 h -7.647 l -1.558577,4.734029 h -3.05911 l 6.598437,-19.881794 h 4.41339 z m -6.38069,-7.60667 -2.9025,-8.867061 -2.89349,8.867061 z m 19.34341,7.60667 h -3.3201 V 28.240958 h 3.32158 z m 9.74403,0.30594 a 5.7945137,5.7945137 0 0 1 -4.98168,-2.344626 8.8565827,8.8565827 0 0 1 -1.71823,-5.369437 7.9482536,7.9482536 0 0 1 1.90019,-5.433588 6.3448806,6.3448806 0 0 1 5.01746,-2.170119 6.2434579,6.2434579 0 0 1 4.85784,2.111952 7.8960506,7.8960506 0 0 1 1.90018,5.491755 7.888593,7.888593 0 0 1 -1.97624,5.594647 6.5402688,6.5402688 0 0 1 -4.99952,2.119416 z m 0.11622,-2.738416 q 3.3499,0 3.3499,-4.996555 a 6.7774185,6.7774185 0 0 0 -0.80092,-3.561717 2.6847169,2.6847169 0 0 0 -2.46101,-1.303576 2.7861395,2.7861395 0 0 0 -2.54899,1.342374 6.7565372,6.7565372 0 0 0 -0.83076,3.579606 6.4030495,6.4030495 0 0 0 0.88147,3.67059 2.7831565,2.7831565 0 0 0 2.4118,1.269278 z m 22.08177,2.432647 h -3.32756 v -9.190662 a 3.1590167,3.1590167 0 0 0 -0.66971,-2.192509 2.1089943,2.1089943 0 0 0 -1.61675,-0.735338 2.9233584,2.9233584 0 0 0 -2.27159,1.136534 5.1427243,5.1427243 0 0 0 -0.97547,3.42299 v 7.558985 H 145.8356 V 33.41219 h 3.03222 v 3.408064 q 1.58702,-3.713833 4.45665,-3.713833 a 4.8160837,4.8160837 0 0 1 3.31416,1.223018 5.5528893,5.5528893 0 0 1 1.37662,4.297054 z M 175.40326,30.60068 v 2.548983 h -1.02014 a 3.8674838,3.8674838 0 0 0 -1.17237,0.159522 2.0105545,2.0105545 0 0 0 -0.98288,1.033642 4.0867357,4.0867357 0 0 1 1.74802,3.175447 3.9435508,3.9435508 0 0 1 -1.64062,3.233558 6.837079,6.837079 0 0 1 -4.33284,1.281242 11.745637,11.745637 0 0 1 -2.72349,-0.378863 1.522831,1.522831 0 0 0 -1.02019,1.442303 1.3274434,1.3274434 0 0 0 0.4951,0.990343 2.1656716,2.1656716 0 0 0 1.50046,0.447231 h 4.37009 a 5.0383188,5.0383188 0 0 1 3.51694,1.157385 3.7287734,3.7287734 0 0 1 1.27526,2.878623 4.0956846,4.0956846 0 0 1 -1.92999,3.451362 9.8663347,9.8663347 0 0 1 -5.71696,1.369207 q -7.12196,0 -7.12196,-3.976359 a 3.2216602,3.2216602 0 0 1 2.14181,-2.983052 3.2589479,3.2589479 0 0 1 -1.36921,-2.432646 3.4379291,3.4379291 0 0 1 2.34463,-3.059054 3.815281,3.815281 0 0 1 -2.03887,-3.406637 3.9987365,3.9987365 0 0 1 1.50043,-3.13215 6.8311129,6.8311129 0 0 1 4.55958,-1.296111 13.662226,13.662226 0 0 1 2.83384,0.30594 3.3081678,3.3081678 0 0 1 3.53938,-2.81151 z m -7.54399,9.468115 q 2.70855,0 2.70855,-2.548983 a 2.225332,2.225332 0 0 0 -0.6697,-1.646661 2.6847169,2.6847169 0 0 0 -1.97328,-0.669647 2.7980717,2.7980717 0 0 0 -2.03139,0.6995 2.3342122,2.3342122 0 0 0 -0.72041,1.748071 2.2864838,2.2864838 0 0 0 0.69802,1.746533 2.7801733,2.7801733 0 0 0 1.98821,0.671187 z m -3.6408,7.253216 a 1.8077094,1.8077094 0 0 0 -0.71443,1.26774 2.146282,2.146282 0 0 0 1.19322,1.770461 7.2621589,7.2621589 0 0 0 3.80186,0.765134 q 3.83017,0 3.83017,-1.965818 a 1.1932075,1.1932075 0 0 0 -0.66971,-1.099218 3.100848,3.100848 0 0 0 -1.52879,-0.371457 h -3.5244 a 9.600846,9.600846 0 0 1 -2.3894,-0.366899 z m 27.50043,-1.789832 v 2.590744 a 11.750111,11.750111 0 0 1 -2.30139,0.320752 4.6863224,4.6863224 0 0 1 -2.30138,-0.530979 3.2544734,3.2544734 0 0 1 -1.40505,-1.45723 6.9071797,6.9071797 0 0 1 -0.44722,-2.847287 v -7.618634 h -1.83456 v -2.577298 h 2.02552 l 0.30595,-3.830226 2.72349,-0.251816 v 4.08227 h 2.95616 v 2.577298 h -2.95616 v 7.181659 a 2.6847169,2.6847169 0 0 0 0.5025,1.88674 2.7041064,2.7041064 0 0 0 1.90017,0.502493 q 0.39368,-0.0016 0.83077,-0.02848 z m 6.10329,-13.836726 h -3.32311 v -3.454324 h 3.32158 z m 0,16.430489 h -3.32311 V 33.41219 h 3.32158 z m 25.95222,0 h -3.47967 v -9.165365 q 0,-2.854753 -2.53554,-2.854753 a 2.8845791,2.8845791 0 0 0 -2.35216,1.078366 5.0010309,5.0010309 0 0 0 -0.88147,3.218689 v 7.720044 h -3.52291 v -9.162346 q 0,-2.897994 -2.37447,-2.897994 a 3.0531197,3.0531197 0 0 0 -2.42525,1.164849 4.7728299,4.7728299 0 0 0 -0.98288,3.175447 v 7.720044 h -3.42299 V 33.41219 h 3.21863 v 3.132148 a 5.1636055,5.1636055 0 0 1 4.9086,-3.430453 4.1255149,4.1255149 0 0 1 4.22395,3.430453 5.4246196,5.4246196 0 0 1 4.90854,-3.430453 4.5714762,4.5714762 0 0 1 3.42303,1.325966 4.5222564,4.5222564 0 0 1 1.29612,3.291726 z m 13.34158,-4.690844 3.00094,0.40735 a 6.277763,6.277763 0 0 1 -2.27158,3.291726 6.7595203,6.7595203 0 0 1 -4.2389,1.296112 6.3299659,6.3299659 0 0 1 -4.92197,-2.053782 7.9646603,7.9646603 0 0 1 -1.86441,-5.563314 8.1660142,8.1660142 0 0 1 1.87933,-5.518588 6.3762026,6.3762026 0 0 1 5.09797,-2.185104 5.8646148,5.8646148 0 0 1 4.85937,2.152287 8.6045176,8.6045176 0 0 1 1.71821,5.534998 l -0.0171,0.378864 h -10.08711 a 8.2495384,8.2495384 0 0 0 0.28314,2.402849 3.2395583,3.2395583 0 0 0 1.12909,1.573509 3.5527754,3.5527754 0 0 0 5.43358,-1.718218 z m -0.20453,-4.398464 a 3.6974519,3.6974519 0 0 0 -0.95457,-2.592224 3.2201686,3.2201686 0 0 0 -4.61023,-0.06552 4.2373781,4.2373781 0 0 0 -1.07836,2.657855 z m 26.54142,9.086289 h -3.16053 a 12.006651,12.006651 0 0 1 -0.50989,-2.971089 4.921981,4.921981 0 0 1 -4.98163,3.281358 4.8653034,4.8653034 0 0 1 -3.53193,-1.288707 4.3253772,4.3253772 0 0 1 -1.33337,-3.24102 q 0,-5.071133 8.89983,-5.071133 0.34924,0 0.9471,0.01709 v -1.106736 q 0,-2.286456 -3.11728,-2.286456 -3.02926,0 -3.43046,2.286456 l -2.82643,-0.422162 a 4.283615,4.283615 0 0 1 1.89426,-3.021794 8.2033016,8.2033016 0 0 1 4.80713,-1.193163 11.211676,11.211676 0 0 1 2.78165,0.28315 4.2642253,4.2642253 0 0 1 1.82116,0.962029 3.6810452,3.6810452 0 0 1 1.02612,1.470618 8.8714979,8.8714979 0 0 1 0.28316,2.684689 v 6.641735 a 10.794054,10.794054 0 0 0 0.43128,2.977014 z m -3.6706,-7.487371 q -6.43737,0 -6.43737,3.073979 a 2.1328583,2.1328583 0 0 0 0.6488,1.566103 2.6623442,2.6623442 0 0 0 1.9584,0.648797 3.4588103,3.4588103 0 0 0 2.86217,-1.202108 4.2343951,4.2343951 0 0 0 0.968,-2.731009 z m 20.6246,-10.036353 v 2.550464 h -1.0202 a 3.8674838,3.8674838 0 0 0 -1.1723,0.159522 2.0105545,2.0105545 0 0 0 -0.98294,1.033642 4.0867357,4.0867357 0 0 1 1.74807,3.175447 3.9435508,3.9435508 0 0 1 -1.64069,3.233558 6.837079,6.837079 0 0 1 -4.33283,1.281242 11.745637,11.745637 0 0 1 -2.72348,-0.378863 1.522831,1.522831 0 0 0 -1.02021,1.442303 1.3274434,1.3274434 0 0 0 0.4951,0.990343 2.1656716,2.1656716 0 0 0 1.50046,0.447231 h 4.37016 a 5.0383188,5.0383188 0 0 1 3.51693,1.157385 3.7287734,3.7287734 0 0 1 1.27377,2.878623 4.0956846,4.0956846 0 0 1 -1.93003,3.451362 9.8663347,9.8663347 0 0 1 -5.71696,1.369207 q -7.12196,0 -7.12196,-3.976359 a 3.2216602,3.2216602 0 0 1 2.1418,-2.983052 3.2589479,3.2589479 0 0 1 -1.3692,-2.432646 3.4379291,3.4379291 0 0 1 2.34468,-3.059054 3.815281,3.815281 0 0 1 -2.03892,-3.408119 3.9987365,3.9987365 0 0 1 1.50048,-3.132149 6.8311129,6.8311129 0 0 1 4.55958,-1.296112 13.662226,13.662226 0 0 1 2.83383,0.30594 3.3081678,3.3081678 0 0 1 3.53934,-2.811453 z m -7.54554,9.469596 q 2.70856,0 2.70856,-2.548983 a 2.225332,2.225332 0 0 0 -0.67711,-1.640679 2.6847169,2.6847169 0 0 0 -1.97328,-0.669705 2.7980717,2.7980717 0 0 0 -2.03145,0.699559 2.3342122,2.3342122 0 0 0 -0.72041,1.748014 2.2864838,2.2864838 0 0 0 0.71443,1.748071 2.7801733,2.7801733 0 0 0 1.97926,0.663723 z m -3.6408,7.253216 a 1.8077094,1.8077094 0 0 0 -0.71442,1.26774 2.146282,2.146282 0 0 0 1.19322,1.770461 7.2621589,7.2621589 0 0 0 3.80185,0.765134 q 3.83017,0 3.83017,-1.965818 a 1.1932075,1.1932075 0 0 0 -0.66965,-1.099218 3.100848,3.100848 0 0 0 -1.52884,-0.371457 h -3.5244 a 9.600846,9.600846 0 0 1 -2.38793,-0.366899 z m 18.97948,1.106681 a 5.7945137,5.7945137 0 0 1 -4.98163,-2.344626 8.8565827,8.8565827 0 0 1 -1.71823,-5.369437 7.9482536,7.9482536 0 0 1 1.90168,-5.438088 6.3448806,6.3448806 0 0 1 5.0174,-2.17012 6.2434579,6.2434579 0 0 1 4.85784,2.111952 7.8960506,7.8960506 0 0 1 1.90024,5.491756 7.888593,7.888593 0 0 1 -1.97328,5.600629 6.5402688,6.5402688 0 0 1 -5.00551,2.117934 z m 0.11622,-2.738416 q 3.34989,0 3.34989,-4.996555 a 6.7774185,6.7774185 0 0 0 -0.8009,-3.561717 2.6847169,2.6847169 0 0 0 -2.46102,-1.303576 2.7861395,2.7861395 0 0 0 -2.54898,1.342374 6.7565372,6.7565372 0 0 0 -0.83077,3.579606 6.4030495,6.4030495 0 0 0 0.88147,3.67059 2.7831565,2.7831565 0 0 0 2.41031,1.269278 z m 20.66784,-13.997785 h -3.32158 v -3.451362 h 3.32158 z m 0,16.430432 H 305.6625 V 33.41219 h 3.32158 z m 16.16796,0 h -3.32163 v -9.190662 a 3.1590167,3.1590167 0 0 0 -0.66966,-2.192509 2.1089943,2.1089943 0 0 0 -1.61681,-0.735338 2.9233584,2.9233584 0 0 0 -2.27159,1.136534 5.1427243,5.1427243 0 0 0 -0.97542,3.42299 v 7.558985 H 312.9753 V 33.41219 h 3.02932 v 3.408064 q 1.58695,-3.713833 4.45657,-3.713833 a 4.8160837,4.8160837 0 0 1 3.31418,1.223018 5.5528893,5.5528893 0 0 1 1.37667,4.297054 z m 24.01328,0 h -3.16052 a 12.006651,12.006651 0 0 1 -0.5099,-2.971089 4.921981,4.921981 0 0 1 -4.98169,3.281358 4.8653034,4.8653034 0 0 1 -3.53185,-1.288707 4.3253772,4.3253772 0 0 1 -1.33344,-3.24102 q 0,-5.071133 8.89988,-5.071133 0.34923,0 0.9471,0.01709 v -1.106736 q 0,-2.286456 -3.11728,-2.286456 -3.02925,0 -3.43045,2.286456 l -2.82644,-0.422162 a 4.2851064,4.2851064 0 0 1 1.89422,-3.021794 8.2033016,8.2033016 0 0 1 4.80717,-1.193163 11.211676,11.211676 0 0 1 2.78165,0.28315 4.2642253,4.2642253 0 0 1 1.82112,0.962029 3.6810452,3.6810452 0 0 1 1.02618,1.470618 8.8714979,8.8714979 0 0 1 0.28315,2.684689 v 6.641735 a 10.794054,10.794054 0 0 0 0.44324,2.977014 z m -3.67059,-7.487371 q -6.43737,0 -6.43737,3.073979 a 2.1328583,2.1328583 0 0 0 0.64879,1.566103 2.6623442,2.6623442 0 0 0 1.95835,0.648797 3.4588103,3.4588103 0 0 0 2.86222,-1.202108 4.2343951,4.2343951 0 0 0 0.96801,-2.731009 z m 28.08212,-10.036353 v 2.550464 h -1.0202 a 3.8674838,3.8674838 0 0 0 -1.17231,0.159522 2.0105545,2.0105545 0 0 0 -0.98289,1.033642 4.0867357,4.0867357 0 0 1 1.74802,3.175447 3.9435508,3.9435508 0 0 1 -1.64067,3.233558 6.837079,6.837079 0 0 1 -4.33284,1.281242 11.745637,11.745637 0 0 1 -2.72349,-0.378863 1.5213396,1.5213396 0 0 0 -1.0202,1.442303 1.3274434,1.3274434 0 0 0 0.49509,0.990343 2.1656716,2.1656716 0 0 0 1.50047,0.447231 h 4.37015 a 5.0383188,5.0383188 0 0 1 3.51694,1.157385 3.7287734,3.7287734 0 0 1 1.27377,2.877142 4.0956846,4.0956846 0 0 1 -1.93004,3.451362 9.8663347,9.8663347 0 0 1 -5.71696,1.369207 q -7.12195,0 -7.12195,-3.976359 a 3.2216602,3.2216602 0 0 1 2.1418,-2.983053 3.2589479,3.2589479 0 0 1 -1.36921,-2.432645 3.4379291,3.4379291 0 0 1 2.34468,-3.059053 3.815281,3.815281 0 0 1 -2.03891,-3.40812 3.9972451,3.9972451 0 0 1 1.50942,-3.129187 6.8311129,6.8311129 0 0 1 4.55952,-1.296111 13.662226,13.662226 0 0 1 2.8339,0.30594 3.3081678,3.3081678 0 0 1 3.53933,-2.81151 z m -7.54555,9.469596 q 2.70857,0 2.70857,-2.548983 a 2.225332,2.225332 0 0 0 -0.67711,-1.640679 2.6847169,2.6847169 0 0 0 -1.97329,-0.669705 2.7980717,2.7980717 0 0 0 -2.03145,0.699559 2.3342122,2.3342122 0 0 0 -0.72041,1.748014 2.2864838,2.2864838 0 0 0 0.71444,1.748071 2.7801733,2.7801733 0 0 0 1.97925,0.663723 z m -3.64079,7.253216 a 1.8077094,1.8077094 0 0 0 -0.71443,1.26774 2.146282,2.146282 0 0 0 1.19322,1.770461 7.2621589,7.2621589 0 0 0 3.80186,0.765134 q 3.83022,0 3.83022,-1.965818 a 1.1932075,1.1932075 0 0 0 -0.6697,-1.099218 3.100848,3.100848 0 0 0 -1.52879,-0.371457 h -3.52446 a 9.600846,9.600846 0 0 1 -2.38193,-0.366899 z m 25.80313,0.800912 h -3.16052 a 12.006651,12.006651 0 0 1 -0.5099,-2.971089 4.921981,4.921981 0 0 1 -4.98163,3.281358 4.8653034,4.8653034 0 0 1 -3.53192,-1.288707 4.3253772,4.3253772 0 0 1 -1.33344,-3.24102 q 0,-5.071133 8.89988,-5.071133 0.34924,0 0.94711,0.01709 v -1.106736 q 0,-2.286456 -3.11729,-2.286456 -3.02925,0 -3.43046,2.286456 l -2.82643,-0.422162 a 4.2851064,4.2851064 0 0 1 1.89421,-3.021794 8.2033016,8.2033016 0 0 1 4.80713,-1.193163 11.211676,11.211676 0 0 1 2.78165,0.28315 4.2642253,4.2642253 0 0 1 1.82116,0.962029 3.6810452,3.6810452 0 0 1 1.02619,1.470618 8.8714979,8.8714979 0 0 1 0.28314,2.684689 v 6.641735 a 10.794054,10.794054 0 0 0 0.44267,2.977014 z m -3.6706,-7.487371 q -6.43738,0 -6.43738,3.073979 a 2.1328583,2.1328583 0 0 0 0.6488,1.566103 2.6623442,2.6623442 0 0 0 1.95836,0.648797 3.4588103,3.4588103 0 0 0 2.8622,-1.202108 4.2343951,4.2343951 0 0 0 0.96802,-2.731009 z m 10.52853,7.487371 h -3.32158 V 28.241129 h 3.32158 z m 16.57514,0 h -3.16046 a 12.006651,12.006651 0 0 1 -0.5099,-2.971089 4.921981,4.921981 0 0 1 -4.98163,3.281358 4.8653034,4.8653034 0 0 1 -3.53187,-1.288707 4.3253772,4.3253772 0 0 1 -1.33342,-3.24102 q 0,-5.071133 8.89982,-5.071133 0.34923,0 0.9471,0.01709 v -1.106736 q 0,-2.286456 -3.11722,-2.286456 -3.02926,0 -3.43051,2.286456 l -2.82638,-0.422162 a 4.2851064,4.2851064 0 0 1 1.8942,-3.021794 8.2033016,8.2033016 0 0 1 4.80712,-1.193163 11.211676,11.211676 0 0 1 2.78166,0.28315 4.2642253,4.2642253 0 0 1 1.82117,0.962029 3.6810452,3.6810452 0 0 1 1.02617,1.470618 8.8714979,8.8714979 0 0 1 0.28316,2.684689 v 6.641735 a 10.794054,10.794054 0 0 0 0.43128,2.977014 z m -3.67059,-7.487371 q -6.43731,0 -6.43731,3.073979 a 2.1328583,2.1328583 0 0 0 0.6488,1.566103 2.6623442,2.6623442 0 0 0 1.95835,0.648797 3.4588103,3.4588103 0 0 0 2.86221,-1.202108 4.2343951,4.2343951 0 0 0 0.96795,-2.731009 z m 18.38287,7.487371 h -3.78694 l -3.11727,-5.360492 -3.40806,5.360492 h -2.85476 l 4.89361,-7.573854 -4.23883,-7.136879 h 3.80185 l 2.41772,4.325369 2.75335,-4.325369 h 2.78166 l -4.15087,6.379151 z m 12.97615,-14.710733 -5.7185,16.749645 a 5.7378368,5.7378368 0 0 1 -1.43478,2.39533 3.6184017,3.6184017 0 0 1 -2.57137,0.851674 q -0.65478,0 -1.90765,-0.101406 V 50.67191 l 1.58695,0.02848 a 2.7921055,2.7921055 0 0 0 1.55117,-0.341832 2.2864838,2.2864838 0 0 0 0.79351,-1.215554 6.0883414,6.0883414 0 0 0 0.29854,-1.020197 6.7326734,6.7326734 0 0 0 -0.30595,-0.90238 l -5.06519,-13.80989 h 3.47522 l 3.56918,9.694806 3.07404,-9.694806 z m 13.37287,14.710733 h -3.20377 V 35.989488 H 447.2992 V 33.41219 h 2.18504 v -0.729355 a 5.3858404,5.3858404 0 0 1 1.04408,-3.466289 q 1.044,-1.311039 4.23881,-1.311039 0.46547,0 1.17978,0.02848 v 2.607152 q -0.62646,-0.04558 -0.85907,-0.04558 a 3.2813207,3.2813207 0 0 0 -1.71827,0.328159 1.2543593,1.2543593 0 0 0 -0.59655,0.772597 10.82985,10.82985 0 0 0 -0.094,1.813702 h 3.26341 v 2.575818 h -3.25446 z m 18.29484,0 h -3.16053 a 12.006651,12.006651 0 0 1 -0.50989,-2.971089 4.921981,4.921981 0 0 1 -4.98163,3.281358 4.8653034,4.8653034 0 0 1 -3.53193,-1.288707 4.3253772,4.3253772 0 0 1 -1.33336,-3.24102 q 0,-5.071133 8.89981,-5.071133 0.34924,0 0.94711,0.01709 v -1.106736 q 0,-2.286456 -3.11722,-2.286456 -3.02927,0 -3.43051,2.286456 l -2.82638,-0.422162 a 4.2851064,4.2851064 0 0 1 1.8942,-3.021794 8.2033016,8.2033016 0 0 1 4.80713,-1.193163 11.211676,11.211676 0 0 1 2.7817,0.28315 4.2642253,4.2642253 0 0 1 1.82112,0.962029 3.6810452,3.6810452 0 0 1 1.02611,1.470618 8.8714979,8.8714979 0 0 1 0.28316,2.684689 v 6.641735 a 10.794054,10.794054 0 0 0 0.42956,2.977014 z m -3.67806,-7.487371 q -6.43737,0 -6.43737,3.073979 a 2.1328583,2.1328583 0 0 0 0.64885,1.566103 2.6623442,2.6623442 0 0 0 1.9583,0.648797 3.4588103,3.4588103 0 0 0 2.86222,-1.202108 4.2343951,4.2343951 0 0 0 0.968,-2.731009 z m 10.53754,7.487371 h -3.32164 V 33.41219 h 3.00095 v 3.509531 a 6.2643393,6.2643393 0 0 1 1.76293,-3.000941 3.5483009,3.5483009 0 0 1 2.30139,-0.947103 q 0.15951,0 0.43696,0.01709 v 3.569181 a 3.3976584,3.3976584 0 0 0 -3.35735,1.616807 6.8892819,6.8892819 0 0 0 -0.8233,3.132148 z m 9.9767,-3.713832 v 3.335025 l -2.34467,4.631137 h -1.2812 l 1.73315,-4.25233 h -1.73315 V 44.409091 Z M 101.03183,80.936157 H 97.828063 V 68.802722 h -2.18504 v -2.577355 h 2.18504 V 65.49755 a 5.3858404,5.3858404 0 0 1 1.04408,-3.466288 q 1.04401,-1.311039 4.238817,-1.311039 0.46717,0 1.17978,0.02848 v 2.607151 q -0.62641,-0.04558 -0.85908,-0.04558 a 3.2813207,3.2813207 0 0 0 -1.71822,0.328159 1.2558509,1.2558509 0 0 0 -0.59662,0.772597 10.82985,10.82985 0 0 0 -0.094,1.813703 h 3.27236 v 2.578778 h -3.26341 z m 18.29483,0 h -3.16051 a 12.006651,12.006651 0 0 1 -0.50991,-2.971089 4.921981,4.921981 0 0 1 -4.98163,3.281297 4.8653034,4.8653034 0 0 1 -3.53191,-1.288648 4.3253772,4.3253772 0 0 1 -1.33343,-3.24108 q 0,-5.071125 8.89988,-5.071125 0.34924,0 0.94709,0.0171 v -1.106677 q 0,-2.286518 -3.11727,-2.286518 -3.02926,0 -3.43046,2.286518 l -2.82643,-0.422167 a 4.283615,4.283615 0 0 1 1.89426,-3.021793 8.2033016,8.2033016 0 0 1 4.80713,-1.19322 11.211676,11.211676 0 0 1 2.78166,0.28315 4.2642253,4.2642253 0 0 1 1.8211,0.962029 3.6810452,3.6810452 0 0 1 1.02618,1.470618 8.8714979,8.8714979 0 0 1 0.28315,2.684743 v 6.641679 a 10.794054,10.794054 0 0 0 0.43127,2.977074 z m -3.67058,-7.487373 q -6.43738,0 -6.43738,3.073985 a 2.1328583,2.1328583 0 0 0 0.6488,1.5661 2.6623442,2.6623442 0 0 0 1.95836,0.648792 3.4588103,3.4588103 0 0 0 2.8622,-1.202158 4.2343951,4.2343951 0 0 0 0.96802,-2.730955 z m 10.53006,7.487373 h -3.32009 v -14.71079 h 3.00088 v 3.509531 a 6.2643393,6.2643393 0 0 1 1.763,-3.000885 3.5483009,3.5483009 0 0 1 2.30139,-0.947159 q 0.15951,0 0.43698,0.01709 v 3.569181 a 3.3976584,3.3976584 0 0 0 -3.35736,1.616811 6.8892819,6.8892819 0 0 0 -0.8233,3.1322 z m 26.61151,0 h -3.16052 a 12.006651,12.006651 0 0 1 -0.5099,-2.971089 4.921981,4.921981 0 0 1 -4.9817,3.281297 4.8653034,4.8653034 0 0 1 -3.53185,-1.288648 4.3253772,4.3253772 0 0 1 -1.33344,-3.24108 q 0,-5.071125 8.89983,-5.071125 0.34924,0 0.94716,0.0171 v -1.106677 q 0,-2.286518 -3.11729,-2.286518 -3.02925,0 -3.43045,2.286518 l -2.82644,-0.422167 a 4.283615,4.283615 0 0 1 1.89421,-3.021793 8.2033016,8.2033016 0 0 1 4.80718,-1.19322 11.211676,11.211676 0 0 1 2.78166,0.28315 4.2642253,4.2642253 0 0 1 1.82111,0.962029 3.6810452,3.6810452 0 0 1 1.02618,1.470618 8.8714979,8.8714979 0 0 1 0.28315,2.684743 v 6.641679 a 10.794054,10.794054 0 0 0 0.43127,2.977074 z m -3.67059,-7.487373 q -6.43739,0 -6.43739,3.073985 a 2.1328583,2.1328583 0 0 0 0.6488,1.5661 2.6623442,2.6623442 0 0 0 1.95836,0.648792 3.4588103,3.4588103 0 0 0 2.86221,-1.202158 4.2343951,4.2343951 0 0 0 0.96802,-2.730955 z m 25.6927,-7.223417 -4.31045,14.71079 h -2.98305 l -2.65039,-10.312324 -2.63997,10.312324 h -3.077 l -4.52966,-14.71079 h 3.5244 l 2.89798,9.890219 2.5356,-9.890219 h 3.01434 l 2.57882,9.890219 2.83385,-9.890219 z m 14.88678,14.71079 h -3.16052 a 12.006651,12.006651 0 0 1 -0.5099,-2.971089 4.921981,4.921981 0 0 1 -4.9817,3.281297 4.8653034,4.8653034 0 0 1 -3.53185,-1.288648 4.3253772,4.3253772 0 0 1 -1.33343,-3.24108 q 0,-5.071125 8.89982,-5.071125 0.34924,0 0.94716,0.0171 v -1.106677 q 0,-2.286518 -3.11728,-2.286518 -3.02926,0 -3.43046,2.286518 l -2.82644,-0.422167 a 4.283615,4.283615 0 0 1 1.89422,-3.021793 8.2033016,8.2033016 0 0 1 4.80717,-1.19322 11.211676,11.211676 0 0 1 2.78166,0.28315 4.2642253,4.2642253 0 0 1 1.82111,0.962029 3.6810452,3.6810452 0 0 1 1.02618,1.470618 8.8714979,8.8714979 0 0 1 0.28315,2.684743 v 6.641679 a 10.794054,10.794054 0 0 0 0.43127,2.977074 z m -3.67059,-7.487373 q -6.43738,0 -6.43738,3.073985 a 2.1328583,2.1328583 0 0 0 0.6488,1.5661 2.6623442,2.6623442 0 0 0 1.95835,0.648792 3.4588103,3.4588103 0 0 0 2.86221,-1.202158 4.2343951,4.2343951 0 0 0 0.96802,-2.730955 z m 18.19639,-7.224899 -5.72739,16.751132 a 5.7378368,5.7378368 0 0 1 -1.43485,2.395378 3.6184017,3.6184017 0 0 1 -2.57137,0.851678 q -0.65478,0 -1.90764,-0.101417 v -2.635521 l 1.58701,0.02844 a 2.7921055,2.7921055 0 0 0 1.55111,-0.341833 2.2864838,2.2864838 0 0 0 0.79351,-1.215548 6.08685,6.08685 0 0 0 0.29853,-1.020204 6.7326734,6.7326734 0 0 0 -0.30594,-0.902379 l -5.05472,-13.808363 h 3.48122 l 3.56918,9.694862 3.07397,-9.694862 z m 5.59316,10.88803 v 3.824242 h -3.60199 v -3.816782 z m 7.18012,0 v 3.824242 h -3.60051 v -3.816782 z m 7.18013,0 v 3.824242 h -3.60052 v -3.816782 z"
     fill="#28ded3" />
</svg>
