<?xml version="1.0" encoding="UTF-8" standalone="no"?>
<svg
   xmlns:dc="http://purl.org/dc/elements/1.1/"
   xmlns:cc="http://creativecommons.org/ns#"
   xmlns:rdf="http://www.w3.org/1999/02/22-rdf-syntax-ns#"
   xmlns:svg="http://www.w3.org/2000/svg"
   xmlns="http://www.w3.org/2000/svg"
   xmlns:sodipodi="http://sodipodi.sourceforge.net/DTD/sodipodi-0.dtd"
   xmlns:inkscape="http://www.inkscape.org/namespaces/inkscape"
   width="150mm"
   height="150mm"
   viewBox="0 0 150 150"
   version="1.1"
   id="svg36"
   inkscape:version="1.0 (4035a4fb49, 2020-05-01)"
   sodipodi:docname="K2.svg">
  <defs
     id="defs30" />
  <sodipodi:namedview
     id="base"
     pagecolor="#ffffff"
     bordercolor="#666666"
     borderopacity="1.0"
     inkscape:pageopacity="0.0"
     inkscape:pageshadow="2"
     inkscape:zoom="0.92355231"
     inkscape:cx="237.8696"
     inkscape:cy="367.18498"
     inkscape:document-units="mm"
     inkscape:current-layer="g196"
     inkscape:document-rotation="0"
     showgrid="false"
     inkscape:window-width="1920"
     inkscape:window-height="1001"
     inkscape:window-x="-9"
     inkscape:window-y="-9"
     inkscape:window-maximized="1"
     showguides="false" />
  <metadata
     id="metadata33">
    <rdf:RDF>
      <cc:Work
         rdf:about="">
        <dc:format>image/svg+xml</dc:format>
        <dc:type
           rdf:resource="http://purl.org/dc/dcmitype/StillImage" />
        <dc:title />
      </cc:Work>
    </rdf:RDF>
  </metadata>
  <g
     inkscape:label="Layer 1"
     inkscape:groupmode="layer"
     id="layer1">
    <rect
       y="0.39881063"
       x="-161.19997"
       height="151.94643"
       width="151.94643"
       id="rect42-5"
       style="display:none;fill:#000000;stroke-width:0.233627" />
    <g
       transform="translate(311.40855,-37.815942)"
       id="g196">
      <path
         transform="matrix(0.26458333,0,0,0.26458333,-311.40855,37.815942)"
         d="M -3.6367188 1.203125 L -3.6367188 575.48828 L 570.64844 575.48828 L 570.64844 1.203125 L -3.6367188 1.203125 z M 283.18945 44.125 C 294.97965 44.012521 306.72668 48.496211 315.83398 57.603516 C 333.10287 74.872419 332.46707 90.576091 312.55859 138.39844 C 294.02031 182.92941 285.33032 193.41937 276.14648 182.35352 C 265.61445 169.66325 243.3281 114.8706 239.84961 93.117188 C 236.97479 75.138939 238.51047 70.001238 250.2832 58.228516 C 259.56595 48.945777 271.39925 44.237475 283.18945 44.125 z M 165.23633 146.44922 L 165.23828 146.44922 C 201.26384 146.44965 226.57478 158.26854 256.26953 188.95312 C 265.68806 198.68566 275.43848 206.98209 280.55469 209.82812 A 120.72949 122.35366 0 0 1 284.20703 210.72656 C 288.35006 209.45613 299.6302 200.15709 310.47266 188.95312 C 340.16795 158.26798 365.47936 146.44922 401.50586 146.44922 C 435.25515 146.44922 463.07004 158.26215 485.87109 182.2793 C 501.17792 198.4025 516.95703 236.09022 516.95703 256.5293 C 516.95703 280.89625 500.03563 315.42204 475.06055 342.01562 C 442.83913 376.32534 422.56605 403.52457 418.00586 418.56055 C 415.2058 427.7931 417.57087 431.72836 429.30664 437.35547 C 448.73443 446.67087 457.71304 465.40294 457.81055 496.82812 L 457.89062 522.33398 L 283.37305 522.33398 L 108.85547 522.33398 L 108.85547 497.9043 C 108.85547 468.42651 119.19046 446.69231 137.99414 436.62891 C 159.60185 425.06484 150.03179 405.23878 91.845703 341.02344 C 68.701615 315.4812 60.054498 301.25954 55.929688 281.95508 C 40.569447 210.06867 91.888295 146.45035 165.23633 146.44922 z "
         style="fill:#000000;stroke-width:0.883"
         id="rect42" />
    </g>
  </g>
</svg>
