<?xml version="1.0" encoding="UTF-8" standalone="no"?>
<svg
   xmlns:dc="http://purl.org/dc/elements/1.1/"
   xmlns:cc="http://creativecommons.org/ns#"
   xmlns:rdf="http://www.w3.org/1999/02/22-rdf-syntax-ns#"
   xmlns:svg="http://www.w3.org/2000/svg"
   xmlns="http://www.w3.org/2000/svg"
   xmlns:sodipodi="http://sodipodi.sourceforge.net/DTD/sodipodi-0.dtd"
   xmlns:inkscape="http://www.inkscape.org/namespaces/inkscape"
   width="261.59375"
   height="232.56641"
   viewBox="0 0 261.59375 232.56641"
   version="1.1"
   id="svg12"
   sodipodi:docname="title-tan.svg"
   inkscape:version="1.0 (4035a4fb49, 2020-05-01)">
  <metadata
     id="metadata18">
    <rdf:RDF>
      <cc:Work
         rdf:about="">
        <dc:format>image/svg+xml</dc:format>
        <dc:type
           rdf:resource="http://purl.org/dc/dcmitype/StillImage" />
        <dc:title />
      </cc:Work>
    </rdf:RDF>
  </metadata>
  <defs
     id="defs16" />
  <sodipodi:namedview
     inkscape:document-rotation="0"
     pagecolor="#ffffff"
     bordercolor="#666666"
     borderopacity="1"
     objecttolerance="10"
     gridtolerance="10"
     guidetolerance="10"
     inkscape:pageopacity="0"
     inkscape:pageshadow="2"
     inkscape:window-width="1920"
     inkscape:window-height="1001"
     id="namedview14"
     showgrid="false"
     fit-margin-top="0"
     fit-margin-left="0"
     fit-margin-right="0"
     fit-margin-bottom="0"
     inkscape:zoom="2.1498118"
     inkscape:cx="83.201897"
     inkscape:cy="164.9056"
     inkscape:window-x="-9"
     inkscape:window-y="-9"
     inkscape:window-maximized="1"
     inkscape:current-layer="svg12" />
  <g
     transform="matrix(0.91266655,0,0,0.91266655,11.42293,10.155413)"
     id="g877">
    <g
       transform="translate(-57.943222,-66.765625)"
       data-name="Group 17"
       id="Group_17">
      <g
         style="font-size:88px;font-family:Garamond"
         id="Chess"
         transform="translate(183,124)"
         aria-label="Chess">
        <path
           id="path1487"
           d="m -49.908028,-52.59375 q 0.515625,3.308594 0.515625,6.789063 0,0.6875 -0.04297,1.847656 -0.601563,0.128906 -0.902344,0.128906 -0.257813,0 -0.730469,-0.08594 -1.804687,-5.027344 -5.886719,-7.734375 -4.082031,-2.707032 -10.097656,-2.707032 -3.179687,0 -5.371094,0.730469 -3.867187,1.332031 -6.789062,3.695313 -2.921875,2.320312 -4.941406,5.585937 -2.019532,3.222656 -3.222657,7.863281 -1.160156,4.597657 -1.160156,9.410157 0,9.195312 2.792969,15.210937 2.792969,5.9726563 7.648437,8.5507812 4.855469,2.5351563 9.796875,2.5351563 l 2.019532,-0.0429687 q 3.4375,-0.4296875 4.683593,-0.8164063 3.136719,-0.9023438 5.15625,-2.1054688 2.0625,-1.2460937 3.996094,-3.4804687 1.976563,-2.234375 3.351563,-5.199219 l 0.515625,-0.171875 q 0.214843,0 0.644531,0.257813 -0.04297,1.03125 -0.08594,1.332031 -1.804687,7.2617187 -2.621093,9.9257813 -0.6875,0.171875 -1.71875,0.515625 -5.027344,1.7187499 -13.449219,1.7187499 -6.789063,0 -10.183594,-0.9453124 -3.351562,-0.90234375 -7.347656,-2.8359376 -3.953125,-1.9765623 -6.960938,-5.1992187 -3.007812,-3.2226565 -4.855468,-8.1210935 -1.847657,-4.941406 -1.847657,-10.742188 0,-5.5 1.460938,-9.582031 1.460937,-4.125 4.511719,-8.335937 3.050781,-4.210938 7.175781,-7.003907 4.167969,-2.792968 9.238281,-3.953125 3.566406,-0.773437 10.097656,-0.773437 4.769532,0 8.980469,1.289062 4.210938,1.246094 5.628906,2.449219 z" />
        <path
           id="path1489"
           d="m -43.333809,-1.03125 q 5.027344,-0.9023437 5.800781,-1.375 0.472657,-0.3007813 0.472657,-1.375 l -0.04297,-2.8359375 0.04297,-5.0273435 -0.08594,-12.804688 0.04297,-4.769531 v -3.394531 l 0.128906,-4.167969 q 0,-9.796875 -0.214844,-11.6875 -0.171875,-1.933594 -0.730468,-2.40625 -1.03125,-0.988281 -5.671875,-2.0625 v -0.214844 q 0,-0.300781 0.08594,-0.859375 0.601563,-0.08594 1.160156,-0.214843 0.558594,-0.128907 1.074219,-0.171875 5.113281,-1.460938 7.433594,-2.835938 h 2.105469 q 0.08594,1.203125 0.08594,7.605469 l -0.04297,5.457031 0.04297,7.046875 -0.171875,8.679688 q 0,0.773437 0.08594,1.71875 2.707031,-3.136719 3.953125,-4.167969 2.234375,-1.804688 4.769531,-2.835938 2.535156,-1.074218 5.328125,-1.074218 5.285156,0 8.6367186,4.46875 1.9335938,2.621093 1.9335938,7.433593 l -0.1289063,4.382813 0.042969,2.449219 -0.171875,4.253906 q -0.171875,5.285156 -0.171875,6.2734373 0,1.1171875 0.085937,3.0078124 l 2.4492187,0.5585938 q 2.4492188,0.515625 3.78125,0.9453125 l -0.042969,1.33203125 -9.1523438,-0.2578125 q -0.773438,0 -4.210938,0.171875 -2.105469,0.0859375 -2.449219,0.0859375 h -0.945312 q -0.21485,-0.38671875 -0.21485,-0.64453125 v -0.38671875 q 0.601563,-0.77343745 2.234375,-1.03124995 l 2.578125,-0.6015626 q 0.515625,-0.4296875 0.601563,-0.9023437 0.171875,-1.1171875 0.386718,-11.085938 l 0.08594,-3.179687 q 0.171875,-5.027344 -0.773438,-8.335937 -0.601562,-2.277344 -2.75,-3.609375 -2.105468,-1.375 -4.898437,-1.375 -2.320313,0 -4.382813,0.988281 -1.417968,0.730469 -3.394531,2.535156 -1.976562,1.804688 -2.75,3.09375 -0.515625,0.859375 -0.515625,2.835938 l 0.04297,3.007812 -0.08594,3.136719 q 0,0.386718 0.128907,5.3710935 l -0.04297,2.75 0.08594,3.0078125 q 0.04297,0.6445312 0.128907,0.9453125 l 6.058593,1.4609375 q 0.472657,0.1289063 1.417969,0.515625 l 0.128906,0.47265625 q 0,0.21484375 -0.214843,0.6875 Q -25.41584,0 -26.060371,0 l -3.351563,-0.04296875 -7.390625,0.0859375 -5.542969,0.171875 Q -42.775215,0.171875 -43.63459,0.12890625 L -43.67756,-0.171875 q 0,-0.34375 0.343751,-0.859375 z" />
        <path
           id="path1491"
           d="m 33.924004,-22.6875 -17.230469,0.128906 H 13.42791 q -1.976563,0 -4.0390626,0.171875 -0.3867188,1.289063 -0.3867188,1.761719 l 0.042969,0.429688 v 0.429687 l -0.042969,2.105469 q 0,2.621093 1.6328124,6.445312 1.675781,3.7812503 4.726563,5.8007815 3.09375,1.9765625 7.691406,2.1054687 2.449219,-0.1289062 3.910156,-0.6015625 1.460938,-0.4726562 4.125,-2.1914062 l 3.09375,-2.5351563 0.257813,1.7187501 q 0,0.3007812 -0.04297,0.6445312 -1.933594,2.4492187 -4.898438,4.296875 -2.964843,1.84765625 -6.015625,2.70703125 -1.460937,0.38671875 -4.8125,0.38671875 -3.050781,0 -6.015625,-1.24609375 Q 8.2716599,-2.0195313 5.7365036,-6.1875 3.2443161,-10.398438 3.2443161,-16.371094 q 0,-1.890625 0.6875,-4.855468 0.7304688,-2.964844 2.578125,-6.316407 1.2460938,-2.277343 3.0507813,-3.738281 2.5781246,-2.0625 4.5117186,-2.878906 2.792969,-1.160156 6.488281,-1.160156 3.996094,0 6.53125,1.460937 3.4375,1.933594 5.113282,4.984375 1.71875,3.050781 1.71875,5.585938 z M 9.9474411,-24.234375 h 2.0195309 q 2.191407,0 13.0625,-0.6875 1.71875,-0.08594 2.105469,-0.34375 0.773438,-0.816406 0.773438,-1.460937 0,-1.332032 -0.859375,-3.007813 -0.859375,-1.71875 -2.664063,-2.621094 -1.761719,-0.945312 -4.125,-0.945312 -4.984375,0 -7.992187,3.738281 -2.3203129,2.835938 -2.3203129,5.328125 z" />
        <path
           id="path1493"
           d="m 42.732597,-10.914063 q 1.589844,4.0820318 2.40625,5.2851568 1.632813,2.4492187 3.910157,3.8242187 2.277343,1.33203125 4.941406,1.33203125 2.449219,0 4.855469,-2.10546875 1.71875,-1.5898437 1.71875,-3.6953125 0,-2.7929688 -2.019532,-5.1562505 -2.019531,-2.320312 -7.691406,-4.425781 -5.628906,-2.148437 -7.5625,-4.554687 -1.933594,-2.40625 -1.933594,-5.5 0,-2.921875 1.589844,-5.15625 1.589844,-2.234375 4.382813,-3.351563 2.792968,-1.160156 5.15625,-1.160156 3.050781,0 5.457031,0.472656 2.449219,0.472657 4.210937,1.460938 0.34375,2.191406 0.558594,6.445312 l 0.08594,1.375 q -0.558594,0.04297 -0.945313,0.04297 h -0.601562 q -1.289063,-3.566406 -3.953125,-5.628906 -2.621094,-2.105469 -5.199219,-2.105469 -2.578125,0 -4.167969,1.589844 -1.589844,1.546875 -1.589844,4.082031 0,1.933594 1.289063,3.4375 1.289062,1.503906 6.015625,3.4375 4.769531,1.933594 6.917969,3.609375 2.191406,1.632812 3.222656,3.996094 1.03125,2.363281 1.03125,4.5117185 0,2.9648438 -1.976563,5.5429687 -1.933593,2.57812505 -4.898437,3.60937505 Q 55.02166,1.375 52.701347,1.375 q -5.457031,0 -10.054687,-2.01953125 -0.429688,-0.34375 -0.472656,-1.28906245 0,-0.3867188 -0.08594,-1.2460938 -0.6875,-5.8007813 -0.6875,-6.8750005 0,-0.515625 0.214844,-0.6875 0.214844,-0.171875 1.117187,-0.171875 z" />
        <path
           id="path1495"
           d="m 74.873222,-10.914063 q 1.589844,4.0820318 2.40625,5.2851568 1.632813,2.4492187 3.910157,3.8242187 2.277343,1.33203125 4.941406,1.33203125 2.449219,0 4.855469,-2.10546875 1.71875,-1.5898437 1.71875,-3.6953125 0,-2.7929688 -2.019532,-5.1562505 -2.019531,-2.320312 -7.691406,-4.425781 -5.628906,-2.148437 -7.5625,-4.554687 -1.933594,-2.40625 -1.933594,-5.5 0,-2.921875 1.589844,-5.15625 1.589844,-2.234375 4.382813,-3.351563 2.792968,-1.160156 5.15625,-1.160156 3.050781,0 5.457031,0.472656 2.449219,0.472657 4.210937,1.460938 0.34375,2.191406 0.558594,6.445312 l 0.08594,1.375 q -0.558594,0.04297 -0.945313,0.04297 h -0.601562 q -1.289063,-3.566406 -3.953125,-5.628906 -2.621094,-2.105469 -5.199219,-2.105469 -2.578125,0 -4.167969,1.589844 -1.589844,1.546875 -1.589844,4.082031 0,1.933594 1.289063,3.4375 1.289062,1.503906 6.015625,3.4375 4.769531,1.933594 6.917969,3.609375 2.191406,1.632812 3.222656,3.996094 1.03125,2.363281 1.03125,4.5117185 0,2.9648438 -1.976563,5.5429687 Q 93.049004,-0.73046875 90.08416,0.30078125 87.162285,1.375 84.841972,1.375 q -5.457031,0 -10.054687,-2.01953125 -0.429688,-0.34375 -0.472656,-1.28906245 0,-0.3867188 -0.08594,-1.2460938 -0.6875,-5.8007813 -0.6875,-6.8750005 0,-0.515625 0.214844,-0.6875 0.214844,-0.171875 1.117187,-0.171875 z" />
      </g>
      <g
         style="font-size:88px;font-family:Garamond"
         id="King_s"
         transform="translate(194,211)"
         aria-label="King's">
        <path
           id="path1498"
           d="m -89.546875,-27.542969 q 0.515625,-0.472656 1.71875,-1.203125 2.40625,-1.460937 8.292969,-5.84375 l 11.773437,-9.625 q 4.855469,-4.039062 6.832032,-6.359375 0.386718,-0.515625 0.601562,-1.074218 -0.773437,-0.558594 -1.761719,-0.816407 -0.988281,-0.257812 -3.136718,-0.386718 -2.148438,-0.128907 -2.578125,-0.386719 -0.386719,-0.300781 -0.386719,-0.730469 0,-0.472656 0.300781,-0.730469 0.558594,-0.386718 1.589844,-0.386718 1.632812,0 2.835937,0.257812 1.203125,0.214844 5.457032,0.214844 1.03125,0 1.503906,-0.04297 L -49.800781,-55 q 1.03125,-0.08594 1.589844,-0.08594 0.515625,0 1.546875,0.08594 0,1.03125 -0.171875,1.675781 -4.640625,0.558594 -6.832032,1.417969 -1.246093,0.515625 -5.070312,2.835938 -2.878906,1.761718 -5.242188,3.78125 l -11.085937,9.324218 -6.703125,5.414063 q 0.171875,0.300781 0.515625,0.601562 0.257812,0.214844 1.289062,1.203125 4.511719,4.210938 12.160157,10.355469 7.691406,6.101562 12.03125,10.2265625 6.359375,6.1015625 11.988281,6.7460938 1.375,0.171875 1.976562,0.77343745 l 0.04297,0.47265625 -0.08594,0.6015625 q -1.460938,0.0859375 -1.976563,0.0859375 -1.976562,0 -5.972656,-0.30078125 -2.363281,-0.171875 -3.910156,-0.171875 -6.1875,0 -14.136719,0.515625 -0.128906,-0.6015625 -0.128906,-0.90234375 l 0.04297,-0.34375 q 0.558594,-0.515625 2.234375,-0.9453125 2.320313,-0.6015625 4.898438,-0.6875 0.558594,0 1.203125,-0.085937 -0.429688,-0.6875 -1.417969,-1.5898438 -0.171875,-0.1718749 -1.160156,-1.1171874 -0.988281,-0.9882813 -3.480469,-3.1796876 l -5.113281,-4.0820317 -7.863281,-6.617187 q -3.910157,-3.351563 -10.914063,-8.550782 z m -16.585935,26.98437525 q 0.21484,-0.4296875 0.64453,-0.47265625 4.33984,-0.3867187 6.83203,-1.546875 0.859375,-0.7734375 0.859375,-2.578125 l -0.04297,-4.2109375 v -7.9921875 l 0.08594,-3.480469 -0.257813,-11.945312 0.08594,-8.035156 q 0,-6.789063 -0.257813,-9.066407 -0.08594,-0.859375 -0.558593,-1.761718 -0.773438,-0.472657 -1.289066,-0.558594 -1.84766,-0.300781 -4.76953,-0.472656 -0.60156,-0.429688 -0.60156,-1.03125 0,-0.214844 0.17187,-0.644532 2.40625,-0.128906 8.507817,-0.128906 2.835937,0 4.46875,-0.04297 2.320312,-0.128906 5.585937,-0.386718 1.417969,0.128906 3.351563,0.128906 0.472656,0.257812 0.472656,0.601562 0,0.257813 -0.08594,0.558594 -0.515625,0.257813 -1.933594,0.429688 -3.738281,0.386718 -5.070313,1.632812 -0.902343,0.859375 -0.902343,3.265625 l 0.04297,0.816406 -0.08594,16.15625 -0.128906,11.128907 0.300781,11.0429682 q 0.04297,5.2421875 0.257812,5.8007813 0.214844,0.515625 0.6875,0.8164062 1.503907,0.9023438 4.597657,1.2031251 0.773437,0.085937 1.503906,0.3007812 0.257812,0.55859375 0.257812,0.9453125 0,0.4296875 -0.515625,0.81640625 l -1.375,0.0429687 q -0.859375,0 -4.125,-0.30078125 -3.265625,-0.30078125 -4.855468,-0.30078125 -1.332032,0 -3.695313,0.30078125 -2.363279,0.30078125 -6.445309,0.30078125 -0.60157,0 -1.63282,-0.0429687 z" />
        <path
           sodipodi:nodetypes="cccccccscccccccsccscccsccccsccsc"
           id="path1500"
           d="m -40.992187,-30.550781 0.04297,-1.246094 c 1.861979,-0.544271 2.864584,-0.859375 3.007813,-0.945312 1.03125,-0.458333 2.105469,-1.160156 3.222656,-2.105469 1.145833,-0.945313 2.105469,-2.005209 2.878906,-3.179688 0.34375,-0.05729 0.615886,-0.08594 0.816407,-0.08594 l 0.515625,0.04297 c 0.114583,1.375 0.171875,2.377604 0.171875,3.007812 0,0.143229 -0.02865,0.787761 -0.08594,1.933594 v 2.277344 l 0.04297,12.375 -0.128906,13.1054683 c -0.02865,1.0598958 0.143228,1.8046874 0.515625,2.2343749 0.372395,0.4010417 1.47526,0.859375 3.308593,1.3750001 1.145833,0.3151041 2.005208,0.5872395 2.578125,0.8164062 0.08594,0.20052083 0.128907,0.37239583 0.128907,0.515625 0,0.171875 -0.07162,0.38671875 -0.214844,0.64453125 C -25.308593,0.18619725 -26.740885,0.11458333 -28.488281,0 c -2.377604,-0.20052083 -3.953125,-0.30078125 -4.726563,-0.30078125 -0.372395,0 -2.664062,0.0716146 -6.875,0.21484375 -0.859375,0.02864583 -1.690104,0.10026042 -2.492187,0.21484375 -0.143229,0 -0.372396,-0.04296875 -0.6875,-0.12890625 -0.143229,-0.20052083 -0.214844,-0.37239583 -0.214844,-0.515625 0,-0.40104167 0.272135,-0.7161458 0.816406,-0.9453125 0.114583,-0.057291 1.575521,-0.3867184 4.382813,-0.9882813 0.916667,-0.171875 1.518229,-0.4583333 1.804687,-0.859375 C -35.99349,-3.9101563 -35.75,-4.8697917 -35.75,-6.1875 c 0.05729,-2.2057292 0.08594,-8.25 0.08594,-18.132812 0,-1.976563 -0.08594,-3.208334 -0.257813,-3.695313 -0.143229,-0.34375 -0.529948,-0.730469 -1.160156,-1.160156 -0.601563,-0.458333 -1.904948,-0.916667 -3.910156,-1.375 z" />
        <path
           id="path1502"
           d="m -21.742187,-1.375 q 1.074218,-0.3007812 2.492187,-0.515625 2.707031,-0.3867188 3.222656,-0.9023438 0.558594,-0.515625 0.558594,-2.3632812 l 0.08594,-1.546875 q 0.04297,-0.859375 0.04297,-2.1914063 l -0.08594,-13.1914057 q 0,-2.664063 -0.6875,-3.4375 -1.160156,-1.203125 -4.296875,-1.675782 v -1.546875 q 3.136719,-0.859375 4.8125,-2.234375 2.449218,-1.933593 4.125,-5.242187 l 1.460937,0.04297 q 0.1289065,2.019531 0.1289065,2.878906 v 2.835937 l 0.042969,0.773438 q 0.515625,-0.34375 1.203125,-0.859375 2.5781251,-1.933594 5.2851563,-3.136719 2.70703125,-1.246094 4.8125,-1.71875 Q 2.7929688,-35.75 4.46875,-35.75 q 3.5234375,0 6.058594,1.890625 2.535156,1.890625 3.265625,4.46875 0.773437,2.535156 0.773437,10.140625 v 6.488281 q 0,0.257813 -0.08594,1.71875 -0.04297,1.4609377 -0.04297,3.3515628 0,3.0078125 0.257813,3.8242187 0.214843,0.5585937 1.117187,1.1171875 4.125,0.5585937 4.8125,1.3320313 v 0.34375 Q 20.625,-0.64453125 20.367187,0 H 19.550781 L 13.878906,-0.04296875 8.2929688,0.04296875 Q 5.1992187,0.12890625 2.578125,0 L 2.3203125,-0.90234375 q 0,-0.25781245 0.3007813,-0.68749995 1.1601562,-0.5156251 3.2656249,-0.6875001 1.2460938,-0.085937 1.71875,-0.2578125 0.4726563,-0.171875 1.1601563,-0.6875 0.515625,-1.0312499 0.515625,-1.7187499 0,-0.3007813 -0.085937,-1.203125 -0.1289062,-1.9765626 -0.171875,-9.8398438 v -2.234375 l 0.085937,-3.4375 q 0,-5.542969 -2.234375,-7.648437 -2.234375,-2.105469 -5.97265625,-2.105469 -2.87890625,0 -5.62890625,1.289062 -2.75,1.246094 -5.3281255,3.78125 -0.08594,2.0625 -0.08594,3.523438 l 0.128906,9.496093 q 0,7.4335943 0.214844,9.1093755 0.085937,0.6875 0.3007812,0.9453125 0.34375,0.34375 1.375,0.5585937 1.0312501,0.2148438 2.3632813,0.6015625 1.375,0.3867188 1.8046875,0.4726563 0.859375,0.2148438 1.1601562,0.859375 l -0.042969,0.859375 h -4.5117187 l -9.2812495,-0.12890625 q -3.222656,0.0859375 -4.082031,0.0859375 h -1.074219 l -0.08594,-0.55859375 q 0,-0.30078125 0.128907,-0.859375 z" />
        <path
           id="path1504"
           d="M 33.085937,2.8359375 Q 32.570312,2.578125 29.777344,1.4179687 26.511719,-0.6875 25.652344,-1.71875 24.792969,-2.75 24.792969,-3.9960938 q 0,-1.1171874 0.644531,-1.8046874 0.945312,-0.9882813 3.738281,-1.890625 2.792969,-0.9023438 4.597656,-1.7617188 -0.558593,-0.3867188 -1.761718,-1.117188 -6.402344,-3.953125 -6.402344,-10.957031 0,-5.757812 4.039062,-9.710937 4.082032,-3.996094 10.441407,-3.996094 2.878906,0 5.285156,0.816406 1.375,0.429688 4.082031,2.148438 1.71875,1.074219 2.019531,1.203125 0.6875,0.214844 1.546875,0.214844 0.730469,0 3.523438,-0.34375 2.835937,-0.386719 3.351562,-0.386719 0.988282,0 1.632813,0.386719 0.515625,0.859375 0.515625,2.878906 0,0.6875 -0.386719,1.03125 -0.34375,0.34375 -1.03125,0.34375 -1.203125,0 -3.996094,-0.730469 -2.75,-0.773437 -3.351562,-0.773437 -0.214844,0 -0.816406,0.08594 1.847656,3.695313 1.847656,6.746094 0,3.050781 -1.933594,6.316406 -1.933594,3.265625 -5.328125,4.984375 -3.394531,1.71875 -6.875,1.71875 -0.257812,0 -1.460937,-0.042969 -3.953125,0 -7.261719,1.9765626 -1.589844,0.9882812 -1.589844,1.8476562 0,0.9023437 1.546875,1.7617187 4.082031,2.1914063 15.46875,2.5351563 4.941406,0.171875 7.691406,1.41796875 2.75,1.24609375 4.125,3.65234375 1.417969,2.4492187 1.417969,5.0273438 0,3.4804689 -2.363281,6.4453129 -2.363281,2.964843 -7.175781,4.8125 -4.8125,1.847656 -11.042969,1.847656 -6.875,0 -10.613281,-1.675781 -3.738282,-1.675782 -5.328125,-3.652344 -1.546875,-1.976562 -1.546875,-3.910156 0,-1.675781 1.71875,-4.2109379 1.71875,-2.4921876 7.132812,-5.2421875 1.589844,-0.8164063 2.191406,-1.1601563 z m -1.71875,-24.5351565 q 0,3.867188 1.160157,6.488281 1.160156,2.578125 3.179687,3.867188 2.019531,1.246094 4.082031,1.246094 3.738282,0 6.1875,-2.835938 2.492188,-2.878906 2.492188,-8.722656 0,-5.886719 -2.578125,-8.9375 -2.578125,-3.09375 -6.230469,-3.09375 -4.082031,0 -6.1875,2.921875 -2.105469,2.921875 -2.105469,9.066406 z m -1.417968,39.789063 q 3.910156,3.007812 9.882812,3.007812 4.253906,0 8.464844,-1.375 4.253906,-1.332031 6.1875,-3.867187 1.976562,-2.492188 1.976562,-4.726563 0,-1.3749997 -0.6875,-2.7499997 -0.6875,-1.3320313 -1.890625,-2.2343751 -1.160156,-0.859375 -3.09375,-1.375 -1.375,-0.3867187 -3.910156,-0.5585937 -7.21875,-0.5585937 -8.851562,-0.5585937 -4.597657,0 -8.207032,3.0937499 -2.792968,2.4062501 -2.792968,5.7578123 0,3.09375 2.921875,5.585938 z" />
        <path
           id="path1506"
           d="M 67.632812,-34.503906 65.3125,-47.222656 q -0.988281,-5.285156 -0.988281,-7.132813 0,-2.75 1.117187,-3.996093 1.117188,-1.246094 3.050781,-1.246094 1.933594,0 3.179688,1.289062 1.289062,1.246094 1.289062,3.222657 0,1.71875 -1.117187,7.90625 l -2.320313,12.675781 z" />
        <path
           id="path1508"
           d="m 82.714844,-10.914063 q 1.589843,4.0820318 2.40625,5.2851568 1.632812,2.4492187 3.910156,3.8242187 2.277344,1.33203125 4.941406,1.33203125 2.449219,0 4.855469,-2.10546875 1.718755,-1.5898437 1.718755,-3.6953125 0,-2.7929688 -2.019536,-5.1562505 -2.019532,-2.320312 -7.691407,-4.425781 -5.628906,-2.148437 -7.5625,-4.554687 -1.933593,-2.40625 -1.933593,-5.5 0,-2.921875 1.589843,-5.15625 1.589844,-2.234375 4.382813,-3.351563 2.792969,-1.160156 5.15625,-1.160156 3.050781,0 5.457031,0.472656 2.449219,0.472657 4.210939,1.460938 0.34375,2.191406 0.55859,6.445312 l 0.0859,1.375 q -0.55859,0.04297 -0.94531,0.04297 h -0.60156 q -1.289068,-3.566406 -3.95313,-5.628906 -2.621094,-2.105469 -5.199219,-2.105469 -2.578125,0 -4.167969,1.589844 -1.589843,1.546875 -1.589843,4.082031 0,1.933594 1.289062,3.4375 1.289063,1.503906 6.015625,3.4375 4.769531,1.933594 6.917974,3.609375 2.1914,1.632812 3.22265,3.996094 1.03125,2.363281 1.03125,4.5117185 0,2.9648438 -1.97656,5.5429687 -1.93359,2.57812505 -4.898439,3.60937505 Q 95.003906,1.375 92.683594,1.375 q -5.457032,0 -10.054688,-2.01953125 -0.429687,-0.34375 -0.472656,-1.28906245 0,-0.3867188 -0.08594,-1.2460938 -0.6875,-5.8007813 -0.6875,-6.8750005 0,-0.515625 0.214844,-0.6875 0.214844,-0.171875 1.117188,-0.171875 z" />
      </g>
      <g
         style="font-size:88px;font-family:Garamond"
         id="Council"
         transform="translate(187,298)"
         aria-label="Council">
        <path
           id="path1511"
           d="m -81.963028,-52.59375 q 0.515625,3.308594 0.515625,6.789063 0,0.6875 -0.04297,1.847656 -0.601562,0.128906 -0.902343,0.128906 -0.257813,0 -0.730469,-0.08594 -1.804688,-5.027344 -5.886719,-7.734375 -4.082031,-2.707032 -10.097656,-2.707032 -3.17969,0 -5.37109,0.730469 -3.86719,1.332031 -6.78907,3.695313 -2.92187,2.320312 -4.9414,5.585937 -2.01953,3.222656 -3.22266,7.863281 -1.16015,4.597657 -1.16015,9.410157 0,9.195312 2.79296,15.210937 2.79297,5.9726563 7.64844,8.5507812 4.85547,2.5351563 9.79688,2.5351563 l 2.019527,-0.0429687 q 3.4375,-0.4296875 4.683594,-0.8164063 3.136719,-0.9023438 5.15625,-2.1054688 2.0625,-1.2460937 3.996094,-3.4804687 1.976562,-2.234375 3.351562,-5.199219 l 0.515625,-0.171875 q 0.214844,0 0.644532,0.257813 -0.04297,1.03125 -0.08594,1.332031 -1.804687,7.2617187 -2.621094,9.9257813 -0.6875,0.171875 -1.71875,0.515625 -5.027343,1.7187499 -13.449218,1.7187499 -6.789062,0 -10.183592,-0.9453124 -3.35156,-0.90234375 -7.34766,-2.8359376 -3.95312,-1.9765623 -6.96093,-5.1992187 -3.00782,-3.2226565 -4.85547,-8.1210935 -1.84766,-4.941406 -1.84766,-10.742188 0,-5.5 1.46094,-9.582031 1.46094,-4.125 4.51172,-8.335937 3.05078,-4.210938 7.17578,-7.003907 4.16797,-2.792968 9.23828,-3.953125 3.56641,-0.773437 10.097654,-0.773437 4.769531,0 8.980469,1.289062 4.210937,1.246094 5.628906,2.449219 z" />
        <path
           id="path1513"
           d="m -73.884903,-17.273437 q 0,-2.921875 1.203125,-6.230469 1.246094,-3.351563 3.738281,-5.972656 2.492188,-2.664063 5.285157,-3.953125 3.910156,-1.804688 9.539062,-1.804688 8.035156,0 13.40625,5.5 5.414063,5.5 5.414063,13.234375 0,6.875 -5.671875,12.2890625 -5.628907,5.3710937 -14.265625,5.3710937 -5.328125,0 -10.054688,-2.7929687 -3.523437,-2.1054688 -6.058594,-6.2304687 -2.535156,-4.1249998 -2.535156,-9.4101558 z m 18.992188,16.757812 q 3.265625,0 6.273437,-1.7617188 3.050781,-1.7617187 4.855469,-5.6289062 1.804687,-3.910156 1.804687,-9.023437 0,-3.351563 -1.417968,-7.777344 -1.375,-4.425781 -4.296875,-6.617188 -2.878907,-2.234375 -6.789063,-2.234375 -2.835937,0 -5.800781,1.332032 -2.921875,1.332031 -4.984375,5.113281 -2.019531,3.78125 -2.019531,10.742187 0,7.8203127 3.523437,11.8593753 3.566406,3.9960937 8.851563,3.9960937 z" />
        <path
           id="path1515"
           d="m -30.744278,-33.730469 h 3.222656 l 1.417969,0.08594 1.117188,-0.08594 q 4.425781,0 5.5,0.08594 l 0.04297,0.816406 q 0,6.058594 -0.171875,11.730469 -0.128906,3.351562 -0.128906,3.824219 0,7.5624995 0.472656,9.4531245 0.515625,1.890625 2.320313,3.0507813 1.847656,1.1171874 4.425781,1.1171874 3.1367188,0 5.9726563,-1.2890624 2.8789062,-1.3320313 4.8984375,-3.2226563 0.2148437,-1.6328125 0.2148437,-3.6093755 0,-6.402343 0.1289063,-8.636718 0.042969,-1.332031 0.042969,-2.320313 0,-6.960937 -0.6875,-7.863281 -0.6875,-0.902344 -5.2421875,-1.375 -1.5039062,-0.171875 -2.1914062,-0.300781 -0.34375,-0.558594 -0.34375,-0.859375 l 0.1289062,-0.472656 q 1.1171875,-0.128907 2.1914063,-0.128907 l 6.83203125,0.08594 q 3.65234375,-0.08594 3.86718745,-0.08594 0.4726563,0 0.9023438,0.04297 l 0.085937,3.136719 q -0.3007813,6.53125 -0.34375,16.15625 l -0.085937,3.480468 0.171875,5.8437505 q 0.3867187,0.6875 0.6875,0.8164063 0.515625,0.2148437 2.1054687,0.2148437 h 0.3867188 q 0.5585937,0 3.1796874,0.2578125 0.04297,0.5585937 0.04297,0.8164062 v 0.4726563 Q 4.661972,-1.2460937 1.0955658,0 -0.32240295,0.47265625 -1.3106842,0.6875 -1.525528,-0.81640625 -1.525528,-1.1601562 V -4.640625 q 0,-0.2148437 -0.042969,-1.1601562 -0.5585938,0.3867187 -1.2890625,0.9453125 -3.3945313,2.6210937 -7.1757805,4.4257812 -2.535157,1.24609375 -4.898438,1.24609375 -4.511719,0 -7.347656,-3.35156255 -2.878906,-3.3515624 -2.878906,-11.4296877 0,-0.429687 0.04297,-1.546875 0.171875,-2.0625 0.171875,-2.878906 0,-0.300781 -0.04297,-1.890625 -0.04297,-0.6875 -0.04297,-1.203125 0,-0.386719 0.04297,-1.71875 0.04297,-1.375 0.04297,-1.933594 0,-0.730468 -0.04297,-1.289062 l -0.08594,-2.277344 0.04297,-1.203125 q 0,-0.6875 -0.6875,-1.246094 -2.707031,-0.730468 -3.566406,-0.816406 -0.816407,-0.128906 -1.460938,-0.386719 z" />
        <path
           id="path1517"
           d="m 12.611191,-1.375 q 1.074219,-0.3007812 2.492187,-0.515625 2.707032,-0.3867188 3.222657,-0.9023438 0.558593,-0.515625 0.558593,-2.3632812 l 0.08594,-1.546875 q 0.04297,-0.859375 0.04297,-2.1914063 l -0.08594,-13.1914057 q 0,-2.664063 -0.6875,-3.4375 -1.160156,-1.203125 -4.296875,-1.675782 v -1.546875 q 3.136719,-0.859375 4.8125,-2.234375 2.449219,-1.933593 4.125,-5.242187 l 1.460938,0.04297 q 0.128906,2.019531 0.128906,2.878906 v 2.835937 l 0.04297,0.773438 q 0.515625,-0.34375 1.203125,-0.859375 2.578125,-1.933594 5.285156,-3.136719 2.707031,-1.246094 4.8125,-1.71875 1.332031,-0.34375 3.007812,-0.34375 3.523438,0 6.058594,1.890625 2.535156,1.890625 3.265625,4.46875 0.773438,2.535156 0.773438,10.140625 v 6.488281 q 0,0.257813 -0.08594,1.71875 -0.04297,1.4609377 -0.04297,3.3515628 0,3.0078125 0.257813,3.8242187 0.214844,0.5585937 1.117187,1.1171875 4.125,0.5585937 4.8125,1.3320313 v 0.34375 q 0,0.42968745 -0.257812,1.0742187 H 53.90416 l -5.671875,-0.04296875 -5.585938,0.0859375 Q 39.552597,0.12890625 36.931503,0 l -0.257812,-0.90234375 q 0,-0.25781245 0.300781,-0.68749995 1.160156,-0.5156251 3.265625,-0.6875001 1.246094,-0.085937 1.71875,-0.2578125 0.472656,-0.171875 1.160156,-0.6875 0.515625,-1.0312499 0.515625,-1.7187499 0,-0.3007813 -0.08594,-1.203125 -0.128906,-1.9765626 -0.171875,-9.8398438 v -2.234375 l 0.08594,-3.4375 q 0,-5.542969 -2.234375,-7.648437 -2.234375,-2.105469 -5.972656,-2.105469 -2.878906,0 -5.628906,1.289062 -2.75,1.246094 -5.328125,3.78125 -0.08594,2.0625 -0.08594,3.523438 l 0.128907,9.496093 q 0,7.4335943 0.214843,9.1093755 0.08594,0.6875 0.300782,0.9453125 0.34375,0.34375 1.375,0.5585937 1.03125,0.2148438 2.363281,0.6015625 1.375,0.3867188 1.804687,0.4726563 0.859375,0.2148438 1.160157,0.859375 l -0.04297,0.859375 h -4.511719 l -9.28125,-0.12890625 q -3.222656,0.0859375 -4.082031,0.0859375 H 12.568222 L 12.482285,-0.515625 q 0,-0.30078125 0.128906,-0.859375 z" />
        <path
           id="path1519"
           d="m 90.169785,-7.8632812 0.04297,2.7929687 q -3.351562,3.5664063 -6.617187,4.984375 -3.265625,1.4179687 -7.691406,1.4179687 -4.8125,0 -8.679688,-2.4921874 -3.867187,-2.5351563 -5.972656,-7.1328126 -2.0625,-4.5976562 -2.0625,-9.0234372 0,-4.855469 2.492187,-9.152344 2.535157,-4.339844 6.660157,-6.445312 4.167968,-2.148438 10.441406,-2.148438 6.015625,0 9.152344,2.0625 1.761718,1.203125 1.761718,3.09375 0,1.375 -0.902343,2.277344 -0.902344,0.902344 -2.320313,0.902344 -2.148437,0 -4.726562,-2.664063 -1.589844,-1.632812 -2.878907,-2.234375 -1.289062,-0.644531 -2.878906,-0.644531 -3.824219,0 -6.359375,3.136719 -3.523437,4.46875 -3.523437,11.214843 0,6.960938 3.609375,11.0859378 3.609375,4.1249999 8.421875,4.1249999 3.351562,0 5.929687,-1.0742187 2.621094,-1.1171875 6.101563,-4.0820312 z" />
        <path
           sodipodi:nodetypes="cccccccscccccccsccscccsccccsccsc"
           id="path1521"
           d="m 94.939316,-30.550781 0.04297,-1.246094 c 1.861979,-0.544271 2.864583,-0.859375 3.007812,-0.945312 1.03125,-0.458333 2.105472,-1.160156 3.222652,-2.105469 1.14583,-0.945313 2.10547,-2.005209 2.87891,-3.179688 0.34375,-0.05729 0.61588,-0.08594 0.81641,-0.08594 l 0.51562,0.04297 c 0.11459,1.375 0.17188,2.377604 0.17188,3.007812 0,0.143229 -0.0286,0.787761 -0.0859,1.933594 v 2.277344 l 0.043,12.375 -0.12891,13.1054683 c -0.0287,1.0598958 0.14321,1.8046874 0.51563,2.2343749 0.37239,0.4010417 1.47526,0.859375 3.30859,1.3750001 1.14583,0.3151041 2.00521,0.5872395 2.57812,0.8164062 0.0859,0.20052083 0.12891,0.37239583 0.12891,0.515625 0,0.171875 -0.0716,0.38671875 -0.21484,0.64453125 C 110.62294,0.18619725 109.19062,0.11458333 107.44322,0 c -2.3776,-0.20052083 -3.95312,-0.30078125 -4.72656,-0.30078125 -0.37239,0 -2.66406,0.0716146 -6.875,0.21484375 -0.859375,0.02864583 -1.690105,0.10026042 -2.492188,0.21484375 -0.143229,0 -0.372396,-0.04296875 -0.6875,-0.12890625 -0.143229,-0.20052083 -0.214844,-0.37239583 -0.214844,-0.515625 0,-0.40104167 0.272136,-0.7161458 0.816407,-0.9453125 0.114583,-0.057291 1.575521,-0.3867184 4.382812,-0.9882813 0.916667,-0.171875 1.518229,-0.4583333 1.804688,-0.859375 0.486977,-0.6015625 0.730465,-1.5611979 0.730465,-2.8789062 0.0573,-2.2057292 0.0859,-8.25 0.0859,-18.132812 0,-1.976563 -0.0859,-3.208334 -0.25781,-3.695313 -0.14323,-0.34375 -0.529949,-0.730469 -1.160158,-1.160156 -0.601563,-0.458333 -1.904948,-0.916667 -3.910156,-1.375 z" />
        <path
           id="path1523"
           d="m 114.79088,-53.238281 v -0.945313 Q 115.994,-54.570312 117.45494,-55 q 2.14844,-0.6875 6.35938,-2.105469 h 2.01953 q 0.043,2.0625 0.043,2.363282 0,35.277343 -0.21485,42.066406 -0.1289,3.9960935 -0.1289,4.253906 0,4.8125 0.38671,5.3710937 0.51563,0.7734375 3.13672,1.0742188 2.66407,0.3007813 3.13672,0.6015625 0.34375,0.171875 0.34375,0.6015625 0,0.47265625 -0.21484,0.6875 -0.17188,0.171875 -0.6875,0.171875 -0.30078,0 -4.51172,-0.12890625 l -5.62891,-0.171875 -7.21875,0.30078125 q -0.6875,0.04296875 -1.03125,-0.2578125 -0.25781,-0.21484375 -0.25781,-0.6015625 0,-0.4296875 0.25781,-0.6015625 0.30078,-0.2148437 3.09375,-0.6875 2.83594,-0.4726563 3.22266,-0.7734375 0.42969,-0.34375 0.55859,-1.4609375 0.17188,-1.546875 0.17188,-8.722656 l -0.043,-9.882813 0.12891,-10.226562 -0.043,-10.226563 0.1289,-5.027343 q 0,-1.503907 -0.47265,-2.148438 -0.47266,-0.6875 -2.01953,-1.332031 -2.32032,-0.945313 -3.17969,-1.375 z" />
      </g>
    </g>
    <path
       style="fill:#000000;fill-opacity:1;stroke-width:0.20558"
       d="m 225.65765,188.99092 c 0,-0.21071 0.0877,-0.84556 0.1949,-1.41078 l 0.1949,-1.02766 -0.89428,-0.9603 c -2.1989,-2.36123 -2.24106,-4.58713 -0.11435,-6.03456 0.88792,-0.60431 2.21279,-0.62051 2.9557,-0.0361 l 0.54212,0.42642 0.60492,-0.47782 c 0.7547,-0.59614 0.90006,-1.81408 0.21651,-1.81408 -0.22842,0 -0.41116,-0.13706 -0.41116,-0.30837 0,-0.17131 0.18274,-0.30837 0.41116,-0.30837 0.2741,0 0.41116,-0.13705 0.41116,-0.41116 0,-0.2741 0.13706,-0.41115 0.41116,-0.41115 0.2741,0 0.41116,0.13705 0.41116,0.41115 0,0.27411 0.13706,0.41116 0.41115,0.41116 0.22843,0 0.41116,0.13706 0.41116,0.30837 0,0.17131 -0.18273,0.30837 -0.41116,0.30837 -0.62337,0 -0.55004,1.0759 0.11893,1.74487 l 0.53008,0.53008 0.67626,-0.41795 c 1.74814,-1.08041 4.21689,0.15952 4.5629,2.29172 0.16056,0.98936 -0.59932,2.64469 -1.75909,3.83203 l -0.86765,0.88828 0.21951,1.02344 c 0.42797,1.99562 0.82894,1.82554 -4.30325,1.82554 -4.27526,0 -4.52274,-0.021 -4.52274,-0.3831 z m 8.42873,-0.54202 c 0,-0.26328 -0.57106,-0.30835 -3.90599,-0.30835 -3.33496,0 -3.90601,0.0451 -3.90601,0.30835 0,0.26329 0.57105,0.30838 3.90601,0.30838 3.33493,0 3.90599,-0.0451 3.90599,-0.30838 z m -6.81087,-1.26573 c -0.37181,-0.44799 -0.79554,-0.32365 -0.79554,0.23343 0,0.46847 0.0413,0.49073 0.51232,0.27611 0.3976,-0.18116 0.46102,-0.29529 0.28322,-0.50954 z m 6.6053,0.23784 c 0,-0.54854 -0.37344,-0.67502 -0.7832,-0.26527 -0.19452,0.19452 -0.1475,0.30486 0.21588,0.50666 0.25548,0.14189 0.48766,0.26127 0.51591,0.26528 0.0283,0.005 0.0514,-0.224 0.0514,-0.50667 z m -2.67254,-0.39279 c 0,-0.0406 -0.23127,-0.2254 -0.51393,-0.41062 -0.4774,-0.31279 -0.55187,-0.31191 -1.04696,0.0125 l -0.533,0.34924 0.47407,0.35761 c 0.42358,0.3195 0.53517,0.32604 1.04696,0.0614 0.31507,-0.16292 0.57286,-0.32947 0.57286,-0.37009 z m -2.36598,-1.16873 c 1.26225,-0.21608 2.75867,-0.11739 3.98079,0.26255 0.66461,0.20661 0.73011,0.17452 1.79874,-0.88083 1.82924,-1.80651 2.18503,-3.58494 0.95244,-4.76079 -0.93669,-0.89359 -1.58903,-1.03963 -2.61559,-0.58553 -0.98031,0.43363 -1.72243,1.48339 -2.28457,3.2316 -0.17778,0.55289 -0.371,1.14403 -0.42935,1.31363 -0.0584,0.1696 -0.23942,-0.20007 -0.40234,-0.8215 -0.47824,-1.82409 -1.31814,-3.11515 -2.38351,-3.66381 -0.85587,-0.44077 -0.97815,-0.45443 -1.62985,-0.18214 -0.38751,0.16191 -0.95462,0.59159 -1.2603,0.95484 -1.01678,1.20839 -0.6263,2.72183 1.18844,4.60621 0.75496,0.78395 1.05486,0.96871 1.40651,0.86651 0.24582,-0.0714 1.00118,-0.22477 1.67859,-0.34074 z m -2.70269,-1.26114 c -1.04709,-1.08756 -1.30427,-1.57868 -1.30427,-2.4906 0,-0.54577 0.14956,-0.8406 0.6325,-1.24699 0.34789,-0.29272 0.82133,-0.53223 1.05209,-0.53223 0.66356,0 1.90641,1.4173 2.39545,2.73165 0.65459,1.75928 0.61449,1.92423 -0.5087,2.09266 -0.52325,0.0785 -1.05727,0.1833 -1.18668,0.23297 -0.12942,0.0497 -0.61561,-0.3047 -1.08039,-0.78746 z m 5.92076,0.60456 -1.10091,-0.21108 0.11902,-0.73336 c 0.19935,-1.22844 1.32362,-3.28212 1.9836,-3.62342 0.81821,-0.42311 1.10124,-0.38821 1.83085,0.22571 0.68675,0.57786 0.84771,1.54089 0.40293,2.4108 -0.25723,0.50312 -1.85033,2.21136 -2.02318,2.16945 -0.0613,-0.0148 -0.60679,-0.122 -1.21231,-0.2381 z m -1.67441,-2.8779 c 0,-0.1457 0.18408,-0.62594 0.40905,-1.06721 0.37164,-0.72896 0.38061,-0.84571 0.098,-1.27695 -0.38316,-0.58478 -0.93928,-0.60811 -1.43515,-0.0602 -0.36373,0.40193 -0.3616,0.44133 0.0709,1.30739 0.24527,0.49114 0.44596,0.99848 0.44596,1.12743 0,0.12895 0.0925,0.23446 0.20559,0.23446 0.11306,0 0.20557,-0.11921 0.20557,-0.26491 z m -0.49869,-1.5169 c -0.1686,-0.43941 0.20776,-0.85274 0.50545,-0.55506 0.22353,0.22352 0.0641,0.89781 -0.21232,0.89781 -0.0889,0 -0.22078,-0.15424 -0.29313,-0.34275 z"
       id="path863" />
    <path
       id="path863-7"
       d="m 96.596592,102.29084 c 0,-0.21071 0.0877,-0.84556 0.1949,-1.41078 l 0.1949,-1.027656 -0.89428,-0.9603 c -2.1989,-2.36123 -2.24106,-4.58713 -0.11435,-6.03456 0.88792,-0.60431 2.21279,-0.62051 2.9557,-0.0361 l 0.54212,0.42642 0.604918,-0.47782 c 0.7547,-0.59614 0.90006,-1.81408 0.21651,-1.81408 -0.22842,0 -0.411158,-0.13706 -0.411158,-0.30837 0,-0.17131 0.182738,-0.30837 0.411158,-0.30837 0.2741,0 0.41116,-0.13705 0.41116,-0.41116 0,-0.2741 0.13706,-0.41115 0.41116,-0.41115 0.2741,0 0.41116,0.13705 0.41116,0.41115 0,0.27411 0.13706,0.41116 0.41115,0.41116 0.22843,0 0.41116,0.13706 0.41116,0.30837 0,0.17131 -0.18273,0.30837 -0.41116,0.30837 -0.62337,0 -0.55004,1.0759 0.11893,1.74487 l 0.53008,0.53008 0.67626,-0.41795 c 1.74814,-1.08041 4.21689,0.15952 4.5629,2.29172 0.16056,0.98936 -0.59932,2.64469 -1.75909,3.83203 l -0.86765,0.88828 0.21951,1.023436 c 0.42797,1.99562 0.82894,1.82554 -4.30325,1.82554 -4.275258,0 -4.522738,-0.021 -4.522738,-0.3831 z m 8.428728,-0.54202 c 0,-0.26328 -0.57106,-0.30835 -3.90599,-0.30835 -3.334958,0 -3.906008,0.0451 -3.906008,0.30835 0,0.26329 0.57105,0.30838 3.906008,0.30838 3.33493,0 3.90599,-0.0451 3.90599,-0.30838 z m -6.810868,-1.26573 c -0.37181,-0.44799 -0.79554,-0.32365 -0.79554,0.23343 0,0.46847 0.0413,0.49073 0.51232,0.27611 0.3976,-0.18116 0.46102,-0.29529 0.28322,-0.50954 z m 6.605298,0.23784 c 0,-0.54854 -0.37344,-0.67502 -0.7832,-0.26527 -0.19452,0.19452 -0.1475,0.30486 0.21588,0.50666 0.25548,0.14189 0.48766,0.26127 0.51591,0.26528 0.0283,0.005 0.0514,-0.224 0.0514,-0.50667 z m -2.67254,-0.39279 c 0,-0.0406 -0.23127,-0.2254 -0.51393,-0.410616 -0.4774,-0.31279 -0.55187,-0.31191 -1.04696,0.0125 l -0.533,0.349236 0.47407,0.35761 c 0.42358,0.3195 0.53517,0.32604 1.04696,0.0614 0.31507,-0.16292 0.57286,-0.32947 0.57286,-0.37009 z m -2.365978,-1.168726 c 1.262248,-0.21608 2.758668,-0.11739 3.980788,0.26255 0.66461,0.20661 0.73011,0.17452 1.79874,-0.88083 1.82924,-1.80651 2.18503,-3.58494 0.95244,-4.76079 -0.93669,-0.89359 -1.58903,-1.03963 -2.61559,-0.58553 -0.98031,0.43363 -1.72243,1.48339 -2.28457,3.2316 -0.17778,0.55289 -0.371,1.14403 -0.42935,1.31363 -0.0584,0.1696 -0.23942,-0.20007 -0.40234,-0.8215 -0.47824,-1.82409 -1.318138,-3.11515 -2.383508,-3.66381 -0.85587,-0.44077 -0.97815,-0.45443 -1.62985,-0.18214 -0.38751,0.16191 -0.95462,0.59159 -1.2603,0.95484 -1.01678,1.20839 -0.6263,2.72183 1.18844,4.60621 0.75496,0.78395 1.05486,0.96871 1.40651,0.86651 0.24582,-0.0714 1.00118,-0.22477 1.67859,-0.34074 z m -2.70269,-1.26114 c -1.04709,-1.08756 -1.30427,-1.57868 -1.30427,-2.4906 0,-0.54577 0.14956,-0.8406 0.6325,-1.24699 0.34789,-0.29272 0.82133,-0.53223 1.05209,-0.53223 0.66356,0 1.90641,1.4173 2.39545,2.73165 0.654588,1.75928 0.614488,1.92423 -0.5087,2.09266 -0.52325,0.0785 -1.05727,0.1833 -1.18668,0.23297 -0.12942,0.0497 -0.61561,-0.3047 -1.08039,-0.78746 z m 5.920758,0.60456 -1.10091,-0.21108 0.11902,-0.73336 c 0.19935,-1.22844 1.32362,-3.28212 1.9836,-3.62342 0.81821,-0.42311 1.10124,-0.38821 1.83085,0.22571 0.68675,0.57786 0.84771,1.54089 0.40293,2.4108 -0.25723,0.50312 -1.85033,2.21136 -2.02318,2.16945 -0.0613,-0.0148 -0.60679,-0.122 -1.21231,-0.2381 z m -1.67441,-2.8779 c 0,-0.1457 0.18408,-0.62594 0.40905,-1.06721 0.37164,-0.72896 0.38061,-0.84571 0.098,-1.27695 -0.38316,-0.58478 -0.93928,-0.60811 -1.43515,-0.0602 -0.36373,0.40193 -0.3616,0.44133 0.0709,1.30739 0.24527,0.49114 0.44596,0.99848 0.44596,1.12743 0,0.12895 0.0925,0.23446 0.20559,0.23446 0.11306,0 0.20557,-0.11921 0.20557,-0.26491 z m -0.49869,-1.5169 c -0.1686,-0.43941 0.20776,-0.85274 0.50545,-0.55506 0.22353,0.22352 0.0641,0.89781 -0.21232,0.89781 -0.0889,0 -0.22078,-0.15424 -0.29313,-0.34275 z"
       style="fill:#000000;fill-opacity:1;stroke-width:0.20558" />
  </g>
</svg>
