<?xml version="1.0" encoding="UTF-8" standalone="no"?>
<svg
   xmlns:dc="http://purl.org/dc/elements/1.1/"
   xmlns:cc="http://creativecommons.org/ns#"
   xmlns:rdf="http://www.w3.org/1999/02/22-rdf-syntax-ns#"
   xmlns:svg="http://www.w3.org/2000/svg"
   xmlns="http://www.w3.org/2000/svg"
   xmlns:sodipodi="http://sodipodi.sourceforge.net/DTD/sodipodi-0.dtd"
   xmlns:inkscape="http://www.inkscape.org/namespaces/inkscape"
   sodipodi:docname="resign-game-b1faae.svg"
   inkscape:version="0.92.4 (5da689c313, 2019-01-14)"
   id="svg8"
   version="1.1"
   viewBox="0 0 14.022918 15.875"
   height="60"
   width="53">
  <defs
     id="defs2">
    <inkscape:path-effect
       end_linecap_type="zerowidth"
       scale_width="1"
       miter_limit="4"
       linejoin_type="extrp_arc"
       start_linecap_type="zerowidth"
       interpolator_beta="0.2"
       interpolator_type="CubicBezierJohan"
       sort_points="true"
       offset_points="0,0.11686757"
       lpeversion="1"
       is_visible="true"
       id="path-effect851"
       effect="powerstroke" />
  </defs>
  <sodipodi:namedview
     inkscape:window-maximized="1"
     inkscape:window-y="-8"
     inkscape:window-x="-8"
     inkscape:window-height="1017"
     inkscape:window-width="1920"
     fit-margin-bottom="0"
     fit-margin-right="0"
     fit-margin-left="0"
     fit-margin-top="0"
     showgrid="false"
     inkscape:document-rotation="0"
     inkscape:current-layer="g3380"
     inkscape:document-units="mm"
     inkscape:cy="28.875854"
     inkscape:cx="9.3187793"
     inkscape:zoom="9.9937758"
     inkscape:pageshadow="2"
     inkscape:pageopacity="0"
     borderopacity="1.0"
     bordercolor="#666666"
     pagecolor="#969696"
     id="base"
     inkscape:snap-global="false"
     units="px" />
  <metadata
     id="metadata5">
    <rdf:RDF>
      <cc:Work
         rdf:about="">
        <dc:format>image/svg+xml</dc:format>
        <dc:type
           rdf:resource="http://purl.org/dc/dcmitype/StillImage" />
        <dc:title />
      </cc:Work>
    </rdf:RDF>
  </metadata>
  <g
     transform="translate(-39.25058,-86.687595)"
     id="layer1"
     inkscape:groupmode="layer"
     inkscape:label="Layer 1">
    <g
       id="g855">
      <g
         transform="matrix(0.31981091,0,0,0.31981091,32.593398,7.2130206)"
         id="g3380">
        <path
           inkscape:connector-curvature="0"
           id="path847"
           d="m 34.281181,280.62636 c -0.466241,-0.75178 -1.183764,-2.1199 -1.29392,-2.46716 -0.03252,-0.10252 -0.09039,-0.25399 -0.128597,-0.33659 -0.127992,-0.2767 -0.200443,-0.69571 -0.149834,-0.86654 0.04649,-0.15693 0.0634,-0.17305 0.603956,-0.57585 0.489243,-0.36456 0.573608,-0.41571 0.701494,-0.42536 0.113686,-0.009 0.163061,-0.0342 0.226549,-0.1176 0.136084,-0.17875 0.456907,-0.39262 0.647019,-0.43132 0.106591,-0.0217 0.322744,0.002 0.553693,0.06 0.556026,0.14033 1.021683,0.20905 1.176422,0.17362 0.07687,-0.0176 0.247574,-0.11421 0.392083,-0.22189 0.311937,-0.23244 0.473975,-0.25132 0.773958,-0.0902 0.10983,0.059 0.208003,0.11098 0.218158,0.11551 0.02563,0.0115 0.748253,-0.21221 1.080058,-0.33431 0.508663,-0.18717 1.155743,-0.45457 1.450632,-0.59947 0.161288,-0.0793 0.425135,-0.20905 0.586326,-0.28845 0.161188,-0.0794 0.494609,-0.26872 0.740933,-0.42073 0.246324,-0.15201 0.609997,-0.37532 0.808159,-0.49624 0.543935,-0.33191 1.435499,-1.01121 1.963267,-1.49584 0.692336,-0.63576 0.673948,-0.61007 0.609154,-0.85096 -0.07376,-0.27423 -0.07503,-0.42436 -0.005,-0.5954 0.07029,-0.17176 0.225425,-0.29641 0.401512,-0.32259 0.137087,-0.0204 0.430113,0.0573 0.477101,0.12655 0.01877,0.0276 0.04718,0.0152 0.08467,-0.0369 0.09903,-0.13783 0.242973,-0.2125 0.37359,-0.19378 0.112541,0.0161 0.134524,0.005 0.194554,-0.0949 0.05695,-0.0952 0.0934,-0.11789 0.230044,-0.14323 0.151488,-0.0281 0.172092,-0.0428 0.30736,-0.21935 0.155568,-0.20305 0.434129,-0.6283 0.545997,-0.83352 0.03773,-0.0692 0.07751,-0.13249 0.0884,-0.1406 0.01089,-0.008 0.06174,-0.0903 0.112995,-0.18271 0.202802,-0.36546 0.439627,-0.74121 0.491554,-0.77991 0.07756,-0.0578 0.51132,0.19993 0.732013,0.43492 0.09894,0.10535 0.209058,0.20659 0.244719,0.22498 0.03566,0.0184 0.206171,0.20246 0.378907,0.40904 0.172739,0.20658 0.323787,0.37783 0.335657,0.38054 0.01188,0.003 0.0319,-0.0441 0.0445,-0.10391 0.01564,-0.0743 0.09131,-0.16796 0.238546,-0.29519 0.233938,-0.20214 0.377783,-0.25777 0.649183,-0.25103 l 0.159788,0.004 -0.141043,-0.16844 c -0.07757,-0.0926 -0.184807,-0.19922 -0.238297,-0.23684 -0.126386,-0.0889 -0.12048,-0.17292 0.02726,-0.38784 0.128475,-0.18689 0.6508,-0.59558 0.820315,-0.64186 0.132062,-0.0361 0.174924,0.0252 0.196511,0.28103 0.02204,0.26104 0.147608,0.5393 0.219284,0.4859 0.10754,-0.0801 0.303381,-0.51708 0.366772,-0.81832 0.01066,-0.0507 0.05611,-0.11198 0.100966,-0.1361 0.06474,-0.0348 0.123087,-0.0114 0.282899,0.1134 0.162296,0.12676 0.268533,0.25617 0.547789,0.66731 0.304493,0.44829 0.356647,0.54585 0.430714,0.80575 0.09721,0.34113 0.05805,0.42401 -0.189376,0.40073 -0.08454,-0.008 -0.192585,-0.0183 -0.240086,-0.023 -0.275742,-0.0273 -0.613374,0.0579 -0.629622,0.15877 -0.0062,0.0384 0.408259,0.32956 0.489657,0.34395 0.03035,0.005 0.08407,0.0523 0.119387,0.10433 0.05035,0.0742 0.04877,0.11458 -0.0073,0.18725 -0.125035,0.16204 -0.617911,0.48724 -0.852475,0.56247 -0.249748,0.0801 -0.256389,0.0746 -0.443178,-0.36718 -0.100848,-0.23852 -0.162755,-0.29517 -0.167033,-0.15285 -0.0042,0.13924 -0.209325,0.44904 -0.383077,0.57851 -0.09479,0.0706 -0.235614,0.13335 -0.341853,0.15224 -0.214661,0.0382 -0.224431,0.08 -0.07248,0.31013 0.05609,0.085 0.131123,0.22495 0.166726,0.31108 0.03561,0.0861 0.137999,0.33198 0.227535,0.54631 0.198095,0.47421 0.282836,0.8262 0.219965,0.91371 -0.02631,0.0366 -0.175978,0.0931 -0.343089,0.12941 -0.163033,0.0354 -0.308935,0.073 -0.324229,0.0834 -0.01529,0.0104 -0.10631,0.0329 -0.202266,0.05 -0.09595,0.0171 -0.185928,0.0388 -0.199944,0.0483 -0.014,0.009 -0.107583,0.0337 -0.20793,0.0538 -0.291437,0.0583 -0.945306,0.2388 -1.060115,0.29264 -0.06647,0.0312 -0.118986,0.0899 -0.142643,0.15967 -0.04373,0.12885 -0.177211,0.23992 -0.268883,0.22371 -0.04843,-0.009 -0.07722,0.033 -0.117786,0.16989 -0.05239,0.17682 -0.134978,0.25422 -0.313423,0.29375 -0.04503,0.01 -0.05823,0.0654 -0.04398,0.1849 0.01119,0.0939 -0.0062,0.24546 -0.03861,0.33688 -0.134513,0.37933 -0.522902,0.45502 -0.906359,0.17663 -0.122031,-0.0886 -0.229011,-0.16286 -0.237728,-0.16505 -0.02868,-0.007 -0.874425,0.48998 -1.397099,0.82129 -1.041595,0.66025 -2.392302,1.82644 -3.286597,2.83763 -0.861154,0.97371 -1.640263,2.01312 -1.607854,2.14504 0.03132,0.12747 0.02579,0.49351 -0.009,0.59605 -0.02476,0.073 -0.117464,0.16504 -0.312598,0.31044 -0.246506,0.18369 -0.284946,0.22753 -0.345132,0.39367 -0.1043,0.28791 -0.140604,0.47432 -0.200679,1.03047 -0.06585,0.6096 -0.155271,0.81393 -0.453407,1.03609 -0.108886,0.0811 -0.251251,0.15463 -0.31637,0.16334 -0.103367,0.0138 -0.121134,0.0279 -0.139935,0.1108 -0.01711,0.0755 -0.141425,0.18956 -0.604834,0.55509 -0.579909,0.45744 -0.584159,0.46004 -0.731185,0.4475 -0.289535,-0.0247 -0.834498,-0.43628 -1.353831,-1.02246 -0.168191,-0.18984 -0.404248,-0.45617 -0.524572,-0.59185 -0.475541,-0.53624 -1.33811,-1.72878 -1.865436,-2.57904 z"
           style="fill:#b1faae;fill-opacity:1;stroke:none;stroke-width:0.4815827;stroke-miterlimit:4;stroke-dasharray:none;stroke-opacity:1" />
        <path
           inkscape:connector-curvature="0"
           inkscape:path-effect="#path-effect851"
           inkscape:original-d="M 172.94032,80.567984 C 163.32163,45.388322 118.30889,10.265064 81.893805,19.183261"
           sodipodi:nodetypes="cc"
           id="path849"
           d="m 172.94032,80.567984 c 0,0 0.11273,-0.03082 0.11273,-0.03082 C 171.34908,74.305015 167.71369,65.170678 159.85203,54.824414 154.00064,47.12375 146.4247,39.606332 137.49952,33.291268 128.55531,26.962739 119.1858,22.500106 110.13588,20.042859 c -12.189826,-3.3098 -21.720245,-2.45682 -28.242075,-0.859598 6.522404,-1.597362 16.055678,-2.430528 28.229935,0.904119 9.03835,2.475693 18.38924,6.957264 27.30816,13.299202 8.90053,6.328869 16.4471,13.85281 22.27065,21.551164 7.82408,10.342928 11.42817,19.45489 13.12504,25.66106 0,0 0.11273,-0.03082 0.11273,-0.03082 z"
           style="fill:#ffffff;fill-opacity:1;fill-rule:nonzero;stroke:#b1faae;stroke-width:2.20852995;stroke-linecap:butt;stroke-linejoin:miter;stroke-miterlimit:4;stroke-dasharray:none;stroke-opacity:1"
           transform="matrix(0.21804168,0,0,0.20537199,14.691547,247.80738)" />
        <text
           id="text891"
           y="297.46985"
           x="42.618191"
           style="font-size:56.20890045px;line-height:0.5;font-family:sans-serif;-inkscape-font-specification:Tahoma;text-align:center;letter-spacing:0px;text-anchor:middle;stroke-width:0.29960299"
           xml:space="preserve"><tspan
             rotate="0 0 0 0 0 0 0"
             style="font-size:11.03082371px;fill:#b1faae;fill-opacity:1;stroke-width:0.29960299"
             y="297.46985"
             x="42.618191"
             id="tspan889"
             sodipodi:role="line">Resign</tspan></text>
      </g>
    </g>
  </g>
</svg>
