<?xml version="1.0" encoding="UTF-8" standalone="no"?>
<svg
   xmlns:dc="http://purl.org/dc/elements/1.1/"
   xmlns:cc="http://creativecommons.org/ns#"
   xmlns:rdf="http://www.w3.org/1999/02/22-rdf-syntax-ns#"
   xmlns:svg="http://www.w3.org/2000/svg"
   xmlns="http://www.w3.org/2000/svg"
   xmlns:sodipodi="http://sodipodi.sourceforge.net/DTD/sodipodi-0.dtd"
   xmlns:inkscape="http://www.inkscape.org/namespaces/inkscape"
   width="150mm"
   height="150mm"
   viewBox="0 0 150 150"
   version="1.1"
   id="svg36"
   inkscape:version="1.0 (4035a4fb49, 2020-05-01)"
   sodipodi:docname="K1.svg">
  <defs
     id="defs30" />
  <sodipodi:namedview
     id="base"
     pagecolor="#ffffff"
     bordercolor="#666666"
     borderopacity="1.0"
     inkscape:pageopacity="0.0"
     inkscape:pageshadow="2"
     inkscape:zoom="0.92355232"
     inkscape:cx="149.37421"
     inkscape:cy="300.27217"
     inkscape:document-units="mm"
     inkscape:current-layer="layer1"
     inkscape:document-rotation="0"
     showgrid="false"
     inkscape:window-width="1920"
     inkscape:window-height="1001"
     inkscape:window-x="-9"
     inkscape:window-y="-9"
     inkscape:window-maximized="1"
     showguides="false" />
  <metadata
     id="metadata33">
    <rdf:RDF>
      <cc:Work
         rdf:about="">
        <dc:format>image/svg+xml</dc:format>
        <dc:type
           rdf:resource="http://purl.org/dc/dcmitype/StillImage" />
        <dc:title />
      </cc:Work>
    </rdf:RDF>
  </metadata>
  <g
     inkscape:label="Layer 1"
     inkscape:groupmode="layer"
     id="layer1">
    <path
       id="rect42"
       style="display:inline;fill:#000000;stroke-width:0.883"
       d="M 0,0 V 574.28516 H 574.28516 V 0 Z m 253.88281,46.986328 h 33.30469 33.30469 l 1.62109,19.578125 c 1.48913,17.99249 3.09959,19.790455 19.89258,22.189453 l 18.27344,2.609375 v 31.324219 31.32617 l -17.28321,1.65821 c -12.95849,1.24428 -16.83476,3.85638 -15.49804,10.4414 1.8611,9.16827 2.18635,9.18653 56.27539,3.04883 74.33321,-8.43489 125.29687,35.32712 125.29687,107.58984 0,40.21345 -7.77708,55.36504 -52.92187,103.07617 -19.70627,20.82652 -35.83008,40.24129 -35.83008,43.14454 0,2.90324 7.50381,11.98258 16.67578,20.17773 14.94384,13.35232 16.90526,18.49872 18.88086,49.52539 l 2.20508,34.62305 H 287.08203 116.08398 l 2.81446,-35.07422 c 2.47885,-30.88135 4.74938,-36.80098 18.98828,-49.52344 8.89466,-7.94736 16.17187,-16.45798 16.17187,-18.91211 0,-2.45412 -16.36242,-22.41082 -36.35937,-44.34765 C 71.796962,329.0862 65.304687,316.36065 65.304688,276.75195 c 0,-72.26272 50.965582,-116.02473 125.298832,-107.58984 54.08905,6.1377 54.41428,6.11944 56.27539,-3.04883 1.33671,-6.58502 -2.54151,-9.19712 -15.5,-10.4414 l -17.28125,-1.65821 -1.54688,-32.30078 -1.54492,-32.300781 19.81836,-1.634765 c 18.79005,-1.54986 19.90319,-2.65092 21.43945,-21.212891 z M 198.25977,260.82422 c -15.38177,0.30926 -28.53907,8.34568 -28.53907,21.54297 0,13.197 46.70292,67.42578 58.06836,67.42578 8.64783,0 9.80078,-4.26934 9.80078,-36.25 0,-31.54075 -1.50556,-37.30544 -11.60156,-44.37695 -8.46858,-5.93163 -18.49945,-8.52736 -27.72851,-8.3418 z m 178.80078,0.44531 c -10.18173,0.0757 -21.35002,2.76806 -28.67188,7.89649 -9.89478,6.93057 -11.60351,12.95241 -11.60351,40.89648 0,50.16833 8.05749,52.27822 43.38086,11.36328 24.82896,-28.75931 29.55461,-42.7911 18.2246,-54.12109 -4.13062,-4.13063 -12.3462,-6.10197 -21.33007,-6.03516 z M 287.1875,437.22266 c -48.81428,0 -95.79978,2.44531 -104.41406,5.43359 -11.70458,4.06031 14.67895,5.43359 104.41406,5.43359 89.73511,0 116.12061,-1.37328 104.41602,-5.43359 -8.61427,-2.98828 -55.60173,-5.43359 -104.41602,-5.43359 z"
       transform="scale(0.26458333)" />
  </g>
</svg>
