<?xml version="1.0" encoding="UTF-8" standalone="no"?>
<svg
   xmlns:dc="http://purl.org/dc/elements/1.1/"
   xmlns:cc="http://creativecommons.org/ns#"
   xmlns:rdf="http://www.w3.org/1999/02/22-rdf-syntax-ns#"
   xmlns:svg="http://www.w3.org/2000/svg"
   xmlns="http://www.w3.org/2000/svg"
   xmlns:sodipodi="http://sodipodi.sourceforge.net/DTD/sodipodi-0.dtd"
   xmlns:inkscape="http://www.inkscape.org/namespaces/inkscape"
   version="1.1"
   width="150"
   height="150"
   id="svg1114"
   sodipodi:docname="K4.svg"
   inkscape:version="1.0 (4035a4fb49, 2020-05-01)">
  <metadata
     id="metadata1120">
    <rdf:RDF>
      <cc:Work
         rdf:about="">
        <dc:format>image/svg+xml</dc:format>
        <dc:type
           rdf:resource="http://purl.org/dc/dcmitype/StillImage" />
        <dc:title></dc:title>
      </cc:Work>
    </rdf:RDF>
  </metadata>
  <defs
     id="defs1118" />
  <sodipodi:namedview
     inkscape:document-rotation="0"
     pagecolor="#ffffff"
     bordercolor="#666666"
     borderopacity="1"
     objecttolerance="10"
     gridtolerance="10"
     guidetolerance="10"
     inkscape:pageopacity="0"
     inkscape:pageshadow="2"
     inkscape:window-width="1920"
     inkscape:window-height="1001"
     id="namedview1116"
     showgrid="false"
     inkscape:zoom="4.301838"
     inkscape:cx="37.478004"
     inkscape:cy="72.565113"
     inkscape:window-x="-9"
     inkscape:window-y="-9"
     inkscape:window-maximized="1"
     inkscape:current-layer="svg1114" />
  <path
     id="rect1122"
     style="fill:#008000"
     d="M 0.05664062,-0.05664062 V 45.130859 H 45.074219 V -0.05664062 Z M 22.636719,5.0605469 a 0.72329103,0.78293295 0 0 1 0.01172,0 0.72329103,0.78293295 0 0 1 0.002,0 0.72329103,0.78293295 0 0 1 0.01563,0 0.72329103,0.78293295 0 0 1 0.710937,0.6464843 h 0.0078 v 0.070313 a 0.72329103,0.78293295 0 0 1 0.0039,0.066406 0.72329103,0.78293295 0 0 1 -0.0039,0.076172 v 1.0839843 h 2.498046 v 0.015625 a 0.71489893,0.72329103 0 0 1 0.589844,0.7128907 0.71489893,0.72329103 0 0 1 -0.589844,0.7109375 v 0.00781 h -0.05078 a 0.71489893,0.72329103 0 0 1 -0.07422,0.00391 0.71489893,0.72329103 0 0 1 -0.07031,-0.00391 H 23.384766 V 12.191406 C 24.788497,12.76071 25.5,14.5 25.5,14.5 c 0.555579,1.111157 0.287596,2.840083 -0.269531,4.576172 C 29.128716,15.132057 35.429624,14.510639 38.5,19.5 c 3,6 -6,10.5 -6,10.5 v 7 C 27,40.5 17,40.5 11.5,37 v -7.5 c 0,0 -8,-4 -5,-10 1.125,-2.4375 3.1630871,-3.539062 5.457031,-3.568359 2.713332,-0.03465 5.779265,1.437436 8.115235,3.966797 C 19.334445,17.899998 18.855579,15.788843 19.5,14.5 c 0,0 0.814385,-2.023512 2.4375,-2.425781 V 8.4511719 h -2.052734 v -0.015625 a 0.71489893,0.72329103 0 0 1 -0.714844,-0.7226563 0.71489893,0.72329103 0 0 1 0.714844,-0.7246094 0.71489893,0.72329103 0 0 1 0.140625,0.015625 H 21.9375 v -1.296875 h 0.01563 a 0.72329103,0.78293295 0 0 1 0.683594,-0.6464843 z" />
  <path
     style="fill:#000000;fill-opacity:1;stroke-width:0.332025;stroke-miterlimit:4;stroke-dasharray:none"
     d="M 0.12650244,75.280486 V -0.05001171 H 75.579503 151.0325 V 75.280486 150.61099 H 75.579503 0.12650244 Z M 81.238476,132.22552 c 9.184946,-0.83313 18.097271,-3.23535 24.616544,-6.63514 l 3.30107,-1.7215 v -11.7035 -11.70351 l 1.79201,-1.028841 c 5.89827,-3.386356 12.68917,-9.196574 15.7918,-13.511282 5.62904,-7.828099 6.0074,-15.991458 1.06053,-22.881996 -5.51015,-7.675139 -15.12105,-11.245329 -25.1439,-9.340282 -5.529427,1.050984 -11.955374,4.213152 -16.152864,7.948722 -0.929476,0.827195 -1.525228,1.168927 -1.384487,0.794168 0.7647,-2.036209 1.463893,-7.016571 1.344658,-9.578036 -0.103201,-2.217193 -0.379453,-3.378118 -1.198384,-5.03628 -1.15819,-2.345062 -4.118874,-5.798677 -5.684721,-6.63117 l -0.98311,-0.522679 v -6.120516 -6.120516 h 4.505787 c 4.228477,0 4.541933,-0.05126 5.093078,-0.832948 0.901019,-1.277905 0.737137,-2.743342 -0.40675,-3.637194 -0.865609,-0.6764 -1.517957,-0.776759 -5.049126,-0.776759 H 78.68552 l -0.159356,-2.486138 c -0.174747,-2.726024 -1.010024,-3.885098 -2.799823,-3.885098 -1.663127,0 -2.410429,1.220016 -2.410429,3.935176 v 2.43606 h -3.789798 c -3.520719,0 -3.855551,0.06532 -4.71581,0.919911 -1.131285,1.123824 -1.170932,2.042705 -0.144099,3.339501 0.755398,0.954004 0.915308,0.987489 4.715813,0.987489 h 3.9339 v 5.921169 5.921168 l -1.407791,0.50571 c -3.103275,1.114765 -6.839537,6.246863 -7.647234,10.504174 -0.546682,2.881545 0.432784,9.206113 2.119926,13.688694 C 66.539436,65.395496 65.58523,64.727972 64.20116,63.449235 57.241966,57.019747 48.218082,53.158741 40.186251,53.17409 31.223641,53.19112 24.5212,57.716575 20.884567,66.206213 c -3.773201,8.808452 -1.292592,17.525997 7.213193,25.349149 2.589491,2.381667 9.023486,6.961398 9.779972,6.961398 0.211612,0 0.352542,5.07866 0.352542,12.70453 v 12.70453 l 3.301068,1.68984 c 10.611742,5.4322 25.453154,7.90279 39.707141,6.60986 z"
     id="path1783" />
</svg>
