<?xml version="1.0" encoding="UTF-8" standalone="no"?>
<svg
   xmlns:dc="http://purl.org/dc/elements/1.1/"
   xmlns:cc="http://creativecommons.org/ns#"
   xmlns:rdf="http://www.w3.org/1999/02/22-rdf-syntax-ns#"
   xmlns:svg="http://www.w3.org/2000/svg"
   xmlns="http://www.w3.org/2000/svg"
   xmlns:sodipodi="http://sodipodi.sourceforge.net/DTD/sodipodi-0.dtd"
   xmlns:inkscape="http://www.inkscape.org/namespaces/inkscape"
   sodipodi:docname="title-dark_alt.svg"
   inkscape:version="1.0 (4035a4fb49, 2020-05-01)"
   id="svg8"
   version="1.1"
   viewBox="0 0 3045.9956 382.69244"
   height="382.69244mm"
   width="3045.9956mm">
  <defs
     id="defs2" />
  <sodipodi:namedview
     viewbox-height="336.69244"
     inkscape:window-maximized="1"
     inkscape:window-y="-9"
     inkscape:window-x="69"
     inkscape:window-height="1051"
     inkscape:window-width="1842"
     showgrid="false"
     inkscape:document-rotation="0"
     inkscape:current-layer="layer1"
     inkscape:document-units="mm"
     inkscape:cy="-1269.7987"
     inkscape:cx="5064.9699"
     inkscape:zoom="0.084514706"
     inkscape:pageshadow="2"
     inkscape:pageopacity="0.0"
     borderopacity="1.0"
     bordercolor="#666666"
     pagecolor="#ffffff"
     id="base"
     fit-margin-top="0"
     fit-margin-left="0"
     fit-margin-right="0"
     fit-margin-bottom="0" />
  <metadata
     id="metadata5">
    <rdf:RDF>
      <cc:Work
         rdf:about="">
        <dc:format>image/svg+xml</dc:format>
        <dc:type
           rdf:resource="http://purl.org/dc/dcmitype/StillImage" />
        <dc:title />
      </cc:Work>
    </rdf:RDF>
  </metadata>
  <g
     id="layer1"
     inkscape:groupmode="layer"
     inkscape:label="Layer 1"
     transform="translate(-97.648314,-63.128445)">
    <g
       id="g844"
       style="fill:#ffffff;fill-opacity:1">
      <path
         id="path847"
         style="fill:#ffffff;stroke-width:10.8649;fill-opacity:1"
         d="m 1405.8789,238.5957 -24.4453,6.12891 c -55.7274,13.97109 -160.2578,54.3491 -160.2578,61.9043 0,4.47511 16.6209,11.2534 36.9355,15.06445 20.3145,3.81101 42.4873,13.62009 49.2735,21.79687 14.6964,17.70777 17.9637,132.65121 14.291,502.69336 l -2.7149,273.67381 -48.8925,7.3301 c -26.8907,4.0325 -48.8926,11.6676 -48.8926,16.9648 0,5.2972 68.4494,9.6309 152.1094,9.6309 97.2485,0 152.1093,-4.0428 152.1093,-11.207 0,-12.3219 -5.7154,-14.8243 -73.3398,-32.1348 l -46.1758,-11.8203 V 938.54102 778.46094 l 32.2188,-39.08594 c 77.4961,-94.01631 220.4442,-99.62146 261.2343,-10.24414 18.1475,39.76411 24.2607,162.72939 14.0547,282.74214 l -8.7207,102.5528 -34.7773,8.9863 c -76.9734,19.8885 -46.4415,30.3711 88.459,30.3711 138.8903,0 173.4464,-10.8558 90.2773,-28.3613 l -46.1758,-9.7207 -5.4316,-206.71097 c -5.1447,-195.7613 -6.7741,-208.42194 -30.75,-239.00195 -75.2525,-95.98072 -201.9387,-91.42405 -315.7012,11.35352 l -44.6875,40.37304 V 480.1543 Z m 10349.2911,4.85742 c -0.99,-0.007 -2.043,0.18875 -3.16,0.50391 -96.816,27.30776 -154.809,47.27788 -154.809,53.31836 0,3.98963 18.32,16.21248 40.729,27.16211 l 40.742,19.9082 2.857,377.72461 2.858,377.72459 -24.586,9.9453 c -13.524,5.4694 -38.034,12.8207 -54.467,16.336 -16.433,3.5153 -29.879,11.1869 -29.879,17.0488 0,6.4598 59.916,10.6582 152.109,10.6582 148.367,0 197.904,-12.4947 111.366,-28.0879 -22.41,-4.0377 -46.855,-12.191 -54.325,-18.1191 -10.454,-8.2966 -13.582,-109.59138 -13.582,-439.88089 0,-378.2512 -0.997,-424.13862 -15.853,-424.24219 z M 866.67578,261.23633 c -83.75263,0.40027 -170.75909,12.94795 -230.14258,39.59765 -82.11877,36.85274 -181.37476,137.42942 -223.49804,226.47071 -69.3147,146.51928 -55.59787,337.52666 33.5039,466.54492 54.83358,79.39829 181.94985,151.53299 302.01172,171.38279 68.11072,11.2607 232.65633,3.5328 303.72462,-14.2656 l 53.8281,-13.4805 20.8438,-84.6797 c 11.4637,-46.5736 17.1279,-88.13352 12.5879,-92.35348 -4.5401,-4.21979 -10.3357,-1.85977 -12.8809,5.24219 -2.5453,7.10196 -21.3593,34.82369 -41.8086,61.60549 -55.6846,72.9279 -137.74075,108.9273 -249.375,109.4043 -207.72758,0.8883 -316.55758,-121.2117 -328.67382,-368.75002 -11.05433,-225.8425 55.38875,-368.42132 209.16015,-448.83594 43.25771,-22.62164 69.87616,-28.47951 130.66797,-28.75391 101.83211,-0.45951 169.7197,33.01094 220.5938,108.75977 19.8985,29.62821 40.6776,55.5003 46.1757,57.49219 11.0414,4.00025 13.4275,-87.5058 3.2696,-125.39258 -12.1216,-45.21052 -127.58063,-70.5733 -249.98832,-69.98828 z m 7338.46092,0.10351 c -67.9612,-0.19678 -137.0212,6.26665 -176.0703,19.1211 -236.5251,77.86099 -371.323,332.18092 -306.043,577.40429 42.3153,158.95647 182.8825,278.49497 360.2266,306.33597 76.2539,11.9708 228.3147,6.0976 305.9141,-11.8145 l 55.3339,-12.7715 22.0254,-87.7109 c 23.4879,-93.52831 21.0776,-115.86582 -7.7754,-72.0586 -39.8263,60.4673 -91.5245,107.3945 -142.4472,129.3008 -127.2779,54.7534 -265.9936,37.1576 -355.1856,-45.0567 -59.6152,-54.9515 -87.3987,-107.17539 -107.5175,-202.09566 -60.4029,-284.98035 76.0973,-547.55046 298.3339,-573.87109 106.9059,-12.66142 237.8899,53.68479 272.9122,138.23633 21.1936,51.16587 36.8482,33.00089 33.8242,-39.2461 -3.1291,-74.75311 -11.8983,-84.59687 -97.5703,-109.51367 -36.8846,-10.72747 -95.9952,-16.08613 -155.961,-16.25977 z m -1475.7754,2.94141 c -18.4154,-0.0913 -36.3546,4.83133 -51.5722,15.49023 -50.2126,35.17025 -19.0888,97.81184 51.9062,104.46875 32.4246,3.04026 38.538,8.00132 41.4883,33.67383 4.5127,39.26801 -32.541,98.40142 -80.0625,127.77149 -20.6139,12.74003 -37.4785,30.09802 -37.4785,38.57422 0,25.00289 27.7701,17.81633 76.9062,-19.90039 102.7975,-78.90796 140.067,-163.40137 103.3731,-234.35938 -21.2271,-41.04854 -64.0467,-65.51781 -104.5606,-65.71875 z m -1950.6855,16.79102 c -4.6175,-0.0104 -9.4848,-0.009 -14.6153,0.004 -49.2525,0.12415 -122.7355,1.31067 -231.7968,3.35938 -4.4818,0.0842 -8.1485,4.61204 -8.1485,10.0625 0,5.45049 20.7789,13.3355 46.1758,17.52148 79.5251,13.10759 83.5508,20.12906 36.8106,64.21094 -65.2902,61.57639 -254.1487,214.77895 -345.4356,280.21875 l -83.1797,59.62695 50.584,37.81055 c 77.1084,57.63519 373.0582,306.50568 402.8711,338.78318 l 26.3398,28.5176 h -39.2128 c -42.8342,0 -94.9493,16.2546 -94.9493,29.6055 v 0 c 0,4.6296 91.6766,7.6802 203.7188,6.7773 112.0422,-0.9029 268.4934,-2.1257 347.6719,-2.7168 137.5479,-1.0265 183.2,-12.2405 109.6855,-26.9433 -64.7078,-12.9416 -63.5098,-7.2861 -63.5098,-299.59965 0,-147.66519 -3.1705,-271.6529 -7.0468,-275.52929 -3.8767,-3.8764 -26.4176,10.45157 -50.0918,31.83984 -23.6742,21.38827 -59.8146,45.89526 -80.3106,54.45898 -36.8092,15.37985 -40.7112,36.64258 -6.7246,36.64258 9.634,0 26.4586,8.09066 37.3867,17.98047 17.7861,16.09637 19.8486,37.45028 19.7012,203.7168 -0.091,102.15481 -3.7581,191.34217 -8.1484,198.19337 -4.3903,6.8512 -29.1695,18.1502 -55.0664,25.1094 -81.1401,21.8042 -150.9349,-4.8476 -257.1328,-98.1895 C 4678.3975,991.02338 4580.613,908.16942 4496.9531,838.41602 4413.2929,768.6626 4335.57,701.12157 4324.2363,688.32617 c -20.4,-23.03104 -20.2907,-23.51037 10.7559,-47.81055 17.2486,-13.50065 80.3033,-65.98894 140.1211,-116.64062 163.9306,-138.81048 248.4354,-193.52917 322.5058,-208.82812 34.8201,-7.19203 63.3086,-18.35629 63.3086,-24.81055 0,-6.20852 -12.9901,-9.00876 -82.2519,-9.16406 z m -678.293,3.51562 c -147.2802,0 -173.8379,2.48939 -173.8379,16.29688 0,11.55968 11.8432,16.34692 40.7422,16.46484 76.9187,0.31408 72.9885,-20.19227 76.5703,399.66601 3.6076,422.81528 7.9546,398.75408 -74.5566,412.83988 -25.5644,4.3642 -48.3443,13.5235 -50.6211,20.3535 v 0 c -2.9998,8.9997 45.4602,12.2268 176.0391,11.7226 123.5938,-0.4771 178.9528,-4.37 176.2773,-12.3964 -2.1453,-6.4357 -24.5477,-15.7849 -49.7832,-20.7754 -34.4965,-6.822 -48.4408,-15.8031 -56.1934,-36.1934 -5.7456,-15.1125 -10.3125,-185.21758 -10.3125,-384.18163 0,-398.9465 -2.63,-385.31592 76.8262,-398.02148 91.5432,-14.63834 34.8654,-25.7793 -131.1504,-25.7793 z m 7338.7192,260.75977 c -3.087,0 -22.322,16.7089 -42.745,37.13086 -20.421,20.42192 -54.483,43.40499 -75.691,51.07421 -48.282,17.4581 -48.468,26.87891 -0.924,46.74415 24.145,10.0886 40.082,25.45211 44.449,42.85351 3.744,14.91995 5.141,103.64967 3.104,197.17578 -4.152,190.46713 -4.869,192.18963 -85.42,205.07033 -23.778,3.8023 -43.232,11.6223 -43.232,17.3769 v 0 c 0,6.2366 64.205,10.4061 158.947,10.3301 87.42,-0.073 155.543,-3.5343 151.387,-7.6914 -4.158,-4.1572 -28.014,-15.1118 -53.014,-24.3437 l -45.455,-16.7852 -2.899,-279.46875 c -1.595,-153.7074 -5.424,-279.46679 -8.509,-279.46679 z m -6007.7661,32.59375 c -8.9635,0 -16.2968,4.51404 -16.2968,10.03125 0,19.75105 -54.7699,74.62513 -92.2246,92.39843 -20.9844,9.95781 -38.1543,21.8587 -38.1543,26.44727 0,4.58846 17.2335,16.56126 38.2968,26.60547 l 38.2969,18.26172 -2.9863,175.43359 c -3.2183,189.11556 -2.1062,185.73076 -65.459,199.06056 -16.4334,3.4577 -29.8789,11.0834 -29.8789,16.9453 0,6.4669 60.6696,10.6582 154.2832,10.6582 160.1605,0 179.5321,-8.259 84.1172,-35.8633 l -48.2637,-13.9629 -2.9863,-183.08395 c -3.368,-206.49445 -3.8408,-205.04833 79.9687,-244.44336 88.4746,-41.58803 168.9342,-24.56304 202.7735,42.90625 15.6669,31.23666 19.0136,67.76051 19.0136,208.35742 0.018,184.84574 0.8331,182.38614 -63.9121,192.91014 -20.6271,3.3528 -39.5348,12.1887 -42.0176,19.6367 -3.4574,10.3722 30.2414,13.543 143.9727,13.543 108.9948,0 147.3557,-3.3985 144.2285,-12.7793 -2.3429,-7.0287 -23.5303,-18.1757 -47.082,-24.7695 l -42.8223,-11.9883 -5.6621,-206.11133 c -3.3883,-123.34568 -10.6225,-214.83777 -18.0156,-227.8418 -54.6565,-96.13814 -174.5717,-109.03147 -301.7559,-32.44531 -34.5966,20.83305 -64.7556,37.8789 -67.0195,37.8789 -2.2639,0 -4.1152,-22.00188 -4.1152,-48.89258 0,-36.21641 -4.2267,-48.89257 -16.2989,-48.89257 z m 4704.5161,0 c -8.964,0 -16.297,4.51404 -16.297,10.03125 0,19.75105 -54.772,74.62513 -92.227,92.39843 -20.984,9.95781 -38.1522,21.8587 -38.1522,26.44727 0,4.58846 17.2342,16.56126 38.2972,26.60547 l 38.297,18.26172 -2.987,175.43359 c -3.218,189.11556 -2.106,185.73076 -65.4588,199.06056 -16.4334,3.4577 -29.8789,11.0834 -29.8789,16.9453 0,6.4669 60.6677,10.6582 154.2817,10.6582 160.16,0 179.534,-8.259 84.119,-35.8633 l -48.264,-13.9629 -2.986,-183.08395 c -3.368,-206.49445 -3.841,-205.04833 79.968,-244.44336 88.475,-41.58803 168.933,-24.56304 202.772,42.90625 15.667,31.23666 19.014,67.76051 19.014,208.35742 0.02,184.84574 0.835,182.38614 -63.911,192.91014 -20.627,3.3528 -39.534,12.1887 -42.017,19.6367 -3.457,10.3722 30.24,13.543 143.973,13.543 108.994,0 147.355,-3.3985 144.228,-12.7793 -2.344,-7.0287 -23.531,-18.1757 -47.082,-24.7695 l -42.822,-11.9883 -5.66,-206.11133 c -3.389,-123.34568 -10.626,-214.83777 -18.018,-227.8418 -54.657,-96.13814 -174.572,-109.03147 -301.756,-32.44531 -34.597,20.83305 -64.755,37.8789 -67.019,37.8789 -2.264,0 -4.116,-22.00188 -4.116,-48.89258 0,-36.21641 -4.226,-48.89257 -16.298,-48.89257 z m -6848.3344,10.43945 c -108.3848,-0.0222 -197.4922,62.32163 -197.4922,152.53516 0,68.77337 32.9325,104.18272 149.3398,160.56836 152.766,73.9969 192.6025,143.07472 121.0528,209.91212 -72.0079,67.2654 -189.7806,21.8095 -234.7618,-90.6094 -26.5467,-66.34702 -39.4638,-50.42302 -30.7656,37.9277 4.2654,43.324 9.7079,80.7281 12.0938,83.1211 2.3857,2.3932 27.6397,10.9098 56.1211,18.9258 65.8722,18.5395 166.6223,11.8062 210.8457,-14.0918 56.4449,-33.0551 79.9687,-73.7926 79.9687,-138.4902 0,-84.61386 -34.2792,-123.58657 -162.457,-184.70118 -56.2879,-26.83779 -107.5457,-58.51742 -113.9043,-70.39844 -32.1232,-60.02279 10.6993,-131.67969 78.6914,-131.67969 46.3723,0 103.7026,38.15343 126.1562,83.95703 23.5696,48.07975 44.388,45.63756 44.2032,-5.18554 -0.2516,-69.08176 -9.2837,-85.76657 -53.6094,-99.04688 -28.976,-8.68144 -57.8549,-12.73848 -85.4824,-12.74414 z m 3770.1308,0 c -108.3848,-0.0222 -197.4922,62.32163 -197.4922,152.53516 10e-5,68.77654 33.5832,105.33488 144.1915,156.96875 113.0033,52.75183 147.1148,83.25511 156.2832,139.75393 5.472,33.719 1.6171,43.8068 -28.0918,73.5156 -31.578,31.5782 -38.9467,33.9985 -88.8731,29.2012 -63.171,-6.0699 -114.1148,-47.2097 -145.9902,-117.8965 -29.7358,-65.94277 -41.4349,-52.95185 -32.6524,36.2558 4.2652,43.324 9.7058,80.7281 12.0918,83.1211 2.3857,2.3932 27.6421,10.9098 56.1231,18.9258 66.4244,18.6948 166.6888,11.7504 211.9433,-14.6797 57.8136,-33.7649 87.0824,-86.4504 81.4766,-146.66598 -7.2219,-77.5742 -45.1848,-118.99215 -157.6816,-172.02735 -52.1503,-24.58564 -103.2673,-55.32123 -113.5918,-68.30273 -27.0146,-33.96639 -23.964,-79.63769 7.414,-111.01563 50.631,-50.631 145.923,-23.39383 192.127,54.91602 28.8718,48.93426 41.9996,48.05079 41.8144,-2.81445 -0.2513,-69.08176 -9.2818,-85.76657 -53.6074,-99.04688 -28.9761,-8.68144 -57.8569,-12.73848 -85.4844,-12.74414 z m -4279.3672,0.81836 c -71.7634,0.26106 -140.5544,26.03569 -175.3964,70.33008 -33.5436,42.64376 -32.6575,123.95977 1.7871,164.0039 13.9585,16.22774 71.0487,51.94745 126.8691,79.37696 112.5499,55.30563 145.4512,89.03799 145.4512,149.13284 0,77.1085 -87.3451,114.3777 -172.9043,73.7773 -36.4584,-17.3007 -83.9909,-76.6327 -97.2793,-121.4297 -3.9883,-13.44531 -11.8098,-24.44724 -17.3828,-24.44724 -11.5468,0 -13.137,61.86284 -3.1446,122.32034 6.1527,37.2249 11.1816,42.2 56.92,56.2851 189.0759,58.2264 347.4715,-54.7021 289.5293,-206.42185 -21.7769,-57.02188 -57.3313,-85.92731 -166.7715,-135.58203 -43.7386,-19.84479 -86.5194,-46.06809 -95.0684,-58.27344 -39.0581,-55.76314 3.7938,-136.87109 72.3145,-136.87109 46.4477,0 99.5077,34.58339 124.6289,81.23047 37.1233,68.93386 57.1907,44.77208 41.5176,-49.99024 -5.6292,-34.03471 -12.0549,-41.04472 -47.3164,-51.60937 -27.1352,-8.12991 -55.6725,-11.93419 -83.754,-11.83203 z m -542.8457,4.93945 c -17.1315,0.0359 -34.1038,1.69074 -50.0898,5.11914 -126.7222,27.177 -202.4297,126.52003 -212.1777,278.41407 -9.878,153.92092 56.2735,253.53432 190.1875,286.38672 56.0162,13.7422 128.3444,3.541 187.5195,-26.4453 55.2835,-28.0143 108.9023,-76.9524 108.9023,-99.3945 0,-20.988 -15.1503,-18.3646 -37.6738,6.5234 -31.3334,34.6232 -107.1353,58.1815 -168.2969,52.3047 -112.8482,-10.8433 -185.4859,-98.32997 -194.1992,-233.90042 l -4.3633,-67.90625 h 196.834 196.834 l -0.055,-29.8789 c -0.067,-36.13036 -38.371,-101.54226 -77.2324,-131.89258 -31.9634,-24.96297 -84.7948,-39.43771 -136.1895,-39.33008 z m 4008.1973,0.91797 c -103.2585,-0.28251 -195.4779,62.89993 -219.0078,167.89453 -18.5461,82.75733 8.9914,159.11215 74.9785,207.89844 17.8874,13.22468 32.5215,27.52361 32.5215,31.77539 0,4.2518 -24.7347,16.6267 -54.9668,27.498 -65.3216,23.4893 -80.0393,38.5525 -71.3789,73.0586 6.0726,24.1939 80.0993,83.1954 104.3828,83.1954 26.098,0 6.8775,21.2471 -52.2207,57.7246 -111.5894,68.8768 -127.2883,159.8903 -37.1836,215.5781 21.0025,12.9802 55.8756,30.1835 77.4942,38.2305 64.2534,23.9168 253.8591,13.7624 324.4199,-17.375 65.3061,-28.8189 127.6078,-91.9182 138.1504,-139.918 11.3888,-51.8535 -11.5872,-117.4188 -51.4805,-146.9063 -49.138,-36.3208 -60.3147,-39.1036 -204.248,-50.8632 -142.78,-11.6655 -216.4278,-34.1313 -216.4278,-66.0196 0,-30.2052 56.4662,-54.0186 150.5957,-63.5078 95.9721,-9.675 136.9464,-27.81151 184.0684,-81.48046 46.1673,-52.5818 58.7988,-142.31988 30.0215,-213.27734 -6.0393,-14.89149 1.0091,-15.61996 58.7754,-6.06641 73.9033,12.22228 94.3554,2.92195 81.6445,-37.12695 -7.293,-22.97779 -11.6992,-23.9012 -82.5918,-17.3125 -70.1987,6.5243 -78.6655,4.82977 -135.1895,-27.07031 -43.1938,-24.37715 -88.7594,-35.81041 -132.3574,-35.92969 z m 2644.8223,2.41992 c -3.0202,0.005 -6.0845,0.0266 -9.1934,0.0684 -123.747,1.66288 -206.0789,51.62267 -258.7383,157.00391 -42.0177,84.08492 -44.3812,162.30292 -7.3086,241.91406 42.8863,92.09597 113.2391,149.34037 206.0938,167.69327 110.75,21.89 231.8046,-16.9544 304.373,-97.6679 107.7823,-119.88007 94.7483,-288.79568 -30.8144,-399.32029 -59.0078,-51.94076 -110.7864,-69.83872 -204.4121,-69.69141 z m 2124.7049,3.04297 c -138.081,-0.58823 -219.686,44.4643 -270.402,147.74805 -74.712,152.15263 -3.553,356.24942 142.894,409.84762 86.697,31.7303 187.583,15.2497 267.994,-43.7773 30.988,-22.7475 52.403,-46.9663 52.403,-59.2695 0,-27.2385 -1.672,-26.8381 -60.266,14.4628 -44.323,31.2423 -58.312,35.2671 -122.549,35.3106 -87.181,0.052 -127.286,-23.3703 -172.697,-100.8574 -60.488,-103.21528 -30.376,-287.78903 55.492,-340.15042 53.29,-32.49437 104.005,-27.03982 155.076,16.67579 57.059,48.83947 91.032,57.36413 116.493,29.23046 25.287,-27.94178 19.543,-53.36628 -18.459,-81.71289 -23.655,-17.64355 -50.386,-23.73265 -117.602,-26.78515 -9.715,-0.44118 -19.171,-0.68344 -28.377,-0.72266 z m -2119.8104,19.79883 c 64.473,0.35761 128.0372,33.38107 160.5469,97.10547 73.2877,143.65549 35.3472,347.38267 -75.1953,403.77737 -74.6589,38.0879 -172.0049,23.3313 -224.8926,-34.0918 -77.2842,-83.9125 -83.9586,-291.49875 -12.541,-390.08792 37.5973,-51.90155 95.1941,-77.01866 152.082,-76.70312 z m -2655.2637,1.08203 c 41.8712,0 54.4728,5.7676 89.8106,41.10547 34.337,34.33701 42.3599,51.1482 48.7246,102.08984 12.5786,100.67687 -14.2617,180.75359 -70.3008,209.73242 -61.0016,31.54528 -125.3019,15.76637 -167.5332,-41.11132 -16.8117,-22.64221 -23.6278,-50.91102 -26.6348,-110.45899 -7.0216,-139.04417 31.9511,-201.35742 125.9336,-201.35742 z m 3124.295,0 c -52.9505,0 -90.2911,4.4936 -90.2911,10.86523 0,5.9757 11.1349,10.86524 24.7442,10.86524 13.6101,0 35.0548,7.22073 47.6543,16.04102 21.7285,15.21916 22.8975,25.24401 22.8105,194.64648 -0.1092,202.28794 10.546,241.62454 77.5215,286.23434 v 0.01 c 62.397,41.5601 154.4256,24.2219 247.252,-46.5801 19.192,-14.6387 37.6659,-26.6152 41.0527,-26.6152 3.3865,0 6.1562,22.5246 6.1562,50.0547 0,43.3376 2.5516,49.0294 19.0137,42.416 10.4576,-4.201 51.9815,-15.7238 92.2754,-25.6074 83.5261,-20.4879 96.076,-42.2443 27.2402,-47.2246 l -46.1757,-3.3418 -2.9336,-230.87895 -2.9317,-230.88086 h -108.4336 c -114.7884,0 -145.4302,14.32152 -53.8496,25.16797 30.0212,3.55544 59.3562,9.41435 65.1895,13.01953 6.1992,3.83142 10.6054,80.44874 10.6054,184.39649 v 177.84182 l -28.6542,22.541 c -39.2383,30.8649 -131.2147,56.6583 -173.6504,48.6973 -19.1857,-3.5993 -46.2967,-18.7266 -60.2481,-33.6172 -24.7873,-26.4521 -25.3527,-31.7942 -24.7129,-232.56058 l 0.6543,-205.48633 z m -7126.5157,1.31055 c 55.8829,-0.78255 105.8606,30.75803 119.5196,88.5 5.8532,24.74377 2.7483,31.68362 -17.586,39.29101 -26.5338,9.92674 -233.5866,22.22749 -254.789,15.13672 -21.1958,-7.08862 4.9952,-63.85588 46.1211,-99.96484 32.6625,-28.67811 70.912,-42.46126 106.7343,-42.96289 z m 3997.877,589.97856 c 39.3851,0.066 89.3849,4.6278 156.373,12.8222 64.5015,7.8903 111.418,49.2336 111.418,98.1836 0,60.6547 -25.9829,96.8776 -93.0117,129.6719 -74.4832,36.4412 -192.9961,46.3848 -259.252,21.7519 -67.3867,-25.0533 -109.0019,-73.4602 -109.0019,-126.791 0,-37.385 6.3787,-50.4049 39.623,-80.8711 42.1594,-38.6361 78.6618,-54.8933 153.8516,-54.7675 z"
         transform="scale(0.26458333)" />
      <path
         style="fill:#ffffff;stroke-width:0.80935;fill-opacity:1"
         d="m 1324.1048,117.72057 c 0,-0.82953 0.3453,-3.32887 0.7673,-5.55409 l 0.7673,-4.04585 -3.5207,-3.78064 c -8.6569,-9.295983 -8.8229,-18.059203 -0.4502,-23.757633 3.4957,-2.37913 8.7116,-2.44288 11.6364,-0.14222 l 2.1343,1.67881 2.3815,-1.88115 c 2.9712,-2.34697 3.5435,-7.14192 0.8524,-7.14192 -0.8993,0 -1.6187,-0.53957 -1.6187,-1.21403 0,-0.67445 0.7194,-1.21402 1.6187,-1.21402 1.0791,0 1.6187,-0.53957 1.6187,-1.6187 0,-1.07913 0.5396,-1.6187 1.6187,-1.6187 1.0791,0 1.6187,0.53957 1.6187,1.6187 0,1.07913 0.5396,1.6187 1.6187,1.6187 0.8993,0 1.6187,0.53957 1.6187,1.21402 0,0.67446 -0.7194,1.21403 -1.6187,1.21403 -2.4542,0 -2.1655,4.23575 0.4682,6.86943 l 2.0869,2.0869 2.6624,-1.64544 c 6.8823,-4.2535 16.6016,0.62802 17.9638,9.02232 0.6321,3.89502 -2.3595,10.41197 -6.9254,15.086443 l -3.4159,3.49709 0.8642,4.02922 c 1.6849,7.85663 3.2635,7.18696 -16.9416,7.18696 -16.8314,0 -17.8057,-0.0825 -17.8057,-1.50823 z m 33.1833,-2.13385 c 0,-1.03653 -2.2482,-1.21402 -15.3776,-1.21402 -13.1295,0 -15.3777,0.17749 -15.3777,1.21402 0,1.03654 2.2482,1.21403 15.3777,1.21403 13.1294,0 15.3776,-0.17749 15.3776,-1.21403 z m -26.8139,-4.98312 c -1.4638,-1.76369 -3.132,-1.27417 -3.132,0.91903 0,1.84435 0.1625,1.93195 2.017,1.08699 1.5653,-0.71319 1.815,-1.16249 1.115,-2.00602 z m 26.0046,0.93638 c 0,-2.15958 -1.4702,-2.65753 -3.0834,-1.04435 -0.7658,0.76581 -0.5807,1.20023 0.8499,1.9947 1.0058,0.55861 1.9199,1.02857 2.0311,1.04434 0.1113,0.0158 0.2024,-0.88184 0.2024,-1.99469 z m -10.5216,-1.5464 c 0,-0.15995 -0.9105,-0.8874 -2.0233,-1.61658 -1.8795,-1.23144 -2.1727,-1.22795 -4.1218,0.0492 l -2.0984,1.37494 1.8664,1.4079 c 1.6676,1.25786 2.1069,1.28361 4.1218,0.24163 1.2404,-0.64144 2.2553,-1.29712 2.2553,-1.45706 z m -9.3147,-4.6012 c 4.9694,-0.85071 10.8607,-0.46216 15.6721,1.03363 2.6165,0.8134 2.8744,0.68709 7.0815,-3.46774 7.2016,-7.112113 8.6023,-14.113693 3.7497,-18.742923 -3.6877,-3.518 -6.2559,-4.09292 -10.2974,-2.30517 -3.8594,1.7072 -6.7811,5.83997 -8.9942,12.72256 -0.6999,2.17671 -1.4606,4.50396 -1.6903,5.17168 -0.2298,0.667713 -0.9426,-0.78766 -1.584,-3.23417 -1.8828,-7.18133 -5.1894,-12.26412 -9.3837,-14.42417 -3.3695,-1.73526 -3.8509,-1.78906 -6.4166,-0.71707 -1.5256,0.63743 -3.7583,2.32905 -4.9617,3.75916 -4.003,4.75728 -2.4657,10.71563 4.6788,18.134303 2.9722,3.08633 4.1529,3.81371 5.5373,3.41137 0.9678,-0.28125 3.9416,-0.88491 6.6085,-1.34146 z m -10.6403,-4.96502 c -4.1223,-4.281643 -5.1348,-6.215153 -5.1348,-9.805313 0,-2.14866 0.5888,-3.30939 2.4901,-4.90931 1.3696,-1.15242 3.2335,-2.09532 4.142,-2.09532 2.6124,0 7.5054,5.57975 9.4307,10.75425 2.5771,6.926173 2.4192,7.575573 -2.0027,8.238673 -2.06,0.30893 -4.1624,0.72165 -4.6719,0.91718 -0.5095,0.19552 -2.4236,-1.19956 -4.2534,-3.10016 z m 23.3096,2.38011 -4.3342,-0.83102 0.4686,-2.887193 c 0.7848,-4.83627 5.211,-12.92146 7.8093,-14.26511 3.2212,-1.66575 4.3355,-1.52838 7.2079,0.88859 2.7037,2.275 3.3374,6.06635 1.5863,9.49112 -1.0127,1.98077 -7.2846,8.705993 -7.9651,8.540973 -0.2412,-0.0585 -2.3889,-0.48029 -4.7728,-0.93736 z m -6.592,-11.330093 c 0,-0.5736 0.7247,-2.46428 1.6104,-4.20154 1.4631,-2.86985 1.4984,-3.32947 0.386,-5.02722 -1.5085,-2.30226 -3.6979,-2.39412 -5.6501,-0.23706 -1.432,1.58236 -1.4236,1.73747 0.2793,5.14708 0.9656,1.93356 1.7557,3.93092 1.7557,4.43859 0,0.50767 0.3642,0.92304 0.8094,0.92304 0.4451,0 0.8093,-0.4693 0.8093,-1.04289 z m -1.9633,-5.97192 c -0.6638,-1.72993 0.8179,-3.35718 1.9899,-2.18524 0.88,0.88 0.2522,3.5346 -0.8359,3.5346 -0.3499,0 -0.8692,-0.60721 -1.154,-1.34936 z"
         id="path863" />
      <path
         id="path863-2"
         d="m 2992.2355,119.42736 c 0,-0.82953 0.3453,-3.32887 0.7673,-5.55409 l 0.7673,-4.04585 -3.5207,-3.78064 c -8.6569,-9.296009 -8.8229,-18.059239 -0.4502,-23.757669 3.4957,-2.37913 8.7116,-2.44288 11.6364,-0.14222 l 2.1343,1.67881 2.3815,-1.88115 c 2.9712,-2.34697 3.5435,-7.14192 0.8524,-7.14192 -0.8993,0 -1.6187,-0.53957 -1.6187,-1.21403 0,-0.67445 0.7194,-1.21402 1.6187,-1.21402 1.0791,0 1.6187,-0.53957 1.6187,-1.6187 0,-1.07913 0.5396,-1.6187 1.6187,-1.6187 1.0791,0 1.6187,0.53957 1.6187,1.6187 0,1.07913 0.5396,1.6187 1.6187,1.6187 0.8993,0 1.6187,0.53957 1.6187,1.21402 0,0.67446 -0.7194,1.21403 -1.6187,1.21403 -2.4542,0 -2.1655,4.23575 0.4681,6.86943 l 2.087,2.0869 2.6624,-1.64544 c 6.8823,-4.2535 16.6016,0.62802 17.9638,9.02232 0.6321,3.89502 -2.3595,10.411979 -6.9254,15.086479 l -3.4159,3.49709 0.8642,4.02922 c 1.6849,7.85663 3.2635,7.18696 -16.9416,7.18696 -16.8314,0 -17.8057,-0.0825 -17.8057,-1.50823 z m 33.1833,-2.13385 c 0,-1.03653 -2.2482,-1.21402 -15.3776,-1.21402 -13.1295,0 -15.3777,0.17749 -15.3777,1.21402 0,1.03654 2.2482,1.21403 15.3777,1.21403 13.1294,0 15.3776,-0.17749 15.3776,-1.21403 z m -26.8139,-4.98312 c -1.4638,-1.76369 -3.132,-1.27417 -3.132,0.91903 0,1.84435 0.1625,1.93195 2.017,1.08699 1.5653,-0.71319 1.815,-1.16249 1.115,-2.00602 z m 26.0046,0.93638 c 0,-2.15958 -1.4702,-2.65753 -3.0834,-1.04435 -0.7658,0.76581 -0.5807,1.20023 0.8498,1.9947 1.0059,0.55861 1.92,1.02857 2.0312,1.04434 0.1113,0.0158 0.2024,-0.88184 0.2024,-1.99469 z m -10.5216,-1.5464 c 0,-0.15995 -0.9105,-0.8874 -2.0233,-1.61658 -1.8795,-1.23144 -2.1727,-1.22795 -4.1218,0.0492 l -2.0984,1.37494 1.8664,1.4079 c 1.6676,1.25786 2.1069,1.28361 4.1218,0.24163 1.2404,-0.64144 2.2553,-1.29712 2.2553,-1.45707 z m -9.3147,-4.6012 c 4.9694,-0.85071 10.8607,-0.46216 15.6721,1.03363 2.6164,0.8134 2.8743,0.68709 7.0815,-3.46775 7.2016,-7.112129 8.6023,-14.113719 3.7497,-18.742949 -3.6877,-3.518 -6.2559,-4.09292 -10.2974,-2.30517 -3.8594,1.7072 -6.7811,5.83997 -8.9942,12.72256 -0.6999,2.17672 -1.4606,4.503959 -1.6903,5.171699 -0.2298,0.66771 -0.9426,-0.78767 -1.584,-3.234189 -1.8828,-7.18133 -5.1894,-12.26412 -9.3837,-14.42417 -3.3695,-1.73526 -3.8509,-1.78906 -6.4166,-0.71707 -1.5256,0.63743 -3.7583,2.32905 -4.9617,3.75916 -4.003,4.75728 -2.4657,10.71564 4.6788,18.134339 2.9722,3.08633 4.1529,3.81371 5.5373,3.41137 0.9678,-0.28125 3.9416,-0.88491 6.6085,-1.34146 z m -10.6403,-4.96504 c -4.1223,-4.281659 -5.1348,-6.215159 -5.1348,-9.805329 0,-2.14866 0.5888,-3.30939 2.4901,-4.90931 1.3696,-1.15242 3.2335,-2.09532 4.142,-2.09532 2.6124,0 7.5054,5.57975 9.4307,10.75425 2.5771,6.926199 2.4192,7.575599 -2.0027,8.238699 -2.06,0.30893 -4.1624,0.72166 -4.6719,0.91719 -0.5095,0.19552 -2.4236,-1.19957 -4.2534,-3.10018 z m 23.3096,2.38012 -4.3342,-0.83102 0.4686,-2.88722 c 0.7848,-4.836259 5.211,-12.921459 7.8093,-14.265109 3.2212,-1.66575 4.3355,-1.52838 7.2079,0.88859 2.7037,2.275 3.3374,6.06635 1.5863,9.49113 -1.0127,1.98076 -7.2846,8.706019 -7.9651,8.540999 -0.2412,-0.0585 -2.3889,-0.48029 -4.7728,-0.93737 z m -6.592,-11.330119 c 0,-0.5736 0.7247,-2.46428 1.6104,-4.20154 1.4631,-2.86985 1.4983,-3.32947 0.386,-5.02722 -1.5085,-2.30226 -3.6979,-2.39412 -5.6501,-0.23706 -1.432,1.58236 -1.4236,1.73747 0.2793,5.14708 0.9656,1.93356 1.7557,3.93092 1.7557,4.43859 0,0.50767 0.3642,0.92304 0.8094,0.92304 0.4451,0 0.8093,-0.4693 0.8093,-1.04289 z m -1.9633,-5.97192 c -0.6638,-1.72993 0.8179,-3.35718 1.9898,-2.18524 0.8801,0.88 0.2523,3.5346 -0.8358,3.5346 -0.3499,0 -0.8692,-0.60721 -1.154,-1.34936 z"
         style="fill:#ffffff;stroke-width:0.80935;fill-opacity:1" />
    </g>
  </g>
</svg>
