<?xml version="1.0" encoding="UTF-8" standalone="no"?>
<svg
   xmlns:dc="http://purl.org/dc/elements/1.1/"
   xmlns:cc="http://creativecommons.org/ns#"
   xmlns:rdf="http://www.w3.org/1999/02/22-rdf-syntax-ns#"
   xmlns:svg="http://www.w3.org/2000/svg"
   xmlns="http://www.w3.org/2000/svg"
   xmlns:sodipodi="http://sodipodi.sourceforge.net/DTD/sodipodi-0.dtd"
   xmlns:inkscape="http://www.inkscape.org/namespaces/inkscape"
   width="120"
   height="80"
   viewBox="0 0 119.99999 80"
   version="1.1"
   id="svg3"
   sodipodi:docname="New Game.svg"
   inkscape:version="1.0 (4035a4fb49, 2020-05-01)">
  <metadata
     id="metadata9">
    <rdf:RDF>
      <cc:Work
         rdf:about="">
        <dc:format>image/svg+xml</dc:format>
        <dc:type
           rdf:resource="http://purl.org/dc/dcmitype/StillImage" />
        <dc:title />
      </cc:Work>
    </rdf:RDF>
  </metadata>
  <defs
     id="defs7" />
  <sodipodi:namedview
     inkscape:document-rotation="0"
     pagecolor="#ffffff"
     bordercolor="#666666"
     borderopacity="1"
     objecttolerance="10"
     gridtolerance="10"
     guidetolerance="10"
     inkscape:pageopacity="0"
     inkscape:pageshadow="2"
     inkscape:window-width="1842"
     inkscape:window-height="1051"
     id="namedview5"
     showgrid="false"
     inkscape:zoom="0.22014514"
     inkscape:cx="1972.3342"
     inkscape:cy="-118.79657"
     inkscape:window-x="69"
     inkscape:window-y="-9"
     inkscape:window-maximized="1"
     inkscape:current-layer="svg3" />
  <path
     style="fill:#000000;fill-opacity:1"
     id="text2090"
     d="m 28.5545,12.157473 -0.017,-0.8 q 2.573,0 3.769,-0.133 0.465,-0.05 0.647,-0.05 0.149,0 0.448,0.017 a 9.211,9.211 0 0 1 1.295,1.328 q 0.133,0.149 0.3,0.332 l 3.5,3.868 0.5,0.6 q 1.063,1.245 1.934,2.125 0.871,0.88 3.4,3.669 l 3.968,4.4 q 0.581,0.647 1.494,1.61 l 0.012,-0.266 q -0.1,-2.308 -0.1,-2.44 l 0.066,-1 -0.032,-1.56 v -0.714 q 0,-0.681 -0.116,-4.2 -0.017,-0.481 -0.133,-1.818 -0.116,-1.337 -0.116,-2.349 a 5.48,5.48 0 0 0 -0.216,-2.125 3.025,3.025 0 0 0 -1.411,-0.448 q -0.3,-0.017 -0.93,-0.1 a 4.647,4.647 0 0 1 -0.88,-0.083 0.6,0.6 0 0 1 -0.266,-0.282 1.529,1.529 0 0 1 0.149,-0.5 3.088,3.088 0 0 1 0.88,-0.133 7.155,7.155 0 0 1 1.154,0.116 7.513,7.513 0 0 0 1.237,0.116 q 0.764,0 2.374,-0.1 0.913,-0.066 1.262,-0.066 h 0.282 l -0.033,0.515 a 2.157,2.157 0 0 1 -0.73,0.141 3.8,3.8 0 0 0 -0.863,0.141 1.888,1.888 0 0 0 -0.714,0.315 1.3,1.3 0 0 0 -0.4,0.88 l 0.183,5.246 0.133,2.407 -0.017,0.7 0.1,3.337 q 0.1,3.42 0.1,5.943 0,0.548 -0.066,2.374 l -0.777,0.067 q -0.581,-0.664 -4,-4.184 -0.8,-0.813 -1.079,-1.146 l -1.428,-1.644 q -0.83,-0.913 -1.079,-1.162 l -0.365,-0.365 q -1.81,-2.059 -4.7,-5.146 -0.781,-0.83 -2.292,-2.59 -0.947,-1.112 -1.2,-1.361 a 5.908,5.908 0 0 0 -0.681,-0.564 l -0.05,0.564 q 0,3.237 0.166,8.932 l 0.116,5.5 q 0.017,0.7 0.083,1.345 l 0.581,0.133 q 1.577,0.149 3.1,0.448 a 1.539,1.539 0 0 0 0.2,0.149 l -0.017,0.631 a 1.523,1.523 0 0 1 -0.424,0.08 3.714,3.714 0 0 1 -0.448,-0.033 q -1.644,-0.133 -4,-0.133 -1.66,0 -2.922,0.083 l -0.232,0.017 a 3.992,3.992 0 0 1 -0.429,-0.034 l -0.017,-0.5 0.432,-0.2 0.78,-0.116 a 7.8,7.8 0 0 0 1.527,-0.332 1.217,1.217 0 0 0 0.515,-0.349 22.944,22.944 0 0 0 0.183,-3.354 q 0,-1.029 -0.05,-3.769 v -2.258 l -0.033,-4.715 a 20.46,20.46 0 0 0 -0.216,-3.719 1.1,1.1 0 0 0 -0.415,-0.531 3.5,3.5 0 0 0 -1.656,-0.557 11.034,11.034 0 0 1 -1.32,-0.2 z m 38.914,11.534 -6.657,0.049 h -1.262 q -0.764,0 -1.561,0.069 a 2.927,2.927 0 0 0 -0.149,0.681 l 0.017,0.166 v 0.166 l -0.017,0.813 a 6.477,6.477 0 0 0 0.639,2.482 4.933,4.933 0 0 0 1.827,2.24 5.628,5.628 0 0 0 2.963,0.822 6.11,6.11 0 0 0 1.511,-0.232 7.647,7.647 0 0 0 1.594,-0.847 l 1.2,-0.979 0.1,0.664 a 2.014,2.014 0 0 1 -0.017,0.249 7.293,7.293 0 0 1 -1.898,1.659 9.016,9.016 0 0 1 -2.324,1.046 8.106,8.106 0 0 1 -1.859,0.15 5.95,5.95 0 0 1 -2.325,-0.482 5.659,5.659 0 0 1 -2.664,-2.35 7.5,7.5 0 0 1 -0.971,-3.926 8.421,8.421 0 0 1 0.274,-1.874 9.864,9.864 0 0 1 0.988,-2.44 4.782,4.782 0 0 1 1.179,-1.444 7.8,7.8 0 0 1 1.742,-1.116 6.5,6.5 0 0 1 2.507,-0.448 5.011,5.011 0 0 1 2.523,0.564 5,5 0 0 1 1.984,1.926 4.507,4.507 0 0 1 0.656,2.158 z m -9.264,-0.6 h 0.78 q 0.847,0 5.047,-0.266 a 2.1,2.1 0 0 0 0.813,-0.133 0.885,0.885 0 0 0 0.3,-0.564 2.647,2.647 0 0 0 -0.332,-1.17 2.288,2.288 0 0 0 -1.021,-1.013 3.435,3.435 0 0 0 -1.6,-0.357 3.764,3.764 0 0 0 -3.09,1.447 3.339,3.339 0 0 0 -0.896,2.059 z m 9.928,-3.719 6.375,0.017 a 0.353,0.353 0 0 1 0.249,0.066 0.271,0.271 0 0 1 0.066,0.2 0.5,0.5 0 0 1 -0.248,0.465 3.527,3.527 0 0 0 -1.437,0.282 0.635,0.635 0 0 0 -0.281,0.548 1.451,1.451 0 0 0 0.033,0.315 12.286,12.286 0 0 0 0.481,1.179 q 0.564,1.312 2.008,4.25 l 1.976,4.02 a 47.758,47.758 0 0 0 2.728,-5.489 l -1.017,-2.663 q -0.165,-0.365 -0.422,-1.1 a 2.683,2.683 0 0 0 -0.4,-0.855 3.826,3.826 0 0 0 -1.018,-0.374 4.106,4.106 0 0 1 -1.041,-0.376 l -0.017,-0.116 a 0.661,0.661 0 0 1 0.1,-0.282 2.767,2.767 0 0 1 0.631,-0.1 l 0.946,0.017 h 2.08 l 0.631,-0.017 2.042,0.033 q 0.249,0 0.415,-0.017 h 0.282 q 0.1,0 0.282,0.017 l -0.033,0.531 a 2.2,2.2 0 0 1 -0.83,0.216 4.91,4.91 0 0 0 -1.677,0.415 0.562,0.562 0 0 0 -0.183,0.349 2.785,2.785 0 0 0 0.2,0.913 q 0.067,0.166 0.349,1.029 l 1.781,4.682 q 0.782,2.092 1.2,2.922 a 42.6,42.6 0 0 0 1.956,-4.6 q 0.441,-1.162 1.185,-2.772 a 4.243,4.243 0 0 0 0.481,-1.753 0.862,0.862 0 0 0 -0.282,-0.651 3.158,3.158 0 0 0 -1.313,-0.5 6.962,6.962 0 0 1 -0.914,-0.247 0.428,0.428 0 0 1 -0.083,-0.211 0.49,0.49 0 0 1 0.183,-0.324 h 0.249 l 1.345,-0.016 q 0.083,0 0.764,0.025 0.681,0.025 1.328,0.025 0.5,0 1.146,-0.033 h 0.83 a 0.307,0.307 0 0 1 0.141,0.083 0.261,0.261 0 0 1 0.042,0.166 1.781,1.781 0 0 1 -0.05,0.4 3.341,3.341 0 0 0 -1.278,0.374 5.092,5.092 0 0 0 -1.262,1.5 l -2.965,7.142 q -0.414,1 -1.441,3.055 -0.215,0.432 -0.323,0.7 a 0.929,0.929 0 0 1 -0.207,0.345 0.4,0.4 0 0 1 -0.265,0.083 1.075,1.075 0 0 1 -0.316,-0.066 q -0.466,-0.917 -2.062,-5.037 -0.436,-1.1 -0.8,-1.865 -2.702,5.642 -3.542,6.932 a 2.931,2.931 0 0 1 -0.363,0.033 2.552,2.552 0 0 1 -0.343,-0.033 l -3.14,-6.558 -2.874,-5.611 a 2.236,2.236 0 0 0 -0.465,-0.631 2.8,2.8 0 0 0 -1,-0.3 q -0.4,-0.066 -0.614,-0.1 -0.017,-0.249 -0.017,-0.382 0.002,-0.081 0.018,-0.247 z m -26.562,28.931 0.183,2.523 q 0.1,1.146 0.1,1.561 l -0.465,0.083 a 9.407,9.407 0 0 0 -2.764,-3.785 6.464,6.464 0 0 0 -4.042,-1.262 11.629,11.629 0 0 0 -4.549,0.714 9.288,9.288 0 0 0 -4.034,3.52 10.617,10.617 0 0 0 -1.675,6.042 10.328,10.328 0 0 0 0.614,3.669 11.134,11.134 0 0 0 1.735,3.03 11.815,11.815 0 0 0 2.648,2.432 7.377,7.377 0 0 0 2.371,1.027 10.979,10.979 0 0 0 2.324,0.183 9.809,9.809 0 0 0 2.208,-0.283 4.8,4.8 0 0 0 1.826,-0.755 2.45,2.45 0 0 0 0.838,-1.071 7.813,7.813 0 0 0 0.224,-2.324 q 0,-2.872 -0.382,-3.345 -0.382,-0.473 -2.407,-0.623 l -0.664,-0.05 -0.448,0.017 q -0.1,-0.017 -0.266,-0.05 l -0.249,-0.415 a 0.377,0.377 0 0 1 0.116,-0.216 32.017,32.017 0 0 1 3.752,-0.133 q 0.647,0 2.108,0.033 l 1.71,0.066 1.544,-0.017 q 0.448,0 1.079,0.033 a 0.237,0.237 0 0 1 0.149,0.058 0.23,0.23 0 0 1 0.033,0.141 1.72,1.72 0 0 1 -0.083,0.465 5.547,5.547 0 0 1 -1.079,0.149 l -1.079,-0.017 a 1.109,1.109 0 0 0 -0.88,0.382 2.531,2.531 0 0 0 -0.166,1.245 l 0.017,2.175 a 13.215,13.215 0 0 1 -0.183,2.855 1.381,1.381 0 0 1 -0.415,0.656 4.751,4.751 0 0 1 -1.328,0.689 12.881,12.881 0 0 1 -2.623,0.78 24.658,24.658 0 0 1 -4.233,0.382 14.7,14.7 0 0 1 -5.387,-0.838 10.81,10.81 0 0 1 -3.619,-2.333 9.55,9.55 0 0 1 -2.167,-3.021 11.3,11.3 0 0 1 -0.979,-4.565 11.632,11.632 0 0 1 1.541,-5.682 11.28,11.28 0 0 1 4.956,-4.524 14.531,14.531 0 0 1 6.541,-1.229 18.128,18.128 0 0 1 4.673,0.5 11.9,11.9 0 0 1 2.876,1.128 z m 17.564,17.896 a 0.879,0.879 0 0 1 0.1,0.315 2.14,2.14 0 0 1 -0.4,0.88 3.574,3.574 0 0 1 -1.146,1.212 2.06,2.06 0 0 1 -1.1,0.249 2.181,2.181 0 0 1 -1.793,-0.73 3.11,3.11 0 0 1 -0.515,-1.544 l -1.856,1.295 a 7.641,7.641 0 0 1 -1.494,0.714 8.005,8.005 0 0 1 -1.992,0.216 1.773,1.773 0 0 1 -1.336,-0.506 1.8,1.8 0 0 1 -0.49,-1.3 4.54,4.54 0 0 1 1.412,-2.743 10.306,10.306 0 0 1 3.819,-2.606 q 1.7,-0.714 2.08,-0.913 0.033,-0.548 0.033,-1.2 a 4.874,4.874 0 0 0 -0.591,-2.855 2.029,2.029 0 0 0 -1.69,-0.747 3.166,3.166 0 0 0 -2.148,0.9 3.964,3.964 0 0 0 -0.933,2.125 3.518,3.518 0 0 1 -0.382,0.93 2.324,2.324 0 0 1 -1.146,0.465 1.108,1.108 0 0 1 -0.664,-0.216 0.327,0.327 0 0 1 -0.166,-0.266 5.725,5.725 0 0 1 0.921,-1.951 6.1,6.1 0 0 1 2.324,-2.274 5.34,5.34 0 0 1 2.443,-0.755 6.544,6.544 0 0 1 2.125,0.257 2.87,2.87 0 0 1 1.229,0.9 2.883,2.883 0 0 1 0.646,1.416 25.948,25.948 0 0 1 0.066,2.606 l -0.05,2.64 0.017,1.926 q 0,0.382 -0.017,0.647 -0.017,0.481 -0.017,0.714 a 1.225,1.225 0 0 0 0.315,0.88 1,1 0 0 0 0.747,0.332 1.3,1.3 0 0 0 1.079,-0.631 l 0.2,-0.266 a 1.547,1.547 0 0 1 0.37,-0.116 z m -4.865,-0.481 q 0.116,-2.108 0.116,-2.972 0,-0.448 -0.05,-1.212 a 11.442,11.442 0 0 0 -2.365,1.212 7.01,7.01 0 0 0 -1.982,1.876 2.556,2.556 0 0 0 -0.533,1.444 1.447,1.447 0 0 0 0.441,1.079 1.52,1.52 0 0 0 1.108,0.432 2.92,2.92 0 0 0 1.25,-0.365 8.347,8.347 0 0 0 2.016,-1.494 z m 5.845,2.175 a 1.715,1.715 0 0 1 0.73,-0.249 3.273,3.273 0 0 0 1.029,-0.266 1.229,1.229 0 0 0 0.4,-0.714 38.684,38.684 0 0 0 0.116,-4.2 29,29 0 0 0 -0.216,-4.565 3.016,3.016 0 0 0 -0.946,-0.365 q -0.183,-0.033 -0.764,-0.183 v -0.556 a 5,5 0 0 0 1.592,-0.738 10.878,10.878 0 0 0 1.692,-1.8 h 0.1 q 0.1,0 0.317,-0.017 a 0.424,0.424 0 0 1 0.217,0.083 l -0.017,1.899 q 0,0.581 0.033,1.245 a 13.169,13.169 0 0 1 3.182,-2.258 5.244,5.244 0 0 1 2.171,-0.432 4.163,4.163 0 0 1 2.287,0.548 5.235,5.235 0 0 1 1.607,1.976 10.571,10.571 0 0 1 2.68,-2.044 5.545,5.545 0 0 1 2.432,-0.581 4.1,4.1 0 0 1 3.055,1.213 5.129,5.129 0 0 1 1.213,3.609 v 1.38 l 0.017,1.513 -0.017,3.89 a 1.436,1.436 0 0 0 0.3,1.031 q 0.133,0.05 1.013,0.3 a 2.394,2.394 0 0 1 0.647,0.233 0.286,0.286 0 0 1 0.1,0.233 1.2,1.2 0 0 1 -0.1,0.432 h -0.116 l -1.673,-0.1 q -0.3,-0.017 -0.944,-0.017 -0.795,0 -2.219,0.066 h -0.845 q -0.182,0 -0.712,0.017 a 2.434,2.434 0 0 1 -0.017,-0.266 0.7,0.7 0 0 1 0.116,-0.332 5.087,5.087 0 0 1 1.229,-0.324 q 0.78,-0.125 0.971,-0.449 a 8.763,8.763 0 0 0 0.191,-2.585 q 0,-4.9 -0.116,-5.686 a 3.054,3.054 0 0 0 -1.057,-1.954 3.275,3.275 0 0 0 -2.155,-0.707 3.986,3.986 0 0 0 -1.947,0.523 7.064,7.064 0 0 0 -1.866,1.568 l -0.017,0.4 v 2.54 l -0.066,1.976 q 0,3.021 0.058,3.437 a 0.934,0.934 0 0 0 0.282,0.606 3.254,3.254 0 0 0 1.3,0.34 7.476,7.476 0 0 1 0.747,0.133 0.535,0.535 0 0 1 0.2,0.432 0.312,0.312 0 0 1 -0.149,0.3 h -0.282 l -0.83,-0.017 h -4.826 l -1.328,0.017 a 3.09,3.09 0 0 1 -0.033,-0.365 l 0.017,-0.2 a 5.145,5.145 0 0 1 1.361,-0.382 5.831,5.831 0 0 0 1.063,-0.282 0.506,0.506 0 0 0 0.149,-0.216 6.4,6.4 0 0 0 0.116,-1.328 l 0.083,-1.926 -0.033,-2.175 0.017,-1.212 a 4.435,4.435 0 0 0 -0.829,-2.985 2.665,2.665 0 0 0 -2.087,-0.938 5.32,5.32 0 0 0 -2.36,0.581 5.642,5.642 0 0 0 -1.963,1.562 q -0.017,0.465 -0.017,0.847 l 0.066,5.578 a 5.812,5.812 0 0 0 0.208,2.083 1.3,1.3 0 0 0 0.855,0.357 3.768,3.768 0 0 1 1.378,0.365 0.335,0.335 0 0 1 0.149,0.3 q 0,0.133 -0.017,0.315 -1.9,-0.133 -2.546,-0.133 -0.666,0 -1.2,0.017 l -0.832,0.05 h -0.514 l -1.863,0.066 a 0.728,0.728 0 0 1 -0.033,-0.192 1.687,1.687 0 0 1 0.066,-0.322 z m 38.7,-8.2 -6.657,0.049 h -1.264 q -0.764,0 -1.561,0.069 a 2.927,2.927 0 0 0 -0.149,0.681 l 0.017,0.166 v 0.166 l -0.017,0.813 a 6.477,6.477 0 0 0 0.639,2.482 4.933,4.933 0 0 0 1.826,2.238 5.628,5.628 0 0 0 2.963,0.822 6.11,6.11 0 0 0 1.511,-0.232 7.647,7.647 0 0 0 1.594,-0.847 l 1.2,-0.979 0.1,0.664 a 2.014,2.014 0 0 1 -0.017,0.249 7.293,7.293 0 0 1 -1.893,1.66 9.016,9.016 0 0 1 -2.324,1.046 8.106,8.106 0 0 1 -1.859,0.149 5.95,5.95 0 0 1 -2.324,-0.481 5.659,5.659 0 0 1 -2.669,-2.351 7.5,7.5 0 0 1 -0.971,-3.926 8.421,8.421 0 0 1 0.274,-1.876 9.864,9.864 0 0 1 0.988,-2.44 4.782,4.782 0 0 1 1.179,-1.444 7.8,7.8 0 0 1 1.742,-1.114 6.5,6.5 0 0 1 2.507,-0.448 4.922,4.922 0 0 1 4.507,2.49 4.507,4.507 0 0 1 0.656,2.158 z m -9.264,-0.6 h 0.78 q 0.847,0 5.047,-0.266 a 2.1,2.1 0 0 0 0.813,-0.133 0.885,0.885 0 0 0 0.3,-0.564 2.647,2.647 0 0 0 -0.332,-1.17 2.288,2.288 0 0 0 -1.021,-1.013 3.435,3.435 0 0 0 -1.6,-0.357 3.764,3.764 0 0 0 -3.088,1.444 3.339,3.339 0 0 0 -0.901,2.06 z" />
</svg>
