<?xml version="1.0" encoding="UTF-8" standalone="no"?>
<svg
   xmlns:dc="http://purl.org/dc/elements/1.1/"
   xmlns:cc="http://creativecommons.org/ns#"
   xmlns:rdf="http://www.w3.org/1999/02/22-rdf-syntax-ns#"
   xmlns:svg="http://www.w3.org/2000/svg"
   xmlns="http://www.w3.org/2000/svg"
   xmlns:sodipodi="http://sodipodi.sourceforge.net/DTD/sodipodi-0.dtd"
   xmlns:inkscape="http://www.inkscape.org/namespaces/inkscape"
   inkscape:version="1.0 (4035a4fb49, 2020-05-01)"
   sodipodi:docname="captured_pieces.svg"
   id="svg8"
   version="1.1"
   viewBox="0 0 6.3499999 6.3500002"
   height="24"
   width="24">
  <defs
     id="defs2" />
  <sodipodi:namedview
     inkscape:window-maximized="0"
     inkscape:window-y="94"
     inkscape:window-x="386"
     inkscape:window-height="1030"
     inkscape:window-width="1424"
     units="px"
     showgrid="false"
     inkscape:document-rotation="0"
     inkscape:current-layer="layer1"
     inkscape:document-units="mm"
     inkscape:cy="7.6342833"
     inkscape:cx="12.774605"
     inkscape:zoom="15.839192"
     inkscape:pageshadow="2"
     inkscape:pageopacity="0.0"
     borderopacity="1.0"
     bordercolor="#666666"
     pagecolor="#ffffff"
     id="base" />
  <metadata
     id="metadata5">
    <rdf:RDF>
      <cc:Work
         rdf:about="">
        <dc:format>image/svg+xml</dc:format>
        <dc:type
           rdf:resource="http://purl.org/dc/dcmitype/StillImage" />
        <dc:title></dc:title>
      </cc:Work>
    </rdf:RDF>
  </metadata>
  <g
     id="layer1"
     inkscape:groupmode="layer"
     inkscape:label="Layer 1">
    <g
       transform="matrix(0.079375,0,0,0.07559524,-0.635,-0.45357152)"
       id="g861"
       style="overflow:hidden">
      <path
         d="m 75,34 h -6 v -8 h 6 z m 0,36 h -6 v -8 h 6 z M 66,56 c -1.7,0 -3,-1.3 -3,-3 v -4 c -1.2,-0.9 -2,-2.3 -2,-4 0,-2.8 2.2,-5 5,-5 2.8,0 5,2.2 5,5 0,1.6 -0.8,3.1 -2,4 v 4 c 0,1.7 -1.3,3 -3,3 z m -3,14 h -6 v -8 h 6 z M 51,70 H 45 V 26 h 6 z M 39,70 H 33 V 26 h 6 z M 27,70 H 21 V 26 h 6 z M 57,26 h 6 v 8 h -6 z m 31,0 V 20 H 8 v 6 h 7 V 70 H 8 v 6 H 88 V 70 H 81 V 26 Z"
         id="path851" />
    </g>
  </g>
</svg>
