<?xml version="1.0" encoding="UTF-8" standalone="no"?>
<svg
   xmlns:dc="http://purl.org/dc/elements/1.1/"
   xmlns:cc="http://creativecommons.org/ns#"
   xmlns:rdf="http://www.w3.org/1999/02/22-rdf-syntax-ns#"
   xmlns:svg="http://www.w3.org/2000/svg"
   xmlns="http://www.w3.org/2000/svg"
   xmlns:sodipodi="http://sodipodi.sourceforge.net/DTD/sodipodi-0.dtd"
   xmlns:inkscape="http://www.inkscape.org/namespaces/inkscape"
   sodipodi:docname="captured_pieces.svg"
   inkscape:version="1.0 (4035a4fb49, 2020-05-01)"
   id="svg8"
   version="1.1"
   viewBox="0 0 6.3499999 6.3500002"
   height="24"
   width="24">
  <defs
     id="defs2" />
  <sodipodi:namedview
     inkscape:window-maximized="1"
     inkscape:window-y="-9"
     inkscape:window-x="-9"
     inkscape:window-height="1001"
     inkscape:window-width="1920"
     units="px"
     showgrid="false"
     inkscape:document-rotation="0"
     inkscape:current-layer="layer1"
     inkscape:document-units="mm"
     inkscape:cy="6.2756565"
     inkscape:cx="17.315458"
     inkscape:zoom="5.6"
     inkscape:pageshadow="2"
     inkscape:pageopacity="0.0"
     borderopacity="1.0"
     bordercolor="#666666"
     pagecolor="#ffffff"
     id="base" />
  <metadata
     id="metadata5">
    <rdf:RDF>
      <cc:Work
         rdf:about="">
        <dc:format>image/svg+xml</dc:format>
        <dc:type
           rdf:resource="http://purl.org/dc/dcmitype/StillImage" />
        <dc:title></dc:title>
      </cc:Work>
    </rdf:RDF>
  </metadata>
  <g
     id="layer1"
     inkscape:groupmode="layer"
     inkscape:label="Layer 1">
    <path
       id="path847"
       d="m -3.5e-8,5.1518867 v -0.083868 l 0.353443405,2.39e-5 0.3534434,2.4e-5 -0.021639,-0.3235028 -0.021639,-0.3235262 h -0.06822 c -0.067405,0 -0.06822,-0.00172 -0.06822,-0.1437736 0,-0.130053 0.0048,-0.1437736 0.05029,-0.1437736 0.048747,0 0.049847,-0.00754 0.035857,-0.2456131 C 0.57736966,3.2761709 0.56703416,3.1755957 0.52169886,2.9963387 0.46220427,2.7610958 0.47362187,2.5879563 0.56154966,2.392027 c 0.0545756,-0.1216105 0.069194,-0.2083218 0.10547,-0.6256119 L 0.70913256,1.2819813 H 0.35456627 -3.5e-8 V 1.1981133 1.1142453 H 3.175 6.35 v 0.083868 0.083868 H 5.990566 5.631132 V 3.1749999 5.0680186 H 5.990566 6.35 v 0.083868 0.083868 H 3.175 -3.5e-8 Z M 1.644105,5.0260848 C 1.6372186,5.0030211 1.6083056,4.8574504 1.5798539,4.7025943 L 1.5281234,4.4210377 H 1.1690675 0.81001136 l 0.013855,0.137783 c 0.00762,0.075781 0.020729,0.2213514 0.02913,0.3234905 l 0.015275,0.1857076 H 1.2624482 c 0.3642015,0 0.3932247,-0.00319 0.3816568,-0.041934 z m 0.991868,-0.047925 c 7.2e-5,-0.049422 0.0071,-0.1949929 0.01559,-0.3234906 l 0.01547,-0.233632 H 2.375878 2.084717 V 4.265283 4.1095283 h 0.07189 c 0.06322,0 0.07189,-0.00831 0.07189,-0.068953 0,-0.037924 -0.01618,-0.082376 -0.03594,-0.098783 -0.07952,-0.065993 -0.004,-0.2396226 0.104278,-0.2396226 0.03836,0 0.04646,-0.02679 0.05976,-0.1976886 0.0085,-0.1087288 0.0156,-0.2623868 0.01586,-0.3414623 8.26e-4,-0.2519626 5.14e-4,-0.2516037 0.218272,-0.2516037 0.151939,0 0.188903,-0.00703 0.188903,-0.035943 0,-0.029266 -0.03975,-0.035943 -0.213948,-0.035943 -0.217899,0 -0.289259,-0.026602 -0.289259,-0.1078302 0,-0.080988 0.07145,-0.1078302 0.287015,-0.1078302 0.199908,0 0.211007,-0.00267 0.199173,-0.047925 -0.0112,-0.042812 -0.03268,-0.047924 -0.201436,-0.047924 -0.175744,0 -0.188903,-0.00349 -0.188903,-0.050168 0,-0.030015 -0.01925,-0.055202 -0.04793,-0.0627 -0.04339,-0.011346 -0.04792,-0.032685 -0.04792,-0.2253981 V 1.9768869 h 0.09585 c 0.09052,0 0.09585,0.00399 0.09585,0.071887 0,0.047925 0.01198,0.071887 0.03594,0.071887 0.02396,0 0.03594,-0.023962 0.03594,-0.071887 0,-0.066357 0.0065,-0.071887 0.08495,-0.071887 0.0825,0 0.08458,-0.00225 0.07213,-0.077877 -0.01536,-0.09326 -0.06123,-0.5278672 -0.06123,-0.5801404 0,-0.031762 -0.0566,-0.036888 -0.407359,-0.036888 -0.224047,0 -0.407358,0.00456 -0.407358,0.010122 0,0.00557 -0.016546,0.2767477 -0.03677,0.6026232 -0.036506,0.5882454 -0.03642,0.5928738 0.011981,0.6443938 0.026813,0.028541 0.048751,0.080024 0.048751,0.1144062 0,0.1474993 -0.2320367,0.2903455 -0.3304395,0.2034249 -0.02254,-0.019907 -0.087907,-0.040448 -0.1452637,-0.045647 l -0.104285,-0.00945 0.059115,0.048791 c 0.032514,0.026835 0.1144059,0.091646 0.1819832,0.1440254 0.1948633,0.151038 0.2440284,0.3174173 0.1471884,0.4980995 -0.06344,0.1183649 -0.06044,0.1803265 0.011981,0.2474437 0.067456,0.062516 0.077036,0.1458109 0.024724,0.2149725 -0.01935,0.025583 -0.035524,0.076167 -0.035943,0.11241 -6.64e-4,0.057413 0.00849,0.065896 0.071125,0.065896 h 0.071887 v 0.1437715 c 0,0.1342035 -0.00368,0.1437736 -0.055317,0.1437736 h -0.055317 l 0.060645,0.3234905 0.060645,0.3234906 H 2.221837 2.635849 l 1.2e-4,-0.089859 z M 3.570377,3.1750001 V 1.2819813 H 3.174543 2.77871 l 0.01133,0.053915 c 0.0062,0.029653 0.02421,0.1860071 0.03995,0.3474528 0.02111,0.2165417 0.03711,0.2935377 0.06101,0.2935377 0.02002,0 0.03239,0.027463 0.03239,0.071887 0,0.047925 0.01198,0.071887 0.03594,0.071887 0.02396,0 0.03594,-0.023962 0.03594,-0.071887 0,-0.067893 0.0053,-0.071887 0.09585,-0.071887 h 0.09585 v 0.2128657 c 0,0.1927132 -0.0045,0.214052 -0.04792,0.2253981 -0.02867,0.0075 -0.04793,0.032685 -0.04793,0.0627 0,0.04136 -0.01473,0.050168 -0.08387,0.050168 -0.06789,0 -0.08387,0.00913 -0.08387,0.047924 0,0.039792 0.01597,0.047925 0.09414,0.047925 0.09539,0 0.169447,0.047128 0.169447,0.1078302 0,0.060702 -0.07406,0.1078302 -0.169447,0.1078302 -0.0677,0 -0.09414,0.010093 -0.09414,0.035943 0,0.021936 0.02235,0.035943 0.05734,0.035943 0.071,0 0.08643,0.038197 0.08643,0.2139389 0,0.075973 0.007,0.2368363 0.01557,0.3574742 0.01362,0.1918398 0.02113,0.2193415 0.05991,0.2193415 0.110046,0 0.181738,0.1706844 0.104242,0.2481805 -0.01977,0.019769 -0.03594,0.063671 -0.03594,0.097561 0,0.052489 0.01065,0.061617 0.07189,0.061617 h 0.07189 V 4.265283 4.4210377 H 3.093171 2.831631 l -0.01432,0.1857076 c -0.0079,0.1021391 -0.01942,0.2477099 -0.02564,0.3234906 l -0.01132,0.137783 h 0.39501 0.39501 z M 4.528868,4.6726414 V 4.2772641 H 4.13349 3.738113 V 4.6726414 5.0680188 H 4.13349 4.528868 Z m 0.953093,0.00599 -0.0066,-0.3893868 H 5.07998 4.684602 l -0.0066,0.3893868 -0.0066,0.3893868 H 5.07994 5.488485 Z M 5.475361,3.1750001 V 2.2284907 L 4.606729,2.2222007 3.738097,2.2159107 V 3.175 4.1340883 l 0.868632,-0.00629 0.868632,-0.00629 z M 4.513444,3.7742585 c -0.09785,-0.039487 -0.128366,-0.1170119 -0.128366,-0.32609 0,-0.1485033 -0.0091,-0.2029233 -0.0377,-0.2266973 -0.06085,-0.050499 -0.130041,-0.2058929 -0.130041,-0.2920428 0,-0.1351349 0.09343,-0.2863169 0.214747,-0.3474942 0.0588,-0.029653 0.140088,-0.053915 0.18063,-0.053915 0.04054,0 0.121826,0.024262 0.180631,0.053915 0.121318,0.061177 0.214747,0.2123593 0.214747,0.3474942 0,0.08615 -0.06919,0.2415443 -0.130041,0.2920428 -0.02885,0.02394 -0.03769,0.078843 -0.03769,0.2338723 0,0.1919639 -0.0037,0.2062617 -0.07004,0.2726319 -0.07221,0.072209 -0.155459,0.087209 -0.256873,0.046283 z m 0.178129,-0.383376 c 0.0067,-0.2174587 0.01007,-0.2302564 0.07788,-0.2921871 0.0573,-0.052334 0.07091,-0.084325 0.07091,-0.1666466 0,-0.1429743 -0.0899,-0.236294 -0.227642,-0.236294 -0.213095,0 -0.30952,0.2499064 -0.155755,0.403672 0.06789,0.067886 0.07189,0.08255 0.07189,0.2634683 0,0.238845 0.01176,0.2721049 0.09292,0.2626937 0.06231,-0.00723 0.06289,-0.00917 0.0698,-0.2347064 z M 1.6136013,2.11467 c 0.00835,-0.1350872 0.022342,-0.3777051 0.031087,-0.539151 L 1.6605868,1.2819813 H 1.2616141 0.86264146 l -0.00178,0.065896 c -9.815e-4,0.036243 -0.014767,0.2142654 -0.030636,0.3956051 -0.015868,0.1813397 -0.023153,0.3263601 -0.016188,0.3222675 0.1163636,-0.068375 0.27150783,-0.119406 0.37038343,-0.1218287 0.1199282,-0.00294 0.1216231,-0.00197 0.1289478,0.073739 0.00478,0.049428 0.023257,0.081743 0.051939,0.090846 0.082507,0.026187 0.1644959,0.1081106 0.1803254,0.1801818 0.029205,0.1329688 0.052709,0.072794 0.067971,-0.1740181 z M 4.528868,1.6773587 V 1.2819813 H 4.13349 3.738113 V 1.6773587 2.072736 H 4.13349 4.528868 Z m 0.953093,-0.00599 0.0066,-0.3893868 H 5.080609 4.672657 v 0.3794025 c 0,0.2086714 0.0075,0.3868486 0.01655,0.395949 0.0091,0.0091 0.189716,0.013594 0.401368,0.00998 l 0.384822,-0.00656 z"
       style="fill:#000000;stroke-width:0.0239623" />
  </g>
</svg>
