<?xml version="1.0" encoding="UTF-8" standalone="no"?>
<svg
   xmlns:dc="http://purl.org/dc/elements/1.1/"
   xmlns:cc="http://creativecommons.org/ns#"
   xmlns:rdf="http://www.w3.org/1999/02/22-rdf-syntax-ns#"
   xmlns:svg="http://www.w3.org/2000/svg"
   xmlns="http://www.w3.org/2000/svg"
   xmlns:sodipodi="http://sodipodi.sourceforge.net/DTD/sodipodi-0.dtd"
   xmlns:inkscape="http://www.inkscape.org/namespaces/inkscape"
   sodipodi:docname="info.svg"
   inkscape:version="1.0 (4035a4fb49, 2020-05-01)"
   id="svg8"
   version="1.1"
   viewBox="0 0 6.3499999 6.3500002"
   height="24"
   width="24">
  <defs
     id="defs2" />
  <sodipodi:namedview
     inkscape:window-maximized="1"
     inkscape:window-y="-9"
     inkscape:window-x="-9"
     inkscape:window-height="1001"
     inkscape:window-width="1920"
     units="px"
     showgrid="false"
     inkscape:document-rotation="0"
     inkscape:current-layer="layer1"
     inkscape:document-units="mm"
     inkscape:cy="12.214952"
     inkscape:cx="11.245227"
     inkscape:zoom="22.627417"
     inkscape:pageshadow="2"
     inkscape:pageopacity="0.0"
     borderopacity="1.0"
     bordercolor="#666666"
     pagecolor="#ffffff"
     id="base" />
  <metadata
     id="metadata5">
    <rdf:RDF>
      <cc:Work
         rdf:about="">
        <dc:format>image/svg+xml</dc:format>
        <dc:type
           rdf:resource="http://purl.org/dc/dcmitype/StillImage" />
        <dc:title></dc:title>
      </cc:Work>
    </rdf:RDF>
  </metadata>
  <g
     id="layer1"
     inkscape:groupmode="layer"
     inkscape:label="Layer 1">
    <path
       transform="scale(0.26458333)"
       d="M 12 0 A 12 12 0 0 0 0 12 A 12 12 0 0 0 12 24 A 12 12 0 0 0 24 12 A 12 12 0 0 0 12 0 z M 12.001953 4.0703125 A 2.1333961 2.1333961 0 0 1 12.039062 4.0703125 A 2.1333961 2.1333961 0 0 1 14.171875 6.2050781 A 2.1333961 2.1333961 0 0 1 12.039062 8.3378906 A 2.1333961 2.1333961 0 0 1 9.9042969 6.2050781 A 2.1333961 2.1333961 0 0 1 12.001953 4.0703125 z M 8.5 9.8125 L 14.091797 9.8125 L 14.119141 18.591797 C 14.117507 19.400638 14.501763 19.630234 15.5 19.587891 L 15.5 19.929688 L 8.5859375 19.929688 L 8.5859375 19.587891 C 9.1344229 19.570905 10.044067 19.619167 9.9746094 18.527344 L 9.9785156 11.322266 C 9.9632335 10.085146 9.3673543 10.259935 8.5 10.154297 L 8.5 9.8125 z "
       style="fill:#000000;stroke-width:4.36339;stroke-linejoin:round"
       id="path1402" />
  </g>
</svg>
