<?xml version="1.0" encoding="UTF-8" standalone="no"?>
<svg
   xmlns:dc="http://purl.org/dc/elements/1.1/"
   xmlns:cc="http://creativecommons.org/ns#"
   xmlns:rdf="http://www.w3.org/1999/02/22-rdf-syntax-ns#"
   xmlns:svg="http://www.w3.org/2000/svg"
   xmlns="http://www.w3.org/2000/svg"
   xmlns:sodipodi="http://sodipodi.sourceforge.net/DTD/sodipodi-0.dtd"
   xmlns:inkscape="http://www.inkscape.org/namespaces/inkscape"
   inkscape:version="1.0 (4035a4fb49, 2020-05-01)"
   sodipodi:docname="pawn.svg"
   id="svg4"
   version="1.1"
   aria-hidden="true"
   viewBox="0 0 24 24"
   focusable="false"
   class="MuiSvgIcon-root jss174">
  <metadata
     id="metadata10">
    <rdf:RDF>
      <cc:Work
         rdf:about="">
        <dc:format>image/svg+xml</dc:format>
        <dc:type
           rdf:resource="http://purl.org/dc/dcmitype/StillImage" />
        <dc:title></dc:title>
      </cc:Work>
    </rdf:RDF>
  </metadata>
  <defs
     id="defs8" />
  <sodipodi:namedview
     inkscape:current-layer="svg4"
     inkscape:window-maximized="1"
     inkscape:window-y="-9"
     inkscape:window-x="-9"
     inkscape:cy="-18.78346"
     inkscape:cx="-68.525963"
     inkscape:zoom="4"
     inkscape:snap-global="false"
     showgrid="false"
     id="namedview6"
     inkscape:window-height="1001"
     inkscape:window-width="1920"
     inkscape:pageshadow="2"
     inkscape:pageopacity="0"
     guidetolerance="10"
     gridtolerance="10"
     objecttolerance="10"
     borderopacity="1"
     bordercolor="#666666"
     pagecolor="#ffffff"
     inkscape:document-rotation="0" />
  <path
     style="fill:#000000;stroke-width:0.652692"
     d="M 8.4654526,20.980255 C 6.5085746,20.897748 5.3058262,20.762701 5.2149668,20.614918 a 0.93414523,1.2340434 0 0 1 0.061894,-0.825197 C 5.5295615,19.049294 6.1025433,18.27736 7.4915503,16.804012 7.9532282,16.314897 8.4478422,15.763514 8.5909468,15.579721 a 4.092635,5.4065352 0 0 0 0.9557219,-1.786176 c 0.105614,-0.327825 0.6348783,-2.27979 0.6348783,-2.342056 A 6.1681976,8.1484372 0 0 0 9.3535959,11.364464 9.0047058,11.895579 0 0 1 7.2712179,11.088399 11.073453,14.628477 0 0 1 9.1025967,9.237708 L 10.024819,8.4020131 9.6698977,7.6578371 A 2.4077665,3.1807561 0 0 1 9.1588156,6.0554557 1.2555593,1.6586443 0 0 1 9.3706302,4.9511944 3.6525362,4.8251471 0 0 1 11.371804,3.1132575 a 2.3362147,3.0862336 0 0 1 1.571293,0.1500351 3.6389072,4.8071428 0 0 1 1.738249,1.8611922 1.565616,2.0682418 0 0 1 0,1.6691472 6.6440725,8.7770863 0 0 1 -0.400915,0.911466 4.3396582,5.7328626 0 0 0 -0.312896,0.6954149 c 0.0061,0.017252 0.440666,0.4215999 0.965379,0.9002139 A 13.92927,18.401122 0 0 1 16.706937,11.0764 c 0,0.04126 -0.189099,0.09228 -0.611596,0.165038 -0.113564,0.0195 -0.663271,0.06528 -1.219784,0.101271 -0.556511,0.03601 -1.030682,0.07503 -1.054533,0.07503 a 12.430094,16.420654 0 0 0 0.59967,2.357811 4.2658352,5.6353397 0 0 0 1.055667,1.921957 c 0.113564,0.141034 0.454299,0.513872 0.74902,0.825198 a 13.685655,18.079299 0 0 1 2.044332,2.415572 c 0.458271,0.70892 0.66895,1.470351 0.465085,1.6804 a 9.9059134,13.08611 0 0 1 -2.35098,0.322581 c -0.846125,0.05403 -6.8439633,0.08103 -7.9166676,0.03601 z"
     id="path4361" />
</svg>
