<?xml version="1.0" encoding="UTF-8" standalone="no"?>
<svg
   xmlns:dc="http://purl.org/dc/elements/1.1/"
   xmlns:cc="http://creativecommons.org/ns#"
   xmlns:rdf="http://www.w3.org/1999/02/22-rdf-syntax-ns#"
   xmlns:svg="http://www.w3.org/2000/svg"
   xmlns="http://www.w3.org/2000/svg"
   xmlns:sodipodi="http://sodipodi.sourceforge.net/DTD/sodipodi-0.dtd"
   xmlns:inkscape="http://www.inkscape.org/namespaces/inkscape"
   class="MuiSvgIcon-root jss174"
   focusable="false"
   viewBox="0 0 24 24"
   aria-hidden="true"
   version="1.1"
   id="svg4"
   sodipodi:docname="promos2.svg"
   inkscape:version="1.0 (4035a4fb49, 2020-05-01)">
  <metadata
     id="metadata10">
    <rdf:RDF>
      <cc:Work
         rdf:about="">
        <dc:format>image/svg+xml</dc:format>
        <dc:type
           rdf:resource="http://purl.org/dc/dcmitype/StillImage" />
        <dc:title></dc:title>
      </cc:Work>
    </rdf:RDF>
  </metadata>
  <defs
     id="defs8" />
  <sodipodi:namedview
     inkscape:document-rotation="0"
     pagecolor="#ffffff"
     bordercolor="#666666"
     borderopacity="1"
     objecttolerance="10"
     gridtolerance="10"
     guidetolerance="10"
     inkscape:pageopacity="0"
     inkscape:pageshadow="2"
     inkscape:window-width="1920"
     inkscape:window-height="1001"
     id="namedview6"
     showgrid="false"
     inkscape:snap-global="false"
     inkscape:zoom="4"
     inkscape:cx="-68.525963"
     inkscape:cy="-18.78346"
     inkscape:window-x="-9"
     inkscape:window-y="-9"
     inkscape:window-maximized="1"
     inkscape:current-layer="svg4" />
  <path
     id="path4361"
     d="M 3.4785195,20.814233 C 1.4085109,20.726956 0.13622943,20.584102 0.04011729,20.427775 A 0.98814984,1.3053857 0 0 1 0.10558942,19.554872 C 0.37289913,18.77164 0.97900599,17.955079 2.4483139,16.396554 2.9366823,15.879162 3.4598908,15.295903 3.6112685,15.101484 A 4.3292376,5.7190967 0 0 0 4.6222433,13.212046 C 4.733962,12.865269 5.2938241,10.800457 5.2938241,10.734592 A 6.5247922,8.619513 0 0 0 4.4180077,10.642536 9.525284,12.583284 0 0 1 2.2152439,10.350511 11.713629,15.474175 0 0 1 4.1524975,8.3928282 L 5.1280345,7.5088201 4.7525961,6.7216219 A 2.5469638,3.3646413 0 0 1 4.2119674,5.026604 1.3281454,1.7545335 0 0 1 4.4360272,3.8585034 3.8636959,5.1040975 0 0 1 6.5528917,1.9143121 2.4712755,3.2646543 0 0 1 8.2150241,2.073021 a 3.849279,5.0850523 0 0 1 1.8387409,1.968791 1.6561271,2.1878106 0 0 1 0,1.7656436 7.0281782,9.2845054 0 0 1 -0.4240929,0.9641595 4.5905416,6.0642897 0 0 0 -0.3309849,0.7356181 c 0.0065,0.018249 0.4661416,0.4459733 1.0211888,0.9522566 a 14.734546,19.464924 0 0 1 1.876583,1.8783282 c 0,0.04365 -0.200032,0.09762 -0.646954,0.174579 -0.120129,0.02063 -0.701616,0.06905 -1.290302,0.107126 -0.5886842,0.03809 -1.0902673,0.07937 -1.1154968,0.07937 a 13.1487,17.369961 0 0 0 0.6343382,2.49412 4.5124508,5.9611288 0 0 0 1.1166966,2.033069 c 0.120129,0.149187 0.480563,0.54358 0.792322,0.872904 a 14.476847,19.124496 0 0 1 2.162518,2.555221 c 0.484765,0.749903 0.707624,1.555354 0.491973,1.777546 a 10.478592,13.842641 0 0 1 -2.486894,0.34123 c -0.895042,0.05715 -7.2396249,0.08571 -8.3743446,0.03809 z"
     style="fill:#000000;stroke-width:0.690425" />
  <path
     style="stroke-width:0.13789"
     d="m 18.789395,16.16233 h -0.551562 a 12.503191,12.503191 0 0 1 0.424153,-2.807582 q 0.329968,-1.110982 1.366766,-3.090396 0.807898,-1.521617 1.050308,-2.3362718 a 5.7108586,5.7108586 0 0 0 0.241309,-1.6362047 q 0,-1.7236272 -0.908973,-2.7335347 A 2.883559,2.883559 0 0 0 18.182815,2.5484337 q -1.172065,0 -1.844834,0.5515601 -0.672763,0.5515606 -0.673315,1.1984033 0,0.4848217 0.404019,1.2119167 0.404017,0.7270948 0.404017,1.1042248 A 1.1279415,1.1279415 0 0 1 16.163277,7.416232 0.98095054,0.98095055 0 0 1 15.42267,7.7462029 q -0.592929,0 -1.050311,-0.5588693 -0.457381,-0.5588684 -0.457519,-1.5418869 0,-1.5216179 1.306233,-2.6863765 1.306234,-1.164758 3.554946,-1.164758 2.773936,0 4.080169,1.6159348 a 4.1358774,4.1358774 0 0 1 0.956131,2.6393552 5.1278592,5.1278592 0 0 1 -0.437388,2.0130583 q -0.438077,1.0300394 -1.663369,2.4305895 -1.952522,2.20831 -2.390602,3.130797 -0.438076,0.922485 -0.531565,2.538283 z m 1.306232,3.178366 a 1.4402627,1.4402627 0 0 1 -0.437664,1.056654 1.4402627,1.4402627 0 0 1 -1.057064,0.437661 1.45612,1.45612 0 0 1 -1.07058,-0.437661 1.4402627,1.4402627 0 0 1 -0.437525,-1.056654 1.45612,1.45612 0 0 1 0.437663,-1.070577 1.45612,1.45612 0 0 1 1.07058,-0.437665 1.4402627,1.4402627 0 0 1 1.057064,0.437665 1.45612,1.45612 0 0 1 0.437526,1.070577 z"
     data-name="Path 10"
     id="Path_10" />
</svg>
