<?xml version="1.0" encoding="UTF-8" standalone="no"?>
<svg
   xmlns:dc="http://purl.org/dc/elements/1.1/"
   xmlns:cc="http://creativecommons.org/ns#"
   xmlns:rdf="http://www.w3.org/1999/02/22-rdf-syntax-ns#"
   xmlns:svg="http://www.w3.org/2000/svg"
   xmlns="http://www.w3.org/2000/svg"
   xmlns:sodipodi="http://sodipodi.sourceforge.net/DTD/sodipodi-0.dtd"
   xmlns:inkscape="http://www.inkscape.org/namespaces/inkscape"
   inkscape:version="1.0 (4035a4fb49, 2020-05-01)"
   sodipodi:docname="subs.svg"
   id="svg845"
   version="1.1"
   aria-hidden="true"
   viewBox="0 0 24 24"
   focusable="false"
   class="MuiSvgIcon-root jss174">
  <metadata
     id="metadata851">
    <rdf:RDF>
      <cc:Work
         rdf:about="">
        <dc:format>image/svg+xml</dc:format>
        <dc:type
           rdf:resource="http://purl.org/dc/dcmitype/StillImage" />
        <dc:title></dc:title>
      </cc:Work>
    </rdf:RDF>
  </metadata>
  <defs
     id="defs849" />
  <sodipodi:namedview
     inkscape:current-layer="svg845"
     inkscape:window-maximized="1"
     inkscape:window-y="-9"
     inkscape:window-x="-9"
     inkscape:cy="-57.253164"
     inkscape:cx="-219.34736"
     inkscape:zoom="1.4142136"
     inkscape:snap-global="true"
     showgrid="false"
     id="namedview847"
     inkscape:window-height="1001"
     inkscape:window-width="1920"
     inkscape:pageshadow="2"
     inkscape:pageopacity="0"
     guidetolerance="10"
     gridtolerance="10"
     objecttolerance="10"
     borderopacity="1"
     bordercolor="#666666"
     pagecolor="#ffffff" />
  <path
     d="m 0,12.629639 v 4.999998 h 4.9999999 v -4.999998 z m 2.7397086,0.15879 c 0.050375,-0.0021 0.09185,0.07119 0.1475,0.225085 0.058187,0.160937 0.1964374,0.307937 0.4313537,0.458687 0.4397088,0.282147 0.7780001,0.676897 0.9027289,1.053375 0.063875,0.192813 0.098838,0.618979 0.1009374,1.230312 0.00212,0.514438 0.0286,1.05225 0.059663,1.195147 l 0.056463,0.259811 h -1.670521 c -1.5562299,0 -1.6705212,-0.0084 -1.6705212,-0.123475 0,-0.458082 0.4301038,-1.331477 0.6556875,-1.331477 0.046725,0 0.141375,-0.06235 0.2103537,-0.138563 0.070375,-0.07777 0.2133963,-0.138584 0.3259588,-0.138584 0.4558962,0 0.8884587,-0.403062 0.8836662,-0.823415 l -0.00287,-0.250479 -0.1530412,0.307603 c -0.2266463,0.455563 -0.4460213,0.586459 -0.9976675,0.595313 -0.4273125,0.0069 -0.4733538,0.023 -0.642145,0.225166 L 1.1954374,15.750728 0.92958242,15.590269 0.66374998,15.429831 0.82318748,15.318144 c 0.14304124,-0.100188 0.14706244,-0.116463 0.0389125,-0.157938 -0.0662875,-0.02546 -0.15587499,-0.011 -0.19904124,0.03221 -0.1460425,0.146041 -0.18933375,0.07965 -0.18933375,-0.290334 v -0.368831 l 0.47674993,-0.32575 C 1.2126836,14.028335 1.5027037,13.811813 1.5949536,13.726314 c 0.092225,-0.08548 0.3272713,-0.257813 0.5222712,-0.382958 0.1950213,-0.125125 0.4045838,-0.303833 0.4656875,-0.397084 0.06715,-0.102475 0.115,-0.156062 0.1567713,-0.157833 z"
     style="fill:#000000;stroke-width:0.00561778"
     id="rect910" />
  <path
     d="M 0,0 V 4.9999998 H 5 V 0 Z m 1.7980417,0.40093749 c 0.228479,0 0.4377082,0.47287498 0.2593126,0.58614577 -0.062646,0.0397497 0.3889165,1.07231244 0.4689582,1.07231244 0.080021,0 0.5315833,-1.0325625 0.4689583,-1.07231244 -0.189875,-0.12056254 0.034687,-0.58614577 0.2826875,-0.58614577 0.2549791,0 0.424125,0.45108323 0.2308959,0.61581241 -0.079771,0.068021 -0.074875,0.1686854 0.033022,0.6758125 0.069707,0.3277479 0.1415,0.6110416 0.1594999,0.6295416 0.018125,0.018542 0.138875,-0.040815 0.2686042,-0.1318145 0.1619995,-0.1136462 0.2244995,-0.2025 0.1995829,-0.2837688 -0.060207,-0.1964167 0.090646,-0.3999604 0.2964376,-0.3999604 0.402104,0 0.483479,0.4059187 0.1249163,0.62325 C 4.179938,2.3788935 3.8330839,3.264102 3.891542,3.9146848 3.910917,4.1294973 3.948063,4.3751848 3.97425,4.4607061 L 4.021896,4.6161849 H 2.5263125 1.030729 L 1.078359,4.4607061 C 1.176549,4.1402686 1.1942965,3.5194973 1.112759,3.2587269 0.92798794,2.6679145 0.70513398,2.277352 0.47221699,2.1361852 0.103822,1.9128935 0.177655,1.5065603 0.58663448,1.5065603 c 0.205792,0 0.35664602,0.2035417 0.29643704,0.3999604 -0.02492,0.081271 0.0375802,0.170125 0.19958398,0.2837688 0.129708,0.091 0.2505833,0.1503145 0.2685832,0.1318145 C 1.3691562,2.3035615 1.4410312,2.0203103 1.5107594,1.6925624 1.6186345,1.1854353 1.6235508,1.0847707 1.5437807,1.0167499 1.3403641,0.84333322 1.5229482,0.40093749 1.7980516,0.40093749 Z"
     style="fill:#000000;stroke-width:0.00601828"
     id="rect3289" />
  <path
     id="rect52"
     style="fill:#000000;stroke-width:0.0206291"
     d="m 0,19 v 4.999987 H 4.9999999 V 19 Z m 2.5048737,0.36697 c 0.057,-2.08e-4 0.11775,0.01238 0.1784751,0.04004 0.1778376,0.08102 0.2265876,0.375994 0.0855,0.517106 -0.04225,0.04225 -0.064125,0.08572 -0.048625,0.0966 0.4763003,0.334954 0.8144005,0.643691 0.940463,0.858809 0.2265001,0.386479 0.2073501,0.661425 -0.0745,1.071217 -0.2273751,0.330559 -0.2464002,0.441611 -0.1250627,0.730239 0.040375,0.09602 0.01125,0.113625 -0.1864126,0.113625 -0.1288,0 -0.2341751,0.02994 -0.2341751,0.06652 0,0.114625 0.3157502,0.193137 0.7760629,0.193137 0.4957503,0 0.6814003,0.09988 0.7538004,0.405738 l 0.04225,0.178549 H 3.8882744 c -0.3839627,0 -0.6291128,-0.0145 -0.8074004,-0.06425 A 0.37291626,0.28333691 8.1825022 0 1 2.9688739,23.5348 c -0.125275,-0.05538 -0.2159,-0.13825 -0.3121877,-0.260663 L 2.5211237,23.101779 2.3855611,23.274142 C 2.1463361,23.57828 1.9423484,23.638655 1.1540418,23.638655 H 0.42964522 l 0.042275,-0.17855 c 0.0724,-0.305813 0.25806264,-0.405738 0.75381278,-0.405738 0.2699777,0 0.4900778,-0.02712 0.6260778,-0.07249 a 0.2322984,0.73210885 60.357517 0 1 0.1138751,-0.05713 c 0.0235,-0.01962 0.036125,-0.04088 0.036125,-0.06349 0,-0.03663 -0.1053751,-0.06652 -0.2341627,-0.06652 -0.1979125,0 -0.2267751,-0.0176 -0.1864125,-0.113625 0.12125,-0.288629 0.10225,-0.399682 -0.1250876,-0.73024 -0.2947277,-0.428486 -0.3065615,-0.703194 -0.047875,-1.111164 0.102,-0.160894 0.3430377,-0.405818 0.5355627,-0.544272 0.1925376,-0.138453 0.3627253,-0.261309 0.3782128,-0.273041 0.015375,-0.01175 -0.00625,-0.0559 -0.04875,-0.09815 -0.04225,-0.04225 -0.076875,-0.159242 -0.076875,-0.259982 0,-0.17904 0.1373501,-0.296342 0.3084127,-0.297156 z m -0.14635,3.543078 -0.005,0.0037 a 0.25051227,0.28447698 35.216816 0 1 0.005,0.005 c 0,-0.0025 0,-0.0062 0,-0.0087 z m 0.5430752,0.05937 -0.056875,0.0012 h 0.0585 c 0,-6.24e-4 -0.0025,-0.0012 -0.0025,-0.0012 z m 0.2616251,0.290265 v 0.0037 l 0.0025,1.37e-4 v -0.0037 z m 0.3631252,0.04425 a 0.37291626,0.28333691 8.1825022 0 1 8.75e-5,6.25e-4 l 0.077875,0.0087 -0.078,-0.01 z m -2.1708273,0.05525 -0.1039126,0.0011 h 0.1031251 a 0.2322984,0.73210885 60.357517 0 1 0,-0.0011 z" />
  <path
     id="rect2688"
     style="fill:#000000;stroke-width:0.0055794"
     d="M 0,6.3159868 V 11.313651 H 5 V 6.3159868 Z m 2.9436627,0.4259536 c 0.074375,4.176e-4 0.110125,0.0015 0.1405875,0.016088 0.06075,0.029325 0.038875,0.1154125 0.050375,0.2104475 0.019,0.1577021 -0.017125,0.2266733 0.12835,0.2266733 0.1550625,0 0.1852375,-0.035662 0.1852375,-0.2190334 0,-0.2168212 0.00375,-0.2190337 0.4185999,-0.2190337 h 0.4186247 v 0.4563171 c 0,0.4234837 -0.016625,0.4699212 -0.2389623,0.64529 l -0.2396375,0.1889575 0.0735,0.9305711 C 3.9207125,9.490027 3.9874625,9.93067 4.02845,9.957428 c 0.3443875,0.224612 0.387875,0.289329 0.4373875,0.651004 l 0.0525,0.38331 H 2.6057504 0.69318756 l 0.054875,-0.382958 c 0.051875,-0.361677 0.0935,-0.422745 0.44401244,-0.651356 0.041,-0.02676 0.1077501,-0.467401 0.1481126,-0.9792102 L 1.4136876,8.0476463 1.17405,7.8586888 C 0.95162498,7.68332 0.93443748,7.6368825 0.93508748,7.2133988 V 6.7570817 H 1.3537125 c 0.414375,0 0.4186,0.00225 0.4186,0.2190337 0,0.1849622 0.029625,0.2190334 0.1903,0.2190334 0.1613749,0 0.1902625,-0.033837 0.1902625,-0.2226834 V 6.7497943 l 0.5186129,-0.004 c 0.10375,-8.326e-4 0.1964375,-0.00425 0.270825,-0.00387 z"
     sodipodi:nodetypes="cccccssssssccccccsccccscccccssssccs" />
  <rect
     y="19"
     x="6.9795332"
     height="5"
     width="17.010624"
     id="rect937-5-0"
     style="fill:#000000;stroke-width:0.645252;stroke-linejoin:round" />
  <rect
     style="fill:#000000;stroke-width:0.645252;stroke-linejoin:round"
     id="rect937-5-0-6"
     width="17.010624"
     height="5"
     x="6.98"
     y="12.63" />
  <rect
     y="6.316"
     x="6.98"
     height="5"
     width="17.010624"
     id="rect937-5-0-6-6"
     style="fill:#000000;stroke-width:0.645252;stroke-linejoin:round" />
  <rect
     style="fill:#000000;stroke-width:0.645252;stroke-linejoin:round"
     id="rect937-5-0-6-6-4"
     width="17.010624"
     height="5"
     x="6.98"
     y="0" />
</svg>
