<?xml version="1.0" encoding="UTF-8" standalone="no"?>
<svg
   xmlns:dc="http://purl.org/dc/elements/1.1/"
   xmlns:cc="http://creativecommons.org/ns#"
   xmlns:rdf="http://www.w3.org/1999/02/22-rdf-syntax-ns#"
   xmlns:svg="http://www.w3.org/2000/svg"
   xmlns="http://www.w3.org/2000/svg"
   xmlns:sodipodi="http://sodipodi.sourceforge.net/DTD/sodipodi-0.dtd"
   xmlns:inkscape="http://www.inkscape.org/namespaces/inkscape"
   sodipodi:docname="new game.svg"
   inkscape:version="1.0 (4035a4fb49, 2020-05-01)"
   id="svg1505"
   version="1.1"
   viewBox="0 0 150 253"
   height="253mm"
   width="150mm">
  <defs
     id="defs1499" />
  <sodipodi:namedview
     inkscape:window-maximized="1"
     inkscape:window-y="-9"
     inkscape:window-x="-9"
     inkscape:window-height="1001"
     inkscape:window-width="1920"
     showgrid="false"
     inkscape:document-rotation="0"
     inkscape:current-layer="layer1"
     inkscape:document-units="mm"
     inkscape:cy="570.62242"
     inkscape:cx="252.10362"
     inkscape:zoom="0.63076957"
     inkscape:pageshadow="2"
     inkscape:pageopacity="0.0"
     borderopacity="1.0"
     bordercolor="#666666"
     pagecolor="#ffffff"
     id="base" />
  <metadata
     id="metadata1502">
    <rdf:RDF>
      <cc:Work
         rdf:about="">
        <dc:format>image/svg+xml</dc:format>
        <dc:type
           rdf:resource="http://purl.org/dc/dcmitype/StillImage" />
        <dc:title></dc:title>
      </cc:Work>
    </rdf:RDF>
  </metadata>
  <g
     id="layer1"
     inkscape:groupmode="layer"
     inkscape:label="Layer 1">
    <g
       transform="translate(-24.877276,-14.810209)"
       id="g184">
      <path
         id="rect2084"
         style="fill:#000000;stroke-width:0.179385"
         d="M 25.05053,14.882014 V 164.88241 h 150 V 14.882014 Z m 76.63693,10.414401 c 8.27253,0 19.51778,9.487635 21.39939,18.054486 0.94474,4.30137 0.15453,9.283199 -2.2224,14.011649 l -3.6885,7.337339 10.28703,9.006213 c 5.65779,4.95356 10.27846,9.71381 10.26839,10.57788 -0.0101,0.86407 -4.91974,1.87704 -10.91039,2.25135 l -10.89213,0.68049 3.4187,12.38404 c 2.74641,9.948568 6.00628,14.929598 16.57607,25.328328 13.164,12.95097 18.74224,22.35791 16.58757,27.97291 -1.68009,4.37824 -99.967757,4.37824 -101.647848,0 -2.154676,-5.615 3.423572,-15.02194 16.587575,-27.97291 10.569789,-10.39873 13.829657,-15.37976 16.576067,-25.328328 l 3.418696,-12.38404 -10.892131,-0.68049 c -5.990644,-0.37431 -10.900307,-1.38728 -10.910383,-2.25135 -0.01007,-0.86407 4.610604,-5.62432 10.268387,-10.57788 L 86.198585,64.699889 82.510078,57.36255 C 80.133152,52.6341 79.342948,47.652271 80.287687,43.350901 82.16928,34.78405 93.414931,25.296415 101.68746,25.296415 Z" />
      <text
         xml:space="preserve"
         style="font-size:42.3333px;line-height:1.25;font-family:Garamond;-inkscape-font-specification:Garamond;stroke-width:0.264583"
         x="101.20277"
         y="213.29358"
         id="text2090"><tspan
           sodipodi:role="line"
           id="tspan2088"
           x="101.20277"
           y="213.29358"
           style="text-align:center;text-anchor:middle;stroke-width:0.264583">New</tspan><tspan
           sodipodi:role="line"
           x="101.20277"
           y="266.21021"
           style="text-align:center;text-anchor:middle;stroke-width:0.264583"
           id="tspan2092">Game</tspan></text>
    </g>
  </g>
</svg>
