<?xml version="1.0" encoding="UTF-8" standalone="no"?>
<svg
   xmlns:dc="http://purl.org/dc/elements/1.1/"
   xmlns:cc="http://creativecommons.org/ns#"
   xmlns:rdf="http://www.w3.org/1999/02/22-rdf-syntax-ns#"
   xmlns:svg="http://www.w3.org/2000/svg"
   xmlns="http://www.w3.org/2000/svg"
   xmlns:sodipodi="http://sodipodi.sourceforge.net/DTD/sodipodi-0.dtd"
   xmlns:inkscape="http://www.inkscape.org/namespaces/inkscape"
   sodipodi:docname="title.svg"
   inkscape:version="1.0 (4035a4fb49, 2020-05-01)"
   id="svg8"
   version="1.1"
   viewBox="0 0 3200 420"
   height="420mm"
   width="3200mm">
  <defs
     id="defs2" />
  <sodipodi:namedview
     inkscape:window-maximized="1"
     inkscape:window-y="-9"
     inkscape:window-x="-9"
     inkscape:window-height="1001"
     inkscape:window-width="1920"
     showgrid="false"
     inkscape:document-rotation="0"
     inkscape:current-layer="layer1"
     inkscape:document-units="mm"
     inkscape:cy="-238.86418"
     inkscape:cx="5951.2252"
     inkscape:zoom="0.084514706"
     inkscape:pageshadow="2"
     inkscape:pageopacity="0.0"
     borderopacity="1.0"
     bordercolor="#666666"
     pagecolor="#ffffff"
     id="base" />
  <metadata
     id="metadata5">
    <rdf:RDF>
      <cc:Work
         rdf:about="">
        <dc:format>image/svg+xml</dc:format>
        <dc:type
           rdf:resource="http://purl.org/dc/dcmitype/StillImage" />
        <dc:title></dc:title>
      </cc:Work>
    </rdf:RDF>
  </metadata>
  <g
     id="layer1"
     inkscape:groupmode="layer"
     inkscape:label="Layer 1">
    <path
       transform="scale(0.26458333)"
       d="M 1405.8789 238.5957 L 1381.4336 244.72461 C 1325.7062 258.6957 1221.1758 299.07371 1221.1758 306.62891 C 1221.1758 311.10402 1237.7967 317.88231 1258.1113 321.69336 C 1278.4258 325.50437 1300.5986 335.31345 1307.3848 343.49023 C 1322.0812 361.198 1325.3485 476.14144 1321.6758 846.18359 L 1318.9609 1119.8574 L 1270.0684 1127.1875 C 1243.1777 1131.22 1221.1758 1138.8551 1221.1758 1144.1523 C 1221.1758 1149.4495 1289.6252 1153.7832 1373.2852 1153.7832 C 1470.5337 1153.7832 1525.3945 1149.7404 1525.3945 1142.5762 C 1525.3945 1130.2543 1519.6791 1127.7519 1452.0547 1110.4414 L 1405.8789 1098.6211 L 1405.8789 938.54102 L 1405.8789 778.46094 L 1438.0977 739.375 C 1515.5938 645.35869 1658.5419 639.75354 1699.332 729.13086 C 1717.4795 768.89497 1723.5927 891.86025 1713.3867 1011.873 L 1704.666 1114.4258 L 1669.8887 1123.4121 C 1592.9153 1143.3006 1623.4472 1153.7832 1758.3477 1153.7832 C 1897.238 1153.7832 1931.7941 1142.9274 1848.625 1125.4219 L 1802.4492 1115.7012 L 1797.0176 908.99023 C 1791.8729 713.22893 1790.2435 700.56829 1766.2676 669.98828 C 1691.0151 574.00756 1564.3289 578.56423 1450.5664 681.3418 L 1405.8789 721.71484 L 1405.8789 480.1543 L 1405.8789 238.5957 z M 11755.17 243.45312 C 11754.18 243.44623 11753.127 243.64187 11752.01 243.95703 C 11655.194 271.26479 11597.201 291.23491 11597.201 297.27539 C 11597.192 301.26502 11615.521 313.48787 11637.93 324.4375 L 11678.672 344.3457 L 11681.529 722.07031 L 11684.387 1099.7949 L 11659.801 1109.7402 C 11646.277 1115.2096 11621.767 1122.5609 11605.334 1126.0762 C 11588.901 1129.5915 11575.455 1137.2631 11575.455 1143.125 C 11575.455 1149.5848 11635.371 1153.7832 11727.564 1153.7832 C 11875.931 1153.7832 11925.468 1141.2885 11838.93 1125.6953 C 11816.52 1121.6576 11792.075 1113.5043 11784.605 1107.5762 C 11774.151 1099.2796 11771.023 997.98482 11771.023 667.69531 C 11771.023 289.44411 11770.026 243.55669 11755.17 243.45312 z M 866.67578 261.23633 C 782.92315 261.6366 695.91669 274.18428 636.5332 300.83398 C 554.41443 337.68672 455.15844 438.2634 413.03516 527.30469 C 343.72046 673.82397 357.43729 864.83135 446.53906 993.84961 C 501.37264 1073.2479 628.48891 1145.3826 748.55078 1165.2324 C 816.6615 1176.4931 981.20711 1168.7652 1052.2754 1150.9668 L 1106.1035 1137.4863 L 1126.9473 1052.8066 C 1138.411 1006.233 1144.0752 964.67308 1139.5352 960.45312 C 1134.9951 956.23333 1129.1995 958.59335 1126.6543 965.69531 C 1124.109 972.79727 1105.295 1000.519 1084.8457 1027.3008 C 1029.1611 1100.2287 947.10495 1136.2281 835.4707 1136.7051 C 627.74312 1137.5934 518.91312 1015.4934 506.79688 767.95508 C 495.74255 542.11258 562.18563 399.53376 715.95703 319.11914 C 759.21474 296.4975 785.83319 290.63963 846.625 290.36523 C 948.45711 289.90572 1016.3447 323.37617 1067.2188 399.125 C 1087.1173 428.75321 1107.8964 454.6253 1113.3945 456.61719 C 1124.4359 460.61744 1126.822 369.11139 1116.6641 331.22461 C 1104.5425 286.01409 989.08347 260.65131 866.67578 261.23633 z M 8205.1367 261.33984 C 8137.1755 261.14306 8068.1155 267.60649 8029.0664 280.46094 C 7792.5413 358.32193 7657.7434 612.64186 7723.0234 857.86523 C 7765.3387 1016.8217 7905.9059 1136.3602 8083.25 1164.2012 C 8159.5039 1176.172 8311.5647 1170.2988 8389.1641 1152.3867 L 8444.498 1139.6152 L 8466.5234 1051.9043 C 8490.0113 958.37599 8487.601 936.03848 8458.748 979.8457 C 8418.9217 1040.313 8367.2235 1087.2402 8316.3008 1109.1465 C 8189.0229 1163.8999 8050.3072 1146.3041 7961.1152 1064.0898 C 7901.5 1009.1383 7873.7165 956.91441 7853.5977 861.99414 C 7793.1948 577.01379 7929.695 314.44368 8151.9316 288.12305 C 8258.8375 275.46163 8389.8215 341.80784 8424.8438 426.35938 C 8446.0374 477.52525 8461.692 459.36027 8458.668 387.11328 C 8455.5389 312.36017 8446.7697 302.51641 8361.0977 277.59961 C 8324.2131 266.87214 8265.1025 261.51348 8205.1367 261.33984 z M 6729.3613 264.28125 C 6710.9459 264.18991 6693.0067 269.11258 6677.7891 279.77148 C 6627.5765 314.94173 6658.7003 377.58332 6729.6953 384.24023 C 6762.1199 387.28049 6768.2333 392.24155 6771.1836 417.91406 C 6775.6963 457.18207 6738.6426 516.31548 6691.1211 545.68555 C 6670.5072 558.42558 6653.6426 575.78357 6653.6426 584.25977 C 6653.6426 609.26266 6681.4127 602.0761 6730.5488 564.35938 C 6833.3463 485.45142 6870.6158 400.95801 6833.9219 330 C 6812.6948 288.95146 6769.8752 264.48219 6729.3613 264.28125 z M 4778.6758 281.07227 C 4774.0583 281.06191 4769.191 281.06324 4764.0605 281.07617 C 4714.808 281.20032 4641.325 282.38684 4532.2637 284.43555 C 4527.7819 284.51975 4524.1152 289.04759 4524.1152 294.49805 C 4524.1152 299.94854 4544.8941 307.83355 4570.291 312.01953 C 4649.8161 325.12712 4653.8418 332.14859 4607.1016 376.23047 C 4541.8114 437.80686 4352.9529 591.00942 4261.666 656.44922 L 4178.4863 716.07617 L 4229.0703 753.88672 C 4306.1787 811.52191 4602.1285 1060.3924 4631.9414 1092.6699 L 4658.2812 1121.1875 L 4619.0684 1121.1875 C 4576.2342 1121.1875 4524.1191 1137.4421 4524.1191 1150.793 L 4524.1191 1150.7969 C 4524.1214 1155.4265 4615.7957 1158.4771 4727.8379 1157.5742 C 4839.8801 1156.6713 4996.3313 1155.4485 5075.5098 1154.8574 C 5213.0577 1153.8309 5258.7098 1142.6169 5185.1953 1127.9141 C 5120.4875 1114.9725 5121.6855 1120.628 5121.6855 828.31445 C 5121.6855 680.64926 5118.515 556.66155 5114.6387 552.78516 C 5110.762 548.90876 5088.2211 563.23673 5064.5469 584.625 C 5040.8727 606.01327 5004.7323 630.52026 4984.2363 639.08398 C 4947.4271 654.46383 4943.5251 675.72656 4977.5117 675.72656 C 4987.1457 675.72656 5003.9703 683.81722 5014.8984 693.70703 C 5032.6845 709.8034 5034.747 731.15731 5034.5996 897.42383 C 5034.5081 999.57864 5030.8415 1088.766 5026.4512 1095.6172 C 5022.0609 1102.4684 4997.2817 1113.7674 4971.3848 1120.7266 C 4890.2447 1142.5308 4820.4499 1115.879 4714.252 1022.5371 C 4678.3975 991.02338 4580.613 908.16942 4496.9531 838.41602 C 4413.2929 768.6626 4335.57 701.12157 4324.2363 688.32617 C 4303.8363 665.29513 4303.9456 664.8158 4334.9922 640.51562 C 4352.2408 627.01497 4415.2955 574.52668 4475.1133 523.875 C 4639.0439 385.06452 4723.5487 330.34583 4797.6191 315.04688 C 4832.4392 307.85485 4860.9277 296.69059 4860.9277 290.23633 C 4860.9277 284.02781 4847.9376 281.22757 4778.6758 281.07227 z M 4100.3828 284.58789 C 3953.1026 284.58789 3926.5449 287.07728 3926.5449 300.88477 C 3926.5449 312.44445 3938.3881 317.23169 3967.2871 317.34961 C 4044.2058 317.66369 4040.2756 297.15734 4043.8574 717.01562 C 4047.465 1139.8309 4051.812 1115.7697 3969.3008 1129.8555 C 3943.7364 1134.2197 3920.9565 1143.379 3918.6797 1150.209 L 3918.6797 1150.2129 C 3915.6799 1159.2126 3964.1399 1162.4397 4094.7188 1161.9355 C 4218.3126 1161.4584 4273.6716 1157.5655 4270.9961 1149.5391 C 4268.8508 1143.1034 4246.4484 1133.7542 4221.2129 1128.7637 C 4186.7164 1121.9417 4172.7721 1112.9606 4165.0195 1092.5703 C 4159.2739 1077.4578 4154.707 907.35272 4154.707 708.38867 C 4154.707 309.44217 4152.077 323.07275 4231.5332 310.36719 C 4323.0764 295.72885 4266.3986 284.58789 4100.3828 284.58789 z M 11439.102 545.34766 C 11436.015 545.34766 11416.78 562.05656 11396.357 582.47852 C 11375.936 602.90044 11341.874 625.88351 11320.666 633.55273 C 11272.384 651.01083 11272.198 660.43164 11319.742 680.29688 C 11343.887 690.38548 11359.824 705.74899 11364.191 723.15039 C 11367.935 738.07034 11369.332 826.80006 11367.295 920.32617 C 11363.143 1110.7933 11362.426 1112.5158 11281.875 1125.3965 C 11258.097 1129.1988 11238.643 1137.0188 11238.643 1142.7734 L 11238.645 1142.7734 C 11238.645 1149.01 11302.85 1153.1795 11397.592 1153.1035 C 11485.012 1153.0306 11553.135 1149.5692 11548.979 1145.4121 C 11544.821 1141.2549 11520.965 1130.3003 11495.965 1121.0684 L 11450.51 1104.2832 L 11447.611 824.81445 C 11446.016 671.10705 11442.187 545.34766 11439.102 545.34766 z M 5431.3359 577.94141 C 5422.3724 577.94141 5415.0391 582.45545 5415.0391 587.97266 C 5415.0391 607.72371 5360.2692 662.59779 5322.8145 680.37109 C 5301.8301 690.3289 5284.6602 702.22979 5284.6602 706.81836 C 5284.6602 711.40682 5301.8937 723.37962 5322.957 733.42383 L 5361.2539 751.68555 L 5358.2676 927.11914 C 5355.0493 1116.2347 5356.1614 1112.8499 5292.8086 1126.1797 C 5276.3752 1129.6374 5262.9297 1137.2631 5262.9297 1143.125 C 5262.9297 1149.5919 5323.5993 1153.7832 5417.2129 1153.7832 C 5577.3734 1153.7832 5596.745 1145.5242 5501.3301 1117.9199 L 5453.0664 1103.957 L 5450.0801 920.87305 C 5446.7121 714.3786 5446.2393 715.82472 5530.0488 676.42969 C 5618.5234 634.84166 5698.983 651.86665 5732.8223 719.33594 C 5748.4892 750.5726 5751.8359 787.09645 5751.8359 927.69336 C 5751.8541 1112.5391 5752.669 1110.0795 5687.9238 1120.6035 C 5667.2967 1123.9563 5648.389 1132.7922 5645.9062 1140.2402 C 5642.4488 1150.6124 5676.1476 1153.7832 5789.8789 1153.7832 C 5898.8737 1153.7832 5937.2346 1150.3847 5934.1074 1141.0039 C 5931.7645 1133.9752 5910.5771 1122.8282 5887.0254 1116.2344 L 5844.2031 1104.2461 L 5838.541 898.13477 C 5835.1527 774.78909 5827.9185 683.297 5820.5254 670.29297 C 5765.8689 574.15483 5645.9537 561.2615 5518.7695 637.84766 C 5484.1729 658.68071 5454.0139 675.72656 5451.75 675.72656 C 5449.4861 675.72656 5447.6348 653.72468 5447.6348 626.83398 C 5447.6348 590.61757 5443.4081 577.94141 5431.3359 577.94141 z M 10135.852 577.94141 C 10126.888 577.94141 10119.555 582.45545 10119.555 587.97266 C 10119.555 607.72371 10064.783 662.59779 10027.328 680.37109 C 10006.344 690.3289 9989.1758 702.22979 9989.1758 706.81836 C 9989.1758 711.40682 10006.41 723.37962 10027.473 733.42383 L 10065.77 751.68555 L 10062.783 927.11914 C 10059.565 1116.2347 10060.677 1112.8499 9997.3242 1126.1797 C 9980.8908 1129.6374 9967.4453 1137.2631 9967.4453 1143.125 C 9967.4453 1149.5919 10028.113 1153.7832 10121.727 1153.7832 C 10281.887 1153.7832 10301.261 1145.5242 10205.846 1117.9199 L 10157.582 1103.957 L 10154.596 920.87305 C 10151.228 714.3786 10150.755 715.82472 10234.564 676.42969 C 10323.039 634.84166 10403.497 651.86665 10437.336 719.33594 C 10453.003 750.5726 10456.35 787.09645 10456.35 927.69336 C 10456.368 1112.5391 10457.185 1110.0795 10392.439 1120.6035 C 10371.812 1123.9563 10352.905 1132.7922 10350.422 1140.2402 C 10346.965 1150.6124 10380.662 1153.7832 10494.395 1153.7832 C 10603.389 1153.7832 10641.75 1150.3847 10638.623 1141.0039 C 10636.279 1133.9752 10615.092 1122.8282 10591.541 1116.2344 L 10548.719 1104.2461 L 10543.059 898.13477 C 10539.67 774.78909 10532.433 683.297 10525.041 670.29297 C 10470.384 574.15483 10350.469 561.2615 10223.285 637.84766 C 10188.688 658.68071 10158.53 675.72656 10156.266 675.72656 C 10154.002 675.72656 10152.15 653.72468 10152.15 626.83398 C 10152.15 590.61757 10147.924 577.94141 10135.852 577.94141 z M 3287.5176 588.38086 C 3179.1328 588.35867 3090.0254 650.70249 3090.0254 740.91602 C 3090.0254 809.68939 3122.9579 845.09874 3239.3652 901.48438 C 3392.1312 975.48128 3431.9677 1044.5591 3360.418 1111.3965 C 3288.4101 1178.6619 3170.6374 1133.206 3125.6562 1020.7871 C 3099.1095 954.44008 3086.1924 970.36408 3094.8906 1058.7148 C 3099.156 1102.0388 3104.5985 1139.4429 3106.9844 1141.8359 C 3109.3701 1144.2291 3134.6241 1152.7457 3163.1055 1160.7617 C 3228.9777 1179.3012 3329.7278 1172.5679 3373.9512 1146.6699 C 3430.3961 1113.6148 3453.9199 1072.8773 3453.9199 1008.1797 C 3453.9199 923.56584 3419.6407 884.59313 3291.4629 823.47852 C 3235.175 796.64073 3183.9172 764.9611 3177.5586 753.08008 C 3145.4354 693.05729 3188.2579 621.40039 3256.25 621.40039 C 3302.6223 621.40039 3359.9526 659.55382 3382.4062 705.35742 C 3405.9758 753.43717 3426.7942 750.99498 3426.6094 700.17188 C 3426.3578 631.09012 3417.3257 614.40531 3373 601.125 C 3344.024 592.44356 3315.1451 588.38652 3287.5176 588.38086 z M 7057.6484 588.38086 C 6949.2636 588.35867 6860.1562 650.70249 6860.1562 740.91602 C 6860.1563 809.69256 6893.7394 846.2509 7004.3477 897.88477 C 7117.351 950.6366 7151.4625 981.13988 7160.6309 1037.6387 C 7166.1029 1071.3577 7162.248 1081.4455 7132.5391 1111.1543 C 7100.9611 1142.7325 7093.5924 1145.1528 7043.666 1140.3555 C 6980.495 1134.2856 6929.5512 1093.1458 6897.6758 1022.459 C 6867.94 956.51623 6856.2409 969.50715 6865.0234 1058.7148 C 6869.2886 1102.0388 6874.7292 1139.4429 6877.1152 1141.8359 C 6879.5009 1144.2291 6904.7573 1152.7457 6933.2383 1160.7617 C 6999.6627 1179.4565 7099.9271 1172.5121 7145.1816 1146.082 C 7202.9952 1112.3171 7232.264 1059.6316 7226.6582 999.41602 C 7219.4363 921.84182 7181.4734 880.42387 7068.9766 827.38867 C 7016.8263 802.80303 6965.7093 772.06744 6955.3848 759.08594 C 6928.3702 725.11955 6931.4208 679.44825 6962.7988 648.07031 C 7013.4298 597.43931 7108.7218 624.67648 7154.9258 702.98633 C 7183.7976 751.92059 7196.9254 751.03712 7196.7402 700.17188 C 7196.4889 631.09012 7187.4584 614.40531 7143.1328 601.125 C 7114.1567 592.44356 7085.2759 588.38652 7057.6484 588.38086 z M 2778.2812 589.19922 C 2706.5178 589.46028 2637.7268 615.23491 2602.8848 659.5293 C 2569.3412 702.17306 2570.2273 783.48907 2604.6719 823.5332 C 2618.6304 839.76094 2675.7206 875.48065 2731.541 902.91016 C 2844.0909 958.21579 2876.9922 991.94815 2876.9922 1052.043 C 2876.9922 1129.1515 2789.6471 1166.4207 2704.0879 1125.8203 C 2667.6295 1108.5196 2620.097 1049.1876 2606.8086 1004.3906 C 2602.8203 990.94529 2594.9988 979.94336 2589.4258 979.94336 C 2577.879 979.94336 2576.2888 1041.8062 2586.2812 1102.2637 C 2592.4339 1139.4886 2597.4628 1144.4637 2643.2012 1158.5488 C 2832.2771 1216.7752 2990.6727 1103.8467 2932.7305 952.12695 C 2910.9536 895.10507 2875.3992 866.19964 2765.959 816.54492 C 2722.2204 796.70013 2679.4396 770.47683 2670.8906 758.27148 C 2631.8325 702.50834 2674.6844 621.40039 2743.2051 621.40039 C 2789.6528 621.40039 2842.7128 655.98378 2867.834 702.63086 C 2904.9573 771.56472 2925.0247 747.40294 2909.3516 652.64062 C 2903.7224 618.60591 2897.2967 611.5959 2862.0352 601.03125 C 2834.9 592.90134 2806.3627 589.09706 2778.2812 589.19922 z M 2235.4355 594.13867 C 2218.304 594.17455 2201.3317 595.82941 2185.3457 599.25781 C 2058.6235 626.43481 1982.916 725.77784 1973.168 877.67188 C 1963.29 1031.5928 2029.4415 1131.2062 2163.3555 1164.0586 C 2219.3717 1177.8008 2291.6999 1167.5996 2350.875 1137.6133 C 2406.1585 1109.599 2459.7773 1060.6609 2459.7773 1038.2188 C 2459.7773 1017.2308 2444.627 1019.8542 2422.1035 1044.7422 C 2390.7701 1079.3654 2314.9682 1102.9237 2253.8066 1097.0469 C 2140.9584 1086.2036 2068.3207 998.71693 2059.6074 863.14648 L 2055.2441 795.24023 L 2252.0781 795.24023 L 2448.9121 795.24023 L 2448.8574 765.36133 C 2448.7901 729.23097 2410.4864 663.81907 2371.625 633.46875 C 2339.6616 608.50578 2286.8302 594.03104 2235.4355 594.13867 z M 6243.6328 595.05664 C 6140.3743 594.77413 6048.1549 657.95657 6024.625 762.95117 C 6006.0789 845.7085 6033.6164 922.06332 6099.6035 970.84961 C 6117.4909 984.07429 6132.125 998.37322 6132.125 1002.625 C 6132.125 1006.8768 6107.3903 1019.2517 6077.1582 1030.123 C 6011.8366 1053.6123 5997.1189 1068.6755 6005.7793 1103.1816 C 6011.8519 1127.3755 6085.8786 1186.377 6110.1621 1186.377 C 6136.2601 1186.377 6117.0396 1207.6241 6057.9414 1244.1016 C 5946.352 1312.9784 5930.6531 1403.9919 6020.7578 1459.6797 C 6041.7603 1472.6599 6076.6334 1489.8632 6098.252 1497.9102 C 6162.5054 1521.827 6352.1111 1511.6726 6422.6719 1480.5352 C 6487.978 1451.7163 6550.2797 1388.617 6560.8223 1340.6172 C 6572.2111 1288.7637 6549.2351 1223.1984 6509.3418 1193.7109 C 6460.2038 1157.3901 6449.0271 1154.6073 6305.0938 1142.8477 C 6162.3138 1131.1822 6088.666 1108.7164 6088.666 1076.8281 C 6088.666 1046.6229 6145.1322 1022.8095 6239.2617 1013.3203 C 6335.2338 1003.6453 6376.2081 985.50879 6423.3301 931.83984 C 6469.4974 879.25804 6482.1289 789.51996 6453.3516 718.5625 C 6447.3123 703.67101 6454.3607 702.94254 6512.127 712.49609 C 6586.0303 724.71837 6606.4824 715.41804 6593.7715 675.36914 C 6586.4785 652.39135 6582.0723 651.46794 6511.1797 658.05664 C 6440.981 664.58094 6432.5142 662.88641 6375.9902 630.98633 C 6332.7964 606.60918 6287.2308 595.17592 6243.6328 595.05664 z M 8888.4551 597.47656 C 8885.4349 597.48131 8882.3706 597.50315 8879.2617 597.54492 C 8755.5147 599.2078 8673.1828 649.16759 8620.5234 754.54883 C 8578.5057 838.63375 8576.1422 916.85175 8613.2148 996.46289 C 8656.1011 1088.5589 8726.4539 1145.8033 8819.3086 1164.1562 C 8930.0586 1186.0462 9051.1132 1147.2018 9123.6816 1066.4883 C 9231.4639 946.60819 9218.4299 777.69258 9092.8672 667.16797 C 9033.8594 615.22721 8982.0808 597.32925 8888.4551 597.47656 z M 11013.16 600.51953 C 10875.079 599.9313 10793.474 644.98383 10742.758 748.26758 C 10668.046 900.42021 10739.205 1104.517 10885.652 1158.1152 C 10972.349 1189.8455 11073.235 1173.3649 11153.646 1114.3379 C 11184.634 1091.5904 11206.049 1067.3716 11206.049 1055.0684 C 11206.049 1027.8299 11204.377 1028.2303 11145.783 1069.5312 C 11101.46 1100.7735 11087.471 1104.7983 11023.234 1104.8418 C 10936.053 1104.8935 10895.948 1081.4715 10850.537 1003.9844 C 10790.049 900.76912 10820.161 716.19537 10906.029 663.83398 C 10959.319 631.33961 11010.034 636.79416 11061.105 680.50977 C 11118.164 729.34924 11152.137 737.8739 11177.598 709.74023 C 11202.885 681.79845 11197.141 656.37395 11159.139 628.02734 C 11135.484 610.38379 11108.753 604.29469 11041.537 601.24219 C 11031.822 600.80101 11022.366 600.55875 11013.16 600.51953 z M 8893.3496 620.31836 C 8957.8226 620.67597 9021.3868 653.69943 9053.8965 717.42383 C 9127.1842 861.07932 9089.2437 1064.8065 8978.7012 1121.2012 C 8904.0423 1159.2891 8806.6963 1144.5325 8753.8086 1087.1094 C 8676.5244 1003.1969 8669.85 795.61065 8741.2676 697.02148 C 8778.8649 645.11993 8836.4617 620.00282 8893.3496 620.31836 z M 6238.0859 621.40039 C 6279.9571 621.40039 6292.5587 627.16799 6327.8965 662.50586 C 6362.2335 696.84287 6370.2564 713.65406 6376.6211 764.5957 C 6389.1997 865.27257 6362.3594 945.34929 6306.3203 974.32812 C 6245.3187 1005.8734 6181.0184 990.09449 6138.7871 933.2168 C 6121.9754 910.57459 6115.1593 882.30578 6112.1523 822.75781 C 6105.1307 683.71364 6144.1034 621.40039 6238.0859 621.40039 z M 9362.3809 621.40039 C 9309.4304 621.40039 9272.0898 625.89399 9272.0898 632.26562 C 9272.0898 638.24132 9283.2247 643.13086 9296.834 643.13086 C 9310.4441 643.13086 9331.8888 650.35159 9344.4883 659.17188 C 9366.2168 674.39104 9367.3858 684.41589 9367.2988 853.81836 C 9367.1896 1056.1063 9377.8448 1095.4429 9444.8203 1140.0527 L 9444.8203 1140.0586 C 9507.2173 1181.6187 9599.2459 1164.2805 9692.0723 1093.4785 C 9711.2643 1078.8398 9729.7382 1066.8633 9733.125 1066.8633 C 9736.5115 1066.8633 9739.2812 1089.3879 9739.2812 1116.918 C 9739.2812 1160.2556 9741.8328 1165.9474 9758.2949 1159.334 C 9768.7525 1155.133 9810.2764 1143.6102 9850.5703 1133.7266 C 9934.0964 1113.2387 9946.6463 1091.4823 9877.8105 1086.502 L 9831.6348 1083.1602 L 9828.7012 852.28125 L 9825.7695 621.40039 L 9717.3359 621.40039 C 9602.5475 621.40039 9571.9057 635.72191 9663.4863 646.56836 C 9693.5075 650.1238 9722.8425 655.98271 9728.6758 659.58789 C 9734.875 663.41931 9739.2812 740.03663 9739.2812 843.98438 L 9739.2812 1021.8262 L 9710.627 1044.3672 C 9671.3887 1075.2321 9579.4123 1101.0255 9536.9766 1093.0645 C 9517.7909 1089.4652 9490.6799 1074.3379 9476.7285 1059.4473 C 9451.9412 1032.9952 9451.3758 1027.6531 9452.0156 826.88672 L 9452.6699 621.40039 L 9362.3809 621.40039 z M 2235.8652 622.71094 C 2291.7481 621.92839 2341.7258 653.46897 2355.3848 711.21094 C 2361.238 735.95471 2358.1331 742.89456 2337.7988 750.50195 C 2311.265 760.42869 2104.2122 772.72944 2083.0098 765.63867 C 2061.814 758.55005 2088.005 701.78279 2129.1309 665.67383 C 2161.7934 636.99572 2200.0429 623.21257 2235.8652 622.71094 z M 6233.7422 1212.6895 C 6273.1273 1212.7553 6323.1271 1217.3173 6390.1152 1225.5117 C 6454.6167 1233.402 6501.5332 1274.7453 6501.5332 1323.6953 C 6501.5332 1384.35 6475.5503 1420.5729 6408.5215 1453.3672 C 6334.0383 1489.8084 6215.5254 1499.752 6149.2695 1475.1191 C 6081.8828 1450.0658 6040.2676 1401.6589 6040.2676 1348.3281 C 6040.2676 1310.9431 6046.6463 1297.9232 6079.8906 1267.457 C 6122.05 1228.8209 6158.5524 1212.5637 6233.7422 1212.6895 z "
       style="fill:#000000;stroke-width:10.8649"
       id="path847" />
    <path
       id="path863"
       d="m 1324.1048,117.72057 c 0,-0.82953 0.3453,-3.32887 0.7673,-5.55409 l 0.7673,-4.04585 -3.5207,-3.78064 c -8.6569,-9.295983 -8.8229,-18.059203 -0.4502,-23.757633 3.4957,-2.37913 8.7116,-2.44288 11.6364,-0.14222 l 2.1343,1.67881 2.3815,-1.88115 c 2.9712,-2.34697 3.5435,-7.14192 0.8524,-7.14192 -0.8993,0 -1.6187,-0.53957 -1.6187,-1.21403 0,-0.67445 0.7194,-1.21402 1.6187,-1.21402 1.0791,0 1.6187,-0.53957 1.6187,-1.6187 0,-1.07913 0.5396,-1.6187 1.6187,-1.6187 1.0791,0 1.6187,0.53957 1.6187,1.6187 0,1.07913 0.5396,1.6187 1.6187,1.6187 0.8993,0 1.6187,0.53957 1.6187,1.21402 0,0.67446 -0.7194,1.21403 -1.6187,1.21403 -2.4542,0 -2.1655,4.23575 0.4682,6.86943 l 2.0869,2.0869 2.6624,-1.64544 c 6.8823,-4.2535 16.6016,0.62802 17.9638,9.02232 0.6321,3.89502 -2.3595,10.41197 -6.9254,15.086443 l -3.4159,3.49709 0.8642,4.02922 c 1.6849,7.85663 3.2635,7.18696 -16.9416,7.18696 -16.8314,0 -17.8057,-0.0825 -17.8057,-1.50823 z m 33.1833,-2.13385 c 0,-1.03653 -2.2482,-1.21402 -15.3776,-1.21402 -13.1295,0 -15.3777,0.17749 -15.3777,1.21402 0,1.03654 2.2482,1.21403 15.3777,1.21403 13.1294,0 15.3776,-0.17749 15.3776,-1.21403 z m -26.8139,-4.98312 c -1.4638,-1.76369 -3.132,-1.27417 -3.132,0.91903 0,1.84435 0.1625,1.93195 2.017,1.08699 1.5653,-0.71319 1.815,-1.16249 1.115,-2.00602 z m 26.0046,0.93638 c 0,-2.15958 -1.4702,-2.65753 -3.0834,-1.04435 -0.7658,0.76581 -0.5807,1.20023 0.8499,1.9947 1.0058,0.55861 1.9199,1.02857 2.0311,1.04434 0.1113,0.0158 0.2024,-0.88184 0.2024,-1.99469 z m -10.5216,-1.5464 c 0,-0.15995 -0.9105,-0.8874 -2.0233,-1.61658 -1.8795,-1.23144 -2.1727,-1.22795 -4.1218,0.0492 l -2.0984,1.37494 1.8664,1.4079 c 1.6676,1.25786 2.1069,1.28361 4.1218,0.24163 1.2404,-0.64144 2.2553,-1.29712 2.2553,-1.45706 z m -9.3147,-4.6012 c 4.9694,-0.85071 10.8607,-0.46216 15.6721,1.03363 2.6165,0.8134 2.8744,0.68709 7.0815,-3.46774 7.2016,-7.112113 8.6023,-14.113693 3.7497,-18.742923 -3.6877,-3.518 -6.2559,-4.09292 -10.2974,-2.30517 -3.8594,1.7072 -6.7811,5.83997 -8.9942,12.72256 -0.6999,2.17671 -1.4606,4.50396 -1.6903,5.17168 -0.2298,0.667713 -0.9426,-0.78766 -1.584,-3.23417 -1.8828,-7.18133 -5.1894,-12.26412 -9.3837,-14.42417 -3.3695,-1.73526 -3.8509,-1.78906 -6.4166,-0.71707 -1.5256,0.63743 -3.7583,2.32905 -4.9617,3.75916 -4.003,4.75728 -2.4657,10.71563 4.6788,18.134303 2.9722,3.08633 4.1529,3.81371 5.5373,3.41137 0.9678,-0.28125 3.9416,-0.88491 6.6085,-1.34146 z m -10.6403,-4.96502 c -4.1223,-4.281643 -5.1348,-6.215153 -5.1348,-9.805313 0,-2.14866 0.5888,-3.30939 2.4901,-4.90931 1.3696,-1.15242 3.2335,-2.09532 4.142,-2.09532 2.6124,0 7.5054,5.57975 9.4307,10.75425 2.5771,6.926173 2.4192,7.575573 -2.0027,8.238673 -2.06,0.30893 -4.1624,0.72165 -4.6719,0.91718 -0.5095,0.19552 -2.4236,-1.19956 -4.2534,-3.10016 z m 23.3096,2.38011 -4.3342,-0.83102 0.4686,-2.887193 c 0.7848,-4.83627 5.211,-12.92146 7.8093,-14.26511 3.2212,-1.66575 4.3355,-1.52838 7.2079,0.88859 2.7037,2.275 3.3374,6.06635 1.5863,9.49112 -1.0127,1.98077 -7.2846,8.705993 -7.9651,8.540973 -0.2412,-0.0585 -2.3889,-0.48029 -4.7728,-0.93736 z m -6.592,-11.330093 c 0,-0.5736 0.7247,-2.46428 1.6104,-4.20154 1.4631,-2.86985 1.4984,-3.32947 0.386,-5.02722 -1.5085,-2.30226 -3.6979,-2.39412 -5.6501,-0.23706 -1.432,1.58236 -1.4236,1.73747 0.2793,5.14708 0.9656,1.93356 1.7557,3.93092 1.7557,4.43859 0,0.50767 0.3642,0.92304 0.8094,0.92304 0.4451,0 0.8093,-0.4693 0.8093,-1.04289 z m -1.9633,-5.97192 c -0.6638,-1.72993 0.8179,-3.35718 1.9899,-2.18524 0.88,0.88 0.2522,3.5346 -0.8359,3.5346 -0.3499,0 -0.8692,-0.60721 -1.154,-1.34936 z"
       style="fill:#000000;stroke-width:0.80935" />
    <path
       style="fill:#000000;stroke-width:0.80935"
       d="m 2992.2355,119.42736 c 0,-0.82953 0.3453,-3.32887 0.7673,-5.55409 l 0.7673,-4.04585 -3.5207,-3.78064 c -8.6569,-9.296009 -8.8229,-18.059239 -0.4502,-23.757669 3.4957,-2.37913 8.7116,-2.44288 11.6364,-0.14222 l 2.1343,1.67881 2.3815,-1.88115 c 2.9712,-2.34697 3.5435,-7.14192 0.8524,-7.14192 -0.8993,0 -1.6187,-0.53957 -1.6187,-1.21403 0,-0.67445 0.7194,-1.21402 1.6187,-1.21402 1.0791,0 1.6187,-0.53957 1.6187,-1.6187 0,-1.07913 0.5396,-1.6187 1.6187,-1.6187 1.0791,0 1.6187,0.53957 1.6187,1.6187 0,1.07913 0.5396,1.6187 1.6187,1.6187 0.8993,0 1.6187,0.53957 1.6187,1.21402 0,0.67446 -0.7194,1.21403 -1.6187,1.21403 -2.4542,0 -2.1655,4.23575 0.4681,6.86943 l 2.087,2.0869 2.6624,-1.64544 c 6.8823,-4.2535 16.6016,0.62802 17.9638,9.02232 0.6321,3.89502 -2.3595,10.411979 -6.9254,15.086479 l -3.4159,3.49709 0.8642,4.02922 c 1.6849,7.85663 3.2635,7.18696 -16.9416,7.18696 -16.8314,0 -17.8057,-0.0825 -17.8057,-1.50823 z m 33.1833,-2.13385 c 0,-1.03653 -2.2482,-1.21402 -15.3776,-1.21402 -13.1295,0 -15.3777,0.17749 -15.3777,1.21402 0,1.03654 2.2482,1.21403 15.3777,1.21403 13.1294,0 15.3776,-0.17749 15.3776,-1.21403 z m -26.8139,-4.98312 c -1.4638,-1.76369 -3.132,-1.27417 -3.132,0.91903 0,1.84435 0.1625,1.93195 2.017,1.08699 1.5653,-0.71319 1.815,-1.16249 1.115,-2.00602 z m 26.0046,0.93638 c 0,-2.15958 -1.4702,-2.65753 -3.0834,-1.04435 -0.7658,0.76581 -0.5807,1.20023 0.8498,1.9947 1.0059,0.55861 1.92,1.02857 2.0312,1.04434 0.1113,0.0158 0.2024,-0.88184 0.2024,-1.99469 z m -10.5216,-1.5464 c 0,-0.15995 -0.9105,-0.8874 -2.0233,-1.61658 -1.8795,-1.23144 -2.1727,-1.22795 -4.1218,0.0492 l -2.0984,1.37494 1.8664,1.4079 c 1.6676,1.25786 2.1069,1.28361 4.1218,0.24163 1.2404,-0.64144 2.2553,-1.29712 2.2553,-1.45707 z m -9.3147,-4.6012 c 4.9694,-0.85071 10.8607,-0.46216 15.6721,1.03363 2.6164,0.8134 2.8743,0.68709 7.0815,-3.46775 7.2016,-7.112129 8.6023,-14.113719 3.7497,-18.742949 -3.6877,-3.518 -6.2559,-4.09292 -10.2974,-2.30517 -3.8594,1.7072 -6.7811,5.83997 -8.9942,12.72256 -0.6999,2.17672 -1.4606,4.503959 -1.6903,5.171699 -0.2298,0.66771 -0.9426,-0.78767 -1.584,-3.234189 -1.8828,-7.18133 -5.1894,-12.26412 -9.3837,-14.42417 -3.3695,-1.73526 -3.8509,-1.78906 -6.4166,-0.71707 -1.5256,0.63743 -3.7583,2.32905 -4.9617,3.75916 -4.003,4.75728 -2.4657,10.71564 4.6788,18.134339 2.9722,3.08633 4.1529,3.81371 5.5373,3.41137 0.9678,-0.28125 3.9416,-0.88491 6.6085,-1.34146 z m -10.6403,-4.96504 c -4.1223,-4.281659 -5.1348,-6.215159 -5.1348,-9.805329 0,-2.14866 0.5888,-3.30939 2.4901,-4.90931 1.3696,-1.15242 3.2335,-2.09532 4.142,-2.09532 2.6124,0 7.5054,5.57975 9.4307,10.75425 2.5771,6.926199 2.4192,7.575599 -2.0027,8.238699 -2.06,0.30893 -4.1624,0.72166 -4.6719,0.91719 -0.5095,0.19552 -2.4236,-1.19957 -4.2534,-3.10018 z m 23.3096,2.38012 -4.3342,-0.83102 0.4686,-2.88722 c 0.7848,-4.836259 5.211,-12.921459 7.8093,-14.265109 3.2212,-1.66575 4.3355,-1.52838 7.2079,0.88859 2.7037,2.275 3.3374,6.06635 1.5863,9.49113 -1.0127,1.98076 -7.2846,8.706019 -7.9651,8.540999 -0.2412,-0.0585 -2.3889,-0.48029 -4.7728,-0.93737 z m -6.592,-11.330119 c 0,-0.5736 0.7247,-2.46428 1.6104,-4.20154 1.4631,-2.86985 1.4983,-3.32947 0.386,-5.02722 -1.5085,-2.30226 -3.6979,-2.39412 -5.6501,-0.23706 -1.432,1.58236 -1.4236,1.73747 0.2793,5.14708 0.9656,1.93356 1.7557,3.93092 1.7557,4.43859 0,0.50767 0.3642,0.92304 0.8094,0.92304 0.4451,0 0.8093,-0.4693 0.8093,-1.04289 z m -1.9633,-5.97192 c -0.6638,-1.72993 0.8179,-3.35718 1.9898,-2.18524 0.8801,0.88 0.2523,3.5346 -0.8358,3.5346 -0.3499,0 -0.8692,-0.60721 -1.154,-1.34936 z"
       id="path863-2" />
  </g>
</svg>
