<?xml version="1.0" encoding="UTF-8" standalone="no"?>
<!-- Created with Inkscape (http://www.inkscape.org/) -->

<svg
   xmlns:dc="http://purl.org/dc/elements/1.1/"
   xmlns:cc="http://creativecommons.org/ns#"
   xmlns:rdf="http://www.w3.org/1999/02/22-rdf-syntax-ns#"
   xmlns:svg="http://www.w3.org/2000/svg"
   xmlns="http://www.w3.org/2000/svg"
   xmlns:sodipodi="http://sodipodi.sourceforge.net/DTD/sodipodi-0.dtd"
   xmlns:inkscape="http://www.inkscape.org/namespaces/inkscape"
   version="1.1"
   id="svg846"
   width="1920"
   height="1920"
   viewBox="0 0 1920 1920"
   sodipodi:docname="d5.svg"
   inkscape:version="0.92.4 (5da689c313, 2019-01-14)">
  <metadata
     id="metadata852">
    <rdf:RDF>
      <cc:Work
         rdf:about="">
        <dc:format>image/svg+xml</dc:format>
        <dc:type
           rdf:resource="http://purl.org/dc/dcmitype/StillImage" />
        <dc:title></dc:title>
      </cc:Work>
    </rdf:RDF>
  </metadata>
  <defs
     id="defs850" />
  <sodipodi:namedview
     pagecolor="#ffffff"
     bordercolor="#666666"
     borderopacity="1"
     objecttolerance="10"
     gridtolerance="10"
     guidetolerance="10"
     inkscape:pageopacity="0"
     inkscape:pageshadow="2"
     inkscape:window-width="1920"
     inkscape:window-height="1017"
     id="namedview848"
     showgrid="false"
     inkscape:zoom="0.20918576"
     inkscape:cx="678.76532"
     inkscape:cy="747.39103"
     inkscape:window-x="-8"
     inkscape:window-y="-8"
     inkscape:window-maximized="1"
     inkscape:current-layer="svg846" />
  <path
     style="fill:#a9a9a9;fill-opacity:1;stroke-width:1.06666672"
     d="m 3795.5404,4190.6397 c -24.1045,-1.2713 -59.4636,-5.9539 -84.9811,-11.254 -95.6481,-19.8666 -172.673,-63.0143 -230.3676,-129.0469 -26.5277,-30.3615 -51.591,-70.5422 -66.1696,-106.081 -13.5319,-32.9875 -24.4791,-80.4145 -30.419,-131.7857 -3.2733,-28.3091 -3.3312,-29.6818 -3.3972,-80.5333 -0.064,-49.6469 0.053,-52.8303 2.9083,-78.9334 13.7317,-125.5319 56.3436,-223.9652 129.2219,-298.502 51.808,-52.9871 113.6384,-88.7464 183.7165,-106.2517 33.9611,-8.4833 42.4602,-9.371 90.9545,-9.4999 37.8125,-0.1005 44.1023,0.1354 61.3333,2.3009 81.8038,10.2804 144.6169,37.6502 192.4972,83.8776 34.9954,33.7873 62.7344,75.8765 81.9474,124.3417 10.5295,26.5606 15.5166,42.9773 21.0236,69.2053 9.3412,44.4893 12.2251,80.3693 12.2487,152.3948 l 0.016,50.4 h -319.7411 -319.741 l 0.3818,4.8 c 0.3707,4.6611 0.2933,4.8 -2.6751,4.8 h -3.0568 l 0.2322,9.8667 c 1.0501,44.6308 3.2526,69.1221 8.7682,97.5032 15.5035,79.7745 49.994,137.6108 108.3947,181.7647 40.3083,30.4752 85.3357,48.1742 141.3037,55.5426 21.2743,2.8009 70.2224,3.9051 90.856,2.0496 16.8117,-1.5118 58.8341,-7.5987 73.944,-10.7107 17.2963,-3.5622 42.4741,-10.3782 59.3525,-16.0675 40.5337,-13.6628 91.0302,-38.4674 129.0312,-63.3816 l 15.3497,-10.0637 0.2745,68.9539 c 0.151,37.9246 -0.089,69.3032 -0.5334,69.7304 -1.0656,1.0246 -43.6631,18.0192 -73.8745,29.4729 -57.728,21.8858 -120.436,37.9026 -170.6666,43.5917 -16.6278,1.8832 -74.2802,2.7735 -98.1334,1.5154 z m 213.3334,-567.5009 c 0,-0.5867 1.8496,-1.0667 4.1102,-1.0667 2.2606,0 7.131,-0.3157 10.823,-0.7016 l 6.7129,-0.7017 -0.7064,-15.5651 c -1.7947,-39.5477 -8.0596,-74.9221 -18.7193,-105.6984 -11.0831,-31.9986 -15.7678,-43.3403 -24.0118,-58.1333 -30.3914,-54.5345 -78.6673,-85.4986 -148.342,-95.1466 -20.0819,-2.7807 -84.4748,-2.7788 -104.5333,0 -51.7978,7.1839 -93.9068,27.1505 -133.0104,63.0686 -34.8225,31.9856 -65.2409,84.2455 -78.5831,135.0081 -5.8686,22.3282 -10.8065,53.6254 -10.8065,68.493 0,7.0123 0.084,7.2407 2.6667,7.2407 1.9555,0 2.6666,0.5688 2.6666,2.1333 0,2.1272 0.7111,2.1333 245.8667,2.1333 163.2,0 245.8667,-0.3586 245.8667,-1.0666 z m 787.2,344 v -203.2 h -3.7334 -3.7333 v -10.1334 -10.1333 h -270.4 -270.3999 v -76.7618 -76.7618 l 276.5332,-318.4234 276.5334,-318.4233 64.2666,-0.015 64.2667,-0.015 v 338.1333 338.1335 h 2.6667 c 1.9555,0 2.6666,0.5688 2.6666,2.1333 0,2.1119 0.7112,2.1333 70.9334,2.1333 h 70.9334 v 54.9334 54.9333 h -70.9334 -70.9334 v 4.8 c 0,4.4089 -0.2172,4.8 -2.6666,4.8 h -2.6667 v 208.5334 208.5333 h -66.6667 -66.6666 z m -21.3334,-334.4 c 0,-0.5867 1.8496,-1.0667 4.1102,-1.0667 2.2606,0 7.0606,-0.3084 10.6667,-0.6853 l 6.5565,-0.6853 -0.045,-241.1815 -0.045,-241.1814 -3.657,4.1408 -3.657,4.1408 -0.2986,-14.1382 -0.2986,-14.1382 -6.6195,7.6188 -6.6195,7.6187 -0.3138,-7.6435 -0.3138,-7.6435 -207.8686,240.9104 c -114.327,132.5008 -207.2851,241.1047 -206.5729,241.3421 0.8037,0.2679 0.037,1.73 -2.0226,3.8546 -1.8247,1.8826 -3.519,4.4687 -3.7652,5.7468 -0.3646,1.8933 0.053,2.3239 2.2527,2.3239 h 2.7003 l -2.927,3.4667 -2.9271,3.4666 3.9019,0.3313 c 3.4944,0.2966 3.7862,0.5472 2.7946,2.4 -1.0938,2.0439 1.3877,2.0687 206.9304,2.0687 137.9806,0 208.0375,-0.3592 208.0375,-1.0666 z"
     id="path2001"
     inkscape:connector-curvature="0" />
  <path
     style="fill:#a9a9a9;fill-opacity:1;stroke-width:1.0666666"
     d="m 411.8254,1588.3176 c -54.3035,-4.2559 -113.5336,-26.5166 -156.3765,-58.7715 -77.1936,-58.1164 -129.0918,-158.4462 -149.2239,-288.4804 -7.573797,-48.9195 -9.030997,-70.8069 -8.947797,-134.4 0.072,-55.1101 0.094,-55.6602 3.472197,-85.5782 8.2677,-73.22973 25.2463,-132.69743 54.6658,-191.46763 25.556,-51.0522 63.4211,-101.0578 101.2102,-133.6608 73.428,-63.3507 167.6477,-95.035 257.0667,-86.4466 59.7533,5.7391 98.4839,17.3777 158.9263,47.7577 13.7828,6.9275 25.1828,12.5956 25.3333,12.5956 0.1506,0 0.2737,-0.96 0.2737,-2.1334 0,-2.6336 0.1711,-2.6336 5.3334,0 5.1622,2.6336 5.3333,2.6336 5.3333,0 0,-2.6336 0.1711,-2.6336 5.3333,0 2.3,1.1734 4.4408,2.1334 4.7575,2.1334 0.3168,0 0.5759,-90.72 0.5759,-201.6 v -201.6 h 67.73331 67.7334 v 648.5333 648.53333 H 787.30321 719.581 l -0.2778,-46.9149 -0.2778,-46.9147 -5.0039,4.2775 -5.0039,4.2774 -0.3294,-4.2872 -0.3294,-4.2874 -5.0667,4.3409 -5.0667,4.341 v -4.4269 -4.427 l -3.0654,2.4773 c -1.686,1.3626 -12.7775,10.3973 -24.6478,20.0773 -37.4548,30.5436 -56.0798,43.257 -84.2868,57.5338 -37.8484,19.1568 -76.0394,31.6021 -113.0697,36.8462 -14.2349,2.0159 -45.9202,2.8796 -61.3303,1.6719 z m 113.1957,-151.8521 c 59.8138,-10.6727 123.1633,-41.2874 180.6089,-87.2821 l 13.8023,-11.051 0.063,-268.8208 0.063,-268.82093 -13.6,-6.267 c -56.8441,-26.1943 -99.4798,-37.893 -154.0785,-42.277 -24.4937,-1.9668 -85.2266,-0.7814 -101.8296,1.9875 -66.1459,11.0312 -117.7258,44.9092 -154.6254,101.5591 -39.2945,60.3266 -57.956,139.81601 -57.9653,246.90583 -0.01,77.1108 7.5121,135.9011 23.9543,187.3007 22.2702,69.6184 57.4731,113.1459 108.8112,134.5419 18.3723,7.657 32.7719,11.1781 61.8666,15.1279 1.76,0.239 20,0.288 40.5334,0.109 34.3644,-0.2995 38.5311,-0.5392 52.3956,-3.0131 z m 852.1377,152.2394 c -2.3467,-0.2391 -13.6267,-1.1888 -25.0667,-2.1106 -66.7003,-5.3745 -142.5825,-22.1086 -203.7333,-44.9287 -16.5788,-6.1867 -50.4002,-20.7824 -52.5398,-22.6734 -0.4436,-0.3921 -0.6836,-38.4936 -0.5334,-84.6702 l 0.2732,-83.9574 7.474,4.6512 c 44.2296,27.5254 117.3125,57.7667 183.4593,75.9147 46.8926,12.8653 58.8136,14.446 114.3622,15.164 35.2694,0.456 43.8838,0.2619 54.9333,-1.238 27.6876,-3.7584 56.7309,-11.9631 78.7045,-22.234 63.4689,-29.6661 109.1591,-95.127 124.2057,-177.9511 8.4668,-46.6053 8.0426,-109.367 -1.0107,-149.5234 -10.852,-48.1351 -32.5748,-81.7054 -73.0616,-112.90972 -34.929,-26.92071 -80.4034,-41.54421 -147.2,-47.33611 -20.9592,-1.8173 -92.2943,-2.1122 -117.8849,-0.4873 -46.1211,2.9286 -104.8342,10.7694 -159.4463,21.293 -6.1589,1.1868 -11.7989,2.1579 -12.5334,2.1579 -1.0665,0 -1.3354,-63.9101 -1.3354,-317.3334 v -317.3333 h 329.6 329.6 v 73.0667 73.0666 h -260.2667 -260.2667 v 165.0899 165.0899 l 15.2,-0.2244 c 8.36,-0.1234 26.72,-1.2496 40.8,-2.5028 84.4694,-7.5179 174.7781,-0.9185 234.6865,17.1498 69.3963,20.9299 135.89,68.1678 176.3267,125.2643 33.8234,47.75881 50.3705,94.67313 58.5028,165.86663 1.5138,13.2528 1.886,25.3169 1.8755,60.8 -0.013,42.1887 -0.1525,45.3433 -2.9846,67.2 -9.1482,70.6008 -32.3816,134.1099 -69.2327,189.2486 -59.8918,89.6136 -155.558,146.6806 -272.8121,162.7385 -21.0839,2.8875 -27.6776,3.3299 -54.8954,3.6841 -17.0133,0.2214 -32.8533,0.2069 -35.2,-0.032 z"
     id="path1999"
     inkscape:connector-curvature="0" />
  <path
     style="fill:#a9a9a9;fill-opacity:1;stroke-width:1.0666666"
     d="m 3959.6404,1621.082 c -54.3102,-4.2587 -113.5339,-26.5171 -156.3766,-58.7719 -77.1936,-58.1164 -129.0918,-158.4462 -149.2239,-288.4803 -7.5738,-48.9196 -9.0309,-70.8069 -8.9477,-134.4 0.072,-55.1102 0.094,-55.6602 3.4721,-85.5783 8.2677,-73.22967 25.2463,-132.69727 54.6658,-191.46757 25.556,-51.0522 63.4211,-101.0578 101.2103,-133.6608 72.9767,-62.9613 167.1211,-94.8855 254.9333,-86.4474 59.7624,5.7428 98.485,17.3792 158.9263,47.7585 13.7827,6.9276 25.1827,12.5956 25.3333,12.5956 0.1506,0 0.2737,-0.96 0.2737,-2.1333 0,-2.6336 0.1711,-2.6336 5.3334,0 5.3306,2.7194 5.3333,2.7189 5.3333,-0.9735 v -3.1068 l 5.6,3.0875 c 3.08,1.6981 5.96,3.0961 6.4,3.1068 0.44,0.011 0.8,-90.7007 0.8,-201.5807 v -201.6 h 66.6667 66.6666 v 648.5333 648.53327 h -66.6555 -66.6556 l -0.2778,-46.8719 -0.2777,-46.872 -5.8667,4.882 -5.8667,4.8819 -0.5333,-4.9359 -0.5333,-4.9359 -5.0667,4.3422 -5.0667,4.3423 v -4.427 -4.427 l -3.0654,2.4773 c -1.686,1.3626 -12.7775,10.3974 -24.6478,20.0774 -37.4548,30.5435 -56.0798,43.2569 -84.2868,57.5337 -37.8656,19.1655 -76.1328,31.6328 -113.0697,36.8376 -14.3926,2.028 -44.0362,2.8698 -59.1969,1.6809 z m 113.1957,-151.849 c 59.8472,-10.6922 123.1662,-41.2933 180.6088,-87.2856 l 13.8023,-11.051 0.063,-268.8208 0.063,-268.82077 -13.6,-6.267 c -56.8345,-26.19 -99.4822,-37.8933 -154.0532,-42.2751 -24.6698,-1.9808 -87.4223,-0.7846 -103.9882,1.9823 -66.1751,11.0527 -117.7262,44.913 -154.6255,101.5624 -39.2945,60.3266 -57.9559,139.81587 -57.9653,246.90567 -0.01,77.1108 7.5121,135.9012 23.9543,187.3007 22.2703,69.6185 57.4732,113.1459 108.8112,134.542 18.3675,7.6549 32.8598,11.1984 61.8667,15.1268 1.76,0.2384 20.48,0.289 41.6,0.1123 35.5438,-0.297 39.5204,-0.521 53.4624,-3.0119 z m 1047.8709,-86.0699 v -213.3333 h -274.1333 -274.1333 v -86.8959 -86.89577 l 277.9673,-320.0375 277.9674,-320.0375 h 64.4326 64.4327 v 340.2667 340.26657 h 73.6 73.6 v 66.6667 66.6667 h -73.6 -73.6 v 213.3333 213.3333 h -68.2667 -68.2667 z m -0.017,-587.99997 -0.017,-241.3333 -6.336,6.9333 -6.3361,6.9334 -0.08,-6.9334 -0.08,-6.9333 -5.2239,5.8667 -5.2239,5.8666 -0.3421,-5.7587 -0.3422,-5.7587 -206.9333,239.7837 c -113.815,131.881 -207.3189,240.43237 -207.788,241.22527 -0.7156,1.2093 34.5819,1.4417 218.9333,1.4417 h 219.7863 z"
     id="path1995"
     inkscape:connector-curvature="0" />
  <path
     style="fill:#a9a9a9;fill-opacity:1;stroke-width:1.06666672"
     d="m 2943.9141,4346.7233 c -2.3467,-0.2358 -13.6267,-1.183 -25.0667,-2.1048 -82.1595,-6.6202 -175.2795,-29.984 -241.6,-60.6175 l -14.9333,-6.8977 -0.2739,-74.2154 -0.2739,-74.2153 9.3406,6.2465 c 24.5053,16.3879 59.9889,34.0391 103.2072,51.3401 29.6402,11.8655 56.2393,20.7947 87.4667,29.3622 43.6813,11.9842 59.5102,14.2999 103.5499,15.1486 25.6214,0.4937 33.3215,0.2847 44.2667,-1.2019 48.1459,-6.5392 88.1858,-22.5298 118.9231,-47.494 12.7029,-10.317 37.1882,-35.4824 46.7523,-48.0508 30.7661,-40.4304 48.4039,-88.4642 54.4427,-148.2667 2.5029,-24.7872 2.2967,-79.3467 -0.387,-102.4 -7.5804,-65.1139 -29.8765,-106.0443 -77.9477,-143.0941 -43.2667,-33.3468 -105.228,-48.8201 -195.7516,-48.884 -42.2018,-0.03 -75.7543,2.2284 -119.1671,8.0207 -25.7928,3.4413 -71.1667,10.9804 -98.948,16.4407 -12.0267,2.3638 -22.4667,4.302 -23.2,4.3073 -1.0636,0.01 -1.3333,-61.9233 -1.3333,-306.1239 v -306.1334 h 333.8666 333.8667 v 59.7334 59.7333 h -253.8667 -253.8666 v 6.9333 6.9334 h -6.4 -6.4 v 171.7129 171.7129 l 4.5333,-0.5402 c 45.1423,-5.3797 126.3048,-7.4362 169.8667,-4.3041 81.1015,5.8312 131.7687,18.8079 181.1926,46.4066 58.373,32.5959 101.8926,75.6652 131.5731,130.2119 21.2107,38.9807 31.8146,75.8592 38.3383,133.3333 1.4496,12.7706 1.873,25.1513 1.8608,54.4 -0.015,35.1016 -0.2318,39.5413 -2.9727,60.8 -9.0853,70.465 -32.3427,134.0575 -69.2135,189.2486 -25.8428,38.6837 -55.8599,66.9552 -98.912,93.1599 -47.4815,28.9008 -100.9331,47.4006 -161.1046,55.7589 -22.8796,3.1781 -25.8413,3.3443 -65.562,3.6784 -22.88,0.1924 -43.52,0.1568 -45.8667,-0.079 z m -818.6666,-4.6724 c -24.054,-1.2583 -59.4315,-5.9406 -84.9812,-11.2473 -95.6481,-19.8667 -172.673,-63.0143 -230.3676,-129.047 -57.9232,-66.2943 -91.5593,-149.747 -104.0421,-258.1333 -3.1993,-27.7792 -3.318,-30.4068 -3.35,-74.1334 -0.031,-42.3875 0.1572,-47.0661 2.8969,-72 11.859,-107.9295 44.2684,-193.6505 100.183,-264.9776 17.127,-21.848 28.6059,-33.6453 49.261,-50.6274 56.2402,-46.2394 120.2654,-73.7407 197.8666,-84.9915 23.7435,-3.4424 24.4446,-3.4804 65.6,-3.5547 37.102,-0.067 43.676,0.1854 60.8,2.3348 96.2681,12.0837 165.5884,47.5574 221.3704,113.2831 32.1345,37.8629 59.3508,91.0932 73.5606,143.8719 8.6353,32.0733 14.3282,68.9709 17.0535,110.5281 0.5771,8.8 1.0567,37 1.0658,62.6667 l 0.016,46.6666 h -316.0001 -316 l 0.3577,6.9356 0.3577,6.9356 -6.7577,-10e-4 h -6.7577 l 0.1918,11.4681 c 0.9322,55.7522 5.4642,92.2318 16.2351,130.6832 29.0057,103.5486 102.0427,173.1174 205.8484,196.0735 24.6002,5.4403 44.2629,7.5018 77.6473,8.1408 47.125,0.9021 78.1828,-2.7771 124.0144,-14.6917 33.082,-8.6001 59.7828,-18.7617 97.6631,-37.1679 33.6809,-16.3657 64.3446,-34.8231 88.0872,-53.0223 8.4488,-6.476 10.9746,-7.8807 14.1709,-7.8807 h 3.8895 l -0.2738,75.3037 -0.2738,75.3037 -19.7333,7.9218 c -70.921,28.4701 -107.5938,40.3615 -160.5335,52.0535 -43.3043,9.564 -60.8096,11.3998 -112.5333,11.8016 -22.5867,0.1756 -48.0267,-0.045 -56.5333,-0.49 z m 214.4001,-569.6276 v -6.4 h 6.5624 6.5624 l -0.6557,-22.6667 c -3.935,-136.0243 -57.9556,-218.4636 -158.0692,-241.2254 -23.0429,-5.239 -36.8736,-6.5079 -70.9334,-6.5079 -24.4821,0 -34.5446,0.4269 -45.3333,1.9232 -63.6984,8.8343 -110.9549,35.6873 -159.0308,90.3674 -24.9339,28.3591 -40.8249,54.8598 -52.4345,87.4427 -10.4785,29.4082 -17.9346,68.2744 -18.2632,95.2 l -0.1009,8.2667 h 245.848 245.8482 z"
     id="path1997"
     inkscape:connector-curvature="0" />
</svg>
