<?xml version="1.0" encoding="UTF-8" standalone="no"?>
<svg
   xmlns:dc="http://purl.org/dc/elements/1.1/"
   xmlns:cc="http://creativecommons.org/ns#"
   xmlns:rdf="http://www.w3.org/1999/02/22-rdf-syntax-ns#"
   xmlns:svg="http://www.w3.org/2000/svg"
   xmlns="http://www.w3.org/2000/svg"
   xmlns:sodipodi="http://sodipodi.sourceforge.net/DTD/sodipodi-0.dtd"
   xmlns:inkscape="http://www.inkscape.org/namespaces/inkscape"
   sodipodi:docname="favicon.svg"
   inkscape:version="1.0 (4035a4fb49, 2020-05-01)"
   id="svg8"
   version="1.1"
   viewBox="0 0 14.2875 14.022917"
   height="14.022917mm"
   width="14.2875mm">
  <defs
     id="defs2" />
  <sodipodi:namedview
     inkscape:window-maximized="1"
     inkscape:window-y="-9"
     inkscape:window-x="74"
     inkscape:window-height="1051"
     inkscape:window-width="1837"
     inkscape:snap-global="false"
     fit-margin-bottom="0"
     fit-margin-right="0"
     fit-margin-left="0"
     fit-margin-top="0"
     showgrid="false"
     inkscape:document-rotation="0"
     inkscape:current-layer="layer1"
     inkscape:document-units="mm"
     inkscape:cy="26.437972"
     inkscape:cx="22.527999"
     inkscape:zoom="11.2"
     inkscape:pageshadow="2"
     inkscape:pageopacity="0.0"
     borderopacity="1.0"
     bordercolor="#666666"
     pagecolor="#ffffff"
     id="base" />
  <metadata
     id="metadata5">
    <rdf:RDF>
      <cc:Work
         rdf:about="">
        <dc:format>image/svg+xml</dc:format>
        <dc:type
           rdf:resource="http://purl.org/dc/dcmitype/StillImage" />
        <dc:title></dc:title>
      </cc:Work>
    </rdf:RDF>
  </metadata>
  <g
     transform="translate(-98.689583,-141.15521)"
     id="layer1"
     inkscape:groupmode="layer"
     inkscape:label="Layer 1">
    <g
       inkscape:export-ydpi="96"
       inkscape:export-xdpi="96"
       transform="translate(9.3785343,-4.3703497)"
       id="g936">
      <rect
         style="fill:#253b73;fill-opacity:1;stroke:#253b73;stroke-width:0.262434;stroke-linejoin:round"
         id="rect847"
         width="14.189423"
         height="13.891431"
         x="89.379181"
         y="145.65105"
         rx="3.0352085"
         ry="3.0212662" />
      <g
         style="fill:none;fill-opacity:1;fill-rule:evenodd;stroke:#000000;stroke-width:1.5;stroke-linecap:round;stroke-linejoin:round;stroke-miterlimit:4;stroke-dasharray:none;stroke-opacity:1"
         id="g16"
         transform="matrix(0.29076936,0,0,0.29076936,90.146614,146.04021)">
        <path
           d="M 22.5,11.63 V 6"
           style="fill:none;stroke:#000000;stroke-linejoin:miter"
           id="path2" />
        <path
           d="m 20,8 h 5"
           style="fill:none;stroke:#000000;stroke-linejoin:miter"
           id="path4" />
        <path
           d="m 22.5,25 c 0,0 4.5,-7.5 3,-10.5 0,0 -1,-2.5 -3,-2.5 -2,0 -3,2.5 -3,2.5 -1.5,3 3,10.5 3,10.5"
           style="fill:#ffffff;stroke:#000000;stroke-linecap:butt;stroke-linejoin:miter"
           id="path6" />
        <path
           d="m 11.5,37 c 5.5,3.5 15.5,3.5 21,0 v -7 c 0,0 9,-4.5 6,-10.5 -4,-6.5 -13.5,-3.5 -16,4 V 27 23.5 C 19,16 9.5,13 6.5,19.5 c -3,6 5,10 5,10 z"
           style="fill:#ffffff;stroke:#000000"
           id="path8" />
        <path
           d="M 11.5,30 C 17,27 27,27 32.5,30"
           style="fill:none;stroke:#000000"
           id="path10" />
        <path
           d="m 11.5,33.5 c 5.5,-3 15.5,-3 21,0"
           style="fill:none;stroke:#000000"
           id="path12" />
        <path
           d="M 11.5,37 C 17,34 27,34 32.5,37"
           style="fill:none;stroke:#000000"
           id="path14" />
      </g>
    </g>
  </g>
</svg>
