<?xml version="1.0" encoding="UTF-8" standalone="no"?>
<svg
   xmlns:dc="http://purl.org/dc/elements/1.1/"
   xmlns:cc="http://creativecommons.org/ns#"
   xmlns:rdf="http://www.w3.org/1999/02/22-rdf-syntax-ns#"
   xmlns:svg="http://www.w3.org/2000/svg"
   xmlns="http://www.w3.org/2000/svg"
   xmlns:sodipodi="http://sodipodi.sourceforge.net/DTD/sodipodi-0.dtd"
   xmlns:inkscape="http://www.inkscape.org/namespaces/inkscape"
   inkscape:version="1.0 (4035a4fb49, 2020-05-01)"
   sodipodi:docname="parchment button.svg"
   viewBox="0 0 247.289 72.24801"
   version="1.0"
   xml:space="preserve"
   id="Layer_1"
   width="247.289"
   height="72.247993"><sodipodi:namedview
   inkscape:current-layer="Layer_1"
   inkscape:window-maximized="1"
   inkscape:window-y="-9"
   inkscape:window-x="-9"
   inkscape:cy="-44.980959"
   inkscape:cx="114.46563"
   inkscape:zoom="1.3733793"
   showgrid="false"
   id="namedview183"
   inkscape:window-height="1001"
   inkscape:window-width="1920"
   inkscape:pageshadow="2"
   inkscape:pageopacity="0"
   guidetolerance="10"
   gridtolerance="10"
   objecttolerance="10"
   borderopacity="1"
   bordercolor="#666666"
   pagecolor="#ffffff"
   inkscape:document-rotation="0" /><defs
   id="defs61">
<metadata
   id="metadata149">
<rdf:RDF>
      <cc:Work
   rdf:about="">
         <dc:title />
         <dc:description>Parchment Background</dc:description>
         <dc:subject>
          <rdf:Bag>
            <rdf:li>border</rdf:li>
            <rdf:li>background</rdf:li>
		<rdf:li>parchment</rdf:li>
          </rdf:Bag>
         </dc:subject>
         <dc:publisher><cc:Agent
     rdf:about="http://www.openclipart.org/"><dc:title>Open Clip Art Project</dc:title></cc:Agent></dc:publisher>
         <dc:creator><cc:Agent
     rdf:about=""><dc:title>Gerald G.</dc:title></cc:Agent></dc:creator>
         <dc:rights><cc:Agent
     rdf:about="http://web.resource.org/cc/PublicDomain"><dc:title>Public Domain</dc:title></cc:Agent></dc:rights>
         <dc:date>2006/09/25</dc:date>
         <dc:format>image/svg+xml</dc:format>
         <dc:type
   rdf:resource="http://purl.org/dc/dcmitype/StillImage">http://purl.org/dc/dcmitype/StillImage</dc:type>
         <cc:license
   rdf:resource="http://web.resource.org/cc/PublicDomain" />
      </cc:Work>
      <cc:License
   rdf:about="http://web.resource.org/cc/PublicDomain">
         <cc:permits
   rdf:resource="http://web.resource.org/cc/Reproduction" />
         <cc:permits
   rdf:resource="http://web.resource.org/cc/Distribution" />
         <cc:permits
   rdf:resource="http://web.resource.org/cc/DerivativeWorks" />
      </cc:License>
   </rdf:RDF>
</metadata>
	<linearGradient
   x1="25.021"
   y1="141.78"
   gradientTransform="matrix(1,0,0,0.24720724,-44.582754,216.66355)"
   x2="-0.0407"
   gradientUnits="userSpaceOnUse"
   y2="142.44"
   id="XMLID_4_">
		<stop
   offset=".1286"
   style="stop-color:#8d5c34"
   id="stop18" />
		<stop
   offset=".29050"
   style="stop-color:#e8d0a9"
   id="stop20" />
		<stop
   offset=".5952"
   style="stop-color:#e3cba4"
   id="stop22" />
		<stop
   offset="1"
   style="stop-color:#8d5c34"
   id="stop24" />
	</linearGradient>
	<linearGradient
   x1="22.266001"
   y1="145.44"
   gradientTransform="matrix(0.67622419,0.02096508,-0.00704254,0.22715562,-37.530722,220.73741)"
   x2="320.67001"
   gradientUnits="userSpaceOnUse"
   y2="135.02"
   id="XMLID_5_">
		<stop
   offset="0"
   style="stop-color:#8d5c34"
   id="stop31" />
		<stop
   offset=".0333"
   style="stop-color:#d1b38b"
   id="stop33" />
		<stop
   offset=".91430"
   style="stop-color:#e3cba4"
   id="stop35" />
		<stop
   offset="1"
   style="stop-color:#8d5c34"
   id="stop37" />
	</linearGradient>
	<linearGradient
   x1="343.01001"
   y1="143.67999"
   gradientTransform="matrix(0.9835158,0.09944185,-0.02180837,0.2156927,-134.80451,197.64609)"
   x2="316.14999"
   gradientUnits="userSpaceOnUse"
   y2="143.92"
   id="XMLID_6_">
		<stop
   offset=".0048"
   style="stop-color:#8d5c34"
   id="stop42" />
		<stop
   offset=".1429"
   style="stop-color:#93633b"
   id="stop44" />
		<stop
   offset=".29520"
   style="stop-color:#e8d0a9"
   id="stop46" />
		<stop
   offset=".63810"
   style="stop-color:#e3cba4"
   id="stop48" />
		<stop
   offset=".93330"
   style="stop-color:#93633a"
   id="stop50" />
		<stop
   offset="1"
   style="stop-color:#8d5c34"
   id="stop52" />
	</linearGradient>
		<filter
   id="filter3194"><feGaussianBlur
     inkscape:collect="always"
     stdDeviation="1.5658873"
     id="feGaussianBlur3196" /></filter></defs>
<g
   id="g909"
   transform="rotate(-1.3012472,-9589.6655,-1897.782)"><path
     id="path26"
     style="fill:url(#XMLID_4_);fill-rule:evenodd;stroke-width:0.4972"
     d="m -41.129745,284.85606 c -0.108,-8.70417 -0.324,-18.41448 -0.792,-29.6451 -0.468,-11.24051 -1.116,-23.44192 -1.944,-37.22694 l -1e-5,1.2e-4 c 3.348,-0.33793 6.408,-0.49837 9.3235,-0.48032 2.88,0.0445 5.364,0.26698 7.74,0.66721 l 10.872,67.8312 c -1.8,-0.21507 -3.816,-0.43756 -6.588,-0.66746 -2.808,-0.19529 -6.588,-0.60566 -9.684,-0.67735 -3.0955,-0.089 -6.1195,0 -8.9275,0.19777 z" /><path
     id="path28"
     style="fill:#412318;fill-rule:evenodd;stroke-width:0.644663"
     d="m -32.997832,287.10453 -1.658742,-1.34076 -6.473171,-0.90771 c 4.706638,-0.22194 9.092573,-0.12427 13.516499,0.26204 4.337798,0.43302 8.522728,1.07233 12.576753,2.10036 -3.429295,0.33748 -6.701933,0.48861 -9.636338,0.4628 -3.111332,10e-4 -5.710882,-0.22802 -8.325632,-0.57678 z" /><path
     id="path39"
     style="fill:url(#XMLID_5_);fill-rule:evenodd;stroke-width:0.392117"
     d="m -20.001719,284.04097 -5.796099,-61.41378 4e-6,-1.2e-4 c 4.501384,0.2128 8.344945,0.4222 11.922262,0.57381 3.527618,0.183 6.1803445,0.29026 9.0760206,0.42077 2.8218938,0.15272 5.9184081,0.0935 7.861117,0.30895 1.8202211,0.23673 2.3938366,0.5982 3.4074236,0.91588 0.940536,0.31565 1.5805972,0.89188 2.4070121,0.95888 0.776739,0.0973 1.7126297,-0.20087 2.4268057,-0.46522 0.641566,-0.25864 1.091669,-0.62918 1.447701,-1.10915 2.826947,-0.0106 5.165754,0.005 7.285217,0.0212 2.021818,0.0218 3.701556,0.0738 5.039222,0.15623 1.215165,0.1034 2.208703,0.28176 2.616474,0.49062 0.35731,0.26449 -0.189678,0.6161 -0.222142,0.87726 -0.05601,0.23542 -0.500819,0.43444 -0.02078,0.67033 0.404974,0.29905 1.922689,0.86156 2.599747,0.96487 0.585785,0.0998 0.616461,-0.23486 1.015516,-0.44328 0.297873,-0.21995 0.528142,-0.44246 1.046192,-0.77792 0.449441,-0.3053 1.095992,-0.63746 1.839247,-1.03176 2.117847,0.0247 4.626643,0.10252 7.521631,0.16796 2.921801,0.0742 7.401954,0.0985 9.690295,0.30043 2.185643,0.23954 2.215994,0.78892 3.399048,1.05479 1.114422,0.29648 2.594256,0.59611 3.420518,0.5808 0.806479,-0.0323 0.697931,-0.46107 1.240264,-0.70619 0.398798,-0.20046 0.183005,-0.44454 1.432326,-0.56962 1.194971,-0.11848 3.147556,-0.2212 5.852964,-0.15392 2.629766,0.10584 7.614215,0.45685 9.89426,0.70784 2.1849,0.26385 2.54651,0.38966 3.411893,0.85896 0.735905,0.49757 0.92965,1.45309 1.345712,2.006 0.402006,0.5693 0.943837,0.99514 1.373243,1.3361 -0.10168,-0.65026 0.01695,-1.20296 0.248833,-1.69486 0.230857,-0.45964 0.782475,-0.7861 1.254993,-1.18095 0.452474,-0.40343 0.781958,-0.76974 1.254966,-1.18038 3.944913,0.0407 7.549961,0.12743 10.909775,0.2646 3.332262,0.15263 6.325408,0.32707 9.073068,0.55971 0.76321,0.49 1.37817,0.95927 1.75693,1.40485 0.3983,0.47072 0.55469,0.88485 0.56855,1.31092 1.10688,-0.3338 1.89646,-0.69403 2.27405,-1.08365 0.35729,-0.39 0.3692,-0.77412 0.0378,-1.21823 4.25742,0.22203 8.3949,0.38282 12.51489,0.45323 4.14001,0.0794 8.77018,0.0677 11.91193,0.0339 2.99898,-0.0135 3.81078,-0.21757 6.06962,-0.1555 2.16966,0.0998 4.76528,0.43411 7.0471,0.62742 2.16688,0.19019 2.74565,0.29794 6.44282,0.46986 3.82539,0.18433 11.82909,0.52272 15.75171,0.62773 3.74604,0.12415 5.93877,0.1348 6.67188,0.0675 l -1.23759,59.56771 c -1.86631,-0.27842 -4.32418,-0.47057 -7.46165,-0.57467 -3.23933,-0.0934 -7.14148,0.0151 -11.33062,-0.008 -4.26451,0.006 -9.1868,0.0517 -13.71946,-0.0252 -4.58008,-0.0761 -9.72016,-0.21041 -13.34424,-0.33868 -3.65287,-0.0723 -6.57641,-0.0902 -8.47307,-0.26269 -1.9648,-0.15866 -2.44223,-0.47817 -3.21581,-0.8523 -0.84084,-0.3876 -1.01526,-0.87503 -1.56053,-1.40809 -0.62094,-0.49446 -1.42797,-1.09929 -1.77764,-1.61035 -0.3775,-0.48691 -0.30861,-1.18055 -0.56649,-1.37725 -0.4082,-0.15136 -1.16938,-0.0522 -1.42373,0.29237 -0.2078,0.371 0.0827,1.26221 -0.0548,1.76727 -0.21231,0.51638 -0.66326,0.87075 -1.25721,1.2525 -0.64888,0.40735 -0.80633,0.90042 -2.44314,1.07932 -1.66463,0.20305 -4.22126,0.1397 -7.67676,0.0326 -3.577225,-0.11091 -7.929226,-0.55733 -13.529633,-0.69003 -5.770724,-0.0971 -14.013824,0.0817 -20.102582,-0.0184 -6.062284,-0.0811 -10.783529,-0.40706 -15.941362,-0.62384 -5.279758,-0.21371 -10.409697,-0.67516 -14.935882,-0.74273 -4.506973,-0.0329 -8.812748,0.43164 -11.930347,0.38501 -3.165714,-0.0663 -4.444539,-0.47432 -7.045056,-0.69364 -2.699374,-0.17463 -5.472838,-0.31746 -8.6865378,-0.408 -0.4612471,-0.84195 -0.8794392,-1.50066 -1.156071,-2.00945 -0.350239,-0.49289 -0.6123856,-0.68292 -0.5771954,-1.03198 0.059584,-0.35059 0.3149431,-0.72693 0.8634728,-1.1283 -1.7626313,0.26369 -2.8203352,0.58332 -3.2714861,0.9877 -0.475989,0.41953 0.3370592,0.91767 0.5645086,1.44086 0.2028333,0.53152 0.4531482,1.10318 0.7508851,1.71722 -3.1206173,0.0511 -6.16643976,0.0476 -9.5025667,-0.024 -3.3855802,-0.0481 -7.5727625,-0.17796 -10.2975375,-0.31926 -2.750107,-0.11027 -4.743601,-0.23801 -5.981836,-0.38327 z" /><path
     id="path54"
     style="fill:url(#XMLID_6_);fill-rule:evenodd;stroke-width:0.462932"
     d="m 171.20253,289.50837 c 1.54773,-16.38849 2.84292,-29.19848 3.67954,-39.24177 0.8,-9.97575 1.35919,-16.58731 1.43823,-20.21886 l -1e-5,1e-4 c 2.58438,0.67705 5.10344,1.21393 7.85216,1.64132 2.639,0.43157 5.32793,0.66421 8.2061,0.89223 2.79787,0.23605 5.75272,0.3936 8.85153,0.50297 l -10.35725,58.21661 c -3.25689,0.0782 -5.98007,0.0861 -8.2972,0.009 -2.32171,-0.0321 -3.80835,-0.16716 -5.57017,-0.43027 -1.86915,-0.28267 -3.89633,-0.77092 -5.80291,-1.37116 z" /><path
     id="path56"
     style="fill:#412318;fill-rule:evenodd"
     d="m 176.3203,230.04774 c 2.74,1.801 5.87,2.953 9.25,3.602 3.39,0.646 8.17,0.791 11.05,0.287 2.74,-0.396 4.68,-1.295 5.69,-2.699 -1.44,-0.541 -3.27,-1.08 -5.36,-1.477 -2.2,-0.396 -4.65,-0.648 -7.49,-0.9 l -3.56,-2.375 c -2.2,-0.43203 -4.14,-0.28903 -5.69,0.287 -1.69,0.613 -2.85,1.656 -3.89,3.275 z" /></g>
<metadata
   id="metadata180"><rdf:RDF><cc:Work><dc:format>image/svg+xml</dc:format><dc:type
         rdf:resource="http://purl.org/dc/dcmitype/StillImage" /><cc:license
         rdf:resource="http://creativecommons.org/licenses/publicdomain/" /><dc:publisher><cc:Agent
           rdf:about="http://openclipart.org/"><dc:title>Openclipart</dc:title></cc:Agent></dc:publisher><dc:title>Parchment Background or Border</dc:title><dc:date>2010-04-27T15:11:53</dc:date><dc:description /><dc:source>https://openclipart.org/detail/57367/parchment-background-or-border-by-gerald_g-57367</dc:source><dc:creator><cc:Agent><dc:title>Gerald_G</dc:title></cc:Agent></dc:creator><dc:subject><rdf:Bag><rdf:li>background</rdf:li><rdf:li>border</rdf:li><rdf:li>paper</rdf:li><rdf:li>parchment</rdf:li><rdf:li>scroll</rdf:li></rdf:Bag></dc:subject></cc:Work><cc:License
       rdf:about="http://creativecommons.org/licenses/publicdomain/"><cc:permits
         rdf:resource="http://creativecommons.org/ns#Reproduction" /><cc:permits
         rdf:resource="http://creativecommons.org/ns#Distribution" /><cc:permits
         rdf:resource="http://creativecommons.org/ns#DerivativeWorks" /></cc:License></rdf:RDF></metadata><text
   id="text2033"
   y="42.44302"
   x="124.18184"
   style="font-size:26.6667px;line-height:1.25;font-family:Garamond;-inkscape-font-specification:Garamond;text-align:center;text-anchor:middle"
   xml:space="preserve"><tspan
     y="42.44302"
     x="124.18184"
     id="tspan2031"
     sodipodi:role="line">play</tspan></text></svg>
