<?xml version="1.0" encoding="UTF-8" standalone="no"?>
<svg
   xmlns:dc="http://purl.org/dc/elements/1.1/"
   xmlns:cc="http://creativecommons.org/ns#"
   xmlns:rdf="http://www.w3.org/1999/02/22-rdf-syntax-ns#"
   xmlns:svg="http://www.w3.org/2000/svg"
   xmlns="http://www.w3.org/2000/svg"
   xmlns:sodipodi="http://sodipodi.sourceforge.net/DTD/sodipodi-0.dtd"
   xmlns:inkscape="http://www.inkscape.org/namespaces/inkscape"
   inkscape:version="1.0 (4035a4fb49, 2020-05-01)"
   sodipodi:docname="pawn.svg"
   id="svg2672"
   height="45"
   width="45"
   version="1.1">
  <metadata
     id="metadata2678">
    <rdf:RDF>
      <cc:Work
         rdf:about="">
        <dc:format>image/svg+xml</dc:format>
        <dc:type
           rdf:resource="http://purl.org/dc/dcmitype/StillImage" />
        <dc:title></dc:title>
      </cc:Work>
    </rdf:RDF>
  </metadata>
  <defs
     id="defs2676" />
  <sodipodi:namedview
     inkscape:current-layer="svg2672"
     inkscape:window-maximized="1"
     inkscape:window-y="-9"
     inkscape:window-x="-9"
     inkscape:cy="22.5"
     inkscape:cx="22.5"
     inkscape:zoom="17.815163"
     showgrid="false"
     id="namedview2674"
     inkscape:window-height="1001"
     inkscape:window-width="1920"
     inkscape:pageshadow="2"
     inkscape:pageopacity="0"
     guidetolerance="10"
     gridtolerance="10"
     objecttolerance="10"
     borderopacity="1"
     bordercolor="#666666"
     pagecolor="#ffffff" />
  <path
     d="M 0.11132812 0.056640625 L 0.11132812 45.017578 L 45.074219 45.017578 L 45.074219 0.056640625 L 0.11132812 0.056640625 z M 22 9 C 24.21 9 26 10.79 26 13 C 26 13.89 25.710703 14.710859 25.220703 15.380859 C 27.170703 16.500859 28.5 18.59 28.5 21 C 28.5 23.03 27.559844 24.839297 26.089844 26.029297 C 29.089844 27.089297 33.5 31.58 33.5 39.5 L 10.5 39.5 C 10.5 31.58 14.910156 27.089297 17.910156 26.029297 C 16.440156 24.839297 15.5 23.03 15.5 21 C 15.5 18.59 16.829297 16.500859 18.779297 15.380859 C 18.289297 14.710859 18 13.89 18 13 C 18 10.79 19.79 9 22 9 z "
     style="fill:#000000;stroke-width:0.883"
     id="rect2680" />
</svg>
