<?xml version="1.0" encoding="UTF-8" standalone="no"?>
<svg
   xmlns:dc="http://purl.org/dc/elements/1.1/"
   xmlns:cc="http://creativecommons.org/ns#"
   xmlns:rdf="http://www.w3.org/1999/02/22-rdf-syntax-ns#"
   xmlns:svg="http://www.w3.org/2000/svg"
   xmlns="http://www.w3.org/2000/svg"
   xmlns:sodipodi="http://sodipodi.sourceforge.net/DTD/sodipodi-0.dtd"
   xmlns:inkscape="http://www.inkscape.org/namespaces/inkscape"
   sodipodi:docname="chess-rules-reg-ffffff.svg"
   inkscape:version="1.0 (4035a4fb49, 2020-05-01)"
   id="svg8"
   version="1.1"
   viewBox="0 0 19.84375 7.9375"
   height="7.9375mm"
   width="19.84375mm">
  <defs
     id="defs2" />
  <sodipodi:namedview
     inkscape:window-maximized="1"
     inkscape:window-y="-9"
     inkscape:window-x="-9"
     inkscape:window-height="1001"
     inkscape:window-width="1920"
     fit-margin-bottom="0"
     fit-margin-right="0"
     fit-margin-left="0"
     fit-margin-top="0"
     showgrid="false"
     inkscape:document-rotation="0"
     inkscape:current-layer="layer1"
     inkscape:document-units="mm"
     inkscape:cy="7.3396245"
     inkscape:cx="23.87782"
     inkscape:zoom="11.313708"
     inkscape:pageshadow="2"
     inkscape:pageopacity="0.0"
     borderopacity="1.0"
     bordercolor="#666666"
     pagecolor="#ffffff"
     id="base" />
  <metadata
     id="metadata5">
    <rdf:RDF>
      <cc:Work
         rdf:about="">
        <dc:format>image/svg+xml</dc:format>
        <dc:type
           rdf:resource="http://purl.org/dc/dcmitype/StillImage" />
        <dc:title />
      </cc:Work>
    </rdf:RDF>
  </metadata>
  <g
     transform="translate(127,80.886909)"
     id="layer1"
     inkscape:groupmode="layer"
     inkscape:label="Layer 1">
    <rect
       style="opacity:0.997;fill:#edc9a2;stroke:none;stroke-width:0.189209;stroke-linejoin:round;stroke-dasharray:0.567623, 0.18920899999999999;fill-opacity:1"
       id="rect843-7"
       width="19.84375"
       height="7.9375"
       x="-127"
       y="-80.886909" />
    <path
       id="rect833"
       style="opacity:0.997;fill:#ffffff;stroke:none;stroke-width:7.80794;stroke-linejoin:round;stroke-miterlimit:4;stroke-dasharray:none;fill-opacity:1"
       d="M 0 0 L 0 30 L 75 30 L 75 0 L 0 0 z M 16.84375 3.015625 C 16.899816 3.0377211 16.955301 3.0836725 17.017578 3.1503906 C 17.106019 3.2448788 17.299902 3.5922473 17.447266 3.921875 C 17.984374 5.1231827 18.648348 5.763388 20.509766 6.875 C 22.173362 7.8684715 23.616819 9.127616 24.599609 10.441406 C 25.330003 11.417768 25.765546 12.32597 25.947266 13.257812 C 26.172525 14.413365 26.324244 16.56107 26.326172 18.595703 C 26.328591 20.838407 26.469849 23.996709 26.619141 25.142578 C 26.667519 25.515806 26.902878 26.618854 26.998047 26.916016 C 27.024504 27.001962 26.64148 27.006211 19.429688 26.998047 C 15.250399 26.993511 11.037102 26.971997 10.066406 26.951172 L 10.064453 26.951172 C 7.7829413 26.902605 7.0146035 26.813969 6.8769531 26.583984 C 6.7378665 26.351808 7.0043851 25.014716 7.4042969 23.941406 C 8.1538528 21.929549 9.4038416 19.973016 10.261719 19.464844 C 10.407986 19.378255 10.64021 19.292071 10.779297 19.273438 C 11.103202 19.229973 11.453179 19.030579 12.005859 18.572266 C 12.702426 17.994652 13.160562 17.825649 14.242188 17.746094 C 15.384965 17.662037 16.290229 17.375984 17.195312 16.816406 C 17.669379 16.523342 18.349845 15.932782 18.662109 15.542969 C 18.969385 15.15957 19.304866 14.540071 19.451172 14.083984 C 19.56418 13.732073 19.580519 13.558082 19.582031 12.708984 C 19.583241 11.71611 19.566618 11.638 19.351562 11.636719 C 19.321326 11.636511 19.002894 12.154073 18.646484 12.787109 C 17.885363 14.138755 17.439677 14.766807 16.890625 15.257812 C 15.897781 16.145722 14.74301 16.46523 12.292969 16.529297 C 9.4594947 16.603413 9.3809095 16.634642 7.7128906 18.421875 L 7.2460938 18.919922 L 5.8632812 18.173828 C 5.1025001 17.762933 4.4440186 17.406699 4.3984375 17.382812 C 4.3353194 17.349553 4.3828524 17.298488 4.59375 17.166016 C 5.7767043 16.428611 5.9303168 16.279371 5.7929688 16.009766 C 5.7101971 15.847435 5.1772156 15.671875 4.765625 15.671875 C 4.3811715 15.671875 4.1324414 15.758928 3.8359375 15.996094 C 3.6042525 16.18148 3.4032064 16.292969 3.3007812 16.292969 C 3.2667655 16.292969 3.1978226 16.170889 3.1445312 16.021484 C 3.0647832 15.798265 3.043091 15.458424 3.0234375 14.119141 L 3 12.490234 L 4.1152344 11.816406 C 6.8626108 10.159677 8.5993694 9.032574 9.8632812 8.0839844 C 10.712503 7.4466313 11.657285 6.8252427 12.933594 6.0625 C 14.550778 5.0960483 15.417788 4.4132316 16.128906 3.5507812 C 16.502824 3.0972663 16.675553 2.9493368 16.84375 3.015625 z M 45.873047 3.7792969 L 46.167969 3.7792969 L 46.167969 8.0839844 C 46.643257 7.5615907 47.020504 7.2276161 47.298828 7.0820312 C 47.577153 6.9321613 47.854497 6.8574219 48.132812 6.8574219 C 48.466822 6.8574219 48.754367 6.9486991 48.994141 7.1328125 C 49.234015 7.3169259 49.411816 7.6060548 49.527344 8 C 49.60873 8.2740409 49.650391 8.7740262 49.650391 9.5019531 L 49.650391 11.583984 C 49.650391 11.956512 49.680266 12.210636 49.740234 12.347656 C 49.783069 12.450409 49.854228 12.531828 49.957031 12.591797 C 50.059834 12.65174 50.249422 12.681641 50.523438 12.681641 L 50.523438 12.914062 L 47.632812 12.914062 L 47.632812 12.681641 L 47.767578 12.681641 C 48.041619 12.681641 48.232808 12.641908 48.339844 12.560547 C 48.44693 12.474903 48.521618 12.350221 48.564453 12.1875 C 48.577052 12.11899 48.583984 11.917974 48.583984 11.583984 L 48.583984 9.5019531 C 48.583984 8.8596653 48.549004 8.439531 48.480469 8.2382812 C 48.416217 8.0370349 48.311653 7.8855963 48.166016 7.7871094 C 48.020378 7.6843566 47.844152 7.6347656 47.638672 7.6347656 C 47.428782 7.6347656 47.211247 7.6894625 46.984375 7.8007812 C 46.757351 7.9121009 46.484744 8.1363291 46.167969 8.4746094 L 46.167969 11.583984 C 46.167969 11.986484 46.189587 12.237453 46.232422 12.335938 C 46.27954 12.434423 46.362485 12.517427 46.482422 12.585938 C 46.606642 12.650155 46.819449 12.681641 47.119141 12.681641 L 47.119141 12.914062 L 44.203125 12.914062 L 44.203125 12.681641 C 44.464316 12.681641 44.668489 12.641908 44.818359 12.560547 C 44.904029 12.517737 44.973989 12.436318 45.025391 12.316406 C 45.076792 12.19652 45.101565 11.952236 45.101562 11.583984 L 45.101562 6.2597656 C 45.101562 5.5875061 45.085049 5.1736805 45.050781 5.0195312 C 45.020797 4.8653778 44.970879 4.760738 44.902344 4.7050781 C 44.838092 4.6494183 44.750042 4.6210938 44.638672 4.6210938 C 44.548719 4.6210938 44.404347 4.6560991 44.203125 4.7246094 L 44.113281 4.5 L 45.873047 3.7792969 z M 40.150391 4.0058594 C 40.779833 4.0058594 41.401363 4.1584983 42.013672 4.4667969 C 42.193577 4.5610079 42.321436 4.609375 42.398438 4.609375 C 42.514081 4.609375 42.613549 4.5676888 42.699219 4.4863281 C 42.810589 4.370725 42.890382 4.2114002 42.9375 4.0058594 L 43.162109 4.0058594 L 43.361328 6.9667969 L 43.162109 6.9667969 C 42.896635 6.0804397 42.517813 5.4423885 42.025391 5.0527344 C 41.532969 4.6630802 40.941339 4.4667969 40.251953 4.4667969 C 39.673887 4.4667969 39.152268 4.6147065 38.685547 4.9101562 C 38.218826 5.2013285 37.849836 5.6682615 37.580078 6.3105469 C 37.314579 6.9528347 37.183594 7.7521648 37.183594 8.7070312 C 37.183594 9.494904 37.309851 10.177801 37.5625 10.755859 C 37.815124 11.333918 38.193946 11.775688 38.699219 12.083984 C 39.208775 12.392283 39.788618 12.546875 40.439453 12.546875 C 41.004669 12.546875 41.503068 12.427298 41.935547 12.1875 C 42.368026 11.943443 42.84323 11.46155 43.361328 10.742188 L 43.560547 10.871094 C 43.12381 11.646119 42.6136 12.212583 42.03125 12.572266 C 41.4489 12.931946 40.757737 13.113281 39.957031 13.113281 C 38.514033 13.113281 37.397633 12.576337 36.605469 11.505859 C 36.014552 10.709422 35.71875 9.7724019 35.71875 8.6933594 C 35.71875 7.824131 35.913065 7.0267525 36.302734 6.2988281 C 36.692378 5.5709012 37.227384 5.0075936 37.908203 4.609375 C 38.593331 4.2068755 39.341118 4.0058594 40.150391 4.0058594 z M 53.8125 6.8496094 C 54.471927 6.8496094 55.01166 7.0691047 55.435547 7.5058594 C 55.859459 7.9383331 56.072266 8.5181693 56.072266 9.2460938 L 52.005859 9.2460938 C 52.00082 10.119606 52.213627 10.804081 52.642578 11.300781 C 53.070773 11.797484 53.574278 12.046875 54.152344 12.046875 C 54.537704 12.046875 54.871689 11.942236 55.154297 11.732422 C 55.441188 11.518324 55.680367 11.154452 55.873047 10.640625 L 56.072266 10.767578 C 55.982313 11.354201 55.721491 11.889189 55.289062 12.373047 C 54.856592 12.852621 54.314922 13.09375 53.664062 13.09375 C 52.957576 13.09375 52.350976 12.819571 51.845703 12.271484 C 51.344714 11.719119 51.09375 10.978005 51.09375 10.048828 C 51.09375 9.0425801 51.351395 8.2581979 51.865234 7.6972656 C 52.383332 7.1320549 53.033187 6.8496094 53.8125 6.8496094 z M 58.865234 6.8574219 C 59.096541 6.8574219 59.377406 6.9054125 59.707031 7.0039062 C 59.925488 7.068133 60.071838 7.1015625 60.144531 7.1015625 C 60.213067 7.1015625 60.266136 7.0866249 60.304688 7.0566406 C 60.343232 7.0266564 60.388052 6.9601746 60.439453 6.8574219 L 60.652344 6.8574219 L 60.652344 8.8613281 L 60.439453 8.8613281 C 60.276681 8.2318881 60.067404 7.8031149 59.810547 7.5761719 C 59.557898 7.3492238 59.233771 7.2363281 58.839844 7.2363281 C 58.540102 7.2363281 58.299348 7.3142192 58.115234 7.4726562 C 57.931045 7.631094 57.837891 7.8073197 57.837891 8 C 57.837891 8.2397732 57.907851 8.4458993 58.044922 8.6171875 C 58.177709 8.7927592 58.446788 8.9788257 58.853516 9.1757812 L 59.791016 9.6308594 C 60.660231 10.054769 61.095703 10.614922 61.095703 11.308594 C 61.095703 11.843833 60.891153 12.275763 60.484375 12.605469 C 60.081881 12.930896 59.629895 13.09375 59.128906 13.09375 C 58.769221 13.09375 58.358922 13.028844 57.896484 12.900391 C 57.75513 12.857581 57.638781 12.835938 57.548828 12.835938 C 57.450308 12.835938 57.374044 12.892587 57.318359 13.003906 L 57.105469 13.003906 L 57.105469 10.902344 L 57.318359 10.902344 C 57.438296 11.501812 57.667617 11.953802 58.005859 12.257812 C 58.344127 12.561828 58.72295 12.714844 59.142578 12.714844 C 59.438036 12.714844 59.677215 12.628319 59.861328 12.457031 C 60.049801 12.28146 60.144531 12.072182 60.144531 11.828125 C 60.144531 11.532672 60.039968 11.283281 59.830078 11.082031 C 59.624472 10.880784 59.210644 10.62666 58.589844 10.318359 C 57.968968 10.010063 57.561821 9.7327278 57.369141 9.484375 C 57.176385 9.2403183 57.080078 8.931131 57.080078 8.5585938 C 57.080078 8.0747386 57.244518 7.6711305 57.574219 7.3457031 C 57.908203 7.0202782 58.338545 6.8574219 58.865234 6.8574219 z M 63.978516 6.8574219 C 64.209823 6.8574219 64.490693 6.9054124 64.820312 7.0039062 C 65.038769 7.068133 65.183166 7.1015625 65.255859 7.1015625 C 65.324395 7.1015625 65.379418 7.0866249 65.417969 7.0566406 C 65.45652 7.0266564 65.501333 6.9601746 65.552734 6.8574219 L 65.763672 6.8574219 L 65.763672 8.8613281 L 65.552734 8.8613281 C 65.389963 8.2318881 65.180685 7.8031149 64.923828 7.5761719 C 64.671179 7.3492238 64.347053 7.2363281 63.953125 7.2363281 C 63.653383 7.2363281 63.410676 7.3142191 63.226562 7.4726562 C 63.04238 7.631094 62.951172 7.8073197 62.951172 8 C 62.951172 8.2397732 63.019179 8.4458993 63.15625 8.6171875 C 63.289037 8.7927592 63.560069 8.9788256 63.966797 9.1757812 L 64.904297 9.6308594 C 65.773513 10.054769 66.207031 10.614922 66.207031 11.308594 C 66.207031 11.843833 66.004434 12.275763 65.597656 12.605469 C 65.195162 12.930896 64.74317 13.09375 64.242188 13.09375 C 63.882502 13.09375 63.472203 13.028844 63.009766 12.900391 C 62.868411 12.857581 62.752062 12.835938 62.662109 12.835938 C 62.56359 12.835938 62.485367 12.892587 62.429688 13.003906 L 62.21875 13.003906 L 62.21875 10.902344 L 62.429688 10.902344 C 62.549619 11.501812 62.77897 11.953801 63.117188 12.257812 C 63.455449 12.561828 63.834278 12.714844 64.253906 12.714844 C 64.549365 12.714844 64.790496 12.628319 64.974609 12.457031 C 65.163082 12.28146 65.255859 12.072182 65.255859 11.828125 C 65.255859 11.532672 65.151296 11.283281 64.941406 11.082031 C 64.7358 10.880784 64.323925 10.62666 63.703125 10.318359 C 63.082249 10.010063 62.675102 9.7327278 62.482422 9.484375 C 62.289666 9.2403183 62.193359 8.9311311 62.193359 8.5585938 C 62.193359 8.0747386 62.357799 7.6711305 62.6875 7.3457031 C 63.021484 7.0202782 63.451826 6.8574219 63.978516 6.8574219 z M 53.451172 7.3066406 C 53.095795 7.3066406 52.776748 7.446285 52.494141 7.7246094 C 52.215816 7.9986528 52.052977 8.3806273 52.005859 8.8730469 L 54.730469 8.8730469 C 54.710311 8.4962381 54.665498 8.2303212 54.595703 8.0761719 C 54.488617 7.8363734 54.327354 7.6487283 54.113281 7.5117188 C 53.903391 7.3746983 53.682328 7.3066406 53.451172 7.3066406 z M 52.751953 16.933594 L 53.041016 16.933594 L 53.041016 24.738281 C 53.041016 25.106526 53.065786 25.350809 53.117188 25.470703 C 53.17287 25.59059 53.257771 25.681867 53.369141 25.746094 C 53.480511 25.806037 53.688213 25.835938 53.992188 25.835938 L 53.992188 26.068359 L 51.107422 26.068359 L 51.107422 25.835938 C 51.377179 25.835938 51.561662 25.807613 51.660156 25.751953 C 51.758676 25.696293 51.83494 25.605016 51.890625 25.476562 C 51.94631 25.348112 51.974609 25.10225 51.974609 24.738281 L 51.974609 19.394531 C 51.974609 18.730834 51.959669 18.323694 51.929688 18.173828 C 51.899703 18.019674 51.849785 17.915035 51.78125 17.859375 C 51.716998 17.803715 51.634053 17.775391 51.53125 17.775391 C 51.41988 17.775391 51.27866 17.810396 51.107422 17.878906 L 50.998047 17.654297 L 52.751953 16.933594 z M 35.466797 17.357422 L 38.640625 17.357422 C 39.565526 17.357422 40.246832 17.427433 40.683594 17.564453 C 41.124614 17.69719 41.496756 17.944628 41.800781 18.308594 C 42.10909 18.668274 42.263672 19.098625 42.263672 19.599609 C 42.263672 20.134851 42.087446 20.600206 41.736328 20.994141 C 41.389493 21.388076 40.849403 21.665411 40.117188 21.828125 L 41.916016 24.326172 C 42.327077 24.899947 42.681109 25.282299 42.976562 25.470703 C 43.272021 25.6591 43.657529 25.778677 44.132812 25.830078 L 44.132812 26.068359 L 41.806641 26.068359 L 38.859375 21.996094 C 38.640918 22.004661 38.463117 22.007813 38.326172 22.007812 L 38.146484 22.007812 C 38.082232 22.003534 38.015801 22.000377 37.947266 21.996094 L 37.947266 24.525391 C 37.947266 25.073475 38.007016 25.414135 38.126953 25.546875 C 38.289725 25.735272 38.534008 25.830078 38.859375 25.830078 L 39.199219 25.830078 L 39.199219 26.068359 L 35.46875 26.068359 L 35.46875 25.830078 L 35.794922 25.830078 C 36.163149 25.830078 36.4275 25.710502 36.585938 25.470703 C 36.675885 25.337966 36.720703 25.022094 36.720703 24.525391 L 36.720703 18.900391 C 36.720703 18.352304 36.660953 18.011646 36.541016 17.878906 C 36.373961 17.690509 36.124572 17.595703 35.794922 17.595703 L 35.466797 17.595703 L 35.466797 17.357422 z M 38.955078 17.845703 C 38.706637 17.845703 38.371077 17.887389 37.947266 17.96875 L 37.947266 21.589844 C 38.028651 21.589844 38.098235 21.593373 38.158203 21.597656 L 38.306641 21.597656 C 39.13733 21.597656 39.762012 21.418274 40.181641 21.058594 C 40.605552 20.698911 40.818359 20.240243 40.818359 19.683594 C 40.818359 19.139793 40.647259 18.697648 40.304688 18.359375 C 39.96642 18.016821 39.51601 17.845703 38.955078 17.845703 z M 57.458984 20.003906 C 58.118411 20.003906 58.660073 20.223402 59.083984 20.660156 C 59.507871 21.09263 59.720703 21.672466 59.720703 22.400391 L 55.654297 22.400391 C 55.649258 23.273902 55.862064 23.958378 56.291016 24.455078 C 56.719211 24.951781 57.222715 25.201172 57.800781 25.201172 C 58.186142 25.201172 58.520127 25.09458 58.802734 24.884766 C 59.089626 24.670668 59.328804 24.306796 59.521484 23.792969 L 59.720703 23.921875 C 59.63075 24.508498 59.369928 25.043486 58.9375 25.527344 C 58.505021 26.006918 57.963335 26.248047 57.3125 26.248047 C 56.60598 26.248047 55.999413 25.973868 55.494141 25.425781 C 54.993152 24.873416 54.742187 24.132302 54.742188 23.203125 C 54.742188 22.196876 54.999833 21.412495 55.513672 20.851562 C 56.03177 20.286354 56.679671 20.003906 57.458984 20.003906 z M 62.513672 20.009766 C 62.744979 20.009766 63.025844 20.059709 63.355469 20.158203 C 63.573925 20.22243 63.720276 20.253906 63.792969 20.253906 C 63.861504 20.253906 63.914574 20.238969 63.953125 20.208984 C 63.991676 20.179 64.036489 20.112518 64.087891 20.009766 L 64.300781 20.009766 L 64.300781 22.013672 L 64.087891 22.013672 C 63.925119 21.384232 63.715841 20.957412 63.458984 20.730469 C 63.206336 20.503521 62.882209 20.388672 62.488281 20.388672 C 62.18854 20.388672 61.947785 20.468515 61.763672 20.626953 C 61.579483 20.785391 61.486328 20.961617 61.486328 21.154297 C 61.486328 21.39407 61.554335 21.600196 61.691406 21.771484 C 61.824194 21.947056 62.095226 22.133122 62.501953 22.330078 L 63.439453 22.785156 C 64.308669 23.209066 64.742188 23.767266 64.742188 24.460938 C 64.742188 24.996176 64.53959 25.43006 64.132812 25.759766 C 63.730319 26.085193 63.278333 26.248047 62.777344 26.248047 C 62.417659 26.248047 62.00736 26.18314 61.544922 26.054688 C 61.403568 26.011878 61.287218 25.990234 61.197266 25.990234 C 61.098746 25.990234 61.022482 26.046883 60.966797 26.158203 L 60.753906 26.158203 L 60.753906 24.056641 L 60.966797 24.056641 C 61.086734 24.656109 61.31608 25.108092 61.654297 25.412109 C 61.992565 25.716124 62.371387 25.869141 62.791016 25.869141 C 63.086474 25.869141 63.325652 25.782616 63.509766 25.611328 C 63.698238 25.435756 63.792969 25.226479 63.792969 24.982422 C 63.792969 24.686969 63.688405 24.437578 63.478516 24.236328 C 63.272909 24.035081 62.859081 23.780957 62.238281 23.472656 C 61.617406 23.16436 61.210258 22.885072 61.017578 22.636719 C 60.824822 22.392662 60.728516 22.085429 60.728516 21.712891 C 60.728516 21.229036 60.892955 20.823474 61.222656 20.498047 C 61.556641 20.172622 61.986982 20.009766 62.513672 20.009766 z M 44.042969 20.183594 L 46.103516 20.183594 L 46.103516 24.121094 C 46.103516 24.669181 46.198246 25.029896 46.386719 25.201172 C 46.579475 25.37246 46.810371 25.457031 47.080078 25.457031 C 47.264267 25.457031 47.471969 25.398806 47.703125 25.283203 C 47.938716 25.1676 48.218008 24.948482 48.539062 24.623047 L 48.539062 21.289062 C 48.539062 20.955077 48.475783 20.730848 48.351562 20.615234 C 48.231629 20.495348 47.97906 20.430442 47.59375 20.421875 L 47.59375 20.183594 L 49.597656 20.183594 L 49.597656 23.748047 C 49.597656 24.428871 49.612594 24.847804 49.642578 25.001953 C 49.676846 25.151824 49.72834 25.256463 49.796875 25.316406 C 49.869694 25.37635 49.952639 25.40625 50.046875 25.40625 C 50.179662 25.40625 50.331093 25.369669 50.498047 25.296875 L 50.587891 25.521484 L 48.828125 26.248047 L 48.539062 26.248047 L 48.539062 25.001953 C 48.033794 25.550038 47.648287 25.893852 47.382812 26.035156 C 47.117317 26.17646 46.836449 26.248047 46.541016 26.248047 C 46.21129 26.248047 45.92374 26.153241 45.679688 25.964844 C 45.439813 25.772163 45.273794 25.526304 45.179688 25.226562 C 45.085451 24.926835 45.037109 24.503165 45.037109 23.955078 L 45.037109 21.328125 C 45.037109 21.049801 45.007234 20.857049 44.947266 20.75 C 44.887297 20.642964 44.797671 20.561544 44.677734 20.505859 C 44.562081 20.445916 44.351227 20.417592 44.042969 20.421875 L 44.042969 20.183594 z M 57.099609 20.460938 C 56.744208 20.460938 56.425186 20.598629 56.142578 20.876953 C 55.864254 21.150997 55.701415 21.534924 55.654297 22.027344 L 58.378906 22.027344 C 58.358749 21.650535 58.313936 21.384618 58.244141 21.230469 C 58.137054 20.99067 57.975791 20.803026 57.761719 20.666016 C 57.551829 20.528995 57.33074 20.460937 57.099609 20.460938 z "
       transform="matrix(0.26458333,0,0,0.26458333,-127,-80.886909)" />
    <text
       id="text856"
       y="-78.430061"
       x="-113.25111"
       style="font-size:2.64583333px;line-height:0.5;font-family:Garamond;-inkscape-font-specification:Garamond;text-align:center;text-anchor:middle;stroke-width:0.264583;"
       xml:space="preserve"><tspan
         style="stroke-width:0.264583;font-size:2.64583333px;"
         y="-78.430061"
         x="-113.25111"
         id="tspan854"
         sodipodi:role="line" /></text>
    <text
       id="text860"
       y="-68.20108"
       x="-121.42485"
       style="font-size:7.9375px;line-height:0.5;font-family:Garamond;-inkscape-font-specification:Garamond;text-align:center;text-anchor:middle;stroke-width:0.264583"
       xml:space="preserve"><tspan
         style="stroke-width:0.264583"
         y="-68.20108"
         x="-121.42485"
         id="tspan858"
         sodipodi:role="line" /></text>
    <text
       id="text864"
       y="-77.296135"
       x="-117.43248"
       style="font-size:2.64583px;line-height:0.5;font-family:Garamond;-inkscape-font-specification:Garamond;text-align:center;text-anchor:middle;stroke-width:0.264583;fill:#00ffff;"
       xml:space="preserve"><tspan
         style="stroke-width:0.264583;fill:#00ffff;"
         y="-77.296135"
         x="-117.43248"
         id="tspan862"
         sodipodi:role="line" /></text>
  </g>
</svg>
