<?xml version="1.0" encoding="UTF-8" standalone="no"?>
<!-- Created with Inkscape (http://www.inkscape.org/) -->

<svg
   xmlns:dc="http://purl.org/dc/elements/1.1/"
   xmlns:cc="http://creativecommons.org/ns#"
   xmlns:rdf="http://www.w3.org/1999/02/22-rdf-syntax-ns#"
   xmlns:svg="http://www.w3.org/2000/svg"
   xmlns="http://www.w3.org/2000/svg"
   xmlns:sodipodi="http://sodipodi.sourceforge.net/DTD/sodipodi-0.dtd"
   xmlns:inkscape="http://www.inkscape.org/namespaces/inkscape"
   width="71mm"
   height="71mm"
   viewBox="0 0 71 71"
   version="1.1"
   id="svg8"
   inkscape:version="0.92.4 (5da689c313, 2019-01-14)"
   sodipodi:docname="Octocat-white.svg">
  <defs
     id="defs2" />
  <sodipodi:namedview
     id="base"
     pagecolor="#ff1414"
     bordercolor="#666666"
     borderopacity="1.0"
     inkscape:pageopacity="0"
     inkscape:pageshadow="2"
     inkscape:zoom="2.56"
     inkscape:cx="103.56999"
     inkscape:cy="104.56324"
     inkscape:document-units="mm"
     inkscape:current-layer="layer1"
     showgrid="false"
     inkscape:pagecheckerboard="false"
     fit-margin-top="0"
     fit-margin-left="0"
     fit-margin-right="0"
     fit-margin-bottom="0"
     inkscape:lockguides="true"
     inkscape:window-width="1920"
     inkscape:window-height="1017"
     inkscape:window-x="-8"
     inkscape:window-y="-8"
     inkscape:window-maximized="1" />
  <metadata
     id="metadata5">
    <rdf:RDF>
      <cc:Work
         rdf:about="">
        <dc:format>image/svg+xml</dc:format>
        <dc:type
           rdf:resource="http://purl.org/dc/dcmitype/StillImage" />
        <dc:title></dc:title>
      </cc:Work>
    </rdf:RDF>
  </metadata>
  <g
     inkscape:label="Layer 1"
     inkscape:groupmode="layer"
     id="layer1"
     transform="translate(-68.54356,-123.41577)">
    <g
       id="g4903"
       transform="translate(0.25699741,-7.7719906)">
      <ellipse
         ry="14.987035"
         rx="20.118191"
         cy="157.98277"
         cx="103.5073"
         id="path4884"
         style="opacity:1;fill:#f4cab2;fill-opacity:1;stroke:none;stroke-width:0.55062443;stroke-linejoin:round;stroke-miterlimit:4;stroke-dasharray:none;stroke-dashoffset:0;stroke-opacity:1" />
      <path
         sodipodi:nodetypes="sccccsccccc"
         inkscape:connector-curvature="0"
         id="path4758"
         transform="scale(0.26458333)"
         d="m 388.7832,533.92969 c -21.8113,0.46054 -44.04178,7.78439 -63.26172,23.15625 -26.63549,26.96827 -15.35081,61.94225 -0.75781,78.28711 17.22734,25.73291 120.14829,31.97209 136.87695,-3.78711 5.89452,-12.88997 18.52021,-46.03237 -5.30468,-74.5 -18.65239,-15.38453 -42.83326,-23.6782 -67.55274,-23.15625 z m -33.71484,50.68359 c 18.58736,0.32925 23.92517,2.5271 76.01367,0 19.80665,7.25839 26.51008,31.3034 12.50205,53.03262 -24.95493,16.34905 -86.59197,10.39116 -97.79575,3.15752 -18.55777,-14.67901 -22.83133,-46.90803 9.28003,-56.19014 z"
         style="fill:#ffffff;stroke:#000000;stroke-width:0.99999994px;stroke-linecap:butt;stroke-linejoin:miter;stroke-opacity:1" />
      <path
         sodipodi:nodetypes="cccc"
         inkscape:connector-curvature="0"
         id="path4764"
         d="m 120.73901,147.39588 c 0.3429,-2.96312 0.39254,-5.85203 -1.02588,-8.63901 -3.5724,0.32247 -5.4416,1.52438 -8.99673,3.49407 4.58999,1.29861 7.55662,3.13833 10.02261,5.14494 z"
         style="fill:#ffffff;stroke:#000000;stroke-width:0.26458332px;stroke-linecap:butt;stroke-linejoin:miter;stroke-opacity:1" />
      <path
         sodipodi:nodetypes="ccccc"
         inkscape:connector-curvature="0"
         id="path4766"
         d="m 86.127602,147.3959 c 3.125714,-2.57509 6.183575,-3.9288 9.220801,-4.9111 -3.172083,-2.36137 -6.26029,-3.6743 -9.254207,-3.80859 -1.267503,4.37074 -1.052359,8.20384 0.03341,8.71969 z"
         style="fill:#ffffff;stroke:#000000;stroke-width:0.26458332px;stroke-linecap:butt;stroke-linejoin:miter;stroke-opacity:1" />
      <path
         sodipodi:nodetypes="ccc"
         inkscape:connector-curvature="0"
         id="path4770"
         d="m 123.45647,163.99962 c 4.70903,-0.24872 9.0936,0.0123 15.26079,0.8977 l 0.0472,0.14174"
         style="fill:none;stroke:#000000;stroke-width:0.26458332px;stroke-linecap:butt;stroke-linejoin:miter;stroke-opacity:1" />
      <path
         sodipodi:nodetypes="cccc"
         inkscape:connector-curvature="0"
         id="path4772"
         d="m 138.39465,167.73214 c -6.03583,-1.57111 -10.13289,-2.16792 -15.59152,-2.17336 v 0 0"
         style="fill:none;stroke:#000000;stroke-width:0.26458332px;stroke-linecap:butt;stroke-linejoin:miter;stroke-opacity:1" />
      <path
         sodipodi:nodetypes="ccc"
         inkscape:connector-curvature="0"
         id="path4774"
         d="m 83.356298,164.02546 c -5.100756,0.0211 -9.550044,-0.21534 -14.659125,0.96635 l -0.0945,-0.0472"
         style="fill:none;stroke:#000000;stroke-width:0.26458332px;stroke-linecap:butt;stroke-linejoin:miter;stroke-opacity:1" />
      <path
         sodipodi:nodetypes="cc"
         inkscape:connector-curvature="0"
         id="path4776"
         d="m 84.077554,165.41704 c -4.590543,0.37362 -8.636441,0.562 -15.285888,2.26785"
         style="fill:none;stroke:#000000;stroke-width:0.26458332px;stroke-linecap:butt;stroke-linejoin:miter;stroke-opacity:1" />
      <path
         sodipodi:nodetypes="cccccccccccccccccccccccccccccccc"
         inkscape:connector-curvature="0"
         id="path4778"
         d="m 110.21576,173.29699 c 1.78988,1.87917 1.59012,2.77987 1.77017,3.46513 l 0.20045,11.39236 c 0.45065,1.32219 0.97633,1.68445 2.07134,2.37202 0.5823,1.18309 -0.52349,1.10308 -1.23612,1.06908 -2.93184,-0.618 -3.82826,-1.75228 -4.14268,-3.67496 l -0.13363,-8.75308 c -0.10997,-0.71411 -0.42523,-1.22293 -1.06908,-1.40316 v 13.43029 c 3.50416,4.39252 -0.56518,3.31057 -2.33861,1.57021 -0.36864,-0.48059 -1.27868,-0.92602 -1.1693,-1.9377 l 0.0334,-13.66416 c 0.0101,-0.27127 -0.65331,-0.64755 -1.06907,0 l 0.0334,13.73097 c 0.26139,1.82024 -5.1867,5.07614 -4.877672,2.2718 0.411334,-0.93067 0.899016,-1.1742 1.369756,-1.57021 l -0.06682,-13.86461 -0.267269,0.16705 c -0.507608,0.44778 -0.761889,1.02222 -0.734991,1.73725 l -0.03341,8.58603 c -0.723262,2.35284 -1.008603,2.1774 -2.672696,3.10701 -1.045994,0.51965 -2.227709,0.42585 -3.006781,0.23386 -1.323894,-0.84007 2.070442,-1.64431 2.605878,-3.20724 l -0.133637,-7.34991 c -1.16798,0.15715 -2.544725,0.65848 -5.472761,0.0825 -4.142359,-0.89354 -4.766614,-4.45274 -6.320507,-6.6974 -3.571658,-2.3528 -3.111677,-1.90585 -2.839739,-2.3052 2.694457,-1.71075 5.507964,1.76412 6.815373,3.67496 1.237749,1.68044 4.140871,2.51904 7.884451,1.23612 0.111038,-1.26083 0.566794,-2.3807 2.180452,-3.82818 5.299403,0.71775 9.839103,0.5448 12.620103,0.12918 z"
         style="fill:#ffffff;stroke:#000000;stroke-width:0.26458332px;stroke-linecap:butt;stroke-linejoin:miter;stroke-opacity:1" />
      <path
         sodipodi:nodetypes="ccccc"
         inkscape:connector-curvature="0"
         id="path4803"
         d="m 101.85425,168.29983 c 0.77854,1.38256 2.1021,2.28188 3.3848,-0.0517 l 0.0517,-0.0258 v 0 h 0.0517"
         style="fill:none;fill-opacity:1;stroke:#ac5a4e;stroke-width:0.465;stroke-linecap:butt;stroke-linejoin:miter;stroke-miterlimit:4;stroke-dasharray:none;stroke-opacity:1" />
      <ellipse
         ry="4.7494211"
         rx="3.0502756"
         cy="162.35704"
         cx="95.063377"
         id="path4786-4"
         style="opacity:1;fill:#ffffff;fill-opacity:1;stroke:#ffffff;stroke-width:0.294;stroke-linejoin:round;stroke-miterlimit:4;stroke-dasharray:none;stroke-dashoffset:0;stroke-opacity:1" />
      <ellipse
         ry="3.2671883"
         rx="2.2527552"
         cy="162.38036"
         cx="95.297279"
         id="path4786-2"
         style="opacity:1;fill:#ac5a4e;fill-opacity:1;stroke:#c00000;stroke-width:0.20999999;stroke-linejoin:round;stroke-miterlimit:4;stroke-dasharray:none;stroke-dashoffset:0;stroke-opacity:0" />
      <ellipse
         ry="4.7494216"
         rx="3.0502756"
         cy="162.27954"
         cx="112.52542"
         id="path4786-4-2"
         style="opacity:1;fill:#ffffff;fill-opacity:1;stroke:#ffffff;stroke-width:0.294;stroke-linejoin:round;stroke-miterlimit:4;stroke-dasharray:none;stroke-dashoffset:0;stroke-opacity:1" />
      <ellipse
         ry="3.2671885"
         rx="2.2527552"
         cy="162.35875"
         cx="112.26801"
         id="path4786-2-2"
         style="opacity:1;fill:#ac5a4e;fill-opacity:1;stroke:#c00000;stroke-width:0.20999999;stroke-linejoin:round;stroke-miterlimit:4;stroke-dasharray:none;stroke-dashoffset:0;stroke-opacity:0" />
      <ellipse
         ry="0.63835472"
         rx="0.61551678"
         cy="160.98616"
         cx="111.60918"
         id="path4850"
         style="opacity:1;fill:#ffffff;fill-opacity:0.97536801;stroke:#c00000;stroke-width:0.26702818;stroke-linejoin:round;stroke-miterlimit:4;stroke-dasharray:none;stroke-dashoffset:0;stroke-opacity:0" />
      <ellipse
         ry="0.63835472"
         rx="0.61551678"
         cy="160.93596"
         cx="94.387009"
         id="path4850-9"
         style="opacity:1;fill:#ffffff;fill-opacity:0.97536801;stroke:#c00000;stroke-width:0.26702818;stroke-linejoin:round;stroke-miterlimit:4;stroke-dasharray:none;stroke-dashoffset:0;stroke-opacity:0" />
      <ellipse
         ry="0.84043729"
         rx="0.8495726"
         cy="166.45815"
         cx="103.56564"
         id="path4882"
         style="opacity:1;fill:#ac5a4e;fill-opacity:1;stroke:none;stroke-width:0.28625005;stroke-linejoin:round;stroke-miterlimit:4;stroke-dasharray:none;stroke-dashoffset:0;stroke-opacity:1" />
    </g>
    <g
       id="g5033"
       transform="translate(-0.43848907,0.09067756)">
      <ellipse
         ry="0.44305664"
         rx="0.67143637"
         cy="171.29004"
         cx="93.176605"
         id="path4916"
         style="opacity:1;fill:none;fill-opacity:1;stroke:#000000;stroke-width:0.1;stroke-linejoin:round;stroke-miterlimit:4;stroke-dasharray:none;stroke-dashoffset:0;stroke-opacity:1" />
      <ellipse
         ry="0.44305664"
         rx="0.67143637"
         cy="171.28632"
         cx="91.045006"
         id="path4916-5"
         style="opacity:1;fill:none;fill-opacity:1;stroke:#000000;stroke-width:0.1;stroke-linejoin:round;stroke-miterlimit:4;stroke-dasharray:none;stroke-dashoffset:0;stroke-opacity:1" />
      <ellipse
         transform="rotate(33.712852)"
         ry="0.44305664"
         rx="0.67143637"
         cy="92.44828"
         cx="168.78488"
         id="path4916-5-7"
         style="opacity:1;fill:none;fill-opacity:1;stroke:#000000;stroke-width:0.1;stroke-linejoin:round;stroke-miterlimit:4;stroke-dasharray:none;stroke-dashoffset:0;stroke-opacity:1" />
      <ellipse
         transform="rotate(41.252286)"
         ry="0.44305664"
         rx="0.67143637"
         cy="69.532013"
         cx="177.42763"
         id="path4916-5-7-0"
         style="opacity:1;fill:none;fill-opacity:1;stroke:#000000;stroke-width:0.1;stroke-linejoin:round;stroke-miterlimit:4;stroke-dasharray:none;stroke-dashoffset:0;stroke-opacity:1" />
      <ellipse
         transform="rotate(49.070332)"
         ry="0.44305664"
         rx="0.67143637"
         cy="44.642097"
         cx="183.20943"
         id="path4916-5-7-0-4"
         style="opacity:1;fill:none;fill-opacity:1;stroke:#000000;stroke-width:0.1;stroke-linejoin:round;stroke-miterlimit:4;stroke-dasharray:none;stroke-dashoffset:0;stroke-opacity:1" />
      <ellipse
         transform="matrix(0.6792991,0.73386152,-0.72194907,0.6919462,0,0)"
         ry="0.33615914"
         rx="0.5107047"
         cy="50.518139"
         cx="179.03218"
         id="path4916-5-7-0-4-4"
         style="opacity:1;fill:none;fill-opacity:1;stroke:#000000;stroke-width:0.07596707;stroke-linejoin:round;stroke-miterlimit:4;stroke-dasharray:none;stroke-dashoffset:0;stroke-opacity:1" />
      <ellipse
         transform="matrix(0.73701829,0.6758728,-0.77570443,0.63109637,0,0)"
         ry="0.30177268"
         rx="0.4540225"
         cy="65.835175"
         cx="183.16016"
         id="path4916-5-7-0-4-4-0"
         style="opacity:1;fill:none;fill-opacity:1;stroke:#000000;stroke-width:0.06786513;stroke-linejoin:round;stroke-miterlimit:4;stroke-dasharray:none;stroke-dashoffset:0;stroke-opacity:1" />
    </g>
  </g>
</svg>
