<?xml version="1.0" encoding="UTF-8" standalone="no"?>
<svg
   xmlns:dc="http://purl.org/dc/elements/1.1/"
   xmlns:cc="http://creativecommons.org/ns#"
   xmlns:rdf="http://www.w3.org/1999/02/22-rdf-syntax-ns#"
   xmlns:svg="http://www.w3.org/2000/svg"
   xmlns="http://www.w3.org/2000/svg"
   xmlns:sodipodi="http://sodipodi.sourceforge.net/DTD/sodipodi-0.dtd"
   xmlns:inkscape="http://www.inkscape.org/namespaces/inkscape"
   sodipodi:docname="x-wing-black.svg"
   inkscape:version="1.0 (4035a4fb49, 2020-05-01)"
   id="svg8"
   version="1.1"
   viewBox="0 0 162 162"
   height="162mm"
   width="162mm">
  <defs
     id="defs2" />
  <sodipodi:namedview
     inkscape:document-rotation="0"
     inkscape:window-maximized="1"
     inkscape:window-y="-9"
     inkscape:window-x="-9"
     inkscape:window-height="1001"
     inkscape:window-width="1920"
     fit-margin-bottom="0"
     fit-margin-right="0"
     fit-margin-left="0"
     fit-margin-top="0"
     showgrid="false"
     inkscape:current-layer="layer1"
     inkscape:document-units="mm"
     inkscape:cy="314.08375"
     inkscape:cx="449.71484"
     inkscape:zoom="0.7"
     inkscape:pageshadow="2"
     inkscape:pageopacity="0"
     borderopacity="1.0"
     bordercolor="#666666"
     pagecolor="#4b4b4b"
     id="base" />
  <metadata
     id="metadata5">
    <rdf:RDF>
      <cc:Work
         rdf:about="">
        <dc:format>image/svg+xml</dc:format>
        <dc:type
           rdf:resource="http://purl.org/dc/dcmitype/StillImage" />
        <dc:title></dc:title>
      </cc:Work>
    </rdf:RDF>
  </metadata>
  <g
     transform="translate(-27.701967,-104.81495)"
     id="layer1"
     inkscape:groupmode="layer"
     inkscape:label="Layer 1">
    <g
       transform="translate(-0.00537238,30.441866)"
       id="g4818">
      <path
         style="fill:#ffffff;stroke-width:0.264583"
         d="m 133.92106,208.11852 c 0.191,-0.0764 0.4192,-0.067 0.50712,0.0209 0.0879,0.0879 -0.0683,0.15045 -0.34727,0.13896 -0.30822,-0.0127 -0.37091,-0.0754 -0.15985,-0.15985 z m 20.37292,0 c 0.191,-0.0764 0.4192,-0.067 0.50712,0.0209 0.0879,0.0879 -0.0684,0.15045 -0.34727,0.13896 -0.30823,-0.0127 -0.37092,-0.0754 -0.15985,-0.15985 z m 11.07544,-5.48432 c -0.0788,-0.20537 -0.22768,-1.81615 -0.33082,-3.57951 l -0.18754,-3.20611 -0.48734,0.80138 c -0.26805,0.44075 -0.56435,0.80138 -0.65845,0.80138 -0.34827,0 -1.95335,-1.1101 -1.95335,-1.35097 0,-0.28155 1.99572,-3.55926 2.6028,-4.27477 0.34569,-0.40744 0.35631,-1.15979 0.0841,-5.95313 -0.1714,-3.01771 -0.38943,-7.62369 -0.4845,-10.23551 l -0.17286,-4.74874 -0.86975,-0.86975 c -1.1417,-1.1417 -1.2891,-2.09455 -0.92204,-5.96072 0.16683,-1.75736 0.27089,-3.22374 0.23124,-3.25862 -0.23877,-0.21001 -21.42663,-10.7082 -21.61172,-10.7082 -0.12473,0 -0.28905,0.23812 -0.36516,0.52916 -0.17972,0.68723 -0.50898,0.66686 -4.26795,-0.26399 l -3.15399,-0.78101 -1.79556,1.45075 c -2.75521,2.2261 -3.43644,2.55759 -5.25621,2.55759 -4.41103,0 -7.0617,-4.89538 -4.63568,-8.56136 0.37,-0.5591 0.55902,-1.01656 0.42001,-1.01656 -0.139,0 -0.3263,0.11906 -0.41624,0.26458 -0.0904,0.1462 -1.28249,0.26459 -2.66423,0.26459 h -2.50072 l -5.48732,2.81247 c -3.01802,1.54687 -7.51137,3.85263 -9.98524,5.1239 -2.473846,1.27128 -7.950726,4.07548 -12.170826,6.23157 -9.26173,4.7319 -8.78006,4.46112 -13.065103,7.3443 -4.587539,3.08671 -8.776607,5.13033 -13.899546,6.78084 -9.94551,3.20425 -19.95755,5.69921 -24.099935,6.00563 l -2.116657,0.15657 -2.645833,-1.39907 c -3.890889,-2.05744 -4.189456,-2.23292 -4.284527,-2.51813 -0.164731,-0.49419 4.342028,-5.80954 7.615408,-8.98176 4.347773,-4.21337 7.436567,-6.59663 13.734744,-10.59744 0.509323,-0.32354 2.347656,-1.32344 4.085185,-2.222 3.104617,-1.60555 3.178449,-1.62835 4.277597,-1.3206 1.086948,0.30433 1.19448,0.27452 3.817806,-1.05837 1.484645,-0.75434 3.310196,-1.70112 4.056776,-2.10396 0.746589,-0.40285 2.667114,-1.42078 4.267843,-2.26204 1.60073,-0.84128 3.98198,-2.09473 5.29167,-2.78544 1.309682,-0.69072 3.512342,-1.8504 4.894792,-2.57708 3.97064,-2.08717 8.22816,-4.33136 9.525,-5.02074 0.65484,-0.34811 1.17768,-0.71583 1.16186,-0.81715 -0.0469,-0.30071 -0.42528,-1.37485 -0.48425,-1.37485 -0.0299,0 -2.06988,-0.29741 -4.53321,-0.66092 -2.46333,-0.36352 -4.50854,-0.66117 -4.54492,-0.66146 -0.0364,-2.6e-4 -0.0661,0.15604 -0.0661,0.34741 0,0.19137 -0.74414,0.60204 -1.65365,0.91259 -3.804115,1.29891 -8.622632,2.69223 -9.869344,2.85382 -1.193689,0.15471 -1.425495,0.0984 -2.168924,-0.52719 l -0.83239,-0.70041 -1.799825,0.51494 c -0.989905,0.28322 -3.942951,1.01198 -6.562326,1.61949 -2.619375,0.6075 -6.607969,1.55499 -8.863542,2.10553 -2.255573,0.55054 -5.065777,1.2231 -6.244898,1.49458 l -2.143855,0.49359 -0.300498,1.12353 c -0.165273,0.61794 -0.636051,1.49907 -1.046173,1.95807 -0.740562,0.82884 -0.751474,0.83156 -1.590543,0.39767 -0.464677,-0.24029 -0.844866,-0.47936 -0.844866,-0.53127 0,-0.0519 0.493175,-0.58754 1.095945,-1.19031 0.60277,-0.60277 1.032287,-1.15961 0.954481,-1.23741 -0.07781,-0.0778 -0.779341,0.0319 -1.558967,0.24383 -6.451592,1.75364 -8.312977,1.97834 -8.625351,1.04122 -0.115367,-0.3461 0.445674,-0.52991 5.877043,-1.92538 2.323994,-0.59711 4.288525,-1.14908 4.365625,-1.2266 0.0771,-0.0775 -0.306302,-0.49942 -0.852005,-0.93755 -1.871385,-1.50247 -0.933503,-1.80458 1.006067,-0.32407 0.832816,0.6357 1.430835,0.90685 1.806204,0.81895 0.822576,-0.19262 8.340922,-2.15116 11.409083,-2.97207 5.439188,-1.45531 6.432643,-1.71342 9.854483,-2.56021 2.586104,-0.63997 3.504811,-0.97315 3.505729,-1.27139 0.0024,-0.79239 0.836928,-1.58316 1.972387,-1.86908 0.960287,-0.2418 1.172535,-0.41442 1.301324,-1.05837 0.115464,-0.57731 0.304191,-0.77037 0.755817,-0.77318 0.33106,-0.002 1.852083,-0.42153 3.380052,-0.93217 1.527969,-0.51064 3.194847,-0.99349 3.704167,-1.07299 0.50932,-0.0795 3.18823,0.0453 5.95312,0.27721 4.5473,0.38151 15.8889,1.19377 16.755486,1.2 0.19322,0.001 -0.119596,-0.5484 -0.695156,-1.22175 -1.1016,-1.28876 -1.35309,-1.43864 -9.71481,-5.78986 -2.76243,-1.4375 -6.57041,-3.42124 -8.46218,-4.40831 -1.89177,-0.98707 -4.7785,-2.482 -6.414944,-3.32206 -1.636445,-0.84005 -2.975899,-1.6762 -2.976563,-1.8581 -5.29e-4,-0.1819 -0.235185,-0.33073 -0.521163,-0.33073 -0.28598,0 -0.921977,-0.35298 -1.41333,-0.78439 l -0.893399,-0.78439 -13.922891,-0.18416 -13.922893,-0.18415 -0.248168,0.65273 c -0.307075,0.80767 -1.575975,2.34269 -1.936543,2.34269 -0.340239,0 -1.803922,-1.0359 -1.801224,-1.27479 0.0011,-0.0992 0.507137,-0.47807 1.124479,-0.84188 l 1.122442,-0.66145 -5.159375,-0.16326 c -2.837657,-0.0898 -5.367735,-0.17909 -5.622396,-0.19844 -0.330261,-0.0251 -0.463021,-0.26277 -0.463021,-0.82893 v -0.79375 h 5.820833 c 3.201459,0 5.820834,-0.0643 5.820834,-0.14283 0,-0.3418 -1.056977,-2.1725 -1.435871,-2.48695 -0.654831,-0.54346 -0.498479,-0.8877 0.311392,-0.68558 0.999241,0.24938 1.544482,0.79687 2.077652,2.08622 l 0.453565,1.09685 13.623336,-0.0732 13.623335,-0.0732 0.891688,-0.78291 c 0.490429,-0.43061 1.21693,-0.86538 1.614443,-0.96617 0.648255,-0.16435 11.611512,0.54925 13.320852,0.86706 2.00153,0.37214 2.42126,2.34753 0.86486,4.07028 -0.52625,0.58251 -0.81684,1.0591 -0.64573,1.0591 0.1711,0 3.69414,1.49933 7.82898,3.33185 l 7.51788,3.33186 1.131496,-0.39814 c 0.62233,-0.21898 2.91744,-0.59823 5.10025,-0.84279 2.52479,-0.28286 4.40194,-0.63531 5.15937,-0.9687 1.7375,-0.76477 8.35772,-1.69889 8.89281,-1.25479 0.62858,0.52166 1.42698,2.25426 1.41658,3.07402 -0.0193,1.52214 -1.49801,2.98197 -3.0239,2.98536 -0.71633,0.002 -0.7479,0.0381 -0.36431,0.42173 0.38361,0.3836 0.55822,0.38121 2.01521,-0.0276 l 1.59521,-0.44759 3.92847,1.21696 c 2.16067,0.66933 4.05342,1.38623 4.20614,1.59312 0.23469,0.31793 0.47688,0.27517 1.56469,-0.27627 0.70788,-0.35883 1.64061,-0.94993 2.07277,-1.31357 1.03786,-0.87329 2.33494,-1.49455 4.36241,-2.08943 1.64134,-0.48159 1.67229,-0.48102 2.38125,0.0441 1.05995,0.78513 1.90891,2.16803 1.90891,3.10949 0,1.11551 -0.63841,2.02054 -2.17393,3.08181 -0.42899,0.29649 0.54574,2.01697 1.30211,2.29832 2.63349,0.97962 3.77117,1.38423 4.67512,1.66268 0.58029,0.17874 1.07877,0.52078 1.1487,0.78816 0.12908,0.49362 0.11713,0.49074 6.55738,1.58377 13.74642,2.33304 19.23255,3.21066 19.34807,3.09513 0.0574,-0.0575 -0.0712,-0.60246 -0.28601,-1.21114 -0.48632,-1.37839 -0.25478,-2.0678 1.05787,-3.1498 1.3902,-1.14592 2.52089,-1.29647 4.04732,-0.53891 1.1438,0.56766 1.34713,0.83448 2.81797,3.69774 l 1.58521,3.08593 -0.57119,1.17568 -0.57119,1.17568 1.43309,3.54361 c 0.78819,1.94898 1.43585,3.60312 1.43925,3.67588 0.003,0.0728 0.22513,-0.15246 0.49274,-0.50052 l 0.48655,-0.6328 1.88881,0.46287 c 1.03885,0.25457 1.88881,0.57261 1.88881,0.70673 0,0.13413 -0.46641,0.83392 -1.03646,1.55507 -0.57004,0.72117 -1.11551,1.67122 -1.21215,2.1112 -0.0966,0.44 -0.28508,0.7324 -0.41876,0.64977 -0.35659,-0.22039 -0.35526,-0.21661 1.05775,2.97984 0.71545,1.61844 1.23138,3.01206 1.14653,3.0969 -0.0849,0.0849 -0.5483,0.15428 -1.0299,0.15428 -0.74475,0 -0.95188,-0.14831 -1.38579,-0.99218 l -0.51016,-0.99219 -0.18968,1.00616 c -0.18122,0.9613 -0.22661,0.99859 -1.01751,0.8362 -0.45531,-0.0935 -1.24456,-0.36766 -1.75387,-0.60929 -0.86921,-0.41237 -0.92269,-0.51126 -0.87123,-1.61134 0.0301,-0.64459 0.30201,-1.98589 0.60417,-2.98066 l 0.54936,-1.80868 -2.19167,-4.21021 -2.19168,-4.21024 -2.91042,-0.40837 c -1.60072,-0.22461 -4.87495,-0.6546 -7.27604,-0.95554 -2.40109,-0.30095 -6.15156,-0.78414 -8.33437,-1.07376 -2.18282,-0.28962 -5.75469,-0.7591 -7.9375,-1.04328 -2.18282,-0.28419 -5.33797,-0.69712 -7.01145,-0.91764 -3.67969,-0.48488 -9.99404,-1.18959 -10.6905,-1.19311 -0.47478,-0.002 -0.47815,0.026 -0.0583,0.48997 0.24515,0.27089 0.91871,0.70581 1.49682,0.9665 0.99308,0.44782 1.07876,0.44896 1.55206,0.0206 0.47879,-0.4333 0.65733,-0.36053 4.03429,1.64434 4.56957,2.71292 10.00258,5.91301 10.67708,6.28892 0.29105,0.1622 2.19605,1.28012 4.23333,2.48426 2.03729,1.20416 4.06135,2.39685 4.49792,2.65041 5.52686,3.21019 9.3585,5.61919 9.49232,5.9679 0.0909,0.23677 0.24107,1.58841 0.33382,3.00368 0.19338,2.95068 -0.0776,3.87961 -1.05988,3.63308 -0.57071,-0.14323 -0.57941,-0.10737 -0.41333,1.70443 0.0933,1.01793 0.11398,2.14196 0.0459,2.49787 -0.12406,0.64897 -1.25967,1.983 -1.68806,1.983 -0.12569,0 -0.22851,4.28625 -0.22851,9.525 0,8.87699 0.0313,9.525 0.46074,9.525 0.55251,0 3.24342,1.8063 3.24342,2.17719 0,0.14337 -0.20835,0.18006 -0.46302,0.0815 -0.97953,-0.37895 -1.81351,-0.43465 -2.51353,-0.16787 l -0.72761,0.27728 v 5.5628 5.56281 h -0.76545 c -0.42099,0 -0.82992,-0.16805 -0.90873,-0.37341 z"
         id="path4780-9"
         inkscape:connector-curvature="0" />
      <path
         style="fill:#000000;stroke-width:0.265928"
         d="m 134.01382,208.57466 c 0.19195,-0.0768 0.4213,-0.0674 0.50965,0.021 0.0883,0.0883 -0.0686,0.15122 -0.349,0.13967 -0.30976,-0.0127 -0.37277,-0.0758 -0.16065,-0.16068 z m 20.47464,0 c 0.19195,-0.0768 0.42129,-0.0674 0.50965,0.021 0.0883,0.0883 -0.0687,0.15122 -0.349,0.13967 -0.30976,-0.0127 -0.37277,-0.0758 -0.16065,-0.16068 z m 11.01362,-6.46709 c 0,-0.51197 0.0548,-0.72141 0.12161,-0.46542 0.0669,0.25598 0.0669,0.67484 0,0.93082 -0.0669,0.25598 -0.12161,0.0466 -0.12161,-0.4654 z m 0.61101,-0.0665 c -0.19244,-1.11546 -1.4704,-29.06243 -1.4704,-32.15528 v -2.3519 h 0.90184 c 0.73145,0 0.93225,0.12121 1.06283,0.64154 0.27107,1.08025 0.17751,34.72998 -0.0966,34.72998 -0.13672,0 -0.31568,-0.38896 -0.3977,-0.86434 z m -0.88737,-3.8406 c -0.0554,-2.06667 -0.3224,-2.53891 -0.93833,-1.6594 -0.32613,0.46571 -0.4849,0.50939 -0.94885,0.26104 -0.30646,-0.16403 -0.55719,-0.3373 -0.55719,-0.38503 0,-0.13227 2.12513,-3.97031 2.28926,-4.13448 0.0791,-0.079 0.12146,0.693 0.0943,1.71568 -0.0272,1.02268 0.0299,2.05155 0.12671,2.28636 0.0969,0.23482 0.13327,1.19224 0.0808,2.12761 l -0.0954,1.70067 z m -2.05626,-0.75814 c -0.49648,-0.3975 -0.49088,-0.40246 0.11874,-0.10499 0.55652,0.27157 0.70786,0.23021 1.16274,-0.31777 l 0.52293,-0.62996 -0.38778,0.6503 c -0.4988,0.83648 -0.7761,0.91526 -1.41663,0.40242 z m -1.09652,-0.80465 c -0.0879,-0.22924 -0.0543,-0.52245 0.0748,-0.65159 0.13571,-0.13572 0.23473,0.0402 0.23473,0.41681 0,0.75501 -0.0852,0.81961 -0.30955,0.23478 z m 8.41964,-4.62793 c 0,-0.14167 -0.14957,-0.22113 -0.33238,-0.17656 -0.18281,0.0446 -0.23532,0.0284 -0.1167,-0.0359 0.11863,-0.0644 -0.001,-0.36422 -0.2659,-0.66642 -0.41479,-0.47325 -0.36173,-0.46248 0.3826,0.0776 0.85975,0.62382 1.10557,1.05892 0.59828,1.05892 -0.14625,0 -0.2659,-0.11592 -0.2659,-0.25761 z m -2.65904,-0.26494 c 0,-0.14112 0.25375,-0.39241 0.56389,-0.55843 0.3303,-0.17681 0.49485,-0.19009 0.3972,-0.032 -0.0917,0.14838 -0.0164,0.33874 0.16734,0.423 0.18373,0.0842 0.0498,0.0817 -0.29754,-0.006 -0.42493,-0.10698 -0.57206,-0.0626 -0.44965,0.13543 0.1001,0.16194 0.0553,0.29444 -0.0997,0.29444 -0.15488,0 -0.2816,-0.11547 -0.2816,-0.2566 z m -2.90396,-0.43044 c 0.0128,-0.30982 0.0758,-0.37284 0.16065,-0.16068 0.0768,0.19199 0.0673,0.42136 -0.021,0.50975 -0.0883,0.0883 -0.1512,-0.0687 -0.13966,-0.34907 z m 2.77101,-0.64272 c -0.43354,-0.18633 -0.44872,-0.23202 -0.0822,-0.24725 0.24731,-0.0102 0.5236,0.10098 0.61398,0.24725 0.18897,0.30581 0.17973,0.30581 -0.5318,0 z m 0.78205,-0.4136 c -0.49565,-0.39716 -0.49238,-0.40208 0.0821,-0.12361 0.32906,0.15948 0.59828,0.3456 0.59828,0.41359 0,0.20351 -0.13789,0.14475 -0.68041,-0.28998 z m -3.75485,-4.10756 c 0,-0.95079 0.0482,-1.33974 0.10725,-0.86436 0.059,0.4754 0.059,1.25331 0,1.72869 -0.059,0.4754 -0.10725,0.0864 -0.10725,-0.86433 z m -0.25663,-5.18606 c -7.9e-4,-1.31647 0.0441,-1.88854 0.0999,-1.27129 0.0558,0.61725 0.0565,1.69434 0.002,2.39356 -0.0551,0.69921 -0.1007,0.19419 -0.10151,-1.12227 z M 33.935026,178.81705 c -0.283891,-0.23026 -0.336673,-0.32002 -0.117303,-0.19946 0.21937,0.12054 1.236453,0.28959 2.260189,0.37564 l 1.861327,0.15646 -1.744024,0.0431 c -1.242051,0.0306 -1.892603,-0.0775 -2.260189,-0.37565 z m 4.740511,-0.0315 c 0.258716,-0.0675 0.617689,-0.0631 0.797713,0.01 0.180025,0.0729 -0.03166,0.12802 -0.470387,0.12261 -0.438749,-0.005 -0.586041,-0.0651 -0.327326,-0.13245 z m -6.91408,-1.74279 c -1.789058,-0.91481 -3.253705,-1.72313 -3.25477,-1.79628 -0.007,-0.49765 3.352455,-4.43368 6.370821,-7.46365 6.04843,-6.07171 11.85556,-10.30775 19.077158,-13.91594 2.63675,-1.31742 2.924771,-1.38178 4.174429,-0.933 0.735474,0.26413 1.001486,0.18794 2.677925,-0.76691 1.023736,-0.5831 9.100577,-4.85762 17.948545,-9.49895 8.847967,-4.64132 16.352229,-8.60461 16.676148,-8.80732 0.32391,-0.20272 0.778709,-0.36857 1.010662,-0.36857 0.231952,0 2.513407,0.59116 5.069905,1.31369 l 4.64817,1.3137 4.84438,-0.64721 c 2.66442,-0.35596 5.09422,-0.70518 5.39956,-0.77604 0.48165,-0.11176 0.62248,-0.52287 1.06361,-3.10496 l 0.50846,-2.97614 1.72838,-0.34694 c 1.99151,-0.39973 4.87893,-1.40077 7.6398,-2.64864 1.08888,-0.49213 1.99073,-0.75925 2.07934,-0.61584 0.086,0.13929 -0.30431,0.46058 -0.86752,0.71397 -0.5632,0.25341 -1.19977,0.61164 -1.41458,0.79607 -0.21481,0.18445 -0.73462,0.59388 -1.15512,0.90986 -1.77703,1.33536 -2.53433,4.79669 -1.53136,6.99931 0.6913,1.51816 2.44041,3.01146 3.77789,3.22538 l 1.08971,0.17428 -0.62108,0.59411 c -0.3416,0.32676 -2.34561,1.74598 -4.45336,3.15379 l -3.83226,2.55965 h -2.37038 -2.37039 l -11.7459,6.01719 c -6.460243,3.30944 -14.797142,7.58101 -18.52646,9.49237 -3.729307,1.91133 -7.558328,4.03452 -8.508935,4.71819 -3.717807,2.6738 -11.44058,6.98125 -11.825804,6.59595 -0.06512,-0.0651 0.113132,-0.86247 0.396118,-1.77187 0.485914,-1.56152 0.492074,-1.78273 0.11079,-3.97786 -0.898835,-5.17495 -1.633606,-7.38818 -2.820874,-8.49696 -1.13716,-1.06195 -6.869941,-3.3541 -7.303716,-2.92024 -0.05859,0.0586 0.943176,0.48357 2.226059,0.94448 1.282874,0.46091 2.971131,1.20468 3.751689,1.65282 1.799279,1.03303 2.25232,2.00376 3.277483,7.02278 0.7548,3.69534 0.757664,3.7454 0.327819,5.72258 -0.238495,1.09705 -0.569148,2.08249 -0.734781,2.18986 -0.539369,0.34967 -5.778036,2.01712 -10.671417,3.39665 -7.974257,2.2481 -13.722646,3.55401 -16.884927,3.83587 -1.715372,0.15291 -1.752858,0.14156 -4.981217,-1.50923 z m 9.501585,0.0653 c 0.21938,-0.14178 0.279207,-0.2578 0.132961,-0.2578 -0.146247,0 -0.445393,0.11602 -0.664763,0.2578 -0.21937,0.1418 -0.279197,0.25781 -0.13295,0.25781 0.146246,0 0.445382,-0.11601 0.664752,-0.25781 z m 2.659051,-1.10867 c 0.277197,-0.1713 0.196094,-0.19223 -0.265911,-0.0687 -0.365617,0.0978 -0.844245,0.28878 -1.063614,0.42433 -0.277198,0.1713 -0.196095,0.19224 0.265901,0.0687 0.365626,-0.0978 0.844254,-0.28875 1.063624,-0.42432 z m 4.437968,-1.64132 c 7.878411,-3.0471 11.517792,-4.51784 11.420419,-4.61523 -0.05588,-0.0559 -1.522937,0.4529 -3.260177,1.13059 -1.737231,0.6777 -4.833806,1.88014 -6.881268,2.67208 -2.047462,0.79195 -4.081628,1.61065 -4.520377,1.81934 -1.641023,0.78057 -0.315026,0.36871 3.241403,-1.00678 z m -3.773206,-4.1796 c 4.200037,-3.70612 7.370709,-6.01194 11.307216,-8.22303 1.897759,-1.06594 3.450473,-1.99254 3.450473,-2.05909 0,-0.21223 -5.105545,2.60552 -7.327826,4.04423 -2.290118,1.48262 -7.223186,5.56079 -10.487765,8.67026 -2.311112,2.20129 -1.115602,1.25032 3.057902,-2.43237 z m 16.353115,-0.78299 c 0.21937,-0.1418 0.279197,-0.2578 0.132951,-0.2578 -0.146247,0 -0.445383,0.116 -0.664763,0.2578 -0.21937,0.14179 -0.279197,0.25781 -0.132951,0.25781 0.146247,0 0.445393,-0.11602 0.664763,-0.25781 z m 13.959982,-6.29904 c 3.36369,-1.69094 7.551685,-3.82392 9.306654,-4.73993 1.754968,-0.91604 8.87456,-4.63072 15.821314,-8.25485 13.48599,-7.03568 15.95109,-8.35727 15.59736,-8.36207 -0.24409,-0.003 -6.99581,3.43856 -25.435831,12.96661 -3.752875,1.93913 -5.830446,3.02101 -13.332132,6.94253 -1.994648,1.0427 -3.762261,1.89582 -3.928033,1.89582 -0.540717,0 -2.720531,-2.20521 -4.863462,-4.9201 -1.9464,-2.46591 -3.66939,-4.12224 -4.288164,-4.12224 -0.142136,0 0.232415,0.35564 0.832345,0.7903 0.599931,0.43465 1.879227,1.84088 2.842874,3.12492 0.963658,1.28404 2.470031,3.06706 3.347505,3.96225 l 1.59541,1.6276 -1.704817,0.72468 c -0.93765,0.39859 -2.049412,0.96179 -2.470585,1.25157 -1.66866,1.14813 0.622619,0.15778 6.679562,-2.88709 z m -27.521106,1.01706 c 0,-0.33156 -3.145708,-1.9587 -3.530811,-1.82634 -0.178638,0.0614 0.512798,0.54306 1.536534,1.07037 2.153941,1.10943 1.994277,1.0489 1.994277,0.75597 z m 1.595427,-0.97917 c 0,-0.22728 -3.278679,-1.71954 -3.722665,-1.69433 -0.21937,0.0125 0.43875,0.4266 1.462476,0.92031 1.879256,0.90631 2.260189,1.03676 2.260189,0.77402 z m 6.714086,-3.77964 c 2.595897,-1.5304 4.719799,-2.87579 4.719799,-2.98977 0,-0.28335 -4.248568,-1.97635 -4.846589,-1.9313 -0.463161,0.0349 -5.337537,2.82371 -8.434041,4.82544 l -1.500083,0.96971 2.186372,1.0489 c 1.202515,0.5769 2.120596,1.15538 2.040186,1.28549 -0.200918,0.32516 0.415796,-0.0139 5.834356,-3.20847 z m -6.448185,2.22021 c -0.511863,-0.33472 -1.409292,-0.76609 -1.994278,-0.95862 -0.584986,-0.19252 -0.904303,-0.40355 -0.709575,-0.46895 0.194727,-0.0654 1.189117,0.26606 2.209768,0.7366 1.020641,0.47052 1.925315,0.7859 2.010368,0.70082 0.08502,-0.085 -0.598504,-0.51093 -1.519027,-0.94634 -1.580211,-0.74746 -1.638008,-0.80663 -1.034891,-1.05959 5.643909,-2.36719 7.53806,-2.99977 8.580298,-2.86552 1.078106,0.13887 1.082628,0.13614 0.235048,-0.14239 -0.66413,-0.21824 -0.864194,-0.43559 -0.864194,-0.93885 0,-0.41711 0.12067,-0.60685 0.332381,-0.52261 0.182809,0.0728 0.870837,0.34289 1.528946,0.60035 1.659746,0.6493 1.841238,0.88415 0.838345,1.08476 -0.471241,0.0943 -0.795301,0.23291 -0.720127,0.30809 0.105182,0.10521 -7.762777,5.16487 -7.925224,5.0965 -0.0204,-0.009 -0.455965,-0.28952 -0.967838,-0.62425 z m -0.797713,-2.66844 c 0,-0.18847 6.561488,-3.87235 6.897166,-3.87235 0.176818,0 0.281337,0.25892 0.234274,0.58033 -0.06613,0.45191 -0.555691,0.76728 -2.212201,1.42515 -1.169983,0.46465 -2.755439,1.09934 -3.523234,1.41043 -0.767804,0.31108 -1.396005,0.51647 -1.396005,0.45644 z m 29.141984,-8.55521 c 12.903306,-6.52234 24.946005,-12.85543 24.463695,-12.86511 -0.21402,-0.004 -18.876245,9.42263 -22.893718,11.56441 -0.877485,0.46779 -3.360367,1.77493 -5.517516,2.90474 -3.401566,1.78159 -4.240092,2.28097 -3.830164,2.28097 0.05056,0 3.550526,-1.74825 7.777703,-3.88501 z m 27.602015,-10.4497 c -0.0975,-0.60952 -0.23295,-1.05244 -0.30112,-0.98426 -0.0681,0.0682 -0.0404,0.61881 0.0618,1.22361 0.10216,0.60481 0.23767,1.04773 0.30113,0.98426 0.0634,-0.0634 0.0357,-0.61409 -0.0618,-1.22361 z m -65.03689,38.62062 c 0.191954,-0.0768 0.421293,-0.0674 0.509652,0.021 0.08834,0.0883 -0.06864,0.15123 -0.349003,0.13968 -0.309759,-0.0127 -0.372772,-0.0758 -0.160649,-0.16067 z m 1.329526,-0.26596 c 0.191943,-0.0768 0.421293,-0.0674 0.509652,0.021 0.08834,0.0883 -0.06874,0.15124 -0.349004,0.13968 -0.309759,-0.0128 -0.372772,-0.0758 -0.160648,-0.16068 z m -9.387871,-0.34718 c -0.09316,-0.15076 0.01357,-0.19533 0.250214,-0.10452 0.460658,0.1768 0.544937,0.36744 0.162457,0.36744 -0.137614,0 -0.323317,-0.11832 -0.412671,-0.26292 z m 11.033155,-0.003 c 0.909167,-0.29121 1.60825,-0.29121 0.930663,0 -0.292493,0.12573 -0.771121,0.22505 -1.063614,0.22076 -0.427524,-0.006 -0.401444,-0.0496 0.132951,-0.22076 z m 121.08235,-2.92545 c 0,-1.38959 0.0448,-1.95808 0.0996,-1.26327 0.0548,0.69479 0.0548,1.83173 0,2.52654 -0.0548,0.69479 -0.0996,0.12632 -0.0996,-1.26327 z M 47.328989,176.9265 c 0.191953,-0.0768 0.421293,-0.0674 0.509652,0.021 0.08834,0.0883 -0.06874,0.15124 -0.349004,0.13968 -0.309759,-0.0128 -0.372772,-0.0758 -0.160648,-0.16068 z m -19.370516,-1.29232 c -0.276875,-0.33368 -0.275679,-0.47011 0.006,-0.73136 0.275137,-0.25479 0.302885,-0.24411 0.134237,0.0517 -0.136619,0.23957 -0.03739,0.50091 0.27772,0.73136 0.26967,0.19722 0.362431,0.35858 0.206134,0.35858 -0.156286,0 -0.437333,-0.18459 -0.624543,-0.4102 z m 23.359082,0.22853 c 0.191953,-0.0768 0.421293,-0.0674 0.509652,0.021 0.08834,0.0883 -0.06874,0.15123 -0.348994,0.13968 -0.309769,-0.0127 -0.372772,-0.0758 -0.160658,-0.16067 z m 2.65905,-0.79786 c 0.191944,-0.0768 0.421283,-0.0674 0.509642,0.021 0.08834,0.0883 -0.06864,0.15123 -0.348994,0.13968 -0.309769,-0.0127 -0.372772,-0.0758 -0.160648,-0.16068 z m 1.063614,-0.26594 c 0.191944,-0.0768 0.421293,-0.0674 0.509652,0.021 0.08834,0.0883 -0.06864,0.15123 -0.349004,0.13969 -0.309759,-0.0127 -0.372772,-0.0758 -0.160648,-0.16068 z m -26.806488,-0.45065 c 0,-0.0552 0.2094,-0.26466 0.465332,-0.46542 0.421745,-0.33079 0.431142,-0.3214 0.100398,0.10042 -0.347365,0.44301 -0.56572,0.58389 -0.56572,0.365 z m 30.263242,-0.61317 c 0.191954,-0.0768 0.421293,-0.0674 0.509652,0.021 0.08834,0.0883 -0.06874,0.15123 -0.348994,0.13968 -0.309769,-0.0128 -0.372772,-0.0758 -0.160658,-0.16068 z m -29.066667,-0.88212 c 0.264705,-0.29255 0.541108,-0.53191 0.614231,-0.53191 0.07316,0 -0.08362,0.23936 -0.34833,0.53191 -0.264705,0.29254 -0.541109,0.5319 -0.614232,0.5319 -0.07316,0 0.08362,-0.23936 0.348331,-0.5319 z m 1.661745,-1.99465 c 0.600946,-0.73136 2.443771,-2.6462 4.095176,-4.25521 2.853768,-2.78052 2.819206,-2.7344 -0.697616,0.93083 -4.774129,4.97558 -4.673026,4.87666 -3.39756,3.32438 z m 34.102386,0.66489 c 0.21938,-0.1418 0.518516,-0.25782 0.664762,-0.25782 0.146247,0 0.08643,0.11602 -0.13295,0.25782 -0.21937,0.1418 -0.518516,0.2578 -0.664763,0.2578 -0.146246,0 -0.08643,-0.116 0.132951,-0.2578 z m 2.149398,-0.8948 c 0.0609,-0.0533 0.409937,-0.23945 0.775553,-0.41361 0.62681,-0.29856 0.635296,-0.29303 0.148609,0.097 -0.423585,0.33943 -1.289065,0.63596 -0.924162,0.31665 z m 95.669505,-0.36847 c -0.33075,-0.42181 -0.32135,-0.43122 0.1004,-0.10042 0.44293,0.34743 0.58379,0.56582 0.36494,0.56582 -0.0552,0 -0.26461,-0.20944 -0.46533,-0.46541 z m 0.13994,-0.79785 c -0.53443,-0.80267 -0.58792,-2.05126 -0.25594,-5.97474 l 0.19613,-2.3179 2.59849,1.30422 c 2.49512,1.25233 2.60515,1.34454 2.76596,2.3179 0.0922,0.55753 0.16879,1.2318 0.1704,1.49841 0.003,0.45198 -0.0444,0.44749 -0.69769,-0.0666 -0.46232,-0.36372 -1.0728,-0.54609 -1.79486,-0.53619 -1.27239,0.0175 -2.87308,0.51934 -3.01154,0.94423 -0.058,0.17788 0.49679,0.0942 1.40215,-0.21148 1.23078,-0.41557 1.65928,-0.4526 2.40178,-0.20751 1.67345,0.55239 2.21557,2.20426 1.10975,3.38156 l -0.59333,0.63167 -0.27085,-1.40782 c -0.22336,-1.16096 -0.39254,-1.45031 -0.96475,-1.65007 -0.38165,-0.13324 -1.00985,-0.16293 -1.39601,-0.0661 -0.65203,0.16368 -0.7021,0.2802 -0.7021,1.63392 0,1.62684 -0.23787,1.80727 -0.95759,0.7263 z m -93.704368,0.095 c 0,-0.0575 0.185699,-0.17579 0.412668,-0.26291 0.236633,-0.0909 0.343368,-0.0463 0.25021,0.10452 -0.156155,0.25272 -0.662878,0.37379 -0.662878,0.15839 z M 168.7813,169.3177 c 0.0999,-0.26229 0.24853,-0.40989 0.33041,-0.328 0.0819,0.0819 1.6e-4,0.29648 -0.18156,0.47688 -0.26261,0.2607 -0.29315,0.23015 -0.14885,-0.14888 z m -97.736962,-0.5682 c 0,-0.0732 0.239314,-0.26109 0.531809,-0.41765 0.292495,-0.15657 0.531809,-0.22483 0.531809,-0.15169 0,0.0732 -0.239314,0.26108 -0.531809,0.41764 -0.292495,0.15658 -0.531809,0.22483 -0.531809,0.1517 z m 91.024412,-1.7474 c 0,-0.95078 0.0482,-1.33973 0.10724,-0.86435 0.059,0.47539 0.059,1.2533 0,1.72868 -0.059,0.47541 -0.10724,0.0864 -0.10724,-0.86433 z m 7.1153,0.90866 c 0.0128,-0.30982 0.0758,-0.37283 0.16065,-0.16068 0.0768,0.19198 0.0673,0.42138 -0.021,0.50975 -0.0883,0.0883 -0.15121,-0.0688 -0.13967,-0.34907 z m -0.22521,-2.50437 c 0,-0.51196 0.0548,-0.7214 0.12161,-0.46541 0.0668,0.25597 0.0668,0.67485 0,0.93083 -0.0668,0.25598 -0.12161,0.0466 -0.12161,-0.46542 z m -92.064605,-0.36636 c 0,-0.0552 0.209399,-0.26466 0.465332,-0.46542 0.421741,-0.3308 0.431145,-0.3214 0.100399,0.10042 -0.34737,0.44301 -0.565728,0.58389 -0.565728,0.36501 z m 85.427735,-1.4953 c 0,-0.65823 0.0519,-0.92751 0.11523,-0.59839 0.0634,0.32911 0.0634,0.86766 0,1.19679 -0.0634,0.32911 -0.11523,0.0598 -0.11523,-0.5984 z m -84.364118,0.69744 c 0,-0.0552 0.209399,-0.26466 0.465333,-0.4654 0.42174,-0.33082 0.431145,-0.32141 0.100399,0.1004 -0.34737,0.44301 -0.565728,0.58391 -0.565728,0.36501 z m 77.052948,-7.62364 c -11.85207,-5.943 -14.26202,-7.24283 -14.14918,-7.63154 0.0748,-0.25767 -0.13302,0.0434 -0.46182,0.66883 -0.34694,0.66005 -0.73814,1.08347 -0.93221,1.00898 -0.18391,-0.0706 -1.78329,-0.4343 -3.55416,-0.80828 l -3.21975,-0.67992 -0.68038,0.53529 c -0.37421,0.2944 -0.76384,0.53528 -0.86583,0.53528 -0.10199,0 -0.13198,-0.64482 -0.0666,-1.43294 0.20511,-2.47377 -0.8307,-4.44275 -2.88991,-5.49346 -1.36158,-0.69475 -3.52528,-0.6893 -4.83384,0.0121 -0.54626,0.29282 -0.9932,0.42301 -0.9932,0.28931 0,-0.29772 3.84825,-2.94934 4.28033,-2.94934 0.2826,0 12.72268,6.49688 27.49524,14.35949 3.21744,1.71247 7.46526,3.96339 9.4396,5.00205 1.97435,1.03867 4.2169,2.22346 4.98348,2.63288 1.34353,0.71757 1.76053,1.1592 1.06586,1.12878 -0.18282,-0.008 -6.76073,-3.23792 -14.6176,-7.1776 z m -115.874986,6.26132 c 0.343476,-0.36569 0.68434,-0.66487 0.757463,-0.66487 0.07316,0 -0.148076,0.29918 -0.491562,0.66487 -0.343476,0.36569 -0.68434,0.66488 -0.757463,0.66488 -0.07316,0 0.148075,-0.29919 0.491562,-0.66488 z m 40.417464,0.29441 c 0,-0.0575 0.185702,-0.1758 0.412669,-0.26291 0.236636,-0.0908 0.343366,-0.0463 0.250213,0.10453 -0.156155,0.25271 -0.662882,0.37377 -0.662882,0.15838 z M 165.9722,160.7889 c -2.26683,-1.21114 -8.78813,-4.66832 -14.49179,-7.6826 -5.70364,-3.01426 -11.74632,-6.20774 -13.42817,-7.0966 -1.68185,-0.88885 -4.82512,-2.54302 -6.98505,-3.67592 -3.91462,-2.05321 -3.92524,-2.06129 -3.32382,-2.52838 0.33185,-0.25772 1.04403,-0.82619 1.58262,-1.26326 0.53859,-0.43708 1.1967,-0.79542 1.46247,-0.79633 0.26577,-7.9e-4 0.83534,-0.18529 1.26572,-0.40976 0.76122,-0.39702 0.79987,-0.38588 1.42213,0.40934 0.35179,0.4496 1.23787,1.12065 1.96904,1.49123 1.24742,0.63222 1.35964,0.64642 1.81952,0.23015 0.46458,-0.42051 1.30472,0.0358 16.12767,8.75957 8.60066,5.06174 15.79937,9.30718 15.99712,9.4343 0.33037,0.21236 0.99242,4.50352 0.78608,5.09518 -0.0451,0.12935 -1.9367,-0.75577 -4.20354,-1.96692 z m -125.37391,0.89417 c 0.264705,-0.29254 0.541108,-0.5319 0.614231,-0.5319 0.07316,0 -0.08362,0.23936 -0.34833,0.5319 -0.264705,0.29255 -0.541109,0.53191 -0.614232,0.53191 -0.07316,0 0.08362,-0.23936 0.348331,-0.53191 z m 129.96134,-0.66491 c 0.003,-0.58508 0.0574,-0.79313 0.12101,-0.46231 0.0636,0.33082 0.0612,0.80952 -0.005,1.0638 -0.0665,0.25427 -0.1186,-0.0164 -0.11564,-0.60149 z m -129.030677,0.0325 c 0,-0.0552 0.209401,-0.26466 0.465332,-0.46542 0.421735,-0.3308 0.431142,-0.3214 0.100399,0.10042 -0.347376,0.44301 -0.565731,0.58389 -0.565731,0.36501 z m 43.342415,-0.5555 c 0,-0.0732 0.598283,-0.43622 1.329515,-0.80682 0.731243,-0.37062 1.329526,-0.61401 1.329526,-0.54087 0,0.0732 -0.598283,0.4362 -1.329526,0.80682 -0.731232,0.37061 -1.329515,0.614 -1.329515,0.54087 z m -42.2788,-0.24236 c 0,-0.0552 0.2094,-0.26466 0.465331,-0.4654 0.421746,-0.33082 0.431142,-0.32141 0.100399,0.1004 -0.347366,0.44301 -0.56572,0.58391 -0.56572,0.36501 z m 1.063614,-0.79785 c 0,-0.0552 0.2094,-0.26466 0.465342,-0.46541 0.421735,-0.33082 0.431142,-0.3214 0.100398,0.10042 -0.347375,0.443 -0.56573,0.58389 -0.56573,0.365 z M 87.81847,158.9265 c 0.0609,-0.0533 0.409936,-0.23944 0.775553,-0.41359 0.626814,-0.29857 0.635296,-0.29303 0.148608,0.0969 -0.423584,0.33943 -1.289064,0.63598 -0.924161,0.31665 z m 82.4292,-0.59008 c 0.0128,-0.30983 0.0758,-0.37284 0.16065,-0.16068 0.0768,0.19198 0.0673,0.42136 -0.021,0.50974 -0.0883,0.0884 -0.1512,-0.0688 -0.13965,-0.34906 z m 16.06622,-0.64272 c -0.22689,-0.43881 -0.35268,-0.79785 -0.27956,-0.79785 0.0732,0 0.31858,0.35904 0.54546,0.79785 0.22689,0.43882 0.35269,0.79786 0.27956,0.79786 -0.0732,0 -0.31857,-0.35904 -0.54546,-0.79786 z m 1.78012,0.61737 c 0.28202,-0.0744 0.39699,-0.28668 0.3073,-0.56754 -0.1184,-0.37078 -0.0958,-0.38164 0.13014,-0.0625 0.34127,0.48202 0.15115,0.82014 -0.43839,0.7797 -0.42119,-0.0289 -0.42113,-0.0384 0.001,-0.14964 z m -98.148302,-0.44838 c 0.0609,-0.0534 0.409937,-0.23944 0.775553,-0.41359 0.626814,-0.29858 0.635297,-0.29305 0.148609,0.097 -0.423585,0.33943 -1.289065,0.63596 -0.924162,0.31665 z m 96.945782,-0.50143 c -0.47113,-0.77172 -10.01721,-19.05771 -10.01721,-19.18849 0,-0.14999 1.76801,-0.95733 2.09647,-0.95733 0.36023,0 1.439,2.10876 2.29991,4.49583 0.36089,1.00065 1.97231,4.97247 3.58094,8.82624 1.60862,3.85379 2.92476,7.10031 2.92476,7.2145 0,0.42316 -0.53117,0.18859 -0.88487,-0.39075 z m -4.91184,0.0132 c -0.17549,-0.17553 -0.3028,-0.62432 -0.28288,-0.99732 l 0.0362,-0.67817 0.12223,0.66487 c 0.0672,0.36569 0.24506,0.81448 0.3952,0.99733 0.3483,0.42415 0.14979,0.43391 -0.27076,0.0132 z m 1.10709,-0.19149 c -0.81424,-0.49658 -0.8284,-0.53877 -0.59698,-1.77773 0.13038,-0.698 0.35545,-1.69536 0.50016,-2.21636 0.32093,-1.15549 0.33401,-1.59923 0.0332,-1.1245 -0.14834,0.23406 -0.21479,0.0759 -0.19536,-0.4648 0.0162,-0.45072 0.0505,-0.81977 0.0763,-0.8201 0.0257,-2.8e-4 0.69883,1.28594 1.49572,2.85836 1.07237,2.11605 1.39328,2.99721 1.23491,3.39088 -0.17293,0.42985 -0.22159,0.35332 -0.25366,-0.39893 -0.0411,-0.9643 -0.10474,-0.90838 -0.37836,0.33245 -0.19246,0.87276 -0.74273,0.93618 -1.91583,0.22073 z M 49.240174,155.71266 c 0,-0.0732 0.358973,-0.31864 0.797713,-0.54557 0.43875,-0.22692 0.797713,-0.35274 0.797713,-0.27961 0,0.0732 -0.358963,0.31864 -0.797713,0.54557 -0.43874,0.22692 -0.797713,0.35274 -0.797713,0.27961 z M 151.4823,155.56911 c -0.0932,-0.15075 0.0136,-0.19533 0.25021,-0.10451 0.46065,0.17679 0.54494,0.36743 0.16245,0.36743 -0.13761,0 -0.32331,-0.11831 -0.41266,-0.26292 z m 14.6072,-0.41663 c -0.49565,-0.39718 -0.49238,-0.40209 0.0821,-0.12362 0.32906,0.15948 0.59829,0.3456 0.59829,0.41359 0,0.20351 -0.1379,0.14474 -0.68041,-0.28997 z m -70.12106,-0.41725 c 0.180376,-0.18177 0.394932,-0.26347 0.476799,-0.18158 0.08191,0.0819 -0.06573,0.23058 -0.327949,0.33045 -0.378963,0.14434 -0.409505,0.11379 -0.14885,-0.14887 z m 53.38662,-0.22991 c -0.0932,-0.15075 0.0136,-0.19534 0.25022,-0.10451 0.46066,0.1768 0.54493,0.36741 0.16245,0.36741 -0.13762,0 -0.32332,-0.1183 -0.41267,-0.2629 z m 15.40492,-0.15069 c -0.49565,-0.39716 -0.49239,-0.40208 0.0821,-0.12362 0.32905,0.1595 0.59828,0.3456 0.59828,0.4136 0,0.2035 -0.13791,0.14474 -0.68042,-0.28998 z m 22.11857,0.004 c -0.2566,-0.66879 -0.1809,-0.84135 0.13256,-0.3022 0.15521,0.26695 0.22618,0.54138 0.15772,0.60985 -0.0684,0.0685 -0.19909,-0.07 -0.29028,-0.30765 z m -4.66518,-0.54377 c 0.0128,-0.30983 0.0758,-0.37284 0.16065,-0.16068 0.0768,0.19198 0.0673,0.42136 -0.021,0.50973 -0.0883,0.0883 -0.1512,-0.0688 -0.13966,-0.34905 z m -129.516433,0.0247 c 0,-0.18199 1.628109,-0.98933 1.749743,-0.86767 0.05769,0.0577 -0.312392,0.30396 -0.822415,0.54721 -0.510034,0.24327 -0.927328,0.38746 -0.927328,0.32046 z m 45.491804,-0.23246 c 0.0609,-0.0534 0.409937,-0.23944 0.775553,-0.41359 0.626814,-0.29858 0.635296,-0.29304 0.148608,0.097 -0.423584,0.33943 -1.289065,0.63597 -0.924161,0.31665 z m 25.050589,-1.14337 c -1.24676,-0.80855 -2.10526,-2.16461 -2.35354,-3.71755 -0.19115,-1.19565 0.59728,-3.42018 1.50268,-4.2397 0.54021,-0.48897 0.71996,-0.16393 0.19802,0.35811 -0.235,0.23504 -0.13513,0.37545 0.41617,0.58508 0.91588,0.3483 1.23181,0.34252 0.62427,-0.0113 -0.71742,-0.41792 -0.55524,-0.93921 0.43904,-1.41111 0.83361,-0.39566 3.616,-0.61547 3.616,-0.28568 0,0.5206 -1.14958,2.24143 -1.59097,2.38155 -0.34481,0.10945 -0.53626,0.40201 -0.53626,0.81945 0,0.53937 -0.0787,0.60552 -0.46533,0.39095 -1.09186,-0.60597 -2.72552,-1.34322 -2.72552,-1.22998 0,0.0676 0.71793,0.50551 1.59542,0.97328 0.87748,0.46779 1.59543,0.95735 1.59543,1.08795 0,0.13059 -0.18106,0.67085 -0.40235,1.20056 -0.22129,0.52971 -0.35705,1.00842 -0.3017,1.06379 0.0554,0.0554 0.24929,-0.25823 0.43096,-0.69688 0.591,-1.42707 0.84988,-1.46509 2.91022,-0.42731 1.03579,0.5217 1.88324,1.04816 1.88324,1.16993 0,0.54602 -1.16385,1.1894 -2.35944,1.3043 -1.37649,0.13228 -3.33188,-0.34568 -3.08024,-0.75291 0.0821,-0.1328 -0.0206,-0.1763 -0.22811,-0.0966 -0.46635,0.17901 -1.99047,-1.30413 -2.46888,-2.40245 -0.1933,-0.4438 -0.35613,-0.62089 -0.36186,-0.39354 -0.006,0.22734 0.33479,0.95775 0.75669,1.62315 0.9486,1.49604 2.99212,2.61346 4.80263,2.6261 1.12244,0.008 1.17315,0.037 0.69468,0.39893 -0.31137,0.23555 -1.10787,0.39047 -2.00754,0.39047 -1.16458,0 -1.73072,-0.15523 -2.58371,-0.70842 z m -67.500148,-0.20269 c 0.28388,-0.23026 0.762508,-0.40836 1.063614,-0.39579 0.439313,0.0183 0.407123,0.0653 -0.16294,0.23738 -0.390721,0.11799 -0.869349,0.29609 -1.063614,0.39579 -0.194275,0.0997 -0.120941,-0.007 0.16294,-0.23738 z m 3.303512,-0.0301 c 0.492095,-0.21369 0.970723,-0.38428 1.063614,-0.3791 0.345959,0.0193 -1.176274,0.76955 -1.559477,0.7686 -0.21937,-5.3e-4 0.004,-0.17582 0.495863,-0.3895 z m 41.273286,0.31238 c 0.0609,-0.0533 0.40994,-0.23944 0.77555,-0.4136 0.62682,-0.29857 0.6353,-0.29303 0.14861,0.097 -0.42358,0.33943 -1.289063,0.63597 -0.92416,0.31665 z m 21.48218,-0.36845 c -0.33076,-0.42183 -0.32135,-0.43124 0.1004,-0.10042 0.44293,0.34742 0.58378,0.56582 0.36493,0.56582 -0.0552,0 -0.26462,-0.20942 -0.46533,-0.4654 z m 7.8781,-0.0665 c 0.2647,-0.29255 0.54111,-0.5319 0.61423,-0.5319 0.0732,0 -0.0836,0.23935 -0.34833,0.5319 -0.26471,0.29255 -0.54111,0.5319 -0.61423,0.5319 -0.0732,0 0.0836,-0.23935 0.34833,-0.5319 z m 31.24376,0 c -0.23966,-0.15491 -0.27245,-0.25943 -0.0822,-0.26188 0.17418,-0.002 0.39064,0.11561 0.48103,0.26188 0.20402,0.3302 0.11198,0.3302 -0.39886,0 z m 24.48512,-1.38522 c -0.62647,-1.61588 -0.59178,-2.77003 0.091,-3.03212 0.19968,-0.0767 0.86172,-0.005 1.47118,0.15909 l 1.10814,0.29845 -0.64746,1.11555 c -0.72718,1.25291 -1.23943,2.73423 -0.70768,2.04639 0.26159,-0.33836 0.28442,-0.32497 0.15036,0.0882 -0.0869,0.26794 -0.15803,0.57711 -0.15803,0.68704 0,0.10993 -0.15791,0.19988 -0.35091,0.19988 -0.19301,0 -0.62352,-0.70315 -0.9567,-1.56253 z m -124.996982,1.00533 c 0,-0.0732 0.239319,-0.26107 0.531812,-0.41763 0.292493,-0.15658 0.531812,-0.22483 0.531812,-0.1517 0,0.0732 -0.239319,0.26108 -0.531812,0.41764 -0.292493,0.15657 -0.531812,0.22483 -0.531812,0.15169 z m 60.620872,-0.55704 c -0.18499,-0.22294 -0.28486,-0.45685 -0.22193,-0.51981 0.0629,-0.0629 0.2605,0.11946 0.43901,0.40536 0.38604,0.61825 0.2573,0.68613 -0.21708,0.11445 z m 9.57789,0.30494 c 0,-0.0552 0.2094,-0.26466 0.46533,-0.46541 0.42175,-0.33082 0.43115,-0.3214 0.1004,0.10042 -0.34737,0.443 -0.56573,0.58389 -0.56573,0.365 z m 8.45909,-0.34722 c 0.19194,-0.0768 0.42129,-0.0674 0.50965,0.021 0.0883,0.0883 -0.0687,0.15122 -0.34901,0.13967 -0.30975,-0.0127 -0.37277,-0.0758 -0.16064,-0.16068 z m 0.99761,-0.16223 c 0.0999,-0.26228 0.24854,-0.40988 0.33041,-0.32801 0.0819,0.0819 1.7e-4,0.29649 -0.18156,0.47688 -0.2626,0.26071 -0.29314,0.23016 -0.14885,-0.14887 z m 18.84646,-0.0697 c -0.49565,-0.39717 -0.49238,-0.40207 0.0821,-0.12362 0.32906,0.15949 0.59829,0.34562 0.59829,0.41361 0,0.2035 -0.1379,0.14473 -0.68041,-0.28999 z m -26.64603,-0.91615 c 0.18267,-0.29255 0.44155,-0.53191 0.57528,-0.53191 0.13374,0 0.0266,0.23936 -0.23812,0.53191 -0.26471,0.29253 -0.52358,0.5319 -0.57528,0.5319 -0.0517,0 0.0555,-0.23937 0.23812,-0.5319 z m 3.34519,0.35023 c 0.19196,-0.0768 0.42131,-0.0674 0.50965,0.021 0.0883,0.0883 -0.0686,0.15123 -0.34899,0.13968 -0.30977,-0.0128 -0.37277,-0.0758 -0.16066,-0.16067 z m 21.97132,-0.23193 c -0.49565,-0.39717 -0.49239,-0.40208 0.0821,-0.12361 0.32905,0.15947 0.59828,0.3456 0.59828,0.41359 0,0.20351 -0.1379,0.14474 -0.68042,-0.28998 z m -23.03493,-0.0341 c 0.19195,-0.0768 0.42129,-0.0674 0.50965,0.021 0.0883,0.0883 -0.0687,0.15125 -0.349,0.13969 -0.30976,-0.0128 -0.37277,-0.0758 -0.16065,-0.16068 z m 53.2675,-0.57351 c 0.3454,-0.4885 0.77581,-1.14673 0.95647,-1.46273 0.21055,-0.36835 0.32628,-0.43139 0.32239,-0.17564 -0.003,0.2194 -0.43375,0.87763 -0.95646,1.46273 -0.79051,0.88483 -0.84475,0.91438 -0.3224,0.17564 z m -81.81801,0.10498 c 0.28388,-0.22748 0.63288,-0.4136 0.77555,-0.4136 0.33784,0 0.18699,0.12284 -0.62696,0.51056 -0.6268,0.29856 -0.63528,0.29302 -0.14859,-0.097 z m 22.61752,-0.59139 c -1.67535,-0.86308 -1.68505,-0.87327 -1.12788,-1.18512 0.57374,-0.32115 0.5876,-0.71822 0.0459,-1.31684 -0.38048,-0.4205 -0.36822,-0.55701 0.13935,-1.5521 0.53502,-1.04892 0.57999,-1.07567 1.16458,-0.69256 1.04805,0.68682 1.77228,2.3064 1.77228,3.9633 0,1.72979 -0.0891,1.7648 -1.99428,0.78332 z m -63.3009,0.0595 c 0.28388,-0.22749 0.632884,-0.41359 0.775553,-0.41359 0.337848,0 0.186999,0.12283 -0.626945,0.51054 -0.626814,0.29857 -0.635296,0.29304 -0.148608,-0.0969 z m 55.00096,-0.81253 c 0.002,-0.73136 0.0537,-0.999 0.11476,-0.59473 0.0611,0.40426 0.0595,1.00265 -0.004,1.32975 -0.0631,0.32711 -0.11312,-0.004 -0.11112,-0.73502 z m 34.07701,-0.0147 c -0.49566,-0.39717 -0.49239,-0.40207 0.0821,-0.12362 0.32905,0.15949 0.59828,0.34561 0.59828,0.41361 0,0.2035 -0.13791,0.14473 -0.68042,-0.28999 z m -45.8307,0.0485 c 0.27363,-0.24488 1.83918,-0.96444 1.83918,-0.84533 0,0.15319 -1.47412,0.94448 -1.75949,0.94448 -0.10476,0 -0.14062,-0.0446 -0.0797,-0.0991 z m 72.69177,-0.18449 c -0.0964,-0.15601 -0.11825,-0.34069 -0.0485,-0.41041 0.0696,-0.0697 0.19758,0.0579 0.28418,0.28366 0.1798,0.46862 0.0265,0.55105 -0.23564,0.12675 z m 2.95748,-0.15488 c -0.0919,-0.23951 -0.10443,-0.49812 -0.0278,-0.5747 0.0766,-0.0766 0.13921,0.007 0.13921,0.18673 0,0.17929 0.11967,0.252 0.26591,0.16161 0.14625,-0.0903 0.2659,-0.0448 0.2659,0.10159 0,0.47886 -0.47215,0.57047 -0.64315,0.12477 z m -57.68917,-0.75019 c 0.0906,-0.23621 0.27868,-0.39152 0.41788,-0.34511 0.39843,0.13284 0.28414,0.59405 -0.17068,0.6888 -0.28421,0.0592 -0.36087,-0.0474 -0.2472,-0.34369 z m 61.20742,0.20918 c 0.19194,-0.0768 0.4213,-0.0674 0.50966,0.021 0.0883,0.0883 -0.0688,0.15123 -0.34901,0.13969 -0.30975,-0.0127 -0.37277,-0.0758 -0.16065,-0.16068 z M 69.300306,146.93726 c 0.283885,-0.22747 0.632885,-0.41359 0.775555,-0.41359 0.337843,0 0.186992,0.12284 -0.626949,0.51055 -0.626808,0.29857 -0.635294,0.29303 -0.148606,-0.0969 z m 41.385944,0.28731 c 0.0609,-0.0533 0.40994,-0.23944 0.77556,-0.41359 0.62681,-0.29859 0.63529,-0.29304 0.1486,0.097 -0.42358,0.33943 -1.28906,0.63596 -0.92416,0.31665 z m 74.42628,-0.26703 c 0.12859,-0.13062 0.67008,-0.11545 1.24619,0.0348 l 1.01879,0.26591 -1.2462,-0.0348 c -0.70203,-0.0197 -1.14688,-0.13579 -1.01878,-0.26592 z m -33.23326,-0.16793 c -0.23966,-0.1549 -0.27245,-0.25943 -0.0822,-0.26188 0.17418,-0.002 0.39065,0.11561 0.48102,0.26188 0.20404,0.3302 0.11198,0.3302 -0.39885,0 z m 28.18587,-1.0638 c -0.29845,-0.58509 -0.48279,-1.06379 -0.40967,-1.06379 0.0732,0 0.37713,0.4787 0.67557,1.06379 0.29844,0.5851 0.4828,1.0638 0.40966,1.0638 -0.0732,0 -0.37712,-0.4787 -0.67556,-1.0638 z m -109.55261,0.6836 c 0,-0.0732 0.239314,-0.26108 0.531808,-0.41764 0.292495,-0.15658 0.531809,-0.22483 0.531809,-0.1517 0,0.0732 -0.239314,0.26109 -0.531809,0.41765 -0.292494,0.15657 -0.531808,0.22483 -0.531808,0.15169 z m 42.2788,-0.25622 c 0,-0.0575 0.18569,-0.17579 0.41267,-0.26291 0.23663,-0.0909 0.34337,-0.0462 0.2502,0.10453 -0.15615,0.2527 -0.66287,0.37378 -0.66287,0.15838 z m 37.07801,-0.57503 c -0.49565,-0.39716 -0.4924,-0.40207 0.0821,-0.12362 0.32905,0.1595 0.59828,0.34562 0.59828,0.41361 0,0.2035 -0.13789,0.14474 -0.68041,-0.28999 z M 38.604002,145.43279 c 0.317437,-0.22679 0.271358,-0.25677 -0.225732,-0.14692 -0.343516,0.0759 -0.557128,0.0706 -0.474688,-0.0118 0.08241,-0.0824 0.03909,-0.35703 -0.09638,-0.61016 -0.187954,-0.35126 -0.07558,-0.61061 0.474689,-1.09532 l 0.720961,-0.63511 -0.656813,0.79787 -0.656813,0.79783 0.871842,-0.81856 c 0.479512,-0.45022 1.039052,-1.28795 1.243427,-1.86166 0.262876,-0.73794 0.374993,-0.86804 0.383254,-0.44469 0.006,0.32911 0.131323,0.59839 0.277579,0.59839 0.146247,0 0.264072,0.20942 0.261831,0.4654 -0.004,0.40203 -0.04291,0.41109 -0.288976,0.0665 -0.22546,-0.31571 -0.255198,-0.26512 -0.142528,0.24245 0.206164,0.92883 -1.035896,2.95583 -1.804485,2.94489 -0.157321,-0.002 -0.106549,-0.1323 0.112821,-0.28902 z m 33.238049,0.18858 c 0,-0.0575 0.1857,-0.1758 0.412668,-0.26292 0.236634,-0.0908 0.343368,-0.0463 0.25021,0.10454 -0.156154,0.2527 -0.662878,0.37377 -0.662878,0.15838 z m -34.711459,-0.71104 c -0.09638,-0.156 -0.118238,-0.34067 -0.04854,-0.41039 0.06975,-0.0697 0.197591,0.0579 0.284191,0.28364 0.179794,0.46863 0.02653,0.55107 -0.235651,0.12675 z m 111.409218,-0.12995 c -0.49565,-0.39716 -0.49238,-0.40208 0.0821,-0.12361 0.32906,0.15948 0.59829,0.3456 0.59829,0.41359 0,0.20351 -0.1379,0.14475 -0.68041,-0.28998 z m -27.04242,-0.14278 c 0.18154,-0.23287 0.25134,-0.50214 0.15511,-0.59839 -0.0963,-0.0962 -0.0354,-0.17498 0.13526,-0.17498 0.45525,0 0.37813,0.41349 -0.15511,0.83178 -0.41172,0.32293 -0.42731,0.31622 -0.13526,-0.0584 z m -4.85044,-0.14476 c 1.859,-0.19599 4.59482,-0.21446 4.48016,-0.0302 -0.0682,0.1097 -1.28372,0.1803 -2.70101,0.15689 -1.41728,-0.0234 -2.2179,-0.0804 -1.77915,-0.12667 z m -87.620842,-0.50207 c -0.18499,-0.22293 -0.284856,-0.45686 -0.221913,-0.51981 0.06291,-0.0629 0.260484,0.11947 0.439001,0.40535 0.386038,0.61827 0.257288,0.68615 -0.217088,0.11446 z m 2.348618,-0.0423 c 0.191953,-0.0768 0.421293,-0.0674 0.509652,0.021 0.08834,0.0883 -0.06864,0.15124 -0.349004,0.13968 -0.309759,-0.0128 -0.372772,-0.0758 -0.160648,-0.16067 z m 43.658178,0.0595 c 0,-0.0732 0.478628,-0.37718 1.063618,-0.67567 0.584989,-0.29851 1.063617,-0.48289 1.063617,-0.40974 0,0.0732 -0.478628,0.37719 -1.063617,0.67568 -0.58499,0.29849 -1.063618,0.48287 -1.063618,0.40973 z m 71.645586,-0.29142 c -0.49566,-0.39717 -0.4924,-0.40208 0.0821,-0.12362 0.32905,0.15949 0.59828,0.3456 0.59828,0.4136 0,0.2035 -0.1379,0.14474 -0.68041,-0.28998 z m -114.24014,-0.034 c 0.191944,-0.0768 0.421283,-0.0674 0.509642,0.021 0.08834,0.0883 -0.06874,0.15124 -0.348994,0.13969 -0.309769,-0.0127 -0.372772,-0.0758 -0.160648,-0.16067 z m -1.78932,-0.19264 c 0.24556,-0.24012 8.794342,-2.33219 8.93896,-2.18756 0.202607,0.20265 0.116389,0.22782 -4.606274,1.34482 -3.987521,0.94314 -4.546538,1.05188 -4.332686,0.84274 z m 114.69993,-0.5712 c -0.49565,-0.39717 -0.49239,-0.40207 0.0821,-0.12362 0.32906,0.15949 0.59828,0.34562 0.59828,0.41361 0,0.2035 -0.13789,0.14473 -0.68041,-0.28999 z m -115.037848,-0.034 c 0.191943,-0.0768 0.421293,-0.0674 0.509652,0.021 0.08834,0.0883 -0.06874,0.15123 -0.349004,0.13969 -0.309759,-0.0128 -0.372772,-0.0758 -0.160648,-0.16068 z m 5.583992,0 c 0.191943,-0.0768 0.421293,-0.0674 0.509652,0.021 0.08834,0.0883 -0.06864,0.15123 -0.349004,0.13969 -0.309759,-0.0128 -0.372772,-0.0758 -0.160648,-0.16068 z m 1.063614,-0.26596 c 0.191953,-0.0768 0.421293,-0.0674 0.509652,0.021 0.08834,0.0883 -0.06874,0.15124 -0.349004,0.13968 -0.309759,-0.0127 -0.372772,-0.0758 -0.160648,-0.16067 z m 1.999825,-0.22895 c 0,-0.21297 0.0997,-0.38722 0.221591,-0.38722 0.121866,0 0.221581,0.11261 0.221581,0.25025 0,0.13763 -0.0997,0.31189 -0.221581,0.38724 -0.121875,0.0754 -0.221591,-0.0374 -0.221591,-0.25027 z m 138.784987,0.22632 c 0.25872,-0.0675 0.61769,-0.063 0.79772,0.01 0.18002,0.0729 -0.0317,0.12802 -0.47039,0.12259 -0.43875,-0.005 -0.58604,-0.065 -0.32733,-0.13246 z M 32.43835,142.35296 c 0.191944,-0.0768 0.421283,-0.0674 0.509642,0.021 0.08834,0.0883 -0.06874,0.15123 -0.348994,0.13968 -0.309769,-0.0128 -0.372772,-0.0758 -0.160648,-0.16067 z m 143.58836,0 c 0.19196,-0.0768 0.4213,-0.0674 0.50965,0.021 0.0883,0.0883 -0.0686,0.15123 -0.349,0.13968 -0.30976,-0.0128 -0.37276,-0.0758 -0.16065,-0.16067 z m -1.86132,-0.26596 c 0.19194,-0.0768 0.42129,-0.0674 0.50965,0.021 0.0883,0.0883 -0.0687,0.15125 -0.34901,0.13969 -0.30976,-0.0127 -0.37277,-0.0758 -0.16064,-0.16068 z m -2.54272,-0.2676 c 0.25593,-0.0669 0.67473,-0.0669 0.93067,0 0.25593,0.067 0.0465,0.12163 -0.46534,0.12163 -0.51186,0 -0.72126,-0.0548 -0.46533,-0.12163 z M 35.363292,141.5551 c 0.191953,-0.0768 0.421293,-0.0674 0.509652,0.021 0.08834,0.0883 -0.06864,0.15122 -0.349004,0.13968 -0.309759,-0.0128 -0.372772,-0.0758 -0.160648,-0.16068 z m 6.115804,0 c 0.191943,-0.0768 0.421293,-0.0674 0.509652,0.021 0.08834,0.0883 -0.06874,0.15122 -0.349004,0.13968 -0.309759,-0.0128 -0.372772,-0.0758 -0.160648,-0.16068 z m 38.26918,-0.11728 c 0.180376,-0.18175 0.394932,-0.26347 0.476799,-0.18158 0.08191,0.0819 -0.06573,0.23059 -0.32795,0.33046 -0.378965,0.14433 -0.409507,0.11378 -0.148849,-0.14888 z m 89.752224,0.11466 c 0.25871,-0.0675 0.61769,-0.063 0.79771,0.01 0.18003,0.0729 -0.0317,0.12801 -0.47039,0.1226 -0.43874,-0.005 -0.58604,-0.0651 -0.32732,-0.13245 z m 0.19437,-0.51151 c -4.35819,-0.59521 -7.18128,-0.96498 -20.20664,-2.64668 -4.76732,-0.61552 -5.95252,-0.90084 -5.52367,-1.32977 0.14991,-0.14994 4.51927,0.36387 22.6724,2.66613 8.32861,1.05628 8.5144,1.08879 9.2777,1.62351 0.51275,0.35922 0.48157,0.38077 -0.51016,0.35246 -0.58097,-0.0166 -3.1503,-0.31613 -5.70963,-0.66565 z m -133.267954,0.24818 c 0.191943,-0.0768 0.421283,-0.0674 0.509642,0.021 0.08834,0.0884 -0.06874,0.15125 -0.348994,0.13969 -0.309769,-0.0127 -0.372772,-0.0758 -0.160648,-0.16067 z m 6.115794,0 c 0.191954,-0.0768 0.421293,-0.0674 0.509652,0.021 0.08834,0.0884 -0.06874,0.15125 -0.349004,0.13969 -0.309759,-0.0127 -0.372772,-0.0758 -0.160648,-0.16067 z m 125.09646,-0.003 c 0.25872,-0.0675 0.61768,-0.063 0.79772,0.01 0.18002,0.0729 -0.0317,0.12801 -0.4704,0.12259 -0.43874,-0.005 -0.58604,-0.0651 -0.32732,-0.13246 z m 8.83626,-0.0671 c -0.67139,-0.27485 -1.35831,-1.05321 -1.5384,-1.74321 -0.0764,-0.29255 -0.46849,-1.63939 -0.87139,-2.99296 -0.6019,-2.0221 -0.67857,-2.57958 -0.42986,-3.12555 0.41236,-0.90519 1.83854,-1.72486 3.00321,-1.72606 1.20164,-0.001 2.11014,0.69251 3.00581,2.29533 l 0.68593,1.22747 -0.7665,-0.15334 c -0.42158,-0.0843 -1.18281,-0.0384 -1.69164,0.10217 -1.03714,0.28641 -3.26287,1.79769 -3.01405,2.04655 0.0885,0.0885 0.48854,-0.0812 0.88893,-0.3773 1.11125,-0.82172 2.36847,-1.41855 2.98814,-1.41855 1.66869,0 3.36129,2.08119 2.86589,3.52385 -0.13814,0.40224 -0.34039,0.73136 -0.44945,0.73136 -0.10907,0 -0.47851,-0.59839 -0.82101,-1.32975 -0.54953,-1.17351 -0.71892,-1.32964 -1.44145,-1.32876 -0.8084,0.001 -2.55164,0.86383 -2.54229,1.25836 0.003,0.11185 0.36161,0.8508 0.79771,1.6421 0.43608,0.79132 0.79289,1.47946 0.79289,1.52922 0,0.16277 -0.91869,0.0616 -1.46247,-0.16093 z M 40.611586,140.97821 c 0.13893,-0.12466 3.064545,-0.96103 6.501359,-1.85861 12.904411,-3.37021 20.433849,-5.36241 20.80444,-5.50465 0.392399,-0.15059 1.193323,0.57019 0.928216,0.83534 -0.08101,0.081 -4.615113,1.2056 -10.075783,2.49908 -5.460669,1.29346 -11.705343,2.7801 -13.877053,3.30363 -4.176238,1.00675 -4.692422,1.09419 -4.281179,0.72521 z m 40.005305,0.11239 c 0,-0.0732 0.239319,-0.26107 0.531812,-0.41763 0.292494,-0.15658 0.531813,-0.22483 0.531813,-0.1517 0,0.0732 -0.239319,0.26108 -0.531813,0.41764 -0.292493,0.15657 -0.531812,0.22483 -0.531812,0.15169 z m 85.160939,-0.0701 c 0.25872,-0.0675 0.61769,-0.0631 0.79772,0.01 0.18002,0.0729 -0.0317,0.12801 -0.47039,0.12259 -0.43875,-0.005 -0.58604,-0.0651 -0.32733,-0.13246 z M 44.653326,140.76259 c 0.182808,-0.0738 0.481954,-0.0738 0.664762,0 0.182809,0.0738 0.03327,0.13414 -0.332381,0.13414 -0.365616,0 -0.51519,-0.0604 -0.332381,-0.13414 z m 118.726314,-0.007 c 0.25593,-0.067 0.67473,-0.067 0.93066,0 0.25594,0.0669 0.0465,0.12162 -0.46533,0.12162 -0.51187,0 -0.72126,-0.0548 -0.46533,-0.12162 z M 39.834666,140.35168 c 0.08301,-0.13436 -0.06934,-0.50602 -0.338522,-0.82592 l -0.489482,-0.58164 0.662863,0.56455 c 0.364572,0.31049 0.842345,0.61981 1.061715,0.68735 0.244364,0.0753 0.11874,0.1765 -0.324331,0.26139 -0.406148,0.0778 -0.657014,0.0314 -0.572243,-0.10573 z m 6.164808,0.13946 c 0.191943,-0.0768 0.421283,-0.0674 0.509642,0.021 0.08834,0.0883 -0.06864,0.15123 -0.348994,0.13969 -0.309769,-0.0128 -0.372772,-0.0758 -0.160648,-0.16068 z m 93.980576,-0.64401 c -0.7678,-0.44766 -1.396,-0.87527 -1.396,-0.95022 0,-0.14766 2.36477,1.16745 2.77871,1.54531 0.45062,0.41134 0.0413,0.23518 -1.38271,-0.59509 z m 21.27235,0.64235 c 0.25593,-0.067 0.67473,-0.067 0.93067,0 0.25593,0.067 0.0465,0.12163 -0.46534,0.12163 -0.51186,0 -0.72126,-0.0547 -0.46533,-0.12163 z m -1.72838,-0.25875 c 0.18281,-0.0738 0.48196,-0.0738 0.66477,0 0.18281,0.0738 0.0333,0.13414 -0.33238,0.13414 -0.36562,0 -0.51519,-0.0604 -0.33239,-0.13414 z m 13.22875,-0.12383 c -0.87749,-0.12886 -7.5956,-0.99682 -14.92914,-1.92881 -7.33355,-0.93198 -13.46596,-1.77627 -13.62761,-1.87619 -0.54904,-0.33938 -0.29645,-0.99325 0.94532,-2.44702 0.86155,-1.00862 1.36802,-1.40021 1.66191,-1.2849 0.23248,0.0911 6.1064,1.11458 13.05316,2.27415 6.94675,1.15957 12.95147,2.17523 13.34382,2.25702 0.57904,0.1207 0.7607,0.35831 0.96467,1.2618 0.13823,0.61219 0.33855,1.32252 0.44517,1.57849 0.10663,0.25597 0.0914,0.45064 -0.034,0.43259 -0.12533,-0.0181 -0.94581,-0.13826 -1.82329,-0.26713 z m -134.54762,-0.65417 -0.797713,-0.68553 0.864184,0.57198 c 0.475301,0.31461 0.864193,0.62368 0.864193,0.68685 0,0.19909 -0.112599,0.12972 -0.930664,-0.5733 z m 119.45755,0.51204 c 0.18281,-0.0738 0.48194,-0.0738 0.66475,0 0.18281,0.0738 0.0333,0.13414 -0.33238,0.13414 -0.36562,0 -0.51519,-0.0603 -0.33237,-0.13414 z M 49.190326,139.69329 c 0.191944,-0.0768 0.421283,-0.0674 0.509642,0.021 0.08834,0.0883 -0.06864,0.15124 -0.348994,0.13969 -0.309769,-0.0128 -0.372772,-0.0758 -0.160648,-0.16067 z m 105.946274,-0.002 c 0.25593,-0.067 0.67473,-0.067 0.93067,0 0.25593,0.067 0.0465,0.12163 -0.46534,0.12163 -0.51186,0 -0.72126,-0.0547 -0.46533,-0.12163 z M 43.340423,139.42693 c 0.191954,-0.0768 0.421293,-0.0674 0.509652,0.021 0.08834,0.0883 -0.06874,0.15122 -0.349004,0.13968 -0.309759,-0.0127 -0.372772,-0.0758 -0.160648,-0.16068 z m 6.913517,0 c 0.191944,-0.0768 0.421293,-0.0674 0.509652,0.021 0.08834,0.0883 -0.06864,0.15122 -0.349004,0.13968 -0.309758,-0.0127 -0.372772,-0.0758 -0.160648,-0.16068 z m 103.0264,-0.003 c 0.25871,-0.0675 0.61767,-0.063 0.79771,0.01 0.18002,0.0729 -0.0317,0.12803 -0.4704,0.1226 -0.43874,-0.005 -0.58604,-0.0651 -0.32731,-0.13245 z M 44.404047,139.16139 c 0.191944,-0.0768 0.421283,-0.0674 0.509642,0.021 0.08834,0.0883 -0.06874,0.15122 -0.348994,0.13968 -0.309769,-0.0128 -0.372772,-0.0758 -0.160648,-0.16068 z m 92.700633,-0.38445 c 0.555,-0.43664 0.79127,-0.49387 1.033,-0.25019 0.24119,0.24312 0.21601,0.27885 -0.10931,0.1551 -0.2325,-0.0885 -0.57621,0.0241 -0.76379,0.25018 -0.1876,0.22607 -0.46221,0.41104 -0.61028,0.41104 -0.14806,0 0.0546,-0.25477 0.45038,-0.56613 z m 14.17631,0.38999 c 0.18281,-0.0738 0.48195,-0.0738 0.66475,0 0.18281,0.0738 0.0333,0.13413 -0.33238,0.13413 -0.36561,0 -0.51519,-0.0604 -0.33237,-0.13413 z M 37.939239,138.66858 c -0.43874,-0.20093 -0.611176,-0.37074 -0.383204,-0.37733 0.227983,-0.007 0.646784,0.16371 0.930674,0.37848 0.630302,0.47681 0.495572,0.47653 -0.54747,-10e-4 z m 111.762941,0.22686 c 0.19195,-0.0768 0.42129,-0.0674 0.50965,0.021 0.0883,0.0883 -0.0686,0.15123 -0.349,0.13969 -0.30976,-0.0128 -0.37277,-0.0758 -0.16065,-0.16068 z M 46.531276,138.62948 c 0.191953,-0.0768 0.421293,-0.0674 0.509652,0.021 0.08834,0.0883 -0.06874,0.15124 -0.349004,0.13968 -0.309759,-0.0128 -0.372772,-0.0758 -0.160648,-0.16067 z m 6.896894,0.006 c 0.182809,-0.0738 0.481955,-0.0738 0.664763,0 0.182808,0.0738 0.03327,0.13413 -0.332381,0.13413 -0.365617,0 -0.51519,-0.0604 -0.332382,-0.13413 z m 32.092303,-0.20813 c 0.28388,-0.22747 0.632884,-0.41359 0.775553,-0.41359 0.337849,0 0.186999,0.12283 -0.626945,0.51055 -0.626814,0.29857 -0.635296,0.29303 -0.148608,-0.097 z m 61.373087,0.20093 c 0.25594,-0.067 0.67474,-0.067 0.93067,0 0.25593,0.067 0.0465,0.12162 -0.46533,0.12162 -0.51187,0 -0.72127,-0.0548 -0.46534,-0.12162 z m -92.119242,-0.2643 c 0.191944,-0.0768 0.421283,-0.0674 0.509642,0.021 0.08834,0.0883 -0.06864,0.15123 -0.348994,0.13968 -0.309769,-0.0127 -0.372772,-0.0758 -0.160648,-0.16067 z m 90.262972,-0.003 c 0.25872,-0.0675 0.61769,-0.0631 0.79772,0.01 0.18002,0.0729 -0.0317,0.12802 -0.47039,0.12259 -0.43875,-0.005 -0.58604,-0.0651 -0.32733,-0.13245 z m -96.378776,-0.26329 c 0.191944,-0.0768 0.421293,-0.0674 0.509652,0.021 0.08834,0.0883 -0.06874,0.15125 -0.349004,0.13969 -0.309759,-0.0128 -0.372772,-0.0758 -0.160648,-0.16068 z m 7.179418,0 c 0.191944,-0.0768 0.421293,-0.0674 0.509652,0.021 0.08834,0.0883 -0.06864,0.15125 -0.349003,0.13969 -0.309759,-0.0128 -0.372772,-0.0758 -0.160649,-0.16068 z m 78.191828,-0.28373 c -0.33075,-0.42182 -0.32134,-0.43124 0.10039,-0.10042 0.44294,0.34743 0.58379,0.56583 0.36494,0.56583 -0.0552,0 -0.26462,-0.20943 -0.46533,-0.46541 z m 9.00819,0.28927 c 0.18281,-0.0738 0.48195,-0.0738 0.66476,0 0.18281,0.0738 0.0333,0.13414 -0.33238,0.13414 -0.36562,0 -0.51519,-0.0603 -0.33238,-0.13414 z m -86.136403,-0.27149 c 0.191953,-0.0768 0.421293,-0.0674 0.509652,0.021 0.08834,0.0883 -0.06864,0.15122 -0.348994,0.13968 -0.309769,-0.0128 -0.372772,-0.0758 -0.160658,-0.16068 z m 84.147183,-0.003 c 0.25871,-0.0675 0.61769,-0.063 0.79771,0.01 0.18002,0.0729 -0.0317,0.12804 -0.47039,0.12261 -0.43875,-0.005 -0.58604,-0.065 -0.32732,-0.13245 z m -83.083559,-0.26329 c 0.191943,-0.0768 0.421283,-0.0674 0.509642,0.021 0.08834,0.0883 -0.06864,0.15122 -0.348994,0.13968 -0.309769,-0.0127 -0.372772,-0.0758 -0.160648,-0.16068 z m 80.685359,-0.002 c 0.25593,-0.067 0.67473,-0.067 0.93067,0 0.25593,0.0669 0.0465,0.12162 -0.46534,0.12162 -0.51187,0 -0.72126,-0.0548 -0.46533,-0.12162 z M 51.583466,137.2998 c 0.191943,-0.0768 0.421283,-0.0674 0.509642,0.021 0.08834,0.0883 -0.06864,0.15122 -0.348994,0.13967 -0.309769,-0.0127 -0.372772,-0.0758 -0.160648,-0.16068 z m 7.71122,0 c 0.191954,-0.0768 0.421293,-0.0674 0.509652,0.021 0.08834,0.0883 -0.06874,0.15122 -0.348994,0.13967 -0.309769,-0.0127 -0.372772,-0.0758 -0.160658,-0.16068 z m 68.835334,-0.0887 c -1.88163,-0.56488 -3.78074,-3.05344 -3.5911,-4.70571 0.0824,-0.71769 0.10536,-0.70289 0.70664,0.45498 1.60835,3.0971 4.55236,4.70075 6.63761,3.61561 0.86675,-0.45104 1.70268,-1.34159 2.27048,-2.41883 0.24111,-0.45743 0.42508,-0.61631 0.43119,-0.37234 0.0194,0.77644 -1.51838,2.55332 -2.70845,3.12954 -1.21217,0.5869 -2.45261,0.68516 -3.74637,0.29675 z m 7.99752,0.0823 c 0.33076,-0.0636 0.80939,-0.0612 1.06361,0.005 0.25424,0.0666 -0.0164,0.11861 -0.60138,0.11565 -0.58499,-0.003 -0.793,-0.0574 -0.46223,-0.12102 z m 1.6588,-0.35815 c -1.97434,-0.26224 -3.73567,-0.48599 -3.91408,-0.49721 -0.20053,-0.0126 -0.0738,-0.38969 0.33195,-0.98772 1.02015,-1.50353 1.31099,-2.89818 0.9604,-4.60533 -0.48668,-2.36991 -2.18654,-4.10909 -4.53273,-4.6376 l -1.35765,-0.30582 1.69042,-0.85884 c 0.92974,-0.47237 2.03728,-0.85808 2.46121,-0.85712 l 0.77077,0.002 -0.76622,0.50523 -0.76622,0.50523 0.84859,0.43888 c 1.57831,0.81633 2.89054,2.23808 3.35414,3.63408 0.24299,0.73169 0.50162,1.27052 0.57475,1.19738 0.0732,-0.0732 -0.0678,-0.7377 -0.31332,-1.47681 -0.33491,-1.0085 -0.81277,-1.67052 -1.91502,-2.65313 -1.41201,-1.25873 -1.44669,-1.32114 -0.89733,-1.61519 1.32184,-0.70755 3.72512,1.04811 4.40071,3.21485 0.2163,0.69372 0.37078,0.93069 0.38137,0.585 0.0101,-0.3196 -0.10878,-0.918 -0.26346,-1.32976 -0.25912,-0.68975 -0.24725,-0.71513 0.15085,-0.32236 0.23765,0.23449 0.58894,0.88267 0.78065,1.44042 l 0.34857,1.01407 -1.49656,1.12772 c -1.64722,1.24127 -3.04832,2.62691 -2.40752,2.38097 0.4188,-0.16073 6.50148,1.82006 7.09325,2.30988 0.18281,0.15131 0.33237,0.73918 0.33237,1.30636 v 1.03124 l -1.13008,-0.0346 c -0.62156,-0.0191 -2.74547,-0.24925 -4.71981,-0.51149 z m -85.13926,0.0986 c 0.191943,-0.0768 0.421293,-0.0674 0.509652,0.021 0.08834,0.0883 -0.06874,0.15123 -0.349004,0.13968 -0.309759,-0.0128 -0.372772,-0.0758 -0.160648,-0.16067 z m 7.71123,0 c 0.191944,-0.0768 0.421283,-0.0674 0.509642,0.021 0.08834,0.0883 -0.06874,0.15123 -0.348994,0.13968 -0.309769,-0.0128 -0.372772,-0.0758 -0.160648,-0.16067 z m 73.64199,-0.006 c 0.33076,-0.0636 0.80939,-0.0612 1.06362,0.005 0.25423,0.0666 -0.0164,0.11863 -0.60138,0.11567 -0.58499,-0.003 -0.79299,-0.0574 -0.46224,-0.12103 z m -65.54853,-0.2612 c 0.255933,-0.0669 0.674733,-0.0669 0.930665,0 0.255934,0.067 0.04653,0.12164 -0.465331,0.12164 -0.511865,0 -0.721266,-0.0548 -0.465334,-0.12164 z m -5.650473,-0.34858 c 0.365627,-0.11711 0.904082,-0.21292 1.196575,-0.21292 0.421102,0 0.393425,0.0444 -0.13295,0.21292 -0.365617,0.11711 -0.904082,0.21294 -1.196575,0.21294 -0.421102,0 -0.393425,-0.0444 0.13295,-0.21294 z m 4.362162,-0.33243 -0.506546,-0.59839 0.598292,0.50664 c 0.329055,0.27864 0.598282,0.54792 0.598282,0.59838 0,0.21284 -0.214003,0.0557 -0.690028,-0.50663 z m 3.747927,0.33243 c 0.292495,-0.1257 0.711294,-0.22856 0.930665,-0.22856 0.251408,0 0.202258,0.0845 -0.132951,0.22856 -0.292496,0.12573 -0.711295,0.22857 -0.930666,0.22857 -0.251407,0 -0.202258,-0.0845 0.132952,-0.22857 z m 18.597653,-0.11828 c 0.28388,-0.22748 0.632884,-0.4136 0.775553,-0.4136 0.337848,0 0.186999,0.12284 -0.626945,0.51055 -0.626814,0.29856 -0.635296,0.29303 -0.148608,-0.097 z m 83.376681,0.27973 c 0,-0.0575 0.17948,-0.1734 0.39886,-0.25761 0.21937,-0.0842 0.39885,-0.0371 0.39885,0.10452 0,0.14169 -0.17948,0.25762 -0.39885,0.25762 -0.21938,0 -0.39886,-0.0471 -0.39886,-0.10453 z M 55.572031,136.236 c 0.191944,-0.0768 0.421283,-0.0674 0.509642,0.021 0.08834,0.0883 -0.06864,0.15122 -0.348994,0.13968 -0.309768,-0.0128 -0.372772,-0.0758 -0.160648,-0.16068 z m 12.398749,-0.21219 c -0.446759,-0.34092 -0.462528,-0.42978 -0.117293,-0.66081 0.21937,-0.14681 0.584323,-0.26876 0.811008,-0.271 0.226683,-0.002 0.55574,-0.14769 0.731236,-0.32322 0.42198,-0.42206 0.427157,0.0569 0.0105,0.97151 -0.352909,0.77469 -0.70155,0.84355 -1.435444,0.28352 z m 60.5089,-0.12438 c -1.06451,-0.56591 -1.7854,-1.31465 -2.63771,-2.73966 l -0.59651,-0.99731 0.75292,0.002 c 0.41411,0.001 1.38113,0.0778 2.14893,0.17003 l 1.396,0.16771 0.0386,1.62515 0.0386,1.62515 0.27521,-1.56153 0.27522,-1.56152 1.82291,0.13045 c 1.0026,0.0718 1.88681,0.19437 1.96492,0.27248 0.27185,0.27191 -0.95193,2.28014 -1.72498,2.8307 -0.96887,0.69002 -2.49632,0.70469 -3.75411,0.036 z m 43.01004,0.34212 c 0.18281,-0.0738 0.48196,-0.0738 0.66476,0 0.18281,0.0738 0.0333,0.13414 -0.33238,0.13414 -0.36561,0 -0.51519,-0.0604 -0.33238,-0.13414 z m -114.854074,-0.2715 c 0.191943,-0.0768 0.421293,-0.0674 0.509652,0.021 0.08834,0.0883 -0.06874,0.15122 -0.349004,0.13966 -0.309759,-0.0128 -0.372772,-0.0758 -0.160648,-0.16067 z m 13.338246,-0.46524 c 0.279958,-0.73647 0.02165,-1.86877 -0.665713,-2.91798 -0.254712,-0.38881 -0.416991,-0.7451 -0.360619,-0.79177 0.05637,-0.0467 0.638854,-0.21679 1.294404,-0.37805 0.979635,-0.24097 1.990353,-0.17701 5.675158,0.35911 2.465786,0.35876 4.531966,0.65228 4.591512,0.65228 0.0596,0 0.108257,0.10977 0.108257,0.24393 0,0.32086 -9.61506,3.47939 -10.59178,3.47939 -0.204869,0 -0.220773,-0.20087 -0.05122,-0.64691 z m 99.920408,0.47079 c 0.1828,-0.0738 0.48195,-0.0738 0.66476,0 0.18281,0.0738 0.0333,0.13413 -0.33238,0.13413 -0.36562,0 -0.51519,-0.0603 -0.33238,-0.13413 z m -78.99809,-0.50238 c 0.161392,-0.42067 0.622764,-0.53023 0.622764,-0.14789 0,0.13062 -0.173391,0.30404 -0.385314,0.38537 -0.257529,0.0988 -0.336281,0.0201 -0.23745,-0.23748 z m 77.13676,0.23633 c 0.18281,-0.0738 0.48194,-0.0738 0.66475,0 0.18281,0.0738 0.0333,0.13415 -0.33238,0.13415 -0.36562,0 -0.51519,-0.0603 -0.33237,-0.13415 z m -62.95287,-0.35166 c -0.36562,-0.1209 -2.31005,-0.67915 -4.32095,-1.24052 -2.010899,-0.56139 -3.656184,-1.12121 -3.656184,-1.24405 0,-0.12286 0.149573,-0.17085 0.332381,-0.10666 0.182808,0.0642 0.741465,-0.31481 1.241449,-0.84218 0.499984,-0.5274 0.79913,-0.77373 0.664762,-0.54741 -0.134367,0.22632 0.03809,0.10664 0.383164,-0.26595 0.345108,-0.37259 0.535318,-0.49792 0.422698,-0.27851 -0.12083,0.23539 -0.10554,0.30807 0.0373,0.1773 0.13314,-0.1219 0.24238,-0.36124 0.24276,-0.53189 2.6e-4,-0.17066 0.23969,-0.31044 0.5318,-0.31063 0.29212,-1.9e-4 0.53402,-0.17971 0.53754,-0.39894 0.004,-0.21922 0.20824,-0.38274 0.4549,-0.36337 0.24668,0.0194 0.42328,-0.10032 0.39244,-0.26596 -0.0309,-0.16563 0.15207,-0.28474 0.40643,-0.26469 0.25437,0.0201 0.40524,-0.0561 0.33531,-0.16932 -0.1999,-0.32349 0.60538,-0.86602 0.96004,-0.6468 0.19145,0.11836 0.24909,0.0844 0.1444,-0.085 -0.096,-0.15524 0.43916,-0.72268 1.19085,-1.26283 1.06508,-0.76532 1.41484,-0.90233 1.59155,-0.62347 0.16827,0.26556 0.22752,0.27199 0.23054,0.0249 0.007,-0.59229 2.65439,-0.36852 5.69937,0.4818 1.59682,0.44591 3.13413,0.93431 3.41625,1.08533 0.50129,0.26832 0.50028,0.28343 -0.0448,0.66531 -0.30677,0.21492 -0.55019,0.59341 -0.54092,0.84108 0.0119,0.31628 0.0908,0.26558 0.26557,-0.17033 0.36216,-0.90374 0.92725,-0.55866 0.84601,0.51664 -0.0507,0.672 -10e-4,0.8002 0.19536,0.50296 0.14492,-0.21942 0.26529,-0.33909 0.26751,-0.26596 0.007,0.24198 -0.80216,4.35244 -0.87063,4.42093 -0.10329,0.1033 -9.79612,1.43283 -10.27236,1.40901 -0.23085,-0.0115 -0.71888,-0.11992 -1.08449,-0.24085 z m 3.55822,-1.48065 c 0.0909,-0.23668 0.0462,-0.34342 -0.10451,-0.25025 -0.14457,0.0893 -0.26286,0.2751 -0.26286,0.41274 0,0.38254 0.1906,0.29825 0.36737,-0.16249 z m 1.79379,-1.38243 c 0.33075,-0.42182 0.32135,-0.43123 -0.1004,-0.10042 -0.44293,0.34744 -0.58379,0.56583 -0.36493,0.56583 0.0552,0 0.26461,-0.20943 0.46533,-0.46541 z m 6.34372,-1.61141 c -0.004,-0.38756 -0.0397,-0.39458 -0.26185,-0.0508 -0.33652,0.52083 -0.33652,0.87289 0,0.66488 0.14626,-0.0903 0.26408,-0.36673 0.26185,-0.61409 z m -0.612,-0.89851 c -0.0849,-0.21215 -0.1479,-0.14914 -0.16065,0.16069 -0.0116,0.28035 0.0512,0.43742 0.13965,0.34905 0.0883,-0.0883 0.0978,-0.31775 0.021,-0.50974 z m -0.71346,-0.48203 c 0,-0.14628 -0.12672,-0.26596 -0.2816,-0.26596 -0.15488,0 -0.20764,0.11968 -0.11725,0.26596 0.0904,0.14627 0.2171,0.26594 0.2816,0.26594 0.0645,0 0.11725,-0.11967 0.11725,-0.26594 z m -0.53181,-1.34546 c 0,-0.13765 -0.2094,-0.2408 -0.46533,-0.22925 -0.28073,0.0126 -0.33282,0.0744 -0.1313,0.15569 0.18373,0.0741 0.25498,0.26262 0.15835,0.41902 -0.10384,0.16805 -0.0501,0.20673 0.13129,0.0946 0.16885,-0.10437 0.30699,-0.30237 0.30699,-0.44002 z m -1.13563,-0.41094 c -0.0883,-0.0883 -0.3177,-0.0978 -0.50966,-0.021 -0.21211,0.0849 -0.14911,0.14791 0.16066,0.16067 0.28031,0.0115 0.43736,-0.0514 0.349,-0.13969 z m 52.92051,7.69714 c 0.18281,-0.0738 0.48196,-0.0738 0.66477,0 0.1828,0.0738 0.0333,0.13414 -0.33239,0.13414 -0.36561,0 -0.51519,-0.0604 -0.33238,-0.13414 z M 59.560597,135.17211 c 0.191944,-0.0768 0.421283,-0.0674 0.509642,0.021 0.08834,0.0883 -0.06864,0.15122 -0.348994,0.13968 -0.309769,-0.0128 -0.372772,-0.0758 -0.160648,-0.16068 z m 105.547423,0.005 c 0.18281,-0.0738 0.48195,-0.0738 0.66476,0 0.18281,0.0738 0.0333,0.13414 -0.33238,0.13414 -0.36562,0 -0.51519,-0.0604 -0.33238,-0.13414 z m 15.09007,-1.15361 c -0.37054,-0.73138 -0.61389,-1.32975 -0.54077,-1.32975 0.0732,0 0.43613,0.59837 0.80668,1.32975 0.37054,0.73137 0.61389,1.32975 0.54076,1.32975 -0.0732,0 -0.43612,-0.59838 -0.80667,-1.32975 z m -119.573879,0.88213 c 0.191944,-0.0768 0.421293,-0.0674 0.509652,0.021 0.08834,0.0883 -0.06874,0.15123 -0.349004,0.13969 -0.309759,-0.0128 -0.372772,-0.0758 -0.160648,-0.16068 z m 31.094194,-0.0211 c -0.255931,-0.0562 -0.480296,-0.33276 -0.498577,-0.61457 -0.01829,-0.28183 -0.04724,-0.72185 -0.06422,-0.97783 -0.02683,-0.4032 0.17515,-0.45289 1.511379,-0.37173 0.848305,0.0516 1.839238,0.17309 2.20206,0.27013 0.597669,0.15988 0.502466,0.2526 -1.012812,0.98632 -0.91987,0.44542 -1.881889,0.76387 -2.137821,0.70768 z m 71.666295,0.0185 c 0.25871,-0.0675 0.61768,-0.063 0.79771,0.01 0.18002,0.0729 -0.0317,0.12802 -0.47039,0.1226 -0.43875,-0.005 -0.58604,-0.065 -0.32732,-0.13245 z M 90.45536,134.4853 c 0,-0.23362 -0.269227,-0.47662 -0.598282,-0.54003 l -0.598292,-0.11524 0.606633,-0.0361 c 0.584454,-0.0349 1.096739,0.60935 0.755745,0.95041 -0.09115,0.0911 -0.165804,-0.0253 -0.165804,-0.25892 z m 50.12141,-0.91066 c -1.72376,-0.62478 -3.19914,-1.20099 -3.27862,-1.28048 -0.0795,-0.0795 0.14744,-0.34884 0.50423,-0.59857 0.3568,-0.24973 1.09234,-0.85469 1.63454,-1.34435 l 0.98582,-0.8903 2.73683,0.99079 c 1.50527,0.54493 2.84715,1.08942 2.98196,1.20998 0.14167,0.12671 -0.31942,0.8162 -1.09277,1.63405 l -1.33786,1.41484 z m 21.09111,1.06508 c 0.19195,-0.0768 0.42129,-0.0674 0.50965,0.021 0.0883,0.0883 -0.0686,0.15124 -0.34901,0.13968 -0.30975,-0.0128 -0.37276,-0.0758 -0.16064,-0.16067 z m -84.02579,-0.26594 c 0.191949,-0.0768 0.421291,-0.0674 0.509651,0.021 0.08836,0.0883 -0.06869,0.15123 -0.348999,0.13968 -0.309766,-0.0128 -0.372772,-0.0758 -0.160652,-0.16067 z m 82.69626,0 c 0.19195,-0.0768 0.4213,-0.0674 0.50965,0.021 0.0883,0.0883 -0.0687,0.15123 -0.34899,0.13968 -0.30977,-0.0128 -0.37277,-0.0758 -0.16066,-0.16067 z m -96.523286,-0.26596 c 0.191943,-0.0768 0.421293,-0.0674 0.509652,0.021 0.08834,0.0883 -0.06864,0.15123 -0.349004,0.13969 -0.309759,-0.0127 -0.372772,-0.0758 -0.160648,-0.16068 z m 94.911246,0.006 c 0.18281,-0.0738 0.48196,-0.0738 0.66476,0 0.18281,0.0738 0.0333,0.13414 -0.33238,0.13414 -0.36561,0 -0.51519,-0.0603 -0.33238,-0.13414 z m -93.847632,-0.27148 c 0.191954,-0.0768 0.421293,-0.0674 0.509652,0.021 0.08834,0.0883 -0.06864,0.15122 -0.348994,0.13969 -0.309769,-0.0128 -0.372772,-0.0758 -0.160658,-0.16068 z m 3.986374,-0.38014 c -0.364178,-0.38213 -0.616522,-0.42563 -1.311907,-0.22617 -1.153621,0.33091 -1.277708,0.1178 -0.426881,-0.73316 0.701606,-0.70174 0.711395,-0.70323 1.273568,-0.19438 0.573289,0.51891 1.16581,1.44 1.004147,1.561 -0.04841,0.0361 -0.290928,-0.14705 -0.538927,-0.40729 z m 10.688226,0.29586 c 0.219369,-0.1418 0.518515,-0.2578 0.664762,-0.2578 0.146246,0 0.08643,0.116 -0.132951,0.2578 -0.21937,0.14181 -0.518516,0.25782 -0.664763,0.25782 -0.146248,0 -0.08642,-0.11601 0.132952,-0.25782 z m 77.449712,0.0816 c 0.25872,-0.0675 0.61769,-0.0631 0.79771,0.01 0.18003,0.0729 -0.0317,0.12803 -0.47038,0.12261 -0.43875,-0.005 -0.58605,-0.065 -0.32733,-0.13245 z m -69.007249,-0.25773 c 0.182808,-0.0738 0.481954,-0.0738 0.664762,0 0.182808,0.0738 0.03327,0.13414 -0.332381,0.13414 -0.365617,0 -0.51519,-0.0603 -0.332381,-0.13414 z m -21.986727,-0.39279 c -0.009,-0.23978 0.192536,-0.66429 0.448478,-0.94336 0.255931,-0.27908 0.38041,-0.37565 0.276624,-0.21461 -0.103785,0.16105 -0.305608,0.58557 -0.448478,0.94337 -0.164236,0.4113 -0.265971,0.49022 -0.276624,0.2146 z m 19.997504,0.11866 c 0.258715,-0.0675 0.617689,-0.063 0.797713,0.01 0.180024,0.0729 -0.03166,0.12803 -0.470387,0.12261 -0.43875,-0.005 -0.586042,-0.0651 -0.327326,-0.13247 z m -4.151033,-1.11669 c -8.194533,-1.17033 -10.7406,-1.71711 -5.157669,-1.10764 8.343004,0.9108 13.824567,1.58917 13.963457,1.72809 0.581248,0.58134 -1.337424,0.44616 -8.805788,-0.62045 z m 72.101165,1.11933 c 0.19195,-0.0768 0.4213,-0.0674 0.50965,0.021 0.0883,0.0883 -0.0686,0.15123 -0.349,0.13967 -0.30977,-0.0128 -0.37277,-0.0758 -0.16065,-0.16067 z m 18.92907,-0.007 c 0,-0.15275 0.2094,-0.44197 0.46533,-0.64272 0.43044,-0.33762 0.43608,-0.32512 0.0753,0.1669 -0.21455,0.29254 -0.42395,0.58177 -0.46533,0.64271 -0.0414,0.0609 -0.0753,-0.0142 -0.0753,-0.16689 z m -88.74053,-0.2612 c 0.258716,-0.0675 0.617689,-0.063 0.797714,0.01 0.180024,0.0729 -0.03166,0.12801 -0.470397,0.12259 -0.43874,-0.005 -0.586032,-0.0651 -0.327317,-0.13245 z m 68.19942,0.008 c 0.1828,-0.0738 0.48195,-0.0738 0.66476,0 0.18281,0.0738 0.0333,0.13416 -0.33238,0.13416 -0.36562,0 -0.51519,-0.0604 -0.33238,-0.13416 z m -69.932862,-0.26595 c 0.182809,-0.0738 0.481955,-0.0738 0.664763,0 0.182808,0.0738 0.03327,0.13414 -0.332381,0.13414 -0.365617,0 -0.51519,-0.0604 -0.332382,-0.13414 z m 7.37885,-0.65134 c -3.509938,-0.40387 -9.064253,-1.04137 -12.342921,-1.41666 -3.278667,-0.37531 -6.00082,-0.72199 -6.049231,-0.77041 -0.04841,-0.0485 1.31791,-0.51768 3.036266,-1.04281 l 3.124283,-0.95478 7.711225,0.62005 c 4.241181,0.34103 9.356514,0.707 11.367415,0.81328 2.0109,0.10627 3.656185,0.27366 3.656185,0.37198 0,0.16321 -3.15793,2.60225 -3.833466,2.96078 -0.158427,0.0841 -3.159819,-0.17755 -6.669756,-0.58142 z m 60.958582,0.65134 c 0.18281,-0.0738 0.48195,-0.0738 0.66476,0 0.18281,0.0738 0.0333,0.13414 -0.33238,0.13414 -0.36561,0 -0.51519,-0.0604 -0.33238,-0.13414 z m -17.86642,-0.32702 c -0.9076,-0.14006 -1.07791,-0.2779 -1.27143,-1.02904 -0.12289,-0.47703 -0.45899,-1.01445 -0.74688,-1.19426 -0.40638,-0.25383 -0.52434,-0.62487 -0.5275,-1.65922 -0.003,-0.95824 -0.0765,-1.22027 -0.26184,-0.93335 -0.14177,0.21941 -0.25959,0.79086 -0.26183,1.26985 -0.003,0.68235 -0.14802,0.92566 -0.66884,1.12372 -0.36561,0.13902 -0.66476,0.37543 -0.66476,0.52531 0,0.14989 -0.59828,0.27254 -1.32951,0.27254 -1.58519,0 -1.65124,-0.22853 -0.67332,-2.32941 0.72296,-1.55315 1.33734,-1.92581 3.1749,-1.92581 2.52076,0 4.80942,2.1115 5.11859,4.72235 0.18345,1.54928 0.2777,1.49148 -1.88758,1.15732 z m 16.00509,0.0611 c 0.18281,-0.0738 0.48195,-0.0738 0.66476,0 0.1828,0.0738 0.0333,0.13414 -0.33239,0.13414 -0.36561,0 -0.51519,-0.0604 -0.33237,-0.13414 z m -1.32952,-0.26596 c 0.18281,-0.0738 0.48195,-0.0738 0.66476,0 0.18281,0.0738 0.0333,0.13415 -0.33238,0.13415 -0.36562,0 -0.51519,-0.0604 -0.33238,-0.13415 z m 31.40927,-0.28927 c -0.33075,-0.42182 -0.32134,-0.43123 0.1004,-0.10042 0.44293,0.34742 0.58379,0.56581 0.36495,0.56581 -0.0552,0 -0.26462,-0.20944 -0.46534,-0.4654 z m -48.71522,0.0221 c -0.0975,-0.0975 -0.17727,-0.4653 -0.17727,-0.81734 0,-0.92883 0.90428,-0.6922 1.01481,0.26556 0.0805,0.69758 -0.38509,1.00433 -0.83754,0.55179 z m -4.69764,-0.35459 c -0.28285,-0.18282 0.0504,-0.25899 1.14578,-0.26188 0.96299,-0.003 1.48276,0.0961 1.38031,0.26188 -0.20963,0.33924 -2.00124,0.33924 -2.52609,0 z m 2.92494,0.0777 c 0,-0.37093 0.80742,-1.40743 1.09637,-1.40743 0.14766,0 0.23061,0.32911 0.18434,0.73137 -0.0602,0.52366 -0.25405,0.7555 -0.68242,0.81635 -0.32906,0.0468 -0.59829,-0.0164 -0.59829,-0.14029 z m -60.941951,-0.2596 c 0.191943,-0.0768 0.421283,-0.0674 0.509642,0.021 0.08834,0.0883 -0.06864,0.15124 -0.348994,0.13968 -0.309769,-0.0127 -0.372772,-0.0758 -0.160648,-0.16068 z m 107.404311,-0.11727 c 0.18038,-0.18175 0.39494,-0.26348 0.4768,-0.18158 0.0819,0.0819 -0.0657,0.23059 -0.32795,0.33045 -0.37896,0.14434 -0.4095,0.11379 -0.14885,-0.14887 z m -106.240715,-0.1316 c 0.246937,-0.0738 0.505854,-0.39598 0.575363,-0.71609 0.105926,-0.48781 0.119333,-0.47485 0.08282,0.0801 -0.02957,0.44946 -0.214377,0.67948 -0.575363,0.71609 -0.382737,0.0387 -0.405952,0.0164 -0.08282,-0.0801 z m 55.789795,-0.3779 c 0,-0.37824 1.00097,-2.31285 1.2887,-2.49069 0.12797,-0.0791 0.0399,0.51093 -0.19563,1.3112 -0.23557,0.80027 -0.57788,1.45527 -0.76069,1.45554 -0.18281,2.6e-4 -0.33238,-0.12395 -0.33238,-0.27605 z m 51.78488,0.10042 c 0.18281,-0.0738 0.48196,-0.0738 0.66476,0 0.18281,0.0738 0.0333,0.13414 -0.33238,0.13414 -0.36561,0 -0.51519,-0.0604 -0.33238,-0.13414 z M 72.307384,130.65646 c 0.182809,-0.0738 0.481951,-0.0738 0.664762,0 0.182809,0.0738 0.03323,0.13413 -0.332382,0.13413 -0.365618,0 -0.515189,-0.0604 -0.33238,-0.13413 z m -2.127235,-0.26597 c 0.18281,-0.0738 0.481952,-0.0738 0.664761,0 0.182809,0.0738 0.03324,0.13415 -0.33238,0.13415 -0.365619,0 -0.515191,-0.0603 -0.332381,-0.13415 z m 72.392471,-0.62172 c -0.21937,-0.1418 -0.2792,-0.2578 -0.13295,-0.2578 0.14624,0 0.44539,0.116 0.66476,0.2578 0.21937,0.14181 0.2792,0.25782 0.13295,0.25782 -0.14625,0 -0.44539,-0.11601 -0.66476,-0.25782 z m -72.92428,-0.17613 c 0.18281,-0.0738 0.481952,-0.0738 0.664761,0 0.182809,0.0738 0.03324,0.13414 -0.33238,0.13414 -0.365619,0 -0.51519,-0.0603 -0.332381,-0.13414 z m 2.459616,-0.62172 c 0.219371,-0.14179 0.578341,-0.25124 0.797713,-0.24317 0.262995,0.01 0.217707,0.0924 -0.132952,0.24317 -0.730995,0.31418 -1.150827,0.31418 -0.664761,0 z m 27.353046,0.0713 0.895548,-0.1096 -0.762045,-0.84516 c -0.72873,-0.80821 -0.718479,-0.80509 0.234545,0.0714 0.54811,0.50409 0.99658,0.95288 0.99658,0.99732 0,0.0444 -0.50854,0.0616 -1.130093,0.0382 -1.02848,-0.0386 -1.049564,-0.0525 -0.234535,-0.15217 z m 41.119218,-0.0682 c -0.0932,-0.15076 0.0136,-0.19535 0.25021,-0.10452 0.46066,0.17679 0.54494,0.36742 0.16246,0.36742 -0.13762,0 -0.32333,-0.11831 -0.41267,-0.2629 z m -45.13915,-0.19539 c 0.475301,-0.059 1.253065,-0.059 1.728376,0 0.475301,0.059 0.08643,0.10727 -0.864193,0.10727 -0.950602,0 -1.339494,-0.0483 -0.864183,-0.10727 z m -3.589714,-0.26405 c 0.402178,-0.0609 1.060297,-0.0609 1.462476,0 0.402178,0.0609 0.07316,0.11079 -0.731243,0.11079 -0.804357,0 -1.133411,-0.0499 -0.731233,-0.11079 z m 8.602454,-0.36765 c -1.041048,-0.81903 -2.025629,-2.93065 -1.998706,-4.28662 l 0.02261,-1.13915 0.339637,1.32976 c 0.626322,2.45217 1.093633,3.2028 2.544789,4.08759 0.75568,0.46075 0.82253,0.56475 0.36353,0.56556 -0.30933,5.5e-4 -0.88166,-0.25016 -1.27186,-0.55714 z m 16.45904,0.29218 c -0.0904,-0.14626 -0.0447,-0.26594 0.10156,-0.26594 0.14625,0 0.33986,0.11968 0.43025,0.26594 0.0904,0.14628 0.0447,0.26597 -0.10158,0.26597 -0.14624,0 -0.33984,-0.11969 -0.43023,-0.26597 z m -28.914004,-0.18809 c 0.330753,-0.0636 0.809381,-0.0612 1.063614,0.005 0.254233,0.0666 -0.01638,0.1186 -0.601388,0.11566 -0.584986,-0.003 -0.792989,-0.0574 -0.462226,-0.12104 z m 52.080534,-0.22111 c -0.25659,-0.66879 -0.1809,-0.84134 0.13256,-0.30221 0.1552,0.26695 0.22617,0.54139 0.15771,0.60986 -0.0684,0.0685 -0.19909,-0.07 -0.29027,-0.30765 z m -55.137883,-0.0476 c 0.404188,-0.0611 1.00248,-0.0595 1.329525,0.004 0.327045,0.0631 -0.004,0.11314 -0.734891,0.11113 -0.731243,-0.002 -0.998822,-0.0537 -0.594634,-0.11476 z m 16.678703,-0.28634 c -1.17152,-0.59734 -1.7651,-1.46534 -2.219819,-3.24615 -0.205441,-0.80449 -0.345959,-1.49439 -0.312282,-1.53309 0.0609,-0.07 2.133391,1.01384 3.255141,1.70221 0.55869,0.34285 0.56886,0.41147 0.21122,1.42529 -0.46753,1.32539 -0.24837,1.40528 0.29392,0.10716 0.40652,-0.97312 0.49871,-0.99822 1.83287,-0.49917 l 0.5318,0.19893 -0.5318,-0.42626 c -0.49225,-0.39453 -0.49589,-0.42687 -0.049,-0.4347 0.26555,-0.005 0.72473,0.12102 1.02039,0.27929 0.49672,0.26589 0.41959,0.37316 -1.01462,1.41139 -0.85371,0.61799 -1.68178,1.20128 -1.84014,1.29618 -0.15837,0.0949 -0.68832,-0.0315 -1.17768,-0.28108 z m 15.26279,-0.13524 c -0.45517,-0.32247 -1.92097,-0.88021 -3.25733,-1.2394 -1.33637,-0.35919 -2.42976,-0.73375 -2.42976,-0.83235 0,-0.5963 1.47822,-0.38321 4.18926,0.60389 l 3.00301,1.09342 2.67619,-0.99286 c 3.10456,-1.15178 5.02758,-1.99536 4.5677,-2.00371 -0.17684,-0.003 -1.48914,0.41156 -2.91621,0.92169 -2.20935,0.78979 -2.62757,0.86879 -2.81606,0.53192 -0.32633,-0.58322 -0.88563,-0.48266 -1.4736,0.26496 l -0.51955,0.66061 -1.29221,-0.6872 c -0.71072,-0.37796 -1.71209,-0.68698 -2.22528,-0.6867 -0.51318,2.6e-4 -1.02343,-0.0551 -1.13387,-0.12294 -0.20942,-0.12871 1.08871,-2.16255 1.7088,-2.67727 0.19598,-0.16267 0.71462,-0.3749 1.15254,-0.47162 0.60327,-0.13326 0.69957,-0.1072 0.39736,0.10751 -0.21936,0.15586 -0.28624,0.28523 -0.14859,0.28747 0.13763,0.002 0.018,0.17763 -0.26591,0.38976 -0.49405,0.36919 -0.48898,0.37884 0.11824,0.22549 0.58465,-0.14765 0.62476,-0.0945 0.51139,0.67812 -0.16982,1.15728 0.21581,1.06062 0.43521,-0.10909 0.24397,-1.30071 0.92812,-1.11574 1.54547,0.41785 l 0.48083,1.19443 -0.13734,-1.08311 -0.13735,-1.08312 1.48144,-0.46706 c 0.81479,-0.25689 1.53902,-0.40946 1.60941,-0.33907 0.0703,0.0704 -0.5085,0.43928 -1.28641,0.81971 -1.54574,0.75596 -0.82208,0.75037 1.1534,-0.009 l 1.23828,-0.47593 2.88324,0.94373 2.88325,0.94374 -1.32952,0.67159 c -1.94746,0.98372 -5.67361,2.30139 -7.75571,2.74261 -2.20146,0.46653 -1.91346,0.48812 -2.91032,-0.21815 z m -0.0358,-2.59651 c -0.91359,-0.11881 -1.7811,-0.29022 -1.92781,-0.38089 -0.14671,-0.0907 -0.26673,-0.0941 -0.26673,-0.008 0,0.33012 1.24992,0.63761 2.52609,0.6214 l 1.32952,-0.0169 z m -35.366117,2.7525 c 0.402178,-0.0609 1.060298,-0.0609 1.462476,0 0.402178,0.0609 0.07316,0.11078 -0.731243,0.11078 -0.804356,0 -1.133411,-0.0499 -0.731233,-0.11078 z m -3.850851,-0.26822 c 0.477923,-0.0592 1.195865,-0.058 1.595427,0.003 0.399561,0.0607 0.0085,0.10911 -0.868952,0.10763 -0.877485,-0.002 -1.204398,-0.0512 -0.726475,-0.11034 z m 20.932083,-0.61016 c -0.09216,-0.14907 -0.757283,-0.56995 -1.478164,-0.93532 -0.720891,-0.36536 -1.310712,-0.72413 -1.310712,-0.79727 0,-0.23709 2.548743,1.15128 2.907737,1.58391 0.191531,0.23083 0.280825,0.41968 0.198415,0.41968 -0.08241,0 -0.225168,-0.12195 -0.317276,-0.271 z m 40.661405,-0.49506 c -0.3063,-0.38316 -0.64241,-1.0448 -0.74691,-1.47031 -0.23208,-0.94489 -1.78433,-2.55241 -2.45874,-2.54628 -0.36037,0.003 -0.25816,0.1542 0.38219,0.56432 0.82114,0.5259 1.9102,2.08787 1.45938,2.09312 -0.11344,0.001 -0.51551,-0.37389 -0.8935,-0.83379 -0.70901,-0.86269 -1.0052,-0.92462 -3.19806,-0.66858 -0.52819,0.0616 -1.24614,0.24731 -1.59542,0.41255 -0.54527,0.25794 -0.56424,0.25265 -0.13412,-0.0375 0.27552,-0.18582 0.86849,-0.63705 1.31769,-1.00274 0.4492,-0.36568 0.71268,-0.49493 0.58552,-0.28724 -0.16668,0.27222 -0.12627,0.3334 0.14479,0.21918 0.20679,-0.0871 1.00028,-0.42877 1.76329,-0.75916 1.37413,-0.59505 1.39276,-0.59586 1.96535,-0.0862 0.70739,0.62962 1.54995,2.40568 1.56883,3.307 0.0105,0.50462 0.0686,0.56872 0.24083,0.26596 0.43884,-0.77152 -0.0208,-2.17129 -1.05157,-3.20222 -0.95145,-0.9516 -0.97382,-1.01184 -0.42997,-1.15775 1.60433,-0.43047 2.90801,0.29842 3.34136,1.86816 0.2984,1.08093 0.0356,2.00523 -0.85756,3.01567 -0.47135,0.53325 -0.48343,0.58329 -0.0642,0.26594 0.3178,-0.24057 0.43993,-0.26358 0.31757,-0.0599 -0.4642,0.77289 -1.08858,0.81048 -1.65675,0.0997 z m 1.75347,-2.12007 c 0,-1.03919 -0.87143,-2.684 -1.53803,-2.90299 -0.18779,-0.0617 -0.0366,0.33714 0.33604,0.88633 0.37261,0.54919 0.75096,1.45809 0.84078,2.01983 0.2088,1.30609 0.36121,1.30474 0.36121,-0.003 z m -22.33597,1.9553 c 0.36125,-0.43535 1.06362,-0.54195 1.06362,-0.16142 0,0.24482 -0.62947,0.56035 -1.11792,0.56035 -0.16755,0 -0.14612,-0.15738 0.0543,-0.39893 z m -22.73482,-1.6132 c -1.169983,-0.64277 -2.22008,-1.202 -2.333544,-1.24274 -0.113473,-0.0406 0.04281,-0.58968 0.347215,-1.21991 0.520949,-1.07843 0.602956,-1.13502 1.393353,-0.96139 0.461895,0.10147 1.238322,0.32247 1.725371,0.49112 0.881168,0.30512 0.885972,0.31617 0.969175,2.22694 0.04593,1.05618 0.07055,1.91004 0.05467,1.89748 -0.01598,-0.0125 -0.98623,-0.54872 -2.156202,-1.1915 z m 11.76831,-0.57705 c -0.18761,-2.06942 -1.01502,-3.62827 -2.47044,-4.6543 -0.64885,-0.45744 -1.14891,-0.86253 -1.11125,-0.90021 0.0377,-0.0376 0.83534,-0.0962 1.7726,-0.13 l 1.70411,-0.0615 1.23101,1.33902 c 0.72102,0.78428 1.41028,1.87734 1.66373,2.63841 0.26853,0.80638 0.43894,1.06911 0.44912,0.69246 0.0231,-0.85524 -0.63559,-2.32392 -1.57351,-3.50834 l -0.79972,-1.00993 1.4459,-0.18069 c 0.84025,-0.10499 1.65665,-0.0679 1.949,0.0885 0.67153,0.35946 2.45149,2.34587 2.45149,2.73585 0,0.17023 0.0686,0.24085 0.15256,0.15692 0.0839,-0.0839 -0.0426,-0.55266 -0.28106,-1.04164 l -0.43363,-0.88905 0.77412,0.90669 0.77411,0.90671 -0.19846,-1.46277 c -0.19346,-1.42586 -0.70385,-2.61122 -1.12434,-2.61122 -0.11482,0 -0.0262,0.35308 0.19692,0.78464 0.76395,1.47757 0.49765,1.75391 -0.67183,0.69716 -1.25618,-1.13509 -2.07633,-1.49991 -2.94899,-1.31184 -0.34475,0.0743 -0.10521,-0.11306 0.53231,-0.41636 0.63752,-0.30331 1.29564,-0.54305 1.46247,-0.53276 0.16684,0.0102 0.064,0.13215 -0.22846,0.2708 -0.39557,0.18756 -0.25932,0.21622 0.53181,0.11192 4.16512,-0.54915 6.22724,-0.73253 6.60533,-0.58743 0.61848,0.23739 1.50258,1.78104 1.50376,2.6256 0.001,0.85816 -1.37617,2.33564 -2.21317,2.37404 -0.52765,0.0242 -0.5201,0.0434 0.0869,0.22046 0.60873,0.17759 0.58073,0.20448 -0.33237,0.31902 -0.54844,0.0688 -0.99714,0.0294 -0.99714,-0.0874 0,-0.38386 -1.86555,-0.22204 -2.54065,0.22038 -0.36333,0.2381 -0.94632,0.91213 -1.29553,1.49784 -0.49519,0.83055 -0.94761,1.18318 -2.05558,1.6022 -0.78134,0.29549 -1.97143,0.58925 -2.64464,0.65279 l -1.22403,0.11553 z m 9.9029,-4.99124 c 0,-0.87834 -0.16761,-1.35046 -0.67891,-1.91245 l -0.67889,-0.7462 0.45495,0.93083 c 0.25022,0.51197 0.46599,1.42801 0.47947,2.03566 0.0327,1.46961 0.42338,1.18549 0.42338,-0.30784 z m 2.12723,-0.38429 c 0,-0.8821 -0.16257,-1.48133 -0.51885,-1.91245 l -0.51885,-0.62786 0.39274,1.3283 c 0.21601,0.73056 0.31705,1.67303 0.22452,2.09439 -0.11562,0.5265 -0.0762,0.70919 0.1261,0.58415 0.16189,-0.10002 0.29434,-0.76 0.29434,-1.46653 z m 21.97455,6.63501 c 0.1154,-0.21941 0.28878,-0.87764 0.38529,-1.46272 l 0.17546,-1.06382 0.0333,0.94649 c 0.0183,0.52057 -0.15508,1.17879 -0.38529,1.46274 -0.23021,0.28392 -0.32415,0.33672 -0.20875,0.11731 z m -35.7351,-0.32459 c -0.32906,-0.15872 -0.59829,-0.43367 -0.59829,-0.61101 0,-0.17733 -0.24519,-0.63419 -0.54486,-1.01523 -0.4871,-0.61934 -0.5111,-0.80549 -0.22642,-1.75584 0.17514,-0.58466 0.42203,-0.99899 0.54866,-0.92072 0.42548,0.263 1.30336,2.23949 1.52736,3.43873 0.23762,1.27215 0.20988,1.30608 -0.70645,0.86407 z m -11.099623,-0.20426 c -0.09316,-0.15075 0.01357,-0.19534 0.250203,-0.10452 0.460659,0.1768 0.544947,0.36742 0.162457,0.36742 -0.137614,0 -0.323316,-0.1183 -0.41266,-0.2629 z m 34.875833,-0.33548 c -0.13345,-0.5297 -0.11235,-0.54716 0.18372,-0.15215 0.22939,0.30607 0.45495,0.37001 0.71801,0.20353 0.21094,-0.13349 0.50321,-0.24029 0.64945,-0.23735 0.27104,0.005 -0.92501,0.75774 -1.23203,0.77493 -0.0927,0.005 -0.23625,-0.25985 -0.31915,-0.58896 z m -27.12297,-0.12905 c -0.0939,-0.15186 0.0105,-0.4264 0.23174,-0.61009 0.54595,-0.45317 0.73265,-0.19956 0.29439,0.39991 -0.2178,0.29791 -0.42161,0.37933 -0.52613,0.21018 z m 1.15304,-0.18771 c 0,-0.55522 0.55165,-0.8113 0.82338,-0.3822 0.36048,0.56923 0.28574,0.76543 -0.29156,0.76543 -0.2925,0 -0.53182,-0.17244 -0.53182,-0.38323 z m -3.3238,-0.99164 c -1.267829,-0.65982 -1.329184,-0.70875 -1.133753,-0.90421 0.08331,-0.0833 0.765003,0.11251 1.514883,0.43516 0.74989,0.32265 1.43812,0.51194 1.52939,0.42065 0.0913,-0.0912 -0.38604,-0.41019 -1.0607,-0.70868 -1.43959,-0.63692 -1.522944,-0.7392 -1.23117,-1.51094 0.41367,-1.0942 2.89153,-1.83339 3.9331,-1.17332 0.62641,0.39698 -0.28646,2.9833 -1.25496,3.55551 -0.96307,0.56899 -0.98625,0.56785 -2.29679,-0.11417 z m 27.47125,0.39534 c 0.19195,-0.0768 0.4213,-0.0674 0.50965,0.021 0.0883,0.0883 -0.0687,0.15124 -0.349,0.13969 -0.30976,-0.0128 -0.37277,-0.0758 -0.16065,-0.16069 z m -37.243229,-0.90022 c -0.548435,-0.28959 -0.997144,-0.58593 -0.997144,-0.65854 0,-0.0726 0.478628,0.11219 1.063614,0.41069 0.584987,0.29849 1.063615,0.60012 1.063615,0.67028 0,0.17397 -0.002,0.17328 -1.130085,-0.42243 z m -8.306508,-5.04598 c -8.645903,-4.52775 -10.923411,-5.83992 -10.136289,-5.83992 0.0816,0 4.429135,2.14054 9.661189,4.75677 5.232063,2.61621 9.972093,4.94824 10.533401,5.18226 0.987064,0.41154 1.21977,1.04578 0.419876,1.1444 -0.207249,0.0255 -4.922435,-2.33402 -10.478177,-5.24351 z m 23.980347,4.12992 c -0.24322,-0.51013 -0.38739,-0.92749 -0.32039,-0.92749 0.18194,0 0.98915,1.62839 0.8675,1.75005 -0.0577,0.0577 -0.3039,-0.31246 -0.54711,-0.82256 z m 12.57849,0.66821 c 0.21938,-0.14179 0.57835,-0.25122 0.79772,-0.24318 0.26299,0.01 0.21771,0.0924 -0.13295,0.24318 -0.73099,0.31417 -1.15083,0.31417 -0.66477,0 z m 4.73643,-0.18168 c 0.19195,-0.0768 0.4213,-0.0674 0.50965,0.021 0.0883,0.0884 -0.0686,0.15125 -0.349,0.13969 -0.30977,-0.0127 -0.37277,-0.0758 -0.16065,-0.16068 z m 17.32817,-0.75498 c -0.34649,-0.36888 -0.99555,-0.77697 -1.44235,-0.90684 -0.66424,-0.19308 -0.70256,-0.24051 -0.21018,-0.26013 0.34367,-0.0136 1.02859,0.37254 1.59543,0.89965 0.54628,0.508 0.92435,0.92688 0.84015,0.93083 -0.0842,0.004 -0.43656,-0.29462 -0.78305,-0.66351 z m -42.007426,0.13881 c 0,-0.14628 0.12672,-0.26596 0.281599,-0.26596 0.15488,0 0.207652,0.11968 0.117263,0.26596 -0.09035,0.14627 -0.217109,0.26594 -0.281599,0.26594 -0.06452,0 -0.117263,-0.11967 -0.117263,-0.26594 z m -10.767243,-0.26292 c -0.09316,-0.15075 0.01357,-0.19533 0.250213,-0.10451 0.460658,0.1768 0.544937,0.36743 0.162457,0.36743 -0.137614,0 -0.323316,-0.11831 -0.41267,-0.26292 z m -4.485304,-4.38429 c -5.098342,-2.53758 -9.401443,-4.74554 -9.562451,-4.90657 -0.213051,-0.21309 0.89551,-0.2438 4.072301,-0.11281 l 4.36504,0.17997 5.862164,2.57756 c 3.224199,1.41766 7.016741,3.08116 8.427871,3.69667 l 2.565707,1.11912 -0.666431,1.01807 -0.66643,1.01806 -1.889991,-0.53495 -1.889989,-0.53495 -0.374099,0.56352 c -0.205752,0.30994 -0.509069,0.55599 -0.674039,0.54679 -0.164979,-0.009 -4.471314,-2.09291 -9.569653,-4.63048 z m 52.213263,4.38125 c 0.21937,-0.14179 0.51852,-0.2578 0.66476,-0.2578 0.14625,0 0.0864,0.11601 -0.13296,0.2578 -0.21937,0.1418 -0.5185,0.25781 -0.66475,0.25781 -0.14625,0 -0.0864,-0.11601 0.13295,-0.25781 z m -51.386023,-1.87976 c -0.548425,-0.28958 -0.997144,-0.58592 -0.997144,-0.65853 0,-0.0726 0.478628,0.11219 1.063614,0.41068 0.584997,0.29849 1.063624,0.60013 1.063624,0.67029 0,0.17397 -0.002,0.17328 -1.130094,-0.42244 z m 16.138033,-0.0952 c 0.28388,-0.23026 0.76251,-0.40835 1.06362,-0.39578 0.43931,0.0183 0.40712,0.0652 -0.16294,0.23737 -0.39072,0.11799 -0.86935,0.29609 -1.06362,0.3958 -0.19427,0.0997 -0.12094,-0.007 0.16294,-0.23739 z m -1.180914,-0.25466 c 0,-0.0561 0.23948,-0.16459 0.532174,-0.24114 0.2927,-0.0766 0.46512,-0.0306 0.38316,0.10195 -0.14312,0.23163 -0.915334,0.34905 -0.915334,0.13919 z m -17.414849,-0.9588 c -0.09316,-0.15075 0.01357,-0.19533 0.250203,-0.10451 0.460658,0.17679 0.544947,0.36742 0.162457,0.36742 -0.137614,0 -0.323317,-0.1183 -0.41266,-0.26291 z m 20.007423,0.0752 c 0.32905,-0.0634 0.86751,-0.0634 1.19656,0 0.32907,0.0635 0.0598,0.11526 -0.59828,0.11526 -0.65811,0 -0.92734,-0.0519 -0.59828,-0.11526 z m 2.26019,-0.26159 c 0.25593,-0.0669 0.67473,-0.0669 0.93066,0 0.25593,0.067 0.0465,0.12163 -0.46533,0.12163 -0.51187,0 -0.72126,-0.0548 -0.46533,-0.12163 z m 2.26019,-0.25876 c 0.1828,-0.0738 0.48194,-0.0738 0.66475,0 0.18281,0.0738 0.0333,0.13414 -0.33238,0.13414 -0.36562,0 -0.51519,-0.0603 -0.33237,-0.13414 z m 1.99934,-0.27411 c 0.25871,-0.0675 0.61768,-0.0631 0.79771,0.01 0.18003,0.0729 -0.0317,0.12802 -0.47039,0.12261 -0.43874,-0.005 -0.58605,-0.0651 -0.32732,-0.13246 z m -13.632672,-0.34761 c -0.21937,-0.14178 -0.279197,-0.2578 -0.13295,-0.2578 0.146246,0 0.445392,0.11602 0.664762,0.2578 0.21937,0.14179 0.279197,0.25781 0.132951,0.25781 -0.146247,0 -0.445383,-0.11602 -0.664763,-0.25781 z m -16.552553,-0.81599 c -0.548428,-0.28958 -0.997142,-0.58592 -0.997142,-0.65854 0,-0.0726 0.478628,0.1122 1.063618,0.41069 0.584989,0.29848 1.063617,0.60012 1.063617,0.67028 0,0.17398 -0.0019,0.17329 -1.130093,-0.42243 z m 14.159404,-0.24785 c -0.21937,-0.1418 -0.279197,-0.2578 -0.132951,-0.2578 0.146247,0 0.445393,0.116 0.664763,0.2578 0.21937,0.14179 0.279197,0.25781 0.13295,0.25781 -0.146246,0 -0.445382,-0.11602 -0.664762,-0.25781 z m 20.674071,0.0899 c 0.18281,-0.0738 0.48196,-0.0738 0.66476,0 0.18281,0.0738 0.0333,0.13414 -0.33238,0.13414 -0.36561,0 -0.51519,-0.0603 -0.33238,-0.13414 z m 6.99309,-0.20701 c -0.17485,-0.21072 -0.63823,-0.43216 -1.0297,-0.49205 l -0.71178,-0.10892 0.69003,-0.0397 c 0.39313,-0.0227 0.8971,0.189 1.1713,0.49205 0.26471,0.29254 0.41756,0.5319 0.33968,0.5319 -0.0779,0 -0.28468,-0.17242 -0.45953,-0.38314 z m -5.39766,-0.0589 c 0.18281,-0.0738 0.48195,-0.0738 0.66476,0 0.18281,0.0738 0.0333,0.13415 -0.33238,0.13415 -0.36562,0 -0.51519,-0.0603 -0.33238,-0.13415 z m 1.86133,-0.26595 c 0.1828,-0.0738 0.48195,-0.0738 0.66476,0 0.18281,0.0738 0.0333,0.13414 -0.33238,0.13414 -0.36562,0 -0.51519,-0.0604 -0.33238,-0.13414 z m -40.4996,-0.50342 c -0.486687,-0.38998 -0.478202,-0.39551 0.148606,-0.097 0.813942,0.38771 0.964791,0.51055 0.62695,0.51055 -0.142672,0 -0.491671,-0.18612 -0.775556,-0.41361 z m 14.24154,0.0147 c -0.365616,-0.20904 -0.545108,-0.38008 -0.398861,-0.38008 0.146246,0 0.565047,0.17104 0.930663,0.38008 0.365627,0.20905 0.545108,0.38009 0.398862,0.38009 -0.146247,0 -0.565047,-0.17104 -0.930664,-0.38009 z m -2.393139,-1.06385 c -0.365617,-0.20905 -0.545108,-0.38008 -0.398862,-0.38008 0.146247,0 0.565047,0.17103 0.930664,0.38008 0.365626,0.20903 0.545108,0.38007 0.398861,0.38007 -0.146246,0 -0.565047,-0.17104 -0.930663,-0.38007 z m -1.861338,-0.79786 c -0.365616,-0.20905 -0.545098,-0.38008 -0.398851,-0.38008 0.146246,0 0.565047,0.17103 0.930664,0.38008 0.365616,0.20905 0.545108,0.38008 0.398861,0.38008 -0.146246,0 -0.565047,-0.17103 -0.930674,-0.38008 z m -14.026452,-0.19162 c -0.329055,-0.15872 -0.598284,-0.44983 -0.598284,-0.64688 0,-0.19705 -0.269229,-0.37216 -0.598284,-0.38914 -0.451477,-0.0233 -0.483904,-0.0607 -0.13215,-0.15263 0.281183,-0.0735 0.790446,0.20261 1.283499,0.69574 0.449551,0.44963 0.778246,0.80941 0.730435,0.79951 -0.04781,-0.01 -0.356159,-0.14787 -0.685216,-0.3066 z m -34.260578,-0.2484 c -0.125544,-0.20317 -0.07196,-0.23425 0.158337,-0.0918 0.237248,0.14664 0.284101,0.11162 0.147141,-0.11002 -0.110509,-0.17885 -0.353728,-0.26653 -0.540485,-0.19485 -0.375787,0.14423 -0.940714,-0.30963 -0.928091,-0.74565 0.004,-0.15358 0.125915,-0.0772 0.269931,0.16975 0.236846,0.40614 0.331245,0.38404 0.989053,-0.23149 0.399968,-0.37428 0.697305,-0.78576 0.660743,-0.91441 -0.03658,-0.12866 0.07326,-0.204 0.244163,-0.16744 0.358059,0.0766 1.009174,-1.03782 1.014963,-1.73722 0.007,-0.88699 -0.760951,-2.36932 -1.120608,-2.16205 -0.185873,0.10711 -0.252263,0.0998 -0.147543,-0.0162 0.104731,-0.11601 -0.10467,-0.44307 -0.465332,-0.72683 -0.360651,-0.28373 -0.655737,-0.63985 -0.655737,-0.79137 0,-0.432 1.394166,0.0108 1.994277,0.6334 0.292494,0.30346 0.366722,0.45877 0.16494,0.34516 -0.250565,-0.14111 -0.324331,-0.0894 -0.232676,0.16284 0.07387,0.20322 0.264524,0.34098 0.423785,0.30618 0.167181,-0.0367 0.218325,0.12241 0.121002,0.37606 -0.09548,0.24889 -0.05869,0.37142 0.08502,0.28264 0.139463,-0.0862 0.256464,0.10359 0.260022,0.42177 0.004,0.31819 0.02924,0.9974 0.05698,1.50936 l 0.05055,0.93083 2.859014,-0.0181 c 2.447701,-0.0155 2.514723,-0.006 0.465875,0.0662 -2.75153,0.0969 -3.676013,0.26194 -3.456583,0.61705 0.229681,0.3717 -0.673587,1.61916 -1.0264,1.41753 -0.166808,-0.0954 -0.214586,-0.0754 -0.106177,0.0444 0.248203,0.27402 -0.278192,0.93146 -0.745795,0.93146 -0.192828,0 -0.435976,-0.13818 -0.540335,-0.30705 z m 0.520406,-7.27256 c -0.08422,-0.21942 -0.274565,-0.39893 -0.423072,-0.39893 -0.155634,0 -0.129795,0.16899 0.061,0.39893 0.182064,0.2194 0.37244,0.39891 0.423072,0.39891 0.05065,0 0.02322,-0.17951 -0.061,-0.39891 z m 46.171198,7.04769 c -0.21937,-0.14178 -0.279197,-0.2578 -0.13295,-0.2578 0.146246,0 0.445392,0.11602 0.664762,0.2578 0.21937,0.14181 0.279197,0.25782 0.132951,0.25782 -0.146247,0 -0.445383,-0.11601 -0.664763,-0.25782 z m -0.904604,-0.48972 c -0.109283,-0.17687 -0.03357,-0.30812 0.177803,-0.30812 0.469754,0 1.414176,-1.00042 1.757592,-1.86181 0.192195,-0.48205 0.26966,-0.534 0.281881,-0.18902 0.02301,0.64878 -1.966279,2.76515 -2.217276,2.35895 z m -14.272067,-1.03949 -0.644635,-0.73137 0.731237,0.64476 c 0.683451,0.6026 0.853179,0.81798 0.644635,0.81798 -0.04763,0 -0.376686,-0.32911 -0.731237,-0.73137 z m 0.950791,0.004 c -0.695985,-0.38798 -0.729894,-0.45606 -0.265904,-0.53392 1.545928,-0.25942 1.728283,-0.3586 1.724308,-0.93794 -0.0063,-0.91836 -0.298478,-1.18313 -1.585589,-1.4369 l -1.190802,-0.23477 0.997062,-0.61632 0.997061,-0.61632 5.378876,0.42608 c 2.958381,0.23437 5.95723,0.46846 6.664112,0.52021 2.262782,0.16568 2.866351,1.43721 1.504294,3.16909 l -0.545832,0.69404 -6.439937,0.006 c -5.530686,0.005 -6.552565,-0.0571 -7.237649,-0.43896 z m 2.3967,-0.61367 c 0.235796,-0.74305 -0.08861,-2.49284 -0.572713,-3.08918 -0.367288,-0.45242 -0.381545,-0.42885 -0.186215,0.30791 0.116341,0.43882 0.213348,1.36632 0.215569,2.06112 0.0042,1.32096 0.249533,1.64607 0.543359,0.72015 z m -12.434569,-0.18665 c 1.206544,-0.0493 3.180883,-0.0493 4.387417,0 1.206544,0.0493 0.21937,0.0895 -2.193709,0.0895 -2.413078,0 -3.400253,-0.0404 -2.193708,-0.0895 z m -28.332269,-0.2659 c 1.272271,-0.0487 3.426091,-0.0489 4.786279,-5.1e-4 1.360188,0.0484 0.319236,0.0881 -2.313212,0.0884 -2.632459,2.8e-4 -3.745338,-0.0394 -2.473067,-0.0879 z m -4.267652,-0.7995 -0.0398,-0.86434 1.661897,0.0503 1.661906,0.0503 -1.512524,0.0955 c -1.409814,0.089 -1.519962,0.14427 -1.622059,0.81405 -0.0996,0.6532 -0.113162,0.63993 -0.149382,-0.14575 z m 24.046556,0.46991 c -7.5159,-0.095 -10.909922,-0.22728 -10.976724,-0.42794 -0.140789,-0.4229 6.348993,-0.63843 19.254831,-0.63947 10.430496,-8.6e-4 10.972027,0.0231 11.225101,0.49604 0.146248,0.27333 0.190345,0.57252 0.09799,0.66489 -0.09235,0.0924 -2.092396,0.14004 -4.444544,0.10593 -2.352146,-0.034 -9.172641,-0.12384 -15.156651,-0.19945 z m -18.435932,-0.19927 c -3.103549,-0.0502 -5.11866,-0.1851 -5.11866,-0.34287 0,-0.16161 2.174744,-0.2602 5.739103,-0.2602 4.472389,0 5.714942,0.0734 5.629638,0.33243 -0.128679,0.39081 0.229832,0.37528 -6.250081,0.27064 z m 11.716057,-1.33396 c 2.166102,-0.0448 5.636151,-0.0447 7.711231,2.2e-4 2.075079,0.0448 0.302814,0.0815 -3.938357,0.0814 -4.24117,-1.4e-4 -5.938965,-0.0369 -3.772874,-0.0816 z m 23.848656,-0.73184 c 0.343481,-0.36568 0.684338,-0.66489 0.757463,-0.66489 0.07312,0 -0.148077,0.29921 -0.491559,0.66489 -0.343483,0.36568 -0.684345,0.66487 -0.757469,0.66487 -0.07316,0 0.148082,-0.29919 0.491565,-0.66487 z m -29.897146,-0.055 c -0.144307,-0.37902 -0.113765,-0.40957 0.14885,-0.14887 0.181723,0.18042 0.263419,0.395 0.181552,0.47689 -0.08191,0.0819 -0.230546,-0.0658 -0.330402,-0.32802 z m 45.585499,0.18801 c -0.23965,-0.15491 -0.272453,-0.25944 -0.08221,-0.26188 0.174186,-0.002 0.390641,0.11561 0.48103,0.26188 0.204024,0.33018 0.111976,0.33018 -0.398862,0 z m -2.442997,-0.44763 c 0.191954,-0.0768 0.421293,-0.0674 0.509652,0.021 0.08834,0.0883 -0.06864,0.15124 -0.348994,0.13969 -0.309769,-0.0128 -0.372772,-0.0758 -0.160658,-0.16068 z m 1.047002,0.006 c 0.182808,-0.0738 0.481954,-0.0738 0.664762,0 0.182808,0.0738 0.03327,0.13413 -0.332381,0.13413 -0.365616,0 -0.51519,-0.0604 -0.332381,-0.13413 z m -3.985464,-0.27793 c 0.330762,-0.0636 0.809384,-0.0612 1.063617,0.005 0.254234,0.0666 -0.01638,0.11862 -0.601387,0.11567 -0.584988,-0.003 -0.792991,-0.0574 -0.46223,-0.12104 z m -3.323249,-0.26868 c 0.404191,-0.0611 1.002476,-0.0595 1.329522,0.004 0.327046,0.0632 -0.0036,0.11315 -0.734893,0.11114 -0.731236,-0.002 -0.998819,-0.0537 -0.594629,-0.11476 z m -3.460413,-0.26561 c 0.402181,-0.0609 1.060294,-0.0609 1.462474,0 0.40218,0.0609 0.07312,0.1108 -0.731237,0.1108 -0.804361,0 -1.133417,-0.0499 -0.731237,-0.1108 z"
         id="path4799"
         inkscape:connector-curvature="0" />
    </g>
  </g>
</svg>
