<?xml version="1.0" encoding="UTF-8" standalone="no"?>
<svg
   xmlns:dc="http://purl.org/dc/elements/1.1/"
   xmlns:cc="http://creativecommons.org/ns#"
   xmlns:rdf="http://www.w3.org/1999/02/22-rdf-syntax-ns#"
   xmlns:svg="http://www.w3.org/2000/svg"
   xmlns="http://www.w3.org/2000/svg"
   xmlns:sodipodi="http://sodipodi.sourceforge.net/DTD/sodipodi-0.dtd"
   xmlns:inkscape="http://www.inkscape.org/namespaces/inkscape"
   width="2055.4199"
   height="710.58203"
   viewBox="0 0 2055.4199 710.58203"
   version="1.1"
   id="svg7"
   sodipodi:docname="a long time ago.svg"
   inkscape:version="1.0 (4035a4fb49, 2020-05-01)">
  <metadata
     id="metadata13">
    <rdf:RDF>
      <cc:Work
         rdf:about="">
        <dc:format>image/svg+xml</dc:format>
        <dc:type
           rdf:resource="http://purl.org/dc/dcmitype/StillImage" />
        <dc:title></dc:title>
      </cc:Work>
    </rdf:RDF>
  </metadata>
  <defs
     id="defs11" />
  <sodipodi:namedview
     inkscape:document-rotation="0"
     pagecolor="#ffffff"
     bordercolor="#666666"
     borderopacity="1"
     objecttolerance="10"
     gridtolerance="10"
     guidetolerance="10"
     inkscape:pageopacity="0"
     inkscape:pageshadow="2"
     inkscape:window-width="1625"
     inkscape:window-height="1051"
     id="namedview9"
     showgrid="false"
     fit-margin-top="250"
     fit-margin-left="250"
     fit-margin-right="250"
     fit-margin-bottom="250"
     lock-margins="true"
     inkscape:zoom="0.22948328"
     inkscape:cx="289.81035"
     inkscape:cy="545.41647"
     inkscape:window-x="286"
     inkscape:window-y="-9"
     inkscape:window-maximized="1"
     inkscape:current-layer="a_long_time_ago_in_a_galaxy_far_far_away...._" />
  <g
     aria-label="a long time ago in a galaxy far,far away...."
     transform="translate(246.67969,326.46484)"
     id="a_long_time_ago_in_a_galaxy_far_far_away...._"
     style="font-weight:500;font-size:100px;font-family:FranklinGothic-Medium, 'Franklin Gothic'">
    <g
       id="g947">
      <path
         style="fill:#28ded3;fill-opacity:1"
         id="path838"
         d="m 51.416016,0 h -9.13086 v -5.8105469 q -1.220703,0.8300782 -3.320312,2.34375 -2.050782,1.4648438 -4.003907,2.34375 Q 32.666016,0 29.6875,0.73242187 26.708984,1.5136719 22.705078,1.5136719 q -7.373047,0 -12.5,-4.8828125 -5.126953,-4.8828125 -5.126953,-12.4511724 0,-6.201171 2.6367187,-10.009765 2.6855473,-3.857422 7.6171873,-6.054688 4.980469,-2.197265 11.962891,-2.978515 6.982422,-0.78125 14.990234,-1.171875 v -1.416016 q 0,-3.125 -1.123047,-5.175781 -1.074218,-2.050781 -3.125,-3.222656 -1.953125,-1.123047 -4.6875,-1.513672 -2.734375,-0.390625 -5.71289,-0.390625 -3.613282,0 -8.056641,0.976562 -4.443359,0.927735 -9.179687,2.734375 H 9.9121094 v -9.326172 q 2.6855466,-0.732421 7.7636716,-1.611328 5.078125,-0.878906 10.009766,-0.878906 5.761719,0 10.009765,0.976563 4.296875,0.927734 7.421875,3.222656 3.076172,2.246094 4.6875,5.810547 1.611329,3.564453 1.611329,8.83789 z m -9.13086,-13.427734 v -15.185547 q -4.199219,0.24414 -9.912109,0.732422 -5.664063,0.488281 -8.984375,1.416015 -3.955078,1.123047 -6.396485,3.515625 -2.441406,2.34375 -2.441406,6.494141 0,4.6875 2.832031,7.080078 2.832032,2.34375 8.642579,2.34375 4.833984,0 8.83789,-1.8554688 4.003906,-1.9042972 7.421875,-4.5410152 z" />
      <path
         style="fill:#28ded3;fill-opacity:1"
         id="path840"
         d="m 113.62305,0 h -9.17969 v -75.976562 h 9.17969 z" />
      <path
         style="fill:#28ded3;fill-opacity:1"
         id="path842"
         d="m 178.36914,-27.246094 q 0,13.330078 -6.83594,21.0449221 -6.83593,7.7148438 -18.31054,7.7148438 -11.57227,0 -18.40821,-7.7148438 -6.78711,-7.7148441 -6.78711,-21.0449221 0,-13.330078 6.78711,-21.044922 6.83594,-7.763671 18.40821,-7.763671 11.47461,0 18.31054,7.763671 6.83594,7.714844 6.83594,21.044922 z m -9.47266,0 q 0,-10.595703 -4.15039,-15.722656 -4.15039,-5.175781 -11.52343,-5.175781 -7.47071,0 -11.6211,5.175781 -4.10156,5.126953 -4.10156,15.722656 0,10.253907 4.15039,15.576172 4.15039,5.2734376 11.57227,5.2734376 7.32421,0 11.47461,-5.2246096 4.19921,-5.273437 4.19921,-15.625 z" />
      <path
         style="fill:#28ded3;fill-opacity:1"
         id="path844"
         d="m 238.23242,0 h -9.17969 v -31.054687 q 0,-3.759766 -0.43945,-7.03125 -0.43945,-3.320313 -1.61133,-5.175782 -1.2207,-2.050781 -3.51562,-3.027343 -2.29492,-1.025391 -5.95703,-1.025391 -3.75977,0 -7.86133,1.855469 -4.10156,1.855468 -7.86133,4.736328 V 0 h -9.17969 v -54.541016 h 9.17969 v 6.054688 q 4.29688,-3.564453 8.88672,-5.566406 4.58984,-2.001953 9.42383,-2.001953 8.83789,0 13.47656,5.322265 4.63867,5.322266 4.63867,15.332031 z" />
      <path
         style="fill:#28ded3;fill-opacity:1"
         id="path846"
         d="m 300.14648,-6.2011719 q 0,13.8671875 -6.29882,20.3613279 -6.29883,6.494141 -19.38477,6.494141 -4.3457,0 -8.49609,-0.634766 -4.10157,-0.585937 -8.10547,-1.708984 V 8.9355469 h 0.48828 q 2.24609,0.8789062 7.12891,2.1484371 4.88281,1.31836 9.76562,1.31836 4.6875,0 7.76367,-1.123047 3.07617,-1.123047 4.78516,-3.1250001 1.70898,-1.9042969 2.4414,-4.5898438 0.73243,-2.68554685 0.73243,-6.0058594 V -7.421875 q -4.15039,3.3203125 -7.95899,4.9804687 -3.75976,1.61132817 -9.61914,1.61132817 -9.76562,0 -15.52734,-7.03124997 -5.71289,-7.0800779 -5.71289,-19.9218749 0,-7.03125 1.95312,-12.109375 2.00196,-5.126953 5.41992,-8.837891 3.17383,-3.466797 7.71485,-5.371093 4.54101,-1.953125 9.0332,-1.953125 4.73633,0 7.91016,0.976562 3.22265,0.927734 6.78711,2.880859 l 0.58593,-2.34375 h 8.59375 z m -9.17968,-8.7890621 v -29.736328 q -3.66211,-1.660157 -6.83594,-2.34375 -3.125,-0.732422 -6.25,-0.732422 -7.56836,0 -11.91406,5.078125 -4.34571,5.078125 -4.34571,14.746093 0,9.179688 3.22266,13.916016 3.22266,4.7363281 10.69336,4.7363281 4.00391,0 8.00781,-1.5136721 4.05274,-1.5625 7.42188,-4.15039 z" />
      <path
         style="fill:#28ded3;fill-opacity:1"
         id="path848"
         d="m 381.68945,-0.48828125 q -2.58789,0.68359375 -5.66406,1.12304687 -3.02734,0.43945308 -5.41992,0.43945308 -8.34961,0 -12.69531,-4.4921875 -4.34571,-4.4921874 -4.34571,-14.4042972 v -29.003906 h -6.20117 v -7.714844 h 6.20117 v -15.673828 h 9.17969 v 15.673828 h 18.94531 v 7.714844 h -18.94531 v 24.853516 q 0,4.296875 0.19531,6.738281 0.19532,2.392578 1.36719,4.492187 1.07422,1.9531255 2.92969,2.8808599 1.90429,0.8789062 5.76172,0.8789062 2.24609,0 4.6875,-0.6347656 2.4414,-0.6835938 3.51562,-1.1230469 h 0.48828 z" />
      <path
         style="fill:#28ded3;fill-opacity:1"
         id="path850"
         d="m 402.68555,-63.671875 h -10.35157 v -9.521484 h 10.35157 z M 402.09961,0 h -9.17969 v -54.541016 h 9.17969 z" />
      <path
         style="fill:#28ded3;fill-opacity:1"
         id="path852"
         d="m 499.95117,0 h -9.17969 v -31.054687 q 0,-3.515625 -0.34179,-6.78711 -0.29297,-3.271484 -1.31836,-5.224609 -1.12305,-2.09961 -3.22266,-3.173828 -2.09961,-1.074219 -6.05469,-1.074219 -3.85742,0 -7.71484,1.953125 -3.85742,1.904297 -7.71484,4.882812 0.14648,1.123047 0.24414,2.636719 0.0976,1.464844 0.0976,2.929688 V 0 h -9.17968 v -31.054687 q 0,-3.613282 -0.3418,-6.835938 -0.29297,-3.271484 -1.31836,-5.224609 -1.12305,-2.09961 -3.22266,-3.125 -2.09961,-1.074219 -6.05468,-1.074219 -3.75977,0 -7.56836,1.855469 -3.75977,1.855468 -7.51953,4.736328 V 0 h -9.17969 v -54.541016 h 9.17969 v 6.054688 q 4.29687,-3.564453 8.54492,-5.566406 4.29687,-2.001953 9.13086,-2.001953 5.5664,0 9.42382,2.34375 3.90625,2.34375 5.81055,6.49414 5.56641,-4.6875 10.15625,-6.738281 4.58985,-2.099609 9.81445,-2.099609 8.98438,0 13.23243,5.46875 4.29687,5.419921 4.29687,15.185546 z" />
      <path
         style="fill:#28ded3;fill-opacity:1"
         id="path854"
         d="M 563.28125,-26.318359 H 523.0957 q 0,5.029297 1.51367,8.789062 1.51368,3.710938 4.1504,6.103516 2.53906,2.3437497 6.00585,3.5156248 3.51563,1.171875 7.71485,1.171875 5.5664,0 11.18164,-2.1972657 5.66406,-2.2460941 8.05664,-4.3945311 h 0.48828 v 10.0097655 q -4.63867,1.953125 -9.47266,3.27148438 -4.83398,1.31835932 -10.15625,1.31835932 -13.57421,0 -21.1914,-7.3242187 -7.61719,-7.3730465 -7.61719,-20.8984375 0,-13.378906 7.27539,-21.240234 7.32422,-7.861328 19.23828,-7.861328 11.03516,0 16.99219,6.445312 6.00586,6.445313 6.00586,18.310547 z m -8.93555,-7.03125 q -0.0488,-7.226563 -3.66211,-11.181641 -3.56445,-3.955078 -10.88867,-3.955078 -7.37305,0 -11.76758,4.345703 -4.3457,4.345703 -4.93164,10.791016 z" />
      <path
         style="fill:#28ded3;fill-opacity:1"
         id="path856"
         d="m 654.73633,0 h -9.13086 v -5.8105469 q -1.2207,0.8300782 -3.32031,2.34375 -2.05079,1.4648438 -4.00391,2.34375 Q 635.98633,0 633.00781,0.73242187 630.0293,1.5136719 626.02539,1.5136719 q -7.37305,0 -12.5,-4.8828125 -5.12695,-4.8828125 -5.12695,-12.4511724 0,-6.201171 2.63672,-10.009765 2.68554,-3.857422 7.61718,-6.054688 4.98047,-2.197265 11.96289,-2.978515 6.98243,-0.78125 14.99024,-1.171875 v -1.416016 q 0,-3.125 -1.12305,-5.175781 -1.07422,-2.050781 -3.125,-3.222656 -1.95312,-1.123047 -4.6875,-1.513672 -2.73437,-0.390625 -5.71289,-0.390625 -3.61328,0 -8.05664,0.976562 -4.44336,0.927735 -9.17969,2.734375 h -0.48828 v -9.326172 q 2.68555,-0.732421 7.76367,-1.611328 5.07813,-0.878906 10.00977,-0.878906 5.76172,0 10.00976,0.976563 4.29688,0.927734 7.42188,3.222656 3.07617,2.246094 4.6875,5.810547 1.61133,3.564453 1.61133,8.83789 z m -9.13086,-13.427734 v -15.185547 q -4.19922,0.24414 -9.91211,0.732422 -5.66406,0.488281 -8.98438,1.416015 -3.95507,1.123047 -6.39648,3.515625 -2.44141,2.34375 -2.44141,6.494141 0,4.6875 2.83203,7.080078 2.83204,2.34375 8.64258,2.34375 4.83399,0 8.83789,-1.8554688 4.00391,-1.9042972 7.42188,-4.5410152 z" />
      <path
         style="fill:#28ded3;fill-opacity:1"
         id="path858"
         d="m 716.74805,-6.2011719 q 0,13.8671875 -6.29883,20.3613279 -6.29883,6.494141 -19.38477,6.494141 -4.3457,0 -8.49609,-0.634766 -4.10156,-0.585937 -8.10547,-1.708984 V 8.9355469 h 0.48828 q 2.2461,0.8789062 7.12891,2.1484371 4.88281,1.31836 9.76562,1.31836 4.6875,0 7.76367,-1.123047 3.07618,-1.123047 4.78516,-3.1250001 1.70899,-1.9042969 2.44141,-4.5898438 0.73242,-2.68554685 0.73242,-6.0058594 V -7.421875 q -4.15039,3.3203125 -7.95899,4.9804687 -3.75976,1.61132817 -9.61914,1.61132817 -9.76562,0 -15.52734,-7.03124997 Q 668.75,-14.941406 668.75,-27.783203 q 0,-7.03125 1.95312,-12.109375 2.00196,-5.126953 5.41993,-8.837891 3.17382,-3.466797 7.71484,-5.371093 4.54102,-1.953125 9.0332,-1.953125 4.73633,0 7.91016,0.976562 3.22266,0.927734 6.78711,2.880859 l 0.58594,-2.34375 h 8.59375 z m -9.17969,-8.7890621 v -29.736328 q -3.66211,-1.660157 -6.83594,-2.34375 -3.125,-0.732422 -6.25,-0.732422 -7.56836,0 -11.91406,5.078125 -4.3457,5.078125 -4.3457,14.746093 0,9.179688 3.22265,13.916016 3.22266,4.7363281 10.69336,4.7363281 4.00391,0 8.00781,-1.5136721 4.05274,-1.5625 7.42188,-4.15039 z" />
      <path
         style="fill:#28ded3;fill-opacity:1"
         id="path860"
         d="m 781.29883,-27.246094 q 0,13.330078 -6.83594,21.0449221 -6.83594,7.7148438 -18.31055,7.7148438 -11.57226,0 -18.4082,-7.7148438 -6.78711,-7.7148441 -6.78711,-21.0449221 0,-13.330078 6.78711,-21.044922 6.83594,-7.763671 18.4082,-7.763671 11.47461,0 18.31055,7.763671 6.83594,7.714844 6.83594,21.044922 z m -9.47266,0 q 0,-10.595703 -4.15039,-15.722656 -4.15039,-5.175781 -11.52344,-5.175781 -7.4707,0 -11.62109,5.175781 -4.10156,5.126953 -4.10156,15.722656 0,10.253907 4.15039,15.576172 4.15039,5.2734376 11.57226,5.2734376 7.32422,0 11.47461,-5.2246096 4.19922,-5.273437 4.19922,-15.625 z" />
      <path
         style="fill:#28ded3;fill-opacity:1"
         id="path862"
         d="m 840.57617,-63.671875 h -10.35156 v -9.521484 h 10.35156 z M 839.99023,0 h -9.17968 v -54.541016 h 9.17968 z" />
      <path
         style="fill:#28ded3;fill-opacity:1"
         id="path864"
         d="m 903.85742,0 h -9.17969 v -31.054687 q 0,-3.759766 -0.43945,-7.03125 -0.43945,-3.320313 -1.61133,-5.175782 -1.2207,-2.050781 -3.51562,-3.027343 -2.29492,-1.025391 -5.95703,-1.025391 -3.75977,0 -7.86133,1.855469 -4.10156,1.855468 -7.86133,4.736328 V 0 h -9.17969 v -54.541016 h 9.17969 v 6.054688 q 4.29688,-3.564453 8.88672,-5.566406 4.58984,-2.001953 9.42383,-2.001953 8.83789,0 13.47656,5.322265 4.63867,5.322266 4.63867,15.332031 z" />
      <path
         style="fill:#28ded3;fill-opacity:1"
         id="path866"
         d="m 999.07227,0 h -9.13086 v -5.8105469 q -1.22071,0.8300782 -3.32032,2.34375 -2.05078,1.4648438 -4.0039,2.34375 Q 980.32227,0 977.34375,0.73242187 q -2.97852,0.78125003 -6.98242,0.78125003 -7.37305,0 -12.5,-4.8828125 -5.12696,-4.8828125 -5.12696,-12.4511724 0,-6.201171 2.63672,-10.009765 2.68555,-3.857422 7.61719,-6.054688 4.98047,-2.197265 11.96289,-2.978515 6.98242,-0.78125 14.99024,-1.171875 v -1.416016 q 0,-3.125 -1.12305,-5.175781 -1.07422,-2.050781 -3.125,-3.222656 -1.95313,-1.123047 -4.6875,-1.513672 -2.73438,-0.390625 -5.71289,-0.390625 -3.61328,0 -8.05664,0.976562 -4.44336,0.927735 -9.17969,2.734375 h -0.48828 v -9.326172 q 2.68555,-0.732421 7.76367,-1.611328 5.07813,-0.878906 10.00977,-0.878906 5.76172,0 10.00976,0.976563 4.29688,0.927734 7.42188,3.222656 3.07617,2.246094 4.6875,5.810547 1.61133,3.564453 1.61133,8.83789 z m -9.13086,-13.427734 v -15.185547 q -4.19922,0.24414 -9.91211,0.732422 -5.66407,0.488281 -8.98438,1.416015 -3.95508,1.123047 -6.39648,3.515625 -2.44141,2.34375 -2.44141,6.494141 0,4.6875 2.83203,7.080078 2.83203,2.34375 8.64258,2.34375 4.83398,0 8.83789,-1.8554688 4.00391,-1.9042972 7.42188,-4.5410152 z" />
      <path
         style="fill:#28ded3;fill-opacity:1"
         id="path868"
         d="m 1096.2402,-6.2011719 q 0,13.8671875 -6.2988,20.3613279 -6.2988,6.494141 -19.3848,6.494141 -4.3457,0 -8.4961,-0.634766 -4.1015,-0.585937 -8.1054,-1.708984 V 8.9355469 h 0.4883 q 2.2461,0.8789062 7.1289,2.1484371 4.8828,1.31836 9.7656,1.31836 4.6875,0 7.7637,-1.123047 3.0761,-1.123047 4.7851,-3.1250001 1.709,-1.9042969 2.4414,-4.5898438 0.7324,-2.68554685 0.7324,-6.0058594 V -7.421875 q -4.1503,3.3203125 -7.9589,4.9804687 -3.7598,1.61132817 -9.6192,1.61132817 -9.7656,0 -15.5273,-7.03124997 -5.7129,-7.0800779 -5.7129,-19.9218749 0,-7.03125 1.9531,-12.109375 2.002,-5.126953 5.4199,-8.837891 3.1739,-3.466797 7.7149,-5.371093 4.541,-1.953125 9.0332,-1.953125 4.7363,0 7.9101,0.976562 3.2227,0.927734 6.7871,2.880859 l 0.586,-2.34375 h 8.5937 z m -9.1797,-8.7890621 v -29.736328 q -3.6621,-1.660157 -6.8359,-2.34375 -3.125,-0.732422 -6.25,-0.732422 -7.5683,0 -11.9141,5.078125 -4.3457,5.078125 -4.3457,14.746093 0,9.179688 3.2227,13.916016 3.2227,4.7363281 10.6934,4.7363281 4.0039,0 8.0078,-1.5136721 4.0527,-1.5625 7.4218,-4.15039 z" />
      <path
         style="fill:#28ded3;fill-opacity:1"
         id="path870"
         d="m 1156.6895,0 h -9.1309 v -5.8105469 q -1.2207,0.8300782 -3.3203,2.34375 -2.0508,1.4648438 -4.0039,2.34375 -2.2949,1.1230469 -5.2735,1.85546877 -2.9785,0.78125003 -6.9824,0.78125003 -7.373,0 -12.5,-4.8828125 -5.1269,-4.8828125 -5.1269,-12.4511724 0,-6.201171 2.6367,-10.009765 2.6855,-3.857422 7.6172,-6.054688 4.9804,-2.197265 11.9629,-2.978515 6.9824,-0.78125 14.9902,-1.171875 v -1.416016 q 0,-3.125 -1.1231,-5.175781 -1.0742,-2.050781 -3.125,-3.222656 -1.9531,-1.123047 -4.6875,-1.513672 -2.7343,-0.390625 -5.7128,-0.390625 -3.6133,0 -8.0567,0.976562 -4.4433,0.927735 -9.1797,2.734375 h -0.4883 v -9.326172 q 2.6856,-0.732421 7.7637,-1.611328 5.0781,-0.878906 10.0098,-0.878906 5.7617,0 10.0098,0.976563 4.2968,0.927734 7.4218,3.222656 3.0762,2.246094 4.6875,5.810547 1.6114,3.564453 1.6114,8.83789 z m -9.1309,-13.427734 v -15.185547 q -4.1992,0.24414 -9.9121,0.732422 -5.6641,0.488281 -8.9844,1.416015 -3.9551,1.123047 -6.3965,3.515625 -2.4414,2.34375 -2.4414,6.494141 0,4.6875 2.8321,7.080078 2.832,2.34375 8.6425,2.34375 4.834,0 8.8379,-1.8554688 4.0039,-1.9042972 7.4219,-4.5410152 z" />
      <path
         style="fill:#28ded3;fill-opacity:1"
         id="path872"
         d="m 1183.7402,0 h -9.1797 v -75.976562 h 9.1797 z" />
      <path
         style="fill:#28ded3;fill-opacity:1"
         id="path874"
         d="m 1244.3848,0 h -9.1309 v -5.8105469 q -1.2207,0.8300782 -3.3203,2.34375 -2.0508,1.4648438 -4.0039,2.34375 -2.2949,1.1230469 -5.2734,1.85546877 -2.9786,0.78125003 -6.9825,0.78125003 -7.373,0 -12.5,-4.8828125 -5.1269,-4.8828125 -5.1269,-12.4511724 0,-6.201171 2.6367,-10.009765 2.6855,-3.857422 7.6172,-6.054688 4.9805,-2.197265 11.9629,-2.978515 6.9824,-0.78125 14.9902,-1.171875 v -1.416016 q 0,-3.125 -1.123,-5.175781 -1.0743,-2.050781 -3.125,-3.222656 -1.9532,-1.123047 -4.6875,-1.513672 -2.7344,-0.390625 -5.7129,-0.390625 -3.6133,0 -8.0567,0.976562 -4.4433,0.927735 -9.1797,2.734375 h -0.4882 v -9.326172 q 2.6855,-0.732421 7.7636,-1.611328 5.0782,-0.878906 10.0098,-0.878906 5.7617,0 10.0098,0.976563 4.2968,0.927734 7.4218,3.222656 3.0762,2.246094 4.6875,5.810547 1.6114,3.564453 1.6114,8.83789 z m -9.1309,-13.427734 v -15.185547 q -4.1992,0.24414 -9.9121,0.732422 -5.6641,0.488281 -8.9844,1.416015 -3.9551,1.123047 -6.3965,3.515625 -2.4414,2.34375 -2.4414,6.494141 0,4.6875 2.8321,7.080078 2.832,2.34375 8.6425,2.34375 4.834,0 8.8379,-1.8554688 4.0039,-1.9042972 7.4219,-4.5410152 z" />
      <path
         style="fill:#28ded3;fill-opacity:1"
         id="path876"
         d="m 1309.375,0 h -11.5723 L 1282.3242,-20.947266 1266.748,0 h -10.6933 l 21.2891,-27.197266 -21.0938,-27.34375 h 11.5723 l 15.3808,20.605469 15.4297,-20.605469 h 10.7422 l -21.4355,26.855469 z" />
      <path
         style="fill:#28ded3;fill-opacity:1"
         id="path878"
         d="m 1368.5059,-54.541016 -31.836,74.658203 h -9.8144 l 10.1562,-22.7539058 -21.7285,-51.9042972 h 9.9609 l 16.7481,40.429688 16.8945,-40.429688 z" />
      <path
         style="fill:#28ded3;fill-opacity:1"
         id="path880"
         d="m 1445.0195,-67.089844 h -0.4882 q -1.5137,-0.439453 -3.9551,-0.878906 -2.4414,-0.488281 -4.2969,-0.488281 -5.9082,0 -8.5938,2.636719 -2.6367,2.58789 -2.6367,9.423828 v 1.855468 h 16.5528 v 7.714844 h -16.2598 V 0 h -9.1797 v -46.826172 h -6.2012 v -7.714844 h 6.2012 v -1.80664 q 0,-9.716797 4.834,-14.892578 4.834,-5.22461 13.9648,-5.22461 3.0762,0 5.5176,0.292969 2.4903,0.292969 4.541,0.683594 z" />
      <path
         style="fill:#28ded3;fill-opacity:1"
         id="path882"
         d="m 1493.2129,0 h -9.1309 v -5.8105469 q -1.2207,0.8300782 -3.3203,2.34375 -2.0508,1.4648438 -4.0039,2.34375 -2.2949,1.1230469 -5.2734,1.85546877 -2.9785,0.78125003 -6.9824,0.78125003 -7.3731,0 -12.5,-4.8828125 -5.127,-4.8828125 -5.127,-12.4511724 0,-6.201171 2.6367,-10.009765 2.6856,-3.857422 7.6172,-6.054688 4.9805,-2.197265 11.9629,-2.978515 6.9824,-0.78125 14.9902,-1.171875 v -1.416016 q 0,-3.125 -1.123,-5.175781 -1.0742,-2.050781 -3.125,-3.222656 -1.9531,-1.123047 -4.6875,-1.513672 -2.7344,-0.390625 -5.7129,-0.390625 -3.6133,0 -8.0566,0.976562 -4.4434,0.927735 -9.1797,2.734375 h -0.4883 v -9.326172 q 2.6855,-0.732421 7.7637,-1.611328 5.0781,-0.878906 10.0097,-0.878906 5.7617,0 10.0098,0.976563 4.2969,0.927734 7.4219,3.222656 3.0761,2.246094 4.6875,5.810547 1.6113,3.564453 1.6113,8.83789 z m -9.1309,-13.427734 v -15.185547 q -4.1992,0.24414 -9.9121,0.732422 -5.664,0.488281 -8.9844,1.416015 -3.955,1.123047 -6.3964,3.515625 -2.4414,2.34375 -2.4414,6.494141 0,4.6875 2.832,7.080078 2.832,2.34375 8.6426,2.34375 4.834,0 8.8379,-1.8554688 4.0039,-1.9042972 7.4218,-4.5410152 z" />
      <path
         style="fill:#28ded3;fill-opacity:1"
         id="path884"
         d="m 1545.0195,-44.53125 h -0.4882 q -2.0508,-0.488281 -4.004,-0.683594 -1.9043,-0.24414 -4.541,-0.24414 -4.248,0 -8.2031,1.904297 -3.9551,1.855468 -7.6172,4.833984 V 0 h -9.1797 v -54.541016 h 9.1797 v 8.056641 q 5.4688,-4.394531 9.6192,-6.201172 4.1992,-1.855469 8.5449,-1.855469 2.3926,0 3.4668,0.146485 1.0742,0.09766 3.2226,0.439453 z" />
      <path
         style="fill:#28ded3;fill-opacity:1"
         id="path886"
         d="m 1558.7402,-13.916016 -13.7695,31.982422 h -7.1289 l 8.4961,-31.982422 z" />
      <path
         style="fill:#28ded3;fill-opacity:1"
         id="path888"
         d="m 38.378906,46.910156 h -0.488281 q -1.513672,-0.439453 -3.955078,-0.878906 -2.441406,-0.488281 -4.296875,-0.488281 -5.908203,0 -8.59375,2.636718 -2.636719,2.587891 -2.636719,9.423829 v 1.855468 h 16.552734 v 7.714844 H 18.701172 V 114 H 9.5214844 V 67.173828 H 3.3203125 v -7.714844 h 6.2011719 v -1.80664 q 0,-9.716797 4.8339846,-14.892578 4.833984,-5.22461 13.964843,-5.22461 3.076172,0 5.517579,0.292969 2.490234,0.292969 4.541015,0.683594 z" />
      <path
         style="fill:#28ded3;fill-opacity:1"
         id="path890"
         d="m 86.572266,114 h -9.13086 v -5.81055 q -1.220703,0.83008 -3.320312,2.34375 -2.050782,1.46485 -4.003907,2.34375 -2.294921,1.12305 -5.273437,1.85547 -2.978516,0.78125 -6.982422,0.78125 -7.373047,0 -12.5,-4.88281 -5.126953,-4.88281 -5.126953,-12.451173 0,-6.201171 2.636719,-10.009765 2.685547,-3.857422 7.617187,-6.054688 4.980469,-2.197265 11.962891,-2.978515 6.982422,-0.78125 14.990234,-1.171875 v -1.416016 q 0,-3.125 -1.123047,-5.175781 -1.074218,-2.050781 -3.125,-3.222656 -1.953125,-1.123047 -4.6875,-1.513672 -2.734375,-0.390625 -5.71289,-0.390625 -3.613282,0 -8.056641,0.976562 -4.443359,0.927735 -9.179687,2.734375 h -0.488282 v -9.326172 q 2.685547,-0.732422 7.763672,-1.611328 5.078125,-0.878906 10.009766,-0.878906 5.761719,0 10.009765,0.976562 4.296875,0.927735 7.421875,3.222657 3.076172,2.246093 4.6875,5.810547 1.611329,3.564453 1.611329,8.83789 z m -9.13086,-13.42773 V 85.386719 q -4.199219,0.24414 -9.912109,0.732422 -5.664063,0.488281 -8.984375,1.416015 -3.955078,1.123047 -6.396485,3.515625 -2.441406,2.34375 -2.441406,6.494141 0,4.687498 2.832031,7.080078 2.832032,2.34375 8.642579,2.34375 4.833984,0 8.83789,-1.85547 4.003906,-1.9043 7.421875,-4.54101 z" />
      <path
         style="fill:#28ded3;fill-opacity:1"
         id="path892"
         d="m 138.37891,69.46875 h -0.48829 q -2.05078,-0.488281 -4.0039,-0.683594 -1.9043,-0.24414 -4.54102,-0.24414 -4.24804,0 -8.20312,1.904296 -3.95508,1.855469 -7.61719,4.833985 V 114 H 104.3457 V 59.458984 h 9.17969 v 8.056641 q 5.46875,-4.394531 9.61914,-6.201172 4.19922,-1.855469 8.54492,-1.855469 2.39258,0 3.4668,0.146485 1.07422,0.09766 3.22266,0.439453 z" />
      <path
         style="fill:#28ded3;fill-opacity:1"
         id="path894"
         d="m 224.6582,114 h -9.13086 v -5.81055 q -1.2207,0.83008 -3.32031,2.34375 -2.05078,1.46485 -4.00391,2.34375 -2.29492,1.12305 -5.27343,1.85547 -2.97852,0.78125 -6.98242,0.78125 -7.37305,0 -12.5,-4.88281 -5.12696,-4.88281 -5.12696,-12.451173 0,-6.201171 2.63672,-10.009765 2.68555,-3.857422 7.61719,-6.054688 4.98047,-2.197265 11.96289,-2.978515 6.98242,-0.78125 14.99023,-1.171875 v -1.416016 q 0,-3.125 -1.12304,-5.175781 -1.07422,-2.050781 -3.125,-3.222656 -1.95313,-1.123047 -4.6875,-1.513672 -2.73438,-0.390625 -5.71289,-0.390625 -3.61329,0 -8.05664,0.976562 -4.44336,0.927735 -9.17969,2.734375 h -0.48828 v -9.326172 q 2.68554,-0.732422 7.76367,-1.611328 5.07812,-0.878906 10.00976,-0.878906 5.76172,0 10.00977,0.976562 4.29687,0.927735 7.42187,3.222657 3.07618,2.246093 4.6875,5.810547 1.61133,3.564453 1.61133,8.83789 z m -9.13086,-13.42773 V 85.386719 q -4.19922,0.24414 -9.91211,0.732422 -5.66406,0.488281 -8.98437,1.416015 -3.95508,1.123047 -6.39649,3.515625 -2.4414,2.34375 -2.4414,6.494141 0,4.687498 2.83203,7.080078 2.83203,2.34375 8.64258,2.34375 4.83398,0 8.83789,-1.85547 4.0039,-1.9043 7.42187,-4.54101 z" />
      <path
         style="fill:#28ded3;fill-opacity:1"
         id="path896"
         d="M 310.64453,59.458984 296.43555,114 h -8.4961 L 273.92578,71.958984 260.00977,114 H 251.5625 L 237.20703,59.458984 h 9.57031 l 10.00977,42.236326 13.62305,-42.236326 h 7.56836 l 13.96484,42.236326 9.47266,-42.236326 z" />
      <path
         style="fill:#28ded3;fill-opacity:1"
         id="path898"
         d="m 365.2832,114 h -9.13086 v -5.81055 q -1.2207,0.83008 -3.32031,2.34375 -2.05078,1.46485 -4.00391,2.34375 -2.29492,1.12305 -5.27343,1.85547 -2.97852,0.78125 -6.98242,0.78125 -7.37305,0 -12.5,-4.88281 -5.12696,-4.88281 -5.12696,-12.451173 0,-6.201171 2.63672,-10.009765 2.68555,-3.857422 7.61719,-6.054688 4.98047,-2.197265 11.96289,-2.978515 6.98242,-0.78125 14.99023,-1.171875 v -1.416016 q 0,-3.125 -1.12304,-5.175781 -1.07422,-2.050781 -3.125,-3.222656 -1.95313,-1.123047 -4.6875,-1.513672 -2.73438,-0.390625 -5.71289,-0.390625 -3.61329,0 -8.05664,0.976562 -4.44336,0.927735 -9.17969,2.734375 h -0.48828 v -9.326172 q 2.68554,-0.732422 7.76367,-1.611328 5.07812,-0.878906 10.00976,-0.878906 5.76172,0 10.00977,0.976562 4.29687,0.927735 7.42187,3.222657 3.07618,2.246093 4.6875,5.810547 1.61133,3.564453 1.61133,8.83789 z m -9.13086,-13.42773 V 85.386719 q -4.19922,0.24414 -9.91211,0.732422 -5.66406,0.488281 -8.98437,1.416015 -3.95508,1.123047 -6.39649,3.515625 -2.4414,2.34375 -2.4414,6.494141 0,4.687498 2.83203,7.080078 2.83203,2.34375 8.64258,2.34375 4.83398,0 8.83789,-1.85547 4.0039,-1.9043 7.42187,-4.54101 z" />
      <path
         style="fill:#28ded3;fill-opacity:1"
         id="path900"
         d="m 429.44336,59.458984 -31.83594,74.658206 h -9.81445 L 397.94922,111.36328 376.2207,59.458984 h 9.96094 l 16.74805,40.429688 16.89453,-40.429688 z" />
      <path
         style="fill:#28ded3;fill-opacity:1"
         id="path902"
         d="M 447.26562,114 H 435.5957 v -13.91602 h 11.66992 z" />
      <path
         style="fill:#28ded3;fill-opacity:1"
         id="path904"
         d="m 483.59375,114 h -11.66992 v -13.91602 h 11.66992 z" />
      <path
         style="fill:#28ded3;fill-opacity:1"
         id="path906"
         d="m 519.92187,114 h -11.66992 v -13.91602 h 11.66992 z" />
      <path
         style="fill:#28ded3;fill-opacity:1"
         id="path908"
         d="M 556.25,114 H 544.58008 V 100.08398 H 556.25 Z" />
    </g>
  </g>
</svg>
