<svg xmlns="http://www.w3.org/2000/svg" width="263.086" height="39.1" viewBox="0 0 263.086 39.1">
    <path id="Path_1" data-name="Path 1" d="M11.924,18H9.355L8.291,14.826H3.164L2.119,18H.068L4.492,4.67H7.451ZM7.646,12.9,5.7,6.955,3.76,12.9ZM20.615,18H18.389V4.67h2.227Zm6.533.205a3.885,3.885,0,0,1-3.34-1.572,5.938,5.938,0,0,1-1.152-3.6,5.329,5.329,0,0,1,1.274-3.643,4.254,4.254,0,0,1,3.364-1.455,4.186,4.186,0,0,1,3.257,1.416,5.294,5.294,0,0,1,1.274,3.682A5.289,5.289,0,0,1,30.5,16.784,4.385,4.385,0,0,1,27.148,18.205Zm.078-1.836q2.246,0,2.246-3.35a4.544,4.544,0,0,0-.537-2.388,1.8,1.8,0,0,0-1.65-.874,1.868,1.868,0,0,0-1.709.9,4.53,4.53,0,0,0-.557,2.4,4.293,4.293,0,0,0,.591,2.461A1.866,1.866,0,0,0,27.227,16.369ZM42.031,18H39.8V11.838a2.118,2.118,0,0,0-.449-1.47,1.414,1.414,0,0,0-1.084-.493,1.96,1.96,0,0,0-1.523.762,3.448,3.448,0,0,0-.654,2.295V18H33.867V8.137H35.9v2.285q1.064-2.49,2.988-2.49a3.229,3.229,0,0,1,2.222.82,3.723,3.723,0,0,1,.923,2.881ZM53.691,6.252V7.961h-.684a2.593,2.593,0,0,0-.786.107,1.348,1.348,0,0,0-.659.693,2.74,2.74,0,0,1,1.172,2.129,2.644,2.644,0,0,1-1.1,2.168,4.584,4.584,0,0,1-2.905.859,7.875,7.875,0,0,1-1.826-.254,1.021,1.021,0,0,0-.684.967.89.89,0,0,0,.332.664,1.452,1.452,0,0,0,1.006.3h2.93a3.378,3.378,0,0,1,2.358.776A2.5,2.5,0,0,1,53.7,18.3a2.746,2.746,0,0,1-1.294,2.314,6.615,6.615,0,0,1-3.833.918q-4.775,0-4.775-2.666a2.16,2.16,0,0,1,1.436-2,2.185,2.185,0,0,1-.918-1.631,2.305,2.305,0,0,1,1.572-2.051A2.558,2.558,0,0,1,44.521,10.9a2.681,2.681,0,0,1,1.006-2.1,4.58,4.58,0,0,1,3.057-.869,9.16,9.16,0,0,1,1.9.205,2.218,2.218,0,0,1,2.373-1.885ZM48.633,12.6q1.816,0,1.816-1.709A1.492,1.492,0,0,0,50,9.787a1.8,1.8,0,0,0-1.323-.449,1.876,1.876,0,0,0-1.362.469,1.565,1.565,0,0,0-.483,1.172A1.533,1.533,0,0,0,47.3,12.15,1.864,1.864,0,0,0,48.633,12.6Zm-2.441,4.863a1.212,1.212,0,0,0-.479.85,1.439,1.439,0,0,0,.8,1.187,4.869,4.869,0,0,0,2.549.513q2.568,0,2.568-1.318a.8.8,0,0,0-.449-.737,2.079,2.079,0,0,0-1.025-.249H47.793A6.437,6.437,0,0,1,46.191,17.463Zm18.438-1.2V18a7.878,7.878,0,0,1-1.543.215,3.142,3.142,0,0,1-1.543-.356,2.182,2.182,0,0,1-.942-.977,4.631,4.631,0,0,1-.3-1.909V9.865h-1.23V8.137H60.43l.205-2.568L62.461,5.4V8.137h1.982V9.865H62.461V14.68a1.8,1.8,0,0,0,.337,1.265,1.813,1.813,0,0,0,1.274.337Q64.336,16.281,64.629,16.262Zm4.092-9.277H66.494V4.67h2.227Zm0,11.016H66.494V8.137h2.227Zm17.4,0H83.789V11.857q0-1.914-1.7-1.914a1.934,1.934,0,0,0-1.577.723,3.353,3.353,0,0,0-.591,2.158V18H77.559V11.857q0-1.943-1.592-1.943a2.047,2.047,0,0,0-1.626.781,3.2,3.2,0,0,0-.659,2.129V18H71.387V8.137h2.158v2.1a3.462,3.462,0,0,1,3.291-2.3,2.766,2.766,0,0,1,2.832,2.3,3.637,3.637,0,0,1,3.291-2.3,3.065,3.065,0,0,1,2.295.889,3.032,3.032,0,0,1,.869,2.207Zm8.945-3.145,2.012.273a4.209,4.209,0,0,1-1.523,2.207,4.532,4.532,0,0,1-2.842.869,4.244,4.244,0,0,1-3.3-1.377,5.34,5.34,0,0,1-1.25-3.73,5.475,5.475,0,0,1,1.26-3.7,4.275,4.275,0,0,1,3.418-1.465A3.932,3.932,0,0,1,96.1,9.377a5.769,5.769,0,0,1,1.152,3.711l-.01.254H90.479a5.531,5.531,0,0,0,.19,1.611,2.172,2.172,0,0,0,.757,1.055,2.382,2.382,0,0,0,3.643-1.152Zm-.137-2.949a2.479,2.479,0,0,0-.64-1.738,2.159,2.159,0,0,0-3.091-.044,2.841,2.841,0,0,0-.723,1.782ZM112.725,18h-2.119a8.05,8.05,0,0,1-.342-1.992,3.3,3.3,0,0,1-3.34,2.2,3.262,3.262,0,0,1-2.368-.864,2.9,2.9,0,0,1-.894-2.173q0-3.4,5.967-3.4.234,0,.635.01v-.742q0-1.533-2.09-1.533-2.031,0-2.3,1.533l-1.895-.283a2.872,2.872,0,0,1,1.27-2.026,5.5,5.5,0,0,1,3.223-.8,7.517,7.517,0,0,1,1.865.19,2.859,2.859,0,0,1,1.221.645,2.468,2.468,0,0,1,.688.986,5.948,5.948,0,0,1,.19,1.8v4.453A7.237,7.237,0,0,0,112.725,18Zm-2.461-5.02q-4.316,0-4.316,2.061a1.43,1.43,0,0,0,.435,1.05,1.785,1.785,0,0,0,1.313.435,2.319,2.319,0,0,0,1.919-.806,2.839,2.839,0,0,0,.649-1.831Zm13.828-6.729V7.961h-.684a2.593,2.593,0,0,0-.786.107,1.348,1.348,0,0,0-.659.693,2.74,2.74,0,0,1,1.172,2.129,2.644,2.644,0,0,1-1.1,2.168,4.584,4.584,0,0,1-2.905.859,7.875,7.875,0,0,1-1.826-.254,1.021,1.021,0,0,0-.684.967.89.89,0,0,0,.332.664,1.452,1.452,0,0,0,1.006.3h2.93a3.378,3.378,0,0,1,2.358.776A2.5,2.5,0,0,1,124.1,18.3a2.746,2.746,0,0,1-1.294,2.314,6.615,6.615,0,0,1-3.833.918q-4.775,0-4.775-2.666a2.16,2.16,0,0,1,1.436-2,2.185,2.185,0,0,1-.918-1.631,2.305,2.305,0,0,1,1.572-2.051,2.558,2.558,0,0,1-1.367-2.285,2.681,2.681,0,0,1,1.006-2.1,4.58,4.58,0,0,1,3.057-.869,9.16,9.16,0,0,1,1.9.205,2.218,2.218,0,0,1,2.373-1.885ZM119.033,12.6q1.816,0,1.816-1.709a1.492,1.492,0,0,0-.454-1.1,1.8,1.8,0,0,0-1.323-.449,1.876,1.876,0,0,0-1.362.469,1.565,1.565,0,0,0-.483,1.172,1.533,1.533,0,0,0,.479,1.172A1.864,1.864,0,0,0,119.033,12.6Zm-2.441,4.863a1.212,1.212,0,0,0-.479.85,1.439,1.439,0,0,0,.8,1.187,4.869,4.869,0,0,0,2.549.513q2.568,0,2.568-1.318a.8.8,0,0,0-.449-.737,2.079,2.079,0,0,0-1.025-.249h-2.363A6.437,6.437,0,0,1,116.592,17.463Zm12.725.742a3.885,3.885,0,0,1-3.34-1.572,5.938,5.938,0,0,1-1.152-3.6A5.329,5.329,0,0,1,126.1,9.387a4.254,4.254,0,0,1,3.364-1.455,4.186,4.186,0,0,1,3.257,1.416,5.294,5.294,0,0,1,1.274,3.682,5.289,5.289,0,0,1-1.323,3.755A4.385,4.385,0,0,1,129.316,18.205Zm.078-1.836q2.246,0,2.246-3.35a4.544,4.544,0,0,0-.537-2.388,1.8,1.8,0,0,0-1.65-.874,1.868,1.868,0,0,0-1.709.9,4.53,4.53,0,0,0-.557,2.4,4.293,4.293,0,0,0,.591,2.461A1.866,1.866,0,0,0,129.395,16.369Zm13.857-9.385h-2.227V4.67h2.227Zm0,11.016h-2.227V8.137h2.227Zm10.84,0h-2.227V11.838a2.118,2.118,0,0,0-.449-1.47,1.414,1.414,0,0,0-1.084-.493,1.96,1.96,0,0,0-1.523.762,3.448,3.448,0,0,0-.654,2.295V18h-2.227V8.137h2.031v2.285q1.064-2.49,2.988-2.49a3.229,3.229,0,0,1,2.222.82,3.723,3.723,0,0,1,.923,2.881Zm16.1,0h-2.119a8.05,8.05,0,0,1-.342-1.992,3.3,3.3,0,0,1-3.34,2.2,3.262,3.262,0,0,1-2.368-.864,2.9,2.9,0,0,1-.894-2.173q0-3.4,5.967-3.4.234,0,.635.01v-.742q0-1.533-2.09-1.533-2.031,0-2.3,1.533l-1.895-.283a2.873,2.873,0,0,1,1.27-2.026,5.5,5.5,0,0,1,3.223-.8,7.517,7.517,0,0,1,1.865.19,2.859,2.859,0,0,1,1.221.645,2.468,2.468,0,0,1,.688.986,5.948,5.948,0,0,1,.19,1.8v4.453A7.237,7.237,0,0,0,170.2,18Zm-2.461-5.02q-4.316,0-4.316,2.061a1.43,1.43,0,0,0,.435,1.05,1.785,1.785,0,0,0,1.313.435,2.319,2.319,0,0,0,1.919-.806,2.839,2.839,0,0,0,.649-1.831Zm18.828-6.729V7.961h-.684a2.593,2.593,0,0,0-.786.107,1.348,1.348,0,0,0-.659.693,2.74,2.74,0,0,1,1.172,2.129,2.644,2.644,0,0,1-1.1,2.168,4.584,4.584,0,0,1-2.905.859,7.875,7.875,0,0,1-1.826-.254,1.02,1.02,0,0,0-.684.967.89.89,0,0,0,.332.664,1.452,1.452,0,0,0,1.006.3h2.93a3.378,3.378,0,0,1,2.358.776,2.5,2.5,0,0,1,.854,1.929,2.746,2.746,0,0,1-1.294,2.314,6.615,6.615,0,0,1-3.833.918q-4.775,0-4.775-2.666a2.16,2.16,0,0,1,1.436-2,2.185,2.185,0,0,1-.918-1.631,2.305,2.305,0,0,1,1.572-2.051,2.558,2.558,0,0,1-1.367-2.285A2.68,2.68,0,0,1,178.4,8.8a4.58,4.58,0,0,1,3.057-.869,9.16,9.16,0,0,1,1.9.205,2.218,2.218,0,0,1,2.373-1.885ZM181.5,12.6q1.816,0,1.816-1.709a1.492,1.492,0,0,0-.454-1.1,1.8,1.8,0,0,0-1.323-.449,1.876,1.876,0,0,0-1.362.469,1.565,1.565,0,0,0-.483,1.172,1.533,1.533,0,0,0,.479,1.172A1.864,1.864,0,0,0,181.5,12.6Zm-2.441,4.863a1.212,1.212,0,0,0-.479.85,1.439,1.439,0,0,0,.8,1.187,4.869,4.869,0,0,0,2.549.513q2.568,0,2.568-1.318a.8.8,0,0,0-.449-.737,2.079,2.079,0,0,0-1.025-.249h-2.363A6.437,6.437,0,0,1,179.063,17.463Zm17.3.537h-2.119a8.05,8.05,0,0,1-.342-1.992,3.3,3.3,0,0,1-3.34,2.2,3.262,3.262,0,0,1-2.368-.864,2.9,2.9,0,0,1-.894-2.173q0-3.4,5.967-3.4.234,0,.635.01v-.742q0-1.533-2.09-1.533-2.031,0-2.3,1.533l-1.895-.283a2.873,2.873,0,0,1,1.27-2.026,5.5,5.5,0,0,1,3.223-.8,7.517,7.517,0,0,1,1.865.19,2.859,2.859,0,0,1,1.221.645,2.468,2.468,0,0,1,.688.986,5.948,5.948,0,0,1,.19,1.8v4.453A7.237,7.237,0,0,0,196.367,18Zm-2.461-5.02q-4.316,0-4.316,2.061a1.43,1.43,0,0,0,.435,1.05,1.785,1.785,0,0,0,1.313.435,2.319,2.319,0,0,0,1.919-.806,2.839,2.839,0,0,0,.649-1.831ZM200.957,18H198.73V4.67h2.227Zm11.113,0h-2.119a8.05,8.05,0,0,1-.342-1.992,3.3,3.3,0,0,1-3.34,2.2,3.262,3.262,0,0,1-2.368-.864,2.9,2.9,0,0,1-.894-2.173q0-3.4,5.967-3.4.234,0,.635.01v-.742q0-1.533-2.09-1.533-2.031,0-2.3,1.533l-1.895-.283a2.873,2.873,0,0,1,1.27-2.026,5.5,5.5,0,0,1,3.223-.8,7.517,7.517,0,0,1,1.865.19,2.859,2.859,0,0,1,1.221.645,2.468,2.468,0,0,1,.688.986,5.948,5.948,0,0,1,.19,1.8v4.453A7.237,7.237,0,0,0,212.07,18Zm-2.461-5.02q-4.316,0-4.316,2.061a1.43,1.43,0,0,0,.435,1.05,1.785,1.785,0,0,0,1.313.435,2.319,2.319,0,0,0,1.919-.806,2.839,2.839,0,0,0,.649-1.831ZM221.934,18h-2.539l-2.09-3.594L215.02,18h-1.914l3.281-5.078-2.842-4.785h2.549l1.621,2.9,1.846-2.9h1.865l-2.783,4.277Zm8.7-9.863L226.8,19.367a3.847,3.847,0,0,1-.962,1.606,2.426,2.426,0,0,1-1.724.571q-.439,0-1.279-.068V19.709l1.064.02a1.872,1.872,0,0,0,1.04-.229,1.533,1.533,0,0,0,.532-.815,4.082,4.082,0,0,0,.2-.684,4.514,4.514,0,0,0-.205-.605L222.07,8.137H224.4l2.393,6.5,2.061-6.5ZM239.6,18h-2.148V9.865h-1.465V8.137h1.465V7.648a3.611,3.611,0,0,1,.7-2.324q.7-.879,2.842-.879.312,0,.791.02V6.213q-.42-.029-.576-.029a2.2,2.2,0,0,0-1.152.22.841.841,0,0,0-.4.518,7.261,7.261,0,0,0-.063,1.216h2.188V9.865H239.6Zm12.266,0h-2.119a8.05,8.05,0,0,1-.342-1.992,3.3,3.3,0,0,1-3.34,2.2,3.262,3.262,0,0,1-2.368-.864,2.9,2.9,0,0,1-.894-2.173q0-3.4,5.967-3.4.234,0,.635.01v-.742q0-1.533-2.09-1.533-2.031,0-2.3,1.533l-1.895-.283a2.873,2.873,0,0,1,1.27-2.026,5.5,5.5,0,0,1,3.223-.8,7.517,7.517,0,0,1,1.865.19,2.859,2.859,0,0,1,1.221.645,2.468,2.468,0,0,1,.688.986,5.948,5.948,0,0,1,.19,1.8v4.453A7.237,7.237,0,0,0,251.865,18ZM249.4,12.98q-4.316,0-4.316,2.061a1.43,1.43,0,0,0,.435,1.05,1.785,1.785,0,0,0,1.313.435,2.319,2.319,0,0,0,1.919-.806,2.839,2.839,0,0,0,.649-1.831ZM256.465,18h-2.227V8.137h2.012V10.49a4.2,4.2,0,0,1,1.182-2.012,2.379,2.379,0,0,1,1.543-.635q.107,0,.293.01v2.393a2.278,2.278,0,0,0-2.251,1.084,4.619,4.619,0,0,0-.552,2.1Zm6.689-2.49v2.236l-1.572,3.105h-.859L261.885,18h-1.162V15.51ZM3.828,40H1.68V31.865H.215V30.137H1.68v-.488a3.611,3.611,0,0,1,.7-2.324q.7-.879,2.842-.879.313,0,.791.02v1.748q-.42-.029-.576-.029a2.2,2.2,0,0,0-1.152.22.842.842,0,0,0-.4.518,7.261,7.261,0,0,0-.063,1.216H6.016v1.729H3.828Zm12.266,0H13.975a8.05,8.05,0,0,1-.342-1.992,3.3,3.3,0,0,1-3.34,2.2,3.262,3.262,0,0,1-2.368-.864,2.9,2.9,0,0,1-.894-2.173q0-3.4,5.967-3.4.234,0,.635.01v-.742q0-1.533-2.09-1.533-2.031,0-2.3,1.533l-1.895-.283a2.872,2.872,0,0,1,1.27-2.026,5.5,5.5,0,0,1,3.223-.8,7.517,7.517,0,0,1,1.865.19,2.859,2.859,0,0,1,1.221.645,2.468,2.468,0,0,1,.688.986,5.948,5.948,0,0,1,.19,1.8v4.453A7.237,7.237,0,0,0,16.094,40Zm-2.461-5.02q-4.316,0-4.316,2.061a1.43,1.43,0,0,0,.435,1.05,1.785,1.785,0,0,0,1.313.435,2.319,2.319,0,0,0,1.919-.806,2.839,2.839,0,0,0,.649-1.831ZM20.693,40H18.467V30.137h2.012V32.49a4.2,4.2,0,0,1,1.182-2.012,2.379,2.379,0,0,1,1.543-.635q.107,0,.293.01v2.393a2.278,2.278,0,0,0-2.251,1.084,4.619,4.619,0,0,0-.552,2.1Zm17.842,0H36.416a8.05,8.05,0,0,1-.342-1.992,3.3,3.3,0,0,1-3.34,2.2,3.262,3.262,0,0,1-2.368-.864,2.9,2.9,0,0,1-.894-2.173q0-3.4,5.967-3.4.234,0,.635.01v-.742q0-1.533-2.09-1.533-2.031,0-2.3,1.533l-1.895-.283a2.872,2.872,0,0,1,1.27-2.026,5.5,5.5,0,0,1,3.223-.8,7.517,7.517,0,0,1,1.865.19,2.859,2.859,0,0,1,1.221.645,2.468,2.468,0,0,1,.688.986,5.948,5.948,0,0,1,.19,1.8v4.453A7.237,7.237,0,0,0,38.535,40Zm-2.461-5.02q-4.316,0-4.316,2.061a1.43,1.43,0,0,0,.435,1.05,1.785,1.785,0,0,0,1.313.435,2.319,2.319,0,0,0,1.919-.806,2.839,2.839,0,0,0,.649-1.831ZM53.3,30.137,50.41,40h-2l-1.777-6.914L44.863,40H42.8l-3.037-9.863h2.363l1.943,6.631,1.7-6.631h2.021l1.729,6.631,1.9-6.631ZM63.281,40H61.162a8.05,8.05,0,0,1-.342-1.992,3.3,3.3,0,0,1-3.34,2.2,3.262,3.262,0,0,1-2.368-.864,2.9,2.9,0,0,1-.894-2.173q0-3.4,5.967-3.4.234,0,.635.01v-.742q0-1.533-2.09-1.533-2.031,0-2.3,1.533l-1.895-.283a2.872,2.872,0,0,1,1.27-2.026,5.5,5.5,0,0,1,3.223-.8,7.517,7.517,0,0,1,1.865.19,2.859,2.859,0,0,1,1.221.645,2.468,2.468,0,0,1,.688.986,5.948,5.948,0,0,1,.19,1.8v4.453A7.237,7.237,0,0,0,63.281,40ZM60.82,34.98q-4.316,0-4.316,2.061a1.43,1.43,0,0,0,.435,1.05,1.785,1.785,0,0,0,1.313.435,2.319,2.319,0,0,0,1.919-.806,2.839,2.839,0,0,0,.649-1.831Zm12.2-4.844L69.18,41.367a3.847,3.847,0,0,1-.962,1.606,2.426,2.426,0,0,1-1.724.571q-.439,0-1.279-.068V41.709l1.064.02a1.872,1.872,0,0,0,1.04-.229,1.533,1.533,0,0,0,.532-.815,4.081,4.081,0,0,0,.2-.684,4.514,4.514,0,0,0-.205-.605l-3.389-9.258h2.334l2.393,6.5,2.061-6.5Zm3.75,7.3V40H74.355V37.441Zm4.814,0V40H79.17V37.441Zm4.814,0V40H83.984V37.441Z" transform="translate(-0.068 -4.445)" fill="#28ded3"/>
</svg>