<?xml version="1.0" encoding="UTF-8" standalone="no"?>
<svg
   xmlns:dc="http://purl.org/dc/elements/1.1/"
   xmlns:cc="http://creativecommons.org/ns#"
   xmlns:rdf="http://www.w3.org/1999/02/22-rdf-syntax-ns#"
   xmlns:svg="http://www.w3.org/2000/svg"
   xmlns="http://www.w3.org/2000/svg"
   xmlns:sodipodi="http://sodipodi.sourceforge.net/DTD/sodipodi-0.dtd"
   xmlns:inkscape="http://www.inkscape.org/namespaces/inkscape"
   inkscape:version="1.0 (4035a4fb49, 2020-05-01)"
   sodipodi:docname="EnterName.svg"
   viewBox="0 0 411.44 53.08"
   height="53.080002"
   width="411.44"
   id="svg833"
   version="1.1">
  <metadata
     id="metadata839">
    <rdf:RDF>
      <cc:Work
         rdf:about="">
        <dc:format>image/svg+xml</dc:format>
        <dc:type
           rdf:resource="http://purl.org/dc/dcmitype/StillImage" />
        <dc:title></dc:title>
      </cc:Work>
    </rdf:RDF>
  </metadata>
  <defs
     id="defs837" />
  <sodipodi:namedview
     inkscape:current-layer="g841"
     inkscape:window-maximized="1"
     inkscape:window-y="-9"
     inkscape:window-x="-9"
     inkscape:cy="87.040001"
     inkscape:cx="262.72"
     inkscape:zoom="1.5441176"
     showgrid="false"
     id="namedview835"
     inkscape:window-height="1001"
     inkscape:window-width="1920"
     inkscape:pageshadow="2"
     inkscape:pageopacity="0"
     guidetolerance="10"
     gridtolerance="10"
     objecttolerance="10"
     borderopacity="1"
     bordercolor="#666666"
     pagecolor="#ffffff" />
  <g
     id="g841"
     inkscape:label="Image"
     inkscape:groupmode="layer">
    <path
       id="path845"
       d="m 248.94775,47.226033 c -9.58574,-10.20297 -26.15584,-28.37332 -29.9638,-32.85753 -1.89979,-2.23715 -3.73566,-4.06755 -4.07972,-4.06755 -0.70811,0 -0.3687,38.07077 0.34578,38.78525 0.23752,0.23753 2.3618,0.75201 4.72062,1.14331 2.35883,0.39129 4.40697,1.07144 4.55145,1.51144 0.2028,0.61764 -2.075,0.8 -9.99289,0.8 -5.64055,0 -10.4149,-0.25782 -10.60965,-0.57294 -0.42916,-0.69438 1.11201,-1.34706 3.18078,-1.34706 0.83465,0 2.21801,-0.31916 3.07415,-0.70924 1.31438,-0.59887 1.60503,-1.27109 1.86787,-4.32 0.34856,-4.04325 -0.0845,-37.4114602 -0.51305,-39.5297402 -0.27951,-1.38168 -2.18678,-2.40106 -5.83773,-3.12011 -1.1146,-0.21952 -2.17075,-0.77494 -2.34701,-1.23427 -0.24318,-0.63371 1.09464,-0.92685995 5.54653,-1.21541995 l 5.86701,-0.38027 4.10104,4.29451995 c 2.25557,2.36199 6.43157,6.9214302 9.28,10.1320802 2.84843,3.21065 9.93096,11.04345 15.73896,17.40622 l 10.56,11.56867 0.17584,-10.20347 c 0.20946,-12.15428 -0.69332,-28.5824502 -1.62171,-29.5108402 -0.36401,-0.364 -2.19976,-0.85 -4.07945,-1.07998 -2.38767,-0.29213 -3.47657,-0.72461 -3.61323,-1.43507 -0.17138,-0.89098995 0.87742,-1.00985995 8.47017,-0.95999995 5.46421,0.0359 8.58892,0.29337 8.45778,0.69691995 -0.11439,0.352 -1.09164,0.728 -2.17167,0.83555 -1.08003,0.10755 -2.46007,0.74404 -3.06674,1.41441 -1.027,1.13481 -1.05345,2.55548 -0.38359,20.6044502 1.0179,27.42661 0.98347,29.95404 -0.4074,29.91067 -0.616,-0.0192 -3.87865,-2.9712 -7.25034,-6.56 z m -115.26451,5.08646 c -3.90468,-1.08312 -7.22663,-3.66817 -9.00647,-7.00862 -2.10488,-3.95047 -2.0645,-12.98844 0.0763,-17.08292 3.76662,-7.20394 10.06968,-10.5232 17.02359,-8.9648 4.96265,1.11215 8.18881,4.35169 9.31749,9.35611 l 0.48273,2.14036 -11.6094,0.17417 -11.60939,0.17416 0.0112,3.84 c 0.0221,7.56608 4.47294,12.97007 11.21607,13.618 3.60273,0.34617 8.06782,-1.04152 9.91352,-3.081 1.44422,-1.59584 2.21919,-1.59918 2.21919,-0.01 0,2.35112 -7.29414,6.74819 -12.16,7.3303 -1.584,0.1895 -4.22768,-0.0293 -5.87485,-0.48619 z m 10.90182,-24.18668 c 1.25386,-0.46935 1.434,-0.8581 1.07256,-2.31448 -1.4901,-6.0041 -9.73201,-6.99139 -14.36018,-1.7202 -1.81012,2.06161 -2.48289,4.05295 -1.65049,4.88534 0.50923,0.50923 13.24226,-0.21586 14.93811,-0.85066 z m 233.69303,24.47951 c -3.02653,-0.64252 -5.72908,-2.14066 -7.80605,-4.32723 -7.26416,-7.64751 -3.8778,-24.07541 5.81879,-28.22806 3.03701,-1.30062 9.44117,-1.29903 11.90726,0.003 3.72479,1.96654 6.72,6.1962 6.72,9.48962 0,1.17859 -0.55587,1.23834 -11.52,1.23834 h -11.52 l 0.006,3.68 c 0.007,3.96026 1.98582,9.16873 4.24646,11.17559 1.92991,1.71316 5.69817,3.06417 8.54714,3.06417 3.14949,0 6.01853,-1.13455 8.8,-3.47991 1.84961,-1.55961 2.08,-1.6197 2.08,-0.54253 0,1.53399 -3.38458,4.77658 -6.73502,6.45249 -3.04708,1.52416 -7.42621,2.13642 -10.54498,1.47432 z m 8.8,-24.11812 c 1.76002,-0.27437 2.08,-0.59325 2.08,-2.07285 0,-5.50231 -7.87936,-7.67563 -12.80415,-3.5317 -2.47424,2.08194 -4.24592,5.32932 -3.24502,5.94791 0.74044,0.45762 10.34546,0.22152 13.96917,-0.34336 z m 18.02232,23.82488 c -2.3861,-1.1896 -3.03091,-3.87622 -1.44302,-6.01242 1.65827,-2.2309 4.19148,-2.58793 5.94193,-0.83748 3.31122,3.31122 -0.36616,8.9103 -4.49891,6.8499 z M 0.92885161,51.788913 c -0.422221,-0.68317 0.58472399,-0.99349 4.42085699,-1.36244 1.689388,-0.16248 3.217386,-0.44119 3.395553,-0.61935 0.705877,-0.70588 0.255333,-45.4520102 -0.466409,-46.3216502 -0.394618,-0.47549 -1.666668,-0.86452 -2.826778,-0.86452 -2.469517,0 -4.13398,-0.54294 -4.13398,-1.34847 0,-0.32432995 9.5502234,-0.57152995 22.0800004,-0.57152995 h 22.08 V 6.4609528 c 0,3.168 -0.216,5.7504302 -0.48,5.7387302 -0.264,-0.0117 -1.488,-2.09969 -2.72,-4.6400002 l -2.24,-4.61873 -11.115821,-0.17544 c -7.65536,-0.12082 -11.391078,0.053 -12,0.55837 -0.684301,0.56792 -0.884179,3.03092 -0.884179,10.8954302 v 10.16164 l 9.76,-0.01 c 5.368,-0.005 10.141741,-0.25183 10.60832,-0.54764 0.466573,-0.2958 1.18809,-2.0679 1.603373,-3.93799 0.415283,-1.87008 1.113536,-3.51965 1.55168,-3.6657 0.61287,-0.20429 0.796627,2.04375 0.796627,9.74556 0,5.50612 -0.248493,9.85753 -0.552211,9.66983 -0.303712,-0.1877 -0.920941,-1.65827 -1.371623,-3.26794 -0.450675,-1.60965 -1.375084,-3.63307 -2.05424,-4.49648 -1.212294,-1.54119 -1.409164,-1.56984 -10.788377,-1.56984 h -9.553549 v 11.12164 c 0,8.12734 0.215386,11.29493 0.8,11.76531 1.20665,0.97087 14.88768,1.57191 20.132134,0.88446 5.843316,-0.76595 7.765696,-2.12629 10.512973,-7.4393 2.750593,-5.31941 3.906013,-5.52839 2.720873,-0.49211 -0.47629,2.024 -0.8749,4.688 -0.88578,5.92 -0.0109,1.232 -0.23139,2.5628 -0.489998,2.95734 -0.565626,0.86292 -47.3769514,1.61604 -47.89944539,0.77062 z m 104.02000839,-1.11873 -1.87077,-1.87077 v -12.20923 -12.20923 h -2.56 c -3.369226,0 -3.279796,-1.13901 0.25784,-3.28408 2.07955,-1.26094 3.20478,-2.58756 4.47851,-5.28 0.93563,-1.97776 1.98071,-3.59592 2.3224,-3.59592 0.34294,0 0.62125,2.02194 0.62125,4.51339 v 4.51338 l 5.44,-0.44139 5.44,-0.44141 v 1.68802 1.68801 h -5.44 -5.44 v 11.84 c 0,10.98667 0.0922,11.93225 1.28,13.12 1.48873,1.48873 3.77549,1.58872 7.3355,0.32074 2.79477,-0.99542 3.48256,-0.82841 2.32626,0.56484 -1.42939,1.72232 -5.0525,2.95442 -8.68771,2.95442 -3.16154,0 -3.87506,-0.24255 -5.50328,-1.87077 z m 165.47853,0.34426 c -2.76316,-4.21711 2.06488,-10.81874 11.2107,-15.32897 5.97359,-2.94585 6.2337,-3.35481 5.45151,-8.57085 -0.53772,-3.58577 -2.20355,-5.29367 -5.16329,-5.29367 -3.85612,0 -5.7889,1.47272 -7.32663,5.58267 -1.48556,3.97051 -2.10105,4.63241 -4.32159,4.64753 -3.89585,0.0265 1.37043,-8.65709 7.0145,-11.56628 1.58021,-0.81451 3.68896,-1.22392 6.304,-1.22392 3.61551,0 4.10338,0.17387 6.1055,2.176 2.43395,2.43395 2.43281,2.425 2.18746,17.12047 -0.0757,4.53601 0.15712,7.98268 0.59454,8.8 0.84186,1.57303 3.34995,1.78613 4.514,0.38353 0.4382,-0.528 1.04947,-0.96 1.35836,-0.96 1.06263,0 0.55749,1.24018 -1.42466,3.49773 -1.59688,1.81875 -2.44727,2.26227 -4.3376,2.26227 -2.84318,0 -4.90838,-1.32651 -5.45483,-3.50373 l -0.40499,-1.6136 -3.5732,2.37248 c -2.96062,1.96573 -4.26478,2.41651 -7.60709,2.62933 -3.77302,0.24025 -4.10454,0.149 -5.12669,-1.41099 z m 11.56406,-2.32964 c 3.82662,-1.85243 4.56518,-2.97973 5.02107,-7.66385 0.58419,-6.00238 0.0332,-6.47158 -4.45189,-3.79073 -6.34291,3.79138 -9.18506,9.45359 -5.90013,11.75444 1.819,1.27408 2.11389,1.25749 5.33095,-0.29986 z m -227.553355,2.58371 c 0,-0.34784 1.16246,-0.81832 2.583249,-1.04551 1.51484,-0.24224 2.83833,-0.8897 3.2,-1.56549 0.66154,-1.23609 0.86728,-18.39899 0.24015,-20.03326 -0.20712,-0.53977 -1.35912,-1.30566 -2.56,-1.70198 -1.20087,-0.39632 -2.183399,-0.92887 -2.183399,-1.18343 0,-0.25456 1.288509,-1.08884 2.863369,-1.85396 1.61369,-0.78399 3.49909,-2.37245 4.32,-3.63961 2.01339,-3.1079 3.05663,-2.91766 3.05663,0.55739 v 2.82171 l 4.83444,-2.50171 c 5.69378,-2.9464 10.08459,-3.35115 13.53449,-1.24762 3.78445,2.30752 4.26818,4.15599 4.37803,16.72956 0.0541,6.19501 0.2963,11.58385 0.53817,11.97521 0.24188,0.39136 1.43767,0.89877 2.65732,1.12758 1.26579,0.23746 2.21755,0.79747 2.21755,1.30479 0,0.71307 -1.65528,0.88877 -8.37333,0.88877 -6.14792,0 -8.30645,-0.20065 -8.12168,-0.75498 0.13841,-0.41524 1.53041,-1.06324 3.09334,-1.44 l 2.84167,-0.68502 0.17727,-9.46749 c 0.10055,-5.37009 -0.12127,-10.57615 -0.51253,-12.02919 -1.59083,-5.90788 -9.79687,-6.80553 -15.5627,-1.70238 l -2.34904,2.07906 0.4835,10.54001 0.4835,10.54 3.04,0.85719 c 1.672,0.47146 3.04,1.12846 3.04,1.46 0,0.34836 -3.78196,0.6028 -8.96,0.6028 -5.47523,0 -8.959999,-0.24597 -8.959999,-0.63244 z m 101.119995,0.0487 c 0,-0.32106 1.224,-0.78563 2.72,-1.03237 1.496,-0.24674 3.08,-0.73931 3.52,-1.09461 0.57756,-0.46638 0.78226,-3.16002 0.7362,-9.68764 -0.082,-11.6233 -0.20922,-12.06255 -3.74211,-12.92182 -3.15917,-0.76837 -2.97557,-1.20315 1.56591,-3.7083 1.408,-0.77668 3.136,-2.32791 3.84,-3.44718 2.14295,-3.40701 2.88,-2.67932 2.88,2.84342 v 4.92775 l 3.20985,-3.60137 c 3.85675,-4.32718 6.8729,-5.64373 9.29448,-4.05705 1.83732,1.20386 2.14743,4.21167 0.56926,5.52143 -0.78445,0.65103 -1.73594,0.6858 -4.31425,0.15764 -1.81931,-0.37268 -3.67806,-0.53554 -4.13055,-0.3619 -0.4525,0.17364 -1.53509,1.53127 -2.40576,3.01696 -1.48152,2.52803 -1.58303,3.28002 -1.58303,11.72724 0,6.23172 0.2332,9.17012 0.75325,9.49154 0.4143,0.25604 2.47924,0.63304 4.58875,0.83777 2.20884,0.21436 3.9477,0.71152 4.10008,1.17223 0.20476,0.61911 -2.20764,0.8 -10.66875,0.8 -6.1598,-1e-5 -10.93333,-0.25488 -10.93333,-0.58375 z m 145.47108,-0.30951 c 0.11678,-0.35033 1.00397,-0.84868 1.97154,-1.10745 3.52607,-0.94303 3.59738,-1.18401 3.59738,-12.15767 0,-9.30831 -0.10749,-10.26913 -1.28,-11.44164 -0.704,-0.704 -1.712,-1.28 -2.24,-1.28 -1.70996,0 -1.02028,-1.16422 1.54315,-2.60495 1.37673,-0.77376 3.11336,-2.2322 3.85916,-3.24095 2.24342,-3.03438 3.23769,-2.4214 3.23769,1.99608 v 3.83017 l 3.35436,-2.53882 c 6.31006,-4.77591 13.21511,-4.86334 17.04599,-0.21582 l 1.90785,2.31456 2.54945,-2.01921 c 7.21089,-5.71113 15.28869,-5.19835 18.50235,1.17455 1.3127,2.60316 1.44,3.75259 1.44,13.00207 0,5.58056 0.28192,10.67324 0.62649,11.31708 0.34457,0.64383 1.49657,1.47392 2.56,1.84463 3.96884,1.38355 2.05618,2.02061 -6.06649,2.02061 -8.25138,0 -10.11082,-0.66228 -5.4119,-1.92757 3.6709,-0.98847 4.0277,-2.31447 3.5798,-13.30414 -0.45866,-11.25354 -1.13063,-12.77881 -6.37401,-14.46786 -1.91297,-0.61623 -6.5184,0.87991 -8.99665,2.92269 l -2.31724,1.91008 v 10.43504 c 0,11.5278 0.0398,11.64713 4.10289,12.30648 1.33614,0.21682 2.29711,0.73934 2.29711,1.24903 0,0.69995 -1.80278,0.87626 -8.96,0.87626 -7.21864,0 -8.96,-0.17273 -8.96,-0.88877 0,-0.52063 0.99412,-1.07455 2.4,-1.33728 3.97249,-0.74235 4,-0.82015 4,-11.31287 0,-11.21383 -0.63048,-13.5076 -4.1127,-14.96257 -3.02621,-1.26442 -7.66296,-0.26247 -10.81716,2.3375 l -2.35014,1.93718 v 10.15564 c 0,10.98298 -0.0934,10.69128 3.7887,11.83728 4.49067,1.32567 2.66523,1.91369 -6.04032,1.94574 -5.46835,0.0202 -8.57153,-0.20241 -8.4373,-0.6051 z m 102.56521,-23.56916 c -2.14347,-3.06023 -0.33048,-7.53759 3.05215,-7.53759 1.92032,0 4.27156,2.51032 4.27156,4.56057 0,3.80032 -5.25178,5.93512 -7.32371,2.97702 z"
       style="fill:#000000;stroke-width:0.64" />
  </g>
</svg>
