<?xml version="1.0" encoding="UTF-8" standalone="no"?>
<svg
   xmlns:dc="http://purl.org/dc/elements/1.1/"
   xmlns:cc="http://creativecommons.org/ns#"
   xmlns:rdf="http://www.w3.org/1999/02/22-rdf-syntax-ns#"
   xmlns:svg="http://www.w3.org/2000/svg"
   xmlns="http://www.w3.org/2000/svg"
   xmlns:sodipodi="http://sodipodi.sourceforge.net/DTD/sodipodi-0.dtd"
   xmlns:inkscape="http://www.inkscape.org/namespaces/inkscape"
   inkscape:version="1.0 (4035a4fb49, 2020-05-01)"
   sodipodi:docname="BQ.svg"
   id="svg22"
   height="100"
   width="100"
   version="1.1">
  <metadata
     id="metadata28">
    <rdf:RDF>
      <cc:Work
         rdf:about="">
        <dc:format>image/svg+xml</dc:format>
        <dc:type
           rdf:resource="http://purl.org/dc/dcmitype/StillImage" />
        <dc:title />
      </cc:Work>
    </rdf:RDF>
  </metadata>
  <defs
     id="defs26" />
  <sodipodi:namedview
     inkscape:current-layer="svg22"
     inkscape:window-maximized="1"
     inkscape:window-y="-9"
     inkscape:window-x="69"
     inkscape:cy="57.724183"
     inkscape:cx="12.179887"
     inkscape:zoom="3.096503"
     showgrid="false"
     id="namedview24"
     inkscape:window-height="1051"
     inkscape:window-width="1842"
     inkscape:pageshadow="2"
     inkscape:pageopacity="0"
     guidetolerance="10"
     gridtolerance="10"
     objecttolerance="10"
     borderopacity="1"
     bordercolor="#666666"
     pagecolor="#ffffff"
     inkscape:document-rotation="0" />
  <g
     id="g869">
    <g
       id="g857">
      <path
         d="m 17.305056,26.053947 a 4.455877,4.5641876 0 1 1 -8.911754,0 4.455877,4.5641876 0 1 1 8.911754,0 z"
         id="path2"
         style="fill:#ff2a00;fill-opacity:1;fill-rule:evenodd;stroke:#cb001e;stroke-width:3.38228;stroke-linecap:round;stroke-linejoin:round;stroke-miterlimit:4;stroke-dasharray:none;stroke-opacity:1" />
      <path
         d="m 54.06604,15.784525 a 4.455877,4.5641876 0 1 1 -8.911754,0 4.455877,4.5641876 0 1 1 8.911754,0 z"
         id="path4"
         style="fill:#ff2a00;fill-opacity:1;fill-rule:evenodd;stroke:#cb001e;stroke-width:3.38228;stroke-linecap:round;stroke-linejoin:round;stroke-miterlimit:4;stroke-dasharray:none;stroke-opacity:1" />
      <path
         d="m 90.827023,26.053947 a 4.455877,4.5641876 0 1 1 -8.911754,0 4.455877,4.5641876 0 1 1 8.911754,0 z"
         id="path6"
         style="fill:#ff2a00;fill-opacity:1;fill-rule:evenodd;stroke:#cb001e;stroke-width:3.38228;stroke-linecap:round;stroke-linejoin:round;stroke-miterlimit:4;stroke-dasharray:none;stroke-opacity:1" />
      <path
         d="m 35.128563,18.066619 a 4.455877,4.5641876 0 1 1 -8.911754,0 4.455877,4.5641876 0 1 1 8.911754,0 z"
         id="path8"
         style="fill:#ff2a00;fill-opacity:1;fill-rule:evenodd;stroke:#cb001e;stroke-width:3.38228;stroke-linecap:round;stroke-linejoin:round;stroke-miterlimit:4;stroke-dasharray:none;stroke-opacity:1" />
      <path
         d="m 73.003516,19.207666 a 4.455877,4.5641876 0 1 1 -8.911754,0 4.455877,4.5641876 0 1 1 8.911754,0 z"
         id="path10"
         style="fill:#ff2a00;fill-opacity:1;fill-rule:evenodd;stroke:#cb001e;stroke-width:3.38228;stroke-linecap:round;stroke-linejoin:round;stroke-miterlimit:4;stroke-dasharray:none;stroke-opacity:1" />
      <path
         d="m 19.532994,58.003258 c 18.937476,-3.42314 46.786706,-3.42314 60.154337,0 L 84.143208,30.618134 68.547639,55.721165 V 23.771853 L 56.293978,54.580118 49.610162,20.348712 42.926347,54.580118 30.672686,22.630806 V 55.721165 L 15.077117,30.618134 Z"
         style="fill:#ff2a00;fill-opacity:1;fill-rule:evenodd;stroke:#cb001e;stroke-width:3.38228;stroke-linecap:butt;stroke-linejoin:round;stroke-miterlimit:4;stroke-dasharray:none;stroke-opacity:1"
         id="path12" />
      <path
         d="m 19.532994,58.003258 c 0,4.564188 3.341908,4.564188 5.569846,9.128375 2.227938,3.423141 2.227938,2.282094 1.113969,7.987328 -3.341907,2.282094 -3.341907,5.705235 -3.341907,5.705235 -3.341908,3.42314 1.113969,5.705234 1.113969,5.705234 14.481599,2.282093 36.760983,2.282093 51.242583,0 0,0 3.341908,-2.282094 0,-5.705234 0,0 1.113969,-3.423141 -2.227938,-5.705235 -1.11397,-5.705234 -1.11397,-4.564187 1.113969,-7.987328 2.227938,-4.564187 5.569846,-4.564187 5.569846,-9.128375 -18.937477,-3.42314 -41.216861,-3.42314 -60.154337,0 z"
         style="fill:#ff2a00;fill-opacity:1;fill-rule:evenodd;stroke:#cb001e;stroke-width:3.38228;stroke-linecap:butt;stroke-linejoin:round;stroke-miterlimit:4;stroke-dasharray:none;stroke-opacity:1"
         id="path14" />
      <path
         d="m 25.10284,67.131633 c 7.797784,-2.282093 41.21686,-2.282093 49.014645,0"
         style="fill:none;fill-opacity:1;fill-rule:evenodd;stroke:#cb001e;stroke-width:3.38228;stroke-linecap:round;stroke-linejoin:round;stroke-miterlimit:4;stroke-dasharray:none;stroke-opacity:1"
         id="path16" />
      <path
         d="m 26.216809,75.118961 c 13.367631,-2.282093 33.419076,-2.282093 46.786707,0"
         style="fill:none;fill-opacity:1;fill-rule:evenodd;stroke:#cb001e;stroke-width:3.38228;stroke-linecap:round;stroke-linejoin:round;stroke-miterlimit:4;stroke-dasharray:none;stroke-opacity:1"
         id="path18" />
    </g>
  </g>
</svg>
