<?xml version="1.0" encoding="UTF-8" standalone="no"?>
<svg
   xmlns:dc="http://purl.org/dc/elements/1.1/"
   xmlns:cc="http://creativecommons.org/ns#"
   xmlns:rdf="http://www.w3.org/1999/02/22-rdf-syntax-ns#"
   xmlns:svg="http://www.w3.org/2000/svg"
   xmlns="http://www.w3.org/2000/svg"
   xmlns:sodipodi="http://sodipodi.sourceforge.net/DTD/sodipodi-0.dtd"
   xmlns:inkscape="http://www.inkscape.org/namespaces/inkscape"
   sodipodi:docname="moon tattoo.svg"
   inkscape:version="1.0 (4035a4fb49, 2020-05-01)"
   id="svg979"
   version="1.1"
   viewBox="0 0 132.33856 138.80193"
   height="138.80193mm"
   width="132.33856mm">
  <defs
     id="defs973" />
  <sodipodi:namedview
     fit-margin-bottom="0"
     fit-margin-right="0"
     fit-margin-left="0"
     fit-margin-top="0"
     inkscape:window-maximized="0"
     inkscape:window-y="0"
     inkscape:window-x="192"
     inkscape:window-height="1030"
     inkscape:window-width="1424"
     showgrid="false"
     inkscape:document-rotation="0"
     inkscape:current-layer="layer1"
     inkscape:document-units="mm"
     inkscape:cy="322.30286"
     inkscape:cx="315.8029"
     inkscape:zoom="0.35"
     inkscape:pageshadow="2"
     inkscape:pageopacity="0.0"
     borderopacity="1.0"
     bordercolor="#666666"
     pagecolor="#ffffff"
     id="base" />
  <metadata
     id="metadata976">
    <rdf:RDF>
      <cc:Work
         rdf:about="">
        <dc:format>image/svg+xml</dc:format>
        <dc:type
           rdf:resource="http://purl.org/dc/dcmitype/StillImage" />
        <dc:title></dc:title>
      </cc:Work>
    </rdf:RDF>
  </metadata>
  <g
     transform="translate(-22.27715,-62.890703)"
     id="layer1"
     inkscape:groupmode="layer"
     inkscape:label="Layer 1">
    <path
       id="path880-3-3-1"
       style="fill:#000000;stroke-width:0.264583"
       d="m 84.951653,62.892567 c -4.029919,0.02281 -8.027411,0.255376 -9.938409,0.686779 -0.895202,0.202089 -2.877931,0.448443 -4.40595,0.547238 -3.114702,0.201401 -5.143101,0.632195 -7.672922,1.629886 -0.94588,0.37301 -2.19601,0.86061 -2.77812,1.083125 -3.7319,1.42666 -7.49377,3.362801 -8.202089,4.221454 -0.274402,0.332687 -3.004499,2.204534 -3.21529,2.204534 -0.0657,0 -1.09585,0.638625 -2.28875,1.419014 -1.1929,0.780441 -2.46653,1.567444 -2.83033,1.748738 -0.852491,0.424708 -8.38041,8.039391 -8.563801,8.66251 -0.0766,0.260112 -0.273599,1.901614 -0.4377,3.647864 -0.28482,3.030062 -0.33353,3.203311 -1.06711,3.785791 -0.94301,0.748771 -1.6976,2.272136 -1.62164,3.273187 0.0345,0.452279 -0.075,0.749485 -0.27799,0.754486 -3.47292,0.08522 -6.02343,0.84619 -6.02343,1.796785 0,0.709269 0.51718,1.070002 1.90688,1.329637 1.2052,0.225161 1.88304,0.568355 5.248251,2.660305 2.14831,1.33543 4.572479,4.1746 5.01158,5.86888 0.147789,0.5701 0.39134,1.5081 0.541039,2.08463 0.726521,2.79823 0.14801,15.87394 -0.924479,20.89745 -0.2037,0.95393 -0.445401,2.21052 -0.53639,2.7926 -0.0915,0.58208 -0.275031,1.41549 -0.407751,1.85208 -2.40919,7.92414 -2.81299,8.90151 -5.04671,12.21269 -0.7026,1.04143 -2.06026,2.58464 -3.01686,3.42977 -1.23261,1.08889 -1.71691,1.6936 -1.66193,2.07531 0.117,0.8173 1.30249,0.83037 2.51511,0.0279 0.9072,-0.60041 2.81252,-1.45761 5.2715,-2.37246 1.782611,-0.66318 5.43277,-4.78499 7.205771,-8.13697 2.4842,-4.69625 3.11404,-5.98498 3.47213,-7.10396 0.20949,-0.65481 0.532499,-1.48833 0.718309,-1.85208 0.185901,-0.36383 0.408021,-1.07823 0.49403,-1.5875 0.0858,-0.50935 0.270591,-1.30082 0.410321,-1.75908 0.13975,-0.45831 0.36039,-1.41079 0.49041,-2.11667 0.12999,-0.70588 0.47326,-2.41472 0.76324,-3.79717 0.29001,-1.38247 0.59118,-2.98981 0.668179,-3.57187 0.310301,-2.33188 0.677971,-4.31147 1.080561,-5.82084 0.585309,-2.19395 2.631009,-6.32301 3.453019,-6.9696 2.811201,-2.21125 11.262252,-2.32939 14.628051,-0.20465 1.592789,1.00552 1.982539,1.7985 1.820039,3.70313 -0.14809,1.73517 -1.48799,8.48003 -2.14509,10.79678 -0.219308,0.77329 -0.57634,2.53669 -0.79324,3.91914 -0.21699,1.38242 -0.580498,3.16836 -0.807699,3.96875 -0.227189,0.80033 -0.47971,2.28862 -0.56171,3.30729 -0.082,1.01862 -0.3317,2.62601 -0.555011,3.57187 -0.23821,1.01148 -0.344358,2.23724 -0.25736,2.97553 0.137321,1.16007 0.0743,1.3439 -0.830948,2.42464 -0.538702,0.64318 -1.37586,1.65876 -1.860341,2.25724 -1.067411,1.31863 -3.35852,3.04761 -5.0028,3.77495 -1.037511,0.45892 -1.514711,0.50847 -3.35071,0.34829 -1.177501,-0.10268 -2.20077,-0.26521 -2.27375,-0.3612 -0.0732,-0.096 -0.669051,-0.46292 -1.323969,-0.81545 -0.654791,-0.35253 -1.886272,-1.18597 -2.736271,-1.85208 -3.12978,-2.45282 -4.2673,-2.62642 -3.64731,-0.55708 0.9879,3.29755 4.80867,8.19573 7.32359,9.38908 3.224289,1.53006 8.115829,0.98663 12.68603,-1.4092 3.062819,-1.60567 4.89432,-2.98304 5.699921,-4.28657 0.733608,-1.187 0.83838,-1.2192 1.799878,-0.55448 1.09551,0.75726 2.906242,1.54072 5.025552,2.17453 1.684279,0.50377 2.316509,0.55901 4.7625,0.4155 4.3234,-0.25371 6.616348,-0.57811 7.122559,-1.00769 0.253199,-0.21495 1.023319,-0.71207 1.711529,-1.10485 1.4845,-0.84727 4.090832,-3.78452 4.97023,-5.6012 0.835102,-1.72508 1.015201,-4.89207 0.41031,-7.21199 -0.41539,-1.59274 -1.952328,-4.0232 -3.228229,-5.10407 -3.195399,-2.70701 -10.262131,-3.51076 -12.737729,-1.44899 -0.395901,0.32975 -1.162341,0.74353 -1.703261,0.91982 -0.540879,0.17632 -1.28997,0.68506 -1.664491,1.13017 -0.374599,0.44516 -0.755409,0.73522 -0.84542,0.64492 -0.237599,-0.23754 0.493522,-3.89612 1.75183,-8.76586 0.601612,-2.32833 1.161341,-5.00726 1.24333,-5.95312 0.0821,-0.94592 0.252942,-2.07696 0.379841,-2.51355 0.126889,-0.43656 0.284901,-1.27002 0.35192,-1.85208 0.0669,-0.58208 0.26916,-1.41555 0.44958,-1.85208 0.195789,-0.47384 0.32835,-2.0202 0.32866,-3.83646 5.29e-4,-3.60807 -0.489929,-5.04153 -2.281529,-6.66938 -2.410592,-2.190166 -3.919082,-2.598445 -11.476302,-3.105757 -2.353598,-0.158009 -4.794459,-0.383672 -5.423958,-0.501253 -1.389592,-0.259582 -4.42949,-0.140837 -6.0017,0.234104 -2.2162,0.528505 -4.587452,1.971119 -6.891571,4.193536 -1.222881,1.17949 -2.26082,2.14458 -2.306831,2.14458 -0.0459,0 -0.410049,-0.66691 -0.809249,-1.48209 -1.12541,-2.29846 -4.462171,-4.867906 -6.32158,-4.867906 -0.563411,0 -0.660721,-0.08967 -0.50332,-0.463021 0.3733,-0.885904 0.45627,-3.237309 0.14107,-3.998225 -0.17311,-0.41783 -0.61301,-0.918924 -0.97771,-1.114134 -0.55142,-0.294957 -0.637411,-0.491119 -0.512131,-1.160145 0.083,-0.4427 0.27678,-1.817131 0.43098,-3.054059 0.15412,-1.2369 0.435931,-2.48785 0.626321,-2.780215 0.36381,-0.55872 0.565869,-0.670903 3.32796,-1.848459 0.94591,-0.403251 2.69039,-1.1938 3.87678,-1.756488 1.186289,-0.562717 2.40096,-1.023171 2.69907,-1.023171 0.73437,0 3.30329,-0.681382 4.02505,-1.067647 0.321519,-0.172032 0.895299,-0.362744 1.2754,-0.423756 0.3801,-0.06096 1.762969,-0.350336 3.072659,-0.643362 6.805001,-1.522623 17.74684,-1.704816 25.00312,-0.416004 4.659921,0.82767 5.32358,1.019069 7.011461,2.016946 0.727601,0.430159 1.858751,1.031055 2.513541,1.335325 5.826919,2.707587 10.896226,5.95368 13.890626,8.895054 2.482,2.437977 7.08744,7.612512 8.05584,9.051131 0.37161,0.552053 1.11004,1.530566 1.64124,2.174526 0.98481,1.19404 4.98729,8.74631 4.98729,9.41081 0,0.20124 0.10777,0.57259 0.23926,0.82526 0.1315,0.25273 0.50655,1.35237 0.83355,2.4438 0.327,1.09141 0.72522,2.27089 0.88521,2.62102 0.18902,0.41338 0.26887,2.5754 0.22688,6.16706 -0.0654,5.66582 -0.27514,7.12261 -1.50844,10.4743 -1.05201,2.85877 -3.89652,6.65866 -5.672,7.57679 -0.443,0.22911 -1.73268,0.64241 -2.86597,0.91882 -2.84842,0.69469 -3.71247,1.19277 -4.35168,2.50836 -0.47562,0.97896 -0.50094,1.24251 -0.22013,2.28722 0.42269,1.57215 2.42289,3.49916 5.15728,4.96816 1.09082,0.58607 1.33699,0.85264 1.402,1.51876 0.17719,1.81173 -1.66351,3.01273 -5.63533,3.67678 -1.5928,0.26628 -2.76755,0.59999 -2.95125,0.83873 -0.47458,0.61637 -0.88463,3.41376 -0.63044,4.29998 0.1861,0.649 0.11821,0.88196 -0.39738,1.36633 -0.9067,0.85183 -1.44489,2.15549 -1.44489,3.49901 0,1.00029 -0.16169,1.36293 -1.06349,2.38744 -2.969397,3.37336 -11.753698,7.42874 -17.854217,8.24241 -0.727681,0.0971 -1.918229,0.34338 -2.645831,0.54724 -0.72758,0.20386 -2.989768,0.62783 -5.027089,0.94258 -7.611869,1.17615 -15.56758,0.17833 -23.8125,-2.98688 -2.18019,-0.83693 -8.15882,-3.74404 -8.86354,-4.30983 -0.21828,-0.17526 -1.70648,-0.9992 -3.307291,-1.83089 -3.555889,-1.84751 -6.25623,-3.8281 -8.82994,-6.47713 -1.79869,-1.85145 -5.72725,-6.54685 -6.46213,-7.72356 -0.36491,-0.58444 -1.19806,-0.66622 -1.40097,-0.13745 -0.18648,0.48596 1.00801,4.42643 2.03399,6.71018 0.2772,0.61687 0.50384,1.22282 0.50384,1.34667 0,0.46014 1.74324,3.70483 3.45924,6.4389 2.0464,3.26033 5.716911,8.1479 7.099301,9.45317 0.523009,0.49382 2.08198,1.9821 3.46438,3.30729 3.511519,3.36598 7.37878,6.34844 9.8325,7.58248 0.631078,0.31745 1.3263,0.73091 1.544579,0.91879 0.701021,0.60352 4.297711,2.3825 6.614591,3.27166 1.236901,0.47469 3.320521,1.32643 4.6302,1.8929 1.30972,0.5665 3.214741,1.26778 4.233339,1.55803 1.018701,0.29033 3.102322,0.8954 4.630211,1.34464 5.112509,1.50299 6.474719,1.83547 7.672909,1.87328 0.65482,0.0206 1.547892,0.12157 1.98438,0.22426 1.096801,0.25794 10.408491,0.0641 12.832292,-0.26718 5.05301,-0.69048 7.457966,-1.34787 12.630756,-3.45146 1.0532,-0.42831 2.83924,-1.14702 3.96875,-1.59732 2.27361,-0.90636 8.29447,-3.79809 9.32965,-4.48085 2.21451,-1.46061 3.30716,-2.09444 3.61117,-2.09444 0.34909,0 0.6604,-0.23098 6.83988,-5.07982 2.93851,-2.30571 7.78809,-6.89112 7.80108,-7.37629 0.004,-0.14298 1.25457,-1.71333 4.32998,-5.43687 3.0506,-3.69353 6.49687,-10.10412 9.29915,-17.2966 1.86981,-4.79936 1.82954,-4.67699 2.48823,-7.54063 1.1739,-5.1036 1.21589,-5.58213 1.43248,-16.27187 0.1116,-5.50781 0.0692,-6.42914 -0.37156,-8.0698 -0.27371,-1.01867 -0.67138,-2.85112 -0.88365,-4.07262 -0.2123,-1.22156 -0.5115,-2.34699 -0.66509,-2.50063 -0.15369,-0.15364 -0.28371,-0.52335 -0.28371,-0.82166 -0.002,-0.2983 -0.19113,-1.07839 -0.42013,-1.73321 -0.37309,-1.06709 -1.015,-3.3736 -1.70791,-6.13608 -0.31126,-1.2409 -3.25253,-6.61607 -4.40283,-8.04601 -0.4803,-0.597058 -0.87334,-1.219332 -0.87334,-1.382871 0,-0.163539 -0.30517,-0.497258 -0.67799,-0.741548 -0.37288,-0.244263 -0.96573,-1.012719 -1.31773,-1.707382 -0.352,-0.69469 -0.76787,-1.341676 -0.92398,-1.438169 -0.1561,-0.09647 -0.9621,-1.196129 -1.7911,-2.443242 -0.82891,-1.247193 -1.7137,-2.575745 -1.9663,-2.9523 -0.7965,-1.187291 -7.17156,-7.734009 -8.13956,-8.358638 -0.50938,-0.328692 -1.1806,-0.820076 -1.49188,-1.091935 -0.31131,-0.271834 -1.07572,-0.911225 -1.69863,-1.420575 -0.62296,-0.509349 -1.49958,-1.234228 -1.94767,-1.611286 -2.02211,-1.701192 -6.11601,-4.16388 -10.1663,-6.114865 -2.4238,-1.167474 -4.83997,-2.34733 -5.36919,-2.622074 -0.52909,-0.274769 -1.20354,-0.499692 -1.49913,-0.499692 -0.29549,0 -1.05362,-0.219604 -1.68413,-0.488341 -0.6306,-0.268764 -1.77085,-0.570759 -2.5342,-0.670772 -0.76351,-0.09996 -1.95408,-0.426455 -2.64583,-0.72554 -1.163827,-0.503132 -2.654436,-0.890429 -6.017738,-1.564772 -2.03999,-0.40902 -6.102268,-0.596398 -10.132189,-0.573591 z m 2.48563,1.244362 c 5.25825,0.01765 8.165831,0.518795 12.936157,2.064465 1.1642,0.37719 2.83107,0.819573 3.70417,0.9829 3.19839,0.598382 3.16135,0.583195 13.36146,5.520584 2.1491,1.040236 5.94648,3.622861 8.18398,5.565564 0.93613,0.812748 2.21414,1.842374 2.84015,2.288222 3.444,2.452714 8.43187,8.037672 12.15379,13.609004 1.50688,2.255573 3.17818,4.755859 3.71398,5.55625 0.53578,0.800342 1.48622,2.229092 2.11201,3.175002 0.65151,0.98462 1.41309,2.62458 1.78128,3.83646 1.1284,3.71363 2.00539,6.84101 2.29288,8.1752 0.15351,0.71284 0.49181,1.60575 0.7519,1.98437 0.82679,1.20343 1.69325,6.1399 1.70325,9.68418 0.0114,4.9689 -0.37057,11.82369 -0.68678,12.32997 -0.2095,0.33486 -0.20262,0.56121 0.0243,0.83458 0.3492,0.42071 0.22307,4.11377 -0.19534,5.72368 -0.13668,0.52565 -0.44879,1.72939 -0.6935,2.67531 -0.4181,1.61596 -2.58604,7.226 -3.01633,7.8052 -0.10811,0.14552 -1.24367,2.46719 -2.52338,5.15938 -3.41649,7.18738 -4.25535,8.38615 -9.51413,13.59244 -2.48002,2.4552 -5.36006,5.16974 -6.40064,6.03271 -1.0405,0.86296 -2.03769,1.92119 -2.21589,2.35127 -0.29432,0.71057 -2.84921,3.15765 -4.49122,4.30155 -4.95358,3.45077 -9.32545,5.8222 -14.68437,7.96591 -2.0373,0.81497 -4.0613,1.65307 -4.49792,1.8619 -1.5424,0.73792 -5.570223,2.0352 -6.640945,2.13889 -0.596497,0.0578 -2.20395,0.30086 -3.571869,0.54002 h -5.29e-4 c -4.236009,0.74051 -15.519221,0.65381 -16.898729,-0.1297 -0.35928,-0.2041 -1.609511,-0.53062 -2.77812,-0.72604 -2.121701,-0.35486 -3.04769,-0.58989 -7.283802,-1.84743 -6.45379,-1.91588 -14.06371,-5.25889 -17.99373,-7.90443 -6.123989,-4.12242 -14.270989,-11.60981 -16.136989,-14.83063 -0.4264,-0.7361 -1.345251,-2.11323 -2.041731,-3.05975 -2.2219,-3.01961 -2.38575,-3.27726 -3.44475,-5.41208 -1.50971,-3.04366 -2.56013,-5.64814 -2.35902,-5.84925 0.0963,-0.0962 0.61314,0.35166 1.14824,0.99528 1.4801,1.78038 5.64361,5.81367 7.111181,6.88899 0.71792,0.52604 1.93053,1.27267 2.69494,1.6588 0.7644,0.38616 1.53709,0.93792 1.71719,1.22629 0.18011,0.28837 0.56904,0.52401 0.86405,0.52401 0.29499,0 0.95108,0.27503 1.45778,0.61079 1.47,0.97412 8.13218,4.25244 10.445881,5.14027 6.821808,2.61774 11.90167,3.62998 18.25675,3.63699 4.183219,0.005 6.31185,-0.23297 10.71563,-1.19787 1.236898,-0.27102 3.38,-0.72001 4.7625,-0.99788 1.382419,-0.27781 2.93029,-0.66154 3.439578,-0.85214 2.02052,-0.7561 2.38075,-0.91914 2.38075,-1.07797 0,-0.0908 0.446482,-0.22614 0.992191,-0.30075 2.304311,-0.31509 8.891431,-4.09149 10.678923,-6.12212 1.05881,-1.2029 1.1474,-1.24708 2.16371,-1.07537 1.01069,0.17074 1.05217,0.15111 0.89967,-0.43201 -0.0879,-0.33626 -0.0356,-0.76099 0.11628,-0.94414 0.30509,-0.36758 0.0639,-0.97721 -0.29819,-0.75343 -0.12538,0.0775 -0.30329,0.0202 -0.39428,-0.12766 -0.0914,-0.14785 -0.39388,-0.26921 -0.6718,-0.26921 -0.6105,0 -0.47646,-0.52369 0.45683,-1.78594 0.76261,-1.03129 1.403,-1.12609 1.403,-0.20775 0,0.40595 0.22474,0.77205 0.59532,0.96946 0.32742,0.17441 0.72554,0.49403 0.88521,0.71054 0.23771,0.32242 0.44678,0.33943 1.15499,0.0925 0.47559,-0.16566 0.96983,-0.23617 1.09863,-0.15658 0.3534,0.21807 0.2821,0.67326 -0.0956,0.61237 -0.18191,-0.0293 -0.50929,0.0144 -0.7276,0.0972 -1.00989,0.38296 -1.5875,0.40042 -1.5875,0.0475 0,-0.20087 -0.35724,-0.55044 -0.79375,-0.77616 -0.43659,-0.22577 -0.79375,-0.57848 -0.79375,-0.78446 0,-0.61989 -0.58539,-0.78428 -0.96171,-0.26974 -0.4173,0.57068 -0.0932,1.10035 0.90538,1.48 0.5309,0.20193 0.60007,0.35967 0.45268,1.03095 -0.14798,0.67365 -0.095,0.79221 0.35398,0.79221 0.29052,0 0.58898,-0.14883 0.66199,-0.33073 0.10631,-0.26461 0.13699,-0.26461 0.15399,0 0.0294,0.46498 1.51905,0.41656 1.70016,-0.0553 0.0814,-0.21236 0.54081,-0.48753 1.0206,-0.61185 0.68439,-0.17738 0.87231,-0.36415 0.87231,-0.86715 0,-0.40484 -0.17413,-0.67485 -0.47235,-0.73226 -0.61578,-0.11853 -1.88525,-1.37147 -1.38955,-1.37147 0.19978,0 0.55165,-0.0719 0.78187,-0.1602 0.29569,-0.11346 0.41857,-0.005 0.41857,0.36846 0,0.54356 0.65349,0.96826 1.08209,0.70331 0.13241,-0.0818 0.24081,-0.42632 0.24081,-0.76533 0,-0.41574 0.14485,-0.60471 0.44494,-0.57981 0.4922,0.0407 1.37535,-1.27363 1.06455,-1.5844 -0.10782,-0.10785 -0.78491,-0.045 -1.50482,0.13951 -1.83261,0.46971 -4.59147,0.15251 -5.50407,-0.63251 -0.64598,-0.55565 -0.67281,-0.6717 -0.43874,-1.88463 l 0.24961,-1.29294 1.32292,-0.17158 c 3.22659,-0.41873 4.81347,-1.12559 6.91327,-3.07888 0.95361,-0.88717 1.09445,-1.16488 1.10847,-2.18644 0.0199,-1.43867 -0.2627,-1.77162 -2.85152,-3.35534 -3.4744,-2.12545 -4.55268,-3.4509 -3.9636,-4.87309 0.3937,-0.95054 1.17929,-1.36501 3.42359,-1.8066 2.87761,-0.56618 4.79867,-1.95043 6.98717,-5.03328 1.85368,-2.61127 2.15476,-3.23929 2.61276,-5.4524 0.21209,-1.02465 0.50673,-2.09232 0.65423,-2.37246 0.35448,-0.67316 0.5424,-2.39906 0.7338,-6.72722 0.17669,-3.99629 -0.2762,-7.72951 -1.1679,-9.62422 -0.2825,-0.60013 -0.59878,-1.5041 -0.70279,-2.00866 -0.104,-0.50454 -0.28397,-1.09985 -0.39997,-1.32292 -0.1161,-0.22304 -1.12636,-2.25115 -2.24536,-4.5067 -1.11901,-2.25557 -2.29258,-4.39873 -2.6081,-4.7625 -0.31541,-0.3638 -0.98097,-1.25675 -1.47897,-1.984373 -1.0541,-1.539822 -3.16748,-4.068789 -4.5217,-5.411576 -0.5203,-0.515887 -1.69069,-1.79324 -2.60139,-2.838053 -3.5262,-4.045613 -9.835965,-8.507387 -14.569654,-10.303247 -0.9421,-0.3574 -2.251811,-0.992003 -2.910409,-1.409752 -2.251901,-1.428355 -4.158911,-1.986652 -9.52191,-2.787942 -5.675892,-0.848068 -10.37214,-1.013778 -16.172651,-0.571024 -2.995911,0.228679 -5.78485,0.544354 -6.197549,0.701252 -0.4127,0.157003 -1.0687,0.215185 -1.457802,0.129725 -0.790278,-0.173593 -4.236058,0.698711 -5.165061,1.307412 -0.330499,0.216615 -1.17788,0.528241 -1.882568,0.69297 -2.05261,0.479742 -3.83812,1.050212 -5.11752,1.634517 -3.20018,1.461611 -4.0455,1.802262 -4.16771,1.679998 -0.21339,-0.21336 4.10165,-4.163325 5.72524,-5.241026 0.81679,-0.542157 1.95659,-1.316036 2.53317,-1.719791 0.57671,-0.403675 1.64944,-1.10027 2.383839,-1.547707 0.7343,-0.44741 2.057381,-1.340379 2.93987,-1.984375 1.823802,-1.330854 5.563952,-3.176323 9.631471,-4.752684 2.311789,-0.895958 3.458149,-1.160727 6.879161,-1.589034 2.257798,-0.282655 5.474388,-0.696304 7.14788,-0.918819 1.67349,-0.222462 5.542968,-0.449474 8.598959,-0.504878 0.859419,-0.01556 1.65849,-0.02318 2.409671,-0.02066 z M 35.563973,93.72375 c 1.045129,0.05331 1.26629,1.701482 0.262519,2.705259 -0.35711,0.357161 -0.87472,0.649075 -1.1498,0.649075 -0.647909,0 -1.37565,-0.811821 -1.37565,-1.534292 0,-0.590391 1.24349,-1.691349 2.04277,-1.808665 0.0769,-0.0113 0.15047,-0.01492 0.220161,-0.01138 z m 94.678437,31.28441 c -0.38409,0.0298 -0.63304,0.63254 -0.63304,1.67431 0,0.88498 -0.195,1.52448 -0.6971,2.28306 -0.9167,1.38518 -2.50076,3.03755 -2.91144,3.03755 -0.5374,0 -2.74146,2.15998 -2.74146,2.68666 0,0.5878 0.31009,0.60299 1.7875,0.0883 1.77699,-0.61907 6.17786,-0.61023 8.67905,0.0171 1.6383,0.41093 1.85981,0.4087 3.7729,-0.0393 1.7762,-0.41595 2.2075,-0.641 3.42149,-1.7849 1.98062,-1.86635 1.86539,-2.42708 -0.33073,-1.60819 -1.71278,0.63867 -4.6369,0.78737 -5.60792,0.28527 -0.4504,-0.23294 -1.33713,-0.50202 -1.97094,-0.59843 -1.92619,-0.29295 -1.93143,-0.3011 -1.84742,-2.95019 0.0613,-1.93458 -0.006,-2.44853 -0.37053,-2.81276 -0.16994,-0.16997 -0.32901,-0.26021 -0.4718,-0.27699 -0.0268,-0.003 -0.053,-0.003 -0.0786,-0.002 z m -46.344966,12.55271 c 0.330309,7.9e-4 0.94792,0.27929 1.372529,0.6191 0.61949,0.49567 0.764349,0.80949 0.735351,1.58853 -0.0477,1.26791 -0.42142,1.92794 -1.36993,2.41845 -1.0056,0.52004 -2.689202,0.45974 -4.493792,-0.16124 -1.853089,-0.63622 -2.351908,-1.09707 -1.85311,-1.6981 0.505402,-0.60896 4.88307,-2.76973 5.608952,-2.76674 z" />
  </g>
</svg>
