<?xml version="1.0" encoding="UTF-8" standalone="no"?>
<svg
   xmlns:dc="http://purl.org/dc/elements/1.1/"
   xmlns:cc="http://creativecommons.org/ns#"
   xmlns:rdf="http://www.w3.org/1999/02/22-rdf-syntax-ns#"
   xmlns:svg="http://www.w3.org/2000/svg"
   xmlns="http://www.w3.org/2000/svg"
   xmlns:sodipodi="http://sodipodi.sourceforge.net/DTD/sodipodi-0.dtd"
   xmlns:inkscape="http://www.inkscape.org/namespaces/inkscape"
   sodipodi:docname="star tattoo.svg"
   inkscape:version="1.0 (4035a4fb49, 2020-05-01)"
   id="svg1563"
   version="1.1"
   viewBox="0 0 168.15283 239.96844"
   height="239.96844mm"
   width="168.15283mm">
  <defs
     id="defs1557" />
  <sodipodi:namedview
     fit-margin-bottom="0"
     fit-margin-right="0"
     fit-margin-left="0"
     fit-margin-top="0"
     inkscape:window-maximized="0"
     inkscape:window-y="0"
     inkscape:window-x="224"
     inkscape:window-height="1030"
     inkscape:window-width="1424"
     showgrid="false"
     inkscape:document-rotation="0"
     inkscape:current-layer="layer1"
     inkscape:document-units="mm"
     inkscape:cy="479.19796"
     inkscape:cx="309.1977"
     inkscape:zoom="0.35"
     inkscape:pageshadow="2"
     inkscape:pageopacity="0.0"
     borderopacity="1.0"
     bordercolor="#666666"
     pagecolor="#ffffff"
     id="base" />
  <metadata
     id="metadata1560">
    <rdf:RDF>
      <cc:Work
         rdf:about="">
        <dc:format>image/svg+xml</dc:format>
        <dc:type
           rdf:resource="http://purl.org/dc/dcmitype/StillImage" />
        <dc:title></dc:title>
      </cc:Work>
    </rdf:RDF>
  </metadata>
  <g
     transform="translate(-24.024775,-21.378872)"
     id="layer1"
     inkscape:groupmode="layer"
     inkscape:label="Layer 1">
    <path
       id="path880-3-3"
       style="fill:#000000;stroke-width:0.264583"
       d="m 112.01252,21.378872 c -0.71054,0 -0.76972,0.07525 -0.77771,0.992188 -0.01,1.092914 -0.37389,2.165905 -3.16466,9.326562 -0.31194,0.800365 -0.81203,2.169583 -1.11157,3.042708 -0.57195,1.667219 -2.02112,5.297964 -2.88096,7.217119 -0.27885,0.622353 -0.50695,1.259258 -0.50695,1.415442 0,0.15613 -0.5358,1.62298 -1.19062,3.259746 -0.65487,1.636739 -1.19063,3.070701 -1.19063,3.18688 0,0.116178 -0.78195,1.748737 -1.737359,3.627675 -1.772518,3.485806 -2.925069,6.082983 -3.851458,8.677513 -0.28572,0.800365 -0.592161,1.633802 -0.680561,1.852084 -0.0884,0.218281 -0.19227,0.515937 -0.230481,0.661458 -0.235548,0.897361 -2.085599,5.366015 -2.317689,5.598107 -0.0891,0.08911 -0.96915,-0.08348 -1.955959,-0.383434 -1.930802,-0.586899 -6.040231,-1.391497 -6.688992,-1.310005 -0.8772,0.110252 -3.87432,-0.406876 -4.439518,-0.765837 -0.33152,-0.211111 -0.721971,-0.309112 -0.867651,-0.219101 -0.145679,0.09004 -1.00576,-0.07549 -1.911,-0.367956 -0.905219,-0.292444 -2.300211,-0.603409 -3.100581,-0.690907 -1.906,-0.208332 -4.082198,-0.638624 -5.531959,-1.093999 -1.17689,-0.369676 -1.876369,-0.180234 -1.876369,0.507471 0,0.453126 1.305608,4.654206 2.0252,6.515894 0.815528,2.109843 1.828829,5.154163 2.470648,7.423314 0.267552,0.94588 0.862602,3.029469 1.32239,4.6302 0.459822,1.60073 0.932211,3.26761 1.049552,3.70417 0.117369,0.43656 0.346339,1.128739 0.509029,1.538419 0.162671,0.409631 0.2961,0.892601 0.2961,1.073312 0,0.466749 -4.57827,2.46462 -9.392711,4.098449 -1.76911,0.60036 -4.616529,1.36313 -6.61458,1.771991 -5.28823,1.082119 -8.098289,1.715738 -14.15521,3.191539 -0.945889,0.230446 -2.434169,0.572566 -3.307289,0.760156 -1.36877,0.29407 -4.6513,1.33768 -6.35,2.01899 -0.29105,0.11675 -1.5412,0.45953 -2.77813,0.76172 -1.23693,0.30218 -2.66568,0.67159 -3.175,0.82063 -0.50932,0.14902 -1.45907,0.38348 -2.11047,0.52141 -0.65141,0.13793 -1.34914,0.41529 -1.55028,0.61651 -0.528,0.52798 -0.0262,1.27243 0.91311,1.35443 0.4196,0.0366 1.46783,0.49503 2.32907,1.01854 0.86125,0.52351 1.99131,1.03152 2.51148,1.12913 0.52014,0.0976 1.76652,0.51594 2.76984,0.92968 1.00333,0.41375 1.986409,0.75238 2.18438,0.75238 0.803239,0 12.2655,3.95544 13.99706,4.83022 1.02413,0.51735 2.6315,1.26071 3.57188,1.65157 4.20198,1.74645 6.04266,2.47035 7.398509,2.90989 0.80037,0.25947 2.11006,0.79132 2.910422,1.18185 0.80037,0.39051 2.22912,0.92349 3.175,1.18493 3.1437,0.86886 4.320508,1.2759 5.206918,1.79884 0.483002,0.28501 0.878501,0.55058 0.878501,0.59069 0,0.26482 -1.936091,4.8184 -2.134769,5.02086 -0.135652,0.13825 -0.246481,0.46927 -0.246481,0.73536 0,0.26609 -0.36817,1.21309 -0.818041,2.10426 -0.982898,1.94712 -3.679878,8.16409 -3.679878,8.4827 0,0.12432 -0.235561,0.71257 -0.52297,1.30741 -0.287391,0.59483 -0.463921,1.17652 -0.392221,1.29244 0.0716,0.11594 -0.338331,1.16998 -0.91104,2.34195 -0.93054,1.90421 -1.008959,2.21547 -0.740021,2.92799 0.33124,0.87754 0.445191,0.91318 1.733741,0.54364 0.830339,-0.23815 0.87585,-0.21804 0.74414,0.33073 -0.348091,1.45042 -0.976889,7.70927 -1.37406,13.68134 -0.0823,1.23692 -0.320781,3.38005 -0.530231,4.7625 -0.422849,2.79133 -0.75157,6.82786 -1.184928,14.55208 -0.350682,6.25078 -0.789472,9.73431 -1.320332,10.47792 -0.218279,0.30576 -0.813588,0.76846 -1.322909,1.02836 -1.16242,0.59314 -2.910419,1.95498 -2.910419,2.26756 0,0.1297 0.357187,0.1643 0.79375,0.077 0.77057,-0.15412 1.10948,0.21029 0.529169,0.56896 -0.443359,0.274 -0.295941,1.60912 0.25527,2.30995 0.286121,0.36372 0.911199,0.81684 1.38906,1.00716 0.477891,0.19034 0.903579,0.36983 0.9457,0.39894 0.0421,0.0292 -0.233841,0.63386 -0.61288,1.34361 -0.44757,0.8379 -0.641459,1.53355 -0.552951,1.98437 0.0938,0.4776 -0.0657,0.96864 -0.511601,1.57303 -0.356467,0.48313 -0.650157,1.06397 -0.652147,1.29034 -0.006,0.61474 -0.656611,2.36869 -1.009751,2.7218 -0.169971,0.16999 -0.309041,0.50702 -0.309041,0.7488 0,0.24177 -0.446479,1.25947 -0.99218,2.26187 -0.545708,1.00248 -1.004469,1.97143 -1.019069,2.15336 -0.0145,0.1819 -0.0444,0.62839 -0.0661,0.99219 -0.0329,0.54864 -0.17409,0.66146 -0.827849,0.66146 -0.784842,0 -4.01201,0.89963 -4.76766,1.3291 -1.57067,0.89268 -4.39243,2.11048 -4.89014,2.11048 -0.697231,0 -1.05486,0.37838 -1.28984,1.36374 -0.14592,0.61196 -0.0604,0.73946 0.66455,0.99219 0.45755,0.15952 1.05286,0.2899 1.32342,0.2899 0.27062,0 0.95174,0.33301 1.5136,0.74002 0.5619,0.40703 1.54335,0.89503 2.18075,1.08415 0.63744,0.18915 1.33771,0.44765 1.55599,0.57465 0.21828,0.12698 0.904289,0.46641 1.524448,0.75449 0.620213,0.28808 1.17457,0.67879 1.231982,0.86815 0.0574,0.18931 0.362239,1.23714 0.677469,2.32854 0.877541,3.03819 0.8388,2.93347 3.064401,8.33438 0.99346,2.4108 1.272429,3.2861 1.72238,5.40948 0.137059,0.64683 0.397279,1.27 0.578281,1.38494 0.495588,0.31475 0.989298,0.25852 0.999408,-0.11369 0.005,-0.1819 0.23921,-0.80698 0.52038,-1.38907 0.28117,-0.58208 0.51485,-1.24714 0.51985,-1.47793 0.005,-0.23077 0.525262,-2.13932 1.15602,-4.24109 1.035871,-3.45178 2.636811,-7.12171 3.929992,-9.00877 0.488838,-0.71337 2.15842,-1.41517 5.24206,-2.20398 2.035148,-0.52059 5.000069,-1.58837 5.33196,-1.92029 0.504769,-0.50475 -0.329801,-1.77316 -1.23298,-1.87381 -0.435512,-0.0485 -1.16713,-0.37271 -1.62574,-0.72088 -0.458602,-0.34816 -1.421921,-0.86479 -2.14095,-1.14824 -0.71909,-0.28339 -1.759511,-0.8224 -2.312011,-1.19734 -0.55253,-0.37494 -1.20364,-0.68162 -1.446951,-0.68162 -0.49425,0 -1.60042,-0.93152 -1.60042,-1.34771 0,-0.14788 -0.22484,-0.76825 -0.49971,-1.37875 -0.274849,-0.61049 -0.583359,-1.64578 -0.685218,-2.30063 -0.101891,-0.65487 -0.461621,-1.97167 -0.799441,-2.92642 -0.33782,-0.9548 -0.700461,-2.32399 -0.80563,-3.04271 -0.105201,-0.71866 -0.401561,-1.84713 -0.658889,-2.50735 -0.257281,-0.66024 -0.5529,-1.8806 -0.656802,-2.71198 -0.1754,-1.40388 -0.150659,-1.51154 0.34726,-1.51154 0.95499,0 3.16061,-3.3011 2.855651,-4.27415 -0.0613,-0.19566 -0.183089,-0.68348 -0.27077,-1.08366 -0.0877,-0.40021 -0.31351,-0.7276 -0.50179,-0.7276 -0.188301,0 -0.679791,-0.35169 -1.09193,-0.78187 l -0.7493,-0.78238 0.216001,-2.98794 c 0.118718,-1.64348 0.244049,-3.40513 0.279058,-3.91448 0.035,-0.5093 0.194652,-2.65242 0.354492,-4.7625 0.159779,-2.11002 0.27532,-4.07458 0.256828,-4.36562 -0.0548,-0.86104 0.329221,-6.3264 0.459401,-6.53706 0.1484,-0.24011 0.628349,-4.02625 0.78136,-6.16294 0.0625,-0.87316 0.247179,-2.09037 0.409789,-2.70526 0.162611,-0.61489 0.229762,-1.36814 0.14986,-1.67381 -0.0799,-0.30562 0.0719,-2.30301 0.336921,-4.43849 0.26503,-2.13537 0.559459,-4.54565 0.654759,-5.35625 l 0.173122,-1.47381 1.905288,-0.49041 c 1.04783,-0.26992 2.917352,-0.83513 4.154282,-1.25574 1.236919,-0.42058 2.750309,-0.87143 3.363089,-1.002 0.612799,-0.1306 1.862929,-0.43188 2.77812,-0.66921 0.915199,-0.23736 2.497431,-0.58886 3.51608,-0.78137 1.018651,-0.19251 2.506929,-0.53713 3.307291,-0.76583 0.80037,-0.22871 2.051839,-0.41609 2.781218,-0.4191 l 1.32601,-0.003 0.73742,2.18281 c 0.405691,1.20055 0.841912,2.7186 0.96896,3.37344 0.127032,0.65484 0.528082,2.32172 0.89141,3.70417 2.004322,7.62622 2.33294,8.84131 2.668561,9.86295 0.553961,1.68632 1.738551,6.71224 1.742551,7.39542 0.0021,0.33055 0.399069,1.79163 0.882119,3.24684 0.483049,1.4552 1.26838,4.25317 1.745109,6.2177 1.002578,4.13168 1.615968,6.43083 2.506288,9.39271 0.93324,3.10473 1.17666,4.0631 1.46709,5.76813 0.1438,0.84399 0.50273,2.07947 0.79737,2.74556 0.29464,0.66608 0.53589,1.54614 0.53589,1.95595 0,0.44786 0.21331,0.89464 0.53486,1.11983 0.43137,0.30215 0.46749,0.43079 0.18706,0.66352 -0.21133,0.17539 -0.37243,0.99441 -0.41082,2.08775 -0.0348,0.98951 -0.23286,2.92994 -0.43977,4.31239 -0.20693,1.38244 -0.51665,3.64463 -0.68834,5.02708 -0.24034,1.93522 -0.44754,2.66573 -0.90175,3.175 -0.71345,0.79991 -1.98541,3.47562 -1.98541,4.1765 0,0.79931 0.74359,2.07994 1.49294,2.5709 l 0.68678,0.45009 -0.64235,0.43616 c -0.35325,0.2399 -1.61753,1.259 -2.809638,2.26447 l -2.167308,1.8283 0.0186,1.3467 c 0.01529,1.1059 0.20537,1.63068 1.062459,2.93417 0.574119,0.87313 1.396387,2.32318 1.827287,3.22202 0.43088,0.89884 0.90194,1.7072 1.04696,1.79682 0.64804,0.40049 1.76787,3.58013 1.2609,3.58013 -0.16664,0 -0.54512,0.24044 -0.84127,0.53432 -1.14835,1.13948 -3.288797,2.62118 -5.697858,3.94446 -2.462678,1.35273 -3.312049,1.88372 -5.403789,3.37862 -0.570759,0.40791 -1.344689,0.92896 -1.719789,1.15806 -1.098132,0.67063 -1.073052,2.1083 0.0656,3.78841 0.503801,0.74342 1.105432,1.70852 1.33686,2.14508 0.231461,0.43656 0.826241,1.26039 1.321891,1.83039 0.886139,1.01904 0.915929,1.02999 1.790091,0.67799 1.003509,-0.40412 4.599199,-2.75082 4.859118,-3.1714 0.0934,-0.15113 0.868291,-0.6277 1.722396,-1.05883 0.85404,-0.43115 1.64923,-0.94065 1.7668,-1.13277 0.35933,-0.58703 2.08735,-1.77558 2.58176,-1.77558 0.25629,0 0.81972,-0.29761 1.2521,-0.66147 1.01251,-0.85196 2.0061,-1.10564 2.46447,-0.62942 0.19326,0.2008 0.67178,1.13874 1.06349,2.08464 0.39175,0.94588 0.82642,1.85998 0.96584,2.03138 0.38999,0.47946 2.86649,5.39398 2.86649,5.68854 0,0.14317 0.44659,0.78283 0.99218,1.42111 0.54565,0.6383 1.20918,1.16392 1.47486,1.16893 0.26572,0.005 1.15867,-0.50848 1.98436,-1.14101 0.82571,-0.63255 1.79939,-1.30274 2.16319,-1.48882 0.36379,-0.18606 1.28653,-0.81369 2.05052,-1.39525 1.43067,-1.08903 1.85321,-2.15427 0.98702,-2.48666 -0.22086,-0.0847 -0.38514,-0.28943 -0.36536,-0.45476 0.0808,-0.67422 -0.0476,-0.96221 -0.42892,-0.96221 -0.69678,0 -4.24446,-6.01957 -4.72838,-8.02279 -0.248,-1.02661 0.52302,-2.16508 2.36108,-3.4866 0.80959,-0.58208 1.97226,-1.41631 2.58385,-1.85364 2.3194,-1.65865 9.44167,-6.07295 13.65754,-8.46511 0.76938,-0.43656 2.48811,-1.534 3.81942,-2.43861 2.15101,-1.46163 5.40033,-3.45487 6.12312,-3.75637 0.46675,-0.19462 2.87623,-1.92566 4.1393,-2.97344 0.67503,-0.56004 1.33725,-1.01803 1.47174,-1.01803 0.13446,0 0.59423,-0.36677 1.02164,-0.81495 1.27868,-1.3408 4.35148,-3.76846 4.53616,-3.58375 0.0945,0.0945 -0.0748,0.79531 -0.37619,1.55752 -0.81654,2.06513 -1.1697,3.62731 -1.12192,4.95784 0.0236,0.65485 -0.0863,1.96453 -0.24392,2.91043 -0.15764,0.94588 -0.28895,2.34081 -0.29197,3.10007 -0.007,1.79916 -1.01441,4.99323 -1.86086,5.89938 -0.4376,0.46847 -1.34787,0.91374 -2.64687,1.2945 -1.08889,0.31919 -2.33691,0.7067 -2.77347,0.86093 -0.43656,0.15422 -1.27,0.3999 -1.85208,0.5462 -1.79568,0.45133 -2.78506,0.97287 -3.02564,1.59422 -0.36193,0.93448 0.38343,1.45212 3.16828,2.20091 1.37654,0.37013 3.03897,0.84543 3.69382,1.05625 0.65481,0.21087 1.66687,0.3819 2.24896,0.3819 1.29648,-0.002 3.65828,-0.86779 4.86379,-1.78335 1.52281,-1.15656 3.46448,-3.34994 3.46749,-3.91657 0.001,-0.29665 0.24122,-1.00629 0.53227,-1.57716 0.29104,-0.57086 0.52916,-1.24383 0.52916,-1.4955 0,-0.2517 0.10311,-0.52136 0.22945,-0.59947 0.12634,-0.0781 0.3111,-0.76959 0.41032,-1.53686 0.25982,-2.00914 1.16718,-6.48695 1.59628,-7.87754 1.17718,-3.81508 1.47246,-5.1054 1.60557,-7.01146 0.0813,-1.16417 0.27212,-3.01109 0.42426,-4.10414 0.20312,-1.45912 0.19238,-2.51394 -0.0413,-3.96875 -0.1751,-1.08976 -0.35928,-2.60366 -0.40928,-3.36415 -0.165,-2.50783 -1.6614,-4.30567 -3.58325,-4.30567 -0.57748,0 -2.2056,-0.17462 -3.61786,-0.38809 -5.18016,-0.78306 -8.40887,-1.20396 -9.24802,-1.20097 -1.06281,0.002 -1.07662,-0.23971 -0.0749,-1.31204 0.59489,-0.63686 0.77785,-1.07604 0.75655,-1.81385 -0.0355,-1.22455 -0.2282,-1.59441 -1.68569,-3.23546 -1.10588,-1.24513 -1.17858,-1.42158 -1.17358,-2.84014 0.003,-0.83188 0.1185,-2.29796 0.25736,-3.25769 0.13885,-0.95972 0.31056,-3.34097 0.38137,-5.29166 0.11692,-3.22049 1.00586,-15.05665 1.34927,-17.96635 0.0773,-0.65484 0.187,-1.72641 0.24392,-2.38125 0.33882,-3.89789 0.71934,-7.48403 0.94411,-8.89402 0.14187,-0.8899 0.25945,-2.25912 0.26045,-3.04271 0.001,-0.78359 0.0785,-2.05915 0.17156,-2.83445 0.14536,-1.21047 0.23945,-1.39124 0.66664,-1.27953 0.44562,0.11655 0.48559,0.002 0.38137,-1.10379 -0.064,-0.67871 -0.23619,-1.59123 -0.3824,-2.02779 -0.62026,-1.8519 -0.83923,-2.72145 -0.83923,-3.32745 0,-0.35412 -0.28908,-1.41687 -0.64183,-2.36212 -0.91776,-2.45944 -1.11731,-3.06798 -1.73839,-5.29064 -0.30498,-1.09141 -0.66834,-2.19109 -0.80719,-2.44377 -0.13885,-0.2527 -0.25217,-0.6827 -0.25217,-0.95552 0,-0.27278 -0.28837,-1.40417 -0.6408,-2.51457 -0.89466,-2.81895 -0.65865,-3.64786 1.24386,-4.36303 0.75957,-0.28551 2.33381,-0.95962 3.49798,-1.4981 2.56175,-1.18491 4.47865,-1.91947 8.99584,-3.44837 5.19221,-1.75736 6.40133,-2.14785 8.99583,-2.90265 1.30969,-0.38105 2.97654,-0.91268 3.70417,-1.18185 0.72761,-0.26913 1.97654,-0.63786 2.77553,-0.81907 1.49233,-0.33842 3.65033,-1.23748 4.33671,-1.80712 0.42484,-0.35261 2.1382,-1.03236 5.19089,-2.05931 1.0914,-0.36716 2.34156,-0.85271 2.77812,-1.079 0.80894,-0.41926 1.91487,-0.75353 3.57188,-1.079 0.7149,-0.14042 0.94649,-0.32832 1.01698,-0.82476 0.11609,-0.81795 -0.56669,-1.33429 -1.76475,-1.33429 -0.50101,0 -1.40091,-0.12566 -1.99988,-0.27956 -1.86415,-0.479 -3.97592,-1.09548 -4.5284,-1.32139 -0.29104,-0.11898 -1.00541,-0.35852 -1.5875,-0.53278 -0.58208,-0.17423 -1.47502,-0.47961 -1.98437,-0.6785 -0.50932,-0.19889 -2.11667,-0.65505 -3.57188,-1.013885 -2.46951,-0.60896 -3.80216,-1.015392 -8.86354,-2.70319 -1.0914,-0.363961 -3.59172,-1.124932 -5.55625,-1.690881 -4.65177,-1.34003 -4.8995,-1.418741 -6.61459,-2.101159 -0.80036,-0.31845 -2.34818,-0.851612 -3.43958,-1.184931 -1.09144,-0.333299 -2.87735,-0.960261 -3.96875,-1.39319 -1.09144,-0.432941 -2.43716,-0.869479 -2.99051,-0.969971 -0.55335,-0.100459 -1.07564,-0.362738 -1.16014,-0.582898 -0.0845,-0.22021 0.14689,-1.61272 0.51419,-3.094411 0.36727,-1.481661 0.87114,-3.884501 1.11929,-5.339709 0.24815,-1.455211 0.61389,-3.30118 0.81288,-4.102082 0.19899,-0.800888 0.42767,-2.36968 0.50797,-3.486092 0.25078,-3.488134 0.6281,-5.849514 1.1865,-7.420213 0.75491,-2.12344 0.70787,-2.727854 -0.25167,-3.206514 -0.55121,-0.274979 -1.01195,-0.325541 -1.52136,-0.166923 -1.82538,0.568351 -5.12638,1.398773 -6.81611,1.714632 -4.35835,0.814679 -6.05089,1.215708 -7.22231,1.712542 -0.68453,0.290354 -2.51994,0.826479 -4.07881,1.191154 -1.55887,0.364649 -3.30518,0.851403 -3.88038,1.081591 -0.57521,0.230108 -1.37808,0.379571 -1.78439,0.332263 -0.65297,-0.07591 -0.74917,-0.208679 -0.82836,-1.144111 -0.0864,-1.019519 -0.8937,-5.485395 -1.38701,-7.672919 -0.13126,-0.582081 -0.31269,-1.534581 -0.40306,-2.116664 -0.0904,-0.582084 -0.32783,-1.548183 -0.52763,-2.147147 -0.19981,-0.59899 -0.55436,-2.146803 -0.78807,-3.439583 -0.2337,-1.292807 -0.55411,-2.681949 -0.71209,-3.086629 -0.15797,-0.404734 -0.32722,-1.178641 -0.37622,-1.719793 -0.0489,-0.541205 -0.27369,-1.936432 -0.49919,-3.100599 -0.22548,-1.164167 -0.51455,-2.77151 -0.64232,-3.571875 -0.12777,-0.800365 -0.52977,-2.526771 -0.8935,-3.836458 -0.3637,-1.309688 -0.92133,-3.571875 -1.2392,-5.027084 -0.31785,-1.455199 -0.68435,-2.94348 -0.81442,-3.307282 -0.13007,-0.363802 -0.30189,-1.494896 -0.3819,-2.513542 -0.33478,-4.261997 -0.36341,-4.365635 -1.21492,-4.365635 z m -0.33176,5.057564 c 0.14171,-0.03498 0.26451,0.246459 0.3075,0.829415 0.0349,0.472943 0.23471,1.51474 0.44439,2.315105 1.30308,4.973875 2.81636,11.640502 3.18329,14.022916 0.40476,2.628159 0.66137,3.856858 2.12701,10.186458 0.33694,1.455182 0.73377,3.181615 0.88159,3.836459 0.28302,1.253781 1.84264,9.093967 2.07894,10.451041 0.076,0.436589 0.26252,0.873946 0.41497,0.972027 0.18645,0.119935 0.16438,0.314669 -0.0677,0.59428 -0.18973,0.228574 -0.28141,0.657199 -0.20412,0.952924 0.0773,0.295698 -0.21069,1.695476 -0.63977,3.110388 -0.42904,1.414965 -1.1199,3.703556 -1.53529,5.086004 -1.92562,6.408772 -2.58009,8.26794 -4.0008,11.36364 -0.8382,1.82645 -2.49338,5.761521 -3.67831,8.74469 -1.18494,2.983177 -2.32545,5.810917 -2.53474,6.283857 -0.2491,0.56295 -0.5665,0.85989 -0.91829,0.85989 -0.57314,0 -1.48672,-1.24137 -1.75286,-2.38125 -0.085,-0.3638 -0.44156,-1.61398 -0.79219,-2.77812 -0.61174,-2.031046 -0.93366,-2.889937 -2.00557,-5.355216 -0.26829,-0.61709 -0.94874,-2.53688 -1.51257,-4.266411 -0.56388,-1.729518 -1.21491,-3.43402 -1.44642,-3.787368 -0.231539,-0.353351 -0.651618,-1.290542 -0.933799,-2.083073 -0.55467,-1.557758 -1.345981,-3.641489 -1.83451,-4.831767 -0.16814,-0.40962 -0.305411,-0.781812 -0.305411,-0.827321 0,-0.0455 -0.200898,-0.543991 -0.44595,-1.107421 -0.24506,-0.563499 -0.41887,-1.170408 -0.386559,-1.348759 0.0323,-0.178361 -0.124431,-0.678712 -0.3483,-1.11157 -0.223859,-0.432879 -0.406691,-1.092941 -0.406691,-1.467091 0,-0.374139 -0.28212,-1.124503 -0.626819,-1.667084 -0.73801,-1.161706 -0.707049,-2.533359 0.0997,-4.426082 0.124061,-0.291042 0.368509,-1.005417 0.54311,-1.5875 0.174649,-0.582057 0.407009,-1.177396 0.516779,-1.322917 0.10972,-0.145521 0.286412,-0.670745 0.392721,-1.167368 0.197041,-0.920247 2.09,-5.391467 4.098479,-9.680548 2.15775,-4.607851 2.58532,-5.562336 2.78381,-6.217709 0.21482,-0.709401 1.48963,-3.61942 2.12442,-4.849839 0.21254,-0.411982 0.38653,-0.925618 0.38653,-1.141518 0,-0.215873 0.22558,-0.950674 0.50178,-1.632479 0.2762,-0.681831 0.76409,-1.954054 1.08416,-2.827205 0.32009,-0.873099 0.68366,-1.825625 0.80772,-2.116667 0.12404,-0.291068 0.45783,-1.303073 0.74208,-2.248958 0.28421,-0.945886 0.92879,-2.6874 1.43195,-3.870034 0.50313,-1.182661 0.99301,-2.462583 1.08881,-2.844271 0.10486,-0.417803 0.22672,-0.636323 0.33692,-0.663548 z m 31.9903,64.392468 c 0.32665,0.02379 0.75276,0.162319 1.5136,0.432009 0.9049,0.32067 1.75829,0.682601 1.89653,0.804601 0.13825,0.121941 0.50157,0.221689 0.80719,0.221689 0.30557,0 0.66842,0.100232 0.80666,0.222731 0.13825,0.122529 1.05535,0.433409 2.03761,0.690899 0.98224,0.257421 1.78594,0.57023 1.78594,0.69506 0,0.124812 0.1551,0.16727 0.34467,0.0946 0.30919,-0.118642 1.49133,0.30149 2.56575,0.911569 0.63836,0.362479 2.15681,0.856689 3.43493,1.11828 1.48066,0.303059 5.14345,1.405469 7.41299,2.230861 0.94589,0.344019 2.61276,0.882679 3.70417,1.197348 1.09141,0.3147 2.63922,0.786209 3.43958,1.047489 0.80037,0.26132 1.93146,0.55649 2.51354,0.65629 0.58206,0.0998 2.01081,0.51338 3.175,0.9188 2.4792,0.86336 7.08867,2.3037 8.14266,2.54455 1.0114,0.23114 0.54507,0.73927 -1.07021,1.1653 -0.68847,0.18159 -2.02552,0.66381 -2.9714,1.07178 -0.94589,0.40801 -2.73183,1.17705 -3.96875,1.70894 -2.70055,1.16126 -5.6442,2.22681 -9.46661,3.42768 -1.56014,0.49016 -4.02714,1.29923 -5.48235,1.79784 -1.45521,0.49861 -3.18162,1.05833 -3.83646,1.24383 -0.65484,0.1855 -1.7485,0.56169 -2.43033,0.83561 -0.68183,0.2739 -1.4109,0.49765 -1.62008,0.49765 -0.4033,0 -1.89645,0.60426 -4.62658,1.87225 -0.91604,0.42548 -1.8152,0.77359 -1.99782,0.77359 -0.18264,0 -0.45019,0.1184 -0.59481,0.26302 -0.14459,0.1446 -1.3221,0.62085 -2.61636,1.05833 -2.80508,0.94816 -2.82805,0.94994 -3.46956,0.22998 -0.2772,-0.31112 -0.8908,-0.72954 -1.36374,-0.92967 -0.47294,-0.20018 -0.8599,-0.46114 -0.8599,-0.5798 0,-0.1187 -0.59534,-0.49486 -1.32291,-0.83561 -0.72761,-0.34081 -1.32292,-0.70943 -1.32292,-0.8196 0,-0.1102 -0.62508,-0.43895 -1.38906,-0.73017 -0.76399,-0.29128 -2.01383,-0.83569 -2.7771,-1.20976 -0.76327,-0.37404 -1.51196,-0.68006 -1.66399,-0.68006 -0.15203,0 -0.71842,-0.2218 -1.2583,-0.49299 -0.53994,-0.27117 -1.80361,-0.64545 -2.8081,-0.83148 -1.00449,-0.18606 -2.43115,-0.55899 -3.17088,-0.82939 -0.73969,-0.27033 -1.61213,-0.49197 -1.93836,-0.49197 -0.32628,0 -1.22079,-0.28818 -1.988,-0.64026 -2.3508,-1.07895 -4.22092,-1.77131 -6.15725,-2.2805 -3.26335,-0.85799 -4.82582,-1.57557 -4.51755,-2.07428 0.10282,-0.16637 0.95991,-0.66413 1.90479,-1.10588 0.94488,-0.44177 2.46808,-1.3035 3.38532,-1.91513 0.91725,-0.61159 2.54145,-1.58832 3.60907,-2.17041 1.06767,-0.58205 2.75545,-1.50677 3.75068,-2.055168 0.99526,-0.548381 2.37048,-1.222219 3.05615,-1.497071 2.30656,-0.92456 4.96975,-2.06729 6.44612,-2.765718 0.80635,-0.381471 1.65275,-0.693492 1.88103,-0.693492 0.22823,0 1.33607,-0.487738 2.46187,-1.084188 1.12575,-0.596451 2.6193,-1.254731 3.31864,-1.462432 0.69938,-0.207669 1.34377,-0.4944 1.43195,-0.637169 0.0883,-0.14274 0.51372,-0.442251 0.94568,-0.665581 0.36322,-0.187859 0.59063,-0.278559 0.91726,-0.25477 z m -69.231429,2.112539 c 0.244681,0.009 0.438091,0.12618 0.77258,0.35914 0.84069,0.58555 5.97839,3.07861 6.92721,3.361561 0.36381,0.108511 1.971151,0.846161 3.57188,1.63917 9.263751,4.589576 12.820071,6.455386 15.603189,8.185016 1.01486,0.63075 1.99713,1.1467 2.18282,1.1467 0.8274,0 0.20121,0.74598 -1.3157,1.56631 -0.9095,0.49186 -1.83224,1.04321 -2.05052,1.22526 -0.218278,0.18206 -1.111247,0.6314 -1.984367,0.99892 -0.87313,0.36749 -2.420972,1.14677 -3.439591,1.73166 -3.288951,1.88841 -4.97006,2.73055 -6.202201,3.10729 -1.177928,0.36018 -2.188898,0.8438 -5.96863,2.85359 -1.018648,0.54164 -2.090208,1.02687 -2.38125,1.07849 -0.822269,0.14569 -4.3302,1.66582 -5.115959,2.21692 -0.97594,0.68445 -2.429531,0.89135 -3.086121,0.43923 -0.549379,-0.37827 -6.82692,-2.51767 -7.38767,-2.51767 -0.175318,0 -0.906759,-0.28138 -1.625229,-0.62579 -0.71845,-0.34441 -1.60351,-0.71845 -1.96731,-0.83096 -1.891159,-0.58496 -10.75606,-4.32421 -12.44008,-5.24722 -0.65225,-0.35754 -2.25753,-0.97891 -3.56721,-1.38131 -1.30969,-0.40239 -3.1033,-1.00494 -3.98582,-1.33894 -0.88249,-0.33397 -2.668431,-0.8964 -3.96875,-1.25005 -1.30029,-0.35364 -3.19762,-0.95926 -4.21627,-1.34566 -1.01864,-0.38639 -2.38786,-0.87832 -3.04271,-1.09295 -0.65484,-0.21463 -1.47854,-0.55183 -1.83038,-0.74931 -0.6141,-0.34468 -0.61942,-0.36987 -0.12764,-0.63305 0.28176,-0.15079 0.9864,-0.35991 1.56581,-0.46455 0.57941,-0.10468 1.17274,-0.28275 1.31826,-0.39584 0.14552,-0.11311 0.92898,-0.32797 1.74148,-0.47751 0.81251,-0.14954 2.36035,-0.58528 3.439589,-0.9684 3.946711,-1.4011 10.449661,-3.10692 15.588721,-4.089155 2.162411,-0.413311 5.298279,-1.074692 6.35,-1.33945 0.509321,-0.128202 1.477111,-0.35219 2.150769,-0.497131 0.67365,-0.144971 1.923812,-0.515361 2.77812,-0.82322 0.854321,-0.307871 2.19597,-0.723931 2.98173,-0.925009 0.785762,-0.20106 2.03591,-0.598991 2.778122,-0.88419 0.742238,-0.285142 1.88558,-0.697281 2.540418,-0.915702 0.654852,-0.218408 1.70466,-0.589428 2.33321,-0.82423 0.53885,-0.201369 0.83481,-0.300829 1.0795,-0.29196 z m 33.239839,17.095067 c 0.71673,-0.0529 1.44436,1.05283 2.62567,3.28507 0.53906,1.01864 1.33093,2.49428 1.76011,3.27887 0.42913,0.78458 1.20767,2.45146 1.72961,3.70418 0.52195,1.25268 1.28072,2.93221 1.68672,3.73257 0.40598,0.80037 0.92792,2.10095 1.15962,2.88975 0.23169,0.78881 0.61396,1.72818 0.84955,2.08773 0.45558,0.69532 2.06481,4.94265 2.62517,6.92877 0.18475,0.65484 0.58044,1.75353 0.87902,2.44121 0.29858,0.68767 0.71313,1.82417 0.92139,2.52542 0.36832,1.24028 0.35425,1.33919 -0.51316,3.64421 -0.49041,1.3032 -1.089,3.02421 -1.33067,3.82458 -0.24167,0.80036 -0.78566,2.46724 -1.2087,3.70416 -0.42307,1.23693 -1.06608,3.38006 -1.42885,4.7625 -0.87181,3.3223 -1.33665,4.73398 -1.96371,5.96398 -0.28552,0.56001 -0.58921,1.44158 -0.67541,1.95905 -0.0862,0.5175 -0.32345,1.4763 -0.5271,2.13114 -0.20365,0.65484 -0.54927,2.14313 -0.76793,3.30729 -0.38941,2.07354 -1.10495,4.59301 -3.49382,12.30313 -1.10114,3.55393 -3.19603,9.85181 -3.87884,11.66079 -0.16087,0.42617 -0.38148,0.77462 -0.49041,0.77462 -0.21741,0 -1.19901,-3.1229 -2.06499,-6.57013 -0.30459,-1.21251 -0.83923,-3.11751 -1.18803,-4.23333 -0.3488,-1.1158 -0.94978,-3.45758 -1.33586,-5.20383 -0.38603,-1.74625 -1.056507,-4.30609 -1.489807,-5.68854 -0.43329,-1.38245 -0.95531,-3.04932 -1.160151,-3.70417 -0.20484,-0.65484 -0.48038,-1.84546 -0.612349,-2.64583 -0.318061,-1.92886 -1.07842,-4.93305 -1.540991,-6.08904 -0.204629,-0.51136 -0.533051,-1.64245 -0.729689,-2.51354 -0.196641,-0.87109 -0.61172,-2.53638 -0.92242,-3.70054 -0.70204,-2.63062 -1.199861,-4.79822 -1.884122,-8.20209 -0.292549,-1.45521 -0.708718,-3.03985 -0.92448,-3.52173 -0.380098,-0.84887 -0.355148,-0.95597 0.803561,-3.43959 0.657759,-1.40991 1.486561,-3.09946 1.84124,-3.7543 0.853091,-1.57504 2.218629,-4.35859 3.5393,-7.21352 0.58997,-1.27535 1.317971,-2.66293 1.61748,-3.08354 0.299511,-0.4206 0.544168,-0.92503 0.543638,-1.12085 -5.3e-4,-0.19582 0.88016,-2.14199 1.95749,-4.3248 1.07736,-2.18281 2.44137,-4.98666 3.03083,-6.23115 1.13845,-2.4036 1.84436,-3.61556 2.56109,-3.6685 z m -16.971057,29.18322 c 0.0949,0.004 0.162258,0.10994 0.162258,0.28009 0,0.22686 -0.11906,0.41238 -0.264578,0.41238 -0.145492,0 -0.264581,-0.1116 -0.264581,-0.24857 0,-0.1369 0.119089,-0.32298 0.264581,-0.41289 0.0364,-0.0225 0.0707,-0.0324 0.10232,-0.031 z m 33.753997,3.6525 c 0.11171,-0.004 0.26609,0.0216 0.47337,0.0744 0.75869,0.19326 2.95015,0.45342 7.87135,0.93483 1.6007,0.15658 4.56499,0.45384 6.5877,0.66093 2.02272,0.20709 4.2254,0.4015 4.8948,0.43151 0.66942,0.03 1.6761,0.21238 2.23707,0.40513 0.561,0.19264 1.2926,0.28194 1.62523,0.19844 0.33266,-0.0835 0.65731,-0.0527 0.72192,0.0682 0.0646,0.12091 -0.0289,1.8865 -0.20773,3.92379 -0.72239,8.22804 -0.9271,10.34987 -1.06299,11.02 -0.0782,0.38571 -0.18727,1.45728 -0.24235,2.38125 -0.0841,1.41105 -0.58233,6.85824 -1.06093,11.60188 -0.0661,0.65484 -0.2413,3.27422 -0.38965,5.82083 -0.14833,2.54662 -0.47128,6.60686 -0.71726,9.02272 l -0.44701,4.39248 -1.15756,0.61444 c -1.77122,0.93964 -2.17876,2.05774 -1.51513,4.16046 0.2101,0.6657 0.5965,0.61363 -5.32993,0.71986 -1.47307,0.0264 -3.02085,0.17518 -3.43958,0.33073 -0.41868,0.15557 -1.42507,0.41846 -2.23602,0.58393 -1.49508,0.30507 -2.10233,0.67167 -4.11552,2.48409 -1.47743,1.33006 -3.39206,5.23833 -3.65299,7.45692 -0.10271,0.87312 -0.22138,1.82562 -0.26408,2.11666 -0.10869,0.74015 0.32239,1.19063 1.13945,1.19063 0.53935,0 1.10196,-0.4689 2.50579,-2.08825 2.46915,-2.84816 3.55748,-3.32386 8.25429,-3.60702 2.74648,-0.16557 7.80788,0.28912 11.85251,1.06456 1.14059,0.21865 2.50981,0.40568 3.04271,0.41597 0.5329,0.0102 1.20705,0.11438 1.4981,0.23101 0.45129,0.18084 0.30868,0.31724 -0.96946,0.92758 -0.82423,0.39359 -1.70625,0.94432 -1.95956,1.22422 -0.25331,0.27993 -0.60405,0.50901 -0.77981,0.50901 -0.27715,0 -5.11103,3.63786 -6.60992,4.97438 -0.29105,0.2595 -1.20883,0.91612 -2.03915,1.45933 -0.83034,0.54322 -1.58263,1.10546 -1.67174,1.24955 -0.089,0.14404 -0.60002,0.50308 -1.13586,0.79788 -1.00761,0.55438 -2.06219,1.2592 -3.8845,2.59622 -0.58209,0.42707 -1.89175,1.22735 -2.91042,1.77819 -1.01865,0.55086 -2.14974,1.22272 -2.51354,1.49294 -1.45042,1.07733 -3.42207,2.30105 -5.36713,3.33158 -1.12493,0.596 -2.31225,1.27246 -2.63858,1.50325 -0.32637,0.23083 -1.69135,1.07421 -3.03342,1.87378 -1.34205,0.79963 -2.84848,1.62441 -3.34759,1.83298 l -0.90744,0.37878 -0.43305,-1.08209 c -0.2382,-0.59526 -0.71151,-1.45524 -1.05161,-1.91101 -0.34012,-0.45577 -0.75843,-1.26653 -0.92967,-1.80144 -0.17123,-0.53488 -0.71641,-1.50262 -1.21128,-2.15077 -0.49491,-0.64813 -0.83958,-1.23836 -0.76637,-1.31154 0.0732,-0.0732 -0.16679,-0.57433 -0.53279,-1.11363 -0.52292,-0.77065 -0.65739,-1.28159 -0.62839,-2.38538 0.0342,-1.29863 0.0996,-1.43465 0.86662,-1.80041 0.88318,-0.42119 1.45986,-1.72617 1.45986,-3.30523 0,-1.22169 -0.20767,-1.55805 -1.58956,-2.57246 l -1.27071,-0.93224 0.12557,-2.17868 c 0.069,-1.1984 0.37108,-3.25075 0.67127,-4.56044 0.40124,-1.75048 0.57243,-3.57269 0.64543,-6.87916 0.10281,-4.65588 0.40928,-7.1514 1.02422,-8.34057 0.41879,-0.80981 2.55397,-7.20548 3.04531,-9.12193 0.18655,-0.72764 0.48638,-1.62055 0.66661,-1.98438 0.18026,-0.3638 0.57084,-1.5544 0.86818,-2.64583 0.29731,-1.09141 0.83897,-3.05597 1.20354,-4.36563 0.36457,-1.30969 0.74385,-2.85747 0.84283,-3.43958 0.33134,-1.94863 2.55614,-9.51545 3.03392,-10.31875 0.61828,-1.03939 1.31673,-3.44157 1.31673,-4.52996 0,-0.47432 0.11906,-0.93639 0.26458,-1.02629 0.14552,-0.0899 0.26458,-0.40651 0.26458,-0.70332 0,-0.29686 0.17135,-0.9145 0.38087,-1.37305 0.2095,-0.45855 0.69321,-1.90564 1.07484,-3.2153 0.62881,-2.15789 1.33417,-4.23259 2.01076,-5.91333 0.13764,-0.342 0.48554,-0.68342 0.77306,-0.75861 0.28755,-0.0752 0.52297,-0.31502 0.52297,-0.5333 0,-0.18843 0.0681,-0.27876 0.25424,-0.28577 z m 20.9667,52.15702 c 0.58346,0.0169 1.78813,0.43209 2.11304,0.82063 0.65071,0.77819 0.58846,1.27299 -0.26355,2.08928 -0.88157,0.84458 -1.72538,0.89818 -2.89595,0.18447 -1.1481,-0.70004 -1.17758,-1.69881 -0.0682,-2.33008 0.43564,-0.24789 0.79296,-0.53253 0.79375,-0.63251 7.9e-4,-0.0986 0.12642,-0.13743 0.32092,-0.13179 z m -84.484769,0.48059 c 0.203761,-0.019 0.362982,0.10432 0.466121,0.37311 0.139169,0.36269 0.211109,0.35915 0.643359,-0.032 1.03709,-0.9385 2.003581,0.31327 1.03664,1.34255 -0.745149,0.79314 -1.75242,1.13437 -2.776059,0.94051 -1.01473,-0.19219 -1.141129,-0.85441 -0.353459,-1.85158 0.38576,-0.48839 0.72141,-0.74813 0.983398,-0.77255 z m -0.266139,8.43618 c 0.215421,0.006 1.309129,3.55021 1.50894,4.89014 0.0868,0.58208 0.3859,1.72418 0.66458,2.53783 0.278659,0.81365 0.664819,2.62027 0.857811,4.01473 0.436848,3.15643 0.921089,4.01566 2.135288,3.78788 0.68091,-0.12774 1.099981,0.003 2.027772,0.63151 0.64325,0.43593 1.731698,0.98174 2.418448,1.21283 0.686781,0.23108 1.621602,0.76845 2.077402,1.19425 0.45583,0.42579 0.93589,0.70815 1.066618,0.62735 0.130701,-0.0808 0.237701,-0.0255 0.237701,0.12298 0,0.14851 -0.506021,0.39724 -1.124479,0.55242 -0.618461,0.15523 -2.13651,0.64844 -3.37344,1.09606 -1.236932,0.44763 -2.55524,0.83146 -2.929541,0.85268 -0.374279,0.0212 -0.88882,0.24638 -1.143079,0.50075 -0.373282,0.37343 -0.570151,0.40518 -1.02217,0.16327 -0.482201,-0.25805 -0.660432,-0.18754 -1.284661,0.5111 -0.44436,0.49731 -0.674081,1.00385 -0.59428,1.30894 0.0716,0.27371 -0.116261,1.14496 -0.417031,1.93633 -0.300779,0.79137 -0.546659,1.81869 -0.546738,2.28306 -8.2e-5,0.46435 -0.10324,0.90776 -0.22892,0.98547 -0.125672,0.0777 -0.236482,0.5906 -0.245481,1.13998 -0.009,0.54938 -0.323371,1.58475 -0.697621,2.30064 -0.374229,0.7159 -0.680059,1.57908 -0.680059,1.91822 0,0.33915 -0.11906,0.61651 -0.264591,0.61651 -0.265848,0 -0.361339,-0.20558 -0.28784,-0.6201 0.0408,-0.23019 -1.03296,-3.135 -1.677929,-4.53928 -0.44222,-0.96281 -0.67305,-1.60088 -0.957051,-2.64583 -0.118639,-0.43656 -0.390369,-1.41412 -0.6041,-2.17247 -0.33266,-1.18028 -0.33552,-1.42271 -0.0186,-1.68568 0.203631,-0.16899 0.37052,-0.52234 0.37052,-0.78497 0,-0.49247 -1.740318,-2.10375 -2.27221,-2.10375 -0.530069,0 -6.545099,-3.0353 -6.652309,-3.3569 -0.10343,-0.31025 3.65903,-2.0233 6.37016,-2.9006 l 2.26962,-0.73433 1.2051,-3.71398 c 0.662779,-2.04259 1.365459,-4.01164 1.561669,-4.37544 0.19622,-0.36381 0.746,-1.76279 1.222142,-3.10886 0.476149,-1.34606 0.939168,-2.44575 1.028359,-2.44274 z m 43.555998,13.27 c 0.11448,-7.9e-4 0.24905,0.018 0.41497,0.0511 1.84589,0.36917 2.67377,1.69264 1.63348,2.61173 -0.25466,0.225 -0.96038,0.49064 -1.56786,0.59015 -0.94205,0.15436 -1.14639,0.10258 -1.38907,-0.35089 -0.38928,-0.72734 -0.35782,-1.24492 0.13386,-2.19572 0.27019,-0.5225 0.43119,-0.70409 0.77462,-0.70641 z" />
  </g>
</svg>
