<svg xmlns="http://www.w3.org/2000/svg" xmlns:xlink="http://www.w3.org/1999/xlink" width="400" height="69" viewBox="0 0 400 69">
  <defs>
    <clipPath id="clip-path">
      <rect id="Rectangle_23" data-name="Rectangle 23" width="41" height="13" fill="none" stroke="rgba(0,0,0,0)" stroke-width="1"/>
    </clipPath>
  </defs>
  <g id="Name_Tool" data-name="Name Tool" transform="translate(-876 -149)">
    <g id="NameTool" transform="translate(876 149)" fill="#515151" stroke="#707070" stroke-width="1">
      <rect width="400" height="69" rx="15" stroke="none"/>
      <rect x="0.5" y="0.5" width="399" height="68" rx="14.5" fill="none"/>
    </g>
    <g id="Form" transform="translate(886 187)" fill="#515151">
      <path d="M 374.875244140625 20.5 L 5.124750137329102 20.5 C 2.574650049209595 20.5 0.5 18.48130035400391 0.5 16 L 0.5 5 C 0.5 2.518699884414673 2.574650049209595 0.5 5.124750137329102 0.5 L 374.875244140625 0.5 C 377.4253540039063 0.5 379.5 2.518699884414673 379.5 5 L 379.5 16 C 379.5 18.48130035400391 377.4253540039063 20.5 374.875244140625 20.5 Z" stroke="none"/>
      <path d="M 5.124755859375 1 C 2.850341796875 1 1 2.794399261474609 1 5 L 1 16 C 1 18.20560073852539 2.850341796875 20 5.124755859375 20 L 374.875244140625 20 C 377.149658203125 20 379 18.20560073852539 379 16 L 379 5 C 379 2.794399261474609 377.149658203125 1 374.875244140625 1 L 5.124755859375 1 M 5.124755859375 0 L 374.875244140625 0 C 377.7055358886719 0 380 2.23859977722168 380 5 L 380 16 C 380 18.76140022277832 377.7055358886719 21 374.875244140625 21 L 5.124755859375 21 C 2.294464111328125 21 0 18.76140022277832 0 16 L 0 5 C 0 2.23859977722168 2.294464111328125 0 5.124755859375 0 Z" stroke="none" fill="#a9a9a9"/>
    </g>
    <g id="Name" transform="translate(886.813 159)" clip-path="url(#clip-path)">
      <text id="Name-2" data-name="Name" transform="translate(-1 12)" fill="#a9a9a9" font-size="16" font-family="Tahoma"><tspan x="0" y="0">Name</tspan></text>
    </g>
  </g>
</svg>
