<svg xmlns="http://www.w3.org/2000/svg" xmlns:xlink="http://www.w3.org/1999/xlink" width="400" height="150" viewBox="0 0 400 150">
  <defs>
    <clipPath id="clip-path">
      <rect id="Rectangle_21" data-name="Rectangle 21" width="44" height="16" fill="none" stroke="rgba(0,0,0,0)" stroke-width="1"/>
    </clipPath>
  </defs>
  <g id="Range_Tool" data-name="Range Tool" transform="translate(-876 -385)">
    <g id="Range_Tool-2" data-name="Range Tool">
      <g id="RangeTool" transform="translate(876 385)" fill="#515151" stroke="#707070" stroke-width="1">
        <rect width="400" height="150" rx="15" stroke="none"/>
        <rect x="0.5" y="0.5" width="399" height="149" rx="14.5" fill="none"/>
      </g>
      <g id="Mask_Group_1" data-name="Mask Group 1" transform="translate(886 395)" clip-path="url(#clip-path)">
        <text id="Range" transform="translate(-0.5 12.457)" fill="#a9a9a9" font-size="16" font-family="Tahoma"><tspan x="0" y="0">Range</tspan></text>
      </g>
      <g id="rangeDisplay" transform="translate(886 425)" fill="#515151" stroke="#a9a9a9" stroke-width="1">
        <rect width="241" height="100" rx="5" stroke="none"/>
        <rect x="0.5" y="0.5" width="240" height="99" rx="4.5" fill="none"/>
      </g>
      <g id="right" transform="translate(1266 460) rotate(90)">
        <g id="directionButton" fill="#515151" stroke="#888" stroke-width="1">
          <rect width="30" height="30" rx="5" stroke="none"/>
          <rect x="0.5" y="0.5" width="29" height="29" rx="4.5" fill="none"/>
        </g>
        <g id="right-2" data-name="right" transform="translate(13 2)">
          <g id="Group_7" data-name="Group 7">
            <path id="Polygon_1" data-name="Polygon 1" d="M2.5,0,5,5H0Z" fill="#fff"/>
            <rect id="Rectangle_20" data-name="Rectangle 20" width="1" height="25" transform="translate(2 1)" fill="#fff"/>
          </g>
        </g>
      </g>
      <g id="downRight" transform="translate(1266 495) rotate(90)">
        <g id="directionButton-2" data-name="directionButton" fill="#515151" stroke="#888" stroke-width="1">
          <rect width="30" height="30" rx="5" stroke="none"/>
          <rect x="0.5" y="0.5" width="29" height="29" rx="4.5" fill="none"/>
        </g>
        <g id="arrow" transform="translate(22.925 4.04) rotate(45)">
          <path id="Polygon_1-2" data-name="Polygon 1" d="M2.5,0,5,5H0Z" fill="#fff"/>
          <rect id="Rectangle_20-2" data-name="Rectangle 20" width="1" height="25" transform="translate(2 1)" fill="#fff"/>
        </g>
      </g>
      <g id="down" transform="translate(1231 525) rotate(180)">
        <g id="directionButton-3" data-name="directionButton" fill="#515151" stroke="#888" stroke-width="1">
          <rect width="30" height="30" rx="5" stroke="none"/>
          <rect x="0.5" y="0.5" width="29" height="29" rx="4.5" fill="none"/>
        </g>
        <g id="arrow-2" data-name="arrow" transform="translate(13 2)">
          <g id="Group_7-2" data-name="Group 7">
            <path id="Polygon_1-3" data-name="Polygon 1" d="M2.5,0,5,5H0Z" fill="#fff"/>
            <rect id="Rectangle_20-3" data-name="Rectangle 20" width="1" height="25" transform="translate(2 1)" fill="#fff"/>
          </g>
        </g>
      </g>
      <g id="Left" transform="translate(1166 490) rotate(-90)">
        <g id="directionButton-4" data-name="directionButton" fill="#515151" stroke="#888" stroke-width="1">
          <rect width="30" height="30" rx="5" stroke="none"/>
          <rect x="0.5" y="0.5" width="29" height="29" rx="4.5" fill="none"/>
        </g>
        <g id="left-2" data-name="left" transform="translate(13 2)">
          <g id="Group_7-3" data-name="Group 7">
            <path id="Polygon_1-4" data-name="Polygon 1" d="M2.5,0,5,5H0Z" fill="#fff"/>
            <rect id="Rectangle_20-4" data-name="Rectangle 20" width="1" height="25" transform="translate(2 1)" fill="#fff"/>
          </g>
        </g>
      </g>
      <g id="downLeft" transform="translate(1196 525) rotate(180)">
        <g id="directionButton-5" data-name="directionButton" fill="#515151" stroke="#888" stroke-width="1">
          <rect width="30" height="30" rx="5" stroke="none"/>
          <rect x="0.5" y="0.5" width="29" height="29" rx="4.5" fill="none"/>
        </g>
        <g id="arrow-3" data-name="arrow" transform="translate(22.925 4.04) rotate(45)">
          <path id="Polygon_1-5" data-name="Polygon 1" d="M2.5,0,5,5H0Z" fill="#fff"/>
          <rect id="Rectangle_20-5" data-name="Rectangle 20" width="1" height="25" transform="translate(2 1)" fill="#fff"/>
        </g>
      </g>
      <g id="up" transform="translate(1201 425)">
        <g id="directionButton-6" data-name="directionButton" fill="#515151" stroke="#888" stroke-width="1">
          <rect width="30" height="30" rx="5" stroke="none"/>
          <rect x="0.5" y="0.5" width="29" height="29" rx="4.5" fill="none"/>
        </g>
        <g id="arrow-4" data-name="arrow" transform="translate(13 2)">
          <g id="Group_7-4" data-name="Group 7">
            <path id="Polygon_1-6" data-name="Polygon 1" d="M2.5,0,5,5H0Z" fill="#fff"/>
            <rect id="Rectangle_20-6" data-name="Rectangle 20" width="1" height="25" transform="translate(2 1)" fill="#fff"/>
          </g>
        </g>
      </g>
      <g id="upRight" transform="translate(1236 425)">
        <g id="directionButton-7" data-name="directionButton" fill="#515151" stroke="#888" stroke-width="1">
          <rect width="30" height="30" rx="5" stroke="none"/>
          <rect x="0.5" y="0.5" width="29" height="29" rx="4.5" fill="none"/>
        </g>
        <g id="arrow-5" data-name="arrow" transform="translate(22.925 4.04) rotate(45)">
          <path id="Polygon_1-7" data-name="Polygon 1" d="M2.5,0,5,5H0Z" fill="#fff"/>
          <rect id="Rectangle_20-7" data-name="Rectangle 20" width="1" height="25" transform="translate(2 1)" fill="#fff"/>
        </g>
      </g>
      <g id="upLeft" transform="translate(1166 455) rotate(-90)">
        <g id="directionButton-8" data-name="directionButton" fill="#515151" stroke="#888" stroke-width="1">
          <rect width="30" height="30" rx="5" stroke="none"/>
          <rect x="0.5" y="0.5" width="29" height="29" rx="4.5" fill="none"/>
        </g>
        <g id="Group_8" data-name="Group 8" transform="translate(4.54 4.039)">
          <g id="arrow-6" data-name="arrow" transform="translate(18.385 0) rotate(45)">
            <path id="Union_1" data-name="Union 1" d="M2,26V5H0L2.5,0,5,5H3V26Z" transform="translate(0 0)" fill="#fff"/>
          </g>
        </g>
      </g>
    </g>
    <rect id="Rectangle_26" data-name="Rectangle 26" width="238" height="13" transform="translate(887 450)" fill="#5d5d5d"/>
    <rect id="Rectangle_27" data-name="Rectangle 27" width="238" height="13" transform="translate(887 476)" fill="#5d5d5d"/>
    <rect id="Rectangle_28" data-name="Rectangle 28" width="238" height="13" transform="translate(887 502)" fill="#5d5d5d"/>
    <g id="Rectangle_29" data-name="Rectangle 29" transform="translate(1046 428)" fill="#515151" stroke="#a9a9a9" stroke-width="1" opacity="0.8">
      <rect width="9" height="9" rx="3" stroke="none"/>
      <rect x="0.5" y="0.5" width="8" height="8" rx="2.5" fill="none"/>
    </g>
    <g id="Rectangle_30" data-name="Rectangle 30" transform="translate(953 428)" fill="#515151" stroke="#a9a9a9" stroke-width="1" opacity="0.8">
      <rect width="9" height="9" rx="3" stroke="none"/>
      <rect x="0.5" y="0.5" width="8" height="8" rx="2.5" fill="none"/>
    </g>
    <text id="span_text_squares" data-name="span text squares" transform="translate(917 435)" fill="#a9a9a9" font-size="8" font-family="SegoeUI, Segoe UI"><tspan x="-30.709" y="0">span text squares</tspan></text>
    <text id="offset_text_squares" data-name="offset text squares" transform="translate(1010 435)" fill="#a9a9a9" font-size="8" font-family="SegoeUI, Segoe UI"><tspan x="-32.354" y="0">offset text squares</tspan></text>
  </g>
</svg>
