<?xml version="1.0" encoding="UTF-8" standalone="no"?>
<svg
   xmlns:dc="http://purl.org/dc/elements/1.1/"
   xmlns:cc="http://creativecommons.org/ns#"
   xmlns:rdf="http://www.w3.org/1999/02/22-rdf-syntax-ns#"
   xmlns:svg="http://www.w3.org/2000/svg"
   xmlns="http://www.w3.org/2000/svg"
   xmlns:sodipodi="http://sodipodi.sourceforge.net/DTD/sodipodi-0.dtd"
   xmlns:inkscape="http://www.inkscape.org/namespaces/inkscape"
   sodipodi:docname="ComingSoon.svg"
   inkscape:version="1.0 (4035a4fb49, 2020-05-01)"
   id="svg8"
   version="1.1"
   viewBox="0 0 121 22"
   height="22mm"
   width="121mm">
  <defs
     id="defs2" />
  <sodipodi:namedview
     inkscape:window-maximized="0"
     inkscape:window-y="0"
     inkscape:window-x="32"
     inkscape:window-height="1030"
     inkscape:window-width="1424"
     showgrid="false"
     inkscape:document-rotation="0"
     inkscape:current-layer="layer1"
     inkscape:document-units="mm"
     inkscape:cy="568.46554"
     inkscape:cx="449.0143"
     inkscape:zoom="0.7"
     inkscape:pageshadow="2"
     inkscape:pageopacity="0.0"
     borderopacity="1.0"
     bordercolor="#666666"
     pagecolor="#ffffff"
     id="base" />
  <metadata
     id="metadata5">
    <rdf:RDF>
      <cc:Work
         rdf:about="">
        <dc:format>image/svg+xml</dc:format>
        <dc:type
           rdf:resource="http://purl.org/dc/dcmitype/StillImage" />
        <dc:title></dc:title>
      </cc:Work>
    </rdf:RDF>
  </metadata>
  <g
     id="layer1"
     inkscape:groupmode="layer"
     inkscape:label="Layer 1">
    <path
       id="path24"
       d="m 59.762029,21.051992 c -1.01162,-0.31126 -1.999254,-1.21756 -1.999254,-1.83461 0,-0.7768 0.48835,-1.44945 1.530884,-2.10863 l 1.00335,-0.6344 -0.88612,-0.58278 c -1.380249,-0.90777 -1.305417,-1.60193 0.22758,-2.11112 0.4585,-0.15229 0.83342,-0.32791 0.83315,-0.39028 -3.4e-4,-0.0624 -0.21581,-0.25763 -0.47898,-0.43393 -1.596803,-1.06969 -1.837392,-3.2414097 -0.52434,-4.7331097 0.78425,-0.89096 1.50889,-1.17981 2.90997,-1.15994 0.782,0.0111 1.19426,0.12575 1.91542,0.53275 0.86126,0.48606 0.99338,0.5117 2.10468,0.40841 l 1.18574,-0.1102 v 0.5559 0.55591 l -0.80954,-0.0959 c -0.44525,-0.0527 -0.9215,-0.1205 -1.05834,-0.15059 -0.16379,-0.036 -0.23408,0.061 -0.20575,0.28396 0.0237,0.18627 0.0871,0.68157 0.14103,1.1006697 0.12636,0.98251 -0.43367,2.08567 -1.40681,2.77114 -0.55347,0.38987 -0.95999,0.5125 -2.06983,0.62438 -1.35172,0.13627 -2.36088,0.52617 -2.50856,0.96922 -0.14184,0.42551 1.36878,0.87856 3.51376,1.05381 1.21157,0.099 2.30267,0.28135 2.63938,0.44112 1.18024,0.56006 1.63242,2.24262 0.91772,3.41483 -0.43661,0.7161 -1.6717,1.49387 -2.73406,1.7217 -1.16092,0.24898 -3.28886,0.20466 -4.24108,-0.0883 z m 4.31704,-0.41111 c 1.74015,-0.53748 2.57402,-1.76877 1.96656,-2.90382 -0.34061,-0.63644 -1.4832,-0.98282 -3.39389,-1.02887 -1.54567,-0.0373 -1.84219,0.003 -2.47247,0.33913 -1.881865,1.00232 -1.51337,3.11628 0.65176,3.73896 0.93308,0.26835 2.07379,0.21729 3.24804,-0.1454 z m -0.83241,-7.80238 c 0.70948,-0.55808 0.95078,-1.19892 0.95078,-2.52505 0,-1.8771797 -0.73122,-2.8786697 -2.10182,-2.8786697 -1.36026,0 -2.02739,0.91939 -2.02739,2.7939997 0,1.31352 0.2789,2.02992 1.016,2.60972 0.59077,0.4647 1.57166,0.4647 2.16243,0 z m 54.892521,3.5875 c -0.30526,-0.11946 -0.29901,-0.13717 0.0847,-0.23979 0.88385,-0.2364 2.12548,-0.0533 1.65613,0.24421 -0.27537,0.17456 -1.29002,0.17198 -1.7408,-0.004 z M 6.422083,15.913612 c -1.242241,-0.17362 -3.256346,-1.14047 -4.096945,-1.96668 -0.362065,-0.35587 -0.895465,-1.14754 -1.185333,-1.75926 -0.49479197,-1.04418 -0.52703297,-1.23135 -0.52703297,-3.0595497 0,-1.83765 0.03038,-2.01147 0.53932397,-3.08582 0.919183,-1.94035 2.506194,-3.36661 4.385647,-3.94141 1.659822,-0.50763 4.891491,-0.31991 6.208696,0.36066 0.435275,0.22489 0.465667,0.31215 0.465667,1.33691 0,0.60298 -0.07263,1.09632 -0.161388,1.09632 -0.08877,0 -0.287726,-0.26623 -0.44214,-0.59163 -0.8797,-1.85383 -3.641266,-2.6405 -5.657855,-1.61172 -2.156546,1.10019 -3.390617,3.42203 -3.390617,6.37926 0,2.4269197 0.821365,4.5796497 2.101037,5.5066397 1.535491,1.1123 3.733577,1.25187 5.511689,0.34997 0.82872,-0.42034 1.851079,-1.45409 2.083487,-2.1067 0.04332,-0.12163 0.143138,-0.16085 0.221827,-0.0872 0.07869,0.0737 -0.0061,0.71883 -0.188485,1.43362 l -0.331555,1.29961 -0.753112,0.21632 c -0.971622,0.27908 -3.54753,0.40328 -4.782911,0.23061 z m 11.402876,-0.0249 c -1.540748,-0.30293 -2.940993,-1.52491 -3.423838,-2.98795 -0.114517,-0.34699 -0.164178,-1.09123 -0.116903,-1.75196 0.181153,-2.5318397 1.897644,-4.0619797 4.587938,-4.0898497 2.768817,-0.0287 4.858421,1.94044 4.852963,4.5731497 -0.003,1.46247 -1.062093,3.08259 -2.501714,3.82704 -0.404441,0.20915 -2.293054,0.64575 -2.565398,0.59306 -0.05275,-0.0102 -0.427618,-0.0838 -0.833048,-0.16349 z m 2.420815,-0.65995 c 1.320609,-0.63929 1.92167,-2.13025 1.745175,-4.32898 C 21.833936,8.9437223 20.9046,7.6702923 19.496236,7.4813923 c -2.063784,-0.27682 -3.406786,0.98933 -3.664476,3.4547697 -0.350254,3.35104 1.879551,5.51952 4.414014,4.2926 z m 55.805005,0.73558 c -0.85292,-0.16408 -2.01095,-0.59552 -2.19561,-0.81802 -0.25002,-0.30125 -0.0385,-3.34804 0.22633,-3.25977 0.10041,0.0335 0.22893,0.28376 0.2856,0.5562 0.35124,1.68876 1.93663,2.99905 3.62871,2.99905 1.70417,0 2.96628,-1.1103 2.965,-2.60837 -10e-4,-1.37022 -0.62899,-1.99661 -3.62122,-3.6129697 -2.52896,-1.36611 -3.32081,-2.31683 -3.32081,-3.98704 0,-1.09909 0.36955,-1.89706 1.16309,-2.51147 0.97655,-0.7561 1.66547,-0.95865 3.23957,-0.95246 1.15388,0.005 1.58207,0.0806 2.159,0.38357 l 0.71967,0.37791 v 1.26656 c 0,1.2732 -0.2044,1.66739 -0.41528,0.80089 -0.18716,-0.76901 -0.87187,-1.66504 -1.5002,-1.9632 -0.3365,-0.15968 -1.00895,-0.28047 -1.56146,-0.28047 -1.60699,0 -2.61906,0.85848 -2.61906,2.2216 0,0.60423 0.0965,0.79984 0.65017,1.31829 0.35759,0.33483 1.5451,1.09299 2.63891,1.68479 1.0938,0.59181 2.26099,1.31505 2.59374,1.60721 1.5797,1.3869897 1.64487,4.0041397 0.13875,5.5718797 -0.8094,0.84251 -1.72473,1.18511 -3.30922,1.23858 -0.79329,0.0268 -1.63285,0.012 -1.86568,-0.0328 z m 11.70885,-0.0757 c -2.62556,-0.51603 -4.14856,-3.10104 -3.40479,-5.77901 0.28312,-1.0193997 1.35407,-2.2243197 2.36263,-2.6581897 1.22658,-0.52766 3.0015,-0.54187 4.15393,-0.0332 2.32995,1.0283 3.40983,3.6738497 2.39189,5.8597797 -0.90576,1.94504 -3.24489,3.05461 -5.50366,2.61067 z m 2.42082,-0.6599 c 1.3206,-0.63929 1.92167,-2.13025 1.74517,-4.32898 -0.15701,-1.9560597 -1.08635,-3.2294897 -2.49471,-3.4183897 -2.06379,-0.27682 -3.40679,0.98933 -3.66448,3.4547697 -0.35025,3.35104 1.87955,5.51952 4.41402,4.2926 z m 8.75518,0.65733 c -2.15188,-0.41543 -3.58495,-2.18786 -3.57713,-4.42423 0.009,-2.6246297 1.84984,-4.3753197 4.628314,-4.4020697 2.202727,-0.0212 3.959927,1.16734 4.607257,3.1162897 1.07996,3.25144 -2.04726,6.40716 -5.658441,5.71001 z m 2.123131,-0.50306 c 1.3922,-0.52488 2.17863,-2.1088 2.04911,-4.12706 -0.1098,-1.7108597 -0.71922,-3.0040797 -1.63607,-3.4718197 -1.597407,-0.81494 -3.252651,-0.24348 -4.137921,1.4286 -0.5401,1.0201197 -0.52634,3.5780997 0.0253,4.6981697 0.67592,1.37252 2.275534,2.00901 3.699611,1.47211 z m 17.04415,0.47929 c 0.25432,-0.16182 1.66225,-0.16229 1.91526,-6.8e-4 0.10709,0.0684 -0.32425,0.1247 -0.95853,0.12505 -0.63429,3.4e-4 -1.06482,-0.0556 -0.95673,-0.12441 z m -93.139456,-0.36889 c 0.03046,-0.0914 0.278934,-0.22595 0.552157,-0.29902 0.849354,-0.22715 0.920496,-0.48255 0.920496,-3.30464 0,-2.3665197 -0.0295,-2.6217997 -0.338667,-2.9309697 -0.186267,-0.18626 -0.452967,-0.33866 -0.592667,-0.33866 -0.1397,0 -0.254,-0.1143 -0.254,-0.254 0,-0.1397 0.117565,-0.254 0.261255,-0.254 0.143689,0 0.635172,-0.34976 1.092183,-0.77724 0.833289,-0.77944 1.231151,-0.86918 1.066776,-0.24061 -0.04839,0.18507 -0.03605,0.61337 0.02744,0.95179 l 0.115431,0.6153 0.454125,-0.42878 c 1.591422,-1.50262 3.837375,-1.66037 4.921076,-0.34565 l 0.505478,0.61323 0.561786,-0.4742 c 1.845318,-1.55764 4.104142,-1.44131 5.002566,0.25763 0.355611,0.67247 0.385419,0.94441 0.387812,3.5381597 0.0014,1.54534 0.05858,2.89352 0.127,2.99598 0.06842,0.10245 0.348244,0.25961 0.621824,0.34925 0.27358,0.0896 0.52758,0.25346 0.564444,0.36405 0.04939,0.14817 -0.497417,0.20109 -2.077861,0.20109 -1.616635,0 -2.127869,-0.0511 -2.075784,-0.20732 0.03801,-0.11402 0.318118,-0.25824 0.622466,-0.32049 0.304349,-0.0622 0.627644,-0.18745 0.718434,-0.27824 0.09869,-0.0987 0.143454,-1.33053 0.111311,-3.06337 l -0.05376,-2.8982897 -0.543695,-0.54325 c -0.473507,-0.47312 -0.653837,-0.54159 -1.396858,-0.53039 -0.849173,0.0128 -1.397766,0.2536 -2.165781,0.95061 -0.365208,0.33144 -0.381,0.45949 -0.381,3.0895197 0,2.98539 -5.08e-4,2.98394 1.004482,3.2434 0.319632,0.0825 0.611732,0.24179 0.649111,0.35393 0.05084,0.15253 -0.532782,0.20389 -2.316815,0.20389 -1.921973,0 -2.384778,-0.0456 -2.384778,-0.23516 0,-0.13775 0.263029,-0.28431 0.635,-0.35382 1.051466,-0.19649 1.058334,-0.21599 1.058334,-3.0045 0,-2.9227597 -0.18337,-3.5694997 -1.123425,-3.9622797 -0.77977,-0.32581 -2.100045,-0.0279 -2.869259,0.64753 l -0.579316,0.50864 v 2.7666197 2.76661 l 0.79084,0.22337 c 1.414262,0.39944 1.024997,0.55799 -1.385627,0.56438 -1.423609,0.004 -2.266998,-0.0567 -2.232533,-0.1601 z m 16.618018,-0.0232 c 0.180784,-0.13533 0.504634,-0.24605 0.719667,-0.24605 0.215033,0 0.54516,-0.1542 0.733616,-0.34265 0.321398,-0.3214 0.339776,-0.52356 0.296334,-3.25967 l -0.04632,-2.9170197 -0.635,-0.31028 c -0.34925,-0.17065 -0.634714,-0.36115 -0.634365,-0.42333 3.39e-4,-0.0622 0.348002,-0.25592 0.772562,-0.43053 0.424559,-0.17461 0.933903,-0.53656 1.131876,-0.80433 0.197973,-0.26777 0.42182,-0.48686 0.497439,-0.48686 0.07562,0 0.137488,1.89956 0.137488,4.2212397 0,4.61972 -10e-4,4.61471 1.012317,4.83728 1.197285,0.26297 0.541571,0.41142 -1.810561,0.40989 -2.227763,-0.002 -2.467524,-0.0288 -2.175058,-0.24769 z m 5.174636,0.0946 c 0,-0.092 0.31075,-0.21702 0.690556,-0.27775 0.913916,-0.14614 1.003326,-0.42137 1.000466,-3.0796 -0.0029,-2.6579597 -0.05003,-2.8450997 -0.777545,-3.0852097 -0.316145,-0.10433 -0.574811,-0.25643 -0.574811,-0.33798 0,-0.0815 0.342956,-0.29998 0.762126,-0.4854 0.494409,-0.2187 0.886922,-0.54864 1.117393,-0.93926 0.499891,-0.84725 0.829815,-0.78982 0.829815,0.14445 v 0.74658 l 1.279112,-0.66191 c 1.506479,-0.77957 2.668214,-0.88666 3.581,-0.3301 0.995652,0.60708 1.123031,1.09898 1.141864,4.4095197 0.0093,1.62983 0.07499,3.05563 0.146047,3.16844 0.07106,0.11281 0.393217,0.25464 0.715917,0.31518 0.334908,0.0628 0.586727,0.21099 0.586727,0.34522 0,0.18867 -0.437959,0.23516 -2.215444,0.23516 -1.693671,0 -2.198877,-0.0497 -2.145093,-0.21106 0.03869,-0.11608 0.33338,-0.25381 0.654861,-0.30606 1.039148,-0.16891 1.020538,-0.10844 0.953034,-3.09692 -0.0676,-2.9927697 -0.227727,-3.5971497 -1.052627,-3.9729997 -0.992639,-0.45227 -2.611561,-0.049 -3.446955,0.85869 -0.392228,0.42616 -0.393513,0.44233 -0.254,3.1921497 l 0.140224,2.76382 0.804333,0.2267 c 0.442383,0.12468 0.804333,0.29846 0.804333,0.38618 0,0.0922 -1.000643,0.1595 -2.370667,0.1595 -1.448655,0 -2.370666,-0.0651 -2.370666,-0.16734 z m 59.266672,0.0181 c 0,-0.0821 0.33508,-0.2336 0.74462,-0.33672 l 0.74462,-0.1875 0.10012,-1.14494 c 0.0551,-0.62971 0.0438,-1.90694 -0.0249,-2.83827 l -0.12508,-1.6933297 -0.55033,-0.24223 c -0.69434,-0.30561 -0.69228,-0.45592 0.0103,-0.74947 0.30833,-0.12883 0.82999,-0.54895 1.15924,-0.9336 0.32925,-0.38465 0.64847,-0.69937 0.70939,-0.69937 0.0609,0 0.11076,0.3429 0.11076,0.762 0,0.4191 0.0585,0.762 0.13002,0.762 0.0715,0 0.41635,-0.19456 0.76631,-0.43236 1.38298,-0.93976 3.13825,-1.19713 4.11255,-0.603 0.94298,0.57503 1.08681,1.16205 1.08971,4.4476197 10e-4,1.61576 0.0586,3.01862 0.127,3.11748 0.0684,0.0989 0.38514,0.2524 0.70381,0.3412 0.31867,0.0888 0.61077,0.25557 0.64911,0.37059 0.053,0.1589 -0.46586,0.20914 -2.15985,0.20914 -1.70494,0 -2.213,-0.0497 -2.1592,-0.21106 0.0387,-0.11608 0.35778,-0.25777 0.70908,-0.31488 0.75769,-0.12316 0.98319,-0.40085 0.86205,-1.06156 -0.0491,-0.26776 -0.0893,-1.50481 -0.0893,-2.749 0,-2.2601497 -5.1e-4,-2.2626497 -0.49411,-2.8151597 -0.45242,-0.50635 -0.57856,-0.55301 -1.49495,-0.55301 -0.81947,0 -1.15185,0.0933 -1.83422,0.51497 l -0.83339,0.51497 -0.0502,2.4483597 c -0.0543,2.64876 0.0355,3.5485 0.35419,3.54998 0.4418,0.002 1.47399,0.36269 1.47399,0.51501 0,0.0946 -0.98106,0.16138 -2.37066,0.16138 -1.30387,0 -2.37067,-0.0672 -2.37067,-0.14924 z m 12.15138,-0.0888 c 0.33938,-0.18992 1.72059,-0.18175 1.91367,0.0113 0.0781,0.0781 -0.38216,0.14202 -1.02282,0.14202 -0.78437,0 -1.07535,-0.0501 -0.89085,-0.15334 z m -0.43351,-0.47319 c -0.38744,-0.38743 -0.24166,-0.8128 0.27855,-0.8128 0.51991,0 1.14557,0.54249 0.96417,0.83599 -0.1508,0.24401 -0.99121,0.22832 -1.24272,-0.0232 z m 1.5682,0.0232 c -0.0612,-0.099 0.0256,-0.33121 0.19284,-0.51601 0.40023,-0.44225 1.08642,-0.35922 1.27487,0.15427 0.0851,0.2319 0.0801,0.35072 -0.0124,0.29357 -0.0854,-0.0528 -0.20321,-0.0186 -0.26171,0.0761 -0.14064,0.22757 -1.05183,0.22153 -1.19363,-0.008 z m -0.46677,-0.74694 c -0.2456,-0.17959 -0.24833,-0.24057 -0.025,-0.55935 0.13784,-0.19679 0.23017,-0.41912 0.20518,-0.49408 -0.025,-0.075 0.0307,-0.17439 0.12368,-0.22096 0.093,-0.0466 0.16921,0.0652 0.16933,0.24846 1.3e-4,0.18322 0.16383,0.41494 0.36378,0.51492 0.36062,0.18032 0.35982,0.18394 -0.0989,0.44718 -0.36493,0.20944 -0.52052,0.2229 -0.73806,0.0638 z m 0.15825,-2.07872 c -0.0484,-0.25612 -0.13703,-1.64677 -0.19693,-3.0903297 -0.0599,-1.44357 -0.20967,-3.40588 -0.33282,-4.36068 -0.29852,-2.31446 -0.14074,-2.92066 0.7602,-2.92066 0.98069,0 1.04995,0.51284 0.61155,4.52812 -0.13992,1.28144 -0.30417,3.22523 -0.36501,4.3195497 -0.10637,1.91335 -0.29155,2.505 -0.47699,1.524 z M 42.873157,4.2282823 c -0.371483,-0.23508 0.847408,-0.41227 1.809747,-0.26308 0.637804,0.0989 0.733464,0.15265 0.464537,0.26115 -0.465716,0.1879 -1.978391,0.18918 -2.274284,0.002 z m -0.350383,-0.46996 c 0,-0.0197 0.316904,-0.12114 0.704232,-0.22544 0.481371,-0.12962 0.910069,-0.13738 1.354667,-0.0245 0.357739,0.0908 0.650435,0.10589 0.650435,0.0335 0,-0.32894 -1.555562,-0.44879 -2.274977,-0.17527 -0.245874,0.0935 -0.434357,0.0993 -0.434357,0.0135 0,-0.23383 0.88445,-0.37456 1.986753,-0.31613 0.892715,0.0473 0.99061,0.0884 0.932991,0.39153 -0.05832,0.3068 -0.19872,0.33867 -1.492059,0.33867 -0.785226,0 -1.427685,-0.0161 -1.427685,-0.0358 z m 2.159,-0.85516 c -0.939486,-0.12683 -0.287165,-1.30476 0.66236,-1.19606 0.377794,0.0433 0.48064,0.14119 0.48064,0.45771 0,0.49125 -0.513975,0.82327 -1.143,0.73835 z m -2.284875,-0.25203 c -0.25321,-0.32028 -0.359629,-1.13692 -0.163919,-1.25788 0.09895,-0.0611 0.121155,-0.0232 0.05196,0.0887 -0.08089,0.13089 0.04416,0.1955 0.378411,0.1955 0.635785,0 1.309165,0.52398 1.162971,0.90496 -0.129516,0.33752 -1.177097,0.38787 -1.429427,0.0687 z m 1.057209,-1.00376 c -0.2794,-0.1892 -0.382159,-0.3032 -0.228353,-0.25334 0.297667,0.0965 0.564901,-0.41879999 0.632153,-1.21896999 0.01568,-0.18648 0.06936,-0.19105 0.271669,-0.0232 0.138673,0.11509 0.215278,0.26889 0.170232,0.34178 -0.14752,0.23869 0.33718,0.95837999 0.596497,0.88567999 0.138125,-0.0387 0.0017,0.0887 -0.303291,0.28318 -0.304934,0.19447 -0.571634,0.34801 -0.592667,0.3412 -0.02103,-0.007 -0.26684,-0.16718 -0.54624,-0.35638 z m 2.286,-0.13924 c -0.152619,-0.0986 -0.173504,-0.16519 -0.05233,-0.16674 0.11092,-0.001 0.248768,0.0736 0.306328,0.16674 0.129929,0.21023 0.07131,0.21023 -0.254,0 z"
       style="fill:#000000;stroke-width:0.169333" />
  </g>
</svg>
