<?xml version="1.0" encoding="UTF-8" standalone="no"?>
<svg
   xmlns:dc="http://purl.org/dc/elements/1.1/"
   xmlns:cc="http://creativecommons.org/ns#"
   xmlns:rdf="http://www.w3.org/1999/02/22-rdf-syntax-ns#"
   xmlns:svg="http://www.w3.org/2000/svg"
   xmlns="http://www.w3.org/2000/svg"
   xmlns:sodipodi="http://sodipodi.sourceforge.net/DTD/sodipodi-0.dtd"
   xmlns:inkscape="http://www.inkscape.org/namespaces/inkscape"
   sodipodi:docname="Custom-NBA.svg"
   inkscape:version="1.0 (4035a4fb49, 2020-05-01)"
   id="svg2100"
   version="1.1"
   viewBox="0 0 150 183"
   height="183mm"
   width="150mm">
  <defs
     id="defs2094" />
  <sodipodi:namedview
     inkscape:window-maximized="1"
     inkscape:window-y="-9"
     inkscape:window-x="69"
     inkscape:window-height="1051"
     inkscape:window-width="1842"
     showgrid="false"
     inkscape:document-rotation="0"
     inkscape:current-layer="layer1"
     inkscape:document-units="mm"
     inkscape:cy="499.31133"
     inkscape:cx="117.34372"
     inkscape:zoom="0.6092492"
     inkscape:pageshadow="2"
     inkscape:pageopacity="0.0"
     borderopacity="1.0"
     bordercolor="#666666"
     pagecolor="#ffffff"
     id="base" />
  <metadata
     id="metadata2097">
    <rdf:RDF>
      <cc:Work
         rdf:about="">
        <dc:format>image/svg+xml</dc:format>
        <dc:type
           rdf:resource="http://purl.org/dc/dcmitype/StillImage" />
        <dc:title />
      </cc:Work>
    </rdf:RDF>
  </metadata>
  <g
     id="layer1"
     inkscape:groupmode="layer"
     inkscape:label="Layer 1">
    <path
       sodipodi:nodetypes="cccccssssssccccccsccccscccccssssccs"
       d="M 1.02945,0.058222 V 149.98817 h 150 V 0.058222 Z m 88.309793,12.778604 c 2.2316,0.01209 3.30587,0.04295 4.21777,0.482739 1.82385,0.879581 1.16758,3.462339 1.50958,6.313417 0.5675,4.731072 -0.5144,6.80015 3.85011,6.80015 4.651927,0 5.556857,-1.069936 5.556857,-6.570975 0,-6.504652 0.12684,-6.570973 12.55849,-6.570973 h 12.55851 l 0.0209,13.689498 c 0.0192,12.704504 -0.49702,14.097617 -7.1691,19.358641 l -7.18916,5.668783 2.20535,27.917122 c 1.21301,15.3543 3.21272,28.573532 4.4436,29.376282 10.33192,6.73839 11.63616,8.67987 13.12174,19.53017 l 1.57445,11.49929 H 79.220863 21.843849 l 1.647024,-11.48878 c 1.555677,-10.85029 2.804365,-12.68234 13.320201,-19.54068 1.230876,-0.80275 3.230579,-14.021982 4.443597,-29.376282 L 43.460024,52.008106 36.270508,46.339323 C 29.59844,41.078299 29.082682,39.685186 29.101786,26.980682 l 0.02079,-13.689498 h 12.558497 c 12.43168,0 12.558499,0.06631 12.558499,6.570973 0,5.548865 0.887993,6.570975 5.708442,6.570975 4.841204,0 5.708442,-1.015025 5.708442,-6.680485 v -6.68012 l 15.558067,-0.120026 c 3.11139,-0.02395 5.89313,-0.127768 8.12472,-0.115675 z"
       style="fill:#253b73;stroke-width:0.167382;fill-opacity:1"
       id="rect2688" />
    <g
       style="font-size:40.5694px;line-height:1.25;font-family:Garamond;-inkscape-font-specification:Garamond;text-align:center;text-anchor:middle;fill:#253b73;stroke-width:0.264583;fill-opacity:1"
       id="text2694"
       aria-label="Custom">
      <path
         id="path847"
         style="font-size:40.5694px;fill:#253b73;stroke-width:0.264583;fill-opacity:1"
         d="m 37.436396,157.53672 q 0.237712,1.52532 0.237712,3.12987 0,0.31695 -0.01981,0.8518 -0.27733,0.0594 -0.415994,0.0594 -0.118856,0 -0.336758,-0.0396 -0.83199,-2.31769 -2.713871,-3.56567 -1.881882,-1.24799 -4.65518,-1.24799 -1.465887,0 -2.47616,0.33676 -1.782835,0.61409 -3.129866,1.7036 -1.347031,1.0697 -2.278067,2.5752 -0.931036,1.4857 -1.485696,3.6251 -0.53485,2.1196 -0.53485,4.33823 0,4.23919 1.287603,7.01249 1.287603,2.75349 3.526051,3.94205 2.238449,1.16874 4.516515,1.16874 l 0.931037,-0.0198 q 1.584742,-0.19809 2.159211,-0.37637 1.446077,-0.416 2.377113,-0.97066 0.950845,-0.57447 1.842263,-1.60455 0.911227,-1.03008 1.545124,-2.39692 l 0.237711,-0.0792 q 0.09905,0 0.297139,0.11886 -0.01981,0.47542 -0.03962,0.61408 -0.83199,3.34777 -1.208366,4.57595 -0.316949,0.0792 -0.792371,0.23771 -2.317686,0.79237 -6.200304,0.79237 -3.129866,0 -4.694799,-0.4358 -1.545124,-0.416 -3.387387,-1.30742 -1.822453,-0.91122 -3.209103,-2.39692 -1.386649,-1.48569 -2.238448,-3.74395 -0.851799,-2.27807 -0.851799,-4.95232 0,-2.53559 0.673515,-4.41747 0.673516,-1.90169 2.079975,-3.843 1.406458,-1.94131 3.308149,-3.22891 1.9215,-1.28761 4.258995,-1.82246 1.64417,-0.35656 4.65518,-0.35656 2.19883,0 4.140139,0.59427 1.941309,0.57447 2.595015,1.12913 z" />
      <path
         id="path849"
         style="font-size:40.5694px;fill:#253b73;stroke-width:0.264583;fill-opacity:1"
         d="m 40.36817,166.233 h 1.485696 l 0.653706,0.0396 0.515041,-0.0396 q 2.040356,0 2.535588,0.0396 l 0.01981,0.37638 q 0,2.79311 -0.07924,5.40793 -0.05943,1.54513 -0.05943,1.76303 0,3.48643 0.217902,4.35804 0.237712,0.87161 1.069701,1.40646 0.851799,0.51504 2.040356,0.51504 1.446077,0 2.75349,-0.59428 1.327221,-0.61409 2.258257,-1.48569 0.09905,-0.75276 0.09905,-1.66398 0,-2.95159 0.05943,-3.98167 0.01981,-0.61409 0.01981,-1.0697 0,-3.2091 -0.316949,-3.6251 -0.316948,-0.41599 -2.416732,-0.63389 -0.693324,-0.0792 -1.010273,-0.13867 -0.158474,-0.25752 -0.158474,-0.39618 l 0.05943,-0.21791 q 0.515041,-0.0594 1.010273,-0.0594 l 3.149675,0.0396 q 1.683789,-0.0396 1.782835,-0.0396 0.217902,0 0.415995,0.0198 l 0.03962,1.44607 q -0.138665,3.01101 -0.158475,7.44829 l -0.03962,1.60455 0.07924,2.69406 q 0.178283,0.31695 0.316948,0.37638 0.237712,0.0991 0.970655,0.0991 h 0.178283 q 0.257521,0 1.465887,0.11885 0.01981,0.25752 0.01981,0.37638 v 0.2179 q -2.654443,0.57447 -4.298613,1.14894 -0.653706,0.2179 -1.10932,0.31695 -0.09905,-0.69333 -0.09905,-0.8518 v -1.60455 q 0,-0.0991 -0.01981,-0.53485 -0.257521,0.17828 -0.594279,0.4358 -1.564932,1.20837 -3.308149,2.04036 -1.168747,0.57447 -2.258258,0.57447 -2.079974,0 -3.387386,-1.54513 -1.327222,-1.54512 -1.327222,-5.26927 0,-0.19809 0.01981,-0.71313 0.07924,-0.95085 0.07924,-1.32722 0,-0.13867 -0.01981,-0.87161 -0.01981,-0.31695 -0.01981,-0.55466 0,-0.17828 0.01981,-0.79237 0.01981,-0.6339 0.01981,-0.89142 0,-0.33676 -0.01981,-0.59428 l -0.03962,-1.04989 0.01981,-0.55466 q 0,-0.31695 -0.316948,-0.57447 -1.247985,-0.33675 -1.64417,-0.37637 -0.376377,-0.0594 -0.673516,-0.17829 z" />
      <path
         id="path851"
         style="font-size:40.5694px;fill:#253b73;stroke-width:0.264583;fill-opacity:1"
         d="m 62.475327,176.75172 q 0.732943,1.88188 1.109319,2.43654 0.752753,1.12913 1.802645,1.76303 1.049891,0.61409 2.278066,0.61409 1.129129,0 2.238449,-0.97066 0.792371,-0.73294 0.792371,-1.7036 0,-1.2876 -0.931036,-2.37711 -0.931036,-1.0697 -3.545861,-2.04035 -2.595015,-0.99047 -3.486433,-2.09979 -0.891417,-1.10932 -0.891417,-2.53559 0,-1.34703 0.732943,-2.37711 0.732943,-1.03008 2.020546,-1.54512 1.287603,-0.53485 2.377114,-0.53485 1.406458,0 2.515778,0.2179 1.129129,0.2179 1.941309,0.67351 0.158474,1.01028 0.257521,2.9714 l 0.03962,0.63389 q -0.25752,0.0198 -0.435804,0.0198 h -0.27733 q -0.594278,-1.64417 -1.822453,-2.59501 -1.208366,-0.97066 -2.396923,-0.97066 -1.188556,0 -1.9215,0.73295 -0.732943,0.71313 -0.732943,1.88188 0,0.89141 0.594278,1.58474 0.594279,0.69332 2.773299,1.58474 2.19883,0.89142 3.189294,1.66398 1.010273,0.75275 1.485696,1.84226 0.475422,1.08951 0.475422,2.07998 0,1.36684 -0.911226,2.5554 -0.891418,1.18855 -2.258258,1.66397 -1.347031,0.49524 -2.416732,0.49524 -2.515778,0 -4.635371,-0.93104 -0.198093,-0.15847 -0.217902,-0.59428 0,-0.17828 -0.03962,-0.57447 -0.316949,-2.67425 -0.316949,-3.16948 0,-0.23771 0.09905,-0.31695 0.09905,-0.0792 0.515042,-0.0792 z" />
      <path
         id="path853"
         style="font-size:40.5694px;fill:#253b73;stroke-width:0.264583;fill-opacity:1"
         d="m 80.085772,162.21171 0.614088,0.0198 0.07924,1.88188 -0.03962,2.43654 q 0.376376,0.0198 0.475423,0.0198 0.515041,0 1.961118,-0.0792 0.931036,-0.0594 1.782835,-0.0594 0.396186,0 1.188557,0.0198 0.03962,0.39618 0.03962,0.6339 0,0.25752 -0.118855,0.81218 h -0.336758 l -3.070438,0.099 -1.525314,0.0396 -0.356567,0.0396 q -0.158475,0.49523 -0.158475,1.14894 l 0.05943,2.97139 -0.03962,5.22965 q 0,2.06016 0.53485,2.73368 0.515041,0.69332 1.545124,0.69332 0.515041,0 1.941309,-0.31695 0.435804,-0.099 1.168747,-0.6537 h 0.178284 q 0.178283,0 0.27733,0.11885 0.118856,0.0991 0.118856,0.27733 l -0.01981,0.13867 q -0.851799,0.93104 -1.961118,1.36684 -1.089511,0.41599 -2.911964,0.41599 -1.287603,0 -2.139402,-0.59427 -0.83199,-0.59428 -1.069701,-1.40646 -0.237711,-0.81218 -0.237711,-3.54586 l 0.07924,-4.45709 -0.01981,-2.1394 v -0.79237 q 0,-0.55466 -0.03962,-1.10932 l -0.336758,-0.0198 -1.624361,0.0594 -0.158474,0.0198 q -0.217902,0 -0.336758,-0.099 -0.09905,-0.0991 -0.09905,-0.23771 0,-0.23771 0.138665,-0.37638 0.158474,-0.15847 0.911227,-0.47542 0.515041,-0.2179 1.188556,-0.81218 0.693325,-0.61409 1.168748,-1.34703 0.237711,-0.39619 0.673515,-1.50551 0.316949,-0.81218 0.475423,-1.14894 z" />
      <path
         id="path855"
         style="font-size:40.5694px;fill:#253b73;stroke-width:0.264583;fill-opacity:1"
         d="m 87.672724,173.81995 q 0,-1.34703 0.554659,-2.87235 0.574469,-1.54512 1.723408,-2.75349 1.148938,-1.22817 2.436541,-1.82245 1.802644,-0.83199 4.397659,-0.83199 3.704339,0 6.180499,2.53559 2.49596,2.53559 2.49596,6.10126 0,3.16948 -2.61482,5.66545 -2.59502,2.47616 -6.57668,2.47616 -2.45635,0 -4.635371,-1.2876 -1.624361,-0.97066 -2.793108,-2.87235 -1.168747,-1.90169 -1.168747,-4.33823 z m 8.7557,7.72562 q 1.505505,0 2.892155,-0.81218 1.406461,-0.81218 2.238451,-2.59502 0.83199,-1.80264 0.83199,-4.15995 0,-1.54512 -0.65371,-3.58548 -0.6339,-2.04035 -1.980927,-3.05062 -1.327222,-1.03009 -3.129866,-1.03009 -1.307412,0 -2.674252,0.61409 -1.347031,0.61409 -2.297877,2.35731 -0.931036,1.74321 -0.931036,4.95231 0,3.60529 1.624361,5.46737 1.64417,1.84226 4.080711,1.84226 z" />
      <path
         id="path857"
         style="font-size:40.5694px;fill:#253b73;stroke-width:0.264583;fill-opacity:1"
         d="m 107.6999,181.08995 q 0.31695,-0.2179 0.87161,-0.29713 0.79237,-0.0991 1.22818,-0.31695 0.35656,-0.29714 0.47542,-0.8518 0.13866,-0.71314 0.13866,-5.01175 0,-4.21938 -0.25752,-5.44755 -0.4358,-0.27733 -1.12913,-0.4358 -0.2179,-0.0396 -0.91122,-0.21791 v -0.6537 q 1.16874,-0.33676 1.88188,-0.87161 0.73294,-0.53485 2.02055,-2.1394 h 0.11885 q 0.11886,0 0.37638,-0.0198 0.15847,0.0198 0.25752,0.099 l -0.0198,2.25826 q 0,0.69333 0.0396,1.4857 2.11959,-1.9215 3.80338,-2.69406 1.14894,-0.51505 2.59501,-0.51505 1.72341,0 2.73368,0.65371 1.01028,0.65371 1.9215,2.3573 1.76303,-1.74321 3.1893,-2.43654 1.44608,-0.69332 2.91196,-0.69332 2.21864,0 3.64491,1.44608 1.40646,1.46588 1.44608,4.29861 v 1.64417 l 0.0198,1.80264 -0.0198,4.63537 q -0.0198,0.81219 0.35656,1.22818 0.15848,0.0594 1.20837,0.35657 0.65371,0.17828 0.77256,0.27733 0.11886,0.099 0.11886,0.27733 0,0.2179 -0.11886,0.51504 h -0.13866 l -2.00074,-0.11886 q -0.35657,-0.0198 -1.12913,-0.0198 -0.95085,0 -2.65444,0.0792 h -1.01028 q -0.2179,0 -0.8518,0.0198 -0.0198,-0.17828 -0.0198,-0.31695 0,-0.15847 0.13866,-0.39618 0.53485,-0.23772 1.46589,-0.37638 0.93103,-0.15848 1.14893,-0.53485 0.23772,-0.39619 0.23772,-3.09025 0,-5.84374 -0.13867,-6.77477 -0.23771,-1.4857 -1.26779,-2.31769 -1.01028,-0.8518 -2.5554,-0.8518 -1.18856,0 -2.31768,0.6339 -1.12913,0.61409 -2.21864,1.86207 l -0.0198,0.47543 v 3.03082 l -0.0792,2.3573 q 0,3.60529 0.0594,4.10052 0.0792,0.49523 0.33676,0.73294 0.27733,0.2179 1.56493,0.39619 0.57447,0.0792 0.89142,0.15847 0.23771,0.1981 0.23771,0.51504 0,0.25752 -0.17829,0.35657 h -0.33675 l -0.99047,-0.0198 h -5.7645 l -1.58474,0.0198 q -0.0396,-0.29714 -0.0396,-0.4358 l 0.0198,-0.23771 q 0.4358,-0.23772 1.62436,-0.45562 0.61409,-0.099 1.2678,-0.33676 0.11885,-0.099 0.17828,-0.25752 0.0991,-0.27733 0.13866,-1.58474 l 0.0991,-2.29787 -0.0396,-2.59502 0.0198,-1.44608 q 0,-2.43654 -0.99046,-3.54586 -0.99047,-1.12913 -2.49597,-1.12913 -1.40646,0 -2.83273,0.69333 -1.40646,0.69332 -2.33749,1.86207 -0.0198,0.55466 -0.0198,1.01027 l 0.0792,6.65592 q 0.0198,2.17902 0.23772,2.49597 0.23771,0.29714 1.03008,0.41599 1.26779,0.17829 1.64417,0.43581 0.17828,0.11885 0.17828,0.35657 0,0.15847 -0.0198,0.37637 -2.25826,-0.15847 -3.03082,-0.15847 -0.79237,0 -1.42627,0.0198 l -0.99046,0.0594 h -0.61409 l -2.21864,0.0792 q -0.0396,-0.13866 -0.0396,-0.23771 0,-0.0991 0.0792,-0.39619 z" />
    </g>
  </g>
</svg>
