<?xml version="1.0" encoding="UTF-8" standalone="no"?>
<svg
   xmlns:dc="http://purl.org/dc/elements/1.1/"
   xmlns:cc="http://creativecommons.org/ns#"
   xmlns:rdf="http://www.w3.org/1999/02/22-rdf-syntax-ns#"
   xmlns:svg="http://www.w3.org/2000/svg"
   xmlns="http://www.w3.org/2000/svg"
   xmlns:sodipodi="http://sodipodi.sourceforge.net/DTD/sodipodi-0.dtd"
   xmlns:inkscape="http://www.inkscape.org/namespaces/inkscape"
   width="150mm"
   height="183mm"
   viewBox="0 0 150 183"
   version="1.1"
   id="svg8"
   inkscape:version="1.0 (4035a4fb49, 2020-05-01)"
   sodipodi:docname="Standard-blueJss.svg">
  <defs
     id="defs2" />
  <sodipodi:namedview
     id="base"
     pagecolor="#ffffff"
     bordercolor="#666666"
     borderopacity="1.0"
     inkscape:pageopacity="0.0"
     inkscape:pageshadow="2"
     inkscape:zoom="0.89204288"
     inkscape:cx="183.96373"
     inkscape:cy="292.47569"
     inkscape:document-units="mm"
     inkscape:current-layer="g32"
     inkscape:document-rotation="0"
     showgrid="false"
     inkscape:window-width="1834"
     inkscape:window-height="1051"
     inkscape:window-x="77"
     inkscape:window-y="-9"
     inkscape:window-maximized="1"
     showguides="false" />
  <metadata
     id="metadata5">
    <rdf:RDF>
      <cc:Work
         rdf:about="">
        <dc:format>image/svg+xml</dc:format>
        <dc:type
           rdf:resource="http://purl.org/dc/dcmitype/StillImage" />
        <dc:title></dc:title>
      </cc:Work>
    </rdf:RDF>
  </metadata>
  <g
     inkscape:label="Layer 1"
     inkscape:groupmode="layer"
     id="layer1">
    <g
       id="g32"
       transform="translate(-23.283342,-10.054167)">
      <path
         d="M 23.589179,10.420689 V 160.4207 H 173.58918 V 10.420689 Z m 82.190961,4.763781 c 1.51171,-0.06406 2.7558,2.135633 4.4253,6.752573 1.74588,4.828152 5.89291,9.237911 12.94076,13.760499 13.19099,8.464628 23.33961,20.307135 27.08148,31.601478 1.91629,5.78402 2.96517,18.56905 3.02812,36.90914 0.0529,15.43295 0.85846,31.56761 1.79009,35.85454 l 1.69393,7.79413 h -50.1157 c -46.687081,0 -50.115683,-0.25331 -50.115683,-3.70396 0,-13.74264 12.903144,-39.94471 19.670587,-39.94471 1.401909,0 4.241695,-1.87053 6.310824,-4.15689 2.111514,-2.33321 6.4019,-4.15727 9.778818,-4.15727 13.676844,0 26.653444,-12.09208 26.509654,-24.70277 l -0.0857,-7.514164 -4.59082,9.227844 C 107.30228,86.57184 100.72106,90.4991 84.171842,90.76452 71.352007,90.97014 69.971153,91.45439 64.907588,97.51971 l -5.454543,6.53337 -7.97567,-4.81336 -7.975299,-4.81336 4.783537,-3.35056 c 4.291131,-3.00563 4.411601,-3.49358 1.167554,-4.73843 -1.989041,-0.76327 -4.676247,-0.32836 -5.971221,0.96662 -4.38122,4.38122 -5.680079,2.38937 -5.680079,-8.71043 V 67.52865 l 14.302526,-9.772479 c 7.866344,-5.374833 16.566635,-11.870568 19.333964,-14.435235 2.767325,-2.564678 9.818056,-7.734622 15.668397,-11.488768 5.850342,-3.754158 12.137124,-9.115097 13.970376,-11.912994 2.0144,-3.074363 3.45046,-4.681627 4.70302,-4.734704 z"
         style="fill:#253b73;stroke-width:0.168533;fill-opacity:1"
         id="rect910" />
      <g
         aria-label="Standard"
         id="text916"
         style="font-size:40.5694px;line-height:1.25;font-family:Garamond;-inkscape-font-specification:Garamond;fill:#253b73;stroke-width:0.264583;fill-opacity:1">
        <path
           d="m 44.88262,167.0713 q 0.158474,1.30741 0.158474,1.5055 l -0.07924,1.76303 q -0.03962,1.12913 -0.09905,1.44607 -0.178284,0.0792 -0.297139,0.0792 l -0.178284,-0.0396 q -0.633897,-2.7733 -2.159211,-4.04109 -1.505505,-1.26779 -3.684526,-1.26779 -2.258257,0 -3.704335,1.26779 -1.446077,1.26779 -1.446077,2.95158 0,1.28761 1.010273,2.35731 1.010274,1.0697 5.170222,3.2091 3.169484,1.64417 4.536324,2.69406 1.366841,1.03008 2.060165,2.39692 0.693325,1.36684 0.693325,3.05063 0,2.1196 -1.10932,3.98167 -1.08951,1.86207 -2.951582,2.81292 -1.862072,0.93103 -4.93251,0.93103 -2.674253,0 -5.130603,-0.8518 -1.446077,-0.51504 -1.763026,-0.83199 -0.316948,-0.31695 -0.316948,-0.67351 0,-0.2179 0.03962,-0.55466 0.27733,-2.3375 0.29714,-3.843 0.03962,-0.93104 0.138665,-1.08951 0.07924,-0.13867 0.297139,-0.13867 0.178283,0 0.27733,0.13867 0.118855,0.11885 0.158474,0.47542 0.217902,2.43654 2.258257,4.35804 2.020547,1.9215 4.575944,1.9215 1.564933,0 2.872345,-0.6537 1.327221,-0.65371 2.060165,-1.88189 0.752752,-1.24798 0.752752,-2.41673 0,-1.60455 -1.129129,-2.93177 -1.129128,-1.32722 -4.536324,-3.09025 -3.407196,-1.78283 -4.437278,-2.59501 -1.66398,-1.32723 -2.495969,-2.81292 -0.614088,-1.14894 -0.614088,-2.67425 0,-2.75349 2.179021,-4.65518 2.17902,-1.9215 5.843737,-1.9215 2.020546,0 3.486432,0.45561 1.069701,0.35657 2.19883,1.16875 z"
           style="font-size:40.5694px;text-align:center;text-anchor:middle;fill:#253b73;stroke-width:0.264583;fill-opacity:1"
           id="path848" />
        <path
           d="m 54.21279,171.94438 0.614087,0.0198 0.07924,1.88188 -0.03962,2.43654 q 0.376376,0.0198 0.475422,0.0198 0.515042,0 1.961119,-0.0792 0.931036,-0.0594 1.782835,-0.0594 0.396185,0 1.188557,0.0198 0.03962,0.39619 0.03962,0.6339 0,0.25752 -0.118856,0.81218 h -0.336757 l -3.070438,0.0991 -1.525315,0.0396 -0.356567,0.0396 q -0.158474,0.49523 -0.158474,1.14893 l 0.05943,2.9714 -0.03962,5.22964 q 0,2.06017 0.534851,2.73368 0.515041,0.69333 1.545123,0.69333 0.515042,0 1.94131,-0.31695 0.435804,-0.099 1.168747,-0.65371 h 0.178284 q 0.178283,0 0.277329,0.11886 0.118856,0.099 0.118856,0.27733 l -0.01981,0.13867 q -0.851799,0.93103 -1.961119,1.36684 -1.08951,0.41599 -2.911963,0.41599 -1.287604,0 -2.139402,-0.59428 -0.83199,-0.59428 -1.069701,-1.40646 -0.237712,-0.81218 -0.237712,-3.54586 l 0.07924,-4.45708 -0.01981,-2.13941 v -0.79237 q 0,-0.55466 -0.03962,-1.10932 l -0.336758,-0.0198 -1.624361,0.0594 -0.158474,0.0198 q -0.217902,0 -0.336758,-0.099 -0.09905,-0.099 -0.09905,-0.23771 0,-0.23771 0.138665,-0.37637 0.158474,-0.15848 0.911226,-0.47543 0.515042,-0.2179 1.188557,-0.81218 0.693325,-0.61408 1.168747,-1.34703 0.237712,-0.39618 0.673516,-1.5055 0.316948,-0.81218 0.475423,-1.14894 z"
           style="font-size:40.5694px;text-align:center;text-anchor:middle;fill:#253b73;stroke-width:0.264583;fill-opacity:1"
           id="path850" />
        <path
           d="m 76.458609,188.82188 q 0.118855,0.25752 0.118855,0.37638 0,0.29714 -0.475422,1.04989 -0.614088,0.99047 -1.366841,1.44608 -0.475422,0.29714 -1.307412,0.29714 -1.426268,0 -2.139402,-0.87161 -0.435804,-0.51504 -0.614087,-1.84226 l -2.21864,1.54512 q -1.168747,0.67352 -1.782835,0.8518 -0.990463,0.25752 -2.377113,0.25752 -1.010273,0 -1.604551,-0.59428 -0.574469,-0.61409 -0.574469,-1.56493 0,-1.36684 1.663979,-3.26853 1.683789,-1.90169 4.556134,-3.11006 2.020546,-0.8518 2.476159,-1.08951 0.03962,-0.6537 0.03962,-1.42627 0,-2.51577 -0.713134,-3.40719 -0.693325,-0.89142 -2.000737,-0.89142 -1.36684,0 -2.555397,1.0697 -0.732943,0.67352 -1.109319,2.53559 -0.118856,0.51504 -0.455614,1.10932 -0.851799,0.55466 -1.36684,0.55466 -0.435804,0 -0.792371,-0.25752 -0.198093,-0.13867 -0.198093,-0.31695 0,-0.51504 1.08951,-2.31769 1.10932,-1.82245 2.773299,-2.71387 1.683789,-0.91122 2.931773,-0.91122 1.703598,0 2.535588,0.31694 0.83199,0.29714 1.465887,1.0697 0.633896,0.77257 0.772561,1.68379 0.07924,0.43581 0.07924,3.11006 l -0.05943,3.14968 0.01981,2.29787 q 0,0.45561 -0.01981,0.77256 -0.01981,0.57447 -0.01981,0.8518 0,0.65371 0.376377,1.04989 0.376376,0.39619 0.891417,0.39619 0.752753,0 1.287603,-0.75275 l 0.237712,-0.31695 q 0.09905,-0.0594 0.435804,-0.13867 z m -5.823928,-0.57447 q 0.138665,-2.51577 0.138665,-3.54586 0,-0.53485 -0.05943,-1.44607 -1.327222,0.47542 -2.812917,1.44607 -1.485696,0.97066 -2.357304,2.23845 -0.633897,0.91123 -0.633897,1.72341 0,0.77256 0.515041,1.2876 0.53485,0.51504 1.327222,0.51504 0.614087,0 1.485695,-0.4358 1.148938,-0.57447 2.396923,-1.78284 z"
           style="font-size:40.5694px;text-align:center;text-anchor:middle;fill:#253b73;stroke-width:0.264583;fill-opacity:1"
           id="path852" />
        <path
           d="m 77.587738,190.88205 q 0.495232,-0.13867 1.148938,-0.23771 1.247984,-0.17829 1.485696,-0.416 0.25752,-0.23771 0.25752,-1.08951 l 0.03962,-0.71313 q 0.01981,-0.39619 0.01981,-1.01028 l -0.03962,-6.08144 q 0,-1.22818 -0.316949,-1.58475 -0.53485,-0.55466 -1.980928,-0.77256 v -0.71313 q 1.446078,-0.39619 2.21864,-1.03008 1.129128,-0.89142 1.90169,-2.41674 l 0.673516,0.0198 q 0.05943,0.93104 0.05943,1.32723 v 1.30741 l 0.01981,0.35656 q 0.237711,-0.15847 0.55466,-0.39618 1.188556,-0.89142 2.436541,-1.44608 1.247984,-0.57447 2.218639,-0.79237 0.614087,-0.15847 1.386649,-0.15847 1.624361,0 2.793108,0.8716 1.168748,0.87161 1.505506,2.06017 0.356567,1.16875 0.356567,4.67499 v 2.9912 q 0,0.11886 -0.03962,0.79237 -0.01981,0.67352 -0.01981,1.54512 0,1.38665 0.118855,1.76303 0.09905,0.25752 0.515042,0.51504 1.90169,0.25752 2.218639,0.61409 v 0.15847 q 0,0.1981 -0.118856,0.49524 h -0.376376 l -2.614825,-0.0198 -2.575206,0.0396 q -1.426268,0.0396 -2.634634,-0.0198 l -0.118856,-0.416 q 0,-0.11886 0.138665,-0.31695 0.534851,-0.23771 1.505505,-0.31695 0.574469,-0.0396 0.792372,-0.11885 0.217902,-0.0792 0.53485,-0.31695 0.237711,-0.47542 0.237711,-0.79237 0,-0.13867 -0.03962,-0.55466 -0.05943,-0.91123 -0.07924,-4.53633 v -1.03008 l 0.03962,-1.58474 q 0,-2.5554 -1.030082,-3.52605 -1.030083,-0.97066 -2.75349,-0.97066 -1.327221,0 -2.595015,0.59428 -1.267794,0.57447 -2.456351,1.74322 -0.03962,0.95084 -0.03962,1.62436 l 0.05943,4.37785 q 0,3.427 0.09905,4.19957 0.03962,0.31694 0.138665,0.4358 0.158474,0.15847 0.633897,0.25752 0.475423,0.0991 1.08951,0.27733 0.633897,0.17828 0.83199,0.2179 0.396185,0.0991 0.53485,0.39619 l -0.01981,0.39618 h -2.079974 l -4.278804,-0.0594 q -1.485696,0.0396 -1.881882,0.0396 h -0.495231 l -0.03962,-0.25752 q 0,-0.13866 0.05943,-0.39618 z"
           style="font-size:40.5694px;text-align:center;text-anchor:middle;fill:#253b73;stroke-width:0.264583;fill-opacity:1"
           id="path854" />
        <path
           d="m 111.97664,177.13441 0.0198,-0.57447 -0.0198,-2.31768 0.0198,-4.37786 q 0,-1.82245 -0.39619,-2.31768 -0.39618,-0.49523 -2.31768,-1.01027 -0.13867,-0.0396 -0.43581,-0.11886 v -0.2179 q 0,-0.19809 0.0396,-0.43581 2.69406,-0.27733 4.63537,-0.93103 l 1.01028,-0.0198 q 0.0792,1.34703 0.0792,3.01101 l -0.0792,7.62657 0.13866,8.59723 -0.0594,4.57594 q 0,1.40646 0.1981,1.58474 0.39618,0.39619 1.74321,0.416 0.27733,0 0.75276,0.0396 v 0.35656 q 0,0.13867 -0.0198,0.29714 -0.61409,0.13867 -1.2678,0.25752 l -2.87234,0.55466 q -0.6339,0.11886 -1.01028,0.11886 v -1.90169 q -0.33675,0.099 -1.04989,0.39618 -3.09025,1.30742 -5.68526,1.30742 -1.56493,0 -3.18929,-1.01028 -1.62437,-1.03008 -2.495973,-2.85253 -0.871609,-1.82246 -0.871609,-3.72415 0,-1.7036 0.574469,-3.24872 0.574469,-1.56493 1.505503,-2.59501 0.59428,-0.67352 1.68379,-1.32723 1.08951,-0.67351 1.80265,-0.85179 1.76302,-0.45562 2.3573,-0.45562 2.67425,0 4.39766,0.79237 0.53485,0.25752 0.81218,0.35657 z m 0.0198,12.24213 q 0.0792,-1.32722 0.0792,-5.46736 0,-3.50624 -0.33676,-4.41747 -0.31695,-0.93103 -1.62436,-1.74321 -1.30741,-0.83199 -2.93178,-0.83199 -2.27806,0 -3.8628,1.76302 -1.58475,1.76303 -1.58475,5.20984 0,3.03082 1.7036,4.83347 1.72341,1.80264 4.2788,1.80264 1.46589,0 2.67426,-0.39618 1.20836,-0.39619 1.60455,-0.75276 z"
           style="font-size:40.5694px;text-align:center;text-anchor:middle;fill:#253b73;stroke-width:0.264583;fill-opacity:1"
           id="path856" />
        <path
           d="m 133.90552,188.82188 q 0.11885,0.25752 0.11885,0.37638 0,0.29714 -0.47542,1.04989 -0.61409,0.99047 -1.36684,1.44608 -0.47542,0.29714 -1.30741,0.29714 -1.42627,0 -2.13941,-0.87161 -0.4358,-0.51504 -0.61408,-1.84226 l -2.21864,1.54512 q -1.16875,0.67352 -1.78284,0.8518 -0.99046,0.25752 -2.37711,0.25752 -1.01027,0 -1.60455,-0.59428 -0.57447,-0.61409 -0.57447,-1.56493 0,-1.36684 1.66398,-3.26853 1.68379,-1.90169 4.55613,-3.11006 2.02055,-0.8518 2.47616,-1.08951 0.0396,-0.6537 0.0396,-1.42627 0,-2.51577 -0.71313,-3.40719 -0.69333,-0.89142 -2.00074,-0.89142 -1.36684,0 -2.5554,1.0697 -0.73294,0.67352 -1.10932,2.53559 -0.11885,0.51504 -0.45561,1.10932 -0.8518,0.55466 -1.36684,0.55466 -0.4358,0 -0.79237,-0.25752 -0.19809,-0.13867 -0.19809,-0.31695 0,-0.51504 1.08951,-2.31769 1.10932,-1.82245 2.77329,-2.71387 1.68379,-0.91122 2.93178,-0.91122 1.7036,0 2.53559,0.31694 0.83198,0.29714 1.46588,1.0697 0.6339,0.77257 0.77256,1.68379 0.0792,0.43581 0.0792,3.11006 l -0.0594,3.14968 0.0198,2.29787 q 0,0.45561 -0.0198,0.77256 -0.0198,0.57447 -0.0198,0.8518 0,0.65371 0.37638,1.04989 0.37638,0.39619 0.89142,0.39619 0.75275,0 1.2876,-0.75275 l 0.23771,-0.31695 q 0.0991,-0.0594 0.43581,-0.13867 z m -5.82393,-0.57447 q 0.13866,-2.51577 0.13866,-3.54586 0,-0.53485 -0.0594,-1.44607 -1.32723,0.47542 -2.81292,1.44607 -1.4857,0.97066 -2.35731,2.23845 -0.63389,0.91123 -0.63389,1.72341 0,0.77256 0.51504,1.2876 0.53485,0.51504 1.32722,0.51504 0.61409,0 1.4857,-0.4358 1.14893,-0.57447 2.39692,-1.78284 z"
           style="font-size:40.5694px;text-align:center;text-anchor:middle;fill:#253b73;stroke-width:0.264583;fill-opacity:1"
           id="path858" />
        <path
           d="m 135.09407,191.57537 -0.0792,-0.25752 q 0,-0.13866 0.17829,-0.41599 l 1.16874,-0.23771 1.64417,-0.29714 q 0.1981,-0.0991 0.27733,-0.27733 0.11886,-0.25752 0.11886,-1.52532 0,-6.73515 -0.0792,-7.76523 -0.0792,-1.0499 -0.35657,-1.32723 -0.27733,-0.27733 -1.42626,-0.4358 -0.67352,-0.0991 -1.0697,-0.25752 l 0.0792,-0.59428 q 2.07998,-0.8518 2.79311,-1.46589 0.99046,-0.89141 1.68379,-2.33749 l 0.67351,0.0198 q 0.11886,0.99046 0.11886,4.39766 l -0.0198,0.33676 q 0,0.11885 0.0396,0.37637 0.75275,-1.36684 1.88188,-2.51578 l 0.45561,-0.45561 q 0.27733,-0.31695 0.53485,-0.49523 1.38665,-0.83199 2.06017,-0.83199 0.87161,0 1.42627,0.59428 0.55466,0.57447 0.55466,1.42627 0,0.67351 -0.39619,1.04989 -0.53485,0.49523 -1.22817,0.49523 -0.31695,0 -1.24799,-0.33676 -0.93103,-0.33676 -1.22817,-0.33676 -0.55466,0 -0.77256,0.17829 -0.55466,0.4358 -1.34704,1.78283 -0.61408,1.01028 -0.61408,1.86208 l 0.099,3.26853 0.0396,3.92223 q 0.0594,0.67352 0.15848,0.87161 0.0792,0.13867 0.39618,0.33676 2.1394,0.17828 2.53559,0.25752 0.27733,0.0198 0.41599,0.0396 0.8518,0.0198 1.18856,0.23771 0.17828,0.099 0.17828,0.29714 0,0.11885 -0.15847,0.31695 l -2.19883,-0.0198 -0.83199,-0.0198 -1.20837,0.0198 h -2.02054 l -1.08951,0.0594 z"
           style="font-size:40.5694px;text-align:center;text-anchor:middle;fill:#253b73;stroke-width:0.264583;fill-opacity:1"
           id="path860" />
        <path
           d="m 162.29221,177.13441 0.0198,-0.57447 -0.0198,-2.31768 0.0198,-4.37786 q 0,-1.82245 -0.39619,-2.31768 -0.39619,-0.49523 -2.31769,-1.01027 -0.13866,-0.0396 -0.4358,-0.11886 v -0.2179 q 0,-0.19809 0.0396,-0.43581 2.69406,-0.27733 4.63537,-0.93103 l 1.01027,-0.0198 q 0.0792,1.34703 0.0792,3.01101 l -0.0792,7.62657 0.13867,8.59723 -0.0594,4.57594 q 0,1.40646 0.19809,1.58474 0.39619,0.39619 1.74322,0.416 0.27733,0 0.75275,0.0396 v 0.35656 q 0,0.13867 -0.0198,0.29714 -0.61408,0.13867 -1.26779,0.25752 l -2.87235,0.55466 q -0.63389,0.11886 -1.01027,0.11886 v -1.90169 q -0.33676,0.099 -1.04989,0.39618 -3.09025,1.30742 -5.68526,1.30742 -1.56494,0 -3.1893,-1.01028 -1.62436,-1.03008 -2.49597,-2.85253 -0.8716,-1.82246 -0.8716,-3.72415 0,-1.7036 0.57446,-3.24872 0.57447,-1.56493 1.50551,-2.59501 0.59428,-0.67352 1.68379,-1.32723 1.08951,-0.67351 1.80264,-0.85179 1.76303,-0.45562 2.35731,-0.45562 2.67425,0 4.39766,0.79237 0.53485,0.25752 0.81218,0.35657 z m 0.0198,12.24213 q 0.0792,-1.32722 0.0792,-5.46736 0,-3.50624 -0.33675,-4.41747 -0.31695,-0.93103 -1.62437,-1.74321 -1.30741,-0.83199 -2.93177,-0.83199 -2.27807,0 -3.86281,1.76302 -1.58474,1.76303 -1.58474,5.20984 0,3.03082 1.7036,4.83347 1.7234,1.80264 4.2788,1.80264 1.46589,0 2.67425,-0.39618 1.20837,-0.39619 1.60456,-0.75276 z"
           style="font-size:40.5694px;text-align:center;text-anchor:middle;fill:#253b73;stroke-width:0.264583;fill-opacity:1"
           id="path862" />
      </g>
    </g>
  </g>
</svg>
