<svg id="K4" xmlns="http://www.w3.org/2000/svg" width="72.413" height="72.265" viewBox="0 0 72.413 72.265">
    <path id="rect1122" d="M.057-.057V21.617H21.649V-.057ZM10.887,2.4H10.9a.356.356,0,0,1,.341.31h0v.034q0,.016,0,.032t0,.037v.52h1.2v.007a.348.348,0,0,1,0,.683v0h-.024l-.036,0-.034,0h-1.1V5.818A2.223,2.223,0,0,1,12.26,6.925a3.187,3.187,0,0,1-.129,2.195c1.87-1.892,4.892-2.19,6.365.2,1.439,2.878-2.878,5.036-2.878,5.036v3.357a10.7,10.7,0,0,1-10.072,0v-3.6s-3.837-1.919-2.4-4.8A2.8,2.8,0,0,1,5.764,7.612a5.484,5.484,0,0,1,3.892,1.9,3.7,3.7,0,0,1-.274-2.589s.391-.971,1.169-1.163V4.024H9.567V4.017a.345.345,0,0,1-.343-.347.349.349,0,0,1,.1-.246.333.333,0,0,1,.31-.094h.917V2.708h.007a.357.357,0,0,1,.328-.31Z" transform="translate(-0.057 0.057)" fill="green"/>
    <path id="path1783" d="M.127,36.081V-.05h72.38V72.212H.127Zm38.9,27.313a32.946,32.946,0,0,0,11.807-3.182l1.583-.826V48.159l.86-.493a27.518,27.518,0,0,0,7.574-6.48c2.7-3.755,2.881-7.67.509-10.975A11.844,11.844,0,0,0,49.3,25.73a17.56,17.56,0,0,0-7.747,3.812c-.446.4-.732.561-.664.381a15.841,15.841,0,0,0,.645-4.594,5.248,5.248,0,0,0-.575-2.416,9.49,9.49,0,0,0-2.727-3.181l-.472-.251V13.612h2.161c2.028,0,2.178-.025,2.443-.4a1.218,1.218,0,0,0-.2-1.745c-.415-.324-.728-.373-2.422-.373H37.806L37.73,9.9c-.084-1.307-.484-1.863-1.343-1.863-.8,0-1.156.585-1.156,1.887V11.1H33.413c-1.689,0-1.849.031-2.262.441a1.02,1.02,0,0,0-.069,1.6c.362.458.439.474,2.262.474h1.887v5.68l-.675.243c-1.488.535-3.28,3-3.668,5.038A15.642,15.642,0,0,0,31.9,31.138c.076.2-.382-.118-1.045-.732a17.725,17.725,0,0,0-11.518-4.928,9.568,9.568,0,0,0-9.258,6.251c-1.81,4.225-.62,8.406,3.46,12.158a25.5,25.5,0,0,0,4.691,3.339,48.766,48.766,0,0,1,.169,6.094v6.093l1.583.811c5.09,2.605,12.208,3.79,19.045,3.17Z" transform="translate(-0.093 0.053)"/>
</svg>
