<svg xmlns="http://www.w3.org/2000/svg" width="150.9" height="183.059" viewBox="0 0 150.9 183.059">
    <g id="layer1" transform="translate(-0.407 -0.022)">
        <g id="g75" transform="translate(-24.871 -34.396)">
            <path id="rect1655" d="M25.278,34.418v150h150.9v-150Zm73.284,8.451q4.105,0,4.105,4.08t4.1,4.081c2.281,0,4.105,1.36,4.105,3.061s-1.825,3.06-4.105,3.06c-6.224,0-5.492,10.678,1.188,17.318l5.293,5.261L120,75.581c17.454-10.723,42.1,1.583,45.558,22.745,1.6,9.819-5.984,26.248-17.563,38.032l-8.663,8.816,2.191,10.158c4.273,19.806,8.277,18.118-42.965,18.118-42.686,0-45.157-.208-45.157-3.8a111.51,111.51,0,0,1,1.946-14l1.946-10.2-8.929-9.531C26.413,112.482,25.992,90.39,47.226,76.024c8.865-6,22.093-6.158,29.511-.358L82.15,79.9l6.04-4.742c7.535-5.917,8.986-18,2.161-18-2.281,0-4.1-1.36-4.1-3.06s1.824-3.061,4.1-3.061q4.105,0,4.105-4.081t4.105-4.08Z"/>
            <g id="text1672">
                <path id="path838" d="M61.982,192.616a20.3,20.3,0,0,1,.238,3.13q0,.317-.02.852a2.19,2.19,0,0,1-.416.059,2.027,2.027,0,0,1-.337-.04,6.95,6.95,0,0,0-2.714-3.566,8.242,8.242,0,0,0-4.655-1.248,7.9,7.9,0,0,0-2.476.337,10.217,10.217,0,0,0-3.13,1.7,9.92,9.92,0,0,0-2.278,2.575,12.9,12.9,0,0,0-1.486,3.625,17.662,17.662,0,0,0-.535,4.338,16.674,16.674,0,0,0,1.288,7.012,8.183,8.183,0,0,0,3.526,3.942,9.67,9.67,0,0,0,4.517,1.169l.931-.02a14.813,14.813,0,0,0,2.159-.376,10.175,10.175,0,0,0,2.377-.971,7.827,7.827,0,0,0,1.842-1.6,9.832,9.832,0,0,0,1.545-2.4l.238-.079a.675.675,0,0,1,.3.119q-.02.475-.04.614-.832,3.348-1.208,4.576-.317.079-.792.238a19.7,19.7,0,0,1-6.2.792,18.79,18.79,0,0,1-4.695-.436,19.556,19.556,0,0,1-3.387-1.307,10.785,10.785,0,0,1-5.448-6.141,14.031,14.031,0,0,1-.852-4.952,13.11,13.11,0,0,1,.674-4.417,15.307,15.307,0,0,1,2.08-3.843,13.231,13.231,0,0,1,3.308-3.229,12.646,12.646,0,0,1,4.259-1.822,23.272,23.272,0,0,1,4.655-.357,14.071,14.071,0,0,1,4.14.594,7.792,7.792,0,0,1,2.6,1.129Z"/>
                <path id="path840" d="M65.707,208.9a8.422,8.422,0,0,1,.555-2.872,8.009,8.009,0,0,1,1.723-2.753,7.9,7.9,0,0,1,2.437-1.822,10.453,10.453,0,0,1,4.4-.832A8.285,8.285,0,0,1,81,203.154a8.384,8.384,0,0,1,2.5,6.1,7.65,7.65,0,0,1-2.615,5.665A9.143,9.143,0,0,1,74.3,217.4a8.965,8.965,0,0,1-4.635-1.288,8.333,8.333,0,0,1-2.793-2.872,8.116,8.116,0,0,1-1.169-4.338Zm8.756,7.726a5.574,5.574,0,0,0,5.131-3.407,9.829,9.829,0,0,0,.832-4.16,11.97,11.97,0,0,0-.654-3.585,5.829,5.829,0,0,0-1.981-3.051,4.956,4.956,0,0,0-3.13-1.03,6.5,6.5,0,0,0-2.674.614,5.158,5.158,0,0,0-2.3,2.357,10.69,10.69,0,0,0-.931,4.952,8.094,8.094,0,0,0,1.624,5.467,5.249,5.249,0,0,0,4.081,1.842Z"/>
                <path id="path842" d="M85.6,201.312h1.486l.654.04.515-.04q2.04,0,2.536.04l.02.376q0,2.793-.079,5.408-.059,1.545-.059,1.763a24.963,24.963,0,0,0,.218,4.358,2.39,2.39,0,0,0,1.07,1.406,3.87,3.87,0,0,0,2.04.515,6.578,6.578,0,0,0,2.753-.594,8.484,8.484,0,0,0,2.258-1.486,12.816,12.816,0,0,0,.1-1.664q0-2.952.059-3.982.02-.614.02-1.07,0-3.209-.317-3.625t-2.417-.634q-.693-.079-1.01-.139a.863.863,0,0,1-.158-.4l.059-.218a8.815,8.815,0,0,1,1.01-.059l3.15.04q1.684-.04,1.783-.04.218,0,.416.02l.04,1.446q-.139,3.011-.158,7.448l-.04,1.6.079,2.694a.866.866,0,0,0,.317.376,3.022,3.022,0,0,0,.971.1h.178q.258,0,1.466.119.02.258.02.376v.218a37.524,37.524,0,0,0-4.3,1.149,11.024,11.024,0,0,1-1.109.317q-.1-.693-.1-.852v-1.6q0-.1-.02-.535-.258.178-.594.436a18.3,18.3,0,0,1-3.308,2.04,5.11,5.11,0,0,1-2.258.574,4.23,4.23,0,0,1-3.387-1.545q-1.327-1.545-1.327-5.269,0-.2.02-.713.079-.951.079-1.327,0-.139-.02-.872-.02-.317-.02-.555,0-.178.02-.792.02-.634.02-.891,0-.337-.02-.594l-.04-1.05.02-.555a.737.737,0,0,0-.317-.574,13.291,13.291,0,0,0-1.644-.376,3.124,3.124,0,0,1-.674-.178Z"/>
                <path id="path844" d="M105.583,216.229a9.675,9.675,0,0,1,1.149-.238,3.313,3.313,0,0,0,1.486-.416,1.562,1.562,0,0,0,.258-1.09l.04-.713q.02-.4.02-1.01l-.04-6.081a2.616,2.616,0,0,0-.317-1.585,3.489,3.489,0,0,0-1.981-.773v-.713a5.991,5.991,0,0,0,2.219-1.03,7.1,7.1,0,0,0,1.9-2.417l.674.02q.059.931.059,1.327v1.307l.02.357q.238-.158.555-.4a12.58,12.58,0,0,1,2.437-1.446,11.4,11.4,0,0,1,2.219-.792,5.559,5.559,0,0,1,1.387-.158,4.54,4.54,0,0,1,2.793.872,3.891,3.891,0,0,1,1.506,2.06,19.442,19.442,0,0,1,.357,4.675v2.991q0,.119-.04.792-.02.674-.02,1.545a7.727,7.727,0,0,0,.119,1.763,1.185,1.185,0,0,0,.515.515,4.65,4.65,0,0,1,2.219.614v.158a1.394,1.394,0,0,1-.119.5h-.376l-2.615-.02-2.575.04q-1.426.04-2.635-.02l-.119-.416a.619.619,0,0,1,.139-.317,4.786,4.786,0,0,1,1.506-.317,3.334,3.334,0,0,0,.792-.119,2.221,2.221,0,0,0,.535-.317,1.869,1.869,0,0,0,.238-.792q0-.139-.04-.555-.059-.911-.079-4.536v-1.03l.04-1.585q0-2.555-1.03-3.526a3.851,3.851,0,0,0-2.753-.971,6.053,6.053,0,0,0-2.6.594,8.6,8.6,0,0,0-2.456,1.743q-.04.951-.04,1.624l.059,4.378q0,3.427.1,4.2a.88.88,0,0,0,.139.436,1.314,1.314,0,0,0,.634.258q.475.1,1.09.277.634.178.832.218a.745.745,0,0,1,.535.4l-.02.4h-2.08l-4.279-.059q-1.486.04-1.882.04h-.5l-.04-.258a1.908,1.908,0,0,1,.059-.4Z"/>
                <path id="path846" d="M141.338,213.238l.02,1.288a9.538,9.538,0,0,1-3.051,2.3,8.851,8.851,0,0,1-3.546.654,7.229,7.229,0,0,1-4-1.149,7.608,7.608,0,0,1-2.753-3.288,10.115,10.115,0,0,1-.951-4.16,8.276,8.276,0,0,1,1.149-4.219,7.456,7.456,0,0,1,3.07-2.971,10.446,10.446,0,0,1,4.814-.99,7.707,7.707,0,0,1,4.219.951,1.667,1.667,0,0,1,.812,1.426,1.423,1.423,0,0,1-.416,1.05,1.448,1.448,0,0,1-1.07.416,3.266,3.266,0,0,1-2.179-1.228,4.825,4.825,0,0,0-1.327-1.03,2.926,2.926,0,0,0-1.327-.3,3.62,3.62,0,0,0-2.932,1.446,8.093,8.093,0,0,0-1.624,5.17,7.487,7.487,0,0,0,1.664,5.111,5.026,5.026,0,0,0,3.883,1.9,7.059,7.059,0,0,0,2.734-.5,11.641,11.641,0,0,0,2.813-1.882Z"/>
                <path id="path848" d="M145.2,192.517a1.513,1.513,0,0,1,.5-1.129,1.749,1.749,0,0,1,1.228-.475,1.8,1.8,0,0,1,1.288.535,1.585,1.585,0,0,1,.555,1.149,1.648,1.648,0,0,1-.555,1.169,1.8,1.8,0,0,1-1.288.535,1.668,1.668,0,0,1-1.228-.5,1.742,1.742,0,0,1-.5-1.288Zm-1.664,10.261.02-.574q1.288-.376,1.387-.436a6.318,6.318,0,0,0,1.486-.971,6.613,6.613,0,0,0,1.327-1.466,2.426,2.426,0,0,1,.376-.04l.238.02q.079.951.079,1.387,0,.1-.04.891v1.05l.02,5.705-.059,6.042a1.522,1.522,0,0,0,.238,1.03,4.015,4.015,0,0,0,1.525.634,12.041,12.041,0,0,1,1.189.376.624.624,0,0,1,.059.238.65.65,0,0,1-.1.3q-.773-.02-1.981-.1-1.644-.139-2.179-.139-.258,0-3.169.1a10.631,10.631,0,0,0-1.149.1,1.373,1.373,0,0,1-.317-.059.436.436,0,0,1-.1-.238q0-.277.376-.436.079-.04,2.021-.456a1.289,1.289,0,0,0,.832-.4,2.106,2.106,0,0,0,.337-1.327q.04-1.525.04-8.36a7.01,7.01,0,0,0-.119-1.7,1.434,1.434,0,0,0-.535-.535,5.389,5.389,0,0,0-1.8-.634Z"/>
                <path id="path850" d="M152.689,192.319v-.436q.555-.178,1.228-.376.99-.317,2.932-.971h.931q.02.951.02,1.09,0,16.263-.1,19.393-.059,1.842-.059,1.961a8.244,8.244,0,0,0,.178,2.476q.238.357,1.446.5a5.08,5.08,0,0,1,1.446.277.284.284,0,0,1,.158.277.434.434,0,0,1-.1.317.459.459,0,0,1-.317.079q-.139,0-2.08-.059l-2.6-.079-3.328.139a.641.641,0,0,1-.475-.119.341.341,0,0,1-.119-.277.308.308,0,0,1,.119-.277,6.805,6.805,0,0,1,1.426-.317,5.456,5.456,0,0,0,1.486-.357,1.008,1.008,0,0,0,.258-.674q.079-.713.079-4.021l-.02-4.556.059-4.715-.02-4.715.059-2.318a1.717,1.717,0,0,0-.218-.99,2.119,2.119,0,0,0-.931-.614q-1.07-.436-1.466-.634Z"/>
            </g>
        </g>
    </g>
</svg>
