<svg xmlns="http://www.w3.org/2000/svg" width="150" height="182.359" viewBox="0 0 150 182.359">
    <g id="layer1" transform="translate(-1.029 -0.058)">
        <path id="rect2688" d="M1.029.058v149.93h150V.058Zm88.31,12.779c2.232.012,3.306.043,4.218.483,1.824.88,1.168,3.462,1.51,6.313.567,4.731-.514,6.8,3.85,6.8,4.652,0,5.557-1.07,5.557-6.571,0-6.5.127-6.571,12.559-6.571h12.558l.021,13.69c.019,12.7-.5,14.1-7.169,19.359l-7.189,5.669,2.205,27.917c1.213,15.354,3.213,28.574,4.444,29.376,10.332,6.738,11.636,8.68,13.122,19.53l1.574,11.5H21.844l1.647-11.489c1.556-10.85,2.8-12.682,13.32-19.541,1.231-.8,3.231-14.022,4.444-29.376L43.46,52.008l-7.189-5.669C29.6,41.078,29.083,39.685,29.1,26.981l.021-13.689H41.681c12.432,0,12.559.066,12.559,6.571,0,5.549.888,6.571,5.708,6.571,4.841,0,5.708-1.015,5.708-6.68v-6.68l15.558-.12c3.111-.024,5.893-.128,8.125-.116Z"/>
        <g id="text2694">
            <path id="path847" d="M37.436,157.537a20.3,20.3,0,0,1,.238,3.13q0,.317-.02.852a2.19,2.19,0,0,1-.416.059,2.027,2.027,0,0,1-.337-.04,6.95,6.95,0,0,0-2.714-3.566,8.242,8.242,0,0,0-4.655-1.248,7.9,7.9,0,0,0-2.476.337,10.217,10.217,0,0,0-3.13,1.7,9.92,9.92,0,0,0-2.278,2.575,12.9,12.9,0,0,0-1.486,3.625,17.663,17.663,0,0,0-.535,4.338,16.674,16.674,0,0,0,1.288,7.012,8.183,8.183,0,0,0,3.526,3.942,9.67,9.67,0,0,0,4.517,1.169l.931-.02a14.813,14.813,0,0,0,2.159-.376,10.175,10.175,0,0,0,2.377-.971,7.827,7.827,0,0,0,1.842-1.6,9.832,9.832,0,0,0,1.545-2.4l.238-.079a.675.675,0,0,1,.3.119q-.02.475-.04.614-.832,3.348-1.208,4.576-.317.079-.792.238a19.7,19.7,0,0,1-6.2.792,18.79,18.79,0,0,1-4.695-.436,19.555,19.555,0,0,1-3.387-1.307,10.785,10.785,0,0,1-5.448-6.141,14.031,14.031,0,0,1-.852-4.952,13.11,13.11,0,0,1,.674-4.417,15.307,15.307,0,0,1,2.08-3.843,13.231,13.231,0,0,1,3.308-3.229,12.645,12.645,0,0,1,4.259-1.822,23.272,23.272,0,0,1,4.655-.357,14.071,14.071,0,0,1,4.14.594,7.792,7.792,0,0,1,2.6,1.129Z"/>
            <path id="path849" d="M40.368,166.233h1.486l.654.04.515-.04q2.04,0,2.536.04l.02.376q0,2.793-.079,5.408-.059,1.545-.059,1.763a24.964,24.964,0,0,0,.218,4.358,2.39,2.39,0,0,0,1.07,1.406,3.87,3.87,0,0,0,2.04.515,6.578,6.578,0,0,0,2.753-.594,8.484,8.484,0,0,0,2.258-1.486,12.817,12.817,0,0,0,.1-1.664q0-2.952.059-3.982.02-.614.02-1.07,0-3.209-.317-3.625t-2.417-.634q-.693-.079-1.01-.139a.863.863,0,0,1-.158-.4l.059-.218a8.816,8.816,0,0,1,1.01-.059l3.15.04q1.684-.04,1.783-.04.218,0,.416.02l.04,1.446q-.139,3.011-.158,7.448l-.04,1.6.079,2.694a.866.866,0,0,0,.317.376,3.022,3.022,0,0,0,.971.1h.178q.258,0,1.466.119.02.258.02.376v.218a37.523,37.523,0,0,0-4.3,1.149,11.025,11.025,0,0,1-1.109.317q-.1-.693-.1-.852v-1.6q0-.1-.02-.535-.258.178-.594.436a18.3,18.3,0,0,1-3.308,2.04,5.11,5.11,0,0,1-2.258.574,4.23,4.23,0,0,1-3.387-1.545q-1.327-1.545-1.327-5.269,0-.2.02-.713.079-.951.079-1.327,0-.139-.02-.872-.02-.317-.02-.555,0-.178.02-.792.02-.634.02-.891,0-.337-.02-.594l-.04-1.05L43,168a.737.737,0,0,0-.317-.574,13.292,13.292,0,0,0-1.644-.376,3.124,3.124,0,0,1-.674-.178Z"/>
            <path id="path851" d="M62.475,176.752a14.909,14.909,0,0,0,1.109,2.437,5.724,5.724,0,0,0,1.8,1.763,4.433,4.433,0,0,0,2.278.614A3.408,3.408,0,0,0,69.9,180.6a2.256,2.256,0,0,0,.792-1.7,3.584,3.584,0,0,0-.931-2.377,8.9,8.9,0,0,0-3.546-2.04,8.325,8.325,0,0,1-3.486-2.1,3.936,3.936,0,0,1-.891-2.536,4,4,0,0,1,.733-2.377,4.427,4.427,0,0,1,2.021-1.545,6.241,6.241,0,0,1,2.377-.535,13.126,13.126,0,0,1,2.516.218,6.45,6.45,0,0,1,1.941.674q.158,1.01.258,2.971l.04.634q-.258.02-.436.02h-.277a5.591,5.591,0,0,0-1.822-2.6,3.84,3.84,0,0,0-2.4-.971,2.6,2.6,0,0,0-1.922.733,2.507,2.507,0,0,0-.733,1.882,2.366,2.366,0,0,0,.594,1.585,7.948,7.948,0,0,0,2.773,1.585,13.975,13.975,0,0,1,3.189,1.664,4.539,4.539,0,0,1,1.486,1.842,5.2,5.2,0,0,1,.475,2.08,4.121,4.121,0,0,1-.911,2.555,4.7,4.7,0,0,1-2.258,1.664,7.1,7.1,0,0,1-2.417.5,11.4,11.4,0,0,1-4.635-.931.778.778,0,0,1-.218-.594q0-.178-.04-.574-.317-2.674-.317-3.169a.4.4,0,0,1,.1-.317,1,1,0,0,1,.515-.079Z"/>
            <path id="path853" d="M80.086,162.212l.614.02.079,1.882-.04,2.437q.376.02.475.02.515,0,1.961-.079.931-.059,1.783-.059.4,0,1.189.02.04.4.04.634a4.365,4.365,0,0,1-.119.812h-.337l-3.07.1-1.525.04-.357.04a3.775,3.775,0,0,0-.158,1.149l.059,2.971-.04,5.23a4.763,4.763,0,0,0,.535,2.734,1.8,1.8,0,0,0,1.545.693,11,11,0,0,0,1.941-.317,3.467,3.467,0,0,0,1.169-.654h.178a.406.406,0,0,1,.4.4l-.02.139a5.229,5.229,0,0,1-1.961,1.367,8.351,8.351,0,0,1-2.912.416,3.651,3.651,0,0,1-2.139-.594A2.65,2.65,0,0,1,78.3,180.2a16.085,16.085,0,0,1-.238-3.546l.079-4.457-.02-2.139v-.792q0-.555-.04-1.109l-.337-.02-1.624.059-.158.02a.512.512,0,0,1-.337-.1.324.324,0,0,1-.1-.238.509.509,0,0,1,.139-.376,3.616,3.616,0,0,1,.911-.475,4.643,4.643,0,0,0,1.189-.812,6.587,6.587,0,0,0,1.169-1.347,11.73,11.73,0,0,0,.674-1.506q.317-.812.475-1.149Z"/>
            <path id="path855" d="M87.673,173.82a8.422,8.422,0,0,1,.555-2.872,8.01,8.01,0,0,1,1.723-2.753,7.9,7.9,0,0,1,2.437-1.822,10.453,10.453,0,0,1,4.4-.832,8.286,8.286,0,0,1,6.181,2.536,8.384,8.384,0,0,1,2.5,6.1,7.65,7.65,0,0,1-2.615,5.665,9.143,9.143,0,0,1-6.577,2.476,8.965,8.965,0,0,1-4.635-1.288,8.333,8.333,0,0,1-2.793-2.872,8.116,8.116,0,0,1-1.169-4.338Zm8.756,7.726a5.574,5.574,0,0,0,5.131-3.407,9.829,9.829,0,0,0,.832-4.16,11.97,11.97,0,0,0-.654-3.585,5.829,5.829,0,0,0-1.981-3.051,4.956,4.956,0,0,0-3.13-1.03,6.5,6.5,0,0,0-2.674.614,5.158,5.158,0,0,0-2.3,2.357,10.69,10.69,0,0,0-.931,4.952,8.094,8.094,0,0,0,1.624,5.467,5.249,5.249,0,0,0,4.081,1.842Z"/>
            <path id="path857" d="M107.7,181.09a2.046,2.046,0,0,1,.872-.3,3.907,3.907,0,0,0,1.228-.317,1.466,1.466,0,0,0,.475-.852,46.161,46.161,0,0,0,.139-5.012,34.6,34.6,0,0,0-.258-5.448,3.6,3.6,0,0,0-1.129-.436q-.218-.04-.911-.218v-.654a5.8,5.8,0,0,0,1.882-.872,12.61,12.61,0,0,0,2.021-2.139h.119q.119,0,.376-.02a.5.5,0,0,1,.258.1l-.02,2.258q0,.693.04,1.486a15.74,15.74,0,0,1,3.8-2.694,6.278,6.278,0,0,1,2.6-.515,4.984,4.984,0,0,1,2.734.654,6.248,6.248,0,0,1,1.922,2.357,12.706,12.706,0,0,1,3.189-2.437,6.679,6.679,0,0,1,2.912-.693,4.9,4.9,0,0,1,3.645,1.446,6.107,6.107,0,0,1,1.446,4.3v1.644l.02,1.8-.02,4.635a1.71,1.71,0,0,0,.357,1.228q.158.059,1.208.357a2.859,2.859,0,0,1,.773.277.341.341,0,0,1,.119.277,1.424,1.424,0,0,1-.119.515h-.139l-2-.119q-.357-.02-1.129-.02-.951,0-2.654.079h-1.01q-.218,0-.852.02a2.907,2.907,0,0,1-.02-.317.838.838,0,0,1,.139-.4,5.831,5.831,0,0,1,1.466-.376q.931-.158,1.149-.535a10.128,10.128,0,0,0,.238-3.09q0-5.844-.139-6.775a3.581,3.581,0,0,0-1.268-2.318,3.828,3.828,0,0,0-2.555-.852,4.679,4.679,0,0,0-2.318.634,8.239,8.239,0,0,0-2.219,1.862l-.02.475v3.031l-.079,2.357q0,3.605.059,4.1a1.229,1.229,0,0,0,.337.733,4.183,4.183,0,0,0,1.565.4,8.908,8.908,0,0,1,.891.158.639.639,0,0,1,.238.515.372.372,0,0,1-.178.357h-.337l-.99-.02h-5.765l-1.585.02a3.689,3.689,0,0,1-.04-.436l.02-.238a6.139,6.139,0,0,1,1.624-.456,6.951,6.951,0,0,0,1.268-.337.6.6,0,0,0,.178-.258,7.636,7.636,0,0,0,.139-1.585l.1-2.3-.04-2.6.02-1.446a5.242,5.242,0,0,0-.99-3.546,3.179,3.179,0,0,0-2.5-1.129,6.436,6.436,0,0,0-2.833.693,6.766,6.766,0,0,0-2.337,1.862q-.02.555-.02,1.01l.079,6.656a7.344,7.344,0,0,0,.238,2.5,1.638,1.638,0,0,0,1.03.416,4.5,4.5,0,0,1,1.644.436.4.4,0,0,1,.178.357q0,.158-.02.376-2.258-.158-3.031-.158-.792,0-1.426.02l-.99.059h-.614l-2.219.079a.888.888,0,0,1-.04-.238,1.965,1.965,0,0,1,.079-.4Z"/>
        </g>
    </g>
</svg>