<svg
   width="1600"
   height="1941.3333"
   viewBox="0 0 1600 1941.3333"
>
  <g>
    <path
       style="stroke-width:1.06667"
       d="m 677.19618,1871.4002 c -11.1598,-2.0746 -26.0509,-6.8102 -28.2126,-8.9719 -1.9069,-1.9069 -4.83,-26.3923 -4.8454,-40.5874 -0.01,-7.8163 0.055,-8.0074 2.7539,-8.3211 2.5245,-0.2933 3.0603,0.3962 6.2158,8 10.2597,24.7224 25.1892,38.7418 44.5097,41.7967 17.2005,2.7198 35.5763,-8.0832 38.883,-22.8587 1.6366,-7.3131 -0.6334,-17.53 -5.6221,-25.3042 -6.1042,-9.5125 -22.1788,-19.859 -41.2454,-26.5479 -20.0058,-7.0182 -35.0748,-17.6434 -41.3624,-29.1648 -10.6785,-19.5669 -4.475,-44.2092 14.2824,-56.7349 7.9923,-5.3371 21.541,-9.8313 32.0909,-10.6448 14.7661,-1.1387 41.8768,3.5707 48.4408,8.4147 1.9834,1.4636 3.2197,9.3986 4.4923,28.8317 l 0.6811,10.4 h -3.7195 c -3.4469,0 -3.9093,-0.4104 -6.3099,-5.6 -13.8203,-29.8765 -47.9131,-41.9766 -64.3072,-22.8237 -7.2337,8.4509 -8.5324,20.3815 -3.3257,30.5517 3.2095,6.269 15.9442,14.9823 30.2836,20.7204 30.4477,12.1842 44.2817,22.2095 51.427,37.2683 8.5322,17.9815 6.7004,36.8888 -4.9708,51.3074 -6.9354,8.568 -14.8412,13.7795 -26.9395,17.7586 -12.4538,4.096 -29.3787,5.0792 -43.2,2.5099 z m -396.26671,-0.1475 c -20.78892,-2.1163 -38.17196,-6.9013 -56.95099,-15.6768 -44.21828,-20.6633 -68.85459,-59.6072 -71.73393,-113.3938 -1.34282,-25.0839 3.11699,-47.2426 13.91581,-69.1412 21.31246,-43.2189 55.10128,-70.7572 97.70245,-79.629 15.16134,-3.1573 57.41464,-4.0176 72.60206,-1.4781 14.81763,2.4778 30.94716,7.3831 39.60001,12.0433 l 7.1354,3.8429 0.8393,7.0105 c 0.4616,3.8557 0.8506,13.4904 0.8646,21.4104 l 0.025,14.4 -3.4053,0.3297 c -3.2744,0.317 -3.5449,0.03 -7.03866,-7.4667 -9.2179,-19.7792 -24.89694,-33.1959 -47.15608,-40.3518 -11.45382,-3.6823 -37.29202,-4.2828 -49.68156,-1.1548 -29.68229,7.494 -56.14033,30.2758 -69.60127,59.9306 -22.04052,48.5559 -18.69059,121.0813 7.41946,160.6299 25.83644,39.1342 81.85596,51.2462 129.9967,28.1067 14.06715,-6.7616 26.72694,-19.2922 36.98201,-36.6045 4.4363,-7.4893 6,-9.3177 7.7541,-9.0667 1.3215,0.189 2.33,1.2471 2.5303,2.6547 0.3079,2.1641 -10.0569,44.3209 -12.4265,50.5422 -0.8568,2.2495 -2.517,3.1857 -9.13189,5.1495 -11.14572,3.3088 -26.21128,6.2913 -38.11041,7.5445 -9.31787,0.9814 -43.72136,1.2246 -52.13094,0.3685 z m 716.26672,0.03 c -24.682,-3.9507 -46.7789,-16.4913 -60.1266,-34.1236 -7.1515,-9.4471 -13.437,-22.1697 -16.2627,-32.9178 -2.6838,-10.2087 -3.2037,-29.6495 -1.0554,-39.4666 6.6918,-30.5794 29.4179,-56.6535 57.1105,-65.5242 14.9553,-4.7906 22.2664,-5.716 40.95741,-5.1835 15.333,0.4369 17.5452,0.7594 26.8435,3.9131 5.5733,1.8902 13.4933,5.4019 17.6,7.8036 10.3806,6.0708 27.4024,23.4253 33.274,33.9243 16.69,29.8433 15.4675,64.4073 -3.2446,91.7333 -4.7579,6.9483 -16.8811,18.45 -25.4534,24.1489 -8.4746,5.6339 -19.3459,10.4652 -30.176,13.4105 -7.3985,2.012 -32.1956,3.4458 -39.46671,2.282 z m 28.74421,-9.4717 c 28.3499,-7.3842 46.587,-34.3943 48.3212,-71.5661 0.6501,-13.9366 -0.7777,-25.1479 -5.1287,-40.2692 -4.123,-14.329 -8.4628,-22.8529 -15.5116,-30.4664 -13.762,-14.8646 -30.9266,-20.4249 -51.5954,-16.714 -27.55661,4.9476 -44.35941,24.4338 -50.22531,58.246 -1.9617,11.3078 -1.6595,40.7288 0.515,50.1334 4.3445,18.7898 16.1135,36.8589 28.8806,44.3411 13.0528,7.6495 30.25361,10.0695 44.74421,6.2952 z m -184.57321,7.9607 c -7.063,-1.7081 -15.5506,-7.4153 -19.2513,-12.9451 -5.8698,-8.7711 -6.1889,-13.003 -5.8349,-77.3853 0.3059,-55.6164 0.2417,-57.8713 -1.6499,-57.9862 -1.0826,-0.066 -7.073,-0.022 -13.3122,0.097 -12.13421,0.2315 -13.35381,-0.2518 -12.20331,-4.8359 0.4883,-1.9456 2.862,-3.7146 9.38691,-6.9952 9.0127,-4.5315 19.4265,-13.4199 24.7891,-21.1581 1.5375,-2.2186 5.1624,-9.7019 8.0552,-16.6295 2.8929,-6.9276 5.6324,-12.9553 6.0879,-13.395 0.4555,-0.4397 2.1481,-0.5404 3.7615,-0.2238 l 2.9333,0.5757 v 22.7645 22.7645 l 28.8,-0.6587 28.8,-0.6588 -0.016,6.3031 c -0.01,3.4668 -0.3847,6.8829 -0.835,7.5914 -0.5798,0.9123 -8.8081,1.5458 -28.1991,2.171 -15.0592,0.4856 -27.7635,1.266 -28.2317,1.7343 -0.4681,0.4684 -0.8512,26.8514 -0.8512,58.629 v 57.7776 l 2.4788,6.1392 c 3.4234,8.4785 7.8905,11.7722 16.7292,12.335 9.7117,0.6184 20.9358,-1.6018 29.1535,-5.7666 8.1944,-4.153 10.3362,-4.4392 11.8638,-1.5849 2.4601,4.5968 -11.1842,14.988 -25.0253,19.0587 -9.6522,2.8389 -29.9975,4.0794 -37.429,2.2823 z m -365.17211,-2.0348 c -16.1934,-5.9874 -26.3028,-18.3118 -31.1853,-38.0182 -2.2506,-9.0834 -2.3509,-11.6126 -2.4142,-60.8318 -0.077,-59.7503 0.9993,-54.6741 -12.1907,-57.4998 -16.3116,-3.4949 -16.1421,-3.4222 -16.1421,-6.9205 v -3.159 h 27.8396 27.8396 l -0.7673,54.1333 c -0.8704,61.4029 -0.3014,71.138 4.6292,79.2 5.8412,9.5511 19.5386,14.7839 35.2657,13.4723 14.5061,-1.2098 28.3816,-6.7465 41.392,-16.5169 6.5959,-4.9532 6.5991,-4.9583 7.1607,-11.3554 0.309,-3.52 0.8254,-22.48 1.1474,-42.1333 0.5802,-35.414 -0.3503,-56.5213 -2.684,-60.8818 -1.8056,-3.3739 -7.304,-5.1682 -22.6321,-7.3854 -13.8439,-2.0026 -15.6738,-2.7791 -15.7078,-6.6662 -0.013,-1.5401 0.9631,-1.8703 5.5837,-1.8875 35.8143,-0.1335 61.9811,0.047 62.3636,0.4289 0.2592,0.2592 0.022,27.0335 -0.5266,59.4983 -0.9285,54.9283 -0.8515,74.9621 0.3091,80.4442 0.6383,3.0148 4.828,4.7161 11.6143,4.7161 3.113,0 8.6104,0.3084 12.2165,0.6854 6.3597,0.6646 6.5564,0.7777 6.5564,3.7667 0,1.6949 -0.6,3.2542 -1.3333,3.4652 -0.7333,0.2108 -6.8533,1.7135 -13.6,3.3389 -6.7467,1.6255 -18.1941,4.7979 -25.4387,7.0496 -7.2447,2.2519 -14.0847,4.0942 -15.2,4.0942 -1.8859,0 -2.0291,-0.9524 -2.0443,-13.6 -0.01,-7.48 -0.4327,-14.2571 -0.9415,-15.0604 -0.7185,-1.1341 -3.1228,0.1175 -10.7603,5.6017 -11.7277,8.4211 -28.8142,18.1734 -37.1804,21.2213 -8.9468,3.2594 -25.4412,3.6571 -33.1692,0.7997 z m 888.14992,-3.2687 c -1.0612,-4.0432 1.1021,-6.0494 8.4976,-7.8802 13.1586,-3.2574 18.2403,-4.8971 19.3134,-6.2314 3.0071,-3.7394 3.6537,-13.818 3.4936,-54.4534 -0.09,-22.7727 -0.5993,-45.2297 -1.1325,-49.9045 -2.2634,-19.8446 -16.2775,-33.7278 -36.1037,-35.7663 -14.6025,-1.5015 -31.1198,5.3245 -44.9706,18.5847 l -8.5905,8.2242 -0.1695,53.3334 c -0.1519,47.8038 0.014,53.679 1.5977,56.6677 2.222,4.1929 7.281,6.2813 19.0219,7.8521 9.6803,1.2952 11.9543,2.7864 11.4057,7.4792 l -0.3119,2.6676 -46.6667,0.2779 -46.6666,0.2779 v -3.6588 c 0,-3.4269 0.3211,-3.7614 5.0666,-5.2756 2.7867,-0.8893 7.9467,-2.1661 11.4667,-2.8375 11.6246,-2.2172 14.5303,-3.3896 15.654,-6.3167 1.6191,-4.2175 2.9169,-40.195 2.5805,-71.5338 -0.3388,-31.5479 -1.1035,-35.7658 -8.6127,-47.5046 -6.617,-10.344 -15.8731,-14.9322 -29.8885,-14.8156 -16.8097,0.14 -33.5816,7.176 -46.7762,19.6232 l -7.3702,6.9526 0.6419,49.6056 c 0.5863,45.3097 1.1353,55.0543 3.2981,58.5539 1.3094,2.1184 6.3131,4.1133 12.3398,4.9195 3.2266,0.4316 8.3866,1.7224 11.4666,2.8683 5.2873,1.9673 5.6,2.2915 5.6,5.8049 v 3.7213 l -7.2,-0.5705 c -19.3227,-1.5311 -29.5002,-1.6544 -53.546,-0.6485 -15.4525,0.6464 -26.4706,0.6999 -27.0394,0.1311 -1.4405,-1.4405 0.1532,-5.2776 2.775,-6.6807 1.2714,-0.6805 5.6261,-1.8688 9.6769,-2.6407 8.9238,-1.7002 12.0315,-3.595 14.3285,-8.7362 1.5329,-3.431 1.7535,-9.6069 1.7775,-49.7836 0.015,-25.2267 -0.3766,-50.0795 -0.8706,-55.2284 l -0.8981,-9.3617 -3.9019,-1.9536 c -2.146,-1.0745 -5.3419,-2.2883 -7.1019,-2.6974 -10.9884,-2.5541 -11.2,-2.6693 -11.2,-6.1 0,-2.4804 0.5721,-3.4083 2.3952,-3.885 1.3174,-0.3445 6.0879,-2.4746 10.6013,-4.7336 6.8002,-3.4037 10.001,-6.0014 18.6835,-15.1637 9.8719,-10.4172 11.759,-11.7016 16.7488,-11.3995 1.9078,0.1155 1.997,0.9025 1.4972,13.1895 -0.2924,7.1867 -0.2452,16.0326 0.1045,19.6575 l 0.6362,6.5907 8.1034,-6.6534 c 15.8893,-13.0464 31.3578,-21.9533 42.8189,-24.6555 12.9847,-3.0614 30.2427,-1.8187 41.6223,2.997 5.4975,2.3265 14.6875,11.2605 20.0503,19.4915 2.4506,3.7613 4.6828,6.8389 4.9604,6.8389 0.2776,0 4.0319,-3.24 8.343,-7.2 9.8328,-9.0321 23.6221,-17.739 33.7657,-21.3205 11.2393,-3.9686 28.6496,-4.6451 38.9583,-1.5139 14.5441,4.4176 24.4534,13.1386 31.3509,27.5911 5.9285,12.4217 6.2546,16.1726 6.2749,72.1488 0.016,43.4614 0.2596,51.5468 1.6422,54.4604 1.472,3.1019 2.6732,3.7427 12.8623,6.8614 l 11.2389,3.4399 -0.3291,3.8972 -0.3291,3.897 -41.2771,0.069 c -36.2764,0.061 -41.3292,-0.1293 -41.7074,-1.5705 z M 217.99614,1423.5703 c 0,-3.3971 20.41943,-143.2566 22.91162,-156.9294 14.11766,-77.4532 32.46759,-102.4335 116.74873,-158.9333 24.06779,-16.1344 23.34309,-15.1677 29.40139,-39.2201 13.5755,-53.8961 27.2147,-161.98647 38.8619,-307.97984 14.6261,-183.33341 21.5873,-274.26526 21.0944,-275.54983 -0.3106,-0.80939 -19.4534,-16.36349 -42.5396,-34.56468 -49.55442,-39.06874 -55.18803,-43.69397 -66.66366,-54.73111 -27.29072,-26.24796 -36.40795,-46.88428 -40.97938,-92.75438 -0.78913,-7.91826 -1.39998,-50.98695 -1.72317,-121.49487 l -0.50067,-109.228216 102.22758,0.6694 c 56.2251,0.36817 107.5075,1.15944 113.9609,1.75837 25.8902,2.40285 37.9125,7.06126 43.9355,17.02418 1.8712,3.09525 3.9601,8.0975 4.6419,11.116106 0.6818,3.0186 1.637,19.40837 2.1227,36.4217 1.2283,43.02152 3.5735,53.50644 14.0812,62.95372 6.9094,6.2122 15.2635,8.78563 33.4938,10.31758 16.804,1.41209 37.8156,-0.0509 48.6086,-3.38451 8.9302,-2.75827 16.6273,-9.36778 19.977,-17.15437 5.1221,-11.90666 5.6082,-17.51916 6.161,-71.13242 l 0.5196,-50.399996 34.296,0.0107 c 18.8628,0.005 79.25151,-0.53286 134.19711,-1.19675 106.0195,-1.28098 115.599,-1.02103 125.6169,3.40875 12.2245,5.40548 14.8238,11.83721 16.1296,39.911016 0.5184,11.14667 1.4349,25.54667 2.0366,32 0.6017,6.45333 1.5912,19.25801 2.199,28.45485 1.60861,24.34219 4.36501,31.25721 14.32591,35.93941 10.4094,4.89298 41.3374,5.26177 56.776,0.67701 7.6426,-2.26959 15.2254,-7.67863 18.6983,-13.33794 5.8808,-9.58292 7.3202,-18.73439 8.3193,-52.89431 0.4992,-17.06522 1.4588,-34.06689 2.1324,-37.78151 3.3203,-18.310636 12.4345,-25.722576 36.1815,-29.423696 14.5006,-2.26001 69.7783,-3.53528 155.5501,-3.58857 l 72.8,-0.0456 V 174.12589 c 0,58.83271 -0.4678,108.79631 -1.1111,118.66667 -3.5936,55.14024 -13.5932,78.18158 -46.8983,108.06476 -6.1549,5.52245 -31.5906,26.12387 -56.5239,45.78095 -24.9334,19.65709 -45.9211,36.2841 -46.6394,36.94891 -1.0268,0.95028 1.3084,34.27732 10.9211,155.86462 13.7247,173.59883 14.4561,182.43843 18.1826,219.72253 9.9815,99.8694 21.8368,179.88117 32.0677,216.42817 4.676,16.7038 5.0046,17.1006 25.468,30.758 84.7409,56.5567 103.5884,82.57 117.2878,161.8804 1.9852,11.493 21.9122,153.6898 21.9122,156.363 0,0.2404 -274.56,0.437 -610.13341,0.437 -517.78001,0 -610.13335,-0.2226 -610.13335,-1.4706 z"
       id="path944" />
  </g>
</svg>
