<svg xmlns="http://www.w3.org/2000/svg" width="150" height="181.828" viewBox="0 0 150 181.828">
    <g id="layer1" transform="translate(-0.306 -0.367)">
        <g id="g32" transform="translate(-23.283 -10.054)">
            <path id="rect910" d="M23.589,10.421v150h150v-150Zm82.191,4.764c1.512-.064,2.756,2.136,4.425,6.753,1.746,4.828,5.893,9.238,12.941,13.76,13.191,8.465,23.34,20.307,27.081,31.6,1.916,5.784,2.965,18.569,3.028,36.909.053,15.433.858,31.568,1.79,35.855l1.694,7.794H106.624c-46.687,0-50.116-.253-50.116-3.7,0-13.743,12.9-39.945,19.671-39.945,1.4,0,4.242-1.871,6.311-4.157a14.735,14.735,0,0,1,9.779-4.157c13.677,0,26.653-12.092,26.51-24.7l-.086-7.514L114.1,72.9c-6.8,13.667-13.381,17.594-29.93,17.86-12.82.206-14.2.69-19.264,6.755l-5.455,6.533L51.477,99.24,43.5,94.426l4.784-3.351c4.291-3.006,4.412-3.494,1.168-4.738a6.084,6.084,0,0,0-5.971.967c-4.381,4.381-5.68,2.389-5.68-8.71V67.529l14.3-9.772c7.866-5.375,16.567-11.871,19.334-14.435A143.631,143.631,0,0,1,87.107,31.832c5.85-3.754,12.137-9.115,13.97-11.913,2.014-3.074,3.45-4.682,4.7-4.735Z"/>
            <g id="text916">
                <path id="path848" d="M44.883,167.071q.158,1.307.158,1.505l-.079,1.763a12.881,12.881,0,0,1-.1,1.446.768.768,0,0,1-.3.079l-.178-.04a7.139,7.139,0,0,0-2.159-4.041,5.527,5.527,0,0,0-3.685-1.268,5.413,5.413,0,0,0-3.7,1.268,3.826,3.826,0,0,0-1.446,2.952,3.364,3.364,0,0,0,1.01,2.357,22.979,22.979,0,0,0,5.17,3.209A32.992,32.992,0,0,1,44.11,179a6.925,6.925,0,0,1,2.06,2.4,6.646,6.646,0,0,1,.693,3.051,7.65,7.65,0,0,1-1.109,3.982,7.118,7.118,0,0,1-2.952,2.813,11.093,11.093,0,0,1-4.933.931,15.548,15.548,0,0,1-5.131-.852,5.817,5.817,0,0,1-1.763-.832.947.947,0,0,1-.317-.674,4.924,4.924,0,0,1,.04-.555,38.123,38.123,0,0,0,.3-3.843,3.419,3.419,0,0,1,.139-1.09.312.312,0,0,1,.3-.139.321.321,0,0,1,.277.139.822.822,0,0,1,.158.475,6.716,6.716,0,0,0,2.258,4.358A6.468,6.468,0,0,0,38.7,191.08a6.332,6.332,0,0,0,2.872-.654,4.822,4.822,0,0,0,2.06-1.882,4.68,4.68,0,0,0,.753-2.417,4.421,4.421,0,0,0-1.129-2.932,15.842,15.842,0,0,0-4.536-3.09,34.3,34.3,0,0,1-4.437-2.6,9.779,9.779,0,0,1-2.5-2.813,5.59,5.59,0,0,1-.614-2.674,5.949,5.949,0,0,1,2.179-4.655,8.517,8.517,0,0,1,5.844-1.921,11.813,11.813,0,0,1,3.486.456,8.3,8.3,0,0,1,2.2,1.169Z"/>
                <path id="path850" d="M54.213,171.944l.614.02.079,1.882-.04,2.437q.376.02.475.02.515,0,1.961-.079.931-.059,1.783-.059.4,0,1.189.02.04.4.04.634a4.365,4.365,0,0,1-.119.812h-.337l-3.07.1-1.525.04-.357.04a3.775,3.775,0,0,0-.158,1.149l.059,2.971-.04,5.23a4.763,4.763,0,0,0,.535,2.734,1.8,1.8,0,0,0,1.545.693,11,11,0,0,0,1.941-.317,3.467,3.467,0,0,0,1.169-.654h.178a.406.406,0,0,1,.4.4l-.02.139a5.23,5.23,0,0,1-1.961,1.367,8.351,8.351,0,0,1-2.912.416,3.651,3.651,0,0,1-2.139-.594,2.65,2.65,0,0,1-1.07-1.406,16.085,16.085,0,0,1-.238-3.546l.079-4.457-.02-2.139V179q0-.555-.04-1.109l-.337-.02-1.624.059-.158.02a.512.512,0,0,1-.337-.1.324.324,0,0,1-.1-.238.509.509,0,0,1,.139-.376,3.615,3.615,0,0,1,.911-.475,4.643,4.643,0,0,0,1.189-.812,6.587,6.587,0,0,0,1.169-1.347,11.727,11.727,0,0,0,.674-1.505q.317-.812.475-1.149Z"/>
                <path id="path852" d="M76.459,188.822a1.049,1.049,0,0,1,.119.376,2.554,2.554,0,0,1-.475,1.05,4.265,4.265,0,0,1-1.367,1.446,2.458,2.458,0,0,1-1.307.3,2.6,2.6,0,0,1-2.139-.872,3.711,3.711,0,0,1-.614-1.842l-2.219,1.545a9.117,9.117,0,0,1-1.783.852,9.552,9.552,0,0,1-2.377.258,2.168,2.168,0,0,1-1.6-.594,2.2,2.2,0,0,1-.574-1.565,5.434,5.434,0,0,1,1.664-3.269,12.365,12.365,0,0,1,4.556-3.11q2.021-.852,2.476-1.09.04-.654.04-1.426a5.765,5.765,0,0,0-.713-3.407,2.383,2.383,0,0,0-2-.891,3.76,3.76,0,0,0-2.555,1.07,4.736,4.736,0,0,0-1.109,2.536,4.2,4.2,0,0,1-.456,1.109,2.773,2.773,0,0,1-1.367.555,1.322,1.322,0,0,1-.792-.258.39.39,0,0,1-.2-.317,6.794,6.794,0,0,1,1.09-2.318,7.271,7.271,0,0,1,2.773-2.714,6.377,6.377,0,0,1,2.932-.911,7.58,7.58,0,0,1,2.536.317,3.347,3.347,0,0,1,1.466,1.07,3.44,3.44,0,0,1,.773,1.684,30.96,30.96,0,0,1,.079,3.11l-.059,3.15.02,2.3q0,.456-.02.773-.02.574-.02.852a1.461,1.461,0,0,0,.376,1.05,1.189,1.189,0,0,0,.891.4,1.554,1.554,0,0,0,1.288-.753l.238-.317a1.848,1.848,0,0,1,.436-.139Zm-5.824-.574q.139-2.516.139-3.546,0-.535-.059-1.446A13.592,13.592,0,0,0,67.9,184.7a8.346,8.346,0,0,0-2.357,2.238,3.056,3.056,0,0,0-.634,1.723,1.747,1.747,0,0,0,.515,1.288,1.839,1.839,0,0,0,1.327.515,3.462,3.462,0,0,0,1.486-.436,9.924,9.924,0,0,0,2.4-1.783Z"/>
                <path id="path854" d="M77.588,190.882a9.675,9.675,0,0,1,1.149-.238,3.313,3.313,0,0,0,1.486-.416,1.562,1.562,0,0,0,.258-1.09l.04-.713q.02-.4.02-1.01l-.04-6.081a2.616,2.616,0,0,0-.317-1.585,3.489,3.489,0,0,0-1.981-.773v-.713a5.991,5.991,0,0,0,2.219-1.03,7.1,7.1,0,0,0,1.9-2.417l.674.02q.059.931.059,1.327v1.307l.02.357q.238-.158.555-.4a12.58,12.58,0,0,1,2.437-1.446,11.4,11.4,0,0,1,2.219-.792,5.56,5.56,0,0,1,1.387-.158,4.54,4.54,0,0,1,2.793.872,3.891,3.891,0,0,1,1.506,2.06,19.441,19.441,0,0,1,.357,4.675v2.991q0,.119-.04.792-.02.674-.02,1.545a7.726,7.726,0,0,0,.119,1.763,1.185,1.185,0,0,0,.515.515,4.65,4.65,0,0,1,2.219.614v.158a1.394,1.394,0,0,1-.119.5h-.376l-2.615-.02-2.575.04q-1.426.04-2.635-.02l-.119-.416a.619.619,0,0,1,.139-.317,4.786,4.786,0,0,1,1.506-.317,3.334,3.334,0,0,0,.792-.119,2.22,2.22,0,0,0,.535-.317,1.869,1.869,0,0,0,.238-.792q0-.139-.04-.555-.059-.911-.079-4.536v-1.03l.04-1.585q0-2.555-1.03-3.526a3.851,3.851,0,0,0-2.753-.971,6.053,6.053,0,0,0-2.6.594,8.6,8.6,0,0,0-2.456,1.743q-.04.951-.04,1.624L83,185.375q0,3.427.1,4.2a.881.881,0,0,0,.139.436,1.314,1.314,0,0,0,.634.258q.475.1,1.09.277.634.178.832.218a.745.745,0,0,1,.535.4l-.02.4h-2.08l-4.279-.059q-1.486.04-1.882.04h-.5l-.04-.258a1.908,1.908,0,0,1,.059-.4Z"/>
                <path id="path856" d="M111.977,177.134l.02-.574-.02-2.318.02-4.378a4.275,4.275,0,0,0-.4-2.318,5.073,5.073,0,0,0-2.318-1.01q-.139-.04-.436-.119V166.2a2.669,2.669,0,0,1,.04-.436,21.567,21.567,0,0,0,4.635-.931l1.01-.02q.079,1.347.079,3.011l-.079,7.627.139,8.6-.059,4.576q0,1.406.2,1.585a2.669,2.669,0,0,0,1.743.416q.277,0,.753.04v.357a2.4,2.4,0,0,1-.02.3q-.614.139-1.268.258l-2.872.555a5.791,5.791,0,0,1-1.01.119v-1.9q-.337.1-1.05.4a14.711,14.711,0,0,1-5.685,1.307,6.022,6.022,0,0,1-3.189-1.01,6.736,6.736,0,0,1-2.5-2.853,8.545,8.545,0,0,1-.872-3.724,9.246,9.246,0,0,1,.574-3.249,7.857,7.857,0,0,1,1.506-2.6,7.12,7.12,0,0,1,1.684-1.327,6.831,6.831,0,0,1,1.8-.852,11.966,11.966,0,0,1,2.357-.456,10.564,10.564,0,0,1,4.4.792q.535.258.812.357Zm.02,12.242q.079-1.327.079-5.467a16.95,16.95,0,0,0-.337-4.417,3.574,3.574,0,0,0-1.624-1.743,5.346,5.346,0,0,0-2.932-.832,5,5,0,0,0-3.863,1.763,7.565,7.565,0,0,0-1.585,5.21,6.749,6.749,0,0,0,1.7,4.833,5.68,5.68,0,0,0,4.279,1.8,8.548,8.548,0,0,0,2.674-.4,4.9,4.9,0,0,0,1.6-.753Z"/>
                <path id="path858" d="M133.906,188.822a1.049,1.049,0,0,1,.119.376,2.554,2.554,0,0,1-.475,1.05,4.265,4.265,0,0,1-1.367,1.446,2.457,2.457,0,0,1-1.307.3,2.6,2.6,0,0,1-2.139-.872,3.711,3.711,0,0,1-.614-1.842l-2.219,1.545a9.117,9.117,0,0,1-1.783.852,9.552,9.552,0,0,1-2.377.258,2.168,2.168,0,0,1-1.6-.594,2.2,2.2,0,0,1-.574-1.565,5.434,5.434,0,0,1,1.664-3.269,12.365,12.365,0,0,1,4.556-3.11q2.021-.852,2.476-1.09.04-.654.04-1.426a5.765,5.765,0,0,0-.713-3.407,2.383,2.383,0,0,0-2-.891,3.76,3.76,0,0,0-2.555,1.07,4.736,4.736,0,0,0-1.109,2.536,4.2,4.2,0,0,1-.456,1.109,2.773,2.773,0,0,1-1.367.555,1.322,1.322,0,0,1-.792-.258.39.39,0,0,1-.2-.317,6.793,6.793,0,0,1,1.09-2.318,7.271,7.271,0,0,1,2.773-2.714,6.377,6.377,0,0,1,2.932-.911,7.58,7.58,0,0,1,2.536.317,3.347,3.347,0,0,1,1.466,1.07,3.44,3.44,0,0,1,.773,1.684,30.978,30.978,0,0,1,.079,3.11l-.059,3.15.02,2.3q0,.456-.02.773-.02.574-.02.852a1.461,1.461,0,0,0,.376,1.05,1.189,1.189,0,0,0,.891.4,1.554,1.554,0,0,0,1.288-.753l.238-.317a1.849,1.849,0,0,1,.436-.139Zm-5.824-.574q.139-2.516.139-3.546,0-.535-.059-1.446a13.592,13.592,0,0,0-2.813,1.446,8.346,8.346,0,0,0-2.357,2.238,3.056,3.056,0,0,0-.634,1.723,1.747,1.747,0,0,0,.515,1.288,1.839,1.839,0,0,0,1.327.515,3.462,3.462,0,0,0,1.486-.436,9.924,9.924,0,0,0,2.4-1.783Z"/>
                <path id="path860" d="M135.094,191.575l-.079-.258a.908.908,0,0,1,.178-.416l1.169-.238,1.644-.3a.566.566,0,0,0,.277-.277,5.34,5.34,0,0,0,.119-1.525q0-6.735-.079-7.765a2.312,2.312,0,0,0-.357-1.327,2.855,2.855,0,0,0-1.426-.436,4.887,4.887,0,0,1-1.07-.258l.079-.594a11.259,11.259,0,0,0,2.793-1.466,7.394,7.394,0,0,0,1.684-2.337l.674.02q.119.99.119,4.4l-.02.337a2.781,2.781,0,0,0,.04.376A11.48,11.48,0,0,1,142.721,177l.456-.456a3,3,0,0,1,.535-.5,4.728,4.728,0,0,1,2.06-.832,1.863,1.863,0,0,1,1.426.594,1.973,1.973,0,0,1,.555,1.426,1.379,1.379,0,0,1-.4,1.05,1.755,1.755,0,0,1-1.228.5,4.732,4.732,0,0,1-1.248-.337,4.793,4.793,0,0,0-1.228-.337,1.252,1.252,0,0,0-.773.178,6.727,6.727,0,0,0-1.347,1.783,3.643,3.643,0,0,0-.614,1.862l.1,3.269.04,3.922a2.966,2.966,0,0,0,.158.872,1.2,1.2,0,0,0,.4.337q2.139.178,2.536.258.277.02.416.04a2.435,2.435,0,0,1,1.189.238.32.32,0,0,1,.178.3.581.581,0,0,1-.158.317l-2.2-.02-.832-.02-1.208.02h-2.021l-1.09.059Z"/>
                <path id="path862" d="M162.292,177.134l.02-.574-.02-2.318.02-4.378a4.275,4.275,0,0,0-.4-2.318,5.073,5.073,0,0,0-2.318-1.01q-.139-.04-.436-.119V166.2a2.669,2.669,0,0,1,.04-.436,21.567,21.567,0,0,0,4.635-.931l1.01-.02q.079,1.347.079,3.011l-.079,7.627.139,8.6-.059,4.576q0,1.406.2,1.585a2.669,2.669,0,0,0,1.743.416q.277,0,.753.04v.357a2.4,2.4,0,0,1-.02.3q-.614.139-1.268.258l-2.872.555a5.791,5.791,0,0,1-1.01.119v-1.9q-.337.1-1.05.4a14.711,14.711,0,0,1-5.685,1.307,6.022,6.022,0,0,1-3.189-1.01,6.736,6.736,0,0,1-2.5-2.853,8.546,8.546,0,0,1-.872-3.724,9.246,9.246,0,0,1,.574-3.249,7.857,7.857,0,0,1,1.506-2.6,7.121,7.121,0,0,1,1.684-1.327,6.831,6.831,0,0,1,1.8-.852,11.966,11.966,0,0,1,2.357-.456,10.564,10.564,0,0,1,4.4.792q.535.258.812.357Zm.02,12.242q.079-1.327.079-5.467a16.951,16.951,0,0,0-.337-4.417,3.574,3.574,0,0,0-1.624-1.743,5.346,5.346,0,0,0-2.932-.832,5,5,0,0,0-3.863,1.763,7.565,7.565,0,0,0-1.585,5.21,6.749,6.749,0,0,0,1.7,4.833,5.68,5.68,0,0,0,4.279,1.8,8.548,8.548,0,0,0,2.674-.4,4.895,4.895,0,0,0,1.6-.753Z"/>
            </g>
        </g>
    </g>
</svg>