<svg
   width="1600"
   height="1941.3333"
   viewBox="0 0 1600 1941.3333"
>
  <g
     transform="translate(759.27324,903.38979)">
    <g
       id="g4893"
       transform="matrix(2.6885563,0,0,2.6885563,1314.3657,1550.5979)">
      <path
         style="fill:none;stroke-width:11.2731;stroke-miterlimit:4;stroke-dasharray:none;stroke-opacity:1"
         d="m -547.09037,-410.1811 c -64.50293,-0.6294 -81.94015,-2.43799 -85.20484,-8.8374 -1.91445,-3.75217 -0.0987,-20.71833 3.90472,-36.49319 9.49926,-37.42914 30.62307,-80.3763 48.87083,-99.35992 6.55389,-6.8182 10.68689,-9.37802 16.23831,-10.05789 2.41301,-0.29549 3.67166,-0.69213 6.22726,-1.96233 4.21952,-2.09731 9.73376,-6.28385 14.77453,-11.21723 11.4557,-11.21186 21.59584,-15.57745 38.06697,-16.38894 8.18116,-0.40305 12.90402,-1.07757 19.77159,-2.8238 17.24755,-4.38551 33.09836,-13.47058 46.25208,-26.51005 13.17261,-13.05798 21.71225,-28.13903 25.28724,-44.65681 0.95482,-4.41144 0.96384,-4.58625 1.11153,-21.32411 0.0817,-9.28192 0.0423,-17.44562 -0.0873,-18.14153 -0.22266,-1.18791 -0.88382,0.0169 -10.81175,19.72288 -11.24998,22.32864 -12.84626,25.26166 -18.00792,33.08645 -15.54898,23.57178 -32.93744,34.798 -61.15794,39.48433 -10.19819,1.69356 -16.22789,2.08727 -46.4795,3.03506 -23.98661,0.7515 -32.44819,2.64486 -41.16088,9.20993 -4.18374,3.15263 -8.38155,7.71848 -21.47862,23.36135 -6.97156,8.32671 -11.98386,14.02348 -12.24907,13.92172 -0.38046,-0.14601 -48.68143,-29.19495 -54.19171,-32.59162 l -1.87049,-1.15306 10.34503,-7.25137 c 14.76212,-10.34751 17.62604,-12.67252 18.5262,-15.03996 0.6606,-1.73747 -0.36638,-3.03365 -3.78015,-4.7706 -4.02139,-2.04613 -6.83234,-2.82826 -10.86557,-3.02341 -6.71651,-0.32501 -11.23673,1.4846 -17.11029,6.84983 -3.39236,3.09877 -7.37853,5.50798 -9.11373,5.50798 -3.45999,0 -5.8096,-3.95948 -7.01159,-11.81654 -1.06108,-6.9352 -1.26568,-13.34621 -1.26653,-39.67192 v -26.40235 l 1.15634,-0.85112 c 0.63609,-0.46808 14.12659,-9.70973 29.9788,-20.53697 46.96624,-32.07837 70.16767,-49.03063 87.3566,-63.8277 9.23154,-7.94689 26.07608,-20.95006 37.08763,-28.62992 2.29548,-1.60083 9.8214,-6.64768 16.72419,-11.21522 17.71932,-11.7247 28.2143,-19.71741 39.77175,-30.28923 6.1244,-5.60204 10.29995,-10.29653 14.24242,-16.01233 4.09045,-5.93001 7.19872,-9.8534 9.21491,-11.6318 2.05509,-1.81264 4.64846,-3.14161 6.13031,-3.14161 1.89472,0 4.14399,1.34707 5.87216,3.51647 2.0996,2.6354 5.91893,10.47887 8.81442,18.10059 1.2826,3.37612 2.99273,7.45219 3.79988,9.05793 5.56975,11.07769 15.55095,22.11361 29.83114,32.98377 2.26279,1.72224 8.67915,6.18193 14.25933,9.91043 15.53658,10.38152 25.63387,18.14972 37.09833,28.54132 30.19836,27.37193 52.55375,60.58102 59.8153,88.85684 3.91882,15.25918 6.78782,41.27775 8.03632,72.88144 0.20009,5.08836 0.44894,11.01297 0.55097,13.16573 0.1015,2.15279 0.34073,18.16518 0.53096,35.58312 0.19163,17.41794 0.51349,37.83374 0.71838,45.36846 1.04558,38.43849 3.04317,70.36757 5.19803,83.08659 0.41259,2.43618 5.17011,24.83873 6.36647,29.97876 l 0.186,0.8006 -121.78996,-0.0606 c -66.98443,-0.0333 -133.7992,-0.17784 -148.47733,-0.321 z"
         id="path2934" />
      <g
         style="font-size:40.5694px;line-height:1.25;font-family:Garamond;-inkscape-font-specification:Garamond;stroke-width:0.264583"
         id="text916-7"
         aria-label="Standard"
         transform="matrix(3.7795276,0,0,3.7795276,-848.42919,-942.77507)">
        <path
           id="path848-6"
           style="font-size:40.5694px;text-align:center;text-anchor:middle;stroke-width:0.264583"
           d="m 44.88262,167.0713 q 0.158474,1.30741 0.158474,1.5055 l -0.07924,1.76303 q -0.03962,1.12913 -0.09905,1.44607 -0.178284,0.0792 -0.297139,0.0792 l -0.178284,-0.0396 q -0.633897,-2.7733 -2.159211,-4.04109 -1.505505,-1.26779 -3.684526,-1.26779 -2.258257,0 -3.704335,1.26779 -1.446077,1.26779 -1.446077,2.95158 0,1.28761 1.010273,2.35731 1.010274,1.0697 5.170222,3.2091 3.169484,1.64417 4.536324,2.69406 1.366841,1.03008 2.060165,2.39692 0.693325,1.36684 0.693325,3.05063 0,2.1196 -1.10932,3.98167 -1.08951,1.86207 -2.951582,2.81292 -1.862072,0.93103 -4.93251,0.93103 -2.674253,0 -5.130603,-0.8518 -1.446077,-0.51504 -1.763026,-0.83199 -0.316948,-0.31695 -0.316948,-0.67351 0,-0.2179 0.03962,-0.55466 0.27733,-2.3375 0.29714,-3.843 0.03962,-0.93104 0.138665,-1.08951 0.07924,-0.13867 0.297139,-0.13867 0.178283,0 0.27733,0.13867 0.118855,0.11885 0.158474,0.47542 0.217902,2.43654 2.258257,4.35804 2.020547,1.9215 4.575944,1.9215 1.564933,0 2.872345,-0.6537 1.327221,-0.65371 2.060165,-1.88189 0.752752,-1.24798 0.752752,-2.41673 0,-1.60455 -1.129129,-2.93177 -1.129128,-1.32722 -4.536324,-3.09025 -3.407196,-1.78283 -4.437278,-2.59501 -1.66398,-1.32723 -2.495969,-2.81292 -0.614088,-1.14894 -0.614088,-2.67425 0,-2.75349 2.179021,-4.65518 2.17902,-1.9215 5.843737,-1.9215 2.020546,0 3.486432,0.45561 1.069701,0.35657 2.19883,1.16875 z" />
        <path
           id="path850-7"
           style="font-size:40.5694px;text-align:center;text-anchor:middle;stroke-width:0.264583"
           d="m 54.21279,171.94438 0.614087,0.0198 0.07924,1.88188 -0.03962,2.43654 q 0.376376,0.0198 0.475422,0.0198 0.515042,0 1.961119,-0.0792 0.931036,-0.0594 1.782835,-0.0594 0.396185,0 1.188557,0.0198 0.03962,0.39619 0.03962,0.6339 0,0.25752 -0.118856,0.81218 h -0.336757 l -3.070438,0.0991 -1.525315,0.0396 -0.356567,0.0396 q -0.158474,0.49523 -0.158474,1.14893 l 0.05943,2.9714 -0.03962,5.22964 q 0,2.06017 0.534851,2.73368 0.515041,0.69333 1.545123,0.69333 0.515042,0 1.94131,-0.31695 0.435804,-0.099 1.168747,-0.65371 h 0.178284 q 0.178283,0 0.277329,0.11886 0.118856,0.099 0.118856,0.27733 l -0.01981,0.13867 q -0.851799,0.93103 -1.961119,1.36684 -1.08951,0.41599 -2.911963,0.41599 -1.287604,0 -2.139402,-0.59428 -0.83199,-0.59428 -1.069701,-1.40646 -0.237712,-0.81218 -0.237712,-3.54586 l 0.07924,-4.45708 -0.01981,-2.13941 v -0.79237 q 0,-0.55466 -0.03962,-1.10932 l -0.336758,-0.0198 -1.624361,0.0594 -0.158474,0.0198 q -0.217902,0 -0.336758,-0.099 -0.09905,-0.099 -0.09905,-0.23771 0,-0.23771 0.138665,-0.37637 0.158474,-0.15848 0.911226,-0.47543 0.515042,-0.2179 1.188557,-0.81218 0.693325,-0.61408 1.168747,-1.34703 0.237712,-0.39618 0.673516,-1.5055 0.316948,-0.81218 0.475423,-1.14894 z" />
        <path
           id="path852-0"
           style="font-size:40.5694px;text-align:center;text-anchor:middle;stroke-width:0.264583"
           d="m 76.458609,188.82188 q 0.118855,0.25752 0.118855,0.37638 0,0.29714 -0.475422,1.04989 -0.614088,0.99047 -1.366841,1.44608 -0.475422,0.29714 -1.307412,0.29714 -1.426268,0 -2.139402,-0.87161 -0.435804,-0.51504 -0.614087,-1.84226 l -2.21864,1.54512 q -1.168747,0.67352 -1.782835,0.8518 -0.990463,0.25752 -2.377113,0.25752 -1.010273,0 -1.604551,-0.59428 -0.574469,-0.61409 -0.574469,-1.56493 0,-1.36684 1.663979,-3.26853 1.683789,-1.90169 4.556134,-3.11006 2.020546,-0.8518 2.476159,-1.08951 0.03962,-0.6537 0.03962,-1.42627 0,-2.51577 -0.713134,-3.40719 -0.693325,-0.89142 -2.000737,-0.89142 -1.36684,0 -2.555397,1.0697 -0.732943,0.67352 -1.109319,2.53559 -0.118856,0.51504 -0.455614,1.10932 -0.851799,0.55466 -1.36684,0.55466 -0.435804,0 -0.792371,-0.25752 -0.198093,-0.13867 -0.198093,-0.31695 0,-0.51504 1.08951,-2.31769 1.10932,-1.82245 2.773299,-2.71387 1.683789,-0.91122 2.931773,-0.91122 1.703598,0 2.535588,0.31694 0.83199,0.29714 1.465887,1.0697 0.633896,0.77257 0.772561,1.68379 0.07924,0.43581 0.07924,3.11006 l -0.05943,3.14968 0.01981,2.29787 q 0,0.45561 -0.01981,0.77256 -0.01981,0.57447 -0.01981,0.8518 0,0.65371 0.376377,1.04989 0.376376,0.39619 0.891417,0.39619 0.752753,0 1.287603,-0.75275 l 0.237712,-0.31695 q 0.09905,-0.0594 0.435803,-0.13867 z m -5.823928,-0.57447 q 0.138665,-2.51577 0.138665,-3.54586 0,-0.53485 -0.05943,-1.44607 -1.327222,0.47542 -2.812917,1.44607 -1.485696,0.97066 -2.357304,2.23845 -0.633897,0.91123 -0.633897,1.72341 0,0.77256 0.515041,1.2876 0.53485,0.51504 1.327222,0.51504 0.614087,0 1.485695,-0.4358 1.148938,-0.57447 2.396923,-1.78284 z" />
        <path
           id="path854-5"
           style="font-size:40.5694px;text-align:center;text-anchor:middle;stroke-width:0.264583"
           d="m 77.587738,190.88205 q 0.495232,-0.13867 1.148938,-0.23771 1.247984,-0.17829 1.485696,-0.416 0.25752,-0.23771 0.25752,-1.08951 l 0.03962,-0.71313 q 0.01981,-0.39619 0.01981,-1.01028 l -0.03962,-6.08144 q 0,-1.22818 -0.316949,-1.58475 -0.53485,-0.55466 -1.980928,-0.77256 v -0.71313 q 1.446078,-0.39619 2.21864,-1.03008 1.129128,-0.89142 1.90169,-2.41674 l 0.673516,0.0198 q 0.05943,0.93104 0.05943,1.32723 v 1.30741 l 0.01981,0.35656 q 0.237711,-0.15847 0.55466,-0.39618 1.188556,-0.89142 2.436541,-1.44608 1.247984,-0.57447 2.218639,-0.79237 0.614087,-0.15847 1.386649,-0.15847 1.624361,0 2.793108,0.8716 1.168748,0.87161 1.505506,2.06017 0.356567,1.16875 0.356567,4.67499 v 2.9912 q 0,0.11886 -0.03962,0.79237 -0.01981,0.67352 -0.01981,1.54512 0,1.38665 0.118855,1.76303 0.09905,0.25752 0.515042,0.51504 1.90169,0.25752 2.218639,0.61409 v 0.15847 q 0,0.1981 -0.118856,0.49524 h -0.376376 l -2.614825,-0.0198 -2.575206,0.0396 q -1.426268,0.0396 -2.634634,-0.0198 l -0.118856,-0.416 q 0,-0.11886 0.138665,-0.31695 0.534851,-0.23771 1.505505,-0.31695 0.574469,-0.0396 0.792372,-0.11885 0.217902,-0.0792 0.53485,-0.31695 0.237711,-0.47542 0.237711,-0.79237 0,-0.13867 -0.03962,-0.55466 -0.05943,-0.91123 -0.07924,-4.53633 v -1.03008 l 0.03962,-1.58474 q 0,-2.5554 -1.030082,-3.52605 -1.030083,-0.97066 -2.75349,-0.97066 -1.327221,0 -2.595015,0.59428 -1.267794,0.57447 -2.456351,1.74322 -0.03962,0.95084 -0.03962,1.62436 l 0.05943,4.37785 q 0,3.427 0.09905,4.19957 0.03962,0.31694 0.138665,0.4358 0.158474,0.15847 0.633897,0.25752 0.475423,0.0991 1.08951,0.27733 0.633897,0.17828 0.83199,0.2179 0.396185,0.0991 0.53485,0.39619 l -0.01981,0.39618 h -2.079974 l -4.278804,-0.0594 q -1.485696,0.0396 -1.881882,0.0396 H 77.56793 l -0.03962,-0.25752 q 0,-0.13866 0.05943,-0.39618 z" />
        <path
           id="path856-4"
           style="font-size:40.5694px;text-align:center;text-anchor:middle;stroke-width:0.264583"
           d="m 111.97664,177.13441 0.0198,-0.57447 -0.0198,-2.31768 0.0198,-4.37786 q 0,-1.82245 -0.39619,-2.31768 -0.39618,-0.49523 -2.31768,-1.01027 -0.13867,-0.0396 -0.43581,-0.11886 v -0.2179 q 0,-0.19809 0.0396,-0.43581 2.69406,-0.27733 4.63537,-0.93103 l 1.01028,-0.0198 q 0.0792,1.34703 0.0792,3.01101 l -0.0792,7.62657 0.13866,8.59723 -0.0594,4.57594 q 0,1.40646 0.1981,1.58474 0.39618,0.39619 1.74321,0.416 0.27733,0 0.75276,0.0396 v 0.35656 q 0,0.13867 -0.0198,0.29714 -0.61409,0.13867 -1.2678,0.25752 l -2.87234,0.55466 q -0.6339,0.11886 -1.01028,0.11886 v -1.90169 q -0.33675,0.099 -1.04989,0.39618 -3.09025,1.30742 -5.68526,1.30742 -1.56493,0 -3.18929,-1.01028 -1.62437,-1.03008 -2.495973,-2.85253 -0.871609,-1.82246 -0.871609,-3.72415 0,-1.7036 0.574469,-3.24872 0.574469,-1.56493 1.505503,-2.59501 0.59428,-0.67352 1.68379,-1.32723 1.08951,-0.67351 1.80265,-0.85179 1.76302,-0.45562 2.3573,-0.45562 2.67425,0 4.39766,0.79237 0.53485,0.25752 0.81218,0.35657 z m 0.0198,12.24213 q 0.0792,-1.32722 0.0792,-5.46736 0,-3.50624 -0.33676,-4.41747 -0.31695,-0.93103 -1.62436,-1.74321 -1.30741,-0.83199 -2.93178,-0.83199 -2.27806,0 -3.8628,1.76302 -1.58475,1.76303 -1.58475,5.20984 0,3.03082 1.7036,4.83347 1.72341,1.80264 4.2788,1.80264 1.46589,0 2.67426,-0.39618 1.20836,-0.39619 1.60455,-0.75276 z" />
        <path
           id="path858-1"
           style="font-size:40.5694px;text-align:center;text-anchor:middle;stroke-width:0.264583"
           d="m 133.90552,188.82188 q 0.11885,0.25752 0.11885,0.37638 0,0.29714 -0.47542,1.04989 -0.61409,0.99047 -1.36684,1.44608 -0.47542,0.29714 -1.30741,0.29714 -1.42627,0 -2.13941,-0.87161 -0.4358,-0.51504 -0.61408,-1.84226 l -2.21864,1.54512 q -1.16875,0.67352 -1.78284,0.8518 -0.99046,0.25752 -2.37711,0.25752 -1.01027,0 -1.60455,-0.59428 -0.57447,-0.61409 -0.57447,-1.56493 0,-1.36684 1.66398,-3.26853 1.68379,-1.90169 4.55613,-3.11006 2.02055,-0.8518 2.47616,-1.08951 0.0396,-0.6537 0.0396,-1.42627 0,-2.51577 -0.71313,-3.40719 -0.69333,-0.89142 -2.00074,-0.89142 -1.36684,0 -2.5554,1.0697 -0.73294,0.67352 -1.10932,2.53559 -0.11885,0.51504 -0.45561,1.10932 -0.8518,0.55466 -1.36684,0.55466 -0.4358,0 -0.79237,-0.25752 -0.19809,-0.13867 -0.19809,-0.31695 0,-0.51504 1.08951,-2.31769 1.10932,-1.82245 2.77329,-2.71387 1.68379,-0.91122 2.93178,-0.91122 1.7036,0 2.53559,0.31694 0.83198,0.29714 1.46588,1.0697 0.6339,0.77257 0.77256,1.68379 0.0792,0.43581 0.0792,3.11006 l -0.0594,3.14968 0.0198,2.29787 q 0,0.45561 -0.0198,0.77256 -0.0198,0.57447 -0.0198,0.8518 0,0.65371 0.37638,1.04989 0.37638,0.39619 0.89142,0.39619 0.75275,0 1.2876,-0.75275 l 0.23771,-0.31695 q 0.0991,-0.0594 0.43581,-0.13867 z m -5.82393,-0.57447 q 0.13866,-2.51577 0.13866,-3.54586 0,-0.53485 -0.0594,-1.44607 -1.32723,0.47542 -2.81292,1.44607 -1.4857,0.97066 -2.35731,2.23845 -0.63389,0.91123 -0.63389,1.72341 0,0.77256 0.51504,1.2876 0.53485,0.51504 1.32722,0.51504 0.61409,0 1.4857,-0.4358 1.14893,-0.57447 2.39692,-1.78284 z" />
        <path
           id="path860-7"
           style="font-size:40.5694px;text-align:center;text-anchor:middle;stroke-width:0.264583"
           d="m 135.09407,191.57537 -0.0792,-0.25752 q 0,-0.13866 0.17829,-0.41599 l 1.16874,-0.23771 1.64417,-0.29714 q 0.1981,-0.0991 0.27733,-0.27733 0.11886,-0.25752 0.11886,-1.52532 0,-6.73515 -0.0792,-7.76523 -0.0792,-1.0499 -0.35657,-1.32723 -0.27733,-0.27733 -1.42626,-0.4358 -0.67352,-0.0991 -1.0697,-0.25752 l 0.0792,-0.59428 q 2.07998,-0.8518 2.79311,-1.46589 0.99046,-0.89141 1.68379,-2.33749 l 0.67351,0.0198 q 0.11886,0.99046 0.11886,4.39766 l -0.0198,0.33676 q 0,0.11885 0.0396,0.37637 0.75275,-1.36684 1.88188,-2.51578 l 0.45561,-0.45561 q 0.27733,-0.31695 0.53485,-0.49523 1.38665,-0.83199 2.06017,-0.83199 0.87161,0 1.42627,0.59428 0.55466,0.57447 0.55466,1.42627 0,0.67351 -0.39619,1.04989 -0.53485,0.49523 -1.22817,0.49523 -0.31695,0 -1.24799,-0.33676 -0.93103,-0.33676 -1.22817,-0.33676 -0.55466,0 -0.77256,0.17829 -0.55466,0.4358 -1.34704,1.78283 -0.61408,1.01028 -0.61408,1.86208 l 0.099,3.26853 0.0396,3.92223 q 0.0594,0.67352 0.15848,0.87161 0.0792,0.13867 0.39618,0.33676 2.1394,0.17828 2.53559,0.25752 0.27733,0.0198 0.41599,0.0396 0.8518,0.0198 1.18856,0.23771 0.17828,0.099 0.17828,0.29714 0,0.11885 -0.15847,0.31695 l -2.19883,-0.0198 -0.83199,-0.0198 -1.20837,0.0198 h -2.02054 l -1.08951,0.0594 z" />
        <path
           id="path862-3"
           style="font-size:40.5694px;text-align:center;text-anchor:middle;stroke-width:0.264583"
           d="m 162.29221,177.13441 0.0198,-0.57447 -0.0198,-2.31768 0.0198,-4.37786 q 0,-1.82245 -0.39619,-2.31768 -0.39619,-0.49523 -2.31769,-1.01027 -0.13866,-0.0396 -0.4358,-0.11886 v -0.2179 q 0,-0.19809 0.0396,-0.43581 2.69406,-0.27733 4.63537,-0.93103 l 1.01027,-0.0198 q 0.0792,1.34703 0.0792,3.01101 l -0.0792,7.62657 0.13867,8.59723 -0.0594,4.57594 q 0,1.40646 0.19809,1.58474 0.39619,0.39619 1.74322,0.416 0.27733,0 0.75275,0.0396 v 0.35656 q 0,0.13867 -0.0198,0.29714 -0.61408,0.13867 -1.26779,0.25752 l -2.87235,0.55466 q -0.63389,0.11886 -1.01027,0.11886 v -1.90169 q -0.33676,0.099 -1.04989,0.39618 -3.09025,1.30742 -5.68526,1.30742 -1.56494,0 -3.1893,-1.01028 -1.62436,-1.03008 -2.49597,-2.85253 -0.8716,-1.82246 -0.8716,-3.72415 0,-1.7036 0.57446,-3.24872 0.57447,-1.56493 1.50551,-2.59501 0.59428,-0.67352 1.68379,-1.32723 1.08951,-0.67351 1.80264,-0.85179 1.76303,-0.45562 2.35731,-0.45562 2.67425,0 4.39766,0.79237 0.53485,0.25752 0.81218,0.35657 z m 0.0198,12.24213 q 0.0792,-1.32722 0.0792,-5.46736 0,-3.50624 -0.33675,-4.41747 -0.31695,-0.93103 -1.62437,-1.74321 -1.30741,-0.83199 -2.93177,-0.83199 -2.27807,0 -3.86281,1.76302 -1.58474,1.76303 -1.58474,5.20984 0,3.03082 1.7036,4.83347 1.7234,1.80264 4.2788,1.80264 1.46589,0 2.67425,-0.39618 1.20837,-0.39619 1.60456,-0.75276 z" />
      </g>
    </g>
  </g>
</svg>
