<?xml version="1.0" encoding="UTF-8" standalone="no"?>
<svg
   xmlns:dc="http://purl.org/dc/elements/1.1/"
   xmlns:cc="http://creativecommons.org/ns#"
   xmlns:rdf="http://www.w3.org/1999/02/22-rdf-syntax-ns#"
   xmlns:svg="http://www.w3.org/2000/svg"
   xmlns="http://www.w3.org/2000/svg"
   xmlns:sodipodi="http://sodipodi.sourceforge.net/DTD/sodipodi-0.dtd"
   xmlns:inkscape="http://www.inkscape.org/namespaces/inkscape"
   inkscape:version="1.0 (4035a4fb49, 2020-05-01)"
   sodipodi:docname="WQ.svg"
   id="svg22"
   height="100"
   width="100"
   version="1.1">
  <metadata
     id="metadata28">
    <rdf:RDF>
      <cc:Work
         rdf:about="">
        <dc:format>image/svg+xml</dc:format>
        <dc:type
           rdf:resource="http://purl.org/dc/dcmitype/StillImage" />
        <dc:title />
      </cc:Work>
    </rdf:RDF>
  </metadata>
  <defs
     id="defs26" />
  <sodipodi:namedview
     inkscape:current-layer="svg22"
     inkscape:window-maximized="1"
     inkscape:window-y="-9"
     inkscape:window-x="80"
     inkscape:cy="95.007362"
     inkscape:cx="77.667648"
     inkscape:zoom="3.096503"
     showgrid="false"
     id="namedview24"
     inkscape:window-height="1051"
     inkscape:window-width="1831"
     inkscape:pageshadow="2"
     inkscape:pageopacity="0"
     guidetolerance="10"
     gridtolerance="10"
     objecttolerance="10"
     borderopacity="1"
     bordercolor="#666666"
     pagecolor="#ffffff"
     inkscape:document-rotation="0" />
  <g
     transform="matrix(2.2279384,0,0,2.2820937,-0.5184516,-1.3311777)"
     id="g20"
     style="opacity:1;fill:#950000;fill-opacity:1;fill-rule:evenodd;stroke:#000000;stroke-width:1.5;stroke-linecap:round;stroke-linejoin:round;stroke-miterlimit:4;stroke-dasharray:none;stroke-opacity:1">
    <path
       style="stroke:#000000;stroke-opacity:1;fill:#950000;fill-opacity:1"
       id="path2"
       transform="translate(-1,-1)"
       d="m 9,13 a 2,2 0 1 1 -4,0 2,2 0 1 1 4,0 z" />
    <path
       style="stroke:#000000;stroke-opacity:1;fill:#950000;fill-opacity:1"
       id="path4"
       transform="translate(15.5,-5.5)"
       d="m 9,13 a 2,2 0 1 1 -4,0 2,2 0 1 1 4,0 z" />
    <path
       style="stroke:#000000;stroke-opacity:1;fill:#950000;fill-opacity:1"
       id="path6"
       transform="translate(32,-1)"
       d="m 9,13 a 2,2 0 1 1 -4,0 2,2 0 1 1 4,0 z" />
    <path
       style="stroke:#000000;stroke-opacity:1;fill:#950000;fill-opacity:1"
       id="path8"
       transform="translate(7,-4.5)"
       d="m 9,13 a 2,2 0 1 1 -4,0 2,2 0 1 1 4,0 z" />
    <path
       style="stroke:#000000;stroke-opacity:1;fill:#950000;fill-opacity:1"
       id="path10"
       transform="translate(24,-4)"
       d="m 9,13 a 2,2 0 1 1 -4,0 2,2 0 1 1 4,0 z" />
    <path
       id="path12"
       style="stroke-linecap:butt;stroke:#000000;stroke-opacity:1;fill:#950000;fill-opacity:1"
       d="m 9,26 c 8.5,-1.5 21,-1.5 27,0 L 38,14 31,25 V 11 l -5.5,13.5 -3,-15 -3,15 -5.5,-14 V 25 L 7,14 Z" />
    <path
       id="path14"
       style="stroke-linecap:butt;stroke:#000000;stroke-opacity:1;fill:#950000;fill-opacity:1"
       d="m 9,26 c 0,2 1.5,2 2.5,4 1,1.5 1,1 0.5,3.5 -1.5,1 -1.5,2.5 -1.5,2.5 -1.5,1.5 0.5,2.5 0.5,2.5 6.5,1 16.5,1 23,0 0,0 1.5,-1 0,-2.5 0,0 0.5,-1.5 -1,-2.5 -0.5,-2.5 -0.5,-2 0.5,-3.5 1,-2 2.5,-2 2.5,-4 -8.5,-1.5 -18.5,-1.5 -27,0 z" />
    <path
       id="path16"
       style="fill:#950000;stroke:#000000;stroke-opacity:1;fill-opacity:1"
       d="M 11.5,30 C 15,29 30,29 33.5,30" />
    <path
       id="path18"
       style="fill:#950000;stroke:#000000;stroke-opacity:1;fill-opacity:1"
       d="m 12,33.5 c 6,-1 15,-1 21,0" />
  </g>
</svg>
