<?xml version="1.0" encoding="UTF-8" standalone="no"?>
<svg
   xmlns:dc="http://purl.org/dc/elements/1.1/"
   xmlns:cc="http://creativecommons.org/ns#"
   xmlns:rdf="http://www.w3.org/1999/02/22-rdf-syntax-ns#"
   xmlns:svg="http://www.w3.org/2000/svg"
   xmlns="http://www.w3.org/2000/svg"
   xmlns:sodipodi="http://sodipodi.sourceforge.net/DTD/sodipodi-0.dtd"
   xmlns:inkscape="http://www.inkscape.org/namespaces/inkscape"
   inkscape:version="1.0 (4035a4fb49, 2020-05-01)"
   sodipodi:docname="WP.svg"
   id="svg4"
   height="100"
   width="100"
   version="1.1">
  <metadata
     id="metadata10">
    <rdf:RDF>
      <cc:Work
         rdf:about="">
        <dc:format>image/svg+xml</dc:format>
        <dc:type
           rdf:resource="http://purl.org/dc/dcmitype/StillImage" />
        <dc:title></dc:title>
      </cc:Work>
    </rdf:RDF>
  </metadata>
  <defs
     id="defs8" />
  <sodipodi:namedview
     fit-margin-bottom="0"
     fit-margin-right="0"
     fit-margin-left="0"
     fit-margin-top="0"
     inkscape:current-layer="svg4"
     inkscape:window-maximized="0"
     inkscape:window-y="0"
     inkscape:window-x="-8"
     inkscape:cy="42.288888"
     inkscape:cx="-12.263813"
     inkscape:zoom="1.2557262"
     showgrid="false"
     id="namedview6"
     inkscape:window-height="991"
     inkscape:window-width="958"
     inkscape:pageshadow="2"
     inkscape:pageopacity="0"
     guidetolerance="10"
     gridtolerance="10"
     objecttolerance="10"
     borderopacity="1"
     bordercolor="#666666"
     pagecolor="#ffffff"
     inkscape:document-rotation="0" />
  <path
     id="path2"
     style="opacity:1;fill:#ffffff;fill-opacity:1;fill-rule:nonzero;stroke:#000000;stroke-width:3.28125;stroke-linecap:round;stroke-linejoin:miter;stroke-miterlimit:4;stroke-dasharray:none;stroke-opacity:1"
     d="m 51.377087,20.37284 c -4.834374,0 -8.75,3.915625 -8.75,8.749998 0,1.946876 0.634376,3.740626 1.706251,5.20625 -4.265625,2.45 -7.175001,7.021876 -7.175001,12.29375 0,4.440625 2.056251,8.4 5.271876,11.003124 -6.5625,2.31875 -16.209374,12.140624 -16.209374,29.465624 h 50.312496 c 0,-17.325 -9.646874,-27.146874 -16.209373,-29.465624 3.215624,-2.603124 5.271874,-6.562499 5.271874,-11.003124 0,-5.271874 -2.909375,-9.84375 -7.175,-12.29375 1.071876,-1.465624 1.70625,-3.259374 1.70625,-5.20625 0,-4.834373 -3.915624,-8.749998 -8.749999,-8.749998 z" />
</svg>
