<?xml version="1.0" encoding="UTF-8" standalone="no"?>
<svg
   xmlns:dc="http://purl.org/dc/elements/1.1/"
   xmlns:cc="http://creativecommons.org/ns#"
   xmlns:rdf="http://www.w3.org/1999/02/22-rdf-syntax-ns#"
   xmlns:svg="http://www.w3.org/2000/svg"
   xmlns="http://www.w3.org/2000/svg"
   xmlns:sodipodi="http://sodipodi.sourceforge.net/DTD/sodipodi-0.dtd"
   xmlns:inkscape="http://www.inkscape.org/namespaces/inkscape"
   version="1.1"
   width="100"
   height="100"
   id="svg15"
   sodipodi:docname="WK.svg"
   inkscape:version="1.0 (4035a4fb49, 2020-05-01)">
  <metadata
     id="metadata21">
    <rdf:RDF>
      <cc:Work
         rdf:about="">
        <dc:format>image/svg+xml</dc:format>
        <dc:type
           rdf:resource="http://purl.org/dc/dcmitype/StillImage" />
        <dc:title />
      </cc:Work>
    </rdf:RDF>
  </metadata>
  <defs
     id="defs19" />
  <sodipodi:namedview
     inkscape:document-rotation="0"
     pagecolor="#ffffff"
     bordercolor="#666666"
     borderopacity="1"
     objecttolerance="10"
     gridtolerance="10"
     guidetolerance="10"
     inkscape:pageopacity="0"
     inkscape:pageshadow="2"
     inkscape:window-width="1833"
     inkscape:window-height="1051"
     id="namedview17"
     showgrid="false"
     inkscape:zoom="6.193006"
     inkscape:cx="46.24079"
     inkscape:cy="61.490294"
     inkscape:window-x="78"
     inkscape:window-y="-9"
     inkscape:window-maximized="1"
     inkscape:current-layer="svg15" />
  <path
     id="path6570"
     style="fill:none;fill-opacity:1;fill-rule:evenodd;stroke:#000000;stroke-width:3.41637;stroke-linecap:round;stroke-linejoin:miter;stroke-miterlimit:4;stroke-dasharray:none;stroke-opacity:1"
     d="M 51.794101,24.899348 V 12.076573" />
  <path
     id="path3"
     style="fill:#000000;fill-opacity:1;fill-rule:evenodd;stroke:#000000;stroke-width:3.41637;stroke-linecap:butt;stroke-linejoin:miter;stroke-miterlimit:4;stroke-dasharray:none;stroke-opacity:1"
     d="m 51.794101,55.350594 c 0,0 10.24911,-17.08185 6.83274,-23.914591 0,0 -2.27758,-5.69395 -6.83274,-5.69395 -4.55516,0 -6.832741,5.69395 -6.832741,5.69395 -3.41637,6.832741 6.832741,23.914591 6.832741,23.914591" />
  <path
     id="path5"
     style="fill:#000000;fill-opacity:1;fill-rule:evenodd;stroke:#000000;stroke-width:3.41637;stroke-linecap:round;stroke-linejoin:round;stroke-miterlimit:4;stroke-dasharray:none;stroke-opacity:1"
     d="m 26.74072,82.681556 c 12.52669,7.97153 35.302491,7.97153 47.829182,0 V 66.738495 c 0,0 20.498221,-10.249111 13.66548,-23.914591 -9.11032,-14.804271 -30.747331,-7.97153 -36.441281,9.11032 v 7.971531 -7.971531 C 43.82257,34.852374 22.185559,28.019633 15.352819,42.823904 8.5200789,56.489384 26.74072,65.599705 26.74072,65.599705 Z" />
  <path
     id="path7"
     style="fill:none;fill-opacity:1;fill-rule:evenodd;stroke:#000000;stroke-width:3.41637;stroke-linecap:round;stroke-linejoin:miter;stroke-miterlimit:4;stroke-dasharray:none;stroke-opacity:1"
     d="m 46.100151,16.631733 h 11.3879" />
  <path
     id="path9"
     style="fill:none;fill-opacity:1;fill-rule:evenodd;stroke:#cb001e;stroke-width:3.41637;stroke-linecap:round;stroke-linejoin:round;stroke-miterlimit:4;stroke-dasharray:none;stroke-opacity:1"
     d="m 73.431112,65.599705 c 0,0 19.359431,-9.110321 13.733808,-21.978648 C 78.327909,30.297213 57.488051,39.407534 51.794101,54.211804 l 0.02278,4.782919 -0.02278,-4.782919 C 46.100151,39.407534 23.110257,30.297213 16.484776,43.621057 10.797659,56.489384 27.537873,64.119278 27.537873,64.119278" />
  <path
     id="path11"
     style="fill:none;fill-opacity:1;fill-rule:evenodd;stroke:#cb001e;stroke-width:3.41637;stroke-linecap:round;stroke-linejoin:round;stroke-miterlimit:4;stroke-dasharray:none;stroke-opacity:1"
     d="m 26.74072,66.738495 c 12.52669,-6.83274 35.302491,-6.83274 47.829182,0 m -47.829182,7.97153 c 12.52669,-6.83274 35.302491,-6.83274 47.829182,0 M 26.74072,82.681556 c 12.52669,-6.832741 35.302491,-6.832741 47.829182,0" />
</svg>
