<?xml version="1.0" encoding="UTF-8" standalone="no"?>
<svg
   xmlns:dc="http://purl.org/dc/elements/1.1/"
   xmlns:cc="http://creativecommons.org/ns#"
   xmlns:rdf="http://www.w3.org/1999/02/22-rdf-syntax-ns#"
   xmlns:svg="http://www.w3.org/2000/svg"
   xmlns="http://www.w3.org/2000/svg"
   xmlns:sodipodi="http://sodipodi.sourceforge.net/DTD/sodipodi-0.dtd"
   xmlns:inkscape="http://www.inkscape.org/namespaces/inkscape"
   inkscape:version="1.0 (4035a4fb49, 2020-05-01)"
   sodipodi:docname="create_piece-ouline.svg"
   id="svg1531"
   version="1.1"
   viewBox="0 0 24 24"
   height="24"
   width="24">
  <metadata
     id="metadata1537">
    <rdf:RDF>
      <cc:Work
         rdf:about="">
        <dc:format>image/svg+xml</dc:format>
        <dc:type
           rdf:resource="http://purl.org/dc/dcmitype/StillImage" />
        <dc:title></dc:title>
      </cc:Work>
    </rdf:RDF>
  </metadata>
  <defs
     id="defs1535" />
  <sodipodi:namedview
     inkscape:current-layer="svg1531"
     inkscape:window-maximized="1"
     inkscape:window-y="-9"
     inkscape:window-x="-9"
     inkscape:cy="39.320687"
     inkscape:cx="18.18111"
     inkscape:zoom="6.1135274"
     showgrid="false"
     id="namedview1533"
     inkscape:window-height="1001"
     inkscape:window-width="1920"
     inkscape:pageshadow="2"
     inkscape:pageopacity="0"
     guidetolerance="10"
     gridtolerance="10"
     objecttolerance="10"
     borderopacity="1"
     bordercolor="#666666"
     pagecolor="#ffffff" />
  <g
     style="fill:none;stroke:#000000;stroke-width:2;stroke-miterlimit:4;stroke-dasharray:none;stroke-opacity:1"
     transform="matrix(0.9229918,0,0,0.91959001,-6.0169863,-7.4450007)"
     id="g2065">
    <path
       style="fill:none;stroke:#000000;stroke-width:2;stroke-miterlimit:4;stroke-dasharray:none;stroke-opacity:1"
       d="M 12.051,33 A 15.853,15.853 0 0 0 12.408,31.2 21.1,21.1 0 0 0 12.461,26.341 22.32,22.32 0 0 0 10.814,21.41 7.877,7.877 0 0 0 8.6,18.453 2.181,2.181 0 0 1 7.532,16.937 a 0.969,0.969 0 0 1 0.32,-0.89 1.405,1.405 0 0 1 1.074,-0.37 1.078,1.078 0 0 1 0.934,0.436 1.312,1.312 0 0 1 0.295,1.031 2.081,2.081 0 0 0 0.073,1.2 A 5.59,5.59 0 0 0 13,20.5 c 0.235,0.025 0.267,0.013 0.429,-0.165 0.207,-0.226 0.29,-0.5 0.649,-2.169 a 40.879,40.879 0 0 0 0.854,-4.816 1.791,1.791 0 0 0 -0.395,-1.431 1.872,1.872 0 0 1 -0.306,-0.52 c -0.24,-0.942 0.452,-2.216 1.241,-2.286 a 0.516,0.516 0 0 1 0.489,0.149 2.676,2.676 0 0 1 0.874,1.774 c 0.024,0.411 0.024,0.411 -0.168,0.643 -0.192,0.232 -0.192,0.238 -0.168,0.6 a 20.209,20.209 0 0 0 1.628,4.621 c 0.758,1.673 0.98,1.995 1.386,2.006 0.342,0.01 0.557,-0.234 1.044,-1.184 a 37.706,37.706 0 0 0 1.884,-4.766 3.468,3.468 0 0 0 0.12,-0.733 0.622,0.622 0 0 0 -0.2,-0.553 c -0.2,-0.239 -0.2,-0.241 -0.173,-0.626 0.061,-0.926 0.819,-1.948 1.446,-1.948 0.256,0 0.435,0.113 0.711,0.448 a 2.274,2.274 0 0 1 0.483,1.267 1.148,1.148 0 0 1 -0.265,1.019 c -0.386,0.454 -0.414,0.55 -0.409,1.406 a 17.506,17.506 0 0 0 0.565,3.72 30.06,30.06 0 0 0 0.737,3.143 0.6,0.6 0 0 0 0.577,0.41 5.864,5.864 0 0 0 2.325,-1.535 1.8,1.8 0 0 0 0.559,-1.8 1.11,1.11 0 0 1 0.1,-0.766 1.291,1.291 0 0 1 1.793,-0.614 c 0.979,0.353 0.941,1.636 -0.071,2.438 a 7.781,7.781 0 0 0 -1.42,1.327 16.025,16.025 0 0 0 -2.833,9.788 29.878,29.878 0 0 0 0.429,3.265 l 0.113,0.49 h -7.505 c -7.128,0 -7.5,0 -7.472,-0.1 z"
       id="path2630" />
  </g>
</svg>
