<svg xmlns="http://www.w3.org/2000/svg" width="24" height="24" viewBox="0 0 24 24">
  <path id="path3827" d="M101.268,183.411c-2.282-.049-3.05-.137-3.187-.367a6.286,6.286,0,0,1,.528-2.642c.75-2.012,2-3.97,2.856-4.478a1.672,1.672,0,0,1,.519-.191,2.622,2.622,0,0,0,1.225-.7,3.256,3.256,0,0,1,2.236-.826,6.186,6.186,0,0,0,2.955-.929A7.049,7.049,0,0,0,109.866,172a5.248,5.248,0,0,0,.789-1.46,3.774,3.774,0,0,0,.131-1.375c0-.993-.015-1.069-.23-1.071a9.445,9.445,0,0,0-.706,1.151,9.064,9.064,0,0,1-1.756,2.469c-.993.888-2.148,1.207-4.6,1.271-2.833.074-2.912.107-4.58,1.894l-.465.5-1.383-.747-1.466-.791c-.063-.033-.017-.085.2-.217,1.183-.737,1.337-.886,1.2-1.156a1.52,1.52,0,0,0-1.028-.338,1.325,1.325,0,0,0-.93.324,1.2,1.2,0,0,1-.536.3c-.033,0-.1-.122-.156-.272a7.533,7.533,0,0,1-.121-1.9l-.024-1.63,1.116-.673c2.747-1.657,4.483-2.784,5.747-3.733a34.356,34.356,0,0,1,3.07-2.022,11.377,11.377,0,0,0,3.2-2.511c.5-.6.64-.669.889-.4a4,4,0,0,1,.429.771c.537,1.2,1.2,1.843,3.064,2.954a14.35,14.35,0,0,1,4.09,3.566,6.889,6.889,0,0,1,1.347,2.817,33.033,33.033,0,0,1,.38,5.338c0,2.243.143,5.4.292,6.546a17.8,17.8,0,0,0,.38,1.772c.028.086-.358.09-7.57.082-4.179-.005-8.393-.025-9.364-.046Z" transform="translate(-94.203 -159.46)"/>
</svg>