<?xml version="1.0" encoding="UTF-8" standalone="no"?>
<svg
   xmlns:dc="http://purl.org/dc/elements/1.1/"
   xmlns:cc="http://creativecommons.org/ns#"
   xmlns:rdf="http://www.w3.org/1999/02/22-rdf-syntax-ns#"
   xmlns:svg="http://www.w3.org/2000/svg"
   xmlns="http://www.w3.org/2000/svg"
   xmlns:sodipodi="http://sodipodi.sourceforge.net/DTD/sodipodi-0.dtd"
   xmlns:inkscape="http://www.inkscape.org/namespaces/inkscape"
   width="294.58"
   height="39.814"
   viewBox="0 0 294.58 39.814"
   version="1.1"
   id="svg3"
   sodipodi:docname="Game Name-dark.svg"
   inkscape:version="1.0 (4035a4fb49, 2020-05-01)">
  <metadata
     id="metadata9">
    <rdf:RDF>
      <cc:Work
         rdf:about="">
        <dc:format>image/svg+xml</dc:format>
        <dc:type
           rdf:resource="http://purl.org/dc/dcmitype/StillImage" />
      </cc:Work>
    </rdf:RDF>
  </metadata>
  <defs
     id="defs7" />
  <sodipodi:namedview
     inkscape:document-rotation="0"
     pagecolor="#ffffff"
     bordercolor="#666666"
     borderopacity="1"
     objecttolerance="10"
     gridtolerance="10"
     guidetolerance="10"
     inkscape:pageopacity="0"
     inkscape:pageshadow="2"
     inkscape:window-width="1920"
     inkscape:window-height="1001"
     id="namedview5"
     showgrid="false"
     inkscape:zoom="2.8996708"
     inkscape:cx="127.93124"
     inkscape:cy="17.908055"
     inkscape:window-x="-9"
     inkscape:window-y="-9"
     inkscape:window-maximized="1"
     inkscape:current-layer="svg3" />
  <path
     id="Path_1"
     data-name="Path 1"
     d="M39.082-35.566l.322,4.453q.176,2.021.176,2.754l-.82.146a16.6,16.6,0,0,0-4.878-6.68,11.406,11.406,0,0,0-7.134-2.227,20.522,20.522,0,0,0-8.027,1.26A16.391,16.391,0,0,0,11.6-29.648,18.736,18.736,0,0,0,8.643-18.984,18.225,18.225,0,0,0,9.727-12.51a19.648,19.648,0,0,0,3.062,5.347,20.85,20.85,0,0,0,4.673,4.292A13.019,13.019,0,0,0,21.65-1.055a19.375,19.375,0,0,0,4.1.322,17.311,17.311,0,0,0,3.9-.5,8.478,8.478,0,0,0,3.223-1.333,4.324,4.324,0,0,0,1.479-1.89,13.788,13.788,0,0,0,.4-4.1q0-5.068-.674-5.9t-4.248-1.1l-1.172-.088-.791.029q-.176-.029-.469-.088l-.439-.732a.665.665,0,0,1,.205-.381,56.5,56.5,0,0,1,6.621-.234q1.143,0,3.721.059l3.018.117,2.725-.029q.791,0,1.9.059a.419.419,0,0,1,.264.1.405.405,0,0,1,.059.249,3.035,3.035,0,0,1-.146.82,9.788,9.788,0,0,1-1.9.264l-1.9-.029a1.956,1.956,0,0,0-1.553.674,4.467,4.467,0,0,0-.293,2.2L39.7-8.73a23.321,23.321,0,0,1-.322,5.039,2.437,2.437,0,0,1-.732,1.157A8.385,8.385,0,0,1,36.3-1.318,22.731,22.731,0,0,1,31.67.059,43.515,43.515,0,0,1,24.2.732,25.933,25.933,0,0,1,14.692-.747,19.076,19.076,0,0,1,8.306-4.863,16.853,16.853,0,0,1,4.482-10.2a19.94,19.94,0,0,1-1.729-8.057,20.527,20.527,0,0,1,2.71-10.034,19.905,19.905,0,0,1,8.745-7.983q4.248-2.168,11.543-2.168A31.991,31.991,0,0,1,34-37.559,21,21,0,0,1,39.082-35.566Zm31,31.582a1.551,1.551,0,0,1,.176.557,3.777,3.777,0,0,1-.7,1.553A6.307,6.307,0,0,1,67.529.264,3.634,3.634,0,0,1,65.6.7,3.849,3.849,0,0,1,62.432-.586a5.488,5.488,0,0,1-.908-2.725L58.242-1.025A13.485,13.485,0,0,1,55.605.234,14.126,14.126,0,0,1,52.09.615a3.128,3.128,0,0,1-2.358-.894,3.171,3.171,0,0,1-.864-2.3q0-2.021,2.481-4.834a18.187,18.187,0,0,1,6.739-4.6q3-1.26,3.67-1.611.059-.967.059-2.109,0-3.721-1.043-5.039A3.581,3.581,0,0,0,57.79-22.09,5.588,5.588,0,0,0,54-20.508a7,7,0,0,0-1.646,3.75,6.208,6.208,0,0,1-.674,1.641,4.1,4.1,0,0,1-2.021.82,1.955,1.955,0,0,1-1.172-.381.577.577,0,0,1-.293-.469,10.1,10.1,0,0,1,1.626-3.442,10.759,10.759,0,0,1,4.1-4.014,9.423,9.423,0,0,1,4.321-1.333,11.547,11.547,0,0,1,3.75.454,5.065,5.065,0,0,1,2.168,1.6,5.088,5.088,0,0,1,1.143,2.49,45.789,45.789,0,0,1,.117,4.6l-.088,4.658.029,3.4q0,.674-.029,1.143-.029.85-.029,1.26a2.161,2.161,0,0,0,.557,1.553,1.759,1.759,0,0,0,1.318.586,2.3,2.3,0,0,0,1.9-1.113l.352-.469A2.731,2.731,0,0,1,70.078-3.984Zm-8.584-.85q.206-3.721.206-5.244,0-.791-.088-2.139a20.192,20.192,0,0,0-4.174,2.139,12.371,12.371,0,0,0-3.5,3.311A4.51,4.51,0,0,0,53-4.219a2.554,2.554,0,0,0,.779,1.9,2.683,2.683,0,0,0,1.955.762A5.152,5.152,0,0,0,57.937-2.2,14.73,14.73,0,0,0,61.494-4.834ZM71.807-1A3.026,3.026,0,0,1,73.1-1.436,5.775,5.775,0,0,0,74.912-1.9a2.168,2.168,0,0,0,.7-1.26,68.265,68.265,0,0,0,.205-7.412,51.171,51.171,0,0,0-.381-8.057,5.323,5.323,0,0,0-1.67-.645q-.322-.059-1.348-.322v-.981a8.817,8.817,0,0,0,2.81-1.293,19.2,19.2,0,0,0,2.986-3.174h.176q.177,0,.559-.029a.749.749,0,0,1,.383.146l-.029,3.34q0,1.025.059,2.2a23.239,23.239,0,0,1,5.615-3.984,9.254,9.254,0,0,1,3.831-.762,7.347,7.347,0,0,1,4.036.967,9.239,9.239,0,0,1,2.837,3.486,18.655,18.655,0,0,1,4.731-3.6,9.785,9.785,0,0,1,4.292-1.025,7.242,7.242,0,0,1,5.391,2.141q2.08,2.171,2.139,6.365v2.435l.029,2.669-.029,6.864a2.534,2.534,0,0,0,.527,1.819q.234.088,1.787.528a4.226,4.226,0,0,1,1.143.411.505.505,0,0,1,.176.41,2.111,2.111,0,0,1-.175.762h-.2l-2.952-.176q-.526-.029-1.666-.029-1.4,0-3.916.117h-1.49q-.321,0-1.257.029a4.3,4.3,0,0,1-.029-.469,1.239,1.239,0,0,1,.205-.586,8.977,8.977,0,0,1,2.168-.572q1.377-.22,1.714-.792t.337-4.562q0-8.655-.206-10.034a5.39,5.39,0,0,0-1.865-3.447,5.779,5.779,0,0,0-3.8-1.247,7.034,7.034,0,0,0-3.436.923,12.465,12.465,0,0,0-3.289,2.769l-.029.7V-12.8l-.117,3.486q0,5.332.1,6.064a1.648,1.648,0,0,0,.5,1.069,5.742,5.742,0,0,0,2.3.6,13.193,13.193,0,0,1,1.318.234.945.945,0,0,1,.352.762.55.55,0,0,1-.264.527h-.5L98.2-.088H89.678l-2.344.029A5.453,5.453,0,0,1,87.275-.7l.029-.352a9.079,9.079,0,0,1,2.4-.674,10.289,10.289,0,0,0,1.875-.5.892.892,0,0,0,.264-.381,11.3,11.3,0,0,0,.205-2.344l.146-3.4-.059-3.838.029-2.139q0-3.6-1.461-5.259a4.7,4.7,0,0,0-3.683-1.655,9.388,9.388,0,0,0-4.165,1.025,9.957,9.957,0,0,0-3.464,2.754q-.029.82-.029,1.494l.117,9.844q.029,3.223.366,3.677a2.294,2.294,0,0,0,1.509.63,6.65,6.65,0,0,1,2.432.645.592.592,0,0,1,.264.527q0,.234-.029.557Q80.675-.322,79.53-.322q-1.175,0-2.114.029l-1.468.088h-.91l-3.289.117a1.285,1.285,0,0,1-.059-.339A2.978,2.978,0,0,1,71.807-1ZM140.1-15.469l-11.748.086-2.227,0q-1.348,0-2.754.122a5.165,5.165,0,0,0-.264,1.2l.029.293v.293l-.029,1.436a11.431,11.431,0,0,0,1.128,4.38,8.706,8.706,0,0,0,3.223,3.955,9.931,9.931,0,0,0,5.229,1.45,10.783,10.783,0,0,0,2.666-.41,13.494,13.494,0,0,0,2.813-1.494l2.109-1.729.176,1.172a3.554,3.554,0,0,1-.029.439,12.869,12.869,0,0,1-3.34,2.93A15.911,15.911,0,0,1,132.979.5,14.3,14.3,0,0,1,129.7.762a10.5,10.5,0,0,1-4.1-.85,9.986,9.986,0,0,1-4.7-4.146,13.233,13.233,0,0,1-1.714-6.929,14.861,14.861,0,0,1,.483-3.311,17.408,17.408,0,0,1,1.743-4.307,8.438,8.438,0,0,1,2.08-2.549,13.759,13.759,0,0,1,3.076-1.963,11.466,11.466,0,0,1,4.424-.791,8.843,8.843,0,0,1,4.453,1,8.832,8.832,0,0,1,3.5,3.4,7.954,7.954,0,0,1,1.157,3.809ZM123.75-16.523h1.377q1.494,0,8.906-.469a3.71,3.71,0,0,0,1.436-.234,1.561,1.561,0,0,0,.527-1,4.672,4.672,0,0,0-.586-2.065,4.038,4.038,0,0,0-1.8-1.787,6.062,6.062,0,0,0-2.827-.63,6.643,6.643,0,0,0-5.449,2.549A5.893,5.893,0,0,0,123.75-16.523ZM157.676-35.83l-.029-1.406q4.541,0,6.65-.234.82-.088,1.143-.088.264,0,.791.029a16.255,16.255,0,0,1,2.285,2.344q.234.264.527.586l6.182,6.826.879,1.055q1.875,2.2,3.413,3.75t5.991,6.475l7,7.764q1.025,1.143,2.637,2.842l.029-.469Q195-10.43,195-10.664l.117-1.758-.059-2.754v-1.26q0-1.2-.205-7.412-.029-.85-.234-3.208t-.205-4.146q0-3.223-.381-3.75a5.339,5.339,0,0,0-2.49-.791q-.527-.029-1.641-.176a8.2,8.2,0,0,1-1.553-.146,1.057,1.057,0,0,1-.469-.5,2.7,2.7,0,0,1,.264-.879,5.449,5.449,0,0,1,1.553-.234,12.627,12.627,0,0,1,2.036.205,13.257,13.257,0,0,0,2.183.205q1.348,0,4.189-.176,1.611-.117,2.227-.117h.5l-.059.908a3.806,3.806,0,0,1-1.289.249,6.713,6.713,0,0,0-1.523.249,3.332,3.332,0,0,0-1.26.557,2.3,2.3,0,0,0-.7,1.553l.322,9.258.234,4.248-.029,1.23.176,5.889q.176,6.035.176,10.488,0,.967-.117,4.189l-1.366.117q-1.026-1.172-7.063-7.383-1.407-1.436-1.9-2.021l-2.52-2.9q-1.465-1.611-1.9-2.051l-.645-.645q-3.195-3.633-8.294-9.082-1.377-1.465-4.044-4.57-1.671-1.963-2.11-2.4a10.426,10.426,0,0,0-1.2-1l-.088,1q0,5.713.293,15.762l.205,9.7q.029,1.23.146,2.373l1.025.234q2.783.264,5.479.791a2.716,2.716,0,0,0,.352.264L173.086.557a2.688,2.688,0,0,1-.762.146,6.554,6.554,0,0,1-.791-.059q-2.9-.234-7.061-.234-2.93,0-5.156.146l-.41.029a7.045,7.045,0,0,1-.762-.059l-.029-.879.762-.352,1.377-.205a13.755,13.755,0,0,0,2.7-.586,2.147,2.147,0,0,0,.908-.615,40.489,40.489,0,0,0,.322-5.918q0-1.816-.088-6.65v-3.984l-.059-8.32a36.107,36.107,0,0,0-.381-6.562,1.941,1.941,0,0,0-.732-.937,6.17,6.17,0,0,0-2.915-1A19.471,19.471,0,0,1,157.676-35.83ZM226.963-3.984a1.551,1.551,0,0,1,.176.557,3.777,3.777,0,0,1-.7,1.553A6.307,6.307,0,0,1,224.414.264,3.634,3.634,0,0,1,222.48.7a3.849,3.849,0,0,1-3.164-1.289,5.488,5.488,0,0,1-.908-2.725l-3.281,2.285A13.485,13.485,0,0,1,212.49.234a14.126,14.126,0,0,1-3.516.381,3.128,3.128,0,0,1-2.358-.894,3.171,3.171,0,0,1-.864-2.3q0-2.021,2.481-4.834a18.187,18.187,0,0,1,6.739-4.6q3-1.26,3.67-1.611.059-.967.059-2.109,0-3.721-1.043-5.039a3.581,3.581,0,0,0-2.983-1.318,5.588,5.588,0,0,0-3.791,1.582,7,7,0,0,0-1.646,3.75,6.208,6.208,0,0,1-.674,1.641,4.1,4.1,0,0,1-2.021.82,1.955,1.955,0,0,1-1.172-.381.577.577,0,0,1-.293-.469,10.1,10.1,0,0,1,1.626-3.442,10.759,10.759,0,0,1,4.1-4.014,9.423,9.423,0,0,1,4.321-1.333,11.547,11.547,0,0,1,3.75.454,5.065,5.065,0,0,1,2.168,1.6,5.088,5.088,0,0,1,1.143,2.49,45.789,45.789,0,0,1,.117,4.6l-.088,4.658.029,3.4q0,.674-.029,1.143-.029.85-.029,1.26a2.161,2.161,0,0,0,.557,1.553,1.759,1.759,0,0,0,1.318.586,2.3,2.3,0,0,0,1.9-1.113l.352-.469A2.731,2.731,0,0,1,226.963-3.984Zm-8.584-.85q.206-3.721.206-5.244,0-.791-.088-2.139a20.192,20.192,0,0,0-4.174,2.139,12.371,12.371,0,0,0-3.5,3.311,4.51,4.51,0,0,0-.941,2.549,2.554,2.554,0,0,0,.779,1.9,2.683,2.683,0,0,0,1.955.762,5.152,5.152,0,0,0,2.205-.645A14.73,14.73,0,0,0,218.378-4.834ZM228.691-1a3.026,3.026,0,0,1,1.289-.439A5.775,5.775,0,0,0,231.8-1.9a2.168,2.168,0,0,0,.7-1.26,68.265,68.265,0,0,0,.205-7.412,51.171,51.171,0,0,0-.381-8.057,5.323,5.323,0,0,0-1.67-.645q-.322-.059-1.348-.322v-.981a8.817,8.817,0,0,0,2.81-1.293,19.2,19.2,0,0,0,2.986-3.174h.176q.177,0,.559-.029a.749.749,0,0,1,.383.146l-.029,3.34q0,1.025.059,2.2a23.239,23.239,0,0,1,5.615-3.984,9.254,9.254,0,0,1,3.831-.762,7.347,7.347,0,0,1,4.036.967,9.239,9.239,0,0,1,2.837,3.486,18.655,18.655,0,0,1,4.731-3.6,9.785,9.785,0,0,1,4.292-1.025,7.242,7.242,0,0,1,5.391,2.141q2.08,2.171,2.139,6.365v2.435l.029,2.669-.029,6.864a2.534,2.534,0,0,0,.527,1.819q.234.088,1.787.528a4.226,4.226,0,0,1,1.143.411.505.505,0,0,1,.176.41,2.111,2.111,0,0,1-.175.762h-.2l-2.952-.176q-.526-.029-1.666-.029-1.4,0-3.916.117h-1.49q-.321,0-1.257.029a4.3,4.3,0,0,1-.029-.469,1.239,1.239,0,0,1,.205-.586,8.977,8.977,0,0,1,2.168-.572q1.377-.22,1.714-.792t.337-4.562q0-8.655-.206-10.034a5.39,5.39,0,0,0-1.865-3.447,5.779,5.779,0,0,0-3.8-1.247,7.034,7.034,0,0,0-3.436.923,12.465,12.465,0,0,0-3.289,2.769l-.029.7V-12.8l-.117,3.486q0,5.332.1,6.064a1.648,1.648,0,0,0,.5,1.069,5.742,5.742,0,0,0,2.3.6,13.193,13.193,0,0,1,1.318.234.945.945,0,0,1,.352.762.55.55,0,0,1-.264.527h-.5l-1.465-.029h-8.525l-2.344.029A5.453,5.453,0,0,1,244.16-.7l.029-.352a9.079,9.079,0,0,1,2.4-.674,10.289,10.289,0,0,0,1.875-.5.892.892,0,0,0,.264-.381,11.3,11.3,0,0,0,.205-2.344l.146-3.4-.059-3.838.029-2.139q0-3.6-1.461-5.259a4.7,4.7,0,0,0-3.683-1.655,9.388,9.388,0,0,0-4.165,1.025,9.957,9.957,0,0,0-3.464,2.754q-.029.82-.029,1.494l.117,9.844q.029,3.223.366,3.677a2.294,2.294,0,0,0,1.509.63,6.65,6.65,0,0,1,2.432.645.592.592,0,0,1,.264.527q0,.234-.029.557-3.348-.234-4.493-.234-1.175,0-2.114.029l-1.468.088h-.91l-3.289.117a1.285,1.285,0,0,1-.059-.339A2.978,2.978,0,0,1,228.691-1Zm68.291-14.473-11.748.086-2.227,0q-1.348,0-2.754.122a5.165,5.165,0,0,0-.264,1.2l.029.293v.293l-.029,1.436a11.431,11.431,0,0,0,1.128,4.38,8.706,8.706,0,0,0,3.223,3.955,9.931,9.931,0,0,0,5.229,1.45,10.783,10.783,0,0,0,2.666-.41,13.494,13.494,0,0,0,2.813-1.494l2.109-1.729.176,1.172a3.554,3.554,0,0,1-.029.439,12.869,12.869,0,0,1-3.34,2.93A15.911,15.911,0,0,1,289.863.5a14.3,14.3,0,0,1-3.281.264,10.5,10.5,0,0,1-4.1-.85,9.986,9.986,0,0,1-4.7-4.146,13.233,13.233,0,0,1-1.714-6.929,14.861,14.861,0,0,1,.483-3.311,17.408,17.408,0,0,1,1.743-4.307,8.438,8.438,0,0,1,2.08-2.549,13.759,13.759,0,0,1,3.076-1.963,11.466,11.466,0,0,1,4.424-.791,8.843,8.843,0,0,1,4.453,1,8.832,8.832,0,0,1,3.5,3.4,7.954,7.954,0,0,1,1.157,3.809Zm-16.348-1.055h1.377q1.494,0,8.906-.469a3.71,3.71,0,0,0,1.436-.234,1.561,1.561,0,0,0,.527-1,4.672,4.672,0,0,0-.586-2.065,4.038,4.038,0,0,0-1.8-1.787,6.062,6.062,0,0,0-2.827-.63,6.643,6.643,0,0,0-5.449,2.549A5.893,5.893,0,0,0,280.635-16.523Z"
     transform="translate(-2.754 38.438)"
     style="fill:#ffffff;fill-opacity:1" />
</svg>
