<?xml version="1.0" encoding="UTF-8" standalone="no"?>
<svg
   xmlns:dc="http://purl.org/dc/elements/1.1/"
   xmlns:cc="http://creativecommons.org/ns#"
   xmlns:rdf="http://www.w3.org/1999/02/22-rdf-syntax-ns#"
   xmlns:svg="http://www.w3.org/2000/svg"
   xmlns="http://www.w3.org/2000/svg"
   xmlns:sodipodi="http://sodipodi.sourceforge.net/DTD/sodipodi-0.dtd"
   xmlns:inkscape="http://www.inkscape.org/namespaces/inkscape"
   inkscape:version="1.0 (4035a4fb49, 2020-05-01)"
   sodipodi:docname="Pick Type-classic_dark.svg"
   id="svg3"
   version="1.1"
   viewBox="0 0 230.537 54.668"
   height="54.668"
   width="230.537">
  <metadata
     id="metadata9">
    <rdf:RDF>
      <cc:Work
         rdf:about="">
        <dc:format>image/svg+xml</dc:format>
        <dc:type
           rdf:resource="http://purl.org/dc/dcmitype/StillImage" />
      </cc:Work>
    </rdf:RDF>
  </metadata>
  <defs
     id="defs7" />
  <sodipodi:namedview
     inkscape:current-layer="svg3"
     inkscape:window-maximized="1"
     inkscape:window-y="-9"
     inkscape:window-x="69"
     inkscape:cy="14.087289"
     inkscape:cx="59.270754"
     inkscape:zoom="2.6199699"
     showgrid="false"
     id="namedview5"
     inkscape:window-height="1051"
     inkscape:window-width="1842"
     inkscape:pageshadow="2"
     inkscape:pageopacity="0"
     guidetolerance="10"
     gridtolerance="10"
     objecttolerance="10"
     borderopacity="1"
     bordercolor="#666666"
     pagecolor="#ffffff"
     inkscape:document-rotation="0" />
  <path
     style="fill:#c9c9c9;fill-opacity:1"
     transform="translate(-1.113 39.258)"
     d="M1.289-37.383a5.6,5.6,0,0,1,.674-.088q1,0,3.281.117,1.2.029,1.641.029.645,0,2.725-.117l4.98-.293q1.963-.176,4.57-.176a17.187,17.187,0,0,1,7.324,1.3,9.147,9.147,0,0,1,4.2,4.082A11.688,11.688,0,0,1,32.168-27a11.02,11.02,0,0,1-3.223,7.929,11.5,11.5,0,0,1-8.672,3.335,9,9,0,0,1-2.549-.308,9.1,9.1,0,0,1-2.344-1.187,1.548,1.548,0,0,1-.674-.791.668.668,0,0,1,.322-.293,2.282,2.282,0,0,1,.85.176,7.672,7.672,0,0,0,2.52.352,8.925,8.925,0,0,0,4.38-1.141,7.429,7.429,0,0,0,3.12-3.247,9.8,9.8,0,0,0,1.055-4.446,9.541,9.541,0,0,0-1.111-4.431,9.441,9.441,0,0,0-2.924-3.437,9.132,9.132,0,0,0-3.143-1.228,15.5,15.5,0,0,0-3.289-.5q-3.625,0-4.3.527l-.029.41.088,3.308-.029.585q-.059.791-.059,2.43,0,5.972.176,7.435v1.639L12.715-6.5q0,.293-.073,1.083T12.568-4.04A7.413,7.413,0,0,0,12.8-1.9q.7.2,4.1.966,1.582.381,1.729.439a.842.842,0,0,1,.41.381,1,1,0,0,1-.308.571,1.44,1.44,0,0,1-.747.132q-.352,0-1.641-.146Q13.828.176,12.393.176L7.236.381,4.16.293q-.293,0-1.7.059L2.432-.41,6.24-1.142a2.441,2.441,0,0,0,1.143-.527,3.022,3.022,0,0,0,.293-1.61q0-.263.029-1.142.029-.615.029-1.7,0-3.454-.293-14.724-.117-5.269-.117-10.714v-.5q0-2.108-.645-2.664Q5.6-35.684,1.26-36.3a1.352,1.352,0,0,1-.146-.527A1.209,1.209,0,0,1,1.289-37.383ZM37.91-36.006a2.217,2.217,0,0,1,.747-1.67,2.535,2.535,0,0,1,1.8-.7,2.66,2.66,0,0,1,1.9.791,2.344,2.344,0,0,1,.82,1.7,2.39,2.39,0,0,1-.82,1.714,2.636,2.636,0,0,1-1.9.806,2.467,2.467,0,0,1-1.816-.732A2.576,2.576,0,0,1,37.91-36.006ZM35.449-20.8l.029-.864q1.9-.558,2.051-.647a9.6,9.6,0,0,0,2.212-1.44,9.978,9.978,0,0,0,1.948-2.176,3.587,3.587,0,0,1,.557-.059l.352.029q.117,1.406.117,2.051,0,.146-.059,1.318v1.553l.029,8.438L42.6-3.662a2.19,2.19,0,0,0,.352,1.509,5.718,5.718,0,0,0,2.256.952,17.811,17.811,0,0,1,1.758.557.922.922,0,0,1,.088.352A.961.961,0,0,1,46.9.146Q45.762.117,43.975,0q-2.432-.205-3.223-.205-.381,0-4.687.146a15.715,15.715,0,0,0-1.7.146A2.031,2.031,0,0,1,33.9,0a.645.645,0,0,1-.146-.352q0-.41.557-.645.117-.059,2.988-.673a1.906,1.906,0,0,0,1.23-.585,3.107,3.107,0,0,0,.5-1.96q.059-2.252.059-12.345a10.34,10.34,0,0,0-.176-2.516,2.223,2.223,0,0,0-.776-.8A8.514,8.514,0,0,0,35.449-20.8ZM70.9-5.361l.029,1.9a14.106,14.106,0,0,1-4.512,3.4,13.09,13.09,0,0,1-5.244.967A10.624,10.624,0,0,1,55.254-.806,11.061,11.061,0,0,1,51.2-5.654a14.832,14.832,0,0,1-1.421-6.152,12.237,12.237,0,0,1,1.714-6.255,11.032,11.032,0,0,1,4.541-4.395,15.488,15.488,0,0,1,7.1-1.45,11.4,11.4,0,0,1,6.24,1.406,2.466,2.466,0,0,1,1.2,2.109,2.1,2.1,0,0,1-.615,1.553,2.141,2.141,0,0,1-1.582.615,4.831,4.831,0,0,1-3.223-1.816,7.435,7.435,0,0,0-1.963-1.538A4.452,4.452,0,0,0,61.23-22a5.353,5.353,0,0,0-4.336,2.139,11.969,11.969,0,0,0-2.4,7.646,11.073,11.073,0,0,0,2.461,7.559A7.432,7.432,0,0,0,62.7-1.846a10.368,10.368,0,0,0,4.058-.747A16.951,16.951,0,0,0,70.9-5.361ZM74.063-.029,74-.879a1.156,1.156,0,0,1,.439-.22q.205-.044,1.479-.132t1.6-.571q.322-.483.322-4L77.9-17.359l-.059-2.049q0-.263.059-1.961.059-.791.059-1.9l-.117-5.093.029-4.449a3.132,3.132,0,0,0-.454-2.064q-.454-.454-3.208-.834v-.352q0-.176.029-.5a17.192,17.192,0,0,0,2.959-.879q.674-.293,3.428-1.816h.908q-.029.674-.029.82v2.549l-.029,1.26.088,2.314-.029,3.486.029,5.8-.088,7.207v2.227q0,.41.029,1.143l.322.029a3.477,3.477,0,0,0,2.021-.732,55.84,55.84,0,0,0,5.771-4.468q1.172-1.187,1.172-1.714a1.5,1.5,0,0,0-.381-.82,6.273,6.273,0,0,0-1.963-.645q-.322-.059-.7-.146a8.828,8.828,0,0,0-.879-.205l-.059-.293a1.793,1.793,0,0,1,.146-.586q4.629-.176,8.057-.176,1.934,0,4.131.088v.381a1.352,1.352,0,0,1-.146.527q-.439.088-1.377.264a8.62,8.62,0,0,0-2.754.816,23.407,23.407,0,0,0-4.658,3.367q-1.436,1.292-2.49,2.172l-1.055.91a3.079,3.079,0,0,0,.381.5q.117.117.469.527t1.26,1.377q3.164,3.34,4.688,5.156.5.586,1.113,1.289,2.285,2.549,2.666,2.842a6.875,6.875,0,0,0,2.432.82q.762.146,1.318.264a1.884,1.884,0,0,1,.117.557l-.029.293q-2.08-.176-2.988-.176h-.527L89.414,0a6.238,6.238,0,0,1-.645.059,1.8,1.8,0,0,1-.615-.117,1.194,1.194,0,0,1-.088-.41V-.674A.824.824,0,0,1,88.388-1a26.84,26.84,0,0,0,3.358-.381.95.95,0,0,0,.5-.322,3.4,3.4,0,0,0-.848-1.611q-.848-1.113-4.24-4.893A21.2,21.2,0,0,0,84.36-11a3.268,3.268,0,0,0-1.743-.4H81.5q-.117,1.051-.117,4.82,0,3.506.586,4.5a1.935,1.935,0,0,0,1.523.7,3.344,3.344,0,0,1,1.553.439,1.162,1.162,0,0,1,.293.82q-1.758-.029-2.959-.029-1.934,0-4.219.088Q76.787,0,76,0,75.41,0,74.063-.029Zm42.6-33.076,1.2-4.424a2.544,2.544,0,0,1,.322-1.128.6.6,0,0,1,.469-.249q.527,0,1.2,1.26a4.048,4.048,0,0,0,.82,1.157,1.987,1.987,0,0,0,.938.337l.293-.029,1.26.117,6.914.088L138.252-36h2.4l4.541-.086a5.857,5.857,0,0,1,.732.057q1.992.174,2.461.174a.907.907,0,0,0,.7-.288q.088-.114.967-1.934.381-.825.938-.825a1.941,1.941,0,0,1,.586.116,4.328,4.328,0,0,1,.146,1.046L151.7-36.58l.029,2.471q0,.9-.146,5.815a1.405,1.405,0,0,1-.117.581,1.093,1.093,0,0,1-.557.2.517.517,0,0,1-.41-.218,4.582,4.582,0,0,1-.439-1.35,9.817,9.817,0,0,0-1.465-3.746,3.26,3.26,0,0,0-1.685-1.046,25.3,25.3,0,0,0-5.259-.32H136.7q-.059,1.173-.059,2.141l.234,18.209q0,1.085-.117,4.1l.029,3.9-.029,2.17a2.376,2.376,0,0,0,.352,1.466,4,4,0,0,0,1.9.85q2.7.675,3.6.821a2.67,2.67,0,0,1,.908.234V.586l-4.16-.1q-3.428-.026-5.156-.13l-4.277.205L126.8.732a12.217,12.217,0,0,1-1.611-.059L124.775.5a1.413,1.413,0,0,1,.264-.864,2.338,2.338,0,0,1,1.084-.308,24.5,24.5,0,0,0,2.9-.63,5.99,5.99,0,0,0,2.2-.923,1.543,1.543,0,0,0,.41-.879,30.9,30.9,0,0,0,.264-5.068v-4.98l-.117-10.869-.117-2.344-.029-7.822h-4.717q-4.219,0-5.127.511-1.436.8-4.277,4.66-.937,1.449-1.641,1.449l-.264-.059a.594.594,0,0,1-.117-.322,13.548,13.548,0,0,1,.469-2.109Q116.543-32.314,116.66-33.105Zm36.182,10.02q.645-.059,1.084-.059h1.406l1.9-.059,2.49.088,2.021-.059a18.574,18.574,0,0,1,2.9.205,1.351,1.351,0,0,1,.117.469l-.029.234a5.935,5.935,0,0,1-1.9.41,6.042,6.042,0,0,0-2.607.645l-.059.322a2.662,2.662,0,0,0,.235.88q.147.352.383,1.057.647,2.172,2.795,8.394,1.559,4.49,2.883,7.719.807-1.771,1.845-4.487l2.46-6.955a27.9,27.9,0,0,0,1.294-4.557,8.02,8.02,0,0,0,.176-1.436,1.148,1.148,0,0,0-.381-.82,3.3,3.3,0,0,0-1.523-.645,14.863,14.863,0,0,1-2.256-.659.765.765,0,0,1-.205-.571,1.405,1.405,0,0,1,.41-.234H170.1l1.963.029,2.93-.029,1.875.029.469-.029a6.191,6.191,0,0,1,.674.059.49.49,0,0,1,.293.469.694.694,0,0,1-.264.527l-.586.088a5.91,5.91,0,0,0-2.607.879,2.8,2.8,0,0,0-.85,1.465,10.658,10.658,0,0,1-.381,1.055q-.146.351-.424,1.171t-.717,1.932l-.351.819-.029.146L167.117-1.479l-3.629,9.865q-.352.735-.821,1.822a19.694,19.694,0,0,1-1.32,2.293,7.891,7.891,0,0,1-1.526,1.528l-1.5.647a3.622,3.622,0,0,1-.939.118,2.764,2.764,0,0,1-1.936-.576,2.057,2.057,0,0,1-.616-1.58,2.22,2.22,0,0,1,.91-1.712,3.659,3.659,0,0,0,.586-.234l.382-.088a26.693,26.693,0,0,0,3.256.469,2.393,2.393,0,0,0,.91-.759,24.636,24.636,0,0,0,2.471-4.754,12.386,12.386,0,0,0,1.033-3.539,8.541,8.541,0,0,0-.776-2.9l-3.257-8.613q-.675-1.67-4.02-10.9a2.1,2.1,0,0,0-.527-.879L153.809-22l-.615-.117q-.5-.205-.5-.586Zm25.342,38.407q-.029-.331-.029-.6a2.737,2.737,0,0,1,.059-.511l2.951-.585a3.733,3.733,0,0,0,1.15-.849,3.918,3.918,0,0,0,.146-1.054q0-4.508-.234-17.183l-.088-10.714a12.374,12.374,0,0,0-.322-3.22,1.248,1.248,0,0,0-.439-.556,7.428,7.428,0,0,0-2.93-.937l.176-.894a27.1,27.1,0,0,0,4.233-2.1,8.715,8.715,0,0,0,2.036-2.1l.352-.088a1.552,1.552,0,0,1,.586.176q-.029,1.846-.029,2.432l.029,3.223a16.2,16.2,0,0,1,4.512-2.446,14.856,14.856,0,0,1,4.863-.806,10.236,10.236,0,0,1,7.617,3.179,11.225,11.225,0,0,1,3.105,8.188,12.9,12.9,0,0,1-1.746,6.68,10.964,10.964,0,0,1-4.812,4.424A14.206,14.206,0,0,1,193.194.439,15.848,15.848,0,0,1,187.15-1q-.557-.234-1-.41-.059,2.348-.059,4.168,0,9.07.5,10.156.265.587,1.649.7a7.508,7.508,0,0,1,3.121.674,1.462,1.462,0,0,1,.589,1.055l-2.907.059-2.642-.059-4.4.029Zm7.676-33.544a5.409,5.409,0,0,0-.059.762q0,10.459.205,11.719a5.01,5.01,0,0,0,1.641,3.252A8.66,8.66,0,0,0,193.1-1a8.38,8.38,0,0,0,6.182-2.534,8.926,8.926,0,0,0,2.52-6.577,10.809,10.809,0,0,0-2.666-7.705,9.19,9.19,0,0,0-7.031-2.842,9.344,9.344,0,0,0-3.4.6A8.581,8.581,0,0,0,185.859-18.223ZM231.3-15.469l-11.748.086-2.227,0q-1.348,0-2.754.122a5.165,5.165,0,0,0-.264,1.2l.029.293v.293l-.029,1.436a11.431,11.431,0,0,0,1.128,4.38,8.706,8.706,0,0,0,3.223,3.955,9.931,9.931,0,0,0,5.229,1.45,10.783,10.783,0,0,0,2.666-.41,13.494,13.494,0,0,0,2.813-1.494l2.109-1.729.176,1.172a3.554,3.554,0,0,1-.029.439,12.869,12.869,0,0,1-3.34,2.93A15.911,15.911,0,0,1,224.18.5,14.3,14.3,0,0,1,220.9.762a10.5,10.5,0,0,1-4.1-.85,9.986,9.986,0,0,1-4.7-4.146,13.233,13.233,0,0,1-1.714-6.929,14.861,14.861,0,0,1,.483-3.311,17.408,17.408,0,0,1,1.743-4.307,8.438,8.438,0,0,1,2.08-2.549,13.759,13.759,0,0,1,3.076-1.963,11.466,11.466,0,0,1,4.424-.791,8.843,8.843,0,0,1,4.453,1,8.832,8.832,0,0,1,3.5,3.4,7.954,7.954,0,0,1,1.157,3.809Zm-16.348-1.055h1.377q1.494,0,8.906-.469a3.71,3.71,0,0,0,1.436-.234,1.561,1.561,0,0,0,.527-1,4.672,4.672,0,0,0-.586-2.065,4.038,4.038,0,0,0-1.8-1.787,6.062,6.062,0,0,0-2.827-.63,6.643,6.643,0,0,0-5.449,2.549A5.893,5.893,0,0,0,214.951-16.523Z"
     data-name="Path 2"
     id="Path_2" />
</svg>
