<?xml version="1.0" encoding="UTF-8" standalone="no"?>
<svg
   xmlns:dc="http://purl.org/dc/elements/1.1/"
   xmlns:cc="http://creativecommons.org/ns#"
   xmlns:rdf="http://www.w3.org/1999/02/22-rdf-syntax-ns#"
   xmlns:svg="http://www.w3.org/2000/svg"
   xmlns="http://www.w3.org/2000/svg"
   xmlns:sodipodi="http://sodipodi.sourceforge.net/DTD/sodipodi-0.dtd"
   xmlns:inkscape="http://www.inkscape.org/namespaces/inkscape"
   inkscape:version="1.0 (4035a4fb49, 2020-05-01)"
   sodipodi:docname="Play As-NBA.svg"
   id="svg3"
   version="1.1"
   viewBox="0 0 170.654 54.141"
   height="54.141"
   width="170.654">
  <metadata
     id="metadata9">
    <rdf:RDF>
      <cc:Work
         rdf:about="">
        <dc:format>image/svg+xml</dc:format>
        <dc:type
           rdf:resource="http://purl.org/dc/dcmitype/StillImage" />
      </cc:Work>
    </rdf:RDF>
  </metadata>
  <defs
     id="defs7" />
  <sodipodi:namedview
     inkscape:current-layer="svg3"
     inkscape:window-maximized="1"
     inkscape:window-y="-9"
     inkscape:window-x="69"
     inkscape:cy="24.597829"
     inkscape:cx="78.466078"
     inkscape:zoom="3.539325"
     showgrid="false"
     id="namedview5"
     inkscape:window-height="1051"
     inkscape:window-width="1842"
     inkscape:pageshadow="2"
     inkscape:pageopacity="0"
     guidetolerance="10"
     gridtolerance="10"
     objecttolerance="10"
     borderopacity="1"
     bordercolor="#666666"
     pagecolor="#ffffff"
     inkscape:document-rotation="0" />
  <path
     style="fill:#253b73;fill-opacity:1"
     transform="translate(-1.113 39.346)"
     d="M1.289-37.383a5.6,5.6,0,0,1,.674-.088q1,0,3.281.117,1.2.029,1.641.029.645,0,2.725-.117l4.98-.293q1.963-.176,4.57-.176a17.187,17.187,0,0,1,7.324,1.3,9.147,9.147,0,0,1,4.2,4.082A11.688,11.688,0,0,1,32.168-27a11.02,11.02,0,0,1-3.223,7.929,11.5,11.5,0,0,1-8.672,3.335,9,9,0,0,1-2.549-.308,9.1,9.1,0,0,1-2.344-1.187,1.548,1.548,0,0,1-.674-.791.668.668,0,0,1,.322-.293,2.282,2.282,0,0,1,.85.176,7.672,7.672,0,0,0,2.52.352,8.925,8.925,0,0,0,4.38-1.141,7.429,7.429,0,0,0,3.12-3.247,9.8,9.8,0,0,0,1.055-4.446,9.541,9.541,0,0,0-1.111-4.431,9.441,9.441,0,0,0-2.924-3.437,9.132,9.132,0,0,0-3.143-1.228,15.5,15.5,0,0,0-3.289-.5q-3.625,0-4.3.527l-.029.41.088,3.308-.029.585q-.059.791-.059,2.43,0,5.972.176,7.435v1.639L12.715-6.5q0,.293-.073,1.083T12.568-4.04A7.413,7.413,0,0,0,12.8-1.9q.7.2,4.1.966,1.582.381,1.729.439a.842.842,0,0,1,.41.381,1,1,0,0,1-.308.571,1.44,1.44,0,0,1-.747.132q-.352,0-1.641-.146Q13.828.176,12.393.176L7.236.381,4.16.293q-.293,0-1.7.059L2.432-.41,6.24-1.142a2.441,2.441,0,0,0,1.143-.527,3.022,3.022,0,0,0,.293-1.61q0-.263.029-1.142.029-.615.029-1.7,0-3.454-.293-14.724-.117-5.269-.117-10.714v-.5q0-2.108-.645-2.664Q5.6-35.684,1.26-36.3a1.352,1.352,0,0,1-.146-.527A1.209,1.209,0,0,1,1.289-37.383ZM35.273-36.3v-.645q.82-.264,1.816-.557,1.472-.469,4.358-1.436h1.384v1.613q0,24.071-.146,28.7-.088,2.727-.088,2.9a12.211,12.211,0,0,0,.264,3.665q.352.528,2.153.733a7.447,7.447,0,0,1,2.124.41.42.42,0,0,1,.234.41.631.631,0,0,1-.132.454.682.682,0,0,1-.483.132q-.205,0-3.076-.1L39.844-.146,34.922.088a.934.934,0,0,1-.7-.18.523.523,0,0,1-.176-.421.5.5,0,0,1,.19-.436,10.681,10.681,0,0,1,2.109-.458,7.662,7.662,0,0,0,2.2-.542,1.475,1.475,0,0,0,.366-.981q.117-1.055.117-5.947l-.029-6.738.088-6.973-.029-6.973.088-3.428a2.615,2.615,0,0,0-.322-1.479,3.221,3.221,0,0,0-1.377-.894Q35.859-36.006,35.273-36.3ZM71.309-3.984a1.551,1.551,0,0,1,.176.557,3.777,3.777,0,0,1-.7,1.553A6.307,6.307,0,0,1,68.76.264,3.634,3.634,0,0,1,66.826.7,3.849,3.849,0,0,1,63.662-.586a5.488,5.488,0,0,1-.908-2.725L59.473-1.025A13.485,13.485,0,0,1,56.836.234,14.126,14.126,0,0,1,53.32.615a3.128,3.128,0,0,1-2.358-.894,3.171,3.171,0,0,1-.864-2.3q0-2.021,2.481-4.834a18.187,18.187,0,0,1,6.739-4.6q3-1.26,3.67-1.611.059-.967.059-2.109,0-3.721-1.043-5.039a3.581,3.581,0,0,0-2.983-1.318,5.588,5.588,0,0,0-3.791,1.582,7,7,0,0,0-1.646,3.75,6.208,6.208,0,0,1-.674,1.641,4.1,4.1,0,0,1-2.021.82,1.955,1.955,0,0,1-1.172-.381.577.577,0,0,1-.293-.469,10.1,10.1,0,0,1,1.626-3.442,10.759,10.759,0,0,1,4.1-4.014,9.423,9.423,0,0,1,4.321-1.333,11.547,11.547,0,0,1,3.75.454,5.065,5.065,0,0,1,2.168,1.6,5.088,5.088,0,0,1,1.143,2.49,45.789,45.789,0,0,1,.117,4.6l-.088,4.658.029,3.4q0,.674-.029,1.143-.029.85-.029,1.26a2.161,2.161,0,0,0,.557,1.553,1.759,1.759,0,0,0,1.318.586,2.3,2.3,0,0,0,1.9-1.113l.352-.469A2.731,2.731,0,0,1,71.309-3.984Zm-8.584-.85q.206-3.721.206-5.244,0-.791-.088-2.139a20.192,20.192,0,0,0-4.174,2.139,12.371,12.371,0,0,0-3.5,3.311,4.51,4.51,0,0,0-.941,2.549,2.554,2.554,0,0,0,.779,1.9,2.683,2.683,0,0,0,1.955.762A5.152,5.152,0,0,0,59.167-2.2,14.73,14.73,0,0,0,62.724-4.834Zm9.493-18.252q.645-.059,1.084-.059h1.406l1.9-.059,2.49.088,2.021-.059a18.574,18.574,0,0,1,2.9.205,1.351,1.351,0,0,1,.117.469l-.029.234a5.935,5.935,0,0,1-1.9.41,6.042,6.042,0,0,0-2.607.645l-.059.322a2.662,2.662,0,0,0,.235.88q.147.352.383,1.057.647,2.172,2.795,8.394,1.559,4.49,2.883,7.719.807-1.771,1.845-4.487l2.46-6.955a27.9,27.9,0,0,0,1.294-4.557,8.02,8.02,0,0,0,.176-1.436,1.148,1.148,0,0,0-.381-.82,3.3,3.3,0,0,0-1.523-.645,14.863,14.863,0,0,1-2.256-.659.765.765,0,0,1-.205-.571,1.405,1.405,0,0,1,.41-.234h1.816l1.963.029,2.93-.029,1.875.029.469-.029a6.191,6.191,0,0,1,.674.059.49.49,0,0,1,.293.469.694.694,0,0,1-.264.527l-.586.088a5.91,5.91,0,0,0-2.607.879,2.8,2.8,0,0,0-.85,1.465,10.658,10.658,0,0,1-.381,1.055q-.146.351-.424,1.171t-.717,1.932l-.351.819-.029.146L86.492-1.479,82.863,8.387q-.352.735-.821,1.822a19.694,19.694,0,0,1-1.32,2.293A7.891,7.891,0,0,1,79.2,14.03l-1.5.647a3.622,3.622,0,0,1-.939.118,2.764,2.764,0,0,1-1.936-.576,2.057,2.057,0,0,1-.616-1.58,2.22,2.22,0,0,1,.91-1.712,3.659,3.659,0,0,0,.586-.234l.382-.088a26.693,26.693,0,0,0,3.256.469,2.393,2.393,0,0,0,.91-.759,24.636,24.636,0,0,0,2.471-4.754,12.386,12.386,0,0,0,1.033-3.539,8.541,8.541,0,0,0-.776-2.9L79.723-9.492q-.675-1.67-4.02-10.9a2.1,2.1,0,0,0-.527-.879L73.184-22l-.615-.117q-.5-.205-.5-.586ZM111.533-.937a1.514,1.514,0,0,1,.732-.234h.674q.2,0,.7-.029a11.519,11.519,0,0,0,2.665-.41,4.511,4.511,0,0,0,1.757-1.934,70.509,70.509,0,0,0,3.429-8.467q.909-2.607,1.143-3.164.732-1.758,1.407-3.691l2.754-7.705q.645-1.816,3.106-8.32.615-1.641,1.495-4.395l.862-.059,1.024.029a40.475,40.475,0,0,1,2.224,5.361q.527,1.523,1.727,4.541l4.448,12.041,2.37,6.533Q145.928-5.273,146.514-4A4.958,4.958,0,0,0,147.6-2.314a4.387,4.387,0,0,0,1.1.352q.952.234,1.333.352a12.1,12.1,0,0,1,1.875.645,1.592,1.592,0,0,1,.117.5,1.7,1.7,0,0,1-.088.439Q151,0,150.615,0q-1.494,0-5.273-.088l-2.93-.066-3.545.044q-.352,0-.718-.033t-.63-.033h-.645a1.465,1.465,0,0,1-.586-.176,2.185,2.185,0,0,1,.146-.791,1.883,1.883,0,0,1,.645-.205l3.075-.206a5.5,5.5,0,0,0,1.816-.323,2.8,2.8,0,0,0,.176-.792,12.728,12.728,0,0,0-.762-2.73q-.526-1.468-.921-2.788t-3.116-8.688a12.7,12.7,0,0,0-2.109-.206l-6.27.059-1.846-.029a18.271,18.271,0,0,0-2.2.146q-.381.879-.5,1.26l-2.582,8.057a40.682,40.682,0,0,0-1.641,5.068,2.659,2.659,0,0,0,.264.879,12.8,12.8,0,0,0,1.641.322l3.984.352q.322.264.322.469a1.7,1.7,0,0,1-.088.439q-1.318.029-2.021.029-2.344,0-5.449-.146-1.436-.059-2.051-.059t-2.139.059q-1,.059-1.436.059-.7,0-1.816-.088V-.381A1.884,1.884,0,0,1,111.533-.937Zm13.98-17.578q3.135.176,7.148.176,2.285,0,4.014-.146A19.718,19.718,0,0,0,136-20.624q-1.9-5.1-2.106-5.623l-2.663-6.765-.293-.527q-.176.352-1.291,3.016-1.878,4.569-2.7,7.116-.381,1.142-.792,2.27a15.418,15.418,0,0,0-.513,1.582,5.083,5.083,0,0,1-.308.922Zm31.2,11.074a22.051,22.051,0,0,0,1.641,3.6,8.312,8.312,0,0,0,2.666,2.593,6.477,6.477,0,0,0,3.369.923A5.04,5.04,0,0,0,167.7-1.758a3.337,3.337,0,0,0,1.172-2.52,5.3,5.3,0,0,0-1.377-3.516,13.258,13.258,0,0,0-5.229-3.032q-3.853-1.45-5.171-3.091a5.821,5.821,0,0,1-1.318-3.75,5.91,5.91,0,0,1,1.084-3.516,6.641,6.641,0,0,1,2.988-2.3,9.377,9.377,0,0,1,3.516-.776,19.646,19.646,0,0,1,3.735.322,9.539,9.539,0,0,1,2.856,1q.234,1.494.381,4.395l.059.938q-.381.029-.645.029h-.41a8.41,8.41,0,0,0-2.681-3.853,5.769,5.769,0,0,0-3.56-1.421,3.872,3.872,0,0,0-2.842,1.069,3.756,3.756,0,0,0-1.084,2.8,3.5,3.5,0,0,0,.879,2.344,11.714,11.714,0,0,0,4.116,2.338,21.428,21.428,0,0,1,4.717,2.441,6.869,6.869,0,0,1,2.183,2.742,7.7,7.7,0,0,1,.7,3.079,6.144,6.144,0,0,1-1.333,3.783,7.142,7.142,0,0,1-3.34,2.478,10.8,10.8,0,0,1-3.589.718A16.858,16.858,0,0,1,156.65-.439a1.15,1.15,0,0,1-.322-.879q0-.264-.059-.85-.469-3.955-.469-4.687a.584.584,0,0,1,.146-.469A1.482,1.482,0,0,1,156.709-7.441Z"
     data-name="Path 3"
     id="Path_3" />
</svg>
