<?xml version="1.0" encoding="UTF-8" standalone="no"?>
<svg
   xmlns:dc="http://purl.org/dc/elements/1.1/"
   xmlns:cc="http://creativecommons.org/ns#"
   xmlns:rdf="http://www.w3.org/1999/02/22-rdf-syntax-ns#"
   xmlns:svg="http://www.w3.org/2000/svg"
   xmlns="http://www.w3.org/2000/svg"
   xmlns:sodipodi="http://sodipodi.sourceforge.net/DTD/sodipodi-0.dtd"
   xmlns:inkscape="http://www.inkscape.org/namespaces/inkscape"
   inkscape:version="1.0 (4035a4fb49, 2020-05-01)"
   sodipodi:docname="knight.svg"
   id="svg2631"
   height="45"
   width="45"
   version="1.1">
  <metadata
     id="metadata2637">
    <rdf:RDF>
      <cc:Work
         rdf:about="">
        <dc:format>image/svg+xml</dc:format>
        <dc:type
           rdf:resource="http://purl.org/dc/dcmitype/StillImage" />
        <dc:title></dc:title>
      </cc:Work>
    </rdf:RDF>
  </metadata>
  <defs
     id="defs2635" />
  <sodipodi:namedview
     inkscape:current-layer="svg2631"
     inkscape:window-maximized="1"
     inkscape:window-y="-9"
     inkscape:window-x="-9"
     inkscape:cy="22.5"
     inkscape:cx="22.5"
     inkscape:zoom="17.815163"
     showgrid="false"
     id="namedview2633"
     inkscape:window-height="1001"
     inkscape:window-width="1920"
     inkscape:pageshadow="2"
     inkscape:pageopacity="0"
     guidetolerance="10"
     gridtolerance="10"
     objecttolerance="10"
     borderopacity="1"
     bordercolor="#666666"
     pagecolor="#ffffff" />
  <path
     d="M -0.056640625 0.056640625 L -0.056640625 45.074219 L 45.130859 45.074219 L 45.130859 0.056640625 L -0.056640625 0.056640625 z M 21 7 C 22 7 22 10 22 10 C 32.5 11 38.5 18 38 39 L 15 39 C 15 30.540846 23.833276 32.238556 23.234375 20.433594 C 21.601967 22.984345 17.830629 25.782072 16 27 C 13 29 13.18 31.34 11 31 C 9.958 30.06 12.41 27.96 11 28 C 10 28 11.19 29.23 10 30 C 9 30 5.997 31 6 26 C 6 24 12 14 12 14 C 12 14 13.89 12.1 14 10.5 C 13.27 9.506 13.5 8.5 13.5 7.5 C 14.5 6.5 16.5 10 16.5 10 L 18.5 10 C 18.5 10 19.28 8.008 21 7 z "
     style="fill:#000000;stroke-width:0.885754"
     id="rect2655" />
</svg>
