<?xml version="1.0" encoding="UTF-8" standalone="no"?>
<svg
   xmlns:dc="http://purl.org/dc/elements/1.1/"
   xmlns:cc="http://creativecommons.org/ns#"
   xmlns:rdf="http://www.w3.org/1999/02/22-rdf-syntax-ns#"
   xmlns:svg="http://www.w3.org/2000/svg"
   xmlns="http://www.w3.org/2000/svg"
   xmlns:sodipodi="http://sodipodi.sourceforge.net/DTD/sodipodi-0.dtd"
   xmlns:inkscape="http://www.inkscape.org/namespaces/inkscape"
   inkscape:version="1.0 (4035a4fb49, 2020-05-01)"
   sodipodi:docname="Load Game.svg"
   id="svg3"
   version="1.1"
   viewBox="0 0 78.027 58.811"
   height="58.811"
   width="78.027">
  <metadata
     id="metadata9">
    <rdf:RDF>
      <cc:Work
         rdf:about="">
        <dc:format>image/svg+xml</dc:format>
        <dc:type
           rdf:resource="http://purl.org/dc/dcmitype/StillImage" />
      </cc:Work>
    </rdf:RDF>
  </metadata>
  <defs
     id="defs7" />
  <sodipodi:namedview
     inkscape:current-layer="svg3"
     inkscape:window-maximized="1"
     inkscape:window-y="-9"
     inkscape:window-x="-9"
     inkscape:cy="29.4055"
     inkscape:cx="39.0135"
     inkscape:zoom="14.113006"
     showgrid="false"
     id="namedview5"
     inkscape:window-height="1001"
     inkscape:window-width="1920"
     inkscape:pageshadow="2"
     inkscape:pageopacity="0"
     guidetolerance="10"
     gridtolerance="10"
     objecttolerance="10"
     borderopacity="1"
     bordercolor="#666666"
     pagecolor="#ffffff" />
  <path
     style="fill:#ffffff;fill-opacity:1"
     transform="translate(38.64 22.379)"
     d="M-33.635.1A1.01,1.01,0,0,1-33.5-.349a15.206,15.206,0,0,1,2.523-.465,1.481,1.481,0,0,0,1.046-.366,4.139,4.139,0,0,0,.2-1.6l.116-4.386-.017-2.974.017-3.888v-1.03q.017-3.506-.033-4.37a1.921,1.921,0,0,0-.133-.465,3.894,3.894,0,0,0-.726-.266q-.292-.067-2.61-.482-.017-.183-.017-.266,0-.1.017-.266.316,0,1.031.038l2.527.095L-28.1-21l.432-.017q.083,0,.482.033.981,0,1.131-.017l1.33-.1q1.347,0,1.9.05a2.97,2.97,0,0,1-.116.647q-.183.033-1.727.091a6.5,6.5,0,0,0-1.776.191q-.382.216-.382,1.328,0,.266-.033,1.079v1l.017,3.071V-12.6l.033,5.5-.05,4.682.017,1.029q0,.5.166.614.415.017,2.44.033h1.129l2.872-.1a5.222,5.222,0,0,0,1.61-.224,7.688,7.688,0,0,0,1.61-1.121A5.341,5.341,0,0,0-15.954-3.42q.083-.133.282-.4a9.441,9.441,0,0,0,.847-1.727h.548q-.1.6-.216,1.129-.481,2.341-.664,3.9-.033.332-.066.614l-6.209-.183q-8,0-9.5.149Q-31.394.1-31.908.1Zm20.5-6.773a7.017,7.017,0,0,1,.473-2.416A6.711,6.711,0,0,1-11.223-11.4a6.673,6.673,0,0,1,2.042-1.519,8.76,8.76,0,0,1,3.686-.7A6.971,6.971,0,0,1-.307-11.488,7.041,7.041,0,0,1,1.776-6.375,6.4,6.4,0,0,1-.407-1.635,7.674,7.674,0,0,1-5.927.448,7.513,7.513,0,0,1-9.812-.631a6.983,6.983,0,0,1-2.341-2.407A6.8,6.8,0,0,1-13.132-6.674ZM-5.786-.2A4.787,4.787,0,0,0-3.349-.88,4.718,4.718,0,0,0-1.479-3.063a8.169,8.169,0,0,0,.7-3.478,10.155,10.155,0,0,0-.54-3,5,5,0,0,0-1.663-2.565,4.227,4.227,0,0,0-2.636-.855,5.406,5.406,0,0,0-2.237.515,4.274,4.274,0,0,0-1.929,1.976,8.865,8.865,0,0,0-.79,4.15A6.714,6.714,0,0,0-9.2-1.751,4.375,4.375,0,0,0-5.786-.2ZM16.5-2.258a.879.879,0,0,1,.1.315,2.14,2.14,0,0,1-.4.88A3.574,3.574,0,0,1,15.058.149a2.06,2.06,0,0,1-1.1.249,2.181,2.181,0,0,1-1.793-.73,3.11,3.11,0,0,1-.515-1.544L9.795-.581A7.641,7.641,0,0,1,8.3.133,8,8,0,0,1,6.309.349,1.773,1.773,0,0,1,4.972-.158a1.8,1.8,0,0,1-.49-1.3A4.54,4.54,0,0,1,5.888-4.2,10.306,10.306,0,0,1,9.707-6.807q1.7-.714,2.08-.913.033-.548.033-1.2a4.874,4.874,0,0,0-.591-2.855,2.029,2.029,0,0,0-1.69-.747,3.166,3.166,0,0,0-2.148.9A3.964,3.964,0,0,0,6.458-9.5a3.518,3.518,0,0,1-.382.93A2.324,2.324,0,0,1,4.931-8.1a1.108,1.108,0,0,1-.664-.216A.327.327,0,0,1,4.1-8.583a5.725,5.725,0,0,1,.921-1.951,6.1,6.1,0,0,1,2.324-2.274,5.34,5.34,0,0,1,2.449-.755,6.543,6.543,0,0,1,2.125.257,2.87,2.87,0,0,1,1.229.9A2.883,2.883,0,0,1,13.8-10.99a25.948,25.948,0,0,1,.066,2.606l-.05,2.64.017,1.926q0,.382-.017.647-.017.481-.017.714a1.225,1.225,0,0,0,.315.88,1,1,0,0,0,.747.332,1.3,1.3,0,0,0,1.079-.631l.2-.266A1.547,1.547,0,0,1,16.5-2.258Zm-4.865-.481q.116-2.108.116-2.972,0-.448-.05-1.212A11.442,11.442,0,0,0,9.339-5.711,7.01,7.01,0,0,0,7.356-3.835a2.556,2.556,0,0,0-.533,1.444,1.447,1.447,0,0,0,.441,1.079A1.52,1.52,0,0,0,8.372-.88a2.92,2.92,0,0,0,1.25-.365A8.347,8.347,0,0,0,11.637-2.739Zm17.3-9.313.017-.481-.017-1.942.017-3.669a3.583,3.583,0,0,0-.332-1.942,4.252,4.252,0,0,0-1.942-.847q-.116-.033-.365-.1v-.183a2.236,2.236,0,0,1,.033-.365,18.075,18.075,0,0,0,3.885-.78l.847-.017q.066,1.129.066,2.523l-.066,6.392.116,7.205-.05,3.835q0,1.179.166,1.328a2.237,2.237,0,0,0,1.461.349q.232,0,.631.033v.3a2.014,2.014,0,0,1-.017.249q-.515.116-1.062.216L29.916.515a4.853,4.853,0,0,1-.847.1V-.979q-.282.083-.88.332a12.329,12.329,0,0,1-4.765,1.1,5.013,5.013,0,0,1-2.673-.855A5.59,5.59,0,0,1,18.66-2.789a7.162,7.162,0,0,1-.73-3.121,7.817,7.817,0,0,1,.481-2.731,6.6,6.6,0,0,1,1.262-2.167,6.121,6.121,0,0,1,1.411-1.121,5.833,5.833,0,0,1,1.511-.706,10.029,10.029,0,0,1,1.976-.382,8.853,8.853,0,0,1,3.686.664Q28.7-12.136,28.937-12.053Zm.017,10.26q.066-1.112.066-4.582a14.79,14.79,0,0,0-.273-3.71,3.088,3.088,0,0,0-1.364-1.461,4.49,4.49,0,0,0-2.447-.689,4.169,4.169,0,0,0-3.225,1.478,6.356,6.356,0,0,0-1.323,4.366,5.649,5.649,0,0,0,1.431,4.051A4.707,4.707,0,0,0,25.381-.83a7.111,7.111,0,0,0,2.233-.332A4.08,4.08,0,0,0,28.953-1.793ZM-18.054,15.846l.183,2.523q.1,1.146.1,1.561l-.465.083A9.407,9.407,0,0,0-21,16.228a6.464,6.464,0,0,0-4.042-1.262,11.629,11.629,0,0,0-4.549.714,9.288,9.288,0,0,0-4.034,3.52A10.617,10.617,0,0,0-35.3,25.242a10.328,10.328,0,0,0,.614,3.669,11.134,11.134,0,0,0,1.735,3.03,11.815,11.815,0,0,0,2.648,2.432A7.377,7.377,0,0,0-27.932,35.4a10.979,10.979,0,0,0,2.324.183A9.809,9.809,0,0,0-23.4,35.3a4.8,4.8,0,0,0,1.826-.755,2.45,2.45,0,0,0,.838-1.071,7.813,7.813,0,0,0,.224-2.324q0-2.872-.382-3.345t-2.407-.623l-.664-.05-.448.017q-.1-.017-.266-.05l-.249-.415a.377.377,0,0,1,.116-.216,32.017,32.017,0,0,1,3.752-.133q.647,0,2.108.033l1.71.066,1.544-.017q.448,0,1.079.033a.237.237,0,0,1,.149.058.23.23,0,0,1,.033.141,1.72,1.72,0,0,1-.083.465,5.547,5.547,0,0,1-1.079.149l-1.079-.017a1.109,1.109,0,0,0-.88.382,2.531,2.531,0,0,0-.166,1.245l.017,2.175a13.215,13.215,0,0,1-.183,2.855,1.381,1.381,0,0,1-.415.656,4.751,4.751,0,0,1-1.328.689,12.881,12.881,0,0,1-2.623.78,24.658,24.658,0,0,1-4.233.382,14.7,14.7,0,0,1-5.387-.838,10.81,10.81,0,0,1-3.619-2.333,9.55,9.55,0,0,1-2.167-3.021,11.3,11.3,0,0,1-.979-4.565A11.632,11.632,0,0,1-37.1,19.971a11.28,11.28,0,0,1,4.956-4.524,14.531,14.531,0,0,1,6.541-1.229,18.128,18.128,0,0,1,4.673.5A11.9,11.9,0,0,1-18.054,15.846ZM-.49,33.742a.879.879,0,0,1,.1.315,2.14,2.14,0,0,1-.4.88,3.574,3.574,0,0,1-1.146,1.212,2.06,2.06,0,0,1-1.1.249,2.181,2.181,0,0,1-1.793-.73,3.11,3.11,0,0,1-.515-1.544L-7.2,35.419a7.641,7.641,0,0,1-1.494.714,8.005,8.005,0,0,1-1.992.216,1.773,1.773,0,0,1-1.336-.506,1.8,1.8,0,0,1-.49-1.3A4.54,4.54,0,0,1-11.1,31.8a10.306,10.306,0,0,1,3.819-2.606q1.7-.714,2.08-.913.033-.548.033-1.2a4.874,4.874,0,0,0-.591-2.855,2.029,2.029,0,0,0-1.69-.747,3.166,3.166,0,0,0-2.148.9,3.964,3.964,0,0,0-.933,2.125,3.518,3.518,0,0,1-.382.93,2.324,2.324,0,0,1-1.146.465,1.108,1.108,0,0,1-.664-.216.327.327,0,0,1-.166-.266,5.725,5.725,0,0,1,.921-1.951,6.1,6.1,0,0,1,2.324-2.274A5.34,5.34,0,0,1-7.2,22.437a6.544,6.544,0,0,1,2.125.257,2.87,2.87,0,0,1,1.229.9A2.883,2.883,0,0,1-3.2,25.01a25.948,25.948,0,0,1,.066,2.606l-.05,2.64.017,1.926q0,.382-.017.647-.017.481-.017.714a1.225,1.225,0,0,0,.315.88,1,1,0,0,0,.747.332,1.3,1.3,0,0,0,1.079-.631l.2-.266A1.547,1.547,0,0,1-.49,33.742Zm-4.865-.481q.116-2.108.116-2.972,0-.448-.05-1.212a11.442,11.442,0,0,0-2.365,1.212,7.01,7.01,0,0,0-1.982,1.876,2.556,2.556,0,0,0-.533,1.444,1.447,1.447,0,0,0,.441,1.079,1.52,1.52,0,0,0,1.108.432,2.92,2.92,0,0,0,1.25-.365A8.347,8.347,0,0,0-5.354,33.261ZM.49,35.436a1.715,1.715,0,0,1,.73-.249,3.273,3.273,0,0,0,1.029-.266,1.229,1.229,0,0,0,.4-.714,38.684,38.684,0,0,0,.116-4.2,29,29,0,0,0-.216-4.565,3.016,3.016,0,0,0-.946-.365q-.183-.033-.764-.183v-.556A5,5,0,0,0,2.431,23.6a10.878,10.878,0,0,0,1.692-1.8h.1q.1,0,.317-.017a.424.424,0,0,1,.217.083L4.74,23.765q0,.581.033,1.245a13.169,13.169,0,0,1,3.182-2.258,5.244,5.244,0,0,1,2.171-.432,4.163,4.163,0,0,1,2.287.548,5.235,5.235,0,0,1,1.607,1.976A10.571,10.571,0,0,1,16.7,22.8a5.545,5.545,0,0,1,2.432-.581,4.1,4.1,0,0,1,3.055,1.213A5.129,5.129,0,0,1,23.4,27.041v1.38l.017,1.513-.017,3.89a1.436,1.436,0,0,0,.3,1.031q.133.05,1.013.3a2.394,2.394,0,0,1,.647.233.286.286,0,0,1,.1.233,1.2,1.2,0,0,1-.1.432h-.116l-1.673-.1q-.3-.017-.944-.017-.795,0-2.219.066h-.845q-.182,0-.712.017a2.434,2.434,0,0,1-.017-.266.7.7,0,0,1,.116-.332,5.087,5.087,0,0,1,1.229-.324q.78-.125.971-.449a8.763,8.763,0,0,0,.191-2.585q0-4.9-.116-5.686a3.054,3.054,0,0,0-1.057-1.954,3.275,3.275,0,0,0-2.155-.707,3.986,3.986,0,0,0-1.947.523A7.064,7.064,0,0,0,14.2,25.807l-.017.4v2.54l-.066,1.976q0,3.021.058,3.437a.934.934,0,0,0,.282.606,3.254,3.254,0,0,0,1.3.34,7.476,7.476,0,0,1,.747.133.535.535,0,0,1,.2.432.312.312,0,0,1-.149.3h-.282l-.83-.017H10.617l-1.328.017a3.09,3.09,0,0,1-.033-.365l.017-.2a5.145,5.145,0,0,1,1.361-.382,5.831,5.831,0,0,0,1.063-.282.506.506,0,0,0,.149-.216,6.4,6.4,0,0,0,.116-1.328l.083-1.926-.033-2.175.017-1.212A4.435,4.435,0,0,0,11.2,24.9a2.665,2.665,0,0,0-2.087-.938,5.32,5.32,0,0,0-2.36.581A5.642,5.642,0,0,0,4.79,26.105q-.017.465-.017.847l.066,5.578a5.812,5.812,0,0,0,.208,2.083,1.3,1.3,0,0,0,.855.357,3.768,3.768,0,0,1,1.378.365.335.335,0,0,1,.149.3q0,.133-.017.315-1.9-.133-2.546-.133-.666,0-1.2.017l-.832.05H2.32L.457,35.95a.728.728,0,0,1-.033-.192A1.687,1.687,0,0,1,.49,35.436Zm38.7-8.2-6.657.049H31.269q-.764,0-1.561.069a2.927,2.927,0,0,0-.149.681l.017.166v.166l-.017.813a6.477,6.477,0,0,0,.639,2.482A4.933,4.933,0,0,0,32.024,33.9a5.628,5.628,0,0,0,2.963.822,6.11,6.11,0,0,0,1.511-.232,7.647,7.647,0,0,0,1.594-.847l1.2-.979.1.664a2.014,2.014,0,0,1-.017.249,7.293,7.293,0,0,1-1.893,1.66,9.016,9.016,0,0,1-2.324,1.046,8.106,8.106,0,0,1-1.859.149,5.95,5.95,0,0,1-2.324-.481A5.659,5.659,0,0,1,28.306,33.6a7.5,7.5,0,0,1-.971-3.926,8.421,8.421,0,0,1,.274-1.876,9.864,9.864,0,0,1,.988-2.44,4.782,4.782,0,0,1,1.179-1.444A7.8,7.8,0,0,1,31.518,22.8a6.5,6.5,0,0,1,2.507-.448,4.922,4.922,0,0,1,4.507,2.49A4.507,4.507,0,0,1,39.188,27Zm-9.264-.6h.78q.847,0,5.047-.266a2.1,2.1,0,0,0,.813-.133.885.885,0,0,0,.3-.564,2.647,2.647,0,0,0-.332-1.17,2.288,2.288,0,0,0-1.021-1.013,3.435,3.435,0,0,0-1.6-.357,3.764,3.764,0,0,0-3.088,1.444A3.339,3.339,0,0,0,29.924,26.637Z"
     id="text2694" />
</svg>
