<?xml version="1.0" encoding="UTF-8" standalone="no"?>
<svg
   xmlns:dc="http://purl.org/dc/elements/1.1/"
   xmlns:cc="http://creativecommons.org/ns#"
   xmlns:rdf="http://www.w3.org/1999/02/22-rdf-syntax-ns#"
   xmlns:svg="http://www.w3.org/2000/svg"
   xmlns="http://www.w3.org/2000/svg"
   xmlns:sodipodi="http://sodipodi.sourceforge.net/DTD/sodipodi-0.dtd"
   xmlns:inkscape="http://www.inkscape.org/namespaces/inkscape"
   sodipodi:docname="council-rules-reg-ffffff.svg"
   inkscape:version="1.0 (4035a4fb49, 2020-05-01)"
   id="svg8"
   version="1.1"
   viewBox="0 0 19.84375 7.9375"
   height="7.9375mm"
   width="19.84375mm">
  <defs
     id="defs2" />
  <sodipodi:namedview
     inkscape:window-maximized="1"
     inkscape:window-y="-9"
     inkscape:window-x="-9"
     inkscape:window-height="1001"
     inkscape:window-width="1920"
     fit-margin-bottom="0"
     fit-margin-right="0"
     fit-margin-left="0"
     fit-margin-top="0"
     showgrid="false"
     inkscape:document-rotation="0"
     inkscape:current-layer="layer1"
     inkscape:document-units="mm"
     inkscape:cy="26.083159"
     inkscape:cx="32.0561"
     inkscape:zoom="11.313708"
     inkscape:pageshadow="2"
     inkscape:pageopacity="0.0"
     borderopacity="1.0"
     bordercolor="#666666"
     pagecolor="#ffffff"
     id="base"
     showguides="false" />
  <metadata
     id="metadata5">
    <rdf:RDF>
      <cc:Work
         rdf:about="">
        <dc:format>image/svg+xml</dc:format>
        <dc:type
           rdf:resource="http://purl.org/dc/dcmitype/StillImage" />
        <dc:title />
      </cc:Work>
    </rdf:RDF>
  </metadata>
  <g
     transform="translate(127,80.886909)"
     id="layer1"
     inkscape:groupmode="layer"
     inkscape:label="Layer 1">
    <rect
       style="opacity:0.997;fill:#edc9a2;stroke:none;stroke-width:0.18921;stroke-linejoin:round;stroke-dasharray:0.567624, 0.18920999999999999;fill-opacity:1"
       id="rect843-7"
       width="19.84375"
       height="7.9375"
       x="-127"
       y="-80.886909" />
    <path
       id="rect833"
       style="opacity:0.997;fill:#ffffff;stroke:none;stroke-width:7.80794;stroke-linejoin:round;stroke-miterlimit:4;stroke-dasharray:none;fill-opacity:1"
       d="M 0 0 L 0 30 L 75 30 L 75 0 L 0 0 z M 16.84375 3.015625 C 16.899816 3.0377211 16.955301 3.0836725 17.017578 3.1503906 C 17.106019 3.2448788 17.299902 3.5922473 17.447266 3.921875 C 17.984374 5.1231827 18.648348 5.763388 20.509766 6.875 C 22.173362 7.8684715 23.616819 9.127616 24.599609 10.441406 C 25.330003 11.417768 25.765546 12.32597 25.947266 13.257812 C 26.172525 14.413365 26.324244 16.56107 26.326172 18.595703 C 26.328591 20.838407 26.469849 23.996709 26.619141 25.142578 C 26.667519 25.515806 26.902878 26.618854 26.998047 26.916016 C 27.024504 27.001962 26.64148 27.006211 19.429688 26.998047 C 15.250399 26.993511 11.037102 26.971997 10.066406 26.951172 L 10.064453 26.951172 C 7.7829413 26.902605 7.0146035 26.813969 6.8769531 26.583984 C 6.7378665 26.351808 7.0043851 25.014716 7.4042969 23.941406 C 8.1538528 21.929549 9.4038416 19.973016 10.261719 19.464844 C 10.407986 19.378255 10.64021 19.292071 10.779297 19.273438 C 11.103202 19.229973 11.453179 19.030579 12.005859 18.572266 C 12.702426 17.994652 13.160562 17.825649 14.242188 17.746094 C 15.384965 17.662037 16.290229 17.375984 17.195312 16.816406 C 17.669379 16.523342 18.349845 15.932782 18.662109 15.542969 C 18.969385 15.15957 19.304866 14.540071 19.451172 14.083984 C 19.56418 13.732073 19.580519 13.558082 19.582031 12.708984 C 19.583241 11.71611 19.566618 11.638 19.351562 11.636719 C 19.321326 11.636511 19.002894 12.154073 18.646484 12.787109 C 17.885363 14.138755 17.439677 14.766807 16.890625 15.257812 C 15.897781 16.145722 14.74301 16.46523 12.292969 16.529297 C 9.4594947 16.603413 9.3809095 16.634642 7.7128906 18.421875 L 7.2460938 18.919922 L 5.8632812 18.173828 C 5.1025001 17.762933 4.4440186 17.406699 4.3984375 17.382812 C 4.3353194 17.349553 4.3828524 17.298488 4.59375 17.166016 C 5.7767043 16.428611 5.9303168 16.279371 5.7929688 16.009766 C 5.7101971 15.847435 5.1772156 15.671875 4.765625 15.671875 C 4.3811715 15.671875 4.1324414 15.758928 3.8359375 15.996094 C 3.6042525 16.18148 3.4032064 16.292969 3.3007812 16.292969 C 3.2667655 16.292969 3.1978226 16.170889 3.1445312 16.021484 C 3.0647832 15.798265 3.043091 15.458424 3.0234375 14.119141 L 3 12.490234 L 4.1152344 11.816406 C 6.8626108 10.159677 8.5993694 9.032574 9.8632812 8.0839844 C 10.712503 7.4466313 11.657285 6.8252427 12.933594 6.0625 C 14.550778 5.0960483 15.417788 4.4132316 16.128906 3.5507812 C 16.502824 3.0972663 16.675553 2.9493368 16.84375 3.015625 z M 66.5 3.9042969 C 66.679906 3.9042969 66.832937 3.9692034 66.957031 4.0976562 C 67.085535 4.2218263 67.148438 4.3748425 67.148438 4.5546875 C 67.148438 4.7345174 67.085535 4.8871563 66.957031 5.015625 C 66.832811 5.1440785 66.67978 5.2089844 66.5 5.2089844 C 66.320094 5.2089844 66.165513 5.1440785 66.037109 5.015625 C 65.908605 4.8871715 65.845703 4.7345325 65.845703 4.5546875 C 65.845703 4.3748576 65.90703 4.2218414 66.03125 4.0976562 C 66.159754 3.9692034 66.315912 3.9042969 66.5 3.9042969 z M 70.386719 3.9042969 L 70.675781 3.9042969 L 70.675781 11.708984 C 70.675781 12.077229 70.700552 12.321512 70.751953 12.441406 C 70.807638 12.561293 70.890583 12.65257 71.001953 12.716797 C 71.113323 12.77674 71.321025 12.806641 71.625 12.806641 L 71.625 13.039062 L 68.742188 13.039062 L 68.742188 12.806641 C 69.011939 12.806641 69.196427 12.780269 69.294922 12.724609 C 69.393442 12.66895 69.469706 12.575719 69.525391 12.447266 C 69.581076 12.318812 69.609375 12.07295 69.609375 11.708984 L 69.609375 6.3652344 C 69.609375 5.7015367 69.594437 5.2943996 69.564453 5.1445312 C 69.534469 4.9903775 69.484551 4.885738 69.416016 4.8300781 C 69.351764 4.7744183 69.268819 4.7460937 69.166016 4.7460938 C 69.054646 4.7460938 68.913419 4.7810991 68.742188 4.8496094 L 68.632812 4.625 L 70.386719 3.9042969 z M 35.150391 4.1308594 C 35.779833 4.1308594 36.401363 4.2835008 37.013672 4.5917969 C 37.193577 4.6860079 37.321411 4.734375 37.398438 4.734375 C 37.514079 4.734375 37.613549 4.6926888 37.699219 4.6113281 C 37.810589 4.495725 37.890382 4.3364002 37.9375 4.1308594 L 38.162109 4.1308594 L 38.361328 7.0917969 L 38.162109 7.0917969 C 37.896635 6.2054397 37.517813 5.5673885 37.025391 5.1777344 C 36.532969 4.7880802 35.941339 4.5917969 35.251953 4.5917969 C 34.673887 4.5917969 34.152268 4.7397042 33.685547 5.0351562 C 33.218826 5.326326 32.849836 5.793259 32.580078 6.4355469 C 32.314579 7.0778322 32.183594 7.877165 32.183594 8.8320312 C 32.183594 9.619904 32.309851 10.302801 32.5625 10.880859 C 32.815124 11.458918 33.193946 11.900686 33.699219 12.208984 C 34.208775 12.51728 34.788618 12.671875 35.439453 12.671875 C 36.004669 12.671875 36.503068 12.552298 36.935547 12.3125 C 37.368026 12.068443 37.84323 11.586551 38.361328 10.867188 L 38.560547 10.996094 C 38.12381 11.771121 37.6136 12.337586 37.03125 12.697266 C 36.4489 13.056946 35.757737 13.238281 34.957031 13.238281 C 33.514033 13.238281 32.397633 12.701337 31.605469 11.630859 C 31.014577 10.834422 30.71875 9.8973994 30.71875 8.8183594 C 30.71875 7.9491285 30.91309 7.1517525 31.302734 6.4238281 C 31.692378 5.6959037 32.227359 5.1325936 32.908203 4.734375 C 33.593305 4.3318755 34.341118 4.1308594 35.150391 4.1308594 z M 42.318359 6.9824219 C 43.209018 6.9824219 43.923376 7.3195508 44.462891 7.9960938 C 44.921045 8.5741512 45.150391 9.2389457 45.150391 9.9882812 C 45.150391 10.514956 45.024108 11.046417 44.771484 11.585938 C 44.518861 12.125449 44.169939 12.5326 43.724609 12.806641 C 43.283564 13.080684 42.791845 13.21875 42.248047 13.21875 C 41.361697 13.21875 40.657172 12.864718 40.134766 12.158203 C 39.693745 11.563016 39.472656 10.895067 39.472656 10.154297 C 39.472656 9.6147733 39.60562 9.0797862 39.871094 8.5488281 C 40.140851 8.0135891 40.494878 7.6198187 40.931641 7.3671875 C 41.368378 7.1102703 41.830221 6.9824219 42.318359 6.9824219 z M 54.035156 6.9824219 L 54.310547 6.9824219 L 54.308594 8.2285156 C 54.99798 7.3978233 55.656091 6.9824219 56.28125 6.9824219 C 56.602384 6.9824219 56.878144 7.0638412 57.109375 7.2265625 C 57.340682 7.3850003 57.52519 7.6473881 57.662109 8.015625 C 57.756346 8.2725422 57.802734 8.66631 57.802734 9.1972656 L 57.802734 11.708984 C 57.802734 12.08151 57.834563 12.334057 57.894531 12.466797 C 57.941649 12.573833 58.016337 12.656828 58.119141 12.716797 C 58.226227 12.77674 58.420568 12.806641 58.703125 12.806641 L 58.703125 13.039062 L 55.792969 13.039062 L 55.792969 12.806641 L 55.916016 12.806641 C 56.190057 12.806641 56.379267 12.766908 56.486328 12.685547 C 56.597698 12.599903 56.675915 12.475196 56.71875 12.3125 C 56.736388 12.248273 56.744141 12.047257 56.744141 11.708984 L 56.744141 9.3007812 C 56.744141 8.7655431 56.674557 8.3784577 56.533203 8.1386719 C 56.396132 7.8946152 56.161682 7.7714844 55.832031 7.7714844 C 55.322475 7.7714844 54.815794 8.0507731 54.310547 8.6074219 L 54.310547 11.708984 C 54.310547 12.1072 54.333741 12.353062 54.380859 12.447266 C 54.440828 12.571436 54.522197 12.664666 54.625 12.724609 C 54.732087 12.780269 54.946495 12.806641 55.267578 12.806641 L 55.267578 13.039062 L 52.357422 13.039062 L 52.357422 12.806641 L 52.486328 12.806641 C 52.78607 12.806641 52.987091 12.731902 53.089844 12.582031 C 53.19693 12.427877 53.25 12.13717 53.25 11.708984 L 53.25 9.5253906 C 53.25 8.8188735 53.233486 8.3885218 53.199219 8.234375 C 53.169234 8.0802207 53.119317 7.9755817 53.050781 7.9199219 C 52.986529 7.864262 52.900433 7.8359375 52.789062 7.8359375 C 52.669134 7.8359375 52.524376 7.8674139 52.357422 7.9316406 L 52.261719 7.7011719 L 54.035156 6.9824219 z M 62.017578 6.9824219 C 62.595619 6.9824219 63.070824 7.1350608 63.443359 7.4433594 C 63.815895 7.747377 64.001953 8.0648262 64.001953 8.3945312 C 64.001953 8.5572525 63.948883 8.690211 63.841797 8.7929688 C 63.738994 8.8914624 63.592669 8.9414062 63.404297 8.9414062 C 63.151673 8.9414062 62.960485 8.8599869 62.832031 8.6972656 C 62.759212 8.6073381 62.711248 8.4362191 62.685547 8.1835938 C 62.665389 7.9309626 62.578915 7.7382075 62.427734 7.6054688 C 62.277813 7.4770152 62.070103 7.4121094 61.804688 7.4121094 C 61.376492 7.4121094 61.032675 7.5698558 60.771484 7.8867188 C 60.42465 8.3063438 60.25 8.8613937 60.25 9.5507812 C 60.25 10.253015 60.421121 10.874548 60.763672 11.414062 C 61.110507 11.949302 61.577463 12.216797 62.164062 12.216797 C 62.583691 12.216797 62.960938 12.072045 63.294922 11.785156 C 63.530512 11.588192 63.759833 11.231006 63.982422 10.712891 L 64.167969 10.802734 C 64.009481 11.577762 63.700669 12.176075 63.238281 12.595703 C 62.775843 13.011048 62.264057 13.21875 61.703125 13.21875 C 61.035131 13.21875 60.451784 12.937883 59.955078 12.376953 C 59.458398 11.816021 59.210936 11.058383 59.210938 10.103516 C 59.210938 9.1786192 59.485121 8.427668 60.033203 7.8496094 C 60.585568 7.2715508 61.246832 6.9824219 62.017578 6.9824219 z M 66.75 6.9824219 L 67.033203 6.9824219 L 67.033203 11.708984 C 67.033203 12.077229 67.057973 12.323091 67.109375 12.447266 C 67.16506 12.567152 67.244853 12.656854 67.347656 12.716797 C 67.454743 12.77674 67.647507 12.806641 67.925781 12.806641 L 67.925781 13.039062 L 65.068359 13.039062 L 65.068359 12.806641 C 65.355251 12.806641 65.54799 12.780269 65.646484 12.724609 C 65.745004 12.66895 65.821268 12.575719 65.876953 12.447266 C 65.936922 12.318812 65.966797 12.07295 65.966797 11.708984 L 65.966797 9.4414062 C 65.966797 8.8034025 65.948707 8.3895763 65.910156 8.2011719 C 65.880172 8.0641514 65.83183 7.9712983 65.767578 7.9199219 C 65.703326 7.864262 65.615276 7.8359375 65.503906 7.8359375 C 65.383969 7.8359375 65.239597 7.8674139 65.068359 7.9316406 L 64.978516 7.7011719 L 66.75 6.9824219 z M 45.619141 7.1542969 L 47.681641 7.1542969 L 47.681641 11.091797 C 47.681641 11.639881 47.774418 12.000599 47.962891 12.171875 C 48.155647 12.343163 48.388496 12.427734 48.658203 12.427734 C 48.842392 12.427734 49.050094 12.369509 49.28125 12.253906 C 49.516841 12.138303 49.794176 11.919182 50.115234 11.59375 L 50.115234 8.2597656 C 50.115234 7.9257763 50.053898 7.7015482 49.929688 7.5859375 C 49.80975 7.4660509 49.557185 7.4011451 49.171875 7.3925781 L 49.171875 7.1542969 L 51.175781 7.1542969 L 51.175781 10.720703 C 51.175781 11.40153 51.190719 11.818509 51.220703 11.972656 C 51.254971 12.122527 51.306465 12.227166 51.375 12.287109 C 51.447819 12.347053 51.530764 12.376953 51.625 12.376953 C 51.757787 12.376953 51.907264 12.340372 52.074219 12.267578 L 52.164062 12.492188 L 50.404297 13.21875 L 50.115234 13.21875 L 50.115234 11.972656 C 49.609962 12.520743 49.224458 12.864558 48.958984 13.005859 C 48.69351 13.147163 48.412636 13.21875 48.117188 13.21875 C 47.787487 13.21875 47.501894 13.123944 47.257812 12.935547 C 47.017948 12.742867 46.84997 12.497005 46.755859 12.197266 C 46.661623 11.897531 46.615234 11.473866 46.615234 10.925781 L 46.615234 8.2988281 C 46.615234 8.0205037 46.585359 7.8277494 46.525391 7.7207031 C 46.465422 7.6136669 46.375796 7.5322475 46.255859 7.4765625 C 46.140206 7.4166192 45.927399 7.3882947 45.619141 7.3925781 L 45.619141 7.1542969 z M 42.119141 7.3984375 C 41.892117 7.3984375 41.662771 7.4684483 41.431641 7.6054688 C 41.204617 7.7382047 41.020135 7.9722741 40.878906 8.3105469 C 40.737552 8.6488196 40.667969 9.0842788 40.667969 9.6152344 C 40.667969 10.471617 40.83556 11.2092 41.173828 11.830078 C 41.516379 12.450956 41.966789 12.761719 42.523438 12.761719 C 42.938771 12.761719 43.280999 12.590601 43.550781 12.248047 C 43.820539 11.905493 43.955078 11.317395 43.955078 10.482422 C 43.955078 9.4376334 43.730863 8.6150933 43.28125 8.015625 C 42.97725 7.6045611 42.590171 7.3984375 42.119141 7.3984375 z M 54.328125 17.058594 L 54.617188 17.058594 L 54.617188 24.863281 C 54.617188 25.231526 54.643914 25.475809 54.695312 25.595703 C 54.750998 25.71559 54.833945 25.806867 54.945312 25.871094 C 55.056683 25.931037 55.264385 25.960937 55.568359 25.960938 L 55.568359 26.193359 L 52.685547 26.193359 L 52.685547 25.960938 C 52.955304 25.960938 53.137834 25.932613 53.236328 25.876953 C 53.334848 25.821293 53.413065 25.730016 53.46875 25.601562 C 53.524435 25.473112 53.552734 25.227247 53.552734 24.863281 L 53.552734 19.519531 C 53.552734 18.855834 53.537797 18.448696 53.507812 18.298828 C 53.477831 18.144674 53.42791 18.040035 53.359375 17.984375 C 53.295123 17.928715 53.212178 17.900391 53.109375 17.900391 C 52.998005 17.900391 52.856785 17.935396 52.685547 18.003906 L 52.576172 17.779297 L 54.328125 17.058594 z M 37.044922 17.482422 L 40.21875 17.482422 C 41.143626 17.482422 41.823003 17.552433 42.259766 17.689453 C 42.700811 17.82219 43.072953 18.069628 43.376953 18.433594 C 43.685262 18.793274 43.839844 19.223625 43.839844 19.724609 C 43.839844 20.259848 43.665571 20.725206 43.314453 21.119141 C 42.967618 21.513078 42.427533 21.790414 41.695312 21.953125 L 43.494141 24.451172 C 43.905202 25.02495 44.257276 25.407299 44.552734 25.595703 C 44.848193 25.7841 45.233696 25.903702 45.708984 25.955078 L 45.708984 26.193359 L 43.384766 26.193359 L 40.435547 22.121094 C 40.21709 22.129661 40.039263 22.132813 39.902344 22.132812 L 39.722656 22.132812 C 39.658404 22.128534 39.591968 22.125377 39.523438 22.121094 L 39.523438 24.650391 C 39.523438 25.198475 39.583188 25.539135 39.703125 25.671875 C 39.865897 25.860272 40.11018 25.955078 40.435547 25.955078 L 40.777344 25.955078 L 40.777344 26.193359 L 37.044922 26.193359 L 37.044922 25.955078 L 37.373047 25.955078 C 37.741274 25.955078 38.003672 25.835476 38.162109 25.595703 C 38.252062 25.462966 38.296875 25.147096 38.296875 24.650391 L 38.296875 19.025391 C 38.296875 18.477306 38.23712 18.136646 38.117188 18.003906 C 37.950132 17.815509 37.702697 17.720703 37.373047 17.720703 L 37.044922 17.720703 L 37.044922 17.482422 z M 40.533203 17.970703 C 40.284762 17.970703 39.947244 18.012389 39.523438 18.09375 L 39.523438 21.714844 C 39.604818 21.714844 39.67636 21.718373 39.736328 21.722656 L 39.884766 21.722656 C 40.715455 21.722656 41.340137 21.543276 41.759766 21.183594 C 42.183677 20.823914 42.394531 20.365243 42.394531 19.808594 C 42.394531 19.26479 42.223411 18.822645 41.880859 18.484375 C 41.542566 18.141821 41.094135 17.970703 40.533203 17.970703 z M 59.037109 20.128906 C 59.696536 20.128906 60.238198 20.348402 60.662109 20.785156 C 61.086021 21.21763 61.296875 21.797464 61.296875 22.525391 L 57.232422 22.525391 C 57.227383 23.3989 57.438262 24.083375 57.867188 24.580078 C 58.295381 25.076779 58.798887 25.326172 59.376953 25.326172 C 59.762314 25.326172 60.096298 25.21958 60.378906 25.009766 C 60.665798 24.795668 60.904951 24.431798 61.097656 23.917969 L 61.296875 24.046875 C 61.206922 24.633498 60.946125 25.168489 60.513672 25.652344 C 60.081193 26.131918 59.539507 26.373047 58.888672 26.373047 C 58.182152 26.373047 57.577538 26.098866 57.072266 25.550781 C 56.571277 24.998413 56.320312 24.257299 56.320312 23.328125 C 56.320312 22.321874 56.576004 21.537492 57.089844 20.976562 C 57.607941 20.411351 58.257796 20.128906 59.037109 20.128906 z M 64.091797 20.134766 C 64.323104 20.134766 64.602015 20.184709 64.931641 20.283203 C 65.150097 20.34743 65.296423 20.378906 65.369141 20.378906 C 65.437676 20.378906 65.490746 20.363969 65.529297 20.333984 C 65.567848 20.304025 65.612662 20.237544 65.664062 20.134766 L 65.876953 20.134766 L 65.876953 22.138672 L 65.666016 22.138672 C 65.503244 21.509229 65.292013 21.082409 65.035156 20.855469 C 64.782507 20.628521 64.460334 20.513672 64.066406 20.513672 C 63.766665 20.513672 63.523957 20.593515 63.339844 20.751953 C 63.155655 20.910391 63.064453 21.086617 63.064453 21.279297 C 63.064453 21.519095 63.13246 21.725219 63.269531 21.896484 C 63.402319 22.072056 63.671397 22.258124 64.078125 22.455078 L 65.015625 22.910156 C 65.884841 23.334066 66.320312 23.892268 66.320312 24.585938 C 66.320312 25.121176 66.117714 25.555057 65.710938 25.884766 C 65.308443 26.210191 64.856458 26.373047 64.355469 26.373047 C 63.995784 26.373047 63.583532 26.30814 63.121094 26.179688 C 62.979739 26.136878 62.865343 26.115234 62.775391 26.115234 C 62.676871 26.115234 62.598654 26.171883 62.542969 26.283203 L 62.332031 26.283203 L 62.332031 24.181641 L 62.542969 24.181641 C 62.662906 24.781109 62.892251 25.233094 63.230469 25.537109 C 63.568736 25.841124 63.947559 25.994141 64.367188 25.994141 C 64.662645 25.994141 64.901824 25.907616 65.085938 25.736328 C 65.274409 25.560756 65.369141 25.351479 65.369141 25.107422 C 65.369141 24.811971 65.264576 24.562578 65.054688 24.361328 C 64.849081 24.160081 64.435278 23.905957 63.814453 23.597656 C 63.193578 23.289358 62.78643 23.010069 62.59375 22.761719 C 62.400994 22.517662 62.304688 22.210431 62.304688 21.837891 C 62.304688 21.354036 62.47108 20.948472 62.800781 20.623047 C 63.134766 20.297619 63.565107 20.134766 64.091797 20.134766 z M 45.619141 20.308594 L 47.681641 20.308594 L 47.681641 24.246094 C 47.681641 24.794178 47.774418 25.154896 47.962891 25.326172 C 48.155647 25.49746 48.388496 25.582031 48.658203 25.582031 C 48.842392 25.582031 49.050094 25.523806 49.28125 25.408203 C 49.516841 25.2926 49.794176 25.073479 50.115234 24.748047 L 50.115234 21.414062 C 50.115234 21.080077 50.053904 20.855845 49.929688 20.740234 C 49.80975 20.620348 49.557185 20.555442 49.171875 20.546875 L 49.171875 20.308594 L 51.175781 20.308594 L 51.175781 23.873047 C 51.175781 24.553873 51.190719 24.972806 51.220703 25.126953 C 51.254971 25.276824 51.306465 25.381463 51.375 25.441406 C 51.447819 25.50135 51.530764 25.53125 51.625 25.53125 C 51.757787 25.53125 51.907264 25.494669 52.074219 25.421875 L 52.164062 25.646484 L 50.404297 26.373047 L 50.115234 26.373047 L 50.115234 25.126953 C 49.609962 25.67504 49.224458 26.018855 48.958984 26.160156 C 48.69351 26.30146 48.412642 26.373047 48.117188 26.373047 C 47.787487 26.373047 47.501894 26.278241 47.257812 26.089844 C 47.017942 25.897163 46.84997 25.651302 46.755859 25.351562 C 46.661623 25.051832 46.615234 24.628163 46.615234 24.080078 L 46.615234 21.453125 C 46.615234 21.174801 46.585359 20.982046 46.525391 20.875 C 46.465422 20.767964 46.375796 20.686544 46.255859 20.630859 C 46.140206 20.570916 45.927399 20.542592 45.619141 20.546875 L 45.619141 20.308594 z M 58.677734 20.585938 C 58.322333 20.585938 58.003311 20.723629 57.720703 21.001953 C 57.442379 21.275997 57.279515 21.659924 57.232422 22.152344 L 59.955078 22.152344 C 59.934921 21.775535 59.890108 21.509616 59.820312 21.355469 C 59.713228 21.11567 59.551963 20.928026 59.337891 20.791016 C 59.128001 20.653995 58.908865 20.585938 58.677734 20.585938 z "
       transform="matrix(0.26458333,0,0,0.26458333,-127,-80.886909)" />
    <text
       id="text856"
       y="-78.430061"
       x="-113.25111"
       style="font-size:2.64583333px;line-height:0.5;font-family:Garamond;-inkscape-font-specification:Garamond;text-align:center;text-anchor:middle;stroke-width:0.264583;"
       xml:space="preserve"><tspan
         style="stroke-width:0.264583;font-size:2.64583333px;"
         y="-78.430061"
         x="-113.25111"
         id="tspan854"
         sodipodi:role="line" /></text>
    <text
       id="text860"
       y="-68.20108"
       x="-121.42485"
       style="font-size:7.9375px;line-height:0.5;font-family:Garamond;-inkscape-font-specification:Garamond;text-align:center;text-anchor:middle;stroke-width:0.264583"
       xml:space="preserve"><tspan
         style="stroke-width:0.264583"
         y="-68.20108"
         x="-121.42485"
         id="tspan858"
         sodipodi:role="line" /></text>
    <text
       id="text864"
       y="-77.296135"
       x="-117.43248"
       style="font-size:2.64583px;line-height:0.5;font-family:Garamond;-inkscape-font-specification:Garamond;text-align:center;text-anchor:middle;stroke-width:0.264583;fill:#00ffff;"
       xml:space="preserve"><tspan
         style="stroke-width:0.264583;fill:#00ffff;"
         y="-77.296135"
         x="-117.43248"
         id="tspan862"
         sodipodi:role="line" /></text>
  </g>
</svg>
