<?xml version="1.0" encoding="UTF-8" standalone="no"?>
<svg
   xmlns:dc="http://purl.org/dc/elements/1.1/"
   xmlns:cc="http://creativecommons.org/ns#"
   xmlns:rdf="http://www.w3.org/1999/02/22-rdf-syntax-ns#"
   xmlns:svg="http://www.w3.org/2000/svg"
   xmlns="http://www.w3.org/2000/svg"
   xmlns:sodipodi="http://sodipodi.sourceforge.net/DTD/sodipodi-0.dtd"
   xmlns:inkscape="http://www.inkscape.org/namespaces/inkscape"
   width="19.84375mm"
   height="7.9375mm"
   viewBox="0 0 19.84375 7.9375"
   version="1.1"
   id="svg8"
   inkscape:version="1.0 (4035a4fb49, 2020-05-01)"
   sodipodi:docname="home-reg-ffffff.svg">
  <defs
     id="defs2" />
  <sodipodi:namedview
     id="base"
     pagecolor="#ffffff"
     bordercolor="#666666"
     borderopacity="1.0"
     inkscape:pageopacity="0.0"
     inkscape:pageshadow="2"
     inkscape:zoom="15.999999"
     inkscape:cx="34.784946"
     inkscape:cy="20.242537"
     inkscape:document-units="mm"
     inkscape:current-layer="layer1"
     inkscape:document-rotation="0"
     showgrid="false"
     fit-margin-top="0"
     fit-margin-left="0"
     fit-margin-right="0"
     fit-margin-bottom="0"
     inkscape:window-width="1920"
     inkscape:window-height="1001"
     inkscape:window-x="-9"
     inkscape:window-y="-9"
     inkscape:window-maximized="1" />
  <metadata
     id="metadata5">
    <rdf:RDF>
      <cc:Work
         rdf:about="">
        <dc:format>image/svg+xml</dc:format>
        <dc:type
           rdf:resource="http://purl.org/dc/dcmitype/StillImage" />
        <dc:title />
      </cc:Work>
    </rdf:RDF>
  </metadata>
  <g
     inkscape:label="Layer 1"
     inkscape:groupmode="layer"
     id="layer1"
     transform="translate(127,80.886909)">
    <rect
       style="fill:#edc9a2;stroke:none;stroke-width:0.144979;stroke-linejoin:round;fill-opacity:1"
       id="rect837"
       width="19.84375"
       height="7.9375"
       x="-127"
       y="-80.886909" />
    <path
       transform="matrix(0.26458333,0,0,0.26458333,-127,-80.886909)"
       d="M 0 0 L 0 30 L 75 30 L 75 0 L 0 0 z M 19.894531 3 L 20.289062 3.0839844 C 20.917522 3.21846 21.124715 3.3212934 22.015625 3.9375 L 22.148438 4.0292969 L 21.935547 4.1367188 C 21.760933 4.2259908 21.602701 4.2416935 21.027344 4.2304688 C 20.147772 4.212327 20.107422 4.2418805 20.107422 4.8574219 C 20.107422 5.2559164 20.111352 5.2675781 20.240234 5.2675781 C 20.359667 5.2675781 20.373047 5.2910566 20.373047 5.5078125 L 20.373047 5.7480469 L 20.611328 5.7480469 L 20.849609 5.7480469 L 20.849609 5.5078125 L 20.849609 5.2675781 L 21.308594 5.2675781 L 21.765625 5.2675781 L 21.732422 5.546875 C 21.713524 5.7001348 21.699219 6.2233869 21.699219 6.7089844 L 21.699219 7.5917969 L 21.566406 7.6601562 L 21.433594 7.7285156 L 21.433594 9.53125 L 21.433594 11.333984 L 21.9375 11.333984 L 22.439453 11.333984 L 22.439453 11.630859 C 22.439453 11.892214 22.452452 11.928346 22.560547 11.945312 C 22.65957 11.961187 22.68171 12.008809 22.695312 12.216797 C 22.706651 12.440054 22.728857 12.471428 22.867188 12.505859 C 23.019121 12.543277 23.023436 12.55462 23.023438 12.902344 L 23.023438 13.261719 L 23.408203 13.244141 L 23.792969 13.224609 L 23.808594 12.878906 L 23.822266 12.535156 L 24.429688 12.535156 L 25.037109 12.535156 L 25.037109 12.894531 L 25.037109 13.255859 L 25.408203 13.255859 L 25.779297 13.255859 L 25.779297 12.894531 L 25.779297 12.535156 L 26.390625 12.535156 L 27 12.535156 L 27 13.185547 C 27 13.543657 26.983741 14.284945 26.964844 14.832031 L 26.931641 15.826172 L 26.726562 15.955078 L 26.523438 16.085938 L 26.523438 21.298828 L 26.523438 26.511719 L 26.230469 26.638672 C 25.575514 26.922514 25.156433 26.978062 23.660156 26.978516 C 22.541832 26.978833 22.128183 26.956834 21.634766 26.867188 C 21.044781 26.760265 20.682567 26.755361 14.183594 26.787109 C 8.4117252 26.815456 7.2654353 26.835717 6.7949219 26.914062 C 6.187388 27.01523 4.5440395 27.029979 3.9277344 26.941406 C 3.5047756 26.878654 3.0305377 26.708747 3.0019531 26.607422 C 2.9717169 26.503938 3.2897415 26.299853 3.5488281 26.255859 C 3.6690171 26.23545 3.7928487 26.20168 3.8242188 26.179688 C 3.890738 26.133275 4.0162498 19.294906 3.9882812 17.25 L 3.96875 15.990234 L 3.7695312 15.869141 L 3.5703125 15.75 L 3.5703125 14.142578 L 3.5703125 12.535156 L 4.1796875 12.535156 L 4.7910156 12.535156 L 4.7910156 12.896484 L 4.7910156 13.255859 L 5.1621094 13.255859 L 5.5332031 13.255859 L 5.5332031 12.896484 L 5.5332031 12.535156 L 6.1152344 12.535156 L 6.6992188 12.535156 L 6.6992188 12.896484 L 6.6992188 13.255859 L 7.0703125 13.255859 L 7.4414062 13.255859 L 7.4414062 12.960938 C 7.4414062 12.675356 7.4578292 12.637445 7.6796875 12.427734 C 7.7246639 12.385177 7.7597656 12.260753 7.7597656 12.150391 C 7.7597656 11.999965 7.7874395 11.941477 7.8671875 11.917969 C 7.9537387 11.89189 7.9726563 11.836273 7.9726562 11.613281 L 7.9726562 11.339844 L 8.4375 11.320312 L 8.9003906 11.302734 L 8.9121094 9.5175781 L 8.9238281 7.7324219 L 8.7382812 7.5957031 L 8.5507812 7.4589844 L 8.5507812 6.3632812 L 8.5507812 5.2675781 L 8.9980469 5.2675781 L 9.4453125 5.2675781 L 9.4609375 5.4921875 C 9.4760556 5.7044836 9.4866781 5.7190935 9.671875 5.7363281 C 9.863497 5.7544699 9.8685137 5.7487985 9.8847656 5.5253906 C 9.8998837 5.3261717 9.9183711 5.2937843 10.046875 5.2773438 C 10.188607 5.259202 10.193359 5.2492944 10.193359 4.8828125 C 10.193359 4.6754676 10.207669 4.1727321 10.226562 3.7675781 L 10.259766 3.03125 L 10.507812 3.0683594 C 11.007277 3.1433074 11.379198 3.2938571 11.923828 3.640625 L 12.480469 3.9960938 L 12.332031 4.1054688 C 12.207307 4.197651 12.072224 4.2165323 11.517578 4.2167969 C 11.152098 4.2169783 10.763676 4.2393073 10.654297 4.2675781 L 10.455078 4.3203125 L 10.455078 4.7929688 L 10.455078 5.2675781 L 10.615234 5.2675781 C 10.76566 5.2675781 10.773437 5.2808519 10.773438 5.5078125 L 10.773438 5.7480469 L 11.011719 5.7480469 L 11.25 5.7480469 L 11.25 5.5078125 L 11.25 5.2675781 L 11.675781 5.2675781 L 12.099609 5.2675781 L 12.099609 6.4316406 L 12.099609 7.5976562 L 11.939453 7.6601562 L 11.78125 7.7226562 L 11.78125 9.828125 L 11.78125 11.933594 L 12.072266 11.933594 L 12.365234 11.933594 L 12.365234 11.632812 L 12.365234 11.333984 L 13.001953 11.333984 L 13.636719 11.333984 L 13.636719 11.632812 L 13.636719 11.933594 L 14.087891 11.933594 L 14.539062 11.933594 L 14.539062 11.632812 L 14.539062 11.333984 L 15.201172 11.333984 L 15.865234 11.333984 L 15.865234 11.632812 L 15.865234 11.933594 L 16.289062 11.933594 L 16.712891 11.933594 L 16.712891 11.632812 L 16.712891 11.333984 L 17.376953 11.333984 L 18.039062 11.333984 L 18.039062 11.632812 L 18.039062 11.933594 L 18.304688 11.933594 L 18.568359 11.933594 L 18.568359 9.8300781 L 18.568359 7.7285156 L 18.382812 7.6269531 L 18.197266 7.5273438 L 18.197266 6.4335938 C 18.197266 5.1805859 18.155466 5.2691466 18.740234 5.2675781 L 19.046875 5.2675781 L 19.046875 5.5078125 L 19.046875 5.7480469 L 19.28125 5.7480469 C 19.514825 5.7480469 19.517329 5.7469474 19.533203 5.5234375 C 19.548321 5.31768 19.563916 5.2964937 19.722656 5.2792969 L 19.894531 5.2597656 L 19.894531 4.1308594 L 19.894531 3 z M 35.792969 10.605469 L 39.525391 10.605469 L 39.525391 10.841797 L 39.210938 10.841797 C 39.005331 10.841797 38.811016 10.89174 38.626953 10.990234 C 38.494166 11.058745 38.401011 11.163384 38.349609 11.304688 C 38.298208 11.441705 38.273437 11.724154 38.273438 12.152344 L 38.273438 14.644531 L 42.318359 14.644531 L 42.318359 12.152344 C 42.318359 11.707025 42.292013 11.414736 42.236328 11.273438 C 42.193493 11.166401 42.103868 11.073171 41.966797 10.996094 C 41.782608 10.893341 41.586314 10.841797 41.380859 10.841797 L 41.072266 10.841797 L 41.072266 10.605469 L 44.798828 10.605469 L 44.798828 10.841797 L 44.490234 10.841797 C 44.284628 10.841797 44.090288 10.89174 43.90625 10.990234 C 43.769179 11.058745 43.674448 11.163384 43.623047 11.304688 C 43.575929 11.441705 43.552734 11.724154 43.552734 12.152344 L 43.552734 17.773438 C 43.552734 18.214473 43.579081 18.505183 43.634766 18.646484 C 43.6776 18.753521 43.76565 18.844798 43.898438 18.921875 C 44.086907 19.024628 44.284779 19.076172 44.490234 19.076172 L 44.798828 19.076172 L 44.798828 19.314453 L 41.072266 19.314453 L 41.072266 19.076172 L 41.380859 19.076172 C 41.736261 19.076172 41.995482 18.971533 42.158203 18.761719 C 42.26529 18.624698 42.318359 18.295828 42.318359 17.773438 L 42.318359 15.119141 L 38.273438 15.119141 L 38.273438 17.773438 C 38.273438 18.214473 38.299784 18.505183 38.355469 18.646484 C 38.398303 18.753521 38.489882 18.844798 38.626953 18.921875 C 38.811142 19.024628 39.005457 19.076172 39.210938 19.076172 L 39.525391 19.076172 L 39.525391 19.314453 L 35.792969 19.314453 L 35.792969 19.076172 L 36.101562 19.076172 C 36.461222 19.076172 36.723997 18.971533 36.886719 18.761719 C 36.989522 18.624698 37.041016 18.295828 37.041016 17.773438 L 37.041016 12.152344 C 37.041016 11.707025 37.012716 11.414736 36.957031 11.273438 C 36.914197 11.166401 36.826147 11.073171 36.693359 10.996094 C 36.504887 10.893341 36.307018 10.841797 36.101562 10.841797 L 35.792969 10.841797 L 35.792969 10.605469 z M 65.082031 13.25 C 65.741458 13.25 66.283145 13.469495 66.707031 13.90625 C 67.130943 14.338724 67.34375 14.918557 67.34375 15.646484 L 63.277344 15.646484 C 63.272304 16.519994 63.483158 17.204469 63.912109 17.701172 C 64.340305 18.197872 64.843809 18.447266 65.421875 18.447266 C 65.807236 18.447266 66.14122 18.342627 66.423828 18.132812 C 66.710719 17.918715 66.951851 17.554845 67.144531 17.041016 L 67.34375 17.167969 C 67.253797 17.754592 66.991022 18.291536 66.558594 18.775391 C 66.126115 19.254965 65.584454 19.494141 64.933594 19.494141 C 64.227099 19.494141 63.62246 19.219959 63.117188 18.671875 C 62.616199 18.119507 62.365234 17.378393 62.365234 16.449219 C 62.365234 15.442967 62.622879 14.658586 63.136719 14.097656 C 63.654816 13.532443 64.302718 13.25 65.082031 13.25 z M 48.363281 13.257812 C 49.253914 13.257812 49.968274 13.594944 50.507812 14.271484 C 50.965967 14.849543 51.195312 15.514335 51.195312 16.263672 C 51.195312 16.790347 51.06903 17.323761 50.816406 17.863281 C 50.563757 18.402804 50.214835 18.80799 49.769531 19.082031 C 49.328486 19.356075 48.836767 19.494141 48.292969 19.494141 C 47.406619 19.494141 46.702092 19.140108 46.179688 18.433594 C 45.738642 17.838406 45.517578 17.170455 45.517578 16.429688 C 45.517578 15.890165 45.650516 15.355177 45.916016 14.824219 C 46.185773 14.28898 46.539827 13.895209 46.976562 13.642578 C 47.413325 13.385663 47.875143 13.257813 48.363281 13.257812 z M 53.533203 13.257812 L 53.808594 13.257812 L 53.810547 14.509766 C 54.238742 14.081573 54.491282 13.835714 54.568359 13.771484 C 54.761115 13.608763 54.968817 13.482488 55.191406 13.392578 C 55.414146 13.302651 55.633283 13.257813 55.851562 13.257812 C 56.219814 13.257812 56.53726 13.364027 56.802734 13.578125 C 57.068208 13.792223 57.24601 14.102985 57.335938 14.509766 C 57.776982 13.995934 58.149125 13.660383 58.453125 13.501953 C 58.75715 13.339232 59.069491 13.257813 59.390625 13.257812 C 59.703217 13.257812 59.980905 13.339232 60.220703 13.501953 C 60.464861 13.660391 60.657625 13.9212 60.798828 14.285156 C 60.893064 14.533496 60.939453 14.922157 60.939453 15.453125 L 60.939453 17.984375 C 60.939453 18.352619 60.967752 18.605167 61.023438 18.742188 C 61.066271 18.836398 61.144112 18.917818 61.259766 18.986328 C 61.375419 19.050555 61.565032 19.082031 61.826172 19.082031 L 61.826172 19.314453 L 58.921875 19.314453 L 58.921875 19.082031 L 59.044922 19.082031 C 59.297545 19.082031 59.493462 19.034041 59.634766 18.935547 C 59.733285 18.867037 59.804822 18.757293 59.847656 18.607422 C 59.865294 18.534628 59.875 18.326926 59.875 17.984375 L 59.875 15.453125 C 59.875 14.973551 59.816825 14.636422 59.701172 14.439453 C 59.534117 14.165412 59.266638 14.027344 58.898438 14.027344 C 58.671414 14.027344 58.442067 14.085569 58.210938 14.201172 C 57.983914 14.312492 57.708154 14.521769 57.382812 14.830078 L 57.371094 14.902344 L 57.382812 15.177734 L 57.382812 17.984375 C 57.382812 18.386875 57.402479 18.637844 57.445312 18.736328 C 57.492431 18.834823 57.578905 18.917818 57.703125 18.986328 C 57.827345 19.050555 58.040152 19.082031 58.339844 19.082031 L 58.339844 19.314453 L 55.365234 19.314453 L 55.365234 19.082031 C 55.690652 19.082031 55.913291 19.043874 56.033203 18.966797 C 56.157424 18.88972 56.243898 18.775248 56.291016 18.621094 C 56.311173 18.5483 56.320312 18.335491 56.320312 17.984375 L 56.320312 15.453125 C 56.320312 14.973551 56.250729 14.629736 56.109375 14.419922 C 55.920903 14.145881 55.656552 14.007812 55.318359 14.007812 C 55.087052 14.007812 54.857732 14.071143 54.630859 14.195312 C 54.275458 14.383709 54.001274 14.594566 53.808594 14.830078 L 53.808594 17.984375 C 53.808594 18.369746 53.835317 18.620715 53.886719 18.736328 C 53.942404 18.851931 54.020244 18.940057 54.123047 19 C 54.230133 19.05566 54.444516 19.082031 54.765625 19.082031 L 54.765625 19.314453 L 51.857422 19.314453 L 51.857422 19.082031 C 52.127179 19.082031 52.314839 19.05566 52.421875 19 C 52.528962 18.940057 52.610331 18.846826 52.666016 18.722656 C 52.721701 18.594203 52.75 18.348341 52.75 17.984375 L 52.75 15.736328 C 52.75 15.089759 52.729957 14.672779 52.691406 14.484375 C 52.661422 14.343071 52.615033 14.246689 52.550781 14.195312 C 52.486529 14.139654 52.398479 14.111328 52.287109 14.111328 C 52.167172 14.111328 52.024376 14.142804 51.857422 14.207031 L 51.759766 13.976562 L 53.533203 13.257812 z M 48.164062 13.673828 C 47.937041 13.673828 47.707693 13.743839 47.476562 13.880859 C 47.249541 14.013596 47.065056 14.247665 46.923828 14.585938 C 46.782474 14.924208 46.712891 15.359669 46.712891 15.890625 C 46.712891 16.747008 46.882435 17.486544 47.220703 18.107422 C 47.563254 18.7283 48.011711 19.037109 48.568359 19.037109 C 48.983704 19.037109 49.325946 18.865989 49.595703 18.523438 C 49.865461 18.180884 50 17.592786 50 16.757812 C 50 15.713027 49.775759 14.890484 49.326172 14.291016 C 49.022147 13.879954 48.635067 13.673828 48.164062 13.673828 z M 64.722656 13.707031 C 64.36728 13.707031 64.048233 13.846676 63.765625 14.125 C 63.487301 14.399043 63.324462 14.781018 63.277344 15.273438 L 66 15.273438 C 65.979843 14.896629 65.93503 14.632662 65.865234 14.478516 C 65.758148 14.238717 65.59686 14.04912 65.382812 13.912109 C 65.172923 13.775089 64.953812 13.707031 64.722656 13.707031 z "
       style="opacity:0.997;fill:#ffffff;stroke:none;stroke-width:7.80794;stroke-linejoin:round;stroke-miterlimit:4;stroke-dasharray:none;fill-opacity:1"
       id="rect833" />
    <text
       xml:space="preserve"
       style="font-size:2.64583333px;line-height:0.5;font-family:Garamond;-inkscape-font-specification:Garamond;text-align:center;text-anchor:middle;stroke-width:0.264583;"
       x="-113.25111"
       y="-78.430061"
       id="text856"><tspan
         sodipodi:role="line"
         id="tspan854"
         x="-113.25111"
         y="-78.430061"
         style="stroke-width:0.264583;font-size:2.64583333px;" /></text>
    <text
       xml:space="preserve"
       style="font-size:7.9375px;line-height:0.5;font-family:Garamond;-inkscape-font-specification:Garamond;text-align:center;text-anchor:middle;stroke-width:0.264583"
       x="-121.42485"
       y="-68.20108"
       id="text860"><tspan
         sodipodi:role="line"
         id="tspan858"
         x="-121.42485"
         y="-68.20108"
         style="stroke-width:0.264583" /></text>
    <text
       xml:space="preserve"
       style="font-size:2.64583px;line-height:0.5;font-family:Garamond;-inkscape-font-specification:Garamond;text-align:center;text-anchor:middle;stroke-width:0.264583;fill:#00ffff;"
       x="-117.43248"
       y="-77.296135"
       id="text864"><tspan
         sodipodi:role="line"
         id="tspan862"
         x="-117.43248"
         y="-77.296135"
         style="stroke-width:0.264583;fill:#00ffff;" /></text>
  </g>
</svg>
