<?xml version="1.0" encoding="UTF-8" standalone="no"?>
<svg
   xmlns:dc="http://purl.org/dc/elements/1.1/"
   xmlns:cc="http://creativecommons.org/ns#"
   xmlns:rdf="http://www.w3.org/1999/02/22-rdf-syntax-ns#"
   xmlns:svg="http://www.w3.org/2000/svg"
   xmlns="http://www.w3.org/2000/svg"
   xmlns:sodipodi="http://sodipodi.sourceforge.net/DTD/sodipodi-0.dtd"
   xmlns:inkscape="http://www.inkscape.org/namespaces/inkscape"
   width="19.84375mm"
   height="7.9375mm"
   viewBox="0 0 19.84375 7.9375"
   version="1.1"
   id="svg8"
   inkscape:version="1.0 (4035a4fb49, 2020-05-01)"
   sodipodi:docname="load-game-reg-ffffff.svg">
  <defs
     id="defs2" />
  <sodipodi:namedview
     id="base"
     pagecolor="#ffffff"
     bordercolor="#666666"
     borderopacity="1.0"
     inkscape:pageopacity="0.0"
     inkscape:pageshadow="2"
     inkscape:zoom="11.313708"
     inkscape:cx="48.305037"
     inkscape:cy="24.896992"
     inkscape:document-units="mm"
     inkscape:current-layer="layer1"
     inkscape:document-rotation="0"
     showgrid="false"
     fit-margin-top="0"
     fit-margin-left="0"
     fit-margin-right="0"
     fit-margin-bottom="0"
     inkscape:window-width="1920"
     inkscape:window-height="1001"
     inkscape:window-x="-9"
     inkscape:window-y="-9"
     inkscape:window-maximized="1" />
  <metadata
     id="metadata5">
    <rdf:RDF>
      <cc:Work
         rdf:about="">
        <dc:format>image/svg+xml</dc:format>
        <dc:type
           rdf:resource="http://purl.org/dc/dcmitype/StillImage" />
        <dc:title />
      </cc:Work>
    </rdf:RDF>
  </metadata>
  <g
     inkscape:label="Layer 1"
     inkscape:groupmode="layer"
     id="layer1"
     transform="translate(127,80.886909)">
    <rect
       y="-80.886909"
       x="-127"
       height="7.9375"
       width="19.84375"
       id="rect843-7"
       style="opacity:0.997;fill:#edc9a2;stroke:none;stroke-width:0.189209;stroke-linejoin:round;stroke-dasharray:0.567625, 0.18920899999999999;fill-opacity:1" />
    <path
       transform="matrix(0.26458333,0,0,0.26458333,-127,-80.886909)"
       d="M 0 0 L 0 30 L 75 30 L 75 0 L 0 0 z M 16.707031 3 C 18.005685 2.9972681 18.043087 3.0610469 18.119141 3.3066406 C 18.153156 3.4156422 18.182082 3.6505023 18.183594 3.828125 C 18.187373 4.4655574 18.288578 5.1844783 18.390625 5.3242188 C 18.52442 5.5071479 18.77259 5.5761719 19.289062 5.5761719 C 19.614102 5.5761719 19.781301 5.5470718 19.984375 5.4550781 C 20.387991 5.2725269 20.466945 5.0819277 20.515625 4.1738281 C 20.560979 3.3261859 20.605248 3.2426329 21.039062 3.1523438 C 21.167944 3.1255091 22.225258 3.1022806 23.388672 3.1015625 L 25.503906 3.1015625 L 25.501953 5.078125 C 25.501802 6.1891965 25.475737 7.2084313 25.439453 7.4023438 C 25.302256 8.1600786 25.050926 8.4308307 23.416016 9.5859375 C 22.560331 10.190541 22.501953 10.243829 22.501953 10.414062 C 22.501953 10.76091 23.046053 16.696433 23.166016 17.660156 C 23.385228 19.421337 23.620563 20.681194 23.814453 21.138672 C 23.848469 21.223182 24.135512 21.443628 24.552734 21.708984 C 25.424445 22.263456 25.742891 22.518933 25.998047 22.869141 C 26.389682 23.406597 26.513913 23.850127 26.789062 25.681641 C 26.873724 26.24414 26.954829 26.770151 26.970703 26.851562 L 27.001953 27 L 15.001953 27 C 7.3089516 27 3.0019531 26.980828 3.0019531 26.947266 L 3 26.947266 C 3 26.748689 3.445368 24.200869 3.5390625 23.863281 C 3.7847318 22.978112 4.2438029 22.466117 5.4570312 21.728516 C 6.1556391 21.30378 6.1785325 21.282638 6.2675781 21.013672 C 6.4780978 20.378057 6.7343993 18.897553 6.9296875 17.175781 C 7.0400497 16.202621 7.5693632 10.247234 7.546875 10.232422 C 7.3541191 10.10543 5.9354982 9.0979397 5.6113281 8.8574219 C 5.3675486 8.6766093 5.0737053 8.4031011 4.9570312 8.25 C 4.5718596 7.7444806 4.5466171 7.5744528 4.515625 5.2128906 L 4.4882812 3.1015625 L 6.5917969 3.1015625 C 7.8842063 3.1015625 8.8144508 3.1241374 9.0019531 3.1601562 C 9.4398114 3.2444019 9.4929745 3.3409962 9.5234375 4.1113281 C 9.5536737 4.9170214 9.6229689 5.1592226 9.8769531 5.359375 C 10.116197 5.5477089 10.4291 5.5989858 11.121094 5.5664062 C 11.677629 5.5403275 11.920346 5.4452711 12.099609 5.1796875 C 12.197121 5.035234 12.215414 4.8759122 12.232422 4.0351562 L 12.25 3.0605469 L 14.939453 3.0195312 C 15.7003 3.0082872 16.274147 3.0009106 16.707031 3 z M 63.458984 3.5429688 L 63.744141 3.5429688 L 63.744141 10.265625 C 63.744141 10.94694 63.759335 11.363282 63.789062 11.515625 C 63.822826 11.663732 63.873627 11.766909 63.941406 11.826172 C 64.013217 11.88541 64.096225 11.916016 64.189453 11.916016 C 64.303595 11.916016 64.455921 11.880531 64.646484 11.808594 L 64.716797 12.029297 L 62.990234 12.748047 L 62.697266 12.748047 L 62.697266 11.916016 C 62.413751 12.21224 62.136075 12.425456 61.865234 12.556641 C 61.594419 12.683582 61.303406 12.748047 60.990234 12.748047 C 60.355475 12.748047 59.800125 12.482098 59.326172 11.953125 C 58.852219 11.419922 58.615234 10.737955 58.615234 9.9042969 C 58.615234 9.0706389 58.877619 8.308917 59.402344 7.6191406 C 59.927093 6.9251312 60.602538 6.578125 61.427734 6.578125 C 61.939785 6.578125 62.362979 6.7405611 62.697266 7.0664062 L 62.697266 5.9941406 C 62.697266 5.3297526 62.680248 4.9199208 62.646484 4.7675781 C 62.616752 4.615238 62.567528 4.5120612 62.5 4.4570312 C 62.43222 4.402027 62.347637 4.375 62.246094 4.375 C 62.135984 4.375 61.990465 4.4088586 61.808594 4.4765625 L 61.726562 4.2539062 L 63.458984 3.5429688 z M 38.232422 3.9628906 L 42.130859 3.9628906 L 42.130859 4.1972656 C 41.673839 4.1929822 41.35222 4.2352991 41.166016 4.3242188 C 40.984094 4.4130872 40.858795 4.5247492 40.791016 4.6601562 C 40.723236 4.7955641 40.689453 5.1188065 40.689453 5.6308594 L 40.689453 11.039062 C 40.689453 11.390299 40.723236 11.632487 40.791016 11.763672 C 40.841913 11.852541 40.919816 11.918632 41.025391 11.960938 C 41.131217 12.00326 41.461294 12.023437 42.015625 12.023438 L 42.644531 12.023438 C 43.304689 12.023438 43.768548 11.974289 44.035156 11.876953 C 44.301739 11.779618 44.545556 11.608719 44.765625 11.363281 C 44.985594 11.113606 45.203708 10.722654 45.423828 10.189453 L 45.425781 10.189453 L 45.634766 10.234375 L 44.898438 12.570312 L 38.232422 12.570312 L 38.232422 12.333984 L 38.556641 12.333984 C 38.920584 12.333984 39.181317 12.215492 39.337891 11.978516 C 39.426836 11.843108 39.470703 11.529955 39.470703 11.039062 L 39.470703 5.4863281 C 39.470703 4.9488919 39.411394 4.6119779 39.292969 4.4765625 C 39.127929 4.2903578 38.882486 4.1972656 38.556641 4.1972656 L 38.232422 4.1972656 L 38.232422 3.9628906 z M 49.169922 6.5839844 C 50.050123 6.5839844 50.757825 6.9173189 51.291016 7.5859375 C 51.743828 8.1572257 51.96875 8.8141269 51.96875 9.5546875 C 51.96875 10.075194 51.845404 10.601562 51.595703 11.134766 C 51.346002 11.667969 51.000635 12.070963 50.560547 12.341797 C 50.124692 12.61263 49.637058 12.748047 49.099609 12.748047 C 48.223641 12.748047 47.528002 12.397461 47.011719 11.699219 C 46.575864 11.111003 46.357422 10.450847 46.357422 9.71875 C 46.357422 9.1855494 46.489604 8.657552 46.751953 8.1328125 C 47.018561 7.6038399 47.367181 7.2145161 47.798828 6.9648438 C 48.230475 6.7109376 48.687503 6.5839844 49.169922 6.5839844 z M 55.230469 6.5839844 C 55.746752 6.5839844 56.169921 6.6702445 56.5 6.84375 C 56.749701 6.9749248 56.934284 7.1796773 57.052734 7.4589844 C 57.128829 7.640956 57.166016 8.0133523 57.166016 8.5761719 L 57.166016 10.550781 C 57.166016 11.105142 57.177108 11.445314 57.197266 11.572266 C 57.217423 11.694974 57.251206 11.777988 57.298828 11.820312 C 57.349726 11.862643 57.407459 11.884766 57.470703 11.884766 C 57.538483 11.884766 57.597792 11.869475 57.648438 11.839844 C 57.737376 11.784839 57.908302 11.630869 58.162109 11.376953 L 58.162109 11.732422 C 57.688157 12.367188 57.234382 12.683594 56.802734 12.683594 C 56.595364 12.683594 56.431277 12.612624 56.308594 12.46875 C 56.186152 12.325189 56.121713 12.080191 56.117188 11.734375 C 55.523756 12.192979 55.14991 12.459536 54.998047 12.53125 C 54.769511 12.637052 54.525695 12.689453 54.267578 12.689453 C 53.865562 12.689453 53.533859 12.552408 53.271484 12.277344 C 53.013343 12.002277 52.882812 11.639973 52.882812 11.191406 C 52.882812 10.907879 52.947227 10.662436 53.074219 10.455078 C 53.247825 10.16732 53.547296 9.8964843 53.974609 9.6425781 C 54.406231 9.388672 55.122391 9.0807301 56.121094 8.7167969 L 56.121094 8.4882812 C 56.121094 7.90853 56.028002 7.510743 55.841797 7.2949219 C 55.659876 7.0791109 55.392285 6.9707031 55.041016 6.9707031 C 54.774408 6.9707031 54.562823 7.043626 54.40625 7.1875 C 54.245494 7.331374 54.166016 7.4954359 54.166016 7.6816406 L 54.177734 8.0507812 C 54.177734 8.2454521 54.126934 8.3942161 54.025391 8.5 C 53.928131 8.6058016 53.797601 8.6601563 53.636719 8.6601562 C 53.480246 8.6601562 53.351669 8.6041753 53.25 8.4941406 C 53.15274 8.384106 53.103516 8.2333883 53.103516 8.0429688 C 53.103516 7.679038 53.289725 7.3457035 53.662109 7.0410156 C 54.034519 6.7363278 54.557637 6.5839844 55.230469 6.5839844 z M 61.351562 6.9707031 C 60.979183 6.9707031 60.645497 7.1383475 60.353516 7.4726562 C 59.968407 7.9127596 59.777344 8.5559916 59.777344 9.4023438 C 59.777344 10.257162 59.963528 10.91211 60.335938 11.369141 C 60.708317 11.821938 61.123032 12.048828 61.580078 12.048828 C 61.965162 12.048828 62.337581 11.855792 62.697266 11.470703 L 62.697266 8.4746094 C 62.671817 8.1868487 62.595742 7.9244789 62.46875 7.6875 C 62.341758 7.4505236 62.172485 7.2727876 61.960938 7.1542969 C 61.753567 7.0315882 61.550441 6.9707031 61.351562 6.9707031 z M 48.972656 6.9960938 C 48.748404 6.9960938 48.521504 7.0638109 48.292969 7.1992188 C 48.068717 7.3303929 47.887738 7.5641181 47.748047 7.8984375 C 47.608456 8.2327468 47.539062 8.6608073 47.539062 9.1855469 C 47.539062 10.031899 47.706704 10.763347 48.041016 11.376953 C 48.379561 11.990559 48.822924 12.296875 49.373047 12.296875 C 49.783529 12.296875 50.122064 12.127602 50.388672 11.789062 C 50.65528 11.450527 50.789064 10.868163 50.789062 10.042969 C 50.789062 9.0104155 50.567393 8.197914 50.123047 7.6054688 C 49.8226 7.1992174 49.438168 6.9960937 48.972656 6.9960938 z M 56.121094 9.1035156 C 55.482102 9.3574218 55.069017 9.5367841 54.882812 9.6425781 C 54.548507 9.8287828 54.30989 10.023452 54.166016 10.226562 C 54.022142 10.429674 53.949219 10.653307 53.949219 10.894531 C 53.949219 11.199217 54.040735 11.453123 54.222656 11.65625 C 54.404578 11.855154 54.614567 11.953125 54.851562 11.953125 C 55.1732 11.953125 55.596369 11.741535 56.121094 11.318359 L 56.121094 9.1035156 z M 40.828125 16.765625 C 41.141271 16.765625 41.425779 16.791025 41.679688 16.841797 C 41.937825 16.892569 42.301765 17.004229 42.771484 17.177734 C 43.008335 17.266604 43.167518 17.310547 43.248047 17.310547 C 43.328425 17.310547 43.396243 17.275062 43.451172 17.203125 C 43.510384 17.126955 43.545743 16.981446 43.558594 16.765625 L 43.792969 16.765625 L 44.015625 19.482422 L 43.792969 19.482422 C 43.568717 18.80534 43.27933 18.295898 42.923828 17.953125 C 42.411778 17.458009 41.75325 17.208984 40.949219 17.208984 C 39.853181 17.208984 39.020507 17.644206 38.449219 18.511719 C 37.971033 19.243813 37.732422 20.115562 37.732422 21.126953 C 37.732422 21.947917 37.889652 22.695965 38.207031 23.373047 C 38.524411 24.050129 38.939121 24.547852 39.451172 24.865234 C 39.967455 25.178386 40.49741 25.333984 41.039062 25.333984 C 41.356442 25.333984 41.662745 25.295247 41.958984 25.214844 C 42.255199 25.134441 42.541332 25.015948 42.816406 24.859375 L 42.816406 22.371094 C 42.816406 21.939454 42.782623 21.656576 42.714844 21.525391 C 42.651348 21.389983 42.549747 21.288432 42.410156 21.220703 C 42.274849 21.148766 42.032659 21.113281 41.685547 21.113281 L 41.685547 20.873047 L 45.019531 20.873047 L 45.019531 21.113281 L 44.859375 21.113281 C 44.529296 21.113281 44.302417 21.223315 44.179688 21.443359 C 44.095026 21.599933 44.052734 21.909828 44.052734 22.371094 L 44.052734 25.003906 C 43.566082 25.266276 43.087234 25.45931 42.613281 25.582031 C 42.139328 25.70474 41.611004 25.765625 41.03125 25.765625 C 39.368157 25.765625 38.105453 25.232422 37.242188 24.166016 C 36.594729 23.366212 36.271484 22.443679 36.271484 21.398438 C 36.271484 20.640952 36.452488 19.916666 36.816406 19.222656 C 37.248053 18.397459 37.84049 17.762693 38.59375 17.318359 C 39.224276 16.950196 39.969064 16.765625 40.828125 16.765625 z M 64.246094 19.578125 C 64.897785 19.578125 65.432615 19.79297 65.851562 20.224609 C 66.270511 20.652016 66.480469 21.225911 66.480469 21.945312 L 62.462891 21.945312 C 62.457851 22.808592 62.665856 23.485678 63.089844 23.976562 C 63.513025 24.467448 64.010743 24.712891 64.582031 24.712891 C 64.962882 24.712891 65.292959 24.609714 65.572266 24.402344 C 65.855806 24.190766 66.092791 23.830088 66.283203 23.322266 L 66.480469 23.449219 C 66.391524 24.028971 66.132417 24.558921 65.705078 25.037109 C 65.277664 25.511067 64.742835 25.748047 64.099609 25.748047 C 63.401379 25.748047 62.802086 25.477211 62.302734 24.935547 C 61.807616 24.389647 61.560547 23.656573 61.560547 22.738281 C 61.560547 21.743814 61.814448 20.970377 62.322266 20.416016 C 62.834291 19.857424 63.475902 19.578125 64.246094 19.578125 z M 48.019531 19.583984 C 48.535815 19.583984 48.958987 19.670244 49.289062 19.84375 C 49.538763 19.974925 49.723346 20.179677 49.841797 20.458984 C 49.917891 20.640956 49.955078 21.013352 49.955078 21.576172 L 49.955078 23.550781 C 49.955078 24.105142 49.966171 24.445314 49.986328 24.572266 C 50.006486 24.694974 50.040269 24.777985 50.087891 24.820312 C 50.138788 24.862643 50.196522 24.884766 50.259766 24.884766 C 50.327545 24.884766 50.386854 24.869475 50.4375 24.839844 C 50.526445 24.784839 50.697339 24.630867 50.951172 24.376953 L 50.951172 24.732422 C 50.477219 25.367188 50.023444 25.683594 49.591797 25.683594 C 49.384427 25.683594 49.220365 25.612624 49.097656 25.46875 C 48.975214 25.325189 48.910781 25.080191 48.90625 24.734375 C 48.312819 25.192979 47.938973 25.459536 47.787109 25.53125 C 47.558574 25.637052 47.314757 25.689453 47.056641 25.689453 C 46.654625 25.689453 46.322922 25.552408 46.060547 25.277344 C 45.802405 25.002277 45.671875 24.639973 45.671875 24.191406 C 45.671875 23.907879 45.736289 23.662436 45.863281 23.455078 C 46.036888 23.16732 46.336384 22.896484 46.763672 22.642578 C 47.195319 22.388672 47.911454 22.08073 48.910156 21.716797 L 48.910156 21.488281 C 48.910156 20.908529 48.817064 20.510743 48.630859 20.294922 C 48.448938 20.079111 48.181347 19.970703 47.830078 19.970703 C 47.56347 19.970703 47.351886 20.043626 47.195312 20.1875 C 47.03456 20.331374 46.955078 20.495436 46.955078 20.681641 L 46.966797 21.050781 C 46.966797 21.245452 46.915996 21.394214 46.814453 21.5 C 46.717193 21.605802 46.586663 21.660156 46.425781 21.660156 C 46.269309 21.660156 46.140732 21.604175 46.039062 21.494141 C 45.941806 21.384106 45.892578 21.233389 45.892578 21.042969 C 45.892578 20.679038 46.078762 20.345703 46.451172 20.041016 C 46.823556 19.736328 47.346675 19.583984 48.019531 19.583984 z M 52.832031 19.583984 L 53.103516 19.583984 L 53.105469 20.822266 C 53.528625 20.39909 53.779273 20.155273 53.855469 20.091797 C 54.045957 19.930991 54.250709 19.805666 54.470703 19.716797 C 54.690672 19.627928 54.909113 19.583984 55.125 19.583984 C 55.488943 19.583984 55.802078 19.688813 56.064453 19.900391 C 56.326803 20.111969 56.500974 20.420237 56.589844 20.822266 C 57.025724 20.314453 57.394867 19.980794 57.695312 19.824219 C 57.995785 19.663412 58.303714 19.583984 58.621094 19.583984 C 58.930007 19.583984 59.20443 19.663412 59.441406 19.824219 C 59.68254 19.980792 59.872002 20.239907 60.011719 20.599609 C 60.104695 20.845052 60.150391 21.229167 60.150391 21.753906 L 60.150391 24.255859 C 60.150391 24.619793 60.179446 24.868491 60.234375 25.003906 C 60.276706 25.097009 60.354608 25.17839 60.46875 25.246094 C 60.582892 25.309565 60.769101 25.341797 61.027344 25.341797 L 61.027344 25.570312 L 58.158203 25.570312 L 58.158203 25.341797 L 58.277344 25.341797 C 58.527045 25.341797 58.72364 25.292648 58.863281 25.195312 C 58.960541 25.127611 59.029935 25.019201 59.072266 24.871094 C 59.089903 24.799157 59.097656 24.594404 59.097656 24.255859 L 59.097656 21.753906 C 59.097656 21.279948 59.041876 20.946614 58.927734 20.751953 C 58.762695 20.48112 58.496731 20.345703 58.132812 20.345703 C 57.908563 20.345703 57.683639 20.40331 57.455078 20.517578 C 57.230826 20.627613 56.956403 20.833994 56.634766 21.138672 L 56.625 21.208984 L 56.634766 21.482422 L 56.634766 24.255859 C 56.634766 24.653645 56.656888 24.900714 56.699219 24.998047 C 56.745833 25.095382 56.830416 25.17839 56.953125 25.246094 C 57.075834 25.309565 57.285792 25.341797 57.582031 25.341797 L 57.582031 25.570312 L 54.642578 25.570312 L 54.642578 25.341797 C 54.964191 25.341797 55.184234 25.302733 55.302734 25.226562 C 55.425443 25.150394 55.510026 25.037106 55.556641 24.884766 C 55.576798 24.812829 55.585937 24.602868 55.585938 24.255859 L 55.585938 21.753906 C 55.585938 21.279948 55.516544 20.939779 55.376953 20.732422 C 55.190748 20.461588 54.92999 20.326172 54.595703 20.326172 C 54.367168 20.326172 54.142246 20.387057 53.917969 20.509766 C 53.566725 20.69597 53.295881 20.905931 53.105469 21.138672 L 53.105469 24.255859 C 53.105469 24.63672 53.130743 24.883789 53.181641 24.998047 C 53.23657 25.112315 53.314472 25.198577 53.416016 25.257812 C 53.521842 25.312817 53.733427 25.341797 54.050781 25.341797 L 54.050781 25.570312 L 51.175781 25.570312 L 51.175781 25.341797 C 51.442389 25.341797 51.628573 25.312817 51.734375 25.257812 C 51.840202 25.198577 51.91968 25.109062 51.974609 24.986328 C 52.029539 24.859361 52.056641 24.615547 52.056641 24.255859 L 52.056641 22.033203 C 52.056641 21.394206 52.038047 20.983072 52 20.796875 C 51.970268 20.657234 51.924824 20.560562 51.861328 20.509766 C 51.797832 20.454761 51.70972 20.427734 51.599609 20.427734 C 51.481184 20.427734 51.338943 20.459967 51.173828 20.523438 L 51.080078 20.294922 L 52.832031 19.583984 z M 63.890625 20.027344 C 63.539381 20.027344 63.222666 20.166342 62.943359 20.441406 C 62.668311 20.71224 62.5075 21.089517 62.460938 21.576172 L 62.462891 21.576172 L 65.154297 21.576172 C 65.134139 21.203775 65.088319 20.941405 65.019531 20.789062 C 64.913704 20.552087 64.754547 20.365889 64.542969 20.230469 C 64.335599 20.095061 64.11911 20.027344 63.890625 20.027344 z M 48.910156 22.103516 C 48.271164 22.357422 47.85808 22.536784 47.671875 22.642578 C 47.337563 22.828783 47.098952 23.023449 46.955078 23.226562 C 46.811204 23.4297 46.738281 23.653332 46.738281 23.894531 C 46.738281 24.199217 46.829797 24.453126 47.011719 24.65625 C 47.19364 24.855154 47.403598 24.953125 47.640625 24.953125 C 47.962238 24.953125 48.385407 24.741535 48.910156 24.318359 L 48.910156 22.103516 z "
       style="opacity:0.997;fill:#000000;stroke:none;stroke-width:7.80794;stroke-linejoin:round;stroke-miterlimit:4;stroke-dasharray:none"
       id="rect833" />
    <text
       xml:space="preserve"
       style="font-size:2.64583333px;line-height:0.5;font-family:Garamond;-inkscape-font-specification:Garamond;text-align:center;text-anchor:middle;stroke-width:0.264583;"
       x="-113.25111"
       y="-78.430061"
       id="text856"><tspan
         sodipodi:role="line"
         id="tspan854"
         x="-113.25111"
         y="-78.430061"
         style="stroke-width:0.264583;font-size:2.64583333px;" /></text>
    <text
       xml:space="preserve"
       style="font-size:7.9375px;line-height:0.5;font-family:Garamond;-inkscape-font-specification:Garamond;text-align:center;text-anchor:middle;stroke-width:0.264583"
       x="-121.42485"
       y="-68.20108"
       id="text860"><tspan
         sodipodi:role="line"
         id="tspan858"
         x="-121.42485"
         y="-68.20108"
         style="stroke-width:0.264583" /></text>
    <text
       xml:space="preserve"
       style="font-size:2.64583px;line-height:0.5;font-family:Garamond;-inkscape-font-specification:Garamond;text-align:center;text-anchor:middle;stroke-width:0.264583;fill:#00ffff;"
       x="-117.43248"
       y="-77.296135"
       id="text864"><tspan
         sodipodi:role="line"
         id="tspan862"
         x="-117.43248"
         y="-77.296135"
         style="stroke-width:0.264583;fill:#00ffff;" /></text>
  </g>
</svg>
