<?xml version="1.0" encoding="UTF-8" standalone="no"?>
<svg
   xmlns:dc="http://purl.org/dc/elements/1.1/"
   xmlns:cc="http://creativecommons.org/ns#"
   xmlns:rdf="http://www.w3.org/1999/02/22-rdf-syntax-ns#"
   xmlns:svg="http://www.w3.org/2000/svg"
   xmlns="http://www.w3.org/2000/svg"
   xmlns:sodipodi="http://sodipodi.sourceforge.net/DTD/sodipodi-0.dtd"
   xmlns:inkscape="http://www.inkscape.org/namespaces/inkscape"
   sodipodi:docname="my-pieces-reg.svg"
   inkscape:version="1.0 (4035a4fb49, 2020-05-01)"
   id="svg8"
   version="1.1"
   viewBox="0 0 19.84375 7.9375"
   height="7.9375mm"
   width="19.84375mm">
  <defs
     id="defs2" />
  <sodipodi:namedview
     inkscape:window-maximized="1"
     inkscape:window-y="-9"
     inkscape:window-x="-9"
     inkscape:window-height="1001"
     inkscape:window-width="1920"
     fit-margin-bottom="0"
     fit-margin-right="0"
     fit-margin-left="0"
     fit-margin-top="0"
     showgrid="false"
     inkscape:document-rotation="0"
     inkscape:current-layer="layer1"
     inkscape:document-units="mm"
     inkscape:cy="20.829448"
     inkscape:cx="57.556908"
     inkscape:zoom="11.313708"
     inkscape:pageshadow="2"
     inkscape:pageopacity="0.0"
     borderopacity="1.0"
     bordercolor="#666666"
     pagecolor="#ffffff"
     id="base" />
  <metadata
     id="metadata5">
    <rdf:RDF>
      <cc:Work
         rdf:about="">
        <dc:format>image/svg+xml</dc:format>
        <dc:type
           rdf:resource="http://purl.org/dc/dcmitype/StillImage" />
        <dc:title />
      </cc:Work>
    </rdf:RDF>
  </metadata>
  <g
     transform="translate(127,80.886909)"
     id="layer1"
     inkscape:groupmode="layer"
     inkscape:label="Layer 1">
    <rect
       style="opacity:0.997;fill:#edc9a2;fill-opacity:1;stroke:none;stroke-width:0.18921;stroke-linejoin:round;stroke-dasharray:0.567624, 0.18921"
       id="rect843-7"
       width="19.84375"
       height="7.9375"
       x="-127"
       y="-80.886909" />
    <path
       id="rect833"
       style="opacity:0.997;fill:#ffffff;stroke:none;stroke-width:2.06585;stroke-linejoin:round;stroke-miterlimit:4;stroke-dasharray:none;fill-opacity:1"
       d="m -127,-80.886909 v 7.9375 h 19.84375 v -7.9375 z m 3.91759,0.794267 c 0.13452,-0.0061 0.27702,0.03066 0.36638,0.09974 0.0331,0.02556 0.0734,0.07912 0.10232,0.136426 0.0433,0.08579 0.0477,0.106734 0.0476,0.222725 -9e-5,0.146385 -0.0241,0.213033 -0.11576,0.319361 -0.11917,0.138272 -0.11259,0.158496 0.0977,0.304374 0.50609,0.351204 0.98633,0.772929 1.19889,1.052649 0.10041,0.132138 0.21815,0.35838 0.26769,0.51418 0.029,0.09127 0.0337,0.135152 0.0331,0.311609 -4.8e-4,0.184127 -0.004,0.217773 -0.0398,0.319361 -0.0538,0.156985 -0.14912,0.332032 -0.31161,0.572574 -0.31497,0.466233 -0.35403,0.650344 -0.21549,1.008724 0.0284,0.07351 0.0516,0.147245 0.0517,0.163815 1.2e-4,0.03687 -0.0451,0.04806 -0.19689,0.04806 -0.38695,0 -0.55484,0.09942 -0.41548,0.24598 0.129,0.13569 0.45496,0.200591 1.10949,0.221691 0.2295,0.0074 0.46154,0.02058 0.51573,0.02894 0.37251,0.05749 0.54294,0.172038 0.64183,0.430982 0.0297,0.07771 0.0889,0.301618 0.0889,0.336413 0,0.01074 -0.25747,0.01314 -0.8754,0.0083 -0.94142,-0.0075 -1.11776,-0.01865 -1.39733,-0.08785 -0.30409,-0.07527 -0.45923,-0.191551 -0.75861,-0.567925 -0.0709,-0.08911 -0.13353,-0.162002 -0.13901,-0.162263 -0.005,-2.56e-4 -0.0669,0.07145 -0.13694,0.159163 -0.28499,0.35667 -0.44737,0.482053 -0.72451,0.560689 -0.27517,0.07807 -0.64326,0.101522 -1.60972,0.101803 h -0.70848 l 0.009,-0.03876 c 0.0781,-0.321243 0.1158,-0.414614 0.20981,-0.518832 0.10268,-0.11381 0.27766,-0.188858 0.51676,-0.221692 0.0629,-0.0086 0.29442,-0.02146 0.51418,-0.02842 0.56111,-0.01776 0.79397,-0.05375 1.00252,-0.156063 0.11609,-0.05695 0.15968,-0.10169 0.15968,-0.16278 0,-0.08924 -0.12301,-0.133266 -0.40669,-0.145211 -0.10788,-0.0046 -0.21159,-0.01383 -0.23048,-0.02067 -0.0411,-0.0149 -0.0402,-0.02107 0.0346,-0.217557 0.044,-0.115425 0.0556,-0.166585 0.0615,-0.276986 0.0118,-0.219016 -0.0376,-0.341351 -0.28784,-0.715719 -0.26998,-0.403855 -0.34744,-0.586367 -0.35915,-0.844909 -0.008,-0.1763 0.0146,-0.297008 0.0894,-0.47439 0.11214,-0.266152 0.29037,-0.509141 0.57568,-0.785482 0.20333,-0.196946 0.29482,-0.269887 0.69143,-0.548803 0.16843,-0.118454 0.31484,-0.225207 0.32504,-0.237195 0.027,-0.03176 0.0103,-0.0762 -0.0641,-0.169499 -0.10892,-0.136875 -0.1518,-0.348007 -0.10336,-0.510563 0.0335,-0.112398 0.14415,-0.222929 0.2558,-0.255282 0.0408,-0.01182 0.0849,-0.01864 0.12971,-0.02067 z m 7.97781,0.330212 h 0.65267 l 0.83612,1.802991 0.82218,-1.802991 h 0.65267 v 0.06305 h -0.0796 c -0.0986,0 -0.1685,0.02945 -0.20929,0.08837 -0.0249,0.03625 -0.0372,0.118894 -0.0372,0.248047 v 1.505334 c 0,0.141616 0.0158,0.22998 0.0475,0.265101 0.0419,0.04758 0.10834,0.07183 0.19896,0.07183 h 0.0796 v 0.06253 h -0.97875 v -0.06253 h 0.0817 c 0.0986,0 0.16757,-0.02945 0.20722,-0.08837 0.0249,-0.03625 0.0372,-0.11941 0.0372,-0.248564 v -1.539441 l -0.88832,1.9389 h -0.0563 l -0.89038,-1.9389 v 1.539441 c 0,0.141616 0.0154,0.22998 0.046,0.265101 0.0419,0.04758 0.10782,0.07183 0.19844,0.07183 h 0.0816 v 0.06253 h -0.80201 v -0.06253 h 0.0816 c 0.0974,0 0.16643,-0.02945 0.20722,-0.08837 0.0249,-0.03625 0.0372,-0.11941 0.0372,-0.248564 v -1.505334 c 0,-0.101963 -0.0109,-0.175859 -0.0336,-0.221175 -0.0159,-0.03285 -0.0453,-0.06012 -0.0884,-0.08165 -0.0419,-0.02266 -0.11011,-0.03359 -0.20412,-0.03359 z m 3.05562,0.747758 h 0.72554 v 0.06305 h -0.0357 c -0.051,0 -0.0897,0.01093 -0.11575,0.03359 -0.0249,0.02153 -0.0372,0.0488 -0.0372,0.08165 0,0.04419 0.0184,0.105282 0.0558,0.183451 l 0.37931,0.785482 0.3483,-0.859896 c 0.0193,-0.04645 0.0289,-0.09266 0.0289,-0.137976 0,-0.02039 -0.004,-0.03528 -0.0119,-0.04547 -0.009,-0.01246 -0.0236,-0.02214 -0.0429,-0.02894 -0.0193,-0.0079 -0.0531,-0.01189 -0.1018,-0.01189 v -0.06305 h 0.50643 v 0.06305 c -0.0419,0.0045 -0.074,0.01328 -0.0966,0.02687 -0.0227,0.01359 -0.0477,0.0391 -0.0749,0.07648 -0.0102,0.01586 -0.0295,0.05937 -0.0579,0.130742 l -0.63407,1.553393 c -0.0612,0.150679 -0.14165,0.264543 -0.24133,0.341581 -0.0986,0.07704 -0.19348,0.115755 -0.28525,0.115755 -0.0668,0 -0.1218,-0.01936 -0.16485,-0.05788 -0.0431,-0.03852 -0.0646,-0.08296 -0.0646,-0.132809 0,-0.04758 0.0154,-0.08578 0.046,-0.115238 0.0317,-0.02832 0.0748,-0.04237 0.12919,-0.04237 0.0374,0 0.0884,0.01228 0.15296,0.03721 0.0453,0.01699 0.0734,0.02532 0.0847,0.02532 0.034,0 0.0709,-0.01759 0.11059,-0.05271 0.0408,-0.03512 0.0817,-0.102774 0.12247,-0.203605 l 0.11007,-0.270268 -0.55862,-1.174605 c -0.017,-0.03512 -0.0443,-0.07863 -0.0817,-0.130742 -0.0283,-0.03965 -0.0516,-0.06599 -0.0698,-0.07958 -0.0261,-0.01813 -0.0683,-0.03395 -0.12609,-0.04754 z m -3.28145,2.620512 c 0.0476,0 0.0876,0.01666 0.12041,0.05064 0.034,0.03285 0.0512,0.07334 0.0512,0.120923 0,0.04758 -0.0172,0.08848 -0.0512,0.122473 -0.0329,0.03399 -0.0728,0.05064 -0.12041,0.05064 -0.0476,0 -0.0885,-0.01666 -0.12247,-0.05064 -0.034,-0.03399 -0.0512,-0.07489 -0.0512,-0.122473 0,-0.04758 0.0162,-0.08807 0.0491,-0.120923 0.034,-0.03399 0.0758,-0.05064 0.12454,-0.05064 z m -2.38435,0.112138 h 0.84439 c 0.20619,0 0.36887,0.02154 0.48783,0.06459 0.11896,0.04192 0.21919,0.113112 0.30076,0.213941 0.0816,0.10083 0.12247,0.220417 0.12247,0.358634 0,0.188065 -0.0624,0.341063 -0.18707,0.458887 -0.12349,0.117824 -0.29845,0.176733 -0.52503,0.176733 -0.0555,0 -0.1158,-0.004 -0.18035,-0.01188 -0.0646,-0.0079 -0.13361,-0.0198 -0.20723,-0.03566 v 0.671277 c 0,0.145014 0.0158,0.235147 0.0476,0.270268 0.0431,0.04985 0.10811,0.07441 0.19533,0.07441 h 0.0889 v 0.06305 h -0.98754 v -0.06305 h 0.0868 c 0.0974,0 0.16685,-0.03164 0.20877,-0.09508 0.0227,-0.03512 0.0341,-0.118178 0.0341,-0.249597 v -1.488798 c 0,-0.145013 -0.0154,-0.235147 -0.046,-0.270268 -0.0442,-0.04985 -0.10966,-0.07441 -0.19688,-0.07441 h -0.0868 z m 0.8785,0.137459 c -0.0578,0 -0.13211,0.01103 -0.22273,0.03256 v 0.958081 c 0.0601,0.01133 0.11325,0.02017 0.15968,0.02584 0.0465,0.0057 0.086,0.0083 0.11886,0.0083 0.11783,0 0.21941,-0.04527 0.30437,-0.135909 0.0861,-0.09177 0.1292,-0.210003 0.1292,-0.355017 0,-0.0997 -0.0202,-0.192017 -0.061,-0.276986 -0.0408,-0.0861 -0.0989,-0.150318 -0.17364,-0.192236 -0.0748,-0.04305 -0.15959,-0.0646 -0.25476,-0.0646 z m 2.8143,0.562756 c 0.17446,0 0.31779,0.05756 0.42995,0.173116 0.11216,0.114426 0.16794,0.267842 0.16794,0.460437 h -1.07538 c -0.001,0.231117 0.0545,0.412734 0.16795,0.544153 0.11329,0.131419 0.24651,0.196888 0.39945,0.196888 0.10197,0 0.19033,-0.02769 0.2651,-0.0832 0.0759,-0.05665 0.13919,-0.152922 0.19017,-0.288872 l 0.0527,0.03411 c -0.0238,0.15521 -0.0928,0.296759 -0.20722,0.42478 -0.11442,0.126887 -0.25774,0.190169 -0.42995,0.190169 -0.18693,0 -0.34742,-0.07254 -0.4811,-0.217558 -0.13255,-0.146147 -0.19844,-0.342233 -0.19844,-0.588077 0,-0.266238 0.0677,-0.473256 0.2036,-0.621668 0.13709,-0.149546 0.30902,-0.224276 0.51522,-0.224276 z m 3.08611,0 c 0.17447,0 0.31779,0.05756 0.42995,0.173116 0.11216,0.114426 0.16795,0.267841 0.16795,0.460437 h -1.07539 c -0.001,0.231117 0.0545,0.412734 0.16795,0.544153 0.1133,0.131419 0.24651,0.196888 0.39946,0.196888 0.10196,0 0.19033,-0.02769 0.2651,-0.0832 0.0759,-0.05665 0.13919,-0.152922 0.19017,-0.288872 l 0.0527,0.03411 c -0.0238,0.15521 -0.0928,0.296759 -0.20722,0.42478 -0.11443,0.126887 -0.25774,0.190169 -0.42995,0.190169 -0.18693,0 -0.34743,-0.07254 -0.48111,-0.217558 -0.13255,-0.146147 -0.19843,-0.342233 -0.19843,-0.588077 0,-0.266238 0.0677,-0.473256 0.2036,-0.621668 0.13709,-0.149546 0.30902,-0.224276 0.51521,-0.224276 z m -4.32841,0.0016 h 0.0749 v 1.250569 c 0,0.09743 0.007,0.162999 0.0202,0.195854 0.0147,0.03172 0.0358,0.05545 0.0631,0.07131 0.0283,0.01586 0.0793,0.02377 0.15296,0.02377 v 0.06098 h -0.75654 v -0.06098 c 0.0759,0 0.1269,-0.0075 0.15296,-0.02222 0.0261,-0.01473 0.0468,-0.03888 0.0615,-0.07286 0.0159,-0.03399 0.0238,-0.09955 0.0238,-0.195854 v -0.599446 c 0,-0.168806 -0.005,-0.278297 -0.0155,-0.328146 -0.008,-0.03625 -0.0202,-0.06134 -0.0372,-0.07493 -0.017,-0.01473 -0.0403,-0.02222 -0.0698,-0.02222 -0.0317,0 -0.0705,0.0088 -0.11575,0.02584 l -0.0238,-0.0615 z m 2.79879,0 c 0.15295,0 0.27867,0.0409 0.37724,0.122473 0.0986,0.08044 0.14779,0.163912 0.14779,0.251147 0,0.04305 -0.014,0.07823 -0.0424,0.10542 -0.0272,0.02606 -0.0659,0.03927 -0.11576,0.03927 -0.0668,0 -0.1169,-0.02154 -0.15089,-0.06459 -0.0193,-0.02379 -0.0325,-0.06907 -0.0393,-0.135909 -0.006,-0.06684 -0.0289,-0.117843 -0.0682,-0.152962 -0.0397,-0.03399 -0.0946,-0.05116 -0.16485,-0.05116 -0.11329,0 -0.20426,0.04225 -0.27336,0.12609 -0.0918,0.111026 -0.13746,0.257366 -0.13746,0.439767 0,0.185799 0.0453,0.350244 0.13591,0.492993 0.0918,0.141615 0.2153,0.21239 0.37052,0.21239 0.11102,0 0.21032,-0.03778 0.29869,-0.113688 0.0623,-0.05211 0.12301,-0.146619 0.1819,-0.283704 l 0.0496,0.02377 c -0.0419,0.20506 -0.12415,0.362847 -0.2465,0.473873 -0.12235,0.109894 -0.25776,0.164848 -0.40618,0.164848 -0.17673,0 -0.33108,-0.07431 -0.4625,-0.222725 -0.13142,-0.148413 -0.19689,-0.348872 -0.19689,-0.601514 0,-0.244711 0.0726,-0.443401 0.21756,-0.596346 0.14615,-0.152944 0.32111,-0.229443 0.52503,-0.229443 z m 2.86701,0 c 0.0612,0 0.135,0.01321 0.22221,0.03927 0.0578,0.01699 0.0965,0.02532 0.11575,0.02532 0.0181,0 0.0322,-0.004 0.0424,-0.01188 0.0102,-0.0079 0.0221,-0.02552 0.0357,-0.05271 h 0.0563 v 0.5302 h -0.0563 c -0.0431,-0.166539 -0.0984,-0.279986 -0.1664,-0.340031 -0.0668,-0.06005 -0.15209,-0.08992 -0.25632,-0.08992 -0.0793,0 -0.14352,0.02113 -0.19223,0.06305 -0.0487,0.04192 -0.0734,0.08803 -0.0734,0.13901 0,0.06345 0.0185,0.117983 0.0548,0.163297 0.0351,0.04645 0.10632,0.09568 0.21394,0.147795 l 0.24805,0.120923 c 0.22998,0.112159 0.3452,0.25985 0.3452,0.443383 0,0.141616 -0.0541,0.255897 -0.16175,0.343132 -0.10649,0.0861 -0.22556,0.129191 -0.35812,0.129191 -0.0952,0 -0.20424,-0.01666 -0.32659,-0.05064 -0.0374,-0.01133 -0.0682,-0.01705 -0.092,-0.01705 -0.0261,0 -0.0462,0.01447 -0.061,0.04393 h -0.0563 v -0.555584 h 0.0563 c 0.0317,0.15861 0.0924,0.278197 0.1819,0.358635 0.0895,0.08044 0.18973,0.120406 0.30075,0.120406 0.0782,0 0.14146,-0.02238 0.19017,-0.0677 0.0499,-0.04645 0.0749,-0.102342 0.0749,-0.166915 0,-0.07817 -0.0277,-0.143639 -0.0832,-0.196887 -0.0544,-0.05325 -0.1639,-0.120484 -0.32815,-0.202055 -0.16427,-0.08157 -0.272,-0.155466 -0.32298,-0.221175 -0.051,-0.06458 -0.0765,-0.146385 -0.0765,-0.244947 0,-0.128019 0.044,-0.234808 0.13126,-0.32091 0.0884,-0.0861 0.20223,-0.129191 0.34158,-0.129191 z m -4.51859,0.118855 c -0.094,0 -0.17844,0.03695 -0.25321,0.110588 -0.0736,0.07251 -0.11673,0.174088 -0.12919,0.304374 h 0.72037 c -0.005,-0.0997 -0.0172,-0.170054 -0.0357,-0.21084 -0.0283,-0.06344 -0.071,-0.113606 -0.12764,-0.149861 -0.0555,-0.03625 -0.11351,-0.05426 -0.17467,-0.05426 z m 3.0856,0 c -0.094,0 -0.17844,0.03695 -0.25321,0.110588 -0.0736,0.07251 -0.11622,0.174088 -0.12868,0.304374 h 0.72037 c -0.006,-0.0997 -0.0178,-0.170054 -0.0357,-0.21084 -0.0283,-0.06344 -0.071,-0.113605 -0.12764,-0.149861 -0.0555,-0.03625 -0.11403,-0.05426 -0.17519,-0.05426 z m -12.21941,0.598414 c -0.004,0 -0.028,0.01319 -0.0512,0.02945 l -0.0424,0.02946 0.0403,0.04754 c 0.0222,0.02606 0.0453,0.04802 0.0512,0.04858 0.006,5.72e-4 0.0108,-0.03412 0.0108,-0.077 h 5.2e-4 c 0,-0.04288 -0.004,-0.07803 -0.009,-0.07803 z m 0.7767,0.113171 c -0.0496,0 -0.0553,0.004 -0.0553,0.03566 0,0.03398 0.004,0.03514 0.0894,0.03514 h 0.0899 l -0.0341,-0.03514 c -0.0249,-0.02582 -0.0494,-0.03566 -0.0899,-0.03566 z m 0.44183,0.44235 c -0.0281,0.0032 -0.0412,0.01357 -0.0444,0.03514 -0.004,0.02782 0.007,0.03664 0.0579,0.04548 0.005,9.68e-4 0.0133,-0.0083 0.0181,-0.02067 0.0187,-0.0476 0.01,-0.06455 -0.0315,-0.05994 z m 0.60358,0.06356 c -0.0848,-0.0098 -0.10145,-0.0022 -0.0894,0.04289 0.007,0.02423 0.0215,0.03198 0.0687,0.03617 0.0331,0.0029 0.0684,0.007 0.0786,0.0083 0.0109,0.0015 0.0181,-0.01392 0.0181,-0.03824 0,-0.03832 -0.004,-0.04081 -0.076,-0.04909 z m -3.55637,0.07545 v 0.04237 c 0,0.04241 1.6e-4,0.04289 0.0847,0.04289 0.0629,0 0.0908,-0.0065 0.10697,-0.0248 0.0509,-0.05775 0.0474,-0.06046 -0.0749,-0.06046 z" />
    <text
       id="text856"
       y="-78.430061"
       x="-113.25111"
       style="font-size:2.64583333px;line-height:0.5;font-family:Garamond;-inkscape-font-specification:Garamond;text-align:center;text-anchor:middle;stroke-width:0.264583;"
       xml:space="preserve"><tspan
         style="stroke-width:0.264583;font-size:2.64583333px;"
         y="-78.430061"
         x="-113.25111"
         id="tspan854"
         sodipodi:role="line" /></text>
    <text
       id="text860"
       y="-68.20108"
       x="-121.42485"
       style="font-size:7.9375px;line-height:0.5;font-family:Garamond;-inkscape-font-specification:Garamond;text-align:center;text-anchor:middle;stroke-width:0.264583"
       xml:space="preserve"><tspan
         style="stroke-width:0.264583"
         y="-68.20108"
         x="-121.42485"
         id="tspan858"
         sodipodi:role="line" /></text>
    <text
       id="text864"
       y="-77.296135"
       x="-117.43248"
       style="font-size:2.64583px;line-height:0.5;font-family:Garamond;-inkscape-font-specification:Garamond;text-align:center;text-anchor:middle;stroke-width:0.264583;fill:#00ffff;"
       xml:space="preserve"><tspan
         style="stroke-width:0.264583;fill:#00ffff;"
         y="-77.296135"
         x="-117.43248"
         id="tspan862"
         sodipodi:role="line" /></text>
  </g>
</svg>
