<?xml version="1.0" encoding="UTF-8" standalone="no"?>
<svg
   xmlns:dc="http://purl.org/dc/elements/1.1/"
   xmlns:cc="http://creativecommons.org/ns#"
   xmlns:rdf="http://www.w3.org/1999/02/22-rdf-syntax-ns#"
   xmlns:svg="http://www.w3.org/2000/svg"
   xmlns="http://www.w3.org/2000/svg"
   xmlns:sodipodi="http://sodipodi.sourceforge.net/DTD/sodipodi-0.dtd"
   xmlns:inkscape="http://www.inkscape.org/namespaces/inkscape"
   version="1.1"
   id="svg3788"
   width="24.000004"
   height="23.999983"
   viewBox="0 0 24.000003 23.999985"
   sodipodi:docname="author-github-invert.svg"
   inkscape:version="0.92.4 (5da689c313, 2019-01-14)">
  <metadata
     id="metadata3794">
    <rdf:RDF>
      <cc:Work
         rdf:about="">
        <dc:format>image/svg+xml</dc:format>
        <dc:type
           rdf:resource="http://purl.org/dc/dcmitype/StillImage" />
        <dc:title></dc:title>
      </cc:Work>
    </rdf:RDF>
  </metadata>
  <defs
     id="defs3792" />
  <sodipodi:namedview
     fit-margin-bottom="0"
     fit-margin-right="0"
     fit-margin-left="0"
     fit-margin-top="0"
     units="px"
     inkscape:document-rotation="0"
     pagecolor="#ffffff"
     bordercolor="#666666"
     borderopacity="1"
     objecttolerance="10"
     gridtolerance="10"
     guidetolerance="10"
     inkscape:pageopacity="0"
     inkscape:pageshadow="2"
     inkscape:window-width="1920"
     inkscape:window-height="1017"
     id="namedview3790"
     showgrid="false"
     inkscape:zoom="13.718274"
     inkscape:cx="1.6771116"
     inkscape:cy="14.467756"
     inkscape:window-x="-8"
     inkscape:window-y="-8"
     inkscape:window-maximized="1"
     inkscape:current-layer="g3796" />
  <g
     transform="translate(-92.435586,-129.2294)"
     inkscape:groupmode="layer"
     inkscape:label="Image"
     id="g3796">
    <path
       inkscape:connector-curvature="0"
       d="m 100.46301,148.5542 c 0,0.0993 -0.11129,0.17865 -0.25162,0.17865 -0.15966,0.0149 -0.270974,-0.0645 -0.270974,-0.17865 0,-0.0992 0.111314,-0.17866 0.251624,-0.17866 0.14517,-0.0149 0.27097,0.0645 0.27097,0.17866 z m -1.504844,-0.22333 c -0.0339,0.0992 0.0629,0.2134 0.20806,0.24318 0.12582,0.0496 0.27097,0 0.30001,-0.0993 0.029,-0.0992 -0.0629,-0.2134 -0.20807,-0.25806 -0.1258,-0.0347 -0.26613,0.0149 -0.3,0.11414 z m 2.138724,-0.0844 c -0.14035,0.0347 -0.23711,0.12903 -0.2226,0.24318 0.0145,0.0993 0.14033,0.16377 0.2855,0.12903 0.14031,-0.0347 0.23709,-0.12903 0.22256,-0.22829 -0.0145,-0.0943 -0.14515,-0.1588 -0.28546,-0.14392 z m 3.18386,-19.01707 c -6.711294,0 -11.845164,5.22573 -11.845164,12.10899 0,5.50364 3.37742,10.21324 8.201614,11.87077 0.61935,0.11415 0.83709,-0.27791 0.83709,-0.60048 0,-0.30769 -0.0145,-2.00492 -0.0145,-3.04709 0,0 -3.387104,0.7444 -4.098394,-1.47889 0,0 -0.55161,-1.44414 -1.34516,-1.81634 0,0 -1.10806,-0.77915 0.0774,-0.76426 0,0 1.20485,0.0993 1.86775,1.28038 1.05968,1.9156 2.835474,1.36474 3.527414,1.0372 0.11131,-0.79403 0.42581,-1.34489 0.77421,-1.67243 -2.704854,-0.30769 -5.433884,-0.70967 -5.433884,-5.48379 0,-1.36474 0.36773,-2.04959 1.14194,-2.92303 -0.12582,-0.32256 -0.5371,-1.65258 0.1258,-3.36967 1.01128,-0.32257 3.338714,1.33994 3.338714,1.33994 0.96774,-0.27792 2.00806,-0.42184 3.03871,-0.42184 1.03063,0 2.07097,0.14392 3.0387,0.42184 0,0 2.32743,-1.66747 3.33872,-1.33994 0.6629,1.72205 0.25161,3.04711 0.1258,3.36967 0.77419,0.8784 1.24839,1.56325 1.24839,2.92303 0,4.78901 -2.85001,5.17114 -5.55484,5.48379 0.44516,0.39205 0.82258,1.13646 0.82258,2.30269 0,1.67243 -0.0145,3.74187 -0.0145,4.14881 0,0.32257 0.22258,0.71463 0.83709,0.60049 4.83871,-1.64761 8.11936,-6.35721 8.11936,-11.86085 0,-6.88326 -5.44356,-12.10899 -12.15483,-12.10899 z m -7.141944,17.11636 c -0.0629,0.0496 -0.0484,0.16377 0.0339,0.25806 0.0774,0.0794 0.18871,0.11414 0.25162,0.0496 0.0629,-0.0496 0.0484,-0.16377 -0.0339,-0.25806 -0.0774,-0.0794 -0.18871,-0.11414 -0.25161,-0.0496 z m -0.52259,-0.40198 c -0.0339,0.0645 0.0145,0.14392 0.11129,0.19355 0.0774,0.0496 0.1742,0.0347 0.20807,-0.0347 0.0339,-0.0645 -0.0145,-0.14392 -0.11129,-0.19355 -0.0968,-0.0298 -0.17419,-0.0149 -0.20807,0.0347 z m 1.56776,1.76672 c -0.0774,0.0645 -0.0484,0.2134 0.0629,0.30769 0.11129,0.11414 0.25161,0.12903 0.31451,0.0496 0.0629,-0.0645 0.0339,-0.2134 -0.0629,-0.30769 -0.10645,-0.11414 -0.25161,-0.12903 -0.31451,-0.0496 z m -0.55162,-0.72952 c -0.0774,0.0496 -0.0774,0.17866 0,0.2928 0.0774,0.11415 0.20807,0.16377 0.27097,0.11415 0.0774,-0.0645 0.0774,-0.19355 0,-0.30769 -0.0677,-0.11414 -0.19355,-0.16377 -0.27097,-0.0992 z"
       id="path5147-8"
       style="stroke-width:0.04900303" />
  </g>
</svg>
