<?xml version="1.0" encoding="UTF-8" standalone="no"?>
<svg
   xmlns:dc="http://purl.org/dc/elements/1.1/"
   xmlns:cc="http://creativecommons.org/ns#"
   xmlns:rdf="http://www.w3.org/1999/02/22-rdf-syntax-ns#"
   xmlns:svg="http://www.w3.org/2000/svg"
   xmlns="http://www.w3.org/2000/svg"
   xmlns:sodipodi="http://sodipodi.sourceforge.net/DTD/sodipodi-0.dtd"
   xmlns:inkscape="http://www.inkscape.org/namespaces/inkscape"
   version="1.1"
   id="svg3788"
   width="23.999996"
   height="24"
   viewBox="0 0 23.999995 24.000002"
   sodipodi:docname="chess-rules-invert.svg"
   inkscape:version="0.92.4 (5da689c313, 2019-01-14)">
  <metadata
     id="metadata3794">
    <rdf:RDF>
      <cc:Work
         rdf:about="">
        <dc:format>image/svg+xml</dc:format>
        <dc:type
           rdf:resource="http://purl.org/dc/dcmitype/StillImage" />
        <dc:title></dc:title>
      </cc:Work>
    </rdf:RDF>
  </metadata>
  <defs
     id="defs3792" />
  <sodipodi:namedview
     fit-margin-bottom="0"
     fit-margin-right="0"
     fit-margin-left="0"
     fit-margin-top="0"
     units="px"
     inkscape:document-rotation="0"
     pagecolor="#ffffff"
     bordercolor="#666666"
     borderopacity="1"
     objecttolerance="10"
     gridtolerance="10"
     guidetolerance="10"
     inkscape:pageopacity="0"
     inkscape:pageshadow="2"
     inkscape:window-width="1920"
     inkscape:window-height="1017"
     id="namedview3790"
     showgrid="false"
     inkscape:zoom="27.436547"
     inkscape:cx="-4.4716107"
     inkscape:cy="12.735355"
     inkscape:window-x="-8"
     inkscape:window-y="-8"
     inkscape:window-maximized="1"
     inkscape:current-layer="g3796" />
  <g
     transform="translate(-94.20253,-159.46021)"
     inkscape:groupmode="layer"
     inkscape:label="Image"
     id="g3796">
    <path
       inkscape:connector-curvature="0"
       style="fill:#000000;stroke-width:0.05472237"
       d="m 101.268,183.4112 c -2.281517,-0.0486 -3.049588,-0.13699 -3.187214,-0.36698 -0.138954,-0.23219 0.128134,-1.56848 0.528022,-2.64179 0.749564,-2.01186 1.998452,-3.96979 2.856312,-4.47796 0.1462,-0.0866 0.3796,-0.17272 0.51868,-0.19137 0.3241,-0.0435 0.67273,-0.24297 1.22541,-0.70126 0.69658,-0.57762 1.15458,-0.74688 2.23621,-0.82644 1.14275,-0.084 2.04943,-0.369 2.95453,-0.92857 0.47406,-0.29308 1.15402,-0.8836 1.46631,-1.27341 0.30713,-0.3834 0.64236,-1.004 0.78868,-1.46009 0.11291,-0.35189 0.12943,-0.52597 0.13058,-1.37507 0.002,-0.99287 -0.015,-1.06941 -0.23014,-1.07069 -0.0318,-1.6e-4 -0.34952,0.5176 -0.706,1.15063 -0.76113,1.35165 -1.20654,1.97808 -1.75557,2.46908 -0.99284,0.88791 -2.14797,1.20732 -4.59799,1.27139 -2.83348,0.0741 -2.91193,0.10654 -4.579973,1.89377 l -0.465297,0.49854 -1.383284,-0.74708 c -0.760799,-0.41089 -1.420567,-0.76662 -1.46616,-0.79051 -0.0632,-0.0331 -0.01667,-0.0847 0.195877,-0.21721 1.182932,-0.7374 1.337466,-0.88624 1.200111,-1.15585 -0.08272,-0.16234 -0.616188,-0.33754 -1.027806,-0.33754 -0.384435,0 -0.633384,0.0867 -0.929892,0.32388 -0.231786,0.1854 -0.43316,0.29712 -0.535597,0.29712 -0.03268,0 -0.103044,-0.12226 -0.156372,-0.27169 -0.07965,-0.22321 -0.101223,-0.56251 -0.120927,-1.90179 l -0.02397,-1.63011 1.115621,-0.67275 c 2.747406,-1.65673 4.483418,-2.78425 5.747329,-3.73284 0.8492,-0.63735 1.79371,-1.25951 3.07004,-2.02226 1.61718,-0.96645 2.48503,-1.64817 3.19613,-2.51064 0.49855,-0.60469 0.63984,-0.66853 0.88897,-0.40165 0.0883,0.0946 0.28116,0.44172 0.42854,0.77136 0.5371,1.20131 1.20211,1.84258 3.06354,2.9542 1.66358,0.99347 3.10681,2.25174 4.0896,3.56553 0.73039,0.97636 1.16483,1.88528 1.34653,2.81712 0.22533,1.15555 0.37836,3.30374 0.38029,5.33837 0.002,2.2427 0.14302,5.40045 0.29205,6.54632 0.0486,0.37322 0.28491,1.47525 0.38015,1.77242 0.0276,0.0859 -0.35774,0.0901 -7.56969,0.082 -4.17931,-0.005 -8.39294,-0.0255 -9.36363,-0.0461 z"
       id="path3827" />
  </g>
</svg>
