<?xml version="1.0" encoding="UTF-8" standalone="no"?>
<!-- Created with Inkscape (http://www.inkscape.org/) -->

<svg
   xmlns:dc="http://purl.org/dc/elements/1.1/"
   xmlns:cc="http://creativecommons.org/ns#"
   xmlns:rdf="http://www.w3.org/1999/02/22-rdf-syntax-ns#"
   xmlns:svg="http://www.w3.org/2000/svg"
   xmlns="http://www.w3.org/2000/svg"
   xmlns:sodipodi="http://sodipodi.sourceforge.net/DTD/sodipodi-0.dtd"
   xmlns:inkscape="http://www.inkscape.org/namespaces/inkscape"
   width="210mm"
   height="297mm"
   viewBox="0 0 210 297"
   version="1.1"
   id="svg8"
   inkscape:version="0.92.4 (5da689c313, 2019-01-14)"
   sodipodi:docname="black-dragon.svg">
  <defs
     id="defs2" />
  <sodipodi:namedview
     id="base"
     pagecolor="#ffffff"
     bordercolor="#666666"
     borderopacity="1.0"
     inkscape:pageopacity="0.0"
     inkscape:pageshadow="2"
     inkscape:zoom="0.7"
     inkscape:cx="219.74821"
     inkscape:cy="713.08949"
     inkscape:document-units="mm"
     inkscape:current-layer="layer1"
     showgrid="false"
     inkscape:window-width="1920"
     inkscape:window-height="1017"
     inkscape:window-x="-8"
     inkscape:window-y="-8"
     inkscape:window-maximized="1" />
  <metadata
     id="metadata5">
    <rdf:RDF>
      <cc:Work
         rdf:about="">
        <dc:format>image/svg+xml</dc:format>
        <dc:type
           rdf:resource="http://purl.org/dc/dcmitype/StillImage" />
        <dc:title></dc:title>
      </cc:Work>
    </rdf:RDF>
  </metadata>
  <g
     inkscape:label="Layer 1"
     inkscape:groupmode="layer"
     id="layer1">
    <path
       style="fill:#000000;stroke:#0014ed;stroke-width:0.86500001;stroke-miterlimit:4;stroke-dasharray:none;stroke-opacity:1"
       d="m 146.81519,238.85631 c -0.16309,-0.50932 -0.61331,-2.41432 -1.0005,-4.23333 -0.94303,-4.43047 -2.48964,-9.01826 -4.26012,-12.6371 -5.13002,-10.4857 -17.83554,-21.02685 -35.52712,-29.47512 -3.22149,-1.53836 -17.320454,-7.77108 -20.660674,-9.13344 -3.9658,-1.61752 -15.825984,-7.62719 -21.859793,-11.07656 -6.315941,-3.61067 -9.701901,-5.98001 -14.99793,-10.49486 -1.86336,-1.58852 -3.48018,-2.85069 -3.59294,-2.80484 -0.11276,0.0459 -1.25578,1.24423 -2.54005,2.66306 -1.28426,1.41882 -2.40635,2.57968 -2.49352,2.57968 -0.0872,0 -0.90906,-2.82773 -1.82641,-6.28385 -2.42116,-9.12175 -3.52239,-12.76654 -3.85623,-12.76316 -0.16203,0.002 -2.0187,0.83507 -4.12594,1.85208 -2.10724,1.017 -3.98474,1.84909 -4.17223,1.84909 -0.21853,0 -0.29071,-0.21365 -0.2011,-0.59531 0.0769,-0.32741 0.73791,-3.27421 1.46895,-6.54843 2.60864,-11.68368 2.86292,-12.9954 2.54206,-13.11337 -0.16734,-0.0615 -2.47752,-0.14252 -5.13373,-0.17998 l -4.82949,-0.0681 2.40904,-3.43958 c 1.32496,-1.89177 4.07698,-5.78166 6.11558,-8.64419 2.03861,-2.86253 3.72312,-5.28764 3.74337,-5.38913 0.0202,-0.10149 -1.87151,-0.74238 -4.20391,-1.4242 -5.06746,-1.48134 -5.079,-1.48701 -4.44661,-2.1858 0.37241,-0.41151 6.11349,-4.32301 15.53575,-10.5848 0.37598,-0.24987 -0.22552,-0.880872 -3.67342,-3.853622 -1.60073,-1.38013 -2.94683,-2.60441 -2.99134,-2.72062 -0.0898,-0.234469 0.51286,-0.36812 7.75384,-1.719519 7.836879,-1.462612 13.201179,-2.520265 13.304002,-2.623085 0.0516,-0.05166 -1.343031,-2.016117 -3.099311,-4.365471 -1.75627,-2.349352 -3.193222,-4.370624 -3.193222,-4.491716 0,-0.121089 0.506011,-0.117181 1.124471,0.0087 1.487911,0.302805 15.014872,1.800853 18.10589,2.005135 l 2.42932,0.160552 -1.43714,-4.414775 c -0.790408,-2.428125 -1.437119,-4.542049 -1.437119,-4.697608 0,-0.473196 0.998559,-0.09703 9.96696,3.754604 4.732852,2.032603 8.885672,3.766044 9.228502,3.852087 0.57728,0.144891 0.61425,0.09107 0.50068,-0.729001 -0.46473,-3.355893 -0.89209,-7.209998 -0.80872,-7.293366 0.0547,-0.0547 3.29832,1.832745 7.20806,4.19432 8.09461,4.889352 9.887704,5.782176 15.021574,7.479629 3.74477,1.238162 4.39127,1.385133 4.39127,0.99828 0,-0.11989 -1.14788,-2.114187 -2.55085,-4.431771 -5.03137,-8.311416 -6.03718,-10.115793 -8.838264,-15.855452 -3.12172,-6.396681 -6.96214,-14.942156 -6.79171,-15.112571 0.0596,-0.05957 1.70286,2.006695 3.65173,4.59171 6.614904,8.774059 10.779644,13.801638 17.685214,21.349193 5.65552,6.181294 13.51612,14.174793 13.93912,14.174793 0.99275,0 0.11733,-1.529937 -3.51354,-6.140442 -1.3932,-1.769089 -4.10185,-6.083346 -7.02536,-11.189766 -2.31906,-4.050645 -4.25688,-8.185602 -7.25372,-15.478124 -1.99257,-4.848707 -2.25586,-5.032934 4.19324,2.934013 9.24741,11.423852 22.80434,26.708778 26.98006,30.418987 1.21007,1.075164 3.03357,2.732024 4.05221,3.681905 1.01865,0.949881 3.64327,3.29161 5.8325,5.203841 7.51789,6.56667 11.73687,11.67304 15.92692,19.27688 0.88207,1.60073 2.15134,3.83658 2.82061,4.96856 0.66926,1.13198 1.21685,2.13355 1.21685,2.2257 0,0.30181 3.71375,5.11639 5.58151,7.23598 1.00475,1.14023 1.82682,2.11599 1.82682,2.16836 0,0.0524 -0.75766,0.047 -1.6837,-0.012 -1.56595,-0.0997 -1.74524,-0.0522 -2.56394,0.6793 l -0.88026,0.78651 0.5914,1.5454 c 1.17315,3.06564 4.8944,7.88542 8.90212,11.53008 2.62906,2.39087 4.66445,3.89682 7.46202,5.52097 2.78788,1.61853 3.15166,2.1555 2.89996,4.28063 -0.49983,4.22029 -3.6375,9.35834 -8.1036,13.26992 -3.84812,3.37035 -13.59777,7.83894 -14.69946,6.73726 -0.0887,-0.0887 0.19647,-0.86995 0.63371,-1.73613 2.62602,-5.20211 2.53175,-8.5341 -0.39828,-14.0782 -0.65054,-1.23094 -1.85821,-3.17613 -2.68373,-4.32267 -1.84702,-2.56527 -6.34411,-7.34922 -7.67515,-8.1647 -0.54086,-0.33137 -1.58935,-1.09319 -2.32997,-1.69295 -0.74063,-0.59975 -3.65766,-2.61279 -6.4823,-4.47341 -6.57298,-4.32972 -11.54501,-8.06998 -13.78095,-10.36689 -2.15048,-2.20911 -2.59528,-2.75355 -4.72466,-5.78299 -4.29077,-6.1044 -9.55175,-11.60616 -15.20802,-15.90401 -4.1253,-3.13457 -5.98213,-4.25941 -11.10957,-6.73003 -5.5339,-2.66646 -7.07085,-3.25433 -11.438064,-4.374883 -4.86951,-1.249429 -7.77835,-1.471409 -15.26143,-1.164659 -6.552833,0.268629 -8.523013,0.607949 -13.121551,2.259942 -7.70287,2.76718 -13.301152,7.90919 -16.592471,15.24019 -1.879661,4.18666 -2.800932,10.37523 -2.19947,14.77449 1.19436,8.73569 8.056229,18.92563 18.595041,27.61371 9.2544,7.62925 17.668841,12.48575 36.710645,21.188 7.88142,3.60186 13.07004,6.61126 19.042,11.04437 8.20013,6.08713 14.22192,12.21765 17.66764,17.98666 3.2678,5.47112 5.52916,10.40961 6.48439,14.16104 0.54264,2.13106 0.59046,2.89542 0.55966,8.94476 -0.0185,3.63803 -0.14526,7.09085 -0.28163,7.67292 l -0.24795,1.05833 z M 162.8897,124.07995 c 0,-0.11647 -0.57808,-0.86061 -1.28462,-1.65364 -0.70654,-0.79303 -1.62928,-1.92723 -2.05052,-2.52045 -1.86741,-2.62973 -4.73244,-6.35754 -5.1125,-6.65208 -0.63355,-0.49098 -1.02219,-0.40473 -1.50643,0.33431 -0.36599,0.55857 -0.39114,0.84074 -0.14743,1.65415 0.42008,1.40211 3.2686,4.401 6.56205,6.90845 2.58015,1.96438 3.53945,2.48727 3.53945,1.92926 z"
       id="path4758-0"
       inkscape:connector-curvature="0" />
  </g>
</svg>
