<?xml version="1.0" encoding="UTF-8" standalone="no"?>
<svg
   xmlns:dc="http://purl.org/dc/elements/1.1/"
   xmlns:cc="http://creativecommons.org/ns#"
   xmlns:rdf="http://www.w3.org/1999/02/22-rdf-syntax-ns#"
   xmlns:svg="http://www.w3.org/2000/svg"
   xmlns="http://www.w3.org/2000/svg"
   xmlns:sodipodi="http://sodipodi.sourceforge.net/DTD/sodipodi-0.dtd"
   xmlns:inkscape="http://www.inkscape.org/namespaces/inkscape"
   inkscape:version="1.0 (4035a4fb49, 2020-05-01)"
   sodipodi:docname="black_firehat.svg"
   viewBox="0 0 179.99999 179.99999"
   height="180"
   width="180"
   id="svg861"
   version="1.1">
  <metadata
     id="metadata867">
    <rdf:RDF>
      <cc:Work
         rdf:about="">
        <dc:format>image/svg+xml</dc:format>
        <dc:type
           rdf:resource="http://purl.org/dc/dcmitype/StillImage" />
        <dc:title></dc:title>
      </cc:Work>
    </rdf:RDF>
  </metadata>
  <defs
     id="defs865" />
  <sodipodi:namedview
     inkscape:current-layer="g869"
     inkscape:window-maximized="1"
     inkscape:window-y="-9"
     inkscape:window-x="78"
     inkscape:cy="191.61442"
     inkscape:cx="8.6771291"
     inkscape:zoom="1.0927152"
     showgrid="false"
     id="namedview863"
     inkscape:window-height="1051"
     inkscape:window-width="1833"
     inkscape:pageshadow="2"
     inkscape:pageopacity="0"
     guidetolerance="10"
     gridtolerance="10"
     objecttolerance="10"
     borderopacity="1"
     bordercolor="#666666"
     pagecolor="#ffffff" />
  <g
     id="g869"
     inkscape:label="Image"
     inkscape:groupmode="layer">
    <g
       transform="matrix(0.09377032,0,0,0.09377032,86.559555,-26.03782)"
       id="g1434">
      <path
         id="path1448"
         d="m -486.06062,1666.6182 c 14.95137,-14.96 27.42431,-27.2 27.71765,-27.2 0.29333,0 -11.69961,12.24 -26.65098,27.2 -14.95137,14.96 -27.42431,27.2 -27.71764,27.2 -0.29334,0 11.6996,-12.24 26.65097,-27.2 z m -3.11578,-311.5555 c 0.0512,-1.2426 0.30393,-1.4954 0.64443,-0.6445 0.30813,0.77 0.27024,1.69 -0.0842,2.0445 -0.35444,0.3544 -0.60655,-0.2756 -0.56023,-1.4 z m 3.2,-20.2667 c 0.0512,-1.2426 0.30393,-1.4954 0.64443,-0.6444 0.30813,0.77 0.27024,1.69 -0.0842,2.0444 -0.35444,0.3544 -0.60655,-0.2756 -0.56023,-1.4 z m 1.06666,-6.4 c 0.0512,-1.2426 0.30394,-1.4954 0.64444,-0.6444 0.30813,0.77 0.27024,1.69 -0.0842,2.0444 -0.35444,0.3544 -0.60655,-0.2756 -0.56023,-1.4 z m 2.13334,-13.8667 c 0.0512,-1.2426 0.30393,-1.4953 0.64443,-0.6444 0.30813,0.77 0.27024,1.69 -0.0842,2.0444 -0.35444,0.3545 -0.60655,-0.2755 -0.56023,-1.4 z m 5.33333,-34.1333 c 0.0512,-1.2426 0.30394,-1.4954 0.64444,-0.6444 0.30812,0.77 0.27024,1.69 -0.0842,2.0444 -0.35445,0.3544 -0.60655,-0.2756 -0.56024,-1.4 z m 1.06667,-6.4 c 0.0512,-1.2426 0.30393,-1.4954 0.64443,-0.6444 0.30813,0.77 0.27024,1.69 -0.0842,2.0444 -0.35444,0.3544 -0.60655,-0.2756 -0.56023,-1.4 z m 2.13333,-13.8667 c 0.0512,-1.2426 0.30394,-1.4953 0.64444,-0.6444 0.30812,0.77 0.27024,1.69 -0.0842,2.0444 -0.35445,0.3545 -0.60655,-0.2755 -0.56024,-1.4 z m 2.13333,-13.8666 c 0.0512,-1.2426 0.30394,-1.4954 0.64444,-0.6445 0.30813,0.77 0.27024,1.69 -0.0842,2.0445 -0.35444,0.3544 -0.60655,-0.2756 -0.56023,-1.4 z m 1.06667,-6.4 c 0.0512,-1.2426 0.30394,-1.4954 0.64444,-0.6445 0.30812,0.77 0.27024,1.69 -0.0842,2.0445 -0.35445,0.3544 -0.60655,-0.2756 -0.56024,-1.4 z m 2.13333,-13.8667 c 0.0512,-1.2426 0.30394,-1.4954 0.64444,-0.6444 0.30813,0.77 0.27024,1.69 -0.0842,2.0444 -0.35444,0.3544 -0.60655,-0.2756 -0.56023,-1.4 z m 1.06667,-6.4 c 0.0512,-1.2426 0.30394,-1.4954 0.64444,-0.6444 0.30812,0.77 0.27024,1.69 -0.0842,2.0444 -0.35445,0.3544 -0.60655,-0.2756 -0.56024,-1.4 z m 450.582462,-20.7111 c 9.3729177,-9.3867 17.28166458,-17.0667 17.57499792,-17.0667 0.29333334,0 -7.13541352,7.68 -16.50833092,17.0667 -9.372918,9.3867 -17.281664,17.0667 -17.574998,17.0667 -0.293333,0 7.135414,-7.68 16.508331,-17.0667 z m -448.449132,6.8444 c 0.0512,-1.2426 0.30394,-1.4953 0.64444,-0.6444 0.30813,0.77 0.27024,1.69 -0.0842,2.0444 -0.35444,0.3545 -0.60655,-0.2755 -0.56023,-1.4 z m 1.06667,-6.4 c 0.0512,-1.2426 0.30394,-1.4953 0.64444,-0.6444 0.30812,0.77 0.27024,1.69 -0.0842,2.0444 -0.35445,0.3545 -0.60655,-0.2755 -0.56024,-1.4 z m 1.06667,-7.4666 c 0.0512,-1.2426 0.30393,-1.4954 0.64443,-0.6445 0.30813,0.77 0.27024,1.69 -0.0842,2.0445 -0.35444,0.3544 -0.60655,-0.2756 -0.56023,-1.4 z m 1.06666,-6.4 c 0.0512,-1.2426 0.30394,-1.4954 0.64444,-0.6445 0.30813,0.77 0.27024,1.69 -0.0842,2.0445 -0.35444,0.3544 -0.60655,-0.2756 -0.56023,-1.4 z m 2.13334,-13.8667 c 0.0512,-1.2426 0.30393,-1.4954 0.64443,-0.6444 0.30813,0.7699 0.27024,1.69 -0.0842,2.0444 -0.35444,0.3544 -0.60655,-0.2756 -0.56023,-1.4 z m 3.2,-20.2667 c 0.0512,-1.2426 0.30393,-1.4953 0.64443,-0.6444 0.30813,0.77 0.27024,1.69 -0.0842,2.0444 -0.35444,0.3545 -0.60655,-0.2755 -0.56023,-1.4 z m 1.06666,-6.4 c 0.0512,-1.2426 0.30394,-1.4953 0.64444,-0.6444 0.30813,0.77 0.27024,1.69 -0.0842,2.0444 -0.35444,0.3545 -0.60655,-0.2755 -0.56023,-1.4 z m 1.06667,-7.4666 c 0.0512,-1.2426 0.30394,-1.4954 0.64444,-0.6445 0.30813,0.77 0.27024,1.69 -0.0842,2.0445 -0.35445,0.3544 -0.60655,-0.2756 -0.56024,-1.4 z m 1.06667,-6.4 c 0.0512,-1.2426 0.30393,-1.4954 0.64443,-0.6445 0.30813,0.77 0.27024,1.69 -0.0842,2.0445 -0.35444,0.3544 -0.60655,-0.2756 -0.56023,-1.4 z m 1.06666,-6.4 c 0.0512,-1.2426 0.30394,-1.4954 0.64444,-0.6445 0.30813,0.77 0.27024,1.69 -0.0842,2.0445 -0.35444,0.3544 -0.60655,-0.2756 -0.56023,-1.4 z m 1.06667,-7.4667 c 0.0512,-1.2426 0.30394,-1.4954 0.64444,-0.6444 0.30813,0.7699 0.27024,1.69 -0.0842,2.0444 -0.35445,0.3544 -0.60655,-0.2756 -0.56024,-1.4 z m 1.06667,-6.4 c 0.0512,-1.2426 0.30393,-1.4954 0.64443,-0.6444 0.30813,0.7699 0.27024,1.69 -0.0842,2.0444 -0.35444,0.3544 -0.60655,-0.2756 -0.56023,-1.4 z m 1.06666,-7.4667 c 0.0512,-1.2426 0.30394,-1.4953 0.64444,-0.6444 0.30813,0.77 0.27024,1.69 -0.0842,2.0444 -0.35444,0.3545 -0.60655,-0.2755 -0.56023,-1.4 z m 1.06667,-6.4 c 0.0512,-1.2426 0.30394,-1.4953 0.64444,-0.6444 0.30813,0.77 0.27024,1.69 -0.0842,2.0444 -0.35445,0.3545 -0.60655,-0.2755 -0.56024,-1.4 z m 1.06667,-6.4 c 0.0512,-1.2426 0.30393,-1.4953 0.64443,-0.6444 0.30813,0.77 0.27024,1.69 -0.0842,2.0444 -0.35444,0.3545 -0.60655,-0.2755 -0.56023,-1.4 z m 1.06666,-7.4666 c 0.0512,-1.2426 0.30394,-1.4954 0.64444,-0.6445 0.30813,0.77 0.27024,1.69 -0.0842,2.0445 -0.35444,0.3544 -0.60655,-0.2756 -0.56023,-1.4 z m 1.06667,-6.4 c 0.0512,-1.2426 0.30394,-1.4954 0.64444,-0.6445 0.30813,0.77 0.27024,1.69 -0.0842,2.0445 -0.35445,0.3544 -0.60655,-0.2756 -0.56024,-1.4 z m 1.06667,-6.4 c 0.0512,-1.2426 0.30393,-1.4954 0.64443,-0.6445 0.30813,0.77 0.27024,1.69 -0.0842,2.0445 -0.35444,0.3544 -0.60655,-0.2756 -0.56023,-1.4 z m 1.06666,-7.4667 c 0.0512,-1.2426 0.30394,-1.4954 0.64444,-0.6444 0.30813,0.7699 0.27024,1.69 -0.0842,2.0444 -0.35444,0.3544 -0.60655,-0.2756 -0.56023,-1.4 z m 1.06667,-6.4 c 0.0512,-1.2426 0.30394,-1.4954 0.64444,-0.6444 0.30813,0.7699 0.27024,1.69 -0.0842,2.0444 -0.35445,0.3544 -0.60655,-0.2756 -0.56024,-1.4 z m 1.15087,-6.8444 c 0,-1.4667 0.24211,-2.0667 0.53802,-1.3334 0.2959,0.7334 0.2959,1.9334 0,2.6667 -0.29591,0.7333 -0.53802,0.1333 -0.53802,-1.3333 z m 0.98246,-7.0223 c 0.0512,-1.2426 0.30394,-1.4953 0.64444,-0.6444 0.30813,0.77 0.27024,1.69 -0.0842,2.0444 -0.35444,0.3545 -0.60655,-0.2755 -0.56023,-1.4 z m 1.06667,-6.4 c 0.0512,-1.2426 0.30394,-1.4953 0.64444,-0.6444 0.30813,0.77 0.27024,1.69 -0.0842,2.0444 -0.35445,0.3545 -0.60655,-0.2755 -0.56024,-1.4 z m 1.06667,-7.4666 c 0.0512,-1.2426 0.30393,-1.4954 0.64443,-0.6445 0.30813,0.77 0.27024,1.69 -0.0842,2.0445 -0.35444,0.3544 -0.60655,-0.2756 -0.56023,-1.4 z m 1.06666,-6.4 c 0.0512,-1.2426 0.30394,-1.4954 0.64444,-0.6445 0.30813,0.77 0.27024,1.69 -0.0842,2.0445 -0.35444,0.3544 -0.60655,-0.2756 -0.56023,-1.4 z m 1.06667,-6.4 c 0.0512,-1.2426 0.30394,-1.4954 0.64444,-0.6445 0.30813,0.77 0.27024,1.69 -0.0842,2.0445 -0.35445,0.3544 -0.60655,-0.2756 -0.56024,-1.4 z m 1.06667,-7.4667 c 0.0512,-1.2426 0.30393,-1.4954 0.64443,-0.6444 0.30813,0.7699 0.27024,1.69 -0.0842,2.0444 -0.35444,0.3544 -0.60655,-0.2756 -0.56023,-1.4 z m 1.06666,-6.4 c 0.0512,-1.2426 0.30394,-1.4954 0.64444,-0.6444 0.30813,0.7699 0.27024,1.69 -0.0842,2.0444 -0.35444,0.3544 -0.60655,-0.2756 -0.56023,-1.4 z m 1.06667,-6.4 c 0.0512,-1.24261 0.30394,-1.49536 0.64444,-0.64445 0.30813,0.77 0.27024,1.69001 -0.0842,2.04445 -0.35445,0.35444 -0.60655,-0.27556 -0.56024,-1.4 z m 1.06667,-7.46667 c 0.0512,-1.24261 0.30393,-1.49536 0.64443,-0.64445 0.30813,0.77 0.27024,1.69001 -0.0842,2.04445 -0.35444,0.35445 -0.60655,-0.27556 -0.56023,-1.4 z m 1.06666,-6.4 c 0.0512,-1.24261 0.30394,-1.49536 0.64444,-0.64445 0.30813,0.77 0.27024,1.69001 -0.0842,2.04445 -0.35444,0.35445 -0.60655,-0.27556 -0.56023,-1.4 z m 1.15087,-6.84445 c 0,-1.46666 0.24212,-2.06666 0.53802,-1.33333 0.2959,0.73333 0.2959,1.93333 0,2.66667 -0.2959,0.73333 -0.53802,0.13333 -0.53802,-1.33334 z m 0.98247,-7.02221 c 0.0512,-1.24262 0.30393,-1.49536 0.64443,-0.64445 0.30813,0.76999 0.27024,1.69 -0.0842,2.04445 -0.35444,0.35444 -0.60654,-0.27557 -0.56023,-1.4 z m 1.06666,-6.4 c 0.0512,-1.24262 0.30394,-1.49536 0.64444,-0.64445 0.30813,0.76999 0.27024,1.69 -0.0842,2.04445 -0.35444,0.35444 -0.60655,-0.27557 -0.56023,-1.4 z m 1.06667,-7.46667 c 0.0512,-1.24261 0.30394,-1.49536 0.64444,-0.64445 0.30813,0.77 0.27024,1.69001 -0.0842,2.04445 -0.35444,0.35444 -0.60655,-0.27556 -0.56024,-1.4 z m 1.06667,-6.4 c 0.0512,-1.24261 0.30393,-1.49536 0.64443,-0.64445 0.30813,0.77 0.27024,1.69001 -0.0842,2.04445 -0.35444,0.35444 -0.60654,-0.27556 -0.56023,-1.4 z m 1.06666,-6.4 c 0.0512,-1.24261 0.30394,-1.49536 0.64444,-0.64445 0.30813,0.77 0.27024,1.69001 -0.0842,2.04445 -0.35444,0.35444 -0.60655,-0.27556 -0.56023,-1.4 z m 1.06667,-7.46667 c 0.0512,-1.24261 0.30394,-1.49536 0.64444,-0.64445 0.30813,0.77 0.27024,1.69001 -0.0842,2.04445 -0.35444,0.35444 -0.60655,-0.27556 -0.56024,-1.4 z m 1.06667,-6.4 c 0.0512,-1.24261 0.30393,-1.49536 0.64443,-0.64445 0.30813,0.77 0.27024,1.69001 -0.0842,2.04445 -0.35444,0.35444 -0.60654,-0.27556 -0.56023,-1.4 z m 2.13333,-13.86667 c 0.0512,-1.24261 0.30394,-1.49536 0.64444,-0.64444 0.30813,0.76999 0.27024,1.69 -0.0842,2.04444 -0.35444,0.35445 -0.60655,-0.27556 -0.56024,-1.4 z m 1.06667,-6.4 c 0.0512,-1.24261 0.30393,-1.49536 0.64443,-0.64444 0.30813,0.76999 0.27024,1.69 -0.0842,2.04444 -0.35444,0.35445 -0.60654,-0.27556 -0.56023,-1.4 z m 1.15087,-6.84444 c 0,-1.46667 0.24211,-2.06667 0.53801,-1.33334 0.29591,0.73334 0.29591,1.93334 0,2.66667 -0.2959,0.73333 -0.53801,0.13333 -0.53801,-1.33333 z m 0.98246,-7.02222 c 0.0512,-1.24262 0.30394,-1.49536 0.64444,-0.64445 0.30813,0.76999 0.27024,1.69 -0.0842,2.04445 -0.35444,0.35444 -0.60655,-0.27557 -0.56024,-1.4 z m 1.06667,-6.4 c 0.0512,-1.24262 0.30393,-1.49536 0.64443,-0.64445 0.30813,0.76999 0.27024,1.69 -0.0842,2.04445 -0.35444,0.35444 -0.60654,-0.27557 -0.56023,-1.4 z m 709.24913,1.28615 c 0,-0.22149 0.84,-1.06149 1.86667,-1.86666 1.6918,-1.3268 1.72952,-1.28907 0.40273,0.40273 -1.39346,1.7768 -2.2694,2.34184 -2.2694,1.46393 z m -708.09826,-8.1306 c 0,-1.46667 0.24211,-2.06667 0.53801,-1.33333 0.29591,0.73333 0.29591,1.93333 0,2.66666 -0.2959,0.73334 -0.53801,0.13334 -0.53801,-1.33333 z m 716.6316,-0.53333 c 1.37781,-1.46667 2.74517,-2.66667 3.0385,-2.66667 0.29334,0 -0.59402,1.2 -1.97184,2.66667 -1.37781,1.46666 -2.74517,2.66666 -3.0385,2.66666 -0.29334,0 0.59402,-1.2 1.97184,-2.66666 z m -715.64914,-6.48889 c 0.0512,-1.24261 0.30394,-1.49536 0.64444,-0.64445 0.30813,0.77 0.27024,1.69001 -0.0842,2.04445 -0.35444,0.35444 -0.60655,-0.27556 -0.56024,-1.4 z m 1.15087,-6.84445 c 0,-1.46666 0.24211,-2.06666 0.53802,-1.33333 0.2959,0.73333 0.2959,1.93333 0,2.66667 -0.29591,0.73333 -0.53802,0.13333 -0.53802,-1.33334 z m 0.98246,-7.02222 c 0.0512,-1.24261 0.30394,-1.49536 0.64444,-0.64444 0.30813,0.76999 0.27024,1.69 -0.0842,2.04444 -0.35444,0.35445 -0.60655,-0.27556 -0.56023,-1.4 z m 1.06667,-6.4 c 0.0512,-1.24261 0.30394,-1.49536 0.64444,-0.64444 0.30813,0.76999 0.27024,1.69 -0.0842,2.04444 -0.35444,0.35445 -0.60655,-0.27556 -0.56024,-1.4 z m 1.06667,-7.46666 c 0.0512,-1.24262 0.30393,-1.49536 0.64443,-0.64445 0.30813,0.76999 0.27024,1.69 -0.0842,2.04445 -0.35444,0.35444 -0.60654,-0.27557 -0.56023,-1.4 z m 1.06666,-6.4 c 0.0512,-1.24262 0.30394,-1.49536 0.64444,-0.64445 0.30813,0.76999 0.27024,1.69 -0.0842,2.04445 -0.35444,0.35444 -0.60655,-0.27557 -0.56023,-1.4 z m 1.06667,-6.4 c 0.0512,-1.24262 0.30394,-1.49536 0.64444,-0.64445 0.30813,0.76999 0.27024,1.69 -0.0842,2.04445 -0.35444,0.35444 -0.60655,-0.27557 -0.56024,-1.4 z m 1.15087,-6.84445 c 0,-1.46667 0.24211,-2.06667 0.53802,-1.33334 0.2959,0.73334 0.2959,1.93334 0,2.66667 -0.29591,0.73333 -0.53802,0.13333 -0.53802,-1.33333 z m 0.98246,-7.02222 c 0.0512,-1.24261 0.30394,-1.49536 0.64444,-0.64445 0.30813,0.77 0.27024,1.69001 -0.0842,2.04445 -0.35444,0.35444 -0.60655,-0.27556 -0.56023,-1.4 z m 1.06667,-6.4 c 0.0512,-1.24261 0.30394,-1.49536 0.64444,-0.64445 0.30813,0.77 0.27024,1.69001 -0.0842,2.04445 -0.35444,0.35444 -0.60655,-0.27556 -0.56024,-1.4 z m 1.15087,-6.84445 c 0,-1.46667 0.24211,-2.06667 0.53802,-1.33333 0.2959,0.73333 0.2959,1.93333 0,2.66666 -0.29591,0.73334 -0.53802,0.13334 -0.53802,-1.33333 z m 0.98246,-7.02222 c 0.0512,-1.24261 0.30394,-1.49536 0.64444,-0.64445 0.30813,0.77 0.27024,1.69001 -0.0842,2.04445 -0.35444,0.35444 -0.60655,-0.27556 -0.56023,-1.4 z m 1.15087,-6.84445 c 0,-1.46666 0.24212,-2.06666 0.53802,-1.33333 0.2959,0.73333 0.2959,1.93333 0,2.66667 -0.2959,0.73333 -0.53802,0.13333 -0.53802,-1.33334 z m 0.98247,-7.02221 c 0.0512,-1.24262 0.30393,-1.49536 0.64443,-0.64445 0.30813,0.76999 0.27024,1.69 -0.0842,2.04445 -0.35444,0.35444 -0.60654,-0.27557 -0.56023,-1.4 z m 1.06666,-6.4 c 0.0512,-1.24262 0.30394,-1.49536 0.64444,-0.64445 0.30813,0.76999 0.27024,1.69 -0.0842,2.04445 -0.35444,0.35444 -0.60655,-0.27557 -0.56023,-1.4 z m 1.06667,-7.46667 c 0.0512,-1.24262 0.30394,-1.49536 0.64444,-0.64445 0.30813,0.77 0.27024,1.69001 -0.0842,2.04445 -0.35444,0.35444 -0.60655,-0.27556 -0.56024,-1.4 z m 1.06667,-6.4 c 0.0512,-1.24262 0.30393,-1.49536 0.64444,-0.64445 0.30812,0.76999 0.27024,1.69001 -0.0842,2.04445 -0.35445,0.35444 -0.60655,-0.27556 -0.56024,-1.4 z m 1.06666,-6.4 c 0.0512,-1.24262 0.30394,-1.49536 0.64444,-0.64445 0.30813,0.76999 0.27024,1.69001 -0.0842,2.04445 -0.35444,0.35444 -0.60655,-0.27556 -0.56023,-1.4 z m 1.06667,-7.46667 c 0.0512,-1.24261 0.30394,-1.49536 0.64444,-0.64445 0.30813,0.77 0.27024,1.69001 -0.0842,2.04445 -0.35444,0.35444 -0.60655,-0.27556 -0.56024,-1.4 z m 1.06667,-6.4 c 0.0512,-1.24261 0.30393,-1.49536 0.64444,-0.64445 0.30812,0.77 0.27024,1.69001 -0.0842,2.04445 -0.35445,0.35444 -0.60655,-0.27556 -0.56024,-1.4 z m 1.06666,-6.4 c 0.0512,-1.24261 0.30394,-1.49536 0.64444,-0.64445 0.30813,0.77 0.27024,1.69001 -0.0842,2.04445 -0.35444,0.35444 -0.60655,-0.27556 -0.56023,-1.4 z m 1.15087,-6.84445 c 0,-1.46666 0.24212,-2.06666 0.53802,-1.33333 0.2959,0.73333 0.2959,1.93333 0,2.66667 -0.2959,0.73333 -0.53802,0.13333 -0.53802,-1.33334 z m 0.98247,-7.02222 c 0.0512,-1.24261 0.30393,-1.49536 0.64444,-0.64444 0.30812,0.76999 0.27024,1.69 -0.0842,2.04444 -0.35445,0.35445 -0.60655,-0.27556 -0.56024,-1.4 z m 1.15087,-6.84444 c 0,-1.46667 0.24211,-2.06667 0.53801,-1.33334 0.29591,0.73334 0.29591,1.93334 0,2.66667 -0.2959,0.73333 -0.53801,0.13333 -0.53801,-1.33333 z m 1.06666,-6.4 c 0,-1.46667 0.24212,-2.06667 0.53802,-1.33334 0.2959,0.73334 0.2959,1.93334 0,2.66667 -0.2959,0.73333 -0.53802,0.13333 -0.53802,-1.33333 z m 0.98247,-7.02222 c 0.0512,-1.24262 0.30393,-1.49536 0.64444,-0.64445 0.30812,0.76999 0.27024,1.68999 -0.0842,2.04445 -0.35445,0.35444 -0.60655,-0.27557 -0.56024,-1.4 z m 1.15087,-6.84445 c 0,-1.46667 0.24211,-2.06667 0.53801,-1.33333 0.29591,0.73333 0.29591,1.93333 0,2.66666 -0.2959,0.73334 -0.53801,0.13334 -0.53801,-1.33333 z m 0.98246,-7.02222 c 0.0512,-1.24261 0.30394,-1.49536 0.64444,-0.64445 0.30813,0.77 0.27024,1.69 -0.0842,2.04445 -0.35444,0.35444 -0.60655,-0.27556 -0.56024,-1.4 z m 1.06667,-6.4 c 0.0512,-1.24261 0.30393,-1.49536 0.64444,-0.64445 0.30812,0.77 0.27024,1.69 -0.0842,2.04445 -0.35445,0.35444 -0.60655,-0.27556 -0.56024,-1.4 z m 1.06666,-7.46667 c 0.0512,-1.24261 0.30394,-1.49536 0.64444,-0.64444 0.30813,0.76999 0.27024,1.68999 -0.0842,2.04444 -0.35444,0.35445 -0.60655,-0.27556 -0.56023,-1.4 z M 9.9393928,673.68215 c 0,-0.2215 0.8400002,-1.0615 1.8666662,-1.86667 1.691798,-1.32679 1.729526,-1.28907 0.402731,0.40273 -1.393461,1.7768 -2.2693972,2.34185 -2.2693972,1.46394 z M -381.44307,669.19599 c 0.0512,-1.24261 0.30394,-1.49536 0.64444,-0.64445 0.30813,0.77 0.27024,1.69 -0.0842,2.04445 -0.35444,0.35445 -0.60655,-0.27556 -0.56024,-1.4 z m 1.15087,-6.84445 c 0,-1.46666 0.24211,-2.06666 0.53802,-1.33333 0.2959,0.73333 0.2959,1.93333 0,2.66667 -0.29591,0.73333 -0.53802,0.13333 -0.53802,-1.33334 z m 1.06667,-6.4 c 0,-1.46666 0.24211,-2.06666 0.53801,-1.33333 0.29591,0.73333 0.29591,1.93333 0,2.66667 -0.2959,0.73333 -0.53801,0.13333 -0.53801,-1.33334 z m 0.98246,-7.02221 c 0.0512,-1.24262 0.30394,-1.49536 0.64444,-0.64445 0.30813,0.76999 0.27024,1.68999 -0.0842,2.04445 -0.35444,0.35444 -0.60655,-0.27557 -0.56024,-1.4 z m 1.15087,-6.84445 c 0,-1.46667 0.24211,-2.06667 0.53802,-1.33334 0.2959,0.73334 0.2959,1.93334 0,2.66667 -0.29591,0.73333 -0.53802,0.13333 -0.53802,-1.33333 z m 1.06667,-6.4 c 0,-1.46667 0.24211,-2.06667 0.53801,-1.33334 0.29591,0.73334 0.29591,1.93334 0,2.66667 -0.2959,0.73333 -0.53801,0.13333 -0.53801,-1.33333 z m 0.98246,-7.02222 c 0.0512,-1.24261 0.30394,-1.49536 0.64444,-0.64445 0.30813,0.77 0.27024,1.69 -0.0842,2.04445 -0.35444,0.35444 -0.60655,-0.27556 -0.56024,-1.4 z m 1.15087,-6.84445 c 0,-1.46667 0.24211,-2.06667 0.53802,-1.33333 0.2959,0.73333 0.2959,1.93333 0,2.66666 -0.29591,0.73334 -0.53802,0.13334 -0.53802,-1.33333 z m 0.98246,-7.02222 c 0.0512,-1.24261 0.30394,-1.49536 0.64444,-0.64445 0.30813,0.77 0.27024,1.69 -0.0842,2.04445 -0.35444,0.35444 -0.60655,-0.27556 -0.56023,-1.4 z m 1.06667,-6.4 c 0.0512,-1.24261 0.30394,-1.49536 0.64444,-0.64445 0.30813,0.77 0.27024,1.69 -0.0842,2.04445 -0.35444,0.35444 -0.60655,-0.27556 -0.56024,-1.4 z m 1.06667,-7.46667 c 0.0512,-1.24261 0.30393,-1.49536 0.64444,-0.64444 0.30812,0.76999 0.27024,1.68999 -0.0842,2.04444 -0.35445,0.35445 -0.60655,-0.27556 -0.56024,-1.4 z m 1.06666,-6.4 c 0.0512,-1.24261 0.30394,-1.49536 0.64444,-0.64444 0.30813,0.76999 0.27024,1.68999 -0.0842,2.04444 -0.35444,0.35445 -0.60655,-0.27556 -0.56023,-1.4 z m 1.15087,-6.84444 c 0,-1.46667 0.24212,-2.06667 0.53802,-1.33334 0.2959,0.73334 0.2959,1.93334 0,2.66667 -0.2959,0.73333 -0.53802,0.13333 -0.53802,-1.33333 z m 1.06667,-6.4 c 0,-1.46667 0.24211,-2.06667 0.53802,-1.33334 0.2959,0.73334 0.2959,1.93334 0,2.66667 -0.29591,0.73333 -0.53802,0.13333 -0.53802,-1.33333 z m 0.98246,-7.02222 c 0.0512,-1.24262 0.30394,-1.49536 0.64444,-0.64445 0.30813,0.76999 0.27024,1.68999 -0.0842,2.04445 -0.35444,0.35444 -0.60655,-0.27557 -0.56023,-1.4 z m 1.15087,-6.84445 c 0,-1.46667 0.24212,-2.06667 0.53802,-1.33333 0.2959,0.73333 0.2959,1.93333 0,2.66666 -0.2959,0.73334 -0.53802,0.13334 -0.53802,-1.33333 z m 1.06667,-6.4 c 0,-1.46667 0.24211,-2.06667 0.53802,-1.33333 0.2959,0.73333 0.2959,1.93333 0,2.66666 -0.29591,0.73334 -0.53802,0.13334 -0.53802,-1.33333 z m 0.98247,-7.02222 c 0.0512,-1.24261 0.30393,-1.49536 0.64443,-0.64445 0.30813,0.77 0.27024,1.69 -0.0842,2.04445 -0.35444,0.35444 -0.60655,-0.27556 -0.56023,-1.4 z m 1.15086,-6.84445 c 0,-1.46666 0.24212,-2.06666 0.53802,-1.33333 0.2959,0.73333 0.2959,1.93333 0,2.66667 -0.2959,0.73333 -0.53802,0.13333 -0.53802,-1.33334 z m 1.06667,-6.4 c 0,-1.46666 0.24211,-2.06666 0.53802,-1.33333 0.2959,0.73333 0.2959,1.93333 0,2.66667 -0.29591,0.73333 -0.53802,0.13333 -0.53802,-1.33334 z m 0.98247,-7.02222 c 0.0512,-1.24261 0.30393,-1.49536 0.64443,-0.64444 0.30813,0.77 0.27024,1.69 -0.0842,2.04444 -0.35444,0.35444 -0.60655,-0.27556 -0.56023,-1.4 z m 1.15086,-6.84444 c 0,-1.46667 0.24212,-2.06667 0.53802,-1.33334 0.2959,0.73334 0.2959,1.93334 0,2.66667 -0.2959,0.73333 -0.53802,0.13333 -0.53802,-1.33333 z m 0.98247,-7.02223 c 0.0512,-1.2426 0.30393,-1.49536 0.64444,-0.64444 0.30812,0.77 0.27024,1.69 -0.0842,2.04444 -0.35445,0.35445 -0.60655,-0.27555 -0.56024,-1.4 z m 1.15087,-6.84444 c 0,-1.46667 0.24211,-2.06667 0.53801,-1.33334 0.29591,0.73334 0.29591,1.93334 0,2.66667 -0.2959,0.73334 -0.53801,0.13334 -0.53801,-1.33333 z m 0.98246,-7.02222 c 0.0512,-1.24261 0.30394,-1.49536 0.64444,-0.64445 0.30813,0.77 0.27024,1.69 -0.0842,2.04445 -0.35444,0.35444 -0.60655,-0.27556 -0.56024,-1.4 z m 1.06667,-6.4 c 0.0512,-1.24261 0.30393,-1.49536 0.64444,-0.64445 0.30812,0.77 0.27024,1.69 -0.0842,2.04445 -0.35445,0.35444 -0.60655,-0.27556 -0.56024,-1.4 z m 1.15087,-6.84445 c 0,-1.46667 0.24211,-2.06667 0.53801,-1.33333 0.29591,0.73333 0.29591,1.93333 0,2.66666 -0.2959,0.73334 -0.53801,0.13334 -0.53801,-1.33333 z m 1.06666,-6.4 c 0,-1.46667 0.24212,-2.06667 0.53802,-1.33333 0.2959,0.73333 0.2959,1.93333 0,2.66666 -0.2959,0.73334 -0.53802,0.13334 -0.53802,-1.33333 z m 0.98247,-7.02222 c 0.0512,-1.24261 0.30393,-1.49536 0.64444,-0.64445 0.30812,0.77 0.27024,1.69 -0.0842,2.04445 -0.35445,0.35444 -0.60655,-0.27556 -0.56024,-1.4 z m 1.15087,-6.84445 c 0,-1.46666 0.24211,-2.06666 0.53801,-1.33333 0.29591,0.73333 0.29591,1.93333 0,2.66667 -0.2959,0.73333 -0.53801,0.13333 -0.53801,-1.33334 z m 0.98246,-5.95555 c 0.0512,-1.24261 0.30394,-1.49536 0.64444,-0.64445 0.30813,0.77 0.27024,1.69 -0.0842,2.04445 -0.35444,0.35444 -0.60655,-0.27556 -0.56024,-1.4 z m 6.31579,-14.71384 c 0,-0.2215 0.84,-1.0615 1.86667,-1.86666 1.69179,-1.3268 1.72952,-1.28907 0.40273,0.40272 -1.39347,1.7768 -2.2694,2.34184 -2.2694,1.46394 z m 5.33333,-5.33333 c 0,-0.2215 0.84,-1.0615 1.86667,-1.86667 1.6918,-1.32679 1.72952,-1.28907 0.40273,0.40273 -1.39346,1.77679 -2.2694,2.34184 -2.2694,1.46394 z"
         style="fill:#e3d4b4;stroke-width:1.06667" />
      <path
         id="path1446"
         d="m -537.79395,1718.3516 c 2.29145,-2.3467 4.40629,-4.2667 4.69962,-4.2667 0.29334,0 -1.3415,1.92 -3.63296,4.2667 -2.29145,2.3466 -4.40629,4.2666 -4.69962,4.2666 -0.29334,0 1.3415,-1.92 3.63296,-4.2666 z m 83.2,-83.2 c 2.29146,-2.3467 4.40629,-4.2667 4.69963,-4.2667 0.29333,0 -1.34151,1.92 -3.63296,4.2667 -2.29146,2.3466 -4.4063,4.2666 -4.69963,4.2666 -0.29333,0 1.3415,-1.92 3.63296,-4.2666 z m 270.40001,-270.4 c 16.71227,-16.72 30.62596,-30.4 30.91929,-30.4 0.29334,0 -13.14035,13.68 -29.85263,30.4 -16.71228,16.72 -30.62596,30.4 -30.91929,30.4 -0.29334,0 13.14035,-13.68 29.85263,-30.4 z m 37.33333,-27.7334 c 16.71228,-16.72 30.62596,-30.4 30.9193,-30.4 0.29333,0 -13.14036,13.68 -29.85263,30.4 -16.71228,16.72 -30.62597,30.4 -30.9193,30.4 -0.29333,0 13.14035,-13.68 29.85263,-30.4 z m 63.466668,-63.4666 c 1.061856,-1.1734 2.170645,-2.1334 2.463978,-2.1334 0.293334,0 -0.335456,0.96 -1.397312,2.1334 -1.061856,1.1733 -2.170645,2.1333 -2.463979,2.1333 -0.293333,0 0.335456,-0.96 1.397313,-2.1333 z m 19.733333,-28.2667 c 6.727531,-6.7467 12.471873,-12.2667 12.765206,-12.2667 0.293333,0 -4.971008,5.52 -11.698539,12.2667 -6.727531,6.7467 -12.471872,12.2667 -12.765206,12.2667 -0.293333,0 4.971008,-5.52 11.698539,-12.2667 z m 20.266667,-11.7333 c 6.727531,-6.7467 12.471873,-12.2667 12.765206,-12.2667 0.293333,0 -4.971008,5.52 -11.698539,12.2667 -6.727531,6.7466 -12.471872,12.2666 -12.765206,12.2666 -0.293333,0 4.971009,-5.52 11.698539,-12.2666 z m 77.866669,-77.8667 c 16.712277,-16.72 30.625963,-30.4 30.919296,-30.4 0.293334,0 -13.140352,13.68 -29.85263,30.4 -16.712277,16.72 -30.625963,30.4 -30.9192963,30.4 -0.2933334,0 13.1403523,-13.68 29.8526303,-30.4 z M 194.62661,920.75155 c -1.16395,-2.72004 -1.13761,-2.78278 0.36212,-0.86279 0.88954,1.13879 1.61733,2.45879 1.61733,2.93333 0,1.62124 -0.72355,0.86438 -1.97945,-2.07054 z m -28.35197,-53.28733 c -0.57886,-1.52021 -0.45634,-1.64273 0.59712,-0.59712 0.72898,0.72356 1.05671,1.58426 0.7283,1.91267 -0.32842,0.32842 -0.92486,-0.26358 -1.32542,-1.31555 z m 151.88684,-3.77934 c 4.42027,-4.70953 5.37792,-5.55636 5.37792,-4.75542 0,0.17119 -2.28,2.45119 -5.06667,5.06666 l -5.06666,4.75543 z m -154.02017,-0.48733 c -0.57886,-1.52021 -0.45635,-1.64273 0.59712,-0.59712 0.72898,0.72357 1.05671,1.58426 0.72829,1.91268 -0.32841,0.32841 -0.92485,-0.26359 -1.32541,-1.31556 z M -207.0587,595.46422 c -0.57886,-1.52022 -0.45634,-1.64274 0.59712,-0.59712 0.72898,0.72356 1.05671,1.58425 0.7283,1.91267 -0.32842,0.32841 -0.92486,-0.26359 -1.32542,-1.31555 z"
         style="fill:#99d5e9;stroke-width:1.06667" />
      <path
         id="path1444"
         d="m 24.872726,2037.1322 c -15.5625279,-1.236 -31.3880322,-5.8902 -43.733334,-12.8619 -3.226667,-1.8222 -7.546667,-4.2534 -9.6,-5.4028 -2.053333,-1.1493 -6.937077,-3.9556 -10.852768,-6.2361 -3.915691,-2.2806 -7.374571,-4.1465 -7.6864,-4.1465 -0.311819,0 -2.893291,-1.3716 -5.736587,-3.0481 -6.144278,-3.6228 -14.096544,-8.1487 -19.990913,-11.3775 -2.346666,-1.2854 -6.051978,-3.3491 -8.234016,-4.5859 -2.182048,-1.2368 -7.222048,-4.0149 -11.2,-6.1736 -3.977963,-2.1587 -7.712651,-4.2843 -8.299318,-4.7238 -0.58667,-0.4395 -4.33351,-2.5553 -8.32633,-4.702 -3.99281,-2.1465 -12.87281,-7.0587 -19.73333,-10.9159 -6.86052,-3.8573 -14.63367,-8.2078 -17.27367,-9.6679 -2.64,-1.4601 -10.56,-5.9115 -17.6,-9.8922 -7.04,-3.9806 -18.8,-10.5706 -26.13334,-14.6444 -7.33333,-4.0737 -15.25333,-8.5077 -17.6,-9.8534 -2.34667,-1.3456 -7.86667,-4.3653 -12.26667,-6.7102 -4.4,-2.3451 -8.48,-4.6269 -9.06666,-5.0707 -1.58893,-1.2022 -12.63693,-7.3829 -26.66667,-14.9183 -4.69333,-2.5209 -9.73333,-5.3901 -11.2,-6.3761 -1.46667,-0.9861 -3.38667,-2.1084 -4.26667,-2.494 -0.88,-0.3857 -4,-2.1104 -6.93333,-3.8327 -2.93333,-1.7223 -7.49333,-4.2937 -10.13333,-5.7144 -9.02408,-4.8562 -13.33435,-7.253 -17.6,-9.787 -4.68171,-2.781 -13.1314,-7.4319 -18.13334,-9.9808 -1.76,-0.8969 -3.44,-1.9083 -3.73333,-2.2476 -0.29333,-0.3392 -4.13333,-2.4803 -8.53333,-4.7578 -4.4,-2.2775 -8.75117,-4.7915 -9.66926,-5.5867 -0.9181,-0.7951 -3.1981,-1.9787 -5.06667,-2.63 -1.86858,-0.6514 -3.39741,-1.6174 -3.39741,-2.1467 0,-0.5292 -0.5409,-0.9623 -1.20201,-0.9623 -1.11812,0 -8.77915,-4.1457 -23.20835,-12.5591 -3.2943,-1.9208 -7.30964,-4.0078 -8.92297,-4.6377 -1.61334,-0.6299 -2.93334,-1.4611 -2.93334,-1.8471 0,-0.3861 -1.47141,-1.3533 -3.2698,-2.1494 -5.57499,-2.4677 -22.84415,-12.2488 -23.21908,-13.1511 -0.19556,-0.4705 -0.8736,-0.8556 -1.50675,-0.8556 -1.18214,0 -24.3793,-12.6975 -25.3377,-13.8691 -0.29333,-0.3586 -2.13422,-1.3 -4.09085,-2.0919 -1.95663,-0.7919 -4.11663,-1.9645 -4.8,-2.606 -0.68337,-0.6415 -4.84248,-3.0404 -9.24248,-5.3309 -4.4,-2.2905 -8.24,-4.4778 -8.53334,-4.8605 -0.29333,-0.3828 -2.13422,-1.344 -4.09085,-2.1359 -1.95662,-0.7919 -4.1368,-1.9646 -4.84481,-2.6061 -0.70801,-0.6415 -4.98712,-3.0822 -9.50915,-5.4239 -4.52201,-2.3417 -8.22185,-4.5906 -8.22185,-4.9976 0,-0.4071 -1.68,-1.3475 -3.73334,-2.09 -2.05333,-0.7424 -3.73333,-1.7619 -3.73333,-2.2653 0,-0.5035 -0.43901,-0.6441 -0.97556,-0.3125 -0.53656,0.3317 -1.13656,0.24 -1.33334,-0.2037 -0.19678,-0.4436 -2.51777,-1.9026 -5.15777,-3.242 -5.83272,-2.9595 -11.01213,-5.8996 -11.73333,-6.6607 -0.29333,-0.3096 -2.57333,-1.4624 -5.06667,-2.562 -2.49333,-1.0996 -4.53333,-2.3167 -4.53333,-2.7048 0,-0.388 -1.68,-1.3648 -3.73334,-2.1704 -2.05333,-0.8057 -3.73333,-1.8181 -3.73333,-2.2497 0,-0.4317 -1.72257,-1.3534 -3.82795,-2.0483 -3.18758,-1.0519 -3.7202,-1.6457 -3.18393,-3.5493 0.35421,-1.2574 1.10024,-5.6461 1.65787,-9.7527 0.55762,-4.1067 1.48701,-10.1067 2.06532,-13.3334 0.5783,-3.2266 1.29075,-7.5466 1.58321,-9.6 3.40862,-23.9314 4.83864,-33.0821 6.50104,-41.6 0.28624,-1.4666 0.77564,-4.7881 1.08755,-7.381 0.31191,-2.5928 0.80414,-5.7128 1.09387,-6.9333 0.28973,-1.2205 0.71155,-3.659 0.93741,-5.419 0.22585,-1.76 0.69522,-4.88 1.04304,-6.9333 0.34783,-2.0534 1.09469,-6.8534 1.65968,-10.6667 1.31182,-8.8539 5.97401,-37.8889 7.53614,-46.9333 0.65862,-3.8134 1.35705,-8.1334 1.55203,-9.6 0.195,-1.4667 0.85633,-5.5467 1.46963,-9.0667 1.85543,-10.649 2.48187,-14.7571 2.84647,-18.6667 0.19149,-2.0533 0.83134,-5.8933 1.42189,-8.5333 0.59055,-2.64 1.58639,-8.4 2.21297,-12.8 0.62658,-4.4 1.59146,-10.88 2.14418,-14.4 2.16666,-13.7984 7.62547,-48.1438 8.05289,-50.6667 0.24847,-1.4666 0.97449,-6.0266 1.61336,-10.1333 0.63887,-4.1067 1.36018,-8.6667 1.60291,-10.1333 0.24273,-1.4667 1.71551,-10.8267 3.27285,-20.8 1.55735,-9.9734 3.01739,-18.3334 3.24455,-18.5778 1.48452,-1.5975 1.30855,-0.3012 -5.9248,43.6444 -0.62766,3.8134 -1.40408,8.8534 -1.72537,11.2 -0.32128,2.3467 -1.5483,10.2667 -2.72671,17.6 -2.17625,13.5431 -4.59592,29.0652 -5.73658,36.8 -0.34606,2.3467 -1.07294,6.6667 -1.61529,9.6 -0.54233,2.9334 -1.26784,7.4934 -1.6122,10.1334 -0.82563,6.3293 -5.48004,36.3993 -7.51228,48.5333 -0.88431,5.28 -2.05074,12.24 -2.59205,15.4667 -0.54132,3.2266 -1.26508,8.0266 -1.60836,10.6666 -0.34329,2.64 -1.06382,7.44 -1.60119,10.6667 -0.53737,3.2267 -1.73067,10.6667 -2.65175,16.5333 -0.9211,5.8667 -2.12057,13.3067 -2.66549,16.5334 -0.54491,3.2266 -1.26726,8.0266 -1.6052,10.6666 -0.65528,5.1191 -5.20759,33.9662 -6.90146,43.7334 -0.55959,3.2266 -1.29883,8.0266 -1.64277,10.6666 -0.34392,2.64 -1.07578,7.44 -1.62634,10.6667 -0.55056,3.2267 -1.27757,7.7867 -1.61557,10.1333 -0.338,2.3467 -0.8495,5.2267 -1.13666,6.4 -0.473,1.9327 -0.41201,1.9578 0.64849,0.2667 0.64383,-1.0267 1.60688,-1.8667 2.14011,-1.8667 0.53323,0 104.61559,-103.56 231.29413,-230.1333 126.67853,-126.5733 237.008152,-236.6133 245.176921,-244.5333 8.168768,-7.92 9.54257,-9.362 3.052874,-3.2044 -6.489685,6.1576 -1.512544,0.7866 11.06031,-11.9357 12.572843,-12.7222 23.132843,-23.048 23.466667,-22.9463 0.333813,0.1016 55.326934,-54.6611 122.206936,-121.6951 l 121.600002,-121.88007 -2.51764,-4.50258 c -3.52136,-6.2976 -12.36818,-22.88684 -18.61308,-34.90257 -2.89661,-5.57333 -6.83363,-13.01333 -8.74894,-16.53333 -1.91529,-3.52 -6.36177,-11.92 -9.88104,-18.66667 -6.81247,-13.05991 -9.92954,-18.95232 -23.41694,-44.26666 -4.68862,-8.8 -11.41004,-21.52001 -14.93651,-28.26667 -3.52646,-6.74667 -8.70739,-16.58667 -11.51316,-21.86667 -2.80577,-5.28 -7.36184,-13.92 -10.12461,-19.2 -15.659111,-29.92661 -23.312114,-44.34872 -27.168957,-51.2 -1.321024,-2.34667 -5.883029,-10.98667 -10.137792,-19.2 -9.854454,-19.0229 -11.458347,-21.68997 -15.422294,-25.64532 -9.47984,-9.45928 -24.70752,-12.84759 -37.919041,-8.43737 -10.626293,3.54723 -15.8560852,9.08031 -25.00274143,26.4527 -12.92422457,24.54716 -16.39954157,31.19114 -23.24040557,44.42999 -4.09247,7.92 -8.777334,16.8 -10.410795,19.73333 -3.029504,5.44032 -8.962379,16.74497 -23.231894,44.26667 -8.830507,17.03144 -18.209355,34.24426 -19.302219,35.42496 -0.386027,0.41707 -2.13664,-1.96533 -3.89024,-5.29423 -1.753611,-3.32888 -4.917312,-9.19012 -7.030454,-13.02496 -2.113141,-3.83484 -6.380522,-11.77244 -9.483082,-17.6391 -5.798265,-10.96403 -9.808125,-18.41456 -14.926045,-27.73334 -1.61101,-2.93333 -5.22025,-9.65333 -8.02055,-14.93333 -2.80029,-5.28 -6.40084,-12 -8.00121,-14.93333 -1.60038,-2.93334 -4.96668,-9.17334 -7.48068,-13.86667 -2.514,-4.69333 -5.86486,-10.93333 -7.44635,-13.86667 -1.5815,-2.93333 -4.9415,-9.17333 -7.46667,-13.86666 -2.52517,-4.69334 -5.88517,-10.93334 -7.46667,-13.86667 -2.73391,-5.07082 -6.67939,-12.44286 -16.26995,-30.4 -2.34996,-4.4 -5.10275,-9.44 -6.11732,-11.2 -1.01458,-1.76 -4.37564,-8 -7.46904,-13.86667 -3.09338,-5.86667 -6.93987,-13.06667 -8.54773,-16 -12.84718,-23.43803 -22.39596,-41.24523 -22.39596,-41.76549 0,-0.34216 -1.61884,-3.3249 -3.59741,-6.62831 -1.97857,-3.30342 -6.47753,-11.5262 -9.99769,-18.27287 -5.91861,-11.34347 -9.25532,-17.5961 -17.64605,-33.06666 -1.75004,-3.22667 -4.79671,-8.86667 -6.77037,-12.53334 -8.79566,-16.34054 -11.2953,-20.97711 -14.95145,-27.73333 -2.14296,-3.96 -5.311,-9.84 -7.0401,-13.06667 -6.22615,-11.61865 -10.96408,-16.58483 -19.97526,-20.9376 -7.73479,-3.73621 -18.85872,-3.86169 -28.28048,-0.31899 -11.82018,4.44454 -22.6851,18.65837 -23.04752,30.15151 -0.13155,4.17156 -1.7739,9.8908 -1.88715,6.57175 -0.20819,-6.10081 4.10331,-25.37247 6.64772,-29.71418 7.2396,-12.35344 20.83917,-19.51727 35.29034,-18.58985 6.99626,0.44899 14.29178,3.00251 15.34431,5.37069 0.19556,0.44 0.91556,0.80079 1.6,0.80176 2.23105,0.003 9.19657,8.38261 12.18791,14.66193 1.60775,3.37497 3.40506,6.65246 3.99399,7.2833 0.58894,0.63084 3.46894,5.91084 6.4,11.73333 2.93107,5.82249 5.62473,10.82635 5.98593,11.11968 1.09767,0.89146 5.65621,10.0776 5.42556,10.93334 -0.11859,0.44 0.29272,0.8 0.91401,0.8 0.62129,0 0.83296,0.48 0.47038,1.06666 -0.36258,0.58667 -0.12258,1.06667 0.53333,1.06667 0.65592,0 0.89592,0.48 0.53333,1.06667 -0.36258,0.58666 -0.21001,1.06666 0.33903,1.06666 0.54905,0 2.01895,2.37265 3.26646,5.27255 1.2475,2.8999 2.75444,5.57307 3.34874,5.94037 0.59432,0.36731 0.80442,1.11466 0.46688,1.66079 -0.33752,0.54613 -0.17825,0.99296 0.35394,0.99296 0.5322,0 1.86727,2.04 2.96685,4.53334 1.09958,2.49333 2.49247,4.88598 3.09533,5.31699 0.70522,0.50421 0.71572,0.79532 0.0294,0.81634 -0.60741,0.0186 -0.55429,0.37008 0.12338,0.81633 1.41731,0.93333 6.26796,10.03701 5.9589,11.18367 -0.11859,0.44 0.29272,0.8 0.91401,0.8 0.62129,0 0.85829,0.43901 0.52669,0.97556 -0.33162,0.53656 -0.22412,1.13656 0.23889,1.33333 1.27594,0.54228 5.57146,8.26658 5.57146,10.01875 0,0.84646 0.50834,1.53903 1.12963,1.53903 0.62129,0 0.83296,0.48 0.47037,1.06666 -0.36258,0.58667 -0.24656,1.06667 0.25784,1.06667 1.00278,0 6.1198,9.63918 5.80403,10.93333 -0.10736,0.44 0.31313,0.8 0.93442,0.8 0.62129,0 0.83296,0.48 0.47038,1.06667 -0.36258,0.58667 -0.19845,1.06667 0.36473,1.06667 0.56318,0 1.9115,2.15819 2.99627,4.796 1.08479,2.6378 2.36067,4.7978 2.83529,4.8 0.47462,0.002 0.56629,0.484 0.20371,1.07066 -0.36258,0.58667 -0.12258,1.06667 0.53333,1.06667 0.65592,0 0.89592,0.48 0.53334,1.06667 -0.36258,0.58666 -0.23981,1.06666 0.27282,1.06666 0.9563,0 4.67118,6.81831 5.17228,9.49322 0.15385,0.82127 0.6947,1.78127 1.20186,2.13333 1.67086,1.15986 6.62607,10.4782 5.93792,11.16635 -0.37058,0.37057 -0.0854,0.67377 0.63363,0.67377 0.71907,0 1.01074,0.48 0.64816,1.06667 -0.36259,0.58666 -0.25849,1.06666 0.23131,1.06666 0.48982,0 1.83814,2.15546 2.99629,4.7899 1.15816,2.63445 2.49406,4.79445 2.96868,4.8 0.47463,0.005 0.5663,0.4901 0.20372,1.07677 -0.36259,0.58667 -0.23296,1.06667 0.28805,1.06667 0.521,0 2.10429,2.52 3.51841,5.6 1.41412,3.08 3.05617,5.95265 3.649,6.38367 0.59282,0.43102 0.68303,0.79102 0.20045,0.8 -0.48258,0.009 0.0901,1.24632 1.27261,2.74964 1.18252,1.50333 2.69458,4.38333 3.36014,6.4 0.66556,2.01668 1.61319,3.66669 2.10583,3.66669 0.49265,0 1.72064,2.16 2.72887,4.8 1.00822,2.64 2.27625,4.8 2.81783,4.8 0.54159,0 0.70856,0.44684 0.37103,0.99296 -0.33754,0.54613 -0.11674,1.30009 0.49066,1.67549 1.09088,0.67419 6.36794,10.42801 6.48742,11.99097 0.0339,0.44398 0.68626,1.52725 1.4496,2.40725 0.76333,0.88 2.26412,3.52 3.33508,5.86666 1.07096,2.34667 2.25215,4.50667 2.62488,4.8 0.37272,0.29334 1.95822,3.17334 3.52333,6.4 1.5651,3.22667 3.96452,7.78667 5.33204,10.13334 4.74364,8.14012 37.0103,67.8492 52.454634,97.06666 3.411221,6.45334 7.932853,14.85334 10.048075,18.66667 2.115221,3.81333 5.036672,9.21333 6.492128,12 1.455445,2.78667 2.897664,5.06667 3.204917,5.06667 0.307264,0 3.050358,-4.92 6.095766,-10.93334 3.045408,-6.01333 7.668459,-14.87245 10.273461,-19.68695 2.604992,-4.8145 8.449835,-15.8545 12.988534,-24.53333 4.538688,-8.67884 10.040512,-19.13972 12.226272,-23.24638 2.18576,-4.10667 9.620374,-18.26667 16.521377,-31.46667 22.622112,-43.27084 24.345824,-46.32108 28.970443,-51.26516 9.237195,-9.87531 24.696406,-14.05008 37.85855,-10.22375 6.439435,1.872 15.610208,9.59594 19.81504,16.68891 3.465792,5.84629 10.345025,19.68831 10.012907,20.14741 -0.164746,0.22774 0.160299,0.70774 0.722326,1.06667 1.111509,0.70983 8.846026,15.67518 8.679936,16.79461 -0.056,0.37737 0.351797,0.97979 0.906208,1.33872 1.311776,0.84925 9.360501,16.40793 9.028469,17.45259 -0.13985,0.44 0.254059,0.8 0.87535,0.8 0.62129,0 0.858293,0.43901 0.526688,0.97556 -0.331616,0.53656 -0.179904,1.13656 0.33713,1.33334 1.123689,0.42765 8.122349,13.87679 7.818419,15.02443 -0.11652,0.44 0.29647,0.8 0.91776,0.8 0.62129,0 0.8583,0.43901 0.52669,0.97557 -0.33162,0.53655 -0.1799,1.13655 0.33713,1.33333 1.12369,0.42766 8.12235,13.87679 7.81842,15.02444 -0.11652,0.44 0.17203,0.8 0.64124,0.8 0.4692,0 2.7492,3.96 5.06667,8.8 2.31746,4.84 4.50617,9.04 4.86381,9.33333 0.90806,0.7448 8.34516,15.28012 8.34245,16.30476 -10e-4,0.46096 0.73934,1.57966 1.64568,2.48599 0.90634,0.90635 1.37516,2.08921 1.04181,2.62858 -0.33335,0.53937 -0.19341,0.98067 0.31098,0.98067 1.00279,0 6.1198,9.63918 5.80404,10.93333 -0.10736,0.44 0.31313,0.8 0.93442,0.8 0.62129,0 0.83296,0.48 0.47038,1.06667 -0.36259,0.58667 -0.12259,1.06667 0.53333,1.06667 0.65591,0 0.89591,0.48 0.53333,1.06666 -0.36258,0.58667 -0.12258,1.06667 0.53334,1.06667 0.65591,0 0.92124,0.43901 0.58964,0.97556 -0.33162,0.53656 -0.21551,1.13656 0.25801,1.33334 1.226,0.50947 6.61901,10.47048 6.61901,12.22545 0,0.80611 0.50833,1.46565 1.12962,1.46565 0.62129,0 0.83296,0.48 0.47038,1.06667 -0.36258,0.58667 -0.12258,1.06667 0.53334,1.06667 0.65591,0 0.89591,0.48 0.53333,1.06666 -0.36258,0.58667 -0.24656,1.06667 0.25783,1.06667 0.80503,0 5.60331,8.73428 5.576,10.14996 -0.0167,0.8678 3.46222,7.39956 4.25211,7.98337 1.22424,0.90483 7.71344,12.8 6.98282,12.8 -0.3783,0 0.0709,0.7587 0.99818,1.686 0.9273,0.92729 1.44687,2.0729 1.15461,2.5458 -0.29227,0.4729 0.18332,1.45297 1.05686,2.17795 0.87354,0.72497 1.58826,1.94508 1.58826,2.71134 0,0.76626 0.62685,2.02749 1.39301,2.80272 1.57132,1.58994 3.299,5.26683 3.043,6.47619 -0.0931,0.44 0.33898,0.8 0.96027,0.8 0.6213,0 0.83296,0.48 0.47038,1.06667 -0.36258,0.58667 -0.12258,1.06667 0.53334,1.06667 0.65591,0 0.91641,0.44683 0.57889,0.99296 -0.33754,0.54613 -0.11674,1.30009 0.49065,1.67548 0.6074,0.3754 2.39258,3.16856 3.96709,6.20704 2.8058,5.41466 3.09321,6.10812 3.36337,8.11499 0.0734,0.54477 0.74951,1.62477 1.50262,2.4 0.75311,0.77524 2.70385,4.16019 4.33498,7.52212 1.63112,3.36194 3.41494,6.39027 3.96404,6.72963 0.5491,0.33936 0.99836,1.54869 0.99836,2.6874 0,1.13871 0.37476,2.07038 0.83281,2.07038 0.45805,0 1.3933,1.32 2.07834,2.93333 0.68504,1.61333 2.47028,4.98622 3.96718,7.4953 1.49692,2.50907 2.72167,5.26907 2.72167,6.13333 0,0.86426 0.44766,1.57137 0.99478,1.57137 0.54714,0 1.24913,0.84 1.55998,1.86667 0.56855,1.87777 46.51124,-43.2733 153.17857,-150.53922 47.41888,-47.68498 46.59232,-47.06159 62.4,-47.05954 11.38881,10e-4 18.56683,2.86828 26.01355,10.38941 7.38528,7.4591 10.22187,14.84065 12.40331,32.27601 0.29355,2.34667 0.76181,5.44746 1.04032,6.89064 0.27861,1.44317 0.76288,4.34239 1.07616,6.44269 0.31328,2.10031 0.80416,4.99952 1.09099,6.4427 0.69557,3.50004 2.69162,15.73452 3.18144,19.50001 0.21525,1.65516 0.64714,4.29516 0.95957,5.86667 0.31243,1.57151 0.83125,4.7965 1.15285,7.16666 0.3216,2.37015 0.81931,5.49015 1.10614,6.93333 0.69557,3.50003 2.69162,15.73452 3.18144,19.50001 0.21525,1.65516 0.64714,4.29516 0.95957,5.86667 0.31243,1.57151 0.83125,4.7965 1.15285,7.16665 0.3216,2.37016 0.81739,5.49016 1.10176,6.93334 1.02123,5.18289 3.58752,20.85217 4.18571,25.5573 0.56715,4.46106 0.98357,7.02499 2.25216,13.86667 0.78731,4.24586 3.79723,22.67102 4.18197,25.6 0.19264,1.46666 0.63734,4.34666 0.98827,6.4 0.35083,2.05333 0.87339,5.17333 1.16117,6.93333 0.28779,1.76 0.97771,5.84 1.53312,9.06667 0.55552,3.22667 1.32128,8.02668 1.70176,10.66668 1.26432,8.773 1.36587,9.414 1.9728,12.4498 0.33174,1.6593 0.89771,5.1667 1.25771,7.7943 0.36,2.6276 0.80821,5.0276 0.99605,5.3333 0.18784,0.3058 0.62742,3.1959 0.97686,6.4226 0.34933,3.2267 0.8368,6.8858 1.0832,8.1315 0.2464,1.2456 0.73866,4.1256 1.09376,6.4 0.35509,2.2743 0.84266,4.8552 1.08352,5.7352 0.24074,0.88 0.73472,3.9666 1.0976,6.8592 0.36298,2.8926 0.82794,5.5326 1.03328,5.8667 0.20533,0.3341 0.6592,3.2474 1.00864,6.4741 0.34933,3.2266 0.89696,7.0666 1.21696,8.5333 0.56021,2.5677 1.97536,10.933 2.97738,17.6 0.26454,1.76 0.98262,6.08 1.59563,9.6 0.61312,3.52 1.36469,8.3953 1.67008,10.8339 0.30539,2.4387 0.80203,5.5587 1.10368,6.9334 0.30176,1.3746 0.75392,3.9394 1.0048,5.6994 0.25099,1.76 1.21109,7.52 2.13355,12.8 0.92256,5.28 1.91274,11.52 2.20053,13.8666 0.57515,4.6893 1.59552,11.2785 2.29227,14.8019 1.02944,5.2055 3.6209,20.6726 4.0432,24.1315 0.43829,3.5907 1.0785,7.5774 2.31242,14.4 0.74528,4.1203 4.44886,27.4944 5.24619,33.1093 0.33664,2.3702 0.86475,5.4902 1.17365,6.9334 0.9343,4.3643 2.51211,14.0635 3.11659,19.1573 0.31328,2.64 0.79755,5.9807 1.07605,7.4239 0.27862,1.4432 0.76288,4.3424 1.07616,6.4427 0.31328,2.1003 0.79947,4.9995 1.08054,6.4427 1.1137,5.7185 2.63402,14.5503 3.11413,18.0907 1.01931,7.5143 1.73867,12.3277 2.23189,14.9333 1.25899,6.6511 4.7552,27.5673 5.17046,30.9333 0.25344,2.0534 0.96341,6.6134 1.57792,10.1334 0.6144,3.52 1.33354,7.84 1.59797,9.6 0.26453,1.76 0.99904,6.32 1.63221,10.1333 0.63328,3.8133 1.35595,8.3733 1.60598,10.1333 0.25013,1.76 1.66453,10.4 3.14325,19.2 1.47861,8.8 2.94539,17.92 3.25931,20.2667 0.31402,2.3467 1.04597,6.9067 1.62666,10.1333 0.5807,3.2267 1.33046,7.7867 1.66614,10.1334 0.33568,2.3466 0.81664,4.9866 1.06858,5.8666 0.25206,0.88 0.76256,4 1.1344,6.9334 0.37195,2.9333 0.86198,6.2933 1.08896,7.4666 0.22699,1.1734 1.12256,6.6934 1.99019,12.2667 0.86773,5.5733 2.11413,13.2533 2.76992,17.0667 0.65568,3.8133 1.3616,8.2396 1.56864,9.8362 0.20704,1.5967 0.61973,3.7567 0.91701,4.8 0.29718,1.0434 0.83979,4.7771 1.20576,8.2971 0.36598,3.52 1.07936,8.08 1.5855,10.1333 0.50602,2.0534 1.18976,5.8934 1.51946,8.5334 0.98752,7.908 1.6095,11.8576 2.15915,13.7111 0.28629,0.9656 0.83616,4.6355 1.22197,8.1555 0.38582,3.52 0.86571,6.6781 1.06656,7.018 0.36918,0.625 2.33408,12.2484 3.23136,19.1154 0.26838,2.0533 0.7119,4.9333 0.98571,6.4 0.27382,1.4666 0.77675,4.8266 1.11755,7.4666 0.34091,2.64 1.02059,6.48 1.51051,8.5334 0.77728,3.2578 1.78901,9.4282 2.71072,16.5333 0.15221,1.1733 0.56885,3.9333 0.92586,6.1333 0.35702,2.2 0.91008,5.8 1.22902,8 0.31904,2.2 1.2544,7.6 2.07861,12 0.82421,4.4 1.76395,10.16 2.08843,12.8 0.55658,4.529 0.87061,6.3986 2.14997,12.8 0.29312,1.4667 0.79552,4.3467 1.11648,6.4 0.32096,2.0534 1.04715,6.3734 1.61387,9.6 0.56661,3.2267 1.48725,9.4822 2.04586,13.9012 0.55862,4.4189 1.36214,8.9377 1.78582,10.0417 0.50784,1.3234 0.3761,1.7636 -0.38667,1.2921 -0.63616,-0.3932 -1.31776,-0.3043 -1.51456,0.1975 -0.1968,0.5018 -24.83776,14.4985 -54.75776,31.1037 -29.92,16.6054 -69.28,38.451 -87.46667,48.5462 -18.18667,10.095 -66.66667,36.9686 -107.73334,59.719 -41.06666,22.7503 -91.70667,50.833 -112.53333,62.4058 -115.55043,64.2084 -166.608976,92.427 -172.800006,95.5013 -17.808693,8.8433 -38.058667,12.6422 -58.666668,11.0055 z m 35.603382,-12.0542 c 15.516321,-3.9361 20.366358,-6.3573 89.196622,-44.5278 103.42111,-57.3533 447.59393,-248.0322 458.40982,-253.9688 7.1103,-3.9025 9.74187,-5.8888 9.39552,-7.0919 -0.26453,-0.9193 -0.7616,-3.5913 -1.10464,-5.9379 -0.34293,-2.3467 -1.10752,-7.1467 -1.69898,-10.6667 -0.59147,-3.52 -2.0367,-12.88 -3.21163,-20.8 -1.17493,-7.92 -2.34699,-15.12 -2.60469,-16 -0.25771,-0.88 -0.74454,-3.52 -1.08192,-5.8667 -0.33739,-2.3466 -1.0544,-6.9066 -1.59328,-10.1333 -0.53888,-3.2267 -1.24854,-7.5467 -1.57686,-9.6 -0.32832,-2.0533 -1.05408,-6.3733 -1.6128,-9.6 -0.55861,-3.2267 -1.29738,-7.7867 -1.6416,-10.1333 -0.3441,-2.3467 -1.33451,-8.5867 -2.20085,-13.8667 -0.86635,-5.28 -2.7519,-16.951 -4.19019,-25.9358 -3.31243,-20.6915 -3.61707,-22.5534 -4.22123,-25.7975 -0.58677,-3.151 -0.8449,-4.7678 -3.66144,-22.9334 -1.1824,-7.6266 -2.41098,-15.0666 -2.73002,-16.5333 -0.31915,-1.4667 -1.53398,-9.1467 -2.69984,-17.0667 -1.16576,-7.92 -2.59328,-16.8 -3.17238,-19.7333 -0.57909,-2.9333 -1.33024,-7.2533 -1.66922,-9.6 -0.86016,-5.9542 -3.57152,-22.916 -4.18134,-26.1574 -0.2784,-1.48 -1.71338,-10.36 -3.1888,-19.7334 -1.47541,-9.3734 -2.8625,-18.0025 -3.08245,-19.1759 -0.86731,-4.628 -1.73845,-9.7976 -2.33653,-13.8666 -1.21142,-8.241 -3.67936,-23.4944 -4.22827,-26.1334 -0.30507,-1.4666 -1.50848,-9.1466 -2.67435,-17.0666 -1.16576,-7.92 -2.58752,-16.8 -3.15957,-19.7334 -1.11115,-5.6981 -1.70549,-9.2026 -2.71339,-16 -2.216,-14.9441 -2.86485,-18.9103 -4.18816,-25.6 -0.81237,-4.1066 -1.77525,-9.8666 -2.13984,-12.8 -0.81536,-6.5608 -2.15424,-15.0493 -4.87925,-30.9333 -0.60384,-3.52 -1.77781,-10.72 -2.60885,-16 -0.83104,-5.28 -2.23691,-13.92 -3.12406,-19.2 -1.62186,-9.6519 -5.79093,-35.6364 -6.67456,-41.6 -0.2608,-1.76 -1.15594,-7.28 -1.98922,-12.2667 -0.83328,-4.9866 -1.79424,-10.9866 -2.13558,-13.3333 -0.34133,-2.3467 -0.81525,-4.9867 -1.05333,-5.8667 -0.23808,-0.88 -1.39968,-8.08 -2.58155,-16 -1.18176,-7.92 -2.3424,-15.36 -2.5792,-16.5333 -0.2369,-1.1733 -0.78378,-4.2933 -1.21546,-6.9333 -0.43168,-2.64 -0.91318,-5.52 -1.06998,-6.4 -0.15669,-0.88 -1.09877,-6.8173 -2.09322,-13.1939 -0.99456,-6.3766 -1.9664,-12.4148 -2.15958,-13.4181 -0.19328,-1.0034 -1.11328,-6.5862 -2.04458,-12.4062 -0.93131,-5.82 -3.1184,-19.4618 -4.86016,-30.3152 -1.74166,-10.8533 -3.66304,-22.85331 -4.26966,-26.66665 -1.17962,-7.41623 -1.79221,-11.13415 -2.81184,-17.06667 -0.35296,-2.05333 -0.79477,-4.69333 -0.98176,-5.86666 -2.98144,-18.70135 -3.08458,-19.31959 -4.18282,-25.06667 -0.28032,-1.46667 -0.77974,-4.58667 -1.10998,-6.93333 -0.33024,-2.34667 -1.33002,-8.82667 -2.22154,-14.4 -0.89163,-5.57334 -1.86827,-11.81334 -2.17014,-13.86667 -0.30197,-2.05333 -0.73706,-4.45333 -0.96672,-5.33333 -0.22976,-0.88 -0.70592,-3.76 -1.05824,-6.4 -0.35221,-2.64 -1.59402,-10.56 -2.75957,-17.6 -1.16555,-7.04 -2.38069,-14.42083 -2.70027,-16.40184 -0.31968,-1.98101 -0.73098,-4.38101 -0.91424,-5.33333 -0.18314,-0.95232 -0.89866,-5.5715 -1.59008,-10.26483 -0.6913,-4.69334 -1.95808,-12.61334 -2.81482,-17.60001 -0.85686,-4.98666 -1.80672,-10.74666 -2.11104,-12.8 -2.79414,-18.85917 -5.16747,-24.87055 -12.6944,-32.15351 -7.7056,-7.45587 -13.26603,-9.86867 -23.83254,-10.34146 -14.54475,-0.65079 -19.35723,1.85807 -36.57173,19.06562 -6.14198,6.13948 -218.62714,218.25304 -472.189196,471.36334 -253.562054,253.1104 -461.021924,460.5487 -461.021924,460.974 0,0.4253 7.56,4.9757 16.80001,10.1119 9.24,5.1361 18.48,10.2804 20.53333,11.4317 5.66924,3.1786 28.63646,16.0296 34.66667,19.3973 2.93333,1.6381 21.89333,12.202 42.13333,23.4753 20.24,11.2733 53.36,29.7558 73.6,41.0723 20.24,11.3166 51.2,28.6053 68.8,38.4194 17.6,9.8142 33.92,18.9285 36.26667,20.254 2.34667,1.3256 10.50667,5.8798 18.13333,10.1204 7.62667,4.2408 15.54667,8.6594 17.6,9.8192 2.05334,1.1598 6.61334,3.6971 10.13334,5.6384 3.52,1.9415 10,5.5609 14.4,8.0433 10.94203,6.1735 14.87729,8.374 45.33333,25.3494 10.56,5.8858 24.48,13.6589 30.93334,17.2733 98.4037858,55.1144 93.383764,52.4533 107.4005433,56.933 18.8321067,6.0186 39.7505717,6.6628 58.8695047,1.8129 z m -91.070049,-811.7931 c 1.377866,-1.4667 2.265205,-2.6667 1.971872,-2.6667 -0.293334,0 -1.660672,1.2 -3.038539,2.6667 -1.377867,1.4667 -2.265205,2.6667 -1.971872,2.6667 0.293333,0 1.660672,-1.2 3.038539,-2.6667 z m -494.756839,468.9316 c -1.08922,-0.6904 -0.92009,-1.0339 0.72019,-1.4629 1.52524,-0.3988 1.97992,-0.1338 1.57604,0.9187 -0.66316,1.7281 -0.4924,1.6877 -2.29623,0.5442 z m 4.72484,-8.8483 c 1.1176,-1.2741 1.46515,-1.9863 0.77236,-1.5826 -3.21237,1.8721 -2.2938,-2.0617 1.35364,-5.797 2.97318,-3.0448 3.58201,-4.1704 2.2558,-4.1704 -0.99906,0 -1.81648,-0.3963 -1.81648,-0.8807 0,-1.4161 4.89067,-5.6064 5.65336,-4.8436 0.3823,0.3823 1.54105,0.027 2.57502,-0.7903 1.79393,-1.4174 1.79449,-1.3633 0.0122,1.1813 -1.02728,1.4667 -3.62095,6.3867 -5.76374,10.9333 -2.29438,4.8684 -4.54921,8.2667 -5.48504,8.2667 -1.2717,0 -1.18325,-0.4627 0.44291,-2.3167 z m 12.16532,-22.1537 c 0,-0.552 0.47451,-1.297 1.05446,-1.6554 0.60465,-0.3737 0.78346,0.054 0.41921,1.0038 -0.70911,1.8479 -1.47367,2.1859 -1.47367,0.6516 z m 4.26667,-7.4667 c 0,-0.552 0.47451,-1.2969 1.05445,-1.6553 0.60465,-0.3738 0.78347,0.054 0.41921,1.0037 -0.70911,1.8479 -1.47366,2.1859 -1.47366,0.6516 z m -1.06667,-5.5793 c 0,-0.8234 2.4,-3.8611 5.33334,-6.7503 5.47613,-5.3938 6.22043,-5.643 4.132,-1.3835 -1.6358,3.3363 -9.46534,10.0644 -9.46534,8.1338 z m 15.28242,-24.1108 c 3.13961,-8.1747 5.94724,-13.5109 9.03621,-17.1742 2.46475,-2.9231 4.49205,-5.7086 4.5051,-6.19 0.013,-0.4813 1.00222,-2.0753 2.19819,-3.5419 1.19597,-1.4667 -0.0892,1.6533 -2.85591,6.9333 -2.76671,5.28 -7.3877,14.16 -10.26886,19.7333 -7.2529,14.0301 -7.9352,14.0926 -2.61473,0.2395 z m 21.03548,-37.3061 c 0.0891,-1.3905 8.3586,-16.2667 9.04255,-16.2667 0.2844,0 -1.46604,3.84 -3.88984,8.5333 -4.10766,7.9538 -5.27946,9.7126 -5.15271,7.7334 z m 10.26391,-19.2167 c 0.33497,-1.3292 1.0311,-2.6774 1.54695,-2.9962 1.45979,-0.9022 1.1042,1.0492 -0.60903,3.3424 -1.49245,1.9975 -1.5255,1.9853 -0.93792,-0.3462 z m 63.3705,-119.7167 c 1.555,-3.2651 2.04769,-3.8702 2.04769,-2.515 0,0.5724 -0.74647,1.9724 -1.65884,3.1112 -1.56413,1.9523 -1.58634,1.9182 -0.38885,-0.5962 z m 8.46588,-16.6222 c 0.0231,-1.2414 6.33912,-11.9438 6.36363,-10.783 0.0166,0.7896 -4.9863,10.2875 -5.96083,11.3163 -0.23155,0.2445 -0.4128,0 -0.4028,-0.5333 z m 8.75447,-17.3593 c 2.195,-5.1954 7.10742,-12.6695 5.35784,-8.1518 -1.26241,3.2598 -6.64423,13.3333 -7.12337,13.3333 -0.23298,0 0.5615,-2.3317 1.76553,-5.1815 z m 6.76259,-12.1978 c 0.40056,-1.052 0.997,-1.644 1.32542,-1.3156 0.32841,0.3285 6.8e-4,1.1891 -0.7283,1.9127 -1.05346,1.0456 -1.17598,0.9231 -0.59712,-0.5971 z m 4.19809,-8.2207 c 0.91013,-1.76 1.89478,-3.2 2.18812,-3.2 0.29333,0 -0.21132,1.44 -1.12146,3.2 -0.91013,1.76 -1.89478,3.2 -2.18811,3.2 -0.29334,0 0.21131,-1.44 1.12145,-3.2 z m -125.21665,-1.0666 c -0.24349,-2.9789 2.38045,-18.1334 3.13972,-18.1334 0.61393,0 -1.04296,11.4218 -2.63048,18.1334 -0.3364,1.4222 -0.39299,1.4222 -0.50924,0 z m 3.18506,-20.6985 c -0.056,-1.1174 1.54203,-12.3974 3.5511,-25.0666 2.00905,-12.6692 4.46625,-28.4349 5.46042,-35.0349 0.99418,-6.6 2.1481,-12 2.56427,-12 0.41617,0 0.11191,3.96 -0.67612,8.8 -0.78803,4.84 -1.68576,10.48 -1.99494,12.5333 -0.30919,2.0533 -0.98294,6.1333 -1.49721,9.0667 -0.51427,2.9333 -1.74884,10.6133 -2.74349,17.0666 -2.52186,16.362 -4.54357,27.0405 -4.66403,24.6349 z m 11.71995,-74.2349 c -0.21445,-2.9802 10.96406,-72.5333 11.65749,-72.5333 0.37859,0 0.0436,3.96 -0.74444,8.8 -0.78803,4.84 -1.69047,10.48 -2.00542,12.5333 -0.31496,2.0534 -1.01357,6.3734 -1.55248,9.6 -0.53892,3.2267 -1.2371,7.5467 -1.55152,9.6 -3.09156,20.1893 -5.64171,34.2503 -5.80363,32 z m 172.71164,-22.337 c 0,-0.5521 0.47451,-1.297 1.05445,-1.6554 0.60465,-0.3737 0.78347,0.054 0.41921,1.0037 -0.70911,1.8479 -1.47366,2.186 -1.47366,0.6517 z m 5.93524,-11.0423 c 0.40057,-1.052 0.99701,-1.644 1.32542,-1.3156 0.32842,0.3284 6.8e-4,1.1891 -0.7283,1.9127 -1.05346,1.0456 -1.17598,0.9231 -0.59712,-0.5971 z m 2.62182,-5.8207 c 0.013,-0.44 1.00193,-2 2.19753,-3.4666 l 2.17383,-2.6667 -1.69161,3.4667 c -1.60746,3.2942 -2.73153,4.4128 -2.67975,2.6666 z m 7.15276,-13.3333 c 1.56686,-3.6667 3.92174,-8.3467 5.23307,-10.4 1.31132,-2.0533 3.21515,-5.8933 4.23072,-8.5333 1.01558,-2.64 2.66619,-6 3.66802,-7.4667 1.00183,-1.4667 3.28348,-5.5467 5.07034,-9.0667 1.78686,-3.52 4.01045,-7.36 4.94132,-8.5333 1.61256,-2.0326 1.64111,-1.9897 0.60459,0.9089 -0.59834,1.6732 -3.87512,8.1532 -7.28172,14.4 -3.40661,6.2468 -7.49826,13.7578 -9.09255,16.6911 -1.59431,2.9333 -4.31482,8.3333 -6.0456,12 -1.73078,3.6667 -3.37866,6.6667 -3.66195,6.6667 -0.28329,0 0.76691,-3 2.33376,-6.6667 z m -176.67474,-22.2574 c -0.056,-0.9483 1.57825,-12.5513 3.63158,-25.7845 2.05334,-13.2333 3.73334,-24.5774 3.73334,-25.2093 0,-0.6318 0.39769,-1.1488 0.88377,-1.1488 0.77062,0 0.28067,4.123 -2.4083,20.2667 -0.342,2.0533 -1.15354,7.0933 -1.80341,11.2 -1.97984,12.5111 -3.92953,22.4967 -4.03698,20.6759 z m 203.09825,-27.6093 c 0.91014,-1.76 1.89479,-3.2 2.18812,-3.2 0.29333,0 -0.21132,1.44 -1.12145,3.2 -0.91013,1.76 -1.89478,3.2 -2.18812,3.2 -0.29333,0 0.21132,-1.44 1.12145,-3.2 z m 3.26858,-5.646 c 0.40057,-1.052 0.997,-1.644 1.32542,-1.3155 0.32841,0.3284 6.8e-4,1.1891 -0.7283,1.9126 -1.05346,1.0456 -1.17598,0.9231 -0.59712,-0.5971 z m -197.81856,-21.0206 c -0.24349,-2.9789 2.38045,-18.1334 3.13972,-18.1334 0.61393,0 -1.04296,11.4218 -2.63048,18.1334 -0.3364,1.4222 -0.39299,1.4222 -0.50924,0 z m 3.2,-20.2667 c -0.24349,-2.9788 2.38045,-18.1333 3.13972,-18.1333 0.61393,0 -1.04296,11.4218 -2.63048,18.1333 -0.3364,1.4222 -0.39299,1.4222 -0.50924,0 z m 3.16121,-20.2667 c -0.22782,-2.9023 7.77465,-52.2666 8.47295,-52.2666 0.59481,0 0.01,4.5503 -2.6087,20.2666 -0.34201,2.0534 -1.15355,7.0934 -1.80342,11.2 -1.97912,12.5066 -3.92818,22.4899 -4.06083,20.8 z m 234.66437,-19.7333 c 0,-0.5867 0.68598,-2.2667 1.5244,-3.7333 0.83843,-1.4667 1.52441,-2.1867 1.52441,-1.6 0,0.5866 -0.68598,2.2666 -1.52441,3.7333 -0.83842,1.4667 -1.5244,2.1867 -1.5244,1.6 z m 9.99795,-20.2881 c 0.86286,-2.0651 2.35908,-4.8251 3.32494,-6.1333 1.98146,-2.6839 1.85743,-2.2859 -1.50285,4.8214 -2.77752,5.8747 -4.13779,6.8541 -1.82209,1.3119 z m 6.90313,-13.3119 c 5.22162,-11.6261 22.57754,-44.2054 24.69019,-46.3467 1.56155,-1.5827 1.21277,0.7674 -0.47134,3.176 -0.80914,1.1572 -4.23066,7.384 -7.60341,13.8374 -14.36642,27.4884 -16.82055,32.055 -17.77006,33.0666 -0.55066,0.5867 -0.031,-1.0933 1.15462,-3.7333 z m -242.93997,-2.1333 c -0.0214,-1.4667 0.59774,-6.0267 1.37591,-10.1334 0.77816,-4.1066 1.43907,-6.0266 1.46867,-4.2666 0.0297,1.76 -0.58955,6.32 -1.37589,10.1333 -0.78635,3.8133 -1.44726,5.7333 -1.46869,4.2667 z m 3.11325,-19.2 c -0.24497,-2.9922 7.78043,-52.26672 8.51274,-52.26672 0.40069,0 0.35334,2.04 -0.10528,4.53334 -0.83738,4.55288 -1.57792,9.10568 -2.68928,16.53338 -0.32916,2.2 -1.0979,7.12 -1.70828,10.9333 -0.61039,3.8133 -1.34509,8.6133 -1.63267,10.6667 -0.78196,5.5832 -2.22801,11.4228 -2.37726,9.6 z m 269.25005,-34.1334 c 0.91013,-1.76 1.89478,-3.2 2.18811,-3.2 0.29334,0 -0.21131,1.44 -1.12145,3.2 -0.91013,1.76 -1.89478,3.2 -2.18811,3.2 -0.29334,0 0.21131,-1.44 1.12145,-3.2 z M -430.4239,987.68488 c -0.0214,-1.46666 0.59774,-6.02666 1.3759,-10.13333 0.77817,-4.10667 1.43907,-6.02667 1.46867,-4.26667 0.0297,1.76 -0.58954,6.32 -1.37589,10.13334 -0.78635,3.81333 -1.44725,5.73333 -1.46868,4.26666 z m 3.15462,-19.73333 c -0.0515,-1.17333 1.57505,-12.69333 3.61464,-25.6 2.03958,-12.90667 3.71262,-24.06667 3.71784,-24.8 0.005,-0.73333 0.40721,-1.33333 0.89329,-1.33333 0.76418,0 0.30765,3.88911 -2.31642,19.73333 -0.29149,1.76 -0.86498,5.36 -1.27442,8 -0.40946,2.64 -0.93165,5.76 -1.16046,6.93333 -0.2288,1.17334 -0.68773,4.29334 -1.01981,6.93334 -0.81547,6.48264 -2.3388,12.77125 -2.45466,10.13333 z m 293.29431,-26.13333 c 1.555,-3.2651 2.04769,-3.87023 2.04769,-2.51499 0,0.57232 -0.74647,1.97232 -1.65884,3.11112 -1.56413,1.95233 -1.58634,1.91829 -0.38885,-0.59613 z m 9.58221,-18.66667 c 0,-0.58667 0.70474,-1.99841 1.56607,-3.13721 0.86134,-1.13879 1.56608,-1.59053 1.56608,-1.00387 0,0.58667 -0.70474,1.99841 -1.56608,3.13721 -0.86133,1.13879 -1.56607,1.59054 -1.56607,1.00387 z m -294.29781,-10.13333 c -0.0214,-1.46667 0.59774,-6.02667 1.37591,-10.13334 0.77816,-4.10666 1.43907,-6.02666 1.46867,-4.26666 0.0296,1.76 -0.58955,6.32 -1.3759,10.13333 -0.78634,3.81333 -1.44725,5.73333 -1.46868,4.26667 z m 301.51159,-4 c 2.75302,-5.97186 4.57122,-9.03604 5.06737,-8.5399 0.46199,0.462 -5.80846,12.5399 -6.5103,12.5399 -0.22059,0 0.42873,-1.8 1.44293,-4 z m -297.80681,-20 c 0.32875,-3.52 0.79139,-6.6 1.02811,-6.84445 1.05543,-1.08988 0.97476,0.89776 -0.27778,6.84445 l -1.34804,6.4 z m 1.58565,-9.24483 c -0.07,-0.97798 1.06794,-9.37798 2.5286,-18.66666 1.46065,-9.28869 2.66065,-17.48851 2.66667,-18.22185 0.006,-0.73333 0.40599,-1.33333 0.88885,-1.33333 0.48286,0 0.26252,3.72 -0.48964,8.26667 -0.75216,4.54666 -1.66743,10.42666 -2.03391,13.06666 -1.06073,7.64081 -3.42123,18.8372 -3.56057,16.88851 z m 6.44291,-41.42184 c -0.0214,-1.46667 0.59773,-6.02667 1.3759,-10.13334 0.77816,-4.10666 1.43907,-6.02666 1.46867,-4.26666 0.0297,1.76 -0.58955,6.32 -1.37589,10.13333 -0.78635,3.81334 -1.44726,5.73334 -1.46868,4.26667 z m 3.72544,-24 c 0.31737,-3.52 0.77073,-6.6 1.00744,-6.84445 1.08915,-1.12469 1.0198,0.94222 -0.22966,6.84445 l -1.35483,6.4 z m 1.43784,-9.33371 c 0,-0.9291 1.19508,-9.2891 2.65574,-18.57778 1.46066,-9.28868 2.66066,-17.48851 2.66667,-18.22185 0.006,-0.73333 0.43516,-1.33333 0.95367,-1.33333 0.51851,0 0.32985,3.24 -0.41924,7.2 -0.74909,3.96 -1.67321,9.6 -2.05362,12.53333 -1.91145,14.73979 -3.80322,23.89194 -3.80322,18.39963 z m 6.51668,-40.26629 c -0.24348,-2.97882 2.38046,-18.13334 3.13973,-18.13334 0.61393,0 -1.04296,11.42181 -2.63048,18.13334 -0.3364,1.42222 -0.39299,1.42222 -0.50925,0 z m 3.25337,-21.33334 c -0.0214,-1.46666 0.59774,-6.02666 1.3759,-10.13333 0.77817,-4.10667 1.43908,-6.02667 1.46868,-4.26667 0.0297,1.76 -0.58955,6.32 -1.3759,10.13334 -0.78634,3.81333 -1.44725,5.73333 -1.46868,4.26666 z m 3.72544,-24 c 0.31738,-3.52 0.77073,-6.6 1.00744,-6.84445 1.08916,-1.12469 1.0198,0.94222 -0.22966,6.84445 l -1.35483,6.4 z m 1.50446,-10.22222 c 0.11815,-4.5716 6.07128,-37.89043 6.17807,-34.57778 0.0567,1.76 -0.32473,5.12 -0.8477,7.46667 -0.52298,2.34667 -1.25113,6.66667 -1.61813,9.6 -1.85504,14.82705 -3.89108,24.43133 -3.71224,17.51111 z m 7.02887,-44.17778 c 0.31738,-3.52 0.77073,-6.6 1.00745,-6.84445 1.08915,-1.12469 1.0198,0.94222 -0.22967,6.84445 l -1.35482,6.4 z m 1.91229,-11.73333 c 1.33968,-11.66733 1.99804,-15.46667 2.68009,-15.46667 0.41048,0 0.12313,3.91655 -0.63857,8.70344 -1.47895,9.29434 -2.85596,13.85616 -2.04152,6.76323 z m 2.79217,-18.75555 c 0.11816,-4.57161 6.07129,-37.89044 6.17807,-34.57779 0.0568,1.76 -0.32472,5.12 -0.8477,7.46667 -0.52298,2.34667 -1.25113,6.66667 -1.61812,9.6 -1.85504,14.82705 -3.89109,24.43133 -3.71225,17.51112 z m 7.02888,-44.17779 c 0.31737,-3.52 0.77073,-6.6 1.00744,-6.84444 1.08915,-1.1247 1.0198,0.94221 -0.22966,6.84444 l -1.35483,6.4 z m 1.91228,-11.73333 c 1.33968,-11.66733 1.99804,-15.46667 2.68009,-15.46667 0.41049,0 0.12314,3.91655 -0.63857,8.70344 -1.47894,9.29434 -2.85596,13.85616 -2.04152,6.76323 z m 3.2,-20.26667 c 1.33968,-11.66733 1.99804,-15.46666 2.68009,-15.46666 0.41049,0 0.12314,3.91654 -0.63857,8.70343 -1.47894,9.29435 -2.85596,13.85616 -2.04152,6.76323 z m 2.82808,-17.6 c -0.20817,-2.96068 4.54876,-32 5.24192,-32 0.37724,0 0.0635,3.72 -0.69737,8.26667 -2.82133,16.86104 -4.43516,25.28907 -4.54455,23.73333 z m 5.43876,-35.73333 c 0.0218,-1.76 0.2608,-2.35087 0.53124,-1.31303 0.27045,1.03783 0.25267,2.47783 -0.0396,3.2 -0.29214,0.72216 -0.51341,-0.12697 -0.49167,-1.88697 z m 1.55421,-9.6 c 0.31738,-3.52 0.77073,-6.6 1.00745,-6.84445 1.08915,-1.12469 1.01979,0.94222 -0.22967,6.84445 l -1.35483,6.4 z"
         style="fill:#59d5fd;stroke-width:1.06667" />
      <path
         id="path1442"
         d="m -244.99395,1435.1516 c 1.99017,-2.0534 3.85849,-3.7334 4.15182,-3.7334 0.29334,0 -1.09498,1.68 -3.08515,3.7334 -1.99016,2.0533 -3.85848,3.7333 -4.15182,3.7333 -0.29333,0 1.09499,-1.68 3.08515,-3.7333 z m 37.33334,-37.3334 c 16.71228,-16.72 30.62596,-30.4 30.91929,-30.4 0.29334,0 -13.14035,13.68 -29.85263,30.4 -16.71227,16.72 -30.62596,30.4 -30.91929,30.4 -0.29334,0 13.14035,-13.68 29.85263,-30.4 z m 129.066668,-138.6666 c 1.990165,-2.0534 3.858485,-3.7334 4.151818,-3.7334 0.293334,0 -1.094986,1.68 -3.085152,3.7334 -1.990165,2.0533 -3.858485,3.7333 -4.151818,3.7333 -0.293334,0 1.094986,-1.68 3.085152,-3.7333 z M 404.07273,787.15155 c 1.06187,-1.17334 2.17067,-2.13334 2.464,-2.13334 0.29334,0 -0.33546,0.96 -1.39733,2.13334 -1.06187,1.17333 -2.17067,2.13333 -2.464,2.13333 -0.29333,0 0.33547,-0.96 1.39733,-2.13333 z"
         style="fill:#90a9d9;stroke-width:1.06667" />
      <path
         id="path1440"
         d="m 21.73038,2027.6127 c -10.508566,-1.2943 -18.975414,-3.5281 -29.3729716,-7.7497 -4.7032424,-1.9096 -69.0313504,-37.2614 -142.9513484,-78.5596 -73.92001,-41.2982 -190.56001,-106.4482 -259.20001,-144.7776 -68.64,-38.3296 -124.92073,-70.0412 -125.06827,-70.4703 -0.14755,-0.4292 54.09245,-55.0223 120.53334,-121.3181 66.44087,-66.2959 279.2016,-278.7453 472.801607,-472.1098 C 453.8626,737.71878 414.97908,774.8706 432.87273,774.9014 c 7.77195,0.0133 10.66849,0.49633 15.21121,2.53616 7.24672,3.25409 16.43466,13.03435 18.82517,20.03882 0.96512,2.82801 15.67637,91.06184 32.69173,196.07517 35.36758,218.27835 97.47115,601.59025 109.6847,676.98965 l 8.23797,50.8563 -8.5921,4.7156 c -10.35798,5.6848 -381.92684,211.4956 -466.19201,258.2225 -32.93557,18.2634 -63.800859,34.6594 -68.800006,36.5472 -16.35136,6.1747 -36.074433,8.7171 -52.209014,6.7299 z"
         style="fill:#13cbfe;stroke-width:1.06667" />
      <path
         id="path1438"
         d="m -544.26603,1718.8849 c 0.32714,-1.76 7.81579,-49.28 16.64145,-105.6 8.82568,-56.32 29.24755,-186.4 45.38194,-289.0667 70.60063,-449.24721 89.14195,-567.30194 110.2331,-701.86666 12.32154,-78.61333 23.14902,-145.71608 24.06106,-149.11722 4.35507,-16.24064 17.63122,-26.34945 34.60539,-26.34945 10.98873,0 17.63225,2.57301 24.7142,9.57173 5.51974,5.45486 13.13601,19.233 102.02174,184.56161 52.83118,98.26667 98.503874,183.26092 101.494871,188.87611 l 5.438187,10.20945 -15.726592,29.25733 c -8.649626,16.09153 -16.721376,30.69728 -17.937226,32.45721 -1.21585,1.75995 -3.31086,5.83991 -4.65557,9.06657 -1.34472,3.22667 -2.81391,6.34667 -3.26488,6.93334 -0.45095,0.58666 -5.51888,10.18666 -11.26204,21.33333 -12.97938,25.19115 -32.87019,62.60925 -38.55751,72.53335 -11.5455,20.1464 -15.94682,28.4602 -34.44634,65.0667 -10.96973,21.7066 -21.37991,42.1066 -23.13376,45.3333 -1.75384,3.2267 -8.88187,16.6667 -15.84004,29.8667 -6.95817,13.2 -15.79628,29.3667 -19.64023,35.9261 -10.36891,17.6936 -13.08219,22.6881 -15.68367,28.8703 -1.29525,3.078 -3.26361,6.918 -4.37413,8.5333 -1.11053,1.6153 -3.10703,5.5769 -4.43667,8.8036 -1.32964,3.2267 -3.48135,7.5467 -4.78157,9.6 -1.30022,2.0533 -3.47715,6.3733 -4.8376,9.6 -1.36046,3.2267 -3.37396,7.1408 -4.47445,8.698 -1.10051,1.5572 -2.00091,3.1718 -2.00091,3.5879 0,0.8149 -19.07353,37.3906 -38.64907,74.1141 -2.03271,3.8133 -7.65543,14.3733 -12.49494,23.4667 -4.83951,9.0933 -10.95822,20.3733 -13.59712,25.0666 -2.63891,4.6934 -11.75773,22.2134 -20.26405,38.9334 -8.5063,16.72 -15.82486,30.88 -16.26345,31.4666 -0.43858,0.5867 -4.77643,8.7467 -9.63965,18.1334 -4.86322,9.3866 -13.15657,25.2266 -18.42965,35.2 -5.27308,9.9733 -11.99352,22.6933 -14.9343,28.2666 -2.94078,5.5734 -5.71185,10.6134 -6.15794,11.2 -0.4461,0.5867 -2.60038,4.4267 -4.78731,8.5334 -2.18692,4.1066 -4.57194,8.1866 -5.30006,9.0666 -0.72811,0.88 -2.18323,3.9023 -3.23362,6.7162 -1.05038,2.8139 -3.27608,7.2705 -4.94599,9.9037 -1.66989,2.6331 -3.03619,5.0544 -3.03619,5.3803 0,0.3261 -2.08068,3.0695 -4.62373,6.0964 -3.26977,3.8919 -5.83954,8.7831 -8.77567,16.7034 -3.45562,9.3217 -5.09519,12.2001 -9.77627,17.1631 -5.95958,6.3186 -7.95572,11.0697 -2.42433,5.7703 3.82857,-3.668 4.05409,-2.9516 0.76222,2.4212 -1.34078,2.1883 -3.0173,5.1788 -3.72559,6.6454 -0.7083,1.4667 -1.84699,3.6267 -2.53043,4.8 -0.68344,1.1734 -1.58088,2.8534 -1.9943,3.7334 -0.41343,0.88 -1.49448,1.6065 -2.40233,1.6144 -1.80341,0.016 -6.10957,3.5051 -6.10957,4.9509 0,0.4957 0.81742,0.9013 1.81648,0.9013 1.32264,0 0.69642,1.1471 -2.30339,4.2191 -3.23161,3.3095 -3.8587,4.5339 -2.90852,5.6787 0.90629,1.0921 0.89539,1.7756 -0.0433,2.7143 -0.96172,0.9617 -0.95006,1.2546 0.0499,1.2546 0.91029,0 0.7765,0.806 -0.44268,2.6667 -0.96099,1.4666 -2.53206,2.674 -3.49125,2.683 -1.35645,0.013 -1.42918,0.2158 -0.3273,0.9144 1.09756,0.6959 -0.25969,4.2365 -6.02476,15.717 -4.09282,8.1504 -8.72038,16.9789 -10.28346,19.6189 -2.54319,4.2954 -2.77946,4.4636 -2.24721,1.6 z M 67.185357,1109.9422 c -0.978614,-1.4936 -1.779296,-3.2674 -1.779296,-3.9418 0,-0.6745 -3.3104,-7.2914 -7.356449,-14.7042 C 51.771426,1079.7938 8.7731848,998.83521 -57.670497,873.41443 L -74.41311,841.81064 -35.321109,767.28109 C -13.820512,726.28984 5.379638,690.26779 7.3458887,687.23208 14.205868,676.64096 25.194817,671.408 38.980385,672.16768 c 10.301953,0.56772 17.64143,3.72279 24.062316,10.34385 2.806197,2.89368 25.56672,44.96696 77.955999,144.10319 l 73.99264,140.01628 -73.01334,73.0133 -73.013358,73.0134 z"
         style="fill:#13b2fd;stroke-width:1.06667" />
      <path
         id="path1436"
         d="m -544.58284,1723.0112 c 0.96274,-2.1941 11.07413,-21.4755 49.99039,-95.3263 22.72242,-43.12 67.36059,-127.84 99.19592,-188.2667 31.83533,-60.4266 69.516,-131.9466 83.73484,-158.9333 14.21884,-26.9867 44.94095,-85.3067 68.27136,-129.6 139.3826,-264.62111 162.494382,-308.37365 163.401017,-309.33168 0.276715,-0.2924 1.202837,0.42525 2.058037,1.59481 1.24656,1.70478 1.733451,1.83757 2.455275,0.66962 1.129173,-1.82703 -3.52464,-10.3472 65.181591,119.3339 31.237536,58.96005 61.049142,115.09805 66.248001,124.75115 5.198859,9.6531 9.45247,17.95 9.45247,18.4375 0,0.4875 0.759168,2.045 1.687029,3.4611 1.685643,2.5727 1.435957,2.8255 -303.57899,307.4292 -167.89631,167.6699 -305.99442,305.2713 -306.88469,305.7807 -0.91561,0.5239 -1.44215,0.5239 -1.21225,0 z"
         style="fill:#0f83f4;stroke-width:1.06667" />
    </g>
  </g>
</svg>
