<?xml version="1.0" encoding="UTF-8" standalone="no"?>
<svg
   xmlns:dc="http://purl.org/dc/elements/1.1/"
   xmlns:cc="http://creativecommons.org/ns#"
   xmlns:rdf="http://www.w3.org/1999/02/22-rdf-syntax-ns#"
   xmlns:svg="http://www.w3.org/2000/svg"
   xmlns="http://www.w3.org/2000/svg"
   xmlns:sodipodi="http://sodipodi.sourceforge.net/DTD/sodipodi-0.dtd"
   xmlns:inkscape="http://www.inkscape.org/namespaces/inkscape"
   version="1.1"
   id="svg833"
   width="100"
   height="100"
   viewBox="0 0 100 100"
   sodipodi:docname="evil_morty_white.svg"
   inkscape:version="1.0 (4035a4fb49, 2020-05-01)">
  <metadata
     id="metadata839">
    <rdf:RDF>
      <cc:Work
         rdf:about="">
        <dc:format>image/svg+xml</dc:format>
        <dc:type
           rdf:resource="http://purl.org/dc/dcmitype/StillImage" />
        <dc:title></dc:title>
      </cc:Work>
    </rdf:RDF>
  </metadata>
  <defs
     id="defs837" />
  <sodipodi:namedview
     inkscape:document-rotation="0"
     pagecolor="#ffffff"
     bordercolor="#666666"
     borderopacity="1"
     objecttolerance="10"
     gridtolerance="10"
     guidetolerance="10"
     inkscape:pageopacity="0"
     inkscape:pageshadow="2"
     inkscape:window-width="1920"
     inkscape:window-height="1001"
     id="namedview835"
     showgrid="false"
     inkscape:zoom="5.8460771"
     inkscape:cx="52.408255"
     inkscape:cy="43.598538"
     inkscape:window-x="-9"
     inkscape:window-y="-9"
     inkscape:window-maximized="1"
     inkscape:current-layer="g841" />
  <g
     inkscape:groupmode="layer"
     inkscape:label="Image"
     id="g841">
    <g
       transform="matrix(1.0954878,0,0,1.0954878,9.4395684,8.109646)"
       id="g1236">
      <g
         id="g1229">
        <path
           id="rect1187"
           style="fill:#ffffff;fill-opacity:1;stroke:none;stroke-width:0.593743;stroke-miterlimit:4;stroke-dasharray:none;stroke-opacity:1"
           d="m 40.911312,1.0582527 c -2.275051,0.018277 -4.767968,0.4336194 -9.693854,1.5050964 -1.762381,0.3833523 -4.107302,0.8663514 -5.210775,1.0731405 -2.442967,0.457809 -4.044511,0.9544798 -5.515723,1.7103369 -1.273052,0.6540489 -1.824234,1.0690455 -3.841586,2.8926947 -0.795501,0.7191187 -1.709767,1.441134 -2.031543,1.6041887 -1.935104,0.9805921 -5.1645992,4.3031631 -6.6428579,6.8342931 -1.1210106,1.919433 -1.5295672,3.306818 -1.9161914,6.506643 -0.2391324,1.979152 -0.3075008,2.29722 -0.4933126,2.29722 -0.6269629,0 -1.00355,1.496974 -0.5166288,2.053632 0.1209477,0.13827 0.152815,0.212515 0.070867,0.164745 -0.4053302,-0.236277 -2.4092071,3.466606 -3.1669616,5.852267 -0.7766601,2.445178 -0.6763929,3.57639 0.609892,6.883073 1.1053896,2.841649 1.087772,2.781132 1.4492611,4.949393 0.3673417,2.203368 0.7486913,3.110165 1.7732296,4.216786 0.3808266,0.41134 1.0566006,0.977629 1.501721,1.258748 0.4451205,0.28112 0.8093049,0.570516 0.8093049,0.643025 0,0.276165 0.5371208,1.365588 0.6414908,1.301083 0.060211,-0.03721 0.072201,0.02958 0.02669,0.148178 -0.055762,0.145315 -0.035213,0.186107 0.062891,0.125476 0.091504,-0.05655 0.1207215,-0.02495 0.078537,0.08498 -0.036911,0.09619 0.031164,0.254728 0.1512458,0.352191 0.1411177,0.114538 0.1849384,0.121466 0.1239431,0.01994 -0.1831697,-0.304887 -0.00112,-0.148042 0.8034743,0.691191 L 10.797718,55.07484 10.012344,54.324746 C 9.5803886,53.912251 9.2269701,53.63808 9.2269701,53.715469 c 0,0.206519 1.4800089,1.4541 1.6213699,1.366735 0.0662,-0.04091 0.161366,-0.0082 0.211375,0.07271 0.06033,0.09761 0.0315,0.116447 -0.08559,0.05553 -0.09707,-0.0505 -0.03989,0.02804 0.127009,0.17456 0.166897,0.146515 0.377172,0.237961 0.467237,0.2034 0.09007,-0.03456 0.202584,-7.4e-5 0.250032,0.0767 0.05533,0.08953 0.023,0.106891 -0.0902,0.04816 -0.09707,-0.05036 -0.06507,-0.0014 0.07118,0.10891 0.136242,0.110318 0.322812,0.17181 0.414775,0.13652 0.09201,-0.03529 0.132728,-0.0082 0.0905,0.06013 -0.04222,0.06832 -0.02576,0.124249 0.03651,0.124249 0.06227,0 0.272079,0.40978 0.466316,0.910849 0.582785,1.503405 1.437926,3.129773 1.594678,3.032897 0.08485,-0.05244 0.106478,-0.03062 0.05399,0.0543 -0.122707,0.198542 0.277556,0.931137 0.450364,0.824337 0.08392,-0.05187 0.104305,-0.02912 0.05123,0.05676 -0.0796,0.128793 0.846378,1.655114 1.004114,1.655114 0.03606,0 0.02508,-0.06532 -0.02424,-0.145109 -0.05429,-0.08785 -0.03452,-0.111145 0.05001,-0.0589 0.07678,0.04745 0.11282,0.156102 0.08007,0.241441 -0.03275,0.08534 0.117276,0.352284 0.333476,0.593019 0.216198,0.240733 0.323598,0.338765 0.238374,0.217819 -0.217712,-0.308965 -0.08507,-0.274375 0.201866,0.05277 0.13166,0.150107 0.168609,0.231827 0.08222,0.181312 -0.307759,-0.179955 -0.150271,0.133427 0.249419,0.496381 0.339428,0.308233 0.365323,0.317276 0.157075,0.05491 l -0.249419,-0.314149 0.279789,0.236531 c 0.153874,0.130184 0.247882,0.288235 0.208923,0.351271 -0.07655,0.123865 2.182519,2.490803 2.377292,2.490803 0.06485,0 0.04738,-0.085 -0.03866,-0.188674 -0.274212,-0.330407 -0.05608,-0.202069 0.26077,0.153395 0.227084,0.254757 0.24072,0.295277 0.05338,0.159222 -0.249642,-0.181302 -0.24974,-0.18063 -0.008,0.102466 0.133865,0.156752 0.309038,0.259973 0.389313,0.229171 0.08028,-0.03081 0.376354,0.150748 0.658057,0.403731 0.561507,0.504261 0.686303,0.565695 1.174994,0.577679 0.209876,0.0052 0.307743,0.06502 0.269359,0.165052 -0.03761,0.09801 0.05111,0.157965 0.23592,0.159223 0.162899,0.0011 0.381054,0.06118 0.484724,0.133759 0.144294,0.101023 0.114704,0.112312 -0.125784,0.04786 l -0.31415,-0.08436 0.251259,0.254939 c 0.138225,0.140095 0.760365,0.449375 1.382381,0.68751 1.227552,0.469956 2.018986,0.690044 1.696533,0.471837 -0.211286,-0.142979 -0.122915,-0.170432 0.177322,-0.05522 0.10893,0.0418 0.160851,0.136227 0.115353,0.209843 -0.05188,0.08394 -0.0047,0.103699 0.126395,0.05338 0.267544,-0.102667 0.608628,0.02516 0.506813,0.189901 -0.04887,0.07907 0.0274,0.09255 0.204933,0.0362 0.17753,-0.05635 0.253803,-0.04287 0.204934,0.0362 -0.101815,0.164741 0.239269,0.292569 0.506811,0.189902 0.140477,-0.05391 0.179383,-0.03207 0.118421,0.06657 -0.05806,0.09394 -0.0088,0.136397 0.13652,0.118112 0.302812,-0.03809 1.672296,0.422183 1.672296,0.562033 0,0.06058 0.04721,0.08107 0.10492,0.04541 0.133996,-0.08282 1.025895,0.187082 1.025895,0.310468 0,0.05105 0.127355,0.06507 0.282859,0.03098 0.230979,-0.05062 0.248169,-0.03645 0.09418,0.07823 -0.148582,0.110657 -0.115323,0.123403 0.157075,0.06013 0.212764,-0.04942 0.345441,-0.02811 0.345441,0.05522 0,0.07443 0.08501,0.102674 0.188675,0.06289 0.103669,-0.03978 0.188366,-0.01663 0.188366,0.05123 0,0.06787 0.127355,0.124675 0.282859,0.126088 0.155504,0.0014 0.86897,0.152654 1.585781,0.335932 0.716813,0.183276 1.932756,0.412697 2.701872,0.509881 0.769116,0.09718 1.709406,0.266375 2.089527,0.37612 0.380121,0.109745 1.367272,0.25604 2.193834,0.325194 0.826562,0.06915 1.532259,0.155402 1.568294,0.191435 0.151538,0.151539 4.128431,-0.04383 4.971176,-0.244203 0.483765,-0.115021 0.999323,-0.209228 1.145848,-0.209228 0.146528,0 0.619339,-0.112618 1.050439,-0.250339 0.431101,-0.13772 0.834123,-0.219132 0.895819,-0.181003 0.06169,0.03813 0.112283,0.01071 0.112283,-0.06074 0,-0.07798 0.154103,-0.09905 0.385324,-0.05277 0.211909,0.04238 0.608479,0.0036 0.881399,-0.08651 0.41169,-0.135871 0.484185,-0.208448 0.425514,-0.42582 -0.06271,-0.232341 -0.05517,-0.237218 0.06688,-0.04264 0.129886,0.207067 0.165818,0.205061 0.63873,-0.0362 0.27561,-0.140606 0.467942,-0.30953 0.427355,-0.3752 -0.04059,-0.06567 0.0083,-0.08787 0.108602,-0.04939 0.100267,0.03848 0.224804,7.85e-4 0.27703,-0.08375 0.06472,-0.104722 0.04278,-0.12114 -0.06933,-0.05185 -0.106534,0.06584 -0.134106,0.05236 -0.07823,-0.03804 0.04745,-0.07677 0.156816,-0.112522 0.242976,-0.07946 0.08616,0.03306 0.268103,-0.03019 0.404345,-0.140508 0.136244,-0.110275 0.168243,-0.159271 0.07117,-0.10891 -0.117039,0.06072 -0.145893,0.04203 -0.08559,-0.05553 0.05001,-0.08092 0.135081,-0.119826 0.18898,-0.08651 0.217315,0.134306 3.213784,-1.589807 4.201754,-2.417481 0.562782,-0.471471 1.277842,-1.04973 1.58885,-1.28513 1.094442,-0.82839 3.233488,-3.019415 2.513199,-2.574251 -0.224935,0.139016 -0.132513,-0.01798 0.154927,-0.263223 0.277517,-0.236777 0.278601,-0.23662 0.111057,0.01197 -0.09316,0.138226 0.03458,0.02519 0.283778,-0.251259 0.249195,-0.276452 0.427856,-0.571424 0.396982,-0.655602 -0.03088,-0.08418 0.0067,-0.191847 0.08345,-0.239295 0.09275,-0.05732 0.103804,-0.02707 0.03313,0.0902 -0.09081,0.150614 -0.07443,0.150376 0.111977,-9.42e-4 0.120081,-0.09746 0.189918,-0.251072 0.155234,-0.341455 -0.03468,-0.09038 -7.7e-5,-0.203196 0.0767,-0.250644 0.08985,-0.05553 0.106283,-0.02341 0.04633,0.0902 -0.05124,0.09707 0.02389,0.03503 0.166892,-0.137748 0.142998,-0.172782 0.233484,-0.387686 0.200944,-0.477666 -0.03254,-0.08994 -0.0063,-0.130892 0.0586,-0.09081 0.156742,0.09687 0.41792,-0.402624 0.305559,-0.584429 -0.05318,-0.08604 -0.03203,-0.107701 0.05338,-0.05491 0.278898,0.172368 2.520008,-4.734061 2.356737,-5.159543 -0.03798,-0.09895 -0.01905,-0.149113 0.04203,-0.111363 0.157775,0.09751 0.28365,-0.29514 0.189594,-0.591486 -0.05599,-0.176409 -0.03463,-0.22195 0.07332,-0.155234 0.110831,0.0685 0.128084,0.01704 0.06289,-0.188367 -0.05461,-0.172074 -0.0419,-0.253189 0.03221,-0.207388 0.235904,0.145797 1.306187,-4.107108 1.328999,-5.280723 0.0072,-0.368661 0.06374,-0.618871 0.130385,-0.577679 0.0708,0.04375 0.08367,-0.138801 0.03252,-0.458648 -0.056,-0.350186 -0.04124,-0.504003 0.04357,-0.45159 0.07074,0.04372 0.12885,-0.0018 0.12885,-0.10124 0,-0.09942 0.249245,-0.38497 0.554057,-0.634741 0.30481,-0.24977 0.819728,-0.807109 1.144008,-1.2385 0.568003,-0.755609 1.254274,-1.961466 1.166403,-2.049336 -0.02339,-0.02339 -0.238457,0.335374 -0.477974,0.797339 -0.435198,0.83938 -1.832067,2.440201 -2.567805,2.9427 -0.211282,0.144301 0.104344,-0.212918 0.701622,-0.793964 1.502847,-1.462009 2.407913,-3.103775 2.703405,-4.904602 0.07854,-0.478666 0.100754,-0.50933 0.173029,-0.235921 0.147773,0.559394 0.287731,-1.036674 0.148177,-1.691008 -0.06867,-0.321998 -0.09378,-0.554272 -0.05583,-0.516323 0.119019,0.119019 0.406185,-0.199895 0.406185,-0.450976 0,-0.131934 -0.08681,-0.273109 -0.192969,-0.313844 -0.156735,-0.06015 -0.178355,-0.218843 -0.115965,-0.844277 0.05641,-0.565486 0.0408,-0.720062 -0.05829,-0.581669 -0.103134,0.144034 -0.117406,0.09627 -0.06013,-0.202785 0.162533,-0.848634 -0.843808,-3.482492 -1.6815,-4.400553 -0.187758,-0.205773 -0.256448,-0.257686 -0.152779,-0.115659 0.186851,0.255985 0.185911,0.256112 -0.09142,0.02148 -0.153876,-0.130183 -0.246941,-0.28996 -0.206774,-0.354951 0.09963,-0.161211 -0.463965,-0.742339 -0.654683,-0.677694 l -0.233159,-0.274573 c -0.133866,-0.15794 -0.315806,-0.259159 -0.404344,-0.225182 -0.08854,0.03397 -0.199823,-0.0011 -0.24727,-0.07792 -0.05732,-0.09275 -0.02707,-0.103806 0.09019,-0.03313 0.144391,0.08702 0.148255,0.07147 0.02117,-0.08559 -0.223538,-0.276267 -2.133607,-1.148045 -2.548173,-1.16303 -0.192779,-0.007 -0.333737,-0.04122 -0.313229,-0.07578 0.06676,-0.112491 -0.28371,-0.364392 -0.38287,-0.275188 -0.053,0.04768 -0.05531,0.01553 -0.0052,-0.07148 0.125922,-0.218702 -0.03805,-0.681126 -0.204934,-0.577987 -0.07694,0.04755 -0.100129,0.02594 -0.05338,-0.0497 0.0983,-0.159046 -0.03191,-0.555635 -0.157075,-0.47828 -0.04789,0.0296 -0.169294,-0.0041 -0.269665,-0.07516 -0.151985,-0.107621 -0.147678,-0.118464 0.02516,-0.0635 0.239984,0.07631 0.353557,-0.22886 0.35618,-0.957175 0.0027,-0.762693 -0.298609,-1.337858 -0.748253,-1.427786 -0.513905,-0.102782 -0.587376,-0.464113 -0.252792,-1.243408 0.877897,-2.04475 1.058603,-4.788357 0.4611,-6.99781 -0.576987,-2.133583 -1.608318,-3.94725 -3.350727,-5.893377 -0.41455,-0.463057 -1.087818,-1.34172 -1.49651,-1.952438 C 59.659063,8.8602105 57.909439,7.2169902 56.086831,6.1867924 55.335101,5.7618891 50.565548,3.5276147 48.181546,2.4835676 45.993824,1.5254798 45.381066,1.3630503 43.195951,1.1628489 42.403995,1.0902897 41.669659,1.0521425 40.911309,1.0582354 Z M 69.051958,31.671907 c 0.005,-0.0076 0.07317,0.02472 0.208922,0.0905 0.155504,0.07536 0.282857,0.163298 0.282857,0.195423 0,0.09616 -0.06513,0.06827 -0.321513,-0.137134 -0.117117,-0.09383 -0.17531,-0.141201 -0.170266,-0.148791 z m 0.931712,0.532888 0.314149,0.251259 0.299424,0.2396 c -0.08353,0.03096 -0.25494,-0.06626 -0.381949,-0.21659 z m 2.001476,2.199049 c 0.03456,0 0.123596,0.113032 0.197572,0.251258 0.07397,0.138226 0.106037,0.251259 0.07148,0.251259 -0.03456,0 -0.123288,-0.113033 -0.197264,-0.251259 -0.07397,-0.138226 -0.106344,-0.251258 -0.07179,-0.251258 z m 1.388825,7.10948 c 0.0086,-0.01247 0.01893,0.01458 0.02976,0.08621 0.02889,0.191011 0.02799,0.473746 -0.0018,0.628299 -0.02983,0.154554 -0.0534,-0.0017 -0.05246,-0.347283 6.29e-4,-0.215978 0.01026,-0.346438 0.02454,-0.367224 z m -0.104615,1.736108 c -0.0156,0.0094 -0.04116,0.07559 -0.0816,0.201865 -0.05533,0.172783 -0.102265,0.398848 -0.104307,0.502517 -0.0023,0.115479 0.03814,0.09139 0.104307,-0.06258 0.0594,-0.138227 0.106351,-0.364599 0.104309,-0.502825 -0.0014,-0.101016 -0.0071,-0.148368 -0.0227,-0.138974 z m -4.685249,11.177783 c 0.01143,0.0017 0.02515,0.02101 0.04019,0.0586 0.03631,0.09071 0.03194,0.199072 -0.0098,0.240829 -0.04176,0.04176 -0.07172,-0.03228 -0.06627,-0.164745 0.0038,-0.09149 0.01685,-0.137563 0.03589,-0.134679 z m -55.563102,2.737459 c 0.02159,0.0063 0.06134,0.05449 0.116885,0.150019 0.07343,0.126131 0.106596,0.255719 0.07424,0.288072 -0.03235,0.03235 -0.09404,-0.03281 -0.137134,-0.145109 -0.07579,-0.197498 -0.08998,-0.303514 -0.05399,-0.292982 z m 53.859208,2.27053 c 0.01316,-3.14e-4 0.02086,0.01181 0.02086,0.03773 0,0.06911 -0.0548,0.210481 -0.121794,0.31415 -0.067,0.103669 -0.121794,0.132004 -0.121794,0.06289 0,-0.06911 0.0548,-0.21048 0.121794,-0.31415 0.04187,-0.06479 0.07899,-0.100103 0.100933,-0.100625 z m -1.034486,2.111 c 0.03456,0 0.0022,0.113341 -0.07179,0.251567 -0.07398,0.138224 -0.162707,0.251257 -0.197264,0.251257 -0.03456,0 -0.0025,-0.113033 0.07148,-0.251257 0.07397,-0.138226 0.163014,-0.251567 0.19757,-0.251567 z m -50.33576,0.377041 c 0.0065,-0.0065 0.05742,0.03168 0.157075,0.10983 0.120947,0.09486 0.219967,0.193567 0.219967,0.21966 0,0.103423 -0.103361,0.0369 -0.267519,-0.172415 -0.07815,-0.09965 -0.116009,-0.150587 -0.109523,-0.157075 z m 0.628299,0.879559 c 0.0065,-0.0065 0.05742,0.03168 0.157075,0.10983 0.120948,0.09485 0.219968,0.193872 0.219968,0.219966 0,0.103423 -0.103362,0.0366 -0.267519,-0.172721 -0.07815,-0.09965 -0.116009,-0.15059 -0.109524,-0.157075 z m 47.978103,1.508165 c 0.03456,0 -0.03934,0.113032 -0.164437,0.251257 -0.125095,0.138226 -0.255665,0.251259 -0.290221,0.251259 -0.03456,0 0.03934,-0.113033 0.164438,-0.251259 0.125093,-0.138225 0.255663,-0.251257 0.29022,-0.251257 z m -46.030311,0.816666 0.534116,0.496688 c 0.29373,0.2732 0.533808,0.513586 0.533808,0.534116 0,0.09507 -0.109286,-2.2e-5 -0.571237,-0.496688 z m 44.771872,0.697634 c 0.01871,-0.0048 0.02577,0.0065 0.02577,0.03007 0,0.02017 -0.268415,0.288887 -0.596701,0.597007 l -0.597007,0.560192 0.560193,-0.597007 c 0.390547,-0.416111 0.551603,-0.576 0.607745,-0.590258 z m -38.61466,3.515778 c 0.06911,0 0.210481,0.0548 0.31415,0.121794 0.10367,0.067 0.132004,0.121794 0.06289,0.121794 -0.06911,0 -0.21048,-0.0548 -0.314149,-0.121794 -0.10367,-0.067 -0.132005,-0.121794 -0.06289,-0.121794 z" />
        <g
           id="g1159"
           transform="matrix(0.15707491,0,0,0.15707491,-6.3333518,0.43525447)">
          <path
             id="path861"
             d="m 317.0826,465.15865 c -0.19937,-0.19566 -11.34249,-0.52134 -24.76249,-0.72373 -23.38677,-0.3527 -24.74881,-0.45886 -32.8,-2.55628 -4.62,-1.20357 -9.21,-2.19601 -10.2,-2.20542 -0.99,-0.009 -1.8,-0.37064 -1.8,-0.80272 0,-0.43208 -0.54,-0.57838 -1.2,-0.32511 -0.66,0.25327 -1.2,0.0727 -1.2,-0.40113 0,-0.53051 -0.84545,-0.66524 -2.2,-0.3506 -1.73418,0.40283 -1.94592,0.3218 -1,-0.38267 0.98033,-0.73009 0.8705,-0.82148 -0.6,-0.4992 -0.99,0.21698 -1.8,0.12861 -1.8,-0.19637 0,-0.78552 -5.67893,-2.50498 -6.532,-1.97775 -0.3674,0.22707 -0.668,0.0974 -0.668,-0.28827 0,-0.89034 -8.71864,-3.82018 -10.64647,-3.57766 -0.92544,0.11641 -1.23837,-0.15476 -0.86877,-0.7528 0.38811,-0.62796 0.1408,-0.76709 -0.75352,-0.42391 -1.70329,0.65362 -3.87465,-0.15967 -3.22646,-1.20848 0.31112,-0.5034 -0.17455,-0.58918 -1.30478,-0.23046 -1.13022,0.35872 -1.61589,0.27293 -1.30477,-0.23047 0.64819,-1.0488 -1.52317,-1.86209 -3.22646,-1.20848 -0.83482,0.32036 -1.13485,0.1931 -0.8046,-0.34128 0.28966,-0.46866 -0.0407,-1.06984 -0.73419,-1.33595 -1.91143,-0.73348 -2.4751,-0.55753 -1.12998,0.35273 2.05286,1.38919 -2.98493,-0.0121 -10.8,-3.00402 -3.96,-1.51606 -7.92,-3.48621 -8.8,-4.37811 l -1.6,-1.62163 2,0.53601 c 1.53104,0.41033 1.71863,0.33901 0.8,-0.30415 -0.66,-0.46208 -2.04,-0.84567 -3.06666,-0.8524 -2.28613,-0.015 -1.96031,-1.37148 0.82975,-3.45456 l 2.06222,-1.53966 15.08734,6.42793 c 36.20074,15.42324 62.40928,22.52252 93.49818,25.32646 15.0423,1.35668 25.30448,1.49906 33.18917,0.46045 2.86,-0.37673 10.24,-1.25851 16.4,-1.9595 13.09013,-1.48964 24.45364,-4.32715 31.2,-7.79076 2.64,-1.35539 13.8,-8.4293 24.8,-15.71981 18.0748,-11.9795 20.92828,-14.18474 29.64356,-22.90914 15.80237,-15.81893 26.15294,-33.58293 35.69073,-61.25366 2.76395,-8.0187 7.26182,-25.90722 8.6495,-34.4 0.5392,-3.3 1.17696,-6.54 1.41724,-7.2 0.24027,-0.66 0.35452,-2.03335 0.25386,-3.05187 -0.13452,-1.36129 1.5853,-3.69251 6.49206,-8.8 10.58132,-11.01421 15.47432,-22.30202 16.41147,-37.86008 l 0.46453,-7.71196 -2.71148,-0.5798 c -1.49131,-0.31889 -6.31148,-1.77852 -10.71148,-3.24363 -10.95997,-3.64942 -19.92561,-5.85556 -30.8,-7.57883 -5.06,-0.80186 -12.13684,-1.98971 -15.72631,-2.63966 -3.58947,-0.64996 -15.82947,-1.61061 -27.2,-2.1348 -20.54207,-0.947 -24.35645,-1.59036 -21.55852,-3.63627 1.84272,-1.34742 38.22679,-0.68407 46.08484,0.84023 3.3,0.64013 9.95999,1.72913 14.79999,2.42001 12.86464,1.83634 26.56932,4.77679 31.6,6.78005 2.42,0.96366 6.74,2.45681 9.6,3.31809 2.86,0.86128 5.57723,1.68707 6.03828,1.83508 0.57214,0.18367 0.63551,-1.67163 0.1996,-5.84373 -2.44299,-23.38214 -16.56103,-41.43131 -37.86435,-48.40758 -3.71686,-1.21718 -4.14745,-1.63076 -5.6,-5.37876 -0.86544,-2.23312 -1.98442,-4.40175 -2.48662,-4.81919 -0.59711,-0.49632 -2.80106,-0.0483 -6.36863,1.29448 -7.82486,2.94527 -26.40751,8.31946 -49.91827,14.43659 -11.22,2.91928 -20.51132,5.4162 -20.64737,5.54873 -0.13606,0.13254 -0.76586,4.20049 -1.39958,9.03989 -4.58963,35.04927 -19.84034,63.72105 -41.6096,78.22725 -8.62954,5.75039 -23.27452,12.67402 -31.09412,14.7002 -18.88735,4.89401 -38.15345,-1.4591 -56.08826,-18.49543 -6.48235,-6.15759 -14.57749,-16.07568 -17.97176,-22.01883 -3.08581,-5.40304 -6.87498,-16.48165 -8.48918,-24.82028 -1.58199,-8.17225 -1.79945,-23.9177 -0.42751,-30.95536 0.50773,-2.60449 0.77365,-4.88494 0.59094,-5.06766 -0.18272,-0.18271 -7.29176,-1.20968 -15.79788,-2.28215 -16.7723,-2.11468 -46.07946,-6.64024 -59.23375,-9.14676 -11.69982,-2.22938 -11.44553,-2.27729 -13.92956,2.6247 -3.43743,6.78345 -9.55787,22.78166 -12.17306,31.81918 -4.28225,14.79852 -8.92623,40.91764 -8.93073,50.22912 -0.002,2.63372 -0.39507,3.20771 -3.58188,5.22102 -7.6694,4.84525 -11.674843,12.48766 -12.226292,23.32784 -0.902228,17.73569 4.953072,28.32168 21.660252,39.1603 l 6.54935,4.24882 2.59532,6.71054 c 3.37957,8.73826 10.92072,22.25866 18.01038,32.29051 6.88658,9.74449 27.27614,30.34099 35.61602,35.97749 5.75775,3.89138 5.80471,3.95164 4.27279,5.48356 -1.41664,1.41662 -2.92159,1.49531 -6.20861,0.32461 -0.28671,-0.10212 -1.9629,-1.50342 -3.72486,-3.11402 -1.76197,-1.61059 -3.62172,-2.7679 -4.13279,-2.57179 -0.51106,0.19612 -1.62649,-0.45992 -2.47873,-1.45785 -1.53916,-1.8023 -1.53883,-1.80666 0.0505,-0.65243 1.19268,0.86619 1.10626,0.60811 -0.33945,-1.01378 -2.01719,-2.26301 -3.4063,-3.07929 -1.66055,-0.97579 0.54775,0.66 0.65815,1.2 0.24532,1.2 -1.24,0 -15.62137,-15.06795 -15.134,-15.85651 0.24802,-0.40132 -0.35056,-1.40777 -1.33019,-2.23657 l -1.78113,-1.50692 1.58749,2 c 1.32579,1.67029 1.16094,1.61265 -1,-0.34967 -2.54458,-2.31072 -3.5468,-4.30569 -1.58749,-3.16003 0.55,0.3216 0.3142,-0.19715 -0.524,-1.15279 -1.82676,-2.08271 -2.67144,-2.3045 -1.2854,-0.33751 0.54257,0.77 -0.13965,0.14605 -1.51605,-1.38655 -1.37641,-1.53261 -2.33198,-3.23108 -2.1235,-3.77439 0.20849,-0.5433 -0.0208,-1.23497 -0.5096,-1.53705 -0.53813,-0.33258 -0.6635,-0.1849 -0.31785,0.37438 0.31396,0.50798 0.38299,0.92361 0.15342,0.92361 -1.00421,0 -6.8991,-9.71706 -6.39234,-10.53703 0.33788,-0.54669 0.20728,-0.69064 -0.327,-0.36042 -1.10016,0.67993 -3.64797,-3.98565 -2.86677,-5.24966 0.33413,-0.54064 0.19713,-0.67812 -0.34308,-0.34425 -1.60417,0.99142 -12.07906,-21.67828 -10.89902,-23.58762 0.408,-0.66016 0.26127,-0.75987 -0.46116,-0.31339 -0.76262,0.47133 -0.92078,0.29319 -0.56435,-0.63566 0.36447,-0.9498 0.15452,-1.15975 -0.79528,-0.79528 -0.85367,0.32759 -1.09661,0.1815 -0.71771,-0.43158 0.35374,-0.57236 0.1657,-0.77057 -0.49172,-0.5183 -0.58547,0.22468 -1.77418,-0.16615 -2.64154,-0.86848 -0.86738,-0.70234 -1.07143,-1.01467 -0.45344,-0.69405 0.72064,0.37387 0.92663,0.26423 0.57437,-0.30574 -0.30207,-0.48877 -1.01837,-0.70864 -1.59176,-0.48861 -0.57339,0.22004 -1.91186,-0.36312 -2.97437,-1.29588 -1.06252,-0.93278 -1.42623,-1.4329 -0.80824,-1.1114 0.74548,0.38784 0.9288,0.26936 0.54472,-0.35209 -0.31839,-0.51516 -0.9237,-0.72355 -1.34513,-0.4631 -0.89995,0.5562 -10.323202,-7.38679 -10.323202,-8.70157 0,-0.49269 2.250002,1.25283 5.000002,3.87894 l 5,4.77474 -5.17689,-5.39978 c -5.122328,-5.34288 -6.282894,-6.34082 -5.11676,-4.39979 0.38832,0.64635 0.109224,0.60102 -0.789193,-0.12817 -0.764485,-0.6205 -1.197713,-1.62919 -0.962729,-2.24155 0.268559,-0.69986 0.08302,-0.90064 -0.499544,-0.54059 -0.624572,0.386 -0.755008,0.12512 -0.4,-0.8 0.289732,-0.75504 0.213152,-1.17896 -0.17018,-0.94204 -0.664467,0.41066 -4.084706,-6.5254 -4.084706,-8.28357 0,-0.46163 -2.31857,-2.30363 -5.152377,-4.09334 -2.833808,-1.78971 -7.136065,-5.39664 -9.560573,-8.01539 -6.522596,-7.04518 -8.950097,-12.81796 -11.288738,-26.84546 -2.301376,-13.80399 -2.188612,-13.41885 -9.225948,-31.50989 -8.188989,-21.05162 -8.826992,-28.2524 -3.882476,-43.81935 4.824166,-15.18805 17.581051,-38.7628 20.161543,-37.25856 0.521713,0.30412 0.31857,-0.16729 -0.45143,-1.04757 -0.909238,-1.03946 -1.4,-2.92324 -1.4,-5.37388 0,-4.49645 2.554569,-7.69312 6.163636,-7.71289 1.598269,-0.009 1.919332,-0.21302 1.125247,-0.71589 -0.939634,-0.59505 -0.836774,-2.89074 0.666482,-14.87491 2.493299,-19.87694 5.036938,-28.39812 12.073645,-40.44662 9.477681,-16.228035 29.972661,-37.267623 42.473761,-43.602411 2.1489,-1.088929 7.62899,-5.395191 12.17799,-9.56947 12.16969,-11.167226 17.04581,-14.864238 24.98477,-18.943134 9.41132,-4.835373 19.58765,-7.99349 35.16148,-10.912004 7.02514,-1.316501 21.95298,-4.39047 33.17298,-6.831043 41.81347,-9.0952591 56.09127,-10.764771 76.2589,-8.9169979 13.91129,1.274562 17.81321,2.3081156 31.7411,8.4076819 15.17748,6.646811 45.54294,20.871679 50.32875,23.576773 11.60343,6.558647 22.74077,17.020557 30.56301,28.709509 2.60189,3.888079 6.89003,9.481003 9.52919,12.428719 7.47381,8.34763 11.39392,13.964878 15.45973,22.152757 9.33773,18.80466 10.71723,38.39556 3.99306,56.70679 -1.13961,3.10337 -2.25047,7.04754 -2.46857,8.76481 -0.33586,2.6444 -0.19718,3.0458 0.90608,2.62244 3.68578,-1.41437 6.9013,2.78145 6.87782,8.97462 -0.017,4.49602 -0.75461,6.431 -2.26791,5.9498 -1.10033,-0.34988 -1.12697,-0.28259 -0.15937,0.40257 0.639,0.45248 1.41128,0.66851 1.71618,0.48007 0.79682,-0.49247 1.62681,2.03144 1.00102,3.04399 -0.29761,0.48153 -0.15,0.61889 0.3398,0.31619 1.04842,-0.64796 2.1178,2.29617 1.30924,3.60446 -0.38433,0.62184 -0.22359,0.71342 0.48431,0.27592 0.76262,-0.47133 0.92078,-0.2932 0.56435,0.63565 -0.36447,0.9498 -0.15452,1.15975 0.79528,0.79528 0.70978,-0.27236 1.08683,-0.16403 0.8379,0.24075 -0.24892,0.40477 0.55157,0.77224 1.77888,0.81659 2.63929,0.0954 14.79916,5.64544 16.22229,7.40426 0.80908,0.99993 0.78459,1.09907 -0.13465,0.54506 -0.74656,-0.44993 -0.9393,-0.37896 -0.57438,0.21149 0.30207,0.48877 1.01041,0.7117 1.57408,0.4954 0.56367,-0.21631 1.72214,0.42942 2.57438,1.43493 l 1.54952,1.82822 -2,-1.6 -2,-1.6 1.47517,1.74605 c 0.81134,0.96032 1.90862,1.57972 2.43839,1.37642 1.19483,-0.4585 4.82684,3.27954 4.18912,4.31139 -0.25572,0.41376 0.33656,1.43042 1.31619,2.25922 1.76562,1.49379 1.77069,1.4926 0.58113,-0.13709 -0.66,-0.9042 -0.18952,-0.5442 1.04549,0.8 3.22991,3.51547 8.87451,15.25134 8.87451,18.4513 0,1.48654 0.33843,2.4802 0.75667,2.22172 0.45264,-0.27975 0.53619,0.41084 0.20794,1.7187 -0.39512,1.57427 -0.28558,2.02371 0.39124,1.60541 0.69472,-0.42936 0.81151,0.4403 0.4476,3.33297 -0.36199,2.87748 -0.28105,3.49021 0.30569,2.31391 0.582,-1.16681 0.68114,-0.32859 0.3662,3.09601 -0.26982,2.93384 -0.0933,5.10401 0.47048,5.78329 0.66208,0.79775 0.66834,1.75856 0.0235,3.60826 -0.48335,1.38653 -0.67498,4.36406 -0.42583,6.61671 0.24914,2.25265 0.10294,5.53573 -0.32491,7.29573 -0.59784,2.45933 -0.8099,2.73708 -0.91617,1.2 -0.0761,-1.1 -0.80457,0.7 -1.61892,4 -3.49976,14.18213 -9.03712,22.61424 -22.00352,33.50617 -3.03603,2.55031 -3.06319,2.61133 -0.52993,1.19094 4.5196,-2.53414 14.72998,-13.84956 17.72871,-19.64743 1.52198,-2.94267 2.8891,-5.22847 3.03802,-5.07955 0.55941,0.55942 -3.81052,8.23636 -7.42664,13.04687 -2.0645,2.7464 -5.34135,6.29446 -7.2819,7.88459 -1.94054,1.59014 -3.52826,3.40902 -3.52826,4.04199 0,0.63296 -0.36849,0.92311 -0.81887,0.64475 -0.53989,-0.33367 -0.63466,0.64589 -0.27816,2.87531 0.40846,2.55438 0.30276,3.23433 -0.43216,2.78013 -0.73218,-0.45252 -0.83388,0.13954 -0.41111,2.39312 0.41951,2.23617 0.31823,2.84389 -0.4,2.4 -0.71576,-0.44236 -0.83108,0.19308 -0.45087,2.48436 0.39182,2.36119 0.30356,2.79907 -0.37866,1.87875 -0.68203,-0.92007 -0.77534,-0.45354 -0.4,2 0.3846,2.51403 0.29135,2.94276 -0.43502,2 -0.74364,-0.96517 -0.83,-0.76693 -0.44134,1.01305 0.72967,3.34172 -4.76335,24.12269 -6.14984,23.2658 -0.4718,-0.2916 -0.55167,0.22566 -0.20397,1.32115 0.41504,1.30769 0.30558,1.63607 -0.4,1.2 -0.68724,-0.42474 -0.82403,-0.13598 -0.46757,0.98711 0.5988,1.88665 -0.20264,4.38753 -1.2071,3.76674 -0.38885,-0.24032 -0.5092,0.0786 -0.26743,0.70856 1.03946,2.70878 -13.22912,33.94423 -15.00469,32.84687 -0.54375,-0.33606 -0.67836,-0.19719 -0.33982,0.35057 0.71533,1.15744 -0.94649,4.33772 -1.94437,3.721 -0.41288,-0.25517 -0.58121,0.005 -0.37405,0.5776 0.20715,0.57285 -0.36821,1.94155 -1.27859,3.04155 -0.91037,1.1 -1.38837,1.49437 -1.0622,0.87639 0.38171,-0.72323 0.27637,-0.9279 -0.29564,-0.57438 -0.48877,0.30208 -0.70801,1.02002 -0.4872,1.59544 0.22081,0.57541 -0.22401,1.55388 -0.9885,2.17438 -1.18674,0.96321 -1.29096,0.96387 -0.7128,0.005 0.44993,-0.74655 0.37896,-0.9393 -0.2115,-0.57438 -0.48877,0.30208 -0.72784,0.9877 -0.53126,1.52361 0.19657,0.53591 -0.94063,2.41438 -2.52711,4.17438 -1.58647,1.76 -2.39923,2.48 -1.80612,1.6 1.06664,-1.58259 1.05894,-1.58342 -0.70783,-0.076 -1.82996,1.56131 -2.41824,2.56104 -0.98622,1.67601 2.42986,-1.50174 0.0443,1.58875 -5.4177,7.01876 -5.72688,5.69331 -8.34019,7.65792 -6.892,5.18124 0.3216,-0.55 -0.19715,-0.31421 -1.15279,0.52399 -2.07329,1.8185 -2.33323,2.73325 -0.33751,1.18775 1.10305,-0.85421 1.07134,-0.69932 -0.14952,0.73026 -0.85224,0.99793 -2.01071,1.63745 -2.57438,1.42115 -0.56368,-0.21631 -1.27201,0.006 -1.57408,0.49539 -0.36492,0.59046 -0.17218,0.66142 0.57437,0.2115 0.95695,-0.57674 0.96076,-0.47641 0.0257,0.67639 -1.26716,1.56216 -2.87877,1.8441 -2.021,0.35357 0.33435,-0.581 0.27033,-0.72067 -0.15278,-0.33334 -0.40055,0.36667 -0.72827,1.05667 -0.72827,1.53334 0,0.47666 -0.50011,1.03336 -1.11136,1.23712 -0.74082,0.24694 -0.89965,0.0279 -0.47639,-0.65695 0.41946,-0.67869 0.31706,-0.83091 -0.30169,-0.4485 -0.51516,0.31838 -0.7407,0.89594 -0.5012,1.28347 0.59618,0.96463 -2.62305,2.59442 -3.7495,1.89825 -0.51887,-0.32069 -0.68797,-0.2061 -0.39511,0.26776 0.58741,0.95045 -20.60509,15.65237 -22.79511,15.81372 -0.79037,0.0582 -1.71437,0.41092 -2.05334,0.78376 -0.33896,0.37284 -0.16629,0.41893 0.38371,0.10241 0.54999,-0.31651 0.99999,-0.40359 0.99999,-0.19351 0,0.82125 -5.61484,3.79771 -6.33012,3.35565 -0.41763,-0.2581 -1.01982,-0.0478 -1.3382,0.46738 -0.38592,0.62443 -0.22982,0.72091 0.46833,0.28944 0.71377,-0.44114 0.85472,-0.33577 0.44268,0.33093 -0.33248,0.53798 -1.12681,0.77772 -1.76516,0.53277 -0.63834,-0.24496 -0.94921,-0.1033 -0.69082,0.31478 0.25839,0.41809 -0.97312,1.49629 -2.73669,2.396 l -3.20649,1.63584 -1.58641,-3.00516 c -0.87252,-1.65284 -1.58955,-2.64516 -1.59341,-2.20516 -0.004,0.44 0.50748,1.7 1.1363,2.8 0.62881,1.1 1.15606,2.21237 1.17164,2.47195 0.0602,1.00215 -6.38824,2.52473 -8.71872,2.05863 -1.34912,-0.27007 -2.45293,-0.16887 -2.45293,0.22464 0,0.70646 -48.12578,1.24558 -48.83751,0.54709 z m 94.53955,-25.10256 c 0.9951,-1.26885 0.9668,-1.29715 -0.30204,-0.30205 -0.77,0.60388 -1.4,1.23388 -1.4,1.4 0,0.65843 0.65695,0.23465 1.70204,-1.09795 z m -214.50204,-0.2 c -0.66,-0.42653 -1.56,-0.7755 -2,-0.7755 -0.44,0 -0.26,0.34897 0.4,0.7755 0.66,0.42653 1.56,0.77549 2,0.77549 0.44,0 0.26,-0.34896 -0.4,-0.77549 z m 217.70204,-2.2 c 0.9951,-1.26885 0.9668,-1.29715 -0.30204,-0.30205 -0.77,0.60388 -1.4,1.23388 -1.4,1.4 0,0.65843 0.65695,0.23465 1.70204,-1.09795 z m 22.69796,-17 c 2.16692,-2.2 3.75985,-4 3.53985,-4 -0.22,0 -2.17293,1.8 -4.33985,4 -2.16692,2.2 -3.75986,4 -3.53986,4 0.22,0 2.17294,-1.8 4.33986,-4 z m -274.79999,-1.83764 c 0,-0.13071 -1.53,-1.66071 -3.4,-3.4 l -3.4,-3.16236 3.16236,3.4 c 2.94096,3.16197 3.63764,3.76762 3.63764,3.16236 z M 447.9201,408.65609 c 0.7964,-0.88 1.26799,-1.6 1.04799,-1.6 -0.22,0 -1.05159,0.72 -1.84799,1.6 -0.79639,0.88 -1.26798,1.6 -1.04798,1.6 0.22,0 1.05159,-0.72 1.84798,-1.6 z m -301.99998,-9.10205 c 0,-0.16612 -0.63,-0.79612 -1.4,-1.4 -1.26885,-0.9951 -1.29715,-0.9668 -0.30205,0.30205 1.04509,1.3326 1.70205,1.75638 1.70205,1.09795 z m -4,-5.6 c 0,-0.16612 -0.63,-0.79612 -1.4,-1.4 -1.26885,-0.9951 -1.29715,-0.9668 -0.30205,0.30205 1.04509,1.3326 1.70205,1.75638 1.70205,1.09795 z m 317.59998,-2.89795 c 0.47096,-0.88 0.6763,-1.6 0.4563,-1.6 -0.22,0 -0.78534,0.72 -1.2563,1.6 -0.47096,0.88 -0.67629,1.6 -0.45629,1.6 0.22,0 0.78533,-0.72 1.25629,-1.6 z m 7.1755,-14.8 c 0,-0.44 -0.34897,-0.26 -0.7755,0.4 -0.42652,0.66 -0.77549,1.56 -0.77549,2 0,0.44 0.34897,0.26 0.77549,-0.4 0.42653,-0.66 0.7755,-1.56 0.7755,-2 z m -342.27783,-13.74 c -0.94307,-1.62177 -1.1708,-1.10268 -0.39882,0.90907 0.27435,0.71496 0.66735,1.13141 0.87333,0.92543 0.20597,-0.20597 -0.007,-1.0315 -0.47451,-1.8345 z m 353.24882,-18.01 c -0.25537,-0.63819 -0.44494,-0.44863 -0.48333,0.48333 -0.0347,0.84333 0.15435,1.31584 0.42018,1.05 0.26583,-0.26583 0.29425,-0.95584 0.0631,-1.53333 z m 3.2,-12.8 c -0.25537,-0.63819 -0.44494,-0.44863 -0.48333,0.48333 -0.0347,0.84333 0.15435,1.31584 0.42018,1.05 0.26583,-0.26583 0.29425,-0.95584 0.0631,-1.53333 z m -387.216647,-7.25 c -0.22193,-0.55 -0.403509,-0.1 -0.403509,1 0,1.1 0.181579,1.55 0.403509,1 0.22193,-0.55 0.22193,-1.45 0,-2 z m -0.775432,-4.38478 c -0.202835,-0.77837 -0.38213,-0.33522 -0.398434,0.98478 -0.0163,1.32 0.149652,1.95685 0.368791,1.41522 0.219138,-0.54162 0.232477,-1.62162 0.02964,-2.4 z M 508.09417,262.46709 c -0.18388,-1.21605 -0.33925,-0.411 -0.34526,1.789 -0.006,2.2 0.14445,3.19495 0.33434,2.211 0.18988,-0.98395 0.1948,-2.78395 0.0109,-4 z m -0.59724,-7.44225 c -1.88316,-1.19094 -2.83774,-0.88217 -1.13099,0.36584 0.8534,0.62402 1.72179,0.96445 1.92974,0.7565 0.20794,-0.20795 -0.15149,-0.713 -0.79875,-1.12234 z m -7.17683,-36.76875 c -0.47096,-0.88 -1.03629,-1.6 -1.25629,-1.6 -0.22,0 -0.0146,0.72 0.45629,1.6 0.47096,0.88 1.0363,1.6 1.2563,1.6 0.22,0 0.0146,-0.72 -0.4563,-1.6 z m -16.8,-17.17186 c 0,-0.20452 -0.81,-0.76437 -1.8,-1.24413 -1.7285,-0.83763 -1.73831,-0.82286 -0.24709,0.37185 1.63221,1.30767 2.04709,1.48446 2.04709,0.87228 z m -86.80929,-16.54255 c 8.35489,-2.20018 15.37432,-4.18395 15.59874,-4.40837 0.22442,-0.22442 -0.3114,-0.93309 -1.1907,-1.57483 -5.87948,-4.29093 -6.45355,-6.12823 -2.0496,-6.55961 1.73586,-0.17003 3.20638,0.26014 4.33839,1.26911 0.94186,0.83948 2.87879,2.32713 4.3043,3.30588 l 2.59183,1.77955 11.70692,-3.26875 c 6.43881,-1.79781 12.47248,-3.41296 13.40817,-3.58921 0.93568,-0.17626 1.88124,-0.38985 2.10124,-0.47465 0.22,-0.0848 0.67,-0.11155 1,-0.0594 4.7281,0.74654 -16.93876,-24.01483 -33.61107,-38.41147 -8.79405,-7.59372 -13.99613,-10.54495 -35.81904,-20.32075 -15.80959,-7.08208 -30.40345,-12.842035 -38.43329,-15.168987 -23.5584,-6.82696 -76.34505,-2.121168 -108.06716,9.633887 -15.66987,5.80669 -32.74299,14.96552 -44.94607,24.11121 -8.26879,6.19709 -22.42627,20.07924 -29.62705,29.05085 -6.81932,8.49633 -11.73162,15.83134 -11.0553,16.50767 1.57049,1.57049 43.4995,8.46721 62.48748,10.27828 18.87228,1.80004 18.99749,1.79001 20.86102,-1.67035 3.23867,-6.01384 12.18262,-11.66559 23.77893,-15.02607 7.65607,-2.21864 36.06028,-6.0984 44.46794,-6.07392 13.6276,0.0397 29.60756,3.30349 50.96362,10.40899 15.82509,5.26527 21.57415,8.1174 24.96106,12.38327 2.64325,3.32921 0.89431,3.49618 22.22964,-2.12228 z M 328.69787,153.4201 c -1.23434,-1.9972 -8.21202,-5.66065 -14.34438,-7.53113 -11.02744,-3.36359 -32.1627,-6.00663 -48.17623,-6.02463 -7.52368,-0.008 -9.85715,-0.87616 -9.85715,-3.6654 0,-1.41999 -1.02305,-1.22476 8.8,-1.6793 9.89766,-0.45798 23.82003,0.71587 40.23426,3.39233 12.58862,2.05266 17.8249,3.95029 23.2094,8.41106 2.49296,2.06529 2.99957,2.96375 2.8,4.96568 -0.25498,2.55771 -1.69224,3.7068 -2.6659,2.13139 z m 122.82223,16.03599 c 0,-0.44 -0.38124,-0.8 -0.84721,-0.8 -0.46597,0 -0.62472,0.36 -0.35279,0.8 0.27194,0.44 0.65319,0.8 0.84722,0.8 0.19403,0 0.35278,-0.36 0.35278,-0.8 z m 1.87607,-1.23451 c -0.26055,-0.67897 -0.64531,-1.06292 -0.855,-0.85322 -0.20971,0.2097 -0.14399,0.76523 0.14604,1.2345 0.78884,1.27637 1.2499,1.02841 0.70896,-0.38128 z m -157.2876,225.55629 c -0.99149,-0.99148 0.50724,-2.82579 3.30857,-4.04939 1.59663,-0.6974 5.60297,-1.7332 8.90297,-2.30177 3.3,-0.56857 11.04,-2.50604 17.2,-4.30549 10.54391,-3.08006 11.81891,-3.27403 21.76545,-3.31116 11.56928,-0.0432 13.32616,0.17107 23.60461,2.87857 8.19883,2.1597 8.62994,2.38024 8.62994,4.41467 0,1.92563 0.71919,1.96112 -11.20902,-0.5531 -14.93434,-3.14784 -24.0912,-2.98545 -39.99098,0.7092 -6.82,1.58478 -15.28,3.29674 -18.8,3.80435 -3.52,0.50763 -7.44531,1.43356 -8.72291,2.05764 -2.49515,1.21883 -3.92595,1.41917 -4.68863,0.65648 z m 86.61154,-52.05702 c -8.82938,-3.00881 -22,-11.98359 -22,-14.99135 0,-2.78567 2.19789,-2.27146 6.8,1.59088 2.42,2.03101 7.28,5.0941 10.8,6.80688 5.94855,2.89448 6.69236,3.06728 10.54475,2.4497 4.94296,-0.79242 7.78016,-2.50336 9.89045,-5.96434 3.45547,-5.66714 1.05952,-13.2858 -7.09759,-22.56896 -2.70039,-3.07316 -4.91606,-5.83332 -4.92371,-6.13366 -0.008,-0.30035 0.70526,-0.77434 1.58423,-1.05332 2.49205,-0.79094 11.56668,7.62072 14.52856,13.46716 3.3074,6.52847 3.74796,11.2629 1.46847,15.78084 -3.72607,7.38505 -9.27409,11.19106 -16.16329,11.08825 -2.32753,-0.0347 -4.77187,-0.24718 -5.43187,-0.47208 z m 123.33597,-64.26476 c 0.013,-0.66 0.31174,-2.1 0.66402,-3.2 0.51491,-1.60779 0.64512,-1.68623 0.66403,-0.4 0.013,0.88 -0.28588,2.32 -0.66403,3.2 -0.42122,0.98025 -0.67843,1.13518 -0.66402,0.4 z M 411.208,251.95322 c -0.74804,-0.82658 -1.43384,-2.52088 -1.52398,-3.76512 -0.12741,-1.75842 0.3269,-2.50286 2.03991,-3.34261 1.74744,-0.85664 2.10678,-1.46706 1.73518,-2.94761 -0.26515,-1.05642 -0.06,-2.11981 0.47246,-2.44887 1.12397,-0.69466 4.78854,1.10646 4.78854,2.35354 0,0.48186 1.44,1.49995 3.2,2.26244 1.76,0.76249 3.24265,1.83741 3.29478,2.38872 0.28982,3.06479 -1.12808,4.94099 -3.16741,4.19121 -0.58994,-0.2169 -2.08552,0.32689 -3.32349,1.20841 -2.82329,2.01036 -5.75181,2.04928 -7.51599,0.0999 z"
             style="fill:#000000;stroke-width:0.8" />
          <ellipse
             ry="62.838009"
             rx="58.344208"
             cy="256.76807"
             cx="446.82629"
             id="path873"
             style="fill:none;fill-opacity:1;stroke:#000000;stroke-width:3.89637;stroke-miterlimit:4;stroke-dasharray:none;stroke-opacity:1" />
        </g>
      </g>
    </g>
  </g>
</svg>
