<?xml version="1.0" encoding="UTF-8" standalone="no"?>
<svg
   xmlns:dc="http://purl.org/dc/elements/1.1/"
   xmlns:cc="http://creativecommons.org/ns#"
   xmlns:rdf="http://www.w3.org/1999/02/22-rdf-syntax-ns#"
   xmlns:svg="http://www.w3.org/2000/svg"
   xmlns="http://www.w3.org/2000/svg"
   xmlns:sodipodi="http://sodipodi.sourceforge.net/DTD/sodipodi-0.dtd"
   xmlns:inkscape="http://www.inkscape.org/namespaces/inkscape"
   sodipodi:docname="x-wing-white.svg"
   inkscape:version="1.0 (4035a4fb49, 2020-05-01)"
   id="svg8"
   version="1.1"
   viewBox="0 0 162 162"
   height="162mm"
   width="162mm">
  <defs
     id="defs2" />
  <sodipodi:namedview
     inkscape:document-rotation="0"
     inkscape:window-maximized="1"
     inkscape:window-y="-9"
     inkscape:window-x="-9"
     inkscape:window-height="1001"
     inkscape:window-width="1920"
     fit-margin-bottom="0"
     fit-margin-right="0"
     fit-margin-left="0"
     fit-margin-top="0"
     showgrid="false"
     inkscape:current-layer="layer1"
     inkscape:document-units="mm"
     inkscape:cy="368.60796"
     inkscape:cx="85.970531"
     inkscape:zoom="0.98994949"
     inkscape:pageshadow="2"
     inkscape:pageopacity="0"
     borderopacity="1.0"
     bordercolor="#666666"
     pagecolor="#4b4b4b"
     id="base" />
  <metadata
     id="metadata5">
    <rdf:RDF>
      <cc:Work
         rdf:about="">
        <dc:format>image/svg+xml</dc:format>
        <dc:type
           rdf:resource="http://purl.org/dc/dcmitype/StillImage" />
        <dc:title></dc:title>
      </cc:Work>
    </rdf:RDF>
  </metadata>
  <g
     transform="translate(-27.701967,-104.81495)"
     id="layer1"
     inkscape:groupmode="layer"
     inkscape:label="Layer 1">
    <g
       transform="translate(-8.0180858,-48.605449)"
       id="g4840">
      <path
         style="fill:#ffffff;stroke-width:0.264583"
         d="m 142.44726,286.67374 c 0.191,-0.0764 0.4192,-0.067 0.50712,0.0209 0.0879,0.0879 -0.0683,0.15045 -0.34727,0.13896 -0.30822,-0.0127 -0.37092,-0.0754 -0.15985,-0.15984 z m 20.37292,0 c 0.191,-0.0764 0.4192,-0.067 0.50712,0.0209 0.0879,0.0879 -0.0684,0.15045 -0.34727,0.13896 -0.30823,-0.0127 -0.37092,-0.0754 -0.15985,-0.15984 z m 11.07544,-5.48433 c -0.0788,-0.20537 -0.22768,-1.81615 -0.33082,-3.5795 l -0.18754,-3.20611 -0.48734,0.80137 c -0.26805,0.44075 -0.56435,0.80138 -0.65845,0.80138 -0.34827,0 -1.95335,-1.11009 -1.95335,-1.35097 0,-0.28154 1.99572,-3.55926 2.6028,-4.27477 0.34569,-0.40744 0.35631,-1.15979 0.0841,-5.95313 -0.1714,-3.01771 -0.38943,-7.62368 -0.4845,-10.23551 l -0.17286,-4.74873 -0.86975,-0.86976 c -1.1417,-1.1417 -1.2891,-2.09455 -0.92204,-5.96071 0.16683,-1.75736 0.27089,-3.22375 0.23124,-3.25863 -0.23877,-0.21001 -21.42663,-10.7082 -21.61172,-10.7082 -0.12473,0 -0.28905,0.23813 -0.36516,0.52916 -0.17972,0.68723 -0.50898,0.66686 -4.26795,-0.26399 l -3.15399,-0.78101 -1.79556,1.45075 c -2.75522,2.2261 -3.43646,2.55759 -5.25622,2.55759 -4.41104,0 -7.06171,-4.89538 -4.63568,-8.56136 0.37,-0.5591 0.55901,-1.01656 0.42001,-1.01656 -0.139,0 -0.3263,0.11906 -0.41624,0.26458 -0.0904,0.14621 -1.2825,0.26459 -2.66423,0.26459 h -2.50072 l -5.48733,2.81247 c -3.01802,1.54687 -7.51137,3.85263 -9.98522,5.1239 -2.47385,1.27128 -7.95073,4.07548 -12.17084,6.23157 -9.26172,4.7319 -8.78006,4.46112 -13.0651,7.3443 -4.58754,3.08671 -8.7766,5.13033 -13.899544,6.78084 -9.945511,3.20425 -19.957551,5.69921 -24.099941,6.00564 l -2.11666,0.15657 -2.64583,-1.39908 c -3.89089,-2.05744 -4.18946,-2.23292 -4.28453,-2.51813 -0.16473,-0.49418 4.34203,-5.80954 7.61541,-8.98176 4.34777,-4.21337 7.43657,-6.59662 13.73475,-10.59744 0.50932,-0.32354 2.34765,-1.32343 4.08518,-2.222 3.10462,-1.60555 3.178452,-1.62835 4.277599,-1.3206 1.086951,0.30433 1.19448,0.27452 3.8178,-1.05837 1.484652,-0.75434 3.310206,-1.70112 4.056786,-2.10395 0.74659,-0.40286 2.66711,-1.42079 4.26784,-2.26205 1.60073,-0.84128 3.98198,-2.09473 5.29167,-2.78543 1.30968,-0.69073 3.51235,-1.85041 4.89479,-2.57709 3.97065,-2.08717 8.22816,-4.33135 9.52501,-5.02074 0.65483,-0.34811 1.17768,-0.71583 1.16186,-0.81715 -0.0469,-0.30071 -0.42528,-1.37485 -0.48426,-1.37485 -0.0299,0 -2.06988,-0.29741 -4.5332,-0.66091 -2.46333,-0.36353 -4.50854,-0.66118 -4.54492,-0.66147 -0.0364,-2.6e-4 -0.0661,0.15604 -0.0661,0.34741 0,0.19137 -0.74415,0.60204 -1.65365,0.91259 -3.80412,1.29891 -8.62264,2.69223 -9.86936,2.85383 -1.19369,0.15471 -1.42549,0.0984 -2.16891,-0.5272 l -0.83239,-0.70041 -1.79983,0.51494 c -0.98991,0.28322 -3.942956,1.01198 -6.562325,1.61949 -2.619381,0.6075 -6.607971,1.55499 -8.863551,2.10553 -2.25557,0.55054 -5.06577,1.2231 -6.24489,1.49458 l -2.14386,0.49359 -0.3005,1.12353 c -0.16527,0.61794 -0.63605,1.49908 -1.04617,1.95807 -0.74056,0.82884 -0.75147,0.83156 -1.59054,0.39767 -0.46468,-0.24029 -0.84487,-0.47936 -0.84487,-0.53127 0,-0.0519 0.49318,-0.58754 1.09595,-1.19031 0.60277,-0.60277 1.03228,-1.15961 0.95448,-1.23741 -0.0778,-0.0778 -0.77934,0.0319 -1.55897,0.24383 -6.45159,1.75364 -8.31298,1.97834 -8.62535,1.04122 -0.11537,-0.3461 0.44567,-0.52991 5.87704,-1.92538 2.324,-0.59711 4.28853,-1.14908 4.36563,-1.22659 0.0771,-0.0775 -0.3063,-0.49943 -0.85201,-0.93756 -1.87138,-1.50247 -0.9335,-1.80458 1.00607,-0.32407 0.83282,0.6357 1.43083,0.90685 1.8062,0.81895 0.82258,-0.19262 8.34093,-2.15116 11.40909,-2.97207 5.439191,-1.45531 6.432641,-1.71342 9.854481,-2.56021 2.586095,-0.63997 3.504805,-0.97315 3.505725,-1.27139 0.002,-0.79239 0.83693,-1.58316 1.97239,-1.86908 0.96028,-0.2418 1.17253,-0.41442 1.30132,-1.05837 0.11546,-0.57731 0.30419,-0.77037 0.75583,-0.77318 0.33106,-0.002 1.85208,-0.42153 3.38005,-0.93217 1.52797,-0.51064 3.19485,-0.99349 3.70417,-1.07299 0.50932,-0.0795 3.18822,0.0453 5.95312,0.27721 4.5473,0.38151 15.8889,1.19377 16.75549,1.2 0.19322,10e-4 -0.1196,-0.5484 -0.69516,-1.22175 -1.1016,-1.28876 -1.35309,-1.43864 -9.71481,-5.78986 -2.76243,-1.43749 -6.57042,-3.42123 -8.46218,-4.4083 -1.89177,-0.98707 -4.7785,-2.482 -6.41495,-3.32206 -1.63644,-0.84005 -2.9759,-1.6762 -2.97656,-1.8581 -5.3e-4,-0.1819 -0.23519,-0.33073 -0.52116,-0.33073 -0.28598,0 -0.92198,-0.35298 -1.41333,-0.78439 l -0.89341,-0.78439 -13.922895,-0.18416 -13.922891,-0.18415 -0.24817,0.65273 c -0.30707,0.80767 -1.57597,2.34269 -1.93654,2.34269 -0.34024,0 -1.80392,-1.0359 -1.80122,-1.27479 10e-4,-0.0992 0.50713,-0.47807 1.12448,-0.84188 l 1.12244,-0.66145 -5.15938,-0.16326 c -2.83765,-0.0898 -5.36773,-0.17909 -5.62239,-0.19844 -0.33026,-0.0251 -0.46302,-0.26277 -0.46302,-0.82893 v -0.79377 h 5.82083 c 3.20146,0 5.82083,-0.0643 5.82083,-0.14282 0,-0.3418 -1.05697,-2.1725 -1.43587,-2.48695 -0.65483,-0.54346 -0.49848,-0.8877 0.31139,-0.68558 0.99924,0.24938 1.54449,0.79687 2.07766,2.08622 l 0.45356,1.09685 13.623341,-0.0732 13.623335,-0.0732 0.89168,-0.78291 c 0.49043,-0.43061 1.21694,-0.86538 1.61445,-0.96617 0.64826,-0.16435 11.61151,0.54925 13.32085,0.86706 2.00154,0.37214 2.42127,2.34754 0.86486,4.07029 -0.52624,0.58251 -0.81684,1.0591 -0.64572,1.0591 0.1711,0 3.69413,1.49933 7.82897,3.33185 l 7.51789,3.33186 1.1315,-0.39814 c 0.62232,-0.21898 2.91742,-0.59823 5.10023,-0.84279 2.5248,-0.28286 4.40195,-0.63531 5.15937,-0.9687 1.7375,-0.76477 8.35773,-1.69889 8.89282,-1.25479 0.62858,0.52166 1.42698,2.25426 1.41658,3.07402 -0.0193,1.52214 -1.49801,2.98196 -3.02391,2.98535 -0.71632,0.002 -0.74789,0.0381 -0.3643,0.42173 0.38361,0.3836 0.55821,0.38121 2.01521,-0.0276 l 1.59521,-0.44759 3.92847,1.21696 c 2.16067,0.66933 4.05343,1.38623 4.20615,1.59312 0.23469,0.31793 0.47688,0.27517 1.56469,-0.27627 0.70788,-0.35883 1.64061,-0.94993 2.07277,-1.31357 1.03786,-0.87329 2.33494,-1.49455 4.36241,-2.08942 1.64134,-0.48159 1.67229,-0.48102 2.38125,0.0441 1.05995,0.78512 1.90891,2.16802 1.90891,3.10948 0,1.11551 -0.63841,2.02054 -2.17393,3.08181 -0.42899,0.29649 0.54574,2.01697 1.30211,2.29832 2.63349,0.97962 3.77117,1.38423 4.67512,1.66268 0.58029,0.17874 1.07877,0.52078 1.1487,0.78817 0.12908,0.49361 0.11713,0.49073 6.55738,1.58376 13.74642,2.33304 19.23255,3.21067 19.34807,3.09513 0.0574,-0.0575 -0.0712,-0.60246 -0.28601,-1.21114 -0.48632,-1.37839 -0.25478,-2.0678 1.05787,-3.1498 1.3902,-1.14592 2.52089,-1.29647 4.04732,-0.53891 1.1438,0.56767 1.34713,0.83448 2.81797,3.69774 l 1.58521,3.08593 -0.57119,1.17568 -0.57119,1.17568 1.43309,3.54361 c 0.78819,1.94898 1.43585,3.60312 1.43925,3.67588 0.003,0.0728 0.22513,-0.15246 0.49274,-0.50052 l 0.48655,-0.6328 1.88881,0.46287 c 1.03884,0.25457 1.8888,0.57261 1.8888,0.70673 0,0.13413 -0.46641,0.83392 -1.03646,1.55507 -0.57004,0.72117 -1.1155,1.67122 -1.21214,2.1112 -0.0966,0.44 -0.28508,0.7324 -0.41876,0.64977 -0.35659,-0.22039 -0.35526,-0.21661 1.05775,2.97984 0.71544,1.61844 1.23137,3.01206 1.14652,3.0969 -0.0849,0.0849 -0.5483,0.15428 -1.0299,0.15428 -0.74474,0 -0.95187,-0.14831 -1.38578,-0.99218 l -0.51016,-0.99219 -0.18968,1.00616 c -0.18122,0.9613 -0.22661,0.99859 -1.01751,0.8362 -0.45531,-0.0935 -1.24456,-0.36766 -1.75387,-0.60929 -0.86921,-0.41237 -0.92269,-0.51126 -0.87123,-1.61134 0.0301,-0.64458 0.30201,-1.98589 0.60417,-2.98066 l 0.54936,-1.80868 -2.19167,-4.21021 -2.19168,-4.21024 -2.91042,-0.40837 c -1.60072,-0.22461 -4.87495,-0.6546 -7.27604,-0.95554 -2.40109,-0.30095 -6.15156,-0.78414 -8.33437,-1.07376 -2.18282,-0.28962 -5.75469,-0.7591 -7.9375,-1.04328 -2.18282,-0.28419 -5.33797,-0.69712 -7.01145,-0.91764 -3.67969,-0.48487 -9.99404,-1.18959 -10.6905,-1.19311 -0.47478,-0.002 -0.47815,0.026 -0.0583,0.48998 0.24515,0.27088 0.91871,0.7058 1.49682,0.96649 0.99308,0.44782 1.07876,0.44897 1.55206,0.0206 0.47879,-0.4333 0.65733,-0.36053 4.03429,1.64434 4.56957,2.71292 10.00258,5.91301 10.67708,6.28892 0.29105,0.1622 2.19605,1.28012 4.23333,2.48426 2.03729,1.20416 4.06135,2.39685 4.49792,2.65041 5.52686,3.21019 9.3585,5.61919 9.49232,5.9679 0.0909,0.23677 0.24107,1.58841 0.33382,3.00368 0.19338,2.95068 -0.0776,3.87961 -1.05988,3.63308 -0.57071,-0.14323 -0.57941,-0.10737 -0.41333,1.70443 0.0933,1.01793 0.11398,2.14196 0.0459,2.49787 -0.12406,0.64897 -1.25967,1.983 -1.68806,1.983 -0.12569,0 -0.22851,4.28625 -0.22851,9.525 0,8.87699 0.0313,9.525 0.46074,9.525 0.55251,0 3.24342,1.8063 3.24342,2.17719 0,0.14337 -0.20835,0.18006 -0.46302,0.0815 -0.97953,-0.37895 -1.81351,-0.43465 -2.51353,-0.16787 l -0.72761,0.27728 v 5.5628 5.56281 h -0.76545 c -0.42099,0 -0.82992,-0.16805 -0.90873,-0.37341 z"
         id="path4780-9-0"
         inkscape:connector-curvature="0" />
      <path
         style="fill:#000000;stroke-width:0.264583"
         d="m 174.31676,281.45002 c -0.21665,-0.1376 -0.38668,-1.38642 -0.50378,-3.70011 -0.0972,-1.92083 -0.27748,-3.49241 -0.40059,-3.49241 -0.1231,0 -0.22648,0.0893 -0.22971,0.19844 -0.003,0.10914 -0.22464,0.48293 -0.492,0.83066 -0.48446,0.63007 -0.48896,0.63055 -1.31704,0.14139 -0.457,-0.26996 -0.83091,-0.60863 -0.83091,-0.75261 0,-0.14398 0.64619,-1.28111 1.43598,-2.52695 l 1.43598,-2.26516 -0.36482,-7.80091 c -0.20065,-4.2905 -0.40036,-8.90389 -0.44379,-10.25197 -0.0735,-2.28132 -0.12764,-2.49205 -0.78166,-3.04271 -1.21239,-1.02081 -1.32369,-1.53172 -1.23346,-5.66201 l 0.0841,-3.8476 -10.81812,-5.41968 c -10.8746,-5.44797 -10.99127,-5.49366 -11.35902,-4.44777 -0.0991,0.28172 -3.42517,-0.31535 -5.96093,-1.07003 -2.48017,-0.73814 -1.32026,-0.65748 2.20537,0.15335 1.87587,0.43142 3.4333,0.78439 3.46094,0.78439 0.0277,0 0.19902,-0.35911 0.38083,-0.79803 0.22333,-0.53919 0.42684,-0.71927 0.62741,-0.55521 0.45936,0.37576 28.44839,14.31782 28.74338,14.31782 0.14342,0 0.26077,-0.0998 0.26077,-0.2218 0,-0.20314 -4.91782,-2.83479 -31.22084,-16.70708 -5.02047,-2.64781 -9.7368,-5.15252 -10.48074,-5.56602 l -1.35262,-0.75182 -2.15311,1.44153 c -2.25283,1.50828 -2.90405,2.3553 -1.10532,1.43765 2.27579,-1.16102 5.24471,-0.36829 6.75388,1.80336 0.7118,1.02426 0.79729,1.35759 0.79729,3.10885 0,1.07887 0.10969,1.96158 0.24375,1.96158 0.13406,0 0.47888,-0.20835 0.76626,-0.46302 0.30316,-0.26864 0.47758,-0.32138 0.41549,-0.12563 -0.20326,0.64076 -4.07455,3.50526 -5.12693,3.79358 -3.36464,0.92181 -6.74961,-1.63944 -6.74961,-5.10712 0,-1.35684 0.52184,-2.91506 1.24319,-3.71214 0.53928,-0.5959 0.2273,-0.95512 -0.45789,-0.52721 -0.29953,0.18706 -1.46925,0.32071 -2.80694,0.32071 h -2.2934 l -9.68258,4.92815 c -5.32543,2.71048 -11.58759,5.91008 -13.91593,7.11022 -2.32833,1.20014 -6.33703,3.26592 -8.90822,4.59063 -2.57119,1.3247 -6.14306,3.40992 -7.9375,4.63381 -5.87115,4.00442 -9.37991,5.62482 -17.51508,8.08872 -9.478355,2.8707 -18.812888,5.0443 -21.662789,5.0443 -1.436286,0 -1.875243,-0.15718 -4.858407,-1.73974 -1.803705,-0.95686 -3.279464,-1.82548 -3.279464,-1.93027 0,-0.50693 4.764448,-6.05239 7.438559,-8.65793 5.307401,-5.1713 10.978199,-9.27349 17.590953,-12.72509 3.354161,-1.75075 3.370063,-1.75579 4.545895,-1.4413 l 1.179962,0.31559 16.173881,-8.50828 c 8.89563,-4.67956 16.23242,-8.5614 16.30397,-8.62631 0.0716,-0.0649 -0.0773,-0.23407 -0.33073,-0.37591 -0.25345,-0.14183 -0.46082,-0.47116 -0.46082,-0.73183 0,-0.41185 -0.5633,-0.55138 -4.29948,-1.06492 -2.36471,-0.32503 -4.50784,-0.64964 -4.7625,-0.72136 -0.29456,-0.083 -0.46302,0.0154 -0.46302,0.27034 0,0.27872 -0.98678,0.72173 -3.24114,1.4551 -8.0709,2.62555 -9.47255,2.86367 -10.48881,1.78192 -0.50656,-0.53922 -0.71583,-0.5965 -1.43518,-0.39287 -1.16651,0.3302 -25.183195,6.0512 -25.402848,6.0512 -0.09782,0 -0.177858,-0.22355 -0.177858,-0.49677 0,-0.27323 -0.198087,-0.66018 -0.440193,-0.8599 -0.400021,-0.32998 -0.410612,-0.30761 -0.116049,0.24515 0.47282,0.88726 -0.02071,2.1226 -1.349134,3.37696 l -1.103369,1.04185 1.107497,-1.29402 c 1.254482,-1.46576 1.367522,-1.82198 0.512185,-1.61404 -7.851652,1.9088 -9.091143,2.16205 -9.392708,1.91909 -0.181901,-0.14655 -0.330729,-0.35244 -0.330729,-0.45754 0,-0.1051 2.232422,-0.76349 4.960937,-1.46308 2.728516,-0.6996 5.056941,-1.35583 5.174279,-1.45829 0.117338,-0.10247 -0.101605,-0.5606 -0.48654,-1.01807 -0.90175,-1.07166 -0.441535,-1.07641 0.703012,-0.007 l 0.88265,0.82452 8.339602,-2.17693 c 4.58678,-1.19731 9.827884,-2.57182 11.646894,-3.05445 1.819011,-0.48263 3.813672,-1.00982 4.432572,-1.17154 0.90833,-0.23733 1.19799,-0.46807 1.50247,-1.19677 0.31986,-0.76555 0.59542,-0.96618 1.81313,-1.32018 1.3057,-0.37958 1.4246,-0.47673 1.31095,-1.07122 -0.0892,-0.46668 -0.008,-0.65377 0.283,-0.65377 0.22439,0 1.99444,-0.49205 3.93345,-1.09345 l 3.52547,-1.09344 4.23334,0.30033 c 2.32833,0.16519 6.37646,0.47076 8.99583,0.67905 2.61938,0.2083 6.02695,0.45859 7.57238,0.55621 l 2.80988,0.17749 -1.48696,-1.5666 c -1.38726,-1.46155 -2.21437,-1.94475 -12.33488,-7.20607 -14.4448,-7.50936 -15.13081,-7.88338 -15.30846,-8.34632 -0.0842,-0.21938 -0.39078,-0.39887 -0.68132,-0.39887 -0.29055,0 -0.91937,-0.3409 -1.39737,-0.75755 l -0.8691,-0.75756 -14.08836,-0.10234 c -11.152847,-0.081 -14.088503,-0.17228 -14.089064,-0.43809 -4.5e-4,-0.20822 0.225442,-0.28924 0.594603,-0.21328 0.327422,0.0674 7.220141,0.19821 15.317154,0.29076 15.074567,0.17231 15.563877,0.14542 14.769587,-0.81163 -0.27284,-0.32876 -2.44782,-0.3853 -14.822226,-0.3853 -8.027458,0 -14.78403,0.10705 -15.133107,0.23978 -0.577414,0.21953 -0.653929,0.15254 -0.906507,-0.79376 -0.315267,-1.18115 -0.201343,-1.37451 0.195251,-0.33139 l 0.266949,0.70213 13.733829,-0.14797 13.733821,-0.14796 1.08809,-0.87441 c 1.2682,-1.01915 0.75778,-1.00049 9.12956,-0.33376 5.7533,0.4582 5.82949,0.47219 6.56687,1.20584 0.55587,0.55304 0.70207,0.89451 0.57351,1.33949 -0.25224,0.87315 -1.01998,1.87656 -1.69919,2.2208 -0.32963,0.16706 -0.47372,0.37449 -0.32428,0.46685 0.14791,0.0914 3.81073,1.71595 8.1396,3.61008 7.82885,3.42558 7.8752,3.44173 8.72415,3.03888 0.46941,-0.22275 1.26697,-0.40501 1.77236,-0.40501 1.15363,0 3.18278,1.11512 3.92443,2.15668 0.68269,0.95874 1.29443,2.89783 1.29443,4.10307 0,0.83685 0.0503,0.88399 0.94259,0.88399 0.51844,0 1.72423,-0.26789 2.67954,-0.59531 1.45833,-0.49982 1.84251,-0.76507 2.39511,-1.65364 0.88811,-1.42808 1.61883,-1.97147 2.66055,-1.9785 0.62045,-0.004 1.04686,0.19672 1.4757,0.69529 l 0.60312,0.70116 1.567,-0.52527 1.56701,-0.52527 4.0349,1.28735 c 2.78912,0.88989 4.03489,1.40741 4.03489,1.67619 0,0.51148 0.0607,0.50105 1.5875,-0.27262 0.71793,-0.3638 1.59919,-0.66146 1.95836,-0.66146 0.35916,0 0.96623,-0.11908 1.34903,-0.26462 0.82971,-0.31546 1.57968,0.002 2.42358,1.02619 0.31438,0.3815 0.65132,0.61467 0.74875,0.51816 0.27829,-0.27567 -0.68595,-1.56841 -1.5736,-2.10972 -0.59781,-0.36456 -0.67906,-0.4912 -0.3156,-0.49194 0.67404,-10e-4 2.21704,1.60019 2.44393,2.53665 0.10256,0.42331 0.39168,1.06731 0.6425,1.43111 0.25082,0.36381 0.69743,1.13867 0.99246,1.72191 0.51191,1.01197 0.68169,1.11283 3.71399,2.20627 2.14444,0.77328 3.21634,1.29407 3.29681,1.60179 0.10059,0.38465 2.15857,0.79583 13.15896,2.6291 7.17185,1.19523 13.08372,2.12916 13.13748,2.0754 0.0538,-0.0538 -0.0812,-0.60508 -0.30002,-1.22515 -0.50512,-1.43167 -0.30969,-2.18833 0.82182,-3.18181 1.06775,-0.9375 1.88676,-1.18569 3.13801,-0.95095 1.25716,0.23584 2.05758,1.15324 3.70942,4.25157 l 1.4106,2.64583 -0.5074,1.03943 c -0.27908,0.57169 -0.50741,1.20195 -0.50741,1.40057 0,0.35547 2.45029,6.65029 2.90476,7.46236 0.19221,0.34345 0.28149,0.28894 0.50967,-0.31121 0.15215,-0.40018 0.42841,-0.72256 0.61392,-0.71639 0.94745,0.0315 3.23973,0.7487 3.18644,0.99697 -0.0976,0.45452 -1.74189,2.70083 -1.87766,2.56506 -0.0676,-0.0676 0.20268,-0.61489 0.60061,-1.2162 0.39793,-0.60132 0.62371,-1.1826 0.50174,-1.29174 -0.12198,-0.10914 -0.73779,-0.32383 -1.36848,-0.47709 -1.13195,-0.27506 -1.15114,-0.26811 -1.49098,0.54013 -0.31495,0.74904 -0.26606,1.00064 0.57403,2.95407 0.50506,1.17441 1.37367,3.22478 1.93025,4.55638 l 1.01195,2.4211 -0.62061,0.11863 c -0.8216,0.15706 -0.9998,0.0151 -1.74375,-1.38894 l -0.63085,-1.19063 -0.0806,1.25677 c -0.0703,1.09529 -0.15528,1.25603 -0.66146,1.25096 -0.31945,-0.003 -1.08683,-0.2355 -1.7053,-0.51623 -0.95264,-0.43242 -1.12447,-0.62943 -1.12447,-1.28923 0,-0.78583 1.01599,-4.40468 1.18825,-4.23242 0.0511,0.0511 -0.13258,1.0391 -0.40811,2.19561 -0.57335,2.40649 -0.44864,2.74248 1.20647,3.25045 1.00545,0.30858 0.9342,0.3976 1.32166,-1.65132 0.0585,-0.30925 -1.26033,-3.16822 -3.17326,-6.87917 l -3.27332,-6.35 -1.27512,-0.18805 c -2.75973,-0.40699 -36.06732,-4.70615 -40.76699,-5.26198 -1.49314,-0.17659 -2.79218,-0.2437 -2.88675,-0.14913 -0.2944,0.29441 0.75189,1.22874 1.98855,1.77577 1.08198,0.47861 1.22174,0.48744 1.64551,0.10394 0.42952,-0.38871 1.61111,0.25565 16.29654,8.88705 8.70839,5.11839 15.99249,9.45732 16.18688,9.64207 0.43996,0.41813 0.85723,5.61268 0.5072,6.31408 -0.18076,0.36221 -0.41542,0.44288 -0.91994,0.31626 l -0.67728,-0.16999 0.18271,2.25172 c 0.20088,2.47579 -0.14734,3.67164 -1.16302,3.99401 -0.52012,0.16507 -0.53207,0.38383 -0.53207,9.74264 v 9.57377 l 1.17575,0.62373 c 0.64666,0.34305 1.37263,0.84128 1.61325,1.10716 0.41947,0.46352 0.3983,0.4714 -0.51407,0.19139 -0.52336,-0.16063 -0.89398,-0.34962 -0.82361,-0.42 0.17158,-0.17157 -0.70404,-0.82272 -1.12059,-0.83332 -0.25559,-0.007 -0.33073,1.42783 -0.33073,6.31328 0,5.52048 -0.053,6.34205 -0.41851,6.48229 -0.50433,0.19353 -0.43579,0.19807 -0.83454,-0.0552 z m 0.71983,-17.57742 c -0.002,-9.49523 -0.0915,-17.40099 -0.19843,-17.56834 -0.20536,-0.32145 -0.66137,-0.44021 -1.49188,-0.38853 -0.48554,0.0302 -0.49711,0.25369 -0.32013,6.18291 0.10098,3.38336 0.24075,7.10407 0.31059,8.26823 0.0699,1.16417 0.30696,6.10526 0.52692,10.98021 0.21997,4.87495 0.46373,9.0719 0.54171,9.32656 0.53198,1.73746 0.63493,-1.00265 0.63122,-16.80104 z m -2.1499,10.64334 c 0.4908,-0.66385 0.57801,-1.08012 0.51277,-2.4474 l -0.0786,-1.6475 -1.14149,2.06906 c -0.91231,1.65365 -1.07845,2.14501 -0.8275,2.44739 0.47501,0.57235 0.88281,0.46034 1.53483,-0.42155 z M 50.134939,256.24373 c 3.079919,-0.6331 7.62942,-1.78928 12.590076,-3.19956 10.585765,-3.00947 14.757655,-4.78009 20.656695,-8.76706 1.97833,-1.33709 3.79564,-2.55013 4.03847,-2.69565 0.24283,-0.14552 7.16825,-3.70365 15.38984,-7.90695 8.22158,-4.20331 16.39832,-8.40026 18.17054,-9.32657 l 3.2222,-1.68419 h 2.41484 2.41483 l 4.15255,-2.82769 c 2.2839,-1.55522 4.23803,-2.9542 4.34252,-3.10885 0.11369,-0.16826 -0.0988,-0.34309 -0.52916,-0.43535 -2.5583,-0.54845 -4.5366,-3.07608 -4.5498,-5.81314 -0.007,-1.53631 1.06958,-3.7507 2.19977,-4.52294 0.46042,-0.3146 0.95619,-0.70237 1.10171,-0.86171 0.14552,-0.15933 0.71107,-0.49613 1.25677,-0.74844 0.5457,-0.2523 0.99219,-0.57973 0.99219,-0.7276 0,-0.37589 -10e-4,-0.37555 -2.28375,0.66466 -2.56195,1.16752 -6.45132,2.48044 -7.96098,2.68736 -0.63074,0.0864 -1.19928,0.2421 -1.26342,0.34587 -0.0641,0.10378 -0.3177,1.42661 -0.56347,2.93961 -0.24577,1.51301 -0.49063,2.80347 -0.54415,2.8677 -0.0535,0.0642 -2.44583,0.43623 -5.31628,0.82669 l -5.21899,0.70992 -4.10104,-1.1451 c -2.25558,-0.6298 -4.45823,-1.2502 -4.8948,-1.37866 -0.72388,-0.21301 -2.44216,0.63466 -19.52134,9.63029 l -18.727602,9.86386 -1.048938,-0.37008 c -1.044117,-0.36839 -1.062614,-0.36306 -4.026571,1.16056 -6.588024,3.38657 -12.350775,7.50363 -17.585389,12.56348 -2.921578,2.82403 -7.485903,8.05559 -7.484413,8.57852 2.91e-4,0.10427 1.399282,0.92392 3.108854,1.82144 l 3.108314,1.63186 1.962007,-0.12551 c 1.079104,-0.069 3.103167,-0.36007 4.497917,-0.64677 z m 2.139035,-1.82998 c 0.218281,-0.14107 0.515937,-0.25648 0.661458,-0.25648 0.145521,0 0.08599,0.11541 -0.132292,0.25648 -0.218281,0.14106 -0.515937,0.25648 -0.661458,0.25648 -0.145521,0 -0.08599,-0.11542 0.132292,-0.25648 z m 2.38125,-0.92604 c 0.363802,-0.20797 0.780521,-0.37813 0.926041,-0.37813 0.145521,0 -0.03307,0.17016 -0.396875,0.37813 -0.363802,0.20796 -0.78052,0.37812 -0.926041,0.37812 -0.145521,0 0.03307,-0.17016 0.396875,-0.37812 z m 2.116666,-0.72861 c 0.206504,-0.23641 4.288094,-1.81837 4.400794,-1.70567 0.05523,0.0552 -0.703993,0.41275 -1.687166,0.79448 -2.404372,0.93354 -2.869596,1.08976 -2.713628,0.91119 z m 5.291667,-2.15943 c 0.363802,-0.19431 0.959115,-0.42741 1.322918,-0.51798 0.363802,-0.0906 0.185209,0.0644 -0.396876,0.34428 -1.197351,0.5758 -1.939481,0.71501 -0.926042,0.1737 z m -10.31875,-0.81613 c 0.493655,-0.50932 0.957086,-0.92604 1.029847,-0.92604 0.07276,0 -0.271609,0.41672 -0.765264,0.92604 -0.493655,0.50932 -0.957086,0.92604 -1.029846,0.92604 -0.07276,0 0.271608,-0.41672 0.765263,-0.92604 z m 12.700002,-0.0876 c 0.218278,-0.13487 0.694528,-0.32483 1.05833,-0.42215 0.459711,-0.12296 0.540409,-0.10213 0.264586,0.0683 -0.218284,0.13486 -0.694534,0.32483 -1.058336,0.42214 -0.459708,0.12296 -0.540406,0.10214 -0.26458,-0.0683 z m 9.086431,-0.97068 c 0.75091,-2.64794 0.76012,-2.95025 0.18238,-5.99277 -0.69995,-3.68616 -1.18536,-5.40711 -1.817224,-6.44278 -0.560761,-0.91913 -2.412897,-1.9889 -5.599507,-3.23422 -1.236927,-0.48339 -1.832237,-0.80348 -1.322914,-0.71131 1.342443,0.24293 4.833067,1.61869 5.855925,2.30799 1.31382,0.88538 1.95744,2.03274 2.58416,4.60664 1.11078,4.56192 1.3125,6.37125 0.8919,8.00008 -0.20825,0.8065 -0.50152,1.58543 -0.65171,1.73095 -0.18596,0.18017 -0.2252,0.0958 -0.12301,-0.26458 z m -19.93435,-0.5067 c 0.88651,-0.99373 5.618255,-4.79625 7.273095,-5.84478 2.055164,-1.30219 3.839404,-2.31085 3.839404,-2.17049 0,0.07 -0.863203,0.63746 -1.918228,1.261 -2.400604,1.41881 -5.060954,3.3706 -7.763877,5.69603 -1.150518,0.98984 -1.794196,1.46605 -1.430394,1.05824 z m 14.287499,0.10982 c 0.218284,-0.14106 0.51594,-0.25648 0.661461,-0.25648 0.145521,0 0.08599,0.11542 -0.132291,0.25648 -0.218282,0.14107 -0.515941,0.25648 -0.661459,0.25648 -0.145521,0 -0.08599,-0.11541 0.132289,-0.25648 z m 8.731261,-3.57547 c 0,-0.0675 0.98226,-0.61421 2.18281,-1.21483 1.20054,-0.60062 2.22036,-1.12568 2.26626,-1.16679 0.0459,-0.0411 -0.52545,-0.6443 -1.26967,-1.34043 -0.74421,-0.69613 -2.02936,-2.1667 -2.85588,-3.26794 -0.82652,-1.10123 -1.98073,-2.53803 -2.56492,-3.19287 -0.58418,-0.65485 -0.76729,-0.9525 -0.40689,-0.66146 0.84969,0.68618 0.89973,0.74344 2.84966,3.26135 1.95192,2.52044 4.21197,4.80844 4.74972,4.80844 0.20974,0 5.20683,-2.50726 11.10463,-5.57169 12.31147,-6.39689 26.47753,-13.66142 27.93125,-14.32348 2.15112,-0.97968 0.7957,-0.15654 -3.0427,1.84782 -18.08503,9.44376 -23.10464,12.04587 -30.75782,15.94454 -8.45528,4.30728 -10.18645,5.13618 -10.18645,4.87734 z m -22.559237,-3.08676 c -0.83867,-0.45502 -1.473643,-0.87851 -1.411052,-0.9411 0.151656,-0.15166 2.268388,0.8198 2.935904,1.34741 0.861975,0.68131 0.110994,0.4812 -1.524852,-0.40631 z m 1.420253,-0.88662 c -0.785134,-0.36549 -1.358305,-0.73373 -1.273715,-0.81832 0.167459,-0.16746 3.098106,1.10113 3.098106,1.34108 0,0.26056 -0.368464,0.15498 -1.824391,-0.52276 z m 3.225905,0.26847 c 0.118291,-0.13521 -0.636846,-0.68394 -1.719791,-1.24971 -1.061875,-0.55476 -1.633025,-0.9333 -1.269223,-0.84118 0.363802,0.0921 1.302471,0.5091 2.085931,0.92664 0.783459,0.41755 1.545145,0.6846 1.692634,0.59344 0.147489,-0.0911 -0.612585,-0.59616 -1.689055,-1.12223 -1.409246,-0.6887 -2.123891,-0.90165 -2.552531,-0.76059 -0.327422,0.10775 -0.595312,0.1461 -0.595312,0.0852 0,-0.18462 6.636067,-4.24509 8.334375,-5.09964 l 1.587501,-0.79878 2.315104,0.94573 c 1.273305,0.52015 2.315105,1.01774 2.315105,1.10575 0,0.088 -2.11336,1.3989 -4.696355,2.91309 -2.582996,1.5142 -4.994012,2.93089 -5.357814,3.1482 -0.363802,0.21731 -0.566558,0.28664 -0.450569,0.15406 z m 5.627461,-3.57194 c 2.173179,-1.34177 3.997849,-2.482 4.054827,-2.53385 0.125947,-0.11462 -2.143702,-1.10341 -3.061472,-1.33376 -0.574509,-0.14419 -0.648309,-0.087 -0.570765,0.44189 0.06084,0.41498 0.382529,0.71516 1.015103,0.94721 l 0.926039,0.33972 -1.08754,-0.14694 c -0.903754,-0.1221 -1.718099,0.10371 -4.818625,1.33618 -2.052095,0.81572 -3.854653,1.48312 -4.005686,1.48312 -0.151033,0 -0.268459,0.0893 -0.260947,0.19844 0.01839,0.2671 3.219134,1.85316 3.575734,1.77188 0.155157,-0.0354 2.060157,-1.16212 4.233332,-2.50389 z m -3.4571,-1.41163 c 2.785847,-1.13817 3.45565,-1.51429 3.524132,-1.97898 0.04895,-0.33218 -0.05713,-0.57374 -0.251973,-0.57374 -0.346665,0 -7.373201,3.91552 -7.373201,4.1087 0,0.12685 -0.252345,0.22259 4.101042,-1.55598 z m 18.256258,-3.80314 c 0.53217,-0.54276 29.2283,-15.25014 29.40682,-15.07162 0.0677,0.0677 -1.28244,0.8657 -3.00023,1.77341 -5.63206,2.97609 -26.6774,13.5744 -26.40659,13.29821 z m 43.98257,-11.48246 c 0.17947,-0.18082 0.39297,-0.26211 0.47443,-0.18065 0.0815,0.0815 -0.0654,0.22941 -0.32632,0.32877 -0.37708,0.14358 -0.40747,0.11319 -0.14811,-0.14812 z m -9.43356,-1.44442 c 0.0127,-0.30823 0.0754,-0.37092 0.15985,-0.15985 0.0764,0.19099 0.067,0.41919 -0.0209,0.50711 -0.0879,0.0879 -0.15046,-0.0684 -0.13897,-0.34726 z m -0.2437,-1.16858 c 0,-0.3638 0.0601,-0.51263 0.13346,-0.33073 0.0734,0.1819 0.0734,0.47956 0,0.66146 -0.0734,0.1819 -0.13346,0.0331 -0.13346,-0.33073 z m -3.81649,-1.62033 c 0.17947,-0.18082 0.39297,-0.26212 0.47443,-0.18065 0.0815,0.0815 -0.0654,0.2294 -0.32632,0.32876 -0.37708,0.14359 -0.40747,0.1132 -0.14811,-0.14811 z m 62.7768,30.77741 c 0,-1.41088 0.32706,-1.905 1.26094,-1.905 1.17832,0 1.62186,0.45833 1.80904,1.86939 l 0.17652,1.33069 0.62571,-0.58783 c 1.07361,-1.0086 0.73215,-2.53456 -0.73719,-3.29438 -0.89755,-0.46414 -2.17543,-0.34779 -3.4566,0.31474 -0.40522,0.20954 -0.73675,0.26871 -0.73675,0.13149 0,-0.13722 0.53481,-0.45374 1.18848,-0.70338 1.38875,-0.53037 3.08994,-0.39971 3.85914,0.29641 0.48905,0.44259 0.50863,0.43454 0.50863,-0.20909 0,-2.0476 -0.18439,-2.27797 -2.92365,-3.65259 l -2.58662,-1.29803 -0.19315,2.30598 c -0.33403,3.98799 -0.29033,5.17392 0.21941,5.95384 0.68635,1.05012 0.98609,0.88225 0.98609,-0.55224 z m 5.96172,-8.05656 c -0.23654,-2.88816 -0.22924,-2.87062 -1.52805,-3.66856 -1.59029,-0.97701 -23.29737,-13.74861 -29.38129,-17.2868 -1.1958,-0.69544 -1.29524,-0.71189 -1.76004,-0.29125 -0.46417,0.42006 -0.56909,0.40709 -1.81545,-0.22449 -0.72754,-0.36868 -1.61483,-1.04345 -1.97174,-1.4995 -0.64046,-0.81836 -0.65963,-0.82365 -1.46807,-0.40559 -0.45052,0.23297 -1.03471,0.42359 -1.29818,0.42359 -0.26348,0 -0.95401,0.41517 -1.5345,0.92259 -0.58049,0.50743 -1.2638,0.9917 -1.51846,1.07616 -0.25466,0.0845 -0.46302,0.23644 -0.46302,0.33773 0,0.19705 1.0862,0.78075 22.62187,12.15637 7.71261,4.07397 15.39214,8.13283 17.06563,9.01969 1.67349,0.88686 3.08487,1.61481 3.13639,1.61767 0.0515,0.003 0.0132,-0.97706 -0.0851,-2.17761 z m 17.5862,-3.12131 c 0,-0.15238 -0.99372,-2.62292 -2.20827,-5.49011 -1.21455,-2.86718 -3.01014,-7.26032 -3.9902,-9.76252 -0.98006,-2.50221 -1.93948,-4.68023 -2.13205,-4.84004 -0.40387,-0.33519 -1.35544,-0.14642 -2.12005,0.42058 -0.52516,0.38943 -0.52437,0.3995 0.1181,1.50549 0.68731,1.18316 5.95751,11.19412 8.28183,15.73165 0.76405,1.49158 1.53801,2.71197 1.71991,2.71198 0.1819,1e-5 0.33073,-0.12466 0.33073,-0.27703 z m -59.66354,-4.83159 c 0.78253,-0.30863 0.77267,-0.31533 -0.69767,-0.47453 -1.98344,-0.21476 -3.79786,-1.12587 -4.60369,-2.31176 -0.35847,-0.52754 -0.65177,-1.07823 -0.65177,-1.22375 0,-0.14552 0.30213,0.18003 0.67139,0.72345 1.66519,2.45055 6.2327,3.1387 7.58233,1.14237 0.17545,-0.25952 -3.28175,-2.27215 -3.90299,-2.27215 -0.15729,0 -0.49045,0.38695 -0.74036,0.8599 -0.24991,0.47294 -0.37527,0.62177 -0.27856,0.33073 0.51909,-1.56227 0.483,-1.65482 -0.92321,-2.3674 -0.74265,-0.37632 -1.35026,-0.74376 -1.35026,-0.81652 0,-0.0728 0.59531,0.16938 1.32291,0.53808 l 1.32292,0.67038 v -0.66088 c 0,-0.47078 0.17673,-0.70523 0.61441,-0.81508 0.39459,-0.099 0.74909,-0.50314 0.99087,-1.12952 0.20705,-0.53642 0.41674,-1.06461 0.46597,-1.17375 0.0492,-0.10914 -0.59097,-0.19844 -1.42266,-0.19844 -1.07013,0 -1.77267,0.161 -2.4033,0.55075 -1.02816,0.63543 -1.11398,0.93036 -0.34202,1.17537 0.30201,0.0959 0.49113,0.23226 0.42027,0.30312 -0.0709,0.0709 -0.44579,-0.0372 -0.83316,-0.24019 -0.62537,-0.32766 -0.65764,-0.40776 -0.28797,-0.71456 0.22898,-0.19004 0.41634,-0.47229 0.41634,-0.62722 0,-0.64427 -1.59571,1.31031 -1.97249,2.41611 -0.56486,1.65776 -0.51567,2.37443 0.27136,3.95379 1.25469,2.51785 3.66024,3.41516 6.33134,2.3617 z m 2.85956,-4.65857 c -0.022,-1.45631 -0.89111,-3.29204 -1.85812,-3.92461 -0.55981,-0.36619 -0.61204,-0.32988 -1.16614,0.81063 -0.54013,1.11174 -0.54988,1.2242 -0.14155,1.63252 0.5589,0.5589 0.55352,0.83927 -0.0223,1.1615 -0.56775,0.31773 -0.48638,0.40128 1.28735,1.32195 0.78234,0.40607 1.53448,0.64042 1.67143,0.52078 0.13695,-0.11964 0.24014,-0.80489 0.22931,-1.52277 z m -3.25644,-0.97928 c 0,-0.20131 -0.17859,-0.36602 -0.39687,-0.36602 -0.21828,0 -0.39688,0.0498 -0.39688,0.11065 0,0.0609 -0.0689,0.2903 -0.15319,0.50987 -0.11504,0.29979 -0.0162,0.36338 0.39688,0.25536 0.30253,-0.0791 0.55006,-0.30855 0.55006,-0.50986 z m -91.942711,-4.4845 c 3.773082,-0.88242 5.479553,-1.44472 4.352396,-1.43418 -0.58789,0.006 -9.287248,2.32805 -9.477083,2.53018 -0.09184,0.0978 0.07115,0.11396 0.362187,0.0359 0.291041,-0.078 2.434166,-0.5874 4.7625,-1.13193 z m 142.478131,-0.64402 c 0,-0.14552 -0.3729,-0.26458 -0.82867,-0.26458 -0.45576,0 -1.1999,-0.22285 -1.65364,-0.49523 -0.45374,-0.27237 -1.4203,-0.56412 -2.1479,-0.64832 -0.7276,-0.0842 -5.54964,-0.69094 -10.71562,-1.34828 -20.97044,-2.66839 -18.78542,-2.4469 -18.78542,-1.90423 0,0.38965 0.27379,0.43748 8.59896,1.5021 5.64303,0.72163 25.37711,3.35016 25.46614,3.39202 0.0364,0.0171 0.0661,-0.088 0.0661,-0.23348 z m -0.26458,-0.66547 c 0,-0.075 -0.36649,-0.78567 -0.81441,-1.57934 -0.44792,-0.79368 -0.73803,-1.56663 -0.64468,-1.71767 0.31279,-0.5061 1.75151,-1.0972 2.46884,-1.01434 0.54155,0.0626 0.867,0.38007 1.3715,1.33804 0.3638,0.6908 0.73164,1.25634 0.81742,1.25677 0.0858,5.3e-4 0.29394,-0.30204 0.46256,-0.67214 0.2539,-0.55724 0.21514,-0.85216 -0.22551,-1.71592 -1.06767,-2.0928 -2.92536,-2.39018 -5.07154,-0.81187 -1.09055,0.802 -1.71755,1.05752 -1.42216,0.57956 0.0815,-0.13193 0.70429,-0.60818 1.38389,-1.05833 0.99773,-0.66087 1.51028,-0.81846 2.662,-0.81846 h 1.42636 l -0.70538,-1.29601 c -0.898,-1.64994 -1.99433,-2.28141 -3.58947,-2.0675 -1.20095,0.16105 -2.61734,1.33767 -2.61734,2.17428 0,0.21445 0.35708,1.6616 0.79352,3.21588 0.79402,2.82778 1.25765,3.6674 2.24919,4.07323 0.60759,0.24868 1.45521,0.31498 1.45521,0.11382 z m -129.513551,-1.7251 c 5.818608,-1.39909 18.983231,-4.51264 20.746611,-4.90676 0.62785,-0.14032 0.63001,-0.15078 0.1323,-0.63934 -0.49522,-0.48611 -0.56796,-0.48013 -3.41641,0.28097 -5.001498,1.33639 -18.646146,4.91299 -21.76198,5.70436 -1.63711,0.41579 -2.976563,0.84635 -2.976563,0.95679 0,0.33347 0.41238,0.25435 7.276042,-1.39602 z m 126.202261,0.34005 c -0.1061,-0.25466 -0.30711,-0.9692 -0.44669,-1.58786 -0.18606,-0.82468 -0.40689,-1.15973 -0.82759,-1.25561 -0.47522,-0.10832 -14.70035,-2.49247 -23.84791,-3.99695 -1.30461,-0.21456 -2.44805,-0.51315 -2.54098,-0.66352 -0.2458,-0.39771 -2.88403,2.69944 -2.88847,3.39091 -0.005,0.72013 -1.26044,0.50426 14.41605,2.47805 6.985,0.87946 13.35484,1.69677 14.15521,1.81625 2.21861,0.33118 2.19478,0.33336 1.98038,-0.18127 z m -41.87736,-3.39597 c 3.27208,-2.30477 3.02216,-7.32345 -0.46298,-9.29743 -1.13322,-0.64185 -3.02265,-0.79345 -4.2192,-0.33852 -0.75524,0.28714 -2.0966,2.80526 -1.93856,3.63922 0.13078,0.69011 1.87313,0.77563 2.50688,0.12305 0.26778,-0.27575 0.69524,-0.57621 0.9499,-0.66771 0.29981,-0.10771 0.46302,-0.44355 0.46302,-0.95278 0,-0.43255 0.11906,-0.86003 0.26459,-0.94996 0.15721,-0.0972 0.26458,0.21373 0.26458,0.7661 0,0.63883 0.20691,1.13655 0.66146,1.59109 0.3638,0.3638 0.66146,0.94904 0.66146,1.30054 0,0.56294 0.14457,0.65537 1.21363,0.77586 0.6675,0.0752 1.33827,0.26144 1.49061,0.41378 0.35003,0.35003 -0.81945,2.421 -1.80486,3.19611 -2.20238,1.73239 -5.48648,0.30689 -7.24807,-3.14611 -0.30292,-0.59379 -0.65541,-1.01493 -0.78331,-0.93589 -0.25744,0.1591 0.11463,1.74434 0.65375,2.78539 1.32858,2.56548 4.91504,3.39625 7.3271,1.69726 z m 11.0574,-0.21376 v -1.16233 l -3.36898,-1.23365 c -1.85293,-0.6785 -3.6091,-1.17523 -3.9026,-1.10384 -0.6457,0.15706 2.02931,-2.34318 3.11785,-2.91415 0.84816,-0.44488 0.81276,-0.82298 -0.25053,-2.6763 -0.63038,-1.09877 -1.17454,-1.6262 -0.63214,-0.61271 0.15064,0.28148 0.27028,0.66843 0.26585,0.8599 -0.004,0.19147 -0.13917,0.11 -0.29942,-0.18104 -0.99578,-1.80841 -3.11682,-3.08814 -4.17749,-2.52048 -0.72182,0.3863 -0.67479,0.57052 0.30571,1.19756 1.10087,0.70403 2.25585,2.19381 2.46145,3.175 0.1427,0.68105 0.0945,0.64316 -0.33932,-0.26685 -0.54587,-1.14496 -1.94298,-2.50484 -3.28803,-3.20039 l -0.84009,-0.43442 0.77751,-0.43042 0.77752,-0.43042 -0.84504,-0.0818 c -0.57552,-0.0557 -1.41099,0.21854 -2.61956,0.8599 -1.33431,0.70808 -1.61034,0.94169 -1.11268,0.94169 1.64941,0 3.82993,1.263 4.72686,2.73787 1.27942,2.10384 1.22579,4.60294 -0.14203,6.61854 -0.35919,0.52929 -0.56736,0.97148 -0.4626,0.98265 0.10475,0.0112 1.79781,0.23376 3.76234,0.49465 1.96453,0.26089 4.13742,0.48988 4.82864,0.50887 l 1.25678,0.0345 z M 141.05,214.18927 c 0.32177,-0.30228 0.80845,-0.96447 1.08152,-1.47153 0.63839,-1.18542 0.3209,-1.42143 -1.9197,-1.42702 l -1.62361,-0.004 -0.26065,1.52135 -0.26066,1.52135 -0.034,-1.61697 -0.034,-1.61697 -1.91823,-0.26289 c -1.75134,-0.24001 -1.80889,-0.26622 -0.66146,-0.30125 1.74471,-0.0533 1.58601,-0.56754 -0.17514,-0.56754 -1.36906,0 -1.42873,0.0289 -1.35954,0.65924 0.0981,0.89405 1.257,2.59281 2.31802,3.39797 1.68836,1.28122 3.59236,1.34733 4.84737,0.16831 z m -62.85616,0.28979 c 0.15063,-0.28148 0.27389,-0.72201 0.27389,-0.97896 0,-0.36337 -0.0706,-0.39663 -0.3175,-0.14969 -0.17463,0.17463 -0.58432,0.3175 -0.91043,0.3175 -0.81013,0 -1.0754,0.53207 -0.48172,0.96618 0.67512,0.49366 1.11394,0.44628 1.43576,-0.15503 z m 5.87174,-1.22552 c 4.65789,-1.41344 5.53441,-1.77072 5.18975,-2.11539 -0.0865,-0.0865 -2.15703,-0.44366 -4.60111,-0.79363 -3.49345,-0.50023 -4.67255,-0.5779 -5.51357,-0.36318 -1.86399,0.47588 -1.83702,0.44179 -1.07048,1.35276 0.59333,0.70514 0.69267,1.0451 0.61837,2.11628 -0.0583,0.84106 0.0159,1.27614 0.21766,1.27603 0.1684,-9e-5 2.49012,-0.66288 5.15938,-1.47287 z m 36.07164,0.28609 c 2.59202,-0.36159 4.76668,-0.71135 4.83256,-0.77724 0.16033,-0.16033 0.86508,-3.88317 0.83031,-4.38614 -0.0151,-0.21828 -0.16377,0.0399 -0.33042,0.57365 -0.44705,1.43203 -0.5766,1.41868 -0.9261,-0.0954 -0.26775,-1.15997 -0.25558,-1.43271 0.0789,-1.76716 0.35092,-0.35092 0.45603,-0.34069 0.93289,0.0909 0.29557,0.26749 0.5374,0.35854 0.5374,0.20234 0,-0.95834 -6.21275,-2.97301 -9.16801,-2.97301 h -1.813 l -4.08351,3.0388 c -2.24593,1.67135 -4.21028,3.18282 -4.36522,3.35885 -0.15495,0.17601 0.135,0.0219 0.64432,-0.34249 0.50932,-0.36438 2.56693,-1.82846 4.57245,-3.2535 l 3.6464,-2.59098 3.96037,1.0171 c 2.1782,0.55941 3.95727,1.07756 3.95349,1.15144 -0.006,0.12598 -0.89376,0.78498 -6.66638,4.95116 -1.2692,0.916 -2.45983,1.66363 -2.64584,1.66141 -0.18601,-0.002 -2.0646,-0.52817 -4.17465,-1.16876 -2.29452,-0.69659 -3.93571,-1.06893 -4.08341,-0.92641 -0.13582,0.13107 -0.19535,0.28745 -0.13229,0.34751 0.20843,0.19851 8.57007,2.51479 9.13416,2.53027 0.30406,0.008 2.67359,-0.28067 5.26561,-0.64227 z m -3.08001,-0.40088 c -0.0218,-0.14552 -0.0516,-0.37898 -0.0661,-0.51879 -0.0247,-0.23781 6.36332,-4.77288 6.72306,-4.77288 0.28179,0 1.08728,3.84315 0.90503,4.31808 -0.1986,0.51754 -0.41139,0.56999 -3.86878,0.95364 -3.16739,0.35146 -3.64305,0.35403 -3.69316,0.0199 z m -14.51489,-0.37525 1.69274,-0.90441 -0.91127,-0.15212 c -0.5012,-0.0837 -1.50658,-0.18269 -2.23419,-0.22006 -1.31596,-0.0676 -1.32335,-0.0634 -1.40599,0.7942 -0.067,0.69551 0.0353,0.90963 0.52916,1.10771 0.33674,0.13506 0.61778,0.2531 0.62453,0.26232 0.007,0.009 0.77402,-0.39021 1.70502,-0.88764 z m 51.0393,-0.99225 1.36437,-1.49978 -1.3959,-0.51733 c -0.76775,-0.28452 -2.12742,-0.78183 -3.02149,-1.10512 l -1.62558,-0.5878 -1.73192,1.41429 c -0.95255,0.77785 -1.64979,1.44949 -1.54941,1.49252 1.05421,0.45197 6.3073,2.35886 6.43174,2.33475 0.0901,-0.0175 0.77779,-0.70664 1.52819,-1.53153 z m -75.49861,0.37531 c -0.98788,-1.80463 -1.7199,-2.05185 -2.47854,-0.83709 -0.45674,0.73136 -0.25112,0.89381 0.70808,0.55943 0.67935,-0.23682 0.86123,-0.18863 1.38254,0.36629 0.77924,0.82946 0.87814,0.80687 0.38792,-0.0886 z m 21.2868,-0.45103 c 0,-0.46467 -0.34068,-0.52839 -6.48229,-1.21238 -2.61937,-0.29172 -6.35715,-0.70929 -8.30618,-0.92793 -1.94902,-0.21864 -3.59704,-0.34416 -3.66227,-0.27893 -0.0652,0.0652 0.39834,0.19386 1.03014,0.28585 0.6318,0.092 4.66107,0.68407 8.95394,1.31573 9.31217,1.3702 8.46666,1.28854 8.46666,0.81766 z m 7.42798,-1.61221 c 1.0806,-0.80736 2.00442,-1.58126 2.05292,-1.71979 0.0485,-0.13853 -0.48727,-0.25249 -1.19062,-0.25326 -0.70335,-7.7e-4 -5.80319,-0.35506 -11.33299,-0.78732 l -10.05416,-0.78592 -3.10945,0.96311 c -1.7102,0.52972 -3.06217,1.01039 -3.00439,1.06817 0.0578,0.0578 3.24297,0.46384 7.0782,0.90235 7.23336,0.82705 17.17885,1.99563 17.44383,2.04963 0.0836,0.017 1.03607,-0.62961 2.11666,-1.43697 z m 32.74012,-0.0512 c -0.0505,-0.43747 -0.26748,-0.76019 -0.54674,-0.81315 -0.35959,-0.0682 -0.46302,0.0939 -0.46302,0.72535 0,0.64547 0.11274,0.81315 0.54674,0.81315 0.44,0 0.53039,-0.14161 0.46302,-0.72535 z m -1.27435,-0.33299 c 0,-0.43656 -0.0893,-0.79192 -0.19844,-0.7897 -0.3995,0.008 -0.79309,0.40731 -0.97435,0.98814 -0.15948,0.51102 -0.0896,0.59531 0.4935,0.59531 0.57838,0 0.67929,-0.11791 0.67929,-0.79375 z m -4.24974,-1.12448 c 0.17105,-0.61846 0.38314,-1.30307 0.47131,-1.52135 0.14251,-0.35278 0.10689,-0.35278 -0.32057,0 -0.46906,0.38711 -1.19266,1.82669 -1.19266,2.37275 0,0.1502 0.16446,0.27308 0.36546,0.27308 0.20479,0 0.5022,-0.49438 0.67646,-1.12448 z m -53.95859,0.59532 c 0,-0.14553 -0.38695,-0.2505 -0.8599,-0.23328 l -0.85989,0.0313 0.79375,0.20197 c 0.43656,0.11109 0.82351,0.21606 0.85989,0.23328 0.0364,0.0172 0.0661,-0.0878 0.0661,-0.23328 z m 29.85426,-2.475 c -1.24945,-0.85079 -1.85085,-1.81603 -2.36866,-3.80171 l -0.4676,-1.79309 -0.0152,1.30553 c -0.009,0.81077 0.19429,1.73838 0.53767,2.44772 0.62035,1.28146 2.23643,2.75889 2.78681,2.5477 0.24672,-0.0947 0.0972,-0.3179 -0.47297,-0.70615 z m 3.29706,-1.3373 c 1.37892,-0.96357 1.48724,-1.10557 1.07391,-1.40781 -0.55286,-0.40426 -1.51869,-0.45032 -1.27805,-0.061 0.10966,0.17744 -0.0654,0.21609 -0.4928,0.10882 -0.53965,-0.13545 -0.74232,-0.0267 -1.09017,0.5847 -0.39813,0.69982 -0.41513,0.70594 -0.24903,0.0896 0.0981,-0.3638 0.22203,-0.78052 0.27551,-0.92604 0.0535,-0.14552 -0.69921,-0.6813 -1.67265,-1.19062 -2.31258,-1.20999 -2.28009,-1.20035 -2.1126,-0.62662 0.0794,0.27188 0.27547,1.0019 0.43578,1.62228 0.48275,1.86823 2.28143,3.50045 3.3119,3.00541 0.14552,-0.0699 0.95471,-0.60936 1.7982,-1.19878 z m 15.25134,1.03755 c 1.95402,-0.41104 5.72287,-1.77722 7.71581,-2.79692 l 1.16382,-0.59548 -2.6357,-0.88518 c -3.07683,-1.03332 -3.40876,-1.05762 -4.94218,-0.36182 -0.63435,0.28785 -1.33196,0.52098 -1.55024,0.51808 -0.54146,-0.007 1.33746,-1.01643 1.91822,-1.03034 0.25467,-0.006 0.46303,-0.13016 0.46303,-0.27568 0,-0.35095 -0.11286,-0.33945 -1.75831,0.17923 l -1.40794,0.44382 0.1393,1.07754 0.1393,1.07754 -0.38847,-1.02532 c -0.52817,-1.39402 -0.84797,-1.68374 -1.44619,-1.31014 -0.38131,0.23813 -0.5357,0.20116 -0.77761,-0.1862 -0.2292,-0.367 -0.22454,-0.51687 0.0193,-0.62274 0.17666,-0.0767 -0.0208,-0.10695 -0.43892,-0.0673 -0.83113,0.0789 -1.77076,0.85938 -2.47993,2.05991 -0.28671,0.48535 -0.82415,0.88115 -1.45186,1.06921 -0.54814,0.16424 -0.99663,0.3819 -0.99663,0.4837 0,0.10181 1.0418,0.46168 2.3151,0.79972 1.27331,0.33804 2.73183,0.88374 3.24115,1.21267 1.12869,0.72891 0.89652,0.71159 3.15891,0.23568 z m -3.42349,-1.30861 c -3.00946,-1.09191 -3.23558,-1.23509 -1.75322,-1.11009 0.70923,0.0598 1.36649,0.23332 1.46059,0.38558 0.0941,0.15226 0.50761,0.40478 0.91889,0.56115 0.65978,0.25085 0.80932,0.20609 1.27059,-0.38032 0.59564,-0.75723 1.14687,-0.85221 1.48099,-0.25518 0.20013,0.35762 0.52178,0.30356 2.5407,-0.42696 1.27135,-0.46003 2.36676,-0.78121 2.43425,-0.71373 0.12461,0.12462 -6.03004,2.59158 -6.42028,2.57343 -0.117,-0.005 -0.98663,-0.29069 -1.93251,-0.63388 z m 2.75648,-0.046 c 0.23018,-0.0883 0.41852,-0.26692 0.41852,-0.39688 0,-0.37856 -0.69889,-0.27251 -1.05834,0.1606 -0.34918,0.42075 -0.0902,0.5164 0.63982,0.23628 z m -3.68253,-1.42433 c -0.3293,-0.13991 0.0205,-0.16885 0.92605,-0.0766 0.80036,0.0815 1.50481,0.19104 1.56545,0.24342 0.22776,0.19673 -1.98444,0.0486 -2.4915,-0.1668 z m 1.11397,-1.0609 c 0.0761,-0.29105 0.18402,-0.52917 0.23981,-0.52917 0.0558,0 0.10143,0.23812 0.10143,0.52917 0,0.29104 -0.10791,0.52916 -0.23981,0.52916 -0.1319,0 -0.17754,-0.23812 -0.10143,-0.52916 z m -18.58427,-0.0661 -0.0991,-1.91823 -1.40175,-0.44686 c -1.99597,-0.63628 -2.14163,-0.60194 -2.65794,0.62651 -0.25435,0.60517 -0.43294,1.12327 -0.39688,1.15134 0.0911,0.0709 4.55283,2.48913 4.60915,2.49815 0.0251,0.004 0.001,-0.85589 -0.0535,-1.91091 z m 8.71245,0.39687 c -0.217,-1.17729 -1.39548,-3.7703 -1.71354,-3.7703 -0.12264,0 -0.36286,0.46685 -0.53382,1.03744 -0.27828,0.92882 -0.25168,1.11265 0.25396,1.75548 0.31064,0.39491 0.5648,0.83766 0.5648,0.98389 0,0.33687 0.81701,0.96617 1.26875,0.97726 0.25273,0.006 0.2947,-0.25212 0.15985,-0.98377 z m -3.46861,-0.33073 c 0.14988,-0.57314 -0.004,-0.65093 -0.57358,-0.29011 -0.20054,0.12702 -0.28281,0.36332 -0.18282,0.52511 0.27903,0.45149 0.60322,0.35077 0.7564,-0.235 z m 1.51084,0.16469 c 0,-0.44874 -0.64578,-1.01821 -0.88424,-0.77975 -0.39286,0.39286 -0.1597,1.14423 0.35507,1.14423 0.29104,0 0.52917,-0.16402 0.52917,-0.36448 z m 31.08854,-0.16469 c -0.0899,-0.14552 -0.42439,-0.25621 -0.74322,-0.24599 -0.55889,0.0179 -0.56071,0.0267 -0.0505,0.24599 0.72826,0.31295 0.98716,0.31295 0.79375,0 z m -33.08519,-0.78616 c 0.66802,-0.41286 0.91019,-0.80865 1.16184,-1.89883 0.3642,-1.57782 0.21179,-1.80218 -1.22885,-1.80886 -1.44688,-0.007 -2.96342,1.04747 -2.96342,2.05993 0,0.13569 0.62507,0.5137 1.38906,0.84003 0.76398,0.32633 1.24913,0.64682 1.0781,0.71219 -0.17103,0.0654 -0.79137,-0.12621 -1.37853,-0.42576 -1.13443,-0.57874 -1.6178,-0.67799 -1.6178,-0.33217 0,0.21169 2.03852,1.32742 2.48231,1.35863 0.12835,0.009 0.61312,-0.21829 1.07729,-0.50516 z m 4.12972,-0.88391 c -0.1655,-0.50148 -0.51038,-1.10135 -0.76641,-1.33304 -0.3587,-0.32462 -0.31099,-0.0941 0.20796,1.00472 0.7445,1.57645 1.02475,1.7412 0.55845,0.32832 z m -13.64245,0.14641 c 0,-0.35623 -20.74814,-10.75701 -20.98542,-10.51972 -0.25987,0.25986 0.2336,0.54049 8.41772,4.78702 4.43838,2.30297 8.90322,4.63817 9.92187,5.18934 1.84485,0.99823 2.64583,1.16272 2.64583,0.54336 z m 0.66146,-1.25446 c 0,-0.2011 0.11499,-0.4367 0.25554,-0.52356 0.20845,-0.12884 2.37454,0.37353 3.60409,0.83586 0.15826,0.0595 0.60765,-0.3752 0.99865,-0.96603 l 0.7109,-1.07424 -0.60178,-0.23896 c -0.33097,-0.13143 -4.29243,-1.85599 -8.80323,-3.83236 l -8.20145,-3.59341 h -3.91885 c -2.89397,0 -3.86949,0.0799 -3.73013,0.30535 0.24784,0.40101 19.22979,9.72292 19.48782,9.57034 0.10915,-0.0645 0.19844,-0.28189 0.19844,-0.48299 z m 5.42396,0.39687 c 0.0899,-0.14552 0.0374,-0.26458 -0.11668,-0.26458 -0.1541,0 -0.28019,0.11906 -0.28019,0.26458 0,0.14552 0.0525,0.26459 0.11667,0.26459 0.0642,0 0.19026,-0.11907 0.2802,-0.26459 z m 1.30734,-1.99278 c 0.28248,-0.21365 0.78849,-0.38846 1.12448,-0.38846 0.33599,0 0.61089,-0.11075 0.61089,-0.24611 0,-0.14499 -0.31097,-0.15693 -0.75687,-0.0291 -0.85914,0.2464 -1.88896,0.7621 -1.88896,0.94593 0,0.22989 0.39535,0.1073 0.91046,-0.28231 z m -15.86234,-8.96008 c 0.80104,-1.05021 0.84237,-1.76862 0.13838,-2.40572 -0.42058,-0.38062 -1.3883,-0.54508 -4.82864,-0.82057 -9.22607,-0.73881 -8.96356,-0.73672 -9.9912,-0.0795 l -0.92605,0.59229 1.05888,0.28472 c 1.44224,0.3878 1.71926,0.60621 1.71926,1.35555 0,0.54956 -0.15984,0.66827 -1.10281,0.81906 l -1.10281,0.17635 0.60816,0.49245 c 0.55805,0.45188 1.15009,0.49097 7.18531,0.47441 l 6.57715,-0.018 z M 80.9763,188.20184 c -0.003,-0.76402 -0.10476,-1.59748 -0.22674,-1.85215 -0.13002,-0.27144 -0.11793,-0.46302 0.0292,-0.46302 0.39828,0 0.91424,2.07909 0.72725,2.93046 -0.26584,1.21036 -0.52428,0.91018 -0.52974,-0.61529 z m -34.124412,35.52328 c -0.09269,-0.14998 0.01351,-0.19434 0.248969,-0.10398 0.458368,0.17589 0.542233,0.36553 0.161648,0.36553 -0.136932,0 -0.32171,-0.1177 -0.410617,-0.26155 z M 149.50234,204.20689 c 1.04102,-1.23965 0.44155,-3.6648 -1.07692,-4.35666 -0.82734,-0.37695 -2.75201,0.0668 -4.93634,1.13826 -0.83674,0.41043 -1.52135,0.69778 -1.52135,0.63856 0,-0.47306 4.76108,-2.51121 5.86614,-2.51121 0.2704,0 0.91833,0.39104 1.43986,0.86897 0.74994,0.68728 0.97673,1.12196 1.08458,2.07877 0.12045,1.06863 0.0479,1.30057 -0.62138,1.98803 -0.41676,0.42804 -0.52232,0.49792 -0.23459,0.15528 z m -1.81211,-1.10183 c -0.0913,-0.57083 -0.48999,-1.42296 -0.88603,-1.89363 -0.40184,-0.47755 -0.54807,-0.79915 -0.33088,-0.72768 0.6568,0.21615 1.57983,1.83585 1.57983,2.77225 0,1.18735 -0.15952,1.121 -0.36292,-0.15094 z m 1.33817,-0.33259 c -0.11459,-0.68098 -0.44043,-1.5332 -0.72409,-1.89381 -0.65993,-0.83897 -0.66624,-1.18729 -0.0108,-0.59408 0.71739,0.64923 1.13529,1.79719 1.03195,2.83477 -0.0842,0.84586 -0.0994,0.82819 -0.2971,-0.34688 z m -30.13539,-2.2617 c -0.27162,-0.76394 -0.92675,-1.73125 -1.65868,-2.44907 -1.18689,-1.164 -1.24089,-1.18565 -2.85641,-1.145 -1.49977,0.0377 -1.55225,0.0217 -0.58832,-0.17997 0.58209,-0.12178 2.33162,-0.37046 3.88784,-0.55262 l 2.82951,-0.33121 1.16129,0.95159 c 0.91332,0.7484 1.1613,1.12509 1.1613,1.76411 v 0.81252 l -0.54051,-0.76082 c -0.29728,-0.41846 -0.93027,-1.0279 -1.40665,-1.35431 -0.74661,-0.51159 -1.06756,-0.56832 -2.32581,-0.41111 -0.80282,0.1003 -1.45967,0.23979 -1.45967,0.30997 0,0.0702 0.35752,0.5081 0.79451,0.97315 0.8136,0.86586 1.72023,2.82632 1.54716,3.34552 -0.0531,0.15944 -0.29865,-0.2783 -0.54556,-0.97275 z m 8.91951,-1.00762 c 1.06788,-0.54243 1.71979,-1.36369 1.71979,-2.16653 0,-0.73144 -0.97596,-2.63695 -1.43089,-2.79377 -0.26748,-0.0922 -4.1836,0.3537 -6.6389,0.75591 -0.58208,0.0953 -0.99501,0.10636 -0.91762,0.0245 0.20471,-0.21661 6.01402,-1.23448 7.04556,-1.23448 0.72049,0 0.99125,0.17614 1.52512,0.99219 0.98411,1.50426 1.08982,2.28436 0.44986,3.31983 -0.30211,0.48883 -0.85548,1.02829 -1.2297,1.1988 -1.00258,0.4568 -1.45003,0.37433 -0.52322,-0.0964 z m -4.5663,-0.64153 c -0.18314,-0.29674 -0.22122,-0.53953 -0.0846,-0.53953 0.27997,0 -3e-5,-1.16018 -0.51791,-2.14593 -0.3307,-0.62948 -0.32971,-0.63005 0.23036,-0.13285 0.5847,0.51906 0.94802,1.79245 0.79423,2.78365 -0.0888,0.57225 -0.0902,0.57237 -0.42206,0.0347 z m 2.6264,-0.61417 c -0.0245,-0.40486 -0.22463,-1.16728 -0.44482,-1.69427 -0.50492,-1.20844 -0.31196,-1.46938 0.26357,-0.35643 0.25413,0.49143 0.38915,1.23542 0.32857,1.81052 -0.0781,0.74154 -0.11353,0.79929 -0.14732,0.24018 z m 1.96542,-0.18994 c 0.0814,-0.52778 -0.0306,-1.40965 -0.26034,-2.05052 -0.46706,-1.30269 -0.35511,-1.47152 0.22803,-0.34387 0.45377,0.87751 0.52433,2.32471 0.14253,2.92355 -0.17673,0.2772 -0.20997,0.11763 -0.11022,-0.52916 z m -81.683232,-7.31907 c -0.214217,-0.25951 -0.254627,-0.47694 -0.09854,-0.53022 0.65876,-0.22486 1.984375,-1.16494 1.984375,-1.40724 0,-0.17063 -1.577485,-0.26847 -4.328697,-0.26847 -5.457252,0 -6.783803,-0.16225 -6.783803,-0.82972 0,-0.45192 0.249167,-0.49331 2.976563,-0.49441 1.637109,-6.7e-4 4.334751,-0.0795 5.994759,-0.1751 l 3.018197,-0.1739 -0.177068,0.88535 c -0.204284,1.02142 -0.781684,1.73797 -1.842528,2.28655 -0.607273,0.31403 -0.687915,0.4574 -0.431248,0.76666 0.173636,0.20922 0.256171,0.3804 0.183411,0.3804 -0.07276,0 -0.295699,-0.19796 -0.495418,-0.4399 z m 2.349414,-2.93354 c 0.08548,-0.25775 -1.150327,-0.33073 -5.600908,-0.33073 -3.501764,0 -5.71059,0.099 -5.71059,0.25592 0,0.2606 3.766813,0.44478 8.57747,0.41939 1.854325,-0.01 2.656528,-0.11089 2.734028,-0.34458 z m -0.270115,-1.63244 c -0.115087,-0.4401 -0.08065,-0.5434 0.115686,-0.34706 0.15375,0.15375 0.227487,0.43572 0.16386,0.6266 -0.06605,0.19816 -0.185987,0.0782 -0.279546,-0.27954 z"
         id="path4797"
         inkscape:connector-curvature="0" />
    </g>
  </g>
</svg>
